# Blender 5.0.1
# www.blender.org
o bamboo_d_culms
v 0.136249 0.000000 0.007653
v 0.115764 0.000000 0.052911
v 0.070506 0.000000 0.069816
v 0.025320 0.000000 0.052838
v 0.004762 0.000000 0.007653
v 0.025247 0.000000 -0.037606
v 0.070506 0.000000 -0.054511
v 0.115691 0.000000 -0.037533
v 0.162300 0.026064 0.007664
v 0.133711 0.026064 0.070828
v 0.070546 0.026064 0.094422
v 0.007484 0.026064 0.070727
v -0.021208 0.026064 0.007664
v 0.007382 0.026064 -0.055500
v 0.070546 0.026064 -0.079094
v 0.133609 0.026064 -0.055399
v 0.139238 0.052127 0.007690
v 0.117862 0.052127 0.054915
v 0.070637 0.052127 0.072554
v 0.023489 0.052127 0.054838
v 0.002037 0.052127 0.007690
v 0.023413 0.052127 -0.039535
v 0.070637 0.052127 -0.057175
v 0.117786 0.052127 -0.039459
v 0.141062 0.668298 0.010480
v 0.122216 0.668298 0.052118
v 0.080578 0.668298 0.067671
v 0.039007 0.668298 0.052051
v 0.020094 0.668298 0.010480
v 0.038940 0.668298 -0.031158
v 0.080578 0.668298 -0.046711
v 0.122149 0.668298 -0.031091
v 0.165646 0.694362 0.010670
v 0.139350 0.694362 0.068765
v 0.081255 0.694362 0.090465
v 0.023253 0.694362 0.068672
v -0.003136 0.694362 0.010670
v 0.023160 0.694362 -0.047426
v 0.081255 0.694362 -0.069126
v 0.139257 0.694362 -0.047332
v 0.145028 0.720426 0.010865
v 0.125373 0.720426 0.054288
v 0.081950 0.720426 0.070508
v 0.038597 0.720426 0.054218
v 0.018872 0.720426 0.010865
v 0.038527 0.720426 -0.032558
v 0.081950 0.720426 -0.048778
v 0.125303 0.720426 -0.032488
v 0.158456 1.336597 0.016838
v 0.141248 1.336597 0.054856
v 0.103231 1.336597 0.069056
v 0.065275 1.336597 0.054794
v 0.048006 1.336597 0.016838
v 0.065214 1.336597 -0.021179
v 0.103231 1.336597 -0.035379
v 0.141187 1.336597 -0.021118
v 0.181351 1.362661 0.017145
v 0.157350 1.362661 0.070171
v 0.104323 1.362661 0.089978
v 0.051382 1.362661 0.070086
v 0.027296 1.362661 0.017145
v 0.051297 1.362661 -0.035881
v 0.104323 1.362661 -0.055688
v 0.157264 1.362661 -0.035796
v 0.162986 1.388724 0.017456
v 0.145052 1.388724 0.057077
v 0.105430 1.388724 0.071877
v 0.065873 1.388724 0.057013
v 0.047875 1.388724 0.017456
v 0.065809 1.388724 -0.022166
v 0.105430 1.388724 -0.036965
v 0.144988 1.388724 -0.022102
v 0.184671 2.004895 0.025954
v 0.169413 2.004895 0.059662
v 0.135705 2.004895 0.072253
v 0.102050 2.004895 0.059608
v 0.086739 2.004895 0.025954
v 0.101996 2.004895 -0.007755
v 0.135705 2.004895 -0.020346
v 0.169359 2.004895 -0.007701
v 0.019248 0.000000 0.190302
v 0.000072 0.000000 0.220536
v -0.035179 0.000000 0.221126
v -0.054014 0.000000 0.190302
v -0.034839 0.000000 0.160069
v 0.000413 0.000000 0.159479
v 0.033743 0.023483 0.190373
v 0.006981 0.023483 0.232568
v -0.042217 0.023483 0.233392
v -0.068503 0.023483 0.190373
v -0.041742 0.023483 0.148178
v 0.007457 0.023483 0.147354
v 0.020848 0.046966 0.190531
v 0.000840 0.046966 0.222078
v -0.035943 0.046966 0.222694
v -0.055596 0.046966 0.190531
v -0.035588 0.046966 0.158984
v 0.001196 0.046966 0.158368
v 0.016245 0.903186 0.225119
v -0.000629 0.903186 0.251725
v -0.031650 0.903186 0.252245
v -0.048225 0.903186 0.225119
v -0.031351 0.903186 0.198514
v -0.000329 0.903186 0.197994
v 0.029041 0.926669 0.226672
v 0.005501 0.926669 0.263788
v -0.037775 0.926669 0.264513
v -0.060897 0.926669 0.226672
v -0.037357 0.926669 0.189556
v 0.005920 0.926669 0.188832
v 0.017742 0.950152 0.228253
v 0.000150 0.950152 0.255991
v -0.032192 0.950152 0.256532
v -0.049471 0.950152 0.228253
v -0.031879 0.950152 0.200515
v 0.000463 0.950152 0.199974
v 0.014426 1.806373 0.303423
v 0.000144 1.806373 0.325941
v -0.026111 1.806373 0.326381
v -0.040139 1.806373 0.303423
v -0.025857 1.806373 0.280905
v 0.000398 1.806373 0.280465
v -0.044392 0.000000 -0.200516
v -0.060163 0.000000 -0.171970
v -0.093569 0.000000 -0.171201
v -0.108895 0.000000 -0.200516
v -0.093124 0.000000 -0.229061
v -0.059719 0.000000 -0.229830
v -0.031651 0.021012 -0.200582
v -0.053662 0.021012 -0.160743
v -0.100283 0.021012 -0.159669
v -0.121673 0.021012 -0.200582
v -0.099663 0.021012 -0.240420
v -0.053042 0.021012 -0.241494
v -0.043051 0.042025 -0.200730
v -0.059507 0.042025 -0.170945
v -0.094364 0.042025 -0.170142
v -0.110357 0.042025 -0.200730
v -0.093901 0.042025 -0.230516
v -0.059044 0.042025 -0.231319
v -0.057452 0.808165 -0.233237
v -0.071330 0.808165 -0.208118
v -0.100727 0.808165 -0.207441
v -0.114214 0.808165 -0.233237
v -0.100336 0.808165 -0.258357
v -0.070939 0.808165 -0.259034
v -0.046650 0.829177 -0.234697
v -0.066011 0.829177 -0.199654
v -0.107020 0.829177 -0.198709
v -0.125836 0.829177 -0.234697
v -0.106475 0.829177 -0.269740
v -0.065466 0.829177 -0.270684
v -0.057071 0.850189 -0.236182
v -0.071540 0.850189 -0.209994
v -0.102188 0.850189 -0.209288
v -0.116249 0.850189 -0.236182
v -0.101780 0.850189 -0.262371
v -0.071133 0.850189 -0.263077
v -0.082479 1.616329 -0.306829
v -0.094225 1.616329 -0.285569
v -0.119105 1.616329 -0.284996
v -0.130521 1.616329 -0.306829
v -0.118775 1.616329 -0.328090
v -0.093894 1.616329 -0.328663
vn 0.6735 -0.6733 0.3049
vn 0.2620 -0.6627 0.7015
vn -0.2636 -0.6620 0.7016
vn -0.6742 -0.6719 0.3067
vn -0.6746 -0.6721 -0.3053
vn -0.2623 -0.6619 -0.7022
vn 0.2636 -0.6621 -0.7015
vn 0.6733 -0.6729 -0.3063
vn 0.7094 0.6274 0.3211
vn 0.2753 0.6173 0.7370
vn -0.2765 0.6183 0.7357
vn -0.7068 0.6301 0.3216
vn -0.7069 0.6308 -0.3200
vn -0.2747 0.6194 -0.7354
vn 0.2765 0.6180 -0.7360
vn 0.7087 0.6275 -0.3225
vn 1.0000 -0.0030 -0.0022
vn 0.6843 -0.0015 0.7292
vn 0.6813 -0.0015 0.7320
vn 0.0026 0.0079 1.0000
vn -0.0046 0.0080 1.0000
vn -0.6799 0.0204 0.7330
vn -0.6854 0.0206 0.7279
vn -0.9996 0.0293 0.0022
vn -0.9996 0.0293 -0.0002
vn -0.6842 0.0272 -0.7288
vn -0.6809 0.0271 -0.7319
vn -0.0026 0.0170 -0.9999
vn 0.0046 0.0169 -0.9998
vn 0.6802 0.0051 -0.7330
vn 0.6854 0.0050 -0.7282
vn 0.6899 -0.6530 0.3123
vn 0.2695 -0.6379 0.7214
vn -0.2734 -0.6292 0.7276
vn -0.7058 -0.6314 0.3211
vn -0.7083 -0.6289 -0.3206
vn -0.2737 -0.6230 -0.7327
vn 0.2728 -0.6314 -0.7259
vn 0.6917 -0.6501 -0.3147
vn 0.7402 0.5830 0.3350
vn 0.2856 0.5778 0.7646
vn -0.2846 0.5876 0.7575
vn -0.7228 0.6078 0.3288
vn -0.7210 0.6113 -0.3263
vn -0.2812 0.5952 -0.7528
vn 0.2852 0.5851 -0.7592
vn 0.7376 0.5860 -0.3356
vn 0.9998 -0.0218 -0.0035
vn 0.6859 -0.0183 0.7274
vn 0.6794 -0.0182 0.7335
vn 0.0067 0.0021 1.0000
vn -0.0087 0.0027 1.0000
vn -0.6767 0.0286 0.7357
vn -0.6882 0.0291 0.7250
vn -0.9989 0.0472 0.0036
vn -0.9989 0.0472 -0.0015
vn -0.6855 0.0431 -0.7268
vn -0.6787 0.0429 -0.7331
vn -0.0067 0.0220 -0.9997
vn 0.0087 0.0214 -0.9997
vn 0.6772 -0.0039 -0.7358
vn 0.6884 -0.0044 -0.7253
vn 0.7096 -0.6271 0.3212
vn 0.2777 -0.6084 0.7434
vn -0.2832 -0.5931 0.7537
vn -0.7358 -0.5886 0.3348
vn -0.7397 -0.5838 -0.3348
vn -0.2846 -0.5818 -0.7619
vn 0.2822 -0.5970 -0.7510
vn 0.7126 -0.6222 -0.3242
vn 0.7684 0.5373 0.3478
vn 0.2953 0.5365 0.7906
vn -0.2929 0.5538 0.7795
vn -0.7409 0.5809 0.3371
vn -0.7378 0.5866 -0.3340
vn -0.2883 0.5667 -0.7718
vn 0.2939 0.5494 -0.7822
vn 0.7645 0.5428 -0.3478
vn 0.9994 -0.0351 -0.0047
vn 0.6871 -0.0302 0.7259
vn 0.6778 -0.0299 0.7346
vn 0.0100 -0.0011 0.9999
vn -0.0119 -0.0000 0.9999
vn -0.6741 0.0365 0.7377
vn -0.6903 0.0375 0.7225
vn -0.9980 0.0629 0.0047
vn -0.9980 0.0630 -0.0026
vn -0.6864 0.0573 -0.7250
vn -0.6768 0.0569 -0.7340
vn -0.0099 0.0274 -0.9996
vn 0.0120 0.0264 -0.9996
vn 0.6748 -0.0094 -0.7380
vn 0.6907 -0.0104 -0.7231
vn -0.0000 -1.0000 -0.0000
vn -0.0000 1.0000 -0.0000
vn 0.7484 -0.4634 0.4746
vn 0.0149 -0.4594 0.8881
vn -0.7546 -0.4670 0.4611
vn -0.7494 -0.4610 -0.4753
vn -0.0149 -0.4552 -0.8903
vn 0.7555 -0.4649 -0.4616
vn 0.7672 0.4180 0.4866
vn 0.0153 0.4111 0.9114
vn -0.7736 0.4220 0.4727
vn -0.7649 0.4237 -0.4851
vn -0.0152 0.4213 -0.9068
vn 0.7717 0.4269 -0.4715
vn 0.9997 0.0045 0.0220
vn 0.4939 -0.0292 0.8690
vn 1.0000 0.0056 -0.0052
vn -0.4759 -0.0280 0.8790
vn -0.4876 -0.0277 0.8726
vn -1.0000 0.0084 0.0053
vn -0.9997 0.0095 -0.0218
vn -0.4936 0.0425 -0.8686
vn -0.4840 0.0427 -0.8740
vn 0.4758 0.0415 -0.8786
vn 0.4873 0.0412 -0.8723
vn 0.7567 -0.4440 0.4799
vn 0.0149 -0.4600 0.8878
vn -0.7648 -0.4436 0.4673
vn -0.7785 -0.3875 -0.4938
vn -0.0156 -0.3598 -0.9329
vn 0.7838 -0.3954 -0.4789
vn 0.7919 0.3472 0.5023
vn 0.0159 0.3183 0.9478
vn -0.7976 0.3553 0.4874
vn -0.7710 0.4080 -0.4890
vn -0.0151 0.4257 -0.9047
vn 0.7794 0.4071 -0.4762
vn 0.9993 0.0005 0.0378
vn 0.4987 -0.0706 0.8639
vn 0.9998 0.0057 -0.0210
vn -0.4685 -0.0685 0.8808
vn -0.4937 -0.0672 0.8670
vn -0.9997 0.0090 0.0212
vn -0.9992 0.0142 -0.0376
vn -0.4982 0.0845 -0.8629
vn -0.4774 0.0855 -0.8745
vn 0.4682 0.0827 -0.8797
vn 0.4931 0.0815 -0.8661
vn 0.7736 -0.4678 0.4274
vn 0.0202 -0.4760 0.8792
vn -0.7806 -0.4734 0.4081
vn -0.7722 -0.4709 -0.4266
vn -0.0202 -0.4803 -0.8769
vn 0.7801 -0.4743 -0.4079
vn 0.7896 0.4315 0.4363
vn 0.0207 0.4413 0.8971
vn -0.7987 0.4331 0.4176
vn -0.7928 0.4239 -0.4380
vn -0.0208 0.4309 -0.9021
vn 0.7997 0.4309 -0.4181
vn 0.9995 0.0198 0.0241
vn 0.5207 0.0494 0.8523
vn 0.5142 0.0495 0.8562
vn -0.4987 0.0380 0.8659
vn -0.5171 0.0373 0.8551
vn -1.0000 -0.0050 0.0013
vn -0.9997 -0.0061 -0.0242
vn -0.5209 -0.0354 -0.8529
vn 0.4989 -0.0236 -0.8663
vn 0.5172 -0.0229 -0.8555
vn 0.9998 0.0187 -0.0013
vn 0.8080 -0.3844 0.4464
vn 0.0213 -0.3782 0.9255
vn -0.8057 -0.4164 0.4213
vn -0.7773 -0.4597 -0.4295
vn -0.0202 -0.4808 -0.8766
vn 0.7965 -0.4384 -0.4164
vn 0.7927 0.4241 0.4379
vn 0.0206 0.4458 0.8949
vn -0.8120 0.4005 0.4245
vn -0.8222 0.3430 -0.4543
vn -0.0217 0.3352 -0.9419
vn 0.8209 0.3768 -0.4292
vn 0.9986 0.0367 0.0386
vn 0.5227 0.0990 0.8467
vn 0.5088 0.0994 0.8551
vn -0.4874 0.0752 0.8699
vn -0.5273 0.0720 0.8466
vn -0.9997 -0.0171 0.0164
vn -0.9990 -0.0222 -0.0389
vn -0.5233 -0.0843 -0.8480
vn 0.4878 -0.0601 -0.8709
vn 0.5276 -0.0569 -0.8476
vn 0.9994 0.0316 -0.0165
vn 1.0000 -0.0030 0.0002
vn 0.9998 -0.0218 0.0016
vn 0.9994 -0.0352 0.0026
vn 0.4842 -0.0294 0.8745
vn 0.4778 -0.0715 0.8756
vn -0.5146 -0.0355 -0.8567
vn 0.8081 -0.3844 0.4464
vn -0.5095 -0.0848 -0.8563
vt 0.447391 0.000000
vt 0.336158 0.086879
vt 0.349703 0.000000
vt 0.223588 0.086879
vt 0.262163 0.000000
vt 0.196009 0.000000
vt 0.112555 0.086879
vt 0.269388 0.000000
vt 0.763649 0.086879
vt 0.609255 0.000000
vt 0.676669 0.086879
vt 0.611392 0.000000
vt 0.540641 0.000000
vt 0.570761 0.086879
vt 0.448258 0.173758
vt 0.454553 0.086879
vt 0.348069 0.173758
vt 0.186536 0.173758
vt 0.254343 0.173758
vt 0.053249 0.086879
vt 0.623836 0.173758
vt 0.544251 0.173758
vt 0.356755 2.227661
vt 0.281675 2.227661
vt 0.257577 0.173758
vt 0.234489 2.227661
vt 0.316346 2.227661
vt 0.557342 2.227661
vt 0.618946 0.173758
vt 0.580090 2.227661
vt 0.525164 2.227661
vt 0.443641 2.227661
vt 0.343934 2.314540
vt 0.245877 2.314540
vt 0.161727 2.314540
vt 0.665697 2.314540
vt 0.638510 2.314540
vt 0.553421 2.314540
vt 0.444227 2.401419
vt 0.450447 2.314540
vt 0.355655 2.401419
vt 0.228757 2.401419
vt 0.310507 2.401419
vt 0.205550 2.314540
vt 0.564383 2.401419
vt 0.527566 2.401419
vt 0.366881 4.455323
vt 0.308726 4.455323
vt 0.278665 2.401419
vt 0.282412 4.455323
vt 0.354769 4.455323
vt 0.506319 4.455323
vt 0.584824 2.401419
vt 0.539295 4.455323
vt 0.503327 4.455323
vt 0.438223 4.455323
vt 0.355235 4.542202
vt 0.277510 4.542202
vt 0.226539 4.542202
vt 0.567169 4.542202
vt 0.586649 4.542202
vt 0.528485 4.542202
vt 0.438666 4.629081
vt 0.444451 4.542202
vt 0.306568 4.629081
vt 0.278829 4.629081
vt 0.352403 4.629081
vt 0.308155 4.542202
vt 0.509706 4.629081
vt 0.542429 4.629081
vt 0.505088 4.629081
vt 0.377534 6.682985
vt 0.366056 4.629081
vt 0.335715 6.682985
vt 0.323826 6.682985
vt 0.378099 6.682985
vt 0.471137 6.682985
vt 0.501919 6.682985
vt 0.480983 6.682985
vt 0.067325 0.000000
vt 0.041152 0.078276
vt 0.034160 0.000000
vt 2.041152 0.078276
vt 1.987557 0.000000
vt 2.034160 0.000000
vt 1.979321 0.078276
vt 1.957384 0.000000
vt 1.969755 0.078276
vt 1.983933 0.000000
vt 2.046277 0.000000
vt 0.062621 0.078276
vt 0.046277 0.000000
vt 0.069570 0.156552
vt 0.088008 0.078276
vt 1.986635 0.156552
vt 1.955076 0.156552
vt 1.936028 0.078276
vt 2.047932 0.156552
vt 2.062621 0.078276
vt 0.054176 3.010621
vt 0.034944 0.156552
vt 2.034944 0.156552
vt 1.993114 3.010621
vt 1.970852 3.010621
vt 1.991854 3.010621
vt 1.982502 0.156552
vt 0.037091 3.010621
vt 0.047932 0.156552
vt 0.069775 3.088897
vt 0.029439 3.010621
vt 2.035015 3.088897
vt 2.029439 3.010621
vt 1.954866 3.088897
vt 1.982370 3.088897
vt 2.037091 3.010621
vt 0.048084 3.088897
vt 0.055372 3.167173
vt 0.035015 3.088897
vt 1.992597 3.167173
vt 1.986551 3.088897
vt 1.969630 3.167173
vt 1.991164 3.167173
vt 2.037893 3.167173
vt 2.048084 3.088897
vt 0.037893 3.167173
vt 0.039438 6.021242
vt 0.029878 3.167173
vt 2.029878 3.167173
vt 1.999689 6.021242
vt 1.985843 6.021242
vt 1.999911 6.021242
vt 0.027714 6.021242
vt 2.023846 6.021242
vt 1.010321 0.070041
vt 1.070556 0.000000
vt 1.032604 0.000000
vt 1.061997 0.070041
vt 1.133677 0.000000
vt 1.154938 0.070041
vt 1.136940 0.000000
vt 1.098927 0.000000
vt 1.102685 0.070041
vt 1.050903 0.000000
vt 1.069707 0.140082
vt 1.135903 0.140082
vt 1.155401 0.070041
vt 1.099349 0.140082
vt 1.049563 0.140082
vt 1.038882 0.070041
vt 1.030234 0.140082
vt 1.075388 2.693882
vt 1.120719 2.693882
vt 1.138910 0.140082
vt 1.124816 2.693882
vt 1.059292 2.693882
vt 1.046809 2.693882
vt 1.069899 2.763923
vt 1.135403 2.763923
vt 1.138470 2.763923
vt 1.096266 2.693882
vt 1.049862 2.763923
vt 1.030766 2.763923
vt 1.075004 2.833964
vt 1.121766 2.833964
vt 1.125839 2.833964
vt 1.099255 2.763923
vt 1.058575 2.833964
vt 1.045635 2.833964
vt 1.080117 5.387765
vt 1.107555 5.387765
vt 1.111230 5.387765
vt 1.096495 2.833964
vt 1.069006 5.387765
vt 1.061996 5.387765
vt 0.432473 6.682985
vt 0.023846 6.021242
vt 2.027714 6.021242
vt 1.093139 5.387765
s 0
f 1/1/1 10/2/1 2/3/1
f 2/3/2 11/4/2 3/5/2
f 11/4/3 4/6/3 3/5/3
f 12/7/4 5/8/4 4/6/4
f 5/8/5 14/9/5 6/10/5
f 6/10/6 15/11/6 7/12/6
f 15/11/7 8/13/7 7/12/7
f 16/14/8 1/1/8 8/13/8
f 17/15/9 10/2/9 9/16/9
f 18/17/10 11/4/10 10/2/10
f 11/4/11 20/18/11 12/7/11
f 12/7/12 21/19/12 13/20/12
f 21/19/13 14/9/13 13/20/13
f 22/21/14 15/11/14 14/9/14
f 15/11/15 24/22/15 16/14/15
f 16/14/16 17/15/16 9/16/16
s 1
f 17/15/17 26/23/18 18/17/19
f 18/17/19 27/24/20 19/25/21
f 19/25/21 28/26/22 20/18/23
f 20/18/23 29/27/24 21/19/25
f 29/27/24 22/21/26 21/19/25
f 30/28/27 23/29/28 22/21/26
f 31/30/29 24/22/30 23/29/28
f 32/31/31 17/15/17 24/22/30
s 0
f 25/32/32 34/33/32 26/23/32
f 26/23/33 35/34/33 27/24/33
f 35/34/34 28/26/34 27/24/34
f 36/35/35 29/27/35 28/26/35
f 29/27/36 38/36/36 30/28/36
f 30/28/37 39/37/37 31/30/37
f 39/37/38 32/31/38 31/30/38
f 40/38/39 25/32/39 32/31/39
f 41/39/40 34/33/40 33/40/40
f 42/41/41 35/34/41 34/33/41
f 35/34/42 44/42/42 36/35/42
f 36/35/43 45/43/43 37/44/43
f 45/43/44 38/36/44 37/44/44
f 46/45/45 39/37/45 38/36/45
f 39/37/46 48/46/46 40/38/46
f 40/38/47 41/39/47 33/40/47
s 1
f 41/39/48 50/47/49 42/41/50
f 42/41/50 51/48/51 43/49/52
f 43/49/52 52/50/53 44/42/54
f 44/42/54 53/51/55 45/43/56
f 53/51/55 46/45/57 45/43/56
f 54/52/58 47/53/59 46/45/57
f 55/54/60 48/46/61 47/53/59
f 56/55/62 41/39/48 48/46/61
s 0
f 49/56/63 58/57/63 50/47/63
f 50/47/64 59/58/64 51/48/64
f 51/48/65 60/59/65 52/50/65
f 60/59/66 53/51/66 52/50/66
f 53/51/67 62/60/67 54/52/67
f 62/60/68 55/54/68 54/52/68
f 63/61/69 56/55/69 55/54/69
f 64/62/70 49/56/70 56/55/70
f 65/63/71 58/57/71 57/64/71
f 58/57/72 67/65/72 59/58/72
f 59/58/73 68/66/73 60/59/73
f 60/59/74 69/67/74 61/68/74
f 69/67/75 62/60/75 61/68/75
f 70/69/76 63/61/76 62/60/76
f 71/70/77 64/62/77 63/61/77
f 72/71/78 57/64/78 64/62/78
s 1
f 65/63/79 74/72/80 66/73/81
f 66/73/81 75/74/82 67/65/83
f 67/65/83 76/75/84 68/66/85
f 68/66/85 77/76/86 69/67/87
f 77/76/86 70/69/88 69/67/87
f 78/77/89 71/70/90 70/69/88
f 79/78/91 72/71/92 71/70/90
f 80/79/93 65/63/79 72/71/92
s 0
f 6/10/94 7/12/94 4/6/94
f 76/75/95 75/74/95 79/78/95
f 81/80/96 88/81/96 82/82/96
f 88/83/97 83/84/97 82/85/97
f 89/86/98 84/87/98 83/84/98
f 84/87/99 91/88/99 85/89/99
f 91/88/100 86/90/100 85/89/100
f 92/91/101 81/80/101 86/92/101
f 93/93/102 88/81/102 87/94/102
f 88/83/103 95/95/103 89/86/103
f 89/86/104 96/96/104 90/97/104
f 96/96/105 91/88/105 90/97/105
f 91/88/106 98/98/106 92/99/106
f 92/91/107 93/93/107 87/94/107
s 1
f 99/100/108 94/101/109 93/93/110
f 94/102/109 101/103/111 95/95/112
f 95/95/112 102/104/113 96/96/114
f 96/96/114 103/105/115 97/106/116
f 103/105/115 98/98/117 97/106/116
f 104/107/118 93/93/110 98/108/117
s 0
f 105/109/119 100/110/119 99/100/119
f 106/111/120 101/103/120 100/112/120
f 101/103/121 108/113/121 102/104/121
f 102/104/122 109/114/122 103/105/122
f 109/114/123 104/115/123 103/105/123
f 110/116/124 99/100/124 104/107/124
f 111/117/125 106/118/125 105/109/125
f 106/111/126 113/119/126 107/120/126
f 107/120/127 114/121/127 108/113/127
f 108/113/128 115/122/128 109/114/128
f 109/114/129 116/123/129 110/124/129
f 116/125/130 105/109/130 110/116/130
s 1
f 117/126/131 112/127/132 111/117/133
f 112/128/132 119/129/134 113/119/135
f 113/119/135 120/130/136 114/121/137
f 114/121/137 121/131/138 115/122/139
f 121/131/138 116/123/140 115/122/139
f 122/132/141 111/117/133 116/125/140
s 0
f 85/89/94 86/90/94 82/85/94
f 118/133/95 121/131/95 119/129/95
f 129/134/142 124/135/142 123/136/142
f 130/137/143 125/138/143 124/135/143
f 125/138/144 132/139/144 126/140/144
f 132/139/145 127/141/145 126/140/145
f 133/142/146 128/143/146 127/141/146
f 128/143/147 129/134/147 123/136/147
f 129/134/148 136/144/148 130/137/148
f 130/137/149 137/145/149 131/146/149
f 137/145/150 132/139/150 131/146/150
f 132/139/151 139/147/151 133/142/151
f 133/142/152 140/148/152 134/149/152
f 140/148/153 129/134/153 134/149/153
s 1
f 135/150/154 142/151/155 136/144/156
f 142/151/155 137/145/157 136/144/156
f 143/152/158 138/153/159 137/145/157
f 144/154/160 139/147/161 138/153/159
f 139/147/161 146/155/162 140/148/163
f 140/148/163 141/156/164 135/150/154
s 0
f 141/156/165 148/157/165 142/151/165
f 148/157/166 143/152/166 142/151/166
f 149/158/167 144/154/167 143/152/167
f 150/159/168 145/160/168 144/154/168
f 145/160/169 152/161/169 146/155/169
f 146/155/170 147/162/170 141/156/170
f 147/162/171 154/163/171 148/157/171
f 154/163/172 149/158/172 148/157/172
f 155/164/173 150/159/173 149/158/173
f 156/165/174 151/166/174 150/159/174
f 151/166/175 158/167/175 152/161/175
f 152/161/176 153/168/176 147/162/176
s 1
f 153/168/177 160/169/178 154/163/179
f 160/169/178 155/164/180 154/163/179
f 161/170/181 156/165/182 155/164/180
f 162/171/183 157/172/184 156/165/182
f 157/172/184 164/173/185 158/167/186
f 158/167/186 159/174/187 153/168/177
s 0
f 126/140/94 127/141/94 123/136/94
f 162/171/95 161/170/95 160/169/95
f 1/1/1 9/16/1 10/2/1
f 2/3/2 10/2/2 11/4/2
f 11/4/3 12/7/3 4/6/3
f 12/7/4 13/20/4 5/8/4
f 5/8/5 13/20/5 14/9/5
f 6/10/6 14/9/6 15/11/6
f 15/11/7 16/14/7 8/13/7
f 16/14/8 9/16/8 1/1/8
f 17/15/9 18/17/9 10/2/9
f 18/17/10 19/25/10 11/4/10
f 11/4/11 19/25/11 20/18/11
f 12/7/12 20/18/12 21/19/12
f 21/19/13 22/21/13 14/9/13
f 22/21/14 23/29/14 15/11/14
f 15/11/15 23/29/15 24/22/15
f 16/14/16 24/22/16 17/15/16
s 1
f 17/15/17 25/32/188 26/23/18
f 18/17/19 26/23/18 27/24/20
f 19/25/21 27/24/20 28/26/22
f 20/18/23 28/26/22 29/27/24
f 29/27/24 30/28/27 22/21/26
f 30/28/27 31/30/29 23/29/28
f 31/30/29 32/31/31 24/22/30
f 32/31/31 25/32/188 17/15/17
s 0
f 25/32/32 33/40/32 34/33/32
f 26/23/33 34/33/33 35/34/33
f 35/34/34 36/35/34 28/26/34
f 36/35/35 37/44/35 29/27/35
f 29/27/36 37/44/36 38/36/36
f 30/28/37 38/36/37 39/37/37
f 39/37/38 40/38/38 32/31/38
f 40/38/39 33/40/39 25/32/39
f 41/39/40 42/41/40 34/33/40
f 42/41/41 43/49/41 35/34/41
f 35/34/42 43/49/42 44/42/42
f 36/35/43 44/42/43 45/43/43
f 45/43/44 46/45/44 38/36/44
f 46/45/45 47/53/45 39/37/45
f 39/37/46 47/53/46 48/46/46
f 40/38/47 48/46/47 41/39/47
s 1
f 41/39/48 49/56/189 50/47/49
f 42/41/50 50/47/49 51/48/51
f 43/49/52 51/48/51 52/50/53
f 44/42/54 52/50/53 53/51/55
f 53/51/55 54/52/58 46/45/57
f 54/52/58 55/54/60 47/53/59
f 55/54/60 56/55/62 48/46/61
f 56/55/62 49/56/189 41/39/48
s 0
f 49/56/63 57/64/63 58/57/63
f 50/47/64 58/57/64 59/58/64
f 51/48/65 59/58/65 60/59/65
f 60/59/66 61/68/66 53/51/66
f 53/51/67 61/68/67 62/60/67
f 62/60/68 63/61/68 55/54/68
f 63/61/69 64/62/69 56/55/69
f 64/62/70 57/64/70 49/56/70
f 65/63/71 66/73/71 58/57/71
f 58/57/72 66/73/72 67/65/72
f 59/58/73 67/65/73 68/66/73
f 60/59/74 68/66/74 69/67/74
f 69/67/75 70/69/75 62/60/75
f 70/69/76 71/70/76 63/61/76
f 71/70/77 72/71/77 64/62/77
f 72/71/78 65/63/78 57/64/78
s 1
f 65/63/79 73/175/190 74/72/80
f 66/73/81 74/72/80 75/74/82
f 67/65/83 75/74/82 76/75/84
f 68/66/85 76/75/84 77/76/86
f 77/76/86 78/77/89 70/69/88
f 78/77/89 79/78/91 71/70/90
f 79/78/91 80/79/93 72/71/92
f 80/79/93 73/175/190 65/63/79
s 0
f 8/13/94 1/1/94 2/3/94
f 2/3/94 3/5/94 8/13/94
f 3/5/94 4/6/94 7/12/94
f 8/13/94 3/5/94 7/12/94
f 4/6/94 5/8/94 6/10/94
f 74/72/95 73/175/95 80/79/95
f 80/79/95 79/78/95 75/74/95
f 79/78/95 78/77/95 76/75/95
f 80/79/95 75/74/95 74/72/95
f 78/77/95 77/76/95 76/75/95
f 81/80/96 87/94/96 88/81/96
f 88/83/97 89/86/97 83/84/97
f 89/86/98 90/97/98 84/87/98
f 84/87/99 90/97/99 91/88/99
f 91/88/100 92/99/100 86/90/100
f 92/91/101 87/94/101 81/80/101
f 93/93/102 94/101/102 88/81/102
f 88/83/103 94/102/103 95/95/103
f 89/86/104 95/95/104 96/96/104
f 96/96/105 97/106/105 91/88/105
f 91/88/106 97/106/106 98/98/106
f 92/91/107 98/108/107 93/93/107
s 1
f 99/100/108 100/110/191 94/101/109
f 94/102/109 100/112/191 101/103/111
f 95/95/112 101/103/111 102/104/113
f 96/96/114 102/104/113 103/105/115
f 103/105/115 104/115/118 98/98/117
f 104/107/118 99/100/108 93/93/110
s 0
f 105/109/119 106/118/119 100/110/119
f 106/111/120 107/120/120 101/103/120
f 101/103/121 107/120/121 108/113/121
f 102/104/122 108/113/122 109/114/122
f 109/114/123 110/124/123 104/115/123
f 110/116/124 105/109/124 99/100/124
f 111/117/125 112/127/125 106/118/125
f 106/111/126 112/128/126 113/119/126
f 107/120/127 113/119/127 114/121/127
f 108/113/128 114/121/128 115/122/128
f 109/114/129 115/122/129 116/123/129
f 116/125/130 111/117/130 105/109/130
s 1
f 117/126/131 118/176/192 112/127/132
f 112/128/132 118/133/192 119/129/134
f 113/119/135 119/129/134 120/130/136
f 114/121/137 120/130/136 121/131/138
f 121/131/138 122/177/141 116/123/140
f 122/132/141 117/126/131 111/117/133
s 0
f 86/92/94 81/80/94 82/82/94
f 82/85/94 83/84/94 85/89/94
f 83/84/94 84/87/94 85/89/94
f 118/176/95 117/126/95 122/132/95
f 122/177/95 121/131/95 118/133/95
f 121/131/95 120/130/95 119/129/95
f 129/134/142 130/137/142 124/135/142
f 130/137/143 131/146/143 125/138/143
f 125/138/144 131/146/144 132/139/144
f 132/139/145 133/142/145 127/141/145
f 133/142/146 134/149/146 128/143/146
f 128/143/147 134/149/147 129/134/147
f 129/134/148 135/150/148 136/144/148
f 130/137/149 136/144/149 137/145/149
f 137/145/150 138/153/150 132/139/150
f 132/139/151 138/153/151 139/147/151
f 133/142/152 139/147/152 140/148/152
f 140/148/153 135/150/153 129/134/153
s 1
f 135/150/154 141/156/164 142/151/155
f 142/151/155 143/152/158 137/145/157
f 143/152/158 144/154/160 138/153/159
f 144/154/160 145/160/193 139/147/161
f 139/147/161 145/160/193 146/155/162
f 140/148/163 146/155/162 141/156/164
s 0
f 141/156/194 147/162/194 148/157/194
f 148/157/166 149/158/166 143/152/166
f 149/158/167 150/159/167 144/154/167
f 150/159/168 151/166/168 145/160/168
f 145/160/169 151/166/169 152/161/169
f 146/155/170 152/161/170 147/162/170
f 147/162/171 153/168/171 154/163/171
f 154/163/172 155/164/172 149/158/172
f 155/164/173 156/165/173 150/159/173
f 156/165/174 157/172/174 151/166/174
f 151/166/175 157/172/175 158/167/175
f 152/161/176 158/167/176 153/168/176
s 1
f 153/168/177 159/174/187 160/169/178
f 160/169/178 161/170/181 155/164/180
f 161/170/181 162/171/183 156/165/182
f 162/171/183 163/178/195 157/172/184
f 157/172/184 163/178/195 164/173/185
f 158/167/186 164/173/185 159/174/187
s 0
f 128/143/94 123/136/94 127/141/94
f 123/136/94 124/135/94 126/140/94
f 124/135/94 125/138/94 126/140/94
f 160/169/95 159/174/95 162/171/95
f 159/174/95 164/173/95 163/178/95
f 162/171/95 159/174/95 163/178/95
o bamboo_d_leaves
v 0.210463 1.395555 -0.023143
v 0.233726 1.381893 -0.044729
v 0.777774 1.422590 0.547485
v 0.781142 1.420693 0.544272
v 0.380430 1.469349 0.135943
v 0.422659 1.444890 0.096382
v 0.210463 1.395555 -0.023143
v 0.233726 1.381893 -0.044729
v 0.777774 1.422590 0.547485
v 0.781142 1.420693 0.544272
v 0.380430 1.469349 0.135943
v 0.422659 1.444890 0.096382
v 0.207905 1.397356 -0.026101
v 0.236285 1.380092 -0.041771
v 0.564136 1.380029 0.601389
v 0.568215 1.377310 0.599250
v 0.323425 1.444003 0.166946
v 0.374816 1.411731 0.139052
v 0.207905 1.397356 -0.026101
v 0.236285 1.380092 -0.041771
v 0.564136 1.380029 0.601389
v 0.568215 1.377310 0.599250
v 0.323425 1.444003 0.166946
v 0.374816 1.411731 0.139052
v 0.207597 1.375904 -0.027174
v 0.236593 1.401544 -0.040698
v 0.608094 1.289043 0.613696
v 0.612839 1.292156 0.611692
v 0.291832 1.374035 0.200728
v 0.346798 1.418031 0.175981
v 0.207597 1.375904 -0.027174
v 0.236593 1.401544 -0.040698
v 0.608094 1.289043 0.613696
v 0.612839 1.292156 0.611692
v 0.291832 1.374035 0.200728
v 0.346798 1.418031 0.175981
v 0.206427 1.383320 -0.038775
v 0.237763 1.394128 -0.029096
v 0.239000 0.679818 0.693994
v 0.243458 0.681656 0.695425
v 0.162272 1.239756 0.214091
v 0.218825 1.260538 0.231791
v 0.206427 1.383320 -0.038775
v 0.237763 1.394128 -0.029096
v 0.239000 0.679818 0.693994
v 0.243458 0.681656 0.695425
v 0.162272 1.239756 0.214091
v 0.218825 1.260538 0.231791
v 0.202524 2.008977 0.099686
v 0.236242 2.000813 0.110348
v -0.055371 1.907538 0.890387
v -0.050240 1.907001 0.891720
v 0.118822 2.044232 0.340843
v 0.181090 2.032156 0.359304
v 0.202524 2.008977 0.099686
v 0.236242 2.000813 0.110348
v -0.055371 1.907538 0.890387
v -0.050240 1.907001 0.891720
v 0.118822 2.044232 0.340843
v 0.181090 2.032156 0.359304
v 0.206740 2.004032 0.096366
v 0.232027 2.005759 0.113668
v -0.151739 1.663186 0.677559
v -0.148066 1.663183 0.680109
v 0.072534 1.963091 0.274325
v 0.118486 1.965153 0.305927
v 0.206740 2.004032 0.096366
v 0.232027 2.005759 0.113668
v -0.151739 1.663186 0.677559
v -0.148066 1.663183 0.680109
v 0.072534 1.963091 0.274325
v 0.118486 1.965153 0.305927
v 0.206541 2.010612 0.090007
v 0.232226 1.999179 0.120027
v -0.477203 1.548440 0.523066
v -0.473449 1.546911 0.527469
v -0.030952 1.931206 0.239909
v 0.015821 1.910989 0.294645
v 0.206541 2.010612 0.090007
v 0.232226 1.999179 0.120027
v -0.477203 1.548440 0.523066
v -0.473449 1.546911 0.527469
v -0.030952 1.931206 0.239909
v 0.015821 1.910989 0.294645
v 0.215120 2.009620 0.091107
v 0.223647 2.000171 0.118927
v -0.435630 1.682201 0.193741
v -0.434396 1.680743 0.197761
v -0.006622 1.959768 0.128381
v 0.008855 1.942232 0.178849
v 0.215120 2.009620 0.091107
v 0.223647 2.000171 0.118927
v -0.435630 1.682201 0.193741
v -0.434396 1.680743 0.197761
v -0.006622 1.959768 0.128381
v 0.008855 1.942232 0.178849
v -0.048649 0.953462 0.137657
v -0.074238 0.946842 0.115602
v 0.515426 0.779482 -0.487532
v 0.511599 0.778832 -0.490711
v 0.134624 0.965118 -0.056499
v 0.087648 0.954408 -0.096477
v -0.048649 0.953462 0.137657
v -0.074238 0.946842 0.115602
v 0.515426 0.779482 -0.487532
v 0.511599 0.778832 -0.490711
v 0.134624 0.965118 -0.056499
v 0.087648 0.954408 -0.096477
v -0.052469 0.957155 0.144143
v -0.070418 0.943149 0.109116
v 0.765309 0.706997 -0.196149
v 0.762893 0.704315 -0.201085
v 0.215720 0.945755 0.031664
v 0.183911 0.917550 -0.031349
v -0.052469 0.957155 0.144143
v -0.070418 0.943149 0.109116
v 0.765309 0.706997 -0.196149
v 0.762893 0.704315 -0.201085
v 0.215720 0.945755 0.031664
v 0.183911 0.917550 -0.031349
v -0.059329 0.955346 0.141856
v -0.063558 0.944958 0.111403
v 0.740669 0.741545 0.088895
v 0.740008 0.740290 0.084385
v 0.205121 0.942508 0.123654
v 0.197232 0.924708 0.067942
v -0.059329 0.955346 0.141856
v -0.063558 0.944958 0.111403
v 0.740669 0.741545 0.088895
v 0.740008 0.740290 0.084385
v 0.205121 0.942508 0.123654
v 0.197232 0.924708 0.067942
v -0.062193 0.941385 0.142162
v -0.060694 0.958919 0.111097
v 0.862379 0.683116 0.023452
v 0.862521 0.685996 0.019117
v 0.235213 0.914235 0.157971
v 0.237616 0.947518 0.102266
v -0.062193 0.941385 0.142162
v -0.060694 0.958919 0.111097
v 0.862379 0.683116 0.023452
v 0.862521 0.685996 0.019117
v 0.235213 0.914235 0.157971
v 0.237616 0.947518 0.102266
v 0.033990 1.810870 0.307682
v 0.059136 1.801875 0.293769
v 0.529999 1.860451 1.144256
v 0.533658 1.859605 1.141935
v 0.188788 1.893971 0.560398
v 0.234511 1.879582 0.533837
v 0.033990 1.810870 0.307682
v 0.059136 1.801875 0.293769
v 0.529999 1.860451 1.144256
v 0.533658 1.859605 1.141935
v 0.188788 1.893971 0.560398
v 0.234511 1.879582 0.533837
v 0.032348 1.796098 0.303824
v 0.060778 1.816647 0.297627
v 0.328700 1.602302 0.933304
v 0.332869 1.605244 0.932403
v 0.081907 1.767740 0.520921
v 0.133741 1.804904 0.509655
v 0.032348 1.796098 0.303824
v 0.060778 1.816647 0.297627
v 0.328700 1.602302 0.933304
v 0.332869 1.605244 0.932403
v 0.081907 1.767740 0.520921
v 0.133741 1.804904 0.509655
v 0.028325 1.813780 0.296156
v 0.064801 1.798965 0.305295
v -0.280858 1.425213 0.976605
v -0.275435 1.423339 0.977922
v -0.062331 1.773086 0.518891
v 0.004485 1.747343 0.535456
v 0.028325 1.813780 0.296156
v 0.064801 1.798965 0.305295
v -0.280858 1.425213 0.976605
v -0.275435 1.423339 0.977922
v -0.062331 1.773086 0.518891
v 0.004485 1.747343 0.535456
v 0.035823 1.813111 0.292987
v 0.057303 1.799634 0.308464
v -0.499720 1.502639 0.790246
v -0.496431 1.501017 0.792562
v -0.125625 1.781623 0.466301
v -0.085866 1.758558 0.494720
v 0.035823 1.813111 0.292987
v 0.057303 1.799634 0.308464
v -0.499720 1.502639 0.790246
v -0.496431 1.501017 0.792562
v -0.125625 1.781623 0.466301
v -0.085866 1.758558 0.494720
v -0.059282 0.852182 -0.300036
v -0.068363 0.848196 -0.339913
v 0.864211 0.905612 -0.533775
v 0.863057 0.904771 -0.539588
v 0.214257 0.943277 -0.354112
v 0.198457 0.934924 -0.426668
v -0.059282 0.852182 -0.300036
v -0.068363 0.848196 -0.339913
v 0.864211 0.905612 -0.533775
v 0.863057 0.904771 -0.539588
v 0.214257 0.943277 -0.354112
v 0.198457 0.934924 -0.426668
v -0.065949 0.852046 -0.303334
v -0.061696 0.848332 -0.336616
v 0.822294 0.858971 -0.205248
v 0.822805 0.858655 -0.210128
v 0.204020 0.918359 -0.262234
v 0.211294 0.912561 -0.322912
v -0.065949 0.852046 -0.303334
v -0.061696 0.848332 -0.336616
v 0.822294 0.858971 -0.205248
v 0.822805 0.858655 -0.210128
v 0.204020 0.918359 -0.262234
v 0.211294 0.912561 -0.322912
v -0.070448 0.846795 -0.302222
v -0.057197 0.853583 -0.337728
v 0.769673 0.207795 -0.128699
v 0.771630 0.208090 -0.133985
v 0.202966 0.739700 -0.203581
v 0.227184 0.749098 -0.268652
v -0.070448 0.846795 -0.302222
v -0.057197 0.853583 -0.337728
v 0.769673 0.207795 -0.128699
v 0.771630 0.208090 -0.133985
v 0.202966 0.739700 -0.203581
v 0.227184 0.749098 -0.268652
v -0.077586 0.860627 -0.308232
v -0.050059 0.839752 -0.331717
v 0.139948 0.445494 0.284004
v 0.144046 0.442653 0.280524
v 0.013530 0.798718 -0.116004
v 0.063977 0.761592 -0.158975
v -0.077586 0.860627 -0.308232
v -0.050059 0.839752 -0.331717
v 0.139948 0.445494 0.284004
v 0.144046 0.442653 0.280524
v 0.013530 0.798718 -0.116004
v 0.063977 0.761592 -0.158975
v -0.174037 1.615582 -0.280396
v -0.184952 1.617077 -0.253063
v -0.946392 1.700271 -0.579871
v -0.948336 1.699937 -0.576007
v -0.391911 1.703393 -0.385200
v -0.413272 1.703767 -0.335979
v -0.174037 1.615582 -0.280396
v -0.184952 1.617077 -0.253063
v -0.946392 1.700271 -0.579871
v -0.948336 1.699937 -0.576007
v -0.391911 1.703393 -0.385200
v -0.413272 1.703767 -0.335979
v -0.168214 1.606583 -0.279060
v -0.190775 1.626076 -0.254400
v -1.053887 1.344061 -0.855886
v -1.056875 1.347327 -0.852371
v -0.393958 1.598681 -0.504179
v -0.433732 1.635950 -0.459647
v -0.168214 1.606583 -0.279060
v -0.190775 1.626076 -0.254400
v -1.053887 1.344061 -0.855886
v -1.056875 1.347327 -0.852371
v -0.393958 1.598681 -0.504179
v -0.433732 1.635950 -0.459647
v -0.166989 1.625820 -0.270805
v -0.192000 1.606839 -0.262654
v -0.253368 1.438969 -0.915750
v -0.257052 1.436280 -0.914539
v -0.209694 1.615224 -0.479315
v -0.255365 1.581019 -0.464383
v -0.166989 1.625820 -0.270805
v -0.192000 1.606839 -0.262654
v -0.253368 1.438969 -0.915750
v -0.257052 1.436280 -0.914539
v -0.209694 1.615224 -0.479315
v -0.255365 1.581019 -0.464383
v -0.160441 1.610910 -0.264541
v -0.198547 1.621749 -0.268918
v -0.198071 1.160075 -1.208489
v -0.203801 1.160943 -1.209248
v -0.124687 1.555249 -0.565192
v -0.194768 1.571942 -0.573669
v -0.160441 1.610910 -0.264541
v -0.198547 1.621749 -0.268918
v -0.198071 1.160075 -1.208489
v -0.203801 1.160943 -1.209248
v -0.124687 1.555249 -0.565192
v -0.194768 1.571942 -0.573669
vn -0.0689 -0.8749 0.4794
vn -0.3308 -0.9189 0.2150
vn -0.0627 -0.8774 0.4756
vn -0.3220 -0.9236 0.2079
vn 0.0689 0.8749 -0.4794
vn 0.3308 0.9189 -0.2150
vn 0.0627 0.8774 -0.4756
vn 0.3220 0.9236 -0.2079
vn -0.3090 -0.8656 0.3941
vn -0.4737 -0.8704 0.1343
vn -0.3232 -0.8586 0.3979
vn -0.4954 -0.8566 0.1441
vn 0.3090 0.8656 -0.3941
vn 0.4737 0.8704 -0.1343
vn 0.3232 0.8586 -0.3979
vn 0.4954 0.8566 -0.1441
vn 0.5854 -0.7795 -0.2228
vn 0.4100 -0.7790 -0.4743
vn 0.5484 -0.8074 -0.2175
vn 0.3488 -0.8218 -0.4504
vn -0.5854 0.7795 0.2228
vn -0.4100 0.7790 0.4743
vn -0.5484 0.8074 0.2175
vn -0.3488 0.8218 0.4504
vn 0.4064 -0.8232 -0.3964
vn 0.4514 -0.5442 -0.7071
vn 0.4225 -0.8188 -0.3886
vn 0.4272 -0.5541 -0.7145
vn -0.4064 0.8232 0.3964
vn -0.4514 0.5442 0.7071
vn -0.4225 0.8188 0.3886
vn -0.4272 0.5541 0.7145
vn -0.2511 -0.9664 0.0541
vn -0.1051 -0.9567 -0.2713
vn -0.2115 -0.9744 0.0758
vn -0.0378 -0.9690 -0.2442
vn 0.2511 0.9664 -0.0541
vn 0.1051 0.9567 0.2713
vn 0.2115 0.9744 -0.0758
vn 0.0378 0.9690 0.2442
vn 0.1315 -0.9831 -0.1270
vn 0.3363 -0.8356 -0.4344
vn 0.1488 -0.9816 -0.1195
vn 0.3129 -0.8356 -0.4514
vn -0.1315 0.9831 0.1270
vn -0.3363 0.8356 0.4344
vn -0.1488 0.9816 0.1195
vn -0.3129 0.8356 0.4514
vn 0.0559 -0.9162 -0.3968
vn 0.3124 -0.7728 -0.5524
vn 0.0595 -0.9188 -0.3902
vn 0.3199 -0.7768 -0.5424
vn -0.0559 0.9162 0.3968
vn -0.3124 0.7728 0.5524
vn -0.0595 0.9188 0.3902
vn -0.3199 0.7768 0.5424
vn 0.1471 -0.9220 -0.3582
vn 0.4495 -0.7920 -0.4131
vn 0.1464 -0.9196 -0.3644
vn 0.4469 -0.7882 -0.4231
vn -0.1471 0.9220 0.3582
vn -0.4495 0.7920 0.4131
vn -0.1464 0.9196 0.3644
vn -0.4469 0.7882 0.4231
vn 0.1679 -0.9808 0.0996
vn -0.0742 -0.9381 0.3385
vn 0.1542 -0.9846 0.0826
vn -0.0997 -0.9444 0.3134
vn -0.1679 0.9808 -0.0996
vn 0.0742 0.9380 -0.3385
vn -0.1542 0.9846 -0.0826
vn 0.0997 0.9444 -0.3134
vn 0.0969 -0.9403 0.3263
vn -0.1774 -0.8618 0.4753
vn 0.1062 -0.9265 0.3611
vn -0.1526 -0.8351 0.5285
vn -0.0969 0.9403 -0.3263
vn 0.1774 0.8618 -0.4753
vn -0.1062 0.9265 -0.3611
vn 0.1526 0.8351 -0.5285
vn -0.0250 -0.9512 0.3075
vn -0.3130 -0.8910 0.3290
vn -0.0192 -0.9455 0.3252
vn -0.3152 -0.9013 0.2971
vn 0.0250 0.9512 -0.3075
vn 0.3130 0.8910 -0.3290
vn 0.0192 0.9455 -0.3252
vn 0.3152 0.9013 -0.2971
vn -0.0531 -0.8685 -0.4928
vn -0.3921 -0.7822 -0.4842
vn -0.0479 -0.8565 -0.5138
vn -0.3879 -0.7619 -0.5188
vn 0.0531 0.8685 0.4928
vn 0.3921 0.7822 0.4842
vn 0.0479 0.8565 0.5138
vn 0.3879 0.7619 0.5188
vn -0.1206 -0.9187 0.3760
vn -0.2504 -0.9638 0.0910
vn -0.0826 -0.9289 0.3610
vn -0.1883 -0.9802 0.0604
vn 0.1206 0.9187 -0.3760
vn 0.2504 0.9638 -0.0910
vn 0.0826 0.9289 -0.3610
vn 0.1883 0.9802 -0.0604
vn 0.5370 -0.8120 -0.2287
vn 0.4097 -0.7351 -0.5401
vn 0.5339 -0.8140 -0.2288
vn 0.4046 -0.7385 -0.5394
vn -0.5370 0.8120 0.2287
vn -0.4097 0.7351 0.5401
vn -0.5339 0.8140 0.2288
vn -0.4046 0.7385 0.5394
vn -0.2977 -0.9103 -0.2875
vn -0.1333 -0.7574 -0.6393
vn -0.2839 -0.9170 -0.2801
vn -0.1115 -0.7669 -0.6321
vn 0.2977 0.9103 0.2875
vn 0.1333 0.7574 0.6393
vn 0.2839 0.9170 0.2801
vn 0.1115 0.7669 0.6321
vn -0.2607 -0.8776 -0.4023
vn 0.0149 -0.7661 -0.6426
vn -0.2430 -0.8911 -0.3833
vn 0.0462 -0.7863 -0.6161
vn 0.2607 0.8776 0.4023
vn -0.0149 0.7661 0.6426
vn 0.2430 0.8911 0.3833
vn -0.0462 0.7863 0.6161
vn 0.3198 -0.9472 0.0219
vn -0.0245 -0.9925 0.1196
vn 0.3204 -0.9465 0.0392
vn -0.0199 -0.9890 0.1469
vn -0.3198 0.9472 -0.0219
vn 0.0245 0.9925 -0.1196
vn -0.3204 0.9465 -0.0392
vn 0.0199 0.9890 -0.1469
vn 0.2168 -0.9667 0.1356
vn -0.1028 -0.9913 0.0824
vn 0.2217 -0.9678 0.1191
vn -0.0976 -0.9938 0.0541
vn -0.2168 0.9667 -0.1356
vn 0.1028 0.9913 -0.0824
vn -0.2217 0.9678 -0.1191
vn 0.0976 0.9938 -0.0541
vn -0.2630 -0.9248 -0.2750
vn -0.6213 -0.7090 -0.3336
vn -0.2831 -0.9287 -0.2395
vn -0.6418 -0.7149 -0.2775
vn 0.2630 0.9248 0.2750
vn 0.6213 0.7090 0.3336
vn 0.2831 0.9287 0.2395
vn 0.6418 0.7149 0.2775
vn -0.5924 -0.8053 0.0214
vn -0.7220 -0.6158 -0.3156
vn -0.5830 -0.8123 0.0173
vn -0.7095 -0.6255 -0.3247
vn 0.5924 0.8053 -0.0214
vn 0.7220 0.6158 0.3156
vn 0.5830 0.8123 -0.0173
vn 0.7095 0.6255 0.3247
vn -0.3377 -0.9375 -0.0836
vn 0.0026 -1.0000 0.0087
vn -0.3111 -0.9417 -0.1279
vn 0.0374 -0.9970 -0.0674
vn 0.3377 0.9375 0.0836
vn -0.0026 1.0000 -0.0087
vn 0.3111 0.9417 0.1279
vn -0.0374 0.9970 0.0674
vn -0.3403 -0.8638 0.3715
vn -0.0318 -0.7803 0.6246
vn -0.3615 -0.8483 0.3871
vn -0.0602 -0.7564 0.6514
vn 0.3403 0.8638 -0.3715
vn 0.0318 0.7803 -0.6246
vn 0.3615 0.8483 -0.3871
vn 0.0602 0.7564 -0.6514
vn 0.5861 -0.8063 -0.0791
vn 0.6308 -0.7394 0.2355
vn 0.5810 -0.8101 -0.0788
vn 0.6225 -0.7458 0.2375
vn -0.5861 0.8063 0.0791
vn -0.6308 0.7394 -0.2355
vn -0.5810 0.8101 0.0788
vn -0.6225 0.7458 -0.2375
vn -0.2858 -0.9478 0.1415
vn -0.2567 -0.8102 0.5270
vn -0.2465 -0.9569 0.1533
vn -0.1953 -0.8223 0.5345
vn 0.2858 0.9478 -0.1415
vn 0.2567 0.8102 -0.5270
vn 0.2465 0.9569 -0.1533
vn 0.1953 0.8223 -0.5345
vt 0.637500 0.000000
vt 0.250000 0.340000
vt 0.362500 0.000000
vt 0.750000 0.340000
vt 0.480000 1.000000
vt 0.520000 1.000000
vt 0.250000 0.340000
vt 0.250000 0.340000
vt 0.362500 0.000000
vt 0.520000 1.000000
vt 0.480000 1.000000
vt 0.750000 0.340000
vt 0.250000 0.340000
s 0
f 166/179/196 169/180/196 165/181/196
f 170/182/197 167/183/197 169/180/197
f 166/179/198 170/182/198 169/180/198
f 170/182/199 168/184/199 167/183/199
f 172/179/200 171/181/200 175/180/200
f 176/182/201 175/180/201 173/183/201
f 172/179/202 175/180/202 176/182/202
f 176/182/203 173/183/203 174/184/203
f 178/179/204 181/180/204 177/181/204
f 182/182/205 179/183/205 181/180/205
f 178/179/206 182/182/206 181/180/206
f 182/182/207 180/184/207 179/183/207
f 184/179/208 183/181/208 187/180/208
f 188/182/209 187/180/209 185/183/209
f 184/179/210 187/180/210 188/182/210
f 188/182/211 185/183/211 186/184/211
f 190/179/212 193/185/212 189/181/212
f 194/182/213 191/183/213 193/185/213
f 190/179/214 194/182/214 193/185/214
f 194/182/215 192/184/215 191/183/215
f 196/179/216 195/181/216 199/185/216
f 200/182/217 199/185/217 197/183/217
f 196/179/218 199/185/218 200/182/218
f 200/182/219 197/183/219 198/184/219
f 202/179/220 205/186/220 201/187/220
f 205/186/221 204/188/221 203/189/221
f 202/179/222 206/190/222 205/186/222
f 205/186/223 206/190/223 204/188/223
f 208/179/224 207/187/224 211/186/224
f 211/186/225 209/189/225 210/188/225
f 208/179/226 211/186/226 212/190/226
f 211/186/227 210/188/227 212/190/227
f 214/179/228 217/180/228 213/181/228
f 218/182/229 215/189/229 217/180/229
f 214/179/230 218/182/230 217/180/230
f 218/182/231 216/188/231 215/189/231
f 220/179/232 219/181/232 223/180/232
f 224/182/233 223/180/233 221/189/233
f 220/179/234 223/180/234 224/182/234
f 224/182/235 221/189/235 222/188/235
f 225/181/236 230/182/236 229/180/236
f 230/182/237 227/189/237 229/180/237
f 225/181/238 226/179/238 230/182/238
f 230/182/239 228/188/239 227/189/239
f 231/181/240 235/180/240 236/182/240
f 236/182/241 235/180/241 233/189/241
f 231/181/242 236/182/242 232/179/242
f 236/182/243 233/189/243 234/188/243
f 238/179/244 241/180/244 237/181/244
f 242/182/245 239/183/245 241/180/245
f 238/179/246 242/182/246 241/180/246
f 242/182/247 240/184/247 239/183/247
f 244/179/248 243/181/248 247/180/248
f 248/182/249 247/180/249 245/183/249
f 244/179/250 247/180/250 248/182/250
f 248/182/251 245/183/251 246/184/251
f 250/179/252 253/180/252 249/181/252
f 254/182/253 251/183/253 253/180/253
f 250/179/254 254/182/254 253/180/254
f 254/182/255 252/184/255 251/183/255
f 256/179/256 255/181/256 259/180/256
f 260/182/257 259/180/257 257/183/257
f 256/179/258 259/180/258 260/182/258
f 260/182/259 257/183/259 258/184/259
f 262/179/260 265/185/260 261/181/260
f 266/182/261 263/183/261 265/185/261
f 262/179/262 266/182/262 265/185/262
f 266/182/263 264/184/263 263/183/263
f 268/179/264 267/181/264 271/185/264
f 272/182/265 271/185/265 269/183/265
f 268/179/266 271/185/266 272/182/266
f 272/182/267 269/183/267 270/184/267
f 274/179/268 277/180/268 273/181/268
f 278/182/269 275/183/269 277/180/269
f 274/179/270 278/182/270 277/180/270
f 278/182/271 276/184/271 275/183/271
f 280/179/272 279/181/272 283/180/272
f 284/182/273 283/180/273 281/183/273
f 280/179/274 283/180/274 284/182/274
f 284/182/275 281/183/275 282/184/275
f 285/181/276 290/182/276 289/180/276
f 290/182/277 287/183/277 289/180/277
f 285/181/278 286/179/278 290/182/278
f 290/182/279 288/184/279 287/183/279
f 291/181/280 295/180/280 296/182/280
f 296/182/281 295/180/281 293/183/281
f 291/181/282 296/182/282 292/179/282
f 296/182/283 293/183/283 294/184/283
f 298/179/284 301/180/284 297/181/284
f 302/182/285 299/183/285 301/180/285
f 298/179/286 302/182/286 301/180/286
f 302/182/287 300/184/287 299/183/287
f 304/179/288 303/181/288 307/180/288
f 308/182/289 307/180/289 305/183/289
f 304/179/290 307/180/290 308/182/290
f 308/182/291 305/183/291 306/184/291
f 310/179/292 313/186/292 309/181/292
f 314/190/293 311/183/293 313/186/293
f 310/179/294 314/190/294 313/186/294
f 314/190/295 312/184/295 311/183/295
f 316/179/296 315/181/296 319/186/296
f 320/190/297 319/186/297 317/183/297
f 316/179/298 319/186/298 320/190/298
f 320/190/299 317/183/299 318/184/299
f 322/179/300 325/180/300 321/181/300
f 326/182/301 323/183/301 325/180/301
f 322/179/302 326/182/302 325/180/302
f 326/182/303 324/184/303 323/183/303
f 328/179/304 327/181/304 331/180/304
f 332/182/305 331/180/305 329/183/305
f 328/179/306 331/180/306 332/182/306
f 332/182/307 329/183/307 330/184/307
f 334/179/308 337/180/308 333/187/308
f 338/182/309 335/183/309 337/180/309
f 334/179/310 338/182/310 337/180/310
f 338/182/311 336/184/311 335/183/311
f 340/179/312 339/187/312 343/180/312
f 344/182/313 343/180/313 341/183/313
f 340/179/314 343/180/314 344/182/314
f 344/182/315 341/183/315 342/184/315
f 346/179/316 349/180/316 345/181/316
f 350/182/317 347/183/317 349/180/317
f 346/179/318 350/182/318 349/180/318
f 350/182/319 348/184/319 347/183/319
f 352/179/320 351/181/320 355/180/320
f 356/182/321 355/180/321 353/183/321
f 352/179/322 355/180/322 356/182/322
f 356/182/323 353/183/323 354/184/323
f 358/179/324 361/180/324 357/181/324
f 362/182/325 359/183/325 361/180/325
f 358/179/326 362/182/326 361/180/326
f 362/182/327 360/184/327 359/183/327
f 364/179/328 363/181/328 367/180/328
f 368/182/329 367/180/329 365/183/329
f 364/179/330 367/180/330 368/182/330
f 368/182/331 365/183/331 366/184/331
f 370/179/332 373/186/332 369/187/332
f 374/190/333 371/183/333 373/186/333
f 370/179/334 374/190/334 373/186/334
f 374/190/335 372/184/335 371/183/335
f 376/179/336 375/187/336 379/186/336
f 380/190/337 379/186/337 377/183/337
f 376/179/338 379/186/338 380/190/338
f 380/190/339 377/183/339 378/184/339
f 382/179/340 385/180/340 381/181/340
f 386/182/341 383/183/341 385/180/341
f 382/179/342 386/182/342 385/180/342
f 386/182/343 384/184/343 383/183/343
f 388/179/344 387/181/344 391/180/344
f 392/182/345 391/180/345 389/183/345
f 388/179/346 391/180/346 392/182/346
f 392/182/347 389/183/347 390/184/347
f 394/179/348 397/180/348 393/181/348
f 398/182/349 395/183/349 397/180/349
f 394/179/350 398/182/350 397/180/350
f 398/182/351 396/184/351 395/183/351
f 400/179/352 399/181/352 403/180/352
f 404/182/353 403/180/353 401/183/353
f 400/179/354 403/180/354 404/182/354
f 404/182/355 401/183/355 402/184/355
f 406/179/356 409/180/356 405/181/356
f 410/182/357 407/183/357 409/180/357
f 406/179/358 410/182/358 409/180/358
f 410/182/359 408/184/359 407/183/359
f 412/179/360 411/181/360 415/180/360
f 416/182/361 415/180/361 413/183/361
f 412/179/362 415/180/362 416/182/362
f 416/182/363 413/183/363 414/184/363
f 418/179/364 421/180/364 417/181/364
f 422/182/365 419/183/365 421/180/365
f 418/179/366 422/182/366 421/180/366
f 422/182/367 420/184/367 419/183/367
f 424/179/368 423/181/368 427/180/368
f 428/182/369 427/180/369 425/183/369
f 424/179/370 427/180/370 428/182/370
f 428/182/371 425/183/371 426/184/371
f 430/179/372 433/180/372 429/181/372
f 434/182/373 431/183/373 433/180/373
f 430/179/374 434/182/374 433/180/374
f 434/182/375 432/184/375 431/183/375
f 436/179/376 435/181/376 439/180/376
f 440/182/377 439/180/377 437/183/377
f 436/179/378 439/180/378 440/182/378
f 440/182/379 437/183/379 438/184/379
f 442/179/380 445/191/380 441/181/380
f 446/190/381 443/183/381 445/191/381
f 442/179/382 446/190/382 445/191/382
f 446/190/383 444/184/383 443/183/383
f 448/179/384 447/181/384 451/191/384
f 452/190/385 451/191/385 449/183/385
f 448/179/386 451/191/386 452/190/386
f 452/190/387 449/183/387 450/184/387
