# Blender 5.0.1
# www.blender.org
o bamboo_f_culms
v 0.232593 0.000000 -0.005061
v 0.205484 0.000000 0.052528
v 0.147895 0.000000 0.075965
v 0.088300 0.000000 0.054534
v 0.063198 0.000000 -0.005061
v 0.090306 0.000000 -0.062650
v 0.147895 0.000000 -0.086087
v 0.207490 0.000000 -0.064656
v 0.266404 0.049426 -0.004831
v 0.228570 0.049426 0.075541
v 0.148197 0.049426 0.108251
v 0.065024 0.049426 0.078342
v 0.029991 0.049426 -0.004831
v 0.067824 0.049426 -0.085204
v 0.148197 0.049426 -0.117914
v 0.231370 0.049426 -0.088004
v 0.237255 0.098852 -0.004315
v 0.208968 0.098852 0.055776
v 0.148877 0.098852 0.080232
v 0.086693 0.098852 0.057870
v 0.060500 0.098852 -0.004315
v 0.088786 0.098852 -0.064406
v 0.148877 0.098852 -0.088861
v 0.211062 0.098852 -0.066499
v 0.273562 0.950500 0.029947
v 0.248080 0.950500 0.084081
v 0.193947 0.950500 0.106112
v 0.137927 0.950500 0.085967
v 0.114331 0.950500 0.029947
v 0.139813 0.950500 -0.024186
v 0.193947 0.950500 -0.046217
v 0.249966 0.950500 -0.026072
v 0.309183 0.999926 0.033098
v 0.273627 0.999926 0.108634
v 0.198091 0.999926 0.139374
v 0.119924 0.999926 0.111265
v 0.086999 0.999926 0.033098
v 0.122556 0.999926 -0.042437
v 0.198091 0.999926 -0.073178
v 0.276258 0.999926 -0.045069
v 0.285423 1.049352 0.036360
v 0.258845 1.049352 0.092823
v 0.202382 1.049352 0.115802
v 0.143952 1.049352 0.094790
v 0.119340 1.049352 0.036360
v 0.145919 1.049352 -0.020103
v 0.202382 1.049352 -0.043082
v 0.260812 1.049352 -0.022070
v 0.372051 1.901000 0.108682
v 0.348195 1.901000 0.159360
v 0.297517 1.901000 0.179985
v 0.245073 1.901000 0.161126
v 0.222983 1.901000 0.108682
v 0.246839 1.901000 0.058004
v 0.297517 1.901000 0.037380
v 0.349961 1.901000 0.056238
v 0.408168 1.950426 0.113755
v 0.374889 1.950426 0.184453
v 0.304191 1.950426 0.213225
v 0.231030 1.950426 0.186916
v 0.200213 1.950426 0.113755
v 0.233493 1.950426 0.043057
v 0.304191 1.950426 0.014285
v 0.377352 1.950426 0.040594
v 0.388689 1.999852 0.118919
v 0.363818 1.999852 0.171754
v 0.310983 1.999852 0.193256
v 0.256308 1.999852 0.173595
v 0.233278 1.999852 0.118919
v 0.258149 1.999852 0.066084
v 0.310983 1.999852 0.044582
v 0.365659 1.999852 0.064244
v 0.515440 2.851500 0.221550
v 0.493210 2.851500 0.268773
v 0.445988 2.851500 0.287991
v 0.397120 2.851500 0.270418
v 0.376536 2.851500 0.221550
v 0.398765 2.851500 0.174327
v 0.445988 2.851500 0.155109
v 0.494856 2.851500 0.172682
v 0.551687 2.900926 0.228268
v 0.520685 2.900926 0.294128
v 0.454825 2.900926 0.320932
v 0.386670 2.900926 0.296423
v 0.357962 2.900926 0.228268
v 0.388964 2.900926 0.162407
v 0.454825 2.900926 0.135604
v 0.522980 2.900926 0.160113
v 0.536137 2.950351 0.235066
v 0.512974 2.950351 0.284273
v 0.463768 2.950351 0.304299
v 0.412847 2.950351 0.285987
v 0.391398 2.950351 0.235066
v 0.414561 2.950351 0.185860
v 0.463768 2.950351 0.165834
v 0.514689 2.950351 0.184145
v 0.697102 3.801999 0.364492
v 0.676911 3.801999 0.407385
v 0.634019 3.801999 0.424840
v 0.589633 3.801999 0.408879
v 0.570936 3.801999 0.364492
v 0.591127 3.801999 0.321600
v 0.634019 3.801999 0.304144
v 0.678406 3.801999 0.320106
v -0.183579 0.000000 0.008076
v -0.210032 0.000000 0.069966
v -0.271922 0.000000 0.092284
v -0.332044 0.000000 0.068199
v -0.360265 0.000000 0.008076
v -0.333811 0.000000 -0.053813
v -0.271922 0.000000 -0.076132
v -0.211799 0.000000 -0.052046
v -0.148337 0.055275 0.008296
v -0.185257 0.055275 0.094671
v -0.271632 0.055275 0.125820
v -0.355541 0.055275 0.092205
v -0.394926 0.055275 0.008296
v -0.358007 0.055275 -0.078079
v -0.271632 0.055275 -0.109227
v -0.187723 0.055275 -0.075612
v -0.178798 0.110551 0.008792
v -0.206401 0.110551 0.073371
v -0.270980 0.110551 0.096659
v -0.333714 0.110551 0.071527
v -0.363161 0.110551 0.008792
v -0.335558 0.110551 -0.055786
v -0.270980 0.110551 -0.079074
v -0.208245 0.110551 -0.053942
v -0.144708 1.062987 0.041655
v -0.169574 1.062987 0.099831
v -0.227751 1.062987 0.120811
v -0.284266 1.062987 0.098170
v -0.310793 1.062987 0.041655
v -0.285927 1.062987 -0.016521
v -0.227751 1.062987 -0.037500
v -0.171235 1.062987 -0.014860
v -0.107902 1.118263 0.044677
v -0.142599 1.118263 0.125854
v -0.223775 1.118263 0.155127
v -0.302634 1.118263 0.123536
v -0.339649 1.118263 0.044677
v -0.304951 1.118263 -0.036499
v -0.223775 1.118263 -0.065773
v -0.144917 1.118263 -0.034181
v -0.133044 1.173538 0.047806
v -0.158980 1.173538 0.108485
v -0.219660 1.173538 0.130367
v -0.278607 1.173538 0.106753
v -0.306275 1.173538 0.047806
v -0.280339 1.173538 -0.012874
v -0.219660 1.173538 -0.034756
v -0.160713 1.173538 -0.011141
v -0.050667 2.125974 0.117175
v -0.073946 2.125974 0.171638
v -0.128409 2.125974 0.191278
v -0.181317 2.125974 0.170083
v -0.206151 2.125974 0.117175
v -0.182872 2.125974 0.062712
v -0.128409 2.125974 0.043072
v -0.075501 2.125974 0.064267
v -0.013556 2.181250 0.122041
v -0.046031 2.181250 0.198018
v -0.122008 2.181250 0.225417
v -0.195817 2.181250 0.195849
v -0.230461 2.181250 0.122041
v -0.197986 2.181250 0.046063
v -0.122008 2.181250 0.018664
v -0.048200 2.181250 0.048233
v -0.034443 2.236525 0.126994
v -0.058712 2.236525 0.183774
v -0.115493 2.236525 0.204250
v -0.170652 2.236525 0.182153
v -0.196543 2.236525 0.126994
v -0.172273 2.236525 0.070214
v -0.115493 2.236525 0.049737
v -0.060334 2.236525 0.071835
v 0.086440 3.188962 0.225434
v 0.064748 3.188962 0.276183
v 0.013999 3.188962 0.294485
v -0.035302 3.188962 0.274735
v -0.058442 3.188962 0.225434
v -0.036751 3.188962 0.174685
v 0.013999 3.188962 0.156383
v 0.063299 3.188962 0.176134
v 0.123507 3.244237 0.231878
v 0.093254 3.244237 0.302656
v 0.022475 3.244237 0.328181
v -0.046283 3.244237 0.300636
v -0.078557 3.244237 0.231878
v -0.048304 3.244237 0.161099
v 0.022475 3.244237 0.135575
v 0.091233 3.244237 0.163120
v 0.106537 3.299512 0.238399
v 0.083934 3.299512 0.291280
v 0.031053 3.299512 0.310350
v -0.020319 3.299512 0.289770
v -0.044432 3.299512 0.238399
v -0.021829 3.299512 0.185517
v 0.031053 3.299512 0.166447
v 0.082424 3.299512 0.187027
v 0.260150 4.251949 0.362540
v 0.240448 4.251949 0.408635
v 0.194352 4.251949 0.425258
v 0.149573 4.251949 0.407319
v 0.128554 4.251949 0.362540
v 0.148257 4.251949 0.316444
v 0.194352 4.251949 0.299821
v 0.239132 4.251949 0.317760
v 0.255254 0.000000 0.386141
v 0.229474 0.000000 0.427338
v 0.181933 0.000000 0.427287
v 0.156123 0.000000 0.386141
v 0.181903 0.000000 0.344944
v 0.229444 0.000000 0.344995
v 0.275138 0.039625 0.386350
v 0.239158 0.039625 0.443846
v 0.172808 0.039625 0.443775
v 0.136787 0.039625 0.386350
v 0.172767 0.039625 0.328853
v 0.239117 0.039625 0.328924
v 0.258298 0.079250 0.386818
v 0.231398 0.079250 0.429805
v 0.181791 0.079250 0.429752
v 0.154860 0.079250 0.386818
v 0.181760 0.079250 0.343831
v 0.231367 0.079250 0.343884
v 0.319388 1.016030 0.437910
v 0.295670 1.016030 0.475812
v 0.251932 1.016030 0.475765
v 0.228187 1.016030 0.437910
v 0.251905 1.016030 0.400009
v 0.295643 1.016030 0.400056
v 0.341988 1.055656 0.441389
v 0.308895 1.055656 0.494271
v 0.247870 1.055656 0.494206
v 0.214740 1.055656 0.441389
v 0.247832 1.055656 0.388507
v 0.308858 1.055656 0.388573
v 0.330617 1.095281 0.444961
v 0.305883 1.095281 0.484487
v 0.260270 1.095281 0.484439
v 0.235507 1.095281 0.444961
v 0.260241 1.095281 0.405434
v 0.305854 1.095281 0.405483
v 0.468578 2.032061 0.554340
v 0.446922 2.032061 0.588945
v 0.406988 2.032061 0.588902
v 0.385308 2.032061 0.554340
v 0.406963 2.032061 0.519734
v 0.446898 2.032061 0.519777
v 0.492400 2.071686 0.559953
v 0.462195 2.071686 0.608221
v 0.406494 2.071686 0.608162
v 0.376255 2.071686 0.559953
v 0.406460 2.071686 0.511685
v 0.462160 2.071686 0.511745
v 0.485203 2.111311 0.565643
v 0.462634 2.111311 0.601709
v 0.421014 2.111311 0.601664
v 0.398419 2.111311 0.565643
v 0.420989 2.111311 0.529577
v 0.462608 2.111311 0.529621
v 0.683410 3.048091 0.721243
v 0.664209 3.048091 0.751927
v 0.628800 3.048091 0.751889
v 0.609577 3.048091 0.721243
v 0.628779 3.048091 0.690560
v 0.664187 3.048091 0.690598
v -0.280815 0.000000 -0.109362
v -0.300492 0.000000 -0.078292
v -0.336645 0.000000 -0.077812
v -0.356045 0.000000 -0.109362
v -0.336368 0.000000 -0.140431
v -0.300215 0.000000 -0.140911
v -0.265596 0.042679 -0.109105
v -0.293058 0.042679 -0.065744
v -0.343515 0.042679 -0.065074
v -0.370590 0.042679 -0.109105
v -0.343128 0.042679 -0.152467
v -0.292671 0.042679 -0.153137
v -0.278085 0.085358 -0.108529
v -0.298617 0.085358 -0.076109
v -0.336341 0.085358 -0.075608
v -0.356584 0.085358 -0.108529
v -0.336052 0.085358 -0.140948
v -0.298328 0.085358 -0.141449
v -0.200033 1.094338 -0.045664
v -0.218136 1.094338 -0.017080
v -0.251397 1.094338 -0.016638
v -0.269245 1.094338 -0.045664
v -0.251142 1.094338 -0.074248
v -0.217881 1.094338 -0.074689
v -0.180724 1.137017 -0.041383
v -0.205983 1.137017 -0.001501
v -0.252390 1.137017 -0.000885
v -0.277293 1.137017 -0.041383
v -0.252034 1.137017 -0.081265
v -0.205627 1.137017 -0.081881
v -0.187138 1.179696 -0.036988
v -0.206017 1.179696 -0.007179
v -0.240704 1.179696 -0.006718
v -0.259318 1.179696 -0.036988
v -0.240438 1.179696 -0.066798
v -0.205751 1.179696 -0.067259
v -0.014596 2.188675 0.097594
v -0.031125 2.188675 0.123692
v -0.061494 2.188675 0.124096
v -0.077790 2.188675 0.097594
v -0.061261 2.188675 0.071496
v -0.030892 2.188675 0.071092
v 0.006964 2.231354 0.104501
v -0.016090 2.231354 0.140903
v -0.058449 2.231354 0.141466
v -0.081178 2.231354 0.104501
v -0.058124 2.231354 0.068099
v -0.015766 2.231354 0.067537
v 0.005032 2.274034 0.111502
v -0.012195 2.274034 0.138701
v -0.043845 2.274034 0.139122
v -0.060829 2.274034 0.111502
v -0.043602 2.274034 0.084302
v -0.011952 2.274034 0.083882
v 0.251964 3.283013 0.302957
v 0.237308 3.283013 0.326097
v 0.210381 3.283013 0.326455
v 0.195932 3.283013 0.302957
v 0.210588 3.283013 0.279816
v 0.237515 3.283013 0.279458
v 0.312490 0.000000 -0.281449
v 0.294212 0.000000 -0.252079
v 0.259511 0.000000 -0.250715
v 0.242021 0.000000 -0.281449
v 0.260298 0.000000 -0.310820
v 0.295000 0.000000 -0.312184
v 0.326739 0.042093 -0.281214
v 0.301231 0.042093 -0.240224
v 0.252800 0.042093 -0.238320
v 0.228391 0.042093 -0.281214
v 0.253900 0.042093 -0.322204
v 0.302330 0.042093 -0.324108
v 0.315028 0.084186 -0.280684
v 0.295956 0.084186 -0.250038
v 0.259747 0.084186 -0.248614
v 0.241497 0.084186 -0.280684
v 0.260569 0.084186 -0.311330
v 0.296778 0.084186 -0.312754
v 0.386693 1.079305 -0.222897
v 0.369878 1.079305 -0.195876
v 0.337952 1.079305 -0.194621
v 0.321862 1.079305 -0.222897
v 0.338677 1.079305 -0.249917
v 0.370602 1.079305 -0.251173
v 0.404681 1.121398 -0.218962
v 0.381220 1.121398 -0.181262
v 0.336676 1.121398 -0.179510
v 0.314225 1.121398 -0.218962
v 0.337687 1.121398 -0.256662
v 0.382231 1.121398 -0.258414
v 0.398573 1.163491 -0.214922
v 0.381036 1.163491 -0.186743
v 0.347742 1.163491 -0.185434
v 0.330962 1.163491 -0.214922
v 0.348498 1.163491 -0.243101
v 0.381792 1.163491 -0.244411
v 0.557098 2.158611 -0.091211
v 0.541745 2.158611 -0.066540
v 0.512596 2.158611 -0.065394
v 0.497904 2.158611 -0.091211
v 0.513258 2.158611 -0.115882
v 0.542407 2.158611 -0.117028
v 0.577135 2.200704 -0.084862
v 0.555721 2.200704 -0.050451
v 0.515063 2.200704 -0.048852
v 0.494572 2.200704 -0.084862
v 0.515986 2.200704 -0.119273
v 0.556644 2.200704 -0.120871
v 0.575164 2.242797 -0.078427
v 0.559163 2.242797 -0.052715
v 0.528784 2.242797 -0.051521
v 0.513472 2.242797 -0.078427
v 0.529473 2.242797 -0.104139
v 0.559853 2.242797 -0.105333
v 0.802064 3.237916 0.097562
v 0.788450 3.237916 0.119437
v 0.762605 3.237916 0.120454
v 0.749578 3.237916 0.097562
v 0.763192 3.237916 0.075688
v 0.789037 3.237916 0.074671
vn 0.7687 -0.5275 0.3618
vn 0.3222 -0.5191 0.7917
vn -0.2885 -0.5224 0.8024
vn -0.7829 -0.5275 0.3298
vn -0.7738 -0.5182 -0.3643
vn -0.3241 -0.5108 -0.7963
vn 0.2891 -0.5195 -0.8041
vn 0.7802 -0.5322 -0.3286
vn 0.7997 0.4677 0.3764
vn 0.3345 0.4613 0.8218
vn -0.2980 0.4739 0.8287
vn -0.8024 0.4918 0.3380
vn -0.7884 0.4906 -0.3711
vn -0.3303 0.4817 -0.8117
vn 0.2967 0.4809 -0.8251
vn 0.8083 0.4803 -0.3405
vn 0.9986 -0.0438 0.0306
vn 0.6851 -0.0556 0.7263
vn 0.9990 -0.0430 0.0103
vn 0.0324 -0.0321 0.9990
vn 0.0086 -0.0308 0.9995
vn -0.6754 0.0163 0.7373
vn -0.7000 0.0186 0.7140
vn -0.9979 0.0635 -0.0103
vn -0.9975 0.0643 -0.0304
vn -0.6841 0.0753 -0.7255
vn -0.6878 0.0753 -0.7220
vn -0.0322 0.0517 -0.9981
vn -0.0086 0.0505 -0.9987
vn 0.6757 0.0041 -0.7372
vn 0.7001 0.0019 -0.7141
vn 0.7485 -0.5619 0.3523
vn 0.3153 -0.5479 0.7748
vn -0.2895 -0.5176 0.8052
vn -0.8128 -0.4713 0.3424
vn -0.8178 -0.4277 -0.3850
vn -0.3407 -0.4280 -0.8371
vn 0.2975 -0.4763 -0.8274
vn 0.7764 -0.5387 -0.3270
vn 0.8381 0.3768 0.3945
vn 0.3489 0.3786 0.8573
vn -0.3053 0.4314 0.8489
vn -0.7981 0.5000 0.3362
vn -0.7689 0.5270 -0.3620
vn -0.3237 0.5124 -0.7954
vn 0.2973 0.4776 -0.8267
vn 0.8345 0.4243 -0.3515
vn 0.9937 -0.1045 0.0409
vn 0.6784 -0.1277 0.7235
vn 0.9949 -0.1011 -0.0015
vn 0.0448 -0.0800 0.9958
vn -0.0049 -0.0746 0.9972
vn -0.6614 0.0201 0.7498
vn -0.7127 0.0300 0.7008
vn -0.9927 0.1207 0.0015
vn -0.9914 0.1241 -0.0405
vn -0.6766 0.1464 -0.7217
vn -0.6841 0.1466 -0.7145
vn -0.0444 0.0989 -0.9941
vn 0.0049 0.0935 -0.9956
vn 0.6618 -0.0003 -0.7497
vn 0.7131 -0.0102 -0.7010
vn 0.7395 -0.5761 0.3481
vn 0.3126 -0.5588 0.7681
vn -0.2918 -0.5063 0.8115
vn -0.8358 -0.4212 0.3521
vn -0.8477 -0.3496 -0.3990
vn -0.3521 -0.3568 -0.8653
vn 0.3044 -0.4367 -0.8466
vn 0.7785 -0.5352 -0.3279
vn 0.8637 0.2979 0.4066
vn 0.3588 0.3069 0.8815
vn -0.3112 0.3925 0.8655
vn -0.7986 0.4991 0.3364
vn -0.7587 0.5448 -0.3571
vn -0.3204 0.5267 -0.7874
vn 0.2990 0.4685 -0.8313
vn 0.8546 0.3744 -0.3599
vn 0.9871 -0.1527 0.0484
vn 0.6707 -0.1838 0.7186
vn 0.9892 -0.1459 -0.0110
vn 0.0540 -0.1188 0.9914
vn -0.0157 -0.1081 0.9940
vn -0.6503 0.0212 0.7594
vn -0.7223 0.0409 0.6904
vn -0.9863 0.1646 0.0110
vn -0.9841 0.1713 -0.0479
vn -0.6682 0.2014 -0.7162
vn -0.6787 0.2018 -0.7062
vn -0.0535 0.1369 -0.9891
vn 0.0157 0.1262 -0.9919
vn 0.6508 -0.0021 -0.7593
vn 0.7229 -0.0217 -0.6906
vn 0.7338 -0.5851 0.3454
vn 0.3110 -0.5650 0.7643
vn -0.2944 -0.4930 0.8187
vn -0.8559 -0.3707 0.3605
vn -0.8708 -0.2715 -0.4099
vn -0.3612 -0.2857 -0.8876
vn 0.3107 -0.3965 -0.8639
vn 0.7822 -0.5288 -0.3295
vn 0.8825 0.2205 0.4154
vn 0.3662 0.2366 0.8999
vn -0.3165 0.3535 0.8803
vn -0.8006 0.4952 0.3372
vn -0.7514 0.5570 -0.3537
vn -0.3183 0.5359 -0.7820
vn 0.3009 0.4574 -0.8368
vn 0.8716 0.3247 -0.3671
vn 0.9796 -0.1934 0.0545
vn 0.6624 -0.2305 0.7127
vn 0.9830 -0.1829 -0.0193
vn 0.0617 -0.1519 0.9865
vn -0.0251 -0.1352 0.9905
vn -0.6405 0.0222 0.7676
vn -0.7303 0.0533 0.6811
vn -0.9789 0.2034 0.0192
vn -0.9754 0.2138 -0.0537
vn -0.6591 0.2497 -0.7094
vn -0.6719 0.2504 -0.6970
vn -0.0610 0.1719 -0.9832
vn 0.0251 0.1554 -0.9875
vn 0.6411 -0.0007 -0.7674
vn 0.7312 -0.0318 -0.6814
vn -0.0000 -1.0000 -0.0000
vn -0.0000 1.0000 -0.0000
vn 0.7927 -0.5068 0.3388
vn 0.2944 -0.4968 0.8164
vn -0.3243 -0.4894 0.8095
vn -0.7867 -0.4948 0.3693
vn -0.7971 -0.4985 -0.3407
vn -0.2958 -0.4896 -0.8203
vn 0.3248 -0.4871 -0.8107
vn 0.7846 -0.4988 -0.3683
vn 0.8214 0.4495 0.3511
vn 0.3044 0.4417 0.8440
vn -0.3334 0.4430 0.8322
vn -0.8043 0.4588 0.3775
vn -0.8118 0.4696 -0.3470
vn -0.3013 0.4594 -0.8356
vn 0.3324 0.4486 -0.8296
vn 0.8088 0.4491 -0.3796
vn 0.9993 -0.0355 -0.0084
vn 0.6839 -0.0467 0.7281
vn 0.9990 -0.0348 -0.0267
vn -0.0072 -0.0250 0.9997
vn -0.0279 -0.0241 0.9993
vn -0.6765 0.0145 0.7363
vn -0.6958 0.0160 0.7180
vn -0.9982 0.0540 0.0268
vn -0.9985 0.0546 0.0084
vn -0.6831 0.0656 -0.7274
vn -0.6866 0.0656 -0.7241
vn 0.0072 0.0433 -0.9990
vn 0.0280 0.0423 -0.9987
vn 0.6768 0.0039 -0.7362
vn 0.6959 0.0024 -0.7182
vn 0.7767 -0.5353 0.3320
vn 0.2898 -0.5198 0.8036
vn -0.3259 -0.4816 0.8135
vn -0.8110 -0.4442 0.3807
vn -0.8358 -0.4168 -0.3573
vn -0.3086 -0.4155 -0.8557
vn 0.3324 -0.4483 -0.8298
vn 0.7832 -0.5014 -0.3676
vn 0.8549 0.3682 0.3654
vn 0.3154 0.3683 0.8746
vn -0.3399 0.4054 0.8486
vn -0.8023 0.4631 0.3766
vn -0.7963 0.5000 -0.3404
vn -0.2969 0.4840 -0.8232
vn 0.3335 0.4423 -0.8325
vn 0.8299 0.3995 -0.3895
vn 0.9963 -0.0863 0.0012
vn 0.6786 -0.1088 0.7264
vn 0.9958 -0.0834 -0.0372
vn 0.0039 -0.0642 0.9979
vn -0.0397 -0.0600 0.9974
vn -0.6656 0.0184 0.7461
vn -0.7060 0.0251 0.7078
vn -0.9941 0.1018 0.0373
vn -0.9945 0.1046 -0.0011
vn -0.6770 0.1268 -0.7250
vn -0.6843 0.1270 -0.7181
vn -0.0038 0.0818 -0.9966
vn 0.0398 0.0776 -0.9962
vn 0.6659 -0.0005 -0.7460
vn 0.7062 -0.0071 -0.7080
vn 0.7703 -0.5461 0.3292
vn 0.2883 -0.5271 0.7994
vn -0.3285 -0.4685 0.8201
vn -0.8299 -0.3993 0.3896
vn -0.8624 -0.3469 -0.3686
vn -0.3175 -0.3520 -0.8805
vn 0.3387 -0.4126 -0.8456
vn 0.7863 -0.4954 -0.3691
vn 0.8777 0.2981 0.3752
vn 0.3231 0.3050 0.8959
vn -0.3454 0.3708 0.8621
vn -0.8040 0.4595 0.3774
vn -0.7887 0.5142 -0.3371
vn -0.2949 0.4944 -0.8177
vn 0.3355 0.4313 -0.8375
vn 0.8462 0.3553 -0.3972
vn 0.9919 -0.1268 0.0084
vn 0.6725 -0.1573 0.7232
vn 0.9916 -0.1211 -0.0456
vn 0.0124 -0.0960 0.9953
vn -0.0490 -0.0876 0.9949
vn -0.6569 0.0201 0.7537
vn -0.7137 0.0334 0.6996
vn -0.9893 0.1387 0.0457
vn -0.9895 0.1443 -0.0082
vn -0.6704 0.1745 -0.7212
vn -0.6805 0.1749 -0.7116
vn -0.0122 0.1129 -0.9935
vn 0.0491 0.1045 -0.9933
vn 0.6573 -0.0028 -0.7536
vn 0.7141 -0.0161 -0.6998
vn 0.7666 -0.5523 0.3277
vn 0.2876 -0.5303 0.7975
vn -0.3314 -0.4535 0.8273
vn -0.8465 -0.3544 0.3973
vn -0.8834 -0.2775 -0.3776
vn -0.3247 -0.2892 -0.9005
vn 0.3445 -0.3766 -0.8600
vn 0.7907 -0.4869 -0.3711
vn 0.8950 0.2296 0.3825
vn 0.3290 0.2433 0.9124
vn -0.3502 0.3363 0.8742
vn -0.8068 0.4534 0.3787
vn -0.7836 0.5233 -0.3349
vn -0.2937 0.5005 -0.8144
vn 0.3378 0.4185 -0.8431
vn 0.8601 0.3117 -0.4037
vn 0.9868 -0.1610 0.0144
vn 0.6661 -0.1981 0.7191
vn 0.9869 -0.1523 -0.0530
vn 0.0195 -0.1231 0.9922
vn -0.0572 -0.1099 0.9923
vn -0.6492 0.0220 0.7603
vn -0.7203 0.0430 0.6924
vn -0.9837 0.1717 0.0531
vn -0.9835 0.1805 -0.0142
vn -0.6632 0.2169 -0.7163
vn -0.6757 0.2175 -0.7044
vn -0.0193 0.1419 -0.9897
vn 0.0573 0.1288 -0.9900
vn 0.6497 -0.0025 -0.7602
vn 0.7209 -0.0235 -0.6927
vn 0.7793 -0.3936 0.4877
vn -0.0010 -0.3843 0.9232
vn -0.7821 -0.3842 0.4906
vn -0.7841 -0.3800 -0.4907
vn 0.0010 -0.3760 -0.9266
vn 0.7804 -0.3890 -0.4895
vn 0.7991 0.3337 0.5001
vn -0.0010 0.3338 0.9426
vn -0.7919 0.3553 0.4967
vn -0.7890 0.3657 -0.4937
vn 0.0010 0.3534 -0.9355
vn 0.7955 0.3439 -0.4990
vn 0.9977 -0.0660 0.0172
vn 0.4726 -0.0755 0.8781
vn 0.9978 -0.0640 -0.0195
vn -0.4604 -0.0091 0.8876
vn -0.5084 -0.0042 0.8611
vn -0.9968 0.0770 0.0196
vn -0.9967 0.0790 -0.0171
vn -0.4720 0.0879 -0.8772
vn -0.4915 0.0888 -0.8663
vn 0.4606 0.0216 -0.8874
vn 0.5084 0.0167 -0.8610
vn 0.7490 -0.4683 0.4687
vn -0.0010 -0.4220 0.9066
vn -0.8035 -0.3169 0.5040
vn -0.8241 -0.2344 -0.5157
vn 0.0010 -0.2787 -0.9604
vn 0.7764 -0.4000 -0.4870
vn 0.8320 0.1918 0.5206
vn -0.0010 0.2396 0.9709
vn -0.7876 0.3682 0.4940
vn -0.7606 0.4415 -0.4760
vn 0.0010 0.3926 -0.9197
vn 0.8134 0.2794 -0.5102
vn 0.9881 -0.1496 0.0353
vn 0.4551 -0.1661 0.8748
vn 0.9892 -0.1408 -0.0420
vn -0.4333 -0.0326 0.9006
vn -0.5348 -0.0105 0.8449
vn -0.9873 0.1530 0.0421
vn -0.9862 0.1618 -0.0350
vn -0.4541 0.1776 -0.8731
vn -0.4947 0.1812 -0.8499
vn 0.4335 0.0445 -0.9001
vn 0.5349 0.0225 -0.8446
vn 0.7318 -0.5048 0.4579
vn -0.0010 -0.4371 0.8994
vn -0.8181 -0.2596 0.5132
vn -0.8418 -0.1177 -0.5268
vn 0.0010 -0.1990 -0.9800
vn 0.7771 -0.3981 -0.4874
vn 0.8451 0.0776 0.5289
vn -0.0011 0.1622 0.9868
vn -0.7872 0.3694 0.4938
vn -0.7427 0.4821 -0.4647
vn 0.0010 0.4112 -0.9115
vn 0.8256 0.2243 -0.5178
vn 0.9756 -0.2143 0.0477
vn 0.4389 -0.2336 0.8677
vn 0.9786 -0.1971 -0.0599
vn -0.4124 -0.0544 0.9094
vn -0.5549 -0.0103 0.8319
vn -0.9759 0.2100 0.0599
vn -0.9727 0.2271 -0.0471
vn -0.4373 0.2457 -0.8651
vn -0.4933 0.2525 -0.8324
vn 0.4126 0.0673 -0.9084
vn 0.5551 0.0234 -0.8315
vn 0.8082 -0.2913 0.5119
vn 0.0127 -0.2841 0.9587
vn -0.8174 -0.2816 0.5026
vn -0.8125 -0.2738 -0.5146
vn -0.0128 -0.2733 -0.9619
vn 0.8158 -0.2879 -0.5016
vn 0.8215 0.2334 0.5203
vn 0.0129 0.2376 0.9713
vn -0.8219 0.2629 0.5054
vn -0.8126 0.2736 -0.5146
vn -0.0128 0.2625 -0.9648
vn 0.8252 0.2483 -0.5074
vn 0.9965 -0.0787 0.0265
vn 0.4748 -0.0891 0.8756
vn 0.9970 -0.0762 -0.0149
vn -0.4541 -0.0138 0.8909
vn -0.5100 -0.0073 0.8602
vn -0.9962 0.0853 0.0149
vn -0.9958 0.0878 -0.0264
vn -0.4743 0.0978 -0.8749
vn -0.4959 0.0988 -0.8628
vn 0.4542 0.0227 -0.8906
vn 0.5100 0.0162 -0.8600
vn 0.7744 -0.3996 0.4905
vn 0.0125 -0.3460 0.9382
vn -0.8331 -0.2085 0.5123
vn -0.8401 -0.1050 -0.5321
vn -0.0131 -0.1625 -0.9866
vn 0.8082 -0.3158 -0.4970
vn 0.8426 0.0717 0.5337
vn 0.0132 0.1319 0.9912
vn -0.8148 0.2916 0.5010
vn -0.7814 0.3801 -0.4949
vn -0.0126 0.3241 -0.9460
vn 0.8381 0.1790 -0.5153
vn 0.9836 -0.1744 0.0462
vn 0.4543 -0.1916 0.8700
vn 0.9858 -0.1632 -0.0404
vn -0.4226 -0.0423 0.9053
vn -0.5406 -0.0130 0.8412
vn -0.9843 0.1717 0.0405
vn -0.9821 0.1828 -0.0459
vn -0.4534 0.1996 -0.8687
vn -0.4980 0.2040 -0.8428
vn 0.4227 0.0508 -0.9048
vn 0.5407 0.0216 -0.8409
vn 0.7516 -0.4567 0.4760
vn 0.0123 -0.3777 0.9259
vn -0.8421 -0.1507 0.5178
vn -0.8447 0.0195 -0.5349
vn -0.0132 -0.0784 -0.9968
vn 0.8051 -0.3266 -0.4951
vn 0.8438 -0.0494 0.5344
vn 0.0133 0.0503 0.9986
vn -0.8113 0.3050 0.4988
vn -0.7585 0.4404 -0.4804
vn -0.0124 0.3586 -0.9334
vn 0.8453 0.1235 -0.5198
vn 0.9670 -0.2479 0.0591
vn 0.4351 -0.2673 0.8598
vn 0.9721 -0.2264 -0.0605
vn -0.3985 -0.0694 0.9145
vn -0.5636 -0.0114 0.8260
vn -0.9700 0.2354 0.0606
vn -0.9647 0.2566 -0.0586
vn -0.4339 0.2755 -0.8578
vn -0.4947 0.2838 -0.8214
vn 0.3987 0.0785 -0.9137
vn 0.5637 0.0207 -0.8257
vn 0.8153 -0.2789 0.5074
vn 0.0378 -0.2767 0.9602
vn -0.8360 -0.2734 0.4757
vn -0.8193 -0.2624 -0.5098
vn -0.0379 -0.2662 -0.9632
vn 0.8344 -0.2798 -0.4748
vn 0.8275 0.2238 0.5150
vn 0.0382 0.2314 0.9721
vn -0.8403 0.2556 0.4782
vn -0.8195 0.2616 -0.5100
vn -0.0380 0.2556 -0.9660
vn 0.8436 0.2408 -0.4800
vn 0.9966 -0.0739 0.0373
vn 0.4911 -0.0837 0.8671
vn 0.9974 -0.0719 0.0006
vn -0.4581 -0.0122 0.8888
vn -0.5128 -0.0063 0.8585
vn -0.9968 0.0805 -0.0006
vn -0.9959 0.0826 -0.0371
vn -0.4907 0.0920 -0.8664
vn -0.5095 0.0928 -0.8554
vn 0.4582 0.0210 -0.8886
vn 0.5129 0.0151 -0.8583
vn 0.7849 -0.3811 0.4885
vn 0.0370 -0.3367 0.9409
vn -0.8516 -0.1998 0.4846
vn -0.8444 -0.1041 -0.5255
vn -0.0388 -0.1590 -0.9865
vn 0.8265 -0.3092 -0.4703
vn 0.8468 0.0723 0.5270
vn 0.0390 0.1292 0.9909
vn -0.8329 0.2857 0.4740
vn -0.7915 0.3620 -0.4925
vn -0.0373 0.3151 -0.9483
vn 0.8563 0.1710 -0.4873
vn 0.9850 -0.1637 0.0549
vn 0.4730 -0.1806 0.8624
vn 0.9877 -0.1546 -0.0220
vn -0.4272 -0.0382 0.9034
vn -0.5430 -0.0113 0.8397
vn -0.9864 0.1627 0.0220
vn -0.9836 0.1718 -0.0546
vn -0.4722 0.1883 -0.8611
vn -0.5113 0.1918 -0.8377
vn 0.4273 0.0466 -0.9029
vn 0.5431 0.0198 -0.8395
vn 0.7643 -0.4355 0.4756
vn 0.0365 -0.3674 0.9294
vn -0.8603 -0.1420 0.4896
vn -0.8490 0.0125 -0.5283
vn -0.0392 -0.0777 -0.9962
vn 0.8231 -0.3212 -0.4684
vn 0.8483 -0.0410 0.5279
vn 0.0392 0.0505 0.9980
vn -0.8291 0.3001 0.4718
vn -0.7707 0.4194 -0.4797
vn -0.0368 0.3485 -0.9366
vn 0.8633 0.1155 -0.4913
vn 0.9702 -0.2330 0.0666
vn 0.4557 -0.2527 0.8535
vn 0.9757 -0.2154 -0.0399
vn -0.4035 -0.0630 0.9128
vn -0.5656 -0.0096 0.8246
vn -0.9738 0.2240 0.0399
vn -0.9682 0.2414 -0.0661
vn -0.4547 0.2607 -0.8516
vn -0.5082 0.2673 -0.8187
vn 0.4036 0.0720 -0.9121
vn 0.5658 0.0188 -0.8243
vn 0.6886 -0.0557 0.7230
vn 0.6858 -0.1279 0.7164
vn 0.8546 0.3744 -0.3600
vn 0.6810 -0.1842 0.7087
vn 0.3663 0.2366 0.8999
vn 0.6752 -0.2312 0.7004
vn 0.6873 -0.0467 0.7249
vn 0.6857 -0.1089 0.7197
vn -0.8624 -0.3468 -0.3686
vn 0.6825 -0.1577 0.7137
vn 0.3377 0.4185 -0.8431
vn 0.6784 -0.1986 0.7073
vn 0.7954 0.3439 -0.4990
vn 0.4920 -0.0763 0.8672
vn 0.7764 -0.4001 -0.4870
vn 0.4959 -0.1696 0.8517
vn 0.0011 -0.1990 -0.9800
vn 0.7771 -0.3981 -0.4875
vn 0.8452 0.0776 0.5289
vn 0.4950 -0.2404 0.8350
vn 0.4963 -0.0901 0.8635
vn 0.4989 -0.1960 0.8442
vn 0.0123 -0.3777 0.9258
vn 0.4960 -0.2756 0.8234
vn 0.5100 -0.0845 0.8560
vn 0.5121 -0.1840 0.8389
vn -0.7707 0.4194 -0.4796
vn 0.5095 -0.2593 0.8205
vt 0.486607 0.000000
vt 0.354997 0.164753
vt 0.374652 0.000000
vt 0.219747 0.164753
vt 0.268402 0.000000
vt 0.170934 0.000000
vt 2.170934 0.000000
vt 1.631684 0.164753
vt 2.347984 0.000000
vt 0.347984 0.000000
vt 0.915709 0.164753
vt 0.776654 0.000000
vt 0.757896 0.164753
vt 0.701723 0.000000
vt 0.600134 0.000000
vt 0.623971 0.164753
vt 0.485682 0.329507
vt 0.488345 0.164753
vt 0.262520 0.329507
vt 0.158722 0.329507
vt 0.058100 0.164753
vt 2.058100 0.164753
vt 2.307380 0.329507
vt 2.915709 0.164753
vt 0.787781 0.329507
vt 0.601336 0.329507
vt 0.440298 3.168333
vt 0.371623 0.329507
vt 0.282136 3.168333
vt 0.234713 3.168333
vt 0.317264 3.168333
vt 0.307380 0.329507
vt 0.539274 3.168333
vt 0.705894 0.329507
vt 0.571690 3.168333
vt 0.520869 3.168333
vt 0.342694 3.333086
vt 0.356308 3.168333
vt 0.247572 3.333086
vt 0.166829 3.333086
vt 0.223312 3.333086
vt 0.620635 3.333086
vt 0.621842 3.333086
vt 0.544708 3.333086
vt 0.434926 3.497839
vt 0.444558 3.333086
vt 0.278689 3.497839
vt 0.231459 3.497839
vt 0.307457 3.497839
vt 0.523664 3.497839
vt 0.561681 3.497839
vt 0.513833 3.497839
vt 0.385747 6.336666
vt 0.352026 3.497839
vt 0.290465 6.336666
vt 0.269654 6.336666
vt 0.306634 6.336666
vt 0.390976 6.336666
vt 0.436750 6.336666
vt 0.428384 6.336666
vt 0.392369 6.501419
vt 0.334146 6.336666
vt 0.269748 6.501419
vt 0.235941 6.501419
vt 0.278982 6.501419
vt 0.406765 6.501419
vt 0.466416 6.501419
vt 0.448788 6.501419
vt 0.382486 6.666173
vt 0.327076 6.501419
vt 0.288311 6.666173
vt 0.267484 6.666173
vt 0.303089 6.666173
vt 0.385565 6.666173
vt 0.431539 6.666173
vt 0.424192 6.666173
vt 0.352006 9.504998
vt 0.331558 6.666173
vt 0.293905 9.504998
vt 0.282953 9.504998
vt 0.302667 9.504998
vt 0.343913 9.504998
vt 0.372846 9.504998
vt 0.374699 9.504998
vt 0.357850 9.669752
vt 0.320417 9.504998
vt 0.281229 9.669752
vt 0.264353 9.669752
vt 0.289478 9.669752
vt 0.348814 9.669752
vt 0.388593 9.669752
vt 0.388811 9.669752
vt 0.350377 9.834505
vt 0.316612 9.669752
vt 0.292515 9.834505
vt 0.281484 9.834505
vt 0.300888 9.834505
vt 0.341825 9.834505
vt 0.370759 9.834505
vt 0.372826 9.834505
vt 0.332352 12.673331
vt 0.318957 9.834505
vt 0.295760 12.673331
vt 0.289369 12.673331
vt 0.300989 12.673331
vt 0.324269 12.673331
vt 0.342131 12.673331
vt 0.345295 12.673331
vt 1.528626 0.000000
vt 1.637356 0.184251
vt 1.598757 0.000000
vt 1.630203 0.184251
vt 1.600984 0.000000
vt 1.566827 0.000000
vt 1.581011 0.184251
vt 1.516273 0.000000
vt 1.449299 0.184251
vt 1.465976 0.000000
vt 1.406812 0.184251
vt 1.437852 0.000000
vt 1.452340 0.000000
vt 1.417204 0.184251
vt 1.530221 0.368502
vt 1.534077 0.184251
vt 1.603910 0.368502
vt 1.569193 0.368502
vt 1.516712 0.368502
vt 1.515160 0.184251
vt 1.464513 0.368502
vt 1.434855 0.368502
vt 1.587614 3.543291
vt 1.643555 3.543291
vt 1.605183 0.368502
vt 1.602566 3.543291
vt 1.547940 3.543291
vt 1.496479 3.543291
vt 1.471611 3.543291
vt 1.449393 0.368502
vt 1.497047 3.543291
vt 1.612346 3.727542
vt 1.651962 3.543291
vt 1.676093 3.727542
vt 1.618000 3.727542
vt 1.546851 3.727542
vt 1.478693 3.727542
vt 1.438796 3.727542
vt 1.464940 3.727542
vt 1.602759 3.911793
vt 1.700062 3.727542
vt 1.656268 3.911793
vt 1.611653 3.911793
vt 1.553923 3.911793
vt 1.499952 3.911793
vt 1.473996 3.911793
vt 1.502565 3.911793
vt 1.793040 7.086581
vt 1.668614 3.911793
vt 1.772950 7.086581
vt 1.714181 7.086581
vt 1.650400 7.086581
vt 1.600570 7.086581
vt 1.597571 7.086581
vt 1.677401 7.086581
vt 1.863321 7.270832
vt 1.813829 7.086581
vt 1.802540 7.270832
vt 1.725201 7.270832
vt 1.643479 7.270832
vt 1.574737 7.270832
vt 1.558231 7.270832
vt 1.679722 7.270832
vt 1.830082 7.455083
vt 1.866221 7.270832
vt 1.794340 7.455083
vt 1.731659 7.455083
vt 1.665217 7.455083
vt 1.614658 7.455083
vt 1.616204 7.455083
vt 1.710867 7.455083
vt 2.050660 10.629871
vt 1.841461 7.455083
vt 1.964723 10.629871
vt 1.910046 10.629871
vt 1.866043 10.629871
vt 1.864600 10.629871
vt 1.936523 10.629871
vt 2.025387 10.629871
vt 0.095035 10.814123
vt 0.018210 10.629871
vt 0.050660 10.629871
vt 2.018210 10.629871
vt 1.976035 10.814123
vt 1.906815 10.814123
vt 1.847868 10.814123
vt 1.838758 10.814123
vt 1.945370 10.814123
vt 0.076360 10.814123
vt 0.025387 10.629871
vt 0.072632 10.998374
vt 0.045156 10.814123
vt 2.045156 10.814123
vt 1.983130 10.998374
vt 1.929121 10.998374
vt 1.887559 10.998374
vt 1.891968 10.998374
vt 1.969652 10.998374
vt 2.076360 10.814123
vt 0.053991 10.998374
vt 0.163621 14.173162
vt 0.037236 10.998374
vt 2.037236 10.998374
vt 2.102500 14.173162
vt 2.075364 14.173162
vt 2.067130 14.173162
vt 2.093907 14.173162
vt 2.139195 14.173162
vt 2.053991 10.998374
vt 0.166718 14.173162
vt 0.102500 14.173162
vt 0.136224 14.173162
vt 0.152381 0.000000
vt 0.126071 0.132084
vt 0.124355 0.000000
vt 0.084805 0.132084
vt 0.093902 0.000000
vt 0.084095 0.000000
vt 0.111284 0.132084
vt 0.113844 0.000000
vt 0.149243 0.000000
vt 0.162168 0.132084
vt 0.154066 0.264168
vt 0.164552 0.132084
vt 0.093315 0.264168
vt 0.083021 0.264168
vt 0.069517 0.132084
vt 0.114058 0.264168
vt 0.151003 0.264168
vt 0.172410 3.386768
vt 0.124913 0.264168
vt 0.125753 3.386768
vt 0.120934 3.386768
vt 0.145909 3.386768
vt 0.171861 3.386768
vt 0.151154 3.518852
vt 0.149224 3.386768
vt 0.119417 3.518852
vt 0.111867 3.518852
vt 0.146929 3.518852
vt 0.183328 3.518852
vt 0.175953 3.650936
vt 0.182751 3.518852
vt 0.128318 3.650936
vt 0.123626 3.650936
vt 0.149353 3.650936
vt 0.175728 3.650936
vt 0.203032 6.773536
vt 0.152174 3.650936
vt 0.171146 6.773536
vt 0.170702 6.773536
vt 0.188704 6.773536
vt 0.204546 6.773536
vt 0.209969 6.905620
vt 0.186267 6.773536
vt 0.166579 6.905620
vt 0.165566 6.905620
vt 0.190749 6.905620
vt 0.212659 6.905620
vt 0.205941 7.037705
vt 0.187155 6.905620
vt 0.173587 7.037705
vt 0.173289 7.037705
vt 0.191671 7.037705
vt 0.207659 7.037705
vt 0.227060 10.160305
vt 0.188864 7.037705
vt 0.206707 10.160305
vt 0.207817 10.160305
vt 0.219648 10.160305
vt 0.228938 10.160305
vt 0.215843 10.160305
vt 1.409153 0.000000
vt 1.451029 0.142264
vt 1.440924 0.000000
vt 1.457791 0.142264
vt 1.446750 0.000000
vt 1.425382 0.000000
vt 1.390896 0.142264
vt 1.398017 0.000000
vt 1.387861 0.000000
vt 1.375702 0.142264
vt 1.409181 0.284528
vt 1.405236 0.142264
vt 1.448484 0.284528
vt 1.426098 0.284528
vt 1.428069 0.142264
vt 1.397553 0.284528
vt 1.386866 0.284528
vt 1.458133 3.647792
vt 1.442549 0.284528
vt 1.495949 3.647792
vt 1.467188 3.647792
vt 1.435578 3.647792
vt 1.427283 3.647792
vt 1.514171 3.790056
vt 1.494915 3.647792
vt 1.512637 3.790056
vt 1.472143 3.790056
vt 1.428658 3.790056
vt 1.415445 3.790056
vt 1.467430 3.932319
vt 1.460494 3.790056
vt 1.506727 3.932319
vt 1.475039 3.932319
vt 1.441157 3.932319
vt 1.432787 3.932319
vt 1.835410 7.295584
vt 1.507068 3.932319
vt 1.785004 7.295584
vt 1.729068 7.295584
vt 1.708937 7.295584
vt 1.759424 7.295584
vt 1.892426 7.437848
vt 1.832453 7.295584
vt 1.807488 7.437848
vt 1.734466 7.437848
vt 1.707088 7.437848
vt 1.786014 7.437848
vt 1.893630 7.580112
vt 1.873922 7.437848
vt 1.826636 7.580112
vt 1.770842 7.580112
vt 1.758974 7.580112
vt 1.822886 7.580112
vt 2.182407 10.943376
vt 1.879278 7.580112
vt 2.141939 10.943376
vt 2.139290 10.943376
vt 2.161259 10.943376
vt 2.182956 10.943376
vt 0.162004 10.943376
vt 0.161259 10.943376
vt 0.141939 10.943376
vt 0.752588 0.000000
vt 0.733032 0.140310
vt 0.745566 0.000000
vt 0.768811 0.000000
vt 0.811794 0.140310
vt 0.801045 0.000000
vt 0.813225 0.140310
vt 0.803101 0.000000
vt 0.780537 0.000000
vt 0.782065 0.140310
vt 0.750612 0.280619
vt 0.744092 0.140310
vt 0.767231 0.280619
vt 0.765450 0.140310
vt 0.801022 0.280619
vt 0.803167 0.280619
vt 0.779711 0.280619
vt 0.676800 3.597685
vt 0.743079 0.280619
vt 0.678360 3.597685
vt 0.708393 3.597685
vt 0.717898 3.597685
vt 0.702638 3.597685
vt 0.666882 3.737994
vt 0.664678 3.597685
vt 0.666776 3.737994
vt 0.709839 3.737994
vt 0.722819 3.737994
vt 0.701801 3.737994
vt 0.666536 3.878304
vt 0.649053 3.737994
vt 0.666401 3.878304
vt 0.697523 3.878304
vt 0.708232 3.878304
vt 0.693160 3.878304
vt 0.548647 7.195369
vt 0.653269 3.878304
vt 0.535880 7.195369
vt 0.554931 7.195369
vt 0.569416 7.195369
vt 0.566146 7.195369
vt 0.543086 7.335679
vt 0.534508 7.195369
vt 0.524515 7.335679
vt 0.550931 7.335679
vt 0.571221 7.335679
vt 0.566651 7.335679
vt 0.539424 7.475989
vt 0.523556 7.335679
vt 0.525575 7.475989
vt 0.544587 7.475989
vt 0.559685 7.475989
vt 0.556936 7.475989
vt 0.453720 10.793055
vt 0.524800 7.475989
vt 0.441292 10.793055
vt 0.450310 10.793055
vt 0.460795 10.793055
vt 0.462580 10.793055
vt 0.443721 10.793055
vt 0.312460 12.673331
vt 0.139195 14.173162
vt 0.093907 14.173162
vt 0.075364 14.173162
vt 0.067130 14.173162
vt 2.162004 10.943376
vt 0.182407 10.943376
vt 0.182956 10.943376
vt 0.139290 10.943376
s 0
f 1/1/1 10/2/1 2/3/1
f 2/3/2 11/4/2 3/5/2
f 11/4/3 4/6/3 3/5/3
f 4/7/4 13/8/4 5/9/4
f 5/10/5 14/11/5 6/12/5
f 6/12/6 15/13/6 7/14/6
f 15/13/7 8/15/7 7/14/7
f 16/16/8 1/1/8 8/15/8
f 17/17/9 10/2/9 9/18/9
f 10/2/10 19/19/10 11/4/10
f 11/4/11 20/20/11 12/21/11
f 12/22/12 21/23/12 13/8/12
f 21/23/13 14/24/13 13/8/13
f 22/25/14 15/13/14 14/11/14
f 15/13/15 24/26/15 16/16/15
f 24/26/16 9/18/16 16/16/16
s 1
f 25/27/17 18/28/18 17/17/19
f 18/28/18 27/29/20 19/19/21
f 19/19/21 28/30/22 20/20/23
f 20/20/23 29/31/24 21/32/25
f 21/32/25 30/33/26 22/25/27
f 30/33/26 23/34/28 22/25/27
f 31/35/29 24/26/30 23/34/28
f 32/36/31 17/17/19 24/26/30
s 0
f 25/27/32 34/37/32 26/38/32
f 26/38/33 35/39/33 27/29/33
f 27/29/34 36/40/34 28/30/34
f 28/30/35 37/41/35 29/31/35
f 29/31/36 38/42/36 30/33/36
f 38/42/37 31/35/37 30/33/37
f 39/43/38 32/36/38 31/35/38
f 40/44/39 25/27/39 32/36/39
f 41/45/40 34/37/40 33/46/40
f 34/37/41 43/47/41 35/39/41
f 35/39/42 44/48/42 36/40/42
f 36/40/43 45/49/43 37/41/43
f 45/49/44 38/42/44 37/41/44
f 46/50/45 39/43/45 38/42/45
f 47/51/46 40/44/46 39/43/46
f 48/52/47 33/46/47 40/44/47
s 1
f 49/53/48 42/54/49 41/45/50
f 42/54/49 51/55/51 43/47/52
f 43/47/52 52/56/53 44/48/54
f 44/48/54 53/57/55 45/49/56
f 45/49/56 54/58/57 46/50/58
f 54/58/57 47/51/59 46/50/58
f 55/59/60 48/52/61 47/51/59
f 56/60/62 41/45/50 48/52/61
s 0
f 57/61/63 50/62/63 49/53/63
f 50/62/64 59/63/64 51/55/64
f 51/55/65 60/64/65 52/56/65
f 52/56/66 61/65/66 53/57/66
f 53/57/67 62/66/67 54/58/67
f 62/66/68 55/59/68 54/58/68
f 63/67/69 56/60/69 55/59/69
f 64/68/70 49/53/70 56/60/70
f 65/69/71 58/70/71 57/61/71
f 58/70/72 67/71/72 59/63/72
f 59/63/73 68/72/73 60/64/73
f 60/64/74 69/73/74 61/65/74
f 61/65/75 70/74/75 62/66/75
f 70/74/76 63/67/76 62/66/76
f 71/75/77 64/68/77 63/67/77
f 72/76/78 57/61/78 64/68/78
s 1
f 73/77/79 66/78/80 65/69/81
f 66/78/80 75/79/82 67/71/83
f 67/71/83 76/80/84 68/72/85
f 68/72/85 77/81/86 69/73/87
f 69/73/87 78/82/88 70/74/89
f 78/82/88 71/75/90 70/74/89
f 79/83/91 72/76/92 71/75/90
f 80/84/93 65/69/81 72/76/92
s 0
f 81/85/94 74/86/94 73/77/94
f 74/86/95 83/87/95 75/79/95
f 75/79/96 84/88/96 76/80/96
f 76/80/97 85/89/97 77/81/97
f 77/81/98 86/90/98 78/82/98
f 86/90/99 79/83/99 78/82/99
f 87/91/100 80/84/100 79/83/100
f 88/92/101 73/77/101 80/84/101
f 89/93/102 82/94/102 81/85/102
f 82/94/103 91/95/103 83/87/103
f 83/87/104 92/96/104 84/88/104
f 84/88/105 93/97/105 85/89/105
f 85/89/106 94/98/106 86/90/106
f 94/98/107 87/91/107 86/90/107
f 95/99/108 88/92/108 87/91/108
f 96/100/109 81/85/109 88/92/109
s 1
f 97/101/110 90/102/111 89/93/112
f 90/102/111 99/103/113 91/95/114
f 91/95/114 100/104/115 92/96/116
f 92/96/116 101/105/117 93/97/118
f 93/97/118 102/106/119 94/98/120
f 102/106/119 95/99/121 94/98/120
f 103/107/122 96/100/123 95/99/121
f 104/108/124 89/93/112 96/100/123
s 0
f 7/14/125 8/15/125 2/3/125
f 100/104/126 99/103/126 102/106/126
f 105/109/127 114/110/127 106/111/127
f 106/111/128 115/112/128 107/113/128
f 115/112/129 108/114/129 107/113/129
f 116/115/130 109/116/130 108/114/130
f 109/116/131 118/117/131 110/118/131
f 110/118/132 119/119/132 111/120/132
f 119/119/133 112/121/133 111/120/133
f 120/122/134 105/109/134 112/121/134
f 121/123/135 114/110/135 113/124/135
f 122/125/136 115/112/136 114/110/136
f 115/112/137 124/126/137 116/115/137
f 116/115/138 125/127/138 117/128/138
f 125/127/139 118/117/139 117/128/139
f 126/129/140 119/119/140 118/117/140
f 127/130/141 120/122/141 119/119/141
f 120/122/142 121/123/142 113/124/142
s 1
f 129/131/143 122/125/144 121/123/145
f 122/125/144 131/132/146 123/133/147
f 123/133/147 132/134/148 124/126/149
f 124/126/149 133/135/150 125/127/151
f 125/127/151 134/136/152 126/129/153
f 134/136/152 127/130/154 126/129/153
f 135/137/155 128/138/156 127/130/154
f 136/139/157 121/123/145 128/138/156
s 0
f 137/140/158 130/141/158 129/131/158
f 130/141/159 139/142/159 131/132/159
f 131/132/160 140/143/160 132/134/160
f 132/134/161 141/144/161 133/135/161
f 133/135/162 142/145/162 134/136/162
f 142/145/163 135/137/163 134/136/163
f 143/146/164 136/139/164 135/137/164
f 144/147/165 129/131/165 136/139/165
f 145/148/166 138/149/166 137/140/166
f 138/149/167 147/150/167 139/142/167
f 139/142/168 148/151/168 140/143/168
f 140/143/169 149/152/169 141/144/169
f 141/144/170 150/153/170 142/145/170
f 150/153/171 143/146/171 142/145/171
f 151/154/172 144/147/172 143/146/172
f 152/155/173 137/140/173 144/147/173
s 1
f 153/156/174 146/157/175 145/148/176
f 146/157/175 155/158/177 147/150/178
f 147/150/178 156/159/179 148/151/180
f 148/151/180 157/160/181 149/152/182
f 149/152/182 158/161/183 150/153/184
f 158/161/183 151/154/185 150/153/184
f 159/162/186 152/155/187 151/154/185
f 160/163/188 145/148/176 152/155/187
s 0
f 161/164/189 154/165/189 153/156/189
f 154/165/190 163/166/190 155/158/190
f 155/158/191 164/167/191 156/159/191
f 156/159/192 165/168/192 157/160/192
f 157/160/193 166/169/193 158/161/193
f 166/169/194 159/162/194 158/161/194
f 167/170/195 160/163/195 159/162/195
f 168/171/196 153/156/196 160/163/196
f 169/172/197 162/173/197 161/164/197
f 162/173/198 171/174/198 163/166/198
f 163/166/199 172/175/199 164/167/199
f 164/167/200 173/176/200 165/168/200
f 165/168/201 174/177/201 166/169/201
f 174/177/202 167/170/202 166/169/202
f 175/178/203 168/171/203 167/170/203
f 176/179/204 161/164/204 168/171/204
s 1
f 177/180/205 170/181/206 169/172/207
f 170/181/206 179/182/208 171/174/209
f 171/174/209 180/183/210 172/175/211
f 172/175/211 181/184/212 173/176/213
f 173/176/213 182/185/214 174/177/215
f 182/185/214 175/178/216 174/177/215
f 183/186/217 176/179/218 175/178/216
f 184/187/219 169/172/207 176/179/218
s 0
f 185/188/220 178/189/220 177/190/220
f 178/191/221 187/192/221 179/182/221
f 179/182/222 188/193/222 180/183/222
f 180/183/223 189/194/223 181/184/223
f 181/184/224 190/195/224 182/185/224
f 190/195/225 183/186/225 182/185/225
f 191/196/226 184/187/226 183/186/226
f 192/197/227 177/190/227 184/198/227
f 193/199/228 186/200/228 185/188/228
f 186/201/229 195/202/229 187/192/229
f 187/192/230 196/203/230 188/193/230
f 188/193/231 197/204/231 189/194/231
f 189/194/232 198/205/232 190/195/232
f 198/205/233 191/196/233 190/195/233
f 199/206/234 192/207/234 191/196/234
f 200/208/235 185/188/235 192/197/235
s 1
f 201/209/236 194/210/237 193/199/238
f 194/211/237 203/212/239 195/202/240
f 195/202/240 204/213/241 196/203/242
f 196/203/242 205/214/243 197/204/244
f 197/204/244 206/215/245 198/205/246
f 206/215/245 199/206/247 198/205/246
f 207/216/248 200/217/249 199/206/247
f 208/218/250 193/199/238 200/208/249
s 0
f 110/118/125 111/120/125 108/114/125
f 203/219/126 202/220/126 208/218/126
f 209/221/251 216/222/251 210/223/251
f 210/223/252 217/224/252 211/225/252
f 217/224/253 212/226/253 211/225/253
f 212/226/254 219/227/254 213/228/254
f 219/227/255 214/229/255 213/228/255
f 220/230/256 209/221/256 214/229/256
f 221/231/257 216/222/257 215/232/257
f 216/222/258 223/233/258 217/224/258
f 217/224/259 224/234/259 218/235/259
f 224/234/260 219/227/260 218/235/260
f 225/236/261 220/230/261 219/227/261
f 226/237/262 215/232/262 220/230/262
s 1
f 227/238/263 222/239/264 221/231/265
f 222/239/264 229/240/266 223/233/267
f 223/233/267 230/241/268 224/234/269
f 224/234/269 231/242/270 225/236/271
f 231/242/270 226/237/272 225/236/271
f 232/243/273 221/231/265 226/237/272
s 0
f 227/238/274 234/244/274 228/245/274
f 228/245/275 235/246/275 229/240/275
f 229/240/276 236/247/276 230/241/276
f 230/241/277 237/248/277 231/242/277
f 237/248/278 232/243/278 231/242/278
f 238/249/279 227/238/279 232/243/279
f 239/250/280 234/244/280 233/251/280
f 234/244/281 241/252/281 235/246/281
f 235/246/282 242/253/282 236/247/282
f 242/253/283 237/248/283 236/247/283
f 243/254/284 238/249/284 237/248/284
f 244/255/285 233/251/285 238/249/285
s 1
f 245/256/286 240/257/287 239/250/288
f 240/257/287 247/258/289 241/252/290
f 241/252/290 248/259/291 242/253/292
f 242/253/292 249/260/293 243/254/294
f 249/260/293 244/255/295 243/254/294
f 250/261/296 239/250/288 244/255/295
s 0
f 251/262/297 246/263/297 245/256/297
f 246/263/298 253/264/298 247/258/298
f 247/258/299 254/265/299 248/259/299
f 248/259/300 255/266/300 249/260/300
f 255/266/301 250/261/301 249/260/301
f 256/267/302 245/256/302 250/261/302
f 257/268/303 252/269/303 251/262/303
f 252/269/304 259/270/304 253/264/304
f 253/264/305 260/271/305 254/265/305
f 254/265/306 261/272/306 255/266/306
f 261/272/307 256/267/307 255/266/307
f 262/273/308 251/262/308 256/267/308
s 1
f 263/274/309 258/275/310 257/268/311
f 258/275/310 265/276/312 259/270/313
f 259/270/313 266/277/314 260/271/315
f 260/271/315 267/278/316 261/272/317
f 267/278/316 262/273/318 261/272/317
f 268/279/319 257/268/311 262/273/318
s 0
f 214/229/125 211/225/125 213/228/125
f 265/276/126 264/280/126 268/279/126
f 269/281/320 276/282/320 270/283/320
f 270/283/321 277/284/321 271/285/321
f 277/284/322 272/286/322 271/285/322
f 272/286/323 279/287/323 273/288/323
f 279/287/324 274/289/324 273/288/324
f 280/290/325 269/281/325 274/289/325
f 281/291/326 276/282/326 275/292/326
f 276/282/327 283/293/327 277/284/327
f 277/284/328 284/294/328 278/295/328
f 284/294/329 279/287/329 278/295/329
f 285/296/330 280/290/330 279/287/330
f 286/297/331 275/292/331 280/290/331
s 1
f 287/298/332 282/299/333 281/291/334
f 282/299/333 289/300/335 283/293/336
f 283/293/336 290/301/337 284/294/338
f 284/294/338 291/302/339 285/296/340
f 291/302/339 286/297/341 285/296/340
f 292/303/342 281/291/334 286/297/341
s 0
f 287/298/343 294/304/343 288/305/343
f 288/305/344 295/306/344 289/300/344
f 289/300/345 296/307/345 290/301/345
f 290/301/346 297/308/346 291/302/346
f 297/308/347 292/303/347 291/302/347
f 298/309/348 287/298/348 292/303/348
f 299/310/349 294/304/349 293/311/349
f 294/304/350 301/312/350 295/306/350
f 295/306/351 302/313/351 296/307/351
f 296/307/352 303/314/352 297/308/352
f 303/314/353 298/309/353 297/308/353
f 304/315/354 293/311/354 298/309/354
s 1
f 305/316/355 300/317/356 299/310/357
f 300/317/356 307/318/358 301/312/359
f 301/312/359 308/319/360 302/313/361
f 302/313/361 309/320/362 303/314/363
f 309/320/362 304/315/364 303/314/363
f 310/321/365 299/310/357 304/315/364
s 0
f 311/322/366 306/323/366 305/316/366
f 306/323/367 313/324/367 307/318/367
f 307/318/368 314/325/368 308/319/368
f 308/319/369 315/326/369 309/320/369
f 315/326/370 310/321/370 309/320/370
f 316/327/371 305/316/371 310/321/371
f 317/328/372 312/329/372 311/322/372
f 312/329/373 319/330/373 313/324/373
f 313/324/374 320/331/374 314/325/374
f 314/325/375 321/332/375 315/326/375
f 321/332/376 316/327/376 315/326/376
f 322/333/377 311/322/377 316/327/377
s 1
f 323/334/378 318/335/379 317/328/380
f 318/335/379 325/336/381 319/330/382
f 319/330/382 326/337/383 320/331/384
f 320/331/384 327/338/385 321/332/386
f 327/338/385 322/333/387 321/332/386
f 328/339/388 317/328/380 322/333/387
s 0
f 273/288/125 274/289/125 270/283/125
f 324/340/126 327/341/126 325/342/126
f 329/343/389 336/344/389 330/345/389
f 336/344/390 331/346/390 330/345/390
f 331/346/391 338/347/391 332/348/391
f 332/348/392 339/349/392 333/350/392
f 339/349/393 334/351/393 333/350/393
f 340/352/394 329/343/394 334/351/394
f 341/353/395 336/344/395 335/354/395
f 336/344/396 343/355/396 337/356/396
f 337/356/397 344/357/397 338/347/397
f 344/357/398 339/349/398 338/347/398
f 345/358/399 340/352/399 339/349/399
f 346/359/400 335/354/400 340/352/400
s 1
f 347/360/401 342/361/402 341/353/403
f 342/361/402 349/362/404 343/355/405
f 343/355/405 350/363/406 344/357/407
f 344/357/407 351/364/408 345/358/409
f 351/364/408 346/359/410 345/358/409
f 352/365/411 341/353/403 346/359/410
s 0
f 353/366/412 348/367/412 347/360/412
f 348/367/413 355/368/413 349/362/413
f 349/362/414 356/369/414 350/363/414
f 350/363/415 357/370/415 351/364/415
f 357/370/416 352/365/416 351/364/416
f 358/371/417 347/360/417 352/365/417
f 359/372/418 354/373/418 353/366/418
f 354/373/419 361/374/419 355/368/419
f 355/368/420 362/375/420 356/369/420
f 356/369/421 363/376/421 357/370/421
f 363/376/422 358/371/422 357/370/422
f 364/377/423 353/366/423 358/371/423
s 1
f 365/378/424 360/379/425 359/372/426
f 360/379/425 367/380/427 361/374/428
f 361/374/428 368/381/429 362/375/430
f 362/375/430 369/382/431 363/376/432
f 369/382/431 364/377/433 363/376/432
f 370/383/434 359/372/426 364/377/433
s 0
f 371/384/435 366/385/435 365/378/435
f 366/385/436 373/386/436 367/380/436
f 367/380/437 374/387/437 368/381/437
f 368/381/438 375/388/438 369/382/438
f 375/388/439 370/383/439 369/382/439
f 376/389/440 365/378/440 370/383/440
f 377/390/441 372/391/441 371/384/441
f 372/391/442 379/392/442 373/386/442
f 373/386/443 380/393/443 374/387/443
f 374/387/444 381/394/444 375/388/444
f 381/394/445 376/389/445 375/388/445
f 382/395/446 371/384/446 376/389/446
s 1
f 383/396/447 378/397/448 377/390/449
f 378/397/448 385/398/450 379/392/451
f 379/392/451 386/399/452 380/393/453
f 380/393/453 387/400/454 381/394/455
f 387/400/454 382/395/456 381/394/455
f 388/401/457 377/390/449 382/395/456
s 0
f 332/348/125 333/350/125 330/345/125
f 386/399/126 385/398/126 384/402/126
f 1/1/1 9/18/1 10/2/1
f 2/3/2 10/2/2 11/4/2
f 11/4/3 12/21/3 4/6/3
f 4/7/4 12/22/4 13/8/4
f 5/9/5 13/8/5 14/24/5
f 6/12/6 14/11/6 15/13/6
f 15/13/7 16/16/7 8/15/7
f 16/16/8 9/18/8 1/1/8
f 17/17/9 18/28/9 10/2/9
f 10/2/10 18/28/10 19/19/10
f 11/4/11 19/19/11 20/20/11
f 12/21/12 20/20/12 21/32/12
f 21/32/13 22/25/13 14/11/13
f 22/25/14 23/34/14 15/13/14
f 15/13/15 23/34/15 24/26/15
f 24/26/16 17/17/16 9/18/16
s 1
f 25/27/17 26/38/458 18/28/18
f 18/28/18 26/38/458 27/29/20
f 19/19/21 27/29/20 28/30/22
f 20/20/23 28/30/22 29/31/24
f 21/32/25 29/31/24 30/33/26
f 30/33/26 31/35/29 23/34/28
f 31/35/29 32/36/31 24/26/30
f 32/36/31 25/27/17 17/17/19
s 0
f 25/27/32 33/46/32 34/37/32
f 26/38/33 34/37/33 35/39/33
f 27/29/34 35/39/34 36/40/34
f 28/30/35 36/40/35 37/41/35
f 29/31/36 37/41/36 38/42/36
f 38/42/37 39/43/37 31/35/37
f 39/43/38 40/44/38 32/36/38
f 40/44/39 33/46/39 25/27/39
f 41/45/40 42/54/40 34/37/40
f 34/37/41 42/54/41 43/47/41
f 35/39/42 43/47/42 44/48/42
f 36/40/43 44/48/43 45/49/43
f 45/49/44 46/50/44 38/42/44
f 46/50/45 47/51/45 39/43/45
f 47/51/46 48/52/46 40/44/46
f 48/52/47 41/45/47 33/46/47
s 1
f 49/53/48 50/62/459 42/54/49
f 42/54/49 50/62/459 51/55/51
f 43/47/52 51/55/51 52/56/53
f 44/48/54 52/56/53 53/57/55
f 45/49/56 53/57/55 54/58/57
f 54/58/57 55/59/60 47/51/59
f 55/59/60 56/60/62 48/52/61
f 56/60/62 49/53/48 41/45/50
s 0
f 57/61/63 58/70/63 50/62/63
f 50/62/64 58/70/64 59/63/64
f 51/55/65 59/63/65 60/64/65
f 52/56/66 60/64/66 61/65/66
f 53/57/67 61/65/67 62/66/67
f 62/66/68 63/67/68 55/59/68
f 63/67/69 64/68/69 56/60/69
f 64/68/70 57/61/70 49/53/70
f 65/69/71 66/78/71 58/70/71
f 58/70/72 66/78/72 67/71/72
f 59/63/73 67/71/73 68/72/73
f 60/64/74 68/72/74 69/73/74
f 61/65/75 69/73/75 70/74/75
f 70/74/76 71/75/76 63/67/76
f 71/75/77 72/76/77 64/68/77
f 72/76/460 65/69/460 57/61/460
s 1
f 73/77/79 74/86/461 66/78/80
f 66/78/80 74/86/461 75/79/82
f 67/71/83 75/79/82 76/80/84
f 68/72/85 76/80/84 77/81/86
f 69/73/87 77/81/86 78/82/88
f 78/82/88 79/83/91 71/75/90
f 79/83/91 80/84/93 72/76/92
f 80/84/93 73/77/79 65/69/81
s 0
f 81/85/94 82/94/94 74/86/94
f 74/86/95 82/94/95 83/87/95
f 75/79/96 83/87/96 84/88/96
f 76/80/97 84/88/97 85/89/97
f 77/81/98 85/89/98 86/90/98
f 86/90/99 87/91/99 79/83/99
f 87/91/100 88/92/100 80/84/100
f 88/92/101 81/85/101 73/77/101
f 89/93/102 90/102/102 82/94/102
f 82/94/462 90/102/462 91/95/462
f 83/87/104 91/95/104 92/96/104
f 84/88/105 92/96/105 93/97/105
f 85/89/106 93/97/106 94/98/106
f 94/98/107 95/99/107 87/91/107
f 95/99/108 96/100/108 88/92/108
f 96/100/109 89/93/109 81/85/109
s 1
f 97/101/110 98/403/463 90/102/111
f 90/102/111 98/403/463 99/103/113
f 91/95/114 99/103/113 100/104/115
f 92/96/116 100/104/115 101/105/117
f 93/97/118 101/105/117 102/106/119
f 102/106/119 103/107/122 95/99/121
f 103/107/122 104/108/124 96/100/123
f 104/108/124 97/101/110 89/93/112
s 0
f 8/15/125 1/1/125 2/3/125
f 2/3/125 3/5/125 7/14/125
f 3/5/125 4/6/125 6/12/125
f 4/6/125 5/10/125 6/12/125
f 6/12/125 7/14/125 3/5/125
f 98/403/126 97/101/126 104/108/126
f 104/108/126 103/107/126 98/403/126
f 103/107/126 102/106/126 99/103/126
f 98/403/126 103/107/126 99/103/126
f 102/106/126 101/105/126 100/104/126
f 105/109/127 113/124/127 114/110/127
f 106/111/128 114/110/128 115/112/128
f 115/112/129 116/115/129 108/114/129
f 116/115/130 117/128/130 109/116/130
f 109/116/131 117/128/131 118/117/131
f 110/118/132 118/117/132 119/119/132
f 119/119/133 120/122/133 112/121/133
f 120/122/134 113/124/134 105/109/134
f 121/123/135 122/125/135 114/110/135
f 122/125/136 123/133/136 115/112/136
f 115/112/137 123/133/137 124/126/137
f 116/115/138 124/126/138 125/127/138
f 125/127/139 126/129/139 118/117/139
f 126/129/140 127/130/140 119/119/140
f 127/130/141 128/138/141 120/122/141
f 120/122/142 128/138/142 121/123/142
s 1
f 129/131/143 130/141/464 122/125/144
f 122/125/144 130/141/464 131/132/146
f 123/133/147 131/132/146 132/134/148
f 124/126/149 132/134/148 133/135/150
f 125/127/151 133/135/150 134/136/152
f 134/136/152 135/137/155 127/130/154
f 135/137/155 136/139/157 128/138/156
f 136/139/157 129/131/143 121/123/145
s 0
f 137/140/158 138/149/158 130/141/158
f 130/141/159 138/149/159 139/142/159
f 131/132/160 139/142/160 140/143/160
f 132/134/161 140/143/161 141/144/161
f 133/135/162 141/144/162 142/145/162
f 142/145/163 143/146/163 135/137/163
f 143/146/164 144/147/164 136/139/164
f 144/147/165 137/140/165 129/131/165
f 145/148/166 146/157/166 138/149/166
f 138/149/167 146/157/167 147/150/167
f 139/142/168 147/150/168 148/151/168
f 140/143/169 148/151/169 149/152/169
f 141/144/170 149/152/170 150/153/170
f 150/153/171 151/154/171 143/146/171
f 151/154/172 152/155/172 144/147/172
f 152/155/173 145/148/173 137/140/173
s 1
f 153/156/174 154/165/465 146/157/175
f 146/157/175 154/165/465 155/158/177
f 147/150/178 155/158/177 156/159/179
f 148/151/180 156/159/179 157/160/181
f 149/152/182 157/160/181 158/161/183
f 158/161/183 159/162/186 151/154/185
f 159/162/186 160/163/188 152/155/187
f 160/163/188 153/156/174 145/148/176
s 0
f 161/164/189 162/173/189 154/165/189
f 154/165/190 162/173/190 163/166/190
f 155/158/191 163/166/191 164/167/191
f 156/159/192 164/167/192 165/168/192
f 157/160/466 165/168/466 166/169/466
f 166/169/194 167/170/194 159/162/194
f 167/170/195 168/171/195 160/163/195
f 168/171/196 161/164/196 153/156/196
f 169/172/197 170/181/197 162/173/197
f 162/173/198 170/181/198 171/174/198
f 163/166/199 171/174/199 172/175/199
f 164/167/200 172/175/200 173/176/200
f 165/168/201 173/176/201 174/177/201
f 174/177/202 175/178/202 167/170/202
f 175/178/203 176/179/203 168/171/203
f 176/179/204 169/172/204 161/164/204
s 1
f 177/180/205 178/191/467 170/181/206
f 170/181/206 178/191/467 179/182/208
f 171/174/209 179/182/208 180/183/210
f 172/175/211 180/183/210 181/184/212
f 173/176/213 181/184/212 182/185/214
f 182/185/214 183/186/217 175/178/216
f 183/186/217 184/187/219 176/179/218
f 184/187/219 177/180/205 169/172/207
s 0
f 185/188/220 186/200/220 178/189/220
f 178/191/221 186/201/221 187/192/221
f 179/182/222 187/192/222 188/193/222
f 180/183/223 188/193/223 189/194/223
f 181/184/224 189/194/224 190/195/224
f 190/195/225 191/196/225 183/186/225
f 191/196/226 192/207/226 184/187/226
f 192/197/227 185/188/227 177/190/227
f 193/199/228 194/210/228 186/200/228
f 186/201/229 194/211/229 195/202/229
f 187/192/230 195/202/230 196/203/230
f 188/193/231 196/203/231 197/204/231
f 189/194/232 197/204/232 198/205/232
f 198/205/233 199/206/233 191/196/233
f 199/206/468 200/217/468 192/207/468
f 200/208/235 193/199/235 185/188/235
s 1
f 201/209/236 202/220/469 194/210/237
f 194/210/237 202/220/469 203/219/239
f 195/202/240 203/212/239 204/213/241
f 196/203/242 204/213/241 205/214/243
f 197/204/244 205/214/243 206/215/245
f 206/215/245 207/216/248 199/206/247
f 207/404/248 208/218/250 200/208/249
f 208/218/250 201/209/236 193/199/238
s 0
f 112/121/125 105/109/125 106/111/125
f 106/111/125 107/113/125 112/121/125
f 107/113/125 108/114/125 111/120/125
f 112/121/125 107/113/125 111/120/125
f 108/114/125 109/116/125 110/118/125
f 202/220/126 201/209/126 208/218/126
f 208/218/126 207/404/126 203/219/126
f 207/404/126 206/405/126 204/406/126
f 206/405/126 205/407/126 204/406/126
f 204/406/126 203/219/126 207/404/126
f 209/221/251 215/232/251 216/222/251
f 210/223/252 216/222/252 217/224/252
f 217/224/253 218/235/253 212/226/253
f 212/226/254 218/235/254 219/227/254
f 219/227/255 220/230/255 214/229/255
f 220/230/256 215/232/256 209/221/256
f 221/231/257 222/239/257 216/222/257
f 216/222/258 222/239/258 223/233/258
f 217/224/259 223/233/259 224/234/259
f 224/234/260 225/236/260 219/227/260
f 225/236/261 226/237/261 220/230/261
f 226/237/470 221/231/470 215/232/470
s 1
f 227/238/263 228/245/471 222/239/264
f 222/239/264 228/245/471 229/240/266
f 223/233/267 229/240/266 230/241/268
f 224/234/269 230/241/268 231/242/270
f 231/242/270 232/243/273 226/237/272
f 232/243/273 227/238/263 221/231/265
s 0
f 227/238/274 233/251/274 234/244/274
f 228/245/275 234/244/275 235/246/275
f 229/240/276 235/246/276 236/247/276
f 230/241/277 236/247/277 237/248/277
f 237/248/278 238/249/278 232/243/278
f 238/249/472 233/251/472 227/238/472
f 239/250/280 240/257/280 234/244/280
f 234/244/281 240/257/281 241/252/281
f 235/246/282 241/252/282 242/253/282
f 242/253/283 243/254/283 237/248/283
f 243/254/284 244/255/284 238/249/284
f 244/255/285 239/250/285 233/251/285
s 1
f 245/256/286 246/263/473 240/257/287
f 240/257/287 246/263/473 247/258/289
f 241/252/290 247/258/289 248/259/291
f 242/253/292 248/259/291 249/260/293
f 249/260/293 250/261/296 244/255/295
f 250/261/296 245/256/286 239/250/288
s 0
f 251/262/297 252/269/297 246/263/297
f 246/263/298 252/269/298 253/264/298
f 247/258/299 253/264/299 254/265/299
f 248/259/300 254/265/300 255/266/300
f 255/266/474 256/267/474 250/261/474
f 256/267/475 251/262/475 245/256/475
f 257/268/476 258/275/476 252/269/476
f 252/269/304 258/275/304 259/270/304
f 253/264/305 259/270/305 260/271/305
f 254/265/306 260/271/306 261/272/306
f 261/272/307 262/273/307 256/267/307
f 262/273/308 257/268/308 251/262/308
s 1
f 263/274/309 264/280/477 258/275/310
f 258/275/310 264/280/477 265/276/312
f 259/270/313 265/276/312 266/277/314
f 260/271/315 266/277/314 267/278/316
f 267/278/316 268/279/319 262/273/318
f 268/279/319 263/274/309 257/268/311
s 0
f 214/229/125 209/221/125 210/223/125
f 210/223/125 211/225/125 214/229/125
f 211/225/125 212/226/125 213/228/125
f 264/280/126 263/274/126 268/279/126
f 268/279/126 267/278/126 265/276/126
f 267/278/126 266/277/126 265/276/126
f 269/281/320 275/292/320 276/282/320
f 270/283/321 276/282/321 277/284/321
f 277/284/322 278/295/322 272/286/322
f 272/286/323 278/295/323 279/287/323
f 279/287/324 280/290/324 274/289/324
f 280/290/325 275/292/325 269/281/325
f 281/291/326 282/299/326 276/282/326
f 276/282/327 282/299/327 283/293/327
f 277/284/328 283/293/328 284/294/328
f 284/294/329 285/296/329 279/287/329
f 285/296/330 286/297/330 280/290/330
f 286/297/331 281/291/331 275/292/331
s 1
f 287/298/332 288/305/478 282/299/333
f 282/299/333 288/305/478 289/300/335
f 283/293/336 289/300/335 290/301/337
f 284/294/338 290/301/337 291/302/339
f 291/302/339 292/303/342 286/297/341
f 292/303/342 287/298/332 281/291/334
s 0
f 287/298/343 293/311/343 294/304/343
f 288/305/344 294/304/344 295/306/344
f 289/300/345 295/306/345 296/307/345
f 290/301/346 296/307/346 297/308/346
f 297/308/347 298/309/347 292/303/347
f 298/309/348 293/311/348 287/298/348
f 299/310/349 300/317/349 294/304/349
f 294/304/350 300/317/350 301/312/350
f 295/306/351 301/312/351 302/313/351
f 296/307/352 302/313/352 303/314/352
f 303/314/353 304/315/353 298/309/353
f 304/315/354 299/310/354 293/311/354
s 1
f 305/316/355 306/323/479 300/317/356
f 300/317/356 306/323/479 307/318/358
f 301/312/359 307/318/358 308/319/360
f 302/313/361 308/319/360 309/320/362
f 309/320/362 310/321/365 304/315/364
f 310/321/365 305/316/355 299/310/357
s 0
f 311/322/366 312/329/366 306/323/366
f 306/323/480 312/329/480 313/324/480
f 307/318/368 313/324/368 314/325/368
f 308/319/369 314/325/369 315/326/369
f 315/326/370 316/327/370 310/321/370
f 316/327/371 311/322/371 305/316/371
f 317/328/372 318/335/372 312/329/372
f 312/329/373 318/335/373 319/330/373
f 313/324/374 319/330/374 320/331/374
f 314/325/375 320/331/375 321/332/375
f 321/332/376 322/333/376 316/327/376
f 322/333/377 317/328/377 311/322/377
s 1
f 323/334/378 324/408/481 318/335/379
f 318/335/379 324/408/481 325/336/381
f 319/330/382 325/336/381 326/337/383
f 320/331/384 326/337/383 327/338/385
f 327/338/385 328/339/388 322/333/387
f 328/339/388 323/334/378 317/328/380
s 0
f 274/289/125 269/281/125 270/283/125
f 270/283/125 271/285/125 273/288/125
f 271/285/125 272/286/125 273/288/125
f 324/340/126 323/409/126 328/410/126
f 328/410/126 327/341/126 324/340/126
f 327/341/126 326/411/126 325/342/126
f 329/343/389 335/354/389 336/344/389
f 336/344/390 337/356/390 331/346/390
f 331/346/391 337/356/391 338/347/391
f 332/348/392 338/347/392 339/349/392
f 339/349/393 340/352/393 334/351/393
f 340/352/394 335/354/394 329/343/394
f 341/353/395 342/361/395 336/344/395
f 336/344/396 342/361/396 343/355/396
f 337/356/397 343/355/397 344/357/397
f 344/357/398 345/358/398 339/349/398
f 345/358/399 346/359/399 340/352/399
f 346/359/400 341/353/400 335/354/400
s 1
f 347/360/401 348/367/482 342/361/402
f 342/361/402 348/367/482 349/362/404
f 343/355/405 349/362/404 350/363/406
f 344/357/407 350/363/406 351/364/408
f 351/364/408 352/365/411 346/359/410
f 352/365/411 347/360/401 341/353/403
s 0
f 353/366/412 354/373/412 348/367/412
f 348/367/413 354/373/413 355/368/413
f 349/362/414 355/368/414 356/369/414
f 350/363/415 356/369/415 357/370/415
f 357/370/416 358/371/416 352/365/416
f 358/371/417 353/366/417 347/360/417
f 359/372/418 360/379/418 354/373/418
f 354/373/419 360/379/419 361/374/419
f 355/368/420 361/374/420 362/375/420
f 356/369/421 362/375/421 363/376/421
f 363/376/422 364/377/422 358/371/422
f 364/377/423 359/372/423 353/366/423
s 1
f 365/378/424 366/385/483 360/379/425
f 360/379/425 366/385/483 367/380/427
f 361/374/428 367/380/427 368/381/429
f 362/375/430 368/381/429 369/382/431
f 369/382/431 370/383/434 364/377/433
f 370/383/434 365/378/424 359/372/426
s 0
f 371/384/435 372/391/435 366/385/435
f 366/385/436 372/391/436 373/386/436
f 367/380/437 373/386/437 374/387/437
f 368/381/438 374/387/438 375/388/438
f 375/388/439 376/389/439 370/383/439
f 376/389/440 371/384/440 365/378/440
f 377/390/441 378/397/441 372/391/441
f 372/391/442 378/397/442 379/392/442
f 373/386/443 379/392/443 380/393/443
f 374/387/484 380/393/484 381/394/484
f 381/394/445 382/395/445 376/389/445
f 382/395/446 377/390/446 371/384/446
s 1
f 383/396/447 384/402/485 378/397/448
f 378/397/448 384/402/485 385/398/450
f 379/392/451 385/398/450 386/399/452
f 380/393/453 386/399/452 387/400/454
f 387/400/454 388/401/457 382/395/456
f 388/401/457 383/396/447 377/390/449
s 0
f 334/351/125 329/343/125 333/350/125
f 329/343/125 330/345/125 333/350/125
f 330/345/125 331/346/125 332/348/125
f 384/402/126 383/396/126 387/400/126
f 383/396/126 388/401/126 387/400/126
f 387/400/126 386/399/126 384/402/126
o bamboo_f_leaves
v 0.484896 2.894537 0.334803
v 0.517330 2.907314 0.352603
v 0.040597 2.825297 1.230904
v 0.045293 2.826461 1.234031
v 0.318610 2.952812 0.560772
v 0.377490 2.973091 0.595420
v 0.484896 2.894537 0.334803
v 0.517330 2.907314 0.352603
v 0.040597 2.825297 1.230904
v 0.045293 2.826461 1.234031
v 0.318610 2.952812 0.560772
v 0.377490 2.973091 0.595420
v 0.496498 2.906195 0.330072
v 0.505728 2.895656 0.357334
v -0.188641 2.785318 0.530005
v -0.187257 2.783861 0.533985
v 0.292262 2.932291 0.395202
v 0.309220 2.913450 0.444835
v 0.496498 2.906195 0.330072
v 0.505728 2.895656 0.357334
v -0.188641 2.785318 0.530005
v -0.187257 2.783861 0.533985
v 0.292262 2.932291 0.395202
v 0.309220 2.913450 0.444835
v 0.503254 2.904644 0.328130
v 0.498972 2.897207 0.359276
v -0.149613 2.702240 0.204351
v -0.150276 2.700748 0.208778
v 0.288645 2.890784 0.281606
v 0.280688 2.875519 0.337794
v 0.503254 2.904644 0.328130
v 0.498972 2.897207 0.359276
v -0.149613 2.702240 0.204351
v -0.150276 2.700748 0.208778
v 0.288645 2.890784 0.281606
v 0.280688 2.875519 0.337794
v 0.328861 2.947892 0.154021
v 0.298714 2.952811 0.160446
v 0.083668 2.892025 -0.888923
v 0.079215 2.892495 -0.888122
v 0.287639 3.017345 -0.154629
v 0.232534 3.025246 -0.143515
v 0.328861 2.947892 0.154021
v 0.298714 2.952811 0.160446
v 0.083668 2.892025 -0.888923
v 0.079215 2.892495 -0.888122
v 0.287639 3.017345 -0.154629
v 0.232534 3.025246 -0.143515
v 0.331492 2.954711 0.166693
v 0.296084 2.945992 0.147774
v 0.691996 2.660138 -0.410386
v 0.686794 2.659086 -0.413141
v 0.458672 2.922388 -0.019946
v 0.394074 2.907453 -0.054358
v 0.331492 2.954711 0.166693
v 0.296084 2.945992 0.147774
v 0.691996 2.660138 -0.410386
v 0.686794 2.659086 -0.413141
v 0.458672 2.922388 -0.019946
v 0.394074 2.907453 -0.054358
v 0.322224 2.955160 0.175652
v 0.305351 2.945543 0.138814
v 1.066299 2.551945 -0.080001
v 1.063995 2.549770 -0.085226
v 0.567796 2.909972 0.094231
v 0.537757 2.889188 0.027821
v 0.322224 2.955160 0.175652
v 0.305351 2.945543 0.138814
v 1.066299 2.551945 -0.080001
v 1.063995 2.549770 -0.085226
v 0.567796 2.909972 0.094231
v 0.537757 2.889188 0.027821
v -0.019704 3.234735 0.374579
v -0.000192 3.253739 0.401745
v -0.677757 3.068522 0.986774
v -0.674922 3.070819 0.991055
v -0.253863 3.241031 0.516071
v -0.218397 3.273597 0.566864
v -0.019704 3.234735 0.374579
v -0.000192 3.253739 0.401745
v -0.677757 3.068522 0.986774
v -0.674922 3.070819 0.991055
v -0.253863 3.241031 0.516071
v -0.218397 3.273597 0.566864
v -0.006691 3.245868 0.373326
v -0.013206 3.242606 0.402998
v -0.817512 2.747344 0.153920
v -0.818474 2.747137 0.158262
v -0.283289 3.162437 0.290546
v -0.295197 3.157643 0.344607
v -0.006691 3.245868 0.373326
v -0.013206 3.242606 0.402998
v -0.817512 2.747344 0.153920
v -0.818474 2.747137 0.158262
v -0.283289 3.162437 0.290546
v -0.295197 3.157643 0.344607
v 0.001800 3.233759 0.375281
v -0.021697 3.254715 0.401043
v -0.712277 2.795749 0.107718
v -0.715521 2.799202 0.111294
v -0.192554 3.155853 0.235100
v -0.234540 3.195677 0.281211
v 0.001800 3.233759 0.375281
v -0.021697 3.254715 0.401043
v -0.712277 2.795749 0.107718
v -0.715521 2.799202 0.111294
v -0.192554 3.155853 0.235100
v -0.234540 3.195677 0.281211
v 0.085590 3.291153 0.086060
v 0.073675 3.307871 0.064203
v 0.942952 3.222678 -0.451281
v 0.941360 3.224633 -0.454902
v 0.360928 3.335535 -0.013264
v 0.339864 3.363905 -0.054879
v 0.085590 3.291153 0.086060
v 0.073675 3.307871 0.064203
v 0.942952 3.222678 -0.451281
v 0.941360 3.224633 -0.454902
v 0.360928 3.335535 -0.013264
v 0.339864 3.363905 -0.054879
v 0.073073 3.297979 0.093475
v 0.086192 3.301045 0.056788
v 0.995656 2.907417 0.372944
v 0.997429 2.908546 0.367616
v 0.360081 3.261000 0.210047
v 0.383356 3.269476 0.143380
v 0.073073 3.297979 0.093475
v 0.086192 3.301045 0.056788
v 0.995656 2.907417 0.372944
v 0.997429 2.908546 0.367616
v 0.360081 3.261000 0.210047
v 0.383356 3.269476 0.143380
v 0.071655 3.310039 0.085391
v 0.087610 3.288986 0.064873
v 0.348087 2.829689 0.769924
v 0.350705 2.827039 0.766748
v 0.201064 3.219810 0.300910
v 0.231336 3.183283 0.262789
v 0.071655 3.310039 0.085391
v 0.087610 3.288986 0.064873
v 0.348087 2.829689 0.769924
v 0.350705 2.827039 0.766748
v 0.201064 3.219810 0.300910
v 0.231336 3.183283 0.262789
v 0.516463 2.112595 0.664064
v 0.552753 2.110028 0.673638
v 0.315523 1.955031 1.446658
v 0.320701 1.953910 1.448229
v 0.436564 2.124262 0.909582
v 0.502121 2.116417 0.927749
v 0.516463 2.112595 0.664064
v 0.552753 2.110028 0.673638
v 0.315523 1.955031 1.446658
v 0.320701 1.953910 1.448229
v 0.436564 2.124262 0.909582
v 0.502121 2.116417 0.927749
v 0.520791 2.105105 0.659176
v 0.548425 2.117518 0.678526
v 0.076115 1.907357 1.449620
v 0.080114 1.909525 1.452231
v 0.349622 2.114577 0.870233
v 0.399780 2.138686 0.904550
v 0.520791 2.105105 0.659176
v 0.548425 2.117518 0.678526
v 0.076115 1.907357 1.449620
v 0.080114 1.909525 1.452231
v 0.349622 2.114577 0.870233
v 0.399780 2.138686 0.904550
v 0.530077 2.109390 0.651622
v 0.539138 2.113233 0.686081
v -0.239217 1.949952 0.887625
v -0.237943 1.950294 0.892673
v 0.275714 2.113285 0.702831
v 0.292002 2.119347 0.765635
v 0.530077 2.109390 0.651622
v 0.539138 2.113233 0.686081
v -0.239217 1.949952 0.887625
v -0.237943 1.950294 0.892673
v 0.275714 2.113285 0.702831
v 0.292002 2.119347 0.765635
v 0.724738 3.043099 0.797736
v 0.759307 3.053083 0.800994
v 0.707584 2.937399 1.474817
v 0.712516 2.939232 1.475150
v 0.686515 3.053741 1.006775
v 0.748957 3.073511 1.012099
v 0.724738 3.043099 0.797736
v 0.759307 3.053083 0.800994
v 0.707584 2.937399 1.474817
v 0.712516 2.939232 1.475150
v 0.686515 3.053741 1.006775
v 0.748957 3.073511 1.012099
v 0.727507 3.050961 0.787192
v 0.756538 3.045221 0.811538
v 0.103412 2.822603 1.503297
v 0.107745 2.822181 1.506804
v 0.519188 3.051455 1.011034
v 0.572437 3.042770 1.055157
v 0.727507 3.050961 0.787192
v 0.756538 3.045221 0.811538
v 0.103412 2.822603 1.503297
v 0.107745 2.822181 1.506804
v 0.519188 3.051455 1.011034
v 0.572437 3.042770 1.055157
v 0.736732 3.053711 0.786573
v 0.747313 3.042471 0.812157
v 0.129939 2.479572 0.800209
v 0.131494 2.477719 0.803827
v 0.518935 2.942193 0.813383
v 0.538241 2.920828 0.859463
v 0.736732 3.053711 0.786573
v 0.747313 3.042471 0.812157
v 0.129939 2.479572 0.800209
v 0.131494 2.477719 0.803827
v 0.518935 2.942193 0.813383
v 0.538241 2.920828 0.859463
v -0.101870 2.270957 0.190382
v -0.103004 2.277110 0.223687
v -0.820031 2.175740 0.198239
v -0.820188 2.176656 0.203080
v -0.322311 2.293178 0.164662
v -0.324340 2.304450 0.225203
v -0.101870 2.270957 0.190382
v -0.103004 2.277110 0.223687
v -0.820031 2.175740 0.198239
v -0.820188 2.176656 0.203080
v -0.322311 2.293178 0.164662
v -0.324340 2.304450 0.225203
v -0.090472 2.282261 0.193837
v -0.114402 2.265806 0.220233
v -0.617155 2.209508 -0.304071
v -0.620652 2.207873 -0.299775
v -0.257305 2.312834 0.037776
v -0.300887 2.286137 0.087713
v -0.090472 2.282261 0.193837
v -0.114402 2.265806 0.220233
v -0.617155 2.209508 -0.304071
v -0.620652 2.207873 -0.299775
v -0.257305 2.312834 0.037776
v -0.300887 2.286137 0.087713
v -0.089084 2.267502 0.201442
v -0.115790 2.280565 0.212627
v -0.462249 1.986247 -0.322512
v -0.466319 1.987695 -0.320799
v -0.180299 2.215588 0.007389
v -0.229641 2.237416 0.028092
v -0.089084 2.267502 0.201442
v -0.115790 2.280565 0.212627
v -0.462249 1.986247 -0.322512
v -0.466319 1.987695 -0.320799
v -0.180299 2.215588 0.007389
v -0.229641 2.237416 0.028092
v 0.301523 3.274409 0.377228
v 0.337185 3.291616 0.377844
v 0.385368 3.107840 1.264005
v 0.390595 3.110260 1.264116
v 0.280753 3.269985 0.661846
v 0.345761 3.300918 0.663060
v 0.301523 3.274409 0.377228
v 0.337185 3.291616 0.377844
v 0.385368 3.107840 1.264005
v 0.390595 3.110260 1.264116
v 0.280753 3.269985 0.661846
v 0.345761 3.300918 0.663060
v 0.306443 3.286915 0.366891
v 0.332264 3.279110 0.388181
v -0.372117 3.091662 1.141971
v -0.368068 3.091107 1.144926
v 0.111199 3.323460 0.594391
v 0.159390 3.311733 0.632495
v 0.306443 3.286915 0.366891
v 0.332264 3.279110 0.388181
v -0.372117 3.091662 1.141971
v -0.368068 3.091107 1.144926
v 0.111199 3.323460 0.594391
v 0.159390 3.311733 0.632495
v 0.312700 3.275661 0.366912
v 0.326007 3.290364 0.388160
v -0.337910 3.057525 0.942325
v -0.335943 3.059195 0.945720
v 0.079411 3.263586 0.505113
v 0.103739 3.288327 0.545040
v 0.312700 3.275661 0.366912
v 0.326007 3.290364 0.388160
v -0.337910 3.057525 0.942325
v -0.335943 3.059195 0.945720
v 0.079411 3.263586 0.505113
v 0.103739 3.288327 0.545040
v 0.585016 2.233958 -0.051162
v 0.609779 2.251636 -0.056485
v 1.012425 1.929811 0.850413
v 1.016317 1.931988 0.849679
v 0.655386 2.203977 0.249933
v 0.701642 2.234443 0.240423
v 0.585016 2.233958 -0.051162
v 0.609779 2.251636 -0.056485
v 1.012425 1.929811 0.850413
v 1.016317 1.931988 0.849679
v 0.655386 2.203977 0.249933
v 0.701642 2.234443 0.240423
v 0.582873 2.248568 -0.059176
v 0.611922 2.237025 -0.048471
v 0.257471 1.912129 0.504620
v 0.261759 1.910630 0.506201
v 0.476565 2.199336 0.134491
v 0.529647 2.179113 0.154058
v 0.582873 2.248568 -0.059176
v 0.611922 2.237025 -0.048471
v 0.257471 1.912129 0.504620
v 0.261759 1.910630 0.506201
v 0.476565 2.199336 0.134491
v 0.529647 2.179113 0.154058
v 0.592860 2.234646 -0.064868
v 0.601935 2.250947 -0.042779
v 0.223340 1.815698 0.412298
v 0.224754 1.817904 0.415594
v 0.432803 2.134877 0.059036
v 0.449703 2.163813 0.099552
v 0.592860 2.234646 -0.064868
v 0.601935 2.250947 -0.042779
v 0.223340 1.815698 0.412298
v 0.224754 1.817904 0.415594
v 0.432803 2.134877 0.059036
v 0.449703 2.163813 0.099552
v 0.812219 3.241957 0.170412
v 0.837249 3.233875 0.188677
v 0.190831 3.058761 0.964864
v 0.194214 3.057067 0.967645
v 0.634499 3.279477 0.407589
v 0.678911 3.262578 0.441325
v 0.812219 3.241957 0.170412
v 0.837249 3.233875 0.188677
v 0.190831 3.058761 0.964864
v 0.194214 3.057067 0.967645
v 0.634499 3.279477 0.407589
v 0.678911 3.262578 0.441325
v 0.818628 3.247770 0.165395
v 0.830839 3.228062 0.193695
v 0.000619 2.886925 0.287255
v 0.002250 2.883680 0.291171
v 0.563741 3.213871 0.232415
v 0.585323 3.176432 0.283018
v 0.818628 3.247770 0.165395
v 0.830839 3.228062 0.193695
v 0.000619 2.886925 0.287255
v 0.002250 2.883680 0.291171
v 0.563741 3.213871 0.232415
v 0.585323 3.176432 0.283018
v 0.827200 3.249658 0.163011
v 0.822267 3.226174 0.196079
v 0.004518 2.918823 -0.173111
v 0.003835 2.915684 -0.168100
v 0.560067 3.228724 0.087639
v 0.551244 3.187201 0.148618
v 0.827200 3.249658 0.163011
v 0.822267 3.226174 0.196079
v 0.004518 2.918823 -0.173111
v 0.003835 2.915684 -0.168100
v 0.560067 3.228724 0.087639
v 0.551244 3.187201 0.148618
vn 0.1652 -0.9188 0.3585
vn 0.2810 -0.9575 -0.0656
vn 0.1293 -0.9358 0.3280
vn 0.3444 -0.9381 -0.0362
vn -0.1652 0.9188 -0.3585
vn -0.2810 0.9575 0.0656
vn -0.1293 0.9358 -0.3280
vn -0.3444 0.9381 0.0362
vn -0.2115 -0.9336 -0.2893
vn 0.1640 -0.9023 -0.3986
vn -0.2108 -0.9356 -0.2831
vn 0.1665 -0.9059 -0.3895
vn 0.2115 0.9336 0.2893
vn -0.1640 0.9023 0.3986
vn 0.2108 0.9356 0.2831
vn -0.1665 0.9059 0.3895
vn 0.1096 -0.9701 -0.2166
vn 0.4156 -0.8909 -0.1832
vn 0.1197 -0.9622 -0.2445
vn 0.4243 -0.8755 -0.2314
vn -0.1096 0.9701 0.2166
vn -0.4156 0.8909 0.1832
vn -0.1197 0.9622 0.2445
vn -0.4243 0.8755 0.2314
vn -0.1974 -0.9617 -0.1900
vn -0.1007 -0.9757 0.1945
vn -0.1771 -0.9654 -0.1915
vn -0.0694 -0.9795 0.1889
vn 0.1974 0.9617 0.1900
vn 0.1007 0.9757 -0.1945
vn 0.1771 0.9654 0.1915
vn 0.0694 0.9795 -0.1889
vn 0.0986 -0.9671 0.2347
vn -0.0816 -0.8492 0.5217
vn 0.1106 -0.9650 0.2376
vn -0.0980 -0.8539 0.5112
vn -0.0986 0.9671 -0.2347
vn 0.0816 0.8492 -0.5217
vn -0.1106 0.9650 -0.2376
vn 0.0980 0.8539 -0.5112
vn -0.0808 -0.9547 0.2862
vn -0.4183 -0.7956 0.4382
vn -0.0721 -0.9421 0.3274
vn -0.3930 -0.7744 0.4958
vn 0.0808 0.9547 -0.2862
vn 0.4183 0.7956 -0.4382
vn 0.0721 0.9421 -0.3274
vn 0.3930 0.7744 -0.4958
vn 0.2241 -0.8840 0.4103
vn 0.5256 -0.8340 0.1677
vn 0.2466 -0.8683 0.4303
vn 0.4998 -0.8565 0.1284
vn -0.2241 0.8840 -0.4103
vn -0.5256 0.8340 -0.1677
vn -0.2466 0.8683 -0.4303
vn -0.4998 0.8565 -0.1284
vn 0.2993 -0.9534 -0.0391
vn 0.6024 -0.7958 0.0621
vn 0.2923 -0.9561 -0.0204
vn 0.5937 -0.7992 0.0935
vn -0.2993 0.9534 0.0391
vn -0.6024 0.7958 -0.0621
vn -0.2923 0.9561 0.0204
vn -0.5937 0.7992 -0.0935
vn -0.0910 -0.8115 0.5772
vn 0.2418 -0.6146 0.7509
vn -0.1104 -0.7997 0.5901
vn 0.2180 -0.5958 0.7730
vn 0.0910 0.8115 -0.5772
vn -0.2418 0.6146 -0.7509
vn 0.1104 0.7997 -0.5901
vn -0.2180 0.5958 -0.7730
vn -0.0778 -0.8119 -0.5786
vn -0.4265 -0.8331 -0.3521
vn -0.0647 -0.8395 -0.5396
vn -0.3972 -0.8691 -0.2946
vn 0.0778 0.8119 0.5786
vn 0.4265 0.8331 0.3521
vn 0.0647 0.8395 0.5396
vn 0.3972 0.8691 0.2946
vn -0.0821 -0.9903 -0.1121
vn -0.4187 -0.8710 -0.2569
vn -0.0620 -0.9872 -0.1472
vn -0.3933 -0.8642 -0.3139
vn 0.0821 0.9903 0.1121
vn 0.4187 0.8710 0.2569
vn 0.0620 0.9872 0.1472
vn 0.3933 0.8642 0.3139
vn -0.7161 -0.6830 0.1440
vn -0.8382 -0.5186 -0.1687
vn -0.6949 -0.7079 0.1265
vn -0.8068 -0.5554 -0.2015
vn 0.7161 0.6830 -0.1440
vn 0.8382 0.5186 0.1687
vn 0.6949 0.7079 -0.1265
vn 0.8068 0.5554 0.2015
vn -0.0764 -0.9968 0.0225
vn -0.0290 -0.9515 -0.3063
vn -0.1192 -0.9929 0.0012
vn -0.1034 -0.9386 -0.3291
vn 0.0764 0.9968 -0.0225
vn 0.0290 0.9515 0.3063
vn 0.1192 0.9929 -0.0012
vn 0.1034 0.9386 0.3291
vn 0.2497 -0.9370 0.2445
vn 0.4790 -0.8736 -0.0863
vn 0.2665 -0.9275 0.2621
vn 0.5073 -0.8594 -0.0635
vn -0.2497 0.9370 -0.2445
vn -0.4790 0.8736 0.0863
vn -0.2665 0.9275 -0.2621
vn -0.5073 0.8594 0.0635
vn 0.0067 -0.9940 0.1091
vn 0.3064 -0.9518 0.0124
vn 0.0058 -0.9955 0.0946
vn 0.3014 -0.9534 -0.0116
vn -0.0067 0.9940 -0.1091
vn -0.3064 0.9518 -0.0124
vn -0.0058 0.9955 -0.0946
vn -0.3014 0.9534 0.0116
vn 0.2676 -0.9586 0.0977
vn 0.3116 -0.9188 -0.2424
vn 0.2919 -0.9505 0.1063
vn 0.3525 -0.9058 -0.2349
vn -0.2676 0.9586 -0.0977
vn -0.3116 0.9188 0.2424
vn -0.2919 0.9505 -0.1063
vn -0.3525 0.9058 0.2349
vn -0.1108 -0.9887 -0.1010
vn 0.1222 -0.9355 -0.3317
vn -0.0944 -0.9922 -0.0813
vn 0.1529 -0.9409 -0.3022
vn 0.1108 0.9887 0.1010
vn -0.1222 0.9355 0.3317
vn 0.0944 0.9922 0.0813
vn -0.1529 0.9409 0.3022
vn 0.3474 -0.7971 -0.4939
vn 0.6584 -0.5387 -0.5256
vn 0.3436 -0.7888 -0.5097
vn 0.6491 -0.5269 -0.5487
vn -0.3474 0.7971 0.4939
vn -0.6584 0.5387 0.5256
vn -0.3436 0.7888 0.5097
vn -0.6491 0.5269 0.5487
vn -0.1191 -0.9771 0.1765
vn 0.2375 -0.9535 0.1855
vn -0.1194 -0.9768 0.1779
vn 0.2373 -0.9531 0.1879
vn 0.1191 0.9771 -0.1765
vn -0.2375 0.9535 -0.1855
vn 0.1194 0.9768 -0.1779
vn -0.2373 0.9531 -0.1879
vn 0.1952 -0.9019 -0.3853
vn 0.3946 -0.9080 -0.1410
vn 0.1540 -0.9209 -0.3580
vn 0.3336 -0.9388 -0.0857
vn -0.1952 0.9019 0.3853
vn -0.3946 0.9080 0.1410
vn -0.1540 0.9209 0.3580
vn -0.3336 0.9388 0.0857
vn -0.2793 -0.8867 0.3685
vn -0.0867 -0.7817 0.6176
vn -0.2459 -0.8992 0.3620
vn -0.0339 -0.8017 0.5968
vn 0.2793 0.8867 -0.3685
vn 0.0867 0.7817 -0.6176
vn 0.2459 0.8992 -0.3620
vn 0.0339 0.8017 -0.5968
vn 0.4342 -0.9006 0.0177
vn 0.4141 -0.8583 -0.3031
vn 0.4294 -0.9030 0.0165
vn 0.4057 -0.8621 -0.3037
vn -0.4342 0.9006 -0.0177
vn -0.4141 0.8583 0.3031
vn -0.4294 0.9030 -0.0165
vn -0.4057 0.8621 0.3037
vn -0.2463 -0.9676 -0.0560
vn 0.0986 -0.9447 -0.3128
vn -0.2183 -0.9756 -0.0242
vn 0.0500 -0.9350 -0.3511
vn 0.2463 0.9676 0.0560
vn -0.0986 0.9447 0.3128
vn 0.2183 0.9756 0.0242
vn -0.0500 0.9350 0.3511
vn 0.2904 -0.8623 0.4148
vn 0.5650 -0.8099 0.1576
vn 0.2758 -0.8832 0.3793
vn 0.5328 -0.8398 0.1043
vn -0.2904 0.8623 -0.4148
vn -0.5650 0.8099 -0.1576
vn -0.2758 0.8832 -0.3793
vn -0.5328 0.8398 -0.1043
vn 0.5385 -0.8167 -0.2072
vn 0.3726 -0.7403 -0.5595
vn 0.5084 -0.8362 -0.2057
vn 0.3262 -0.7688 -0.5501
vn -0.5385 0.8167 0.2072
vn -0.3726 0.7403 0.5595
vn -0.5084 0.8362 0.2057
vn -0.3262 0.7688 0.5501
vn -0.2288 -0.9061 -0.3559
vn -0.0405 -0.7776 -0.6274
vn -0.2184 -0.9112 -0.3493
vn -0.0602 -0.7712 -0.6338
vn 0.2288 0.9061 0.3559
vn 0.0405 0.7776 0.6274
vn 0.2184 0.9112 0.3493
vn 0.0602 0.7712 0.6338
vn 0.6482 -0.7152 0.2615
vn 0.8480 -0.5295 0.0244
vn 0.6451 -0.7230 0.2473
vn 0.8397 -0.5431 0.0032
vn -0.6482 0.7152 -0.2615
vn -0.8480 0.5295 -0.0244
vn -0.6451 0.7230 -0.2473
vn -0.8397 0.5431 -0.0032
vn -0.2723 -0.9608 -0.0520
vn -0.0455 -0.9159 -0.3989
vn -0.3006 -0.9504 -0.0804
vn -0.0917 -0.8961 -0.4343
vn 0.2723 0.9608 0.0520
vn 0.0455 0.9159 0.3989
vn 0.3006 0.9504 0.0804
vn 0.0917 0.8961 0.4343
vn -0.0372 -0.8275 -0.5602
vn 0.3340 -0.6840 -0.6485
vn -0.0414 -0.8116 -0.5828
vn 0.3214 -0.6591 -0.6799
vn 0.0372 0.8275 0.5602
vn -0.3340 0.6840 0.6485
vn 0.0414 0.8116 0.5828
vn -0.3214 0.6591 0.6799
vn 0.2169 -0.8109 -0.5435
vn 0.5823 -0.7087 -0.3983
vn 0.2109 -0.8219 -0.5292
vn 0.5770 -0.7252 -0.3756
vn -0.2169 0.8109 0.5435
vn -0.5823 0.7087 0.3983
vn -0.2109 0.8219 0.5292
vn -0.5770 0.7252 0.3756
vt 0.637500 0.000000
vt 0.250000 0.340000
vt 0.362500 0.000000
vt 0.520000 1.000000
vt 0.480000 1.000000
vt 0.750000 0.340000
vt 0.250000 0.340000
vt 0.250000 0.340000
vt 0.750000 0.340000
vt 0.362500 0.000000
vt 0.480000 1.000000
vt 0.520000 1.000000
s 0
f 390/412/486 393/413/486 389/414/486
f 393/413/487 392/415/487 391/416/487
f 390/412/488 394/417/488 393/413/488
f 393/413/489 394/417/489 392/415/489
f 396/412/490 395/414/490 399/413/490
f 399/413/491 397/416/491 398/415/491
f 396/412/492 399/413/492 400/417/492
f 399/413/493 398/415/493 400/417/493
f 402/412/494 405/418/494 401/414/494
f 406/417/495 403/416/495 405/418/495
f 402/412/496 406/417/496 405/418/496
f 406/417/497 404/415/497 403/416/497
f 408/412/498 407/414/498 411/418/498
f 412/417/499 411/418/499 409/416/499
f 408/412/500 411/418/500 412/417/500
f 412/417/501 409/416/501 410/415/501
f 414/412/502 417/418/502 413/414/502
f 418/417/503 415/416/503 417/418/503
f 414/412/504 418/417/504 417/418/504
f 418/417/505 416/415/505 415/416/505
f 420/412/506 419/414/506 423/418/506
f 424/417/507 423/418/507 421/416/507
f 420/412/508 423/418/508 424/417/508
f 424/417/509 421/416/509 422/415/509
f 426/412/510 429/419/510 425/414/510
f 430/420/511 427/416/511 429/419/511
f 426/412/512 430/420/512 429/419/512
f 430/420/513 428/415/513 427/416/513
f 432/412/514 431/414/514 435/419/514
f 436/420/515 435/419/515 433/416/515
f 432/412/516 435/419/516 436/420/516
f 436/420/517 433/416/517 434/415/517
f 437/414/518 442/417/518 441/418/518
f 442/417/519 439/416/519 441/418/519
f 437/414/520 438/412/520 442/417/520
f 442/417/521 440/415/521 439/416/521
f 443/414/522 447/418/522 448/417/522
f 448/417/523 447/418/523 445/416/523
f 443/414/524 448/417/524 444/412/524
f 448/417/525 445/416/525 446/415/525
f 450/412/526 453/413/526 449/414/526
f 454/417/527 451/416/527 453/413/527
f 450/412/528 454/417/528 453/413/528
f 454/417/529 452/415/529 451/416/529
f 456/412/530 455/414/530 459/413/530
f 460/417/531 459/413/531 457/416/531
f 456/412/532 459/413/532 460/417/532
f 460/417/533 457/416/533 458/415/533
f 461/414/534 466/417/534 465/413/534
f 466/417/535 463/416/535 465/413/535
f 461/414/536 462/412/536 466/417/536
f 466/417/537 464/415/537 463/416/537
f 467/414/538 471/413/538 472/417/538
f 472/417/539 471/413/539 469/416/539
f 467/414/540 472/417/540 468/412/540
f 472/417/541 469/416/541 470/415/541
f 474/412/542 477/418/542 473/414/542
f 478/417/543 475/416/543 477/418/543
f 474/412/544 478/417/544 477/418/544
f 478/417/545 476/415/545 475/416/545
f 480/412/546 479/414/546 483/418/546
f 484/417/547 483/418/547 481/416/547
f 480/412/548 483/418/548 484/417/548
f 484/417/549 481/416/549 482/415/549
f 486/412/550 489/418/550 485/421/550
f 490/417/551 487/416/551 489/418/551
f 486/412/552 490/417/552 489/418/552
f 490/417/553 488/415/553 487/416/553
f 492/412/554 491/421/554 495/418/554
f 496/417/555 495/418/555 493/416/555
f 492/412/556 495/418/556 496/417/556
f 496/417/557 493/416/557 494/415/557
f 498/412/558 501/418/558 497/421/558
f 502/417/559 499/416/559 501/418/559
f 498/412/560 502/417/560 501/418/560
f 502/417/561 500/415/561 499/416/561
f 504/412/562 503/421/562 507/418/562
f 508/417/563 507/418/563 505/416/563
f 504/412/564 507/418/564 508/417/564
f 508/417/565 505/416/565 506/415/565
f 510/412/566 513/413/566 509/421/566
f 514/417/567 511/416/567 513/413/567
f 510/412/568 514/417/568 513/413/568
f 514/417/569 512/415/569 511/416/569
f 516/412/570 515/421/570 519/413/570
f 520/417/571 519/413/571 517/416/571
f 516/412/572 519/413/572 520/417/572
f 520/417/573 517/416/573 518/415/573
f 522/412/574 525/418/574 521/421/574
f 526/417/575 523/416/575 525/418/575
f 522/412/576 526/417/576 525/418/576
f 526/417/577 524/415/577 523/416/577
f 528/412/578 527/421/578 531/418/578
f 532/417/579 531/418/579 529/416/579
f 528/412/580 531/418/580 532/417/580
f 532/417/581 529/416/581 530/415/581
f 534/412/582 537/418/582 533/414/582
f 538/417/583 535/416/583 537/418/583
f 534/412/584 538/417/584 537/418/584
f 538/417/585 536/415/585 535/416/585
f 540/412/586 539/414/586 543/418/586
f 544/417/587 543/418/587 541/416/587
f 540/412/588 543/418/588 544/417/588
f 544/417/589 541/416/589 542/415/589
f 546/412/590 549/418/590 545/414/590
f 550/417/591 547/416/591 549/418/591
f 546/412/592 550/417/592 549/418/592
f 550/417/593 548/415/593 547/416/593
f 552/412/594 551/414/594 555/418/594
f 556/417/595 555/418/595 553/416/595
f 552/412/596 555/418/596 556/417/596
f 556/417/597 553/416/597 554/415/597
f 558/412/598 561/418/598 557/414/598
f 562/417/599 559/416/599 561/418/599
f 558/412/600 562/417/600 561/418/600
f 562/417/601 560/415/601 559/416/601
f 564/412/602 563/414/602 567/418/602
f 568/417/603 567/418/603 565/416/603
f 564/412/604 567/418/604 568/417/604
f 568/417/605 565/416/605 566/415/605
f 570/412/606 573/418/606 569/414/606
f 574/417/607 571/416/607 573/418/607
f 570/412/608 574/417/608 573/418/608
f 574/417/609 572/415/609 571/416/609
f 576/412/610 575/414/610 579/418/610
f 580/417/611 579/418/611 577/416/611
f 576/412/612 579/418/612 580/417/612
f 580/417/613 577/416/613 578/415/613
f 582/412/614 585/418/614 581/421/614
f 586/417/615 583/416/615 585/418/615
f 582/412/616 586/417/616 585/418/616
f 586/417/617 584/415/617 583/416/617
f 588/412/618 587/421/618 591/418/618
f 592/417/619 591/418/619 589/416/619
f 588/412/620 591/418/620 592/417/620
f 592/417/621 589/416/621 590/415/621
f 594/412/622 597/418/622 593/414/622
f 598/417/623 595/416/623 597/418/623
f 594/412/624 598/417/624 597/418/624
f 598/417/625 596/415/625 595/416/625
f 600/412/626 599/414/626 603/418/626
f 604/417/627 603/418/627 601/416/627
f 600/412/628 603/418/628 604/417/628
f 604/417/629 601/416/629 602/415/629
f 606/412/630 609/418/630 605/414/630
f 610/417/631 607/416/631 609/418/631
f 606/412/632 610/417/632 609/418/632
f 610/417/633 608/415/633 607/416/633
f 612/412/634 611/414/634 615/418/634
f 616/417/635 615/418/635 613/416/635
f 612/412/636 615/418/636 616/417/636
f 616/417/637 613/416/637 614/415/637
f 618/412/638 621/418/638 617/414/638
f 622/417/639 619/416/639 621/418/639
f 618/412/640 622/417/640 621/418/640
f 622/417/641 620/415/641 619/416/641
f 624/412/642 623/414/642 627/418/642
f 628/417/643 627/418/643 625/416/643
f 624/412/644 627/418/644 628/417/644
f 628/417/645 625/416/645 626/415/645
f 630/412/646 633/418/646 629/414/646
f 634/417/647 631/422/647 633/418/647
f 630/412/648 634/417/648 633/418/648
f 634/417/649 632/423/649 631/422/649
f 636/412/650 635/414/650 639/418/650
f 640/417/651 639/418/651 637/422/651
f 636/412/652 639/418/652 640/417/652
f 640/417/653 637/422/653 638/423/653
f 642/412/654 645/418/654 641/414/654
f 646/417/655 643/416/655 645/418/655
f 642/412/656 646/417/656 645/418/656
f 646/417/657 644/415/657 643/416/657
f 648/412/658 647/414/658 651/418/658
f 652/417/659 651/418/659 649/416/659
f 648/412/660 651/418/660 652/417/660
f 652/417/661 649/416/661 650/415/661
f 654/412/662 657/418/662 653/421/662
f 657/418/663 656/415/663 655/416/663
f 654/412/664 658/417/664 657/418/664
f 657/418/665 658/417/665 656/415/665
f 660/412/666 659/421/666 663/418/666
f 663/418/667 661/416/667 662/415/667
f 660/412/668 663/418/668 664/417/668
f 663/418/669 662/415/669 664/417/669
f 666/412/670 669/418/670 665/421/670
f 670/417/671 667/416/671 669/418/671
f 666/412/672 670/417/672 669/418/672
f 670/417/673 668/415/673 667/416/673
f 672/412/674 671/421/674 675/418/674
f 676/417/675 675/418/675 673/416/675
f 672/412/676 675/418/676 676/417/676
f 676/417/677 673/416/677 674/415/677
f 678/412/678 681/418/678 677/414/678
f 682/417/679 679/416/679 681/418/679
f 678/412/680 682/417/680 681/418/680
f 682/417/681 680/415/681 679/416/681
f 684/412/682 683/414/682 687/418/682
f 688/417/683 687/418/683 685/416/683
f 684/412/684 687/418/684 688/417/684
f 688/417/685 685/416/685 686/415/685
f 690/412/686 693/418/686 689/421/686
f 693/418/687 692/415/687 691/416/687
f 690/412/688 694/417/688 693/418/688
f 693/418/689 694/417/689 692/415/689
f 696/412/690 695/421/690 699/418/690
f 699/418/691 697/416/691 698/415/691
f 696/412/692 699/418/692 700/417/692
f 699/418/693 698/415/693 700/417/693
f 702/412/694 705/418/694 701/414/694
f 706/417/695 703/416/695 705/418/695
f 702/412/696 706/417/696 705/418/696
f 706/417/697 704/415/697 703/416/697
f 708/412/698 707/414/698 711/418/698
f 712/417/699 711/418/699 709/416/699
f 708/412/700 711/418/700 712/417/700
f 712/417/701 709/416/701 710/415/701
f 714/412/702 717/418/702 713/414/702
f 718/417/703 715/416/703 717/418/703
f 714/412/704 718/417/704 717/418/704
f 718/417/705 716/415/705 715/416/705
f 720/412/706 719/414/706 723/418/706
f 724/417/707 723/418/707 721/416/707
f 720/412/708 723/418/708 724/417/708
f 724/417/709 721/416/709 722/415/709
f 726/412/710 729/418/710 725/421/710
f 730/417/711 727/422/711 729/418/711
f 726/412/712 730/417/712 729/418/712
f 730/417/713 728/423/713 727/422/713
f 732/412/714 731/421/714 735/418/714
f 736/417/715 735/418/715 733/422/715
f 732/412/716 735/418/716 736/417/716
f 736/417/717 733/422/717 734/423/717
f 738/412/718 741/418/718 737/421/718
f 742/417/719 739/416/719 741/418/719
f 738/412/720 742/417/720 741/418/720
f 742/417/721 740/415/721 739/416/721
f 744/412/722 743/421/722 747/418/722
f 748/417/723 747/418/723 745/416/723
f 744/412/724 747/418/724 748/417/724
f 748/417/725 745/416/725 746/415/725
