# Blender 5.0.1
# www.blender.org
o barrel_a
v 0.211333 0.000000 0.000000
v 0.182433 0.000000 0.105666
v 0.105666 0.000000 0.183608
v 0.000000 0.000000 0.211333
v -0.105666 0.000000 0.183608
v -0.182433 0.000000 0.105666
v -0.211333 0.000000 0.000000
v -0.182433 0.000000 -0.105666
v -0.105666 0.000000 -0.183608
v -0.000000 0.000000 -0.211333
v 0.105666 0.000000 -0.183608
v 0.182433 0.000000 -0.105666
v 0.225316 0.043000 0.000000
v 0.194504 0.043000 0.112658
v 0.112658 0.043000 0.195757
v 0.000000 0.043000 0.225316
v -0.112658 0.043000 0.195757
v -0.194504 0.043000 0.112658
v -0.225316 0.043000 0.000000
v -0.194504 0.043000 -0.112658
v -0.112658 0.043000 -0.195757
v -0.000000 0.043000 -0.225316
v 0.112658 0.043000 -0.195757
v 0.194504 0.043000 -0.112658
v 0.239360 0.094600 0.000000
v 0.206628 0.094600 0.119680
v 0.119680 0.094600 0.207959
v 0.000000 0.094600 0.239360
v -0.119680 0.094600 0.207959
v -0.206628 0.094600 0.119680
v -0.239360 0.094600 0.000000
v -0.206628 0.094600 -0.119680
v -0.119680 0.094600 -0.207959
v -0.000000 0.094600 -0.239360
v 0.119680 0.094600 -0.207959
v 0.206628 0.094600 -0.119680
v 0.255051 0.104060 0.000000
v 0.220173 0.104060 0.127526
v 0.127526 0.104060 0.221591
v 0.000000 0.104060 0.255051
v -0.127526 0.104060 0.221591
v -0.220173 0.104060 0.127526
v -0.255051 0.104060 0.000000
v -0.220173 0.104060 -0.127526
v -0.127526 0.104060 -0.221591
v -0.000000 0.104060 -0.255051
v 0.127526 0.104060 -0.221591
v 0.220173 0.104060 -0.127526
v 0.259064 0.119540 0.000000
v 0.223637 0.119540 0.129532
v 0.129532 0.119540 0.225078
v 0.000000 0.119540 0.259064
v -0.129532 0.119540 0.225078
v -0.223637 0.119540 0.129532
v -0.259064 0.119540 0.000000
v -0.223637 0.119540 -0.129532
v -0.129532 0.119540 -0.225078
v -0.000000 0.119540 -0.259064
v 0.129532 0.119540 -0.225078
v 0.223637 0.119540 -0.129532
v 0.247812 0.129000 0.000000
v 0.213924 0.129000 0.123906
v 0.123906 0.129000 0.215302
v 0.000000 0.129000 0.247812
v -0.123906 0.129000 0.215302
v -0.213924 0.129000 0.123906
v -0.247812 0.129000 0.000000
v -0.213924 0.129000 -0.123906
v -0.123906 0.129000 -0.215302
v -0.000000 0.129000 -0.247812
v 0.123906 0.129000 -0.215302
v 0.213924 0.129000 -0.123906
v 0.282926 0.352600 0.000000
v 0.244236 0.352600 0.141463
v 0.141463 0.352600 0.245809
v 0.000000 0.352600 0.282926
v -0.141463 0.352600 0.245809
v -0.244236 0.352600 0.141463
v -0.282926 0.352600 0.000000
v -0.244236 0.352600 -0.141463
v -0.141463 0.352600 -0.245809
v -0.000000 0.352600 -0.282926
v 0.141463 0.352600 -0.245809
v 0.244236 0.352600 -0.141463
v 0.299128 0.362060 0.000000
v 0.258222 0.362060 0.149564
v 0.149564 0.362060 0.259886
v 0.000000 0.362060 0.299128
v -0.149564 0.362060 0.259886
v -0.258222 0.362060 0.149564
v -0.299128 0.362060 0.000000
v -0.258222 0.362060 -0.149564
v -0.149564 0.362060 -0.259886
v -0.000000 0.362060 -0.299128
v 0.149564 0.362060 -0.259886
v 0.258222 0.362060 -0.149564
v 0.300000 0.377540 0.000000
v 0.258975 0.377540 0.150000
v 0.150000 0.377540 0.260643
v 0.000000 0.377540 0.300000
v -0.150000 0.377540 0.260643
v -0.258975 0.377540 0.150000
v -0.300000 0.377540 0.000000
v -0.258975 0.377540 -0.150000
v -0.150000 0.377540 -0.260643
v -0.000000 0.377540 -0.300000
v 0.150000 0.377540 -0.260643
v 0.258975 0.377540 -0.150000
v 0.284761 0.387000 0.000000
v 0.245820 0.387000 0.142381
v 0.142381 0.387000 0.247404
v 0.000000 0.387000 0.284761
v -0.142381 0.387000 0.247404
v -0.245820 0.387000 0.142381
v -0.284761 0.387000 0.000000
v -0.245820 0.387000 -0.142381
v -0.142381 0.387000 -0.247404
v -0.000000 0.387000 -0.284761
v 0.142381 0.387000 -0.247404
v 0.245820 0.387000 -0.142381
v 0.271401 0.610600 0.000000
v 0.234287 0.610600 0.135701
v 0.135701 0.610600 0.235796
v 0.000000 0.610600 0.266407
v -0.124025 0.610600 0.215508
v -0.208847 0.610600 0.120966
v -0.254423 0.610600 0.000000
v -0.234206 0.610600 -0.135654
v -0.135701 0.610600 -0.235796
v -0.000000 0.610600 -0.271401
v 0.135701 0.610600 -0.235796
v 0.234287 0.610600 -0.135701
v 0.284764 0.620060 0.000000
v 0.245822 0.620060 0.142382
v 0.142382 0.620060 0.247406
v 0.000000 0.620060 0.279691
v -0.130522 0.620060 0.226798
v -0.219982 0.620060 0.127415
v -0.267518 0.620060 0.000000
v -0.245740 0.620060 -0.142334
v -0.142382 0.620060 -0.247406
v -0.000000 0.620060 -0.284764
v 0.142382 0.620060 -0.247406
v 0.245822 0.620060 -0.142382
v 0.282051 0.635540 0.000000
v 0.243480 0.635540 0.141025
v 0.141025 0.635540 0.245048
v 0.000000 0.635540 0.276944
v -0.129088 0.635540 0.224307
v -0.217471 0.635540 0.125961
v -0.264693 0.635540 0.000000
v -0.243397 0.635540 -0.140977
v -0.141025 0.635540 -0.245048
v -0.000000 0.635540 -0.282051
v 0.141025 0.635540 -0.245048
v 0.243480 0.635540 -0.141025
v 0.265688 0.645000 0.000000
v 0.229355 0.645000 0.132844
v 0.132844 0.645000 0.230833
v 0.000000 0.645000 0.260621
v -0.120997 0.645000 0.210247
v -0.203542 0.645000 0.117893
v -0.248461 0.645000 0.000000
v -0.229273 0.645000 -0.132796
v -0.132844 0.645000 -0.230833
v -0.000000 0.645000 -0.265688
v 0.132844 0.645000 -0.230833
v 0.229355 0.645000 -0.132844
v 0.225316 0.817000 0.000000
v 0.194504 0.817000 0.112658
v 0.112658 0.817000 0.195757
v 0.000000 0.817000 0.225316
v -0.112658 0.817000 0.195757
v -0.194504 0.817000 0.112658
v -0.225316 0.817000 0.000000
v -0.194504 0.817000 -0.112658
v -0.112658 0.817000 -0.195757
v -0.000000 0.817000 -0.225316
v 0.112658 0.817000 -0.195757
v 0.194504 0.817000 -0.112658
v 0.211333 0.860000 0.000000
v 0.182433 0.860000 0.105666
v 0.105666 0.860000 0.183608
v 0.000000 0.860000 0.211333
v -0.105666 0.860000 0.183608
v -0.182433 0.860000 0.105666
v -0.211333 0.860000 0.000000
v -0.182433 0.860000 -0.105666
v -0.105666 0.860000 -0.183608
v -0.000000 0.860000 -0.211333
v 0.105666 0.860000 -0.183608
v 0.182433 0.860000 -0.105666
vn 0.9510 -0.3093 -0.0000
vn 0.8309 -0.2843 0.4784
vn 0.8244 -0.3086 0.4745
vn 0.4765 -0.3099 0.8227
vn -0.0000 -0.2849 0.9585
vn -0.0000 -0.3093 0.9510
vn -0.4765 -0.3099 0.8227
vn -0.8309 -0.2843 0.4784
vn -0.8244 -0.3086 0.4745
vn -0.9510 -0.3093 -0.0000
vn -0.8309 -0.2843 -0.4784
vn -0.8244 -0.3086 -0.4745
vn -0.4765 -0.3099 -0.8227
vn -0.0000 -0.2849 -0.9585
vn -0.0000 -0.3093 -0.9510
vn 0.4765 -0.3099 -0.8227
vn 0.8309 -0.2843 -0.4784
vn 0.8244 -0.3086 -0.4745
vn 0.9586 -0.2849 -0.0000
vn 0.8363 -0.2620 0.4816
vn 0.4802 -0.2855 0.8294
vn -0.0000 -0.2626 0.9649
vn -0.4802 -0.2855 0.8294
vn -0.8363 -0.2620 0.4816
vn -0.9586 -0.2849 -0.0000
vn -0.8363 -0.2620 -0.4816
vn -0.4802 -0.2855 -0.8294
vn -0.0000 -0.2626 -0.9649
vn 0.4802 -0.2855 -0.8294
vn 0.8363 -0.2620 -0.4816
vn 0.5112 -0.8480 0.1398
vn 0.3772 -0.8483 0.3716
vn 0.1342 -0.8486 0.5116
vn -0.1342 -0.8486 0.5116
vn -0.3772 -0.8483 0.3716
vn -0.5112 -0.8480 0.1398
vn -0.5112 -0.8480 -0.1398
vn -0.3772 -0.8483 -0.3716
vn -0.1342 -0.8486 -0.5116
vn 0.1342 -0.8486 -0.5116
vn 0.3772 -0.8483 -0.3716
vn 0.5112 -0.8480 -0.1398
vn 0.9358 -0.2426 0.2559
vn 0.6911 -0.2429 0.6807
vn 0.2462 -0.2432 0.9382
vn -0.2462 -0.2432 0.9382
vn -0.6911 -0.2429 0.6807
vn -0.9358 -0.2426 0.2559
vn -0.9358 -0.2426 -0.2559
vn -0.6911 -0.2429 -0.6807
vn -0.2462 -0.2432 -0.9382
vn 0.2462 -0.2432 -0.9382
vn 0.6911 -0.2429 -0.6807
vn 0.9358 -0.2426 -0.2559
vn 0.6338 0.7538 0.1733
vn 0.4678 0.7543 0.4607
vn 0.1665 0.7547 0.6345
vn -0.1665 0.7547 0.6345
vn -0.4678 0.7543 0.4607
vn -0.6338 0.7538 0.1733
vn -0.6338 0.7538 -0.1733
vn -0.4678 0.7543 -0.4607
vn -0.1665 0.7547 -0.6345
vn 0.1665 0.7547 -0.6345
vn 0.4678 0.7543 -0.4607
vn 0.6338 0.7538 -0.1733
vn 0.9879 -0.1551 -0.0000
vn 0.8562 -0.1548 0.4930
vn 0.8562 -0.1548 0.4929
vn 0.4950 -0.1555 0.8549
vn -0.0000 -0.1551 0.9879
vn -0.4950 -0.1555 0.8549
vn -0.8562 -0.1548 0.4930
vn -0.8562 -0.1548 0.4929
vn -0.9879 -0.1551 -0.0000
vn -0.8562 -0.1548 -0.4930
vn -0.8562 -0.1548 -0.4929
vn -0.4950 -0.1555 -0.8549
vn -0.0000 -0.1551 -0.9879
vn 0.4950 -0.1555 -0.8549
vn 0.8562 -0.1548 -0.4930
vn 0.8562 -0.1548 -0.4929
vn 0.4995 -0.8555 0.1366
vn 0.3686 -0.8558 0.3630
vn 0.1312 -0.8561 0.4999
vn -0.1312 -0.8561 0.4999
vn -0.3686 -0.8558 0.3630
vn -0.4995 -0.8555 0.1366
vn -0.4995 -0.8555 -0.1366
vn -0.3686 -0.8558 -0.3630
vn -0.1312 -0.8561 -0.4999
vn 0.1312 -0.8561 -0.4999
vn 0.3686 -0.8558 -0.3630
vn 0.4995 -0.8555 -0.1366
vn 0.9632 -0.0542 0.2634
vn 0.7114 -0.0543 0.7007
vn 0.2534 -0.0544 0.9658
vn -0.2534 -0.0544 0.9658
vn -0.7114 -0.0543 0.7007
vn -0.9632 -0.0542 0.2634
vn -0.9632 -0.0542 -0.2634
vn -0.7114 -0.0543 -0.7007
vn -0.2534 -0.0544 -0.9658
vn 0.2534 -0.0544 -0.9658
vn 0.7114 -0.0543 -0.7007
vn 0.9632 -0.0542 -0.2634
vn 0.5220 0.8409 0.1428
vn 0.3852 0.8412 0.3794
vn 0.1371 0.8416 0.5224
vn -0.1371 0.8416 0.5224
vn -0.3852 0.8412 0.3794
vn -0.5220 0.8409 0.1428
vn -0.5220 0.8409 -0.1428
vn -0.3852 0.8412 -0.3794
vn -0.1371 0.8416 -0.5224
vn 0.1371 0.8416 -0.5224
vn 0.3852 0.8412 -0.3794
vn 0.5220 0.8409 -0.1428
vn 0.9982 0.0596 -0.0000
vn 0.8651 0.0595 0.4981
vn 0.4849 0.0598 0.8725
vn 0.4947 0.0670 0.8665
vn -0.0783 0.0741 0.9942
vn -0.0220 0.1085 0.9938
vn -0.5445 0.1444 0.8263
vn -0.4943 0.1624 0.8540
vn -0.8515 0.1613 0.4989
vn -0.9894 0.1290 0.0675
vn -0.9909 0.1344 -0.0000
vn -0.8735 0.0842 -0.4794
vn -0.5003 0.0599 -0.8638
vn -0.5001 0.0598 -0.8639
vn -0.0000 0.0596 -0.9982
vn 0.5002 0.0598 -0.8639
vn 0.5001 0.0598 -0.8639
vn 0.8651 0.0595 -0.4981
vn 0.5707 -0.8062 0.1561
vn 0.4212 -0.8065 0.4148
vn 0.1297 -0.8077 0.5752
vn -0.2244 -0.8067 0.5468
vn -0.4470 -0.7996 0.4011
vn -0.5592 -0.8018 0.2107
vn -0.5834 -0.8075 -0.0869
vn -0.4214 -0.8066 -0.4145
vn -0.1499 -0.8069 -0.5713
vn 0.1499 -0.8069 -0.5713
vn 0.4212 -0.8065 -0.4148
vn 0.5707 -0.8062 -0.1561
vn 0.9511 0.1667 0.2601
vn 0.7025 0.1669 0.6919
vn 0.2181 0.1656 0.9618
vn -0.3706 0.1622 0.9145
vn -0.7319 0.1739 0.6588
vn -0.9235 0.1686 0.3445
vn -0.9756 0.1607 -0.1493
vn -0.7029 0.1669 -0.6914
vn -0.2502 0.1671 -0.9537
vn 0.2502 0.1671 -0.9537
vn 0.7025 0.1669 -0.6919
vn 0.9511 0.1667 -0.2601
vn 0.4959 0.8577 0.1356
vn 0.3659 0.8580 0.3604
vn 0.1140 0.8561 0.5041
vn -0.2003 0.8477 0.4912
vn -0.3890 0.8523 0.3496
vn -0.4948 0.8490 0.1855
vn -0.5228 0.8488 -0.0790
vn -0.3662 0.8580 -0.3602
vn -0.1302 0.8584 -0.4963
vn 0.1302 0.8584 -0.4963
vn 0.3659 0.8580 -0.3604
vn 0.4959 0.8577 -0.1356
vn 0.9636 0.2673 -0.0000
vn 0.8438 0.2280 0.4859
vn 0.9735 0.2285 -0.0000
vn 0.4797 0.2638 0.8368
vn 0.4730 0.2290 0.8508
vn -0.0757 0.2081 0.9752
vn -0.0152 0.2377 0.9712
vn -0.5530 0.1260 0.8236
vn -0.4957 0.1956 0.8462
vn -0.8554 0.0917 0.5098
vn -0.9780 0.2081 0.0104
vn -0.9836 0.1593 0.0844
vn -0.8454 0.2525 -0.4707
vn -0.8712 0.2272 -0.4351
vn -0.4828 0.2678 -0.8338
vn -0.4879 0.2290 -0.8423
vn -0.0000 0.2285 -0.9735
vn 0.4827 0.2679 -0.8338
vn 0.4876 0.2290 -0.8425
vn 0.8438 0.2280 -0.4859
vn 0.9510 0.3093 -0.0000
vn 0.8352 0.2668 0.4809
vn 0.4765 0.3099 0.8227
vn -0.4765 0.3099 0.8227
vn -0.8521 0.1825 0.4906
vn -0.9510 0.3093 -0.0000
vn -0.4765 0.3099 -0.8227
vn -0.0000 0.2674 -0.9636
vn 0.4765 0.3099 -0.8227
vn 0.8352 0.2668 -0.4809
vn -0.0000 -1.0000 -0.0000
vn -0.0000 1.0000 -0.0000
vn 0.9649 -0.2626 -0.0000
vn 0.4833 -0.2632 0.8350
vn -0.4833 -0.2632 0.8350
vn -0.9649 -0.2626 -0.0000
vn -0.4833 -0.2632 -0.8350
vn 0.4833 -0.2632 -0.8350
vn 0.4949 -0.1555 0.8549
vn -0.4949 -0.1555 0.8549
vn -0.4949 -0.1555 -0.8549
vn 0.4949 -0.1555 -0.8549
vn 0.8651 0.0595 0.4980
vn -0.8393 0.1876 0.5103
vn -0.8936 0.0598 -0.4448
vn 0.8651 0.0595 -0.4980
vn 0.1314 -0.8042 0.5797
vn -0.2288 -0.7929 0.5647
vn -0.4512 -0.7946 0.4062
vn -0.5721 -0.7919 0.2134
vn -0.5992 -0.7953 -0.0917
vn -0.4215 -0.8065 -0.4146
vn 0.2174 0.1705 0.9611
vn -0.3713 0.1810 0.9107
vn -0.7316 0.1804 0.6575
vn -0.9208 0.1818 0.3452
vn -0.9731 0.1776 -0.1470
vn -0.7029 0.1670 -0.6914
vn 0.1117 0.8598 0.4983
vn -0.1948 0.8620 0.4679
vn -0.3837 0.8574 0.3429
vn -0.4781 0.8592 0.1821
vn -0.5022 0.8617 -0.0726
vn -0.3661 0.8581 -0.3601
vn 0.8244 0.3086 0.4745
vn -0.0000 0.3093 0.9510
vn -0.8244 0.3086 0.4745
vn -0.8244 0.3086 -0.4745
vn -0.0000 0.3093 -0.9510
vn 0.8244 0.3086 -0.4745
vt 0.500000 0.000000
vt 0.332891 0.078182
vt 0.332891 0.000000
vt 0.166225 0.000000
vt 0.000000 0.078182
vt 0.000000 0.000000
vt 2.000000 0.078182
vt 1.833775 0.000000
vt 2.000000 0.000000
vt 1.667109 0.078182
vt 1.667109 0.000000
vt 1.500000 0.000000
vt 1.332891 0.078182
vt 1.332891 0.000000
vt 1.166225 0.000000
vt 1.000000 0.078182
vt 1.000000 0.000000
vt 0.833775 0.000000
vt 0.667109 0.078182
vt 0.667109 0.000000
vt 0.500000 0.078182
vt 0.332891 0.172000
vt 0.166225 0.078182
vt 0.000000 0.172000
vt 2.000000 0.172000
vt 1.833775 0.078182
vt 1.667109 0.172000
vt 1.500000 0.078182
vt 1.332891 0.172000
vt 1.166225 0.078182
vt 1.000000 0.172000
vt 0.833775 0.078182
vt 0.667109 0.172000
vt 0.500000 0.172000
vt 0.332891 0.189200
vt 0.166225 0.172000
vt 0.000000 0.189200
vt 2.000000 0.189200
vt 1.833775 0.172000
vt 1.667109 0.189200
vt 1.500000 0.172000
vt 1.332891 0.189200
vt 1.166225 0.172000
vt 1.000000 0.189200
vt 0.833775 0.172000
vt 0.667109 0.189200
vt 0.500000 0.189200
vt 0.332891 0.217345
vt 0.166225 0.189200
vt 0.000000 0.217345
vt 2.000000 0.217345
vt 1.833775 0.189200
vt 1.667109 0.217345
vt 1.500000 0.189200
vt 1.332891 0.217345
vt 1.166225 0.189200
vt 1.000000 0.217345
vt 0.833775 0.189200
vt 0.667109 0.217345
vt 0.500000 0.234545
vt 0.500000 0.217345
vt 0.166225 0.234545
vt 0.166225 0.217345
vt 1.833775 0.234545
vt 1.833775 0.217345
vt 1.500000 0.234545
vt 1.500000 0.217345
vt 1.166225 0.234545
vt 1.166225 0.217345
vt 0.833775 0.234545
vt 0.833775 0.217345
vt 0.332891 0.641091
vt 0.332891 0.234545
vt 0.000000 0.641091
vt 0.000000 0.234545
vt 2.000000 0.641091
vt 2.000000 0.234545
vt 1.667109 0.641091
vt 1.667109 0.234545
vt 1.332891 0.641091
vt 1.332891 0.234545
vt 1.000000 0.641091
vt 1.000000 0.234545
vt 0.667109 0.641091
vt 0.667109 0.234545
vt 0.500000 0.641091
vt 0.332891 0.658291
vt 0.166225 0.641091
vt 0.000000 0.658291
vt 2.000000 0.658291
vt 1.833775 0.641091
vt 1.667109 0.658291
vt 1.500000 0.641091
vt 1.332891 0.658291
vt 1.166225 0.641091
vt 1.000000 0.658291
vt 0.833775 0.641091
vt 0.667109 0.658291
vt 0.500000 0.658291
vt 0.332891 0.686436
vt 0.166225 0.658291
vt 0.000000 0.686436
vt 2.000000 0.686436
vt 1.833775 0.658291
vt 1.667109 0.686436
vt 1.500000 0.658291
vt 1.332891 0.686436
vt 1.166225 0.658291
vt 1.000000 0.686436
vt 0.833775 0.658291
vt 0.667109 0.686436
vt 0.500000 0.703636
vt 0.500000 0.686436
vt 0.166225 0.703636
vt 0.166225 0.686436
vt 1.833775 0.703636
vt 1.833775 0.686436
vt 1.500000 0.703636
vt 1.500000 0.686436
vt 1.166225 0.703636
vt 1.166225 0.686436
vt 0.833775 0.703636
vt 0.833775 0.686436
vt 0.500000 1.110182
vt 0.332891 0.703636
vt 0.166225 1.110182
vt 0.000000 1.110182
vt 0.000000 0.703636
vt 2.000000 0.703636
vt 1.833775 1.110182
vt 1.667109 0.703636
vt 1.500000 1.110182
vt 1.332891 0.703636
vt 1.166225 1.110182
vt 1.000000 0.703636
vt 0.833775 1.110182
vt 0.667109 0.703636
vt 0.332891 1.127382
vt 0.332891 1.110182
vt 0.000000 1.127382
vt 2.000000 1.110182
vt 1.833775 1.127382
vt 1.667109 1.127382
vt 1.667109 1.110182
vt 1.500000 1.127382
vt 1.332891 1.110182
vt 1.332891 1.127382
vt 1.000000 1.127382
vt 1.000000 1.110182
vt 0.667109 1.127382
vt 0.667109 1.110182
vt 0.500000 1.155527
vt 0.500000 1.127382
vt 0.166225 1.155527
vt 0.166225 1.127382
vt 2.000000 1.155527
vt 2.000000 1.127382
vt 1.833775 1.155527
vt 1.500000 1.155527
vt 1.332891 1.155527
vt 1.166225 1.155527
vt 1.166225 1.127382
vt 0.833775 1.155527
vt 0.833775 1.127382
vt 0.500000 1.172727
vt 0.332891 1.155527
vt 0.166225 1.172727
vt 0.000000 1.155527
vt 2.000000 1.172727
vt 1.833775 1.172727
vt 1.667109 1.155527
vt 1.500000 1.172727
vt 1.332891 1.172727
vt 1.166225 1.172727
vt 1.000000 1.155527
vt 0.833775 1.172727
vt 0.667109 1.155527
vt 0.500000 1.485454
vt 0.332891 1.172727
vt 0.166225 1.485454
vt 0.000000 1.172727
vt 2.000000 1.485454
vt 1.833775 1.485454
vt 1.667109 1.172727
vt 1.500000 1.485454
vt 1.332891 1.485454
vt 1.166225 1.485454
vt 1.000000 1.172727
vt 0.833775 1.485454
vt 0.667109 1.172727
vt 0.500000 1.563636
vt 0.332891 1.485454
vt 0.166225 1.563636
vt 0.000000 1.485454
vt 1.833775 1.563636
vt 1.667109 1.485454
vt 1.500000 1.563636
vt 1.166225 1.563636
vt 1.000000 1.485454
vt 0.833775 1.563636
vt 0.667109 1.485454
vt 2.667109 0.000000
vt 1.000000 1.563636
vt 1.667109 1.563636
vt 2.332891 1.563636
vt 0.332891 1.563636
vt 0.000000 1.563636
vt 2.000000 1.563636
vt 1.332891 1.563636
vt 0.667109 1.563636
s 1
f 1/1/1 14/2/2 2/3/3
f 14/2/2 3/4/4 2/3/3
f 3/4/4 16/5/5 4/6/6
f 16/7/5 5/8/7 4/9/6
f 5/8/7 18/10/8 6/11/9
f 18/10/8 7/12/10 6/11/9
f 7/12/10 20/13/11 8/14/12
f 20/13/11 9/15/13 8/14/12
f 9/15/13 22/16/14 10/17/15
f 22/16/14 11/18/16 10/17/15
f 11/18/16 24/19/17 12/20/18
f 24/19/17 1/1/1 12/20/18
f 13/21/19 26/22/20 14/2/2
f 26/22/20 15/23/21 14/2/2
f 15/23/21 28/24/22 16/5/5
f 28/25/22 17/26/23 16/7/5
f 17/26/23 30/27/24 18/10/8
f 30/27/24 19/28/25 18/10/8
f 19/28/25 32/29/26 20/13/11
f 32/29/26 21/30/27 20/13/11
f 21/30/27 34/31/28 22/16/14
f 34/31/28 23/32/29 22/16/14
f 23/32/29 36/33/30 24/19/17
f 36/33/30 13/21/19 24/19/17
s 0
f 25/34/31 38/35/31 26/22/31
f 38/35/32 27/36/32 26/22/32
f 27/36/33 40/37/33 28/24/33
f 40/38/34 29/39/34 28/25/34
f 29/39/35 42/40/35 30/27/35
f 42/40/36 31/41/36 30/27/36
f 31/41/37 44/42/37 32/29/37
f 44/42/38 33/43/38 32/29/38
f 33/43/39 46/44/39 34/31/39
f 46/44/40 35/45/40 34/31/40
f 35/45/41 48/46/41 36/33/41
f 48/46/42 25/34/42 36/33/42
f 37/47/43 50/48/43 38/35/43
f 50/48/44 39/49/44 38/35/44
f 39/49/45 52/50/45 40/37/45
f 52/51/46 41/52/46 40/38/46
f 41/52/47 54/53/47 42/40/47
f 54/53/48 43/54/48 42/40/48
f 43/54/49 56/55/49 44/42/49
f 56/55/50 45/56/50 44/42/50
f 45/56/51 58/57/51 46/44/51
f 58/57/52 47/58/52 46/44/52
f 47/58/53 60/59/53 48/46/53
f 60/59/54 37/47/54 48/46/54
f 61/60/55 50/48/55 49/61/55
f 50/48/56 63/62/56 51/63/56
f 63/62/57 52/50/57 51/63/57
f 52/51/58 65/64/58 53/65/58
f 65/64/59 54/53/59 53/65/59
f 54/53/60 67/66/60 55/67/60
f 67/66/61 56/55/61 55/67/61
f 56/55/62 69/68/62 57/69/62
f 69/68/63 58/57/63 57/69/63
f 58/57/64 71/70/64 59/71/64
f 71/70/65 60/59/65 59/71/65
f 60/59/66 61/60/66 49/61/66
s 1
f 61/60/67 74/72/68 62/73/69
f 74/72/68 63/62/70 62/73/69
f 63/62/70 76/74/71 64/75/71
f 76/76/71 65/64/72 64/77/71
f 65/64/72 78/78/73 66/79/74
f 78/78/73 67/66/75 66/79/74
f 67/66/75 80/80/76 68/81/77
f 80/80/76 69/68/78 68/81/77
f 69/68/78 82/82/79 70/83/79
f 82/82/79 71/70/80 70/83/79
f 71/70/80 84/84/81 72/85/82
f 84/84/81 61/60/67 72/85/82
s 0
f 73/86/83 86/87/83 74/72/83
f 86/87/84 75/88/84 74/72/84
f 75/88/85 88/89/85 76/74/85
f 88/90/86 77/91/86 76/76/86
f 77/91/87 90/92/87 78/78/87
f 90/92/88 79/93/88 78/78/88
f 79/93/89 92/94/89 80/80/89
f 92/94/90 81/95/90 80/80/90
f 81/95/91 94/96/91 82/82/91
f 94/96/92 83/97/92 82/82/92
f 83/97/93 96/98/93 84/84/93
f 96/98/94 73/86/94 84/84/94
f 85/99/95 98/100/95 86/87/95
f 98/100/96 87/101/96 86/87/96
f 87/101/97 100/102/97 88/89/97
f 100/103/98 89/104/98 88/90/98
f 89/104/99 102/105/99 90/92/99
f 102/105/100 91/106/100 90/92/100
f 91/106/101 104/107/101 92/94/101
f 104/107/102 93/108/102 92/94/102
f 93/108/103 106/109/103 94/96/103
f 106/109/104 95/110/104 94/96/104
f 95/110/105 108/111/105 96/98/105
f 108/111/106 85/99/106 96/98/106
f 109/112/107 98/100/107 97/113/107
f 98/100/108 111/114/108 99/115/108
f 111/114/109 100/102/109 99/115/109
f 100/103/110 113/116/110 101/117/110
f 113/116/111 102/105/111 101/117/111
f 102/105/112 115/118/112 103/119/112
f 115/118/113 104/107/113 103/119/113
f 104/107/114 117/120/114 105/121/114
f 117/120/115 106/109/115 105/121/115
f 106/109/116 119/122/116 107/123/116
f 119/122/117 108/111/117 107/123/117
f 108/111/118 109/112/118 97/113/118
s 1
f 121/124/119 110/125/120 109/112/119
f 110/125/120 123/126/121 111/114/122
f 111/114/122 124/127/123 112/128/124
f 112/129/124 125/130/125 113/116/126
f 125/130/125 114/131/127 113/116/126
f 114/131/127 127/132/128 115/118/129
f 127/132/128 116/133/130 115/118/129
f 116/133/130 129/134/131 117/120/132
f 129/134/131 118/135/133 117/120/132
f 118/135/133 131/136/134 119/122/135
f 131/136/134 120/137/136 119/122/135
f 120/137/136 121/124/119 109/112/119
s 0
f 121/124/137 134/138/137 122/139/137
f 134/138/138 123/126/138 122/139/138
f 123/126/139 136/140/139 124/127/139
f 124/141/140 137/142/140 125/130/140
f 125/130/141 138/143/141 126/144/141
f 138/143/142 127/132/142 126/144/142
f 139/145/143 128/146/143 127/132/143
f 140/147/144 129/134/144 128/146/144
f 129/134/145 142/148/145 130/149/145
f 142/148/146 131/136/146 130/149/146
f 131/136/147 144/150/147 132/151/147
f 144/150/148 121/124/148 132/151/148
f 145/152/149 134/138/149 133/153/149
f 134/138/150 147/154/150 135/155/150
f 147/154/151 136/140/151 135/155/151
f 148/156/152 137/142/152 136/157/152
f 149/158/153 138/143/153 137/142/153
f 138/143/154 151/159/154 139/145/154
f 139/145/155 152/160/155 140/147/155
f 140/147/156 153/161/156 141/162/156
f 153/161/157 142/148/157 141/162/157
f 142/148/158 155/163/158 143/164/158
f 155/163/159 144/150/159 143/164/159
f 144/150/160 145/152/160 133/153/160
f 157/165/161 146/166/161 145/152/161
f 146/166/162 159/167/162 147/154/162
f 159/167/163 148/168/163 147/154/163
f 160/169/164 149/158/164 148/156/164
f 161/170/165 150/171/165 149/158/165
f 150/171/166 163/172/166 151/159/166
f 151/159/167 164/173/167 152/160/167
f 152/160/168 165/174/168 153/161/168
f 165/174/169 154/175/169 153/161/169
f 154/175/170 167/176/170 155/163/170
f 167/176/171 156/177/171 155/163/171
f 156/177/172 157/165/172 145/152/172
s 1
f 169/178/173 158/179/174 157/165/175
f 158/179/174 171/180/176 159/167/177
f 171/180/176 160/181/178 159/167/177
f 172/182/179 161/170/180 160/169/178
f 173/183/181 162/184/182 161/170/180
f 162/184/182 175/185/183 163/172/184
f 163/172/184 176/186/185 164/173/186
f 164/173/186 177/187/187 165/174/188
f 177/187/187 166/188/189 165/174/188
f 166/188/189 179/189/190 167/176/191
f 179/189/190 168/190/192 167/176/191
f 168/190/192 169/178/173 157/165/175
f 181/191/193 170/192/194 169/178/173
f 170/192/194 183/193/195 171/180/176
f 183/193/195 172/194/179 171/180/176
f 172/182/179 185/195/196 173/183/181
f 185/195/196 174/196/197 173/183/181
f 174/196/197 187/197/198 175/185/183
f 187/197/198 176/186/185 175/185/183
f 176/186/185 189/198/199 177/187/187
f 189/198/199 178/199/200 177/187/187
f 178/199/200 191/200/201 179/189/190
f 191/200/201 180/201/202 179/189/190
f 180/201/202 181/191/193 169/178/173
s 0
f 4/9/203 8/14/203 12/202/203
f 190/203/204 186/204/204 182/205/204
s 1
f 1/1/1 13/21/19 14/2/2
f 14/2/2 15/23/21 3/4/4
f 3/4/4 15/23/21 16/5/5
f 16/7/5 17/26/23 5/8/7
f 5/8/7 17/26/23 18/10/8
f 18/10/8 19/28/25 7/12/10
f 7/12/10 19/28/25 20/13/11
f 20/13/11 21/30/27 9/15/13
f 9/15/13 21/30/27 22/16/14
f 22/16/14 23/32/29 11/18/16
f 11/18/16 23/32/29 24/19/17
f 24/19/17 13/21/19 1/1/1
f 13/21/19 25/34/205 26/22/20
f 26/22/20 27/36/206 15/23/21
f 15/23/21 27/36/206 28/24/22
f 28/25/22 29/39/207 17/26/23
f 17/26/23 29/39/207 30/27/24
f 30/27/24 31/41/208 19/28/25
f 19/28/25 31/41/208 32/29/26
f 32/29/26 33/43/209 21/30/27
f 21/30/27 33/43/209 34/31/28
f 34/31/28 35/45/210 23/32/29
f 23/32/29 35/45/210 36/33/30
f 36/33/30 25/34/205 13/21/19
s 0
f 25/34/31 37/47/31 38/35/31
f 38/35/32 39/49/32 27/36/32
f 27/36/33 39/49/33 40/37/33
f 40/38/34 41/52/34 29/39/34
f 29/39/35 41/52/35 42/40/35
f 42/40/36 43/54/36 31/41/36
f 31/41/37 43/54/37 44/42/37
f 44/42/38 45/56/38 33/43/38
f 33/43/39 45/56/39 46/44/39
f 46/44/40 47/58/40 35/45/40
f 35/45/41 47/58/41 48/46/41
f 48/46/42 37/47/42 25/34/42
f 37/47/43 49/61/43 50/48/43
f 50/48/44 51/63/44 39/49/44
f 39/49/45 51/63/45 52/50/45
f 52/51/46 53/65/46 41/52/46
f 41/52/47 53/65/47 54/53/47
f 54/53/48 55/67/48 43/54/48
f 43/54/49 55/67/49 56/55/49
f 56/55/50 57/69/50 45/56/50
f 45/56/51 57/69/51 58/57/51
f 58/57/52 59/71/52 47/58/52
f 47/58/53 59/71/53 60/59/53
f 60/59/54 49/61/54 37/47/54
f 61/60/55 62/73/55 50/48/55
f 50/48/56 62/73/56 63/62/56
f 63/62/57 64/75/57 52/50/57
f 52/51/58 64/77/58 65/64/58
f 65/64/59 66/79/59 54/53/59
f 54/53/60 66/79/60 67/66/60
f 67/66/61 68/81/61 56/55/61
f 56/55/62 68/81/62 69/68/62
f 69/68/63 70/83/63 58/57/63
f 58/57/64 70/83/64 71/70/64
f 71/70/65 72/85/65 60/59/65
f 60/59/66 72/85/66 61/60/66
s 1
f 61/60/67 73/86/67 74/72/68
f 74/72/68 75/88/211 63/62/70
f 63/62/70 75/88/211 76/74/71
f 76/76/71 77/91/212 65/64/72
f 65/64/72 77/91/212 78/78/73
f 78/78/73 79/93/75 67/66/75
f 67/66/75 79/93/75 80/80/76
f 80/80/76 81/95/213 69/68/78
f 69/68/78 81/95/213 82/82/79
f 82/82/79 83/97/214 71/70/80
f 71/70/80 83/97/214 84/84/81
f 84/84/81 73/86/67 61/60/67
s 0
f 73/86/83 85/99/83 86/87/83
f 86/87/84 87/101/84 75/88/84
f 75/88/85 87/101/85 88/89/85
f 88/90/86 89/104/86 77/91/86
f 77/91/87 89/104/87 90/92/87
f 90/92/88 91/106/88 79/93/88
f 79/93/89 91/106/89 92/94/89
f 92/94/90 93/108/90 81/95/90
f 81/95/91 93/108/91 94/96/91
f 94/96/92 95/110/92 83/97/92
f 83/97/93 95/110/93 96/98/93
f 96/98/94 85/99/94 73/86/94
f 85/99/95 97/113/95 98/100/95
f 98/100/96 99/115/96 87/101/96
f 87/101/97 99/115/97 100/102/97
f 100/103/98 101/117/98 89/104/98
f 89/104/99 101/117/99 102/105/99
f 102/105/100 103/119/100 91/106/100
f 91/106/101 103/119/101 104/107/101
f 104/107/102 105/121/102 93/108/102
f 93/108/103 105/121/103 106/109/103
f 106/109/104 107/123/104 95/110/104
f 95/110/105 107/123/105 108/111/105
f 108/111/106 97/113/106 85/99/106
f 109/112/107 110/125/107 98/100/107
f 98/100/108 110/125/108 111/114/108
f 111/114/109 112/128/109 100/102/109
f 100/103/110 112/129/110 113/116/110
f 113/116/111 114/131/111 102/105/111
f 102/105/112 114/131/112 115/118/112
f 115/118/113 116/133/113 104/107/113
f 104/107/114 116/133/114 117/120/114
f 117/120/115 118/135/115 106/109/115
f 106/109/116 118/135/116 119/122/116
f 119/122/117 120/137/117 108/111/117
f 108/111/118 120/137/118 109/112/118
s 1
f 121/124/119 122/139/215 110/125/120
f 110/125/120 122/139/215 123/126/121
f 111/114/122 123/126/121 124/127/123
f 112/129/124 124/141/123 125/130/125
f 125/130/125 126/144/216 114/131/127
f 114/131/127 126/144/216 127/132/128
f 127/132/128 128/146/217 116/133/130
f 116/133/130 128/146/217 129/134/131
f 129/134/131 130/149/133 118/135/133
f 118/135/133 130/149/133 131/136/134
f 131/136/134 132/151/218 120/137/136
f 120/137/136 132/151/218 121/124/119
s 0
f 121/124/137 133/153/137 134/138/137
f 134/138/138 135/155/138 123/126/138
f 123/126/219 135/155/219 136/140/219
f 124/141/220 136/157/220 137/142/220
f 125/130/221 137/142/221 138/143/221
f 138/143/222 139/145/222 127/132/222
f 139/145/223 140/147/223 128/146/223
f 140/147/224 141/162/224 129/134/224
f 129/134/145 141/162/145 142/148/145
f 142/148/146 143/164/146 131/136/146
f 131/136/147 143/164/147 144/150/147
f 144/150/148 133/153/148 121/124/148
f 145/152/149 146/166/149 134/138/149
f 134/138/150 146/166/150 147/154/150
f 147/154/225 148/168/225 136/140/225
f 148/156/226 149/158/226 137/142/226
f 149/158/227 150/171/227 138/143/227
f 138/143/228 150/171/228 151/159/228
f 139/145/229 151/159/229 152/160/229
f 140/147/230 152/160/230 153/161/230
f 153/161/157 154/175/157 142/148/157
f 142/148/158 154/175/158 155/163/158
f 155/163/159 156/177/159 144/150/159
f 144/150/160 156/177/160 145/152/160
f 157/165/161 158/179/161 146/166/161
f 146/166/162 158/179/162 159/167/162
f 159/167/231 160/181/231 148/168/231
f 160/169/232 161/170/232 149/158/232
f 161/170/233 162/184/233 150/171/233
f 150/171/234 162/184/234 163/172/234
f 151/159/235 163/172/235 164/173/235
f 152/160/236 164/173/236 165/174/236
f 165/174/169 166/188/169 154/175/169
f 154/175/170 166/188/170 167/176/170
f 167/176/171 168/190/171 156/177/171
f 156/177/172 168/190/172 157/165/172
s 1
f 169/178/173 170/192/194 158/179/174
f 158/179/174 170/192/194 171/180/176
f 171/180/176 172/194/179 160/181/178
f 172/182/179 173/183/181 161/170/180
f 173/183/181 174/196/197 162/184/182
f 162/184/182 174/196/197 175/185/183
f 163/172/184 175/185/183 176/186/185
f 164/173/186 176/186/185 177/187/187
f 177/187/187 178/199/200 166/188/189
f 166/188/189 178/199/200 179/189/190
f 179/189/190 180/201/202 168/190/192
f 168/190/192 180/201/202 169/178/173
f 181/191/193 182/206/237 170/192/194
f 170/192/194 182/206/237 183/193/195
f 183/193/195 184/207/238 172/194/179
f 172/182/179 184/208/238 185/195/196
f 185/195/196 186/204/239 174/196/197
f 174/196/197 186/204/239 187/197/198
f 187/197/198 188/209/240 176/186/185
f 176/186/185 188/209/240 189/198/199
f 189/198/199 190/203/241 178/199/200
f 178/199/200 190/203/241 191/200/201
f 191/200/201 192/210/242 180/201/202
f 180/201/202 192/210/242 181/191/193
s 0
f 12/20/203 1/1/203 2/3/203
f 2/3/203 3/4/203 4/6/203
f 4/9/203 5/8/203 6/11/203
f 6/11/203 7/12/203 8/14/203
f 8/14/203 9/15/203 10/17/203
f 10/17/203 11/18/203 12/20/203
f 12/20/203 2/3/203 4/6/203
f 4/9/203 6/11/203 8/14/203
f 8/14/203 10/17/203 12/20/203
f 182/206/204 181/191/204 192/210/204
f 192/210/204 191/200/204 190/203/204
f 190/203/204 189/198/204 188/209/204
f 188/209/204 187/197/204 186/204/204
f 186/204/204 185/195/204 184/208/204
f 184/207/204 183/193/204 182/206/204
f 182/206/204 192/210/204 190/203/204
f 190/203/204 188/209/204 186/204/204
f 186/204/204 184/208/204 182/205/204
