# Blender 5.0.1
# www.blender.org
mtllib boss_trophy_b.mtl
o body
usemtl body
v -0.011214 0.630340 0.256793
v -0.005713 0.647450 0.254751
v 0.005501 0.647450 0.251371
v 0.011214 0.630340 0.250034
v 0.005713 0.613229 0.252076
v -0.005501 0.613229 0.255456
v -0.032225 0.628920 0.193819
v -0.025850 0.648082 0.191224
v -0.012664 0.648082 0.187643
v -0.005852 0.628920 0.186656
v -0.012227 0.609758 0.189251
v -0.025414 0.609758 0.192832
v -0.049528 0.624647 0.130601
v -0.042420 0.645779 0.126691
v -0.027210 0.645779 0.123152
v -0.019107 0.624647 0.123523
v -0.026214 0.603516 0.127432
v -0.041425 0.603516 0.130971
v -0.065604 0.615433 0.067627
v -0.057932 0.638348 0.061578
v -0.040767 0.638348 0.057836
v -0.031273 0.615433 0.060144
v -0.038945 0.592518 0.066194
v -0.056111 0.592518 0.069935
v -0.080967 0.600513 0.004693
v -0.072759 0.625015 -0.003763
v -0.053650 0.625015 -0.007746
v -0.042747 0.600513 -0.003274
v -0.050955 0.576010 0.005182
v -0.070065 0.576010 0.009166
v -0.095826 0.580651 -0.058226
v -0.087001 0.606708 -0.068784
v -0.065951 0.606708 -0.073024
v -0.053726 0.580651 -0.066707
v -0.062551 0.554593 -0.056148
v -0.083601 0.554593 -0.051908
v -0.110287 0.557936 -0.121083
v -0.100709 0.585763 -0.132989
v -0.077732 0.585763 -0.137548
v -0.064334 0.557936 -0.130201
v -0.073912 0.530108 -0.118295
v -0.096889 0.530108 -0.113736
v -0.010789 0.455718 0.266992
v -0.005394 0.471763 0.265527
v 0.005394 0.471763 0.262596
v 0.010789 0.455718 0.261130
v 0.005394 0.439674 0.262596
v -0.005394 0.439674 0.265527
v -0.030315 0.455718 0.202213
v -0.023871 0.473694 0.201109
v -0.011202 0.473694 0.198007
v -0.004977 0.455718 0.196009
v -0.011421 0.437743 0.197113
v -0.024090 0.437743 0.200215
v -0.046395 0.459142 0.137220
v -0.038709 0.478968 0.137558
v -0.024120 0.478968 0.134498
v -0.017217 0.459142 0.131100
v -0.024904 0.439316 0.130762
v -0.039493 0.439316 0.133822
v -0.061350 0.468496 0.072443
v -0.052323 0.489954 0.074891
v -0.035868 0.489954 0.071657
v -0.028439 0.468496 0.065976
v -0.037465 0.447038 0.063529
v -0.053921 0.447038 0.066762
v -0.075644 0.484696 0.007700
v -0.065264 0.507545 0.012492
v -0.046951 0.507545 0.009051
v -0.039018 0.484696 0.000818
v -0.049398 0.461847 -0.003974
v -0.067711 0.461847 -0.000533
v -0.089471 0.506827 -0.057029
v -0.077826 0.531024 -0.050261
v -0.057660 0.531024 -0.053924
v -0.049138 0.506827 -0.064354
v -0.060783 0.482630 -0.071122
v -0.080950 0.482630 -0.067459
v -0.102933 0.532381 -0.121705
v -0.090168 0.558178 -0.113839
v -0.068158 0.558178 -0.117776
v -0.058911 0.532381 -0.129579
v -0.071676 0.506585 -0.137445
v -0.093686 0.506585 -0.133508
v -0.011214 0.630340 0.250034
v -0.005501 0.647450 0.251371
v 0.005713 0.647450 0.254751
v 0.011214 0.630340 0.256793
v 0.005501 0.613229 0.255456
v -0.005713 0.613229 0.252076
v 0.005852 0.628920 0.186656
v 0.012664 0.648082 0.187643
v 0.025850 0.648082 0.191224
v 0.032225 0.628920 0.193819
v 0.025414 0.609758 0.192832
v 0.012227 0.609758 0.189251
v 0.019107 0.624647 0.123523
v 0.027210 0.645779 0.123152
v 0.042420 0.645779 0.126691
v 0.049528 0.624647 0.130601
v 0.041425 0.603516 0.130971
v 0.026214 0.603516 0.127432
v 0.031273 0.615433 0.060144
v 0.040767 0.638348 0.057836
v 0.057932 0.638348 0.061578
v 0.065604 0.615433 0.067627
v 0.056111 0.592518 0.069935
v 0.038945 0.592518 0.066194
v 0.042747 0.600513 -0.003274
v 0.053650 0.625015 -0.007746
v 0.072759 0.625015 -0.003763
v 0.080967 0.600513 0.004693
v 0.070065 0.576010 0.009166
v 0.050955 0.576010 0.005182
v 0.053726 0.580651 -0.066707
v 0.065951 0.606708 -0.073024
v 0.087001 0.606708 -0.068784
v 0.095826 0.580651 -0.058226
v 0.083601 0.554593 -0.051908
v 0.062551 0.554593 -0.056148
v 0.064334 0.557936 -0.130201
v 0.077732 0.585763 -0.137548
v 0.100709 0.585763 -0.132989
v 0.110287 0.557936 -0.121083
v 0.096889 0.530108 -0.113736
v 0.073912 0.530108 -0.118295
v -0.010789 0.455718 0.261130
v -0.005394 0.471763 0.262596
v 0.005394 0.471763 0.265527
v 0.010789 0.455718 0.266992
v 0.005394 0.439674 0.265527
v -0.005394 0.439674 0.262596
v 0.004977 0.455718 0.196009
v 0.011202 0.473694 0.198007
v 0.023871 0.473694 0.201109
v 0.030315 0.455718 0.202213
v 0.024090 0.437743 0.200215
v 0.011421 0.437743 0.197113
v 0.017217 0.459142 0.131100
v 0.024120 0.478968 0.134498
v 0.038709 0.478968 0.137558
v 0.046395 0.459142 0.137220
v 0.039493 0.439316 0.133822
v 0.024904 0.439316 0.130762
v 0.028439 0.468496 0.065976
v 0.035868 0.489954 0.071657
v 0.052323 0.489954 0.074891
v 0.061350 0.468496 0.072443
v 0.053921 0.447038 0.066762
v 0.037465 0.447038 0.063529
v 0.039018 0.484696 0.000818
v 0.046951 0.507545 0.009051
v 0.065264 0.507545 0.012492
v 0.075644 0.484696 0.007700
v 0.067711 0.461847 -0.000533
v 0.049398 0.461847 -0.003974
v 0.049138 0.506827 -0.064354
v 0.057660 0.531024 -0.053924
v 0.077826 0.531024 -0.050261
v 0.089471 0.506827 -0.057029
v 0.080950 0.482630 -0.067459
v 0.060783 0.482630 -0.071122
v 0.058911 0.532381 -0.129579
v 0.068158 0.558178 -0.117776
v 0.090168 0.558178 -0.113839
v 0.102933 0.532381 -0.121705
v 0.093686 0.506585 -0.133508
v 0.071676 0.506585 -0.137445
v 0.000000 0.581360 -0.204434
v 0.060097 0.545535 -0.152639
v -0.022954 0.523393 -0.152639
v -0.074283 0.581360 -0.152639
v -0.022954 0.639328 -0.152639
v 0.060097 0.617186 -0.152639
v 0.022954 0.523393 -0.068831
v -0.060097 0.545535 -0.068831
v -0.060097 0.617186 -0.068831
v 0.022954 0.639328 -0.068831
v 0.074283 0.581360 -0.068832
v 0.000000 0.581360 -0.017036
v -0.013492 0.547288 -0.190441
v 0.035324 0.560303 -0.190441
v 0.021832 0.526230 -0.159996
v 0.070648 0.581360 -0.159996
v 0.035324 0.602418 -0.190441
v -0.043663 0.581360 -0.190441
v -0.057155 0.547288 -0.159996
v -0.013492 0.615433 -0.190441
v -0.057155 0.615433 -0.159996
v 0.021832 0.636490 -0.159996
v 0.078987 0.560303 -0.110735
v 0.078987 0.602418 -0.110735
v 0.000000 0.513216 -0.110735
v 0.048816 0.526230 -0.110735
v -0.078987 0.560303 -0.110735
v -0.048816 0.526230 -0.110735
v -0.048816 0.636491 -0.110735
v -0.078987 0.602418 -0.110735
v 0.048816 0.636491 -0.110735
v 0.000000 0.649505 -0.110735
v 0.057155 0.547288 -0.061474
v -0.021832 0.526230 -0.061474
v -0.070648 0.581360 -0.061474
v -0.021832 0.636490 -0.061474
v 0.057155 0.615433 -0.061474
v 0.013492 0.547288 -0.031030
v 0.043663 0.581360 -0.031030
v -0.035324 0.560303 -0.031030
v -0.035324 0.602418 -0.031030
v 0.013492 0.615433 -0.031030
v -0.017468 0.611964 0.233075
v 0.000456 0.611964 0.235601
v -0.006749 0.564631 0.221870
v -0.016434 0.613935 0.225739
v 0.001490 0.613935 0.228265
v -0.005715 0.566602 0.214534
v -0.016330 0.472362 0.242972
v 0.000540 0.472362 0.245350
v -0.006482 0.513732 0.234136
v -0.015349 0.470641 0.236008
v 0.001521 0.470641 0.238386
v -0.005501 0.512011 0.227172
v -0.032024 0.610293 0.178744
v -0.014100 0.610293 0.181270
v -0.021305 0.562960 0.167539
v -0.030990 0.612263 0.171408
v -0.013066 0.612263 0.173934
v -0.020271 0.564930 0.160202
v -0.029821 0.472902 0.187115
v -0.012951 0.472902 0.189492
v -0.019973 0.514272 0.178279
v -0.028839 0.471181 0.180151
v -0.011970 0.471181 0.182528
v -0.018992 0.512551 0.171315
v -0.044960 0.606090 0.124413
v -0.027036 0.606090 0.126939
v -0.034241 0.558757 0.113207
v -0.043926 0.608061 0.117077
v -0.026002 0.608061 0.119602
v -0.033207 0.560728 0.105871
v -0.041810 0.476481 0.131257
v -0.024940 0.476481 0.133635
v -0.031963 0.517850 0.122421
v -0.040829 0.474760 0.124293
v -0.023959 0.474760 0.126671
v -0.030981 0.516129 0.115457
v -0.057093 0.598125 0.070081
v -0.039169 0.598125 0.072607
v -0.046374 0.550792 0.058876
v -0.056059 0.600096 0.062745
v -0.038135 0.600096 0.065271
v -0.045340 0.552763 0.051540
v -0.053055 0.484574 0.075400
v -0.036186 0.484574 0.077777
v -0.043208 0.525943 0.066564
v -0.052074 0.482852 0.068436
v -0.035204 0.482852 0.070813
v -0.042227 0.524222 0.059600
v -0.068697 0.585916 0.015750
v -0.050773 0.585916 0.018276
v -0.057978 0.538583 0.004545
v -0.067663 0.587887 0.008414
v -0.049739 0.587887 0.010940
v -0.056944 0.540554 -0.002791
v -0.063810 0.497759 0.019543
v -0.046941 0.497759 0.021920
v -0.053963 0.539128 0.010706
v -0.062829 0.496038 0.012578
v -0.045960 0.496038 0.014956
v -0.052982 0.537407 0.003742
v -0.079910 0.569829 -0.038581
v -0.061986 0.569829 -0.036055
v -0.069191 0.522496 -0.049787
v -0.078876 0.571800 -0.045917
v -0.060953 0.571800 -0.043391
v -0.068157 0.524467 -0.057123
v -0.074203 0.515598 -0.036315
v -0.057334 0.515598 -0.033938
v -0.064356 0.556967 -0.045151
v -0.073222 0.513877 -0.043279
v -0.056352 0.513877 -0.040902
v -0.063374 0.555246 -0.052115
v -0.090815 0.551002 -0.092912
v -0.072892 0.551002 -0.090387
v -0.080096 0.503669 -0.104118
v -0.089782 0.552973 -0.100249
v -0.071858 0.552973 -0.097723
v -0.079063 0.505640 -0.111454
v -0.084311 0.536725 -0.092172
v -0.067441 0.536725 -0.089795
v -0.074463 0.578095 -0.101009
v -0.083329 0.535004 -0.099136
v -0.066460 0.535004 -0.096759
v -0.073482 0.576374 -0.107973
v -0.000456 0.611964 0.235601
v 0.017468 0.611964 0.233075
v 0.006749 0.564631 0.221870
v -0.001490 0.613935 0.228265
v 0.016434 0.613935 0.225739
v 0.005715 0.566602 0.214534
v -0.000540 0.472362 0.245350
v 0.016330 0.472362 0.242972
v 0.006482 0.513732 0.234136
v -0.001521 0.470641 0.238386
v 0.015349 0.470641 0.236008
v 0.005501 0.512011 0.227172
v 0.014100 0.610293 0.181270
v 0.032024 0.610293 0.178744
v 0.021305 0.562960 0.167539
v 0.013066 0.612263 0.173934
v 0.030990 0.612263 0.171408
v 0.020271 0.564930 0.160202
v 0.012951 0.472902 0.189492
v 0.029821 0.472902 0.187115
v 0.019973 0.514272 0.178279
v 0.011970 0.471181 0.182528
v 0.028839 0.471181 0.180151
v 0.018992 0.512551 0.171315
v 0.027036 0.606090 0.126939
v 0.044960 0.606090 0.124413
v 0.034241 0.558757 0.113207
v 0.026002 0.608061 0.119602
v 0.043926 0.608061 0.117077
v 0.033207 0.560728 0.105871
v 0.024940 0.476481 0.133635
v 0.041810 0.476481 0.131257
v 0.031963 0.517850 0.122421
v 0.023959 0.474760 0.126671
v 0.040829 0.474760 0.124293
v 0.030981 0.516129 0.115457
v 0.039169 0.598125 0.072607
v 0.057093 0.598125 0.070081
v 0.046374 0.550792 0.058876
v 0.038135 0.600096 0.065271
v 0.056059 0.600096 0.062745
v 0.045340 0.552763 0.051540
v 0.036186 0.484574 0.077777
v 0.053055 0.484574 0.075400
v 0.043208 0.525943 0.066564
v 0.035204 0.482852 0.070813
v 0.052074 0.482852 0.068436
v 0.042227 0.524222 0.059600
v 0.050773 0.585916 0.018276
v 0.068697 0.585916 0.015750
v 0.057978 0.538583 0.004545
v 0.049739 0.587887 0.010940
v 0.067663 0.587887 0.008414
v 0.056944 0.540554 -0.002791
v 0.046941 0.497759 0.021920
v 0.063810 0.497759 0.019543
v 0.053963 0.539128 0.010706
v 0.045960 0.496038 0.014956
v 0.062829 0.496038 0.012578
v 0.052982 0.537407 0.003742
v 0.061986 0.569829 -0.036055
v 0.079910 0.569829 -0.038581
v 0.069191 0.522496 -0.049787
v 0.060953 0.571800 -0.043391
v 0.078876 0.571800 -0.045917
v 0.068157 0.524467 -0.057123
v 0.057334 0.515598 -0.033938
v 0.074203 0.515598 -0.036315
v 0.064356 0.556967 -0.045151
v 0.056352 0.513877 -0.040902
v 0.073222 0.513877 -0.043279
v 0.063374 0.555246 -0.052115
v 0.072892 0.551002 -0.090387
v 0.090815 0.551002 -0.092912
v 0.080096 0.503669 -0.104118
v 0.071858 0.552973 -0.097723
v 0.089782 0.552973 -0.100249
v 0.079063 0.505640 -0.111454
v 0.067441 0.536725 -0.089795
v 0.084311 0.536725 -0.092172
v 0.074463 0.578095 -0.101009
v 0.066460 0.535004 -0.096759
v 0.083329 0.535004 -0.099136
v 0.073482 0.576374 -0.107973
vn -0.2699 0.6571 0.7038
vn -0.9573 0.0053 0.2892
vn -0.5385 0.0132 0.8425
vn 0.5450 0.8251 -0.1489
vn -0.5586 0.8157 0.1502
vn 0.6138 0.6571 0.4376
vn 0.9719 0.0055 -0.2352
vn 0.6218 -0.6307 0.4642
vn 0.9140 0.0140 0.4054
vn -0.2629 -0.6306 0.7302
vn 0.5715 -0.8165 -0.0821
vn -0.5475 -0.8067 0.2223
vn -0.9673 0.0108 0.2533
vn -0.5641 0.8220 0.0786
vn 0.9800 0.0109 -0.1988
vn 0.5369 0.8248 -0.1773
vn 0.5888 -0.8082 -0.0126
vn -0.5380 -0.8055 0.2484
vn -0.9710 0.0142 0.2385
vn -0.5746 0.8184 0.0041
vn 0.9822 0.0147 -0.1872
vn 0.5219 0.8200 -0.2348
vn -0.5244 -0.7955 0.3036
vn 0.6005 -0.7974 0.0586
vn -0.9736 0.0151 0.2277
vn -0.5866 0.8072 -0.0654
vn 0.9836 0.0155 -0.1799
vn 0.5099 0.8086 -0.2936
vn -0.5102 -0.7816 0.3589
vn 0.6092 -0.7830 0.1258
vn -0.5952 0.7957 -0.1125
vn -0.9750 0.0138 0.2218
vn 0.5038 0.7967 -0.3340
vn 0.9848 0.0138 -0.1731
vn 0.6121 -0.7715 0.1733
vn -0.4988 -0.7705 0.3970
vn -0.5964 0.4367 -0.6735
vn -0.8821 -0.2066 -0.4233
vn 0.2941 0.4367 -0.8502
vn 0.6536 -0.2065 -0.7282
vn -0.5092 -0.8276 -0.2363
vn 0.3802 -0.8277 -0.4128
vn -0.5632 0.0008 0.8263
vn -0.5547 0.8097 0.1915
vn -0.9647 -0.0056 0.2634
vn -0.2850 0.6457 0.7084
vn 0.5688 0.8182 -0.0835
vn 0.9039 0.0009 0.4278
vn 0.6043 0.6457 0.4668
vn 0.6034 -0.6459 0.4676
vn 0.9773 -0.0053 -0.2118
vn -0.2840 -0.6459 0.7086
vn 0.5492 -0.8266 -0.1231
vn -0.5561 -0.8181 0.1469
vn -0.9731 -0.0121 0.2302
vn -0.5438 0.8078 0.2276
vn 0.5861 0.8102 -0.0082
vn 0.9837 -0.0120 -0.1794
vn -0.5615 -0.8246 0.0689
vn 0.5382 -0.8272 -0.1617
vn -0.9762 -0.0158 0.2162
vn -0.5288 0.7959 0.2947
vn 0.9854 -0.0162 -0.1693
vn 0.5986 0.7977 0.0734
vn -0.5726 -0.8197 -0.0164
vn 0.5217 -0.8211 -0.2314
vn -0.9785 -0.0164 0.2058
vn -0.5133 0.7788 0.3606
vn 0.9865 -0.0167 -0.1631
vn 0.6075 0.7800 0.1501
vn -0.5852 -0.8052 -0.0959
vn 0.5089 -0.8064 -0.3012
vn -0.9796 -0.0144 0.2005
vn 0.6101 0.7656 0.2038
vn -0.5009 0.7647 0.4055
vn 0.9875 -0.0144 -0.1569
vn 0.5027 -0.7910 -0.3487
vn -0.5944 -0.7902 -0.1493
vn -0.8729 0.2243 -0.4332
vn -0.4979 0.8382 -0.2226
vn 0.6685 0.2243 -0.7091
vn 0.3897 0.8382 -0.3815
vn 0.3050 -0.4126 -0.8583
vn -0.5836 -0.4126 -0.6994
vn -0.6138 0.6571 0.4376
vn -0.9719 0.0055 -0.2352
vn -0.9140 0.0140 0.4054
vn 0.2699 0.6571 0.7038
vn -0.5450 0.8251 -0.1489
vn 0.9573 0.0053 0.2892
vn 0.5586 0.8157 0.1502
vn 0.5385 0.0132 0.8425
vn 0.5475 -0.8067 0.2223
vn 0.2629 -0.6306 0.7302
vn -0.5715 -0.8165 -0.0821
vn -0.6218 -0.6307 0.4642
vn -0.9800 0.0109 -0.1988
vn 0.5641 0.8220 0.0786
vn -0.5369 0.8248 -0.1773
vn 0.9673 0.0108 0.2533
vn 0.5380 -0.8055 0.2484
vn -0.5888 -0.8082 -0.0126
vn -0.9822 0.0147 -0.1872
vn 0.5746 0.8184 0.0041
vn -0.5219 0.8200 -0.2348
vn 0.9710 0.0142 0.2385
vn 0.5244 -0.7955 0.3036
vn -0.6005 -0.7974 0.0586
vn -0.9836 0.0155 -0.1799
vn 0.5866 0.8072 -0.0654
vn -0.5099 0.8086 -0.2936
vn 0.9736 0.0151 0.2277
vn 0.5102 -0.7816 0.3589
vn -0.6092 -0.7830 0.1258
vn -0.5038 0.7967 -0.3340
vn -0.9848 0.0138 -0.1731
vn 0.5952 0.7957 -0.1125
vn 0.9750 0.0138 0.2218
vn -0.6121 -0.7715 0.1733
vn 0.4988 -0.7705 0.3970
vn -0.2941 0.4367 -0.8502
vn -0.6536 -0.2065 -0.7281
vn 0.5964 0.4367 -0.6735
vn 0.8821 -0.2066 -0.4234
vn 0.5092 -0.8276 -0.2363
vn -0.3802 -0.8277 -0.4128
vn -0.9039 0.0009 0.4278
vn -0.5688 0.8182 -0.0835
vn -0.9773 -0.0053 -0.2118
vn 0.2850 0.6457 0.7084
vn -0.6043 0.6457 0.4668
vn 0.5632 0.0008 0.8263
vn 0.5547 0.8097 0.1915
vn 0.2840 -0.6459 0.7086
vn 0.9647 -0.0056 0.2634
vn -0.5492 -0.8266 -0.1231
vn 0.5561 -0.8181 0.1469
vn -0.6034 -0.6459 0.4676
vn -0.5861 0.8102 -0.0082
vn -0.9837 -0.0120 -0.1794
vn 0.5438 0.8078 0.2276
vn 0.9731 -0.0121 0.2302
vn 0.5615 -0.8246 0.0689
vn -0.5382 -0.8272 -0.1617
vn -0.9854 -0.0162 -0.1693
vn 0.5288 0.7959 0.2947
vn -0.5986 0.7977 0.0734
vn 0.9762 -0.0158 0.2162
vn 0.5726 -0.8197 -0.0164
vn -0.5217 -0.8211 -0.2314
vn -0.9865 -0.0167 -0.1631
vn 0.5133 0.7788 0.3606
vn -0.6075 0.7800 0.1501
vn 0.9785 -0.0164 0.2058
vn 0.5852 -0.8052 -0.0959
vn -0.5089 -0.8064 -0.3012
vn -0.9875 -0.0144 -0.1569
vn -0.6101 0.7656 0.2038
vn 0.9796 -0.0144 0.2005
vn 0.5009 0.7647 0.4055
vn 0.5944 -0.7902 -0.1493
vn -0.5027 -0.7910 -0.3487
vn -0.6686 0.2242 -0.7090
vn 0.4979 0.8382 -0.2226
vn -0.3897 0.8382 -0.3814
vn 0.8729 0.2243 -0.4332
vn 0.5836 -0.4126 -0.6994
vn -0.3050 -0.4127 -0.8583
vn 0.0006 -0.0000 -1.0000
vn 0.4495 -0.3741 -0.8112
vn -0.1679 -0.5941 -0.7867
vn 0.7014 -0.5957 -0.3914
vn 0.8713 -0.0000 -0.4907
vn -0.5630 -0.0000 -0.8264
vn -0.1679 0.5941 -0.7867
vn 0.4495 0.3741 -0.8112
vn 0.9359 -0.3524 -0.0014
vn -0.2483 -0.8984 -0.3622
vn 0.2395 -0.8666 -0.4378
vn -0.0000 -1.0000 -0.0000
vn -0.9114 -0.0000 -0.4115
vn -0.6731 -0.5716 -0.4692
vn -0.9359 -0.3524 0.0014
vn -0.2483 0.8984 -0.3622
vn -0.6731 0.5716 -0.4692
vn -0.5278 0.8494 -0.0017
vn 0.7014 0.5957 -0.3914
vn 0.2395 0.8666 -0.4378
vn 0.5278 0.8494 0.0017
vn 0.5278 -0.8494 0.0017
vn -0.5278 -0.8494 -0.0017
vn -0.9359 0.3523 0.0014
vn -0.0000 1.0000 -0.0000
vn 0.9359 0.3523 -0.0014
vn 0.2483 -0.8984 0.3622
vn 0.6731 -0.5716 0.4692
vn 0.1679 -0.5941 0.7867
vn -0.7014 -0.5957 0.3914
vn -0.2395 -0.8666 0.4378
vn -0.4495 -0.3741 0.8112
vn -0.7014 0.5957 0.3914
vn -0.8713 -0.0000 0.4907
vn -0.4495 0.3741 0.8112
vn 0.2483 0.8984 0.3622
vn -0.2395 0.8666 0.4378
vn 0.1679 0.5941 0.7867
vn 0.9114 -0.0000 0.4115
vn 0.6731 0.5716 0.4692
vn 0.5630 -0.0000 0.8264
vn -0.0006 -0.0000 1.0000
vn -0.1349 -0.2571 0.9569
vn 0.1349 0.2571 -0.9569
vn -0.0359 0.9664 0.2546
vn 0.9803 -0.1756 0.0910
vn -0.9672 -0.1756 -0.1835
vn -0.1355 0.2377 0.9618
vn 0.1355 -0.2377 -0.9618
vn -0.0332 -0.9713 0.2354
vn 0.9775 0.1905 0.0907
vn -0.9645 0.1905 -0.1830
vn 0.1349 -0.2571 0.9569
vn -0.1349 0.2571 -0.9569
vn 0.0359 0.9664 0.2546
vn 0.9672 -0.1756 -0.1835
vn -0.9802 -0.1756 0.0910
vn 0.1355 0.2377 0.9618
vn -0.1355 -0.2377 -0.9618
vn 0.0332 -0.9713 0.2354
vn 0.9645 0.1905 -0.1830
vn -0.9775 0.1905 0.0907
vn 0.0359 0.9664 0.2545
vn -0.9803 -0.1756 0.0910
vn 0.9802 -0.1756 0.0910
vn -0.0359 0.9664 0.2545
vt 0.919014 2.335678
vt 0.699203 2.268831
vt 0.926382 2.273952
vt -0.020611 0.919014
vt -0.045684 0.676922
vt -0.093256 0.689843
vt -0.906823 2.335678
vt -0.673362 2.268831
vt -0.676922 2.337957
vt -0.909366 2.212226
vt -0.901999 2.273952
vt -0.019844 -0.921558
vt -0.044109 -0.682723
vt 0.020611 -0.909366
vt 0.695643 2.199704
vt 0.921558 2.212226
vt 0.689843 2.337957
vt 0.471143 2.253417
vt -0.153031 0.457040
vt -0.445608 2.253417
vt -0.444273 2.329649
vt -0.459711 2.177185
vt -0.149439 -0.472478
vt -0.094568 -0.459711
vt 0.472478 2.177185
vt 0.457040 2.329649
vt 0.243965 2.220176
vt -0.098161 0.444273
vt -0.208990 0.222143
vt -0.216971 2.220176
vt -0.208645 2.302843
vt -0.202419 -0.252291
vt -0.140494 -0.238794
vt 0.252291 2.137509
vt 0.222143 2.302843
vt 0.016931 2.166351
vt -0.147065 0.208645
vt -0.262480 -0.013574
vt 0.011809 2.166351
vt 0.027944 2.254743
vt -0.238794 2.137509
vt -0.252758 -0.033065
vt -0.183819 -0.018695
vt 0.033065 2.077959
vt -0.248138 2.188700
vt -0.210049 2.094699
vt -0.193541 -0.027944
vt -0.313856 -0.248138
vt 0.263436 2.188700
vt -0.018695 2.077959
vt 0.240644 2.094699
vt -0.225654 0.202555
vt -0.187257 2.000698
vt -0.479759 2.113143
vt -0.436808 2.012755
vt -0.237918 -0.263436
vt -0.363308 -0.479759
vt 0.496204 2.113143
vt 0.202555 2.000698
vt 0.469700 2.012755
vt -0.349528 0.410303
vt -0.266638 0.426749
vt -0.410303 1.912366
vt 0.040455 2.273952
vt 0.019844 2.335678
vt -0.020611 2.335678
vt 0.232084 2.012755
vt 0.266638 1.912366
vt 0.349528 1.912366
vt 0.963176 1.644006
vt 0.725500 1.708852
vt 0.729483 1.644006
vt -0.019461 0.957889
vt -0.040410 0.714309
vt -0.086114 0.725500
vt -0.942028 1.644006
vt -0.714309 1.708852
vt -0.947315 1.701887
vt -0.947315 1.586124
vt -0.707102 1.644006
vt -0.019461 -0.957889
vt -0.041200 -0.711085
vt 0.019461 -0.947315
vt 0.957889 1.586124
vt 0.722275 1.579160
vt 0.495023 1.656357
vt -0.139643 0.496241
vt -0.485202 1.727879
vt -0.711085 1.579160
vt -0.472943 1.656357
vt -0.142470 -0.482765
vt -0.089840 -0.471725
vt 0.482765 1.584834
vt 0.496241 1.727879
vt 0.261338 1.690099
vt -0.087013 0.485202
vt -0.188757 0.270168
vt -0.238009 1.690099
vt -0.258504 1.767509
vt -0.471725 1.584834
vt -0.194519 -0.240844
vt -0.135156 -0.229180
vt 0.240844 1.612690
vt 0.270168 1.767509
vt 0.027779 1.748544
vt -0.129394 0.258504
vt -0.235438 0.045065
vt -0.002950 1.748544
vt -0.032651 1.830972
vt -0.229180 1.612690
vt -0.244268 0.001922
vt -0.178204 0.014336
vt -0.001922 1.666116
vt 0.045065 1.830972
vt -0.205732 1.828380
vt -0.208007 -0.194531
vt -0.280759 -0.181318
vt 0.232157 1.828380
vt 0.194531 1.915671
vt 0.256571 1.741089
vt -0.292026 0.243359
vt -0.219274 0.256571
vt -0.243359 1.741089
vt -0.181318 1.915671
vt -0.439051 1.920568
vt -0.325282 -0.410674
vt 0.467456 1.920568
vt 0.424876 2.013628
vt 0.495834 1.827508
vt -0.337974 0.481631
vt -0.258570 0.495834
vt -0.481631 1.827508
vt 0.038921 1.644006
vt 0.019461 1.701887
vt -0.019461 1.701887
vt 0.212523 1.920568
vt 0.258570 1.827508
vt 0.337974 1.827508
vt 0.906823 2.335678
vt 0.673362 2.268831
vt 0.901999 2.273952
vt 0.020611 0.919014
vt 0.045684 0.676922
vt -0.019844 0.906823
vt -0.919014 2.335678
vt -0.699203 2.268831
vt -0.689843 2.337957
vt -0.926382 2.273952
vt -0.695643 2.199704
vt 0.019844 -0.921558
vt 0.044109 -0.682723
vt 0.091680 -0.695643
vt 0.909366 2.212226
vt 0.682723 2.199704
vt 0.676922 2.337957
vt 0.445608 2.253417
vt 0.153031 0.457040
vt 0.098161 0.444273
vt -0.471143 2.253417
vt -0.457040 2.329649
vt 0.149439 -0.472478
vt 0.459711 2.177185
vt 0.444273 2.329649
vt 0.216971 2.220176
vt 0.208990 0.222143
vt 0.147065 0.208645
vt -0.243965 2.220176
vt -0.222143 2.302843
vt -0.472478 2.177185
vt 0.094568 -0.459711
vt 0.202419 -0.252291
vt 0.238794 2.137509
vt 0.208645 2.302843
vt -0.011809 2.166351
vt 0.262480 -0.013574
vt 0.193541 -0.027944
vt -0.016931 2.166351
vt 0.013574 2.254743
vt -0.252291 2.137509
vt 0.140494 -0.238794
vt 0.252758 -0.033065
vt 0.018695 2.077959
vt -0.263436 2.188700
vt -0.240644 2.094699
vt 0.313856 -0.248138
vt 0.237918 -0.263436
vt 0.248138 2.188700
vt -0.033065 2.077959
vt 0.210049 2.094699
vt 0.225654 0.202555
vt 0.301591 0.187257
vt -0.202555 2.000698
vt -0.496204 2.113143
vt -0.469700 2.012755
vt 0.363308 -0.479759
vt 0.280419 -0.496204
vt 0.479759 2.113143
vt 0.187257 2.000698
vt 0.436808 2.012755
vt 0.349528 0.410303
vt -0.426749 1.912366
vt 0.020611 2.335678
vt -0.019844 2.335678
vt -0.397862 2.012755
vt -0.349528 1.912366
vt -0.266638 1.912366
vt 0.942028 1.644006
vt 0.714309 1.708852
vt 0.707102 1.644006
vt 0.019461 0.957889
vt 0.040410 0.714309
vt -0.019461 0.947315
vt -0.963176 1.644006
vt -0.725500 1.708852
vt -0.957889 1.701887
vt -0.957889 1.586124
vt -0.729483 1.644006
vt 0.019461 -0.957889
vt 0.041200 -0.711085
vt 0.086903 -0.722275
vt 0.947315 1.586124
vt 0.711085 1.579160
vt 0.485202 1.727879
vt 0.472943 1.656357
vt 0.139643 0.496241
vt 0.087013 0.485202
vt -0.495023 1.656357
vt -0.496241 1.727879
vt -0.722275 1.579160
vt 0.142470 -0.482765
vt 0.471725 1.584834
vt 0.238009 1.690099
vt 0.188757 0.270168
vt 0.129394 0.258504
vt -0.261338 1.690099
vt -0.270168 1.767509
vt -0.482765 1.584834
vt 0.089840 -0.471725
vt 0.194519 -0.240844
vt 0.229180 1.612690
vt 0.258504 1.767509
vt 0.002950 1.748544
vt 0.235438 0.045065
vt 0.169375 0.032651
vt -0.027779 1.748544
vt -0.045065 1.830972
vt -0.240844 1.612690
vt 0.135156 -0.229180
vt 0.244268 0.001922
vt -0.014336 1.666116
vt 0.032651 1.830972
vt -0.232157 1.828380
vt 0.208007 -0.194531
vt 0.205732 1.828380
vt 0.181318 1.915671
vt 0.243359 1.741089
vt 0.178204 0.014336
vt 0.292026 0.243359
vt -0.256571 1.741089
vt -0.194531 1.915671
vt -0.467456 1.920568
vt 0.325282 -0.410674
vt 0.245879 -0.424876
vt 0.439051 1.920568
vt 0.410674 2.013628
vt 0.481631 1.827508
vt 0.219274 0.256571
vt 0.337974 0.481631
vt -0.495834 1.827508
vt -0.371330 1.920568
vt -0.337974 1.827508
vt -0.258570 1.827508
vt -0.000000 2.097260
vt -0.127430 2.021295
vt 0.048673 1.974345
vt 0.550647 1.968019
vt 0.687016 2.021295
vt 0.577187 2.097260
vt 0.157513 2.097260
vt 0.048673 2.220175
vt -0.127430 2.173225
vt 0.399478 2.021294
vt -0.082808 0.550647
vt 0.078758 0.577188
vt 0.000000 0.399478
vt -0.550646 2.097260
vt -0.577187 1.974344
vt -0.399478 2.021294
vt -0.082808 -0.550647
vt -0.206187 -0.577187
vt -0.176106 -0.399478
vt 0.216799 -0.550647
vt 0.078758 -0.577188
vt 0.176106 -0.399478
vt 0.399478 1.898377
vt -0.176106 0.399478
vt -0.399478 2.173225
vt 0.000000 -0.399478
vt 0.550647 2.226500
vt 0.399478 2.296143
vt 0.399478 2.173225
vt 0.082808 0.248309
vt 0.206187 0.221769
vt 0.048673 0.111940
vt -0.216799 0.248309
vt -0.078758 0.221768
vt -0.127430 0.111940
vt -0.248309 2.226500
vt -0.221769 2.097260
vt -0.111940 2.173225
vt 0.082808 -0.248309
vt -0.078758 -0.221768
vt 0.048673 -0.111940
vt 0.248310 2.097260
vt 0.221769 2.220176
vt 0.111941 2.097260
vt 0.048673 2.220175
vt 0.206187 2.220176
vt 0.206187 -0.221769
vt -0.078758 2.296141
vt -0.216799 -0.248309
vt -0.127430 -0.111940
vt -0.254861 2.097260
vt -0.248309 1.968019
vt -0.111940 2.021295
vt 0.048673 1.974345
vt -0.078758 1.898378
vt 0.206187 1.974344
vt 0.221769 1.974344
vt 0.176106 0.399478
vt -0.399478 2.296143
vt -0.577187 2.220176
vt -0.399478 1.898377
vt -0.206187 0.577187
vt 0.216799 0.550647
vt 0.127430 -0.687016
vt -0.048673 -0.687016
vt -0.687015 2.097260
vt -0.048673 0.687016
vt 0.687016 2.173225
vt 0.127430 0.687016
vt -0.063015 2.207662
vt -0.024347 2.036909
vt 0.001645 2.207662
vt 0.020617 2.044019
vt 0.059286 2.214772
vt -0.005374 2.214772
vt 0.001645 0.849932
vt -0.059286 0.814355
vt -0.063015 0.840820
vt -0.800396 2.036909
vt -0.823467 2.214772
vt -0.849932 2.207662
vt 0.800396 2.036909
vt 0.814355 2.214772
vt 0.773931 2.044019
vt -0.058910 1.704047
vt 0.001947 1.704047
vt -0.023386 1.853288
vt 0.019845 1.847080
vt -0.005487 1.697838
vt 0.055370 1.697838
vt -0.058910 -0.876524
vt 0.005487 -0.859977
vt 0.001947 -0.885100
vt -0.859977 1.697838
vt -0.844647 1.853288
vt -0.885100 1.704047
vt 0.844647 1.853288
vt 0.851401 1.697838
vt 0.876524 1.704047
vt -0.115525 2.201632
vt -0.076856 2.030879
vt -0.050865 2.201632
vt 0.073127 2.037989
vt 0.111795 2.208742
vt 0.047135 2.208742
vt -0.115525 0.644820
vt -0.047135 0.627467
vt -0.111795 0.618355
vt -0.604396 2.030879
vt -0.627467 2.208742
vt -0.653932 2.201632
vt 0.604396 2.030879
vt 0.618355 2.208742
vt 0.577931 2.037989
vt -0.107578 1.705997
vt -0.046721 1.705997
vt -0.072053 1.855239
vt 0.068512 1.849030
vt 0.043180 1.699788
vt 0.104037 1.699788
vt -0.104037 -0.649895
vt -0.046721 -0.683594
vt -0.107578 -0.675018
vt -0.658471 1.699788
vt -0.643141 1.855239
vt -0.683594 1.705997
vt 0.643141 1.855239
vt 0.649895 1.699788
vt 0.675018 1.705997
vt -0.162192 2.186471
vt -0.123523 2.015718
vt -0.097531 2.186471
vt 0.119793 2.022827
vt 0.158462 2.193581
vt 0.093802 2.193581
vt -0.097531 0.457931
vt -0.158462 0.422354
vt -0.162192 0.448819
vt -0.408396 2.015718
vt -0.431466 2.193581
vt -0.457931 2.186471
vt 0.408396 2.015718
vt 0.422354 2.193581
vt 0.381931 2.022827
vt -0.150830 1.718905
vt -0.089973 1.718905
vt -0.115305 1.868147
vt 0.111765 1.861938
vt 0.086432 1.712697
vt 0.147289 1.712697
vt -0.147289 -0.448389
vt -0.089973 -0.482088
vt -0.150830 -0.473512
vt -0.456965 1.712697
vt -0.441635 1.868147
vt -0.482088 1.718905
vt 0.441635 1.868147
vt 0.448389 1.712697
vt 0.473512 1.718905
vt -0.205962 2.157737
vt -0.167293 1.986984
vt -0.141302 2.157737
vt 0.163564 1.994093
vt 0.202233 2.164847
vt 0.137572 2.164847
vt -0.141302 0.261931
vt -0.202233 0.226354
vt -0.205962 0.252819
vt -0.212395 1.986984
vt -0.235466 2.164847
vt -0.261931 2.157737
vt 0.212395 1.986984
vt 0.226354 2.164847
vt 0.185930 1.994093
vt -0.191397 1.748101
vt -0.130541 1.748101
vt -0.155873 1.897342
vt 0.152332 1.891134
vt 0.127000 1.741892
vt 0.187857 1.741892
vt -0.191397 -0.272006
vt -0.127000 -0.255459
vt -0.130541 -0.280582
vt -0.280582 1.748101
vt -0.215006 1.891134
vt -0.240129 1.897342
vt 0.215006 1.891134
vt 0.272006 1.748101
vt 0.240129 1.897342
vt -0.247824 2.113695
vt -0.209155 1.942942
vt -0.183164 2.113695
vt 0.205426 1.950051
vt 0.244095 2.120805
vt 0.179434 2.120805
vt -0.183164 0.065931
vt -0.244095 0.030354
vt -0.247824 0.056819
vt -0.016395 1.942942
vt -0.039466 2.120805
vt -0.065931 2.113695
vt 0.016395 1.942942
vt 0.030354 2.120805
vt -0.010070 1.950051
vt -0.230197 1.795666
vt -0.169340 1.795666
vt -0.194672 1.944907
vt 0.191131 1.938699
vt 0.165799 1.789457
vt 0.226656 1.789457
vt -0.226656 -0.045377
vt -0.169340 -0.079076
vt -0.230197 -0.070500
vt -0.053953 1.789457
vt -0.038623 1.944907
vt -0.079076 1.795666
vt 0.038623 1.944907
vt 0.045377 1.789457
vt 0.070500 1.795666
vt -0.288276 2.055661
vt -0.249608 1.884908
vt -0.223616 2.055661
vt 0.245878 1.892018
vt 0.284547 2.062771
vt 0.219886 2.062771
vt -0.288276 -0.139182
vt -0.219886 -0.156535
vt -0.284547 -0.165647
vt 0.179605 1.884908
vt 0.156535 2.062771
vt 0.130069 2.055661
vt -0.139182 2.055661
vt -0.206070 1.892018
vt -0.179605 1.884908
vt -0.267689 1.860021
vt -0.206832 1.860021
vt -0.232164 2.009262
vt 0.228624 2.003054
vt 0.203291 1.853812
vt 0.264148 1.853812
vt -0.264148 0.156129
vt -0.206832 0.122430
vt -0.267689 0.131006
vt 0.122430 1.860021
vt 0.188006 2.003054
vt 0.162883 2.009262
vt -0.162883 2.009262
vt -0.156129 1.853812
vt -0.131006 1.860021
vt -0.327617 1.987743
vt -0.288948 1.816989
vt -0.262957 1.987743
vt 0.285219 1.824099
vt 0.323888 1.994852
vt 0.259227 1.994852
vt -0.262957 -0.326070
vt -0.323888 -0.361647
vt -0.327617 -0.335182
vt 0.375606 1.816989
vt 0.352535 1.994852
vt 0.326070 1.987743
vt -0.335182 1.987743
vt -0.402071 1.824099
vt -0.375606 1.816989
vt -0.304151 1.936238
vt -0.243294 1.936238
vt -0.268626 2.085480
vt 0.265086 2.079271
vt 0.239754 1.930029
vt 0.300611 1.930029
vt -0.300611 0.357635
vt -0.243294 0.323936
vt -0.304151 0.332512
vt 0.323936 1.936238
vt 0.389512 2.079271
vt 0.364389 2.085480
vt -0.364389 2.085480
vt -0.357635 1.930029
vt -0.332512 1.936238
vt -0.001645 2.207662
vt 0.024347 2.036909
vt 0.063015 2.207662
vt -0.020617 2.044019
vt 0.005374 2.214772
vt -0.059286 2.214772
vt -0.001645 0.849932
vt 0.059286 0.814355
vt -0.005374 0.823467
vt -0.814355 2.214772
vt -0.840820 2.207662
vt 0.823467 2.214772
vt -0.001947 1.704047
vt 0.058910 1.704047
vt 0.023386 1.853288
vt -0.019845 1.847080
vt -0.055370 1.697838
vt 0.005487 1.697838
vt -0.005487 -0.859977
vt 0.058910 -0.876524
vt -0.001947 -0.885100
vt -0.851401 1.697838
vt -0.876524 1.704047
vt 0.859977 1.697838
vt 0.885100 1.704047
vt 0.050865 2.201632
vt 0.076856 2.030879
vt 0.115525 2.201632
vt -0.073127 2.037989
vt -0.047135 2.208742
vt -0.111795 2.208742
vt 0.115525 0.644820
vt 0.047135 0.627467
vt 0.050865 0.653932
vt -0.618355 2.208742
vt -0.644820 2.201632
vt 0.627467 2.208742
vt 0.046721 1.705997
vt 0.107578 1.705997
vt 0.072053 1.855239
vt -0.068512 1.849030
vt -0.104037 1.699788
vt -0.043180 1.699788
vt 0.046721 -0.683594
vt 0.104037 -0.649895
vt 0.107578 -0.675018
vt -0.649895 1.699788
vt -0.675018 1.705997
vt 0.658471 1.699788
vt 0.683594 1.705997
vt 0.097531 2.186471
vt 0.123523 2.015718
vt 0.162192 2.186471
vt -0.119793 2.022827
vt -0.093802 2.193581
vt -0.158462 2.193581
vt 0.097531 0.457931
vt 0.158462 0.422354
vt 0.093802 0.431466
vt -0.422354 2.193581
vt -0.448819 2.186471
vt 0.431466 2.193581
vt 0.089973 1.718905
vt 0.150830 1.718905
vt 0.115305 1.868147
vt -0.111765 1.861938
vt -0.147289 1.712697
vt -0.086432 1.712697
vt 0.089973 -0.482088
vt 0.147289 -0.448389
vt 0.150830 -0.473512
vt -0.448389 1.712697
vt -0.473512 1.718905
vt 0.456965 1.712697
vt 0.482088 1.718905
vt 0.141302 2.157737
vt 0.167293 1.986984
vt 0.205962 2.157737
vt -0.163564 1.994093
vt -0.137572 2.164847
vt -0.202233 2.164847
vt 0.141302 0.261931
vt 0.202233 0.226354
vt 0.137572 0.235466
vt -0.226354 2.164847
vt -0.252819 2.157737
vt 0.235466 2.164847
vt 0.130541 1.748101
vt 0.191397 1.748101
vt 0.155873 1.897342
vt -0.152332 1.891134
vt -0.187857 1.741892
vt -0.127000 1.741892
vt 0.127000 -0.255459
vt 0.191397 -0.272006
vt 0.130541 -0.280582
vt -0.246883 1.741892
vt -0.272006 1.748101
vt 0.280582 1.748101
vt 0.183164 2.113695
vt 0.209155 1.942942
vt 0.247824 2.113695
vt -0.205426 1.950051
vt -0.179434 2.120805
vt -0.244095 2.120805
vt 0.183164 0.065931
vt 0.244095 0.030354
vt 0.179434 0.039466
vt -0.030354 2.120805
vt -0.056819 2.113695
vt 0.039466 2.120805
vt 0.169340 1.795666
vt 0.230197 1.795666
vt 0.194672 1.944907
vt -0.191131 1.938699
vt -0.226656 1.789457
vt -0.165799 1.789457
vt 0.165799 -0.053953
vt 0.230197 -0.070500
vt 0.169340 -0.079076
vt -0.045377 1.789457
vt -0.070500 1.795666
vt 0.053953 1.789457
vt 0.079076 1.795666
vt 0.223616 2.055661
vt 0.249608 1.884908
vt 0.288276 2.055661
vt -0.245878 1.892018
vt -0.219886 2.062771
vt -0.284547 2.062771
vt 0.288276 -0.139182
vt 0.219886 -0.156535
vt 0.223616 -0.130069
vt 0.139182 2.055661
vt 0.206070 1.892018
vt 0.165647 2.062771
vt -0.156535 2.062771
vt 0.206832 1.860021
vt 0.267689 1.860021
vt 0.232164 2.009262
vt -0.228624 2.003054
vt -0.264148 1.853812
vt -0.203291 1.853812
vt 0.203291 0.147553
vt 0.267689 0.131006
vt 0.206832 0.122430
vt 0.156129 1.853812
vt 0.131006 1.860021
vt -0.188006 2.003054
vt -0.122430 1.860021
vt 0.262957 1.987743
vt 0.288948 1.816989
vt 0.327617 1.987743
vt -0.285219 1.824099
vt -0.259227 1.994852
vt -0.323888 1.994852
vt 0.262957 -0.326070
vt 0.323888 -0.361647
vt 0.259227 -0.352535
vt 0.335182 1.987743
vt 0.402071 1.824099
vt 0.361647 1.994852
vt -0.352535 1.994852
vt 0.243294 1.936238
vt 0.304151 1.936238
vt 0.268626 2.085480
vt -0.265086 2.079271
vt -0.300611 1.930029
vt -0.239754 1.930029
vt 0.243294 0.323936
vt 0.300611 0.357635
vt 0.304151 0.332512
vt 0.357635 1.930029
vt 0.332512 1.936238
vt -0.389512 2.079271
vt -0.323936 1.936238
vt 0.019844 0.906823
vt -0.682723 2.199704
vt -0.091680 -0.695643
vt -0.013574 2.254743
vt -0.301591 0.187257
vt -0.280419 -0.496204
vt 0.426749 1.912366
vt -0.040455 2.273952
vt -0.019844 2.212226
vt 0.020611 2.212226
vt 0.397862 2.012755
vt 0.363308 2.113143
vt 0.280419 2.113143
vt 0.957889 1.701887
vt 0.019461 0.947315
vt -0.086903 -0.722275
vt -0.169375 0.032651
vt 0.014336 1.666116
vt -0.410674 2.013628
vt -0.245879 -0.424876
vt -0.038921 1.644006
vt -0.019461 1.586124
vt 0.019461 1.586124
vt 0.371330 1.920568
vt 0.325282 2.013628
vt 0.245879 2.013628
vt 0.093256 0.689843
vt -0.921558 2.212226
vt -0.020611 -0.909366
vt -0.027944 2.254743
vt 0.183819 -0.018695
vt 0.410303 1.912366
vt 0.266638 0.426749
vt -0.020611 2.212226
vt 0.019844 2.212226
vt -0.232084 2.012755
vt -0.280419 2.113143
vt -0.363308 2.113143
vt 0.947315 1.701887
vt 0.086114 0.725500
vt -0.019461 -0.947315
vt 0.001922 1.666116
vt 0.280759 -0.181318
vt -0.424876 2.013628
vt 0.258570 0.495834
vt -0.212523 1.920568
vt -0.245879 2.013628
vt -0.325282 2.013628
vt 0.005374 0.823467
vt -0.773931 2.044019
vt 0.840820 2.207662
vt -0.055370 -0.851401
vt -0.819524 1.847080
vt 0.819524 1.847080
vt -0.050865 0.653932
vt -0.577931 2.037989
vt 0.644820 2.201632
vt -0.043180 -0.658471
vt -0.618018 1.849030
vt 0.618018 1.849030
vt -0.093802 0.431466
vt -0.381931 2.022827
vt 0.448819 2.186471
vt -0.086432 -0.456965
vt -0.416512 1.861938
vt 0.416512 1.861938
vt -0.137572 0.235466
vt -0.185930 1.994093
vt 0.252819 2.157737
vt -0.187857 -0.246883
vt -0.255459 1.741892
vt 0.246883 1.741892
vt -0.179434 0.039466
vt 0.010070 1.950051
vt 0.056819 2.113695
vt -0.165799 -0.053953
vt -0.013500 1.938699
vt 0.013500 1.938699
vt -0.223616 -0.130069
vt -0.165647 2.062771
vt -0.203291 0.147553
vt 0.147553 1.853812
vt -0.259227 -0.352535
vt -0.361647 1.994852
vt -0.239754 0.349059
vt 0.349059 1.930029
vt 0.063015 0.840820
vt 0.849932 2.207662
vt 0.055370 -0.851401
vt 0.111795 0.618355
vt 0.653932 2.201632
vt 0.043180 -0.658471
vt 0.162192 0.448819
vt 0.457931 2.186471
vt 0.086432 -0.456965
vt 0.205962 0.252819
vt 0.261931 2.157737
vt 0.187857 -0.246883
vt 0.255459 1.741892
vt 0.247824 0.056819
vt 0.065931 2.113695
vt 0.226656 -0.045377
vt 0.284547 -0.165647
vt -0.130069 2.055661
vt 0.264148 0.156129
vt -0.147553 1.853812
vt 0.327617 -0.335182
vt -0.326070 1.987743
vt 0.239754 0.349059
vt -0.349059 1.930029
s 1
f 2/1/1 7/2/2 1/3/3
f 2/4/1 9/5/4 8/6/5
f 3/7/6 10/8/7 9/9/4
f 5/10/8 10/8/7 4/11/9
f 6/12/10 11/13/11 5/14/8
f 1/3/3 12/15/12 6/16/10
f 8/17/5 13/18/13 7/2/2
f 9/5/4 14/19/14 8/6/5
f 9/9/4 16/20/15 15/21/16
f 10/8/7 17/22/17 16/20/15
f 11/13/11 18/23/18 17/24/17
f 12/15/12 13/18/13 18/25/18
f 14/26/14 19/27/19 13/18/13
f 15/28/16 20/29/20 14/19/14
f 15/21/16 22/30/21 21/31/22
f 17/22/17 22/30/21 16/20/15
f 17/24/17 24/32/23 23/33/24
f 18/25/18 19/27/19 24/34/23
f 20/35/20 25/36/25 19/27/19
f 21/37/22 26/38/26 20/29/20
f 21/31/22 28/39/27 27/40/28
f 23/41/24 28/39/27 22/30/21
f 23/33/24 30/42/29 29/43/30
f 24/34/23 25/36/25 30/44/29
f 25/36/25 32/45/31 31/46/32
f 27/47/28 32/48/31 26/38/26
f 28/39/27 33/49/33 27/40/28
f 29/50/30 34/51/34 28/39/27
f 30/42/29 35/52/35 29/43/30
f 30/44/29 31/46/32 36/53/36
f 31/46/32 38/54/37 37/55/38
f 33/56/33 38/57/37 32/48/31
f 34/51/34 39/58/39 33/49/33
f 35/59/35 40/60/40 34/51/34
f 35/52/35 42/61/41 41/62/42
f 36/53/36 37/55/38 42/63/41
f 4/64/9 3/65/6 2/66/1
f 40/67/40 41/68/42 42/69/41
f 43/70/43 50/71/44 49/72/45
f 44/73/46 51/74/47 50/75/44
f 46/76/48 51/77/47 45/78/49
f 47/79/50 52/80/51 46/76/48
f 48/81/52 53/82/53 47/83/50
f 48/84/52 49/72/45 54/85/54
f 50/71/44 55/86/55 49/72/45
f 51/74/47 56/87/56 50/75/44
f 52/80/51 57/88/57 51/77/47
f 53/89/53 58/90/58 52/80/51
f 53/82/53 60/91/59 59/92/60
f 54/85/54 55/86/55 60/93/59
f 56/94/56 61/95/61 55/86/55
f 57/96/57 62/97/62 56/87/56
f 57/88/57 64/98/63 63/99/64
f 59/100/60 64/98/63 58/90/58
f 59/92/60 66/101/65 65/102/66
f 60/93/59 61/95/61 66/103/65
f 62/104/62 67/105/67 61/95/61
f 63/106/64 68/107/68 62/97/62
f 63/99/64 70/108/69 69/109/70
f 65/110/66 70/108/69 64/98/63
f 65/102/66 72/111/71 71/112/72
f 66/103/65 67/105/67 72/113/71
f 68/114/68 73/115/73 67/105/67
f 68/107/68 75/116/74 74/117/75
f 69/109/70 76/118/76 75/119/74
f 70/108/69 77/120/77 76/118/76
f 71/112/72 78/121/78 77/122/77
f 67/105/67 78/123/78 72/113/71
f 74/124/75 79/125/79 73/115/73
f 75/116/74 80/126/80 74/117/75
f 75/119/74 82/127/81 81/128/82
f 76/118/76 83/129/83 82/127/81
f 77/122/77 84/130/84 83/131/83
f 73/115/73 84/132/84 78/123/78
f 46/133/48 45/134/49 44/135/46
f 82/136/81 83/137/83 84/138/84
f 86/139/85 91/140/86 85/141/87
f 87/142/88 92/143/89 86/144/85
f 87/145/88 94/146/90 93/147/91
f 88/148/92 95/149/93 94/146/90
f 89/150/94 96/151/95 95/152/93
f 90/153/96 91/140/86 96/154/95
f 92/155/89 97/156/97 91/140/86
f 92/143/89 99/157/98 98/158/99
f 93/147/91 100/159/100 99/160/98
f 95/149/93 100/159/100 94/146/90
f 96/151/95 101/161/101 95/152/93
f 91/140/86 102/162/102 96/154/95
f 98/163/99 103/164/103 97/156/97
f 98/158/99 105/165/104 104/166/105
f 99/160/98 106/167/106 105/168/104
f 101/169/101 106/167/106 100/159/100
f 102/170/102 107/171/107 101/161/101
f 102/162/102 103/164/103 108/172/108
f 104/173/105 109/174/109 103/164/103
f 104/166/105 111/175/110 110/176/111
f 105/168/104 112/177/112 111/178/110
f 107/179/107 112/177/112 106/167/106
f 108/180/108 113/181/113 107/171/107
f 108/172/108 109/174/109 114/182/114
f 109/174/109 116/183/115 115/184/116
f 110/176/111 117/185/117 116/186/115
f 112/177/112 117/187/117 111/178/110
f 113/188/113 118/189/118 112/177/112
f 113/181/113 120/190/119 119/191/120
f 114/182/114 115/184/116 120/192/119
f 115/184/116 122/193/121 121/194/122
f 116/186/115 123/195/123 122/196/121
f 118/189/118 123/197/123 117/187/117
f 119/198/120 124/199/124 118/189/118
f 120/190/119 125/200/125 119/191/120
f 120/192/119 121/194/122 126/201/126
f 88/64/92 87/202/88 86/203/85
f 124/204/124 125/205/125 126/206/126
f 127/207/127 134/208/128 133/209/129
f 129/210/130 134/211/128 128/212/131
f 130/213/132 135/214/133 129/215/130
f 131/216/134 136/217/135 130/213/132
f 131/218/134 138/219/136 137/220/137
f 132/221/138 133/209/129 138/222/136
f 133/209/129 140/223/139 139/224/140
f 134/211/128 141/225/141 140/226/139
f 135/214/133 142/227/142 141/228/141
f 137/229/137 142/227/142 136/217/135
f 138/219/136 143/230/143 137/220/137
f 138/222/136 139/224/140 144/231/144
f 140/223/139 145/232/145 139/224/140
f 140/226/139 147/233/146 146/234/147
f 141/228/141 148/235/148 147/236/146
f 143/237/143 148/235/148 142/227/142
f 144/238/144 149/239/149 143/230/143
f 144/231/144 145/232/145 150/240/150
f 146/241/147 151/242/151 145/232/145
f 146/234/147 153/243/152 152/244/153
f 147/236/146 154/245/154 153/246/152
f 149/247/149 154/245/154 148/235/148
f 150/248/150 155/249/155 149/239/149
f 150/240/150 151/242/151 156/250/156
f 152/251/153 157/252/157 151/242/151
f 153/243/152 158/253/158 152/244/153
f 153/246/152 160/254/159 159/255/160
f 154/245/154 161/256/161 160/254/159
f 156/257/156 161/258/161 155/249/155
f 151/242/151 162/259/162 156/250/156
f 158/260/158 163/261/163 157/252/157
f 158/253/158 165/262/164 164/263/165
f 159/255/160 166/264/166 165/265/164
f 160/254/159 167/266/167 166/264/166
f 162/267/162 167/268/167 161/258/161
f 157/252/157 168/269/168 162/259/162
f 130/133/132 129/134/130 128/135/131
f 166/270/166 167/271/167 168/272/168
f 169/273/169 182/274/170 181/275/171
f 170/276/172 182/277/170 184/278/173
f 169/273/169 181/275/171 186/279/174
f 169/273/169 186/279/174 188/280/175
f 169/273/169 188/280/175 185/281/176
f 170/276/172 184/278/173 191/282/177
f 171/283/178 183/284/179 193/285/180
f 172/286/181 187/287/182 195/288/183
f 173/289/184 189/290/185 197/291/186
f 174/292/187 190/293/188 199/294/189
f 170/276/172 191/282/177 194/295/190
f 171/283/178 193/285/180 196/296/191
f 172/286/181 195/288/183 198/297/192
f 173/289/184 197/291/186 200/298/193
f 174/299/187 199/300/189 192/301/194
f 175/302/195 201/303/196 206/304/197
f 176/305/198 202/306/199 208/307/200
f 177/308/201 203/309/202 209/310/203
f 178/311/204 204/312/205 210/313/206
f 179/314/207 205/315/208 207/316/209
f 207/279/209 210/317/206 180/273/210
f 207/279/209 205/318/208 210/317/206
f 205/319/208 178/311/204 210/313/206
f 210/317/206 209/281/203 180/273/210
f 210/317/206 204/320/205 209/281/203
f 204/312/205 177/321/201 209/322/203
f 209/281/203 208/274/200 180/273/210
f 209/281/203 203/323/202 208/274/200
f 203/309/202 176/324/198 208/325/200
f 208/274/200 206/326/197 180/273/210
f 208/274/200 202/327/199 206/326/197
f 202/306/199 175/302/195 206/304/197
f 206/326/197 207/279/209 180/273/210
f 206/326/197 201/328/196 207/279/209
f 201/329/196 179/314/207 207/316/209
f 192/301/194 205/315/208 179/314/207
f 192/301/194 199/300/189 205/315/208
f 199/294/189 178/311/204 205/319/208
f 200/298/193 204/312/205 178/311/204
f 200/298/193 197/291/186 204/312/205
f 197/291/186 177/321/201 204/312/205
f 198/297/192 203/309/202 177/308/201
f 198/297/192 195/288/183 203/309/202
f 195/288/183 176/324/198 203/309/202
f 196/296/191 202/306/199 176/305/198
f 196/296/191 193/285/180 202/306/199
f 193/285/180 175/302/195 202/306/199
f 194/330/190 201/303/196 175/302/195
f 194/295/190 191/282/177 201/329/196
f 191/282/177 179/314/207 201/329/196
f 199/294/189 200/298/193 178/311/204
f 199/294/189 190/293/188 200/298/193
f 190/293/188 173/289/184 200/298/193
f 197/331/186 198/297/192 177/308/201
f 197/331/186 189/332/185 198/297/192
f 189/332/185 172/286/181 198/297/192
f 195/288/183 196/333/191 176/324/198
f 195/288/183 187/287/182 196/333/191
f 187/334/182 171/283/178 196/296/191
f 193/285/180 194/330/190 175/302/195
f 193/285/180 183/284/179 194/330/190
f 183/284/179 170/335/172 194/330/190
f 191/282/177 192/301/194 179/314/207
f 191/282/177 184/278/173 192/301/194
f 184/278/173 174/299/187 192/301/194
f 185/336/176 190/293/188 174/292/187
f 185/281/176 188/280/175 190/320/188
f 188/337/175 173/289/184 190/293/188
f 188/337/175 189/290/185 173/289/184
f 188/280/175 186/279/174 189/318/185
f 186/338/174 172/286/181 189/332/185
f 186/338/174 187/287/182 172/286/181
f 186/279/174 181/275/171 187/328/182
f 181/339/171 171/283/178 187/334/182
f 184/278/173 185/340/176 174/299/187
f 184/323/173 182/274/170 185/281/176
f 182/274/170 169/273/169 185/281/176
f 181/339/171 183/284/179 171/283/178
f 181/275/171 182/274/170 183/327/179
f 182/341/170 170/335/172 183/284/179
s 0
f 211/342/211 213/343/211 212/344/211
f 216/345/212 214/346/212 215/347/212
f 212/348/213 214/349/213 211/350/213
f 213/351/214 215/352/214 212/353/214
f 213/354/215 214/355/215 216/356/215
f 217/357/216 218/358/216 219/359/216
f 222/360/217 221/361/217 220/362/217
f 217/363/218 221/364/218 218/365/218
f 221/366/219 219/367/219 218/368/219
f 219/369/220 220/370/220 217/371/220
f 223/372/211 225/373/211 224/374/211
f 228/375/212 226/376/212 227/377/212
f 223/378/213 227/379/213 226/380/213
f 225/381/214 227/382/214 224/383/214
f 225/384/215 226/385/215 228/386/215
f 229/387/216 230/388/216 231/389/216
f 234/390/217 233/391/217 232/392/217
f 232/393/218 230/394/218 229/395/218
f 233/396/219 231/397/219 230/398/219
f 231/399/220 232/400/220 229/401/220
f 235/402/211 237/403/211 236/404/211
f 240/405/212 238/406/212 239/407/212
f 236/408/213 238/409/213 235/410/213
f 237/411/214 239/412/214 236/413/214
f 237/414/215 238/415/215 240/416/215
f 241/417/216 242/418/216 243/419/216
f 246/420/217 245/421/217 244/422/217
f 244/423/218 242/424/218 241/425/218
f 245/426/219 243/427/219 242/428/219
f 243/429/220 244/430/220 241/431/220
f 247/432/211 249/433/211 248/434/211
f 252/435/212 250/436/212 251/437/212
f 248/438/213 250/439/213 247/440/213
f 249/441/214 251/442/214 248/443/214
f 249/444/215 250/445/215 252/446/215
f 253/447/216 254/448/216 255/449/216
f 258/450/217 257/451/217 256/452/217
f 253/453/218 257/454/218 254/455/218
f 254/456/219 258/457/219 255/458/219
f 258/459/220 253/460/220 255/461/220
f 259/462/211 261/463/211 260/464/211
f 264/465/212 262/466/212 263/467/212
f 260/468/213 262/469/213 259/470/213
f 261/471/214 263/472/214 260/473/214
f 261/474/215 262/475/215 264/476/215
f 265/477/216 266/478/216 267/479/216
f 270/480/217 269/481/217 268/482/217
f 268/483/218 266/484/218 265/485/218
f 269/486/219 267/487/219 266/488/219
f 267/489/220 268/490/220 265/491/220
f 271/492/211 273/493/211 272/494/211
f 276/495/212 274/496/212 275/497/212
f 271/498/213 275/499/213 274/500/213
f 273/501/214 275/502/214 272/503/214
f 271/504/215 276/505/215 273/506/215
f 277/507/216 278/508/216 279/509/216
f 282/510/217 281/511/217 280/512/217
f 280/513/218 278/514/218 277/515/218
f 278/516/219 282/517/219 279/518/219
f 279/519/220 280/520/220 277/521/220
f 283/522/211 285/523/211 284/524/211
f 288/525/212 286/526/212 287/527/212
f 284/528/213 286/529/213 283/530/213
f 285/531/214 287/532/214 284/533/214
f 283/534/215 288/535/215 285/536/215
f 289/537/216 290/538/216 291/539/216
f 294/540/217 293/541/217 292/542/217
f 292/543/218 290/544/218 289/545/218
f 290/546/219 294/547/219 291/548/219
f 291/549/220 292/550/220 289/551/220
f 295/552/221 297/553/221 296/554/221
f 300/555/222 298/556/222 299/557/222
f 295/558/223 299/559/223 298/560/223
f 297/351/224 299/561/224 296/562/224
f 297/354/225 298/563/225 300/356/225
f 301/564/226 302/565/226 303/566/226
f 306/567/227 305/568/227 304/569/227
f 304/570/228 302/571/228 301/572/228
f 305/573/229 303/367/229 302/574/229
f 303/369/230 304/575/230 301/576/230
f 307/577/221 309/578/221 308/579/221
f 312/580/222 310/581/222 311/582/222
f 308/583/231 310/584/231 307/585/231
f 309/381/224 311/586/224 308/587/224
f 309/384/232 310/588/232 312/386/232
f 313/589/226 314/590/226 315/591/226
f 318/592/227 317/593/227 316/594/227
f 313/595/228 317/596/228 314/597/228
f 317/598/229 315/397/229 314/599/229
f 315/399/230 316/600/230 313/601/230
f 319/602/221 321/603/221 320/604/221
f 324/605/222 322/606/222 323/607/222
f 319/608/223 323/609/223 322/610/223
f 321/411/224 323/611/224 320/612/224
f 321/414/232 322/613/232 324/416/232
f 325/614/226 326/615/226 327/616/226
f 330/617/227 329/618/227 328/619/227
f 325/620/228 329/621/228 326/622/228
f 329/623/229 327/427/229 326/624/229
f 327/429/230 328/625/230 325/626/230
f 331/627/221 333/628/221 332/629/221
f 336/630/222 334/631/222 335/632/222
f 331/633/223 335/634/223 334/635/223
f 333/441/224 335/636/224 332/637/224
f 333/444/225 334/638/225 336/446/225
f 337/639/226 338/640/226 339/641/226
f 342/642/227 341/643/227 340/644/227
f 340/645/228 338/646/228 337/647/228
f 341/648/229 339/458/229 338/649/229
f 342/459/230 337/650/230 339/461/230
f 343/651/221 345/652/221 344/653/221
f 348/654/222 346/655/222 347/656/222
f 343/657/223 347/658/223 346/659/223
f 345/471/224 347/660/224 344/661/224
f 345/474/232 346/662/232 348/476/232
f 349/663/226 350/664/226 351/665/226
f 354/666/227 353/667/227 352/668/227
f 352/669/228 350/670/228 349/671/228
f 353/672/229 351/487/229 350/673/229
f 351/489/230 352/674/230 349/675/230
f 355/676/221 357/677/221 356/678/221
f 360/679/222 358/680/222 359/681/222
f 356/682/223 358/683/223 355/684/223
f 356/685/224 360/686/224 359/687/224
f 357/506/232 358/688/232 360/505/232
f 361/689/226 362/690/226 363/691/226
f 366/692/227 365/693/227 364/694/227
f 364/695/228 362/696/228 361/697/228
f 365/698/229 363/518/229 362/699/229
f 366/700/230 361/701/230 363/519/230
f 367/702/221 369/703/221 368/704/221
f 372/705/222 370/706/222 371/707/222
f 367/708/223 371/709/223 370/710/223
f 368/711/224 372/712/224 371/713/224
f 369/536/232 370/714/232 372/535/232
f 373/715/226 374/716/226 375/717/226
f 378/718/227 377/719/227 376/720/227
f 373/721/228 377/722/228 374/723/228
f 377/724/229 375/548/229 374/725/229
f 378/726/230 373/727/230 375/549/230
s 1
f 2/1/1 8/17/5 7/2/2
f 2/4/1 3/728/6 9/5/4
f 3/7/6 4/11/9 10/8/7
f 5/10/8 11/729/11 10/8/7
f 6/12/10 12/730/12 11/13/11
f 1/3/3 7/2/2 12/15/12
f 8/17/5 14/26/14 13/18/13
f 9/5/4 15/28/16 14/19/14
f 9/9/4 10/8/7 16/20/15
f 10/8/7 11/729/11 17/22/17
f 11/13/11 12/730/12 18/23/18
f 12/15/12 7/2/2 13/18/13
f 14/26/14 20/35/20 19/27/19
f 15/28/16 21/37/22 20/29/20
f 15/21/16 16/20/15 22/30/21
f 17/22/17 23/41/24 22/30/21
f 17/24/17 18/23/18 24/32/23
f 18/25/18 13/18/13 19/27/19
f 20/35/20 26/731/26 25/36/25
f 21/37/22 27/47/28 26/38/26
f 21/31/22 22/30/21 28/39/27
f 23/41/24 29/50/30 28/39/27
f 23/33/24 24/32/23 30/42/29
f 24/34/23 19/27/19 25/36/25
f 25/36/25 26/731/26 32/45/31
f 27/47/28 33/56/33 32/48/31
f 28/39/27 34/51/34 33/49/33
f 29/50/30 35/59/35 34/51/34
f 30/42/29 36/732/36 35/52/35
f 30/44/29 25/36/25 31/46/32
f 31/46/32 32/45/31 38/54/37
f 33/56/33 39/733/39 38/57/37
f 34/51/34 40/60/40 39/58/39
f 35/59/35 41/734/42 40/60/40
f 35/52/35 36/732/36 42/61/41
f 36/53/36 31/46/32 37/55/38
f 2/66/1 1/735/3 4/64/9
f 1/735/3 6/736/10 4/64/9
f 6/736/10 5/737/8 4/64/9
f 42/69/41 37/738/38 40/67/40
f 37/738/38 38/739/37 40/67/40
f 38/739/37 39/740/39 40/67/40
f 43/70/43 44/741/46 50/71/44
f 44/73/46 45/742/49 51/74/47
f 46/76/48 52/80/51 51/77/47
f 47/79/50 53/89/53 52/80/51
f 48/81/52 54/743/54 53/82/53
f 48/84/52 43/70/43 49/72/45
f 50/71/44 56/94/56 55/86/55
f 51/74/47 57/96/57 56/87/56
f 52/80/51 58/90/58 57/88/57
f 53/89/53 59/100/60 58/90/58
f 53/82/53 54/743/54 60/91/59
f 54/85/54 49/72/45 55/86/55
f 56/94/56 62/104/62 61/95/61
f 57/96/57 63/106/64 62/97/62
f 57/88/57 58/90/58 64/98/63
f 59/100/60 65/110/66 64/98/63
f 59/92/60 60/91/59 66/101/65
f 60/93/59 55/86/55 61/95/61
f 62/104/62 68/114/68 67/105/67
f 63/106/64 69/744/70 68/107/68
f 63/99/64 64/98/63 70/108/69
f 65/110/66 71/745/72 70/108/69
f 65/102/66 66/101/65 72/111/71
f 66/103/65 61/95/61 67/105/67
f 68/114/68 74/124/75 73/115/73
f 68/107/68 69/744/70 75/116/74
f 69/109/70 70/108/69 76/118/76
f 70/108/69 71/745/72 77/120/77
f 71/112/72 72/111/71 78/121/78
f 67/105/67 73/115/73 78/123/78
f 74/124/75 80/746/80 79/125/79
f 75/116/74 81/747/82 80/126/80
f 75/119/74 76/118/76 82/127/81
f 76/118/76 77/120/77 83/129/83
f 77/122/77 78/121/78 84/130/84
f 73/115/73 79/125/79 84/132/84
f 44/135/46 43/748/43 46/133/48
f 43/748/43 48/749/52 46/133/48
f 48/749/52 47/750/50 46/133/48
f 84/138/84 79/751/79 82/136/81
f 79/751/79 80/752/80 82/136/81
f 80/752/80 81/753/82 82/136/81
f 86/139/85 92/155/89 91/140/86
f 87/142/88 93/754/91 92/143/89
f 87/145/88 88/148/92 94/146/90
f 88/148/92 89/755/94 95/149/93
f 89/150/94 90/756/96 96/151/95
f 90/153/96 85/141/87 91/140/86
f 92/155/89 98/163/99 97/156/97
f 92/143/89 93/754/91 99/157/98
f 93/147/91 94/146/90 100/159/100
f 95/149/93 101/169/101 100/159/100
f 96/151/95 102/170/102 101/161/101
f 91/140/86 97/156/97 102/162/102
f 98/163/99 104/173/105 103/164/103
f 98/158/99 99/157/98 105/165/104
f 99/160/98 100/159/100 106/167/106
f 101/169/101 107/179/107 106/167/106
f 102/170/102 108/180/108 107/171/107
f 102/162/102 97/156/97 103/164/103
f 104/173/105 110/757/111 109/174/109
f 104/166/105 105/165/104 111/175/110
f 105/168/104 106/167/106 112/177/112
f 107/179/107 113/188/113 112/177/112
f 108/180/108 114/758/114 113/181/113
f 108/172/108 103/164/103 109/174/109
f 109/174/109 110/757/111 116/183/115
f 110/176/111 111/175/110 117/185/117
f 112/177/112 118/189/118 117/187/117
f 113/188/113 119/198/120 118/189/118
f 113/181/113 114/758/114 120/190/119
f 114/182/114 109/174/109 115/184/116
f 115/184/116 116/183/115 122/193/121
f 116/186/115 117/185/117 123/195/123
f 118/189/118 124/199/124 123/197/123
f 119/198/120 125/759/125 124/199/124
f 120/190/119 126/760/126 125/200/125
f 120/192/119 115/184/116 121/194/122
f 86/203/85 85/735/87 88/64/92
f 85/735/87 90/761/96 88/64/92
f 90/761/96 89/762/94 88/64/92
f 126/206/126 121/763/122 124/204/124
f 121/763/122 122/764/121 124/204/124
f 122/764/121 123/765/123 124/204/124
f 127/207/127 128/766/131 134/208/128
f 129/210/130 135/767/133 134/211/128
f 130/213/132 136/217/135 135/214/133
f 131/216/134 137/229/137 136/217/135
f 131/218/134 132/768/138 138/219/136
f 132/221/138 127/207/127 133/209/129
f 133/209/129 134/208/128 140/223/139
f 134/211/128 135/767/133 141/225/141
f 135/214/133 136/217/135 142/227/142
f 137/229/137 143/237/143 142/227/142
f 138/219/136 144/238/144 143/230/143
f 138/222/136 133/209/129 139/224/140
f 140/223/139 146/241/147 145/232/145
f 140/226/139 141/225/141 147/233/146
f 141/228/141 142/227/142 148/235/148
f 143/237/143 149/247/149 148/235/148
f 144/238/144 150/248/150 149/239/149
f 144/231/144 139/224/140 145/232/145
f 146/241/147 152/251/153 151/242/151
f 146/234/147 147/233/146 153/243/152
f 147/236/146 148/235/148 154/245/154
f 149/247/149 155/769/155 154/245/154
f 150/248/150 156/257/156 155/249/155
f 150/240/150 145/232/145 151/242/151
f 152/251/153 158/260/158 157/252/157
f 153/243/152 159/770/160 158/253/158
f 153/246/152 154/245/154 160/254/159
f 154/245/154 155/769/155 161/256/161
f 156/257/156 162/267/162 161/258/161
f 151/242/151 157/252/157 162/259/162
f 158/260/158 164/771/165 163/261/163
f 158/253/158 159/770/160 165/262/164
f 159/255/160 160/254/159 166/264/166
f 160/254/159 161/256/161 167/266/167
f 162/267/162 168/772/168 167/268/167
f 157/252/157 163/261/163 168/269/168
f 128/135/131 127/748/127 130/133/132
f 127/748/127 132/749/138 130/133/132
f 132/749/138 131/750/134 130/133/132
f 168/272/168 163/773/163 166/270/166
f 163/773/163 164/774/165 166/270/166
f 164/774/165 165/775/164 166/270/166
s 0
f 212/348/213 215/776/213 214/349/213
f 213/351/233 216/777/233 215/352/233
f 213/354/215 211/778/215 214/355/215
f 217/363/218 220/779/218 221/364/218
f 221/366/219 222/780/219 219/367/219
f 219/369/220 222/781/220 220/370/220
f 223/378/234 224/782/234 227/379/234
f 225/381/214 228/783/214 227/382/214
f 225/384/215 223/784/215 226/385/215
f 232/393/218 233/785/218 230/394/218
f 233/396/219 234/786/219 231/397/219
f 231/399/220 234/787/220 232/400/220
f 236/408/213 239/788/213 238/409/213
f 237/411/233 240/789/233 239/412/233
f 237/414/215 235/790/215 238/415/215
f 244/423/218 245/791/218 242/424/218
f 245/426/219 246/792/219 243/427/219
f 243/429/220 246/793/220 244/430/220
f 248/438/213 251/794/213 250/439/213
f 249/441/233 252/795/233 251/442/233
f 249/444/215 247/796/215 250/445/215
f 253/453/218 256/797/218 257/454/218
f 254/456/219 257/798/219 258/457/219
f 258/459/220 256/799/220 253/460/220
f 260/468/213 263/800/213 262/469/213
f 261/471/214 264/801/214 263/472/214
f 261/474/215 259/802/215 262/475/215
f 268/483/218 269/803/218 266/484/218
f 269/486/219 270/804/219 267/487/219
f 267/489/220 270/805/220 268/490/220
f 271/498/213 272/806/213 275/499/213
f 273/501/214 276/686/214 275/502/214
f 271/504/215 274/807/215 276/505/215
f 280/513/218 281/808/218 278/514/218
f 278/516/219 281/809/219 282/517/219
f 279/519/220 282/700/220 280/520/220
f 284/528/213 287/810/213 286/529/213
f 285/531/214 288/712/214 287/532/214
f 283/534/215 286/811/215 288/535/215
f 292/543/218 293/812/218 290/544/218
f 290/546/219 293/813/219 294/547/219
f 291/549/220 294/726/220 292/550/220
f 295/558/223 296/814/223 299/559/223
f 297/351/224 300/777/224 299/561/224
f 297/354/232 295/815/232 298/563/232
f 304/570/228 305/816/228 302/571/228
f 305/573/229 306/780/229 303/367/229
f 303/369/230 306/781/230 304/575/230
f 308/583/223 311/817/223 310/584/223
f 309/381/224 312/783/224 311/586/224
f 309/384/232 307/818/232 310/588/232
f 313/595/228 316/819/228 317/596/228
f 317/598/229 318/786/229 315/397/229
f 315/399/230 318/787/230 316/600/230
f 319/608/223 320/820/223 323/609/223
f 321/411/224 324/789/224 323/611/224
f 321/414/232 319/821/232 322/613/232
f 325/620/228 328/822/228 329/621/228
f 329/623/229 330/792/229 327/427/229
f 327/429/230 330/793/230 328/625/230
f 331/633/223 332/823/223 335/634/223
f 333/441/224 336/795/224 335/636/224
f 333/444/232 331/824/232 334/638/232
f 340/645/228 341/825/228 338/646/228
f 341/648/229 342/457/229 339/458/229
f 342/459/230 340/826/230 337/650/230
f 343/657/223 344/827/223 347/658/223
f 345/471/224 348/801/224 347/660/224
f 345/474/232 343/828/232 346/662/232
f 352/669/228 353/829/228 350/670/228
f 353/672/229 354/804/229 351/487/229
f 351/489/230 354/805/230 352/674/230
f 356/682/223 359/830/223 358/683/223
f 356/685/224 357/501/224 360/686/224
f 357/506/232 355/831/232 358/688/232
f 364/695/228 365/832/228 362/696/228
f 365/698/229 366/517/229 363/518/229
f 366/700/230 364/833/230 361/701/230
f 367/708/223 368/834/223 371/709/223
f 368/711/224 369/531/224 372/712/224
f 369/536/232 367/835/232 370/714/232
f 373/721/228 376/836/228 377/722/228
f 377/724/229 378/547/229 375/548/229
f 378/726/230 376/837/230 373/727/230
o fin
usemtl fin
v 0.000000 0.029813 -0.140549
v 0.129439 0.014140 -0.062856
v -0.049440 0.004453 -0.062856
v -0.159995 0.029813 -0.062856
v -0.049440 0.055174 -0.062856
v 0.129439 0.045487 -0.062856
v 0.049440 0.004453 0.062856
v -0.129439 0.014140 0.062856
v -0.129439 0.045487 0.062856
v 0.049440 0.055174 0.062856
v 0.159995 0.029813 0.062856
v 0.000000 0.029813 0.140549
v -0.029060 0.014907 -0.119558
v 0.076082 0.020601 -0.119558
v 0.047022 0.005694 -0.073892
v 0.152164 0.029813 -0.073891
v 0.076082 0.039026 -0.119558
v -0.094043 0.029813 -0.119558
v -0.123103 0.014907 -0.073892
v -0.029060 0.044720 -0.119558
v -0.123103 0.044720 -0.073892
v 0.047022 0.053933 -0.073892
v 0.170125 0.020601 0.000000
v 0.170125 0.039026 0.000000
v 0.000000 0.000000 0.000000
v 0.105143 0.005694 0.000000
v -0.170125 0.020601 0.000000
v -0.105143 0.005694 0.000000
v -0.105143 0.053933 0.000000
v -0.170125 0.039026 0.000000
v 0.105143 0.053933 0.000000
v 0.000000 0.059627 0.000000
v 0.123103 0.014907 0.073892
v -0.047022 0.005694 0.073892
v -0.152164 0.029813 0.073891
v -0.047022 0.053933 0.073892
v 0.123103 0.044720 0.073892
v 0.029060 0.014907 0.119558
v 0.094043 0.029813 0.119558
v -0.076082 0.020601 0.119558
v -0.076082 0.039026 0.119558
v 0.029060 0.044720 0.119558
v 0.000000 0.042591 -0.061756
v 0.028789 0.042591 -0.071110
v 0.046582 0.042591 -0.095600
v 0.046582 0.042591 -0.125871
v 0.028789 0.042591 -0.150360
v 0.000000 0.042591 -0.159714
v -0.028789 0.042591 -0.150360
v -0.046582 0.042591 -0.125871
v -0.046582 0.042591 -0.095600
v -0.028789 0.042591 -0.071110
v -0.031943 0.255543 -0.110735
v -0.025842 0.255736 -0.091961
v -0.009871 0.255855 -0.080357
v 0.009871 0.255855 -0.080357
v 0.025842 0.255736 -0.091961
v 0.031943 0.255543 -0.110735
v 0.025842 0.255351 -0.129510
v 0.009871 0.255231 -0.141113
v -0.009871 0.255231 -0.141113
v -0.025842 0.255351 -0.129510
v -0.029813 0.457848 -0.114994
v -0.024120 0.458234 -0.097475
v -0.009213 0.458473 -0.086647
v 0.009213 0.458473 -0.086647
v 0.024120 0.458234 -0.097475
v 0.029813 0.457848 -0.114994
v 0.024120 0.457462 -0.132514
v 0.009213 0.457223 -0.143342
v -0.009213 0.457223 -0.143342
v -0.024120 0.457462 -0.132514
v -0.036202 0.545159 -0.117124
v -0.029288 0.545677 -0.095851
v -0.011187 0.545998 -0.082704
v 0.011187 0.545998 -0.082704
v 0.029288 0.545677 -0.095851
v 0.036202 0.545159 -0.117124
v 0.029288 0.544640 -0.138397
v 0.011187 0.544319 -0.151544
v -0.011187 0.544319 -0.151544
v -0.029288 0.544640 -0.138397
v -0.093699 0.583490 -0.121383
v -0.101818 0.595809 -0.112865
v -0.101818 0.595809 -0.095829
v -0.093699 0.583490 -0.087311
v -0.085580 0.571171 -0.095829
v -0.085580 0.571171 -0.112865
v 0.000000 0.645246 -0.121383
v 0.000000 0.660000 -0.112865
v 0.000000 0.660000 -0.095829
v 0.000000 0.645246 -0.087311
v 0.000000 0.630492 -0.095829
v 0.000000 0.630492 -0.112865
v 0.093699 0.583490 -0.121383
v 0.101818 0.595809 -0.112865
v 0.101818 0.595809 -0.095829
v 0.093699 0.583490 -0.087311
v 0.085580 0.571171 -0.095829
v 0.085580 0.571171 -0.112865
vn 0.0457 -0.8432 -0.5356
vn 0.3599 -0.8265 -0.4328
vn -0.1580 -0.6886 -0.7077
vn -0.1580 0.6886 -0.7077
vn 0.0457 0.8432 -0.5356
vn 0.4782 -0.8497 -0.2222
vn 0.0044 -0.9972 -0.0741
vn -0.4174 -0.8870 -0.1973
vn -0.1263 0.9877 -0.0924
vn 0.1133 0.9895 -0.0892
vn 0.2234 -0.9737 -0.0445
vn -0.0541 -0.9981 -0.0282
vn -0.9873 -0.0000 -0.1591
vn -0.0541 0.9981 -0.0282
vn 0.2234 0.9737 -0.0445
vn 0.1053 -0.9705 0.2168
vn -0.1299 -0.9640 0.2320
vn -0.3599 0.8265 0.4328
vn 0.0084 0.9828 0.1842
vn 0.4491 0.7248 0.5224
vn 0.1580 0.6886 0.7077
vn 0.2031 0.8853 0.4182
vn 0.1053 0.9705 0.2168
vn -0.0457 0.8432 0.5356
vn -0.0519 0.9586 0.2799
vn -0.1299 0.9640 0.2320
vn -0.2660 -0.0000 0.9640
vn -0.5146 -0.0000 0.8574
vn -0.3599 -0.8265 0.4328
vn -0.0457 -0.8432 0.5356
vn -0.0519 -0.9586 0.2799
vn 0.0084 -0.9828 0.1842
vn 0.1580 -0.6886 0.7077
vn 0.2031 -0.8853 0.4182
vn 0.4491 -0.7248 0.5224
vn 0.4174 0.8870 0.1973
vn 0.2231 0.9725 0.0670
vn 0.1263 0.9877 0.0924
vn -0.0044 0.9972 0.0741
vn -0.0540 0.9976 0.0425
vn -0.1133 0.9895 0.0892
vn -0.4782 0.8497 0.2222
vn -0.9717 -0.0000 0.2362
vn -0.4782 -0.8497 0.2222
vn -0.1133 -0.9895 0.0892
vn -0.0540 -0.9976 0.0425
vn -0.0044 -0.9972 0.0741
vn 0.1263 -0.9877 0.0924
vn 0.2231 -0.9725 0.0670
vn 0.4174 -0.8870 0.1973
vn 0.0541 0.9981 0.0282
vn 0.0540 0.9976 -0.0425
vn 0.0044 0.9972 -0.0741
vn -0.2234 0.9737 0.0445
vn -0.2231 0.9725 -0.0670
vn -0.4174 0.8870 -0.1973
vn -0.2234 -0.9737 0.0445
vn -0.2231 -0.9725 -0.0670
vn -0.1263 -0.9877 -0.0924
vn 0.0541 -0.9981 0.0282
vn 0.0540 -0.9976 -0.0425
vn 0.1133 -0.9895 -0.0892
vn 0.9873 -0.0000 0.1591
vn 0.9717 -0.0000 -0.2362
vn 0.4782 0.8497 -0.2222
vn 0.1299 0.9640 -0.2320
vn 0.0519 0.9586 -0.2799
vn -0.0084 0.9828 -0.1842
vn -0.1053 0.9705 -0.2168
vn -0.2031 0.8853 -0.4182
vn -0.4491 0.7248 -0.5224
vn -0.4491 -0.7248 -0.5224
vn -0.2031 -0.8853 -0.4182
vn -0.1053 -0.9705 -0.2168
vn 0.3599 0.8265 -0.4328
vn 0.5146 -0.0000 -0.8574
vn 0.2660 -0.0000 -0.9640
vn -0.0084 -0.9828 -0.1842
vn 0.0519 -0.9586 -0.2799
vn 0.1299 -0.9640 -0.2320
vn -0.9484 -0.0712 0.3089
vn -0.5859 -0.0712 0.8072
vn -0.0000 -0.0713 0.9975
vn 0.5859 -0.0714 0.8072
vn 0.9484 -0.0715 0.3089
vn 0.9488 -0.0716 -0.3076
vn 0.5866 -0.0716 -0.8067
vn -0.0000 -0.0715 -0.9974
vn -0.5866 -0.0714 -0.8067
vn -0.9488 -0.0713 -0.3076
vn -0.9510 0.0165 0.3087
vn -0.5878 0.0270 0.8086
vn -0.0000 0.0310 0.9995
vn 0.5877 0.0270 0.8086
vn 0.9510 0.0165 0.3088
vn 0.9510 0.0035 -0.3091
vn 0.5878 -0.0070 -0.8090
vn -0.0000 -0.0110 -0.9999
vn -0.5878 -0.0070 -0.8090
vn -0.9510 0.0035 -0.3092
vn -0.9488 -0.0619 0.3099
vn -0.5864 -0.0497 0.8085
vn -0.0000 -0.0450 0.9990
vn 0.5864 -0.0496 0.8085
vn 0.9488 -0.0618 0.3097
vn 0.9487 -0.0769 -0.3066
vn 0.5863 -0.0891 -0.8052
vn -0.0000 -0.0938 -0.9956
vn -0.5864 -0.0891 -0.8051
vn -0.9488 -0.0769 -0.3065
vn -0.0000 -1.0000 -0.0000
vn -0.0000 0.9997 -0.0244
vn -0.2752 0.4175 -0.8660
vn -0.5333 0.8459 -0.0000
vn -0.3006 0.4769 0.8260
vn 0.3130 -0.4749 0.8225
vn 0.5697 -0.8219 -0.0000
vn 0.2849 -0.4110 -0.8660
vn 0.2752 0.4175 -0.8660
vn 0.5333 0.8459 -0.0000
vn 0.3006 0.4769 0.8260
vn -0.3130 -0.4749 0.8225
vn -0.5697 -0.8219 -0.0000
vn -0.2849 -0.4110 -0.8660
vn -0.8350 -0.5503 -0.0000
vn 0.8350 -0.5503 -0.0000
vn 0.3045 0.1697 0.9373
vn 0.7973 0.1696 0.5793
vn 0.9855 0.1696 -0.0000
vn 0.7973 0.1697 -0.5793
vn 0.3045 0.1699 -0.9372
vn -0.3045 0.1700 -0.9372
vn -0.7972 0.1701 -0.5792
vn -0.9854 0.1701 -0.0000
vn -0.7972 0.1700 0.5792
vn -0.3045 0.1699 0.9372
vn -0.9510 0.0165 0.3088
vn -0.5877 0.0270 0.8086
vn 0.5878 0.0270 0.8086
vn 0.9510 0.0165 0.3087
vn 0.9510 0.0035 -0.3092
vn -0.9510 0.0035 -0.3091
vn -0.9488 -0.0618 0.3097
vn -0.5864 -0.0496 0.8085
vn 0.5864 -0.0497 0.8085
vn 0.9488 -0.0619 0.3099
vn 0.9488 -0.0769 -0.3065
vn 0.5864 -0.0891 -0.8051
vn -0.5863 -0.0891 -0.8052
vn -0.9487 -0.0769 -0.3066
vn -0.3006 0.4769 -0.8260
vn -0.2752 0.4175 0.8660
vn 0.2849 -0.4110 0.8660
vn 0.3130 -0.4749 -0.8225
vn 0.3006 0.4769 -0.8260
vn 0.2752 0.4175 0.8660
vn -0.2849 -0.4110 0.8660
vn -0.3130 -0.4749 -0.8225
vt 0.000000 0.709842
vt 0.384251 0.603830
vt -0.146768 0.603830
vt 0.653732 0.317455
vt 0.768505 0.373189
vt -0.000000 0.150573
vt 0.146768 0.075287
vt 0.474963 0.150573
vt 0.146768 0.225858
vt 0.000000 -0.709842
vt -0.146768 -0.603830
vt 0.384251 -0.603830
vt 0.859219 -0.000000
vt -0.249699 0.317455
vt 0.237485 0.373191
vt 0.000000 -0.000000
vt -0.808056 0.317452
vt -0.621734 0.373189
vt -0.859219 -0.000000
vt -0.249699 -0.317455
vt -0.621734 -0.373189
vt -0.531026 0.000000
vt 0.653732 -0.317455
vt 0.237485 -0.373191
vt 0.531026 0.000000
vt -0.317452 0.150573
vt 0.000000 0.104044
vt 0.000000 0.197101
vt 0.249699 -0.317455
vt 0.621734 -0.373189
vt 0.146768 -0.603830
vt -0.653732 -0.317455
vt -0.237485 -0.373191
vt -0.384251 -0.603830
vt -0.653732 0.317455
vt -0.768505 0.373189
vt -0.384251 0.603830
vt 0.249699 0.317455
vt -0.237485 0.373191
vt 0.146768 0.603830
vt 0.808056 0.317452
vt 0.621734 0.373189
vt 0.474963 0.603828
vt 0.146768 0.225858
vt -0.384251 0.197101
vt -0.384251 0.104044
vt -0.768505 0.150573
vt -0.768505 -0.373189
vt 0.146768 0.075287
vt 0.474963 -0.603828
vt 0.808056 -0.317452
vt 0.373189 0.150573
vt -0.808056 -0.317452
vt 0.768505 -0.373189
vt -0.474963 -0.603828
vt -0.474963 0.603828
vt -0.311900 0.215104
vt -0.464448 1.291594
vt -0.559269 1.290621
vt 0.145400 0.215104
vt -0.049853 1.292195
vt -0.130517 1.291594
vt 0.235262 0.215104
vt 0.049853 1.292195
vt 0.130517 1.291594
vt 0.759395 0.215104
vt 0.559269 1.290621
vt 0.464448 1.291594
vt 0.806638 0.215104
vt 0.654090 1.289649
vt -0.049853 1.289048
vt -0.130517 1.289649
vt 0.049853 1.289048
vt 0.130517 1.289649
vt -0.359143 0.215104
vt -0.654090 1.289649
vt -0.492297 2.314315
vt -0.580780 2.312363
vt -0.046529 2.315522
vt -0.121816 2.314315
vt 0.046529 2.315522
vt 0.492297 2.314315
vt 0.580780 2.312363
vt -0.121816 2.310411
vt -0.046529 2.309205
vt 0.121816 2.310411
vt 0.046529 2.309205
vt -0.669262 2.310411
vt -0.484097 2.755946
vt -0.591535 2.753326
vt -0.056500 2.757566
vt -0.147919 2.755946
vt 0.121816 2.314315
vt 0.056500 2.757566
vt 0.484097 2.755946
vt 0.669262 2.310411
vt 0.591535 2.753326
vt -0.147919 2.750705
vt -0.056500 2.749086
vt 0.147919 2.750705
vt 0.056500 2.749086
vt -0.698972 2.750705
vt -0.235262 0.635711
vt 0.235262 0.635711
vt 0.145400 0.359143
vt 0.056500 -0.417697
vt 0.056500 -0.765372
vt -0.147919 -0.698972
vt 0.514234 3.009135
vt -0.000000 3.258819
vt 0.473228 2.946919
vt -0.514234 -0.483983
vt 0.000000 -0.570024
vt -0.514234 -0.570024
vt -0.514234 3.009135
vt 0.000000 3.333333
vt -0.473228 2.946919
vt 0.000000 3.184305
vt -0.432222 0.570024
vt 0.000000 0.483983
vt -0.432222 0.483983
vt 0.432222 2.884703
vt 0.000000 -0.483983
vt 0.514234 -0.570024
vt 0.000000 0.570024
vt 0.432222 0.483983
vt -0.432222 2.884703
vt -0.570024 2.884703
vt -0.440962 2.946919
vt -0.570024 3.009135
vt 0.440962 2.946919
vt 0.483983 2.884703
vt 0.570024 2.884703
vt 0.000000 0.215104
vt 0.359143 0.215104
vt 0.482828 0.215104
vt 0.405846 1.292195
vt 0.635711 0.215104
vt -0.145400 0.215104
vt -0.000000 0.215104
vt -0.161328 1.290621
vt -0.759395 0.215104
vt -0.635711 0.215104
vt -0.712693 1.289048
vt -0.482828 0.215104
vt 0.147919 2.755946
vt 0.698972 2.750705
vt 0.000000 0.311900
vt -0.145400 0.359143
vt -0.235262 0.482828
vt -0.145400 0.759395
vt 0.000000 0.806638
vt 0.145400 0.759395
vt 0.235262 0.482828
vt -0.182838 -0.591535
vt -0.147919 -0.484097
vt -0.056500 -0.417697
vt 0.147919 -0.484097
vt 0.182838 -0.591535
vt 0.147919 -0.698972
vt -0.056500 -0.765372
vt 0.514234 -0.483983
vt 0.432222 0.570024
vt -0.613045 2.946919
vt -0.483983 2.884703
vt -0.483983 3.009135
vt 0.613045 2.946919
vt 0.570024 3.009135
vt 0.483983 3.009135
s 0
f 379/838/235 392/839/235 391/840/235
f 380/841/236 392/839/236 394/842/236
f 379/843/237 391/844/237 396/845/237
f 379/843/238 396/845/238 398/846/238
f 379/847/239 398/848/239 395/849/239
f 380/841/240 394/842/240 401/850/240
f 381/851/241 393/852/241 403/853/241
f 382/854/242 397/855/242 405/856/242
f 383/857/243 399/858/243 407/859/243
f 384/860/244 400/861/244 409/862/244
f 380/841/245 401/850/245 404/862/245
f 381/851/246 403/853/246 406/859/246
f 382/863/247 405/864/247 408/865/247
f 383/857/248 407/859/248 410/853/248
f 384/860/249 409/862/249 402/850/249
f 385/866/250 411/867/250 416/868/250
f 386/869/251 412/870/251 418/871/251
f 387/872/252 413/873/252 419/874/252
f 388/875/253 414/876/253 420/877/253
f 389/878/254 415/879/254 417/880/254
f 417/845/255 420/881/255 390/843/255
f 417/880/256 415/879/256 420/877/256
f 415/879/257 388/875/257 420/877/257
f 420/877/258 419/874/258 390/838/258
f 420/877/259 414/876/259 419/874/259
f 414/876/260 387/872/260 419/874/260
f 419/882/261 418/883/261 390/843/261
f 419/882/262 413/884/262 418/883/262
f 413/885/263 386/869/263 418/871/263
f 418/871/264 416/868/264 390/847/264
f 418/871/265 412/870/265 416/868/265
f 412/870/266 385/866/266 416/868/266
f 416/886/267 417/845/267 390/843/267
f 416/868/268 411/867/268 417/887/268
f 411/867/269 389/888/269 417/887/269
f 402/850/270 415/879/270 389/878/270
f 402/850/271 409/862/271 415/879/271
f 409/862/272 388/875/272 415/879/272
f 410/853/273 414/876/273 388/875/273
f 410/853/274 407/859/274 414/876/274
f 407/859/275 387/872/275 414/876/275
f 408/856/276 413/873/276 387/872/276
f 408/865/277 405/864/277 413/889/277
f 405/856/278 386/869/278 413/885/278
f 406/859/279 412/870/279 386/869/279
f 406/859/280 403/853/280 412/870/280
f 403/853/281 385/866/281 412/870/281
f 404/862/282 411/867/282 385/866/282
f 404/862/283 401/850/283 411/867/283
f 401/850/284 389/888/284 411/867/284
f 409/862/285 410/853/285 388/875/285
f 409/862/286 400/861/286 410/853/286
f 400/861/287 383/857/287 410/853/287
f 407/859/288 408/856/288 387/872/288
f 407/859/289 399/858/289 408/856/289
f 399/858/290 382/890/290 408/856/290
f 405/856/291 406/859/291 386/869/291
f 405/856/292 397/855/292 406/859/292
f 397/855/293 381/851/293 406/859/293
f 403/853/294 404/862/294 385/866/294
f 403/853/295 393/852/295 404/862/295
f 393/852/296 380/841/296 404/862/296
f 401/864/297 402/865/297 389/863/297
f 401/864/298 394/889/298 402/865/298
f 394/891/299 384/860/299 402/850/299
f 395/849/300 400/861/300 384/860/300
f 395/849/301 398/848/301 400/861/301
f 398/848/302 383/857/302 400/861/302
f 398/848/303 399/858/303 383/857/303
f 398/848/304 396/892/304 399/858/304
f 396/892/305 382/890/305 399/858/305
f 396/893/306 397/855/306 382/854/306
f 396/893/307 391/840/307 397/855/307
f 391/840/308 381/851/308 397/855/308
f 394/891/309 395/849/309 384/860/309
f 394/884/310 392/883/310 395/882/310
f 392/883/311 379/843/311 395/882/311
f 391/840/312 393/852/312 381/851/312
f 391/840/313 392/839/313 393/852/313
f 392/839/314 380/841/314 393/852/314
f 421/894/315 432/895/315 431/896/315
f 422/897/316 433/898/316 432/899/316
f 423/900/317 434/901/317 433/898/317
f 424/900/318 435/902/318 434/901/318
f 425/903/319 436/904/319 435/905/319
f 426/906/320 437/907/320 436/904/320
f 427/897/321 438/908/321 437/909/321
f 428/900/322 439/910/322 438/908/322
f 429/900/323 440/911/323 439/910/323
f 430/912/324 431/896/324 440/913/324
f 431/896/325 442/914/325 441/915/325
f 432/899/326 443/916/326 442/917/326
f 434/901/327 443/916/327 433/898/327
f 435/902/328 444/918/328 434/901/328
f 436/904/329 445/919/329 435/905/329
f 437/907/330 446/920/330 436/904/330
f 438/908/331 447/921/331 437/909/331
f 439/910/332 448/922/332 438/908/332
f 439/910/333 450/923/333 449/924/333
f 440/913/334 441/915/334 450/925/334
f 441/915/335 452/926/335 451/927/335
f 442/917/336 453/928/336 452/929/336
f 444/918/337 453/928/337 443/916/337
f 445/930/338 454/931/338 444/918/338
f 446/920/339 455/932/339 445/919/339
f 447/933/340 456/934/340 446/920/340
f 448/922/341 457/935/341 447/921/341
f 449/924/342 458/936/342 448/922/342
f 449/924/343 460/937/343 459/938/343
f 450/925/344 451/927/344 460/939/344
f 428/940/345 424/941/345 422/942/345
f 454/943/346 458/944/346 460/945/346
f 462/946/347 467/947/347 461/948/347
f 463/949/348 468/950/348 462/951/348
f 463/952/349 470/947/349 469/953/349
f 464/954/350 471/955/350 470/947/350
f 466/956/351 471/957/351 465/958/351
f 461/948/352 472/955/352 466/959/352
f 467/947/353 474/952/353 473/954/353
f 469/960/354 474/961/354 468/950/354
f 470/947/355 475/946/355 469/953/355
f 471/955/356 476/948/356 470/947/356
f 472/962/357 477/963/357 471/957/357
f 472/955/358 473/954/358 478/964/358
f 466/965/359 464/966/359 462/967/359
f 476/968/360 477/969/360 478/970/360
f 421/971/361 422/897/361 432/899/361
f 422/972/362 423/973/362 433/974/362
f 423/973/363 424/975/363 434/974/363
f 424/975/364 425/903/364 435/905/364
f 425/976/365 426/977/365 436/978/365
f 426/977/366 427/897/366 437/909/366
f 427/979/367 428/980/367 438/981/367
f 428/980/368 429/982/368 439/981/368
f 429/982/369 430/912/369 440/913/369
f 430/976/370 421/971/370 431/978/370
f 431/896/371 432/895/371 442/914/371
f 432/899/372 433/898/372 443/916/372
f 434/901/327 444/918/327 443/916/327
f 435/902/373 445/930/373 444/918/373
f 436/904/374 446/920/374 445/919/374
f 437/907/375 447/933/375 446/920/375
f 438/908/331 448/922/331 447/921/331
f 439/910/332 449/924/332 448/922/332
f 439/910/333 440/911/333 450/923/333
f 440/913/376 431/896/376 441/915/376
f 441/915/377 442/914/377 452/926/377
f 442/917/378 443/916/378 453/928/378
f 444/918/337 454/931/337 453/928/337
f 445/930/379 455/983/379 454/931/379
f 446/920/380 456/934/380 455/932/380
f 447/933/381 457/984/381 456/934/381
f 448/922/382 458/936/382 457/935/382
f 449/924/342 459/938/342 458/936/342
f 449/924/383 450/923/383 460/937/383
f 450/925/384 441/915/384 451/927/384
f 422/942/345 421/985/345 430/986/345
f 430/986/345 429/987/345 422/942/345
f 429/987/345 428/940/345 422/942/345
f 428/940/345 427/988/345 426/989/345
f 426/989/345 425/990/345 424/941/345
f 424/941/345 423/991/345 422/942/345
f 428/940/345 426/989/345 424/941/345
f 460/945/346 451/992/346 452/993/346
f 452/993/346 453/994/346 454/943/346
f 454/943/346 455/995/346 458/944/346
f 455/995/346 456/996/346 458/944/346
f 456/996/346 457/997/346 458/944/346
f 458/944/346 459/998/346 460/945/346
f 460/945/346 452/993/346 454/943/346
f 462/946/385 468/953/385 467/947/385
f 463/949/348 469/960/348 468/950/348
f 463/952/386 464/954/386 470/947/386
f 464/954/387 465/964/387 471/955/387
f 466/956/351 472/962/351 471/957/351
f 461/948/388 467/947/388 472/955/388
f 467/947/389 468/953/389 474/952/389
f 469/960/354 475/999/354 474/961/354
f 470/947/390 476/948/390 475/946/390
f 471/955/391 477/959/391 476/948/391
f 472/962/357 478/1000/357 477/963/357
f 472/955/392 467/947/392 473/954/392
f 462/967/359 461/1001/359 466/965/359
f 466/965/359 465/1002/359 464/966/359
f 464/966/359 463/1003/359 462/967/359
f 478/970/360 473/1004/360 474/1005/360
f 474/1005/360 475/1006/360 478/970/360
f 475/1006/360 476/968/360 478/970/360
