# Blender 5.0.1
# www.blender.org
mtllib boss_trophy_c.mtl
o body
usemtl body
v 0.227198 0.066810 -0.013719
v 0.209539 0.111893 -0.019892
v 0.166337 0.130567 -0.032827
v 0.122900 0.111893 -0.044947
v 0.104672 0.066810 -0.049153
v 0.122331 0.021727 -0.042980
v 0.165533 0.003053 -0.030044
v 0.208970 0.021727 -0.017924
v 0.196305 0.068754 0.080260
v 0.180942 0.112342 0.070711
v 0.142866 0.130396 0.049466
v 0.104382 0.112342 0.028969
v 0.088033 0.068754 0.021227
v 0.103397 0.025166 0.030776
v 0.141472 0.007111 0.052021
v 0.179956 0.025166 0.072518
v 0.122204 0.070697 0.161234
v 0.112753 0.112790 0.146540
v 0.088286 0.130226 0.112271
v 0.063134 0.112790 0.078500
v 0.052032 0.070697 0.065011
v 0.061482 0.028604 0.079705
v 0.085950 0.011169 0.113974
v 0.111101 0.028604 0.147745
v 0.023605 0.072641 0.201471
v 0.021450 0.113239 0.184757
v 0.014254 0.130055 0.144787
v 0.006232 0.113239 0.104974
v 0.002084 0.072641 0.088640
v 0.004238 0.032043 0.105354
v 0.011434 0.015226 0.145325
v 0.019456 0.032043 0.185138
v -0.079465 0.074584 0.195806
v -0.074430 0.113688 0.180373
v -0.064225 0.129885 0.142609
v -0.054827 0.113688 0.104636
v -0.051743 0.074584 0.088698
v -0.056778 0.035481 0.104131
v -0.066983 0.019284 0.141895
v -0.076380 0.035481 0.179868
v -0.167308 0.076528 0.148109
v -0.156559 0.114137 0.136781
v -0.132146 0.129714 0.108153
v -0.108368 0.114137 0.078996
v -0.099154 0.076528 0.066388
v -0.109902 0.038920 0.077716
v -0.134316 0.023342 0.106343
v -0.158094 0.038920 0.135501
v -0.224323 0.078472 0.070018
v -0.210327 0.114585 0.064628
v -0.177372 0.129544 0.049819
v -0.144762 0.114585 0.034265
v -0.131599 0.078472 0.027078
v -0.145595 0.042358 0.032468
v -0.178550 0.027399 0.047277
v -0.211160 0.042358 0.062831
v -0.241760 0.080415 -0.021763
v -0.227423 0.115034 -0.020661
v -0.192795 0.129373 -0.019962
v -0.158161 0.115034 -0.020076
v -0.143807 0.080415 -0.020936
v -0.158144 0.045796 -0.022039
v -0.192772 0.031457 -0.022737
v -0.227407 0.045796 -0.022623
v -0.218987 0.082359 -0.108996
v -0.207055 0.115483 -0.102142
v -0.177401 0.129203 -0.087344
v -0.147398 0.115483 -0.073271
v -0.134619 0.082359 -0.068165
v -0.146551 0.049235 -0.075019
v -0.176205 0.035515 -0.089817
v -0.206208 0.049235 -0.103891
v -0.163096 0.084302 -0.175526
v -0.155627 0.115931 -0.164712
v -0.136100 0.129032 -0.139810
v -0.115952 0.115931 -0.115406
v -0.106986 0.084302 -0.105797
v -0.114455 0.052673 -0.116611
v -0.133983 0.039572 -0.141513
v -0.154130 0.052673 -0.165917
v -0.087030 0.086246 -0.210272
v -0.085046 0.116380 -0.197906
v -0.078411 0.128862 -0.168493
v -0.071011 0.116380 -0.139264
v -0.067181 0.086246 -0.127340
v -0.069164 0.056112 -0.139706
v -0.075800 0.043630 -0.169118
v -0.083200 0.056112 -0.198348
v -0.006678 0.088189 -0.209033
v -0.010045 0.116829 -0.197613
v -0.016341 0.128691 -0.169656
v -0.021877 0.116829 -0.141539
v -0.023411 0.088189 -0.129732
v -0.020044 0.059550 -0.141152
v -0.013748 0.047688 -0.169109
v -0.008211 0.059550 -0.197226
v 0.062419 0.090133 -0.174829
v 0.054866 0.117277 -0.166440
v 0.038101 0.128521 -0.145069
v 0.021945 0.117277 -0.123233
v 0.015862 0.090133 -0.113725
v 0.023415 0.062989 -0.122114
v 0.040179 0.051745 -0.143485
v 0.056335 0.062989 -0.165321
v 0.108070 0.092077 -0.116797
v 0.098205 0.117726 -0.112731
v 0.075224 0.128350 -0.101298
v 0.052588 0.117726 -0.089196
v 0.043557 0.092077 -0.083514
v 0.053422 0.066427 -0.087580
v 0.076403 0.055803 -0.099013
v 0.099039 0.066427 -0.111115
v 0.123578 0.094020 -0.047947
v 0.113542 0.118174 -0.048514
v 0.089372 0.128179 -0.048096
v 0.065226 0.118174 -0.046939
v 0.055249 0.094020 -0.045720
v 0.065284 0.069866 -0.045153
v 0.089454 0.059861 -0.045570
v 0.113600 0.069866 -0.046728
v 0.108629 0.095964 0.017687
v 0.100370 0.118623 0.013127
v 0.079732 0.128009 0.003724
v 0.058804 0.118623 -0.005013
v 0.049845 0.095964 -0.007967
v 0.058103 0.073305 -0.003406
v 0.078741 0.063919 0.005996
v 0.099669 0.073305 0.014733
v 0.068852 0.097907 0.067897
v 0.064880 0.118957 0.059727
v 0.051733 0.127677 0.043091
v 0.037112 0.118957 0.027734
v 0.029582 0.097907 0.022652
v 0.033554 0.076857 0.030822
v 0.046701 0.068138 0.047458
v 0.061322 0.076857 0.062815
v 0.014217 0.106699 0.094571
v 0.016945 0.125717 0.085355
v 0.013727 0.133595 0.065819
v 0.006447 0.125717 0.047407
v -0.000629 0.106699 0.040903
v -0.003357 0.087680 0.050119
v -0.000138 0.079802 0.069655
v 0.007141 0.087680 0.088068
v -0.043324 0.122338 0.094963
v -0.035934 0.139453 0.088621
v -0.030241 0.146542 0.071155
v -0.029578 0.139453 0.052796
v -0.034335 0.122338 0.044299
v -0.041725 0.105223 0.050641
v -0.047419 0.098134 0.068107
v -0.048081 0.105223 0.086466
v -0.092410 0.137977 0.071771
v -0.083556 0.153583 0.069607
v -0.071832 0.160048 0.057466
v -0.064105 0.153583 0.042460
v -0.064903 0.137977 0.033380
v -0.073757 0.122370 0.035544
v -0.085482 0.115905 0.047685
v -0.093208 0.122370 0.062691
v -0.124511 0.153616 0.032093
v -0.116257 0.167718 0.034040
v -0.101799 0.173560 0.028784
v -0.089605 0.167718 0.019403
v -0.086820 0.153616 0.011393
v -0.095074 0.139513 0.009446
v -0.109532 0.133672 0.014702
v -0.121725 0.139513 0.024083
v -0.135399 0.169255 -0.014438
v -0.129435 0.181858 -0.009363
v -0.115625 0.187079 -0.007879
v -0.102059 0.181858 -0.010856
v -0.096682 0.169255 -0.016550
v -0.102646 0.156651 -0.021625
v -0.116456 0.151431 -0.023109
v -0.130023 0.156651 -0.020132
v -0.125596 0.184894 -0.057887
v -0.122872 0.196006 -0.051262
v -0.112402 0.200609 -0.044631
v -0.100318 0.196006 -0.041878
v -0.093700 0.184894 -0.044616
v -0.096423 0.173782 -0.051241
v -0.106893 0.169179 -0.057871
v -0.118977 0.173782 -0.060624
v -0.099777 0.200533 -0.090118
v -0.100346 0.210164 -0.083673
v -0.094683 0.214154 -0.074365
v -0.086105 0.210164 -0.067646
v -0.079638 0.200533 -0.067453
v -0.079069 0.190902 -0.073899
v -0.084732 0.186912 -0.083207
v -0.093309 0.190902 -0.089925
v -0.065342 0.216172 -0.106323
v -0.068438 0.224337 -0.101480
v -0.067647 0.227719 -0.092118
v -0.063431 0.224337 -0.083722
v -0.058261 0.216172 -0.081210
v -0.055165 0.208007 -0.086053
v -0.055956 0.204626 -0.095414
v -0.060172 0.208007 -0.103811
v -0.032903 0.231811 -0.105850
v -0.036409 0.238634 -0.102507
v -0.037608 0.241460 -0.094723
v -0.035798 0.238634 -0.087058
v -0.032039 0.231811 -0.084002
v -0.028534 0.224989 -0.087345
v -0.027334 0.222163 -0.095129
v -0.029144 0.224989 -0.102794
v 0.148385 0.111788 -0.009308
v 0.176285 0.091518 0.012006
v 0.137729 0.078990 0.012006
v 0.113899 0.111788 0.012006
v 0.137729 0.144587 0.012006
v 0.176285 0.132059 0.012006
v 0.159042 0.078990 0.046492
v 0.120485 0.091518 0.046492
v 0.120485 0.132059 0.046492
v 0.159042 0.144587 0.046492
v 0.182871 0.111788 0.046492
v 0.148385 0.111788 0.067806
v 0.066883 0.112499 0.085033
v 0.093329 0.093285 0.105235
v 0.056782 0.081410 0.105235
v 0.034194 0.112499 0.105235
v 0.056782 0.143588 0.105235
v 0.093329 0.131713 0.105235
v 0.076984 0.081410 0.137925
v 0.040437 0.093285 0.137924
v 0.040437 0.131713 0.137924
v 0.076984 0.143588 0.137925
v 0.099572 0.112499 0.137924
v 0.066883 0.112499 0.158127
v -0.050264 0.113210 0.108045
v -0.025272 0.095053 0.127137
v -0.059810 0.083831 0.127137
v -0.081156 0.113210 0.127137
v -0.059810 0.142590 0.127137
v -0.025272 0.131368 0.127137
v -0.040718 0.083831 0.158029
v -0.075256 0.095053 0.158029
v -0.075256 0.131368 0.158029
v -0.040718 0.142590 0.158029
v -0.019373 0.113210 0.158029
v -0.050264 0.113210 0.177121
v -0.148137 0.113921 0.054799
v -0.124599 0.096820 0.072780
v -0.157128 0.086251 0.072780
v -0.177232 0.113921 0.072781
v -0.157128 0.141592 0.072780
v -0.124599 0.131022 0.072780
v -0.139147 0.086251 0.101875
v -0.171675 0.096820 0.101875
v -0.171675 0.131022 0.101875
v -0.139147 0.141592 0.101875
v -0.119043 0.113921 0.101875
v -0.148137 0.113921 0.119856
v -0.190657 0.114633 -0.042857
v -0.168573 0.098588 -0.025987
v -0.199092 0.088671 -0.025987
v -0.217955 0.114633 -0.025986
v -0.199092 0.140594 -0.025987
v -0.168573 0.130677 -0.025987
v -0.182222 0.088671 0.001311
v -0.212741 0.098588 0.001311
v -0.212741 0.130677 0.001311
v -0.182222 0.140594 0.001311
v -0.163360 0.114633 0.001311
v -0.190657 0.114633 0.018181
v -0.159813 0.115343 -0.137942
v -0.139183 0.100355 -0.122182
v -0.167693 0.091091 -0.122182
v -0.185313 0.115343 -0.122182
v -0.167693 0.139595 -0.122182
v -0.139183 0.130332 -0.122182
v -0.151933 0.091091 -0.096682
v -0.180443 0.100355 -0.096682
v -0.180443 0.130332 -0.096682
v -0.151933 0.139595 -0.096682
v -0.134313 0.115343 -0.096682
v -0.159813 0.115343 -0.080922
v -0.080710 0.116055 -0.193330
v -0.061534 0.102123 -0.178681
v -0.088034 0.093512 -0.178681
v -0.104413 0.116055 -0.178681
v -0.088034 0.138597 -0.178681
v -0.061534 0.129987 -0.178681
v -0.073385 0.093512 -0.154978
v -0.099886 0.102123 -0.154978
v -0.099886 0.129987 -0.154978
v -0.073385 0.138597 -0.154978
v -0.057007 0.116055 -0.154978
v -0.080710 0.116055 -0.140329
v 0.010260 0.116765 -0.181926
v 0.027982 0.103890 -0.168388
v 0.003491 0.095932 -0.168388
v -0.011645 0.116765 -0.168388
v 0.003491 0.137599 -0.168388
v 0.027982 0.129641 -0.168388
v 0.017029 0.095932 -0.146482
v -0.007462 0.103890 -0.146482
v -0.007462 0.129641 -0.146482
v 0.017029 0.137599 -0.146482
v 0.032166 0.116765 -0.146482
v 0.010260 0.116765 -0.132944
v 0.075628 0.117476 -0.122548
v 0.091896 0.105656 -0.110120
v 0.069414 0.098352 -0.110120
v 0.055520 0.117476 -0.110120
v 0.069414 0.136600 -0.110120
v 0.091896 0.129295 -0.110120
v 0.081842 0.098352 -0.090012
v 0.059360 0.105656 -0.090012
v 0.059360 0.129295 -0.090012
v 0.081842 0.136600 -0.090012
v 0.095736 0.117476 -0.090012
v 0.075628 0.117476 -0.077584
v 0.083788 0.118187 -0.039728
v 0.098602 0.107424 -0.028412
v 0.078130 0.100773 -0.028412
v 0.065477 0.118187 -0.028412
v 0.078130 0.135602 -0.028412
v 0.098602 0.128950 -0.028412
v 0.089447 0.100773 -0.010100
v 0.068974 0.107424 -0.010100
v 0.068974 0.128950 -0.010100
v 0.089447 0.135602 -0.010100
v 0.102099 0.118187 -0.010100
v 0.083788 0.118187 0.001216
v 0.047433 0.119356 0.027164
v 0.060793 0.109649 0.037370
v 0.042330 0.103650 0.037370
v 0.030919 0.119356 0.037370
v 0.042330 0.135062 0.037370
v 0.060793 0.129062 0.037370
v 0.052536 0.103650 0.053884
v 0.034073 0.109649 0.053884
v 0.034073 0.129062 0.053884
v 0.052536 0.135062 0.053884
v 0.063946 0.119356 0.053884
v 0.047433 0.119356 0.064090
v -0.016715 0.134289 0.051172
v -0.004809 0.125639 0.060267
v -0.021263 0.120292 0.060267
v -0.031432 0.134289 0.060267
v -0.021263 0.148285 0.060267
v -0.004809 0.142939 0.060267
v -0.012167 0.120292 0.074984
v -0.028621 0.125639 0.074984
v -0.028621 0.142939 0.074984
v -0.012167 0.148285 0.074984
v -0.001998 0.134289 0.074984
v -0.016715 0.134289 0.084079
v -0.077995 0.155565 0.036884
v -0.067543 0.147971 0.044868
v -0.081987 0.143278 0.044868
v -0.090914 0.155565 0.044868
v -0.081987 0.167852 0.044868
v -0.067543 0.163159 0.044868
v -0.074002 0.143278 0.057788
v -0.088447 0.147971 0.057788
v -0.088447 0.163159 0.057788
v -0.074002 0.167852 0.057788
v -0.065075 0.155565 0.057788
v -0.077995 0.155565 0.065772
v -0.110230 0.177325 -0.011540
v -0.101232 0.170788 -0.004666
v -0.113667 0.166748 -0.004666
v -0.121352 0.177325 -0.004666
v -0.113667 0.187903 -0.004666
v -0.101232 0.183863 -0.004666
v -0.106793 0.166748 0.006456
v -0.119228 0.170788 0.006456
v -0.119228 0.183863 0.006456
v -0.106793 0.187903 0.006456
v -0.099108 0.177325 0.006456
v -0.110230 0.177325 0.013330
v -0.107204 0.198991 -0.063131
v -0.099660 0.193510 -0.057368
v -0.110086 0.190123 -0.057368
v -0.116529 0.198991 -0.057368
v -0.110086 0.207860 -0.057368
v -0.099660 0.204472 -0.057368
v -0.104323 0.190123 -0.048043
v -0.114748 0.193510 -0.048043
v -0.114748 0.204472 -0.048043
v -0.104323 0.207860 -0.048043
v -0.097879 0.198991 -0.048043
v -0.107204 0.198991 -0.042280
v -0.071897 0.220800 -0.095666
v -0.065807 0.216375 -0.091014
v -0.074223 0.213640 -0.091014
v -0.079424 0.220800 -0.091014
v -0.074223 0.227959 -0.091014
v -0.065807 0.225224 -0.091014
v -0.069571 0.213640 -0.083486
v -0.077987 0.216375 -0.083486
v -0.077987 0.225224 -0.083486
v -0.069571 0.227959 -0.083486
v -0.064369 0.220800 -0.083486
v -0.071897 0.220800 -0.078834
vn 0.9271 -0.0146 -0.3744
vn 0.6358 0.6829 0.3597
vn 0.8641 0.0004 0.5032
vn 0.7100 0.5395 -0.4526
vn 0.0447 0.9986 0.0276
vn 0.1755 0.7700 -0.6134
vn -0.6006 0.7365 -0.3113
vn -0.3632 0.5406 -0.7589
vn -0.8948 0.0006 -0.4464
vn -0.3706 -0.5690 -0.7341
vn -0.5901 -0.0147 -0.8072
vn 0.1655 -0.7987 -0.5785
vn -0.6159 -0.7350 -0.2837
vn 0.7032 -0.5680 -0.4276
vn 0.0236 -0.9975 0.0667
vn 0.6214 -0.6815 0.3866
vn 0.4265 0.6817 0.5944
vn 0.5721 0.0009 0.8202
vn 0.0302 0.9986 0.0442
vn -0.4094 0.7354 -0.5400
vn -0.6153 0.0018 -0.7883
vn -0.4387 -0.7332 -0.5196
vn -0.0092 -0.9973 0.0731
vn 0.3997 -0.6802 0.6145
vn 0.1314 0.6817 0.7197
vn 0.1660 0.0009 0.9861
vn 0.0084 0.9986 0.0529
vn -0.1397 0.7354 -0.6630
vn -0.2202 0.0019 -0.9755
vn -0.1759 -0.7331 -0.6570
vn -0.0410 -0.9972 0.0625
vn 0.0976 -0.6801 0.7266
vn -0.1891 0.6817 0.7067
vn -0.2721 0.0009 0.9623
vn -0.0151 0.9986 0.0514
vn 0.1569 0.7355 -0.6592
vn 0.2171 0.0019 -0.9762
vn 0.1205 -0.7331 -0.6694
vn -0.0653 -0.9971 0.0386
vn -0.2236 -0.6800 0.6982
vn -0.4734 0.6817 0.5578
vn -0.6580 0.0010 0.7530
vn -0.0357 0.9986 0.0400
vn 0.4234 0.7355 -0.5290
vn 0.6129 0.0020 -0.7902
vn 0.3940 -0.7330 -0.5546
vn -0.0768 -0.9970 0.0059
vn -0.5017 -0.6800 0.5347
vn -0.6666 0.6817 0.3015
vn -0.9172 0.0010 0.3984
vn -0.0494 0.9986 0.0208
vn 0.6088 0.7355 -0.2974
vn 0.8915 0.0021 -0.4530
vn 0.5926 -0.7329 -0.3342
vn -0.0727 -0.9969 -0.0291
vn -0.6828 -0.6799 0.2674
vn -0.7315 0.6818 -0.0129
vn -0.9994 0.0011 -0.0332
vn -0.0536 0.9986 -0.0024
vn 0.6774 0.7356 -0.0087
vn 0.9996 0.0022 -0.0291
vn 0.6786 -0.7328 -0.0503
vn -0.0533 -0.9968 -0.0594
vn -0.7316 -0.6798 -0.0520
vn -0.6554 0.6818 -0.3250
vn -0.8887 0.0011 -0.4586
vn -0.0474 0.9986 -0.0251
vn 0.6161 0.7356 0.2817
vn 0.9163 0.0023 0.4005
vn 0.6356 -0.7327 0.2433
vn -0.0219 -0.9967 -0.0783
vn -0.6382 -0.6797 -0.3616
vn -0.4529 0.6818 -0.5745
vn -0.6060 0.0012 -0.7955
vn -0.0320 0.9986 -0.0431
vn 0.4364 0.7356 0.5181
vn 0.6575 0.0023 0.7535
vn 0.4717 -0.7325 0.4908
vn 0.0154 -0.9966 -0.0815
vn -0.4206 -0.6796 -0.6011
vn -0.1628 0.6818 -0.7132
vn -0.2058 0.0013 -0.9786
vn -0.0104 0.9986 -0.0527
vn 0.1729 0.7357 0.6549
vn 0.2726 0.0024 0.9621
vn 0.2181 -0.7324 0.6450
vn 0.0511 -0.9964 -0.0676
vn -0.1207 -0.6794 -0.7237
vn 0.1589 0.6818 -0.7141
vn 0.2346 0.0013 -0.9721
vn 0.0133 0.9986 -0.0521
vn -0.1240 0.7357 0.6658
vn -0.1647 0.0026 0.9863
vn -0.0772 -0.7323 0.6766
vn 0.0777 -0.9962 -0.0387
vn 0.2031 -0.6793 -0.7052
vn 0.4500 0.6818 -0.5767
vn 0.6297 0.0014 -0.7768
vn 0.0344 0.9986 -0.0413
vn -0.3970 0.7358 0.5486
vn -0.5705 0.0027 0.8213
vn -0.3579 -0.7321 0.5796
vn 0.0889 -0.9960 -0.0000
vn 0.4876 -0.6791 -0.5487
vn 0.6541 0.6818 -0.3275
vn 0.9027 0.0015 -0.4304
vn 0.0489 0.9986 -0.0225
vn -0.5937 0.7358 0.3257
vn -0.8669 0.0028 0.4985
vn -0.5707 -0.7319 0.3723
vn 0.0817 -0.9958 0.0407
vn 0.6769 -0.6789 -0.2844
vn 0.7313 0.6819 -0.0145
vn 1.0000 0.0016 0.0003
vn 0.0539 0.9985 0.0008
vn -0.6759 0.7359 0.0398
vn -0.9968 0.0029 0.0797
vn -0.6751 -0.7317 0.0941
vn 0.0564 -0.9956 0.0751
vn 0.7335 -0.6787 0.0364
vn 0.6667 0.6822 0.3002
vn 0.9025 0.0012 0.4307
vn 0.0469 0.9986 0.0246
vn -0.6306 0.7349 -0.2494
vn -0.9371 0.0035 -0.3490
vn -0.6528 -0.7299 -0.2028
vn 0.0180 -0.9952 0.0958
vn 0.6450 -0.6787 0.3511
vn 0.5167 0.6719 0.5306
vn 0.6300 -0.0110 0.7765
vn 0.0902 0.9959 -0.0044
vn -0.4245 0.7255 -0.5416
vn -0.6859 -0.0158 -0.7275
vn -0.0792 -0.9874 0.1372
vn -0.5310 -0.7314 -0.4279
vn 0.3900 -0.6812 0.6196
vn 0.3321 0.6579 0.6759
vn 0.2338 -0.0074 0.9723
vn 0.2238 0.9746 -0.0049
vn -0.0485 0.7129 -0.6996
vn -0.3195 -0.0054 -0.9476
vn -0.4072 -0.7040 -0.5818
vn -0.2708 -0.9541 0.1275
vn -0.0089 -0.6585 0.7525
vn 0.0620 0.6541 0.7538
vn -0.2104 0.0107 0.9776
vn 0.2819 0.9541 0.1016
vn 0.3174 0.7054 -0.6338
vn 0.1275 0.0169 -0.9917
vn -0.1728 -0.6730 -0.7192
vn -0.3842 -0.9231 -0.0153
vn -0.3923 -0.6288 0.6714
vn -0.2607 0.6515 0.7125
vn -0.6138 0.0132 0.7893
vn 0.2225 0.9492 0.2225
vn 0.5666 0.7032 -0.4295
vn 0.5402 0.0179 -0.8414
vn 0.1435 -0.6670 -0.7311
vn -0.3554 -0.9147 -0.1922
vn -0.6562 -0.6222 0.4269
vn -0.5381 0.6483 0.5387
vn -0.8956 0.0147 0.4447
vn 0.1123 0.9439 0.3106
vn 0.7021 0.6996 -0.1328
vn 0.8497 0.0195 -0.5269
vn 0.4381 -0.6599 -0.6105
vn -0.2468 -0.9058 -0.3445
vn -0.7829 -0.6158 0.0886
vn -0.7175 0.6446 0.2638
vn -0.9998 0.0165 0.0108
vn -0.0320 0.9377 0.3460
vn 0.6913 0.6954 0.1965
vn 0.9938 0.0213 -0.1091
vn 0.6582 -0.6516 -0.3771
vn -0.0742 -0.8953 -0.4392
vn -0.7446 -0.6083 -0.2748
vn -0.7656 0.6403 -0.0623
vn -0.9044 0.0185 -0.4264
vn -0.1860 0.9304 0.3157
vn 0.5326 0.6904 0.4896
vn 0.9434 0.0233 0.3308
vn 0.7634 -0.6420 -0.0708
vn 0.1332 -0.8831 -0.4498
vn -0.5446 -0.5996 -0.5864
vn -0.6723 0.6353 -0.3800
vn -0.6266 0.0210 -0.7791
vn -0.3204 0.9219 0.2177
vn 0.2555 0.6845 0.6828
vn 0.7071 0.0257 0.7066
vn 0.7329 -0.6307 0.2552
vn 0.3355 -0.8688 -0.3641
vn -0.2208 -0.5892 -0.7772
vn -0.4419 0.6350 -0.6336
vn -0.2164 0.0304 -0.9758
vn -0.3936 0.9174 0.0592
vn -0.0806 0.6836 0.7254
vn 0.3301 0.0276 0.9435
vn 0.5711 -0.6165 0.5420
vn 0.4913 -0.8502 -0.1889
vn 0.1626 -0.5763 -0.8009
vn 0.5398 0.3118 -0.7819
vn 0.2959 0.7788 -0.5531
vn 0.2139 0.9768 -0.0087
vn 0.6095 0.3091 0.7300
vn 0.3422 0.7845 0.5172
vn 0.8512 -0.1597 0.4999
vn 0.9343 -0.3546 -0.0374
vn 0.8075 -0.1611 -0.5674
vn 0.1876 -0.5773 -0.7947
vn 0.6071 -0.0000 -0.7947
vn -0.4911 -0.3568 -0.7947
vn -0.4911 0.3568 -0.7947
vn 0.1876 0.5773 -0.7947
vn 0.9822 -0.0000 -0.1876
vn 0.3035 -0.9342 -0.1876
vn -0.7947 -0.5774 -0.1876
vn -0.7947 0.5774 -0.1876
vn 0.3035 0.9342 -0.1876
vn 0.7947 -0.5774 0.1876
vn -0.3035 -0.9342 0.1876
vn -0.9822 -0.0000 0.1876
vn -0.3035 0.9342 0.1876
vn 0.7947 0.5774 0.1876
vn 0.4911 -0.3568 0.7947
vn -0.1876 -0.5773 0.7947
vn -0.6071 -0.0000 0.7947
vn -0.1876 0.5773 0.7947
vn 0.4911 0.3568 0.7947
vt -0.068038 0.256568
vt -0.392270 0.431419
vt -0.428940 0.264031
vt 0.929378 0.044331
vt 0.673336 0.310682
vt 0.819557 0.392270
vt 0.763473 -0.005344
vt 0.525548 0.231969
vt -0.051888 0.429697
vt 0.202239 0.264031
vt 0.231969 0.431419
vt -0.044331 0.083438
vt 0.760383 -0.005344
vt 0.521765 -0.238908
vt 0.594478 0.044331
vt 0.927193 -0.051888
vt 0.667986 -0.320496
vt -0.399210 0.096643
vt -0.051888 0.083438
vt -0.683470 0.433143
vt -0.739898 0.271495
vt 0.463736 0.551867
vt 0.557697 0.683470
vt 0.367148 0.422181
vt 0.370379 0.271495
vt 0.422181 0.433143
vt 0.426807 0.109847
vt 0.454765 -0.558410
vt 0.360804 -0.426807
vt 0.551354 -0.688097
vt -0.688097 0.109847
vt 0.593989 0.271495
vt 0.207070 0.434866
vt 0.215345 0.278959
vt 0.179437 0.676738
vt 0.207070 0.830234
vt 0.148631 0.523846
vt -0.367148 0.433143
vt -0.132699 0.278959
vt -0.148631 0.434866
vt -0.324512 0.271495
vt -0.140973 0.123052
vt 0.168607 -0.678803
vt 0.140973 -0.525307
vt 0.199413 -0.831695
vt 0.551354 0.109847
vt 0.199413 0.123052
vt -0.161131 0.436589
vt -0.180467 0.286423
vt -0.121941 0.668374
vt -0.161131 0.813396
vt -0.085853 0.522548
vt 0.074008 0.286423
vt 0.085853 0.436589
vt 0.093344 0.136256
vt -0.132534 -0.665632
vt -0.093344 -0.520609
vt -0.168622 -0.811458
vt -0.168622 0.136256
vt -0.476530 0.438312
vt -0.517806 0.293886
vt -0.382775 0.536056
vt -0.476530 0.645993
vt -0.291461 0.424083
vt 0.256079 0.293886
vt 0.291461 0.438312
vt 0.297355 0.149461
vt -0.391110 -0.529105
vt -0.297355 -0.419168
vt -0.482424 -0.641078
vt -0.482424 0.149461
vt 0.689494 0.293886
vt 0.368909 0.440035
vt 0.389606 0.301350
vt -0.556456 0.312039
vt -0.683012 0.368909
vt -0.431225 0.252309
vt -0.424083 0.438312
vt -0.224708 0.301350
vt -0.252309 0.440035
vt -0.375667 0.293886
vt -0.245405 0.162665
vt -0.560977 -0.302276
vt -0.434422 -0.245405
vt -0.686209 -0.362006
vt 0.641078 0.149461
vt 0.362006 0.162665
vt 0.041378 0.441759
vt 0.037145 0.308814
vt -0.615685 0.044062
vt -0.748665 0.041378
vt -0.482678 0.043624
vt -0.040321 0.308814
vt -0.043624 0.441759
vt -0.036088 0.175870
vt -0.615595 -0.033404
vt -0.482615 -0.036088
vt -0.748601 -0.033841
vt 0.033841 0.175870
vt -0.271531 0.443482
vt -0.297851 0.316278
vt -0.556568 -0.214702
vt -0.670444 -0.271531
vt -0.441346 -0.160656
vt 0.141051 0.316278
vt 0.160656 0.443482
vt 0.167371 0.189074
vt -0.551972 0.224200
vt -0.438096 0.167371
vt -0.667193 0.278246
vt -0.278246 0.189074
vt -0.511815 0.445204
vt -0.553343 0.323742
vt -0.397959 -0.416183
vt -0.472951 -0.511815
vt -0.320586 -0.322468
vt 0.285566 0.323742
vt 0.322468 0.445204
vt 0.327094 0.202279
vt -0.389829 0.422725
vt -0.314837 0.327094
vt -0.467202 0.516441
vt -0.516441 0.202279
vt 0.501632 0.323742
vt 0.201902 0.446927
vt 0.209520 0.331205
vt -0.176421 -0.526335
vt -0.201902 -0.639286
vt -0.148002 -0.414088
vt -0.320586 0.445204
vt -0.133293 0.331205
vt -0.148002 0.446927
vt -0.286156 0.323742
vt -0.140911 0.215483
vt -0.166392 0.528736
vt -0.140911 0.415785
vt -0.194811 0.640983
vt 0.467202 0.202279
vt 0.194811 0.215483
vt -0.086121 0.448650
vt -0.099053 0.338669
vt 0.061944 -0.530799
vt 0.086121 -0.638161
vt 0.040683 -0.422823
vt 0.034793 0.338669
vt 0.040683 0.448650
vt 0.047725 0.228688
vt 0.071902 0.528698
vt 0.047725 0.421337
vt 0.093163 0.636675
vt -0.093163 0.228688
vt -0.335395 0.450373
vt -0.364400 0.346133
vt 0.271014 -0.436379
vt 0.335395 -0.518451
vt 0.208972 -0.352525
vt 0.185610 0.346133
vt 0.208972 0.450373
vt 0.214615 0.241893
vt 0.278995 0.430298
vt 0.214615 0.348225
vt 0.341038 0.514152
vt -0.341038 0.241893
vt 0.550666 0.346133
vt 0.312193 0.452096
vt 0.327808 0.353597
vt 0.413576 -0.268289
vt 0.501830 -0.312193
vt 0.326648 -0.221814
vt -0.352525 0.450373
vt -0.199992 0.353597
vt -0.221814 0.452096
vt -0.316011 0.346133
vt -0.215607 0.255098
vt 0.418104 0.259512
vt 0.329850 0.215607
vt 0.505032 0.305987
vt 0.514152 0.241893
vt 0.305987 0.255098
vt 0.065584 0.453819
vt 0.063407 0.361061
vt 0.467908 -0.063981
vt 0.560726 -0.065584
vt 0.375182 -0.059536
vt -0.054854 0.361061
vt -0.059536 0.453819
vt -0.052677 0.268303
vt 0.468224 0.054280
vt 0.375405 0.052677
vt 0.560950 0.058724
vt 0.058724 0.268303
vt -0.171132 0.455541
vt -0.188644 0.368524
vt 0.430889 0.135023
vt 0.510144 0.171132
vt 0.350518 0.101470
vt 0.090128 0.368524
vt 0.101470 0.455541
vt 0.107640 0.281507
vt 0.427081 -0.143748
vt 0.347826 -0.107640
vt 0.507451 -0.177301
vt -0.177301 0.281507
vt -0.350086 0.456826
vt -0.381462 0.375988
vt 0.323364 0.286200
vt 0.373853 0.350086
vt 0.267215 0.227226
vt 0.227226 0.456826
vt 0.207710 0.375988
vt 0.304040 -0.302972
vt 0.253551 -0.239085
vt 0.360189 -0.361946
vt -0.361946 0.295150
vt 0.389106 0.375988
vt 0.189770 0.482785
vt 0.179295 0.409749
vt 0.177411 0.373483
vt 0.189770 0.448507
vt 0.149456 0.302774
vt -0.267215 0.456826
vt -0.122282 0.409749
vt -0.149456 0.482785
vt -0.238298 0.375988
vt -0.111806 0.336713
vt 0.124166 -0.388213
vt 0.111806 -0.313189
vt 0.152121 -0.458922
vt 0.360189 0.295150
vt 0.152121 0.336713
vt -0.013300 0.535532
vt -0.041679 0.469807
vt 0.008566 0.393973
vt -0.013300 0.461048
vt 0.011110 0.323470
vt 0.007158 0.469807
vt -0.011110 0.535532
vt 0.035537 0.404082
vt -0.057403 -0.382268
vt -0.035537 -0.315193
vt -0.059947 -0.452771
vt -0.059947 0.404082
vt -0.196178 0.589798
vt -0.230182 0.529865
vt -0.151154 0.341404
vt -0.196178 0.388029
vt -0.121483 0.283778
vt 0.124547 0.529865
vt 0.121483 0.589798
vt 0.158550 0.469931
vt -0.203574 -0.303844
vt -0.158550 -0.257220
vt -0.233245 -0.361470
vt -0.233245 0.469931
vt 0.396340 0.529865
vt 0.251443 0.644079
vt 0.243966 0.589922
vt -0.266235 0.231257
vt -0.321759 0.251443
vt -0.219410 0.195233
vt -0.283778 0.589798
vt -0.164473 0.589922
vt -0.195233 0.644079
vt 0.240409 0.535765
vt 0.208712 0.589922
vt -0.295933 -0.177182
vt -0.240409 -0.156996
vt -0.342759 -0.213206
vt 0.361470 0.469931
vt 0.213206 0.535765
vt 0.084766 0.698381
vt 0.065276 0.649980
vt -0.319332 0.090464
vt -0.372366 0.084766
vt -0.267233 0.079031
vt -0.057165 0.649980
vt -0.079031 0.698381
vt -0.037674 0.601580
vt -0.322523 -0.031977
vt -0.269489 -0.037674
vt -0.374623 -0.043410
vt 0.043410 0.601580
vt -0.076138 0.752711
vt -0.101578 0.710038
vt -0.306955 -0.050674
vt -0.347163 -0.076138
vt -0.260550 -0.040102
vt 0.050615 0.710038
vt 0.040102 0.752711
vt 0.076055 0.667365
vt -0.285799 0.101520
vt -0.245591 0.076055
vt -0.332204 0.112092
vt -0.112092 0.667365
vt -0.200602 0.807082
vt -0.225354 0.770096
vt -0.238908 -0.164857
vt -0.260656 -0.200602
vt -0.205968 -0.139057
vt 0.138316 0.770096
vt 0.139057 0.807082
vt 0.163068 0.733110
vt -0.200694 0.198814
vt -0.178946 0.163068
vt -0.233634 0.224613
vt 0.332204 0.667365
vt 0.258471 0.770096
vt 0.233634 0.733110
vt 0.138123 0.861508
vt 0.126234 0.830154
vt -0.135083 -0.233035
vt -0.138123 -0.268985
vt -0.118893 -0.200792
vt -0.205968 0.807082
vt -0.099039 0.830154
vt -0.118893 0.861508
vt -0.181131 0.770096
vt -0.087149 0.798800
vt -0.090190 0.245694
vt -0.087149 0.209743
vt -0.106379 0.277937
vt 0.106379 0.798800
vt 0.001658 0.890212
vt -0.015121 -0.272929
vt -0.019726 -0.243037
vt -0.012776 0.916412
vt 0.015121 0.864011
vt 0.019726 0.244597
vt 0.015121 0.214704
vt 0.012776 0.274032
vt -0.012776 0.864011
vt -0.929378 0.429697
vt -0.927193 0.083438
vt -0.594478 0.083438
vt 0.274032 0.864011
vt 0.272929 0.916412
vt 0.213602 0.916412
vt -0.694533 0.429295
vt -0.801675 0.351452
vt -0.653609 0.303342
vt -0.801675 0.507137
vt -0.562098 0.429295
vt -0.653609 0.555248
vt -0.166826 0.351452
vt -0.166826 0.507137
vt -0.299262 0.429295
vt 0.653609 -0.166826
vt 0.801675 -0.166826
vt 0.735457 -0.299263
vt 0.166826 0.429295
vt 0.166826 0.303342
vt 0.299263 0.351452
vt 0.166826 0.555248
vt 0.299263 0.507137
vt 0.801675 0.166826
vt 0.653609 0.166826
vt 0.735457 0.299263
vt -0.299263 0.303342
vt 0.587390 -0.299263
vt 0.587390 0.299263
vt -0.299263 0.555248
vt 0.735457 0.303342
vt 0.826968 0.429295
vt 0.694533 0.429295
vt 0.587390 0.351452
vt 0.587390 0.507137
vt 0.735457 0.555248
vt -0.381544 0.432023
vt -0.483103 0.358238
vt -0.342753 0.312634
vt -0.483103 0.505809
vt -0.256011 0.432023
vt -0.342753 0.551413
vt -0.524850 0.358238
vt -0.524850 0.505809
vt -0.650384 0.432023
vt 0.342753 -0.524850
vt 0.483103 -0.524850
vt 0.420335 -0.650385
vt 0.524850 0.432023
vt 0.524850 0.312634
vt 0.650385 0.358238
vt 0.524850 0.551413
vt 0.650385 0.505809
vt 0.483103 0.524850
vt 0.342753 0.524850
vt 0.420335 0.650385
vt -0.650385 0.312634
vt 0.279985 -0.650385
vt 0.279985 0.650385
vt -0.650385 0.551413
vt 0.420335 0.312634
vt 0.507077 0.432023
vt 0.381544 0.432023
vt 0.279985 0.358238
vt 0.279985 0.505809
vt 0.420335 0.551413
vt 0.068330 0.434756
vt -0.027645 0.365027
vt 0.104989 0.321931
vt -0.027645 0.504485
vt 0.186962 0.434756
vt 0.104989 0.547581
vt -0.608959 0.365027
vt -0.608959 0.504485
vt -0.727592 0.434756
vt -0.104989 -0.608959
vt 0.027645 -0.608959
vt -0.031672 -0.727592
vt 0.608959 0.434756
vt 0.608959 0.321931
vt 0.727592 0.365027
vt 0.608959 0.547581
vt 0.727592 0.504485
vt 0.027645 0.608959
vt -0.104989 0.608959
vt -0.031672 0.727592
vt -0.727592 0.321931
vt -0.164305 -0.727592
vt -0.164305 0.727592
vt -0.727592 0.547581
vt -0.031672 0.321931
vt 0.050301 0.434756
vt -0.068330 0.434756
vt -0.164305 0.365027
vt -0.164305 0.504485
vt -0.031672 0.547581
vt 0.444187 0.437485
vt 0.353795 0.371813
vt 0.478712 0.331224
vt 0.353795 0.503158
vt 0.555916 0.437485
vt 0.478712 0.543746
vt -0.400216 0.371813
vt -0.400216 0.503158
vt -0.511947 0.437485
vt -0.478712 -0.400216
vt -0.353795 -0.400216
vt -0.409661 -0.511947
vt 0.400216 0.437485
vt 0.400216 0.331224
vt 0.511947 0.371813
vt 0.400216 0.543746
vt 0.511947 0.503158
vt -0.353795 0.400216
vt -0.478712 0.400216
vt -0.409661 0.511947
vt -0.511947 0.331224
vt -0.534578 -0.511947
vt -0.534578 0.511947
vt -0.511947 0.543746
vt -0.409661 0.331224
vt -0.332457 0.437485
vt -0.444187 0.437485
vt -0.534578 0.371813
vt -0.534578 0.503158
vt -0.409661 0.543746
vt 0.607474 0.440218
vt 0.522666 0.378602
vt 0.639867 0.340520
vt 0.522666 0.501833
vt 0.712302 0.440218
vt 0.639867 0.539915
vt -0.020926 0.378602
vt -0.020926 0.501833
vt -0.125755 0.440218
vt -0.639867 -0.020926
vt -0.522666 -0.020926
vt -0.575081 -0.125756
vt 0.020927 0.440218
vt 0.020926 0.340520
vt 0.125756 0.378602
vt 0.020926 0.539915
vt 0.125756 0.501833
vt -0.522666 0.020926
vt -0.639867 0.020926
vt -0.575081 0.125756
vt -0.125756 0.340520
vt -0.692282 -0.125756
vt -0.692282 0.125756
vt -0.125756 0.539915
vt -0.575081 0.340520
vt -0.502646 0.440218
vt -0.607474 0.440218
vt -0.692282 0.378602
vt -0.692282 0.501833
vt -0.575081 0.539915
vt 0.489025 0.442947
vt 0.409801 0.385388
vt 0.519285 0.349813
vt 0.409801 0.500506
vt 0.586951 0.442947
vt 0.519285 0.536080
vt 0.348488 0.385388
vt 0.348488 0.500506
vt 0.250561 0.442947
vt -0.519285 0.348488
vt -0.409801 0.348488
vt -0.458765 0.250560
vt -0.348487 0.442947
vt -0.348488 0.349813
vt -0.250560 0.385388
vt -0.348488 0.536080
vt -0.250560 0.500506
vt -0.409801 -0.348488
vt -0.519285 -0.348488
vt -0.458765 -0.250560
vt 0.250560 0.349813
vt -0.568249 0.250560
vt -0.568249 -0.250560
vt 0.250560 0.536080
vt -0.458765 0.349813
vt -0.391099 0.442947
vt -0.489025 0.442947
vt -0.568249 0.385388
vt -0.568249 0.500506
vt -0.458765 0.536080
vt 0.185249 0.445679
vt 0.111609 0.392177
vt 0.213376 0.359110
vt 0.111609 0.499181
vt 0.276273 0.445679
vt 0.213376 0.532248
vt 0.565457 0.392177
vt 0.565457 0.499181
vt 0.474432 0.445679
vt -0.213376 0.565457
vt -0.111609 0.565457
vt -0.157121 0.474431
vt -0.565457 0.445679
vt -0.565457 0.359110
vt -0.474431 0.392177
vt -0.565457 0.532248
vt -0.474431 0.499181
vt -0.111609 -0.565457
vt -0.213376 -0.565457
vt -0.157121 -0.474431
vt 0.474431 0.359110
vt -0.258889 0.474431
vt -0.258889 -0.474431
vt 0.474431 0.532248
vt -0.157121 0.359110
vt -0.094225 0.445679
vt -0.185249 0.445679
vt -0.258889 0.392177
vt -0.258889 0.499181
vt -0.157121 0.532248
vt -0.164098 0.448408
vt -0.232155 0.398962
vt -0.138103 0.368402
vt -0.232155 0.497853
vt -0.079976 0.448408
vt -0.138103 0.528413
vt 0.525929 0.398962
vt 0.525929 0.497853
vt 0.441806 0.448408
vt 0.138103 0.525929
vt 0.232155 0.525929
vt 0.190093 0.441805
vt -0.525929 0.448408
vt -0.525929 0.368402
vt -0.441805 0.398962
vt -0.525929 0.528413
vt -0.441805 0.497853
vt 0.232155 -0.525929
vt 0.138103 -0.525929
vt 0.190093 -0.441805
vt 0.441805 0.368402
vt 0.096041 0.441805
vt 0.096041 -0.441805
vt 0.441805 0.528413
vt 0.190093 0.368402
vt 0.248221 0.448408
vt 0.164098 0.448408
vt 0.096041 0.398962
vt 0.096041 0.497853
vt 0.190093 0.528413
vt -0.415127 0.451136
vt -0.477600 0.405747
vt -0.391265 0.377694
vt -0.477600 0.496524
vt -0.337906 0.451136
vt -0.391265 0.524577
vt 0.302167 0.405747
vt 0.302167 0.496524
vt 0.224946 0.451136
vt 0.391265 0.302167
vt 0.477600 0.302167
vt 0.438989 0.224945
vt -0.302167 0.451136
vt -0.302167 0.377694
vt -0.224945 0.405747
vt -0.302167 0.524577
vt -0.224945 0.496524
vt 0.477600 -0.302167
vt 0.391265 -0.302167
vt 0.438989 -0.224945
vt 0.224945 0.377694
vt 0.352654 0.224945
vt 0.352654 -0.224945
vt 0.224945 0.524577
vt 0.438989 0.377694
vt 0.492348 0.451136
vt 0.415127 0.451136
vt 0.352654 0.405747
vt 0.352654 0.496524
vt 0.438989 0.524577
vt -0.446464 0.453868
vt -0.503354 0.412536
vt -0.424735 0.386991
vt -0.503354 0.495200
vt -0.376145 0.453868
vt -0.424735 0.520746
vt -0.011614 0.412536
vt -0.011614 0.495200
vt -0.081933 0.453868
vt 0.424735 -0.011614
vt 0.503354 -0.011614
vt 0.468194 -0.081934
vt 0.011614 0.453868
vt 0.011614 0.386991
vt 0.081934 0.412536
vt 0.011614 0.520746
vt 0.081934 0.495200
vt 0.503354 0.011614
vt 0.424735 0.011614
vt 0.468194 0.081934
vt -0.081934 0.386991
vt 0.389575 -0.081934
vt 0.389575 0.081934
vt -0.081934 0.520746
vt 0.468194 0.386991
vt 0.516783 0.453868
vt 0.446464 0.453868
vt 0.389575 0.412536
vt 0.389575 0.495200
vt 0.468194 0.520746
vt -0.306850 0.458356
vt -0.358155 0.421081
vt -0.287253 0.398043
vt -0.358155 0.495632
vt -0.243432 0.458356
vt -0.287253 0.518670
vt -0.264230 0.421081
vt -0.264230 0.495632
vt -0.327647 0.458356
vt 0.287253 -0.264230
vt 0.358155 -0.264230
vt 0.326446 -0.327648
vt 0.264230 0.458356
vt 0.264230 0.398043
vt 0.327648 0.421081
vt 0.264230 0.518670
vt 0.327648 0.495632
vt 0.358155 0.264230
vt 0.287253 0.264230
vt 0.326446 0.327648
vt -0.327648 0.398043
vt 0.255544 -0.327648
vt 0.255544 0.327648
vt -0.327648 0.518670
vt 0.326446 0.398043
vt 0.370267 0.458356
vt 0.306850 0.458356
vt 0.255544 0.421081
vt 0.255544 0.495632
vt 0.326446 0.518670
vt -0.060507 0.515702
vt -0.106229 0.482483
vt -0.043044 0.461953
vt -0.106229 0.548921
vt -0.003992 0.515702
vt -0.043044 0.569451
vt -0.352161 0.482483
vt -0.352161 0.548921
vt -0.408677 0.515702
vt 0.043044 -0.352161
vt 0.106229 -0.352161
vt 0.077971 -0.408677
vt 0.352161 0.515702
vt 0.352161 0.461953
vt 0.408677 0.482483
vt 0.352161 0.569451
vt 0.408677 0.548921
vt 0.106229 0.352161
vt 0.043044 0.352161
vt 0.077971 0.408677
vt -0.408677 0.461953
vt 0.014785 -0.408677
vt 0.014785 0.408677
vt -0.408677 0.569451
vt 0.077971 0.461953
vt 0.117023 0.515702
vt 0.060507 0.515702
vt 0.014785 0.482483
vt 0.014785 0.548921
vt 0.077971 0.569451
vt 0.174821 0.597408
vt 0.134683 0.568246
vt 0.190152 0.550223
vt 0.134683 0.626570
vt 0.224435 0.597408
vt 0.190152 0.644593
vt -0.293026 0.568246
vt -0.293026 0.626570
vt -0.342640 0.597408
vt -0.190152 -0.293026
vt -0.134683 -0.293026
vt -0.159490 -0.342640
vt 0.293026 0.597408
vt 0.293026 0.550223
vt 0.342640 0.568246
vt 0.293026 0.644593
vt 0.342640 0.626570
vt -0.134683 0.293026
vt -0.190152 0.293026
vt -0.159490 0.342640
vt -0.342640 0.550223
vt -0.214960 -0.342640
vt -0.214960 0.342640
vt -0.342640 0.644593
vt -0.159490 0.550223
vt -0.125208 0.597408
vt -0.174821 0.597408
vt -0.214960 0.568246
vt -0.214960 0.626570
vt -0.159490 0.644593
vt 0.298614 0.680973
vt 0.264060 0.655868
vt 0.311813 0.640352
vt 0.264060 0.706078
vt 0.341326 0.680973
vt 0.311813 0.721595
vt -0.102802 0.655868
vt -0.102802 0.706078
vt -0.145515 0.680973
vt -0.311813 -0.102802
vt -0.264060 -0.102802
vt -0.285416 -0.145515
vt 0.102802 0.680973
vt 0.102802 0.640352
vt 0.145515 0.655868
vt 0.102802 0.721595
vt 0.145515 0.706078
vt -0.264060 0.102802
vt -0.311813 0.102802
vt -0.285416 0.145515
vt -0.145515 0.640352
vt -0.333169 -0.145515
vt -0.333169 0.145515
vt -0.145515 0.721595
vt -0.285416 0.640352
vt -0.255902 0.680973
vt -0.298614 0.680973
vt -0.333169 0.655868
vt -0.333169 0.706078
vt -0.285416 0.721595
vt 0.286994 0.764175
vt 0.258023 0.743127
vt 0.298059 0.730118
vt 0.258023 0.785224
vt 0.322804 0.764175
vt 0.298059 0.798233
vt 0.099588 0.743127
vt 0.099588 0.785224
vt 0.063777 0.764175
vt -0.298059 0.099588
vt -0.258023 0.099588
vt -0.275928 0.063777
vt -0.099588 0.764175
vt -0.099588 0.730118
vt -0.063777 0.743127
vt -0.099588 0.798233
vt -0.063777 0.785224
vt -0.258023 -0.099588
vt -0.298059 -0.099588
vt -0.275928 -0.063777
vt 0.063777 0.730118
vt -0.315965 0.063777
vt -0.315965 -0.063777
vt 0.063777 0.798233
vt -0.275928 0.730118
vt -0.251184 0.764175
vt -0.286994 0.764175
vt -0.315965 0.743127
vt -0.315965 0.785224
vt -0.275928 0.798233
vt 0.151404 0.847925
vt 0.128017 0.830933
vt 0.160337 0.820432
vt 0.128017 0.864917
vt 0.180312 0.847925
vt 0.160337 0.875418
vt 0.228794 0.830933
vt 0.228794 0.864917
vt 0.199886 0.847925
vt -0.160337 0.228794
vt -0.128017 0.228794
vt -0.142471 0.199886
vt -0.228794 0.847925
vt -0.228794 0.820432
vt -0.199886 0.830933
vt -0.228794 0.875418
vt -0.199886 0.864917
vt -0.128017 -0.228794
vt -0.160337 -0.228794
vt -0.142471 -0.199886
vt 0.199886 0.820432
vt -0.174791 0.199886
vt -0.174791 -0.199886
vt 0.199886 0.875418
vt -0.142471 0.820432
vt -0.122496 0.847925
vt -0.151404 0.847925
vt -0.174791 0.830933
vt -0.174791 0.864917
vt -0.142471 0.875418
vt -0.044331 0.429697
vt 0.596663 -0.051888
vt 0.238908 0.096643
vt 0.815773 -0.399210
vt 0.557697 0.433143
vt -0.360804 0.109847
vt 0.645993 0.438312
vt -0.419168 0.149461
vt 0.472951 0.445204
vt -0.314837 0.202279
vt 0.518451 0.450373
vt -0.348225 0.241893
vt 0.239085 0.295150
vt 0.373853 0.456826
vt -0.253551 0.295150
vt -0.321759 0.644079
vt -0.248908 0.529865
vt -0.156996 0.535765
vt 0.260656 0.807082
vt -0.178946 0.733110
vt 0.015121 0.916412
vt -0.012776 -0.213602
vt -0.997193 0.256568
vt -0.760383 0.011725
vt -0.526663 0.256568
vt -0.596663 0.429697
vt -0.763473 0.501410
vt 0.285768 0.890212
vt 0.243037 0.927265
vt 0.201866 0.890212
vt 0.214704 0.864011
vt 0.244597 0.853159
s 1
f 1/1/1 10/2/2 9/3/3
f 2/4/4 11/5/5 10/6/2
f 3/7/6 12/8/7 11/5/5
f 4/9/8 13/10/9 12/11/7
f 6/12/10 13/10/9 5/1/11
f 7/13/12 14/14/13 6/15/10
f 8/16/14 15/17/15 7/13/12
f 1/1/1 16/18/16 8/19/14
f 9/3/3 18/20/17 17/21/18
f 10/6/2 19/22/19 18/23/17
f 11/5/5 20/24/20 19/22/19
f 12/11/7 21/25/21 20/26/20
f 13/10/9 22/27/22 21/25/21
f 14/14/13 23/28/23 22/29/22
f 15/17/15 24/30/24 23/28/23
f 16/18/16 17/21/18 24/31/24
f 17/32/18 26/33/25 25/34/26
f 18/23/17 27/35/27 26/36/25
f 19/22/19 28/37/28 27/35/27
f 20/38/20 29/39/29 28/40/28
f 21/41/21 30/42/30 29/39/29
f 22/29/22 31/43/31 30/44/30
f 23/28/23 32/45/32 31/43/31
f 24/46/24 25/34/26 32/47/32
f 25/34/26 34/48/33 33/49/34
f 26/36/25 35/50/35 34/51/33
f 27/35/27 36/52/36 35/50/35
f 28/40/28 37/53/37 36/54/36
f 29/39/29 38/55/38 37/53/37
f 30/44/30 39/56/39 38/57/38
f 31/43/31 40/58/40 39/56/39
f 32/47/32 33/49/34 40/59/40
f 33/49/34 42/60/41 41/61/42
f 34/51/33 43/62/43 42/63/41
f 35/50/35 44/64/44 43/62/43
f 36/54/36 45/65/45 44/66/44
f 37/53/37 46/67/46 45/65/45
f 38/57/38 47/68/47 46/69/46
f 39/56/39 48/70/48 47/68/47
f 40/59/40 41/61/42 48/71/48
f 41/72/42 50/73/49 49/74/50
f 42/63/41 51/75/51 50/76/49
f 43/62/43 52/77/52 51/75/51
f 44/78/44 53/79/53 52/80/52
f 45/81/45 54/82/54 53/79/53
f 46/69/46 55/83/55 54/84/54
f 47/68/47 56/85/56 55/83/55
f 48/86/48 49/74/50 56/87/56
f 49/74/50 58/88/57 57/89/58
f 50/76/49 59/90/59 58/91/57
f 51/75/51 60/92/60 59/90/59
f 52/80/52 61/93/61 60/94/60
f 53/79/53 62/95/62 61/93/61
f 54/84/54 63/96/63 62/97/62
f 55/83/55 64/98/64 63/96/63
f 56/87/56 57/89/58 64/99/64
f 57/89/58 66/100/65 65/101/66
f 58/91/57 67/102/67 66/103/65
f 59/90/59 68/104/68 67/102/67
f 60/94/60 69/105/69 68/106/68
f 61/93/61 70/107/70 69/105/69
f 62/97/62 71/108/71 70/109/70
f 63/96/63 72/110/72 71/108/71
f 64/99/64 65/101/66 72/111/72
f 65/101/66 74/112/73 73/113/74
f 66/103/65 75/114/75 74/115/73
f 67/102/67 76/116/76 75/114/75
f 68/106/68 77/117/77 76/118/76
f 69/105/69 78/119/78 77/117/77
f 70/109/70 79/120/79 78/121/78
f 71/108/71 80/122/80 79/120/79
f 72/111/72 73/113/74 80/123/80
f 73/124/74 82/125/81 81/126/82
f 74/115/73 83/127/83 82/128/81
f 75/114/75 84/129/84 83/127/83
f 76/130/76 85/131/85 84/132/84
f 77/133/77 86/134/86 85/131/85
f 78/121/78 87/135/87 86/136/86
f 79/120/79 88/137/88 87/135/87
f 80/138/80 81/126/82 88/139/88
f 81/126/82 90/140/89 89/141/90
f 82/128/81 91/142/91 90/143/89
f 83/127/83 92/144/92 91/142/91
f 84/132/84 93/145/93 92/146/92
f 85/131/85 94/147/94 93/145/93
f 86/136/86 95/148/95 94/149/94
f 87/135/87 96/150/96 95/148/95
f 88/139/88 89/141/90 96/151/96
f 89/141/90 98/152/97 97/153/98
f 90/143/89 99/154/99 98/155/97
f 91/142/91 100/156/100 99/154/99
f 92/146/92 101/157/101 100/158/100
f 93/145/93 102/159/102 101/157/101
f 94/149/94 103/160/103 102/161/102
f 95/148/95 104/162/104 103/160/103
f 96/151/96 97/153/98 104/163/104
f 97/164/98 106/165/105 105/166/106
f 98/155/97 107/167/107 106/168/105
f 99/154/99 108/169/108 107/167/107
f 100/170/100 109/171/109 108/172/108
f 101/173/101 110/174/110 109/171/109
f 102/161/102 111/175/111 110/176/110
f 103/160/103 112/177/112 111/175/111
f 104/178/104 105/166/106 112/179/112
f 105/166/106 114/180/113 113/181/114
f 106/168/105 115/182/115 114/183/113
f 107/167/107 116/184/116 115/182/115
f 108/172/108 117/185/117 116/186/116
f 109/171/109 118/187/118 117/185/117
f 110/176/110 119/188/119 118/189/118
f 111/175/111 120/190/120 119/188/119
f 112/179/112 113/181/114 120/191/120
f 113/181/114 122/192/121 121/193/122
f 114/183/113 123/194/123 122/195/121
f 115/182/115 124/196/124 123/194/123
f 116/186/116 125/197/125 124/198/124
f 117/185/117 126/199/126 125/197/125
f 118/189/118 127/200/127 126/201/126
f 119/188/119 128/202/128 127/200/127
f 120/191/120 121/193/122 128/203/128
f 121/193/122 130/204/129 129/205/130
f 122/195/121 131/206/131 130/207/129
f 123/194/123 132/208/132 131/206/131
f 125/197/125 132/209/132 124/198/124
f 126/199/126 133/210/133 125/197/125
f 126/201/126 135/211/134 134/212/135
f 127/200/127 136/213/136 135/211/134
f 128/203/128 129/205/130 136/214/136
f 129/215/130 138/216/137 137/217/138
f 130/207/129 139/218/139 138/219/137
f 131/206/131 140/220/140 139/218/139
f 132/221/132 141/222/141 140/223/140
f 133/224/133 142/225/142 141/222/141
f 134/212/135 143/226/143 142/227/142
f 135/211/134 144/228/144 143/226/143
f 136/229/136 137/217/138 144/230/144
f 137/217/138 146/231/145 145/232/146
f 138/219/137 147/233/147 146/234/145
f 139/218/139 148/235/148 147/233/147
f 140/223/140 149/236/149 148/237/148
f 141/222/141 150/238/150 149/236/149
f 142/227/142 151/239/151 150/240/150
f 143/226/143 152/241/152 151/239/151
f 144/230/144 145/232/146 152/242/152
f 145/232/146 154/243/153 153/244/154
f 146/234/145 155/245/155 154/246/153
f 147/233/147 156/247/156 155/245/155
f 148/237/148 157/248/157 156/249/156
f 149/236/149 158/250/158 157/248/157
f 150/240/150 159/251/159 158/252/158
f 151/239/151 160/253/160 159/251/159
f 152/242/152 153/244/154 160/254/160
f 153/255/154 162/256/161 161/257/162
f 154/246/153 163/258/163 162/259/161
f 155/245/155 164/260/164 163/258/163
f 156/261/156 165/262/165 164/263/164
f 157/248/157 166/264/166 165/265/165
f 158/252/158 167/266/167 166/267/166
f 159/251/159 168/268/168 167/266/167
f 160/269/160 161/257/162 168/270/168
f 161/257/162 170/271/169 169/272/170
f 162/259/161 171/273/171 170/274/169
f 163/258/163 172/275/172 171/273/171
f 164/263/164 173/276/173 172/277/172
f 165/262/165 174/278/174 173/276/173
f 166/267/166 175/279/175 174/280/174
f 167/266/167 176/281/176 175/279/175
f 168/270/168 169/272/170 176/282/176
f 169/272/170 178/283/177 177/284/178
f 170/274/169 179/285/179 178/286/177
f 171/273/171 180/287/180 179/285/179
f 172/277/172 181/288/181 180/289/180
f 173/276/173 182/290/182 181/288/181
f 174/280/174 183/291/183 182/292/182
f 175/279/175 184/293/184 183/291/183
f 176/282/176 177/284/178 184/294/184
f 177/284/178 186/295/185 185/296/186
f 178/286/177 187/297/187 186/298/185
f 179/285/179 188/299/188 187/297/187
f 180/289/180 189/300/189 188/301/188
f 181/288/181 190/302/190 189/300/189
f 182/292/182 191/303/191 190/304/190
f 183/291/183 192/305/192 191/303/191
f 184/306/184 185/307/186 192/308/192
f 185/307/186 194/309/193 193/310/194
f 186/298/185 195/311/195 194/312/193
f 187/297/187 196/313/196 195/311/195
f 188/314/188 197/315/197 196/316/196
f 189/317/189 198/318/198 197/315/197
f 190/304/190 199/319/199 198/320/198
f 191/303/191 200/321/200 199/319/199
f 192/308/192 193/310/194 200/322/200
f 194/309/193 201/323/201 193/310/194
f 195/311/195 202/324/202 194/312/193
f 196/313/196 203/325/203 195/311/195
f 196/316/196 205/323/204 204/326/205
f 197/315/197 206/327/206 205/323/204
f 198/320/198 207/328/207 206/329/206
f 199/319/199 208/330/208 207/328/207
f 200/322/200 201/323/201 208/331/208
f 2/332/4 8/333/14 6/334/10
f 208/335/208 202/336/202 204/337/205
s 0
f 209/338/209 210/339/209 211/340/209
f 210/339/210 209/338/210 214/341/210
f 209/338/211 211/340/211 212/342/211
f 209/338/212 212/342/212 213/343/212
f 209/338/213 213/343/213 214/341/213
f 210/344/214 214/345/214 219/346/214
f 211/347/215 210/348/215 215/349/215
f 212/350/216 211/351/216 216/352/216
f 213/353/217 212/350/217 217/354/217
f 214/355/218 213/356/218 218/357/218
f 210/344/219 219/346/219 215/358/219
f 211/347/220 215/349/220 216/359/220
f 212/350/221 216/352/221 217/354/221
f 213/356/222 217/360/222 218/357/222
f 214/345/223 218/361/223 219/346/223
f 215/362/224 219/363/224 220/364/224
f 216/365/225 215/362/225 220/364/225
f 217/366/226 216/365/226 220/364/226
f 218/367/227 217/366/227 220/364/227
f 219/363/228 218/367/228 220/364/228
f 221/368/209 222/369/209 223/370/209
f 222/369/210 221/368/210 226/371/210
f 221/368/211 223/370/211 224/372/211
f 221/368/212 224/372/212 225/373/212
f 221/368/213 225/373/213 226/371/213
f 222/374/214 226/375/214 231/376/214
f 223/377/215 222/378/215 227/379/215
f 224/380/216 223/381/216 228/382/216
f 225/383/217 224/380/217 229/384/217
f 226/385/218 225/386/218 230/387/218
f 222/374/219 231/376/219 227/388/219
f 223/377/220 227/379/220 228/389/220
f 224/380/221 228/382/221 229/384/221
f 225/386/222 229/390/222 230/387/222
f 226/375/223 230/391/223 231/376/223
f 227/392/224 231/393/224 232/394/224
f 228/395/225 227/392/225 232/394/225
f 229/396/226 228/395/226 232/394/226
f 230/397/227 229/396/227 232/394/227
f 231/393/228 230/397/228 232/394/228
f 233/398/209 234/399/209 235/400/209
f 234/399/210 233/398/210 238/401/210
f 233/398/211 235/400/211 236/402/211
f 233/398/212 236/402/212 237/403/212
f 233/398/213 237/403/213 238/401/213
f 234/404/214 238/405/214 243/406/214
f 235/407/215 234/408/215 239/409/215
f 236/410/216 235/411/216 240/412/216
f 237/413/217 236/410/217 241/414/217
f 238/415/218 237/416/218 242/417/218
f 234/404/219 243/406/219 239/418/219
f 235/407/220 239/409/220 240/419/220
f 236/410/221 240/412/221 241/414/221
f 237/416/222 241/420/222 242/417/222
f 238/405/223 242/421/223 243/406/223
f 239/422/224 243/423/224 244/424/224
f 240/425/225 239/422/225 244/424/225
f 241/426/226 240/425/226 244/424/226
f 242/427/227 241/426/227 244/424/227
f 243/423/228 242/427/228 244/424/228
f 245/428/209 246/429/209 247/430/209
f 246/429/210 245/428/210 250/431/210
f 245/428/211 247/430/211 248/432/211
f 245/428/212 248/432/212 249/433/212
f 245/428/213 249/433/213 250/431/213
f 246/434/214 250/435/214 255/436/214
f 247/437/215 246/438/215 251/439/215
f 248/440/216 247/441/216 252/442/216
f 249/443/217 248/440/217 253/444/217
f 250/445/218 249/446/218 254/447/218
f 246/434/219 255/436/219 251/448/219
f 247/437/220 251/439/220 252/449/220
f 248/440/221 252/442/221 253/444/221
f 249/446/222 253/450/222 254/447/222
f 250/435/223 254/451/223 255/436/223
f 251/452/224 255/453/224 256/454/224
f 252/455/225 251/452/225 256/454/225
f 253/456/226 252/455/226 256/454/226
f 254/457/227 253/456/227 256/454/227
f 255/453/228 254/457/228 256/454/228
f 257/458/209 258/459/209 259/460/209
f 258/459/210 257/458/210 262/461/210
f 257/458/211 259/460/211 260/462/211
f 257/458/212 260/462/212 261/463/212
f 257/458/213 261/463/213 262/461/213
f 258/464/214 262/465/214 267/466/214
f 259/467/215 258/468/215 263/469/215
f 260/470/216 259/471/216 264/472/216
f 261/473/217 260/470/217 265/474/217
f 262/475/218 261/476/218 266/477/218
f 258/464/219 267/466/219 263/478/219
f 259/467/220 263/469/220 264/479/220
f 260/470/221 264/472/221 265/474/221
f 261/476/222 265/480/222 266/477/222
f 262/465/223 266/481/223 267/466/223
f 263/482/224 267/483/224 268/484/224
f 264/485/225 263/482/225 268/484/225
f 265/486/226 264/485/226 268/484/226
f 266/487/227 265/486/227 268/484/227
f 267/483/228 266/487/228 268/484/228
f 269/488/209 270/489/209 271/490/209
f 270/489/210 269/488/210 274/491/210
f 269/488/211 271/490/211 272/492/211
f 269/488/212 272/492/212 273/493/212
f 269/488/213 273/493/213 274/491/213
f 270/494/214 274/495/214 279/496/214
f 271/497/215 270/498/215 275/499/215
f 272/500/216 271/501/216 276/502/216
f 273/503/217 272/500/217 277/504/217
f 274/505/218 273/506/218 278/507/218
f 270/494/219 279/496/219 275/508/219
f 271/497/220 275/499/220 276/509/220
f 272/500/221 276/502/221 277/504/221
f 273/506/222 277/510/222 278/507/222
f 274/495/223 278/511/223 279/496/223
f 275/512/224 279/513/224 280/514/224
f 276/515/225 275/512/225 280/514/225
f 277/516/226 276/515/226 280/514/226
f 278/517/227 277/516/227 280/514/227
f 279/513/228 278/517/228 280/514/228
f 281/518/209 282/519/209 283/520/209
f 282/519/210 281/518/210 286/521/210
f 281/518/211 283/520/211 284/522/211
f 281/518/212 284/522/212 285/523/212
f 281/518/213 285/523/213 286/521/213
f 282/524/214 286/525/214 291/526/214
f 283/527/215 282/528/215 287/529/215
f 284/530/216 283/531/216 288/532/216
f 285/533/217 284/530/217 289/534/217
f 286/535/218 285/536/218 290/537/218
f 282/524/219 291/526/219 287/538/219
f 283/527/220 287/529/220 288/539/220
f 284/530/221 288/532/221 289/534/221
f 285/536/222 289/540/222 290/537/222
f 286/525/223 290/541/223 291/526/223
f 287/542/224 291/543/224 292/544/224
f 288/545/225 287/542/225 292/544/225
f 289/546/226 288/545/226 292/544/226
f 290/547/227 289/546/227 292/544/227
f 291/543/228 290/547/228 292/544/228
f 293/548/209 294/549/209 295/550/209
f 294/549/210 293/548/210 298/551/210
f 293/548/211 295/550/211 296/552/211
f 293/548/212 296/552/212 297/553/212
f 293/548/213 297/553/213 298/551/213
f 294/554/214 298/555/214 303/556/214
f 295/557/215 294/558/215 299/559/215
f 296/560/216 295/561/216 300/562/216
f 297/563/217 296/560/217 301/564/217
f 298/565/218 297/566/218 302/567/218
f 294/554/219 303/556/219 299/568/219
f 295/557/220 299/559/220 300/569/220
f 296/560/221 300/562/221 301/564/221
f 297/566/222 301/570/222 302/567/222
f 298/555/223 302/571/223 303/556/223
f 299/572/224 303/573/224 304/574/224
f 300/575/225 299/572/225 304/574/225
f 301/576/226 300/575/226 304/574/226
f 302/577/227 301/576/227 304/574/227
f 303/573/228 302/577/228 304/574/228
f 305/578/209 306/579/209 307/580/209
f 306/579/210 305/578/210 310/581/210
f 305/578/211 307/580/211 308/582/211
f 305/578/212 308/582/212 309/583/212
f 305/578/213 309/583/213 310/581/213
f 306/584/214 310/585/214 315/586/214
f 307/587/215 306/588/215 311/589/215
f 308/590/216 307/591/216 312/592/216
f 309/593/217 308/590/217 313/594/217
f 310/595/218 309/596/218 314/597/218
f 306/584/219 315/586/219 311/598/219
f 307/587/220 311/589/220 312/599/220
f 308/590/221 312/592/221 313/594/221
f 309/596/222 313/600/222 314/597/222
f 310/585/223 314/601/223 315/586/223
f 311/602/224 315/603/224 316/604/224
f 312/605/225 311/602/225 316/604/225
f 313/606/226 312/605/226 316/604/226
f 314/607/227 313/606/227 316/604/227
f 315/603/228 314/607/228 316/604/228
f 317/608/209 318/609/209 319/610/209
f 318/609/210 317/608/210 322/611/210
f 317/608/211 319/610/211 320/612/211
f 317/608/212 320/612/212 321/613/212
f 317/608/213 321/613/213 322/611/213
f 318/614/214 322/615/214 327/616/214
f 319/617/215 318/618/215 323/619/215
f 320/620/216 319/621/216 324/622/216
f 321/623/217 320/620/217 325/624/217
f 322/625/218 321/626/218 326/627/218
f 318/614/219 327/616/219 323/628/219
f 319/617/220 323/619/220 324/629/220
f 320/620/221 324/622/221 325/624/221
f 321/626/222 325/630/222 326/627/222
f 322/615/223 326/631/223 327/616/223
f 323/632/224 327/633/224 328/634/224
f 324/635/225 323/632/225 328/634/225
f 325/636/226 324/635/226 328/634/226
f 326/637/227 325/636/227 328/634/227
f 327/633/228 326/637/228 328/634/228
f 329/638/209 330/639/209 331/640/209
f 330/639/210 329/638/210 334/641/210
f 329/638/211 331/640/211 332/642/211
f 329/638/212 332/642/212 333/643/212
f 329/638/213 333/643/213 334/641/213
f 330/644/214 334/645/214 339/646/214
f 331/647/215 330/648/215 335/649/215
f 332/650/216 331/651/216 336/652/216
f 333/653/217 332/650/217 337/654/217
f 334/655/218 333/656/218 338/657/218
f 330/644/219 339/646/219 335/658/219
f 331/647/220 335/649/220 336/659/220
f 332/650/221 336/652/221 337/654/221
f 333/656/222 337/660/222 338/657/222
f 334/645/223 338/661/223 339/646/223
f 335/662/224 339/663/224 340/664/224
f 336/665/225 335/662/225 340/664/225
f 337/666/226 336/665/226 340/664/226
f 338/667/227 337/666/227 340/664/227
f 339/663/228 338/667/228 340/664/228
f 341/668/209 342/669/209 343/670/209
f 342/669/210 341/668/210 346/671/210
f 341/668/211 343/670/211 344/672/211
f 341/668/212 344/672/212 345/673/212
f 341/668/213 345/673/213 346/671/213
f 342/674/214 346/675/214 351/676/214
f 343/677/215 342/678/215 347/679/215
f 344/680/216 343/681/216 348/682/216
f 345/683/217 344/680/217 349/684/217
f 346/685/218 345/686/218 350/687/218
f 342/674/219 351/676/219 347/688/219
f 343/677/220 347/679/220 348/689/220
f 344/680/221 348/682/221 349/684/221
f 345/686/222 349/690/222 350/687/222
f 346/675/223 350/691/223 351/676/223
f 347/692/224 351/693/224 352/694/224
f 348/695/225 347/692/225 352/694/225
f 349/696/226 348/695/226 352/694/226
f 350/697/227 349/696/227 352/694/227
f 351/693/228 350/697/228 352/694/228
f 353/698/209 354/699/209 355/700/209
f 354/699/210 353/698/210 358/701/210
f 353/698/211 355/700/211 356/702/211
f 353/698/212 356/702/212 357/703/212
f 353/698/213 357/703/213 358/701/213
f 354/704/214 358/705/214 363/706/214
f 355/707/215 354/708/215 359/709/215
f 356/710/216 355/711/216 360/712/216
f 357/713/217 356/710/217 361/714/217
f 358/715/218 357/716/218 362/717/218
f 354/704/219 363/706/219 359/718/219
f 355/707/220 359/709/220 360/719/220
f 356/710/221 360/712/221 361/714/221
f 357/716/222 361/720/222 362/717/222
f 358/705/223 362/721/223 363/706/223
f 359/722/224 363/723/224 364/724/224
f 360/725/225 359/722/225 364/724/225
f 361/726/226 360/725/226 364/724/226
f 362/727/227 361/726/227 364/724/227
f 363/723/228 362/727/228 364/724/228
f 365/728/209 366/729/209 367/730/209
f 366/729/210 365/728/210 370/731/210
f 365/728/211 367/730/211 368/732/211
f 365/728/212 368/732/212 369/733/212
f 365/728/213 369/733/213 370/731/213
f 366/734/214 370/735/214 375/736/214
f 367/737/215 366/738/215 371/739/215
f 368/740/216 367/741/216 372/742/216
f 369/743/217 368/740/217 373/744/217
f 370/745/218 369/746/218 374/747/218
f 366/734/219 375/736/219 371/748/219
f 367/737/220 371/739/220 372/749/220
f 368/740/221 372/742/221 373/744/221
f 369/746/222 373/750/222 374/747/222
f 370/735/223 374/751/223 375/736/223
f 371/752/224 375/753/224 376/754/224
f 372/755/225 371/752/225 376/754/225
f 373/756/226 372/755/226 376/754/226
f 374/757/227 373/756/227 376/754/227
f 375/753/228 374/757/228 376/754/228
f 377/758/209 378/759/209 379/760/209
f 378/759/210 377/758/210 382/761/210
f 377/758/211 379/760/211 380/762/211
f 377/758/212 380/762/212 381/763/212
f 377/758/213 381/763/213 382/761/213
f 378/764/214 382/765/214 387/766/214
f 379/767/215 378/768/215 383/769/215
f 380/770/216 379/771/216 384/772/216
f 381/773/217 380/770/217 385/774/217
f 382/775/218 381/776/218 386/777/218
f 378/764/219 387/766/219 383/778/219
f 379/767/220 383/769/220 384/779/220
f 380/770/221 384/772/221 385/774/221
f 381/776/222 385/780/222 386/777/222
f 382/765/223 386/781/223 387/766/223
f 383/782/224 387/783/224 388/784/224
f 384/785/225 383/782/225 388/784/225
f 385/786/226 384/785/226 388/784/226
f 386/787/227 385/786/227 388/784/227
f 387/783/228 386/787/228 388/784/228
f 389/788/209 390/789/209 391/790/209
f 390/789/210 389/788/210 394/791/210
f 389/788/211 391/790/211 392/792/211
f 389/788/212 392/792/212 393/793/212
f 389/788/213 393/793/213 394/791/213
f 390/794/214 394/795/214 399/796/214
f 391/797/215 390/798/215 395/799/215
f 392/800/216 391/801/216 396/802/216
f 393/803/217 392/800/217 397/804/217
f 394/805/218 393/806/218 398/807/218
f 390/794/219 399/796/219 395/808/219
f 391/797/220 395/799/220 396/809/220
f 392/800/221 396/802/221 397/804/221
f 393/806/222 397/810/222 398/807/222
f 394/795/223 398/811/223 399/796/223
f 395/812/224 399/813/224 400/814/224
f 396/815/225 395/812/225 400/814/225
f 397/816/226 396/815/226 400/814/226
f 398/817/227 397/816/227 400/814/227
f 399/813/228 398/817/228 400/814/228
s 1
f 1/1/1 2/818/4 10/2/2
f 2/4/4 3/7/6 11/5/5
f 3/7/6 4/819/8 12/8/7
f 4/9/8 5/1/11 13/10/9
f 6/12/10 14/820/13 13/10/9
f 7/13/12 15/17/15 14/14/13
f 8/16/14 16/821/16 15/17/15
f 1/1/1 9/3/3 16/18/16
f 9/3/3 10/2/2 18/20/17
f 10/6/2 11/5/5 19/22/19
f 11/5/5 12/8/7 20/24/20
f 12/11/7 13/10/9 21/25/21
f 13/10/9 14/820/13 22/27/22
f 14/14/13 15/17/15 23/28/23
f 15/17/15 16/821/16 24/30/24
f 16/18/16 9/3/3 17/21/18
f 17/32/18 18/822/17 26/33/25
f 18/23/17 19/22/19 27/35/27
f 19/22/19 20/24/20 28/37/28
f 20/38/20 21/41/21 29/39/29
f 21/41/21 22/823/22 30/42/30
f 22/29/22 23/28/23 31/43/31
f 23/28/23 24/30/24 32/45/32
f 24/46/24 17/32/18 25/34/26
f 25/34/26 26/33/25 34/48/33
f 26/36/25 27/35/27 35/50/35
f 27/35/27 28/37/28 36/52/36
f 28/40/28 29/39/29 37/53/37
f 29/39/29 30/42/30 38/55/38
f 30/44/30 31/43/31 39/56/39
f 31/43/31 32/45/32 40/58/40
f 32/47/32 25/34/26 33/49/34
f 33/49/34 34/48/33 42/60/41
f 34/51/33 35/50/35 43/62/43
f 35/50/35 36/52/36 44/64/44
f 36/54/36 37/53/37 45/65/45
f 37/53/37 38/55/38 46/67/46
f 38/57/38 39/56/39 47/68/47
f 39/56/39 40/58/40 48/70/48
f 40/59/40 33/49/34 41/61/42
f 41/72/42 42/824/41 50/73/49
f 42/63/41 43/62/43 51/75/51
f 43/62/43 44/64/44 52/77/52
f 44/78/44 45/81/45 53/79/53
f 45/81/45 46/825/46 54/82/54
f 46/69/46 47/68/47 55/83/55
f 47/68/47 48/70/48 56/85/56
f 48/86/48 41/72/42 49/74/50
f 49/74/50 50/73/49 58/88/57
f 50/76/49 51/75/51 59/90/59
f 51/75/51 52/77/52 60/92/60
f 52/80/52 53/79/53 61/93/61
f 53/79/53 54/82/54 62/95/62
f 54/84/54 55/83/55 63/96/63
f 55/83/55 56/85/56 64/98/64
f 56/87/56 49/74/50 57/89/58
f 57/89/58 58/88/57 66/100/65
f 58/91/57 59/90/59 67/102/67
f 59/90/59 60/92/60 68/104/68
f 60/94/60 61/93/61 69/105/69
f 61/93/61 62/95/62 70/107/70
f 62/97/62 63/96/63 71/108/71
f 63/96/63 64/98/64 72/110/72
f 64/99/64 57/89/58 65/101/66
f 65/101/66 66/100/65 74/112/73
f 66/103/65 67/102/67 75/114/75
f 67/102/67 68/104/68 76/116/76
f 68/106/68 69/105/69 77/117/77
f 69/105/69 70/107/70 78/119/78
f 70/109/70 71/108/71 79/120/79
f 71/108/71 72/110/72 80/122/80
f 72/111/72 65/101/66 73/113/74
f 73/124/74 74/826/73 82/125/81
f 74/115/73 75/114/75 83/127/83
f 75/114/75 76/116/76 84/129/84
f 76/130/76 77/133/77 85/131/85
f 77/133/77 78/827/78 86/134/86
f 78/121/78 79/120/79 87/135/87
f 79/120/79 80/122/80 88/137/88
f 80/138/80 73/124/74 81/126/82
f 81/126/82 82/125/81 90/140/89
f 82/128/81 83/127/83 91/142/91
f 83/127/83 84/129/84 92/144/92
f 84/132/84 85/131/85 93/145/93
f 85/131/85 86/134/86 94/147/94
f 86/136/86 87/135/87 95/148/95
f 87/135/87 88/137/88 96/150/96
f 88/139/88 81/126/82 89/141/90
f 89/141/90 90/140/89 98/152/97
f 90/143/89 91/142/91 99/154/99
f 91/142/91 92/144/92 100/156/100
f 92/146/92 93/145/93 101/157/101
f 93/145/93 94/147/94 102/159/102
f 94/149/94 95/148/95 103/160/103
f 95/148/95 96/150/96 104/162/104
f 96/151/96 89/141/90 97/153/98
f 97/164/98 98/828/97 106/165/105
f 98/155/97 99/154/99 107/167/107
f 99/154/99 100/156/100 108/169/108
f 100/170/100 101/173/101 109/171/109
f 101/173/101 102/829/102 110/174/110
f 102/161/102 103/160/103 111/175/111
f 103/160/103 104/162/104 112/177/112
f 104/178/104 97/164/98 105/166/106
f 105/166/106 106/165/105 114/180/113
f 106/168/105 107/167/107 115/182/115
f 107/167/107 108/169/108 116/184/116
f 108/172/108 109/171/109 117/185/117
f 109/171/109 110/174/110 118/187/118
f 110/176/110 111/175/111 119/188/119
f 111/175/111 112/177/112 120/190/120
f 112/179/112 105/166/106 113/181/114
f 113/181/114 114/180/113 122/192/121
f 114/183/113 115/182/115 123/194/123
f 115/182/115 116/184/116 124/196/124
f 116/186/116 117/185/117 125/197/125
f 117/185/117 118/187/118 126/199/126
f 118/189/118 119/188/119 127/200/127
f 119/188/119 120/190/120 128/202/128
f 120/191/120 113/181/114 121/193/122
f 121/193/122 122/192/121 130/204/129
f 122/195/121 123/194/123 131/206/131
f 123/194/123 124/196/124 132/208/132
f 125/197/125 133/210/133 132/209/132
f 126/199/126 134/830/135 133/210/133
f 126/201/126 127/200/127 135/211/134
f 127/200/127 128/202/128 136/213/136
f 128/203/128 121/193/122 129/205/130
f 129/215/130 130/831/129 138/216/137
f 130/207/129 131/206/131 139/218/139
f 131/206/131 132/208/132 140/220/140
f 132/221/132 133/224/133 141/222/141
f 133/224/133 134/832/135 142/225/142
f 134/212/135 135/211/134 143/226/143
f 135/211/134 136/213/136 144/228/144
f 136/229/136 129/215/130 137/217/138
f 137/217/138 138/216/137 146/231/145
f 138/219/137 139/218/139 147/233/147
f 139/218/139 140/220/140 148/235/148
f 140/223/140 141/222/141 149/236/149
f 141/222/141 142/225/142 150/238/150
f 142/227/142 143/226/143 151/239/151
f 143/226/143 144/228/144 152/241/152
f 144/230/144 137/217/138 145/232/146
f 145/232/146 146/231/145 154/243/153
f 146/234/145 147/233/147 155/245/155
f 147/233/147 148/235/148 156/247/156
f 148/237/148 149/236/149 157/248/157
f 149/236/149 150/238/150 158/250/158
f 150/240/150 151/239/151 159/251/159
f 151/239/151 152/241/152 160/253/160
f 152/242/152 145/232/146 153/244/154
f 153/244/154 154/243/153 162/833/161
f 154/246/153 155/245/155 163/258/163
f 155/245/155 156/247/156 164/260/164
f 156/261/156 157/834/157 165/262/165
f 157/248/157 158/250/158 166/264/166
f 158/252/158 159/251/159 167/266/167
f 159/251/159 160/253/160 168/268/168
f 160/269/160 153/255/154 161/257/162
f 161/257/162 162/256/161 170/271/169
f 162/259/161 163/258/163 171/273/171
f 163/258/163 164/260/164 172/275/172
f 164/263/164 165/262/165 173/276/173
f 165/262/165 166/835/166 174/278/174
f 166/267/166 167/266/167 175/279/175
f 167/266/167 168/268/168 176/281/176
f 168/270/168 161/257/162 169/272/170
f 169/272/170 170/271/169 178/283/177
f 170/274/169 171/273/171 179/285/179
f 171/273/171 172/275/172 180/287/180
f 172/277/172 173/276/173 181/288/181
f 173/276/173 174/278/174 182/290/182
f 174/280/174 175/279/175 183/291/183
f 175/279/175 176/281/176 184/293/184
f 176/282/176 169/272/170 177/284/178
f 177/284/178 178/283/177 186/295/185
f 178/286/177 179/285/179 187/297/187
f 179/285/179 180/287/180 188/299/188
f 180/289/180 181/288/181 189/300/189
f 181/288/181 182/290/182 190/302/190
f 182/292/182 183/291/183 191/303/191
f 183/291/183 184/293/184 192/305/192
f 184/294/184 177/284/178 185/296/186
f 185/307/186 186/836/185 194/309/193
f 186/298/185 187/297/187 195/311/195
f 187/297/187 188/299/188 196/313/196
f 188/314/188 189/317/189 197/315/197
f 189/317/189 190/837/190 198/318/198
f 190/304/190 191/303/191 199/319/199
f 191/303/191 192/305/192 200/321/200
f 192/308/192 185/307/186 193/310/194
f 194/309/193 202/838/202 201/323/201
f 195/311/195 203/325/203 202/324/202
f 196/313/196 204/839/205 203/325/203
f 196/316/196 197/315/197 205/323/204
f 197/315/197 198/318/198 206/327/206
f 198/320/198 199/319/199 207/328/207
f 199/319/199 200/321/200 208/330/208
f 200/322/200 193/310/194 201/323/201
f 2/332/4 1/840/1 8/333/14
f 8/333/14 7/841/12 6/334/10
f 6/334/10 5/842/11 4/843/8
f 4/843/8 3/844/6 6/334/10
f 3/844/6 2/332/4 6/334/10
f 208/335/208 201/845/201 202/336/202
f 202/336/202 203/846/203 204/337/205
f 204/337/205 205/847/204 206/848/206
f 206/848/206 207/849/207 204/337/205
f 207/849/207 208/335/208 204/337/205
o fin
usemtl fin
v -0.032471 0.030368 -0.262235
v 0.203391 0.014403 -0.134654
v -0.122561 0.004536 -0.134654
v -0.324012 0.030368 -0.134653
v -0.122561 0.056201 -0.134654
v 0.203391 0.046334 -0.134654
v 0.057618 0.004536 0.071782
v -0.268333 0.014403 0.071782
v -0.268333 0.046334 0.071782
v 0.057618 0.056201 0.071782
v 0.259070 0.030368 0.071781
v -0.032471 0.030368 0.199363
v -0.085424 0.015184 -0.227766
v 0.106164 0.020984 -0.227766
v 0.053212 0.005800 -0.152775
v 0.244800 0.030368 -0.152775
v 0.106164 0.039752 -0.227766
v -0.203834 0.030368 -0.227765
v -0.256788 0.015184 -0.152775
v -0.085424 0.045552 -0.227766
v -0.256788 0.045552 -0.152775
v 0.053212 0.054937 -0.152775
v 0.277529 0.020984 -0.031436
v 0.277529 0.039752 -0.031436
v -0.032471 0.000000 -0.031436
v 0.159119 0.005800 -0.031436
v -0.342471 0.020984 -0.031436
v -0.224061 0.005800 -0.031436
v -0.224061 0.054937 -0.031436
v -0.342471 0.039752 -0.031436
v 0.159119 0.054937 -0.031436
v -0.032471 0.060737 -0.031436
v 0.191846 0.015184 0.089904
v -0.118154 0.005800 0.089904
v -0.309742 0.030368 0.089903
v -0.118154 0.054937 0.089904
v 0.191846 0.045552 0.089904
v 0.020482 0.015184 0.164894
v 0.138892 0.030368 0.164894
v -0.171106 0.020984 0.164894
v -0.171106 0.039752 0.164894
v 0.020482 0.045552 0.164894
v -0.280479 0.034417 0.103197
v -0.287304 0.041230 0.111801
v -0.287304 0.041230 0.129010
v -0.280479 0.034417 0.137614
v -0.273653 0.027605 0.129010
v -0.273653 0.027605 0.111801
v -0.186236 0.128842 0.103197
v -0.190304 0.137586 0.111801
v -0.190304 0.137586 0.129010
v -0.186236 0.128842 0.137614
v -0.182168 0.120099 0.129010
v -0.182168 0.120099 0.111801
v -0.032471 0.149817 0.103197
v -0.032471 0.159460 0.111801
v -0.032471 0.159460 0.129010
v -0.032471 0.149817 0.137614
v -0.032471 0.140174 0.129010
v -0.032471 0.140174 0.111801
v 0.121294 0.128842 0.103197
v 0.125362 0.137586 0.111801
v 0.125362 0.137586 0.129010
v 0.121294 0.128842 0.137614
v 0.117225 0.120099 0.129010
v 0.117225 0.120099 0.111801
v 0.215536 0.034417 0.103197
v 0.222362 0.041230 0.111801
v 0.222362 0.041230 0.129010
v 0.215536 0.034417 0.137614
v 0.208711 0.027605 0.129010
v 0.208711 0.027605 0.111801
v -0.265295 0.034417 -0.215670
v -0.272074 0.041275 -0.207066
v -0.272074 0.041275 -0.189857
v -0.265295 0.034417 -0.181253
v -0.258515 0.027559 -0.189857
v -0.258515 0.027559 -0.207066
v -0.176822 0.121878 -0.215670
v -0.180858 0.130636 -0.207066
v -0.180858 0.130636 -0.189857
v -0.176822 0.121878 -0.181253
v -0.172785 0.113120 -0.189857
v -0.172785 0.113120 -0.207066
v -0.032471 0.141719 -0.215670
v -0.032471 0.151362 -0.207066
v -0.032471 0.151362 -0.189857
v -0.032471 0.141719 -0.181253
v -0.032471 0.132075 -0.189857
v -0.032471 0.132075 -0.207066
v 0.111879 0.121878 -0.215670
v 0.115916 0.130636 -0.207066
v 0.115916 0.130636 -0.189857
v 0.111879 0.121878 -0.181253
v 0.107843 0.113120 -0.189857
v 0.107843 0.113120 -0.207066
v 0.200352 0.034417 -0.215670
v 0.207132 0.041275 -0.207066
v 0.207132 0.041275 -0.189857
v 0.200352 0.034417 -0.181253
v 0.193573 0.027559 -0.189857
v 0.193573 0.027559 -0.207066
vn 0.0282 -0.9300 -0.3664
vn 0.2255 -0.9266 -0.3010
vn -0.1075 -0.8383 -0.5345
vn -0.1075 0.8383 -0.5345
vn 0.0282 0.9300 -0.3664
vn 0.2965 -0.9427 -0.1529
vn 0.0024 -0.9989 -0.0460
vn -0.2522 -0.9586 -0.1323
vn -0.0712 0.9958 -0.0578
vn 0.0638 0.9964 -0.0557
vn 0.1271 -0.9915 -0.0281
vn -0.0303 -0.9994 -0.0175
vn -0.9844 -0.0000 -0.1760
vn -0.0303 0.9994 -0.0175
vn 0.1271 0.9915 -0.0281
vn 0.0599 -0.9888 0.1370
vn -0.0743 -0.9863 0.1473
vn -0.2255 0.9266 0.3010
vn 0.0048 0.9933 0.1155
vn 0.3015 0.8704 0.3892
vn 0.1075 0.8383 0.5345
vn 0.1221 0.9525 0.2791
vn 0.0599 0.9888 0.1370
vn -0.0282 0.9300 0.3664
vn -0.0298 0.9836 0.1781
vn -0.0743 0.9863 0.1473
vn -0.2413 -0.0000 0.9705
vn -0.4758 -0.0000 0.8796
vn -0.2255 -0.9266 0.3010
vn -0.0282 -0.9300 0.3664
vn -0.0298 -0.9836 0.1781
vn 0.0048 -0.9933 0.1155
vn 0.1075 -0.8383 0.5345
vn 0.1221 -0.9525 0.2791
vn 0.3015 -0.8704 0.3892
vn 0.2522 0.9586 0.1323
vn 0.1271 0.9910 0.0424
vn 0.0712 0.9958 0.0578
vn -0.0024 0.9989 0.0460
vn -0.0302 0.9992 0.0264
vn -0.0638 0.9964 0.0557
vn -0.2965 0.9427 0.1529
vn -0.9655 -0.0000 0.2604
vn -0.2965 -0.9427 0.1529
vn -0.0638 -0.9964 0.0557
vn -0.0302 -0.9992 0.0264
vn -0.0024 -0.9989 0.0460
vn 0.0712 -0.9958 0.0578
vn 0.1271 -0.9910 0.0424
vn 0.2522 -0.9586 0.1323
vn 0.0303 0.9994 0.0175
vn 0.0302 0.9992 -0.0264
vn 0.0024 0.9989 -0.0460
vn -0.1271 0.9915 0.0281
vn -0.1271 0.9910 -0.0424
vn -0.2522 0.9586 -0.1323
vn -0.1271 -0.9915 0.0281
vn -0.1271 -0.9910 -0.0424
vn -0.0712 -0.9958 -0.0578
vn 0.0303 -0.9994 0.0175
vn 0.0302 -0.9992 -0.0264
vn 0.0638 -0.9964 -0.0557
vn 0.9844 -0.0000 0.1760
vn 0.9655 -0.0000 -0.2604
vn 0.2965 0.9427 -0.1529
vn 0.0743 0.9863 -0.1473
vn 0.0298 0.9836 -0.1781
vn -0.0048 0.9933 -0.1155
vn -0.0599 0.9888 -0.1370
vn -0.1221 0.9525 -0.2791
vn -0.3015 0.8704 -0.3892
vn -0.3015 -0.8704 -0.3892
vn -0.1221 -0.9525 -0.2791
vn -0.0599 -0.9888 -0.1370
vn 0.2255 0.9266 -0.3010
vn 0.4758 -0.0000 -0.8796
vn 0.2413 -0.0000 -0.9705
vn -0.0048 -0.9933 -0.1155
vn 0.0298 -0.9836 -0.1781
vn 0.0743 -0.9863 -0.1473
vn -0.4712 0.4703 -0.7462
vn -0.7047 0.7095 -0.0000
vn -0.4850 0.4883 0.7255
vn 0.4875 -0.4866 0.7249
vn 0.7110 -0.7032 -0.0000
vn 0.4733 -0.4682 -0.7462
vn -0.0904 0.6630 -0.7431
vn -0.1373 0.9905 -0.0000
vn -0.0937 0.6759 0.7310
vn 0.0923 -0.6763 0.7308
vn 0.1329 -0.9911 -0.0000
vn 0.0889 -0.6631 -0.7432
vn 0.0904 0.6630 -0.7431
vn 0.1373 0.9905 -0.0000
vn 0.0937 0.6759 0.7310
vn -0.0923 -0.6763 0.7308
vn -0.1329 -0.9911 -0.0000
vn -0.0889 -0.6631 -0.7432
vn 0.4712 0.4703 -0.7462
vn 0.7047 0.7095 -0.0000
vn 0.4850 0.4883 0.7255
vn -0.4875 -0.4866 0.7249
vn -0.7110 -0.7032 -0.0000
vn -0.4733 -0.4682 -0.7462
vn -0.7064 -0.7078 -0.0000
vn 0.7064 -0.7078 -0.0000
vn -0.4681 0.4735 -0.7462
vn -0.6998 0.7143 -0.0000
vn -0.4813 0.4913 0.7259
vn 0.4840 -0.4896 0.7253
vn 0.4703 -0.4712 -0.7462
vn -0.0911 0.6630 -0.7431
vn -0.1383 0.9904 -0.0000
vn -0.0943 0.6752 0.7315
vn 0.0929 -0.6757 0.7313
vn 0.1339 -0.9910 -0.0000
vn 0.0896 -0.6631 -0.7432
vn 0.0911 0.6630 -0.7431
vn 0.1383 0.9904 -0.0000
vn 0.0943 0.6752 0.7315
vn -0.0929 -0.6757 0.7313
vn -0.1339 -0.9910 -0.0000
vn -0.0896 -0.6631 -0.7432
vn 0.4681 0.4735 -0.7462
vn 0.6998 0.7143 -0.0000
vn 0.4813 0.4913 0.7259
vn -0.4840 -0.4896 0.7253
vn -0.4703 -0.4712 -0.7462
vn -0.7112 -0.7030 -0.0000
vn 0.7112 -0.7030 -0.0000
vn -0.4850 0.4883 -0.7255
vn -0.4712 0.4703 0.7462
vn 0.4733 -0.4682 0.7462
vn 0.4875 -0.4866 -0.7249
vn -0.0937 0.6759 -0.7310
vn -0.0904 0.6630 0.7431
vn 0.0889 -0.6631 0.7432
vn 0.0923 -0.6763 -0.7308
vn 0.0937 0.6759 -0.7310
vn 0.0904 0.6630 0.7431
vn -0.0889 -0.6631 0.7432
vn -0.0923 -0.6763 -0.7308
vn 0.4850 0.4883 -0.7255
vn 0.4712 0.4703 0.7462
vn -0.4733 -0.4682 0.7462
vn -0.4875 -0.4866 -0.7249
vn -0.4813 0.4913 -0.7259
vn -0.4681 0.4735 0.7462
vn 0.4703 -0.4712 0.7462
vn 0.4840 -0.4896 -0.7253
vn -0.0943 0.6752 -0.7315
vn -0.0911 0.6630 0.7431
vn 0.0896 -0.6631 0.7432
vn 0.0929 -0.6757 -0.7313
vn 0.0943 0.6752 -0.7315
vn 0.0911 0.6630 0.7431
vn -0.0896 -0.6631 0.7432
vn -0.0929 -0.6757 -0.7313
vn 0.4813 0.4913 -0.7259
vn 0.4681 0.4735 0.7462
vn -0.4703 -0.4712 0.7462
vn -0.4840 -0.4896 -0.7253
vt 0.000000 1.240854
vt 0.745350 1.055538
vt -0.284693 1.055538
vt 1.268074 0.554934
vt 1.490704 0.652362
vt -0.921307 1.055535
vt 0.000000 -1.240854
vt -0.921307 -1.055535
vt -0.284693 -1.055538
vt 0.745350 -1.055538
vt 1.666667 -0.000000
vt -0.484352 0.554935
vt 0.460660 0.652364
vt 0.000000 -0.000000
vt -1.567423 0.554929
vt -1.206007 0.652362
vt -1.666667 -0.000000
vt -0.484352 -0.554935
vt -1.206007 -0.652362
vt -1.030056 0.000000
vt 1.268074 -0.554934
vt 0.460660 -0.652364
vt 1.030056 0.000000
vt -0.554929 0.163270
vt 0.000000 0.112818
vt 0.000000 0.213723
vt 0.484352 -0.554935
vt 1.206007 -0.652362
vt 0.284693 -1.055538
vt -1.268074 -0.554934
vt -0.460660 -0.652364
vt -0.745350 -1.055538
vt -1.268074 0.554934
vt -1.490704 0.652362
vt -0.745350 1.055538
vt 0.484352 0.554935
vt -0.460660 0.652364
vt 0.284693 1.055538
vt 1.567423 0.554929
vt 1.206007 0.652362
vt 0.921307 1.055535
vt -0.745350 0.213723
vt -0.745350 0.112818
vt 0.000000 0.163270
vt -1.490704 0.163270
vt -1.490704 -0.652362
vt 0.921307 -1.055535
vt 1.567423 -0.554929
vt 0.652362 0.163270
vt -1.567423 -0.554929
vt 1.490704 -0.652362
vt 1.370070 0.221664
vt 0.826692 0.692701
vt 1.333374 0.185040
vt -1.370070 0.862611
vt -0.848564 0.770092
vt -1.370070 0.770092
vt -1.370070 0.221664
vt -0.826692 0.692701
vt -0.848564 0.739707
vt -1.333374 0.185040
vt -0.804820 0.645696
vt -0.770092 0.148415
vt -0.862611 0.645696
vt -0.862611 0.148415
vt 0.804820 0.645696
vt 1.296678 0.148415
vt -0.000000 0.857312
vt -0.000000 0.805467
vt -0.848564 0.862611
vt 0.000000 0.770092
vt -0.804820 -0.770092
vt 0.000000 -0.862611
vt -0.804820 -0.862611
vt -0.000000 0.753621
vt 0.000000 0.862611
vt 0.848564 0.770092
vt 0.848564 0.739707
vt 0.000000 -0.770092
vt 0.804820 -0.862611
vt 0.848564 0.862611
vt 1.370070 0.770092
vt 0.770092 0.645696
vt 0.862611 0.148415
vt 0.862611 0.645696
vt -1.296678 0.148415
vt -1.370070 -0.862611
vt -1.370070 -0.770092
vt -1.296678 -0.770092
vt 1.296678 -0.862611
vt 1.296678 -0.770092
vt 1.370070 -0.770092
vt 1.288187 0.221910
vt 0.776078 0.655258
vt 1.251739 0.185040
vt -1.288187 -0.851727
vt -0.797778 -0.944246
vt -1.288187 -0.944246
vt -1.288187 0.221910
vt -0.776078 0.655258
vt -0.797778 0.702343
vt -1.251739 0.185040
vt -0.754378 0.608173
vt -1.215290 0.944246
vt -0.754378 0.851727
vt -1.215290 0.851727
vt 0.754378 0.608173
vt 1.215290 0.148169
vt -0.000000 0.813773
vt -0.000000 0.761928
vt -0.797778 -0.851727
vt 0.000000 -0.944246
vt -0.754378 0.944246
vt 0.000000 0.851727
vt -0.000000 0.710083
vt 0.000000 -0.851727
vt 0.797778 -0.944246
vt 0.797778 0.702343
vt 0.000000 0.944246
vt 0.754378 0.851727
vt 0.797778 -0.851727
vt 1.288187 -0.944246
vt 0.754378 0.944246
vt 1.215290 0.851727
vt -1.215290 0.148169
vt -0.851727 0.221910
vt -0.944246 0.221910
vt -0.944246 0.148169
vt 0.851727 0.148169
vt 0.944246 0.148169
vt 0.944246 0.221910
vt -0.770092 0.645696
vt 0.804820 -0.770092
vt 1.370070 0.862611
vt 0.770092 0.148415
vt -1.333374 -0.723832
vt -1.296678 -0.862611
vt -1.333374 -0.908871
vt 1.333374 -0.723832
vt 1.370070 -0.862611
vt 1.333374 -0.908871
vt 1.288187 -0.851727
vt 1.215290 0.944246
vt -0.990506 0.185040
vt -0.851727 0.148169
vt -0.805467 0.185040
vt 0.990506 0.185040
vt 0.851727 0.221910
vt 0.805467 0.185040
s 0
f 401/850/229 414/851/229 413/852/229
f 402/853/230 414/851/230 416/854/230
f 401/850/231 413/852/231 418/855/231
f 401/856/232 418/857/232 420/858/232
f 401/856/233 420/858/233 417/859/233
f 402/853/234 416/854/234 423/860/234
f 403/861/235 415/862/235 425/863/235
f 404/864/236 419/865/236 427/866/236
f 405/867/237 421/868/237 429/869/237
f 406/870/238 422/871/238 431/872/238
f 402/853/239 423/860/239 426/872/239
f 403/861/240 425/863/240 428/869/240
f 404/873/241 427/874/241 430/875/241
f 405/867/242 429/869/242 432/863/242
f 406/870/243 431/872/243 424/860/243
f 407/876/244 433/877/244 438/878/244
f 408/879/245 434/880/245 440/881/245
f 409/882/246 435/883/246 441/884/246
f 410/885/247 436/886/247 442/887/247
f 411/888/248 437/889/248 439/890/248
f 439/890/249 442/887/249 412/850/249
f 439/890/250 437/889/250 442/887/250
f 437/889/251 410/885/251 442/887/251
f 442/887/252 441/884/252 412/850/252
f 442/887/253 436/886/253 441/884/253
f 436/886/254 409/882/254 441/884/254
f 441/891/255 440/892/255 412/893/255
f 441/891/256 435/894/256 440/892/256
f 435/895/257 408/879/257 440/881/257
f 440/881/258 438/878/258 412/856/258
f 440/881/259 434/880/259 438/878/259
f 434/880/260 407/876/260 438/878/260
f 438/878/261 439/896/261 412/856/261
f 438/878/262 433/877/262 439/896/262
f 433/877/263 411/897/263 439/896/263
f 424/860/264 437/889/264 411/888/264
f 424/860/265 431/872/265 437/889/265
f 431/872/266 410/885/266 437/889/266
f 432/863/267 436/886/267 410/885/267
f 432/863/268 429/869/268 436/886/268
f 429/869/269 409/882/269 436/886/269
f 430/866/270 435/883/270 409/882/270
f 430/875/271 427/874/271 435/898/271
f 427/866/272 408/879/272 435/895/272
f 428/869/273 434/880/273 408/879/273
f 428/869/274 425/863/274 434/880/274
f 425/863/275 407/876/275 434/880/275
f 426/872/276 433/877/276 407/876/276
f 426/872/277 423/860/277 433/877/277
f 423/860/278 411/897/278 433/877/278
f 431/872/279 432/863/279 410/885/279
f 431/872/280 422/871/280 432/863/280
f 422/871/281 405/867/281 432/863/281
f 429/869/282 430/866/282 409/882/282
f 429/869/283 421/868/283 430/866/283
f 421/868/284 404/899/284 430/866/284
f 427/866/285 428/869/285 408/879/285
f 427/866/286 419/865/286 428/869/286
f 419/865/287 403/861/287 428/869/287
f 425/863/288 426/872/288 407/876/288
f 425/863/289 415/862/289 426/872/289
f 415/862/290 402/853/290 426/872/290
f 423/874/291 424/875/291 411/873/291
f 423/874/292 416/898/292 424/875/292
f 416/900/293 406/870/293 424/860/293
f 417/859/294 422/871/294 406/870/294
f 417/859/295 420/858/295 422/871/295
f 420/858/296 405/867/296 422/871/296
f 420/858/297 421/868/297 405/867/297
f 420/858/298 418/857/298 421/868/298
f 418/857/299 404/899/299 421/868/299
f 418/855/300 419/865/300 404/864/300
f 418/855/301 413/852/301 419/865/301
f 413/852/302 403/861/302 419/865/302
f 416/900/303 417/859/303 406/870/303
f 416/894/304 414/892/304 417/891/304
f 414/892/305 401/893/305 417/891/305
f 413/852/306 415/862/306 403/861/306
f 413/852/307 414/851/307 415/862/307
f 414/851/308 402/853/308 415/862/308
f 444/901/309 449/902/309 443/903/309
f 445/904/310 450/905/310 444/906/310
f 445/907/311 452/908/311 451/909/311
f 446/910/312 453/911/312 452/908/312
f 448/912/313 453/913/313 447/914/313
f 443/903/314 454/915/314 448/916/314
f 449/902/315 456/917/315 455/918/315
f 451/919/316 456/920/316 450/905/316
f 452/908/317 457/917/317 451/909/317
f 453/911/318 458/918/318 452/908/318
f 454/921/319 459/922/319 453/923/319
f 454/915/320 455/918/320 460/924/320
f 456/917/321 461/908/321 455/918/321
f 457/925/322 462/926/322 456/920/322
f 457/917/323 464/902/323 463/927/323
f 458/918/324 465/915/324 464/902/324
f 460/928/325 465/929/325 459/922/325
f 455/918/326 466/911/326 460/924/326
f 461/908/327 468/907/327 467/910/327
f 463/930/328 468/931/328 462/926/328
f 464/902/329 469/901/329 463/927/329
f 465/915/330 470/903/330 464/902/330
f 466/932/331 471/933/331 465/934/331
f 466/911/332 467/910/332 472/935/332
f 445/936/333 444/937/333 448/938/333
f 471/939/334 472/940/334 468/941/334
f 474/942/335 479/943/335 473/944/335
f 475/945/336 480/946/336 474/947/336
f 475/948/337 482/949/337 481/950/337
f 476/951/338 483/952/338 482/949/338
f 478/953/334 483/954/334 477/955/334
f 473/944/339 484/956/339 478/957/339
f 479/943/340 486/958/340 485/959/340
f 481/960/341 486/961/341 480/946/341
f 482/949/342 487/958/342 481/950/342
f 483/952/343 488/959/343 482/949/343
f 484/962/344 489/963/344 483/954/344
f 484/956/345 485/959/345 490/964/345
f 486/958/346 491/949/346 485/959/346
f 487/965/347 492/966/347 486/961/347
f 487/958/348 494/943/348 493/967/348
f 488/959/349 495/956/349 494/943/349
f 490/968/350 495/969/350 489/963/350
f 485/959/351 496/952/351 490/964/351
f 491/949/352 498/948/352 497/951/352
f 493/970/353 498/971/353 492/966/353
f 494/943/354 499/942/354 493/967/354
f 495/956/355 500/944/355 494/943/355
f 496/972/333 501/973/333 495/969/333
f 496/952/356 497/951/356 502/974/356
f 475/975/357 474/976/357 478/977/357
f 501/978/358 502/979/358 498/980/358
f 444/901/359 450/927/359 449/902/359
f 445/904/310 451/919/310 450/905/310
f 445/907/360 446/910/360 452/908/360
f 446/910/361 447/935/361 453/911/361
f 448/912/313 454/981/313 453/913/313
f 443/903/362 449/902/362 454/915/362
f 449/902/363 450/927/363 456/917/363
f 451/919/316 457/925/316 456/920/316
f 452/908/364 458/918/364 457/917/364
f 453/911/365 459/924/365 458/918/365
f 454/921/319 460/928/319 459/922/319
f 454/915/366 449/902/366 455/918/366
f 456/917/367 462/909/367 461/908/367
f 457/925/322 463/930/322 462/926/322
f 457/917/368 458/918/368 464/902/368
f 458/918/369 459/924/369 465/915/369
f 460/928/325 466/982/325 465/929/325
f 455/918/370 461/908/370 466/911/370
f 461/908/371 462/909/371 468/907/371
f 463/930/328 469/983/328 468/931/328
f 464/902/372 470/903/372 469/901/372
f 465/915/373 471/916/373 470/903/373
f 466/932/331 472/984/331 471/933/331
f 466/911/374 461/908/374 467/910/374
f 444/937/333 443/985/333 448/938/333
f 448/938/333 447/986/333 445/936/333
f 447/986/333 446/987/333 445/936/333
f 472/940/334 467/988/334 468/941/334
f 468/941/334 469/989/334 471/939/334
f 469/989/334 470/990/334 471/939/334
f 474/942/375 480/967/375 479/943/375
f 475/945/336 481/960/336 480/946/336
f 475/948/376 476/951/376 482/949/376
f 476/951/377 477/974/377 483/952/377
f 478/953/334 484/962/334 483/954/334
f 473/944/378 479/943/378 484/956/378
f 479/943/379 480/967/379 486/958/379
f 481/960/341 487/965/341 486/961/341
f 482/949/380 488/959/380 487/958/380
f 483/952/381 489/964/381 488/959/381
f 484/962/344 490/968/344 489/963/344
f 484/956/382 479/943/382 485/959/382
f 486/958/383 492/950/383 491/949/383
f 487/965/347 493/970/347 492/966/347
f 487/958/384 488/959/384 494/943/384
f 488/959/385 489/964/385 495/956/385
f 490/968/350 496/972/350 495/969/350
f 485/959/386 491/949/386 496/952/386
f 491/949/387 492/950/387 498/948/387
f 493/970/353 499/991/353 498/971/353
f 494/943/388 500/944/388 499/942/388
f 495/956/389 501/957/389 500/944/389
f 496/972/333 502/992/333 501/973/333
f 496/952/390 491/949/390 497/951/390
f 474/976/357 473/993/357 478/977/357
f 478/977/357 477/994/357 475/975/357
f 477/994/357 476/995/357 475/975/357
f 502/979/358 497/996/358 498/980/358
f 498/980/358 499/997/358 501/978/358
f 499/997/358 500/998/358 501/978/358
