# Blender 5.0.1
# www.blender.org
mtllib boss_trophy_a.mtl
o body
usemtl body
v -0.148526 0.202163 -0.028800
v -0.162597 0.295969 -0.028800
v -0.148526 0.333491 -0.028800
v -0.144537 0.353427 -0.028800
v -0.132023 0.369450 -0.028800
v -0.128034 0.389386 -0.028800
v -0.115520 0.405409 -0.028800
v -0.111531 0.425344 -0.028800
v -0.099017 0.441367 -0.028800
v -0.095029 0.461303 -0.028800
v -0.082514 0.477326 -0.028800
v -0.078526 0.497262 -0.028800
v -0.066011 0.513285 -0.028800
v -0.062023 0.533221 -0.028800
v -0.049509 0.549244 -0.028800
v -0.045520 0.569180 -0.028800
v -0.033006 0.585203 -0.028800
v -0.029017 0.605139 -0.028800
v -0.016503 0.621162 -0.028800
v -0.012514 0.641098 -0.028800
v 0.000000 0.657121 -0.028800
v 0.012514 0.641098 -0.028800
v 0.016503 0.621162 -0.028800
v 0.029017 0.605139 -0.028800
v 0.033006 0.585203 -0.028800
v 0.045520 0.569180 -0.028800
v 0.049509 0.549244 -0.028800
v 0.062023 0.533221 -0.028800
v 0.066011 0.513285 -0.028800
v 0.078526 0.497262 -0.028800
v 0.082514 0.477326 -0.028800
v 0.095029 0.461303 -0.028800
v 0.099017 0.441367 -0.028800
v 0.111531 0.425344 -0.028800
v 0.115520 0.405409 -0.028800
v 0.128034 0.389386 -0.028800
v 0.132023 0.369450 -0.028800
v 0.144537 0.353427 -0.028800
v 0.148526 0.333491 -0.028800
v 0.162597 0.295969 -0.028800
v 0.148526 0.202163 -0.028800
v 0.048466 0.249066 -0.028800
v -0.048466 0.249066 -0.028800
v -0.195429 0.121371 0.000000
v -0.213943 0.244800 0.000000
v -0.195429 0.294171 0.000000
v -0.190180 0.320403 0.000000
v -0.173714 0.341486 0.000000
v -0.168466 0.367717 0.000000
v -0.152000 0.388800 0.000000
v -0.146752 0.415031 0.000000
v -0.130286 0.436114 0.000000
v -0.125038 0.462346 0.000000
v -0.108571 0.483429 0.000000
v -0.103323 0.509660 0.000000
v -0.086857 0.530743 0.000000
v -0.081609 0.556974 0.000000
v -0.065143 0.578057 0.000000
v -0.059895 0.604288 0.000000
v -0.043429 0.625371 0.000000
v -0.038180 0.651603 0.000000
v -0.021714 0.672686 0.000000
v -0.016466 0.698917 0.000000
v 0.000000 0.720000 0.000000
v 0.016466 0.698917 0.000000
v 0.021714 0.672686 0.000000
v 0.038180 0.651603 0.000000
v 0.043429 0.625371 0.000000
v 0.059895 0.604288 0.000000
v 0.065143 0.578057 0.000000
v 0.081609 0.556974 0.000000
v 0.086857 0.530743 0.000000
v 0.103323 0.509660 0.000000
v 0.108571 0.483429 0.000000
v 0.125038 0.462346 0.000000
v 0.130286 0.436114 0.000000
v 0.146752 0.415031 0.000000
v 0.152000 0.388800 0.000000
v 0.168466 0.367717 0.000000
v 0.173714 0.341486 0.000000
v 0.190180 0.320403 0.000000
v 0.195429 0.294171 0.000000
v 0.213943 0.244800 0.000000
v 0.195429 0.121371 0.000000
v 0.063771 0.183086 0.000000
v -0.063771 0.183086 0.000000
v -0.148526 0.202163 0.028800
v -0.162597 0.295969 0.028800
v -0.148526 0.333491 0.028800
v -0.144537 0.353427 0.028800
v -0.132023 0.369450 0.028800
v -0.128034 0.389386 0.028800
v -0.115520 0.405409 0.028800
v -0.111531 0.425344 0.028800
v -0.099017 0.441367 0.028800
v -0.095029 0.461303 0.028800
v -0.082514 0.477326 0.028800
v -0.078526 0.497262 0.028800
v -0.066011 0.513285 0.028800
v -0.062023 0.533221 0.028800
v -0.049509 0.549244 0.028800
v -0.045520 0.569180 0.028800
v -0.033006 0.585203 0.028800
v -0.029017 0.605139 0.028800
v -0.016503 0.621162 0.028800
v -0.012514 0.641098 0.028800
v 0.000000 0.657121 0.028800
v 0.012514 0.641098 0.028800
v 0.016503 0.621162 0.028800
v 0.029017 0.605139 0.028800
v 0.033006 0.585203 0.028800
v 0.045520 0.569180 0.028800
v 0.049509 0.549244 0.028800
v 0.062023 0.533221 0.028800
v 0.066011 0.513285 0.028800
v 0.078526 0.497262 0.028800
v 0.082514 0.477326 0.028800
v 0.095029 0.461303 0.028800
v 0.099017 0.441367 0.028800
v 0.111531 0.425344 0.028800
v 0.115520 0.405409 0.028800
v 0.128034 0.389386 0.028800
v 0.132023 0.369450 0.028800
v 0.144537 0.353427 0.028800
v 0.148526 0.333491 0.028800
v 0.162597 0.295969 0.028800
v 0.148526 0.202163 0.028800
v 0.048466 0.249066 0.028800
v -0.048466 0.249066 0.028800
vn -0.0000 -0.0000 -1.0000
vn -0.0000 -0.0000 1.0000
vn -0.4376 -0.0656 -0.8968
vn -0.6472 0.2427 -0.7227
vn -0.5895 0.1180 -0.7991
vn -0.6925 0.5409 -0.4773
vn -0.6189 0.1238 -0.7757
vn -0.6628 0.5177 -0.5410
vn -0.6502 0.1301 -0.7486
vn -0.6325 0.4940 -0.5966
vn -0.6834 0.1367 -0.7171
vn -0.6024 0.4705 -0.6447
vn -0.7185 0.1438 -0.6805
vn -0.5732 0.4477 -0.6863
vn -0.7550 0.1511 -0.6381
vn -0.5453 0.4259 -0.7220
vn -0.7925 0.1586 -0.5889
vn -0.5188 0.4052 -0.7528
vn -0.8302 0.1661 -0.5321
vn -0.4938 0.3857 -0.7794
vn -0.8670 0.1735 -0.4672
vn -0.4705 0.3675 -0.8023
vn 0.4705 0.3675 -0.8023
vn 0.8670 0.1735 -0.4672
vn 0.4938 0.3857 -0.7794
vn 0.8302 0.1661 -0.5321
vn 0.5188 0.4052 -0.7528
vn 0.7925 0.1586 -0.5889
vn 0.5453 0.4259 -0.7220
vn 0.7550 0.1511 -0.6381
vn 0.5732 0.4477 -0.6863
vn 0.7185 0.1438 -0.6805
vn 0.6024 0.4705 -0.6447
vn 0.6834 0.1367 -0.7171
vn 0.6325 0.4940 -0.5966
vn 0.6502 0.1301 -0.7486
vn 0.6628 0.5177 -0.5410
vn 0.6189 0.1238 -0.7757
vn 0.6925 0.5409 -0.4773
vn 0.5895 0.1180 -0.7991
vn 0.6472 0.2427 -0.7227
vn 0.4376 -0.0656 -0.8968
vn -0.2019 -0.4308 -0.8796
vn -0.0000 -0.4000 -0.9165
vn 0.2019 -0.4308 -0.8796
vn -0.4376 -0.0656 0.8968
vn -0.6472 0.2427 0.7227
vn -0.5895 0.1180 0.7991
vn -0.6925 0.5409 0.4773
vn -0.6189 0.1238 0.7757
vn -0.6628 0.5177 0.5410
vn -0.6502 0.1301 0.7486
vn -0.6325 0.4940 0.5966
vn -0.6834 0.1367 0.7171
vn -0.6024 0.4705 0.6447
vn -0.7185 0.1438 0.6805
vn -0.5732 0.4477 0.6863
vn -0.7550 0.1511 0.6381
vn -0.5453 0.4259 0.7220
vn -0.7925 0.1586 0.5889
vn -0.5188 0.4052 0.7528
vn -0.8302 0.1661 0.5321
vn -0.4938 0.3857 0.7794
vn -0.8670 0.1735 0.4672
vn -0.4705 0.3675 0.8023
vn 0.4705 0.3675 0.8023
vn 0.8670 0.1735 0.4672
vn 0.4938 0.3857 0.7794
vn 0.8302 0.1661 0.5321
vn 0.5188 0.4052 0.7528
vn 0.7925 0.1586 0.5889
vn 0.5453 0.4259 0.7220
vn 0.7550 0.1511 0.6381
vn 0.5732 0.4477 0.6863
vn 0.7185 0.1438 0.6805
vn 0.6024 0.4705 0.6448
vn 0.6834 0.1367 0.7171
vn 0.6325 0.4940 0.5966
vn 0.6502 0.1301 0.7486
vn 0.6628 0.5177 0.5410
vn 0.6189 0.1238 0.7757
vn 0.6925 0.5409 0.4773
vn 0.5895 0.1180 0.7991
vn 0.6472 0.2427 0.7227
vn 0.4376 -0.0656 0.8968
vn -0.2019 -0.4308 0.8796
vn -0.0000 -0.4000 0.9165
vn 0.2019 -0.4308 0.8796
vn 0.6024 0.4705 -0.6448
vn 0.6024 0.4705 0.6447
vt -0.163719 1.816283
vt 0.109146 1.935195
vt -0.109146 1.935195
vt 0.163719 1.816283
vt 0.491156 0.668528
vt 0.707483 0.809524
vt 0.537687 0.978732
vt 0.646259 0.972789
vt 0.491156 1.102814
vt 0.628903 1.059533
vt 0.477967 1.168739
vt -0.095238 1.168739
vt 0.000000 1.129252
vt -0.095238 1.221725
vt 0.436584 1.221725
vt 0.557097 1.215995
vt 0.423394 1.287650
vt -0.095238 1.287650
vt 0.000000 1.285714
vt -0.095238 1.340637
vt 0.382011 1.340637
vt 0.485290 1.372458
vt 0.368821 1.406562
vt -0.095238 1.406562
vt 0.000000 1.442177
vt -0.095238 1.459548
vt 0.327438 1.459548
vt 0.413484 1.528921
vt 0.314248 1.525474
vt 0.359033 1.598639
vt 0.272865 1.578460
vt 0.000000 1.598639
vt -0.095238 1.644385
vt -0.095238 1.578460
vt 0.259675 1.644385
vt 0.287226 1.755102
vt 0.218292 1.697372
vt 0.000000 1.755102
vt -0.095238 1.763297
vt -0.095238 1.697372
vt 0.269871 1.841846
vt 0.205102 1.763297
vt 0.000000 1.911565
vt -0.095238 1.882209
vt -0.095238 1.816283
vt 0.198064 1.998308
vt 0.150529 1.882209
vt 0.000000 2.068027
vt -0.095238 2.001120
vt -0.095238 1.935195
vt 0.126258 2.154771
vt 0.054573 2.054106
vt 0.095956 2.001120
vt 0.000000 2.224490
vt -0.095238 2.120032
vt -0.095238 2.054106
vt 0.054451 2.311234
vt -0.000000 2.173018
vt 0.041383 2.120032
vt -0.054451 2.311234
vt -0.041383 2.120032
vt 0.095238 2.120032
vt 0.095238 2.054106
vt -0.054573 2.054106
vt -0.126258 2.154771
vt -0.095956 2.001120
vt 0.095238 2.001120
vt 0.095238 1.935195
vt -0.198064 1.998308
vt -0.150529 1.882209
vt 0.095238 1.882209
vt 0.095238 1.816283
vt -0.269871 1.841846
vt -0.205102 1.763297
vt 0.095238 1.763297
vt 0.095238 1.697372
vt -0.287226 1.755102
vt -0.259675 1.644385
vt -0.218292 1.697372
vt 0.095238 1.644385
vt 0.095238 1.578460
vt -0.359033 1.598639
vt -0.314248 1.525474
vt -0.272865 1.578460
vt -0.413484 1.528921
vt -0.327438 1.459548
vt 0.095238 1.406562
vt 0.095238 1.459548
vt -0.485290 1.372458
vt -0.382011 1.340637
vt -0.368821 1.406562
vt 0.095238 1.287650
vt 0.095238 1.340637
vt -0.557097 1.215995
vt -0.436584 1.221725
vt -0.423394 1.287650
vt 0.095238 1.168739
vt 0.095238 1.221725
vt -0.628903 1.059533
vt -0.491156 1.102814
vt -0.477967 1.168739
vt -0.646259 0.972789
vt -0.537687 0.978732
vt -0.707483 0.809524
vt -0.491156 0.668528
vt -0.210884 0.605442
vt -0.160272 0.823630
vt 0.160272 0.823630
vt 0.210884 0.605442
vt -0.646259 0.401361
vt 0.000000 1.059533
vt -0.574452 1.129252
vt 0.000000 1.215995
vt -0.502645 1.285714
vt 0.000000 1.372458
vt -0.430839 1.442177
vt 0.000000 1.685383
vt -0.341677 1.685383
vt 0.000000 1.841846
vt -0.215420 1.911565
vt 0.000000 1.998308
vt -0.143613 2.068027
vt 0.000000 2.154771
vt -0.071806 2.224490
vt 0.000000 2.311234
vt 0.000000 2.173018
vt 0.000000 2.380952
vt 0.071806 2.224490
vt 0.143613 2.068027
vt 0.215420 1.911565
vt 0.341677 1.685383
vt 0.430839 1.442177
vt 0.502645 1.285714
vt 0.574452 1.129252
vt 0.646259 0.401361
s 0
f 27/1/1 17/2/1 25/3/1
f 113/4/2 111/2/2 101/1/2
f 1/5/3 45/6/3 2/7/3
f 2/7/4 46/8/4 3/9/4
f 3/9/5 47/10/5 4/11/5
f 4/12/6 48/13/6 5/14/6
f 5/15/7 49/16/7 6/17/7
f 6/18/8 50/19/8 7/20/8
f 7/21/9 51/22/9 8/23/9
f 8/24/10 52/25/10 9/26/10
f 9/27/11 53/28/11 10/29/11
f 10/29/12 54/30/12 11/31/12
f 54/32/13 12/33/13 11/34/13
f 12/35/14 56/36/14 13/37/14
f 56/38/15 14/39/15 13/40/15
f 57/41/16 15/4/16 14/42/16
f 58/43/17 16/44/17 15/45/17
f 59/46/18 17/2/18 16/47/18
f 60/48/19 18/49/19 17/50/19
f 61/51/20 19/52/20 18/53/20
f 62/54/21 20/55/21 19/56/21
f 63/57/22 21/58/22 20/59/22
f 21/58/23 65/60/23 22/61/23
f 22/62/24 66/54/24 23/63/24
f 23/64/25 67/65/25 24/66/25
f 24/67/26 68/48/26 25/68/26
f 25/3/27 69/69/27 26/70/27
f 26/71/28 70/43/28 27/72/28
f 27/1/29 71/73/29 28/74/29
f 28/75/30 72/38/30 29/76/30
f 72/77/31 30/78/31 29/79/31
f 30/80/32 74/32/32 31/81/32
f 74/82/33 32/83/33 31/84/33
f 75/85/34 33/86/34 32/83/34
f 76/25/35 34/87/35 33/88/35
f 77/89/36 35/90/36 34/91/36
f 78/19/37 36/92/37 35/93/37
f 79/94/38 37/95/38 36/96/38
f 80/13/39 38/97/39 37/98/39
f 81/99/40 39/100/40 38/101/40
f 82/102/41 40/103/41 39/100/41
f 83/104/42 41/105/42 40/103/42
f 41/105/43 85/106/43 42/107/43
f 85/106/44 43/108/44 42/107/44
f 86/109/45 1/5/45 43/108/45
f 87/105/46 45/104/46 44/110/46
f 88/103/47 46/102/47 45/104/47
f 89/100/48 47/99/48 46/102/48
f 90/97/49 48/13/49 47/111/49
f 91/95/50 49/94/50 48/112/50
f 92/92/51 50/19/51 49/113/51
f 93/90/52 51/89/52 50/114/52
f 94/87/53 52/25/53 51/115/53
f 95/86/54 53/85/54 52/116/54
f 96/83/55 54/82/55 53/85/55
f 54/32/56 98/80/56 55/117/56
f 98/78/57 56/77/57 55/118/57
f 56/38/58 100/75/58 57/119/58
f 57/73/59 101/1/59 58/120/59
f 58/43/60 102/71/60 59/121/60
f 59/69/61 103/3/61 60/122/61
f 60/48/62 104/67/62 61/123/62
f 61/65/63 105/64/63 62/124/63
f 62/54/64 106/62/64 63/125/64
f 63/60/65 107/126/65 64/127/65
f 107/126/66 65/57/66 64/127/66
f 108/55/67 66/54/67 65/125/67
f 109/52/68 67/51/68 66/128/68
f 110/49/69 68/48/69 67/123/69
f 111/2/70 69/46/70 68/129/70
f 112/44/71 70/43/71 69/121/71
f 113/4/72 71/41/72 70/130/72
f 114/39/73 72/38/73 71/119/73
f 72/36/74 116/35/74 73/131/74
f 116/33/75 74/32/75 73/117/75
f 74/30/76 118/29/76 75/28/76
f 75/28/77 119/27/77 76/132/77
f 76/25/78 120/24/78 77/115/78
f 77/22/79 121/21/79 78/133/79
f 78/19/80 122/18/80 79/113/80
f 79/16/81 123/15/81 80/134/81
f 80/13/82 124/12/82 81/111/82
f 81/10/83 125/9/83 82/8/83
f 82/8/84 126/7/84 83/6/84
f 83/6/85 127/5/85 84/135/85
f 127/5/86 85/109/86 84/135/86
f 128/108/87 86/106/87 85/109/87
f 86/106/88 87/105/88 44/110/88
f 43/108/1 1/5/1 2/7/1
f 3/9/1 4/11/1 5/15/1
f 43/108/1 2/7/1 3/9/1
f 40/103/1 41/105/1 42/107/1
f 42/107/1 43/108/1 7/21/1
f 43/108/1 3/9/1 5/15/1
f 5/15/1 6/17/1 7/21/1
f 43/108/1 5/15/1 7/21/1
f 39/100/1 40/103/1 42/107/1
f 37/95/1 38/101/1 39/100/1
f 35/90/1 36/96/1 37/95/1
f 33/86/1 34/91/1 35/90/1
f 31/84/1 32/83/1 33/86/1
f 29/79/1 30/78/1 31/84/1
f 27/1/1 28/74/1 29/79/1
f 25/3/1 26/70/1 27/1/1
f 23/64/1 24/66/1 19/52/1
f 24/66/1 25/3/1 18/53/1
f 19/52/1 24/66/1 18/53/1
f 21/58/1 22/61/1 20/59/1
f 22/61/1 23/64/1 19/52/1
f 19/52/1 20/59/1 22/61/1
f 17/2/1 18/53/1 25/3/1
f 15/4/1 16/47/1 17/2/1
f 13/37/1 14/42/1 15/4/1
f 11/31/1 12/35/1 13/37/1
f 9/27/1 10/29/1 11/31/1
f 7/21/1 8/23/1 9/27/1
f 37/95/1 39/100/1 42/107/1
f 35/90/1 37/95/1 42/107/1
f 42/107/1 7/21/1 35/90/1
f 7/21/1 9/27/1 35/90/1
f 11/31/1 13/37/1 31/84/1
f 13/37/1 15/4/1 29/79/1
f 31/84/1 13/37/1 29/79/1
f 9/27/1 11/31/1 33/86/1
f 33/86/1 35/90/1 9/27/1
f 27/1/1 29/79/1 15/4/1
f 31/84/1 33/86/1 11/31/1
f 15/4/1 17/2/1 27/1/1
f 88/103/2 87/105/2 129/107/2
f 128/108/2 127/5/2 126/7/2
f 88/103/2 129/107/2 89/100/2
f 129/107/2 128/108/2 93/90/2
f 89/100/2 129/107/2 91/95/2
f 91/95/2 90/101/2 89/100/2
f 91/95/2 129/107/2 93/90/2
f 128/108/2 126/7/2 125/9/2
f 125/9/2 124/11/2 123/15/2
f 123/15/2 122/17/2 121/21/2
f 121/21/2 120/23/2 119/27/2
f 119/27/2 118/29/2 117/31/2
f 117/31/2 116/35/2 115/37/2
f 115/37/2 114/42/2 113/4/2
f 113/4/2 112/47/2 111/2/2
f 111/2/2 110/53/2 103/3/2
f 110/53/2 109/52/2 104/66/2
f 103/3/2 110/53/2 104/66/2
f 109/52/2 108/59/2 106/61/2
f 108/59/2 107/126/2 106/61/2
f 106/61/2 105/64/2 109/52/2
f 105/64/2 104/66/2 109/52/2
f 103/3/2 102/70/2 101/1/2
f 101/1/2 100/74/2 99/79/2
f 99/79/2 98/78/2 97/84/2
f 97/84/2 96/83/2 95/86/2
f 95/86/2 94/91/2 93/90/2
f 93/90/2 92/96/2 91/95/2
f 128/108/2 125/9/2 123/15/2
f 128/108/2 123/15/2 121/21/2
f 95/86/2 93/90/2 121/21/2
f 93/90/2 128/108/2 121/21/2
f 121/21/2 119/27/2 95/86/2
f 117/31/2 115/37/2 99/79/2
f 115/37/2 113/4/2 101/1/2
f 119/27/2 117/31/2 97/84/2
f 97/84/2 95/86/2 119/27/2
f 101/1/2 99/79/2 115/37/2
f 99/79/2 97/84/2 117/31/2
f 103/3/2 101/1/2 111/2/2
f 1/5/3 44/135/3 45/6/3
f 2/7/4 45/6/4 46/8/4
f 3/9/5 46/8/5 47/10/5
f 4/12/6 47/111/6 48/13/6
f 5/15/7 48/134/7 49/16/7
f 6/18/8 49/113/8 50/19/8
f 7/21/9 50/133/9 51/22/9
f 8/24/10 51/115/10 52/25/10
f 9/27/11 52/132/11 53/28/11
f 10/29/12 53/28/12 54/30/12
f 54/32/13 55/117/13 12/33/13
f 12/35/14 55/131/14 56/36/14
f 56/38/15 57/119/15 14/39/15
f 57/41/16 58/130/16 15/4/16
f 58/43/17 59/121/17 16/44/17
f 59/46/18 60/129/18 17/2/18
f 60/48/19 61/123/19 18/49/19
f 61/51/20 62/128/20 19/52/20
f 62/54/21 63/125/21 20/55/21
f 63/57/22 64/127/22 21/58/22
f 21/58/23 64/127/23 65/60/23
f 22/62/24 65/125/24 66/54/24
f 23/64/25 66/124/25 67/65/25
f 24/67/26 67/123/26 68/48/26
f 25/3/27 68/122/27 69/69/27
f 26/71/28 69/121/28 70/43/28
f 27/1/29 70/120/29 71/73/29
f 28/75/30 71/119/30 72/38/30
f 72/77/31 73/118/31 30/78/31
f 30/80/32 73/117/32 74/32/32
f 74/82/89 75/85/89 32/83/89
f 75/85/34 76/116/34 33/86/34
f 76/25/35 77/115/35 34/87/35
f 77/89/36 78/114/36 35/90/36
f 78/19/37 79/113/37 36/92/37
f 79/94/38 80/112/38 37/95/38
f 80/13/39 81/111/39 38/97/39
f 81/99/40 82/102/40 39/100/40
f 82/102/41 83/104/41 40/103/41
f 83/104/42 84/110/42 41/105/42
f 41/105/43 84/110/43 85/106/43
f 85/106/44 86/109/44 43/108/44
f 86/109/45 44/135/45 1/5/45
f 87/105/46 88/103/46 45/104/46
f 88/103/47 89/100/47 46/102/47
f 89/100/48 90/101/48 47/99/48
f 90/97/49 91/98/49 48/13/49
f 91/95/50 92/96/50 49/94/50
f 92/92/51 93/93/51 50/19/51
f 93/90/52 94/91/52 51/89/52
f 94/87/53 95/88/53 52/25/53
f 95/86/54 96/83/54 53/85/54
f 96/83/55 97/84/55 54/82/55
f 54/32/56 97/81/56 98/80/56
f 98/78/57 99/79/57 56/77/57
f 56/38/58 99/76/58 100/75/58
f 57/73/59 100/74/59 101/1/59
f 58/43/60 101/72/60 102/71/60
f 59/69/61 102/70/61 103/3/61
f 60/48/62 103/68/62 104/67/62
f 61/65/63 104/66/63 105/64/63
f 62/54/64 105/63/64 106/62/64
f 63/60/65 106/61/65 107/126/65
f 107/126/66 108/59/66 65/57/66
f 108/55/67 109/56/67 66/54/67
f 109/52/68 110/53/68 67/51/68
f 110/49/69 111/50/69 68/48/69
f 111/2/70 112/47/70 69/46/70
f 112/44/71 113/45/71 70/43/71
f 113/4/72 114/42/72 71/41/72
f 114/39/73 115/40/73 72/38/73
f 72/36/74 115/37/74 116/35/74
f 116/33/75 117/34/75 74/32/75
f 74/30/90 117/31/90 118/29/90
f 75/28/77 118/29/77 119/27/77
f 76/25/78 119/26/78 120/24/78
f 77/22/79 120/23/79 121/21/79
f 78/19/80 121/20/80 122/18/80
f 79/16/81 122/17/81 123/15/81
f 80/13/82 123/14/82 124/12/82
f 81/10/83 124/11/83 125/9/83
f 82/8/84 125/9/84 126/7/84
f 83/6/85 126/7/85 127/5/85
f 127/5/86 128/108/86 85/109/86
f 128/108/87 129/107/87 86/106/87
f 86/106/88 129/107/88 87/105/88
o fin
usemtl fin
v 0.000000 0.043200 -0.156343
v 0.160021 0.020489 -0.069920
v -0.061121 0.006452 -0.069920
v -0.197796 0.043200 -0.069919
v -0.061121 0.079948 -0.069920
v 0.160021 0.065911 -0.069920
v 0.061121 0.006452 0.069920
v -0.160021 0.020489 0.069920
v -0.160021 0.065911 0.069920
v 0.061121 0.079948 0.069920
v 0.197796 0.043200 0.069919
v 0.000000 0.043200 0.156343
v -0.035926 0.021600 -0.132994
v 0.094057 0.029851 -0.132994
v 0.058132 0.008251 -0.082195
v 0.188115 0.043200 -0.082195
v 0.094057 0.056549 -0.132994
v -0.116261 0.043200 -0.132993
v -0.152188 0.021600 -0.082195
v -0.035926 0.064800 -0.132994
v -0.152188 0.064800 -0.082195
v 0.058132 0.078149 -0.082195
v 0.210320 0.029851 0.000000
v 0.210320 0.056549 0.000000
v 0.000000 0.000000 0.000000
v 0.129985 0.008250 0.000000
v -0.210320 0.029851 0.000000
v -0.129985 0.008250 0.000000
v -0.129985 0.078150 0.000000
v -0.210320 0.056549 0.000000
v 0.129985 0.078150 0.000000
v 0.000000 0.086400 0.000000
v 0.152188 0.021600 0.082195
v -0.058132 0.008251 0.082195
v -0.188115 0.043200 0.082195
v -0.058132 0.078149 0.082195
v 0.152188 0.064800 0.082195
v 0.035926 0.021600 0.132994
v 0.116261 0.043200 0.132993
v -0.094057 0.029851 0.132994
v -0.094057 0.056549 0.132994
v 0.035926 0.064800 0.132994
v 0.000000 0.061714 0.100800
v 0.050400 0.061714 0.087295
v 0.087295 0.061714 0.050400
v 0.100800 0.061714 0.000000
v 0.087295 0.061714 -0.050400
v 0.050400 0.061714 -0.087295
v 0.000000 0.061714 -0.100800
v -0.050400 0.061714 -0.087295
v -0.087295 0.061714 -0.050400
v -0.100800 0.061714 -0.000000
v -0.087295 0.061714 0.050400
v -0.050400 0.061714 0.087295
v 0.000000 0.100800 0.063771
v 0.031886 0.100800 0.055228
v 0.055228 0.100800 0.031886
v 0.063771 0.100800 0.000000
v 0.055228 0.100800 -0.031886
v 0.031886 0.100800 -0.055228
v 0.000000 0.100800 -0.063771
v -0.031886 0.100800 -0.055228
v -0.055228 0.100800 -0.031886
v -0.063771 0.100800 -0.000000
v -0.055228 0.100800 0.031886
v -0.031886 0.100800 0.055228
v 0.000000 0.135771 0.059657
v 0.029829 0.135771 0.051665
v 0.051665 0.135771 0.029829
v 0.059657 0.135771 0.000000
v 0.051665 0.135771 -0.029829
v 0.029829 0.135771 -0.051665
v 0.000000 0.135771 -0.059657
v -0.029829 0.135771 -0.051665
v -0.051665 0.135771 -0.029829
v -0.059657 0.135771 -0.000000
v -0.051665 0.135771 0.029829
v -0.029829 0.135771 0.051665
v 0.000000 0.174857 0.088457
v 0.044229 0.174857 0.076606
v 0.076606 0.174857 0.044229
v 0.088457 0.174857 0.000000
v 0.076606 0.174857 -0.044229
v 0.044229 0.174857 -0.076606
v 0.000000 0.174857 -0.088457
v -0.044229 0.174857 -0.076606
v -0.076606 0.174857 -0.044229
v -0.088457 0.174857 -0.000000
v -0.076606 0.174857 0.044229
v -0.044229 0.174857 0.076606
v -0.067886 0.154286 0.030857
v -0.045385 0.159774 0.015429
v -0.045385 0.159774 -0.015429
v -0.067886 0.154286 -0.030857
v -0.090386 0.148798 -0.015429
v -0.090386 0.148798 0.015429
v -0.088457 0.238629 0.026743
v -0.068971 0.240707 0.013371
v -0.068971 0.240707 -0.013371
v -0.088457 0.238629 -0.026743
v -0.107944 0.236550 -0.013371
v -0.107944 0.236550 0.013371
v -0.084343 0.308571 -0.020571
v -0.099460 0.309461 -0.010286
v -0.099460 0.309461 0.010286
v -0.084343 0.308571 0.020571
v -0.069226 0.307682 0.010286
v -0.069226 0.307682 -0.010286
v 0.067886 0.154286 -0.030857
v 0.045385 0.159774 -0.015429
v 0.045385 0.159774 0.015429
v 0.067886 0.154286 0.030857
v 0.090386 0.148798 0.015429
v 0.090386 0.148798 -0.015429
v 0.088457 0.238629 -0.026743
v 0.068971 0.240707 -0.013371
v 0.068971 0.240707 0.013371
v 0.088457 0.238629 0.026743
v 0.107944 0.236550 0.013371
v 0.107944 0.236550 -0.013371
v 0.084343 0.308571 0.020571
v 0.099460 0.309461 0.010286
v 0.099460 0.309461 -0.010286
v 0.084343 0.308571 -0.020571
v 0.069226 0.307682 -0.010286
v 0.069226 0.307682 0.010286
vn 0.0488 -0.7695 -0.6367
vn 0.3885 -0.7612 -0.5193
vn -0.1589 -0.5908 -0.7910
vn -0.1589 0.5908 -0.7910
vn 0.0488 0.7695 -0.6367
vn 0.5296 -0.8029 -0.2735
vn 0.0051 -0.9953 -0.0963
vn -0.4682 -0.8487 -0.2459
vn -0.1472 0.9818 -0.1197
vn 0.1322 0.9845 -0.1155
vn 0.2592 -0.9641 -0.0574
vn -0.0633 -0.9973 -0.0367
vn -0.9843 -0.0000 -0.1763
vn -0.0633 0.9973 -0.0367
vn 0.2592 0.9641 -0.0574
vn 0.1212 -0.9531 0.2773
vn -0.1490 -0.9435 0.2958
vn -0.3885 0.7612 0.5193
vn 0.0098 0.9714 0.2372
vn 0.4680 0.6443 0.6049
vn 0.1589 0.5908 0.7910
vn 0.2232 0.8302 0.5109
vn 0.1212 0.9531 0.2773
vn -0.0488 0.7695 0.6367
vn -0.0592 0.9330 0.3549
vn -0.1490 0.9435 0.2958
vn -0.2409 -0.0000 0.9705
vn -0.4752 -0.0000 0.8799
vn -0.3885 -0.7612 0.5193
vn -0.0488 -0.7695 0.6367
vn -0.0592 -0.9330 0.3549
vn 0.0098 -0.9714 0.2372
vn 0.1589 -0.5908 0.7910
vn 0.2232 -0.8302 0.5109
vn 0.4680 -0.6443 0.6049
vn 0.4682 0.8487 0.2459
vn 0.2587 0.9621 0.0864
vn 0.1472 0.9818 0.1197
vn -0.0051 0.9953 0.0963
vn -0.0632 0.9965 0.0553
vn -0.1322 0.9845 0.1155
vn -0.5296 0.8029 0.2735
vn -0.9654 -0.0000 0.2608
vn -0.5296 -0.8029 0.2735
vn -0.1322 -0.9845 0.1155
vn -0.0632 -0.9965 0.0553
vn -0.0051 -0.9953 0.0963
vn 0.1472 -0.9818 0.1197
vn 0.2587 -0.9621 0.0864
vn 0.4682 -0.8487 0.2459
vn 0.0633 0.9973 0.0367
vn 0.0632 0.9965 -0.0553
vn 0.0051 0.9953 -0.0963
vn -0.2592 0.9641 0.0574
vn -0.2587 0.9621 -0.0864
vn -0.4682 0.8487 -0.2459
vn -0.2592 -0.9641 0.0574
vn -0.2587 -0.9621 -0.0864
vn -0.1472 -0.9818 -0.1197
vn 0.0633 -0.9973 0.0367
vn 0.0632 -0.9965 -0.0553
vn 0.1322 -0.9845 -0.1155
vn 0.9843 -0.0000 0.1763
vn 0.9654 -0.0000 -0.2608
vn 0.5296 0.8029 -0.2735
vn 0.1490 0.9435 -0.2958
vn 0.0592 0.9330 -0.3549
vn -0.0098 0.9714 -0.2372
vn -0.1212 0.9531 -0.2773
vn -0.2232 0.8302 -0.5109
vn -0.4680 0.6443 -0.6049
vn -0.4680 -0.6443 -0.6049
vn -0.2232 -0.8302 -0.5109
vn -0.1212 -0.9531 -0.2773
vn 0.3885 0.7612 -0.5193
vn 0.4752 -0.0000 -0.8799
vn 0.2409 -0.0000 -0.9705
vn -0.0098 -0.9714 -0.2372
vn 0.0592 -0.9330 -0.3549
vn 0.1490 -0.9435 -0.2958
vn 0.1909 0.6751 0.7126
vn 0.5217 0.6751 0.5217
vn 0.7126 0.6751 0.1909
vn 0.7126 0.6751 -0.1909
vn 0.5217 0.6751 -0.5217
vn 0.1909 0.6751 -0.7126
vn -0.1909 0.6751 -0.7126
vn -0.5217 0.6751 -0.5217
vn -0.7126 0.6751 -0.1909
vn -0.7126 0.6751 0.1909
vn -0.5217 0.6751 0.5217
vn -0.1909 0.6751 0.7126
vn 0.2572 0.1129 0.9597
vn 0.7026 0.1129 0.7026
vn 0.9597 0.1129 0.2572
vn 0.9597 0.1129 -0.2572
vn 0.7026 0.1129 -0.7026
vn 0.2572 0.1129 -0.9597
vn -0.2572 0.1129 -0.9597
vn -0.7026 0.1129 -0.7026
vn -0.9597 0.1129 -0.2572
vn -0.9597 0.1129 0.2572
vn -0.7026 0.1129 0.7026
vn -0.2572 0.1129 0.9597
vn 0.2109 -0.5799 0.7870
vn 0.5761 -0.5799 0.5761
vn 0.7870 -0.5799 0.2109
vn 0.7870 -0.5799 -0.2109
vn 0.5761 -0.5799 -0.5761
vn 0.2109 -0.5799 -0.7870
vn -0.2109 -0.5799 -0.7870
vn -0.5761 -0.5799 -0.5761
vn -0.7870 -0.5799 -0.2109
vn -0.7870 -0.5799 0.2109
vn -0.5761 -0.5799 0.5761
vn -0.2109 -0.5799 0.7870
vn -0.0000 -1.0000 -0.0000
vn -0.0000 1.0000 -0.0000
vn 0.5447 0.1729 0.8206
vn 0.9601 0.2798 -0.0000
vn 0.5274 0.1748 -0.8314
vn -0.5475 -0.0930 -0.8316
vn -0.9806 -0.1962 -0.0000
vn -0.5567 -0.0920 0.8256
vn -0.5183 -0.4580 -0.7222
vn -0.9141 -0.4054 -0.0000
vn -0.5142 -0.4740 0.7148
vn 0.4610 -0.5157 0.7222
vn 0.8783 -0.4781 -0.0000
vn 0.4678 -0.4976 -0.7305
vn 0.2370 -0.9715 -0.0000
vn 0.0587 0.9983 -0.0000
vn -0.5447 0.1729 -0.8206
vn -0.9601 0.2798 -0.0000
vn -0.5274 0.1748 0.8314
vn 0.5475 -0.0930 0.8316
vn 0.9806 -0.1962 -0.0000
vn 0.5567 -0.0920 -0.8256
vn 0.5183 -0.4580 0.7222
vn 0.9141 -0.4054 -0.0000
vn 0.5142 -0.4740 -0.7148
vn -0.4610 -0.5157 -0.7222
vn -0.8783 -0.4781 -0.0000
vn -0.4678 -0.4976 0.7305
vn -0.2370 -0.9715 -0.0000
vn -0.0587 0.9983 -0.0000
vn 0.5274 0.1748 0.8314
vn 0.5447 0.1729 -0.8206
vn -0.5567 -0.0920 -0.8256
vn -0.5475 -0.0930 0.8316
vn 0.4664 0.4656 0.7521
vn 0.9141 0.4054 -0.0000
vn 0.4616 0.4782 -0.7471
vn -0.5226 0.5114 -0.6822
vn -0.8783 0.4781 -0.0000
vn -0.5263 0.4975 0.6896
vn -0.5274 0.1748 -0.8314
vn -0.5447 0.1729 0.8206
vn 0.5567 -0.0920 0.8256
vn 0.5475 -0.0930 -0.8316
vn -0.4664 0.4656 -0.7521
vn -0.9141 0.4054 -0.0000
vn -0.4616 0.4782 0.7471
vn 0.5226 0.5114 0.6822
vn 0.8783 0.4781 -0.0000
vn 0.5263 0.4975 -0.6896
vt 0.000000 0.723810
vt 0.435449 0.615712
vt -0.166324 0.615712
vt 0.740836 0.323702
vt 0.870901 0.380533
vt -0.000000 0.200000
vt 0.166324 0.100001
vt 0.538247 0.200000
vt 0.166324 0.299999
vt 0.000000 -0.723810
vt -0.166324 -0.615712
vt 0.435449 -0.615712
vt 0.973702 -0.000000
vt -0.282969 0.323702
vt 0.269128 0.380534
vt 0.000000 -0.000000
vt -0.915722 0.323699
vt -0.704575 0.380533
vt -0.973702 -0.000000
vt -0.282969 -0.323702
vt -0.704575 -0.380533
vt -0.601780 0.000000
vt 0.740836 -0.323702
vt 0.269128 -0.380534
vt 0.601780 0.000000
vt -0.323699 0.200000
vt 0.000000 0.138197
vt 0.000000 0.261803
vt 0.282969 -0.323702
vt 0.704575 -0.380533
vt 0.166324 -0.615712
vt -0.740836 -0.323702
vt -0.269128 -0.380534
vt -0.435449 -0.615712
vt -0.740836 0.323702
vt -0.870901 0.380533
vt -0.435449 0.615712
vt 0.282969 0.323702
vt -0.269128 0.380534
vt 0.166324 0.615712
vt 0.915722 0.323699
vt 0.704575 0.380533
vt 0.538247 0.615710
vt 0.166324 0.299999
vt -0.435449 0.261802
vt -0.435449 0.138198
vt -0.870901 0.200000
vt -0.870901 -0.380533
vt 0.166324 0.100001
vt 0.538247 -0.615710
vt 0.915722 -0.323699
vt 0.380533 0.200000
vt -0.915722 -0.323699
vt 0.870901 -0.380533
vt -0.538247 -0.615710
vt -0.538247 0.615710
vt 0.000000 0.285714
vt 0.147619 0.466667
vt 0.000000 0.466667
vt 0.404145 0.233333
vt 0.147619 0.255684
vt 0.233333 0.404145
vt -0.233333 0.285714
vt -0.000000 0.466667
vt -0.147619 0.466667
vt 0.233333 0.285714
vt -0.000000 0.285714
vt 0.233333 -0.404145
vt 0.255684 -0.147619
vt 0.404145 -0.233333
vt -0.000000 0.285714
vt -0.000000 0.466667
vt -0.404145 -0.233333
vt -0.147619 -0.255684
vt -0.233333 -0.404145
vt -0.000000 0.466667
vt -0.000000 0.285714
vt -0.233333 0.404145
vt -0.255684 0.147619
vt -0.404145 0.233333
vt 0.000000 0.628571
vt -0.255684 0.466667
vt -0.138095 0.628571
vt -0.239188 0.628571
vt -0.000000 0.628571
vt 0.255684 0.466667
vt 0.138095 0.628571
vt -0.000000 0.628571
vt -0.000000 0.628571
vt 0.204762 0.809524
vt 0.000000 0.809524
vt 0.138095 -0.239188
vt 0.354658 -0.204762
vt 0.204762 -0.354658
vt -0.000000 0.809524
vt -0.204762 0.809524
vt 0.138095 0.239188
vt 0.354658 0.204762
vt 0.239188 0.138095
vt -0.000000 0.809524
vt -0.138095 0.239188
vt -0.354658 0.204762
vt -0.204762 0.354658
vt -0.000000 0.809524
vt -0.138095 -0.239188
vt -0.354658 -0.204762
vt -0.239188 -0.138095
vt -0.466667 0.000000
vt 0.409524 0.000000
vt -0.204762 -0.354658
vt -0.314286 0.714286
vt -0.319309 1.114385
vt -0.409524 1.104762
vt 0.071429 0.739693
vt -0.061905 1.114385
vt -0.071429 0.739693
vt 0.314286 0.714286
vt 0.319309 1.114385
vt 0.210117 0.739693
vt 0.418454 0.688879
vt 0.409524 1.104762
vt -0.071429 0.688879
vt 0.061905 1.095139
vt -0.061905 1.095139
vt -0.418454 0.688879
vt -0.499739 1.095139
vt 0.460462 1.432688
vt 0.390476 1.428571
vt 0.061905 1.114385
vt 0.047619 1.432688
vt -0.047619 1.432688
vt -0.390476 1.428571
vt -0.460462 1.432688
vt -0.320490 1.424455
vt 0.047619 1.424455
vt -0.047619 1.424455
vt 0.499739 1.095139
vt 0.320490 1.424455
vt -0.210117 -0.071429
vt -0.418454 0.071429
vt -0.210117 0.071429
vt -0.320490 0.047619
vt -0.320490 -0.047619
vt -0.460462 -0.047619
vt 0.210117 0.071429
vt 0.418454 -0.071429
vt 0.210117 -0.071429
vt 0.320490 -0.047619
vt 0.320490 0.047619
vt 0.460462 0.047619
vt 0.255684 0.147619
vt 0.147619 -0.255684
vt -0.255684 -0.147619
vt -0.147619 0.255684
vt 0.239188 0.628571
vt 0.239188 -0.138095
vt 0.204762 0.354658
vt -0.239188 0.138095
vt 0.000000 -0.466667
vt 0.000000 0.466667
vt 0.466667 -0.000000
vt 0.000000 0.409524
vt 0.000000 -0.409524
vt -0.409524 -0.000000
vt -0.210117 0.739693
vt 0.071429 0.688879
vt -0.314286 -0.142857
vt -0.418454 -0.071429
vt -0.314286 0.142857
vt -0.390476 -0.095238
vt -0.460462 0.047619
vt -0.390476 0.095238
vt 0.314286 0.142857
vt 0.418454 0.071429
vt 0.314286 -0.142857
vt 0.390476 0.095238
vt 0.460462 -0.047619
vt 0.390476 -0.095238
s 0
f 130/136/91 143/137/91 142/138/91
f 131/139/92 143/137/92 145/140/92
f 130/141/93 142/142/93 147/143/93
f 130/141/94 147/143/94 149/144/94
f 130/145/95 149/146/95 146/147/95
f 131/139/96 145/140/96 152/148/96
f 132/149/97 144/150/97 154/151/97
f 133/152/98 148/153/98 156/154/98
f 134/155/99 150/156/99 158/157/99
f 135/158/100 151/159/100 160/160/100
f 131/139/101 152/148/101 155/160/101
f 132/149/102 154/151/102 157/157/102
f 133/161/103 156/162/103 159/163/103
f 134/155/104 158/157/104 161/151/104
f 135/158/105 160/160/105 153/148/105
f 136/164/106 162/165/106 167/166/106
f 137/167/107 163/168/107 169/169/107
f 138/170/108 164/171/108 170/172/108
f 139/173/109 165/174/109 171/175/109
f 140/176/110 166/177/110 168/178/110
f 168/143/111 171/179/111 141/141/111
f 168/178/112 166/177/112 171/175/112
f 166/177/113 139/173/113 171/175/113
f 171/175/114 170/172/114 141/136/114
f 171/175/115 165/174/115 170/172/115
f 165/174/116 138/170/116 170/172/116
f 170/180/117 169/181/117 141/141/117
f 170/180/118 164/182/118 169/181/118
f 164/183/119 137/167/119 169/169/119
f 169/169/120 167/166/120 141/145/120
f 169/169/121 163/168/121 167/166/121
f 163/168/122 136/164/122 167/166/122
f 167/184/123 168/143/123 141/141/123
f 167/166/124 162/165/124 168/185/124
f 162/165/125 140/186/125 168/185/125
f 153/148/126 166/177/126 140/176/126
f 153/148/127 160/160/127 166/177/127
f 160/160/128 139/173/128 166/177/128
f 161/151/129 165/174/129 139/173/129
f 161/151/130 158/157/130 165/174/130
f 158/157/131 138/170/131 165/174/131
f 159/154/132 164/171/132 138/170/132
f 159/163/133 156/162/133 164/187/133
f 156/154/134 137/167/134 164/183/134
f 157/157/135 163/168/135 137/167/135
f 157/157/136 154/151/136 163/168/136
f 154/151/137 136/164/137 163/168/137
f 155/160/138 162/165/138 136/164/138
f 155/160/139 152/148/139 162/165/139
f 152/148/140 140/186/140 162/165/140
f 160/160/141 161/151/141 139/173/141
f 160/160/142 151/159/142 161/151/142
f 151/159/143 134/155/143 161/151/143
f 158/157/144 159/154/144 138/170/144
f 158/157/145 150/156/145 159/154/145
f 150/156/146 133/188/146 159/154/146
f 156/154/147 157/157/147 137/167/147
f 156/154/148 148/153/148 157/157/148
f 148/153/149 132/149/149 157/157/149
f 154/151/150 155/160/150 136/164/150
f 154/151/151 144/150/151 155/160/151
f 144/150/152 131/139/152 155/160/152
f 152/162/153 153/163/153 140/161/153
f 152/162/154 145/187/154 153/163/154
f 145/189/155 135/158/155 153/148/155
f 146/147/156 151/159/156 135/158/156
f 146/147/157 149/146/157 151/159/157
f 149/146/158 134/155/158 151/159/158
f 149/146/159 150/156/159 134/155/159
f 149/146/160 147/190/160 150/156/160
f 147/190/161 133/188/161 150/156/161
f 147/191/162 148/153/162 133/152/162
f 147/191/163 142/138/163 148/153/163
f 142/138/164 132/149/164 148/153/164
f 145/189/165 146/147/165 135/158/165
f 145/182/166 143/181/166 146/180/166
f 143/181/167 130/141/167 146/180/167
f 142/138/168 144/150/168 132/149/168
f 142/138/169 143/137/169 144/150/169
f 143/137/170 131/139/170 144/150/170
f 172/192/171 185/193/171 184/194/171
f 174/195/172 185/196/172 173/197/172
f 174/198/173 187/199/173 186/200/173
f 176/201/174 187/199/174 175/202/174
f 177/203/175 188/204/175 176/205/175
f 178/206/176 189/200/176 177/198/176
f 178/206/177 191/193/177 190/207/177
f 180/208/178 191/209/178 179/210/178
f 180/198/179 193/211/179 192/200/179
f 182/201/180 193/211/180 181/212/180
f 183/213/181 194/214/181 182/215/181
f 172/192/182 195/200/182 183/198/182
f 185/193/183 196/216/183 184/194/183
f 185/217/184 198/218/184 197/219/184
f 186/200/185 199/220/185 198/218/185
f 188/193/186 199/220/186 187/199/186
f 189/221/187 200/222/187 188/193/187
f 190/207/188 201/218/188 189/200/188
f 191/193/189 202/223/189 190/207/189
f 191/217/190 204/218/190 203/219/190
f 192/200/191 205/224/191 204/218/191
f 194/193/192 205/224/192 193/211/192
f 195/221/193 206/222/193 194/193/193
f 184/194/194 207/218/194 195/200/194
f 196/216/195 209/225/195 208/226/195
f 197/227/196 210/228/196 209/229/196
f 198/218/197 211/230/197 210/231/197
f 200/222/198 211/230/198 199/220/198
f 201/232/199 212/233/199 200/234/199
f 202/223/200 213/231/200 201/218/200
f 202/223/201 215/225/201 214/235/201
f 203/236/202 216/237/202 215/238/202
f 204/218/203 217/239/203 216/231/203
f 206/222/204 217/239/204 205/224/204
f 207/240/205 218/241/205 206/242/205
f 196/216/206 219/231/206 207/218/206
f 181/243/207 177/197/207 173/203/207
f 211/244/208 215/245/208 219/238/208
f 220/246/209 227/247/209 226/248/209
f 222/249/210 227/250/210 221/251/210
f 223/252/211 228/253/211 222/254/211
f 224/255/212 229/256/212 223/252/212
f 224/257/213 231/258/213 230/259/213
f 225/260/214 226/248/214 231/261/214
f 226/256/215 233/262/215 232/263/215
f 227/264/216 234/265/216 233/266/216
f 228/247/217 235/267/217 234/268/217
f 229/248/218 236/269/218 235/267/218
f 230/258/219 237/270/219 236/271/219
f 231/272/220 232/263/220 237/273/220
f 221/274/221 224/275/221 222/276/221
f 236/277/222 237/278/222 233/279/222
f 238/246/223 245/247/223 244/248/223
f 240/249/224 245/250/224 239/251/224
f 241/252/225 246/253/225 240/254/225
f 242/255/226 247/256/226 241/252/226
f 242/257/227 249/258/227 248/259/227
f 243/260/228 244/248/228 249/261/228
f 244/256/229 251/262/229 250/263/229
f 245/264/230 252/265/230 251/266/230
f 246/247/231 253/267/231 252/268/231
f 247/248/232 254/269/232 253/267/232
f 248/258/233 255/270/233 254/271/233
f 249/272/234 250/263/234 255/273/234
f 239/280/235 242/281/235 240/282/235
f 254/283/236 255/284/236 251/285/236
f 172/192/171 173/201/171 185/193/171
f 174/195/172 186/286/172 185/196/172
f 174/198/173 175/202/173 187/199/173
f 176/201/174 188/193/174 187/199/174
f 177/203/175 189/287/175 188/204/175
f 178/206/176 190/207/176 189/200/176
f 178/206/177 179/201/177 191/193/177
f 180/208/178 192/288/178 191/209/178
f 180/198/179 181/212/179 193/211/179
f 182/201/180 194/193/180 193/211/180
f 183/213/181 195/289/181 194/214/181
f 172/192/182 184/194/182 195/200/182
f 185/193/183 197/222/183 196/216/183
f 185/217/184 186/200/184 198/218/184
f 186/200/185 187/199/185 199/220/185
f 188/193/186 200/222/186 199/220/186
f 189/221/187 201/290/187 200/222/187
f 190/207/188 202/223/188 201/218/188
f 191/193/189 203/222/189 202/223/189
f 191/217/190 192/200/190 204/218/190
f 192/200/191 193/211/191 205/224/191
f 194/193/192 206/222/192 205/224/192
f 195/221/193 207/290/193 206/222/193
f 184/194/194 196/216/194 207/218/194
f 196/216/195 197/222/195 209/225/195
f 197/227/196 198/291/196 210/228/196
f 198/218/197 199/220/197 211/230/197
f 200/222/198 212/225/198 211/230/198
f 201/232/199 213/292/199 212/233/199
f 202/223/200 214/235/200 213/231/200
f 202/223/201 203/222/201 215/225/201
f 203/236/202 204/293/202 216/237/202
f 204/218/203 205/224/203 217/239/203
f 206/222/204 218/225/204 217/239/204
f 207/240/205 219/245/205 218/241/205
f 196/216/206 208/226/206 219/231/206
f 173/203/207 172/294/207 183/210/207
f 183/210/207 182/208/207 181/243/207
f 181/243/207 180/215/207 179/213/207
f 179/213/207 178/295/207 177/197/207
f 177/197/207 176/195/207 175/296/207
f 175/296/207 174/205/207 173/203/207
f 173/203/207 183/210/207 181/243/207
f 181/243/207 179/213/207 177/197/207
f 177/197/207 175/296/207 173/203/207
f 219/238/208 208/297/208 209/292/208
f 209/292/208 210/233/208 219/238/208
f 210/233/208 211/244/208 219/238/208
f 211/244/208 212/228/208 215/245/208
f 212/228/208 213/229/208 215/245/208
f 213/229/208 214/298/208 215/245/208
f 215/245/208 216/241/208 217/299/208
f 217/299/208 218/237/208 219/238/208
f 215/245/208 217/299/208 219/238/208
f 220/246/237 221/300/237 227/247/237
f 222/249/210 228/264/210 227/250/210
f 223/252/238 229/256/238 228/253/238
f 224/255/239 230/272/239 229/256/239
f 224/257/213 225/301/213 231/258/213
f 225/260/240 220/246/240 226/248/240
f 226/248/241 227/247/241 233/268/241
f 227/250/242 228/264/242 234/266/242
f 228/253/243 229/256/243 235/263/243
f 229/256/244 230/272/244 236/273/244
f 230/259/245 231/258/245 237/271/245
f 231/261/246 226/248/246 232/267/246
f 221/274/221 220/302/221 225/303/221
f 225/303/221 224/275/221 221/274/221
f 224/275/221 223/304/221 222/276/221
f 237/278/222 232/305/222 233/279/222
f 233/279/222 234/306/222 236/277/222
f 234/306/222 235/307/222 236/277/222
f 238/246/247 239/300/247 245/247/247
f 240/249/224 246/264/224 245/250/224
f 241/252/248 247/256/248 246/253/248
f 242/255/249 248/272/249 247/256/249
f 242/257/227 243/301/227 249/258/227
f 243/260/250 238/246/250 244/248/250
f 244/248/251 245/247/251 251/268/251
f 245/250/252 246/264/252 252/266/252
f 246/253/253 247/256/253 253/263/253
f 247/256/254 248/272/254 254/273/254
f 248/259/255 249/258/255 255/271/255
f 249/261/256 244/248/256 250/267/256
f 239/280/235 238/308/235 243/309/235
f 243/309/235 242/281/235 239/280/235
f 242/281/235 241/310/235 240/282/235
f 255/284/236 250/311/236 251/285/236
f 251/285/236 252/312/236 254/283/236
f 252/312/236 253/313/236 254/283/236
