# Blender 5.0.1
# www.blender.org
o bush_b
v -0.017755 0.364928 -0.795200
v 0.427434 0.198295 -0.326688
v -0.232902 0.023791 -0.385341
v -0.602644 0.364928 -0.340593
v -0.235180 0.709677 -0.388303
v 0.498899 0.558311 -0.362185
v -0.492738 0.187143 0.130355
v -0.564203 0.569463 0.165851
v 0.220247 0.742303 0.203928
v 0.611158 0.364928 0.147150
v -0.017755 0.364928 0.532985
v -0.148719 0.157272 -0.656681
v 0.292693 0.248728 -0.604558
v 0.183986 0.045059 -0.429828
v 0.555912 0.364928 -0.390503
v 0.332401 0.495991 -0.668383
v -0.406473 0.364928 -0.611036
v -0.429260 0.210901 -0.358208
v -0.165190 0.598700 -0.725990
v -0.499032 0.545071 -0.401044
v 0.190203 0.694654 -0.439819
v 0.574479 0.265794 -0.105566
v 0.663271 0.478926 -0.105566
v 0.340565 0.110848 -0.105566
v -0.610043 0.265785 -0.105566
v -0.382086 0.106586 -0.105566
v -0.395984 0.633126 -0.105566
v -0.698835 0.478935 -0.105566
v 0.354463 0.628864 -0.105566
v -0.017755 0.765724 -0.105566
v 0.446172 0.191280 0.179260
v -0.233866 0.022275 0.241792
v -0.622876 0.364928 0.194993
v -0.240083 0.717438 0.251784
v 0.515944 0.564692 0.222096
v 0.107953 0.165605 0.423431
v 0.331996 0.364928 0.349231
v -0.282786 0.265728 0.320425
v -0.322494 0.478992 0.384250
v 0.124424 0.590367 0.492741
v 0.428948 0.403086 -0.582723
v 0.662906 0.319733 -0.261185
v 0.314934 0.231013 -0.308494
v 0.178609 0.403086 -0.238146
v 0.314730 0.575467 -0.308886
v 0.669320 0.488723 -0.265887
v 0.542243 0.232098 0.127730
v 0.136865 0.299025 0.124407
v 0.130452 0.509431 0.129108
v 0.542448 0.574382 0.128122
v 0.762081 0.403086 0.107859
v 0.428948 0.403086 0.313650
v 0.356303 0.293447 -0.540838
v 0.569235 0.353105 -0.422461
v 0.521974 0.262693 -0.310354
v 0.695378 0.403086 -0.284987
v 0.572799 0.454335 -0.430914
v 0.228777 0.403086 -0.473825
v 0.186354 0.316656 -0.309494
v 0.354825 0.514954 -0.550018
v 0.180093 0.491746 -0.315167
v 0.522532 0.544320 -0.311677
v 0.823135 0.340280 -0.089692
v 0.831103 0.467160 -0.089692
v 0.428948 0.180610 -0.089692
v 0.665866 0.243181 -0.089692
v 0.070644 0.345998 -0.089692
v 0.174780 0.231539 -0.089692
v 0.173533 0.575474 -0.089692
v 0.062675 0.461443 -0.089692
v 0.667114 0.563832 -0.089692
v 0.428948 0.623534 -0.089692
v 0.667689 0.318029 0.126618
v 0.316130 0.232824 0.177916
v 0.144658 0.403086 0.118695
v 0.315572 0.574189 0.179239
v 0.673951 0.490373 0.132292
v 0.482727 0.321921 0.244286
v 0.577493 0.403086 0.195368
v 0.278100 0.349343 0.268127
v 0.274537 0.458098 0.276580
v 0.484205 0.486480 0.253466
v 0.254127 0.346087 -0.104734
v 0.627743 0.219118 0.077755
v 0.127575 0.163900 0.100238
v -0.158295 0.346087 0.099000
v 0.128606 0.526789 0.101673
v 0.595406 0.462066 0.094946
v 0.386890 0.154959 0.461159
v -0.174352 0.200474 0.504164
v -0.142015 0.480711 0.486973
v 0.385860 0.535731 0.459725
v 0.749818 0.346087 0.489566
v 0.254127 0.346087 0.587278
v 0.171186 0.226684 -0.097192
v 0.478524 0.269828 -0.109665
v 0.370756 0.178192 0.075735
v 0.670966 0.346087 0.054777
v 0.460556 0.416239 -0.078754
v -0.034978 0.346087 -0.125995
v -0.120066 0.218921 0.030488
v 0.178639 0.454761 -0.063625
v -0.088495 0.462524 0.051234
v 0.367943 0.509933 0.080574
v 0.753062 0.270259 0.276376
v 0.712885 0.415809 0.276376
v 0.254127 0.144169 0.276376
v 0.569681 0.142932 0.276376
v -0.211314 0.275349 0.276376
v -0.081911 0.129744 0.276376
v -0.075622 0.558380 0.276376
v -0.171137 0.410718 0.276376
v 0.563392 0.545193 0.276376
v 0.254127 0.557755 0.276376
v 0.649565 0.211701 0.536225
v 0.113616 0.143812 0.518103
v -0.185911 0.346087 0.510309
v 0.116428 0.544313 0.513264
v 0.617994 0.469744 0.515479
v 0.320599 0.250392 0.575769
v 0.482809 0.346087 0.594651
v 0.039796 0.273249 0.645101
v 0.057764 0.412818 0.614190
v 0.313147 0.431052 0.542202
v -0.341796 0.391992 -0.198353
v -0.033072 0.285077 -0.034290
v -0.462582 0.214795 -0.038689
v -0.702744 0.391992 -0.024490
v -0.463102 0.569952 -0.039488
v -0.016743 0.504561 -0.043865
v -0.223026 0.217751 0.329065
v -0.582395 0.308670 0.287813
v -0.598724 0.480968 0.297388
v -0.222505 0.566995 0.329865
v -0.069382 0.391992 0.275962
v -0.341796 0.391992 0.575368
v -0.397433 0.310371 -0.129657
v -0.179353 0.335736 -0.161503
v -0.223445 0.218373 -0.077835
v -0.032588 0.391992 -0.034574
v -0.170280 0.451389 -0.178719
v -0.507442 0.391992 -0.107548
v -0.589850 0.306087 -0.033051
v -0.401196 0.479133 -0.148353
v -0.605792 0.483417 -0.044605
v -0.222025 0.567694 -0.080530
v 0.034672 0.333686 0.146735
v 0.054960 0.453439 0.146735
v -0.341796 0.160253 0.146735
v -0.073957 0.216271 0.146735
v -0.747007 0.329235 0.146735
v -0.599539 0.222895 0.146735
v -0.602715 0.563171 0.146735
v -0.767296 0.457890 0.146735
v -0.070781 0.569795 0.146735
v -0.341796 0.618713 0.146735
v -0.083397 0.302505 0.334019
v -0.443602 0.242644 0.339910
v -0.625142 0.391992 0.312878
v -0.445023 0.543422 0.342605
v -0.067455 0.486999 0.345574
v -0.264864 0.279129 0.528923
v -0.128312 0.391992 0.474456
v -0.492514 0.339797 0.432723
v -0.501587 0.447329 0.449939
v -0.261101 0.510375 0.547618
v -0.232294 0.368447 -0.709553
v 0.233393 0.190461 -0.617371
v -0.392939 0.108351 -0.593895
v -0.794567 0.368447 -0.611749
v -0.394100 0.630423 -0.595478
v 0.269839 0.560362 -0.636340
v -0.087179 0.133495 -0.177262
v -0.602021 0.227137 -0.182569
v -0.638466 0.523686 -0.163600
v -0.086018 0.605279 -0.175679
v 0.216776 0.368447 -0.185913
v -0.232294 0.368447 0.071901
v -0.298880 0.260638 -0.668612
v -0.010894 0.283827 -0.747892
v -0.078119 0.118835 -0.634664
v 0.280379 0.368447 -0.641825
v 0.009357 0.460806 -0.781998
v -0.494396 0.368447 -0.732133
v -0.631215 0.215978 -0.631635
v -0.307280 0.489854 -0.705649
v -0.666797 0.534515 -0.654526
v -0.074949 0.623190 -0.640004
v 0.247221 0.286486 -0.374998
v 0.292503 0.458147 -0.374998
v -0.232294 0.100561 -0.374998
v 0.105554 0.123825 -0.374998
v -0.725692 0.284113 -0.374998
v -0.571543 0.122811 -0.374998
v -0.578631 0.619215 -0.374998
v -0.770974 0.460520 -0.374998
v 0.112642 0.618201 -0.374998
v -0.232294 0.623973 -0.374998
v 0.167170 0.215770 -0.118012
v -0.370930 0.143993 -0.141503
v -0.692330 0.368447 -0.135566
v -0.374100 0.598032 -0.136164
v 0.202751 0.534722 -0.095122
v -0.138692 0.216899 0.037739
v 0.084231 0.368447 0.056292
v -0.459002 0.281799 0.006836
v -0.479253 0.462834 0.040942
v -0.130293 0.533594 0.074777
v 0.087784 0.387221 -1.013119
v 0.452910 0.242243 -0.708231
v -0.051211 0.153427 -0.707579
v -0.371652 0.387221 -0.711720
v -0.051107 0.620839 -0.707434
v 0.449641 0.530900 -0.706493
v 0.213063 0.176497 -0.339745
v -0.309924 0.229306 -0.302681
v -0.306655 0.543837 -0.304419
v 0.212959 0.597768 -0.339890
v 0.631072 0.387221 -0.280449
v 0.087784 0.387221 -0.053029
v -0.000342 0.238990 -0.911052
v 0.304688 0.301096 -0.887279
v 0.186634 0.220957 -0.684178
v 0.569727 0.387221 -0.770335
v 0.302872 0.472624 -0.884154
v -0.246561 0.387221 -0.979467
v -0.254764 0.251207 -0.739218
v 0.000411 0.534184 -0.907659
v -0.251573 0.521967 -0.737121
v 0.186350 0.553005 -0.683688
v 0.715932 0.275680 -0.514117
v 0.711871 0.498040 -0.514117
v 0.087784 0.103201 -0.514117
v 0.378608 0.168459 -0.514117
v -0.460934 0.289784 -0.514117
v -0.257416 0.127556 -0.514117
v -0.256781 0.646407 -0.514117
v -0.456873 0.483936 -0.514117
v 0.377973 0.605504 -0.514117
v 0.087784 0.672392 -0.514117
v 0.452007 0.242600 -0.274772
v -0.051335 0.153227 -0.274779
v -0.381683 0.387221 -0.264531
v -0.051051 0.620736 -0.275268
v 0.448816 0.530574 -0.276869
v 0.161583 0.263089 -0.181716
v 0.337770 0.387221 -0.166180
v -0.139654 0.296914 -0.122832
v -0.137837 0.476806 -0.125957
v 0.160829 0.510085 -0.185109
v -0.171522 0.000000 -0.305523
v 0.227019 0.000000 0.178338
v 0.228044 0.000000 0.200007
v 0.212397 0.000000 0.212233
v 0.089651 0.000000 0.212560
v -0.148419 0.000000 -0.105566
v -0.175072 0.000000 0.147292
v 0.107540 0.000000 -0.105566
v 0.097132 0.000000 -0.290226
v 0.180723 0.562326 -0.219121
v 0.235273 0.545970 0.013759
v 0.391271 0.793643 -0.034610
v 0.360385 0.802903 -0.166462
v 0.180723 0.562326 -0.219121
v 0.235273 0.545970 0.013759
v 0.391271 0.793643 -0.034610
v 0.360385 0.802903 -0.166462
v 0.409876 0.341544 -0.023095
v 0.272057 0.379556 0.152125
v 0.914323 0.556278 0.404534
v 0.992434 0.534734 0.305224
v 0.409876 0.341544 -0.023095
v 0.272057 0.379556 0.152125
v 0.914323 0.556278 0.404534
v 0.992434 0.534734 0.305224
v 0.399721 0.347975 0.138554
v 0.202683 0.377609 0.260500
v 0.638607 0.595647 0.592184
v 0.727367 0.582297 0.537251
v 0.399721 0.347975 0.138554
v 0.202683 0.377609 0.260500
v 0.638607 0.595647 0.592184
v 0.727367 0.582297 0.537251
v 0.145902 0.534761 -0.064898
v -0.037267 0.469301 0.121766
v 0.161948 0.750751 0.367076
v 0.258206 0.785152 0.268981
v 0.145902 0.534761 -0.064898
v -0.037267 0.469301 0.121766
v 0.161948 0.750751 0.367076
v 0.258206 0.785152 0.268981
v 0.093456 0.448418 0.279623
v -0.109445 0.364286 0.323945
v -0.054367 0.518971 0.843516
v 0.063721 0.567936 0.817721
v 0.093456 0.448418 0.279623
v -0.109445 0.364286 0.323945
v -0.054367 0.518971 0.843516
v 0.063721 0.567936 0.817721
v 0.005027 0.510382 0.294565
v -0.240615 0.522970 0.239003
v -0.296384 0.627948 0.713654
v -0.186031 0.622293 0.738614
v 0.005027 0.510382 0.294565
v -0.240615 0.522970 0.239003
v -0.296384 0.627948 0.713654
v -0.186031 0.622293 0.738614
v -0.020031 0.616865 0.128746
v -0.256102 0.611840 0.023327
v -0.339701 0.894570 0.246296
v -0.202589 0.897488 0.307525
v -0.020031 0.616865 0.128746
v -0.256102 0.611840 0.023327
v -0.339701 0.894570 0.246296
v -0.202589 0.897488 0.307525
v -0.212263 0.453130 0.195449
v -0.373595 0.457554 0.042327
v -0.835901 0.616528 0.496221
v -0.761606 0.614491 0.566735
v -0.212263 0.453130 0.195449
v -0.373595 0.457554 0.042327
v -0.835901 0.616528 0.496221
v -0.761606 0.614491 0.566735
v -0.319441 0.513906 0.094586
v -0.413180 0.453820 -0.068318
v -1.061278 0.558956 0.192229
v -1.005874 0.594470 0.288511
v -0.319441 0.513906 0.094586
v -0.413180 0.453820 -0.068318
v -1.061278 0.558956 0.192229
v -1.005874 0.594470 0.288511
v -0.235763 0.532315 0.017254
v -0.178796 0.575706 -0.185385
v -0.511531 0.822402 -0.091731
v -0.536029 0.803742 -0.004588
v -0.235763 0.532315 0.017254
v -0.178796 0.575706 -0.185385
v -0.511531 0.822402 -0.091731
v -0.536029 0.803742 -0.004588
v -0.496097 0.396212 -0.067705
v -0.423890 0.455029 -0.282815
v -1.065734 0.561789 -0.336328
v -1.107566 0.527714 -0.211707
v -0.496097 0.396212 -0.067705
v -0.423890 0.455029 -0.282815
v -1.065734 0.561789 -0.336328
v -1.107566 0.527714 -0.211707
v -0.434213 0.246644 -0.421918
v -0.184503 0.342311 -0.485501
v -0.541533 0.513318 -0.832046
v -0.681183 0.459816 -0.796488
v -0.434213 0.246644 -0.421918
v -0.184503 0.342311 -0.485501
v -0.541533 0.513318 -0.832046
v -0.681183 0.459816 -0.796488
v -0.261207 0.657880 -0.195948
v -0.106782 0.639200 -0.366728
v -0.305078 0.939997 -0.498806
v -0.387770 0.950000 -0.407356
v -0.261207 0.657880 -0.195948
v -0.106782 0.639200 -0.366728
v -0.305078 0.939997 -0.498806
v -0.387770 0.950000 -0.407356
v -0.214129 0.319157 -0.423474
v 0.002390 0.374186 -0.443635
v -0.221743 0.500813 -1.046544
v -0.316973 0.476610 -1.037676
v -0.214129 0.319157 -0.423474
v 0.002390 0.374186 -0.443635
v -0.221743 0.500813 -1.046544
v -0.316973 0.476610 -1.037676
v -0.013654 0.352627 -0.506131
v 0.253239 0.310496 -0.464436
v 0.395242 0.545375 -1.033784
v 0.249939 0.568312 -1.056484
v -0.013654 0.352627 -0.506131
v 0.253239 0.310496 -0.464436
v 0.395242 0.545375 -1.033784
v 0.249939 0.568312 -1.056484
v -0.008647 0.583344 -0.273227
v 0.216146 0.537988 -0.194862
v 0.377337 0.767406 -0.436252
v 0.253469 0.792398 -0.479434
v -0.008647 0.583344 -0.273227
v 0.216146 0.537988 -0.194862
v 0.377337 0.767406 -0.436252
v 0.253469 0.792398 -0.479434
v 0.352893 0.514010 -0.425506
v 0.501978 0.483988 -0.229471
v 0.849924 0.599881 -0.482444
v 0.788549 0.612240 -0.563147
v 0.352893 0.514010 -0.425506
v 0.501978 0.483988 -0.229471
v 0.849924 0.599881 -0.482444
v 0.788549 0.612240 -0.563147
v 0.385648 0.317195 -0.328613
v 0.429255 0.393183 -0.114241
v 0.970092 0.474746 -0.312421
v 0.946072 0.432889 -0.430505
v 0.385648 0.317195 -0.328613
v 0.429255 0.393183 -0.114241
v 0.970092 0.474746 -0.312421
v 0.946072 0.432889 -0.430505
vn 0.2189 -0.6332 -0.7424
vn 0.6314 -0.6492 -0.4240
vn -0.4062 -0.3158 -0.8575
vn -0.4282 -0.0025 -0.9037
vn 0.1840 0.3839 -0.9048
vn 0.7086 -0.6508 -0.2726
vn -0.0000 -1.0000 -0.0000
vn -0.6483 -0.6940 -0.3132
vn -0.5256 0.8479 -0.0694
vn 0.4084 0.9126 -0.0211
vn 0.5488 -0.8284 -0.1120
vn -0.9067 -0.3777 -0.1879
vn -0.3301 0.9416 0.0672
vn 0.4368 0.8996 -0.0015
vn 0.5241 -0.5249 0.6707
vn -0.5510 -0.3547 0.7553
vn -0.5853 0.2765 0.7623
vn 0.0006 0.8849 0.4657
vn 0.5862 -0.0244 0.8098
vn 0.4609 -0.1341 0.8773
vn 0.5686 -0.0001 0.8226
vn 0.4134 0.7422 0.5276
vn -0.3023 0.3490 0.8870
vn -0.3234 0.5425 0.7753
vn -0.4389 0.5475 0.7125
vn -0.5112 -0.3324 0.7926
vn -0.4100 -0.3307 0.8500
vn -0.4255 -0.5677 0.7047
vn -0.3444 -0.6096 0.7140
vn -0.3215 -0.3489 0.8803
vn 0.4567 -0.1897 0.8692
vn 0.5644 -0.3573 0.7442
vn 0.5431 -0.3772 0.7502
vn 0.8957 0.3059 0.3227
vn 0.4364 0.8989 -0.0390
vn 0.5169 0.8515 -0.0880
vn -0.0424 0.9933 0.1078
vn -0.3298 0.9408 -0.0781
vn -0.4067 0.9128 -0.0379
vn -0.8900 0.3038 0.3401
vn -0.9196 -0.3831 0.0871
vn -0.7639 -0.6219 0.1725
vn -0.5460 -0.8372 0.0298
vn -0.0493 -0.9786 0.2000
vn 0.5520 -0.8333 0.0307
vn 0.7304 -0.6653 0.1550
vn 0.3388 0.9213 -0.1908
vn 0.3451 0.9385 0.0151
vn 0.0101 0.9793 -0.2019
vn -0.4525 0.8888 -0.0720
vn -0.4511 0.8861 -0.1067
vn -0.8186 0.3082 -0.4846
vn -0.5725 -0.8198 0.0114
vn -0.5578 -0.7987 -0.2256
vn -0.6924 -0.7033 -0.1611
vn 0.4227 -0.8886 -0.1779
vn 0.4294 -0.9028 -0.0242
vn 0.5611 -0.8212 -0.1043
vn 0.9230 -0.3845 0.0169
vn 0.9062 -0.3775 -0.1904
vn 0.8408 0.3126 -0.4419
vn 0.4528 0.7930 -0.4076
vn 0.2293 0.8008 -0.5533
vn -0.0044 0.9497 -0.3130
vn -0.4807 0.7986 -0.3621
vn -0.6744 0.3867 -0.6290
vn -0.7818 0.2594 -0.5671
vn -0.6186 -0.6450 -0.4487
vn -0.6066 -0.6535 -0.4528
vn -0.6357 -0.5961 -0.4905
vn 0.8068 0.3114 -0.5021
vn 0.6773 -0.2840 -0.6787
vn 0.4199 -0.2895 -0.8602
vn -0.0014 -0.8971 -0.4418
vn 0.2251 -0.7008 -0.6769
vn 0.6041 -0.6796 -0.4163
vn 0.5137 -0.5814 -0.6310
vn 0.7367 -0.4349 -0.5179
vn -0.4778 -0.0189 -0.8783
vn -0.4770 -0.0597 -0.8769
vn 0.5146 0.5365 -0.6688
vn 0.6837 -0.4339 -0.5868
vn 0.1421 -0.9458 -0.2919
vn -0.8207 0.3182 -0.4745
vn -0.4903 0.8123 -0.3159
vn 0.4254 0.8344 -0.3504
vn 0.4896 -0.7930 -0.3625
vn -0.1950 -0.9731 -0.1226
vn -0.7973 -0.0550 -0.6010
vn -0.1836 0.9759 -0.1183
vn 0.4777 0.8103 -0.3394
vn 0.4191 -0.6030 0.6787
vn -0.4268 -0.6366 0.6423
vn -0.7335 -0.1626 0.6600
vn 0.1369 0.7800 0.6106
vn 0.4216 0.1768 0.8894
vn 0.6159 0.1501 0.7734
vn 0.5380 0.0146 0.8428
vn 0.3975 0.6542 0.6435
vn 0.0112 0.5803 0.8144
vn -0.0026 0.6431 0.7658
vn -0.4030 0.6675 0.6261
vn -0.2606 -0.0833 0.9618
vn -0.7571 -0.0753 0.6490
vn -0.7261 0.0918 0.6814
vn 0.0017 -0.6490 0.7607
vn 0.0106 -0.6100 0.7923
vn 0.1416 -0.7478 0.6486
vn 0.6035 -0.2478 0.7579
vn 0.5315 -0.1147 0.8393
vn 0.4129 -0.2661 0.8710
vn 0.6927 0.5791 0.4299
vn 0.4903 0.8318 0.2602
vn 0.5148 0.8185 0.2550
vn 0.0438 0.9792 0.1981
vn -0.1840 0.9776 0.1018
vn -0.3714 0.9066 0.2005
vn -0.9333 -0.1563 0.3234
vn -0.9347 -0.0645 0.3496
vn -0.9460 0.0880 0.3119
vn -0.3937 -0.8944 0.2122
vn -0.1953 -0.9748 0.1078
vn 0.0432 -0.9770 0.2088
vn 0.5458 -0.7933 0.2699
vn 0.5046 -0.8172 0.2785
vn 0.6551 -0.6377 0.4052
vn 0.2421 0.9659 0.0918
vn 0.2362 0.9424 -0.2367
vn 0.1386 0.9498 -0.2805
vn -0.7153 0.6954 0.0691
vn -0.6905 0.6713 -0.2694
vn -0.7936 -0.3914 -0.4659
vn -0.7372 -0.6708 0.0809
vn -0.7086 -0.6447 -0.2870
vn -0.5211 -0.7863 -0.3319
vn 0.2542 -0.9624 0.0955
vn 0.2476 -0.9375 -0.2444
vn 0.4565 -0.8095 -0.3692
vn 0.9482 -0.0596 0.3120
vn 0.8280 -0.0520 -0.5584
vn 0.7105 0.3521 -0.6093
vn 0.4330 0.7978 -0.4195
vn 0.4460 0.7947 -0.4117
vn 0.1418 0.9654 -0.2187
vn -0.4960 0.8192 -0.2880
vn -0.7251 0.4820 -0.4918
vn -0.9651 -0.1623 -0.2054
vn -0.9746 0.0839 -0.2075
vn -0.7050 -0.5363 -0.4641
vn -0.5260 -0.7932 -0.3068
vn 0.7738 0.3528 -0.5261
vn 0.7489 -0.0813 -0.6576
vn 0.7371 -0.0820 -0.6708
vn 0.1451 -0.9617 -0.2326
vn 0.4582 -0.7763 -0.4329
vn 0.4635 -0.7750 -0.4296
vn -0.0351 -0.0387 -0.9986
vn 0.6849 -0.3489 -0.6397
vn 0.0729 -0.1132 -0.9909
vn 0.0674 0.3936 -0.9168
vn -0.0020 0.3526 -0.9358
vn 0.8281 -0.3597 -0.4299
vn 0.0438 -0.9889 -0.1422
vn -0.9399 -0.1080 -0.3240
vn -0.1815 0.9085 -0.3764
vn 0.2135 0.9019 -0.3755
vn 0.5642 -0.8125 -0.1467
vn 0.0425 -0.9891 -0.1413
vn -0.9446 0.2804 -0.1705
vn 0.0019 0.9844 -0.1758
vn 0.6376 0.7367 -0.2250
vn -0.0145 -0.7725 0.6348
vn -0.1769 -0.7389 0.6502
vn -0.4415 0.2911 0.8487
vn 0.1817 0.5276 0.8298
vn 0.3594 0.1918 0.9133
vn -0.0282 0.4837 0.8748
vn 0.0063 0.5343 0.8453
vn -0.0106 0.6234 0.7818
vn 0.2354 0.3228 0.9167
vn 0.1919 0.5423 0.8180
vn -0.2344 0.6555 0.7179
vn 0.1958 0.1880 0.9625
vn -0.4366 0.2477 0.8649
vn -0.5295 -0.0777 0.8447
vn 0.2434 0.0526 0.9685
vn 0.1303 -0.6555 0.7439
vn 0.1720 -0.7058 0.6872
vn -0.0319 -0.1412 0.9895
vn 0.0765 -0.3162 0.9456
vn 0.3658 0.0498 0.9294
vn 0.6915 0.7134 0.1135
vn 0.6518 0.7531 0.0888
vn 0.2085 0.9453 0.2507
vn 0.0485 0.9952 0.0847
vn 0.0019 0.9983 0.0578
vn -0.2557 0.9304 0.2625
vn -0.9490 0.3141 0.0268
vn -0.9585 0.2845 0.0181
vn -0.9876 -0.0840 0.1326
vn -0.1986 -0.9559 0.2162
vn 0.0429 -0.9988 0.0234
vn 0.0460 -0.9986 0.0253
vn 0.1487 -0.9663 0.2100
vn 0.5698 -0.8207 0.0420
vn 0.8173 -0.5388 0.2041
vn 0.0404 0.9951 0.0905
vn 0.0396 0.9757 -0.2153
vn 0.0503 0.9766 -0.2093
vn -0.8379 0.5420 -0.0643
vn -0.8259 0.5342 -0.1802
vn -0.8738 0.4331 -0.2211
vn -0.7440 -0.6612 -0.0966
vn -0.7417 -0.6592 -0.1240
vn -0.1179 -0.9393 -0.3223
vn -0.0039 -0.9981 0.0611
vn -0.0039 -0.9855 -0.1694
vn 0.1517 -0.9369 -0.3150
vn 0.9609 0.2652 -0.0797
vn 0.9315 0.2571 -0.2571
vn 0.7366 0.5927 -0.3258
vn 0.2129 0.8913 -0.4004
vn 0.0956 0.8813 -0.4627
vn 0.0303 0.9196 -0.3916
vn -0.1612 0.8860 -0.4349
vn -0.2274 0.7809 -0.5817
vn -0.8331 0.3121 -0.4566
vn -0.8769 -0.0047 -0.4806
vn -0.2863 -0.6615 -0.6932
vn -0.1172 -0.9386 -0.3244
vn 0.5666 0.5739 -0.5913
vn 0.5756 0.2359 -0.7830
vn 0.0507 0.2123 -0.9759
vn 0.0261 -0.9543 -0.2977
vn 0.1128 -0.9152 -0.3868
vn 0.1491 -0.9181 -0.3671
vn -0.0407 -0.6270 -0.7779
vn 0.6552 -0.0050 -0.7554
vn -0.4447 -0.3796 -0.8112
vn -0.4735 0.1728 -0.8637
vn -0.0602 0.4656 -0.8829
vn 0.9370 -0.0052 -0.3493
vn -0.0289 -0.9639 -0.2647
vn -0.5721 -0.7112 -0.4086
vn -0.4807 0.8121 -0.3308
vn 0.3228 0.9198 -0.2233
vn 0.7309 -0.6762 -0.0919
vn -0.2341 -0.9634 -0.1309
vn -0.9428 -0.1487 -0.2982
vn -0.2067 0.9711 -0.1196
vn 0.6780 0.7327 -0.0585
vn 0.4774 -0.8069 0.3478
vn -0.5170 -0.7129 0.4738
vn -0.7640 0.3240 0.5579
vn -0.0890 0.9677 0.2358
vn 0.9347 -0.2223 0.2775
vn 0.4260 -0.0791 0.9012
vn 0.6866 0.3914 0.6127
vn 0.4139 0.8605 0.2971
vn -0.4352 0.4758 0.7643
vn -0.4007 0.7774 0.4848
vn -0.4468 0.7706 0.4544
vn -0.6446 -0.1736 0.7446
vn -0.6967 -0.1704 0.6968
vn -0.6790 -0.5078 0.5302
vn -0.4432 -0.5825 0.6814
vn -0.4222 -0.7283 0.5398
vn -0.0945 -0.9570 0.2741
vn 0.4260 -0.0805 0.9012
vn 0.6526 -0.5269 0.5445
vn 0.9581 0.0345 0.2844
vn 0.7478 -0.4022 0.5283
vn 0.6516 0.7041 0.2823
vn 0.4022 0.8476 0.3462
vn -0.0817 0.9440 0.3198
vn -0.2012 0.9452 0.2573
vn -0.4460 0.7807 0.4378
vn -0.6562 0.3143 0.6861
vn -0.7776 -0.1226 0.6167
vn -0.5998 -0.4965 0.6275
vn -0.5176 -0.7017 0.4896
vn -0.2268 -0.9333 0.2785
vn -0.0879 -0.9322 0.3512
vn 0.4679 -0.7936 0.3890
vn 0.6929 -0.6410 0.3301
vn 0.8061 0.2281 0.5461
vn 0.1753 0.9714 0.1601
vn 0.1762 0.9762 -0.1263
vn -0.0308 0.9717 -0.2344
vn -0.4870 0.7612 0.4283
vn -0.5098 0.7970 -0.3240
vn -0.6543 0.5896 -0.4736
vn -0.5094 -0.7064 0.4914
vn -0.5418 -0.7513 -0.3769
vn -0.5513 -0.7454 -0.3747
vn 0.2016 -0.9641 0.1727
vn 0.2026 -0.9686 -0.1439
vn 0.3712 -0.8927 -0.2555
vn 0.7441 -0.1261 0.6560
vn 0.9092 -0.1540 -0.3868
vn 0.9091 -0.1597 -0.3848
vn 0.3275 0.6903 -0.6451
vn -0.0244 0.6385 -0.7692
vn -0.1076 0.7325 -0.6722
vn -0.3468 0.6138 -0.7092
vn -0.4463 0.1295 -0.8855
vn -0.3828 0.2079 -0.9001
vn -0.3605 -0.3893 -0.8477
vn -0.4171 -0.3332 -0.8456
vn -0.3835 -0.4861 -0.7853
vn 0.6817 -0.1550 -0.7150
vn 0.6801 -0.1599 -0.7155
vn 0.1661 -0.1579 -0.9734
vn -0.1144 -0.6429 -0.7574
vn -0.0543 -0.5660 -0.8226
vn 0.3758 -0.6274 -0.6820
vn -0.2439 -0.2090 -0.9470
vn 0.3906 -0.2257 -0.8925
vn 0.0788 -0.3961 -0.9148
vn 0.0855 0.0847 -0.9927
vn -0.2431 -0.1192 -0.9627
vn 0.9674 -0.2494 0.0436
vn 0.0262 -0.9982 -0.0547
vn -0.6850 -0.7261 -0.0594
vn -0.2880 0.9379 -0.1934
vn 0.1793 0.9778 -0.1085
vn 0.7369 -0.6418 0.2122
vn -0.0654 -0.9978 0.0125
vn -0.9510 -0.2441 0.1897
vn -0.0137 0.9991 0.0393
vn 0.6472 0.7273 0.2283
vn 0.1980 -0.8969 0.3954
vn -0.3703 -0.7799 0.5047
vn -0.6846 0.3527 0.6379
vn 0.0139 0.9607 0.2774
vn 0.8621 -0.1849 0.4718
vn 0.0492 -0.0478 0.9976
vn 0.4071 0.4391 0.8009
vn 0.1479 0.9436 0.2962
vn -0.1061 0.0482 0.9932
vn -0.2182 0.8339 0.5070
vn -0.2838 0.8360 0.4696
vn -0.1977 -0.2028 0.9590
vn -0.5655 -0.2133 0.7967
vn -0.5726 -0.5639 0.5951
vn -0.1527 -0.3061 0.9397
vn -0.2144 -0.7758 0.5934
vn 0.0114 -0.9313 0.3640
vn 0.0483 -0.1911 0.9804
vn 0.3572 -0.6118 0.7058
vn 0.8750 -0.0713 0.4788
vn 0.9391 -0.1002 0.3286
vn 0.6648 0.7470 0.0088
vn 0.1696 0.9580 0.2311
vn -0.0111 0.9948 0.1015
vn -0.0137 0.9949 0.0999
vn -0.2871 0.9008 0.3258
vn -0.8342 0.3642 0.4141
vn -0.9455 -0.2427 0.2172
vn -0.7510 -0.5830 0.3100
vn -0.3724 -0.8393 0.3961
vn -0.0648 -0.9873 0.1452
vn -0.0144 -0.9845 0.1746
vn 0.2369 -0.9314 0.2764
vn 0.7530 -0.6558 0.0541
vn 0.9495 -0.2016 0.2403
vn 0.0167 0.9966 0.0812
vn 0.0167 0.9998 0.0070
vn 0.0243 0.9996 0.0114
vn -0.6276 0.7606 0.1661
vn -0.6361 0.7709 -0.0330
vn -0.8019 0.5795 -0.1455
vn -0.6997 -0.6687 0.2517
vn -0.7205 -0.6885 -0.0824
vn -0.3676 -0.8983 -0.2406
vn 0.0682 -0.9910 0.1150
vn 0.0687 -0.9972 -0.0294
vn 0.2293 -0.9627 -0.1437
vn 0.9344 -0.2465 0.2573
vn 0.9661 -0.2548 0.0418
vn 0.9963 0.0566 -0.0643
vn 0.1334 0.6907 -0.7107
vn -0.1316 0.6129 -0.7791
vn -0.1003 0.5746 -0.8122
vn -0.0388 0.6015 -0.7980
vn -0.0903 0.3431 -0.9349
vn -0.3718 0.0473 -0.9271
vn -0.3587 -0.2676 -0.8943
vn -0.0218 -0.5365 -0.8436
vn -0.0449 -0.4176 -0.9075
vn 0.4725 0.0511 -0.8799
vn 0.3891 -0.2171 -0.8953
vn -0.2272 -0.1592 -0.9608
vn -0.1060 -0.3845 -0.9170
vn -0.1920 -0.5009 -0.8439
vn 0.1823 -0.6058 -0.7745
vn 0.1870 -0.6301 -0.7536
vn 0.4745 -0.6408 -0.6035
vn -0.0849 -0.5303 -0.8435
vn -0.0838 0.5476 -0.8325
vn 0.1887 0.6441 -0.7413
vn 0.5032 -0.6496 -0.5699
vn 0.2856 -0.8576 -0.4278
vn -0.6865 -0.4795 -0.5466
vn -0.3352 0.8194 -0.4650
vn 0.0488 0.9372 -0.3453
vn 0.2941 -0.9254 -0.2392
vn -0.0689 -0.9765 -0.2040
vn -0.9146 0.0191 -0.4038
vn -0.0736 0.9755 -0.2073
vn 0.2969 0.9224 -0.2471
vn 0.1007 -0.8583 0.5031
vn -0.2885 -0.7737 0.5640
vn -0.5604 0.4462 0.6977
vn 0.2020 0.8214 0.5334
vn 0.3325 0.4014 0.8534
vn 0.3324 0.5918 0.7344
vn 0.2370 0.4721 0.8491
vn 0.1041 0.8499 0.5165
vn 0.0584 0.7146 0.6971
vn 0.0629 0.7000 0.7113
vn -0.2958 0.7679 0.5682
vn -0.3004 0.0196 0.9536
vn -0.4995 0.0201 0.8661
vn -0.5702 -0.4284 0.7009
vn 0.0602 -0.7009 0.7107
vn 0.0580 -0.7083 0.7035
vn 0.2009 -0.8300 0.5203
vn 0.3379 -0.5731 0.7466
vn 0.2430 -0.4523 0.8581
vn 0.3355 -0.3816 0.8613
vn 0.5394 0.6732 0.5058
vn 0.2999 0.9317 0.2047
vn 0.2068 0.9490 0.2380
vn 0.1539 0.9435 0.2935
vn -0.0741 0.9827 0.1695
vn -0.3062 0.8819 0.3585
vn -0.7733 0.4769 0.4178
vn -0.9551 0.0200 0.2955
vn -0.7803 -0.4576 0.4264
vn -0.2989 -0.8868 0.3525
vn -0.0694 -0.9838 0.1653
vn 0.1537 -0.9455 0.2870
vn 0.1998 -0.9516 0.2335
vn 0.2969 -0.9341 0.1983
vn 0.5488 -0.6593 0.5140
vn 0.2176 0.9440 0.2480
vn 0.1963 0.8518 -0.4856
vn 0.2873 0.8538 -0.4341
vn -0.6143 0.7566 0.2240
vn -0.5753 0.7085 -0.4088
vn -0.6772 0.5021 -0.5378
vn -0.6086 -0.7635 0.2163
vn -0.5712 -0.7166 -0.4003
vn -0.3260 -0.8270 -0.4581
vn 0.2123 -0.9460 0.2451
vn 0.1920 -0.8555 -0.4808
vn 0.0444 -0.9394 -0.3401
vn 0.9424 0.0172 0.3340
vn 0.8714 0.0159 -0.4903
vn 0.4950 0.6632 -0.5614
vn 0.0485 0.9365 -0.3473
vn 0.2118 0.9434 -0.2551
vn 0.2897 0.9033 -0.3164
vn -0.3419 0.8272 -0.4460
vn -0.3512 0.8152 -0.4605
vn -0.7326 0.5883 -0.3423
vn -0.7447 -0.5696 -0.3479
vn -0.3559 -0.8080 -0.4696
vn -0.3340 -0.8361 -0.4351
vn 0.4642 0.6536 -0.5978
vn 0.3979 0.0209 -0.9172
vn 0.5080 0.0211 -0.8611
vn 0.2878 -0.9064 -0.3092
vn 0.2118 -0.9449 -0.2497
vn 0.0438 -0.9378 -0.3445
vn -0.4146 -0.9089 -0.0437
vn 0.0016 -0.7865 0.6175
vn 0.6573 -0.7530 -0.0311
vn -0.4145 -0.9088 0.0479
vn 0.0169 -0.9546 -0.2976
vn -0.8035 0.5504 0.2269
vn 0.8035 -0.5504 -0.2269
vn -0.1364 0.9405 -0.3113
vn 0.1364 -0.9405 0.3113
vn -0.1269 0.8972 -0.4230
vn 0.1269 -0.8972 0.4230
vn -0.6032 0.7221 -0.3387
vn 0.6032 -0.7221 0.3387
vn -0.4142 0.8834 -0.2191
vn 0.4142 -0.8834 0.2191
vn 0.0961 0.9742 -0.2042
vn -0.0961 -0.9742 0.2042
vn 0.3005 0.6438 -0.7037
vn -0.3005 -0.6438 0.7037
vn 0.1777 0.9711 -0.1592
vn -0.1777 -0.9711 0.1592
vn 0.0106 0.9362 -0.3514
vn -0.0106 -0.9362 0.3514
vn 0.6205 0.7127 0.3271
vn -0.6205 -0.7127 -0.3271
vn 0.1318 0.9440 0.3024
vn -0.1318 -0.9440 -0.3024
vn -0.1645 0.8067 0.5676
vn 0.1645 -0.8067 -0.5676
vn 0.6147 0.6196 0.4881
vn -0.6147 -0.6196 -0.4881
vn -0.2126 0.9374 0.2759
vn 0.2126 -0.9374 -0.2759
vn 0.0822 0.9139 0.3975
vn -0.0822 -0.9139 -0.3975
vn -0.0786 0.7483 0.6587
vn 0.0786 -0.7483 -0.6587
vn -0.1368 0.9583 0.2508
vn 0.1368 -0.9583 -0.2508
vn -0.2426 0.9289 -0.2799
vn 0.2426 -0.9289 0.2799
vt -0.000000 0.608214
vt -0.517413 0.414547
vt 0.218274 0.262119
vt 0.741981 0.368537
vt 0.517413 0.831653
vt 0.956112 0.474895
vt 0.647864 0.608214
vt 0.245724 0.997834
vt -0.583593 0.826652
vt 0.368537 0.330491
vt 0.474895 0.608214
vt -0.000000 0.442989
vt 0.179011 -0.530210
vt 0.407956 -0.473173
vt 0.383586 -0.529665
vt -0.974815 0.391710
vt -0.685842 0.421070
vt -0.987147 -0.000000
vt -0.362375 -0.471228
vt -0.802128 -0.492464
vt -0.630382 0.000000
vt 0.861089 -0.427697
vt 0.346596 -0.557089
vt 0.620364 0.000000
vt 0.987057 -0.000000
vt 0.597199 -0.000000
vt -0.262196 -0.421431
vt -0.217773 -0.000000
vt 0.208825 -0.000000
vt -0.391710 0.608214
vt 0.000000 0.442974
vt 0.000000 0.798224
vt 0.000000 0.000000
vt 1.135044 0.000000
vt 0.773212 0.318799
vt 0.383586 0.000000
vt 0.409664 0.000000
vt -0.791638 0.311905
vt -0.360186 0.037125
vt -0.441718 0.442879
vt -0.910746 0.949104
vt -1.008535 0.608214
vt -0.507899 0.798319
vt 0.396670 0.515824
vt -0.370546 0.595583
vt 0.236965 0.997179
vt 1.048188 0.608214
vt 0.889498 0.941154
vt 0.582918 0.608214
vt 0.236965 0.983945
vt 0.889498 0.546104
vt -0.370546 1.195730
vt 0.209514 0.276008
vt 0.191478 0.307766
vt -0.000000 0.798209
vt -0.546104 0.941154
vt -0.421194 0.608214
vt -0.910746 0.452362
vt 0.500933 0.608214
vt 0.452362 0.949104
vt 0.393201 0.311905
vt -0.607218 -0.000000
vt -0.360186 -0.578931
vt -0.791638 -0.393201
vt 0.773212 -0.474711
vt -0.474711 0.318799
vt -1.135133 0.000000
vt -0.492464 0.908451
vt -0.358578 0.466290
vt 0.336236 0.540436
vt 0.427697 0.930518
vt 0.583593 -0.938027
vt -0.245724 -1.034040
vt -1.034040 0.997834
vt -0.842449 0.608214
vt -0.647864 0.842449
vt -0.218274 0.918524
vt -0.918524 0.262119
vt -0.466290 0.039652
vt -0.421070 0.351502
vt 0.938027 0.826652
vt -0.956112 0.608214
vt -0.744505 0.671809
vt -0.978317 0.588509
vt -0.623430 0.489079
vt 0.259365 0.532889
vt 0.528158 0.588509
vt 0.299035 0.671809
vt -0.410887 0.671809
vt -0.620966 0.858257
vt -0.984256 0.757225
vt -0.026457 0.567134
vt 0.554482 0.338213
vt 0.899549 0.341313
vt 0.744505 -0.026457
vt -0.220967 0.671809
vt -0.339879 0.527760
vt 0.026457 0.576663
vt 0.554141 -0.338867
vt 0.329746 -0.349335
vt 0.318813 0.026457
vt 1.145124 -0.267201
vt 0.900479 -0.343518
vt 1.141448 0.026457
vt 1.134435 0.259365
vt 1.401483 -0.026457
vt 1.139369 -0.026457
vt 0.320892 -0.026457
vt 0.026457 0.769072
vt 0.744505 0.026457
vt 1.414764 0.026457
vt 0.933330 0.386830
vt 1.142407 0.530048
vt 0.834136 0.536536
vt 0.257701 0.498375
vt 0.556475 0.388040
vt 0.493092 0.582238
vt 0.391124 0.849051
vt 0.373769 0.671809
vt 0.636911 0.763496
vt 0.933671 0.389480
vt 0.555546 0.474676
vt 0.836600 0.598387
vt 1.299726 0.671809
vt 1.152843 0.817289
vt 0.992080 0.671809
vt 0.836600 0.810801
vt 0.744505 0.671809
vt 1.152843 0.396430
vt 0.487153 0.763496
vt 0.555546 0.956982
vt 0.247011 0.391124
vt 0.487153 0.636911
vt 0.622823 0.582238
vt 0.383288 0.498375
vt 0.556475 -0.472470
vt 0.933330 -0.388826
vt 0.834136 -0.583087
vt -0.026457 0.778600
vt -0.396430 0.817289
vt -0.355709 0.671809
vt 0.257701 -0.383288
vt 1.142407 -0.386974
vt -0.386974 0.530048
vt 0.026457 0.959123
vt -0.349335 0.819577
vt 0.026457 0.385898
vt 0.340182 0.339879
vt 0.267201 0.814538
vt 0.984256 -0.542247
vt 0.620966 -0.740752
vt -0.740752 0.858257
vt -0.613764 0.671809
vt -0.725453 0.489079
vt 0.623430 0.725453
vt 0.542247 0.757225
vt 0.795262 0.671809
vt 0.978317 0.528158
vt -0.453137 0.576811
vt -0.827131 0.449714
vt -0.314902 0.377806
vt -0.305536 0.365197
vt 0.006830 0.449714
vt -0.267239 0.576811
vt 0.028705 0.576811
vt -0.327323 0.757935
vt -0.797185 0.693732
vt -0.636571 0.450432
vt 0.242217 -0.343007
vt 0.647519 -0.302169
vt 0.453137 -0.636571
vt 0.340943 0.576811
vt 0.226757 0.364868
vt 0.636571 0.458916
vt 0.243935 0.345399
vt -0.117900 0.261333
vt -0.096444 0.636571
vt 1.021935 0.334187
vt 0.642831 0.310234
vt 0.968579 0.636571
vt 1.075830 -0.305536
vt 1.284695 -0.636571
vt 0.979060 -0.636571
vt -0.106926 -0.636571
vt 0.636571 0.684530
vt 0.453137 0.636571
vt 1.217733 0.636571
vt 0.674409 -0.944543
vt 1.112200 -1.069652
vt 0.563924 -1.135559
vt -0.260995 -1.016216
vt 0.218951 -1.039448
vt 0.095918 -1.251112
vt -0.207100 0.801185
vt -0.280260 0.576811
vt 0.125864 0.688031
vt 0.672691 0.892885
vt 0.223639 0.907188
vt 0.551503 0.718421
vt 1.279288 0.576811
vt 1.059582 0.782906
vt 0.834273 0.576811
vt 0.453137 0.576811
vt 0.095918 0.455415
vt -0.260995 0.334123
vt 0.563924 0.417320
vt 0.218951 0.239686
vt 1.112200 0.352835
vt 1.059582 1.035076
vt 1.279288 0.991887
vt 0.672691 0.942152
vt 0.223639 1.031383
vt -0.207100 0.987565
vt 1.026458 0.576811
vt 0.987565 0.801185
vt 1.016216 0.334123
vt -0.991887 0.576811
vt -1.069652 0.352835
vt 0.636571 0.930634
vt 0.261333 0.770873
vt 0.636571 0.216241
vt -0.170518 -0.226757
vt -0.636571 0.693014
vt -0.334187 0.770110
vt 0.797185 0.044687
vt 0.327323 0.069902
vt -0.028705 -0.034048
vt -0.034048 0.576811
vt 0.170518 0.364868
vt 0.314902 -0.013958
vt -1.147869 0.576811
vt -1.021935 0.770110
vt 0.827131 0.006830
vt 0.540069 0.653319
vt 0.269330 0.559560
vt 0.632796 0.517286
vt 0.025528 0.475129
vt 0.024722 0.653319
vt 0.816145 0.653319
vt 0.639068 0.798555
vt 0.254208 0.752316
vt -0.118794 0.475129
vt -0.118321 0.653319
vt -0.420502 0.556144
vt -0.741378 -0.111462
vt -0.342817 -0.046219
vt -0.540069 -0.420502
vt -1.141648 -0.135128
vt -0.953492 -0.120859
vt -1.215421 -0.420502
vt -0.742246 0.110130
vt -0.980062 0.101602
vt -0.974933 0.420502
vt 0.001687 0.102836
vt -0.340450 0.041727
vt -0.088377 0.420502
vt -0.420502 0.360452
vt -0.969640 -0.420502
vt 0.135128 0.653319
vt 0.420502 0.548725
vt 0.420502 0.763151
vt -0.540069 0.420502
vt 0.121192 0.420502
vt -0.342118 -0.724386
vt -0.109404 -0.732642
vt -0.411849 -1.057482
vt -0.941066 -0.655632
vt -0.709745 -0.742461
vt -0.791265 -0.897149
vt 0.671590 0.801613
vt 0.697408 0.653319
vt 0.925842 0.745548
vt -0.341251 0.725718
vt -0.712113 0.746953
vt -0.405576 1.088641
vt -0.635880 0.653319
vt -0.751900 0.811666
vt -0.966704 0.653319
vt -0.184262 0.653319
vt -0.405576 0.850625
vt -0.540069 0.653319
vt -1.088641 0.850625
vt -0.082833 0.751900
vt -0.806387 0.745548
vt -0.806387 0.925842
vt -0.968282 0.671590
vt -0.791265 0.566328
vt -1.012311 0.653319
vt 0.655632 0.514450
vt 0.897149 0.566328
vt -0.411849 0.465216
vt -1.057482 0.465216
vt -0.732642 0.504174
vt -0.420502 0.755731
vt -1.249235 0.763151
vt -0.968282 0.801613
vt -1.215421 0.548725
vt -0.941066 0.514450
vt -0.093670 -0.420502
vt -1.249235 0.420502
vt 0.101602 0.805695
vt -0.025528 -0.118794
vt -0.102836 0.840935
vt -0.254208 -0.121921
vt 0.340450 0.946157
vt -0.639068 -0.071310
vt 0.980062 0.805695
vt 0.742246 0.949919
vt 1.141648 0.653319
vt 0.953492 0.510146
vt 0.741378 0.357992
vt -0.001687 0.840935
vt 0.342817 0.363954
vt 0.357565 0.614078
vt -0.011436 0.473045
vt 0.468542 0.434397
vt -0.418580 0.317435
vt -0.496890 0.614078
vt 0.794402 0.614078
vt 0.482541 0.816424
vt -0.045186 0.768009
vt 0.853008 0.317435
vt 0.893765 0.614078
vt 0.449053 0.477476
vt -0.625306 0.813882
vt -0.100607 0.881830
vt -0.357565 0.449053
vt -1.294686 0.843638
vt -1.022434 0.876781
vt -1.179896 0.449053
vt -0.627242 -0.816520
vt -1.081737 -0.914932
vt -0.934793 -0.449053
vt 0.479323 -0.884622
vt -0.095323 -0.890729
vt 0.217329 -0.449053
vt 0.449053 0.206374
vt -0.922980 0.449053
vt -0.843638 0.614078
vt -0.449053 0.473521
vt -0.449053 0.767534
vt -0.357565 -0.449053
vt 0.517096 -0.449053
vt -0.115707 0.119493
vt 0.308208 0.020743
vt -0.201562 -0.238842
vt -0.973777 0.128337
vt -0.588624 0.059895
vt -0.735412 -0.187337
vt -0.096723 0.872810
vt -0.050000 0.614078
vt 0.244181 0.771391
vt -0.113771 -0.116855
vt -0.593908 -0.050997
vt -0.187563 0.300572
vt 0.133910 0.614078
vt -0.017408 0.891204
vt -0.269764 0.614078
vt 0.169977 0.614078
vt -0.187563 0.889323
vt -0.357565 0.614078
vt 0.367511 0.891204
vt 0.367511 0.017408
vt -0.769163 0.771391
vt -0.769163 0.244181
vt -1.034519 -0.096723
vt -0.735412 0.469664
vt -1.124292 0.614078
vt -0.973777 0.378561
vt -0.201562 0.361498
vt 0.308208 0.359617
vt 0.020743 0.359617
vt 0.449053 0.763579
vt -0.128337 0.378561
vt 0.205516 0.449053
vt -1.255365 -0.449053
vt -0.914932 0.890859
vt -0.449053 0.204684
vt -0.876781 0.359963
vt 0.418580 0.853008
vt 0.884622 0.933936
vt 0.095323 1.038651
vt -0.479323 0.933936
vt 0.627242 1.050705
vt 1.081737 0.890859
vt 1.294686 0.614078
vt 1.022434 0.359963
vt 0.625306 0.180585
vt 0.100607 0.198059
vt -0.175898 0.645368
vt -0.537404 0.501827
vt -0.029022 0.398316
vt 0.784441 1.004441
vt 0.537404 1.302854
vt 0.979137 1.107948
vt 0.381343 0.645368
vt -0.030277 0.890307
vt -0.534378 0.787706
vt 1.222811 0.680918
vt -0.055760 1.003355
vt 0.340649 0.964352
vt 0.175898 0.680918
vt -1.010256 0.645368
vt -1.056086 0.418678
vt -0.680918 0.482974
vt -0.055586 -1.003114
vt -0.389696 -1.052591
vt -0.398376 -0.680918
vt 0.778994 -1.001544
vt 0.340175 -0.963537
vt 0.659546 -0.680918
vt 0.660605 0.680918
vt -0.399436 0.680918
vt -0.680918 0.806560
vt 0.175898 -0.680918
vt 1.216043 -0.680918
vt 0.384697 0.390298
vt 0.782937 0.282010
vt 0.298896 0.126916
vt -0.486948 0.328525
vt -0.055966 0.282020
vt -0.203164 0.028776
vt -0.481501 0.906396
vt -0.606547 0.645368
vt -0.200137 0.794677
vt 0.384523 -0.390539
vt -0.055493 -0.282836
vt 0.297641 -0.132571
vt 1.081379 0.645368
vt 0.777619 0.884290
vt 0.592541 0.645368
vt 0.297641 0.850141
vt 0.175898 0.645368
vt 0.777619 -0.285505
vt -0.200137 -0.033984
vt 0.175898 0.087561
vt -0.055493 1.034560
vt -0.481501 -0.331421
vt -0.203164 0.494856
vt -0.486948 0.382176
vt 0.298896 0.438482
vt 0.782937 0.404334
vt 1.081379 -0.291471
vt -0.264942 0.645368
vt -0.331421 0.906396
vt -0.328525 0.382176
vt 1.081379 0.291471
vt -0.731863 -0.680918
vt -1.052591 0.869945
vt -0.738632 0.680918
vt -0.395014 1.056086
vt 0.680918 0.459466
vt 0.680918 0.830067
vt 0.291471 0.645368
vt 1.107948 0.645368
vt 0.979137 -1.107948
vt 0.534378 -1.297647
vt 0.030277 -1.336821
vt -0.381343 -1.456501
vt -1.456501 0.645368
vt -0.381343 1.456501
vt 0.029022 1.342476
vt -0.979137 0.645368
vt 0.409664 -0.509289
vt -0.256279 0.333261
vt 0.209514 -0.881662
vt -0.189257 0.937210
vt 0.118261 1.322738
vt -0.101492 1.338171
vt 0.198875 0.909950
vt 0.189257 0.937210
vt 0.101492 1.338171
vt -0.118261 1.322738
vt -0.198875 0.909950
vt 0.483020 0.429486
vt 1.683649 0.684651
vt 0.712718 0.137452
vt 1.553463 0.850166
vt 0.483020 -0.429486
vt 0.712718 -0.137452
vt 1.683649 -0.684651
vt 1.553463 -0.850166
vt 0.367397 0.610110
vt 1.241870 1.071362
vt 0.695793 0.406868
vt 1.093936 1.162918
vt 0.367397 -0.610110
vt 0.695793 -0.406868
vt 1.241870 -1.071362
vt 1.093936 -1.162918
vt 0.272762 0.067780
vt 0.299506 0.787737
vt 0.459935 0.624246
vt -0.032520 0.378887
vt 0.272762 -0.067780
vt 0.459935 -0.624246
vt 0.299506 -0.787737
vt -0.032520 -0.378887
vt -0.152816 0.715852
vt 0.135794 1.538812
vt 0.185352 0.641982
vt -0.061020 1.581804
vt -0.152816 -0.715852
vt 0.185352 -0.641982
vt 0.135794 -1.538812
vt -0.061020 -1.581804
vt -0.371434 0.574283
vt -0.280460 1.406967
vt 0.037970 0.666885
vt -0.464382 1.365366
vt -0.371434 -0.574283
vt 0.037970 -0.666885
vt -0.280460 -1.406967
vt -0.464382 -1.365366
vt 0.397245 1.019733
vt 0.308057 1.495814
vt 0.003794 1.028108
vt 0.536577 1.490950
vt -0.397245 1.019733
vt -0.003794 1.028108
vt -0.308057 1.495814
vt -0.536577 1.490950
vt -0.593067 0.246488
vt -1.239751 1.120502
vt -0.324180 0.501691
vt -1.363576 1.002979
vt -0.593067 -0.246488
vt -0.324180 -0.501691
vt -1.239751 -1.120502
vt -1.363576 -1.002979
vt -0.502810 0.333587
vt -1.739205 0.496325
vt -1.646865 0.656796
vt -0.659042 0.062081
vt -0.502810 -0.333587
vt -1.646865 -0.656796
vt -1.739205 -0.496325
vt -0.659042 -0.062081
vt -0.268402 -0.133031
vt -0.863789 0.168296
vt -0.363347 0.204700
vt -0.822960 0.023059
vt -0.268402 0.133031
vt -0.363347 -0.204700
vt -0.863789 -0.168296
vt -0.822960 -0.023059
vt -0.676893 -0.295415
vt -1.816351 -0.176901
vt -0.797236 0.063102
vt -1.746632 -0.384603
vt -0.676893 0.295415
vt -0.797236 -0.063102
vt -1.816351 0.176901
vt -1.746632 0.384603
vt -0.277913 -0.633224
vt -1.105714 -1.151535
vt -0.694096 -0.527253
vt -0.872963 -1.210799
vt -0.277913 0.633224
vt -0.694096 0.527253
vt -1.105714 1.151535
vt -0.872963 1.210799
vt -0.148378 -0.435269
vt -0.616692 -0.502983
vt -0.405753 -0.150636
vt -0.478871 -0.655400
vt -0.148378 0.435269
vt -0.405753 0.150636
vt -0.616692 0.502983
vt -0.478871 0.655400
vt 0.033575 -0.563449
vt -0.498696 -1.553517
vt -0.327289 -0.529846
vt -0.339980 -1.568296
vt 0.033575 0.563449
vt -0.327289 0.529846
vt -0.498696 1.553517
vt -0.339980 1.568296
vt 0.006834 -0.667608
vt 0.688328 -1.547029
vt 0.446157 -1.584863
vt 0.451657 -0.598115
vt 0.006834 0.667608
vt 0.446157 1.584863
vt 0.688328 1.547029
vt 0.451657 0.598115
vt 0.015181 -0.279434
vt 0.658486 -0.551144
vt 0.452040 -0.623113
vt 0.389836 -0.148825
vt 0.015181 0.279434
vt 0.452040 0.623113
vt 0.658486 0.551144
vt 0.389836 0.148825
vt 0.866222 -0.206507
vt 1.343840 -0.762635
vt 0.617747 -0.533233
vt 1.446131 -0.628130
vt 0.866222 0.206507
vt 0.617747 0.533233
vt 1.343840 0.762635
vt 1.446131 0.628130
vt 0.745017 -0.014458
vt 1.606378 -0.541564
vt 0.672338 -0.371744
vt 1.646411 -0.344758
vt 0.745017 0.014458
vt 0.672338 0.371744
vt 1.606378 0.541564
vt 1.646411 0.344758
s 0
f 1/1/1 13/2/1 12/3/1
f 2/4/2 13/5/2 15/6/2
f 1/1/3 12/3/3 17/7/3
f 1/1/4 17/7/4 19/8/4
f 1/1/5 19/8/5 16/9/5
f 2/10/6 15/11/6 22/12/6
f 255/13/7 252/14/7 254/15/7
f 4/16/8 18/17/8 25/18/8
f 5/19/9 20/20/9 27/21/9
f 6/22/10 21/23/10 29/24/10
f 2/4/11 22/25/11 24/26/11
f 257/27/7 256/28/7 258/29/7
f 4/30/12 25/31/12 28/32/12
f 5/19/13 27/21/13 30/33/13
f 6/22/14 29/24/14 23/34/14
f 31/35/15 254/36/15 253/37/15
f 7/38/16 32/39/16 38/40/16
f 8/41/17 33/42/17 39/43/17
f 9/44/18 34/45/18 40/46/18
f 10/47/19 35/48/19 37/49/19
f 37/49/20 40/50/20 11/1/20
f 37/49/21 35/48/21 40/50/21
f 35/51/22 9/44/22 40/46/22
f 40/50/23 39/43/23 11/1/23
f 40/50/24 34/52/24 39/43/24
f 34/52/25 8/41/25 39/43/25
f 39/43/26 38/40/26 11/1/26
f 39/43/27 33/42/27 38/40/27
f 33/42/28 7/38/28 38/40/28
f 38/40/29 36/53/29 11/1/29
f 38/40/30 32/39/30 36/53/30
f 256/28/7 259/54/7 258/29/7
f 36/53/31 37/49/31 11/1/31
f 36/53/32 31/35/32 37/49/32
f 31/35/33 10/47/33 37/49/33
f 23/55/34 35/56/34 10/57/34
f 23/34/35 29/24/35 35/51/35
f 29/24/36 9/44/36 35/51/36
f 30/33/37 34/45/37 9/44/37
f 30/33/38 27/21/38 34/45/38
f 27/21/39 8/58/39 34/45/39
f 28/32/40 33/59/40 8/60/40
f 28/32/41 25/31/41 33/59/41
f 25/31/42 7/61/42 33/59/42
f 26/62/43 32/63/43 7/64/43
f 255/13/7 257/27/7 258/29/7
f 257/27/44 255/13/44 32/63/44
f 258/29/7 252/14/7 255/13/7
f 24/26/45 22/25/45 31/65/45
f 22/12/46 10/57/46 31/66/46
f 29/24/47 30/33/47 9/44/47
f 29/24/48 21/23/48 30/33/48
f 21/23/49 5/19/49 30/33/49
f 27/21/50 28/67/50 8/58/50
f 27/21/51 20/20/51 28/67/51
f 20/68/52 4/30/52 28/32/52
f 25/18/53 26/62/53 7/64/53
f 25/18/54 18/17/54 26/62/54
f 18/17/55 3/69/55 26/62/55
f 258/29/56 24/26/56 252/14/56
f 259/54/57 24/26/57 258/29/57
f 14/70/58 2/4/58 24/26/58
f 22/12/59 23/55/59 10/57/59
f 22/12/60 15/11/60 23/55/60
f 15/11/61 6/71/61 23/55/61
f 16/72/62 21/23/62 6/22/62
f 16/72/63 19/73/63 21/23/63
f 19/73/64 5/19/64 21/23/64
f 19/73/65 20/20/65 5/19/65
f 19/74/66 17/75/66 20/68/66
f 17/75/67 4/30/67 20/68/67
f 17/76/68 18/17/68 4/16/68
f 17/76/69 12/77/69 18/17/69
f 12/78/70 3/79/70 18/80/70
f 15/11/71 16/81/71 6/71/71
f 15/82/72 13/2/72 16/9/72
f 13/2/73 1/1/73 16/9/73
f 12/77/74 14/70/74 3/69/74
f 12/77/75 13/5/75 14/70/75
f 13/5/76 2/4/76 14/70/76
f 41/83/77 54/84/77 53/85/77
f 42/86/78 54/87/78 56/88/78
f 41/83/79 53/85/79 58/89/79
f 41/83/80 58/89/80 60/90/80
f 41/83/81 60/90/81 57/91/81
f 42/86/82 56/88/82 63/92/82
f 43/93/83 55/94/83 65/95/83
f 44/96/84 59/97/84 67/98/84
f 45/99/85 61/100/85 69/101/85
f 46/102/86 62/103/86 71/104/86
f 42/105/87 63/106/87 66/107/87
f 43/93/88 65/95/88 68/108/88
f 44/96/89 67/98/89 70/109/89
f 45/99/90 69/101/90 72/110/90
f 46/102/91 71/104/91 64/111/91
f 47/112/92 73/113/92 78/114/92
f 48/115/93 74/116/93 80/117/93
f 49/118/94 75/119/94 81/120/94
f 50/121/95 76/122/95 82/123/95
f 51/124/96 77/125/96 79/126/96
f 79/126/97 82/127/97 52/128/97
f 79/126/98 77/125/98 82/127/98
f 77/129/99 50/121/99 82/123/99
f 82/127/100 81/130/100 52/128/100
f 82/127/101 76/131/101 81/130/101
f 76/122/102 49/132/102 81/133/102
f 81/130/103 80/117/103 52/128/103
f 81/120/104 75/119/104 80/134/104
f 75/119/105 48/135/105 80/134/105
f 80/117/106 78/114/106 52/128/106
f 80/117/107 74/116/107 78/114/107
f 74/136/108 47/137/108 78/138/108
f 78/114/109 79/126/109 52/128/109
f 78/114/110 73/113/110 79/126/110
f 73/113/111 51/124/111 79/126/111
f 64/139/112 77/140/112 51/141/112
f 64/111/113 71/104/113 77/129/113
f 71/104/114 50/121/114 77/129/114
f 72/110/115 76/122/115 50/121/115
f 72/110/116 69/101/116 76/122/116
f 69/101/117 49/132/117 76/122/117
f 70/109/118 75/119/118 49/118/118
f 70/109/119 67/98/119 75/119/119
f 67/98/120 48/135/120 75/119/120
f 68/108/121 74/136/121 48/142/121
f 68/108/122 65/95/122 74/136/122
f 65/95/123 47/137/123 74/136/123
f 66/107/124 73/143/124 47/137/124
f 66/107/125 63/106/125 73/143/125
f 63/92/126 51/141/126 73/144/126
f 71/104/127 72/110/127 50/121/127
f 71/104/128 62/103/128 72/110/128
f 62/103/129 45/99/129 72/110/129
f 69/145/130 70/109/130 49/118/130
f 69/145/131 61/146/131 70/109/131
f 61/146/132 44/96/132 70/109/132
f 67/98/133 68/147/133 48/135/133
f 67/98/134 59/97/134 68/147/134
f 59/148/135 43/93/135 68/108/135
f 65/95/136 66/107/136 47/137/136
f 65/95/137 55/94/137 66/107/137
f 55/94/138 42/105/138 66/107/138
f 63/92/139 64/139/139 51/141/139
f 63/92/140 56/88/140 64/139/140
f 56/88/141 46/149/141 64/139/141
f 57/150/142 62/103/142 46/102/142
f 57/150/143 60/151/143 62/103/143
f 60/151/144 45/99/144 62/103/144
f 60/151/145 61/100/145 45/99/145
f 60/152/146 58/153/146 61/146/146
f 58/153/147 44/96/147 61/146/147
f 58/153/148 59/97/148 44/96/148
f 58/153/149 53/154/149 59/97/149
f 53/155/150 43/93/150 59/148/150
f 56/88/151 57/156/151 46/149/151
f 56/88/152 54/87/152 57/156/152
f 54/87/153 41/157/153 57/156/153
f 53/155/154 55/94/154 43/93/154
f 53/155/155 54/158/155 55/94/155
f 54/158/156 42/105/156 55/94/156
f 83/159/157 96/160/157 95/161/157
f 84/162/158 96/163/158 98/164/158
f 83/159/159 95/161/159 100/165/159
f 83/159/160 100/165/160 102/166/160
f 83/159/161 102/166/161 99/167/161
f 84/162/162 98/164/162 105/168/162
f 85/169/163 97/170/163 107/171/163
f 86/172/164 101/173/164 109/174/164
f 87/175/165 103/176/165 111/177/165
f 88/178/166 104/179/166 113/180/166
f 84/181/167 105/182/167 108/183/167
f 85/169/168 107/171/168 110/184/168
f 86/172/169 109/174/169 112/185/169
f 87/175/170 111/177/170 114/186/170
f 88/178/171 113/180/171 106/187/171
f 89/188/172 115/189/172 120/190/172
f 90/191/173 116/192/173 122/193/173
f 91/194/174 117/195/174 123/196/174
f 92/197/175 118/198/175 124/199/175
f 93/200/176 119/201/176 121/202/176
f 121/202/177 124/199/177 94/203/177
f 121/202/178 119/201/178 124/199/178
f 119/201/179 92/197/179 124/199/179
f 124/199/180 123/196/180 94/203/180
f 124/199/181 118/198/181 123/196/181
f 118/198/182 91/194/182 123/196/182
f 123/196/183 122/204/183 94/203/183
f 123/196/184 117/195/184 122/204/184
f 117/195/185 90/205/185 122/204/185
f 122/204/186 120/206/186 94/203/186
f 122/204/187 116/207/187 120/206/187
f 116/192/188 89/188/188 120/190/188
f 120/206/189 121/202/189 94/203/189
f 120/206/190 115/208/190 121/202/190
f 115/208/191 93/200/191 121/202/191
f 106/187/192 119/209/192 93/210/192
f 106/187/193 113/180/193 119/209/193
f 113/180/194 92/211/194 119/209/194
f 114/186/195 118/212/195 92/211/195
f 114/186/196 111/177/196 118/212/196
f 111/177/197 91/213/197 118/212/197
f 112/185/198 117/214/198 91/215/198
f 112/185/199 109/174/199 117/214/199
f 109/174/200 90/216/200 117/214/200
f 110/184/201 116/192/201 90/191/201
f 110/184/202 107/171/202 116/192/202
f 107/171/203 89/188/203 116/192/203
f 108/183/204 115/189/204 89/188/204
f 108/183/205 105/182/205 115/189/205
f 105/168/206 93/217/206 115/218/206
f 113/180/207 114/186/207 92/211/207
f 113/180/208 104/179/208 114/186/208
f 104/179/209 87/175/209 114/186/209
f 111/219/210 112/185/210 91/215/210
f 111/219/211 103/220/211 112/185/211
f 103/220/212 86/172/212 112/185/212
f 109/174/213 110/221/213 90/216/213
f 109/174/214 101/173/214 110/221/214
f 101/222/215 85/169/215 110/184/215
f 107/171/216 108/183/216 89/188/216
f 107/171/217 97/170/217 108/183/217
f 97/170/218 84/181/218 108/183/218
f 105/168/219 106/223/219 93/217/219
f 105/168/220 98/164/220 106/223/220
f 98/164/221 88/224/221 106/223/221
f 99/225/222 104/179/222 88/178/222
f 99/225/223 102/226/223 104/179/223
f 102/226/224 87/175/224 104/179/224
f 102/226/225 103/176/225 87/175/225
f 102/226/226 100/227/226 103/176/226
f 100/228/227 86/172/227 103/220/227
f 100/228/228 101/173/228 86/172/228
f 100/165/229 95/161/229 101/229/229
f 95/230/230 85/169/230 101/222/230
f 98/231/231 99/167/231 88/232/231
f 98/231/232 96/160/232 99/167/232
f 96/160/233 83/159/233 99/167/233
f 95/230/234 97/170/234 85/169/234
f 95/230/235 96/233/235 97/170/235
f 96/233/236 84/181/236 97/170/236
f 125/234/237 138/235/237 137/236/237
f 126/237/238 138/235/238 140/238/238
f 125/234/239 137/236/239 142/239/239
f 125/234/240 142/239/240 144/240/240
f 125/234/241 144/240/241 141/241/241
f 126/242/242 140/243/242 147/244/242
f 127/245/243 139/246/243 149/247/243
f 128/248/244 143/249/244 151/250/244
f 129/251/245 145/252/245 153/253/245
f 130/254/246 146/255/246 155/256/246
f 126/242/247 147/244/247 150/257/247
f 127/245/248 149/247/248 152/258/248
f 128/259/249 151/260/249 154/261/249
f 129/251/250 153/253/250 156/262/250
f 130/254/251 155/256/251 148/263/251
f 131/264/252 157/265/252 162/266/252
f 132/267/253 158/268/253 164/269/253
f 133/270/254 159/271/254 165/272/254
f 134/273/255 160/274/255 166/275/255
f 135/276/256 161/277/256 163/278/256
f 163/279/257 166/280/257 136/281/257
f 163/278/258 161/277/258 166/282/258
f 161/283/259 134/273/259 166/275/259
f 166/280/260 165/284/260 136/281/260
f 166/275/261 160/274/261 165/285/261
f 160/274/262 133/286/262 165/285/262
f 165/284/263 164/287/263 136/281/263
f 165/284/264 159/288/264 164/287/264
f 159/271/265 132/289/265 164/290/265
f 164/287/266 162/291/266 136/281/266
f 164/269/267 158/268/267 162/266/267
f 158/268/268 131/264/268 162/266/268
f 162/291/269 163/279/269 136/281/269
f 162/292/270 157/293/270 163/278/270
f 157/293/271 135/276/271 163/278/271
f 148/294/272 161/277/272 135/276/272
f 148/263/273 155/256/273 161/283/273
f 155/256/274 134/273/274 161/283/274
f 156/262/275 160/274/275 134/273/275
f 156/262/276 153/253/276 160/274/276
f 153/253/277 133/286/277 160/274/277
f 154/295/278 159/288/278 133/296/278
f 154/261/279 151/260/279 159/271/279
f 151/297/280 132/298/280 159/288/280
f 152/258/281 158/268/281 132/267/281
f 152/258/282 149/247/282 158/268/282
f 149/247/283 131/264/283 158/268/283
f 150/299/284 157/265/284 131/264/284
f 150/257/285 147/244/285 157/293/285
f 147/244/286 135/276/286 157/293/286
f 155/256/287 156/262/287 134/273/287
f 155/256/288 146/255/288 156/262/288
f 146/255/289 129/251/289 156/262/289
f 153/253/290 154/300/290 133/286/290
f 153/253/291 145/252/291 154/300/291
f 145/301/292 128/259/292 154/261/292
f 151/250/293 152/258/293 132/267/293
f 151/250/294 143/249/294 152/258/294
f 143/249/295 127/245/295 152/258/295
f 149/247/296 150/299/296 131/264/296
f 149/247/297 139/246/297 150/299/297
f 139/246/298 126/302/298 150/299/298
f 147/244/299 148/294/299 135/276/299
f 147/244/300 140/243/300 148/294/300
f 140/243/301 130/303/301 148/294/301
f 141/304/302 146/255/302 130/254/302
f 141/241/303 144/240/303 146/305/303
f 144/306/304 129/251/304 146/255/304
f 144/240/305 145/307/305 129/308/305
f 144/240/306 142/239/306 145/307/306
f 142/239/307 128/309/307 145/307/307
f 142/239/308 143/310/308 128/309/308
f 142/239/309 137/236/309 143/310/309
f 137/236/310 127/311/310 143/310/310
f 140/238/311 141/241/311 130/312/311
f 140/238/312 138/235/312 141/241/312
f 138/235/313 125/234/313 141/241/313
f 137/236/314 139/313/314 127/311/314
f 137/236/315 138/235/315 139/313/315
f 138/235/316 126/237/316 139/313/316
f 167/314/317 180/315/317 179/316/317
f 168/317/318 180/315/318 182/318/318
f 167/314/319 179/316/319 184/319/319
f 167/314/320 184/319/320 186/320/320
f 167/314/321 186/320/321 183/321/321
f 168/322/322 182/323/322 189/324/322
f 169/325/323 181/326/323 191/327/323
f 170/328/324 185/329/324 193/330/324
f 171/331/325 187/332/325 195/333/325
f 172/334/326 188/335/326 197/336/326
f 168/322/327 189/324/327 192/337/327
f 169/325/328 191/327/328 194/338/328
f 170/339/329 193/340/329 196/341/329
f 171/331/330 195/333/330 198/342/330
f 172/334/331 197/336/331 190/343/331
f 173/344/332 199/345/332 204/346/332
f 174/347/333 200/348/333 206/349/333
f 175/350/334 201/351/334 207/352/334
f 176/353/335 202/354/335 208/355/335
f 177/356/336 203/357/336 205/358/336
f 205/359/337 208/360/337 178/361/337
f 205/359/338 203/362/338 208/360/338
f 203/363/339 176/353/339 208/355/339
f 208/360/340 207/364/340 178/361/340
f 208/355/341 202/354/341 207/365/341
f 202/354/342 175/366/342 207/365/342
f 207/364/343 206/367/343 178/361/343
f 207/364/344 201/368/344 206/367/344
f 201/368/345 174/369/345 206/367/345
f 206/367/346 204/370/346 178/361/346
f 206/349/347 200/348/347 204/346/347
f 200/348/348 173/344/348 204/346/348
f 204/370/349 205/359/349 178/361/349
f 204/370/350 199/371/350 205/359/350
f 199/372/351 177/356/351 205/358/351
f 190/373/352 203/357/352 177/356/352
f 190/343/353 197/336/353 203/363/353
f 197/336/354 176/353/354 203/363/354
f 198/342/355 202/354/355 176/353/355
f 198/342/356 195/333/356 202/354/356
f 195/333/357 175/366/357 202/354/357
f 196/341/358 201/351/358 175/350/358
f 196/341/359 193/340/359 201/351/359
f 193/340/360 174/374/360 201/351/360
f 194/338/361 200/348/361 174/347/361
f 194/338/362 191/327/362 200/348/362
f 191/327/363 173/344/363 200/348/363
f 192/375/364 199/345/364 173/344/364
f 192/337/365 189/324/365 199/372/365
f 189/324/366 177/356/366 199/372/366
f 197/336/367 198/342/367 176/353/367
f 197/336/368 188/335/368 198/342/368
f 188/335/369 171/331/369 198/342/369
f 195/333/370 196/376/370 175/366/370
f 195/333/371 187/332/371 196/376/371
f 187/377/372 170/339/372 196/341/372
f 193/340/373 194/378/373 174/374/373
f 193/340/374 185/379/374 194/378/374
f 185/329/375 169/325/375 194/338/375
f 191/327/376 192/375/376 173/344/376
f 191/327/377 181/326/377 192/375/377
f 181/326/378 168/380/378 192/375/378
f 189/324/379 190/373/379 177/356/379
f 189/324/380 182/323/380 190/373/380
f 182/323/381 172/381/381 190/373/381
f 183/321/382 188/382/382 172/383/382
f 183/321/383 186/320/383 188/382/383
f 186/320/384 171/384/384 188/382/384
f 186/320/385 187/385/385 171/384/385
f 186/320/386 184/319/386 187/385/386
f 184/319/387 170/386/387 187/385/387
f 184/319/388 185/387/388 170/386/388
f 184/319/389 179/316/389 185/387/389
f 179/316/390 169/388/390 185/387/390
f 182/318/391 183/321/391 172/383/391
f 182/318/392 180/315/392 183/321/392
f 180/315/393 167/314/393 183/321/393
f 179/316/394 181/389/394 169/388/394
f 179/316/395 180/315/395 181/389/395
f 180/315/396 168/317/396 181/389/396
f 209/390/397 222/391/397 221/392/397
f 210/393/398 222/394/398 224/395/398
f 209/390/399 221/392/399 226/396/399
f 209/390/400 226/396/400 228/397/400
f 209/390/401 228/397/401 225/398/401
f 210/393/402 224/395/402 231/399/402
f 211/400/403 223/401/403 233/402/403
f 212/403/404 227/404/404 235/405/404
f 213/406/405 229/407/405 237/408/405
f 214/409/406 230/410/406 239/411/406
f 210/393/407 231/399/407 234/412/407
f 211/400/408 233/402/408 236/413/408
f 212/403/409 235/405/409 238/414/409
f 213/406/410 237/408/410 240/415/410
f 214/409/411 239/411/411 232/416/411
f 215/417/412 241/418/412 246/419/412
f 216/420/413 242/421/413 248/422/413
f 217/423/414 243/424/414 249/425/414
f 218/426/415 244/427/415 250/428/415
f 219/429/416 245/430/416 247/431/416
f 247/431/417 250/432/417 220/433/417
f 247/431/418 245/430/418 250/432/418
f 245/434/419 218/426/419 250/428/419
f 250/428/420 249/435/420 220/436/420
f 250/432/421 244/437/421 249/425/421
f 244/427/422 217/438/422 249/435/422
f 249/425/423 248/439/423 220/433/423
f 249/425/424 243/424/424 248/439/424
f 243/424/425 216/440/425 248/439/425
f 248/439/426 246/441/426 220/433/426
f 248/422/427 242/421/427 246/419/427
f 242/421/428 215/417/428 246/419/428
f 246/441/429 247/431/429 220/433/429
f 246/441/430 241/442/430 247/431/430
f 241/442/431 219/429/431 247/431/431
f 232/416/432 245/434/432 219/443/432
f 232/416/433 239/411/433 245/434/433
f 239/411/434 218/426/434 245/434/434
f 240/415/435 244/427/435 218/426/435
f 240/415/436 237/408/436 244/427/436
f 237/408/437 217/438/437 244/427/437
f 238/414/438 243/444/438 217/445/438
f 238/414/439 235/405/439 243/444/439
f 235/405/440 216/446/440 243/444/440
f 236/413/441 242/421/441 216/420/441
f 236/413/442 233/402/442 242/421/442
f 233/402/443 215/417/443 242/421/443
f 234/412/444 241/418/444 215/417/444
f 234/412/445 231/399/445 241/418/445
f 231/399/446 219/447/446 241/418/446
f 239/411/447 240/415/447 218/426/447
f 239/411/448 230/410/448 240/415/448
f 230/410/449 213/406/449 240/415/449
f 237/408/450 238/448/450 217/438/450
f 237/408/451 229/407/451 238/448/451
f 229/449/452 212/403/452 238/414/452
f 235/450/453 236/413/453 216/420/453
f 235/450/454 227/451/454 236/413/454
f 227/451/455 211/400/455 236/413/455
f 233/402/456 234/412/456 215/417/456
f 233/402/457 223/401/457 234/412/457
f 223/401/458 210/393/458 234/412/458
f 231/452/459 232/453/459 219/454/459
f 231/452/460 224/455/460 232/453/460
f 224/456/461 214/409/461 232/416/461
f 225/457/462 230/410/462 214/409/462
f 225/457/463 228/458/463 230/410/463
f 228/458/464 213/406/464 230/410/464
f 228/458/465 229/407/465 213/406/465
f 228/458/466 226/459/466 229/407/466
f 226/460/467 212/403/467 229/449/467
f 226/460/468 227/404/468 212/403/468
f 226/461/469 221/462/469 227/451/469
f 221/462/470 211/400/470 227/451/470
f 224/456/471 225/457/471 214/409/471
f 224/463/472 222/391/472 225/398/472
f 222/391/473 209/390/473 225/398/473
f 221/462/474 223/401/474 211/400/474
f 221/462/475 222/394/475 223/401/475
f 222/394/476 210/393/476 223/401/476
f 252/14/7 253/464/7 254/15/7
f 26/62/477 257/27/477 32/63/477
f 256/28/7 251/465/7 259/54/7
f 255/13/478 36/466/478 32/63/478
f 31/35/15 36/53/15 254/36/15
f 31/65/479 252/14/479 24/26/479
f 259/54/57 14/70/57 24/26/57
f 251/465/480 26/62/480 3/69/480
f 14/70/481 251/465/481 3/69/481
f 26/62/477 256/28/477 257/27/477
f 255/13/478 254/15/478 36/466/478
f 31/65/479 253/464/479 252/14/479
f 251/465/480 256/28/480 26/62/480
f 14/70/481 259/54/481 251/465/481
f 260/467/482 262/468/482 263/469/482
f 260/467/482 261/470/482 262/468/482
f 264/471/483 267/472/483 266/473/483
f 264/471/483 266/473/483 265/474/483
f 269/475/484 271/476/484 268/477/484
f 269/475/484 270/478/484 271/476/484
f 273/479/485 272/480/485 275/481/485
f 273/479/485 275/481/485 274/482/485
f 277/483/486 279/484/486 276/485/486
f 277/483/486 278/486/486 279/484/486
f 281/487/487 280/488/487 283/489/487
f 281/487/487 283/489/487 282/490/487
f 284/491/488 286/492/488 287/493/488
f 284/491/488 285/494/488 286/492/488
f 288/495/489 291/496/489 290/497/489
f 288/495/489 290/497/489 289/498/489
f 293/499/490 295/500/490 292/501/490
f 293/499/490 294/502/490 295/500/490
f 297/503/491 296/504/491 299/505/491
f 297/503/491 299/505/491 298/506/491
f 301/507/492 303/508/492 300/509/492
f 301/507/492 302/510/492 303/508/492
f 305/511/493 304/512/493 307/513/493
f 305/511/493 307/513/493 306/514/493
f 309/515/494 311/516/494 308/517/494
f 309/515/494 310/518/494 311/516/494
f 313/519/495 312/520/495 315/521/495
f 313/519/495 315/521/495 314/522/495
f 317/523/496 319/524/496 316/525/496
f 317/523/496 318/526/496 319/524/496
f 321/527/497 320/528/497 323/529/497
f 321/527/497 323/529/497 322/530/497
f 324/531/498 326/532/498 327/533/498
f 324/531/498 325/534/498 326/532/498
f 328/535/499 331/536/499 330/537/499
f 328/535/499 330/537/499 329/538/499
f 333/539/500 335/540/500 332/541/500
f 333/539/500 334/542/500 335/540/500
f 337/543/501 336/544/501 339/545/501
f 337/543/501 339/545/501 338/546/501
f 341/547/502 343/548/502 340/549/502
f 341/547/502 342/550/502 343/548/502
f 345/551/503 344/552/503 347/553/503
f 345/551/503 347/553/503 346/554/503
f 349/555/504 351/556/504 348/557/504
f 349/555/504 350/558/504 351/556/504
f 353/559/505 352/560/505 355/561/505
f 353/559/505 355/561/505 354/562/505
f 357/563/506 359/564/506 356/565/506
f 357/563/506 358/566/506 359/564/506
f 361/567/507 360/568/507 363/569/507
f 361/567/507 363/569/507 362/570/507
f 365/571/508 367/572/508 364/573/508
f 365/571/508 366/574/508 367/572/508
f 369/575/509 368/576/509 371/577/509
f 369/575/509 371/577/509 370/578/509
f 372/579/510 374/580/510 375/581/510
f 372/579/510 373/582/510 374/580/510
f 376/583/511 379/584/511 378/585/511
f 376/583/511 378/585/511 377/586/511
f 380/587/512 382/588/512 383/589/512
f 380/587/512 381/590/512 382/588/512
f 384/591/513 387/592/513 386/593/513
f 384/591/513 386/593/513 385/594/513
f 389/595/514 391/596/514 388/597/514
f 389/595/514 390/598/514 391/596/514
f 393/599/515 392/600/515 395/601/515
f 393/599/515 395/601/515 394/602/515
f 397/603/516 399/604/516 396/605/516
f 397/603/516 398/606/516 399/604/516
f 401/607/517 400/608/517 403/609/517
f 401/607/517 403/609/517 402/610/517
