# Blender 5.0.1
# www.blender.org
o bush_a
v 0.108680 0.288156 -0.308910
v 0.548577 0.122209 -0.130171
v -0.414540 0.288156 -0.122026
v -0.078997 0.588073 -0.155410
v 0.591811 0.470412 -0.151377
v 0.258167 0.049266 0.277566
v -0.308734 0.130691 0.290340
v -0.351967 0.461930 0.311546
v 0.259545 0.529248 0.279336
v 0.611362 0.288156 0.285072
v 0.108680 0.288156 0.533025
v 0.019895 0.146272 -0.283362
v 0.297607 0.216885 -0.214283
v 0.263988 0.039973 -0.160918
v 0.629368 0.288156 -0.169799
v 0.321629 0.368488 -0.252413
v -0.178700 0.288156 -0.283436
v -0.328289 0.123312 -0.179332
v 0.009931 0.445962 -0.324769
v -0.370498 0.468922 -0.204923
v 0.267749 0.542348 -0.166887
v 0.674877 0.192635 0.085598
v 0.728592 0.392738 0.085598
v 0.459921 0.037138 0.085598
v -0.421039 0.198789 0.085598
v -0.256853 0.026923 0.085598
v -0.265262 0.555397 0.085598
v -0.474754 0.386584 0.085598
v 0.468329 0.545183 0.085598
v 0.108680 0.583141 0.085598
v 0.472531 0.150896 0.306198
v -0.043336 0.045234 0.326889
v -0.362523 0.288156 0.316723
v -0.047097 0.537087 0.332858
v 0.514739 0.441339 0.331788
v 0.196593 0.147665 0.450936
v 0.414614 0.288156 0.478459
v -0.155875 0.188355 0.505522
v -0.179897 0.397018 0.543652
v 0.206557 0.444569 0.492343
v 0.467481 0.296484 -0.176906
v 0.697453 0.210011 -0.072535
v 0.387545 0.169156 -0.061412
v 0.152413 0.296484 -0.085930
v 0.386774 0.425041 -0.062498
v 0.721657 0.392058 -0.085544
v 0.540813 0.179675 0.154269
v 0.236934 0.209794 0.174994
v 0.212730 0.392275 0.188004
v 0.541585 0.414522 0.155355
v 0.780407 0.296484 0.187148
v 0.467481 0.296484 0.286170
v 0.424596 0.228174 -0.144216
v 0.590303 0.250301 -0.162558
v 0.545159 0.172758 -0.084034
v 0.774192 0.296484 -0.113782
v 0.603751 0.347724 -0.185950
v 0.292624 0.296484 -0.194980
v 0.230992 0.207559 -0.106045
v 0.419018 0.373680 -0.169619
v 0.207362 0.394294 -0.121745
v 0.547264 0.423564 -0.087696
v 0.725521 0.253092 0.051075
v 0.755593 0.344933 0.051075
v 0.467481 0.177486 0.051075
v 0.633155 0.178468 0.051075
v 0.212557 0.253616 0.051075
v 0.303495 0.179669 0.051075
v 0.298787 0.416652 0.051075
v 0.182485 0.344409 0.051075
v 0.637862 0.417854 0.051075
v 0.467481 0.407406 0.051075
v 0.683058 0.215423 0.194301
v 0.392980 0.177817 0.180660
v 0.167084 0.296484 0.212538
v 0.390874 0.418505 0.184322
v 0.706688 0.386430 0.210000
v 0.508849 0.230590 0.239459
v 0.649825 0.296484 0.307666
v 0.326772 0.243575 0.295822
v 0.313323 0.354450 0.319214
v 0.514428 0.371264 0.264861
v 0.082935 0.327048 0.189995
v 0.444143 0.202974 0.264982
v -0.028781 0.164488 0.294497
v -0.348424 0.327048 0.270236
v -0.027598 0.487886 0.295827
v 0.407040 0.438376 0.280917
v 0.171920 0.197565 0.520160
v -0.231179 0.219150 0.555010
v -0.194075 0.422200 0.539075
v 0.170737 0.454809 0.518831
v 0.469639 0.327048 0.554466
v 0.082935 0.327048 0.704349
v 0.025650 0.243691 0.211673
v 0.259571 0.266374 0.174625
v 0.182310 0.182451 0.282001
v 0.489416 0.327048 0.245539
v 0.238954 0.380640 0.203276
v -0.142434 0.327048 0.166715
v -0.250550 0.212495 0.243078
v 0.034201 0.397961 0.242787
v -0.214326 0.429157 0.262308
v 0.179083 0.466948 0.286486
v 0.538565 0.257056 0.420108
v 0.492466 0.389958 0.420108
v 0.082935 0.163038 0.420108
v 0.344980 0.156525 0.420108
v -0.351292 0.260343 0.420108
v -0.195281 0.146002 0.420108
v -0.188065 0.503397 0.420108
v -0.305192 0.386670 0.420108
v 0.337764 0.492874 0.420108
v 0.082935 0.502366 0.420108
v 0.395743 0.219598 0.586162
v -0.015746 0.183460 0.557252
v -0.279022 0.327048 0.575557
v -0.012519 0.465939 0.552767
v 0.359518 0.422054 0.566932
v 0.149997 0.229465 0.664117
v 0.324184 0.327048 0.691355
v -0.124299 0.255863 0.708117
v -0.103682 0.391150 0.679465
v 0.141446 0.412188 0.633003
v -0.197699 0.348155 -0.330017
v 0.106423 0.234318 -0.119917
v -0.283823 0.211592 -0.080768
v -0.582176 0.348155 -0.123364
v -0.282633 0.482832 -0.079216
v 0.069088 0.448018 -0.101332
v -0.073216 0.150766 0.193726
v -0.554477 0.214609 0.209093
v -0.517143 0.467727 0.190507
v -0.074406 0.543657 0.192175
v 0.213993 0.348155 0.197287
v -0.197699 0.348155 0.319142
v -0.267451 0.237553 -0.262710
v 0.016441 0.268000 -0.313494
v -0.088817 0.175512 -0.143924
v 0.141902 0.348155 -0.137580
v -0.004304 0.420546 -0.280075
v -0.420796 0.348155 -0.259281
v -0.499616 0.235143 -0.154300
v -0.258847 0.445114 -0.226419
v -0.463166 0.447524 -0.131871
v -0.092065 0.515650 -0.138692
v 0.232123 0.276204 0.031481
v 0.185737 0.412342 0.031481
v -0.197699 0.149049 0.031481
v 0.096050 0.139853 0.031481
v -0.692178 0.265381 0.031481
v -0.445178 0.172664 0.031481
v -0.437918 0.518498 0.031481
v -0.645792 0.423165 0.031481
v 0.088789 0.551309 0.031481
v -0.197699 0.559662 0.031481
v 0.124961 0.227378 0.230027
v -0.290335 0.201272 0.180714
v -0.605986 0.348155 0.234735
v -0.287088 0.489890 0.175482
v 0.088511 0.455289 0.207598
v -0.135568 0.249636 0.293532
v 0.038963 0.348155 0.339923
v -0.363280 0.286176 0.298228
v -0.342535 0.402369 0.264809
v -0.144172 0.433031 0.257242
v 0.254379 0.273514 -0.551795
v 0.543524 0.147479 -0.378424
v 0.152803 0.085952 -0.368058
v -0.090122 0.273514 -0.373762
v 0.153757 0.459315 -0.366942
v 0.513593 0.386503 -0.365056
v 0.352255 0.092785 -0.134837
v -0.062917 0.135208 -0.107571
v -0.032986 0.398774 -0.120939
v 0.351301 0.452482 -0.135953
v 0.640411 0.273514 -0.109800
v 0.254379 0.273514 0.029075
v 0.187281 0.149617 -0.503180
v 0.417120 0.202577 -0.484495
v 0.337930 0.119242 -0.370040
v 0.597168 0.273514 -0.402383
v 0.400489 0.337202 -0.460459
v 0.029758 0.273514 -0.511928
v -0.027160 0.150793 -0.404711
v 0.194179 0.384674 -0.477078
v 0.002062 0.383498 -0.388579
v 0.335326 0.422979 -0.366277
v 0.741240 0.178608 -0.249284
v 0.704052 0.361172 -0.249284
v 0.254379 0.036116 -0.249284
v 0.507009 0.064900 -0.249284
v -0.210063 0.182978 -0.249284
v -0.008940 0.056073 -0.249284
v -0.003119 0.486149 -0.249284
v -0.172875 0.356801 -0.249284
v 0.501188 0.477322 -0.249284
v 0.254379 0.522489 -0.249284
v 0.527908 0.154284 -0.098279
v 0.160522 0.100211 -0.113632
v -0.093126 0.273514 -0.094078
v 0.163125 0.442010 -0.117395
v 0.498687 0.380007 -0.114411
v 0.311592 0.167871 -0.032794
v 0.453219 0.273514 -0.016786
v 0.079603 0.197331 0.003322
v 0.096234 0.342448 -0.020715
v 0.304693 0.366421 -0.058897
v -0.011688 0.000000 -0.155045
v -0.071636 0.000000 -0.161599
v -0.095653 0.000000 -0.155489
v 0.153803 0.000000 0.143544
v -0.124584 0.000000 -0.090952
v -0.052776 0.000000 0.085598
v 0.060013 0.000000 0.162845
v 0.236706 0.000000 0.085598
v 0.162670 0.000000 -0.000099
v 0.346741 0.494536 -0.039880
v 0.259180 0.527071 0.139601
v 0.387918 0.705789 0.081810
v 0.438915 0.686839 -0.022725
v 0.346741 0.494536 -0.039880
v 0.259180 0.527071 0.139601
v 0.387918 0.705789 0.081810
v 0.438915 0.686839 -0.022725
v 0.433926 0.394233 0.198186
v 0.353784 0.331915 0.338013
v 0.709107 0.437737 0.521048
v 0.752046 0.471126 0.446129
v 0.433926 0.394233 0.198186
v 0.353784 0.331915 0.338013
v 0.709107 0.437737 0.521048
v 0.752046 0.471126 0.446129
v 0.394849 0.278304 0.224478
v 0.242392 0.274683 0.345012
v 0.620486 0.362693 0.645386
v 0.705922 0.364722 0.577839
v 0.394849 0.278304 0.224478
v 0.242392 0.274683 0.345012
v 0.620486 0.362693 0.645386
v 0.705922 0.364722 0.577839
v 0.198441 0.447142 0.172529
v 0.037514 0.413349 0.269895
v 0.088306 0.606533 0.369229
v 0.164773 0.622590 0.322963
v 0.198441 0.447142 0.172529
v 0.037514 0.413349 0.269895
v 0.088306 0.606533 0.369229
v 0.164773 0.622590 0.322963
v 0.194745 0.357089 0.401154
v 0.010538 0.374913 0.386219
v 0.051104 0.535735 0.820530
v 0.137311 0.527393 0.827519
v 0.194745 0.357089 0.401154
v 0.010538 0.374913 0.386219
v 0.051104 0.535735 0.820530
v 0.137311 0.527393 0.827519
v -0.025646 0.279640 0.404313
v -0.155101 0.346015 0.294237
v -0.330554 0.416677 0.608321
v -0.276199 0.388808 0.654539
v -0.025646 0.279640 0.404313
v -0.155101 0.346015 0.294237
v -0.330554 0.416677 0.608321
v -0.276199 0.388808 0.654539
v 0.023205 0.430764 0.207962
v -0.127275 0.403811 0.071901
v -0.218391 0.592678 0.155865
v -0.153496 0.604301 0.214541
v 0.023205 0.430764 0.207962
v -0.127275 0.403811 0.071901
v -0.218391 0.592678 0.155865
v -0.153496 0.604301 0.214541
v -0.252828 0.381626 0.115857
v -0.287728 0.314841 -0.013544
v -0.752701 0.483145 -0.019910
v -0.737649 0.511950 0.035901
v -0.252828 0.381626 0.115857
v -0.287728 0.314841 -0.013544
v -0.752701 0.483145 -0.019910
v -0.737649 0.511950 0.035901
v -0.274309 0.214727 0.096868
v -0.201145 0.258519 -0.074646
v -0.603634 0.329988 -0.108241
v -0.635419 0.310964 -0.033731
v -0.274309 0.214727 0.096868
v -0.201145 0.258519 -0.074646
v -0.603634 0.329988 -0.108241
v -0.635419 0.310964 -0.033731
v -0.073630 0.439004 0.017123
v 0.055103 0.418906 -0.142884
v -0.058887 0.662790 -0.203215
v -0.121133 0.672508 -0.125847
v -0.073630 0.439004 0.017123
v 0.055103 0.418906 -0.142884
v -0.058887 0.662790 -0.203215
v -0.121133 0.672508 -0.125847
v -0.134735 0.225637 -0.190126
v 0.023966 0.226196 -0.252373
v -0.178184 0.378431 -0.558055
v -0.272889 0.378098 -0.520910
v -0.134735 0.225637 -0.190126
v 0.023966 0.226196 -0.252373
v -0.178184 0.378431 -0.558055
v -0.272889 0.378098 -0.520910
v 0.044488 0.364929 -0.254865
v 0.189664 0.423877 -0.221633
v 0.165840 0.518631 -0.604611
v 0.087774 0.486932 -0.622481
v 0.044488 0.364929 -0.254865
v 0.189664 0.423877 -0.221633
v 0.165840 0.518631 -0.604611
v 0.087774 0.486932 -0.622481
v 0.116219 0.510758 -0.067900
v 0.284163 0.494416 -0.087348
v 0.282285 0.742755 -0.161960
v 0.207830 0.750000 -0.153337
v 0.116219 0.510758 -0.067900
v 0.284163 0.494416 -0.087348
v 0.282285 0.742755 -0.161960
v 0.207830 0.750000 -0.153337
v 0.453324 0.246783 -0.115121
v 0.514307 0.254728 0.048762
v 0.847299 0.418587 -0.093487
v 0.810827 0.413836 -0.191499
v 0.453324 0.246783 -0.115121
v 0.514307 0.254728 0.048762
v 0.847299 0.418587 -0.093487
v 0.810827 0.413836 -0.191499
vn 0.3093 -0.3526 -0.8832
vn 0.1924 -0.3156 -0.9292
vn -0.0876 -0.1232 -0.9885
vn -0.0872 -0.1535 -0.9843
vn 0.2379 0.0514 -0.9699
vn 0.8180 -0.4755 -0.3236
vn 0.1385 -0.9780 -0.1558
vn -0.8950 -0.3989 -0.1997
vn -0.3527 0.9241 -0.1473
vn 0.2214 0.9572 -0.1866
vn 0.5843 -0.8077 -0.0784
vn -0.1306 -0.9900 0.0531
vn -0.9510 -0.2720 -0.1469
vn -0.0738 0.9942 0.0778
vn 0.5054 0.8628 -0.0089
vn 0.2971 -0.7813 0.5489
vn -0.3291 -0.8272 0.4554
vn -0.7926 0.0662 0.6061
vn 0.0911 0.9174 0.3874
vn 0.6839 0.2192 0.6958
vn 0.1737 0.1446 0.9741
vn 0.4101 0.4765 0.7776
vn 0.2215 0.8860 0.4073
vn 0.1066 0.1873 0.9765
vn -0.0320 0.8416 0.5391
vn -0.2446 0.8715 0.4250
vn -0.0330 -0.1833 0.9825
vn -0.7123 -0.2047 0.6714
vn -0.7184 -0.3465 0.6032
vn 0.0831 -0.4635 0.8822
vn 0.0074 -0.7781 0.6281
vn 0.0959 -0.8507 0.5169
vn 0.1592 -0.4219 0.8926
vn 0.3503 -0.6716 0.6529
vn 0.6013 -0.5140 0.6117
vn 0.7498 0.2919 0.5937
vn 0.4881 0.8333 0.2595
vn 0.2438 0.9092 0.3375
vn 0.0635 0.9731 0.2213
vn -0.0733 0.9877 0.1378
vn -0.2481 0.9251 0.2875
vn -0.8859 0.0675 0.4589
vn -0.9075 -0.2596 0.3301
vn -0.8644 -0.3549 0.3561
vn -0.3305 -0.8730 0.3587
vn -0.0000 -1.0000 -0.0000
vn 0.0620 -0.9515 0.3014
vn 0.3440 -0.8424 0.4147
vn 0.5471 -0.7563 0.3587
vn 0.6506 -0.5832 0.4864
vn 0.1030 0.9761 0.1913
vn 0.1045 0.9901 -0.0941
vn 0.1277 0.9886 -0.0792
vn -0.6254 0.7761 0.0811
vn -0.6274 0.7786 -0.0045
vn -0.9452 0.0859 -0.3149
vn -0.7132 -0.6813 0.1646
vn -0.7219 -0.6897 -0.0563
vn 0.1598 -0.9603 0.2286
vn 0.1625 -0.9767 -0.1404
vn 0.2935 -0.9243 -0.2439
vn 0.8867 -0.2380 0.3963
vn 0.9326 -0.2504 -0.2598
vn 0.8741 0.2237 -0.4312
vn 0.1465 0.4728 -0.8689
vn 0.3114 0.4954 -0.8109
vn 0.0831 0.7844 -0.6146
vn -0.1730 0.7079 -0.6848
vn -0.2933 0.1016 -0.9506
vn -0.5491 -0.2341 -0.8023
vn -0.5648 -0.0086 -0.8252
vn -0.2474 -0.3468 -0.9047
vn 0.2939 0.1559 -0.9431
vn 0.1842 -0.2671 -0.9459
vn 0.3434 -0.2799 -0.8965
vn 0.3057 -0.3277 -0.8939
vn 0.1919 -0.3167 -0.9289
vn -0.0466 -0.4072 -0.9121
vn 0.3431 -0.6347 -0.6924
vn 0.0904 -0.4755 -0.8750
vn 0.1015 0.1565 -0.9824
vn -0.0821 0.0425 -0.9957
vn 0.7594 -0.6484 0.0535
vn 0.0303 -0.9982 0.0524
vn -0.7321 -0.6721 0.1111
vn -0.1539 0.9870 -0.0463
vn 0.1782 0.9811 -0.0760
vn 0.6233 -0.7715 0.1274
vn -0.0133 -0.9964 0.0832
vn -0.9046 -0.2996 0.3034
vn 0.0544 0.9918 0.1154
vn 0.5198 0.8391 0.1603
vn 0.0636 -0.8459 0.5295
vn -0.1980 -0.8959 0.3977
vn -0.6349 0.4613 0.6197
vn 0.0985 0.9169 0.3867
vn 0.6363 0.3463 0.6894
vn -0.1103 0.3358 0.9355
vn 0.1504 0.6820 0.7157
vn 0.0337 0.9266 0.3744
vn 0.2500 0.1169 0.9612
vn 0.0472 0.8915 0.4505
vn -0.1283 0.9224 0.3643
vn 0.1376 -0.1885 0.9724
vn -0.5097 -0.2364 0.8272
vn -0.5089 -0.6530 0.5609
vn 0.2322 -0.4613 0.8563
vn 0.1072 -0.8356 0.5388
vn 0.1068 -0.8353 0.5393
vn -0.0924 -0.6138 0.7840
vn 0.0849 -0.7986 0.5959
vn 0.5427 -0.5998 0.5880
vn 0.7807 0.6200 0.0784
vn 0.5256 0.8486 -0.0598
vn 0.1201 0.9825 0.1423
vn 0.0117 0.9970 -0.0763
vn 0.0547 0.9972 -0.0516
vn -0.1434 0.9860 0.0854
vn -0.8973 0.4391 0.0447
vn -0.9336 -0.3092 -0.1808
vn -0.7899 -0.6103 -0.0604
vn -0.2035 -0.9708 0.1267
vn -0.0133 -0.9999 -0.0051
vn 0.0145 -0.9998 0.0109
vn 0.1911 -0.9645 0.1823
vn 0.6283 -0.7777 -0.0183
vn 0.6393 -0.7689 -0.0127
vn -0.0612 0.9978 -0.0246
vn -0.0610 0.9949 0.0808
vn 0.0299 0.9907 0.1326
vn -0.5193 0.8360 -0.1775
vn -0.5203 0.8375 0.1669
vn -0.8689 0.4946 0.0177
vn -0.6239 -0.7672 -0.1486
vn -0.6236 -0.7669 0.1516
vn -0.2182 -0.9732 -0.0721
vn 0.0059 -0.9998 0.0170
vn 0.0059 -0.9992 0.0384
vn 0.2444 -0.9624 -0.1185
vn 0.9142 -0.2993 -0.2733
vn 0.9321 -0.3052 0.1949
vn 0.8695 0.4917 -0.0464
vn 0.1555 0.8232 -0.5460
vn 0.0614 0.8069 -0.5875
vn -0.0619 0.8926 -0.4466
vn -0.0107 0.9004 -0.4349
vn -0.1420 0.5110 -0.8478
vn -0.6130 0.0558 -0.7881
vn -0.5769 -0.3420 -0.7418
vn -0.0714 -0.6802 -0.7296
vn -0.0302 -0.8075 -0.5891
vn 0.4603 0.4747 -0.7502
vn 0.3084 -0.2621 -0.9144
vn 0.0245 -0.2366 -0.9713
vn -0.0677 -0.7979 -0.5990
vn 0.0185 -0.7167 -0.6971
vn 0.2311 -0.7554 -0.6131
vn -0.1395 -0.1584 -0.9775
vn 0.3479 -0.2677 -0.8985
vn 0.0976 -0.3128 -0.9448
vn 0.0798 0.6299 -0.7725
vn -0.1150 0.5411 -0.8330
vn 0.8455 -0.3690 -0.3860
vn 0.0797 -0.9934 -0.0823
vn -0.7622 -0.5859 -0.2754
vn -0.2128 0.8973 -0.3867
vn 0.1105 0.9429 -0.3142
vn 0.4607 -0.8871 0.0289
vn 0.0610 -0.9960 -0.0657
vn -0.9310 0.3397 0.1334
vn 0.0038 0.9929 -0.1190
vn 0.5532 0.8315 -0.0503
vn 0.0309 -0.9748 0.2207
vn -0.1575 -0.9297 0.3329
vn -0.5427 0.6757 0.4989
vn 0.1252 0.9185 0.3750
vn 0.5618 0.5728 0.5969
vn 0.0420 0.6246 0.7798
vn 0.1554 0.7633 0.6270
vn 0.0683 0.9288 0.3643
vn 0.0994 0.5981 0.7952
vn 0.0257 0.8527 0.5218
vn -0.2441 0.9018 0.3566
vn -0.0561 0.2150 0.9750
vn -0.5599 0.2525 0.7891
vn -0.6942 -0.4192 0.5851
vn 0.1221 -0.3054 0.9444
vn -0.0197 -0.9068 0.4210
vn 0.1184 -0.9655 0.2320
vn 0.0504 -0.3509 0.9351
vn 0.2188 -0.6043 0.7661
vn 0.6638 -0.2485 0.7054
vn 0.6204 0.6645 0.4165
vn 0.5276 0.7931 0.3044
vn 0.0475 0.9024 0.4282
vn 0.1200 0.9319 0.3422
vn 0.0037 0.9636 0.2672
vn -0.2354 0.8082 0.5397
vn -0.6180 0.6936 0.3701
vn -0.9023 0.3293 0.2782
vn -0.7363 -0.4265 0.5253
vn -0.1512 -0.8853 0.4398
vn 0.0600 -0.9801 0.1891
vn 0.1178 -0.9663 0.2287
vn -0.0139 -0.9333 0.3588
vn 0.4522 -0.8709 0.1925
vn 0.7482 -0.3479 0.5650
vn 0.0340 0.9119 0.4091
vn 0.0362 0.9721 -0.2316
vn 0.0902 0.9768 -0.1940
vn -0.6443 0.6465 0.4087
vn -0.6900 0.6924 -0.2109
vn -0.6052 0.7841 -0.1374
vn -0.5692 -0.7767 0.2697
vn -0.5870 -0.8010 -0.1176
vn -0.1312 -0.9408 -0.3124
vn -0.0233 -0.9385 0.3446
vn -0.0245 -0.9874 -0.1564
vn 0.0594 -0.9661 -0.2513
vn 0.9014 0.3127 0.2995
vn 0.9363 0.3248 -0.1334
vn 0.7429 0.6255 -0.2384
vn 0.0731 0.7180 -0.6922
vn -0.0884 0.6589 -0.7470
vn 0.0134 0.5148 -0.8572
vn -0.0043 0.5059 -0.8626
vn 0.0307 0.6945 -0.7188
vn -0.3983 0.4616 -0.7926
vn -0.4426 -0.1693 -0.8806
vn -0.0364 -0.5303 -0.8470
vn 0.0033 -0.7238 -0.6900
vn 0.2416 0.4517 -0.8589
vn 0.2167 0.2740 -0.9370
vn -0.0009 0.2431 -0.9700
vn 0.0216 -0.7296 -0.6835
vn -0.0236 -0.7794 -0.6261
vn 0.0230 -0.7957 -0.6053
vn -0.1070 -0.4668 -0.8779
vn 0.8333 -0.3287 -0.4445
vn -0.2816 -0.3629 -0.8882
vn -0.2328 0.6377 -0.7343
vn -0.0810 0.7034 -0.7061
vn 0.7698 -0.3251 -0.5492
vn -0.2676 -0.9143 -0.3041
vn -0.6834 -0.3196 -0.6563
vn -0.0663 0.9189 -0.3890
vn 0.4245 0.6831 -0.5943
vn 0.6589 -0.6576 -0.3652
vn -0.0856 -0.8968 -0.4340
vn -0.8474 0.2491 -0.4688
vn -0.1477 0.8620 -0.4849
vn 0.7136 0.4978 -0.4930
vn 0.1225 -0.6657 0.7360
vn 0.0234 -0.8034 0.5950
vn -0.1941 0.4639 0.8643
vn -0.2105 0.5908 0.7788
vn 0.5260 0.5539 0.6454
vn -0.0689 0.6159 0.7848
vn 0.0640 0.7638 0.6423
vn 0.1489 0.4299 0.8905
vn -0.0650 0.6144 0.7863
vn -0.0886 0.7384 0.6685
vn -0.0243 0.7216 0.6919
vn -0.2315 0.3068 0.9232
vn -0.1689 0.3002 0.9388
vn -0.3114 -0.2936 0.9038
vn -0.0226 -0.2649 0.9640
vn -0.1237 -0.8392 0.5295
vn -0.2132 -0.7574 0.6171
vn -0.0835 -0.2997 0.9504
vn 0.1378 -0.6111 0.7795
vn 0.6121 -0.2476 0.7511
vn 0.6475 0.7413 0.1766
vn 0.7826 0.5460 0.2989
vn 0.3956 0.8061 0.4401
vn -0.2559 0.9227 0.2882
vn -0.1583 0.9236 0.3492
vn -0.0749 0.9602 0.2692
vn -0.6760 0.6384 0.3680
vn -0.9209 0.2707 0.2803
vn -0.7775 -0.3940 0.4902
vn -0.0263 -0.9764 0.2144
vn -0.0912 -0.9562 0.2780
vn -0.2332 -0.9539 0.1890
vn 0.2805 -0.8927 0.3527
vn 0.6930 -0.6915 0.2040
vn 0.8037 -0.5088 0.3087
vn 0.0291 0.9966 0.0770
vn 0.0283 0.9719 -0.2338
vn -0.2747 0.8757 -0.3970
vn -0.4155 0.9059 0.0822
vn -0.3958 0.8631 -0.3138
vn -0.5633 0.6288 -0.5360
vn -0.3514 -0.9362 0.0048
vn -0.3438 -0.9159 -0.2073
vn 0.0057 -0.9473 -0.3203
vn -0.0313 -0.9989 0.0346
vn -0.0308 -0.9853 -0.1678
vn 0.3062 -0.8169 -0.4888
vn 0.9459 0.3223 -0.0364
vn 0.8884 0.3027 -0.3453
vn 0.6596 0.6298 -0.4102
vn 0.4279 0.8503 -0.3064
vn -0.0425 0.8166 -0.5757
vn -0.2466 0.9285 -0.2777
vn -0.1106 0.9583 -0.2634
vn -0.2909 0.7051 -0.6467
vn -0.5262 0.5768 -0.6248
vn -0.6233 -0.2527 -0.7400
vn -0.3663 -0.4832 -0.7952
vn -0.0580 -0.9876 -0.1461
vn 0.6786 0.6312 -0.3756
vn 0.7358 0.2389 -0.6336
vn 0.1609 0.2320 -0.9593
vn -0.2288 -0.9606 -0.1577
vn 0.0096 -0.8804 -0.4742
vn 0.3088 -0.9024 -0.3005
vn 0.1729 -0.4395 -0.8814
vn 0.5012 -0.3627 -0.7857
vn -0.1678 -0.2800 -0.9452
vn -0.1520 0.4933 -0.8564
vn 0.2037 0.6197 -0.7579
vn 0.5476 -0.3752 -0.7479
vn 0.1494 -0.8597 -0.4885
vn -0.6554 -0.1496 -0.7403
vn -0.2994 0.7627 -0.5732
vn 0.1646 0.7846 -0.5978
vn 0.3980 -0.8198 -0.4117
vn -0.0712 -0.9401 -0.3335
vn -0.7673 0.1642 -0.6199
vn -0.1292 0.9155 -0.3811
vn 0.4209 0.7351 -0.5315
vn 0.1401 -0.7700 0.6224
vn -0.1094 -0.8006 0.5891
vn -0.4525 0.3893 0.8023
vn 0.0380 0.6551 0.7546
vn 0.3763 0.5336 0.7574
vn 0.1754 0.6251 0.7605
vn 0.1743 0.6239 0.7618
vn 0.1810 0.5998 0.7794
vn 0.0587 0.6694 0.7405
vn 0.0570 0.6756 0.7351
vn -0.1757 0.7440 0.6446
vn -0.2213 0.1840 0.9577
vn -0.4152 0.1948 0.8886
vn -0.5464 -0.1987 0.8136
vn 0.0767 -0.4726 0.8779
vn 0.0020 -0.7687 0.6397
vn 0.0356 -0.7981 0.6015
vn 0.2050 -0.4096 0.8889
vn 0.2338 -0.4445 0.8647
vn 0.4221 -0.3162 0.8496
vn 0.4616 0.6409 0.6134
vn 0.4194 0.7325 0.5363
vn 0.2973 0.7717 0.5623
vn 0.0041 0.8523 0.5230
vn -0.1246 0.8830 0.4526
vn -0.1927 0.8314 0.5212
vn -0.6734 0.4492 0.5871
vn -0.8331 0.1782 0.5237
vn -0.7128 -0.2206 0.6658
vn -0.1266 -0.8858 0.4464
vn -0.0697 -0.9197 0.3863
vn 0.0132 -0.9005 0.4346
vn 0.1998 -0.8551 0.4785
vn 0.3949 -0.8135 0.4269
vn 0.5495 -0.4505 0.7037
vn 0.1639 0.8958 0.4132
vn 0.1466 0.8013 -0.5801
vn 0.1631 0.8044 -0.5713
vn -0.5626 0.7384 0.3718
vn -0.5177 0.6794 -0.5200
vn -0.6046 0.4152 -0.6798
vn -0.5153 -0.8167 0.2598
vn -0.4861 -0.7704 -0.4125
vn -0.2048 -0.8463 -0.4918
vn 0.1053 -0.9240 0.3675
vn 0.0968 -0.8499 -0.5180
vn 0.0958 -0.8507 -0.5169
vn 0.8504 0.1732 0.4968
vn 0.7658 0.1560 -0.6239
vn 0.4797 0.5741 -0.6636
vn 0.1644 0.7832 -0.5996
vn 0.2280 0.7932 -0.5647
vn 0.1707 0.8436 -0.5091
vn -0.2842 0.7420 -0.6072
vn -0.3129 0.6729 -0.6703
vn -0.6633 0.4784 -0.5755
vn -0.7373 -0.2170 -0.6397
vn -0.3605 -0.5133 -0.7789
vn -0.2163 -0.8608 -0.4608
vn 0.3942 0.5378 -0.7453
vn 0.3378 0.2057 -0.9185
vn 0.4506 0.2106 -0.8676
vn 0.1592 -0.9081 -0.3873
vn 0.2347 -0.8559 -0.4608
vn 0.0924 -0.8343 -0.5435
vn -0.1285 -0.9738 0.1876
vn -0.4430 -0.8742 -0.1986
vn -0.2065 -0.5465 -0.8116
vn 0.0810 -0.6671 -0.7405
vn -0.7848 0.4171 -0.4585
vn 0.7848 -0.4171 0.4585
vn -0.3700 0.9088 0.1929
vn 0.3700 -0.9088 -0.1929
vn -0.1259 0.9835 -0.1297
vn 0.1259 -0.9835 0.1297
vn -0.5236 0.4944 -0.6938
vn 0.5236 -0.4944 0.6938
vn 0.1185 0.9275 -0.3545
vn -0.1185 -0.9275 0.3545
vn 0.4305 0.9018 0.0376
vn -0.4305 -0.9018 -0.0376
vn 0.5079 0.5425 -0.6692
vn -0.5079 -0.5425 0.6692
vn 0.3008 0.8120 -0.5002
vn -0.3008 -0.8120 0.5002
vn 0.1423 0.9428 0.3014
vn -0.1423 -0.9428 -0.3014
vn 0.7178 0.4639 0.5192
vn -0.7178 -0.4639 -0.5192
vn 0.1401 0.9202 0.3656
vn -0.1401 -0.9202 -0.3656
vn -0.4122 0.8781 0.2429
vn 0.4122 -0.8781 -0.2429
vn 0.1376 0.2860 0.9483
vn -0.1376 -0.2860 -0.9483
vn -0.4024 0.9094 0.1056
vn 0.4024 -0.9094 -0.1056
vt -0.000000 0.480259
vt -0.314878 0.361475
vt 0.147975 0.243786
vt -0.733162 0.203682
vt -0.867814 0.480259
vt 0.478967 0.480259
vt 0.164582 0.743271
vt -0.354915 0.614147
vt 0.359616 0.203682
vt 0.425663 0.480259
vt -0.000000 0.321058
vt -0.200614 0.401072
vt 0.258847 0.410861
vt 0.089983 0.142828
vt -0.346040 0.480259
vt -0.441551 0.205521
vt 0.000000 0.331315
vt -0.312794 -0.401681
vt -0.798630 -0.484202
vt -0.623236 0.000000
vt 0.805218 -0.394959
vt 0.265115 -0.420809
vt 0.599415 0.000000
vt 0.733162 0.359616
vt 0.943662 -0.000000
vt 0.585401 -0.000000
vt -0.388773 0.294251
vt -0.269093 -0.000000
vt -0.609222 -0.000000
vt 0.000000 0.644307
vt 0.000000 0.000000
vt 1.033187 0.000000
vt 0.249146 -0.319946
vt 0.606418 -0.367666
vt 0.146522 -0.608896
vt -0.695689 -0.341236
vt -0.253360 -0.402151
vt -0.440924 -0.699874
vt 0.376579 0.769883
vt 0.385208 0.480259
vt 0.763423 0.661697
vt 0.251443 0.322896
vt -0.259628 0.412100
vt 0.163129 0.677908
vt 0.837803 0.480259
vt 0.676766 0.735564
vt 0.509890 0.480259
vt 0.163129 0.740949
vt 0.676766 0.410317
vt -0.480961 0.661697
vt -0.480961 0.763423
vt -0.767745 0.376579
vt -0.440924 0.313925
vt 0.699874 0.313925
vt 0.341236 0.217818
vt 0.146522 0.246108
vt 0.509890 -0.654768
vt 0.606418 0.251493
vt -0.000000 0.654564
vt -0.410317 0.735564
vt -0.332457 0.480259
vt -0.081111 -0.128745
vt 0.075204 -0.096575
vt -0.367666 0.251493
vt -0.972390 0.000000
vt -0.484202 0.781536
vt 0.000000 0.044872
vt -0.300527 0.411995
vt 0.213376 -0.000000
vt 0.394959 0.784019
vt -0.265115 0.903913
vt -0.805218 0.784019
vt -0.164582 -0.683945
vt 0.798630 0.781536
vt 0.872034 0.480259
vt 0.728282 0.205521
vt -0.258847 0.066621
vt -0.598002 0.494140
vt -0.802705 0.417168
vt -0.526527 0.380289
vt -0.981289 0.350018
vt -1.109187 0.494140
vt -0.306574 0.494140
vt -0.517230 0.622800
vt -0.825119 0.579540
vt 0.263555 0.350018
vt 0.332300 0.494140
vt 0.057539 0.421820
vt 0.464776 0.245018
vt 0.727465 0.282721
vt 0.598002 0.057539
vt -0.285881 0.494140
vt -0.319405 0.345932
vt -0.057539 0.422694
vt 0.463490 -0.246827
vt 0.164470 -0.345571
vt 0.316846 -0.057539
vt 1.021628 -0.285238
vt 0.730973 -0.288824
vt 0.881970 -0.057539
vt 0.981289 0.263555
vt 1.028068 0.057539
vt 0.874125 0.057539
vt 0.324691 0.057539
vt -0.057539 0.574014
vt 0.598002 -0.057539
vt 1.078188 -0.057539
vt 0.720223 -0.114452
vt 0.957296 -0.181171
vt 0.666949 -0.256435
vt 0.213756 -0.148993
vt 0.473833 -0.158436
vt 0.363487 -0.350373
vt 0.170676 0.653791
vt 0.211567 0.494140
vt 0.389359 0.590750
vt 0.721509 0.116262
vt 0.470324 0.164539
vt 0.676246 0.298772
vt 1.119545 0.494140
vt 0.996680 0.644051
vt 0.901909 0.494140
vt 0.676246 0.618773
vt 0.598002 0.494140
vt 0.996680 0.207337
vt 0.341073 0.590750
vt 0.341073 0.389359
vt 0.173417 0.170676
vt 0.363487 0.405958
vt 0.097340 0.494140
vt 0.097340 -0.211567
vt 0.666949 0.384316
vt 0.901909 -0.370113
vt 1.119545 -0.169250
vt 0.057539 0.574888
vt -0.207337 0.644051
vt -0.169250 0.494140
vt 0.148993 0.349657
vt 0.123009 -0.057539
vt -0.345571 0.657157
vt 0.173129 0.057539
vt 0.203853 0.319405
vt 0.285238 0.653431
vt 0.825119 -0.452580
vt 0.517230 -0.425362
vt -0.164470 0.657157
vt -0.072888 0.494140
vt -0.203853 0.345932
vt 0.526527 0.383025
vt -1.021628 0.653431
vt 0.802705 0.413594
vt 0.042908 0.545079
vt -0.251485 0.443957
vt 0.138383 0.406152
vt -0.559106 0.338290
vt -0.634560 0.545079
vt 0.418523 0.545079
vt 0.124131 0.663269
vt -0.217124 0.634399
vt -0.298972 0.338290
vt -0.266568 0.545079
vt -0.557517 0.428426
vt -0.229101 -0.348165
vt 0.122717 -0.327337
vt -0.042908 -0.557517
vt 0.307729 0.545079
vt 0.262466 0.354159
vt 0.557517 0.433906
vt -0.227130 0.350381
vt -0.538342 0.294516
vt -0.494574 0.557517
vt 0.497266 0.325530
vt 0.117338 0.334813
vt 0.381807 0.557517
vt 0.559106 -0.298972
vt 0.716476 -0.557517
vt 0.393834 -0.557517
vt -0.506601 -0.557517
vt 0.557517 0.644450
vt -0.042908 0.557517
vt 0.639643 0.557517
vt 0.105400 -0.724270
vt 0.478438 -0.834272
vt 0.068862 -0.964198
vt -0.566431 -0.782352
vt -0.207377 -0.786090
vt -0.388298 -1.037532
vt -0.504592 0.755794
vt -0.646170 0.816597
vt -0.353937 0.989779
vt 0.103429 0.722054
vt -0.201998 0.778614
vt 0.054610 0.912341
vt 0.601599 0.545079
vt 0.418064 0.703423
vt 0.359173 0.545079
vt 0.054610 0.686979
vt -0.042908 0.545079
vt 0.359173 1.009594
vt 0.418064 0.802223
vt -0.353937 0.651917
vt -0.388298 0.426439
vt -0.646170 0.545079
vt 0.816597 0.545079
vt 0.782352 0.365251
vt 1.037532 0.426439
vt 0.068862 0.382441
vt 0.478438 0.365997
vt 0.601599 0.781446
vt -0.689787 0.557517
vt -0.781446 0.545079
vt -0.834272 0.365997
vt -0.761840 0.307729
vt -0.766620 -0.557517
vt -0.598717 -0.262466
vt -0.557517 0.649930
vt -0.325530 0.730627
vt 0.217124 0.196130
vt -0.117338 0.778247
vt 0.227130 0.813144
vt 0.538342 0.715261
vt 0.761840 0.545079
vt 0.598717 0.354159
vt -0.138383 -0.210124
vt -0.497266 0.730627
vt 0.251485 -0.148377
vt 0.510632 0.580259
vt 0.153732 0.446667
vt 0.626885 0.395921
vt 0.342526 0.390531
vt 0.665154 0.446667
vt 0.371963 0.580259
vt 0.882459 0.580259
vt 0.612544 0.741857
vt 0.188306 0.700910
vt 0.090195 0.460340
vt -0.654172 0.277276
vt -0.329162 0.382536
vt -0.510632 0.090195
vt -0.348271 0.580259
vt -0.399831 0.391905
vt -0.090195 0.442302
vt -0.652188 -0.274691
vt -0.953076 -0.362449
vt -0.910996 -0.090195
vt -0.065986 -0.311550
vt -0.334575 -0.373817
vt -0.033151 -0.090195
vt 0.090195 0.233088
vt -0.923097 0.090195
vt -0.090195 0.705275
vt -0.510632 -0.090195
vt 0.311550 0.746696
vt 0.090195 0.918849
vt 0.090195 0.687236
vt -0.303159 0.251277
vt 0.027135 0.378964
vt -0.407079 0.416060
vt -1.105262 -0.205824
vt -0.665025 -0.158526
vt -0.786599 -0.354382
vt -1.043038 0.779546
vt -1.191109 0.580259
vt -0.752025 0.670616
vt -0.305143 0.906096
vt -0.659613 0.816483
vt -0.421420 0.721719
vt 0.175523 0.580259
vt -0.033614 0.758814
vt -0.116195 0.580259
vt -0.510632 0.580259
vt -0.116195 0.423875
vt -0.033614 0.203333
vt -0.421420 0.286072
vt -0.659613 0.149807
vt -0.752025 0.298685
vt -1.043038 0.174848
vt -0.786599 0.476961
vt -1.105262 0.357681
vt -0.407079 -0.346557
vt -0.303159 -0.180212
vt 0.128429 -0.090195
vt 0.175523 0.186149
vt -0.203333 0.758814
vt -0.305143 0.177627
vt 0.248561 0.580259
vt 0.174848 0.779546
vt 0.205824 0.357681
vt -0.021049 0.090195
vt 0.027135 -0.240715
vt -0.240715 0.378964
vt -0.186149 0.580259
vt -1.257452 -0.090195
vt -1.151427 -0.348271
vt -1.334763 0.090195
vt -1.013826 0.399831
vt -0.003762 0.342526
vt -0.188306 -0.609456
vt -0.612544 -0.520029
vt -0.882459 -0.574798
vt 1.151427 0.580259
vt 0.953076 0.745873
vt 1.013826 0.391905
vt -0.626885 0.580514
vt 0.609456 0.700910
vt -0.153732 0.665154
vt -0.242832 0.455857
vt -0.514066 0.337629
vt -0.131002 0.249361
vt -0.724740 0.245798
vt -0.814147 0.455857
vt 0.131537 0.455857
vt -0.142499 0.641124
vt -0.486348 0.562004
vt -1.054267 0.297680
vt 0.073538 0.756094
vt 0.382083 0.759396
vt 0.242832 0.558137
vt 0.331336 0.455857
vt 0.226400 0.251322
vt 0.531238 0.304963
vt 0.075129 -0.754235
vt -0.177697 -0.790295
vt -0.186332 -0.558137
vt 0.674855 -0.751091
vt 0.377744 -0.753125
vt 0.654180 -0.558137
vt 0.724740 0.773371
vt 1.054267 0.558137
vt 0.663882 0.558137
vt -0.196034 0.558137
vt -0.765600 0.455857
vt -0.558137 0.304963
vt -0.558137 0.594669
vt 0.242832 -0.558137
vt 0.992287 -0.558137
vt 0.405958 0.367392
vt 0.698714 0.306462
vt 0.338186 0.197321
vt -0.285994 0.321949
vt 0.086403 0.332050
vt -0.048461 0.137128
vt -0.236109 0.664623
vt -0.336344 0.455857
vt -0.020743 0.570747
vt 0.404368 0.754136
vt 0.090742 0.736683
vt 0.326689 0.610701
vt 0.886219 0.455857
vt 0.650011 0.633344
vt 0.574231 0.455857
vt 0.242832 0.455857
vt 0.090742 -0.338322
vt -0.236109 -0.344229
vt -0.020743 -0.177189
vt -0.048461 0.328885
vt -0.285994 0.225347
vt 0.338186 0.279784
vt 0.698714 0.257141
vt 0.650011 -0.333349
vt 0.886219 -0.325664
vt 0.404368 -0.369251
vt -0.299461 0.455857
vt -0.344229 0.664623
vt -0.321949 0.225347
vt 1.054267 0.297680
vt -0.469259 -0.558137
vt 0.177697 0.639163
vt 0.469259 0.594669
vt -0.531238 0.558137
vt -0.226400 0.817182
vt 0.558137 0.297680
vt 0.558137 0.601953
vt 0.325664 0.455857
vt 0.813302 0.455857
vt -0.674855 0.644172
vt -0.992287 0.601953
vt 0.486348 -0.910095
vt 0.142499 -0.937793
vt -0.131537 -0.995878
vt -0.995878 0.455857
vt -0.790295 0.639163
vt -0.817182 0.251322
vt 0.131002 0.981297
vt 0.514066 0.950156
vt -0.340555 0.401812
vt -0.728282 0.441551
vt 0.340555 0.000000
vt 0.200614 0.000000
vt 0.300527 0.000000
vt 0.090005 0.878452
vt -0.180538 1.144732
vt -0.209130 0.824226
vt -0.006314 1.176314
vt -0.090005 0.878452
vt 0.209130 0.824226
vt 0.180538 1.144732
vt 0.006314 1.176314
vt 0.408507 0.420692
vt 1.072277 0.600885
vt 0.542077 0.187646
vt 1.000711 0.725749
vt 0.408507 -0.420692
vt 0.542077 -0.187646
vt 1.072277 -0.600885
vt 1.000711 -0.725749
vt 0.222853 0.432356
vt 0.995404 0.820401
vt 0.476949 0.231466
vt 0.853010 0.932979
vt 0.222853 -0.432356
vt 0.476949 -0.231466
vt 0.995404 -0.820401
vt 0.853010 -0.932979
vt 0.118609 0.688916
vt -0.093489 1.037650
vt -0.149602 0.745237
vt 0.033956 1.010888
vt -0.118609 0.688916
vt 0.149602 0.745237
vt 0.093489 1.037650
vt -0.033956 1.010888
vt 0.143442 0.525926
vt -0.095960 1.224886
vt 0.047719 1.236535
vt -0.163570 0.501035
vt 0.143442 -0.525926
vt 0.047719 -1.236535
vt -0.095960 -1.224886
vt -0.163570 -0.501035
vt -0.223877 0.531191
vt -0.732057 0.871205
vt -0.641465 0.948235
vt -0.439635 0.347732
vt -0.223877 -0.531191
vt -0.641465 -0.948235
vt -0.732057 -0.871205
vt -0.439635 -0.347732
vt 0.142458 0.717940
vt 0.545118 0.987797
vt 0.436960 1.007169
vt 0.393258 0.673019
vt -0.142458 0.717940
vt -0.436960 1.007169
vt -0.545118 0.987797
vt -0.393258 0.673019
vt -0.660680 -0.165238
vt -1.410548 -0.082829
vt -0.602513 0.050432
vt -1.435635 -0.175847
vt -0.660680 0.165238
vt -0.602513 -0.050432
vt -1.410548 0.082829
vt -1.435635 0.175847
vt -0.516375 -0.267073
vt -1.240164 -0.198883
vt -0.638315 0.018783
vt -1.187191 -0.323066
vt -0.516375 0.267073
vt -0.638315 -0.018783
vt -1.240164 0.198883
vt -1.187191 0.323066
vt 0.380804 0.698176
vt 0.352409 1.120847
vt 0.114125 0.731674
vt 0.481355 1.104650
vt -0.380804 0.698176
vt -0.114125 0.731674
vt -0.352409 1.120847
vt -0.481355 1.104650
vt -0.405692 -0.459541
vt -0.478107 -1.072755
vt -0.635948 -1.010847
vt -0.141189 -0.563285
vt -0.405692 0.459541
vt -0.635948 1.010847
vt -0.478107 1.072755
vt -0.141189 0.563285
vt 0.134974 -0.512052
vt -0.034843 -1.180132
vt -0.106986 -0.567438
vt 0.095267 -1.150349
vt 0.134974 0.512052
vt -0.106986 0.567438
vt -0.034843 1.180132
vt 0.095267 1.150349
vt 0.012565 0.851263
vt 0.289342 1.237925
vt 0.165250 1.250000
vt 0.292473 0.824026
vt -0.012565 0.851263
vt -0.165250 1.250000
vt -0.289342 1.237925
vt -0.292473 0.824026
vt 0.574407 -0.334532
vt 1.231032 -0.298476
vt 1.170245 -0.461830
vt 0.676046 -0.061393
vt 0.574407 0.334532
vt 1.170245 0.461830
vt 1.231032 0.298476
vt 0.676046 0.061393
s 0
f 1/1/1 13/2/1 12/3/1
f 2/4/2 13/2/2 15/5/2
f 1/1/3 12/3/3 17/6/3
f 1/1/4 17/6/4 19/7/4
f 1/1/5 19/7/5 16/8/5
f 2/9/6 15/10/6 22/11/6
f 209/12/7 14/13/7 217/14/7
f 3/15/8 18/16/8 25/17/8
f 4/18/9 20/19/9 27/20/9
f 5/21/10 21/22/10 29/23/10
f 2/24/11 22/25/11 24/26/11
f 213/27/12 214/28/12 26/29/12
f 3/15/13 25/17/13 28/30/13
f 4/18/14 27/20/14 30/31/14
f 5/21/15 29/23/15 23/32/15
f 6/33/16 31/34/16 36/35/16
f 7/36/17 32/37/17 38/38/17
f 8/39/18 33/40/18 39/41/18
f 9/42/19 34/43/19 40/44/19
f 10/45/20 35/46/20 37/47/20
f 37/47/21 40/48/21 11/1/21
f 37/47/22 35/46/22 40/48/22
f 35/49/23 9/42/23 40/44/23
f 40/48/24 39/50/24 11/1/24
f 40/44/25 34/43/25 39/51/25
f 34/43/26 8/52/26 39/51/26
f 39/50/27 38/53/27 11/1/27
f 39/41/28 33/40/28 38/54/28
f 33/40/29 7/55/29 38/54/29
f 38/53/30 36/56/30 11/1/30
f 38/38/31 32/37/31 36/35/31
f 32/37/32 6/33/32 36/35/32
f 36/56/33 37/47/33 11/1/33
f 36/35/34 31/34/34 37/57/34
f 31/58/35 10/45/35 37/47/35
f 23/59/36 35/60/36 10/61/36
f 23/32/37 29/23/37 35/49/37
f 29/23/38 9/42/38 35/49/38
f 30/31/39 34/43/39 9/42/39
f 30/31/40 27/20/40 34/43/40
f 27/20/41 8/52/41 34/43/41
f 28/30/42 33/40/42 8/39/42
f 28/30/43 25/17/43 33/40/43
f 25/17/44 7/55/44 33/40/44
f 26/29/45 32/37/45 7/36/45
f 209/12/46 214/28/46 213/27/46
f 6/33/47 215/62/47 212/63/47
f 24/26/48 31/34/48 6/33/48
f 24/26/49 22/25/49 31/34/49
f 22/11/50 10/61/50 31/64/50
f 29/23/51 30/31/51 9/42/51
f 29/23/52 21/22/52 30/31/52
f 21/22/53 4/18/53 30/31/53
f 27/20/54 28/65/54 8/52/54
f 27/20/55 20/19/55 28/65/55
f 20/66/56 3/15/56 28/30/56
f 25/17/57 26/67/57 7/55/57
f 25/17/58 18/16/58 26/67/58
f 210/68/46 209/12/46 213/27/46
f 216/69/59 6/33/59 212/63/59
f 14/13/60 216/69/60 217/14/60
f 14/13/61 2/24/61 24/26/61
f 22/11/62 23/59/62 10/61/62
f 22/11/63 15/10/63 23/59/63
f 15/10/64 5/70/64 23/59/64
f 16/8/65 21/71/65 5/72/65
f 16/8/66 19/7/66 21/71/66
f 19/73/67 4/18/67 21/22/67
f 19/73/68 20/19/68 4/18/68
f 19/7/69 17/6/69 20/74/69
f 17/6/70 3/75/70 20/74/70
f 17/6/71 18/76/71 3/75/71
f 17/6/72 12/3/72 18/76/72
f 6/33/47 32/37/47 215/62/47
f 15/5/73 16/8/73 5/72/73
f 15/5/74 13/2/74 16/8/74
f 13/2/75 1/1/75 16/8/75
f 209/12/46 217/14/46 214/28/46
f 12/3/76 13/2/76 14/77/76
f 13/2/77 2/4/77 14/77/77
f 41/78/78 54/79/78 53/80/78
f 42/81/79 54/79/79 56/82/79
f 41/78/80 53/80/80 58/83/80
f 41/78/81 58/83/81 60/84/81
f 41/78/82 60/84/82 57/85/82
f 42/86/83 56/87/83 63/88/83
f 43/89/84 55/90/84 65/91/84
f 44/92/85 59/93/85 67/94/85
f 45/95/86 61/96/86 69/97/86
f 46/98/87 62/99/87 71/100/87
f 42/101/88 63/102/88 66/103/88
f 43/89/89 65/91/89 68/104/89
f 44/92/90 67/94/90 70/105/90
f 45/95/91 69/97/91 72/106/91
f 46/98/92 71/100/92 64/107/92
f 47/108/93 73/109/93 78/110/93
f 48/111/94 74/112/94 80/113/94
f 49/114/95 75/115/95 81/116/95
f 50/117/96 76/118/96 82/119/96
f 51/120/97 77/121/97 79/122/97
f 79/122/98 82/123/98 52/124/98
f 79/122/99 77/121/99 82/123/99
f 77/125/100 50/117/100 82/119/100
f 82/123/101 81/126/101 52/124/101
f 82/119/102 76/118/102 81/127/102
f 76/118/103 49/128/103 81/127/103
f 81/126/104 80/129/104 52/124/104
f 81/126/105 75/130/105 80/129/105
f 75/131/106 48/111/106 80/113/106
f 80/129/107 78/132/107 52/124/107
f 80/113/108 74/112/108 78/110/108
f 74/112/109 47/108/109 78/110/109
f 78/132/110 79/122/110 52/124/110
f 78/110/111 73/109/111 79/133/111
f 73/109/112 51/134/112 79/133/112
f 64/135/113 77/136/113 51/137/113
f 64/107/114 71/100/114 77/125/114
f 71/100/115 50/117/115 77/125/115
f 72/106/116 76/118/116 50/117/116
f 72/106/117 69/97/117 76/118/117
f 69/97/118 49/128/118 76/118/118
f 70/105/119 75/115/119 49/114/119
f 70/105/120 67/94/120 75/115/120
f 67/94/121 48/138/121 75/115/121
f 68/104/122 74/112/122 48/111/122
f 68/104/123 65/91/123 74/112/123
f 65/91/124 47/108/124 74/112/124
f 66/103/125 73/109/125 47/108/125
f 66/103/126 63/102/126 73/109/126
f 63/102/127 51/134/127 73/109/127
f 71/100/128 72/106/128 50/117/128
f 71/100/129 62/99/129 72/106/129
f 62/99/130 45/95/130 72/106/130
f 69/97/131 70/139/131 49/128/131
f 69/97/132 61/96/132 70/139/132
f 61/140/133 44/92/133 70/105/133
f 67/141/134 68/104/134 48/111/134
f 67/141/135 59/142/135 68/104/135
f 59/142/136 43/89/136 68/104/136
f 65/91/137 66/103/137 47/108/137
f 65/91/138 55/90/138 66/103/138
f 55/90/139 42/101/139 66/103/139
f 63/88/140 64/135/140 51/137/140
f 63/88/141 56/87/141 64/135/141
f 56/87/142 46/143/142 64/135/142
f 57/144/143 62/99/143 46/98/143
f 57/144/144 60/145/144 62/99/144
f 60/145/145 45/95/145 62/99/145
f 60/145/146 61/96/146 45/95/146
f 60/84/147 58/83/147 61/146/147
f 58/83/148 44/147/148 61/146/148
f 58/83/149 59/148/149 44/147/149
f 58/83/150 53/80/150 59/148/150
f 53/149/151 43/89/151 59/142/151
f 56/82/152 57/85/152 46/150/152
f 56/82/153 54/79/153 57/85/153
f 54/79/154 41/78/154 57/85/154
f 53/149/155 55/90/155 43/89/155
f 53/149/156 54/151/156 55/90/156
f 54/151/157 42/101/157 55/90/157
f 83/152/158 96/153/158 95/154/158
f 84/155/159 96/153/159 98/156/159
f 83/152/160 95/154/160 100/157/160
f 83/152/161 100/157/161 102/158/161
f 83/152/162 102/158/162 99/159/162
f 84/160/163 98/161/163 105/162/163
f 85/163/164 97/164/164 107/165/164
f 86/166/165 101/167/165 109/168/165
f 87/169/166 103/170/166 111/171/166
f 88/172/167 104/173/167 113/174/167
f 84/175/168 105/176/168 108/177/168
f 85/163/169 107/165/169 110/178/169
f 86/166/170 109/168/170 112/179/170
f 87/169/171 111/171/171 114/180/171
f 88/172/172 113/174/172 106/181/172
f 89/182/173 115/183/173 120/184/173
f 90/185/174 116/186/174 122/187/174
f 91/188/175 117/189/175 123/190/175
f 92/191/176 118/192/176 124/193/176
f 93/194/177 119/195/177 121/196/177
f 121/196/178 124/197/178 94/198/178
f 121/199/179 119/200/179 124/193/179
f 119/200/180 92/191/180 124/193/180
f 124/197/181 123/201/181 94/198/181
f 124/193/182 118/192/182 123/190/182
f 118/192/183 91/188/183 123/190/183
f 123/201/184 122/202/184 94/198/184
f 123/201/185 117/203/185 122/202/185
f 117/204/186 90/205/186 122/206/186
f 122/202/187 120/207/187 94/198/187
f 122/187/188 116/186/188 120/184/188
f 116/186/189 89/182/189 120/184/189
f 120/207/190 121/196/190 94/198/190
f 120/207/191 115/208/191 121/196/191
f 115/208/192 93/194/192 121/196/192
f 106/181/193 119/200/193 93/209/193
f 106/181/194 113/174/194 119/200/194
f 113/174/195 92/191/195 119/200/195
f 114/180/196 118/192/196 92/191/196
f 114/180/197 111/171/197 118/192/197
f 111/171/198 91/188/198 118/192/198
f 112/210/199 117/189/199 91/188/199
f 112/179/200 109/168/200 117/204/200
f 109/168/201 90/205/201 117/204/201
f 110/178/202 116/186/202 90/185/202
f 110/178/203 107/165/203 116/186/203
f 107/165/204 89/182/204 116/186/204
f 108/177/205 115/183/205 89/182/205
f 108/177/206 105/176/206 115/183/206
f 105/162/207 93/211/207 115/212/207
f 113/174/208 114/180/208 92/191/208
f 113/174/209 104/173/209 114/180/209
f 104/173/210 87/169/210 114/180/210
f 111/171/211 112/210/211 91/188/211
f 111/171/212 103/170/212 112/210/212
f 103/170/213 86/213/213 112/210/213
f 109/214/214 110/178/214 90/185/214
f 109/214/215 101/215/215 110/178/215
f 101/215/216 85/163/216 110/178/216
f 107/165/217 108/177/217 89/182/217
f 107/165/218 97/164/218 108/177/218
f 97/164/219 84/175/219 108/177/219
f 105/162/220 106/216/220 93/211/220
f 105/162/221 98/161/221 106/216/221
f 98/161/222 88/217/222 106/216/222
f 99/218/223 104/173/223 88/172/223
f 99/159/224 102/158/224 104/219/224
f 102/158/225 87/220/225 104/219/225
f 102/158/226 103/221/226 87/220/226
f 102/158/227 100/157/227 103/221/227
f 100/157/228 86/222/228 103/221/228
f 100/157/229 101/223/229 86/222/229
f 100/157/230 95/154/230 101/223/230
f 95/224/231 85/163/231 101/215/231
f 98/156/232 99/159/232 88/225/232
f 98/156/233 96/153/233 99/159/233
f 96/153/234 83/152/234 99/159/234
f 95/224/235 97/164/235 85/163/235
f 95/224/236 96/226/236 97/164/236
f 96/226/237 84/175/237 97/164/237
f 125/227/238 138/228/238 137/229/238
f 126/230/239 138/231/239 140/232/239
f 125/227/240 137/229/240 142/233/240
f 125/227/241 142/233/241 144/234/241
f 125/227/242 144/234/242 141/235/242
f 126/230/243 140/232/243 147/236/243
f 127/237/244 139/238/244 149/239/244
f 128/240/245 143/241/245 151/242/245
f 129/243/246 145/244/246 153/245/246
f 130/246/247 146/247/247 155/248/247
f 126/230/248 147/236/248 150/249/248
f 127/237/249 149/239/249 152/250/249
f 128/240/250 151/242/250 154/251/250
f 129/243/251 153/245/251 156/252/251
f 130/253/252 155/254/252 148/255/252
f 131/256/253 157/257/253 162/258/253
f 132/259/254 158/260/254 164/261/254
f 133/262/255 159/263/255 165/264/255
f 134/265/256 160/266/256 166/267/256
f 135/268/257 161/269/257 163/270/257
f 163/270/258 166/267/258 136/271/258
f 163/272/259 161/273/259 166/274/259
f 161/269/260 134/265/260 166/267/260
f 166/267/261 165/264/261 136/271/261
f 166/274/262 160/275/262 165/276/262
f 160/275/263 133/277/263 165/276/263
f 165/264/264 164/278/264 136/271/264
f 165/264/265 159/263/265 164/278/265
f 159/263/266 132/279/266 164/278/266
f 164/278/267 162/258/267 136/271/267
f 164/261/268 158/260/268 162/280/268
f 158/260/269 131/281/269 162/280/269
f 162/258/270 163/270/270 136/271/270
f 162/258/271 157/257/271 163/270/271
f 157/257/272 135/268/272 163/270/272
f 148/282/273 161/273/273 135/283/273
f 148/255/274 155/254/274 161/284/274
f 155/248/275 134/285/275 161/273/275
f 156/252/276 160/275/276 134/285/276
f 156/252/277 153/245/277 160/275/277
f 153/245/278 133/277/278 160/275/278
f 154/251/279 159/286/279 133/287/279
f 154/251/280 151/242/280 159/286/280
f 151/242/281 132/288/281 159/286/281
f 152/250/282 158/260/282 132/259/282
f 152/250/283 149/239/283 158/260/283
f 149/239/284 131/281/284 158/260/284
f 150/289/285 157/290/285 131/281/285
f 150/249/286 147/236/286 157/291/286
f 147/236/287 135/292/287 157/291/287
f 155/248/288 156/252/288 134/285/288
f 155/248/289 146/247/289 156/252/289
f 146/247/290 129/243/290 156/252/290
f 153/245/291 154/293/291 133/277/291
f 153/245/292 145/244/292 154/293/292
f 145/244/293 128/294/293 154/293/293
f 151/295/294 152/250/294 132/259/294
f 151/295/295 143/296/295 152/250/295
f 143/296/296 127/237/296 152/250/296
f 149/239/297 150/289/297 131/281/297
f 149/239/298 139/238/298 150/289/298
f 139/238/299 126/297/299 150/289/299
f 147/236/300 148/255/300 135/292/300
f 147/236/301 140/232/301 148/255/301
f 140/232/302 130/253/302 148/255/302
f 141/298/303 146/247/303 130/246/303
f 141/298/304 144/299/304 146/247/304
f 144/299/305 129/243/305 146/247/305
f 144/299/306 145/244/306 129/243/306
f 144/299/307 142/300/307 145/244/307
f 142/233/308 128/301/308 145/302/308
f 142/233/309 143/303/309 128/301/309
f 142/233/310 137/229/310 143/303/310
f 137/304/311 127/237/311 143/296/311
f 140/232/312 141/305/312 130/253/312
f 140/232/313 138/231/313 141/305/313
f 138/228/314 125/227/314 141/235/314
f 137/304/315 139/238/315 127/237/315
f 137/304/316 138/306/316 139/238/316
f 138/306/317 126/297/317 139/238/317
f 167/307/318 180/308/318 179/309/318
f 168/310/319 180/308/319 182/311/319
f 167/307/320 179/309/320 184/312/320
f 167/307/321 184/312/321 186/313/321
f 167/307/322 186/313/322 183/314/322
f 168/310/323 182/311/323 189/315/323
f 169/316/324 181/317/324 191/318/324
f 170/319/325 185/320/325 193/321/325
f 171/322/326 187/323/326 195/324/326
f 172/325/327 188/326/327 197/327/327
f 168/328/328 189/329/328 192/330/328
f 169/316/329 191/318/329 194/331/329
f 170/332/330 193/333/330 196/334/330
f 171/322/331 195/324/331 198/335/331
f 172/325/332 197/327/332 190/336/332
f 173/337/333 199/338/333 204/339/333
f 174/340/334 200/341/334 206/342/334
f 175/343/335 201/344/335 207/345/335
f 176/346/336 202/347/336 208/348/336
f 177/349/337 203/350/337 205/351/337
f 205/351/338 208/348/338 178/352/338
f 205/351/339 203/350/339 208/348/339
f 203/350/340 176/346/340 208/348/340
f 208/348/341 207/345/341 178/352/341
f 208/348/342 202/347/342 207/345/342
f 202/353/343 175/354/343 207/355/343
f 207/345/344 206/356/344 178/352/344
f 207/345/345 201/344/345 206/356/345
f 201/344/346 174/357/346 206/356/346
f 206/356/347 204/358/347 178/352/347
f 206/342/348 200/341/348 204/339/348
f 200/341/349 173/337/349 204/339/349
f 204/358/350 205/351/350 178/352/350
f 204/358/351 199/359/351 205/351/351
f 199/359/352 177/349/352 205/351/352
f 190/336/353 203/360/353 177/361/353
f 190/336/354 197/327/354 203/360/354
f 197/327/355 176/362/355 203/360/355
f 198/335/356 202/353/356 176/362/356
f 198/335/357 195/324/357 202/353/357
f 195/324/358 175/354/358 202/353/358
f 196/334/359 201/363/359 175/364/359
f 196/334/360 193/333/360 201/363/360
f 193/333/361 174/365/361 201/363/361
f 194/331/362 200/341/362 174/340/362
f 194/331/363 191/318/363 200/341/363
f 191/318/364 173/337/364 200/341/364
f 192/330/365 199/338/365 173/337/365
f 192/330/366 189/329/366 199/338/366
f 189/366/367 177/349/367 199/359/367
f 197/327/368 198/335/368 176/362/368
f 197/327/369 188/326/369 198/335/369
f 188/326/370 171/322/370 198/335/370
f 195/324/371 196/367/371 175/354/371
f 195/324/372 187/323/372 196/367/372
f 187/368/373 170/319/373 196/369/373
f 193/370/374 194/331/374 174/340/374
f 193/370/375 185/371/375 194/331/375
f 185/371/376 169/316/376 194/331/376
f 191/318/377 192/330/377 173/337/377
f 191/318/378 181/317/378 192/330/378
f 181/317/379 168/328/379 192/330/379
f 189/372/380 190/373/380 177/374/380
f 189/372/381 182/375/381 190/373/381
f 182/311/382 172/376/382 190/377/382
f 183/378/383 188/326/383 172/325/383
f 183/378/384 186/379/384 188/326/384
f 186/379/385 171/322/385 188/326/385
f 186/379/386 187/323/386 171/322/386
f 186/379/387 184/380/387 187/323/387
f 184/381/388 170/332/388 187/382/388
f 184/381/389 185/383/389 170/332/389
f 184/312/390 179/309/390 185/320/390
f 179/384/391 169/316/391 185/371/391
f 182/311/392 183/314/392 172/376/392
f 182/311/393 180/308/393 183/314/393
f 180/308/394 167/307/394 183/314/394
f 179/384/395 181/317/395 169/316/395
f 179/384/396 180/385/396 181/317/396
f 180/385/397 168/328/397 181/317/397
f 217/14/46 216/69/46 212/63/46
f 214/28/398 32/37/398 26/29/398
f 213/27/46 211/386/46 210/68/46
f 215/62/46 214/28/46 217/14/46
f 212/63/46 215/62/46 217/14/46
f 18/387/399 213/27/399 26/29/399
f 12/3/400 211/388/400 18/76/400
f 216/69/59 24/26/59 6/33/59
f 12/3/401 209/389/401 210/390/401
f 14/13/60 24/26/60 216/69/60
f 214/28/398 215/62/398 32/37/398
f 18/387/399 211/386/399 213/27/399
f 12/3/400 210/390/400 211/388/400
f 12/3/401 14/77/401 209/389/401
f 219/391/402 221/392/402 218/393/402
f 219/391/402 220/394/402 221/392/402
f 223/395/403 222/396/403 225/397/403
f 223/395/403 225/397/403 224/398/403
f 227/399/404 229/400/404 226/401/404
f 227/399/404 228/402/404 229/400/404
f 231/403/405 230/404/405 233/405/405
f 231/403/405 233/405/405 232/406/405
f 235/407/406 237/408/406 234/409/406
f 235/407/406 236/410/406 237/408/406
f 239/411/407 238/412/407 241/413/407
f 239/411/407 241/413/407 240/414/407
f 243/415/408 245/416/408 242/417/408
f 243/415/408 244/418/408 245/416/408
f 247/419/409 246/420/409 249/421/409
f 247/419/409 249/421/409 248/422/409
f 250/423/410 252/424/410 253/425/410
f 250/423/410 251/426/410 252/424/410
f 254/427/411 257/428/411 256/429/411
f 254/427/411 256/429/411 255/430/411
f 258/431/412 260/432/412 261/433/412
f 258/431/412 259/434/412 260/432/412
f 262/435/413 265/436/413 264/437/413
f 262/435/413 264/437/413 263/438/413
f 266/439/414 268/440/414 269/441/414
f 266/439/414 267/442/414 268/440/414
f 270/443/415 273/444/415 272/445/415
f 270/443/415 272/445/415 271/446/415
f 275/447/416 277/448/416 274/449/416
f 275/447/416 276/450/416 277/448/416
f 279/451/417 278/452/417 281/453/417
f 279/451/417 281/453/417 280/454/417
f 283/455/418 285/456/418 282/457/418
f 283/455/418 284/458/418 285/456/418
f 287/459/419 286/460/419 289/461/419
f 287/459/419 289/461/419 288/462/419
f 291/463/420 293/464/420 290/465/420
f 291/463/420 292/466/420 293/464/420
f 295/467/421 294/468/421 297/469/421
f 295/467/421 297/469/421 296/470/421
f 298/471/422 300/472/422 301/473/422
f 298/471/422 299/474/422 300/472/422
f 302/475/423 305/476/423 304/477/423
f 302/475/423 304/477/423 303/478/423
f 307/479/424 309/480/424 306/481/424
f 307/479/424 308/482/424 309/480/424
f 311/483/425 310/484/425 313/485/425
f 311/483/425 313/485/425 312/486/425
f 314/487/426 316/488/426 317/489/426
f 314/487/426 315/490/426 316/488/426
f 318/491/427 321/492/427 320/493/427
f 318/491/427 320/493/427 319/494/427
f 322/495/428 324/496/428 325/497/428
f 322/495/428 323/498/428 324/496/428
f 326/499/429 329/500/429 328/501/429
f 326/499/429 328/501/429 327/502/429
