# Blender 5.0.1
# www.blender.org
o campfire_stone
usemtl campfire_stone
v 0.500329 0.004364 0.157471
v 0.658231 0.005961 0.092522
v 0.506237 0.123714 0.147426
v 0.660798 0.124798 0.108908
v 0.471525 0.006919 -0.027212
v 0.616736 0.014004 -0.074934
v 0.463309 0.116732 -0.019768
v 0.602844 0.120667 -0.055720
v 0.367746 0.009118 0.428470
v 0.521325 0.001581 0.385050
v 0.377417 0.138781 0.438343
v 0.522176 0.134876 0.383052
v 0.312390 0.010958 0.255918
v 0.458928 0.019595 0.194752
v 0.301632 0.129091 0.270171
v 0.452366 0.140809 0.213860
v 0.064598 0.002368 0.613374
v 0.197112 0.000000 0.592325
v 0.056162 0.171187 0.605194
v 0.193463 0.164189 0.590902
v 0.051935 0.014970 0.425903
v 0.175281 0.007291 0.422682
v 0.060647 0.165723 0.448181
v 0.178662 0.170652 0.436031
v -0.215952 0.003238 0.588840
v -0.179731 0.011957 0.422642
v -0.215429 0.122807 0.589159
v -0.202458 0.135948 0.431481
v -0.403476 0.015222 0.570866
v -0.385317 0.003289 0.383695
v -0.415785 0.131541 0.576767
v -0.366950 0.132629 0.404917
v -0.558716 0.010720 0.255633
v -0.440983 0.009625 0.192539
v -0.559091 0.122799 0.262265
v -0.455508 0.118686 0.198663
v -0.621070 0.016443 0.137701
v -0.507792 0.016018 0.077436
v -0.614161 0.118782 0.129723
v -0.500035 0.122578 0.071587
v -0.537288 0.009419 -0.077782
v -0.438830 0.011802 -0.173273
v -0.515296 0.126247 -0.078605
v -0.432125 0.114612 -0.169615
v -0.624049 0.006681 -0.175185
v -0.546912 0.008268 -0.270923
v -0.630959 0.113865 -0.182763
v -0.551219 0.119367 -0.274364
v -0.148151 0.020043 -0.409445
v -0.148033 0.020123 -0.531603
v -0.148316 0.135616 -0.406617
v -0.161047 0.128000 -0.531772
v -0.324085 0.008459 -0.416384
v -0.299515 0.009792 -0.552485
v -0.305794 0.129390 -0.416998
v -0.296931 0.126315 -0.533458
v 0.073821 0.010603 -0.405093
v 0.179080 0.016336 -0.514428
v 0.062611 0.125907 -0.415620
v 0.157288 0.138773 -0.504086
v -0.065622 0.019251 -0.552705
v 0.055896 0.012293 -0.630177
v -0.045937 0.122370 -0.529173
v 0.060033 0.126905 -0.651386
v 0.488827 0.007908 -0.243872
v 0.545503 0.010222 -0.373485
v 0.495964 0.139320 -0.263168
v 0.526254 0.129886 -0.382024
v 0.329554 0.005768 -0.321173
v 0.376706 0.012007 -0.447659
v 0.319318 0.127271 -0.317286
v 0.381873 0.136846 -0.456791
vn 0.3792 0.0589 0.9234
vn -0.0365 0.9988 -0.0323
vn -0.2505 0.0468 -0.9670
vn 0.0042 -0.9999 -0.0145
vn -0.9670 0.0685 0.2454
vn 0.9590 0.1663 -0.2296
vn 0.3528 -0.0972 0.9306
vn -0.0846 0.9962 -0.0193
vn -0.3543 0.0802 -0.9317
vn -0.0477 -0.9989 0.0047
vn -0.9119 0.0369 0.4088
vn 0.9202 0.1091 -0.3759
vn 0.1061 0.0534 0.9929
vn 0.0474 0.9983 -0.0334
vn -0.0167 0.1471 -0.9890
vn -0.0636 -0.9960 -0.0627
vn -0.9983 -0.0512 -0.0267
vn 0.9953 -0.0128 -0.0957
vn 0.9771 -0.0048 0.2127
vn 0.0424 0.9989 0.0184
vn -0.9581 -0.0875 -0.2728
vn -0.0691 -0.9960 0.0568
vn -0.0956 -0.0022 0.9954
vn 0.1790 0.1345 -0.9746
vn 0.5212 -0.0487 0.8520
vn 0.0168 0.9992 -0.0373
vn -0.4695 -0.0371 -0.8822
vn -0.0231 -0.9991 -0.0363
vn -0.8842 -0.0305 0.4660
vn 0.9394 -0.0866 -0.3318
vn 0.6923 -0.1253 0.7107
vn -0.0900 0.9958 -0.0185
vn -0.7745 -0.0942 -0.6256
vn 0.0276 -0.9996 0.0035
vn -0.6711 0.1315 0.7296
vn 0.6703 0.0030 -0.7421
vn 0.9948 0.0039 -0.1014
vn -0.0357 0.9977 -0.0571
vn -0.9857 0.1487 -0.0789
vn 0.0656 -0.9978 0.0021
vn -0.0648 -0.0245 0.9976
vn 0.0103 0.1609 -0.9869
vn 0.6672 0.1318 0.7332
vn -0.0867 0.9949 0.0519
vn -0.5041 0.2825 -0.8161
vn -0.0589 -0.9983 -0.0028
vn -0.7227 -0.0072 0.6911
vn 0.8322 -0.1298 -0.5390
vn -0.9161 -0.0091 -0.4008
vn 0.0405 -0.9952 0.0893
vn 0.9126 -0.0079 0.4087
vn -0.0095 0.9989 0.0457
vn 0.2990 -0.1545 -0.9417
vn -0.4550 0.0837 0.8865
vn 0.2404 -0.1377 0.9609
vn -0.0122 0.9997 -0.0208
vn -0.3153 0.1283 -0.9403
vn 0.0305 -0.9980 -0.0555
vn -0.9847 -0.0840 0.1524
vn 0.9428 0.0255 -0.3325
vn 0.2726 0.0127 0.9620
vn 0.0348 0.9992 0.0207
vn -0.3884 0.1229 -0.9132
vn 0.0170 -0.9949 -0.0998
vn -0.9454 -0.1225 0.3020
vn 0.9499 -0.0108 -0.3125
vn 0.1571 0.0120 0.9875
vn -0.0370 0.9983 0.0452
vn -0.1055 0.0832 -0.9909
vn -0.0242 -0.9989 -0.0398
vn -0.9964 0.0472 0.0705
vn 0.9917 0.0209 -0.1267
vn 0.9803 0.1729 0.0951
vn -0.0331 0.9962 0.0803
vn -0.9820 0.1567 -0.1053
vn 0.0499 -0.9979 -0.0415
vn -0.0641 -0.0573 0.9963
vn 0.1567 0.0988 -0.9827
vn 0.4724 0.0134 0.8813
vn -0.0150 0.9992 0.0359
vn -0.4534 -0.0159 -0.8912
vn -0.0298 -0.9988 -0.0382
vn -0.9206 0.0917 0.3797
vn 0.8595 0.1420 -0.4910
vn 0.7317 -0.0718 0.6778
vn 0.0841 0.9952 -0.0504
vn -0.7518 -0.0495 -0.6575
vn 0.0276 -0.9996 0.0057
vn -0.7467 -0.0011 0.6652
vn 0.6600 -0.0163 -0.7511
vn 0.9928 0.1198 0.0010
vn -0.0121 0.9996 -0.0273
vn -0.9829 0.0507 -0.1769
vn 0.0681 -0.9977 -0.0006
vn -0.0401 0.0111 0.9991
vn 0.1356 0.0148 -0.9907
vn 0.7169 0.0690 0.6938
vn -0.0768 0.9966 -0.0296
vn -0.7505 -0.0940 -0.6542
vn 0.0431 -0.9990 -0.0109
vn -0.7273 -0.0177 0.6860
vn 0.6704 0.1801 -0.7198
vn -0.9580 -0.1706 -0.2306
vn -0.0102 -0.9973 -0.0730
vn 0.9338 0.0674 0.3514
vn -0.0182 0.9998 0.0099
vn 0.4350 0.0654 -0.8981
vn -0.4023 0.0006 0.9155
vt 1.120951 -0.024643
vt 0.867627 0.171612
vt 0.857782 -0.027305
vt 0.867627 0.239115
vt 1.028639 -0.099462
vt 0.796081 -0.039541
vt -1.028639 0.166534
vt -0.809774 -0.023047
vt -0.796081 0.159976
vt 0.809774 0.051949
vt 1.120951 -0.147608
vt 0.857782 -0.255857
vt -0.039541 0.159976
vt 0.255857 -0.027305
vt 0.239115 0.171612
vt 0.099462 0.166534
vt -0.147608 -0.024643
vt 0.131485 -0.011238
vt 0.636809 -0.019381
vt 0.894193 0.190215
vt 0.652928 0.196724
vt 0.652928 0.723978
vt 0.777842 0.349839
vt 0.526620 0.443690
vt -0.777842 0.200103
vt -0.544549 -0.016316
vt -0.526620 0.180573
vt 0.544549 -0.419935
vt 0.892774 -0.635155
vt 0.636809 -0.707522
vt 0.443690 0.180573
vt 0.707522 -0.019381
vt 0.723978 0.196724
vt -0.631824 0.190215
vt -0.317991 -0.001919
vt -0.349839 0.200103
vt 0.131563 -0.030632
vt 0.346338 0.239070
vt 0.117503 0.250734
vt 0.346338 0.978242
vt 0.124978 0.740373
vt 0.117503 1.002061
vt -0.124978 0.241627
vt -0.316035 -0.022427
vt -0.110458 -0.009629
vt 0.316035 -0.697874
vt 0.131563 -1.015695
vt 0.110458 -0.703244
vt 0.740373 0.241627
vt 1.015695 -0.030632
vt 1.002061 0.250734
vt -0.978242 0.239070
vt -0.697874 -0.022427
vt -0.720123 0.249842
vt -0.697808 -0.014650
vt -0.975336 0.170100
vt -0.974806 -0.029181
vt -0.335148 0.975336
vt -0.587684 0.668266
vt -0.669075 0.954683
vt 0.668266 0.186470
vt 0.944848 -0.009208
vt 0.954683 0.184657
vt -0.618295 -0.632897
vt -0.336021 -0.974806
vt -0.648561 -0.944848
vt -0.335148 0.170100
vt -0.648561 -0.009208
vt -0.336021 -0.029181
vt 0.587684 0.186470
vt 0.275651 -0.014650
vt 0.618295 -0.029096
vt -0.907294 -0.016711
vt -0.735280 0.163231
vt -0.907919 0.170087
vt -0.735280 0.324510
vt -0.999701 0.209610
vt -0.907919 0.430513
vt 0.999701 0.163392
vt 0.822421 -0.007882
vt 1.011216 -0.007173
vt -0.822421 -0.122465
vt -0.907294 -0.419460
vt -1.011216 -0.222907
vt 0.430513 0.170087
vt 0.222907 -0.007173
vt 0.419460 -0.016711
vt -0.324510 0.163231
vt -0.122465 -0.007882
vt -0.112716 0.169718
vt 0.295383 -0.014909
vt 0.137603 0.175834
vt 0.136231 -0.018879
vt -0.834927 -0.137603
vt -0.894799 -0.463868
vt -1.027699 -0.311200
vt -0.311200 0.155197
vt -0.458133 -0.020799
vt -0.298571 -0.023444
vt -1.016183 0.298571
vt -0.707484 0.295383
vt -0.871580 0.136231
vt -0.136231 -0.018879
vt -0.137603 0.175834
vt 0.894799 0.164367
vt 0.707484 -0.014909
vt 0.887620 -0.020799
vt 0.689004 -0.001172
vt 0.892882 0.178755
vt 0.684290 0.191448
vt -0.244512 -0.892882
vt -0.485757 -0.701592
vt -0.223294 -0.684290
vt -0.895692 0.175947
vt -0.700569 -0.020480
vt -0.701592 0.181072
vt -0.475293 0.927404
vt -0.223019 0.689004
vt -0.516242 0.700569
vt -0.485757 0.181072
vt -0.223019 -0.001172
vt -0.223294 0.191448
vt 0.244512 0.178755
vt 0.475293 -0.018258
vt 0.470986 0.175947
vt 0.146934 -0.016907
vt 0.286046 0.196710
vt 0.128251 0.175266
vt 0.286046 -0.846738
vt -0.052662 -0.888550
vt 0.128251 -0.699294
vt 0.052662 0.169371
vt -0.117060 -0.014090
vt 0.085470 -0.002494
vt 0.117060 1.056891
vt 0.146934 0.681750
vt -0.085470 0.927770
vt -0.888550 0.169371
vt -0.681750 -0.016907
vt -0.699294 0.175266
vt 0.846738 0.196710
vt 1.056891 -0.014090
vt 1.092238 0.176930
vt -0.445209 0.197622
vt -0.629070 -0.017541
vt -0.413049 -0.021398
vt 0.556096 0.535405
vt 0.900989 0.643302
vt 0.850506 0.445209
vt 0.535405 0.177540
vt 0.752694 -0.014567
vt 0.767913 0.193498
vt 0.573157 -0.541883
vt 0.933071 -0.629070
vt 0.651743 -0.752694
vt -0.838611 -0.021398
vt -0.556096 0.177540
vt -0.850506 0.197622
vt 0.651743 -0.014567
vt 0.900989 0.181899
vt 0.660354 0.193498
vt 1.125229 0.173418
vt 1.125229 0.174918
vt -1.051792 -0.011238
vt 1.051792 0.131485
vt -0.051949 -0.023047
vt -0.174918 0.173418
vt 0.892774 -0.031944
vt 0.894193 0.631824
vt -0.788779 -0.001919
vt 0.788779 -0.317991
vt 0.419935 -0.016316
vt -0.635155 -0.031944
vt 0.352419 -0.034578
vt 0.321670 0.720123
vt -0.321670 0.249842
vt 0.352419 -0.980614
vt 0.703244 -0.009629
vt -0.980614 -0.034578
vt -0.712540 0.192002
vt -0.313531 0.712540
vt 0.632897 -0.029096
vt -0.275651 -0.697808
vt -0.669075 0.184657
vt 0.313531 0.192002
vt -0.711073 -0.018536
vt -0.809492 0.112716
vt 0.809492 0.169718
vt -0.711073 -0.314303
vt 0.209610 0.163392
vt -0.314303 -0.018536
vt 0.289286 0.156441
vt -0.696309 -0.289286
vt -0.463868 0.164367
vt -0.887620 0.458133
vt 0.696309 0.156441
vt 0.892599 -0.001040
vt -0.470986 -0.895692
vt -0.927404 -0.018258
vt -0.222822 0.892599
vt -0.516242 -0.020480
vt 0.222822 -0.001040
vt 0.322366 -0.007351
vt 0.123955 -1.092238
vt -0.123955 0.176930
vt 0.322366 0.863975
vt -0.927770 -0.002494
vt 0.863975 -0.007351
vt -0.643302 0.181899
vt 0.660354 0.767913
vt 0.541883 -0.024965
vt 0.838611 -0.413049
vt -0.573157 -0.024965
vt 0.933071 -0.017541
s 0
f 2/1/1 3/2/1 1/3/1
f 3/4/2 8/5/2 7/6/2
f 8/7/3 5/8/3 7/9/3
f 5/10/4 2/11/4 1/12/4
f 7/13/5 1/14/5 3/15/5
f 8/16/6 2/17/6 6/18/6
f 9/19/7 12/20/7 11/21/7
f 11/22/8 16/23/8 15/24/8
f 16/25/9 13/26/9 15/27/9
f 13/28/10 10/29/10 9/30/10
f 15/31/11 9/32/11 11/33/11
f 12/34/12 14/35/12 16/36/12
f 17/37/13 20/38/13 19/39/13
f 20/40/14 23/41/14 19/42/14
f 23/43/15 22/44/15 21/45/15
f 22/46/16 17/47/16 21/48/16
f 23/49/17 17/50/17 19/51/17
f 20/52/18 22/53/18 24/54/18
f 26/55/19 27/56/19 25/57/19
f 27/58/20 32/59/20 31/60/20
f 32/61/21 29/62/21 31/63/21
f 30/64/22 25/65/22 29/66/22
f 27/67/23 29/68/23 25/69/23
f 32/70/24 26/71/24 30/72/24
f 33/73/25 36/74/25 35/75/25
f 36/76/26 39/77/26 35/78/26
f 39/79/27 38/80/27 37/81/27
f 38/82/28 33/83/28 37/84/28
f 35/85/29 37/86/29 33/87/29
f 36/88/30 38/89/30 40/90/30
f 42/91/31 43/92/31 41/93/31
f 43/94/32 48/95/32 47/96/32
f 47/97/33 46/98/33 45/99/33
f 45/100/34 42/101/34 41/102/34
f 47/97/35 41/103/35 43/104/35
f 48/105/36 42/106/36 46/107/36
f 49/108/37 52/109/37 51/110/37
f 52/111/38 55/112/38 51/113/38
f 56/114/39 53/115/39 55/116/39
f 54/117/40 49/118/40 53/119/40
f 55/120/41 49/121/41 51/122/41
f 52/123/42 54/124/42 56/125/42
f 57/126/43 60/127/43 59/128/43
f 60/129/44 63/130/44 59/131/44
f 63/132/45 62/133/45 61/134/45
f 62/135/46 57/136/46 61/137/46
f 63/138/47 57/139/47 59/140/47
f 60/141/48 62/142/48 64/143/48
f 67/144/49 66/145/49 65/146/49
f 71/147/50 68/148/50 67/149/50
f 71/150/51 70/151/51 72/152/51
f 69/153/52 66/154/52 70/155/52
f 65/156/53 71/157/53 67/158/53
f 70/159/54 68/160/54 72/161/54
f 2/1/55 4/162/55 3/2/55
f 3/4/56 4/163/56 8/5/56
f 8/7/57 6/164/57 5/8/57
f 5/10/58 6/165/58 2/11/58
f 7/13/59 5/166/59 1/14/59
f 8/16/60 4/167/60 2/17/60
f 9/19/61 10/168/61 12/20/61
f 11/22/62 12/169/62 16/23/62
f 16/25/63 14/170/63 13/26/63
f 13/28/64 14/171/64 10/29/64
f 15/31/65 13/172/65 9/32/65
f 12/34/66 10/173/66 14/35/66
f 17/37/67 18/174/67 20/38/67
f 20/40/68 24/175/68 23/41/68
f 23/43/69 24/176/69 22/44/69
f 22/46/70 18/177/70 17/47/70
f 23/49/71 21/178/71 17/50/71
f 20/52/72 18/179/72 22/53/72
f 26/55/73 28/180/73 27/56/73
f 27/58/74 28/181/74 32/59/74
f 32/61/75 30/182/75 29/62/75
f 30/64/76 26/183/76 25/65/76
f 27/67/77 31/184/77 29/68/77
f 32/70/78 28/185/78 26/71/78
f 33/73/79 34/186/79 36/74/79
f 36/76/80 40/187/80 39/77/80
f 39/79/81 40/188/81 38/80/81
f 38/82/82 34/189/82 33/83/82
f 35/85/83 39/190/83 37/86/83
f 36/88/84 34/191/84 38/89/84
f 42/91/85 44/192/85 43/92/85
f 43/94/86 44/193/86 48/95/86
f 47/97/87 48/194/87 46/98/87
f 45/100/88 46/195/88 42/101/88
f 47/97/89 45/99/89 41/103/89
f 48/105/90 44/196/90 42/106/90
f 49/108/91 50/197/91 52/109/91
f 52/111/92 56/198/92 55/112/92
f 56/114/93 54/199/93 53/115/93
f 54/117/94 50/200/94 49/118/94
f 55/120/95 53/201/95 49/121/95
f 52/123/96 50/202/96 54/124/96
f 57/126/97 58/203/97 60/127/97
f 60/129/98 64/204/98 63/130/98
f 63/132/99 64/205/99 62/133/99
f 62/135/100 58/206/100 57/136/100
f 63/138/101 61/207/101 57/139/101
f 60/141/102 58/208/102 62/142/102
f 67/144/103 68/209/103 66/145/103
f 71/147/104 72/210/104 68/148/104
f 71/150/105 69/211/105 70/151/105
f 69/153/106 65/212/106 66/154/106
f 65/156/107 69/213/107 71/157/107
f 70/159/108 66/214/108 68/160/108
o campfire_wood
usemtl campfire_wood
v 0.338669 0.070747 -0.018433
v 0.317324 0.054494 -0.005894
v 0.308813 0.048649 0.023169
v 0.324160 0.061221 0.047714
v 0.349049 0.080614 0.049715
v 0.365149 0.092468 0.024944
v 0.359430 0.087239 -0.004773
v -0.073351 0.600747 -0.026146
v -0.088822 0.589053 -0.013779
v -0.096214 0.583870 0.007452
v -0.083194 0.594400 0.023101
v -0.065398 0.608356 0.027980
v -0.053750 0.616895 0.008625
v -0.057132 0.613662 -0.014289
v 0.090231 0.070747 0.308619
v 0.072756 0.052160 0.285871
v 0.039153 0.049772 0.289741
v 0.013297 0.060140 0.310142
v 0.024130 0.079921 0.336032
v 0.051568 0.091431 0.346519
v 0.082008 0.088276 0.335423
v -0.001526 0.600747 -0.060210
v -0.014925 0.589125 -0.073898
v -0.037475 0.585364 -0.074383
v -0.052015 0.594138 -0.058708
v -0.047835 0.607269 -0.040869
v -0.028311 0.615251 -0.033704
v -0.007057 0.612983 -0.041545
v -0.261259 0.070747 0.223980
v -0.250401 0.053874 0.199541
v -0.263164 0.049165 0.170484
v -0.291217 0.061105 0.159102
v -0.313414 0.080631 0.173826
v -0.308783 0.090561 0.203725
v -0.287542 0.086504 0.224078
v 0.049114 0.600747 -0.010322
v 0.056168 0.589338 -0.027255
v 0.047290 0.586430 -0.046597
v 0.028491 0.594145 -0.054900
v 0.011963 0.607938 -0.045694
v 0.012672 0.617153 -0.022997
v 0.030294 0.613696 -0.006330
v -0.326716 0.070747 -0.157014
v -0.301466 0.052942 -0.153670
v -0.282674 0.050922 -0.177977
v -0.278872 0.060718 -0.207240
v -0.301316 0.079923 -0.218273
v -0.327180 0.092168 -0.207402
v -0.337293 0.086949 -0.179274
v 0.020319 0.600747 0.060910
v 0.041205 0.587252 0.060735
v 0.056940 0.584564 0.042760
v 0.056150 0.593890 0.021734
v 0.041758 0.608284 0.009701
v 0.022750 0.615814 0.021196
v 0.013193 0.613505 0.041517
v 0.066239 0.070747 -0.303538
v 0.074526 0.055196 -0.276595
v 0.099103 0.048477 -0.256575
v 0.129013 0.061354 -0.264209
v 0.139771 0.080381 -0.288834
v 0.122070 0.092638 -0.314528
v 0.089930 0.087445 -0.319461
v -0.060495 0.600747 0.050139
v -0.057820 0.588976 0.069096
v -0.038839 0.586311 0.080723
v -0.017957 0.594127 0.077176
v -0.013390 0.606755 0.059806
v -0.023989 0.614895 0.043205
v -0.045527 0.612551 0.038172
v -0.299326 0.070747 0.137739
v -0.302877 0.038456 0.127058
v -0.316596 0.034250 0.095839
v -0.328452 0.053386 0.070757
v -0.328837 0.087320 0.072718
v -0.319307 0.110907 0.096128
v -0.304330 0.104892 0.129323
v 0.237538 0.090747 -0.109318
v 0.234355 0.066255 -0.118521
v 0.223846 0.061403 -0.142570
v 0.215260 0.077953 -0.160510
v 0.213685 0.104436 -0.161846
v 0.222476 0.116492 -0.141062
v 0.232725 0.114846 -0.118140
v 0.081752 0.070747 0.251927
v 0.065086 0.044884 0.257003
v 0.037739 0.035084 0.265937
v 0.014157 0.054803 0.274163
v 0.013866 0.086930 0.274855
v 0.038702 0.103725 0.266887
v 0.067104 0.098880 0.257330
v -0.111168 0.080747 -0.283767
v -0.118683 0.059902 -0.281648
v -0.139411 0.057914 -0.274775
v -0.157598 0.068976 -0.268508
v -0.156670 0.092113 -0.268389
v -0.140047 0.107795 -0.273640
v -0.119625 0.100052 -0.280590
vn 0.0195 0.0048 -0.9998
vn -0.6004 -0.4694 -0.6474
vn -0.0121 -0.0240 -0.9996
vn -0.5837 -0.4548 -0.6726
vn -0.7866 -0.5823 0.2056
vn -0.3819 -0.2574 0.8877
vn -0.7884 -0.5917 0.1684
vn 0.2554 0.2456 0.9351
vn -0.3883 -0.2558 0.8853
vn 0.7612 0.6136 0.2101
vn 0.2984 0.2720 0.9148
vn 0.6175 0.4787 -0.6241
vn 0.7602 0.6123 0.2172
vn 0.6411 0.4954 -0.5862
vn 0.6134 -0.7895 0.0209
vn -0.6134 0.7895 -0.0209
vn 0.9793 0.0327 -0.1997
vn 0.4886 -0.4357 -0.7559
vn 0.9700 -0.0012 -0.2430
vn -0.3748 -0.5524 -0.7446
vn 0.4625 -0.4401 -0.7696
vn -0.9634 -0.2269 -0.1428
vn -0.3755 -0.5572 -0.7406
vn -0.7648 0.3047 0.5677
vn -0.9602 -0.2284 -0.1607
vn -0.0728 0.5783 0.8126
vn -0.8006 0.2722 0.5338
vn -0.0817 0.5773 0.8124
vn 0.7338 0.4742 0.4865
vn 0.7297 0.4763 0.4906
vn 0.1233 -0.8128 0.5694
vn -0.1233 0.8128 -0.5694
vn 0.5641 0.0349 0.8250
vn 0.8831 -0.4502 0.1322
vn 0.6254 -0.0270 0.7798
vn 0.8842 -0.4422 0.1503
vn 0.5366 -0.5642 -0.6275
vn 0.5319 -0.5635 -0.6322
vn -0.1743 -0.2741 -0.9458
vn -0.2153 -0.2512 -0.9437
vn -0.7823 0.2414 -0.5742
vn -0.7370 0.5929 0.3246
vn -0.8140 0.2936 -0.5013
vn -0.1705 0.4824 0.8592
vn -0.7652 0.5840 0.2709
vn -0.0922 0.4449 0.8908
vn -0.4822 -0.8064 0.3425
vn 0.4822 0.8064 -0.3425
vn -0.5676 0.0386 0.8224
vn 0.2153 -0.4845 0.8479
vn -0.5574 0.0237 0.8299
vn 0.7733 -0.5862 0.2416
vn 0.1994 -0.4724 0.8586
vn 0.7897 -0.2712 -0.5503
vn 0.7900 -0.5822 0.1920
vn 0.1865 0.2919 -0.9381
vn 0.7930 -0.2621 -0.5499
vn -0.5437 0.6077 -0.5788
vn 0.1952 0.2790 -0.9403
vn -0.8510 0.4783 0.2166
vn -0.5263 0.6102 -0.5922
vn -0.8503 0.5112 0.1249
vn -0.5140 -0.7911 -0.3316
vn 0.5140 0.7911 0.3316
vn -0.8218 -0.4353 0.3676
vn -0.9326 0.0106 -0.3608
vn -0.9433 -0.0041 -0.3318
vn -0.0992 -0.5524 0.8276
vn -0.8168 -0.4424 0.3704
vn 0.7110 -0.2259 0.6659
vn -0.1346 -0.5510 0.8236
vn 0.9604 0.2786 -0.0049
vn 0.7249 -0.2186 0.6533
vn 0.9655 0.2583 0.0329
vn 0.5328 0.5734 -0.6224
vn -0.3430 0.4694 -0.8136
vn 0.4800 0.5832 -0.6554
vn -0.3340 0.4702 -0.8169
vn 0.2143 -0.8160 -0.5369
vn -0.2143 0.8160 0.5369
vn 0.4220 -0.0266 0.9062
vn 0.2942 -0.7715 0.5642
vn 0.4178 0.0088 0.9085
vn -0.0524 -0.9699 -0.2379
vn 0.2948 -0.7765 0.5569
vn -0.3369 -0.4547 -0.8245
vn -0.0616 -0.9664 -0.2496
vn -0.3630 0.4224 -0.8306
vn -0.3341 -0.4423 -0.8324
vn -0.1019 0.9763 -0.1908
vn -0.3601 0.4840 -0.7976
vn -0.1268 0.9569 -0.2614
vn 0.2319 0.8110 0.5372
vn 0.2670 0.7465 0.6095
vn -0.9133 -0.0338 0.4059
vn 0.9133 0.0338 -0.4059
vn 0.5656 -0.7934 -0.2250
vn 0.9433 0.0373 -0.3298
vn 0.9398 -0.0423 -0.3392
vn -0.2099 -0.9771 0.0342
vn 0.5674 -0.7947 -0.2157
vn -0.1710 -0.9851 0.0177
vn -0.8400 -0.4823 0.2485
vn -0.8589 -0.4418 0.2591
vn -0.8605 0.4252 0.2806
vn -0.1940 0.9789 0.0638
vn -0.8398 0.4720 0.2681
vn 0.6365 0.7411 -0.2139
vn -0.1808 0.9812 0.0672
vn 0.5439 0.8177 -0.1885
vn 0.3162 -0.0176 0.9485
vn -0.3162 0.0176 -0.9485
vt 0.260081 0.100000
vt 0.712795 1.136612
vt 0.674925 1.160000
vt 1.254726 0.067493
vt 0.756790 1.126246
vt 1.229540 0.080949
vt 1.240549 0.055804
vt 0.819991 1.175219
vt 0.793161 1.147306
vt 1.241207 0.143442
vt 1.230064 0.119733
vt 1.253717 0.132985
vt 0.768765 1.192296
vt 0.685854 1.185831
vt 0.253717 0.132985
vt 0.229540 0.080949
vt 0.254726 0.067493
vt 0.052622 0.100000
vt 0.501196 1.136755
vt 0.468630 1.160000
vt 1.029450 0.058050
vt 1.047690 0.062826
vt 0.586153 1.146783
vt 0.545702 1.129233
vt 1.018355 0.118349
vt 1.014327 0.078786
vt 0.556540 1.189008
vt 0.602134 1.173044
vt 1.030251 0.141367
vt 1.474742 1.184472
vt 0.474742 1.184472
vt 0.045021 0.135059
vt 0.018356 0.118349
vt 0.014327 0.078786
vt 0.029450 0.058050
vt 0.865842 0.100000
vt 1.316327 1.137181
vt 1.285229 1.160000
vt 0.860119 0.066255
vt 1.359337 1.131367
vt 0.843868 0.056836
vt 0.399879 1.146796
vt 0.359337 1.131367
vt 0.831288 0.080716
vt 0.422465 1.174381
vt 0.844876 0.139628
vt 0.832211 0.119768
vt 0.857941 0.131514
vt 1.374827 1.192813
vt 1.286052 1.185898
vt 0.285229 1.160000
vt 0.374827 1.192813
vt 0.674271 0.100000
vt 1.123253 1.133009
vt 1.087008 1.160000
vt 0.655173 0.060350
vt 0.670094 0.064390
vt 0.210683 1.146286
vt 0.170659 1.127634
vt 0.645129 0.118351
vt 0.642769 0.079942
vt 0.180752 1.190133
vt 0.233761 1.175073
vt 0.667864 0.132404
vt 1.180753 1.190133
vt 0.655435 0.142843
vt 1.100674 1.185516
vt 0.451178 0.068898
vt 0.875045 1.160000
vt 0.459211 0.100000
vt 1.451178 0.068898
vt 0.950833 1.131128
vt 0.906325 1.136458
vt 1.421868 0.081213
vt 1.434640 0.055461
vt 1.002707 1.172017
vt 0.992143 1.146761
vt 1.422889 0.119268
vt 0.961633 1.188295
vt 1.450363 0.133395
vt 1.435595 0.143782
vt 0.450363 0.133395
vt 0.882361 1.183607
vt 0.422889 0.119268
vt 0.819853 0.100000
vt 1.322832 0.091016
vt 1.317263 0.140000
vt 0.796968 0.027006
vt 0.322832 0.091016
vt 0.814181 0.035419
vt 0.348930 0.114412
vt 0.337775 0.081312
vt 0.784258 0.133146
vt 0.783349 0.065279
vt 0.337450 0.191491
vt 0.350061 0.167379
vt 0.796713 0.180319
vt 0.323050 0.188198
vt 1.323050 0.188198
vt 0.814943 0.168290
vt 0.317263 0.140000
vt 1.048405 0.048275
vt 0.551666 0.120000
vt 1.058839 0.100000
vt 0.567129 0.074333
vt 0.555748 0.078310
vt 1.031231 0.028673
vt 0.577041 0.096457
vt 1.016723 0.068111
vt 0.576644 0.142731
vt 1.031681 0.165956
vt 1.016512 0.132366
vt 0.556403 0.158611
vt 0.567675 0.174096
vt 1.049498 0.156266
vt 0.031681 0.165956
vt 0.016723 0.068111
vt 0.048405 0.048275
vt 0.241207 0.143442
vt 0.230064 0.119733
vt 0.240549 0.055804
vt 0.047690 0.062826
vt 1.045021 0.135059
vt 0.030251 0.141367
vt 0.286051 1.185898
vt 0.316327 1.137181
vt 1.170659 1.127634
vt 0.100674 1.185516
vt 0.123253 1.133009
vt 0.087008 1.160000
vt 0.435595 0.143782
vt 0.421868 0.081213
vt 0.434640 0.055461
vt 0.058839 0.100000
vt 0.049498 0.156266
vt 0.016512 0.132366
vt 0.031231 0.028673
s 1
f 73/215/109 81/216/110 80/217/111
f 74/218/112 82/219/113 81/216/110
f 76/220/114 82/219/113 75/221/115
f 76/220/114 84/222/116 83/223/117
f 78/224/118 84/222/116 77/225/119
f 79/226/120 85/227/121 78/224/118
f 73/215/109 86/228/122 79/229/120
s 0
f 79/229/123 76/230/123 74/231/123
f 83/223/124 84/222/124 85/227/124
s 1
f 87/232/125 95/233/126 94/234/127
f 89/235/128 95/233/126 88/236/129
f 89/235/128 97/237/130 96/238/131
f 91/239/132 97/237/130 90/240/133
f 91/239/132 99/241/134 98/242/135
f 92/243/136 100/244/137 99/241/134
f 87/232/125 100/245/137 93/246/138
s 0
f 91/247/139 90/248/139 89/249/139
f 98/242/140 99/241/140 95/233/140
s 1
f 101/250/141 109/251/142 108/252/143
f 102/253/144 110/254/145 109/251/142
f 103/255/146 111/256/147 110/257/145
f 104/258/148 112/259/149 111/256/147
f 106/260/150 112/259/149 105/261/151
f 107/262/152 113/263/153 106/260/150
f 107/262/152 108/252/143 114/264/154
s 0
f 103/255/155 102/253/155 107/262/155
f 108/265/156 111/256/156 113/266/156
s 1
f 115/267/157 123/268/158 122/269/159
f 117/270/160 123/268/158 116/271/161
f 117/270/160 125/272/162 124/273/163
f 119/274/164 125/272/162 118/275/165
f 119/274/164 127/276/166 126/277/167
f 121/278/168 127/279/166 120/280/169
f 115/267/157 128/281/170 121/278/168
s 0
f 121/278/171 119/274/171 117/270/171
f 125/272/172 126/277/172 127/276/172
s 1
f 130/282/173 136/283/174 129/284/175
f 130/285/173 138/286/176 137/287/177
f 132/288/178 138/286/176 131/289/179
f 132/288/178 140/290/180 139/291/181
f 133/292/182 141/293/183 140/290/180
f 135/294/184 141/293/183 134/295/185
f 135/296/184 136/283/174 142/297/186
s 0
f 130/282/187 135/296/187 133/298/187
f 140/290/188 141/293/188 136/283/188
s 1
f 143/299/189 151/300/190 150/301/191
f 145/302/192 151/303/190 144/304/193
f 145/302/192 153/305/194 152/306/195
f 147/307/196 153/305/194 146/308/197
f 147/307/196 155/309/198 154/310/199
f 148/311/200 156/312/201 155/309/198
f 143/299/189 156/313/201 149/314/202
s 0
f 147/307/203 146/308/203 145/302/203
f 155/309/204 150/315/204 152/306/204
s 1
f 158/316/205 164/317/206 157/318/207
f 158/316/205 166/319/208 165/320/209
f 159/321/210 167/322/211 166/319/208
f 160/323/212 168/324/213 167/322/211
f 162/325/214 168/324/213 161/326/215
f 162/325/214 170/327/216 169/328/217
f 163/329/218 164/317/206 170/327/216
s 0
f 162/330/219 160/331/219 158/332/219
f 166/319/220 167/322/220 168/324/220
s 1
f 73/215/109 74/231/112 81/216/110
f 74/218/112 75/221/115 82/219/113
f 76/220/114 83/223/117 82/219/113
f 76/220/114 77/225/119 84/222/116
f 78/224/118 85/227/121 84/222/116
f 79/226/120 86/228/122 85/227/121
f 73/215/109 80/217/111 86/228/122
s 0
f 74/231/123 73/215/123 79/229/123
f 79/229/123 78/333/123 76/230/123
f 78/333/123 77/334/123 76/230/123
f 76/230/123 75/335/123 74/231/123
f 85/227/124 86/228/124 83/223/124
f 86/228/124 80/217/124 81/216/124
f 83/223/124 86/228/124 81/216/124
f 81/216/124 82/219/124 83/223/124
s 1
f 87/232/125 88/336/129 95/233/126
f 89/235/128 96/238/131 95/233/126
f 89/235/128 90/240/133 97/237/130
f 91/239/132 98/242/135 97/237/130
f 91/239/132 92/243/136 99/241/134
f 92/243/136 93/337/138 100/244/137
f 87/232/125 94/234/127 100/245/137
s 0
f 88/336/139 87/232/139 89/249/139
f 87/232/139 93/246/139 92/338/139
f 89/249/139 87/232/139 92/338/139
f 92/338/139 91/247/139 89/249/139
f 99/241/140 100/245/140 94/234/140
f 94/234/140 95/233/140 99/241/140
f 95/233/140 96/238/140 97/237/140
f 98/242/140 95/233/140 97/237/140
s 1
f 101/250/141 102/253/144 109/251/142
f 102/253/144 103/255/146 110/254/145
f 103/255/146 104/258/148 111/256/147
f 104/258/148 105/261/151 112/259/149
f 106/260/150 113/266/153 112/259/149
f 107/262/152 114/264/154 113/263/153
f 107/262/152 101/250/141 108/252/143
s 0
f 102/253/155 101/250/155 107/262/155
f 107/262/155 106/260/155 103/255/155
f 106/260/155 105/261/155 104/258/155
f 103/255/155 106/260/155 104/258/155
f 113/266/156 114/339/156 108/265/156
f 108/265/156 109/340/156 110/257/156
f 110/257/156 111/256/156 108/265/156
f 111/256/156 112/259/156 113/266/156
s 1
f 115/267/157 116/271/161 123/268/158
f 117/270/160 124/341/163 123/268/158
f 117/270/160 118/275/165 125/272/162
f 119/274/164 126/277/167 125/272/162
f 119/274/164 120/280/169 127/276/166
f 121/278/168 128/281/170 127/279/166
f 115/267/157 122/269/159 128/281/170
s 0
f 116/271/171 115/267/171 117/270/171
f 115/267/171 121/278/171 117/270/171
f 121/278/171 120/280/171 119/274/171
f 119/274/171 118/275/171 117/270/171
f 127/276/172 128/342/172 123/343/172
f 128/342/172 122/344/172 123/343/172
f 123/343/172 124/273/172 127/276/172
f 124/273/172 125/272/172 127/276/172
s 1
f 130/282/173 137/287/177 136/283/174
f 130/285/173 131/289/179 138/286/176
f 132/288/178 139/291/181 138/286/176
f 132/288/178 133/292/182 140/290/180
f 133/292/182 134/295/185 141/293/183
f 135/294/184 142/297/186 141/293/183
f 135/296/184 129/284/175 136/283/174
s 0
f 130/282/187 129/284/187 135/296/187
f 135/296/187 134/345/187 133/298/187
f 133/298/187 132/346/187 130/282/187
f 132/346/187 131/347/187 130/282/187
f 141/293/188 142/297/188 136/283/188
f 136/283/188 137/287/188 140/290/188
f 137/287/188 138/286/188 140/290/188
f 138/286/188 139/291/188 140/290/188
s 1
f 143/299/189 144/304/193 151/300/190
f 145/302/192 152/306/195 151/303/190
f 145/302/192 146/308/197 153/305/194
f 147/307/196 154/310/199 153/305/194
f 147/307/196 148/311/200 155/309/198
f 148/311/200 149/314/202 156/312/201
f 143/299/189 150/301/191 156/313/201
s 0
f 144/304/203 143/299/203 145/302/203
f 143/299/203 149/314/203 148/311/203
f 145/302/203 143/299/203 147/307/203
f 148/311/203 147/307/203 143/299/203
f 155/309/204 156/312/204 150/315/204
f 150/315/204 151/303/204 152/306/204
f 152/306/204 153/305/204 155/309/204
f 153/305/204 154/310/204 155/309/204
s 1
f 158/316/205 165/320/209 164/317/206
f 158/316/205 159/321/210 166/319/208
f 159/321/210 160/323/212 167/322/211
f 160/323/212 161/326/215 168/324/213
f 162/325/214 169/328/217 168/324/213
f 162/325/214 163/329/218 170/327/216
f 163/329/218 157/318/207 164/317/206
s 0
f 158/332/219 157/348/219 163/349/219
f 163/349/219 162/330/219 158/332/219
f 162/330/219 161/350/219 160/331/219
f 158/332/219 160/331/219 159/351/219
f 169/328/220 170/327/220 168/324/220
f 170/327/220 164/317/220 166/319/220
f 168/324/220 170/327/220 166/319/220
f 164/317/220 165/320/220 166/319/220
o campfire_char
usemtl campfire_char
v -0.014340 0.040747 0.003957
v 0.363207 0.038747 0.003957
v 0.378444 0.038747 0.193112
v 0.226448 0.038747 0.305896
v 0.087817 0.038747 0.451536
v -0.126342 0.038747 0.494672
v -0.283774 0.038747 0.341817
v -0.379356 0.038747 0.179739
v -0.491197 0.038747 0.003957
v -0.429122 0.038747 -0.195792
v -0.300193 0.038747 -0.354491
v -0.107881 0.038747 -0.405876
v 0.091364 0.038747 -0.459161
v 0.230389 0.038747 -0.302923
v 0.386411 0.038747 -0.189034
vn -0.0053 -1.0000 0.0004
vn -0.0031 -1.0000 -0.0042
vn -0.0038 -1.0000 -0.0036
vn -0.0009 -1.0000 -0.0043
vn 0.0032 -1.0000 -0.0033
vn 0.0043 -1.0000 -0.0025
vn 0.0042 -1.0000 -0.0027
vn 0.0042 -1.0000 0.0013
vn 0.0035 -1.0000 0.0028
vn 0.0012 -1.0000 0.0046
vn -0.0039 -1.0000 0.0034
vn -0.0030 -1.0000 0.0041
vn -0.0053 -1.0000 -0.0006
vt 0.000000 0.000000
vt 0.471933 0.000000
vt 0.490980 0.236443
vt 0.300985 0.377423
vt 0.127696 0.559474
vt -0.140003 0.613394
vt -0.336793 0.422325
vt -0.456270 0.219728
vt -0.596072 0.000000
vt -0.518478 -0.249686
vt -0.357316 -0.448060
vt -0.116927 -0.512291
vt 0.132130 -0.578898
vt 0.305911 -0.383600
vt 0.500938 -0.241239
s 0
f 171/352/221 172/353/221 173/354/221
f 171/352/222 173/354/222 174/355/222
f 171/352/223 174/355/223 175/356/223
f 171/352/224 175/356/224 176/357/224
f 171/352/225 176/357/225 177/358/225
f 171/352/226 177/358/226 178/359/226
f 171/352/227 178/359/227 179/360/227
f 171/352/228 179/360/228 180/361/228
f 171/352/229 180/361/229 181/362/229
f 171/352/230 181/362/230 182/363/230
f 171/352/230 182/363/230 183/364/230
f 171/352/231 183/364/231 184/365/231
f 171/352/232 184/365/232 185/366/232
f 171/352/233 185/366/233 172/353/233
