# Blender 5.0.1
# www.blender.org
mtllib clam_a.mtl
o shell
usemtl shell
v -0.104146 0.126656 -0.172915
v -0.104146 0.145020 -0.172915
v -0.141267 0.040088 -0.129880
v -0.138669 0.064944 -0.132892
v -0.178388 0.004230 -0.086844
v -0.173191 0.031776 -0.092869
v -0.215509 0.040088 -0.043808
v -0.207713 0.064944 -0.052846
v -0.252630 0.126656 -0.000772
v -0.242236 0.145020 -0.012822
v -0.090155 0.126656 -0.172915
v -0.090155 0.145020 -0.172915
v -0.124493 0.039690 -0.117015
v -0.122089 0.064546 -0.120928
v -0.158831 0.002637 -0.061114
v -0.154024 0.030183 -0.068940
v -0.193170 0.036504 -0.005214
v -0.185959 0.061361 -0.016953
v -0.227508 0.120285 0.050687
v -0.217893 0.138649 0.035035
v -0.076163 0.126656 -0.172915
v -0.076163 0.145020 -0.172915
v -0.109626 0.040237 -0.101498
v -0.107283 0.065093 -0.106497
v -0.143088 0.004825 -0.030081
v -0.138404 0.032371 -0.040079
v -0.176551 0.041427 0.041336
v -0.169524 0.066284 0.026339
v -0.210014 0.129038 0.112754
v -0.200644 0.147401 0.092757
v -0.062172 0.126656 -0.172915
v -0.062172 0.145020 -0.172915
v -0.092286 0.040910 -0.087422
v -0.090178 0.065766 -0.093406
v -0.122401 0.007518 -0.001928
v -0.118185 0.035064 -0.013897
v -0.152515 0.047485 0.083566
v -0.146191 0.072342 0.065612
v -0.182630 0.139807 0.169059
v -0.174197 0.158171 0.145121
v -0.048180 0.126656 -0.172915
v -0.048180 0.145020 -0.172915
v -0.070589 0.040690 -0.081706
v -0.069020 0.065547 -0.088091
v -0.092997 0.006639 0.009503
v -0.089860 0.034185 -0.003266
v -0.115406 0.045508 0.100712
v -0.110700 0.070364 0.081558
v -0.137814 0.136292 0.191921
v -0.131540 0.154656 0.166382
v -0.034189 0.126656 -0.172915
v -0.034189 0.145020 -0.172915
v -0.048826 0.039663 -0.078703
v -0.047801 0.064520 -0.085298
v -0.063463 0.002531 0.015508
v -0.061414 0.030077 0.002319
v -0.078100 0.036265 0.109720
v -0.075027 0.061121 0.089936
v -0.092738 0.119860 0.203932
v -0.088639 0.138224 0.177553
v -0.020197 0.126656 -0.172915
v -0.020197 0.145020 -0.172915
v -0.027243 0.039030 -0.078621
v -0.026750 0.063887 -0.085221
v -0.034289 0.000000 0.015674
v -0.033303 0.027546 0.002472
v -0.041336 0.030570 0.109968
v -0.039856 0.055427 0.090166
v -0.048382 0.109736 0.204262
v -0.046409 0.128100 0.177860
v -0.006206 0.126656 -0.172915
v -0.006206 0.145020 -0.172915
v -0.006206 0.039602 -0.075609
v -0.006206 0.064459 -0.082421
v -0.006206 0.002287 0.021697
v -0.006206 0.029833 0.008074
v -0.006206 0.035716 0.119002
v -0.006206 0.060572 0.098568
v -0.006206 0.118884 0.216308
v -0.006206 0.137248 0.189063
v 0.007786 0.126656 -0.172915
v 0.007786 0.145020 -0.172915
v 0.015590 0.040727 -0.071846
v 0.015043 0.065584 -0.078921
v 0.023393 0.006788 0.029222
v 0.022301 0.034334 0.015073
v 0.031197 0.045844 0.130291
v 0.029558 0.070700 0.109067
v 0.039001 0.136889 0.231360
v 0.036816 0.155253 0.203061
v 0.021778 0.126656 -0.172915
v 0.021778 0.145020 -0.172915
v 0.037592 0.041085 -0.073579
v 0.036485 0.065941 -0.080532
v 0.053406 0.008217 0.025758
v 0.051192 0.035763 0.011851
v 0.069220 0.049059 0.125095
v 0.065899 0.073916 0.104234
v 0.085034 0.142605 0.224432
v 0.080606 0.160969 0.196617
v 0.035769 0.126656 -0.172915
v 0.035769 0.145020 -0.172915
v 0.057713 0.040324 -0.082993
v 0.056177 0.065181 -0.089288
v 0.079657 0.005176 0.006928
v 0.076585 0.032721 -0.005661
v 0.101602 0.042215 0.096850
v 0.096993 0.067072 0.077967
v 0.123546 0.130438 0.186772
v 0.117401 0.148802 0.161594
v 0.049761 0.126656 -0.172915
v 0.049761 0.145020 -0.172915
v 0.075406 0.039442 -0.096084
v 0.073611 0.064299 -0.101463
v 0.101051 0.001649 -0.019254
v 0.097461 0.029195 -0.030010
v 0.126696 0.034280 0.057577
v 0.121311 0.059137 0.041443
v 0.152342 0.116331 0.134408
v 0.145161 0.134695 0.112895
v 0.063752 0.126656 -0.172915
v 0.063752 0.145020 -0.172915
v 0.095128 0.039443 -0.104422
v 0.092932 0.064299 -0.109217
v 0.126505 0.001649 -0.035929
v 0.122112 0.029195 -0.045518
v 0.157881 0.034281 0.032564
v 0.151292 0.059138 0.018180
v 0.189257 0.116333 0.101056
v 0.180472 0.134697 0.081878
v 0.077744 0.126656 -0.172915
v 0.077744 0.145020 -0.172915
v 0.113138 0.040071 -0.115948
v 0.110661 0.064927 -0.119935
v 0.148533 0.004162 -0.058980
v 0.143577 0.031708 -0.066955
v 0.183927 0.039934 -0.002012
v 0.176494 0.064790 -0.013975
v 0.219322 0.126383 0.054956
v 0.209411 0.144746 0.039005
v 0.091735 0.126656 -0.172915
v 0.091735 0.145020 -0.172915
v 0.130644 0.040088 -0.128631
v 0.127920 0.064944 -0.131730
v 0.169553 0.004230 -0.084346
v 0.164106 0.031776 -0.090546
v 0.208462 0.040088 -0.040061
v 0.200291 0.064944 -0.049361
v 0.247370 0.126656 0.004224
v 0.236476 0.145020 -0.008176
v -0.104146 0.161525 -0.180965
v -0.104146 0.145020 -0.172915
v -0.141220 0.251959 -0.177228
v -0.138625 0.228298 -0.169037
v -0.178293 0.300460 -0.153039
v -0.173103 0.273063 -0.146375
v -0.215366 0.289661 -0.099927
v -0.207581 0.263361 -0.097148
v -0.252440 0.236929 -0.026364
v -0.242059 0.215146 -0.029136
v -0.090155 0.161525 -0.180965
v -0.090155 0.145020 -0.172915
v -0.126368 0.258801 -0.164108
v -0.123833 0.234687 -0.156847
v -0.162581 0.314861 -0.127147
v -0.157511 0.286556 -0.122344
v -0.198794 0.312335 -0.061613
v -0.191189 0.284674 -0.061625
v -0.235006 0.268593 0.024024
v -0.224867 0.244994 0.017529
v -0.076163 0.161525 -0.180965
v -0.076163 0.145020 -0.172915
v -0.107241 0.262816 -0.154628
v -0.105066 0.238386 -0.148015
v -0.138319 0.321907 -0.107709
v -0.133968 0.292971 -0.104199
v -0.169397 0.321430 -0.031736
v -0.162871 0.292822 -0.033688
v -0.200475 0.278753 0.064819
v -0.191773 0.253892 0.055738
v -0.062172 0.161525 -0.180965
v -0.062172 0.145020 -0.172915
v -0.087076 0.265420 -0.147753
v -0.085333 0.240766 -0.141601
v -0.111981 0.325905 -0.093369
v -0.108495 0.296520 -0.090781
v -0.136886 0.325612 -0.009341
v -0.131656 0.296331 -0.012675
v -0.161791 0.281909 0.095859
v -0.154817 0.256150 0.084935
v -0.048180 0.161525 -0.180965
v -0.048180 0.145020 -0.172915
v -0.067705 0.269045 -0.140822
v -0.066338 0.244151 -0.135161
v -0.087229 0.333550 -0.079699
v -0.084496 0.303685 -0.078095
v -0.106754 0.337672 0.010875
v -0.102654 0.307671 0.006065
v -0.126278 0.298780 0.122428
v -0.120811 0.272060 0.109537
v -0.034189 0.161525 -0.180965
v -0.034189 0.145020 -0.172915
v -0.048843 0.274822 -0.131320
v -0.047817 0.249588 -0.126356
v -0.063498 0.346950 -0.061596
v -0.061446 0.316406 -0.061385
v -0.078152 0.360542 0.036679
v -0.075075 0.329521 0.029779
v -0.092807 0.332964 0.155033
v -0.088703 0.304886 0.139355
v -0.020197 0.161525 -0.180965
v -0.020197 0.145020 -0.172915
v -0.027866 0.277837 -0.126583
v -0.027330 0.252431 -0.121969
v -0.035536 0.354117 -0.052675
v -0.034462 0.323230 -0.053166
v -0.043205 0.372998 0.049228
v -0.041594 0.341464 0.041275
v -0.050874 0.351847 0.170655
v -0.048727 0.323084 0.153573
v -0.006206 0.161525 -0.180965
v -0.006206 0.145020 -0.172915
v -0.006206 0.277710 -0.125538
v -0.006206 0.252278 -0.120980
v -0.006206 0.352837 -0.050084
v -0.006206 0.321895 -0.050686
v -0.006206 0.369535 0.053867
v -0.006206 0.337920 0.045747
v -0.006206 0.345175 0.177843
v -0.006206 0.316303 0.160538
v 0.007786 0.161525 -0.180965
v 0.007786 0.145020 -0.172915
v 0.014747 0.273536 -0.131529
v 0.014260 0.248325 -0.126517
v 0.021709 0.342466 -0.061079
v 0.020734 0.311967 -0.060774
v 0.028670 0.350945 0.038854
v 0.027208 0.319993 0.032095
v 0.035631 0.316342 0.159799
v 0.033682 0.288355 0.144310
v 0.021778 0.161525 -0.180965
v 0.021778 0.145020 -0.172915
v 0.034508 0.269870 -0.138230
v 0.033616 0.244893 -0.132738
v 0.047238 0.334492 -0.074169
v 0.045455 0.304461 -0.072903
v 0.059968 0.338020 0.019689
v 0.057294 0.307771 0.014371
v 0.072698 0.297825 0.134873
v 0.069133 0.270775 0.121304
v 0.035769 0.161525 -0.180965
v 0.035769 0.145020 -0.172915
v 0.055590 0.269734 -0.140244
v 0.054202 0.244815 -0.134635
v 0.075411 0.335586 -0.078864
v 0.072636 0.305671 -0.077363
v 0.095232 0.341712 0.011647
v 0.091069 0.311635 0.006682
v 0.115053 0.305481 0.122816
v 0.109503 0.278661 0.109718
v 0.049761 0.161525 -0.180965
v 0.049761 0.145020 -0.172915
v 0.077979 0.269554 -0.142624
v 0.076003 0.244703 -0.136875
v 0.106197 0.336811 -0.084397
v 0.102246 0.307032 -0.082616
v 0.134415 0.345928 0.002188
v 0.128489 0.316055 -0.002358
v 0.162633 0.314272 0.108658
v 0.154732 0.287724 0.096118
v 0.063752 0.161525 -0.180965
v 0.063752 0.145020 -0.172915
v 0.096731 0.264698 -0.152582
v 0.094422 0.240186 -0.146136
v 0.129710 0.327097 -0.104312
v 0.125093 0.297998 -0.101138
v 0.162688 0.331356 -0.027685
v 0.155763 0.302503 -0.030140
v 0.195667 0.294843 0.068829
v 0.186433 0.269655 0.059077
v 0.077744 0.161525 -0.180965
v 0.077744 0.145020 -0.172915
v 0.111365 0.257311 -0.166294
v 0.109012 0.233277 -0.158869
v 0.144987 0.311195 -0.131186
v 0.140280 0.283051 -0.126053
v 0.178608 0.305809 -0.067169
v 0.171548 0.278389 -0.066687
v 0.212230 0.258522 0.017283
v 0.202816 0.235244 0.011448
v 0.091735 0.161525 -0.180965
v 0.091735 0.145020 -0.172915
v 0.128613 0.251899 -0.177351
v 0.126032 0.228243 -0.169151
v 0.165491 0.300341 -0.153285
v 0.160328 0.272952 -0.146603
v 0.202369 0.289481 -0.100295
v 0.194625 0.263194 -0.097490
v 0.239247 0.236690 -0.026854
v 0.228921 0.214923 -0.029592
v -0.104146 0.122065 -0.216989
v -0.104146 0.122065 -0.168018
v -0.104146 0.186339 -0.216989
v -0.104146 0.186339 -0.168018
v 0.091735 0.122065 -0.216989
v 0.091735 0.122065 -0.168018
v 0.091735 0.186339 -0.216989
v 0.091735 0.186339 -0.168018
vn -0.3463 -0.2007 -0.9164
vn 0.4571 -0.7274 -0.5118
vn -0.1831 -0.5237 -0.8320
vn -0.4386 0.7302 0.5239
vn -0.4366 0.8590 -0.2672
vn -0.8636 0.4892 -0.1219
vn -0.4417 -0.7822 -0.4394
vn -0.6480 0.5523 -0.5244
vn 0.0187 -0.9998 -0.0097
vn -0.8587 -0.4847 -0.1665
vn -0.1806 0.5550 -0.8120
vn -0.0171 0.9998 0.0113
vn -0.6147 -0.7296 0.2997
vn -0.9956 0.0857 0.0371
vn -0.2442 0.8520 -0.4631
vn 0.6014 0.7366 -0.3095
vn 0.1013 0.9944 -0.0304
vn -0.0559 0.9452 -0.3218
vn 0.0188 -0.3187 -0.9477
vn 0.4440 -0.7770 -0.4461
vn -0.4273 0.7809 0.4556
vn 0.0011 -0.9986 0.0523
vn -0.0065 0.9984 -0.0554
vn -0.5666 -0.7490 0.3434
vn -0.9403 -0.0037 0.3402
vn 0.5499 0.7555 -0.3561
vn -0.1251 0.9773 -0.1710
vn -0.0387 0.9289 -0.3683
vn 0.0152 -0.3659 -0.9305
vn 0.2550 -0.8454 -0.4693
vn -0.2444 0.8471 0.4720
vn -0.0620 -0.9944 0.0851
vn 0.0567 0.9945 -0.0878
vn -0.4170 -0.7814 0.4642
vn -0.9229 0.0044 0.3849
vn 0.4057 0.7835 -0.4707
vn -0.1491 0.9882 -0.0338
vn -0.0122 0.9199 -0.3921
vn 0.0052 -0.3905 -0.9206
vn 0.0763 -0.8542 -0.5144
vn -0.0680 0.8529 0.5176
vn -0.0994 -0.9950 0.0102
vn 0.1057 0.9943 -0.0123
vn -0.3066 -0.8162 0.4896
vn -0.6665 0.1128 0.7369
vn 0.3079 0.8164 -0.4886
vn 0.1991 0.9797 0.0238
vn -0.0038 0.9164 -0.4002
vn 0.0018 -0.3989 -0.9170
vn -0.0020 -0.8499 -0.5269
vn 0.0014 0.8486 0.5290
vn 0.1154 0.9932 0.0163
vn -0.2235 -0.8475 0.4815
vn 0.2292 0.8486 -0.4768
vn -0.1246 0.0308 0.9917
vn -0.3036 0.1480 0.9412
vn 0.2899 0.9566 0.0284
vn 0.0014 0.9159 -0.4013
vn -0.0005 -0.4002 -0.9164
vn 0.0366 -0.8415 -0.5390
vn -0.0346 0.8422 0.5380
vn 0.0025 -0.9985 -0.0544
vn -0.1129 -0.9935 -0.0164
vn -0.0022 0.9984 0.0560
vn -0.0637 -0.8816 0.4677
vn 0.0616 0.8841 -0.4633
vn -0.1463 -0.0660 0.9870
vn 0.0250 0.9940 -0.1064
vn -0.0000 0.9163 -0.4006
vn 0.0033 -0.4043 -0.9146
vn -0.0000 -0.3995 -0.9167
vn -0.0074 0.9141 -0.4055
vn 0.1157 -0.8473 -0.5184
vn -0.1127 0.8484 0.5173
vn 0.1179 -0.9929 -0.0160
vn -0.1221 0.9924 0.0172
vn 0.0411 -0.8678 0.4951
vn -0.0540 0.8690 -0.4918
vn -0.2775 0.9557 -0.0979
vn 0.0044 -0.4141 -0.9102
vn -0.0098 0.9096 -0.4154
vn 0.0596 -0.8686 -0.4919
vn -0.0597 0.8696 0.4902
vn 0.0983 -0.9940 0.0481
vn -0.1031 0.9935 -0.0474
vn 0.1030 -0.8394 0.5337
vn -0.2860 -0.0324 0.9577
vn -0.1119 0.8394 -0.5319
vn -0.2550 0.9669 0.0069
vn -0.0101 -0.4090 -0.9125
vn 0.0024 0.9077 -0.4197
vn -0.1386 -0.8745 -0.4647
vn 0.1300 0.8726 0.4708
vn 0.0178 -0.9963 0.0843
vn -0.0145 0.9963 -0.0852
vn 0.2214 -0.8190 0.5294
vn -0.1001 0.0996 0.9900
vn -0.2130 0.8197 -0.5317
vn 0.4076 0.1412 0.9022
vn -0.3136 -0.8346 -0.4529
vn 0.0533 0.9168 -0.3957
vn -0.0510 -0.9967 0.0633
vn 0.0587 0.9962 -0.0650
vn 0.3549 -0.8122 0.4630
vn -0.3346 0.8166 -0.4703
vn 0.7684 -0.0094 0.6399
vn 0.2527 0.9542 -0.1601
vn 0.1065 0.9943 -0.0023
vn -0.0135 -0.3787 -0.9254
vn -0.3038 -0.7969 -0.5222
vn 0.2904 0.7992 0.5262
vn 0.3100 0.8319 0.4602
vn -0.0920 -0.9957 -0.0140
vn 0.0918 0.9957 0.0150
vn 0.3639 -0.8256 0.4313
vn -0.3469 0.8306 -0.4356
vn 0.8036 -0.0425 0.5937
vn -0.0278 0.9903 -0.1359
vn -0.0000 0.9351 -0.3544
vn -0.0092 -0.3431 -0.9392
vn -0.0000 -0.3533 -0.9355
vn 0.0252 0.9384 -0.3447
vn 0.0690 -0.9975 -0.0152
vn -0.0685 0.9975 0.0174
vn 0.4875 -0.7781 0.3961
vn -0.4786 0.7826 -0.3980
vn 0.7417 0.0294 0.6701
vn -0.0462 0.9977 0.0500
vn -0.0132 -0.3128 -0.9497
vn -0.2759 -0.7848 -0.5550
vn 0.2626 0.7855 0.5604
vn 0.0399 0.9483 -0.3148
vn 0.0624 -0.9979 -0.0173
vn -0.0636 0.9978 0.0178
vn 0.5931 -0.7240 0.3521
vn -0.5846 0.7279 -0.3584
vn 0.8313 0.1176 0.5432
vn -0.0790 0.9963 0.0338
vn 0.3412 -0.2054 -0.9173
vn -0.3631 -0.7487 -0.5547
vn 0.3470 0.7499 0.5633
vn 0.4326 0.8592 -0.2732
vn 0.4388 -0.7930 -0.4227
vn 0.6402 0.5432 -0.5432
vn 0.8446 -0.5168 -0.1397
vn 0.2186 0.5358 -0.8155
vn 0.9972 0.0517 0.0543
vn 0.2859 0.8241 -0.4890
vn 0.8545 0.5019 -0.1342
vn 0.1880 -0.5320 -0.8256
vn -0.3414 -0.1999 -0.9184
vn 0.3757 0.4804 -0.7925
vn 0.0130 -0.1136 -0.9934
vn -0.4286 -0.8969 0.1092
vn -0.3590 -0.4797 0.8007
vn -0.8617 -0.5038 0.0607
vn -0.4151 0.5013 -0.7592
vn -0.1544 0.1435 -0.9775
vn -0.6598 -0.7230 -0.2050
vn 0.0639 -0.9042 0.4223
vn -0.8473 0.3304 -0.4157
vn -0.0680 0.9038 -0.4226
vn -0.1621 -0.8891 -0.4280
vn 0.5313 -0.8468 0.0235
vn -0.9965 -0.0823 -0.0143
vn -0.5451 0.8380 -0.0259
vn -0.1976 -0.9788 -0.0540
vn -0.1308 -0.9047 0.4054
vn -0.8578 0.2484 0.4500
vn -0.0368 -0.9933 0.1094
vn 0.2619 0.4982 -0.8266
vn 0.0090 -0.0826 -0.9965
vn -0.2510 -0.5004 0.8286
vn -0.0460 -0.9242 0.3791
vn 0.0414 0.9238 -0.3807
vn 0.2841 -0.9522 -0.1122
vn -0.3009 0.9473 0.1098
vn -0.1856 -0.9293 0.3193
vn -0.6773 0.3164 0.6642
vn -0.0232 -0.9966 0.0788
vn 0.2092 0.5167 -0.8302
vn 0.0081 -0.0582 -0.9983
vn -0.1987 -0.5207 0.8303
vn -0.0150 -0.9151 0.4030
vn 0.0146 0.9139 -0.4058
vn 0.3035 -0.9469 -0.1064
vn -0.3158 0.9431 0.1044
vn -0.0203 -0.9344 0.3556
vn -0.6321 0.2267 0.7410
vn -0.0192 -0.9983 0.0545
vn 0.2061 0.5446 -0.8130
vn -0.0000 -0.0482 -0.9988
vn -0.1918 -0.5490 0.8136
vn 0.0884 -0.8888 0.4496
vn -0.0829 0.8888 -0.4508
vn 0.5046 -0.8633 -0.0118
vn -0.5107 0.8597 0.0127
vn 0.2319 -0.8571 0.4600
vn -0.6908 0.1485 0.7076
vn -0.0000 -0.9990 0.0449
vn 0.0093 -0.0309 -0.9995
vn -0.0202 -0.9994 0.0272
vn -0.1419 -0.5851 0.7985
vn 0.1534 0.5819 -0.7986
vn 0.1652 -0.8864 0.4324
vn -0.1636 0.8875 -0.4307
vn 0.4787 -0.8778 0.0181
vn -0.4822 0.8760 -0.0129
vn 0.1740 -0.8228 0.5411
vn -0.5875 0.2737 0.7615
vn 0.0056 -0.0113 -0.9999
vn -0.0116 -0.9999 0.0082
vn -0.0683 -0.5854 0.8079
vn 0.0720 0.5827 -0.8095
vn 0.0149 -0.8961 0.4437
vn -0.0156 0.8978 -0.4402
vn 0.1270 -0.9919 0.0023
vn -0.1313 0.9913 0.0061
vn -0.0206 -0.8715 0.4900
vn -0.2622 0.4852 0.8342
vn -0.0296 0.5946 -0.8035
vn -0.0051 -0.0109 -0.9999
vn 0.0247 -0.5977 0.8014
vn 0.1516 0.9035 -0.4009
vn -0.1549 -0.9016 0.4038
vn -0.3047 -0.9517 -0.0383
vn 0.3006 0.9527 0.0452
vn -0.2449 -0.8165 0.5228
vn 0.2212 0.3905 0.8936
vn 0.0105 -0.9999 0.0077
vn -0.1393 0.5754 -0.8059
vn -0.0068 -0.0273 -0.9996
vn 0.1285 -0.5804 0.8042
vn 0.1282 0.8999 -0.4169
vn -0.1319 -0.9000 0.4155
vn 0.4548 0.8888 0.0572
vn -0.4516 -0.8905 -0.0552
vn 0.5159 0.1988 0.8332
vn -0.2186 -0.8565 0.4676
vn 0.0148 -0.9996 0.0237
vn -0.1201 0.5448 -0.8299
vn -0.0000 -0.0390 -0.9992
vn 0.1131 -0.5505 0.8271
vn -0.0397 0.8941 -0.4461
vn 0.0384 -0.8959 0.4425
vn 0.1676 0.9806 0.1019
vn -0.1590 -0.9820 -0.1020
vn 0.4541 0.2255 0.8619
vn -0.0128 -0.9540 0.2995
vn -0.0000 -0.9994 0.0356
vn -0.0027 -0.0426 -0.9991
vn 0.0063 -0.9992 0.0393
vn 0.0813 -0.5461 0.8338
vn -0.0828 0.5414 -0.8367
vn 0.1071 -0.9065 0.4085
vn -0.0703 0.9886 0.1334
vn -0.1032 0.9063 -0.4097
vn 0.0807 -0.9881 -0.1306
vn 0.2037 0.3707 0.9061
vn 0.2679 -0.9081 0.3220
vn -0.0032 -0.0508 -0.9987
vn 0.0076 -0.9988 0.0476
vn 0.1796 -0.5516 0.8145
vn -0.1867 0.5498 -0.8141
vn 0.0303 -0.9236 0.3822
vn -0.0239 0.9246 -0.3802
vn -0.1914 -0.9795 -0.0624
vn 0.4943 0.4162 0.7632
vn 0.2052 0.9764 0.0666
vn 0.2389 -0.8588 0.4531
vn -0.0119 -0.0698 -0.9975
vn 0.0292 -0.9974 0.0660
vn 0.3390 -0.5223 0.7825
vn 0.1106 0.8838 -0.4547
vn -0.3569 0.5218 -0.7748
vn -0.1078 -0.8836 0.4556
vn 0.5882 0.8032 -0.0944
vn -0.5764 -0.8116 0.0951
vn 0.8731 0.1983 0.4454
vn 0.0577 -0.8791 0.4731
vn -0.0184 -0.1125 -0.9935
vn 0.0513 -0.9929 0.1073
vn 0.4044 -0.4522 0.7950
vn 0.0119 0.8834 -0.4685
vn -0.4247 0.4519 -0.7844
vn -0.0163 -0.8823 0.4703
vn 0.6436 0.7612 -0.0804
vn -0.6323 -0.7708 0.0779
vn 0.9257 0.0746 0.3708
vn -0.1425 -0.8659 0.4795
vn 0.3438 -0.2075 -0.9158
vn 0.4308 -0.8947 0.1183
vn 0.8489 -0.5186 0.1026
vn 0.4448 0.5267 -0.7244
vn 0.2018 0.1296 -0.9708
vn 0.6419 -0.7293 -0.2366
vn 0.8393 0.4104 -0.3565
vn 0.2342 -0.8444 -0.4818
vn 0.9977 -0.0059 0.0679
vn 0.3000 -0.9516 -0.0664
vn -1.0000 -0.0000 -0.0000
vn -0.0000 1.0000 -0.0000
vn 1.0000 -0.0000 -0.0000
vn -0.0000 -1.0000 -0.0000
vn -0.0000 -0.0000 -1.0000
vn -0.0000 -0.0000 1.0000
vt 0.228571 -0.042857
vt 0.276056 -0.245817
vt 0.315203 -0.244888
vt -0.270447 -0.187807
vt -0.228571 -0.000000
vt -0.309139 -0.186878
vt -0.276056 0.349541
vt -0.401834 0.279129
vt -0.315203 0.379565
vt -0.389706 -0.293190
vt -0.270447 -0.358673
vt -0.309139 -0.386595
vt -0.356194 0.219082
vt -0.488466 0.178694
vt -0.470273 -0.199785
vt -0.344975 -0.237346
vt -0.088623 -0.253251
vt -0.078258 -0.042857
vt -0.178694 -0.244888
vt 0.106380 -0.000000
vt 0.116019 -0.195241
vt 0.199785 -0.186878
vt -0.575097 -0.078258
vt -0.494031 0.005308
vt -0.550841 -0.106380
vt 0.195918 -0.000000
vt 0.228571 -0.000000
vt 0.195918 -0.042857
vt 0.241359 -0.244540
vt -0.235893 -0.186531
vt -0.195918 -0.000000
vt -0.241359 0.313329
vt -0.235893 -0.324995
vt -0.319453 0.146657
vt -0.436332 0.088623
vt -0.419503 -0.116019
vt -0.308520 -0.169991
vt 0.020015 -0.241761
vt 0.041836 -0.057725
vt -0.005308 -0.014867
vt 0.014986 -0.183752
vt 0.140018 0.005558
vt 0.005308 -0.014867
vt 0.163265 0.000000
vt -0.163265 0.480000
vt -0.200892 0.280477
vt -0.195973 -0.294444
vt -0.163265 -0.480000
vt -0.271173 0.080955
vt -0.397547 -0.020015
vt -0.381148 -0.014986
vt -0.261333 -0.108888
vt 0.118568 -0.227623
vt 0.186686 -0.037299
vt -0.140018 0.005558
vt -0.076668 -0.169614
vt 0.262224 0.030692
vt 0.130612 0.000000
vt 0.163265 -0.042857
vt -0.130612 0.480000
vt -0.150256 0.267139
vt -0.146595 -0.282039
vt -0.130612 -0.480000
vt -0.202552 0.054278
vt -0.341453 -0.118568
vt -0.326694 0.076668
vt -0.195230 -0.084078
vt -0.254848 -0.158583
vt -0.411733 -0.318090
vt -0.392055 0.262224
vt -0.243866 0.113882
vt -0.411733 0.318090
vt -0.292502 0.311843
vt 0.097959 0.000000
vt 0.130612 -0.042857
vt -0.097959 0.480000
vt -0.099466 0.260131
vt -0.097075 -0.275522
vt -0.097959 -0.480000
vt -0.128844 -0.071044
vt -0.167786 -0.179606
vt -0.160613 0.133434
vt -0.201946 -0.399475
vt -0.307145 -0.371444
vt -0.192381 0.337912
vt -0.307145 0.371444
vt 0.065306 -0.000000
vt 0.097959 -0.042857
vt -0.065306 0.480000
vt -0.049097 0.259938
vt -0.047946 -0.275343
vt -0.065306 -0.480000
vt -0.065541 0.039877
vt -0.133626 0.040262
vt -0.063239 -0.070685
vt -0.081985 -0.180185
vt -0.078532 0.133972
vt -0.098430 -0.400246
vt -0.093825 0.338629
vt -0.201946 0.399475
vt 0.032653 -0.000000
vt 0.065306 -0.042857
vt 0.000000 0.480000
vt -0.032653 0.480000
vt 0.000000 -0.480000
vt -0.032653 -0.480000
vt 0.000000 0.252910
vt 0.000000 -0.268807
vt 0.000000 0.025821
vt 0.000000 -0.057613
vt 0.000000 -0.201269
vt 0.000000 0.153580
vt -0.098430 0.400246
vt 0.000000 0.364774
vt -0.000000 -0.000000
vt 0.032653 -0.042857
vt 0.032653 0.480000
vt 0.032653 -0.480000
vt 0.050865 0.244129
vt 0.049590 -0.260640
vt 0.069077 0.008257
vt 0.066527 -0.041279
vt 0.087289 -0.227614
vt 0.000000 -0.428359
vt 0.083465 0.178081
vt 0.000000 0.428359
vt 0.100402 0.397442
vt -0.032653 0.000000
vt -0.000000 -0.042857
vt 0.065306 0.480000
vt 0.065306 -0.480000
vt 0.102212 0.248171
vt 0.099629 -0.264399
vt 0.139119 0.016342
vt 0.133952 -0.048798
vt 0.176025 -0.215488
vt 0.105501 -0.463486
vt 0.168275 0.166803
vt 0.212932 0.447317
vt 0.105501 0.463486
vt -0.065306 0.000000
vt -0.032653 -0.042857
vt 0.149172 0.270143
vt 0.097959 -0.480000
vt 0.200385 0.060286
vt 0.193215 -0.089666
vt 0.251597 -0.149571
vt 0.240843 0.105501
vt 0.302810 -0.359428
vt 0.212932 -0.447317
vt 0.288470 0.300668
vt 0.202598 0.382405
vt 0.302810 0.359428
vt -0.097959 0.000000
vt -0.065306 -0.042857
vt 0.097959 0.480000
vt 0.190462 0.300695
vt 0.186273 -0.313246
vt 0.145587 -0.284833
vt 0.250313 0.121389
vt 0.241934 -0.146492
vt 0.310163 -0.057916
vt 0.297594 0.020262
vt 0.370013 -0.237222
vt 0.353255 0.187016
vt -0.237222 -0.066953
vt -0.300668 0.008827
vt -0.359428 -0.034030
vt -0.130612 -0.000000
vt -0.097959 -0.042857
vt -0.163265 -0.042857
vt -0.190462 -0.246394
vt -0.130612 -0.042857
vt 0.186273 -0.188384
vt 0.309715 0.160306
vt 0.299464 -0.182685
vt 0.382940 0.000459
vt 0.367563 -0.034027
vt 0.456165 -0.159387
vt 0.435662 0.114630
vt 0.456165 0.159387
vt 0.370013 0.237222
vt -0.163265 -0.000000
vt -0.195918 -0.042857
vt -0.236490 -0.246393
vt 0.231365 -0.188384
vt 0.236490 0.320153
vt 0.361124 0.214101
vt 0.349559 -0.232714
vt 0.231365 -0.331342
vt 0.443727 0.081151
vt 0.426380 -0.109071
vt 0.000459 -0.258439
vt -0.051798 -0.043495
vt -0.159387 -0.066948
vt 0.014573 -0.000638
vt -0.034027 -0.200429
vt 0.114630 -0.024090
vt 0.526329 0.051798
vt -0.228571 -0.042857
vt -0.278521 -0.244928
vt 0.272739 -0.186918
vt 0.278521 0.347050
vt 0.410180 0.273299
vt 0.397467 -0.287768
vt 0.272739 -0.356357
vt 0.500984 0.169949
vt 0.481915 -0.191652
vt 0.081151 -0.245247
vt 0.066599 -0.042857
vt -0.095537 0.000000
vt -0.109071 -0.187237
vt 0.591788 -0.066599
vt 0.503200 0.014573
vt -0.480000 -0.042857
vt -0.386595 -0.186878
vt -0.480000 -0.000000
vt -0.379565 -0.244888
vt -0.293190 -0.264286
vt -0.279129 -0.328571
vt -0.199785 -0.186878
vt 0.480000 -0.042857
vt 0.383884 -0.186878
vt 0.376650 -0.244888
vt 0.287768 -0.264286
vt 0.273299 -0.328571
vt 0.169949 -0.244888
vt 0.191652 -0.186878
vt 0.228571 0.038520
vt 0.280431 0.265539
vt 0.195918 0.038520
vt -0.274515 0.209262
vt -0.309036 0.194353
vt 0.401613 0.362762
vt 0.315092 0.249571
vt -0.389500 0.298823
vt -0.353112 0.330312
vt -0.488133 -0.309663
vt -0.364944 -0.373188
vt -0.401613 -0.433614
vt -0.469964 0.303176
vt -0.353112 0.361979
vt -0.431709 0.220275
vt -0.137983 0.214496
vt -0.220246 0.390475
vt -0.309663 0.337559
vt 0.144452 0.163658
vt 0.220275 0.325920
vt 0.035546 0.233316
vt -0.035546 0.233316
vt -0.020390 0.288392
vt 0.235794 0.274909
vt 0.163265 0.038520
vt -0.230717 0.217895
vt 0.364944 0.396369
vt -0.298169 0.345284
vt -0.449456 -0.220246
vt -0.308323 -0.327823
vt -0.298169 0.319633
vt -0.365621 0.155076
vt -0.533969 -0.020390
vt -0.380852 -0.150519
vt -0.510305 0.035546
vt -0.433072 -0.053624
vt -0.533969 0.288392
vt -0.433072 0.254082
vt -0.453380 0.312102
vt 0.188734 0.280986
vt 0.130612 0.038520
vt -0.184666 0.223449
vt 0.308323 0.412814
vt -0.184666 0.406919
vt -0.238719 0.288317
vt -0.246856 -0.294357
vt -0.292772 0.106037
vt -0.453380 0.074818
vt -0.304978 -0.098255
vt -0.346826 -0.121764
vt -0.346826 0.259352
vt -0.363100 0.319469
vt 0.143525 0.289447
vt 0.097959 0.038520
vt -0.140335 0.231349
vt 0.246856 0.422145
vt -0.140335 0.391891
vt -0.182711 0.258711
vt -0.189091 -0.262455
vt -0.225088 0.062302
vt -0.363100 0.147258
vt -0.234656 -0.051076
vt -0.267464 -0.179178
vt -0.267464 0.296483
vt -0.280222 0.358840
vt 0.065306 0.038520
vt -0.097112 0.244038
vt -0.099506 -0.382927
vt -0.143525 -0.405102
vt -0.097112 0.371341
vt -0.128919 0.219714
vt -0.133707 -0.220206
vt -0.160725 0.006958
vt 0.209264 0.358840
vt 0.009145 0.502978
vt -0.051076 0.449607
vt -0.179178 0.296483
vt 0.006958 0.430583
vt -0.248767 0.373090
vt -0.192531 0.373090
vt -0.202107 0.438619
vt 0.099506 0.302929
vt 0.032653 0.038520
vt -0.049298 0.250674
vt 0.133707 0.471260
vt 0.050551 0.309964
vt -0.128919 0.399976
vt -0.065944 0.415902
vt -0.167907 0.009145
vt -0.068450 -0.199388
vt -0.065944 0.200533
vt -0.082589 -0.019870
vt -0.202107 0.285356
vt -0.086348 0.038431
vt -0.192531 -0.248767
vt -0.099235 -0.281949
vt -0.099235 0.415561
vt -0.104246 0.482688
vt -0.000000 0.309669
vt -0.000000 0.038520
vt 0.000000 0.250316
vt -0.000000 0.484997
vt 0.000000 0.412787
vt 0.000000 -0.193340
vt 0.000000 0.194745
vt 0.000000 -0.030307
vt -0.104246 0.321815
vt 0.000000 0.049257
vt 0.000000 -0.298204
vt 0.000000 0.467117
vt -0.048899 0.299928
vt -0.032653 0.038520
vt 0.047762 0.241091
vt 0.000000 -0.369431
vt 0.065146 -0.219000
vt 0.048899 -0.383413
vt 0.000000 0.358795
vt 0.062871 0.218287
vt 0.081392 0.014220
vt 0.077980 0.001552
vt 0.097638 0.296479
vt 0.093089 -0.260331
vt 0.000000 0.399736
vt 0.097638 0.399826
vt -0.095015 0.291373
vt -0.065306 0.038520
vt 0.092936 0.233082
vt 0.124724 -0.249548
vt 0.095015 -0.399052
vt 0.047762 0.371717
vt 0.120565 0.246594
vt 0.154433 -0.030505
vt 0.148194 0.042916
vt 0.184142 0.238307
vt 0.175824 -0.206640
vt 0.093089 0.334512
vt 0.184142 0.356612
vt -0.097959 0.038520
vt 0.140979 0.232898
vt 0.144217 -0.403753
vt 0.140979 0.390662
vt 0.183998 0.257002
vt 0.236732 -0.049274
vt 0.190474 -0.260505
vt 0.227018 0.060862
vt 0.282989 0.210170
vt 0.270037 -0.179601
vt 0.270037 0.311888
vt 0.282989 0.374481
vt -0.144217 0.291055
vt -0.130612 0.038520
vt 0.191857 0.232637
vt -0.190474 0.444738
vt -0.196467 0.290635
vt 0.183998 0.374922
vt 0.253102 0.378099
vt 0.262322 -0.273418
vt 0.253102 0.269263
vt 0.314347 0.081959
vt 0.394031 0.177129
vt 0.328177 -0.071349
vt 0.375592 -0.147863
vt 0.375592 0.333038
vt 0.394031 0.394995
vt -0.163265 0.038520
vt 0.234843 0.222096
vt -0.317195 0.424927
vt -0.240230 0.279300
vt 0.306420 0.357016
vt 0.394160 -0.141065
vt 0.317195 -0.319895
vt 0.377997 0.146795
vt 0.471124 0.084175
vt 0.449574 -0.061416
vt 0.471124 0.349653
vt -0.195918 0.038520
vt 0.268891 0.205971
vt 0.240230 -0.432546
vt 0.352849 -0.382613
vt 0.274384 -0.464547
vt 0.234843 0.417503
vt 0.341864 0.370635
vt 0.306420 0.312487
vt 0.431314 -0.233213
vt 0.414836 0.232088
vt 0.141065 0.434867
vt 0.036120 0.264888
vt 0.233213 0.375245
vt -0.146795 0.367530
vt -0.049739 0.210562
vt 0.061416 0.290869
vt -0.061416 0.290869
vt -0.084175 0.349653
vt -0.274384 0.262061
vt -0.228571 0.038520
vt 0.308612 0.194223
vt -0.400701 0.362483
vt -0.314636 0.249431
vt 0.388652 0.298564
vt 0.341864 0.322132
vt 0.486766 -0.310522
vt 0.400701 -0.434186
vt 0.468692 0.303974
vt 0.139128 0.213938
vt 0.310522 0.337140
vt 0.548732 0.145516
vt 0.487809 0.049739
vt 0.049739 0.210562
vt -0.498787 0.038520
vt -0.470950 0.194353
vt -0.490065 0.249571
vt -0.418061 0.298823
vt -0.433614 0.362762
vt -0.303176 0.276182
vt 0.498787 0.038520
vt 0.471216 0.194223
vt 0.480000 0.000000
vt 0.490352 0.249431
vt 0.418594 0.298564
vt 0.434186 0.362483
vt 0.303974 0.275792
vt -0.468571 -0.053571
vt -0.582857 0.096429
vt -0.582857 -0.053571
vt -0.228571 -0.468571
vt 0.228571 -0.582857
vt -0.228571 -0.582857
vt 0.468571 0.096429
vt 0.582857 -0.053571
vt 0.582857 0.096429
vt 0.228571 0.468571
vt -0.228571 0.582857
vt 0.228571 0.582857
vt -0.228571 0.096429
vt 0.228571 -0.053571
vt 0.228571 0.096429
vt -0.516469 0.041836
vt 0.318090 -0.012165
vt -0.262224 0.030692
vt 0.130612 0.480000
vt 0.130612 -0.480000
vt -0.187016 -0.024095
vt -0.319376 -0.244888
vt 0.313019 -0.186878
vt 0.319376 0.376650
vt 0.313019 -0.383884
vt -0.191652 -0.186878
vt 0.566363 -0.095537
vt -0.106380 -0.000000
vt 0.095537 0.000000
vt -0.389500 0.418061
vt 0.303176 0.276182
vt -0.144452 0.163658
vt -0.510305 0.233316
vt -0.230717 0.421888
vt 0.189091 0.439987
vt -0.280222 0.209264
vt 0.285356 0.438619
vt 0.062302 0.379590
vt 0.068450 0.487986
vt 0.000000 0.338590
vt 0.092936 0.386236
vt 0.175824 0.293484
vt -0.262322 0.447597
vt 0.449574 0.290869
vt 0.268891 0.447219
vt -0.232088 0.311253
vt -0.352849 0.387815
vt 0.388652 0.418594
vt 0.145516 0.163139
vt -0.468571 0.096429
vt 0.228571 -0.468571
vt 0.468571 -0.053571
vt -0.228571 0.468571
vt -0.228571 -0.053571
s 1
f 1/1/1 13/2/2 3/3/3
f 14/4/4 2/5/5 4/6/6
f 13/7/2 5/8/7 3/9/3
f 6/10/8 14/11/4 4/12/6
f 15/13/9 7/14/10 5/8/7
f 8/15/11 16/16/12 6/10/8
f 17/17/13 9/18/14 7/19/10
f 10/20/15 18/21/16 8/22/11
f 9/23/14 20/24/17 10/25/15
f 12/26/18 1/1/1 2/27/5
f 11/28/19 23/29/20 13/2/2
f 24/30/21 12/31/18 14/4/4
f 23/32/20 15/13/9 13/7/2
f 16/16/12 24/33/21 14/11/4
f 25/34/22 17/35/13 15/13/9
f 18/36/16 26/37/23 16/16/12
f 27/38/24 19/39/25 17/17/13
f 20/40/17 28/41/26 18/21/16
f 19/39/25 30/42/27 20/43/17
f 22/44/28 11/28/19 12/26/18
f 21/45/29 33/46/30 23/32/20
f 34/47/31 22/48/28 24/33/21
f 33/46/30 25/34/22 23/32/20
f 26/37/23 34/47/31 24/33/21
f 35/49/32 27/50/24 25/34/22
f 28/51/26 36/52/33 26/37/23
f 37/53/34 29/54/35 27/38/24
f 30/55/27 38/56/36 28/41/26
f 29/54/35 40/57/37 30/42/27
f 32/58/38 21/59/29 22/44/28
f 31/60/39 43/61/40 33/46/30
f 44/62/41 32/63/38 34/47/31
f 43/61/40 35/49/32 33/46/30
f 36/52/33 44/62/41 34/47/31
f 45/64/42 37/65/34 35/49/32
f 38/66/36 46/67/43 36/52/33
f 47/68/44 39/69/45 37/65/34
f 40/70/37 48/71/46 38/66/36
f 39/72/45 50/73/47 40/70/37
f 42/74/48 31/75/39 32/58/38
f 41/76/49 53/77/50 43/61/40
f 54/78/51 42/79/48 44/62/41
f 53/77/50 45/64/42 43/61/40
f 56/80/52 44/62/41 46/67/43
f 45/64/42 57/81/53 47/68/44
f 58/82/54 46/67/43 48/71/46
f 47/68/44 59/83/55 49/84/56
f 60/85/57 48/71/46 50/73/47
f 49/86/56 60/85/57 50/73/47
f 52/87/58 41/88/49 42/74/48
f 51/89/59 63/90/60 53/77/50
f 64/91/61 52/92/58 54/78/51
f 53/77/50 65/93/62 55/94/63
f 66/95/64 54/78/51 56/80/52
f 55/94/63 67/96/65 57/81/53
f 68/97/66 56/80/52 58/82/54
f 57/81/53 69/98/67 59/83/55
f 70/99/68 58/82/54 60/85/57
f 59/100/55 70/99/68 60/85/57
f 62/101/69 51/102/59 52/87/58
f 71/103/70 63/90/60 61/104/71
f 64/91/61 72/105/72 62/106/69
f 73/107/73 65/93/62 63/90/60
f 66/95/64 74/108/74 64/91/61
f 75/109/75 67/96/65 65/93/62
f 68/97/66 76/110/76 66/95/64
f 77/111/77 69/98/67 67/96/65
f 70/99/68 78/112/78 68/97/66
f 69/113/67 80/114/79 70/99/68
f 72/115/72 61/116/71 62/101/69
f 81/117/80 73/107/73 71/103/70
f 74/108/74 82/118/81 72/105/72
f 83/119/82 75/109/75 73/107/73
f 76/110/76 84/120/83 74/108/74
f 85/121/84 77/111/77 75/109/75
f 78/112/78 86/122/85 76/110/76
f 87/123/86 79/124/87 77/111/77
f 80/114/79 88/125/88 78/112/78
f 79/126/87 90/127/89 80/114/79
f 82/128/81 71/129/70 72/115/72
f 91/130/90 83/119/82 81/117/80
f 84/120/83 92/131/91 82/118/81
f 93/132/92 85/121/84 83/119/82
f 86/122/85 94/133/93 84/120/83
f 95/134/94 87/123/86 85/121/84
f 88/125/88 96/135/95 86/122/85
f 97/136/96 89/137/97 87/123/86
f 90/127/89 98/138/98 88/125/88
f 99/139/99 90/127/89 89/140/97
f 92/141/91 81/142/80 82/128/81
f 91/130/90 103/143/100 93/132/92
f 94/133/93 102/144/101 92/131/91
f 93/132/92 105/145/102 95/134/94
f 106/146/103 94/133/93 96/135/95
f 95/134/94 107/147/104 97/136/96
f 108/148/105 96/135/95 98/138/98
f 97/136/96 109/149/106 99/150/99
f 110/151/107 98/138/98 100/152/108
f 109/153/106 100/152/108 99/139/99
f 102/154/101 91/155/90 92/141/91
f 101/156/109 113/157/110 103/143/100
f 114/158/111 102/144/101 104/159/112
f 103/143/100 115/160/113 105/145/102
f 116/161/114 104/159/112 106/146/103
f 105/145/102 117/162/115 107/147/104
f 118/163/116 106/146/103 108/148/105
f 107/147/104 119/164/117 109/149/106
f 120/165/118 108/148/105 110/151/107
f 119/166/117 110/167/107 109/168/106
f 112/169/119 101/170/109 102/154/101
f 121/171/120 113/172/110 111/173/121
f 114/174/111 122/44/122 112/58/119
f 113/157/110 125/175/123 115/160/113
f 126/176/124 114/158/111 116/161/114
f 115/160/113 127/177/125 117/162/115
f 128/178/126 116/161/114 118/163/116
f 117/162/115 129/179/127 119/164/117
f 130/180/128 118/163/116 120/165/118
f 129/181/127 120/165/118 119/182/117
f 122/183/122 111/173/121 112/169/119
f 131/184/129 123/185/130 121/171/120
f 124/186/131 132/26/132 122/44/122
f 123/187/130 135/188/133 125/175/123
f 136/189/134 124/190/131 126/176/124
f 125/175/123 137/191/135 127/177/125
f 138/192/136 126/176/124 128/178/126
f 127/193/125 139/194/137 129/195/127
f 140/196/138 128/197/126 130/198/128
f 139/199/137 130/180/128 129/181/127
f 132/31/132 121/171/120 122/183/122
f 141/200/139 133/201/140 131/184/129
f 134/202/141 142/27/142 132/26/132
f 133/203/140 145/204/143 135/188/133
f 146/205/144 134/206/141 136/189/134
f 135/188/133 147/207/145 137/191/135
f 148/208/146 136/189/134 138/192/136
f 137/209/135 149/210/147 139/194/137
f 150/211/148 138/212/136 140/196/138
f 149/213/147 140/214/138 139/199/137
f 142/5/142 131/184/129 132/31/132
f 1/215/1 4/216/6 2/217/5
f 3/218/3 6/219/8 4/216/6
f 7/19/10 6/219/8 5/220/7
f 9/18/14 8/221/11 7/19/10
f 141/222/139 144/223/149 143/224/150
f 143/224/150 146/225/144 145/226/143
f 146/225/144 147/227/145 145/226/143
f 148/228/146 149/210/147 147/227/145
f 151/229/151 163/230/152 161/231/153
f 152/5/154 164/232/155 154/233/156
f 155/234/157 163/230/152 153/235/158
f 156/236/159 164/232/155 166/237/160
f 157/238/161 165/239/162 155/240/157
f 158/241/163 166/242/160 168/243/164
f 159/244/165 167/245/166 157/246/161
f 160/247/167 168/248/164 170/249/168
f 159/244/165 170/250/168 169/251/169
f 151/229/151 162/26/170 152/27/154
f 161/231/153 173/252/171 171/253/172
f 162/31/170 174/254/173 164/232/155
f 165/255/162 173/252/171 163/230/152
f 166/237/160 174/254/173 176/256/174
f 167/257/166 175/258/175 165/239/162
f 168/243/164 176/259/174 178/260/176
f 169/261/169 177/262/177 167/257/166
f 170/263/168 178/260/176 180/264/178
f 169/265/169 180/266/178 179/267/179
f 161/231/153 172/44/180 162/26/170
f 171/253/172 183/268/181 181/269/182
f 172/183/180 184/270/183 174/254/173
f 175/271/175 183/268/181 173/252/171
f 176/259/174 184/272/183 186/273/184
f 177/262/177 185/274/185 175/258/175
f 178/260/176 186/273/184 188/275/186
f 179/276/179 187/277/187 177/262/177
f 180/264/178 188/275/186 190/278/188
f 179/267/179 190/279/188 189/280/189
f 171/253/172 182/58/190 172/44/180
f 181/269/182 193/281/191 191/282/192
f 182/169/190 194/283/193 184/270/183
f 185/284/185 193/281/191 183/268/181
f 186/273/184 194/285/193 196/286/194
f 187/277/187 195/287/195 185/274/185
f 188/275/186 196/286/194 198/288/196
f 189/289/189 197/290/197 187/277/187
f 190/278/188 198/288/196 200/291/198
f 189/280/189 200/292/198 199/293/199
f 181/269/182 192/74/200 182/58/190
f 193/281/191 201/294/201 191/282/192
f 194/283/193 202/141/202 204/295/203
f 195/287/195 203/296/204 193/297/191
f 196/286/194 204/298/203 206/299/205
f 197/290/197 205/300/206 195/287/195
f 198/288/196 206/299/205 208/301/207
f 199/302/199 207/303/208 197/304/197
f 200/305/198 208/306/207 210/307/209
f 199/293/199 210/308/209 209/309/210
f 191/282/192 202/87/202 192/74/200
f 203/310/204 211/311/211 201/294/201
f 204/295/203 212/128/212 214/312/213
f 205/313/206 213/314/214 203/310/204
f 206/315/205 214/312/213 216/316/215
f 207/317/208 215/318/216 205/300/206
f 208/301/207 216/319/215 218/320/217
f 209/321/210 217/322/218 207/317/208
f 210/323/209 218/320/217 220/324/219
f 209/309/210 220/325/219 219/326/220
f 201/294/201 212/101/212 202/87/202
f 211/311/211 223/327/221 221/328/222
f 212/128/212 224/329/223 214/312/213
f 213/314/214 225/330/224 223/327/221
f 214/312/213 226/331/225 216/316/215
f 217/322/218 225/332/224 215/318/216
f 218/320/217 226/333/225 228/334/226
f 219/335/220 227/336/227 217/322/218
f 220/324/219 228/334/226 230/337/228
f 220/325/219 229/338/229 219/326/220
f 211/311/211 222/115/230 212/101/212
f 221/328/222 233/339/231 231/340/232
f 222/115/230 234/341/233 224/329/223
f 223/342/221 235/343/234 233/344/231
f 224/345/223 236/346/235 226/333/225
f 225/332/224 237/347/236 235/343/234
f 226/333/225 238/348/237 228/334/226
f 227/336/227 239/349/238 237/347/236
f 228/334/226 240/350/239 230/337/228
f 230/351/228 239/352/238 229/338/229
f 221/328/222 232/128/240 222/115/230
f 231/340/232 243/353/241 241/354/242
f 232/101/240 244/355/243 234/341/233
f 233/344/231 245/356/244 243/357/241
f 234/358/233 246/359/245 236/346/235
f 235/343/234 247/360/246 245/356/244
f 236/346/235 248/361/247 238/348/237
f 237/347/236 249/362/248 247/360/246
f 238/348/237 250/363/249 240/350/239
f 240/364/239 249/365/248 239/352/238
f 231/340/232 242/141/250 232/128/240
f 243/353/241 251/366/251 241/354/242
f 244/355/243 252/74/252 254/367/253
f 245/356/244 253/368/254 243/357/241
f 246/359/245 254/369/253 256/370/255
f 245/356/244 257/371/256 255/372/257
f 246/359/245 258/373/258 248/361/247
f 247/360/246 259/374/259 257/371/256
f 248/361/247 260/375/260 250/363/249
f 249/365/248 260/376/260 259/377/259
f 241/354/242 252/154/252 242/141/250
f 253/378/254 261/379/261 251/366/251
f 254/367/253 262/58/262 264/380/263
f 255/381/257 263/382/264 253/378/254
f 256/383/255 264/380/263 266/384/265
f 257/371/256 265/385/266 255/372/257
f 258/373/258 266/386/265 268/387/267
f 257/371/256 269/388/268 267/389/269
f 258/373/258 270/390/270 260/375/260
f 259/377/259 270/391/270 269/392/268
f 251/366/251 262/169/262 252/154/252
f 263/382/264 271/393/271 261/379/261
f 264/380/263 272/44/272 274/394/273
f 263/382/264 275/395/274 273/396/275
f 264/380/263 276/397/276 266/384/265
f 265/385/266 277/398/277 275/399/274
f 266/386/265 278/400/278 268/387/267
f 267/389/269 279/401/279 277/398/277
f 268/387/267 280/402/280 270/390/270
f 270/391/270 279/403/279 269/392/268
f 261/379/261 272/183/272 262/169/262
f 273/396/275 281/404/281 271/393/271
f 274/394/273 282/26/282 284/405/283
f 273/406/275 285/407/284 283/408/285
f 274/409/273 286/410/286 276/411/276
f 275/399/274 287/412/287 285/407/284
f 276/411/276 288/413/288 278/400/278
f 277/414/277 289/415/289 287/416/287
f 278/417/278 290/418/290 280/419/280
f 280/420/280 289/415/289 279/421/279
f 271/393/271 282/31/282 272/183/272
f 283/422/285 291/423/291 281/404/281
f 284/405/283 292/27/292 294/424/293
f 283/422/285 295/425/294 293/426/295
f 284/405/283 296/427/296 286/428/286
f 285/407/284 297/429/297 295/430/294
f 286/410/286 298/431/298 288/413/288
f 287/416/287 299/432/299 297/433/297
f 288/413/288 300/434/300 290/435/290
f 290/436/290 299/432/299 289/415/289
f 281/404/281 292/5/292 282/31/282
f 151/437/151 154/438/156 153/439/158
f 153/439/158 156/440/159 155/441/157
f 156/440/159 157/246/161 155/441/157
f 158/442/163 159/244/165 157/246/161
f 291/443/291 294/444/293 292/445/292
f 293/446/295 296/447/296 294/444/293
f 297/433/297 296/447/296 295/448/294
f 299/432/299 298/449/298 297/433/297
s 0
f 302/450/301 303/451/301 301/452/301
f 304/453/302 307/454/302 303/455/302
f 308/456/303 305/457/303 307/458/303
f 306/459/304 301/460/304 305/461/304
f 307/462/305 301/463/305 303/464/305
f 304/462/306 306/463/306 308/464/306
s 1
f 1/1/1 11/28/19 13/2/2
f 14/4/4 12/31/18 2/5/5
f 13/7/2 15/13/9 5/8/7
f 6/10/8 16/16/12 14/11/4
f 15/13/9 17/35/13 7/14/10
f 8/15/11 18/36/16 16/16/12
f 17/17/13 19/39/25 9/18/14
f 10/20/15 20/40/17 18/21/16
f 9/23/14 19/465/25 20/24/17
f 12/26/18 11/28/19 1/1/1
f 11/28/19 21/59/29 23/29/20
f 24/30/21 22/183/28 12/31/18
f 23/32/20 25/34/22 15/13/9
f 16/16/12 26/37/23 24/33/21
f 25/34/22 27/50/24 17/35/13
f 18/36/16 28/51/26 26/37/23
f 27/38/24 29/54/35 19/39/25
f 20/40/17 30/55/27 28/41/26
f 19/39/25 29/54/35 30/42/27
f 22/44/28 21/59/29 11/28/19
f 21/45/29 31/60/39 33/46/30
f 34/47/31 32/63/38 22/48/28
f 33/46/30 35/49/32 25/34/22
f 26/37/23 36/52/33 34/47/31
f 35/49/32 37/65/34 27/50/24
f 28/51/26 38/66/36 36/52/33
f 37/53/34 39/466/45 29/54/35
f 30/55/27 40/467/37 38/56/36
f 29/54/35 39/466/45 40/57/37
f 32/58/38 31/75/39 21/59/29
f 31/60/39 41/76/49 43/61/40
f 44/62/41 42/79/48 32/63/38
f 43/61/40 45/64/42 35/49/32
f 36/52/33 46/67/43 44/62/41
f 45/64/42 47/68/44 37/65/34
f 38/66/36 48/71/46 46/67/43
f 47/68/44 49/84/56 39/69/45
f 40/70/37 50/73/47 48/71/46
f 39/72/45 49/86/56 50/73/47
f 42/74/48 41/88/49 31/75/39
f 41/76/49 51/89/59 53/77/50
f 54/78/51 52/92/58 42/79/48
f 53/77/50 55/94/63 45/64/42
f 56/80/52 54/78/51 44/62/41
f 45/64/42 55/94/63 57/81/53
f 58/82/54 56/80/52 46/67/43
f 47/68/44 57/81/53 59/83/55
f 60/85/57 58/82/54 48/71/46
f 49/86/56 59/100/55 60/85/57
f 52/87/58 51/102/59 41/88/49
f 51/89/59 61/104/71 63/90/60
f 64/91/61 62/106/69 52/92/58
f 53/77/50 63/90/60 65/93/62
f 66/95/64 64/91/61 54/78/51
f 55/94/63 65/93/62 67/96/65
f 68/97/66 66/95/64 56/80/52
f 57/81/53 67/96/65 69/98/67
f 70/99/68 68/97/66 58/82/54
f 59/100/55 69/113/67 70/99/68
f 62/101/69 61/116/71 51/102/59
f 71/103/70 73/107/73 63/90/60
f 64/91/61 74/108/74 72/105/72
f 73/107/73 75/109/75 65/93/62
f 66/95/64 76/110/76 74/108/74
f 75/109/75 77/111/77 67/96/65
f 68/97/66 78/112/78 76/110/76
f 77/111/77 79/124/87 69/98/67
f 70/99/68 80/114/79 78/112/78
f 69/113/67 79/126/87 80/114/79
f 72/115/72 71/129/70 61/116/71
f 81/117/80 83/119/82 73/107/73
f 74/108/74 84/120/83 82/118/81
f 83/119/82 85/121/84 75/109/75
f 76/110/76 86/122/85 84/120/83
f 85/121/84 87/123/86 77/111/77
f 78/112/78 88/125/88 86/122/85
f 87/123/86 89/137/97 79/124/87
f 80/114/79 90/127/89 88/125/88
f 79/126/87 89/140/97 90/127/89
f 82/128/81 81/142/80 71/129/70
f 91/130/90 93/132/92 83/119/82
f 84/120/83 94/133/93 92/131/91
f 93/132/92 95/134/94 85/121/84
f 86/122/85 96/135/95 94/133/93
f 95/134/94 97/136/96 87/123/86
f 88/125/88 98/138/98 96/135/95
f 97/136/96 99/150/99 89/137/97
f 90/127/89 100/152/108 98/138/98
f 99/139/99 100/152/108 90/127/89
f 92/141/91 91/155/90 81/142/80
f 91/130/90 101/156/109 103/143/100
f 94/133/93 104/159/112 102/144/101
f 93/132/92 103/143/100 105/145/102
f 106/146/103 104/159/112 94/133/93
f 95/134/94 105/145/102 107/147/104
f 108/148/105 106/146/103 96/135/95
f 97/136/96 107/147/104 109/149/106
f 110/151/107 108/148/105 98/138/98
f 109/153/106 110/151/107 100/152/108
f 102/154/101 101/170/109 91/155/90
f 101/156/109 111/468/121 113/157/110
f 114/158/111 112/469/119 102/144/101
f 103/143/100 113/157/110 115/160/113
f 116/161/114 114/158/111 104/159/112
f 105/145/102 115/160/113 117/162/115
f 118/163/116 116/161/114 106/146/103
f 107/147/104 117/162/115 119/164/117
f 120/165/118 118/163/116 108/148/105
f 119/166/117 120/470/118 110/167/107
f 112/169/119 111/173/121 101/170/109
f 121/171/120 123/185/130 113/172/110
f 114/174/111 124/186/131 122/44/122
f 113/157/110 123/187/130 125/175/123
f 126/176/124 124/190/131 114/158/111
f 115/160/113 125/175/123 127/177/125
f 128/178/126 126/176/124 116/161/114
f 117/162/115 127/177/125 129/179/127
f 130/180/128 128/178/126 118/163/116
f 129/181/127 130/180/128 120/165/118
f 122/183/122 121/171/120 111/173/121
f 131/184/129 133/201/140 123/185/130
f 124/186/131 134/202/141 132/26/132
f 123/187/130 133/203/140 135/188/133
f 136/189/134 134/206/141 124/190/131
f 125/175/123 135/188/133 137/191/135
f 138/192/136 136/189/134 126/176/124
f 127/193/125 137/209/135 139/194/137
f 140/196/138 138/212/136 128/197/126
f 139/199/137 140/214/138 130/180/128
f 132/31/132 131/184/129 121/171/120
f 141/200/139 143/471/150 133/201/140
f 134/202/141 144/472/149 142/27/142
f 133/203/140 143/473/150 145/204/143
f 146/205/144 144/474/149 134/206/141
f 135/188/133 145/204/143 147/207/145
f 148/208/146 146/205/144 136/189/134
f 137/209/135 147/227/145 149/210/147
f 150/211/148 148/475/146 138/212/136
f 149/213/147 150/476/148 140/214/138
f 142/5/142 141/200/139 131/184/129
f 1/215/1 3/218/3 4/216/6
f 3/218/3 5/220/7 6/219/8
f 7/19/10 8/221/11 6/219/8
f 9/18/14 10/477/15 8/221/11
f 141/222/139 142/445/142 144/223/149
f 143/224/150 144/223/149 146/225/144
f 146/225/144 148/228/146 147/227/145
f 148/228/146 150/478/148 149/210/147
f 151/229/151 153/235/158 163/230/152
f 152/5/154 162/31/170 164/232/155
f 155/234/157 165/255/162 163/230/152
f 156/236/159 154/233/156 164/232/155
f 157/238/161 167/257/166 165/239/162
f 158/241/163 156/479/159 166/242/160
f 159/244/165 169/251/169 167/245/166
f 160/247/167 158/480/163 168/248/164
f 159/244/165 160/481/167 170/250/168
f 151/229/151 161/231/153 162/26/170
f 161/231/153 163/230/152 173/252/171
f 162/31/170 172/183/180 174/254/173
f 165/255/162 175/271/175 173/252/171
f 166/237/160 164/232/155 174/254/173
f 167/257/166 177/262/177 175/258/175
f 168/243/164 166/242/160 176/259/174
f 169/261/169 179/276/179 177/262/177
f 170/263/168 168/243/164 178/260/176
f 169/265/169 170/482/168 180/266/178
f 161/231/153 171/253/172 172/44/180
f 171/253/172 173/252/171 183/268/181
f 172/183/180 182/169/190 184/270/183
f 175/271/175 185/284/185 183/268/181
f 176/259/174 174/483/173 184/272/183
f 177/262/177 187/277/187 185/274/185
f 178/260/176 176/259/174 186/273/184
f 179/276/179 189/289/189 187/277/187
f 180/264/178 178/260/176 188/275/186
f 179/267/179 180/266/178 190/279/188
f 171/253/172 181/269/182 182/58/190
f 181/269/182 183/268/181 193/281/191
f 182/169/190 192/154/200 194/283/193
f 185/284/185 195/484/195 193/281/191
f 186/273/184 184/272/183 194/285/193
f 187/277/187 197/290/197 195/287/195
f 188/275/186 186/273/184 196/286/194
f 189/289/189 199/485/199 197/290/197
f 190/278/188 188/275/186 198/288/196
f 189/280/189 190/279/188 200/292/198
f 181/269/182 191/282/192 192/74/200
f 193/281/191 203/310/204 201/294/201
f 194/283/193 192/154/200 202/141/202
f 195/287/195 205/300/206 203/296/204
f 196/286/194 194/285/193 204/298/203
f 197/290/197 207/317/208 205/300/206
f 198/288/196 196/286/194 206/299/205
f 199/302/199 209/486/210 207/303/208
f 200/305/198 198/487/196 208/306/207
f 199/293/199 200/292/198 210/308/209
f 191/282/192 201/294/201 202/87/202
f 203/310/204 213/314/214 211/311/211
f 204/295/203 202/141/202 212/128/212
f 205/313/206 215/488/216 213/314/214
f 206/315/205 204/295/203 214/312/213
f 207/317/208 217/322/218 215/318/216
f 208/301/207 206/299/205 216/319/215
f 209/321/210 219/335/220 217/322/218
f 210/323/209 208/301/207 218/320/217
f 209/309/210 210/308/209 220/325/219
f 201/294/201 211/311/211 212/101/212
f 211/311/211 213/314/214 223/327/221
f 212/128/212 222/115/230 224/329/223
f 213/314/214 215/488/216 225/330/224
f 214/312/213 224/329/223 226/331/225
f 217/322/218 227/336/227 225/332/224
f 218/320/217 216/319/215 226/333/225
f 219/335/220 229/489/229 227/336/227
f 220/324/219 218/320/217 228/334/226
f 220/325/219 230/351/228 229/338/229
f 211/311/211 221/328/222 222/115/230
f 221/328/222 223/327/221 233/339/231
f 222/115/230 232/101/240 234/341/233
f 223/342/221 225/332/224 235/343/234
f 224/345/223 234/358/233 236/346/235
f 225/332/224 227/336/227 237/347/236
f 226/333/225 236/346/235 238/348/237
f 227/336/227 229/489/229 239/349/238
f 228/334/226 238/348/237 240/350/239
f 230/351/228 240/364/239 239/352/238
f 221/328/222 231/340/232 232/128/240
f 231/340/232 233/339/231 243/353/241
f 232/101/240 242/87/250 244/355/243
f 233/344/231 235/343/234 245/356/244
f 234/358/233 244/490/243 246/359/245
f 235/343/234 237/347/236 247/360/246
f 236/346/235 246/359/245 248/361/247
f 237/347/236 239/349/238 249/362/248
f 238/348/237 248/361/247 250/363/249
f 240/364/239 250/491/249 249/365/248
f 231/340/232 241/354/242 242/141/250
f 243/353/241 253/378/254 251/366/251
f 244/355/243 242/87/250 252/74/252
f 245/356/244 255/372/257 253/368/254
f 246/359/245 244/490/243 254/369/253
f 245/356/244 247/360/246 257/371/256
f 246/359/245 256/370/255 258/373/258
f 247/360/246 249/362/248 259/374/259
f 248/361/247 258/373/258 260/375/260
f 249/365/248 250/491/249 260/376/260
f 241/354/242 251/366/251 252/154/252
f 253/378/254 263/382/264 261/379/261
f 254/367/253 252/74/252 262/58/262
f 255/381/257 265/492/266 263/382/264
f 256/383/255 254/367/253 264/380/263
f 257/371/256 267/389/269 265/385/266
f 258/373/258 256/370/255 266/386/265
f 257/371/256 259/374/259 269/388/268
f 258/373/258 268/387/267 270/390/270
f 259/377/259 260/376/260 270/391/270
f 251/366/251 261/379/261 262/169/262
f 263/382/264 273/396/275 271/393/271
f 264/380/263 262/58/262 272/44/272
f 263/382/264 265/492/266 275/395/274
f 264/380/263 274/394/273 276/397/276
f 265/385/266 267/389/269 277/398/277
f 266/386/265 276/411/276 278/400/278
f 267/389/269 269/388/268 279/401/279
f 268/387/267 278/400/278 280/402/280
f 270/391/270 280/493/280 279/403/279
f 261/379/261 271/393/271 272/183/272
f 273/396/275 283/422/285 281/404/281
f 274/394/273 272/44/272 282/26/282
f 273/406/275 275/399/274 285/407/284
f 274/409/273 284/494/283 286/410/286
f 275/399/274 277/398/277 287/412/287
f 276/411/276 286/410/286 288/413/288
f 277/414/277 279/421/279 289/415/289
f 278/417/278 288/495/288 290/418/290
f 280/420/280 290/436/290 289/415/289
f 271/393/271 281/404/281 282/31/282
f 283/422/285 293/426/295 291/423/291
f 284/405/283 282/26/282 292/27/292
f 283/422/285 285/496/284 295/425/294
f 284/405/283 294/424/293 296/427/296
f 285/407/284 287/412/287 297/429/297
f 286/410/286 296/497/296 298/431/298
f 287/416/287 289/415/289 299/432/299
f 288/413/288 298/431/298 300/434/300
f 290/436/290 300/498/300 299/432/299
f 281/404/281 291/423/291 292/5/292
f 151/437/151 152/217/154 154/438/156
f 153/439/158 154/438/156 156/440/159
f 156/440/159 158/442/163 157/246/161
f 158/442/163 160/481/167 159/244/165
f 291/443/291 293/446/295 294/444/293
f 293/446/295 295/448/294 296/447/296
f 297/433/297 298/449/298 296/447/296
f 299/432/299 300/498/300 298/449/298
s 0
f 302/450/301 304/499/301 303/451/301
f 304/453/302 308/500/302 307/454/302
f 308/456/303 306/501/303 305/457/303
f 306/459/304 302/502/304 301/460/304
f 307/462/305 305/503/305 301/463/305
f 304/462/306 302/503/306 306/463/306
o pearl
usemtl pearl
v -0.005500 0.088805 -0.049729
v 0.045881 0.051475 -0.010478
v -0.025125 0.028403 -0.010478
v -0.069010 0.088805 -0.010478
v -0.025125 0.149207 -0.010478
v 0.045881 0.126135 -0.010478
v 0.014126 0.028403 0.053034
v -0.056881 0.051475 0.053034
v -0.056881 0.126135 0.053034
v 0.014126 0.149207 0.053034
v 0.058011 0.088805 0.053033
v -0.005500 0.088805 0.092285
v -0.022032 0.037924 -0.025411
v -0.017035 0.053302 -0.039125
v -0.011010 0.071845 -0.047453
v 0.008927 0.078323 -0.047453
v 0.024701 0.066863 -0.039125
v 0.037782 0.057359 -0.025411
v 0.032272 0.040399 -0.014389
v 0.013166 0.031359 -0.016053
v -0.007604 0.027442 -0.014389
v 0.052210 0.109769 -0.014389
v 0.054902 0.088805 -0.016053
v 0.052210 0.067841 -0.014389
v 0.008927 0.099287 -0.047453
v 0.024701 0.110747 -0.039125
v 0.037782 0.120251 -0.025411
v -0.059000 0.088805 -0.025410
v -0.042830 0.088805 -0.039124
v -0.023333 0.088805 -0.047453
v -0.039865 0.037924 -0.014389
v -0.054366 0.053302 -0.016053
v -0.064510 0.071845 -0.014389
v -0.022032 0.139686 -0.025411
v -0.017035 0.124308 -0.039125
v -0.011010 0.105765 -0.047453
v -0.064510 0.105765 -0.014389
v -0.054366 0.124308 -0.016053
v -0.039865 0.139686 -0.014389
v -0.007604 0.150168 -0.014389
v 0.013166 0.146251 -0.016053
v 0.032272 0.137211 -0.014389
v 0.062427 0.078323 0.039111
v 0.062032 0.066863 0.021278
v 0.055616 0.057359 0.003444
v 0.055616 0.120251 0.003444
v 0.062032 0.110747 0.021278
v 0.062427 0.099287 0.039111
v 0.005522 0.020963 0.039111
v -0.005500 0.017798 0.021278
v -0.016521 0.020963 0.003444
v 0.043293 0.040398 0.003444
v 0.036237 0.031359 0.021278
v 0.025460 0.027442 0.039111
v -0.066615 0.057359 0.039111
v -0.073032 0.066863 0.021278
v -0.073427 0.078323 0.003444
v -0.036459 0.027442 0.003444
v -0.047237 0.031359 0.021278
v -0.054293 0.040398 0.039111
v -0.054293 0.137212 0.039111
v -0.047237 0.146251 0.021278
v -0.036459 0.150168 0.003444
v -0.073427 0.099287 0.003444
v -0.073032 0.110747 0.021278
v -0.066615 0.120251 0.039111
v 0.025460 0.150168 0.039111
v 0.036237 0.146251 0.021278
v 0.043293 0.137212 0.003444
v -0.016521 0.156647 0.003444
v -0.005500 0.159812 0.021278
v 0.005522 0.156647 0.039111
v 0.053511 0.071845 0.056945
v 0.043366 0.053302 0.058609
v 0.028866 0.037924 0.056945
v -0.003395 0.027442 0.056945
v -0.024165 0.031359 0.058609
v -0.043271 0.040399 0.056945
v -0.063209 0.067841 0.056945
v -0.065902 0.088805 0.058609
v -0.063209 0.109769 0.056945
v -0.043271 0.137211 0.056945
v -0.024165 0.146251 0.058609
v -0.003395 0.150168 0.056945
v 0.028866 0.139686 0.056945
v 0.043366 0.124308 0.058609
v 0.053511 0.105765 0.056945
v 0.000011 0.071845 0.090009
v 0.006036 0.053302 0.081680
v 0.011032 0.037924 0.067966
v 0.048000 0.088805 0.067966
v 0.031831 0.088805 0.081680
v 0.012333 0.088805 0.090009
v -0.019927 0.078323 0.090009
v -0.035701 0.066863 0.081680
v -0.048782 0.057359 0.067966
v -0.019927 0.099287 0.090009
v -0.035701 0.110747 0.081680
v -0.048782 0.120251 0.067966
v 0.000011 0.105765 0.090009
v 0.006036 0.124308 0.081680
v 0.011032 0.139686 0.067966
v 0.020191 0.107470 0.084789
v 0.039816 0.107470 0.072659
v 0.026255 0.126135 0.072659
v -0.015313 0.119006 0.084789
v -0.009248 0.137671 0.072659
v -0.031190 0.130541 0.072659
v -0.037255 0.088805 0.084789
v -0.053133 0.100341 0.072659
v -0.053133 0.077269 0.072659
v -0.015313 0.058604 0.084789
v -0.031190 0.047069 0.072659
v -0.009248 0.039939 0.072659
v 0.020191 0.070140 0.084789
v 0.026255 0.051475 0.072659
v 0.039816 0.070140 0.072659
v 0.055694 0.119006 0.040904
v 0.051946 0.130542 0.021278
v 0.042133 0.137671 0.040904
v -0.015313 0.156337 0.040904
v -0.027442 0.156337 0.021278
v -0.037255 0.149207 0.040904
v -0.072759 0.100341 0.040904
v -0.076507 0.088805 0.021278
v -0.072759 0.077269 0.040904
v -0.037255 0.028403 0.040904
v -0.027442 0.021273 0.021278
v -0.015313 0.021273 0.040904
v 0.042133 0.039939 0.040904
v 0.051946 0.047068 0.021278
v 0.055694 0.058604 0.040904
v 0.016443 0.156337 0.021278
v 0.026256 0.149207 0.001652
v 0.004313 0.156337 0.001652
v -0.062946 0.130542 0.021278
v -0.053133 0.137671 0.001652
v -0.066694 0.119006 0.001652
v -0.062946 0.047068 0.021278
v -0.066694 0.058604 0.001652
v -0.053133 0.039939 0.001652
v 0.016443 0.021273 0.021278
v 0.004313 0.021273 0.001652
v 0.026256 0.028403 0.001652
v 0.065507 0.088805 0.021278
v 0.061759 0.077269 0.001652
v 0.061759 0.100341 0.001652
v 0.020191 0.130541 -0.030104
v 0.004313 0.119006 -0.042233
v -0.001751 0.137671 -0.030104
v -0.037255 0.126135 -0.030104
v -0.031190 0.107470 -0.042233
v -0.050816 0.107470 -0.030104
v -0.050816 0.070140 -0.030104
v -0.031190 0.070140 -0.042233
v -0.037255 0.051475 -0.030104
v 0.042133 0.100341 -0.030104
v 0.042133 0.077269 -0.030104
v 0.026255 0.088805 -0.042233
v -0.001751 0.039939 -0.030104
v 0.004313 0.058604 -0.042233
v 0.020191 0.047068 -0.030104
vn -0.0000 -0.0000 -1.0000
vn 0.7236 -0.5257 -0.4472
vn -0.2764 -0.8506 -0.4472
vn -0.8944 -0.0000 -0.4472
vn -0.2764 0.8506 -0.4472
vn 0.7236 0.5257 -0.4472
vn 0.2764 -0.8506 0.4472
vn -0.7236 -0.5257 0.4472
vn -0.7236 0.5257 0.4472
vn 0.2764 0.8506 0.4472
vn 0.8944 -0.0000 0.4472
vn -0.0000 -0.0000 1.0000
vn -0.2308 -0.7103 -0.6650
vn -0.1625 -0.5000 -0.8507
vn -0.0806 -0.2480 -0.9654
vn 0.2110 -0.1533 -0.9654
vn 0.4253 -0.3090 -0.8507
vn 0.6042 -0.4390 -0.6650
vn 0.5237 -0.6870 -0.5038
vn 0.2629 -0.8090 -0.5257
vn -0.0198 -0.8636 -0.5038
vn 0.8152 0.2857 -0.5038
vn 0.8506 -0.0000 -0.5257
vn 0.8152 -0.2857 -0.5038
vn 0.2110 0.1533 -0.9654
vn 0.4253 0.3090 -0.8507
vn 0.6042 0.4390 -0.6650
vn -0.7469 -0.0000 -0.6650
vn -0.5257 -0.0000 -0.8507
vn -0.2608 -0.0000 -0.9654
vn -0.4915 -0.7103 -0.5038
vn -0.6882 -0.5000 -0.5257
vn -0.8274 -0.2480 -0.5038
vn -0.2308 0.7103 -0.6650
vn -0.1625 0.5000 -0.8507
vn -0.0806 0.2480 -0.9654
vn -0.8274 0.2480 -0.5038
vn -0.6882 0.5000 -0.5257
vn -0.4915 0.7103 -0.5038
vn -0.0198 0.8636 -0.5038
vn 0.2629 0.8090 -0.5257
vn 0.5237 0.6870 -0.5038
vn 0.9578 -0.1533 0.2431
vn 0.9511 -0.3090 -0.0000
vn 0.8650 -0.4390 -0.2431
vn 0.8650 0.4390 -0.2431
vn 0.9511 0.3090 -0.0000
vn 0.9578 0.1533 0.2431
vn 0.1502 -0.9583 0.2431
vn -0.0000 -1.0000 -0.0000
vn -0.1502 -0.9583 -0.2431
vn 0.6848 -0.6870 -0.2431
vn 0.5878 -0.8090 -0.0000
vn 0.4417 -0.8636 0.2431
vn -0.8650 -0.4390 0.2431
vn -0.9511 -0.3090 -0.0000
vn -0.9578 -0.1533 -0.2431
vn -0.4417 -0.8636 -0.2431
vn -0.5878 -0.8090 -0.0000
vn -0.6848 -0.6870 0.2431
vn -0.6848 0.6870 0.2431
vn -0.5878 0.8090 -0.0000
vn -0.4417 0.8636 -0.2431
vn -0.9578 0.1533 -0.2431
vn -0.9511 0.3090 -0.0000
vn -0.8650 0.4390 0.2431
vn 0.4417 0.8636 0.2431
vn 0.5878 0.8090 -0.0000
vn 0.6848 0.6870 -0.2431
vn -0.1502 0.9583 -0.2431
vn -0.0000 1.0000 -0.0000
vn 0.1502 0.9583 0.2431
vn 0.8274 -0.2480 0.5038
vn 0.6882 -0.5000 0.5257
vn 0.4915 -0.7103 0.5038
vn 0.0198 -0.8636 0.5038
vn -0.2629 -0.8090 0.5257
vn -0.5237 -0.6870 0.5038
vn -0.8152 -0.2857 0.5038
vn -0.8506 -0.0000 0.5257
vn -0.8152 0.2857 0.5038
vn -0.5237 0.6870 0.5038
vn -0.2629 0.8090 0.5257
vn 0.0198 0.8636 0.5038
vn 0.4915 0.7103 0.5038
vn 0.6882 0.5000 0.5257
vn 0.8274 0.2480 0.5038
vn 0.0806 -0.2480 0.9654
vn 0.1625 -0.5000 0.8507
vn 0.2308 -0.7103 0.6650
vn 0.7469 -0.0000 0.6650
vn 0.5257 -0.0000 0.8507
vn 0.2607 -0.0000 0.9654
vn -0.2110 -0.1533 0.9654
vn -0.4253 -0.3090 0.8507
vn -0.6042 -0.4390 0.6650
vn -0.2110 0.1533 0.9654
vn -0.4253 0.3090 0.8507
vn -0.6042 0.4390 0.6650
vn 0.0806 0.2480 0.9654
vn 0.1625 0.5000 0.8507
vn 0.2308 0.7103 0.6650
vn 0.3682 0.2675 0.8904
vn 0.6317 0.2675 0.7275
vn 0.4496 0.5182 0.7276
vn -0.1406 0.4329 0.8904
vn -0.0592 0.6835 0.7276
vn -0.3539 0.5878 0.7276
vn -0.4551 -0.0000 0.8904
vn -0.6683 0.1549 0.7276
vn -0.6683 -0.1549 0.7276
vn -0.1406 -0.4329 0.8904
vn -0.3539 -0.5878 0.7276
vn -0.0592 -0.6835 0.7276
vn 0.3682 -0.2675 0.8904
vn 0.4496 -0.5182 0.7276
vn 0.6317 -0.2675 0.7275
vn 0.8593 0.4329 0.2724
vn 0.8090 0.5878 0.0089
vn 0.6772 0.6835 0.2724
vn -0.1461 0.9510 0.2724
vn -0.3090 0.9510 0.0089
vn -0.4408 0.8553 0.2724
vn -0.9496 0.1549 0.2724
vn -1.0000 -0.0000 0.0089
vn -0.9496 -0.1549 0.2724
vn -0.4408 -0.8553 0.2724
vn -0.3090 -0.9510 0.0089
vn -0.1461 -0.9510 0.2724
vn 0.6772 -0.6835 0.2724
vn 0.8090 -0.5878 0.0089
vn 0.8593 -0.4329 0.2724
vn 0.3090 0.9510 -0.0089
vn 0.4408 0.8553 -0.2724
vn 0.1461 0.9510 -0.2724
vn -0.8090 0.5878 -0.0089
vn -0.6772 0.6835 -0.2724
vn -0.8593 0.4329 -0.2724
vn -0.8090 -0.5878 -0.0089
vn -0.8593 -0.4329 -0.2724
vn -0.6772 -0.6835 -0.2724
vn 0.3090 -0.9510 -0.0089
vn 0.1461 -0.9510 -0.2724
vn 0.4408 -0.8553 -0.2724
vn 1.0000 -0.0000 -0.0089
vn 0.9496 -0.1549 -0.2724
vn 0.9496 0.1549 -0.2724
vn 0.3539 0.5878 -0.7276
vn 0.1406 0.4329 -0.8904
vn 0.0592 0.6835 -0.7276
vn -0.4496 0.5182 -0.7276
vn -0.3682 0.2675 -0.8904
vn -0.6317 0.2675 -0.7275
vn -0.6317 -0.2675 -0.7275
vn -0.3682 -0.2675 -0.8904
vn -0.4496 -0.5182 -0.7275
vn 0.6683 0.1549 -0.7275
vn 0.6683 -0.1549 -0.7275
vn 0.4551 -0.0000 -0.8904
vn 0.0592 -0.6835 -0.7276
vn 0.1406 -0.4329 -0.8904
vn 0.3539 -0.5878 -0.7276
vt -0.003313 -0.263894
vt -0.071040 -0.313099
vt 0.022556 -0.343511
vt 0.202977 -0.439135
vt 0.273076 -0.411512
vt 0.221337 -0.362306
vt 0.080403 -0.263894
vt 0.022556 -0.184276
vt -0.071040 -0.214688
vt 0.137620 -0.411513
vt -0.088816 0.202977
vt -0.006567 0.221337
vt -0.048425 0.137621
vt -0.202975 -0.263894
vt -0.221336 -0.343511
vt -0.137620 -0.313100
vt -0.088816 -0.202977
vt -0.158011 -0.221337
vt -0.142023 -0.137621
vt 0.244515 -0.202977
vt 0.180627 -0.221337
vt 0.232366 -0.137621
vt 0.137621 -0.491132
vt -0.142023 0.137621
vt -0.137620 -0.214687
vt -0.048425 -0.137621
vt 0.202977 -0.088652
vt 0.137621 -0.036655
vt 0.137620 -0.116274
vt 0.095442 -0.095170
vt 0.164637 -0.113530
vt 0.080920 -0.165270
vt 0.095170 -0.439135
vt 0.113530 -0.491131
vt 0.165269 -0.411512
vt 0.095170 -0.088652
vt 0.113530 -0.165481
vt 0.165269 -0.116275
vt 0.095442 0.095170
vt 0.013193 0.113531
vt 0.080920 0.165270
vt -0.095168 -0.263894
vt -0.113529 -0.184276
vt -0.165268 -0.263894
vt 0.087029 -0.263894
vt 0.029182 -0.184276
vt 0.003313 -0.263894
vt 0.178556 -0.263894
vt 0.123913 -0.176273
vt 0.254460 -0.263894
vt 0.216044 -0.176272
vt 0.057465 -0.097228
vt 0.152383 -0.088651
vt 0.080920 -0.025039
vt -0.187300 -0.176272
vt -0.121342 -0.097228
vt 0.232709 -0.097228
vt 0.164637 -0.025039
vt 0.152383 0.187300
vt 0.164637 0.113530
vt -0.064414 -0.214688
vt -0.042753 -0.122120
vt -0.014284 -0.034499
vt -0.138461 -0.160890
vt -0.117288 -0.067967
vt -0.199869 -0.116275
vt -0.014284 0.187301
vt -0.084310 0.121342
vt -0.117288 0.187301
vt -0.174001 0.113530
vt -0.174001 -0.036656
vt 0.113530 -0.036656
vt -0.064414 -0.313099
vt -0.145757 -0.263894
vt -0.220293 -0.209741
vt -0.138461 -0.366897
vt -0.220293 -0.318046
vt -0.199869 -0.411512
vt 0.187300 -0.209741
vt 0.121342 -0.263894
vt 0.187300 -0.318046
vt 0.113530 -0.362306
vt 0.029182 -0.343511
vt -0.042753 -0.405667
vt -0.117288 -0.459820
vt 0.057465 -0.430559
vt -0.014284 -0.493289
vt 0.080920 -0.502748
vt -0.174001 -0.491131
vt -0.174001 -0.113530
vt -0.084310 -0.121342
vt -0.117288 -0.187301
vt -0.014284 -0.187301
vt 0.013193 -0.113531
vt 0.123913 -0.351515
vt 0.152383 -0.439136
vt 0.216044 -0.351515
vt 0.152383 -0.187300
vt 0.164637 -0.502748
vt 0.232709 -0.430559
vt -0.121342 -0.430559
vt -0.113529 -0.343511
vt -0.187300 -0.351515
vt -0.029813 -0.214687
vt 0.053903 -0.160889
vt -0.038229 -0.122120
vt 0.053903 -0.067966
vt -0.038229 -0.034497
vt 0.226920 0.038229
vt 0.232709 0.121342
vt 0.053903 0.005779
vt 0.199241 -0.053903
vt 0.148649 0.029814
vt 0.055051 0.029814
vt 0.003313 -0.053903
vt -0.042753 0.038229
vt -0.099693 -0.053904
vt -0.145759 0.038229
vt -0.192616 -0.053903
vt -0.225740 0.029814
vt -0.237889 0.095170
vt 0.029814 -0.116274
vt -0.053903 -0.160889
vt 0.038228 -0.209741
vt -0.053903 -0.263894
vt 0.038229 -0.318046
vt -0.053903 -0.366898
vt 0.029814 -0.411513
vt -0.225740 -0.029814
vt -0.237889 -0.095170
vt -0.192616 0.053903
vt -0.145759 -0.038229
vt -0.099693 0.053904
vt -0.042753 -0.038229
vt 0.003313 0.053903
vt 0.055051 -0.029814
vt 0.148649 -0.029814
vt 0.199241 0.053903
vt 0.226920 -0.038229
vt 0.053904 -0.459821
vt 0.053903 -0.533566
vt 0.232709 -0.121342
vt -0.038229 -0.493290
vt -0.038228 -0.405668
vt 0.053903 -0.366898
vt -0.029813 -0.313100
vt 0.106319 -0.053903
vt 0.152385 -0.146036
vt 0.049379 -0.146036
vt 0.090936 -0.229149
vt -0.006567 -0.221337
vt 0.029814 -0.036655
vt -0.053903 0.005779
vt -0.053903 -0.067966
vt -0.220293 -0.146036
vt -0.146036 -0.034497
vt -0.146036 -0.122119
vt -0.226083 -0.229149
vt -0.229149 -0.097228
vt -0.221336 -0.184276
vt 0.029814 -0.491132
vt -0.053903 -0.459821
vt -0.146036 -0.405668
vt -0.053903 -0.533566
vt -0.146036 -0.493290
vt -0.220293 0.146036
vt -0.229149 -0.430559
vt -0.226084 0.229149
vt -0.158011 0.221337
vt 0.106319 0.053903
vt 0.049379 0.146036
vt 0.152385 0.146036
vt 0.232366 0.137621
vt 0.090936 0.229149
vt 0.180627 0.221337
vt 0.244515 0.202977
vt 0.053903 -0.263894
vt 0.146035 -0.318046
vt 0.146035 -0.209741
vt 0.229149 -0.263894
vt 0.221337 -0.165481
vt 0.273076 -0.116275
vt 0.221337 -0.036656
vt -0.145087 -0.160890
vt -0.123914 -0.067967
vt -0.206495 -0.116275
vt -0.049379 -0.122120
vt -0.180627 -0.036656
vt 0.123914 -0.295107
vt -0.020909 -0.034498
vt 0.020909 -0.295107
vt 0.050839 -0.097228
vt 0.074294 -0.025039
vt -0.074294 -0.273076
vt 0.145757 -0.088651
vt 0.117287 -0.176273
vt -0.145757 -0.295107
vt 0.226083 -0.097228
vt 0.158011 -0.025039
vt 0.209419 -0.176273
vt -0.295107 -0.176273
vt 0.171930 -0.263894
vt 0.247834 -0.263894
vt -0.273075 -0.263894
vt 0.209419 -0.351515
vt 0.117287 -0.351515
vt -0.295107 -0.351515
vt 0.145757 -0.439136
vt 0.226084 -0.430559
vt 0.158011 -0.502748
vt 0.050839 -0.430559
vt 0.074294 -0.502748
vt -0.145757 0.295107
vt -0.074294 0.273076
vt 0.295107 -0.209741
vt 0.295107 -0.318046
vt -0.226919 -0.209741
vt -0.226919 -0.318046
vt -0.152383 -0.263894
vt -0.206495 -0.411512
vt -0.145087 -0.366897
vt -0.020910 -0.493289
vt -0.049379 -0.405667
vt 0.020910 0.295107
vt -0.123915 -0.459820
vt 0.123915 0.295107
vt -0.180627 -0.491131
vt 0.221337 -0.491131
s 1
f 309/504/307 324/505/322 323/506/321
f 310/507/308 326/508/324 332/509/330
f 309/504/307 323/506/321 338/510/336
f 309/504/307 338/510/336 344/511/342
f 309/504/307 344/511/342 333/512/331
f 310/507/308 332/509/330 353/513/351
f 311/514/309 329/515/327 359/516/357
f 312/517/310 341/518/339 365/519/363
f 313/520/311 347/521/345 371/522/369
f 314/523/312 350/524/348 377/525/375
f 310/507/308 353/513/351 360/526/358
f 311/514/309 359/516/357 366/527/364
f 312/517/310 365/519/363 372/528/370
f 313/520/311 371/522/369 378/529/376
f 314/530/312 377/531/375 354/532/352
f 315/533/313 383/534/381 398/535/396
f 316/536/314 386/537/384 404/538/402
f 317/539/315 389/540/387 407/541/405
f 318/542/316 392/543/390 410/544/408
f 319/545/317 395/546/393 399/547/397
f 401/548/399 408/549/406 320/550/318
f 400/551/398 411/552/409 401/548/399
f 399/553/397 412/554/410 400/551/398
f 401/548/399 411/552/409 408/549/406
f 411/552/409 409/555/407 408/549/406
f 400/551/398 412/554/410 411/552/409
f 412/554/410 413/556/411 411/552/409
f 411/552/409 413/556/411 409/555/407
f 413/556/411 410/557/408 409/555/407
f 399/547/397 395/546/393 412/558/410
f 395/546/393 394/559/392 412/558/410
f 412/554/410 394/560/392 413/556/411
f 394/560/392 393/561/391 413/556/411
f 413/562/411 393/563/391 410/544/408
f 393/563/391 318/542/316 410/544/408
f 408/549/406 405/564/403 320/550/318
f 409/555/407 414/565/412 408/549/406
f 410/557/408 415/566/413 409/555/407
f 408/549/406 414/565/412 405/564/403
f 414/565/412 406/567/404 405/564/403
f 409/555/407 415/566/413 414/565/412
f 415/566/413 416/568/414 414/565/412
f 414/565/412 416/568/414 406/567/404
f 416/568/414 407/569/405 406/567/404
f 410/544/408 392/543/390 415/570/413
f 392/543/390 391/571/389 415/570/413
f 415/570/413 391/571/389 416/572/414
f 391/571/389 390/573/388 416/572/414
f 416/568/414 390/574/388 407/569/405
f 390/575/388 317/539/315 407/541/405
f 405/564/403 402/576/400 320/550/318
f 406/567/404 417/577/415 405/564/403
f 407/569/405 418/578/416 406/567/404
f 405/564/403 417/577/415 402/576/400
f 417/577/415 403/579/401 402/576/400
f 406/567/404 418/578/416 417/577/415
f 418/578/416 419/580/417 417/577/415
f 417/577/415 419/580/417 403/579/401
f 419/580/417 404/581/402 403/579/401
f 407/541/405 389/540/387 418/582/416
f 389/540/387 388/583/386 418/582/416
f 418/582/416 388/583/386 419/584/417
f 388/583/386 387/585/385 419/584/417
f 419/584/417 387/585/385 404/538/402
f 387/585/385 316/536/314 404/538/402
f 402/576/400 396/586/394 320/550/318
f 403/579/401 420/587/418 402/576/400
f 404/581/402 421/588/419 403/579/401
f 402/576/400 420/587/418 396/586/394
f 420/587/418 397/589/395 396/586/394
f 403/579/401 421/588/419 420/587/418
f 421/588/419 422/590/420 420/587/418
f 420/587/418 422/590/420 397/589/395
f 422/590/420 398/591/396 397/589/395
f 404/581/402 386/592/384 421/588/419
f 386/593/384 385/594/383 421/595/419
f 421/595/419 385/594/383 422/596/420
f 385/594/383 384/597/382 422/596/420
f 422/596/420 384/597/382 398/535/396
f 384/597/382 315/533/313 398/535/396
f 396/586/394 401/548/399 320/550/318
f 397/589/395 423/598/421 396/586/394
f 398/591/396 424/599/422 397/589/395
f 396/586/394 423/598/421 401/548/399
f 423/598/421 400/551/398 401/548/399
f 397/589/395 424/599/422 423/598/421
f 424/599/422 425/600/423 423/598/421
f 423/598/421 425/600/423 400/551/398
f 425/600/423 399/553/397 400/551/398
f 398/535/396 383/534/381 424/601/422
f 383/602/381 382/603/380 424/599/422
f 424/599/422 382/603/380 425/600/423
f 382/604/380 381/605/379 425/606/423
f 425/606/423 381/605/379 399/547/397
f 381/605/379 319/545/317 399/547/397
f 356/607/354 395/546/393 319/545/317
f 355/608/353 426/609/424 356/607/354
f 354/532/352 427/610/425 355/608/353
f 356/607/354 426/609/424 395/546/393
f 426/609/424 394/559/392 395/546/393
f 355/608/353 427/610/425 426/609/424
f 427/610/425 428/611/426 426/609/424
f 426/609/424 428/611/426 394/559/392
f 428/612/426 393/563/391 394/613/392
f 354/532/352 377/531/375 427/610/425
f 377/531/375 376/614/374 427/610/425
f 427/610/425 376/614/374 428/611/426
f 376/615/374 375/616/373 428/612/426
f 428/612/426 375/616/373 393/563/391
f 375/616/373 318/542/316 393/563/391
f 380/617/378 392/543/390 318/542/316
f 379/618/377 429/619/427 380/617/378
f 378/529/376 430/620/428 379/618/377
f 380/617/378 429/619/427 392/543/390
f 429/619/427 391/571/389 392/543/390
f 379/618/377 430/620/428 429/619/427
f 430/620/428 431/621/429 429/619/427
f 429/619/427 431/621/429 391/571/389
f 431/621/429 390/573/388 391/571/389
f 378/529/376 371/522/369 430/620/428
f 371/522/369 370/622/368 430/620/428
f 430/620/428 370/622/368 431/621/429
f 370/622/368 369/623/367 431/621/429
f 431/621/429 369/623/367 390/573/388
f 369/623/367 317/624/315 390/573/388
f 374/625/372 389/540/387 317/539/315
f 373/626/371 432/627/430 374/625/372
f 372/528/370 433/628/431 373/626/371
f 374/625/372 432/627/430 389/540/387
f 432/627/430 388/583/386 389/540/387
f 373/626/371 433/628/431 432/627/430
f 433/628/431 434/629/432 432/627/430
f 432/627/430 434/629/432 388/583/386
f 434/629/432 387/585/385 388/583/386
f 372/528/370 365/519/363 433/628/431
f 365/519/363 364/630/362 433/628/431
f 433/628/431 364/630/362 434/629/432
f 364/630/362 363/631/361 434/629/432
f 434/629/432 363/631/361 387/585/385
f 363/631/361 316/536/314 387/585/385
f 368/632/366 386/593/384 316/633/314
f 367/634/365 435/635/433 368/632/366
f 366/527/364 436/636/434 367/634/365
f 368/632/366 435/635/433 386/593/384
f 435/635/433 385/594/383 386/593/384
f 367/634/365 436/636/434 435/635/433
f 436/636/434 437/637/435 435/635/433
f 435/635/433 437/637/435 385/594/383
f 437/637/435 384/597/382 385/594/383
f 366/527/364 359/516/357 436/636/434
f 359/516/357 358/638/356 436/636/434
f 436/636/434 358/638/356 437/637/435
f 358/638/356 357/639/355 437/637/435
f 437/637/435 357/639/355 384/597/382
f 357/639/355 315/533/313 384/597/382
f 362/640/360 383/534/381 315/533/313
f 361/641/359 438/642/436 362/640/360
f 360/526/358 439/643/437 361/644/359
f 362/640/360 438/642/436 383/534/381
f 438/642/436 382/645/380 383/534/381
f 361/644/359 439/643/437 438/646/436
f 439/643/437 440/647/438 438/646/436
f 438/646/436 440/647/438 382/604/380
f 440/647/438 381/605/379 382/604/380
f 360/526/358 353/513/351 439/643/437
f 353/513/351 352/648/350 439/643/437
f 439/643/437 352/648/350 440/647/438
f 352/648/350 351/649/349 440/647/438
f 440/647/438 351/649/349 381/605/379
f 351/649/349 319/545/317 381/605/379
f 375/616/373 380/617/378 318/542/316
f 376/615/374 441/650/439 375/616/373
f 377/525/375 442/651/440 376/615/374
f 375/616/373 441/650/439 380/617/378
f 441/650/439 379/618/377 380/617/378
f 376/615/374 442/651/440 441/650/439
f 442/651/440 443/652/441 441/650/439
f 441/650/439 443/652/441 379/618/377
f 443/652/441 378/529/376 379/618/377
f 377/525/375 350/524/348 442/651/440
f 350/524/348 349/653/347 442/651/440
f 442/651/440 349/653/347 443/652/441
f 349/653/347 348/654/346 443/652/441
f 443/652/441 348/654/346 378/529/376
f 348/654/346 313/520/311 378/529/376
f 369/655/367 374/625/372 317/539/315
f 370/656/368 444/657/442 369/655/367
f 371/522/369 445/658/443 370/622/368
f 369/655/367 444/657/442 374/625/372
f 444/657/442 373/626/371 374/625/372
f 370/656/368 445/659/443 444/657/442
f 445/659/443 446/660/444 444/657/442
f 444/657/442 446/660/444 373/626/371
f 446/660/444 372/528/370 373/626/371
f 371/522/369 347/521/345 445/658/443
f 347/521/345 346/661/344 445/658/443
f 445/659/443 346/662/344 446/660/444
f 346/662/344 345/663/343 446/660/444
f 446/660/444 345/663/343 372/528/370
f 345/663/343 312/517/310 372/528/370
f 363/631/361 368/664/366 316/536/314
f 364/630/362 447/665/445 363/631/361
f 365/519/363 448/666/446 364/630/362
f 363/631/361 447/665/445 368/664/366
f 447/665/445 367/667/365 368/664/366
f 364/630/362 448/666/446 447/665/445
f 448/666/446 449/668/447 447/665/445
f 447/665/445 449/668/447 367/667/365
f 449/669/447 366/527/364 367/634/365
f 365/519/363 341/518/339 448/666/446
f 341/518/339 340/670/338 448/666/446
f 448/666/446 340/670/338 449/668/447
f 340/671/338 339/672/337 449/669/447
f 449/669/447 339/672/337 366/527/364
f 339/672/337 311/514/309 366/527/364
f 357/639/355 362/640/360 315/533/313
f 358/638/356 450/673/448 357/639/355
f 359/516/357 451/674/449 358/638/356
f 357/639/355 450/673/448 362/640/360
f 450/673/448 361/641/359 362/640/360
f 358/638/356 451/674/449 450/673/448
f 451/674/449 452/675/450 450/673/448
f 450/673/448 452/675/450 361/641/359
f 452/675/450 360/676/358 361/641/359
f 359/516/357 329/515/327 451/674/449
f 329/515/327 328/677/326 451/674/449
f 451/674/449 328/677/326 452/675/450
f 328/677/326 327/678/325 452/675/450
f 452/675/450 327/678/325 360/676/358
f 327/678/325 310/679/308 360/676/358
f 351/649/349 356/607/354 319/545/317
f 352/648/350 453/680/451 351/649/349
f 353/513/351 454/681/452 352/648/350
f 351/649/349 453/680/451 356/607/354
f 453/680/451 355/608/353 356/607/354
f 352/648/350 454/681/452 453/680/451
f 454/681/452 455/682/453 453/680/451
f 453/680/451 455/682/453 355/608/353
f 455/682/453 354/532/352 355/608/353
f 353/513/351 332/509/330 454/681/452
f 332/509/330 331/683/329 454/681/452
f 454/681/452 331/683/329 455/682/453
f 331/683/329 330/684/328 455/682/453
f 455/682/453 330/684/328 354/532/352
f 330/684/328 314/530/312 354/532/352
f 335/685/333 350/686/348 314/530/312
f 334/687/332 456/688/454 335/689/333
f 333/512/331 457/690/455 334/687/332
f 335/689/333 456/688/454 350/691/348
f 456/692/454 349/653/347 350/524/348
f 334/687/332 457/690/455 456/688/454
f 457/690/455 458/693/456 456/688/454
f 456/692/454 458/694/456 349/653/347
f 458/694/456 348/654/346 349/653/347
f 333/512/331 344/511/342 457/690/455
f 344/511/342 343/695/341 457/690/455
f 457/690/455 343/695/341 458/693/456
f 343/695/341 342/696/340 458/693/456
f 458/694/456 342/697/340 348/654/346
f 342/697/340 313/520/311 348/654/346
f 342/697/340 347/521/345 313/520/311
f 343/695/341 459/698/457 342/696/340
f 344/511/342 460/699/458 343/695/341
f 342/697/340 459/700/457 347/521/345
f 459/698/457 346/701/344 347/702/345
f 343/695/341 460/699/458 459/698/457
f 460/699/458 461/703/459 459/698/457
f 459/698/457 461/703/459 346/701/344
f 461/704/459 345/663/343 346/662/344
f 344/511/342 338/510/336 460/699/458
f 338/510/336 337/705/335 460/699/458
f 460/699/458 337/705/335 461/703/459
f 337/705/335 336/706/334 461/703/459
f 461/704/459 336/707/334 345/663/343
f 336/707/334 312/517/310 345/663/343
f 336/707/334 341/518/339 312/517/310
f 337/705/335 462/708/460 336/706/334
f 338/510/336 463/709/461 337/705/335
f 336/707/334 462/710/460 341/518/339
f 462/710/460 340/670/338 341/518/339
f 337/705/335 463/709/461 462/708/460
f 463/709/461 464/711/462 462/708/460
f 462/708/460 464/711/462 340/712/338
f 464/711/462 339/713/337 340/712/338
f 338/510/336 323/506/321 463/709/461
f 323/506/321 322/714/320 463/709/461
f 463/709/461 322/714/320 464/711/462
f 322/714/320 321/715/319 464/711/462
f 464/716/462 321/717/319 339/672/337
f 321/717/319 311/514/309 339/672/337
f 330/684/328 335/685/333 314/530/312
f 331/683/329 465/718/463 330/684/328
f 332/509/330 466/719/464 331/683/329
f 330/684/328 465/718/463 335/685/333
f 465/720/463 334/687/332 335/689/333
f 331/683/329 466/719/464 465/718/463
f 466/721/464 467/722/465 465/720/463
f 465/720/463 467/722/465 334/687/332
f 467/722/465 333/512/331 334/687/332
f 332/509/330 326/508/324 466/719/464
f 326/723/324 325/724/323 466/721/464
f 466/721/464 325/724/323 467/722/465
f 325/724/323 324/505/322 467/722/465
f 467/722/465 324/505/322 333/512/331
f 324/505/322 309/504/307 333/512/331
f 321/717/319 329/515/327 311/514/309
f 322/714/320 468/725/466 321/715/319
f 323/506/321 469/726/467 322/714/320
f 321/717/319 468/727/466 329/515/327
f 468/727/466 328/677/326 329/515/327
f 322/714/320 469/726/467 468/725/466
f 469/726/467 470/728/468 468/725/466
f 468/727/466 470/729/468 328/677/326
f 470/729/468 327/678/325 328/677/326
f 323/506/321 324/505/322 469/726/467
f 324/505/322 325/724/323 469/726/467
f 469/726/467 325/724/323 470/728/468
f 325/724/323 326/723/324 470/728/468
f 470/728/468 326/723/324 327/730/325
f 326/508/324 310/507/308 327/731/325
