# Blender 5.0.1
# www.blender.org
mtllib clam_c.mtl
o shell
usemtl shell
v -0.142956 0.201765 -0.203157
v -0.142956 0.228716 -0.203157
v -0.194647 0.065640 -0.147405
v -0.191029 0.102120 -0.151307
v -0.246339 0.009255 -0.091652
v -0.239102 0.049682 -0.099458
v -0.298030 0.065640 -0.035900
v -0.287175 0.102120 -0.047608
v -0.349721 0.201765 0.019852
v -0.335248 0.228716 0.004241
v -0.126985 0.201765 -0.203157
v -0.126985 0.228716 -0.203157
v -0.182138 0.066562 -0.128927
v -0.178277 0.103042 -0.134123
v -0.237291 0.012944 -0.054697
v -0.229570 0.053371 -0.065090
v -0.292444 0.073941 0.019532
v -0.280862 0.110421 0.003944
v -0.347598 0.216523 0.093762
v -0.332155 0.243474 0.072978
v -0.111013 0.201765 -0.203157
v -0.111013 0.228716 -0.203157
v -0.162274 0.066807 -0.115515
v -0.158686 0.103287 -0.121650
v -0.213535 0.013925 -0.027872
v -0.206359 0.054352 -0.040142
v -0.264796 0.076147 0.059770
v -0.254031 0.112627 0.041365
v -0.316057 0.220445 0.147412
v -0.301704 0.247396 0.122872
v -0.095042 0.201765 -0.203157
v -0.095042 0.228716 -0.203157
v -0.138682 0.065611 -0.107140
v -0.135628 0.102091 -0.113861
v -0.182323 0.009138 -0.011122
v -0.176213 0.049565 -0.024565
v -0.225963 0.065377 0.084895
v -0.216798 0.101857 0.064731
v -0.269603 0.201298 0.180912
v -0.257384 0.228249 0.154028
v -0.079071 0.201765 -0.203157
v -0.079071 0.228716 -0.203157
v -0.113097 0.064003 -0.104215
v -0.110716 0.100483 -0.111141
v -0.147124 0.002709 -0.005273
v -0.142360 0.043136 -0.019124
v -0.181150 0.050911 0.093670
v -0.174005 0.087391 0.072892
v -0.215177 0.175580 0.192612
v -0.205649 0.202531 0.164908
v -0.063100 0.201765 -0.203157
v -0.063100 0.228716 -0.203157
v -0.090399 0.063732 -0.098492
v -0.088488 0.100212 -0.105819
v -0.117698 0.001624 0.006172
v -0.113876 0.042051 -0.008481
v -0.144997 0.048469 0.110836
v -0.139264 0.084950 0.088857
v -0.172296 0.171240 0.215501
v -0.164652 0.198191 0.186195
v -0.047129 0.201765 -0.203157
v -0.047129 0.228716 -0.203157
v -0.070839 0.065332 -0.083395
v -0.069179 0.101812 -0.091778
v -0.094549 0.008025 0.036368
v -0.091230 0.048452 0.019601
v -0.118259 0.062872 0.156130
v -0.113280 0.099352 0.130980
v -0.141970 0.196844 0.275892
v -0.135331 0.223796 0.242359
v -0.031157 0.201765 -0.203157
v -0.031157 0.228716 -0.203157
v -0.049118 0.067404 -0.068967
v -0.047861 0.103884 -0.078360
v -0.067079 0.016313 0.065223
v -0.064565 0.056740 0.046437
v -0.085040 0.081520 0.199413
v -0.081268 0.118000 0.171233
v -0.103001 0.229996 0.333604
v -0.097972 0.256947 0.296030
v -0.015186 0.201765 -0.203157
v -0.015186 0.228716 -0.203157
v -0.024805 0.067933 -0.060129
v -0.024131 0.104413 -0.070141
v -0.034423 0.018428 0.082898
v -0.033077 0.058855 0.062874
v -0.044042 0.086280 0.225926
v -0.042022 0.122760 0.195890
v -0.053660 0.238458 0.368954
v -0.050967 0.265410 0.328906
v 0.000785 0.201765 -0.203157
v 0.000785 0.228716 -0.203157
v 0.000785 0.066334 -0.068047
v 0.000785 0.102814 -0.077505
v 0.000785 0.012032 0.067063
v 0.000785 0.052459 0.048148
v 0.000785 0.071889 0.202173
v 0.000785 0.108369 0.173800
v 0.000785 0.212874 0.337283
v 0.000785 0.239825 0.299452
v 0.016756 0.201765 -0.203157
v 0.016756 0.228716 -0.203157
v 0.024342 0.064096 -0.081492
v 0.023811 0.100576 -0.090008
v 0.031927 0.003080 0.040174
v 0.030865 0.043507 0.023140
v 0.039513 0.051747 0.161839
v 0.037920 0.088227 0.136289
v 0.047098 0.177067 0.283504
v 0.044974 0.204018 0.249438
v 0.032727 0.201765 -0.203157
v 0.032727 0.228716 -0.203157
v 0.046526 0.063326 -0.090491
v 0.045560 0.099806 -0.098378
v 0.060325 0.000000 0.022175
v 0.058393 0.040427 0.006401
v 0.074124 0.044816 0.134840
v 0.071227 0.081296 0.111181
v 0.087923 0.164745 0.247506
v 0.084060 0.191697 0.215960
v 0.048699 0.201765 -0.203157
v 0.048699 0.228716 -0.203157
v 0.070450 0.064671 -0.089968
v 0.068927 0.101151 -0.097891
v 0.092202 0.005378 0.023222
v 0.089156 0.045805 0.007375
v 0.113953 0.056916 0.136411
v 0.109385 0.093397 0.112642
v 0.135705 0.186257 0.249601
v 0.129614 0.213208 0.217908
v 0.064670 0.201765 -0.203157
v 0.064670 0.228716 -0.203157
v 0.097571 0.066737 -0.084942
v 0.095267 0.103217 -0.093217
v 0.130471 0.013643 0.033272
v 0.125865 0.054071 0.016722
v 0.163372 0.075514 0.151487
v 0.156463 0.111994 0.126662
v 0.196273 0.219319 0.269701
v 0.187061 0.246271 0.236601
v 0.080641 0.201765 -0.203157
v 0.080641 0.228716 -0.203157
v 0.122240 0.067568 -0.090338
v 0.119328 0.104048 -0.098235
v 0.163839 0.016969 0.022482
v 0.158015 0.057396 0.006687
v 0.205437 0.082997 0.135301
v 0.196702 0.119477 0.111609
v 0.247036 0.232622 0.248121
v 0.235389 0.259573 0.216531
v 0.096612 0.201765 -0.203157
v 0.096612 0.228716 -0.203157
v 0.141005 0.066604 -0.106070
v 0.137898 0.103084 -0.112866
v 0.185398 0.013112 -0.008983
v 0.179183 0.053539 -0.022575
v 0.229792 0.074319 0.088104
v 0.220469 0.110799 0.067716
v 0.274185 0.217194 0.185191
v 0.261755 0.244146 0.158007
v 0.112583 0.201765 -0.203157
v 0.112583 0.228716 -0.203157
v 0.158370 0.065101 -0.121572
v 0.155165 0.101581 -0.127283
v 0.204157 0.007099 -0.039986
v 0.197747 0.047526 -0.051408
v 0.249944 0.060789 0.041599
v 0.240328 0.097269 0.024466
v 0.295730 0.193142 0.123185
v 0.282910 0.220093 0.100341
v 0.128555 0.201765 -0.203157
v 0.128555 0.228716 -0.203157
v 0.176204 0.064654 -0.135322
v 0.172869 0.101134 -0.140071
v 0.223854 0.005310 -0.067487
v 0.217183 0.045737 -0.076984
v 0.271504 0.056764 0.000348
v 0.261498 0.093244 -0.013898
v 0.319154 0.185986 0.068182
v 0.305812 0.212938 0.049189
v 0.144526 0.201765 -0.203157
v 0.144526 0.228716 -0.203157
v 0.195964 0.065640 -0.147566
v 0.192363 0.102120 -0.151457
v 0.247402 0.009255 -0.091975
v 0.240201 0.049682 -0.099757
v 0.298840 0.065640 -0.036383
v 0.288038 0.102120 -0.048058
v 0.350279 0.201765 0.019208
v 0.335876 0.228716 0.003642
v -0.142956 0.251320 -0.217836
v -0.142956 0.228716 -0.203157
v -0.192866 0.386098 -0.240236
v -0.189372 0.353421 -0.223574
v -0.242776 0.459351 -0.222682
v -0.235789 0.421281 -0.207077
v -0.292686 0.445593 -0.148622
v -0.282205 0.408752 -0.138373
v -0.342596 0.370310 -0.034607
v -0.328621 0.339377 -0.032754
v -0.126985 0.251320 -0.217836
v -0.126985 0.228716 -0.203157
v -0.171950 0.391276 -0.230569
v -0.168802 0.358183 -0.214549
v -0.216915 0.468160 -0.202343
v -0.210620 0.429257 -0.188021
v -0.261880 0.456486 -0.116606
v -0.252437 0.418395 -0.108282
v -0.306845 0.381740 0.010090
v -0.294255 0.349141 0.009377
v -0.111013 0.251320 -0.217836
v -0.111013 0.228716 -0.203157
v -0.150895 0.396247 -0.222465
v -0.148103 0.362791 -0.207002
v -0.190776 0.477691 -0.185867
v -0.185192 0.438063 -0.172660
v -0.230657 0.470166 -0.091491
v -0.222282 0.430987 -0.084841
v -0.270538 0.399156 0.044111
v -0.259371 0.365108 0.041166
v -0.095042 0.251320 -0.217836
v -0.095042 0.228716 -0.203157
v -0.135583 0.406272 -0.209225
v -0.132745 0.372185 -0.194735
v -0.176124 0.499748 -0.160690
v -0.170448 0.458858 -0.149429
v -0.216665 0.506263 -0.055682
v -0.208151 0.465189 -0.051949
v -0.257206 0.451300 0.089249
v -0.245854 0.414726 0.082414
v -0.079071 0.251320 -0.217836
v -0.079071 0.228716 -0.203157
v -0.119021 0.417523 -0.194851
v -0.116225 0.382743 -0.181428
v -0.158971 0.524947 -0.133693
v -0.153378 0.482670 -0.124567
v -0.198921 0.548104 -0.017813
v -0.190532 0.504951 -0.017282
v -0.238872 0.512481 0.136240
v -0.227686 0.473134 0.125135
v -0.063100 0.251320 -0.217836
v -0.063100 0.228716 -0.203157
v -0.096234 0.422643 -0.187466
v -0.093915 0.387519 -0.174571
v -0.129368 0.535640 -0.119219
v -0.124730 0.492678 -0.111147
v -0.162503 0.564826 0.003455
v -0.155544 0.520646 0.002404
v -0.195637 0.535687 0.164006
v -0.186359 0.494970 0.150792
v -0.047129 0.251320 -0.217836
v -0.047129 0.228716 -0.203157
v -0.069867 0.420060 -0.188505
v -0.068276 0.385024 -0.175476
v -0.092606 0.527790 -0.119553
v -0.089422 0.485002 -0.111214
v -0.115344 0.549026 0.005568
v -0.110569 0.505106 0.004918
v -0.138083 0.509252 0.170310
v -0.131716 0.468882 0.157631
v -0.031157 0.251320 -0.217836
v -0.031157 0.228716 -0.203157
v -0.044760 0.415680 -0.191444
v -0.043808 0.380829 -0.178130
v -0.058363 0.515556 -0.123175
v -0.056459 0.473138 -0.114266
v -0.071966 0.525461 0.003521
v -0.069109 0.482097 0.003725
v -0.085569 0.470882 0.172094
v -0.081760 0.431252 0.160554
v -0.015186 0.251320 -0.217836
v -0.015186 0.228716 -0.203157
v -0.021937 0.415915 -0.190112
v -0.021465 0.381016 -0.176871
v -0.028688 0.515138 -0.119935
v -0.027743 0.472625 -0.111172
v -0.035439 0.523503 0.009246
v -0.034022 0.479996 0.009231
v -0.042190 0.466497 0.180880
v -0.040300 0.426677 0.169047
v 0.000785 0.251320 -0.217836
v 0.000785 0.228716 -0.203157
v 0.000785 0.422899 -0.182294
v 0.000785 0.387605 -0.169661
v 0.000785 0.531787 -0.106040
v 0.000785 0.488484 -0.098494
v 0.000785 0.552501 0.027475
v 0.000785 0.507809 0.025635
v 0.000785 0.510524 0.201701
v 0.000785 0.469124 0.187436
v 0.016756 0.251320 -0.217836
v 0.016756 0.228716 -0.203157
v 0.025477 0.430407 -0.174841
v 0.024867 0.394719 -0.162815
v 0.034198 0.550558 -0.093572
v 0.032977 0.506467 -0.087240
v 0.042919 0.586288 0.042521
v 0.041088 0.540413 0.038860
v 0.051640 0.563081 0.216887
v 0.049198 0.520104 0.200194
v 0.032727 0.251320 -0.217836
v 0.032727 0.228716 -0.203157
v 0.051050 0.432396 -0.173192
v 0.049768 0.396614 -0.161311
v 0.069373 0.555828 -0.091113
v 0.066808 0.511548 -0.085071
v 0.087696 0.596130 0.044950
v 0.083848 0.549973 0.040855
v 0.106019 0.578787 0.218449
v 0.100889 0.535434 0.201176
v 0.048699 0.251320 -0.217836
v 0.048699 0.228716 -0.203157
v 0.072179 0.421971 -0.186777
v 0.070536 0.386840 -0.173894
v 0.095660 0.532723 -0.116818
v 0.092373 0.489745 -0.108771
v 0.119140 0.558090 0.008590
v 0.114210 0.513885 0.007502
v 0.142621 0.523557 0.172898
v 0.136047 0.482807 0.159634
v 0.064670 0.251320 -0.217836
v 0.064670 0.228716 -0.203157
v 0.091359 0.411631 -0.198905
v 0.089490 0.377102 -0.185094
v 0.118047 0.508577 -0.138824
v 0.114311 0.466803 -0.128921
v 0.144736 0.516671 -0.021042
v 0.139131 0.474274 -0.019347
v 0.171425 0.461400 0.137890
v 0.163952 0.423060 0.128337
v 0.080641 0.251320 -0.217836
v 0.080641 0.228716 -0.203157
v 0.111244 0.405204 -0.207275
v 0.109102 0.371076 -0.192847
v 0.141847 0.494328 -0.154658
v 0.137563 0.453357 -0.143520
v 0.172450 0.493207 -0.043435
v 0.166024 0.452013 -0.039887
v 0.203053 0.427325 0.109845
v 0.194485 0.390590 0.102762
v 0.096612 0.251320 -0.217836
v 0.096612 0.228716 -0.203157
v 0.133396 0.402533 -0.213159
v 0.130821 0.368649 -0.198355
v 0.170181 0.490603 -0.167476
v 0.165031 0.450119 -0.155588
v 0.206965 0.490044 -0.064238
v 0.199240 0.449582 -0.059565
v 0.243749 0.426343 0.080006
v 0.233450 0.390582 0.074425
v 0.112583 0.251320 -0.217836
v 0.112583 0.228716 -0.203157
v 0.158312 0.401202 -0.217968
v 0.155111 0.367499 -0.202885
v 0.204040 0.490463 -0.178732
v 0.197638 0.450342 -0.166285
v 0.249769 0.493617 -0.083578
v 0.240166 0.453699 -0.078067
v 0.295498 0.436150 0.050945
v 0.282694 0.401115 0.046480
v 0.128555 0.251320 -0.217836
v 0.128555 0.228716 -0.203157
v 0.178584 0.395228 -0.227989
v 0.175082 0.361969 -0.212222
v 0.228613 0.479264 -0.199261
v 0.221609 0.440032 -0.185445
v 0.278643 0.477944 -0.115102
v 0.268137 0.439359 -0.107537
v 0.328672 0.416753 0.007939
v 0.314664 0.383496 0.006212
v 0.144526 0.251320 -0.217836
v 0.144526 0.228716 -0.203157
v 0.194705 0.386192 -0.240093
v 0.191193 0.353508 -0.223441
v 0.244885 0.459538 -0.222394
v 0.237860 0.421455 -0.206809
v 0.295065 0.445874 -0.148190
v 0.284527 0.409012 -0.137972
v 0.345244 0.370684 -0.034031
v 0.331194 0.339725 -0.032219
v -0.142956 0.195027 -0.259755
v -0.142956 0.195027 -0.196868
v -0.142956 0.289357 -0.259755
v -0.142956 0.289357 -0.196868
v 0.144526 0.195027 -0.259755
v 0.144526 0.195027 -0.196868
v 0.144526 0.289357 -0.259755
v 0.144526 0.289357 -0.196868
vn -0.3366 -0.1737 -0.9255
vn 0.5163 -0.7128 -0.4747
vn -0.0103 -0.5256 -0.8507
vn -0.4985 0.7142 0.4914
vn -0.4395 0.8670 -0.2347
vn -0.8964 0.3833 -0.2223
vn -0.2787 -0.8464 -0.4539
vn -0.7053 0.4334 -0.5610
vn -0.1091 -0.9916 0.0698
vn -0.8665 -0.4310 -0.2520
vn -0.0804 0.5763 -0.8133
vn 0.1023 0.9917 -0.0785
vn -0.7055 -0.6407 0.3030
vn -0.9724 -0.0044 -0.2334
vn -0.0679 0.7799 -0.6222
vn 0.6949 0.6436 -0.3208
vn -0.1573 0.9678 -0.1967
vn -0.0399 0.9611 -0.2733
vn 0.0113 -0.2723 -0.9621
vn 0.2824 -0.7562 -0.5903
vn -0.2695 0.7554 0.5973
vn -0.1206 -0.9923 0.0271
vn 0.1214 0.9922 -0.0279
vn -0.5600 -0.6887 0.4604
vn -0.9430 0.0766 0.3238
vn 0.5547 0.6884 -0.4674
vn 0.0686 0.9961 0.0562
vn -0.0193 0.9550 -0.2961
vn 0.0060 -0.2958 -0.9552
vn 0.0991 -0.7518 -0.6519
vn -0.0915 0.7499 0.6552
vn -0.1635 -0.9860 -0.0321
vn 0.1690 0.9849 0.0368
vn -0.4271 -0.7389 0.5211
vn 0.4306 0.7386 -0.5187
vn -0.3586 0.0980 0.9283
vn -0.6825 0.1803 0.7083
vn 0.3395 0.9282 0.1524
vn -0.0041 0.9524 -0.3047
vn 0.0014 -0.3048 -0.9524
vn 0.0935 -0.7388 -0.6674
vn -0.0875 0.7375 0.6697
vn -0.0801 -0.9916 -0.1015
vn 0.0840 0.9910 0.1047
vn -0.3186 -0.7975 0.5123
vn 0.3192 0.7993 -0.5090
vn -0.3549 -0.0049 0.9349
vn 0.3048 0.9516 -0.0398
vn -0.0129 0.9495 -0.3135
vn 0.0043 -0.3136 -0.9496
vn 0.3019 -0.7431 -0.5972
vn -0.2894 0.7439 0.6024
vn 0.1561 -0.9859 -0.0598
vn -0.1545 0.9860 0.0625
vn -0.3022 -0.8202 0.4857
vn 0.2829 0.8250 -0.4893
vn 0.0857 0.9754 -0.2031
vn -0.0000 0.9479 -0.3185
vn 0.0117 -0.3395 -0.9405
vn -0.0000 -0.3187 -0.9478
vn -0.0325 0.9398 -0.3402
vn 0.4263 -0.7588 -0.4925
vn -0.4128 0.7621 0.4989
vn 0.1766 -0.9817 0.0720
vn -0.1884 0.9794 -0.0728
vn -0.3418 -0.7867 0.5141
vn -0.7439 -0.0905 0.6621
vn 0.3114 0.7918 -0.5254
vn -0.3461 0.8880 -0.3028
vn 0.0107 -0.3703 -0.9289
vn -0.0271 0.9282 -0.3710
vn 0.3046 -0.8175 -0.4887
vn -0.2950 0.8197 0.4910
vn 0.0792 -0.9921 0.0970
vn -0.0885 0.9910 -0.1002
vn -0.3019 -0.7728 0.5582
vn -0.8240 -0.0936 0.5588
vn 0.2815 0.7742 -0.5670
vn -0.2948 0.9376 -0.1844
vn -0.0002 -0.3836 -0.9235
vn 0.0005 0.9234 -0.3838
vn -0.0112 -0.8658 -0.5003
vn 0.0125 0.8656 0.5006
vn -0.0707 -0.9853 0.1555
vn 0.0735 0.9850 -0.1558
vn -0.1057 -0.7722 0.6265
vn -0.6973 0.0747 0.7129
vn 0.1095 0.7699 -0.6286
vn 0.1171 0.9888 0.0925
vn -0.3015 -0.7952 -0.5260
vn 0.2937 0.7969 0.5278
vn -0.1709 -0.9834 0.0613
vn 0.1833 0.9811 -0.0611
vn 0.1336 -0.8035 0.5801
vn -0.1073 0.8049 -0.5836
vn 0.5959 -0.0390 0.8021
vn -0.0305 0.1782 0.9835
vn 0.4501 0.8757 -0.1746
vn 0.0261 0.9288 -0.3697
vn -0.0103 -0.3692 -0.9293
vn -0.3213 -0.7598 -0.5652
vn 0.3106 0.7614 0.5690
vn -0.2011 -0.9795 -0.0139
vn 0.2073 0.9781 0.0165
vn 0.1781 -0.8272 0.5329
vn -0.1515 0.8313 -0.5348
vn 0.6762 -0.1175 0.7273
vn 0.2833 0.9339 -0.2180
vn 0.0186 0.9381 -0.3458
vn -0.0068 -0.3457 -0.9383
vn -0.1047 -0.7628 -0.6381
vn 0.0989 0.7624 0.6395
vn -0.0109 -0.9917 -0.1279
vn 0.0078 0.9915 0.1296
vn 0.2108 -0.8449 0.4917
vn -0.2066 0.8477 -0.4887
vn 0.3912 -0.1101 0.9137
vn -0.2193 0.9519 -0.2139
vn -0.0000 0.9423 -0.3347
vn 0.0012 -0.3365 -0.9417
vn -0.0000 -0.3350 -0.9422
vn -0.0035 0.9418 -0.3363
vn 0.1171 -0.7553 -0.6448
vn -0.1158 0.7550 0.6454
vn 0.2071 -0.9746 -0.0851
vn -0.2136 0.9730 0.0876
vn 0.1830 -0.8109 0.5558
vn -0.1988 0.8107 -0.5506
vn -0.2017 -0.0216 0.9792
vn 0.0048 -0.3441 -0.9389
vn -0.0135 0.9388 -0.3443
vn 0.0491 -0.7987 -0.5997
vn -0.0513 0.7979 0.6007
vn 0.1536 -0.9863 0.0597
vn -0.1615 0.9852 -0.0565
vn 0.2137 -0.7636 0.6094
vn -0.4184 0.8989 -0.1296
vn -0.2240 0.7622 -0.6073
vn -0.3738 0.9221 0.1006
vn -0.0033 -0.3481 -0.9374
vn 0.0088 0.9373 -0.3484
vn -0.2653 -0.8125 -0.5191
vn 0.2541 0.8130 0.5239
vn 0.1154 -0.9878 0.1042
vn -0.1108 0.9880 -0.1080
vn 0.4942 -0.7088 0.5033
vn 0.0320 0.0917 0.9953
vn -0.4856 0.7085 -0.5120
vn 0.6392 0.1854 0.7464
vn -0.0123 -0.3290 -0.9443
vn 0.0354 0.9433 -0.3299
vn -0.0747 -0.9923 0.0992
vn 0.0815 0.9912 -0.1040
vn 0.5622 -0.7075 0.4281
vn -0.5422 0.7120 -0.4462
vn 0.9311 0.0298 0.3634
vn 0.1344 0.9509 -0.2787
vn 0.1066 0.9942 -0.0154
vn -0.0134 -0.2918 -0.9564
vn -0.4742 -0.7362 -0.4828
vn 0.4578 0.7393 0.4939
vn 0.0441 0.9551 -0.2929
vn -0.0917 -0.9941 0.0582
vn 0.0961 0.9936 -0.0592
vn 0.5588 -0.7181 0.4148
vn -0.5385 0.7237 -0.4317
vn 0.9284 -0.0322 0.3701
vn 0.0721 0.9672 -0.2434
vn -0.0122 -0.2525 -0.9675
vn -0.4815 -0.6956 -0.5332
vn 0.4641 0.6971 0.5465
vn 0.0468 0.9662 -0.2535
vn 0.0071 -0.9988 -0.0495
vn -0.0099 0.9986 0.0524
vn 0.6179 -0.6998 0.3584
vn -0.6069 0.7048 -0.3673
vn 0.8876 0.0068 0.4606
vn -0.1649 0.9863 0.0092
vn 0.3416 -0.1571 -0.9266
vn -0.4165 -0.6660 -0.6189
vn 0.3988 0.6650 0.6315
vn 0.4452 0.8694 -0.2142
vn 0.4616 -0.7694 -0.4415
vn 0.6176 0.5433 -0.5687
vn 0.8794 -0.4477 -0.1617
vn 0.1219 0.5075 -0.8530
vn 0.9859 0.1478 0.0786
vn 0.8717 0.4841 -0.0762
vn 0.1836 -0.4608 -0.8683
vn -0.3418 -0.3634 -0.8667
vn 0.3232 0.2545 -0.9115
vn 0.0091 -0.3092 -0.9510
vn -0.4413 -0.8521 0.2813
vn -0.3093 -0.2534 0.9166
vn -0.8510 -0.4948 0.1759
vn -0.1961 -0.0319 -0.9801
vn 0.0271 0.8716 -0.4895
vn -0.0297 -0.8730 0.4868
vn -0.6458 -0.7211 -0.2510
vn -0.8421 0.4416 -0.3095
vn -0.4185 0.4964 -0.7605
vn -0.2837 -0.8277 -0.4841
vn 0.4447 -0.8867 -0.1270
vn -0.9920 0.0909 0.0881
vn -0.4598 0.8801 0.1181
vn -0.4055 -0.9135 -0.0310
vn -0.0923 -0.9084 0.4078
vn -0.7526 0.2815 0.5953
vn -0.0341 -0.9512 0.3068
vn 0.3947 0.2803 -0.8750
vn 0.0139 -0.2728 -0.9620
vn -0.3739 -0.2791 0.8845
vn 0.0066 0.8093 -0.5874
vn 0.0046 -0.8084 0.5887
vn 0.6747 -0.7364 0.0505
vn -0.6839 0.7274 -0.0566
vn 0.2548 -0.7911 0.5561
vn -0.8813 0.1024 0.4614
vn -0.0447 -0.9619 0.2697
vn 0.4434 0.3687 -0.8170
vn -0.0000 -0.2573 -0.9663
vn -0.4184 -0.3666 0.8310
vn 0.1931 -0.7657 0.6136
vn -0.1860 0.7682 -0.6126
vn 0.8152 -0.5403 0.2088
vn -0.8203 0.5319 -0.2099
vn 0.1825 -0.6715 0.7182
vn -0.9393 0.0200 0.3426
vn -0.0000 -0.9667 0.2558
vn 0.0190 -0.2193 -0.9755
vn -0.0507 -0.9752 0.2154
vn -0.2957 -0.4035 0.8659
vn 0.3123 0.4054 -0.8592
vn 0.1984 -0.7956 0.5724
vn -0.2007 0.7968 -0.5700
vn 0.6092 -0.7757 0.1650
vn -0.6166 0.7705 -0.1616
vn 0.0038 -0.7480 0.6637
vn -0.7984 0.2914 0.5269
vn 0.1074 0.3922 -0.9136
vn -0.0006 -0.1999 -0.9798
vn -0.1047 -0.3920 0.9140
vn -0.0793 -0.8649 0.4957
vn 0.0739 0.8678 -0.4915
vn 0.0344 -0.9994 0.0086
vn -0.0394 0.9992 0.0068
vn -0.2296 -0.7630 0.6042
vn -0.2457 0.5768 0.7791
vn 0.0012 -0.9801 0.1984
vn -0.0143 0.3747 -0.9270
vn -0.0022 -0.2040 -0.9790
vn 0.0080 -0.3784 0.9256
vn 0.2275 0.8411 -0.4907
vn -0.2348 -0.8397 0.4896
vn 0.3882 0.9175 0.0863
vn -0.4009 -0.9129 -0.0766
vn 0.1660 0.4215 0.8915
vn -0.4882 -0.7512 0.4444
vn 0.0053 -0.9793 0.2022
vn 0.0026 0.3609 -0.9326
vn 0.0013 -0.2050 -0.9788
vn -0.0061 -0.3662 0.9305
vn 0.1436 0.8342 -0.5324
vn -0.1500 -0.8366 0.5269
vn 0.2708 0.9560 0.1125
vn -0.2771 -0.9541 -0.1140
vn -0.3647 -0.8597 0.3575
vn -0.0187 0.3493 0.9368
vn -0.0034 -0.9792 0.2031
vn 0.1221 0.3671 -0.9221
vn -0.0000 -0.2031 -0.9792
vn -0.1135 -0.3724 0.9211
vn -0.0378 0.8276 -0.5600
vn 0.0445 -0.8309 0.5547
vn 0.3209 -0.9431 -0.0869
vn -0.3244 0.9422 0.0836
vn 0.2033 -0.8873 0.4140
vn -0.3640 0.2433 0.8991
vn -0.0000 -0.9796 0.2011
vn 0.0064 -0.1932 -0.9811
vn -0.0156 -0.9815 0.1911
vn -0.1483 -0.4063 0.9016
vn 0.1627 0.4021 -0.9010
vn 0.2670 -0.8143 0.5155
vn -0.2588 0.8154 -0.5178
vn 0.6329 -0.7738 -0.0238
vn -0.6323 0.7743 0.0246
vn 0.4479 -0.6832 0.5768
vn -0.5071 0.2412 0.8274
vn 0.0054 -0.1769 -0.9842
vn -0.0125 -0.9845 0.1752
vn -0.0680 -0.4218 0.9041
vn 0.0763 0.4199 -0.9044
vn 0.2177 -0.8273 0.5178
vn -0.2135 0.8299 -0.5154
vn 0.4305 -0.9022 0.0267
vn -0.4275 0.9038 -0.0209
vn 0.3554 -0.7295 0.5844
vn -0.3635 0.4499 0.8158
vn -0.0093 -0.1801 -0.9836
vn 0.0221 -0.9838 0.1781
vn 0.1422 -0.4467 0.8833
vn -0.1495 0.4474 -0.8817
vn -0.1081 -0.8578 0.5025
vn 0.1128 0.8605 -0.4968
vn -0.2828 -0.9562 0.0754
vn 0.2889 0.9550 -0.0677
vn 0.1479 -0.6987 0.6999
vn 0.3715 0.5571 0.7427
vn -0.3247 0.4070 -0.8538
vn -0.0102 -0.2083 -0.9780
vn 0.3038 -0.4084 0.8607
vn 0.2072 0.7783 -0.5927
vn -0.2141 -0.7755 0.5939
vn 0.7400 0.6575 -0.1419
vn -0.7357 -0.6616 0.1450
vn 0.8534 0.1395 0.5023
vn -0.3577 -0.6440 0.6763
vn 0.0262 -0.9782 0.2059
vn -0.2954 0.3627 -0.8838
vn -0.0000 -0.2272 -0.9738
vn 0.2752 -0.3646 0.8895
vn 0.1653 0.7971 -0.5807
vn -0.1765 -0.7955 0.5796
vn 0.7334 0.6764 -0.0684
vn -0.7290 -0.6813 0.0669
vn 0.7750 0.1220 0.6200
vn -0.3641 -0.6733 0.6435
vn -0.0000 -0.9743 0.2255
vn -0.0081 -0.2372 -0.9714
vn 0.0230 -0.9717 0.2349
vn 0.2242 -0.3248 0.9189
vn -0.0071 0.8445 -0.5356
vn -0.2373 0.3219 -0.9166
vn 0.0033 -0.8468 0.5319
vn 0.4309 0.8989 0.0793
vn -0.4195 -0.9037 -0.0854
vn 0.6686 0.2110 0.7131
vn -0.0871 -0.8901 0.4474
vn -0.0061 -0.2582 -0.9661
vn 0.0189 -0.9665 0.2561
vn 0.1837 -0.3029 0.9352
vn -0.1900 0.2998 -0.9349
vn 0.1332 -0.8609 0.4910
vn 0.0930 0.9806 0.1726
vn -0.1292 0.8592 -0.4950
vn -0.0775 -0.9812 -0.1769
vn 0.4851 0.3986 0.7783
vn 0.2678 -0.9190 0.2894
vn -0.0050 -0.2747 -0.9615
vn 0.0166 -0.9619 0.2730
vn 0.2596 -0.3037 0.9167
vn -0.2685 0.3046 -0.9138
vn 0.0778 -0.8918 0.4457
vn -0.0691 0.8922 -0.4463
vn -0.2442 -0.9638 -0.1067
vn 0.5855 0.4502 0.6742
vn 0.2614 0.9596 0.1043
vn 0.3167 -0.8447 0.4314
vn -0.0107 -0.2956 -0.9552
vn 0.0378 -0.9553 0.2932
vn 0.3914 -0.2800 0.8766
vn 0.0866 0.8235 -0.5607
vn -0.4098 0.2860 -0.8662
vn -0.0841 -0.8230 0.5618
vn 0.6276 0.7699 -0.1160
vn -0.6159 -0.7796 0.1133
vn 0.8886 0.2613 0.3771
vn 0.0411 -0.8151 0.5778
vn 0.3392 -0.3564 -0.8706
vn 0.4384 -0.8564 0.2727
vn 0.8787 -0.4586 0.1326
vn 0.4058 0.3806 -0.8309
vn 0.1259 -0.0454 -0.9910
vn 0.6522 -0.7452 -0.1386
vn 0.8730 0.2077 -0.4412
vn 0.0605 -0.9287 -0.3660
vn 0.9905 -0.1375 0.0086
vn 0.1437 -0.9832 0.1129
vn -1.0000 -0.0000 -0.0000
vn -0.0000 1.0000 -0.0000
vn 1.0000 -0.0000 -0.0000
vn -0.0000 -1.0000 -0.0000
vn -0.0000 -0.0000 -1.0000
vn -0.0000 -0.0000 1.0000
vn 0.2213 0.8849 -0.4098
vt 0.228571 -0.042857
vt 0.290877 -0.257852
vt 0.310769 -0.259318
vt -0.284738 -0.199842
vt -0.228571 0.000000
vt -0.305015 -0.201309
vt -0.290877 0.301962
vt -0.392967 0.242690
vt -0.310769 0.331345
vt -0.381459 -0.255101
vt -0.284738 -0.310225
vt -0.305015 -0.337551
vt -0.378580 0.183925
vt -0.475165 0.154034
vt -0.457903 -0.172652
vt -0.366302 -0.200450
vt -0.065887 -0.246118
vt -0.065379 -0.042857
vt -0.154034 -0.259318
vt 0.090203 -0.000000
vt 0.090675 -0.188109
vt 0.172652 -0.201309
vt 0.019100 0.023467
vt -0.090203 -0.000000
vt 0.203175 0.000000
vt 0.228571 0.000000
vt 0.203175 -0.042857
vt 0.259291 -0.257462
vt -0.253585 -0.199452
vt -0.203175 0.000000
vt -0.259291 0.280634
vt -0.253585 -0.290390
vt -0.340804 0.141269
vt -0.466282 0.065887
vt -0.447865 -0.090675
vt -0.329392 -0.160780
vt -0.001903 -0.242610
vt 0.052150 -0.019390
vt -0.019100 0.023467
vt 0.031170 -0.184600
vt 0.098440 0.029704
vt 0.177778 0.000000
vt 0.177778 -0.042857
vt 0.221776 -0.259365
vt -0.216918 -0.201355
vt -0.177778 0.000000
vt -0.291171 0.114633
vt -0.281456 -0.136009
vt -0.360566 -0.038050
vt -0.422318 0.001903
vt -0.345993 0.005986
vt -0.405200 -0.031170
vt 0.190733 -0.043600
vt 0.137462 -0.013153
vt -0.147982 -0.000743
vt -0.098440 0.029704
vt -0.503831 0.137462
vt -0.410530 0.147982
vt -0.481007 0.098440
vt 0.152381 -0.000000
vt 0.152381 -0.042857
vt 0.181092 -0.261921
vt -0.177304 -0.203911
vt -0.152381 -0.000000
vt -0.221776 0.267317
vt -0.235199 0.105331
vt -0.227624 -0.127358
vt -0.216918 -0.278005
vt -0.289307 -0.052003
vt -0.277944 0.018963
vt -0.360566 -0.259736
vt -0.343414 -0.084495
vt -0.429961 -0.043600
vt 0.328264 -0.041638
vt 0.345993 -0.201727
vt 0.410530 -0.000743
vt -0.328264 -0.041638
vt -0.410530 -0.000743
vt 0.126984 -0.000000
vt 0.126984 -0.042857
vt 0.144997 -0.262352
vt -0.141958 -0.204343
vt -0.126984 -0.000000
vt -0.144997 0.253566
vt -0.181092 0.262666
vt -0.141958 -0.265217
vt -0.177304 -0.273679
vt -0.188407 0.087133
vt -0.182329 -0.110433
vt -0.231817 -0.286622
vt -0.289307 -0.282740
vt 0.222700 -0.228613
vt 0.277944 -0.224731
vt -0.343414 0.209337
vt -0.263072 0.199133
vt -0.328264 0.165284
vt 0.101587 -0.000000
vt 0.076190 -0.042857
vt 0.101587 -0.042857
vt -0.076190 -0.000000
vt -0.101587 -0.000000
vt -0.113894 0.229558
vt -0.111254 -0.242889
vt -0.151597 0.039117
vt -0.231817 -0.079301
vt -0.222700 0.044350
vt -0.146318 -0.065778
vt -0.189300 -0.151325
vt -0.275226 -0.245735
vt -0.181382 0.111332
vt 0.245735 -0.091397
vt 0.288443 -0.007825
vt 0.199133 -0.048540
vt 0.076190 -0.000000
vt -0.050794 0.420000
vt -0.076190 0.420000
vt -0.050794 -0.420000
vt -0.076190 -0.420000
vt -0.079354 0.206616
vt -0.077355 -0.221553
vt -0.107915 -0.006769
vt -0.103917 -0.023105
vt -0.136476 -0.234067
vt -0.227003 -0.050682
vt -0.189300 -0.263720
vt 0.216446 -0.007825
vt 0.130478 -0.176057
vt 0.181382 -0.205710
vt 0.341767 -0.050682
vt 0.373789 0.044892
vt 0.050794 0.000000
vt -0.025397 0.420000
vt -0.025397 -0.420000
vt -0.040692 0.192563
vt -0.039621 -0.208483
vt -0.055987 -0.034875
vt -0.136476 -0.220153
vt -0.130478 0.175342
vt -0.053845 0.003034
vt -0.071282 -0.226497
vt -0.165036 0.002035
vt 0.157039 0.044892
vt 0.068070 -0.168488
vt -0.165036 0.433537
vt -0.082294 0.426067
vt -0.157039 0.373789
vt 0.025397 0.000000
vt 0.050794 -0.042857
vt 0.000000 0.205153
vt 0.000000 -0.220192
vt 0.000000 -0.009694
vt 0.000000 -0.020385
vt 0.000000 -0.224541
vt -0.071282 -0.262312
vt 0.000000 0.179423
vt -0.068070 0.214550
vt 0.000000 -0.025192
vt -0.086576 0.015491
vt -0.000000 0.017665
vt 0.082294 0.058349
vt 0.000000 0.439388
vt -0.086576 0.489749
vt -0.000000 0.000000
vt 0.025397 -0.042857
vt -0.000000 -0.042857
vt -0.037459 -0.261773
vt -0.000000 -0.258214
vt 0.036615 -0.203764
vt 0.000000 -0.200205
vt 0.049521 0.033065
vt 0.047832 -0.060150
vt 0.061583 -0.160403
vt 0.059050 0.119775
vt 0.000000 -0.249382
vt 0.073646 -0.082131
vt -0.070268 -0.039274
vt -0.000000 -0.191372
vt -0.353871 -0.082131
vt -0.379230 0.017665
vt -0.439388 -0.025192
vt -0.025397 -0.000000
vt -0.025397 -0.042857
vt -0.072736 -0.262998
vt 0.071200 -0.204988
vt 0.037459 0.226532
vt 0.094679 0.061686
vt 0.091607 -0.086768
vt 0.036615 -0.240075
vt 0.116622 -0.117471
vt 0.112014 0.079848
vt 0.138564 -0.296628
vt 0.073646 -0.353871
vt 0.132420 0.246464
vt 0.070268 0.299700
vt 0.138564 0.296628
vt 0.073646 0.353871
vt -0.050794 -0.000000
vt -0.076190 -0.042857
vt -0.050794 -0.042857
vt 0.110779 0.240010
vt 0.072736 0.240843
vt 0.108358 -0.252609
vt 0.071200 -0.253384
vt 0.145367 0.060020
vt 0.140525 -0.085219
vt 0.179956 -0.273190
vt 0.138564 -0.101724
vt 0.116622 -0.292431
vt -0.132420 -0.058867
vt -0.172692 -0.215180
vt -0.112014 -0.234422
vt 0.214544 0.299959
vt -0.101587 -0.042857
vt -0.110779 -0.260860
vt 0.108358 -0.202850
vt 0.153905 0.232019
vt 0.150243 -0.245178
vt 0.206222 0.044039
vt 0.179956 -0.119969
vt 0.172692 0.082171
vt 0.198898 -0.070356
vt 0.258540 -0.243617
vt 0.214544 -0.067518
vt -0.204860 -0.024660
vt -0.247553 -0.185607
vt 0.296209 0.027914
vt 0.204860 -0.024660
vt -0.126984 -0.042857
vt -0.153905 -0.257574
vt 0.150243 -0.199564
vt 0.193133 0.240599
vt 0.188503 -0.253157
vt 0.259282 0.061197
vt 0.258540 -0.143942
vt 0.247553 0.104466
vt 0.250021 -0.086314
vt 0.325431 -0.231718
vt 0.310858 -0.014943
vt -0.296209 0.027914
vt -0.311540 -0.173708
vt 0.391580 0.297605
vt 0.296209 0.279288
vt 0.310858 0.331922
vt -0.152381 -0.042857
vt -0.193133 -0.256252
vt 0.188503 -0.198242
vt 0.293566 0.111232
vt 0.283683 -0.132845
vt 0.364158 -0.043153
vt 0.325431 -0.118204
vt 0.349334 0.010732
vt 0.311540 0.080530
vt -0.118204 -0.231718
vt -0.197537 -0.018322
vt -0.297605 0.006211
vt 0.154309 0.024536
vt 0.080530 -0.173708
vt 0.247373 0.049068
vt -0.247373 0.049068
vt -0.177778 -0.042857
vt -0.222973 -0.257785
vt 0.218032 -0.199776
vt 0.222973 0.265616
vt 0.323395 0.160532
vt 0.313201 -0.178695
vt 0.218032 -0.276423
vt 0.396203 0.030798
vt 0.380913 -0.058042
vt -0.043153 -0.245517
vt -0.098936 -0.056570
vt 0.062611 -0.013712
vt 0.010732 -0.187508
vt -0.154309 0.024536
vt -0.203175 -0.042857
vt -0.250586 -0.260175
vt 0.245490 -0.202166
vt 0.250586 0.290266
vt 0.354717 0.204263
vt 0.344109 -0.219365
vt 0.245490 -0.299347
vt 0.430488 0.096395
vt 0.414576 -0.119047
vt 0.030798 -0.267032
vt -0.011474 -0.067948
vt -0.018729 -0.025090
vt -0.058042 -0.209022
vt -0.062611 -0.013712
vt -0.228571 -0.042857
vt -0.278946 -0.260887
vt 0.273642 -0.202877
vt 0.278946 0.312132
vt 0.392162 0.243202
vt 0.380710 -0.255578
vt 0.273642 -0.319682
vt 0.473957 0.154803
vt 0.456780 -0.173367
vt 0.154803 -0.259318
vt 0.096395 -0.273432
vt -0.173367 -0.201309
vt -0.119047 -0.215422
vt 0.555752 -0.066404
vt 0.485043 -0.018729
vt 0.506259 0.011474
vt -0.420000 -0.042857
vt -0.337551 -0.201309
vt -0.420000 0.000000
vt -0.331345 -0.259318
vt -0.255101 -0.284694
vt -0.242690 -0.348980
vt -0.172652 -0.201309
vt 0.420000 -0.042857
vt 0.337789 -0.201309
vt 0.331601 -0.259318
vt 0.255578 -0.284694
vt 0.243202 -0.348980
vt 0.173367 -0.201309
vt 0.066404 -0.042857
vt 0.228571 0.035943
vt 0.274677 0.258497
vt 0.203175 0.035943
vt -0.269671 0.205873
vt -0.302381 0.198301
vt 0.307937 0.250263
vt 0.346178 0.380755
vt -0.336168 0.318893
vt -0.376191 0.306210
vt -0.466667 -0.333280
vt -0.346178 -0.418705
vt -0.387302 -0.451048
vt -0.450000 0.316983
vt -0.336168 0.395931
vt -0.402665 0.269133
vt -0.546032 -0.151978
vt -0.417680 -0.282370
vt -0.523810 0.149031
vt -0.469162 0.082036
vt -0.149031 0.175969
vt -0.080902 0.243332
vt -0.151978 0.225157
vt 0.241195 0.266402
vt 0.177778 0.035943
vt -0.236756 0.213201
vt 0.304613 0.395910
vt -0.295734 0.332896
vt -0.304613 -0.392505
vt -0.295734 0.371505
vt -0.354713 0.231858
vt -0.489182 -0.080902
vt -0.368030 -0.242433
vt -0.413691 0.031487
vt -0.489182 0.243332
vt -0.413691 0.216885
vt -0.431448 0.271028
vt 0.216848 0.282343
vt 0.152381 0.035943
vt -0.212335 0.228138
vt -0.272289 0.365962
vt -0.242433 0.383944
vt -0.352471 0.430985
vt -0.392505 0.395910
vt 0.231858 0.321643
vt 0.334564 0.365962
vt 0.179554 0.376031
vt -0.026804 0.271028
vt -0.185491 0.441344
vt 0.031487 0.216885
vt -0.034105 0.295785
vt 0.034105 0.295785
vt 0.044974 0.353945
vt 0.126984 0.035943
vt -0.186064 0.244927
vt 0.281314 0.430985
vt 0.190511 0.300234
vt -0.245145 0.403827
vt -0.345781 -0.185491
vt -0.254039 -0.309541
vt -0.281314 -0.352471
vt -0.332243 0.179554
vt -0.245145 0.295028
vt -0.304225 0.124428
vt -0.125272 0.507879
vt 0.124428 0.439259
vt -0.102039 0.388664
vt -0.410248 0.353945
vt -0.363305 0.388664
vt -0.381093 0.451233
vt 0.154276 0.308374
vt 0.101587 0.035943
vt -0.150588 0.252523
vt 0.254039 0.471055
vt -0.199589 0.419742
vt -0.317566 -0.125272
vt -0.206965 -0.286525
vt -0.199589 0.273690
vt -0.248589 0.093125
vt -0.381093 0.119697
vt -0.259654 -0.091454
vt -0.363305 -0.102039
vt -0.297590 -0.142837
vt -0.297590 0.423387
vt -0.312343 0.488134
vt 0.112348 0.304268
vt 0.076190 0.035943
vt -0.109817 0.248554
vt 0.148506 0.475577
vt -0.143444 0.407536
vt -0.184665 -0.088093
vt -0.148506 -0.287057
vt -0.177071 0.089126
vt -0.220823 0.173874
vt -0.210698 -0.153712
vt -0.220823 0.446098
vt 0.072424 0.297304
vt 0.050794 0.035943
vt -0.070910 0.241884
vt 0.094055 0.456122
vt -0.091027 0.388670
vt -0.115686 -0.091349
vt -0.094055 -0.292816
vt -0.143444 0.273796
vt -0.111143 0.091023
vt -0.131260 -0.158360
vt -0.210698 0.381903
vt -0.137317 0.385082
vt 0.036132 0.297677
vt 0.025397 0.035943
vt -0.035381 0.242181
vt 0.046867 0.455457
vt -0.045364 0.387854
vt -0.046867 -0.287663
vt -0.045364 0.273729
vt -0.055348 0.082269
vt -0.137317 0.176711
vt -0.057602 -0.082245
vt -0.065332 -0.171866
vt -0.131260 0.322064
vt -0.068338 0.378110
vt -0.000000 0.035943
vt 0.000000 0.252659
vt -0.000000 0.308782
vt 0.000000 0.413073
vt 0.000000 -0.265569
vt 0.000000 0.253569
vt 0.000000 0.056183
vt 0.190681 0.378110
vt -0.053258 0.514871
vt -0.082245 0.468760
vt -0.171866 0.314789
vt 0.056183 0.443803
vt -0.201107 0.382288
vt 0.000000 0.382288
vt 0.000000 0.448121
vt -0.025397 0.035943
vt 0.038294 0.263972
vt -0.000000 0.481933
vt -0.039265 0.320722
vt 0.051191 0.441668
vt 0.000000 -0.053258
vt 0.053132 -0.245742
vt 0.051191 0.235673
vt 0.064088 0.035154
vt 0.000000 0.223791
vt 0.067000 -0.029333
vt 0.035154 0.495649
vt -0.221393 0.463355
vt 0.076985 0.463355
vt 0.080868 0.531695
vt -0.050794 0.035943
vt 0.077891 0.266985
vt -0.053132 0.511781
vt -0.079930 0.323884
vt 0.104987 0.449749
vt 0.109067 -0.241832
vt 0.104987 0.232224
vt 0.132084 0.031981
vt 0.080868 0.247939
vt 0.138203 -0.025469
vt 0.076985 -0.221393
vt 0.159181 -0.222956
vt 0.159181 0.487732
vt 0.167339 0.556670
vt -0.113529 0.307307
vt -0.076190 0.035943
vt 0.110915 0.251442
vt -0.150867 0.483420
vt 0.145639 0.415078
vt 0.188205 -0.083287
vt 0.150867 -0.282707
vt 0.180364 0.085018
vt 0.025469 0.584248
vt -0.177989 0.468844
vt 0.083287 0.523758
vt -0.031981 0.510851
vt 0.156898 0.404046
vt 0.222956 0.487732
vt 0.225543 0.468844
vt -0.144027 0.290864
vt -0.101587 0.035943
vt 0.141056 0.235958
vt -0.186466 0.445024
vt 0.180525 0.378597
vt 0.228906 -0.130407
vt 0.186466 -0.317699
vt 0.145639 0.269911
vt 0.219994 0.127712
vt -0.122321 0.370005
vt 0.130407 0.457895
vt -0.085018 0.453465
vt 0.107130 0.309039
vt 0.215088 0.404046
vt 0.271345 0.370005
vt -0.126984 0.035943
vt 0.172242 0.226376
vt -0.224312 0.422367
vt -0.175648 0.280645
vt 0.217499 0.357216
vt 0.272976 -0.166015
vt 0.224312 -0.342878
vt 0.180525 0.301953
vt 0.262757 0.160374
vt -0.077724 0.315820
vt 0.166015 0.420583
vt -0.127712 0.390477
vt 0.066461 0.257405
vt 0.259462 0.309039
vt 0.321640 0.315820
vt -0.152381 0.035943
vt 0.206779 0.222515
vt -0.210874 0.276397
vt 0.261178 0.352066
vt 0.327860 -0.199096
vt 0.269367 -0.363262
vt 0.217499 0.325168
vt 0.315576 0.191665
vt 0.386353 0.030276
vt 0.369975 -0.021400
vt 0.308014 -0.066461
vt 0.369975 0.257393
vt 0.386353 0.314259
vt -0.177778 0.035943
vt 0.245404 0.220688
vt -0.269367 0.416442
vt -0.250494 0.274281
vt 0.313029 0.352421
vt 0.323210 -0.381160
vt 0.313029 0.361368
vt 0.380655 0.221086
vt 0.468641 -0.015937
vt 0.395925 -0.229849
vt 0.448281 0.023036
vt 0.448281 0.274142
vt 0.468641 0.329853
vt -0.203175 0.035943
vt 0.277161 0.211894
vt -0.362285 0.398412
vt -0.282730 0.264781
vt 0.351147 0.336027
vt 0.441840 -0.279978
vt 0.362285 -0.413804
vt 0.425133 0.267949
vt 0.521395 -0.084324
vt 0.499119 0.087070
vt 0.023036 0.274142
vt 0.084324 0.299009
vt 0.015937 0.329853
vt -0.228571 0.035943
vt 0.302780 0.198439
vt -0.388159 0.367044
vt -0.308365 0.250412
vt 0.376988 0.306486
vt 0.467953 -0.332594
vt 0.388159 -0.450590
vt 0.351147 0.391836
vt 0.451196 0.316345
vt 0.279978 0.396314
vt 0.151063 0.225751
vt 0.332594 0.345316
vt -0.267949 0.334957
vt -0.148181 0.176522
vt -0.087070 0.246124
vt 0.087070 0.246124
vt -0.443342 0.035943
vt -0.452467 0.198301
vt -0.478962 0.250263
vt -0.426233 0.306210
vt -0.451048 0.366747
vt -0.333280 0.344870
vt -0.316983 0.286286
vt 0.443342 0.035943
vt 0.452254 0.198439
vt 0.420000 0.000000
vt 0.478734 0.250412
vt 0.425808 0.306486
vt 0.450590 0.367044
vt 0.316345 0.286700
vt -0.410000 -0.053571
vt -0.510000 0.096429
vt -0.510000 -0.053571
vt -0.228571 -0.410000
vt 0.228571 -0.510000
vt -0.228571 -0.510000
vt 0.410000 0.096429
vt 0.510000 -0.053571
vt 0.510000 0.096429
vt 0.228571 0.410000
vt -0.228571 0.510000
vt 0.228571 0.510000
vt -0.228571 0.096429
vt 0.228571 -0.053571
vt 0.228571 0.096429
vt 0.038050 -0.259736
vt -0.005986 -0.201727
vt -0.429961 0.190733
vt -0.275226 -0.091397
vt 0.263072 -0.048540
vt -0.275226 0.245735
vt 0.113894 -0.259807
vt -0.111254 -0.201798
vt -0.227003 -0.341767
vt -0.216446 0.288443
vt 0.433537 0.002035
vt 0.000000 0.420000
vt 0.000000 -0.420000
vt 0.000000 0.379230
vt 0.061583 -0.281410
vt -0.059050 -0.223401
vt -0.299700 -0.039274
vt 0.204860 0.249562
vt 0.391580 0.006211
vt -0.373058 0.049068
vt 0.373058 0.247373
vt 0.018729 -0.025090
vt -0.310367 -0.259318
vt 0.304641 -0.201309
vt 0.310367 0.331601
vt 0.304641 -0.337789
vt -0.091156 -0.000000
vt 0.532849 -0.091156
vt 0.091156 -0.000000
vt 0.387302 0.366747
vt -0.376191 0.426233
vt -0.082036 0.191494
vt -0.431448 -0.026804
vt -0.469162 0.191494
vt 0.371505 0.332896
vt -0.031487 0.216885
vt -0.272289 0.334564
vt 0.119697 0.451233
vt -0.392197 0.295785
vt 0.206965 0.488058
vt -0.312343 0.163849
vt -0.091027 0.278650
vt -0.068338 0.190681
vt -0.065332 0.314789
vt 0.223791 0.448121
vt 0.082269 0.399576
vt -0.109067 0.520161
vt 0.167339 0.250422
vt -0.250422 0.556670
vt -0.160374 0.355079
vt 0.308014 0.257405
vt 0.261178 0.344358
vt 0.321640 0.077724
vt -0.323210 0.416220
vt 0.376988 0.425808
vt -0.316345 0.286700
vt 0.148181 0.176522
vt -0.410000 0.096429
vt 0.228571 -0.410000
vt 0.410000 -0.053571
vt -0.228571 0.410000
vt -0.228571 -0.053571
s 1
f 1/1/1 13/2/2 3/3/3
f 14/4/4 2/5/5 4/6/6
f 13/7/2 5/8/7 3/9/3
f 6/10/8 14/11/4 4/12/6
f 15/13/9 7/14/10 5/8/7
f 8/15/11 16/16/12 6/10/8
f 17/17/13 9/18/14 7/19/10
f 10/20/15 18/21/16 8/22/11
f 9/18/14 20/23/17 10/24/15
f 12/25/18 1/1/1 2/26/5
f 11/27/19 23/28/20 13/2/2
f 24/29/21 12/30/18 14/4/4
f 23/31/20 15/13/9 13/7/2
f 16/16/12 24/32/21 14/11/4
f 25/33/22 17/34/13 15/13/9
f 18/35/16 26/36/23 16/16/12
f 27/37/24 19/38/25 17/17/13
f 20/39/17 28/40/26 18/21/16
f 19/38/25 30/41/27 20/23/17
f 22/42/28 11/27/19 12/25/18
f 21/43/29 33/44/30 23/28/20
f 34/45/31 22/46/28 24/29/21
f 23/31/20 35/47/32 25/33/22
f 36/48/33 24/32/21 26/36/23
f 25/33/22 37/49/34 27/50/24
f 38/51/35 26/36/23 28/52/26
f 27/37/24 39/53/36 29/54/37
f 40/55/38 28/40/26 30/56/27
f 29/57/37 40/58/38 30/59/27
f 32/60/39 21/43/29 22/42/28
f 31/61/40 43/62/41 33/44/30
f 44/63/42 32/64/39 34/45/31
f 33/65/30 45/66/43 35/47/32
f 46/67/44 34/68/31 36/48/33
f 35/47/32 47/69/45 37/49/34
f 48/70/46 36/48/33 38/51/35
f 37/71/34 49/72/47 39/73/36
f 50/74/48 38/75/35 40/76/38
f 39/73/36 50/77/48 40/78/38
f 42/79/49 31/61/40 32/60/39
f 41/80/50 53/81/51 43/62/41
f 54/82/52 42/83/49 44/63/42
f 53/84/51 45/66/43 43/85/41
f 46/67/44 54/86/52 44/87/42
f 55/88/53 47/69/45 45/66/43
f 48/70/46 56/89/54 46/67/44
f 57/90/55 49/72/47 47/91/45
f 50/74/48 58/92/56 48/93/46
f 49/94/47 60/95/57 50/96/48
f 52/97/58 41/80/50 42/79/49
f 61/98/59 53/81/51 51/99/60
f 54/82/52 62/100/61 52/101/58
f 63/102/62 55/88/53 53/84/51
f 56/89/54 64/103/63 54/86/52
f 65/104/64 57/105/55 55/88/53
f 58/106/56 66/107/65 56/89/54
f 67/108/66 59/109/67 57/105/55
f 60/95/57 68/110/68 58/106/56
f 59/111/67 70/112/69 60/113/57
f 62/114/61 51/99/60 52/97/58
f 71/115/70 63/102/62 61/116/59
f 64/103/63 72/117/71 62/118/61
f 73/119/72 65/104/64 63/102/62
f 66/107/65 74/120/73 64/103/63
f 75/121/74 67/108/66 65/104/64
f 68/110/68 76/122/75 66/107/65
f 77/123/76 69/124/77 67/125/66
f 70/126/69 78/127/78 68/128/68
f 69/129/77 80/130/79 70/112/69
f 72/131/71 61/98/59 62/114/61
f 81/132/80 73/119/72 71/115/70
f 74/120/73 82/133/81 72/117/71
f 83/134/82 75/121/74 73/119/72
f 76/122/75 84/135/83 74/120/73
f 85/136/84 77/137/76 75/121/74
f 78/138/78 86/139/85 76/122/75
f 87/140/86 79/141/87 77/123/76
f 80/142/79 88/143/88 78/127/78
f 79/144/87 90/145/89 80/146/79
f 82/147/81 71/148/70 72/131/71
f 81/132/80 93/149/90 83/134/82
f 94/150/91 82/133/81 84/135/83
f 83/134/82 95/151/92 85/136/84
f 96/152/93 84/135/83 86/139/85
f 85/136/84 97/153/94 87/154/86
f 98/155/95 86/139/85 88/156/88
f 87/140/86 99/157/96 89/158/97
f 100/159/98 88/143/88 90/160/89
f 99/161/96 90/145/89 89/162/97
f 92/163/99 81/164/80 82/147/81
f 91/165/100 103/166/101 93/167/90
f 104/168/102 92/163/99 94/169/91
f 93/149/90 105/170/103 95/151/92
f 106/171/104 94/150/91 96/152/93
f 95/151/92 107/172/105 97/153/94
f 108/173/106 96/152/93 98/155/95
f 97/174/94 109/175/107 99/157/96
f 110/176/108 98/177/95 100/159/98
f 109/178/107 100/179/98 99/180/96
f 102/181/109 91/165/100 92/163/99
f 101/182/110 113/183/111 103/166/101
f 114/184/112 102/147/109 104/168/102
f 103/185/101 115/186/113 105/170/103
f 116/187/114 104/188/102 106/171/104
f 105/170/103 117/189/115 107/172/105
f 118/190/116 106/171/104 108/173/106
f 107/172/105 119/191/117 109/192/107
f 120/193/118 108/173/106 110/194/108
f 119/195/117 110/194/108 109/196/107
f 112/197/119 101/182/110 102/181/109
f 121/198/120 113/183/111 111/199/121
f 114/184/112 122/114/122 112/131/119
f 123/200/123 115/186/113 113/201/111
f 116/187/114 124/202/124 114/203/112
f 125/204/125 117/189/115 115/186/113
f 118/190/116 126/205/126 116/187/114
f 127/206/127 119/207/117 117/208/115
f 120/209/118 128/210/128 118/211/116
f 129/212/129 120/193/118 119/195/117
f 122/100/122 111/199/121 112/197/119
f 131/213/130 123/214/123 121/198/120
f 124/215/124 132/97/131 122/114/122
f 133/216/132 125/204/125 123/200/123
f 126/205/126 134/217/133 124/202/124
f 135/218/134 127/219/127 125/204/125
f 128/220/128 136/221/135 126/205/126
f 137/222/136 129/223/129 127/206/127
f 130/224/137 138/225/138 128/210/128
f 129/223/129 140/226/139 130/227/137
f 132/101/131 121/198/120 122/100/122
f 141/228/140 133/229/132 131/213/130
f 134/230/133 142/79/141 132/97/131
f 143/231/142 135/218/134 133/216/132
f 136/221/135 144/232/143 134/217/133
f 145/233/144 137/234/136 135/218/134
f 138/235/138 146/236/145 136/221/135
f 147/237/146 139/238/147 137/222/136
f 140/239/139 148/240/148 138/225/138
f 149/241/149 140/242/139 139/243/147
f 142/83/141 131/213/130 132/101/131
f 151/244/150 143/245/142 141/228/140
f 144/246/143 152/60/151 142/79/141
f 143/231/142 155/247/152 145/233/144
f 156/248/153 144/232/143 146/236/145
f 145/233/144 157/249/154 147/250/146
f 158/251/155 146/236/145 148/252/148
f 147/253/146 159/254/156 149/255/149
f 160/256/157 148/257/148 150/258/158
f 159/254/156 150/259/158 149/255/149
f 152/64/151 141/228/140 142/83/141
f 161/260/159 153/261/160 151/244/150
f 154/262/161 162/42/162 152/60/151
f 153/263/160 165/264/163 155/247/152
f 166/265/164 154/266/161 156/248/153
f 155/247/152 167/267/165 157/249/154
f 168/268/166 156/248/153 158/251/155
f 157/269/154 169/270/167 159/254/156
f 170/271/168 158/272/155 160/256/157
f 169/270/167 160/273/157 159/254/156
f 162/46/162 151/244/150 152/64/151
f 171/274/169 163/275/170 161/260/159
f 164/276/171 172/25/172 162/42/162
f 163/277/170 175/278/173 165/264/163
f 176/279/174 164/280/171 166/265/164
f 165/264/163 177/281/175 167/267/165
f 178/282/176 166/265/164 168/268/166
f 167/283/165 179/284/177 169/270/167
f 180/285/178 168/286/166 170/271/168
f 179/284/177 170/287/168 169/270/167
f 172/30/172 161/260/159 162/46/162
f 181/288/179 173/289/180 171/274/169
f 174/290/181 182/26/182 172/25/172
f 173/291/180 185/292/183 175/278/173
f 186/293/184 174/294/181 176/279/174
f 175/278/173 187/295/185 177/281/175
f 188/296/186 176/279/174 178/282/176
f 187/297/185 179/284/177 177/298/175
f 180/285/178 188/299/186 178/300/176
f 189/301/187 180/302/178 179/303/177
f 182/5/182 171/274/169 172/30/172
f 1/304/1 4/305/6 2/306/5
f 3/307/3 6/308/8 4/305/6
f 7/19/10 6/308/8 5/309/7
f 9/18/14 8/310/11 7/19/10
f 181/311/179 184/312/188 183/313/189
f 183/313/189 186/314/184 185/315/183
f 186/314/184 187/297/185 185/315/183
f 188/316/186 189/317/187 187/297/185
f 191/318/190 203/319/191 201/320/192
f 192/5/193 204/321/194 194/322/195
f 193/323/196 205/324/197 203/319/191
f 194/322/195 206/325/198 196/326/199
f 197/327/200 205/328/197 195/329/201
f 198/330/202 206/331/198 208/332/203
f 199/333/204 207/334/205 197/327/200
f 200/335/206 208/332/203 210/336/207
f 200/337/206 209/338/208 199/339/204
f 191/318/190 202/25/209 192/26/193
f 201/320/192 213/340/210 211/341/211
f 202/30/209 214/342/212 204/321/194
f 203/319/191 215/343/213 213/340/210
f 204/321/194 216/344/214 206/325/198
f 207/334/205 215/345/213 205/328/197
f 208/332/203 216/346/214 218/347/215
f 209/348/208 217/349/216 207/334/205
f 210/336/207 218/347/215 220/350/217
f 209/351/208 220/352/217 219/353/218
f 201/320/192 212/42/219 202/25/209
f 211/341/211 223/354/220 221/355/221
f 212/46/219 224/356/222 214/342/212
f 215/343/213 223/354/220 213/340/210
f 216/344/214 224/356/222 226/357/223
f 217/358/216 225/359/224 215/360/213
f 218/361/215 226/362/223 228/363/225
f 219/364/218 227/365/226 217/358/216
f 220/366/217 228/363/225 230/367/227
f 219/364/218 230/368/227 229/369/228
f 211/341/211 222/60/229 212/42/219
f 223/354/220 231/370/230 221/355/221
f 224/356/222 232/83/231 234/371/232
f 225/372/224 233/373/233 223/354/220
f 226/357/223 234/371/232 236/374/234
f 227/375/226 235/376/235 225/377/224
f 228/378/225 236/379/234 238/380/236
f 229/369/228 237/381/237 227/365/226
f 230/367/227 238/382/236 240/383/238
f 229/384/228 240/385/238 239/386/239
f 221/355/221 232/79/231 222/60/229
f 231/370/230 243/387/240 241/388/241
f 232/83/231 244/389/242 234/371/232
f 235/390/235 243/387/240 233/373/233
f 236/374/234 244/389/242 246/391/243
f 237/392/237 245/393/244 235/376/235
f 238/380/236 246/394/243 248/395/245
f 239/396/239 247/397/246 237/392/237
f 240/398/238 248/395/245 250/399/247
f 239/386/239 250/400/247 249/401/248
f 231/370/230 242/97/249 232/79/231
f 241/388/241 253/402/250 251/403/251
f 242/101/249 254/404/252 244/389/242
f 243/387/240 255/405/253 253/402/250
f 244/389/242 256/406/254 246/391/243
f 245/393/244 257/407/255 255/408/253
f 246/394/243 258/409/256 248/395/245
f 247/397/246 259/410/257 257/407/255
f 250/399/247 258/409/256 260/411/258
f 250/400/247 259/412/257 249/401/248
f 241/388/241 252/114/259 242/97/249
f 251/403/251 263/413/260 261/414/261
f 252/100/259 264/415/262 254/404/252
f 253/402/250 265/416/263 263/413/260
f 254/404/252 266/417/264 256/406/254
f 255/408/253 267/418/265 265/419/263
f 256/420/254 268/421/266 258/409/256
f 259/410/257 267/418/265 257/407/255
f 260/411/258 268/421/266 270/422/267
f 260/423/258 269/424/268 259/412/257
f 251/403/251 262/131/269 252/114/259
f 261/414/261 273/425/270 271/426/271
f 262/197/269 274/427/272 264/415/262
f 263/413/260 275/428/273 273/425/270
f 264/415/262 276/429/274 266/417/264
f 267/418/265 275/430/273 265/419/263
f 268/421/266 276/431/274 278/432/275
f 269/433/268 277/434/276 267/418/265
f 270/422/267 278/432/275 280/435/277
f 270/436/267 279/437/278 269/424/268
f 261/414/261 272/147/279 262/131/269
f 273/425/270 281/438/280 271/426/271
f 274/427/272 282/163/281 284/439/282
f 275/428/273 283/440/283 273/425/270
f 276/429/274 284/439/282 286/441/284
f 277/434/276 285/442/285 275/430/273
f 278/432/275 286/443/284 288/444/286
f 279/445/278 287/446/287 277/447/276
f 280/448/277 288/449/286 290/450/288
f 279/437/278 290/451/288 289/452/289
f 271/426/271 282/163/281 272/147/279
f 283/440/283 291/453/290 281/438/280
f 284/439/282 292/147/291 294/454/292
f 285/455/285 293/456/293 283/440/283
f 286/441/284 294/454/292 296/457/294
f 287/458/287 295/459/295 285/442/285
f 288/444/286 296/460/294 298/461/296
f 289/462/289 297/463/297 287/458/287
f 290/450/288 298/464/296 300/465/298
f 289/452/289 300/466/298 299/467/299
f 281/438/280 292/181/291 282/163/281
f 293/456/293 301/468/300 291/453/290
f 294/454/292 302/131/301 304/469/302
f 295/470/295 303/471/303 293/456/293
f 296/457/294 304/469/302 306/472/304
f 297/463/297 305/473/305 295/459/295
f 298/461/296 306/474/304 308/475/306
f 299/476/299 307/477/307 297/463/297
f 300/478/298 308/475/306 310/479/308
f 299/467/299 310/480/308 309/481/309
f 291/453/290 302/197/301 292/181/291
f 301/468/300 313/482/310 311/483/311
f 302/131/301 314/484/312 304/469/302
f 303/471/303 315/485/313 313/482/310
f 304/469/302 316/486/314 306/472/304
f 305/473/305 317/487/315 315/488/313
f 306/474/304 318/489/316 308/475/306
f 307/490/307 319/491/317 317/492/315
f 308/493/306 320/494/318 310/495/308
f 310/480/308 319/496/317 309/481/309
f 301/468/300 312/100/319 302/197/301
f 311/483/311 323/497/320 321/498/321
f 312/114/319 324/499/322 314/484/312
f 313/482/310 325/500/323 323/497/320
f 314/484/312 326/501/324 316/486/314
f 315/488/313 327/502/325 325/503/323
f 316/504/314 328/505/326 318/489/316
f 317/492/315 329/506/327 327/507/325
f 318/508/316 330/509/328 320/494/318
f 320/510/318 329/511/327 319/496/317
f 311/483/311 322/101/329 312/100/319
f 323/497/320 331/512/330 321/498/321
f 324/499/322 332/79/331 334/513/332
f 323/497/320 335/514/333 333/515/334
f 324/499/322 336/516/335 326/501/324
f 325/503/323 337/517/336 335/518/333
f 326/519/324 338/520/337 328/505/326
f 327/507/325 339/521/338 337/522/336
f 328/523/326 340/524/339 330/509/328
f 330/525/328 339/526/338 329/511/327
f 321/498/321 332/83/331 322/101/329
f 333/515/334 341/527/340 331/512/330
f 334/513/332 342/60/341 344/528/342
f 335/514/333 343/529/343 333/515/334
f 336/516/335 344/528/342 346/530/344
f 335/518/333 347/531/345 345/532/346
f 336/533/335 348/534/347 338/520/337
f 337/517/336 349/535/348 347/531/345
f 338/520/337 350/536/349 340/537/339
f 339/526/338 350/538/349 349/539/348
f 331/512/330 342/64/341 332/83/331
f 343/529/343 351/540/350 341/527/340
f 344/528/342 352/42/351 354/541/352
f 345/542/346 353/543/353 343/529/343
f 346/530/344 354/541/352 356/544/354
f 347/531/345 355/545/355 345/532/346
f 348/534/347 356/546/354 358/547/356
f 347/531/345 359/548/357 357/549/358
f 348/534/347 360/550/359 350/536/349
f 349/539/348 360/551/359 359/552/357
f 341/527/340 352/46/351 342/64/341
f 353/543/353 361/553/360 351/540/350
f 354/541/352 362/25/361 364/554/362
f 353/543/353 365/555/363 363/556/364
f 354/541/352 366/557/365 356/544/354
f 355/545/355 367/558/366 365/559/363
f 356/546/354 368/560/367 358/547/356
f 357/549/358 369/561/368 367/558/366
f 358/547/356 370/562/369 360/550/359
f 360/563/359 369/564/368 359/565/357
f 351/540/350 362/30/361 352/46/351
f 363/556/364 371/566/370 361/553/360
f 364/554/362 372/26/371 374/567/372
f 363/556/364 375/568/373 373/569/374
f 364/554/362 376/570/375 366/557/365
f 365/559/363 377/571/376 375/572/373
f 366/573/365 378/574/377 368/560/367
f 367/575/366 379/576/378 377/577/376
f 368/578/367 380/579/379 370/580/369
f 370/581/369 379/576/378 369/564/368
f 361/553/360 372/5/371 362/30/361
f 191/582/190 194/583/195 193/584/196
f 193/584/196 196/585/199 195/586/201
f 196/585/199 197/587/200 195/586/201
f 198/588/202 199/339/204 197/587/200
f 371/589/370 374/590/372 372/591/371
f 373/592/374 376/593/375 374/590/372
f 377/577/376 376/593/375 375/594/373
f 379/576/378 378/595/377 377/577/376
s 0
f 382/596/380 383/597/380 381/598/380
f 384/599/381 387/600/381 383/601/381
f 388/602/382 385/603/382 387/604/382
f 386/605/383 381/606/383 385/607/383
f 387/608/384 381/609/384 383/610/384
f 384/608/385 386/609/385 388/610/385
s 1
f 1/1/1 11/27/19 13/2/2
f 14/4/4 12/30/18 2/5/5
f 13/7/2 15/13/9 5/8/7
f 6/10/8 16/16/12 14/11/4
f 15/13/9 17/34/13 7/14/10
f 8/15/11 18/35/16 16/16/12
f 17/17/13 19/38/25 9/18/14
f 10/20/15 20/39/17 18/21/16
f 9/18/14 19/38/25 20/23/17
f 12/25/18 11/27/19 1/1/1
f 11/27/19 21/43/29 23/28/20
f 24/29/21 22/46/28 12/30/18
f 23/31/20 25/33/22 15/13/9
f 16/16/12 26/36/23 24/32/21
f 25/33/22 27/50/24 17/34/13
f 18/35/16 28/52/26 26/36/23
f 27/37/24 29/54/37 19/38/25
f 20/39/17 30/56/27 28/40/26
f 19/38/25 29/54/37 30/41/27
f 22/42/28 21/43/29 11/27/19
f 21/43/29 31/61/40 33/44/30
f 34/45/31 32/64/39 22/46/28
f 23/31/20 33/65/30 35/47/32
f 36/48/33 34/68/31 24/32/21
f 25/33/22 35/47/32 37/49/34
f 38/51/35 36/48/33 26/36/23
f 27/37/24 37/611/34 39/53/36
f 40/55/38 38/612/35 28/40/26
f 29/57/37 39/613/36 40/58/38
f 32/60/39 31/61/40 21/43/29
f 31/61/40 41/80/50 43/62/41
f 44/63/42 42/83/49 32/64/39
f 33/65/30 43/85/41 45/66/43
f 46/67/44 44/87/42 34/68/31
f 35/47/32 45/66/43 47/69/45
f 48/70/46 46/67/44 36/48/33
f 37/71/34 47/91/45 49/72/47
f 50/74/48 48/93/46 38/75/35
f 39/73/36 49/72/47 50/77/48
f 42/79/49 41/80/50 31/61/40
f 41/80/50 51/99/60 53/81/51
f 54/82/52 52/101/58 42/83/49
f 53/84/51 55/88/53 45/66/43
f 46/67/44 56/89/54 54/86/52
f 55/88/53 57/105/55 47/69/45
f 48/70/46 58/106/56 56/89/54
f 57/90/55 59/614/67 49/72/47
f 50/74/48 60/615/57 58/92/56
f 49/94/47 59/616/67 60/95/57
f 52/97/58 51/99/60 41/80/50
f 61/98/59 63/617/62 53/81/51
f 54/82/52 64/618/63 62/100/61
f 63/102/62 65/104/64 55/88/53
f 56/89/54 66/107/65 64/103/63
f 65/104/64 67/108/66 57/105/55
f 58/106/56 68/110/68 66/107/65
f 67/108/66 69/619/77 59/109/67
f 60/95/57 70/620/69 68/110/68
f 59/111/67 69/129/77 70/112/69
f 62/114/61 61/98/59 51/99/60
f 71/115/70 73/119/72 63/102/62
f 64/103/63 74/120/73 72/117/71
f 73/119/72 75/121/74 65/104/64
f 66/107/65 76/122/75 74/120/73
f 75/121/74 77/137/76 67/108/66
f 68/110/68 78/138/78 76/122/75
f 77/123/76 79/141/87 69/124/77
f 70/126/69 80/142/79 78/127/78
f 69/129/77 79/621/87 80/130/79
f 72/131/71 71/148/70 61/98/59
f 81/132/80 83/134/82 73/119/72
f 74/120/73 84/135/83 82/133/81
f 83/134/82 85/136/84 75/121/74
f 76/122/75 86/139/85 84/135/83
f 85/136/84 87/154/86 77/137/76
f 78/138/78 88/156/88 86/139/85
f 87/140/86 89/158/97 79/141/87
f 80/142/79 90/160/89 88/143/88
f 79/144/87 89/162/97 90/145/89
f 82/147/81 81/164/80 71/148/70
f 81/132/80 91/622/100 93/149/90
f 94/150/91 92/623/99 82/133/81
f 83/134/82 93/149/90 95/151/92
f 96/152/93 94/150/91 84/135/83
f 85/136/84 95/151/92 97/153/94
f 98/155/95 96/152/93 86/139/85
f 87/140/86 97/174/94 99/157/96
f 100/159/98 98/177/95 88/143/88
f 99/161/96 100/624/98 90/145/89
f 92/163/99 91/165/100 81/164/80
f 91/165/100 101/182/110 103/166/101
f 104/168/102 102/147/109 92/163/99
f 93/149/90 103/185/101 105/170/103
f 106/171/104 104/188/102 94/150/91
f 95/151/92 105/170/103 107/172/105
f 108/173/106 106/171/104 96/152/93
f 97/174/94 107/625/105 109/175/107
f 110/176/108 108/626/106 98/177/95
f 109/178/107 110/627/108 100/179/98
f 102/181/109 101/182/110 91/165/100
f 101/182/110 111/199/121 113/183/111
f 114/184/112 112/131/119 102/147/109
f 103/185/101 113/201/111 115/186/113
f 116/187/114 114/203/112 104/188/102
f 105/170/103 115/186/113 117/189/115
f 118/190/116 116/187/114 106/171/104
f 107/172/105 117/189/115 119/191/117
f 120/193/118 118/190/116 108/173/106
f 119/195/117 120/193/118 110/194/108
f 112/197/119 111/199/121 101/182/110
f 121/198/120 123/214/123 113/183/111
f 114/184/112 124/215/124 122/114/122
f 123/200/123 125/204/125 115/186/113
f 116/187/114 126/205/126 124/202/124
f 125/204/125 127/219/127 117/189/115
f 118/190/116 128/220/128 126/205/126
f 127/206/127 129/223/129 119/207/117
f 120/209/118 130/224/137 128/210/128
f 129/212/129 130/628/137 120/193/118
f 122/100/122 121/198/120 111/199/121
f 131/213/130 133/229/132 123/214/123
f 124/215/124 134/230/133 132/97/131
f 133/216/132 135/218/134 125/204/125
f 126/205/126 136/221/135 134/217/133
f 135/218/134 137/234/136 127/219/127
f 128/220/128 138/235/138 136/221/135
f 137/222/136 139/238/147 129/223/129
f 130/224/137 140/239/139 138/225/138
f 129/223/129 139/238/147 140/226/139
f 132/101/131 131/213/130 121/198/120
f 141/228/140 143/245/142 133/229/132
f 134/230/133 144/246/143 142/79/141
f 143/231/142 145/233/144 135/218/134
f 136/221/135 146/236/145 144/232/143
f 145/233/144 147/250/146 137/234/136
f 138/235/138 148/252/148 146/236/145
f 147/237/146 149/629/149 139/238/147
f 140/239/139 150/630/158 148/240/148
f 149/241/149 150/631/158 140/242/139
f 142/83/141 141/228/140 131/213/130
f 151/244/150 153/261/160 143/245/142
f 144/246/143 154/262/161 152/60/151
f 143/231/142 153/263/160 155/247/152
f 156/248/153 154/266/161 144/232/143
f 145/233/144 155/247/152 157/249/154
f 158/251/155 156/248/153 146/236/145
f 147/253/146 157/269/154 159/254/156
f 160/256/157 158/272/155 148/257/148
f 159/254/156 160/273/157 150/259/158
f 152/64/151 151/244/150 141/228/140
f 161/260/159 163/275/170 153/261/160
f 154/262/161 164/276/171 162/42/162
f 153/263/160 163/277/170 165/264/163
f 166/265/164 164/280/171 154/266/161
f 155/247/152 165/264/163 167/267/165
f 168/268/166 166/265/164 156/248/153
f 157/269/154 167/283/165 169/270/167
f 170/271/168 168/286/166 158/272/155
f 169/270/167 170/287/168 160/273/157
f 162/46/162 161/260/159 151/244/150
f 171/274/169 173/289/180 163/275/170
f 164/276/171 174/290/181 172/25/172
f 163/277/170 173/291/180 175/278/173
f 176/279/174 174/294/181 164/280/171
f 165/264/163 175/278/173 177/281/175
f 178/282/176 176/279/174 166/265/164
f 167/283/165 177/298/175 179/284/177
f 180/285/178 178/300/176 168/286/166
f 179/284/177 180/632/178 170/287/168
f 172/30/172 171/274/169 161/260/159
f 181/288/179 183/633/189 173/289/180
f 174/290/181 184/634/188 182/26/182
f 173/291/180 183/635/189 185/292/183
f 186/293/184 184/636/188 174/294/181
f 175/278/173 185/292/183 187/295/185
f 188/296/186 186/293/184 176/279/174
f 187/297/185 189/317/187 179/284/177
f 180/285/178 190/637/386 188/299/186
f 189/301/187 190/638/386 180/302/178
f 182/5/182 181/288/179 171/274/169
f 1/304/1 3/307/3 4/305/6
f 3/307/3 5/309/7 6/308/8
f 7/19/10 8/310/11 6/308/8
f 9/18/14 10/24/15 8/310/11
f 181/311/179 182/591/182 184/312/188
f 183/313/189 184/312/188 186/314/184
f 186/314/184 188/316/186 187/297/185
f 188/316/186 190/639/386 189/317/187
f 191/318/190 193/323/196 203/319/191
f 192/5/193 202/30/209 204/321/194
f 193/323/196 195/640/201 205/324/197
f 194/322/195 204/321/194 206/325/198
f 197/327/200 207/334/205 205/328/197
f 198/330/202 196/641/199 206/331/198
f 199/333/204 209/348/208 207/334/205
f 200/335/206 198/330/202 208/332/203
f 200/337/206 210/642/207 209/338/208
f 191/318/190 201/320/192 202/25/209
f 201/320/192 203/319/191 213/340/210
f 202/30/209 212/46/219 214/342/212
f 203/319/191 205/324/197 215/343/213
f 204/321/194 214/342/212 216/344/214
f 207/334/205 217/349/216 215/345/213
f 208/332/203 206/331/198 216/346/214
f 209/348/208 219/643/218 217/349/216
f 210/336/207 208/332/203 218/347/215
f 209/351/208 210/644/207 220/352/217
f 201/320/192 211/341/211 212/42/219
f 211/341/211 213/340/210 223/354/220
f 212/46/219 222/64/229 224/356/222
f 215/343/213 225/372/224 223/354/220
f 216/344/214 214/342/212 224/356/222
f 217/358/216 227/365/226 225/359/224
f 218/361/215 216/645/214 226/362/223
f 219/364/218 229/369/228 227/365/226
f 220/366/217 218/361/215 228/363/225
f 219/364/218 220/646/217 230/368/227
f 211/341/211 221/355/221 222/60/229
f 223/354/220 233/373/233 231/370/230
f 224/356/222 222/64/229 232/83/231
f 225/372/224 235/390/235 233/373/233
f 226/357/223 224/356/222 234/371/232
f 227/375/226 237/392/237 235/376/235
f 228/378/225 226/647/223 236/379/234
f 229/369/228 239/648/239 237/381/237
f 230/367/227 228/363/225 238/382/236
f 229/384/228 230/649/227 240/385/238
f 221/355/221 231/370/230 232/79/231
f 231/370/230 233/373/233 243/387/240
f 232/83/231 242/101/249 244/389/242
f 235/390/235 245/650/244 243/387/240
f 236/374/234 234/371/232 244/389/242
f 237/392/237 247/397/246 245/393/244
f 238/380/236 236/379/234 246/394/243
f 239/396/239 249/651/248 247/397/246
f 240/398/238 238/380/236 248/395/245
f 239/386/239 240/385/238 250/400/247
f 231/370/230 241/388/241 242/97/249
f 241/388/241 243/387/240 253/402/250
f 242/101/249 252/100/259 254/404/252
f 243/387/240 245/650/244 255/405/253
f 244/389/242 254/404/252 256/406/254
f 245/393/244 247/397/246 257/407/255
f 246/394/243 256/420/254 258/409/256
f 247/397/246 249/651/248 259/410/257
f 250/399/247 248/395/245 258/409/256
f 250/400/247 260/423/258 259/412/257
f 241/388/241 251/403/251 252/114/259
f 251/403/251 253/402/250 263/413/260
f 252/100/259 262/197/269 264/415/262
f 253/402/250 255/405/253 265/416/263
f 254/404/252 264/415/262 266/417/264
f 255/408/253 257/407/255 267/418/265
f 256/420/254 266/652/264 268/421/266
f 259/410/257 269/433/268 267/418/265
f 260/411/258 258/409/256 268/421/266
f 260/423/258 270/436/267 269/424/268
f 251/403/251 261/414/261 262/131/269
f 261/414/261 263/413/260 273/425/270
f 262/197/269 272/181/279 274/427/272
f 263/413/260 265/416/263 275/428/273
f 264/415/262 274/427/272 276/429/274
f 267/418/265 277/434/276 275/430/273
f 268/421/266 266/652/264 276/431/274
f 269/433/268 279/653/278 277/434/276
f 270/422/267 268/421/266 278/432/275
f 270/436/267 280/654/277 279/437/278
f 261/414/261 271/426/271 272/147/279
f 273/425/270 283/440/283 281/438/280
f 274/427/272 272/181/279 282/163/281
f 275/428/273 285/455/285 283/440/283
f 276/429/274 274/427/272 284/439/282
f 277/434/276 287/458/287 285/442/285
f 278/432/275 276/431/274 286/443/284
f 279/445/278 289/655/289 287/446/287
f 280/448/277 278/656/275 288/449/286
f 279/437/278 280/654/277 290/451/288
f 271/426/271 281/438/280 282/163/281
f 283/440/283 293/456/293 291/453/290
f 284/439/282 282/163/281 292/147/291
f 285/455/285 295/470/295 293/456/293
f 286/441/284 284/439/282 294/454/292
f 287/458/287 297/463/297 295/459/295
f 288/444/286 286/443/284 296/460/294
f 289/462/289 299/476/299 297/463/297
f 290/450/288 288/449/286 298/464/296
f 289/452/289 290/451/288 300/466/298
f 281/438/280 291/453/290 292/181/291
f 293/456/293 303/471/303 301/468/300
f 294/454/292 292/147/291 302/131/301
f 295/470/295 305/657/305 303/471/303
f 296/457/294 294/454/292 304/469/302
f 297/463/297 307/477/307 305/473/305
f 298/461/296 296/460/294 306/474/304
f 299/476/299 309/658/309 307/477/307
f 300/478/298 298/461/296 308/475/306
f 299/467/299 300/466/298 310/480/308
f 291/453/290 301/468/300 302/197/301
f 301/468/300 303/471/303 313/482/310
f 302/131/301 312/114/319 314/484/312
f 303/471/303 305/657/305 315/485/313
f 304/469/302 314/484/312 316/486/314
f 305/473/305 307/477/307 317/487/315
f 306/474/304 316/504/314 318/489/316
f 307/490/307 309/659/309 319/491/317
f 308/493/306 318/508/316 320/494/318
f 310/480/308 320/510/318 319/496/317
f 301/468/300 311/483/311 312/100/319
f 311/483/311 313/482/310 323/497/320
f 312/114/319 322/97/329 324/499/322
f 313/482/310 315/485/313 325/500/323
f 314/484/312 324/499/322 326/501/324
f 315/488/313 317/487/315 327/502/325
f 316/504/314 326/519/324 328/505/326
f 317/492/315 319/491/317 329/506/327
f 318/508/316 328/523/326 330/509/328
f 320/510/318 330/525/328 329/511/327
f 311/483/311 321/498/321 322/101/329
f 323/497/320 333/515/334 331/512/330
f 324/499/322 322/97/329 332/79/331
f 323/497/320 325/500/323 335/514/333
f 324/499/322 334/513/332 336/516/335
f 325/503/323 327/502/325 337/517/336
f 326/519/324 336/533/335 338/520/337
f 327/507/325 329/506/327 339/521/338
f 328/523/326 338/660/337 340/524/339
f 330/525/328 340/661/339 339/526/338
f 321/498/321 331/512/330 332/83/331
f 333/515/334 343/529/343 341/527/340
f 334/513/332 332/79/331 342/60/341
f 335/514/333 345/542/346 343/529/343
f 336/516/335 334/513/332 344/528/342
f 335/518/333 337/517/336 347/531/345
f 336/533/335 346/662/344 348/534/347
f 337/517/336 339/663/338 349/535/348
f 338/520/337 348/534/347 350/536/349
f 339/526/338 340/661/339 350/538/349
f 331/512/330 341/527/340 342/64/341
f 343/529/343 353/543/353 351/540/350
f 344/528/342 342/60/341 352/42/351
f 345/542/346 355/664/355 353/543/353
f 346/530/344 344/528/342 354/541/352
f 347/531/345 357/549/358 355/545/355
f 348/534/347 346/662/344 356/546/354
f 347/531/345 349/535/348 359/548/357
f 348/534/347 358/547/356 360/550/359
f 349/539/348 350/538/349 360/551/359
f 341/527/340 351/540/350 352/46/351
f 353/543/353 363/556/364 361/553/360
f 354/541/352 352/42/351 362/25/361
f 353/543/353 355/664/355 365/555/363
f 354/541/352 364/554/362 366/557/365
f 355/545/355 357/549/358 367/558/366
f 356/546/354 366/573/365 368/560/367
f 357/549/358 359/548/357 369/561/368
f 358/547/356 368/560/367 370/562/369
f 360/563/359 370/581/369 369/564/368
f 351/540/350 361/553/360 362/30/361
f 363/556/364 373/569/374 371/566/370
f 364/554/362 362/25/361 372/26/371
f 363/556/364 365/555/363 375/568/373
f 364/554/362 374/567/372 376/570/375
f 365/559/363 367/558/366 377/571/376
f 366/573/365 376/665/375 378/574/377
f 367/575/366 369/564/368 379/576/378
f 368/578/367 378/666/377 380/579/379
f 370/581/369 380/667/379 379/576/378
f 361/553/360 371/566/370 372/5/371
f 191/582/190 192/306/193 194/583/195
f 193/584/196 194/583/195 196/585/199
f 196/585/199 198/588/202 197/587/200
f 198/588/202 200/337/206 199/339/204
f 371/589/370 373/592/374 374/590/372
f 373/592/374 375/594/373 376/593/375
f 377/577/376 378/595/377 376/593/375
f 379/576/378 380/667/379 378/595/377
s 0
f 382/596/380 384/668/380 383/597/380
f 384/599/381 388/669/381 387/600/381
f 388/602/382 386/670/382 385/603/382
f 386/605/383 382/671/383 381/606/383
f 387/608/384 385/672/384 381/609/384
f 384/608/385 382/672/385 386/609/385
o pearl
usemtl pearl
v -0.007241 0.113692 -0.033350
v 0.050337 0.071860 0.010636
v -0.029233 0.046005 0.010635
v -0.078411 0.113692 0.010636
v -0.029233 0.181379 0.010635
v 0.050337 0.155524 0.010636
v 0.014751 0.046005 0.081807
v -0.064819 0.071860 0.081807
v -0.064819 0.155524 0.081807
v 0.014751 0.181379 0.081807
v 0.063929 0.113692 0.081806
v -0.007241 0.113692 0.125792
v -0.025767 0.056674 -0.006098
v -0.020168 0.073907 -0.021466
v -0.013416 0.094686 -0.030799
v 0.008926 0.101946 -0.030799
v 0.026602 0.089104 -0.021466
v 0.041261 0.078453 -0.006098
v 0.035086 0.059447 0.006253
v 0.013676 0.049318 0.004388
v -0.009599 0.044928 0.006253
v 0.057429 0.137184 0.006253
v 0.060446 0.113692 0.004388
v 0.057429 0.090200 0.006253
v 0.008926 0.125438 -0.030799
v 0.026602 0.138280 -0.021466
v 0.041261 0.148930 -0.006098
v -0.067193 0.113692 -0.006098
v -0.049074 0.113692 -0.021466
v -0.027225 0.113692 -0.030799
v -0.045751 0.056674 0.006253
v -0.062001 0.073907 0.004388
v -0.073368 0.094686 0.006253
v -0.025767 0.170709 -0.006098
v -0.020168 0.153477 -0.021466
v -0.013416 0.132698 -0.030799
v -0.073368 0.132698 0.006253
v -0.062001 0.153477 0.004388
v -0.045751 0.170710 0.006253
v -0.009599 0.182456 0.006253
v 0.013676 0.178066 0.004388
v 0.035086 0.167936 0.006253
v 0.068878 0.101946 0.066205
v 0.068435 0.089104 0.046221
v 0.061245 0.078453 0.026237
v 0.061245 0.148930 0.026237
v 0.068435 0.138280 0.046221
v 0.068878 0.125438 0.066205
v 0.005110 0.037668 0.066205
v -0.007241 0.034121 0.046221
v -0.019592 0.037668 0.026237
v 0.047437 0.059447 0.026237
v 0.039530 0.049318 0.046221
v 0.027452 0.044928 0.066206
v -0.075727 0.078453 0.066205
v -0.082917 0.089104 0.046221
v -0.083360 0.101946 0.026237
v -0.041934 0.044928 0.026237
v -0.054012 0.049318 0.046221
v -0.061919 0.059447 0.066206
v -0.061919 0.167937 0.066206
v -0.054012 0.178066 0.046221
v -0.041934 0.182456 0.026237
v -0.083360 0.125438 0.026237
v -0.082917 0.138280 0.046221
v -0.075727 0.148930 0.066205
v 0.027452 0.182456 0.066206
v 0.039530 0.178066 0.046221
v 0.047437 0.167937 0.026237
v -0.019592 0.189716 0.026237
v -0.007241 0.193263 0.046221
v 0.005110 0.189716 0.066205
v 0.058886 0.094686 0.086189
v 0.047519 0.073907 0.088054
v 0.031269 0.056674 0.086190
v -0.004883 0.044928 0.086190
v -0.028158 0.049318 0.088055
v -0.049568 0.059447 0.086190
v -0.071911 0.090200 0.086190
v -0.074928 0.113692 0.088054
v -0.071911 0.137184 0.086190
v -0.049568 0.167936 0.086190
v -0.028158 0.178066 0.088055
v -0.004883 0.182456 0.086190
v 0.031269 0.170710 0.086190
v 0.047519 0.153477 0.088054
v 0.058886 0.132698 0.086189
v -0.001066 0.094686 0.123242
v 0.005686 0.073907 0.113908
v 0.011285 0.056674 0.098540
v 0.052711 0.113692 0.098540
v 0.034592 0.113692 0.113908
v 0.012743 0.113692 0.123242
v -0.023408 0.101946 0.123242
v -0.041084 0.089104 0.113908
v -0.055743 0.078453 0.098540
v -0.023408 0.125438 0.123242
v -0.041084 0.138280 0.113908
v -0.055743 0.148930 0.098540
v -0.001066 0.132698 0.123242
v 0.005686 0.153477 0.113908
v 0.011285 0.170709 0.098540
v 0.021548 0.134608 0.117392
v 0.043541 0.134608 0.103799
v 0.028344 0.155525 0.103799
v -0.018237 0.147535 0.117392
v -0.011442 0.168451 0.103800
v -0.036030 0.160462 0.103800
v -0.042826 0.113692 0.117392
v -0.060618 0.126619 0.103799
v -0.060618 0.100765 0.103799
v -0.018237 0.079849 0.117392
v -0.036030 0.066922 0.103800
v -0.011442 0.058932 0.103800
v 0.021548 0.092776 0.117392
v 0.028344 0.071859 0.103799
v 0.043541 0.092776 0.103799
v 0.061333 0.147535 0.068214
v 0.057133 0.160462 0.046221
v 0.046137 0.168452 0.068214
v -0.018238 0.189368 0.068214
v -0.031830 0.189368 0.046221
v -0.042826 0.181379 0.068214
v -0.082612 0.126619 0.068214
v -0.086812 0.113692 0.046221
v -0.082612 0.100765 0.068214
v -0.042826 0.046005 0.068214
v -0.031830 0.038016 0.046221
v -0.018238 0.038016 0.068214
v 0.046137 0.058932 0.068214
v 0.057133 0.066922 0.046221
v 0.061333 0.079849 0.068214
v 0.017348 0.189368 0.046221
v 0.028344 0.181379 0.024228
v 0.003756 0.189368 0.024228
v -0.071615 0.160462 0.046221
v -0.060619 0.168452 0.024228
v -0.075815 0.147535 0.024228
v -0.071615 0.066922 0.046221
v -0.075815 0.079849 0.024228
v -0.060619 0.058932 0.024228
v 0.017348 0.038016 0.046221
v 0.003756 0.038016 0.024228
v 0.028344 0.046005 0.024228
v 0.072330 0.113692 0.046221
v 0.068130 0.100765 0.024228
v 0.068130 0.126619 0.024228
v 0.021548 0.160462 -0.011357
v 0.003755 0.147535 -0.024949
v -0.003041 0.168451 -0.011357
v -0.042826 0.155524 -0.011357
v -0.036030 0.134608 -0.024949
v -0.058023 0.134608 -0.011357
v -0.058023 0.092776 -0.011357
v -0.036030 0.092776 -0.024949
v -0.042826 0.071859 -0.011357
v 0.046136 0.126619 -0.011357
v 0.046136 0.100765 -0.011357
v 0.028344 0.113692 -0.024949
v -0.003040 0.058932 -0.011357
v 0.003756 0.079849 -0.024949
v 0.021548 0.066922 -0.011357
vn -0.0000 -0.0000 -1.0000
vn 0.7236 -0.5257 -0.4472
vn -0.2764 -0.8506 -0.4472
vn -0.8944 -0.0000 -0.4472
vn -0.2764 0.8506 -0.4472
vn 0.7236 0.5257 -0.4472
vn 0.2764 -0.8506 0.4472
vn -0.7236 -0.5257 0.4472
vn -0.7236 0.5257 0.4472
vn 0.2764 0.8506 0.4472
vn 0.8944 -0.0000 0.4472
vn -0.0000 -0.0000 1.0000
vn -0.2308 -0.7103 -0.6650
vn -0.1625 -0.5000 -0.8507
vn -0.0806 -0.2480 -0.9654
vn 0.2110 -0.1533 -0.9654
vn 0.4253 -0.3090 -0.8507
vn 0.6042 -0.4390 -0.6650
vn 0.5237 -0.6870 -0.5038
vn 0.2629 -0.8090 -0.5257
vn -0.0198 -0.8636 -0.5038
vn 0.8152 0.2857 -0.5038
vn 0.8506 -0.0000 -0.5257
vn 0.8152 -0.2857 -0.5038
vn 0.2110 0.1533 -0.9654
vn 0.4253 0.3090 -0.8507
vn 0.6042 0.4390 -0.6650
vn -0.7469 -0.0000 -0.6650
vn -0.5257 -0.0000 -0.8507
vn -0.2608 -0.0000 -0.9654
vn -0.4915 -0.7103 -0.5038
vn -0.6882 -0.5000 -0.5257
vn -0.8274 -0.2480 -0.5038
vn -0.2308 0.7103 -0.6650
vn -0.1625 0.5000 -0.8507
vn -0.0806 0.2480 -0.9654
vn -0.8274 0.2480 -0.5038
vn -0.6882 0.5000 -0.5257
vn -0.4915 0.7103 -0.5038
vn -0.0198 0.8636 -0.5038
vn 0.2629 0.8090 -0.5257
vn 0.5237 0.6870 -0.5038
vn 0.9578 -0.1533 0.2431
vn 0.9511 -0.3090 -0.0000
vn 0.8650 -0.4390 -0.2431
vn 0.8650 0.4390 -0.2431
vn 0.9511 0.3090 -0.0000
vn 0.9578 0.1533 0.2431
vn 0.1502 -0.9583 0.2431
vn -0.0000 -1.0000 -0.0000
vn -0.1502 -0.9583 -0.2431
vn 0.6848 -0.6870 -0.2431
vn 0.5878 -0.8090 -0.0000
vn 0.4417 -0.8636 0.2431
vn -0.8650 -0.4390 0.2431
vn -0.9511 -0.3090 -0.0000
vn -0.9578 -0.1533 -0.2431
vn -0.4417 -0.8636 -0.2431
vn -0.5878 -0.8090 -0.0000
vn -0.6848 -0.6870 0.2431
vn -0.6848 0.6870 0.2431
vn -0.5878 0.8090 -0.0000
vn -0.4417 0.8636 -0.2431
vn -0.9578 0.1533 -0.2431
vn -0.9511 0.3090 -0.0000
vn -0.8650 0.4390 0.2431
vn 0.4417 0.8636 0.2431
vn 0.5878 0.8090 -0.0000
vn 0.6848 0.6870 -0.2431
vn -0.1502 0.9583 -0.2431
vn -0.0000 1.0000 -0.0000
vn 0.1502 0.9583 0.2431
vn 0.8274 -0.2480 0.5038
vn 0.6882 -0.5000 0.5257
vn 0.4915 -0.7103 0.5038
vn 0.0198 -0.8636 0.5038
vn -0.2629 -0.8090 0.5257
vn -0.5237 -0.6870 0.5038
vn -0.8152 -0.2857 0.5038
vn -0.8506 -0.0000 0.5257
vn -0.8152 0.2857 0.5038
vn -0.5237 0.6870 0.5038
vn -0.2629 0.8090 0.5257
vn 0.0198 0.8636 0.5038
vn 0.4915 0.7103 0.5038
vn 0.6882 0.5000 0.5257
vn 0.8274 0.2480 0.5038
vn 0.0806 -0.2480 0.9654
vn 0.1625 -0.5000 0.8507
vn 0.2308 -0.7103 0.6650
vn 0.7469 -0.0000 0.6650
vn 0.5257 -0.0000 0.8507
vn 0.2608 -0.0000 0.9654
vn -0.2110 -0.1533 0.9654
vn -0.4253 -0.3090 0.8507
vn -0.6042 -0.4390 0.6650
vn -0.2110 0.1533 0.9654
vn -0.4253 0.3090 0.8507
vn -0.6042 0.4390 0.6650
vn 0.0806 0.2480 0.9654
vn 0.1625 0.5000 0.8507
vn 0.2308 0.7103 0.6650
vn 0.3682 0.2675 0.8904
vn 0.6317 0.2675 0.7275
vn 0.4496 0.5182 0.7276
vn -0.1406 0.4329 0.8904
vn -0.0592 0.6835 0.7276
vn -0.3539 0.5878 0.7276
vn -0.4551 -0.0000 0.8904
vn -0.6683 0.1549 0.7275
vn -0.6683 -0.1549 0.7275
vn -0.1406 -0.4329 0.8904
vn -0.3539 -0.5878 0.7276
vn -0.0592 -0.6835 0.7276
vn 0.3682 -0.2675 0.8904
vn 0.4496 -0.5182 0.7276
vn 0.6317 -0.2675 0.7275
vn 0.8593 0.4329 0.2724
vn 0.8090 0.5878 0.0089
vn 0.6772 0.6835 0.2724
vn -0.1461 0.9510 0.2724
vn -0.3090 0.9510 0.0089
vn -0.4408 0.8553 0.2724
vn -0.9496 0.1549 0.2724
vn -1.0000 -0.0000 0.0089
vn -0.9496 -0.1549 0.2724
vn -0.4408 -0.8553 0.2724
vn -0.3090 -0.9510 0.0089
vn -0.1461 -0.9510 0.2724
vn 0.6772 -0.6835 0.2724
vn 0.8090 -0.5878 0.0089
vn 0.8593 -0.4329 0.2724
vn 0.3090 0.9510 -0.0089
vn 0.4408 0.8553 -0.2724
vn 0.1461 0.9510 -0.2724
vn -0.8090 0.5878 -0.0089
vn -0.6772 0.6835 -0.2724
vn -0.8593 0.4329 -0.2724
vn -0.8090 -0.5878 -0.0089
vn -0.8593 -0.4329 -0.2724
vn -0.6772 -0.6835 -0.2724
vn 0.3090 -0.9510 -0.0089
vn 0.1461 -0.9510 -0.2724
vn 0.4408 -0.8553 -0.2724
vn 1.0000 -0.0000 -0.0089
vn 0.9496 -0.1549 -0.2724
vn 0.9496 0.1549 -0.2724
vn 0.3539 0.5878 -0.7276
vn 0.1406 0.4329 -0.8904
vn 0.0592 0.6835 -0.7276
vn -0.4496 0.5182 -0.7276
vn -0.3682 0.2675 -0.8904
vn -0.6317 0.2675 -0.7275
vn -0.6317 -0.2675 -0.7275
vn -0.3682 -0.2675 -0.8904
vn -0.4496 -0.5182 -0.7275
vn 0.6683 0.1549 -0.7275
vn 0.6683 -0.1549 -0.7275
vn 0.4551 -0.0000 -0.8904
vn 0.0592 -0.6835 -0.7276
vn 0.1406 -0.4329 -0.8904
vn 0.3539 -0.5878 -0.7276
vt 0.033622 -0.481853
vt -0.034105 -0.531059
vt 0.059491 -0.561471
vt 0.210845 -0.657095
vt 0.280945 -0.629472
vt 0.229205 -0.580266
vt 0.117337 -0.481853
vt 0.059491 -0.402236
vt -0.034105 -0.432647
vt 0.145489 -0.629472
vt -0.125751 0.210845
vt -0.043502 0.229206
vt -0.085360 0.145489
vt -0.210844 -0.481853
vt -0.229205 -0.561471
vt -0.145488 -0.531060
vt -0.125751 -0.210845
vt -0.194946 -0.229205
vt -0.178957 -0.145489
vt 0.207581 -0.210845
vt 0.143692 -0.229205
vt 0.195431 -0.145489
vt 0.145489 -0.709092
vt -0.178957 0.145489
vt -0.145488 -0.432647
vt -0.085360 -0.145489
vt 0.210845 -0.306612
vt 0.145489 -0.254615
vt 0.145489 -0.334234
vt 0.058508 -0.087302
vt 0.127702 -0.105662
vt 0.043985 -0.157401
vt 0.087302 -0.657095
vt 0.105662 -0.709091
vt 0.157401 -0.629472
vt 0.087302 -0.306612
vt 0.105662 -0.383441
vt 0.157401 -0.334235
vt 0.058508 0.087302
vt -0.023742 0.105662
vt 0.043985 0.157401
vt -0.087300 -0.481853
vt -0.105661 -0.402236
vt -0.157400 -0.481853
vt 0.050094 -0.481853
vt -0.007753 -0.402236
vt -0.033622 -0.481853
vt 0.141621 -0.481853
vt 0.086978 -0.394232
vt 0.217525 -0.481853
vt 0.179109 -0.394232
vt 0.020530 -0.315188
vt 0.115448 -0.306611
vt 0.043985 -0.242999
vt -0.179432 -0.394232
vt -0.113474 -0.315188
vt 0.195775 -0.315188
vt 0.127702 -0.242998
vt 0.115448 0.179432
vt 0.127702 0.105662
vt -0.101349 -0.432647
vt -0.079688 -0.340080
vt -0.051218 -0.252458
vt -0.175396 -0.378850
vt -0.154223 -0.285927
vt -0.236804 -0.334235
vt -0.051218 0.179432
vt -0.121245 0.113474
vt -0.154223 0.179432
vt -0.210935 0.105662
vt -0.210935 -0.254616
vt 0.105662 -0.254616
vt -0.101349 -0.531059
vt -0.182692 -0.481853
vt -0.257227 -0.427701
vt -0.175396 -0.584857
vt -0.257227 -0.536006
vt -0.236804 -0.629472
vt 0.179432 -0.427701
vt 0.113474 -0.481853
vt 0.179432 -0.536006
vt 0.105662 -0.580266
vt -0.007753 -0.561471
vt -0.079688 -0.623627
vt -0.154223 -0.677779
vt 0.020530 -0.648519
vt -0.051218 -0.711248
vt 0.043985 -0.720708
vt -0.210935 -0.709091
vt -0.210935 -0.105662
vt -0.121245 -0.113474
vt -0.154223 -0.179432
vt -0.051218 -0.179432
vt -0.023742 -0.105662
vt 0.086978 -0.569474
vt 0.115448 -0.657096
vt 0.179109 -0.569475
vt 0.115448 -0.179432
vt 0.127702 -0.720708
vt 0.195775 -0.648519
vt -0.113474 -0.648519
vt -0.105661 -0.561471
vt -0.179432 -0.569475
vt -0.021945 -0.432647
vt 0.061772 -0.378849
vt -0.030360 -0.340079
vt 0.061772 -0.285926
vt -0.030361 -0.252457
vt 0.189985 0.030361
vt 0.195775 0.113474
vt 0.061772 -0.212181
vt 0.162307 -0.061772
vt 0.111714 0.021946
vt 0.018117 0.021946
vt -0.033622 -0.061772
vt -0.079688 0.030361
vt -0.136627 -0.061772
vt -0.182693 0.030361
vt -0.229550 -0.061772
vt -0.262675 0.021946
vt -0.274824 0.087302
vt 0.021945 -0.334234
vt -0.061772 -0.378849
vt 0.030360 -0.427701
vt -0.061771 -0.481853
vt 0.030361 -0.536006
vt -0.061772 -0.584858
vt 0.021945 -0.629472
vt -0.262675 -0.021946
vt -0.274824 -0.087302
vt -0.229550 0.061772
vt -0.182694 -0.030361
vt -0.136628 0.061772
vt -0.079688 -0.030361
vt -0.033622 0.061772
vt 0.018117 -0.021946
vt 0.111714 -0.021946
vt 0.162307 0.061772
vt 0.189985 -0.030360
vt 0.061772 -0.677781
vt 0.061772 -0.751526
vt 0.195775 -0.113474
vt -0.030360 -0.711250
vt -0.030360 -0.623628
vt 0.061772 -0.584858
vt -0.021945 -0.531060
vt 0.069384 -0.061772
vt 0.115450 -0.153904
vt 0.012445 -0.153904
vt 0.054001 -0.237018
vt -0.043502 -0.229206
vt 0.021946 -0.254615
vt -0.061772 -0.212181
vt -0.061772 -0.285926
vt -0.257228 -0.153904
vt -0.153904 -0.252456
vt -0.153904 -0.340079
vt -0.263018 -0.237017
vt -0.237017 -0.315188
vt -0.229205 -0.402236
vt 0.021946 -0.709092
vt -0.061772 -0.677781
vt -0.153904 -0.623628
vt -0.061772 -0.751526
vt -0.153904 -0.711250
vt -0.257228 0.153904
vt -0.237017 -0.648519
vt -0.263018 0.237017
vt -0.194946 0.229205
vt 0.069384 0.061772
vt 0.012445 0.153904
vt 0.115450 0.153904
vt 0.195431 0.145489
vt 0.054001 0.237018
vt 0.143692 0.229205
vt 0.207581 0.210845
vt 0.061772 -0.481853
vt 0.153904 -0.536006
vt 0.153904 -0.427701
vt 0.237017 -0.481853
vt 0.229205 -0.383441
vt 0.280945 -0.334235
vt 0.229205 -0.254616
vt -0.108152 -0.378850
vt -0.086979 -0.285927
vt -0.169560 -0.334235
vt -0.012444 -0.340080
vt -0.143692 -0.254616
vt 0.086979 -0.302976
vt 0.016025 -0.252458
vt -0.016025 -0.302975
vt 0.087774 -0.315188
vt 0.111229 -0.242999
vt -0.111229 -0.280945
vt 0.182692 -0.306611
vt 0.154222 -0.394232
vt -0.182692 -0.302975
vt 0.263018 -0.315188
vt 0.194946 -0.242998
vt 0.246353 -0.394232
vt -0.302975 -0.394232
vt 0.208865 -0.481853
vt 0.284769 -0.481853
vt -0.280943 -0.481853
vt 0.246353 -0.569475
vt 0.154222 -0.569475
vt -0.302975 -0.569475
vt 0.182692 -0.657096
vt 0.263018 -0.648519
vt 0.194946 -0.720708
vt 0.087774 -0.648519
vt 0.111229 -0.720708
vt -0.182692 0.302975
vt -0.111229 0.280945
vt 0.302975 -0.427701
vt 0.302975 -0.536006
vt -0.189984 -0.427701
vt -0.189984 -0.536006
vt -0.115449 -0.481854
vt -0.169560 -0.629472
vt -0.108152 -0.584857
vt 0.016025 -0.711248
vt -0.012444 -0.623627
vt -0.016025 0.302976
vt -0.086980 -0.677780
vt 0.086980 0.302975
vt -0.143692 -0.709091
vt 0.229205 -0.709091
s 1
f 389/673/387 404/674/402 403/675/401
f 390/676/388 406/677/404 412/678/410
f 389/673/387 403/675/401 418/679/416
f 389/673/387 418/679/416 424/680/422
f 389/673/387 424/680/422 413/681/411
f 390/676/388 412/678/410 433/682/431
f 391/683/389 409/684/407 439/685/437
f 392/686/390 421/687/419 445/688/443
f 393/689/391 427/690/425 451/691/449
f 394/692/392 430/693/428 457/694/455
f 390/676/388 433/682/431 440/695/438
f 391/683/389 439/685/437 446/696/444
f 392/686/390 445/688/443 452/697/450
f 393/689/391 451/691/449 458/698/456
f 394/699/392 457/700/455 434/701/432
f 395/702/393 463/703/461 478/704/476
f 396/705/394 466/706/464 484/707/482
f 397/708/395 469/709/467 487/710/485
f 398/711/396 472/712/470 490/713/488
f 399/714/397 475/715/473 479/716/477
f 481/717/479 488/718/486 400/719/398
f 480/720/478 491/721/489 481/717/479
f 479/722/477 492/723/490 480/720/478
f 481/717/479 491/721/489 488/718/486
f 491/721/489 489/724/487 488/718/486
f 480/720/478 492/723/490 491/721/489
f 492/723/490 493/725/491 491/721/489
f 491/721/489 493/725/491 489/724/487
f 493/725/491 490/726/488 489/724/487
f 479/716/477 475/715/473 492/727/490
f 475/715/473 474/728/472 492/727/490
f 492/723/490 474/729/472 493/725/491
f 474/729/472 473/730/471 493/725/491
f 493/731/491 473/732/471 490/713/488
f 473/732/471 398/711/396 490/713/488
f 488/718/486 485/733/483 400/719/398
f 489/724/487 494/734/492 488/718/486
f 490/726/488 495/735/493 489/724/487
f 488/718/486 494/734/492 485/733/483
f 494/734/492 486/736/484 485/733/483
f 489/724/487 495/735/493 494/734/492
f 495/735/493 496/737/494 494/734/492
f 494/734/492 496/737/494 486/736/484
f 496/737/494 487/738/485 486/736/484
f 490/713/488 472/712/470 495/739/493
f 472/712/470 471/740/469 495/739/493
f 495/739/493 471/740/469 496/741/494
f 471/740/469 470/742/468 496/741/494
f 496/737/494 470/743/468 487/738/485
f 470/744/468 397/708/395 487/710/485
f 485/733/483 482/745/480 400/719/398
f 486/736/484 497/746/495 485/733/483
f 487/738/485 498/747/496 486/736/484
f 485/733/483 497/746/495 482/745/480
f 497/746/495 483/748/481 482/745/480
f 486/736/484 498/747/496 497/746/495
f 498/747/496 499/749/497 497/746/495
f 497/746/495 499/749/497 483/748/481
f 499/749/497 484/750/482 483/748/481
f 487/710/485 469/709/467 498/751/496
f 469/709/467 468/752/466 498/751/496
f 498/751/496 468/752/466 499/753/497
f 468/752/466 467/754/465 499/753/497
f 499/753/497 467/754/465 484/707/482
f 467/754/465 396/705/394 484/707/482
f 482/745/480 476/755/474 400/719/398
f 483/748/481 500/756/498 482/745/480
f 484/750/482 501/757/499 483/748/481
f 482/745/480 500/756/498 476/755/474
f 500/756/498 477/758/475 476/755/474
f 483/748/481 501/757/499 500/756/498
f 501/757/499 502/759/500 500/756/498
f 500/756/498 502/759/500 477/758/475
f 502/759/500 478/760/476 477/758/475
f 484/750/482 466/761/464 501/757/499
f 466/762/464 465/763/463 501/764/499
f 501/764/499 465/763/463 502/765/500
f 465/763/463 464/766/462 502/765/500
f 502/765/500 464/766/462 478/704/476
f 464/766/462 395/702/393 478/704/476
f 476/755/474 481/717/479 400/719/398
f 477/758/475 503/767/501 476/755/474
f 478/760/476 504/768/502 477/758/475
f 476/755/474 503/767/501 481/717/479
f 503/767/501 480/720/478 481/717/479
f 477/758/475 504/768/502 503/767/501
f 504/768/502 505/769/503 503/767/501
f 503/767/501 505/769/503 480/720/478
f 505/769/503 479/722/477 480/720/478
f 478/704/476 463/703/461 504/770/502
f 463/771/461 462/772/460 504/768/502
f 504/768/502 462/772/460 505/769/503
f 462/773/460 461/774/459 505/775/503
f 505/775/503 461/774/459 479/716/477
f 461/774/459 399/714/397 479/716/477
f 436/776/434 475/715/473 399/714/397
f 435/777/433 506/778/504 436/776/434
f 434/701/432 507/779/505 435/777/433
f 436/776/434 506/778/504 475/715/473
f 506/778/504 474/728/472 475/715/473
f 435/777/433 507/779/505 506/778/504
f 507/779/505 508/780/506 506/778/504
f 506/778/504 508/780/506 474/728/472
f 508/781/506 473/732/471 474/782/472
f 434/701/432 457/700/455 507/779/505
f 457/700/455 456/783/454 507/779/505
f 507/779/505 456/783/454 508/780/506
f 456/784/454 455/785/453 508/781/506
f 508/781/506 455/785/453 473/732/471
f 455/785/453 398/711/396 473/732/471
f 460/786/458 472/712/470 398/711/396
f 459/787/457 509/788/507 460/786/458
f 458/698/456 510/789/508 459/787/457
f 460/786/458 509/788/507 472/712/470
f 509/788/507 471/740/469 472/712/470
f 459/787/457 510/789/508 509/788/507
f 510/789/508 511/790/509 509/788/507
f 509/788/507 511/790/509 471/740/469
f 511/790/509 470/742/468 471/740/469
f 458/698/456 451/691/449 510/789/508
f 451/691/449 450/791/448 510/789/508
f 510/789/508 450/791/448 511/790/509
f 450/791/448 449/792/447 511/790/509
f 511/790/509 449/792/447 470/742/468
f 449/792/447 397/793/395 470/742/468
f 454/794/452 469/709/467 397/708/395
f 453/795/451 512/796/510 454/794/452
f 452/697/450 513/797/511 453/795/451
f 454/794/452 512/796/510 469/709/467
f 512/796/510 468/752/466 469/709/467
f 453/795/451 513/797/511 512/796/510
f 513/797/511 514/798/512 512/796/510
f 512/796/510 514/798/512 468/752/466
f 514/798/512 467/754/465 468/752/466
f 452/697/450 445/688/443 513/797/511
f 445/688/443 444/799/442 513/797/511
f 513/797/511 444/799/442 514/798/512
f 444/799/442 443/800/441 514/798/512
f 514/798/512 443/800/441 467/754/465
f 443/800/441 396/705/394 467/754/465
f 448/801/446 466/762/464 396/802/394
f 447/803/445 515/804/513 448/801/446
f 446/696/444 516/805/514 447/803/445
f 448/801/446 515/804/513 466/762/464
f 515/804/513 465/763/463 466/762/464
f 447/803/445 516/805/514 515/804/513
f 516/805/514 517/806/515 515/804/513
f 515/804/513 517/806/515 465/763/463
f 517/806/515 464/766/462 465/763/463
f 446/696/444 439/685/437 516/805/514
f 439/685/437 438/807/436 516/805/514
f 516/805/514 438/807/436 517/806/515
f 438/807/436 437/808/435 517/806/515
f 517/806/515 437/808/435 464/766/462
f 437/808/435 395/702/393 464/766/462
f 442/809/440 463/703/461 395/702/393
f 441/810/439 518/811/516 442/809/440
f 440/695/438 519/812/517 441/813/439
f 442/809/440 518/811/516 463/703/461
f 518/811/516 462/814/460 463/703/461
f 441/813/439 519/812/517 518/815/516
f 519/812/517 520/816/518 518/815/516
f 518/815/516 520/816/518 462/773/460
f 520/816/518 461/774/459 462/773/460
f 440/695/438 433/682/431 519/812/517
f 433/682/431 432/817/430 519/812/517
f 519/812/517 432/817/430 520/816/518
f 432/817/430 431/818/429 520/816/518
f 520/816/518 431/818/429 461/774/459
f 431/818/429 399/714/397 461/774/459
f 455/785/453 460/786/458 398/711/396
f 456/784/454 521/819/519 455/785/453
f 457/694/455 522/820/520 456/784/454
f 455/785/453 521/819/519 460/786/458
f 521/819/519 459/787/457 460/786/458
f 456/784/454 522/820/520 521/819/519
f 522/820/520 523/821/521 521/819/519
f 521/819/519 523/821/521 459/787/457
f 523/821/521 458/698/456 459/787/457
f 457/694/455 430/693/428 522/820/520
f 430/693/428 429/822/427 522/820/520
f 522/820/520 429/822/427 523/821/521
f 429/822/427 428/823/426 523/821/521
f 523/821/521 428/823/426 458/698/456
f 428/823/426 393/689/391 458/698/456
f 449/824/447 454/794/452 397/708/395
f 450/825/448 524/826/522 449/824/447
f 451/691/449 525/827/523 450/791/448
f 449/824/447 524/826/522 454/794/452
f 524/826/522 453/795/451 454/794/452
f 450/825/448 525/828/523 524/826/522
f 525/828/523 526/829/524 524/826/522
f 524/826/522 526/829/524 453/795/451
f 526/829/524 452/697/450 453/795/451
f 451/691/449 427/690/425 525/827/523
f 427/690/425 426/830/424 525/827/523
f 525/828/523 426/831/424 526/829/524
f 426/831/424 425/832/423 526/829/524
f 526/829/524 425/832/423 452/697/450
f 425/832/423 392/686/390 452/697/450
f 443/800/441 448/833/446 396/705/394
f 444/799/442 527/834/525 443/800/441
f 445/688/443 528/835/526 444/799/442
f 443/800/441 527/834/525 448/833/446
f 527/834/525 447/836/445 448/833/446
f 444/799/442 528/835/526 527/834/525
f 528/835/526 529/837/527 527/834/525
f 527/834/525 529/837/527 447/836/445
f 529/838/527 446/696/444 447/803/445
f 445/688/443 421/687/419 528/835/526
f 421/687/419 420/839/418 528/835/526
f 528/835/526 420/839/418 529/837/527
f 420/840/418 419/841/417 529/838/527
f 529/838/527 419/841/417 446/696/444
f 419/841/417 391/683/389 446/696/444
f 437/808/435 442/809/440 395/702/393
f 438/807/436 530/842/528 437/808/435
f 439/685/437 531/843/529 438/807/436
f 437/808/435 530/842/528 442/809/440
f 530/842/528 441/810/439 442/809/440
f 438/807/436 531/843/529 530/842/528
f 531/843/529 532/844/530 530/842/528
f 530/842/528 532/844/530 441/810/439
f 532/844/530 440/845/438 441/810/439
f 439/685/437 409/684/407 531/843/529
f 409/684/407 408/846/406 531/843/529
f 531/843/529 408/846/406 532/844/530
f 408/846/406 407/847/405 532/844/530
f 532/844/530 407/847/405 440/845/438
f 407/847/405 390/848/388 440/845/438
f 431/818/429 436/776/434 399/714/397
f 432/817/430 533/849/531 431/818/429
f 433/682/431 534/850/532 432/817/430
f 431/818/429 533/849/531 436/776/434
f 533/849/531 435/777/433 436/776/434
f 432/817/430 534/850/532 533/849/531
f 534/850/532 535/851/533 533/849/531
f 533/849/531 535/851/533 435/777/433
f 535/851/533 434/701/432 435/777/433
f 433/682/431 412/678/410 534/850/532
f 412/678/410 411/852/409 534/850/532
f 534/850/532 411/852/409 535/851/533
f 411/852/409 410/853/408 535/851/533
f 535/851/533 410/853/408 434/701/432
f 410/853/408 394/699/392 434/701/432
f 415/854/413 430/855/428 394/699/392
f 414/856/412 536/857/534 415/858/413
f 413/681/411 537/859/535 414/856/412
f 415/858/413 536/857/534 430/860/428
f 536/861/534 429/822/427 430/693/428
f 414/856/412 537/859/535 536/857/534
f 537/859/535 538/862/536 536/857/534
f 536/861/534 538/863/536 429/822/427
f 538/863/536 428/823/426 429/822/427
f 413/681/411 424/680/422 537/859/535
f 424/680/422 423/864/421 537/859/535
f 537/859/535 423/864/421 538/862/536
f 423/864/421 422/865/420 538/862/536
f 538/863/536 422/866/420 428/823/426
f 422/866/420 393/689/391 428/823/426
f 422/866/420 427/690/425 393/689/391
f 423/864/421 539/867/537 422/865/420
f 424/680/422 540/868/538 423/864/421
f 422/866/420 539/869/537 427/690/425
f 539/867/537 426/870/424 427/871/425
f 423/864/421 540/868/538 539/867/537
f 540/868/538 541/872/539 539/867/537
f 539/867/537 541/872/539 426/870/424
f 541/873/539 425/832/423 426/831/424
f 424/680/422 418/679/416 540/868/538
f 418/679/416 417/874/415 540/868/538
f 540/868/538 417/874/415 541/872/539
f 417/874/415 416/875/414 541/872/539
f 541/873/539 416/876/414 425/832/423
f 416/876/414 392/686/390 425/832/423
f 416/876/414 421/687/419 392/686/390
f 417/874/415 542/877/540 416/875/414
f 418/679/416 543/878/541 417/874/415
f 416/876/414 542/879/540 421/687/419
f 542/879/540 420/839/418 421/687/419
f 417/874/415 543/878/541 542/877/540
f 543/878/541 544/880/542 542/877/540
f 542/877/540 544/880/542 420/881/418
f 544/880/542 419/882/417 420/881/418
f 418/679/416 403/675/401 543/878/541
f 403/675/401 402/883/400 543/878/541
f 543/878/541 402/883/400 544/880/542
f 402/883/400 401/884/399 544/880/542
f 544/885/542 401/886/399 419/841/417
f 401/886/399 391/683/389 419/841/417
f 410/853/408 415/854/413 394/699/392
f 411/852/409 545/887/543 410/853/408
f 412/678/410 546/888/544 411/852/409
f 410/853/408 545/887/543 415/854/413
f 545/889/543 414/856/412 415/858/413
f 411/852/409 546/888/544 545/887/543
f 546/890/544 547/891/545 545/889/543
f 545/889/543 547/891/545 414/856/412
f 547/891/545 413/681/411 414/856/412
f 412/678/410 406/677/404 546/888/544
f 406/892/404 405/893/403 546/890/544
f 546/890/544 405/893/403 547/891/545
f 405/893/403 404/674/402 547/891/545
f 547/891/545 404/674/402 413/681/411
f 404/674/402 389/673/387 413/681/411
f 401/886/399 409/684/407 391/683/389
f 402/883/400 548/894/546 401/884/399
f 403/675/401 549/895/547 402/883/400
f 401/886/399 548/896/546 409/684/407
f 548/896/546 408/846/406 409/684/407
f 402/883/400 549/895/547 548/894/546
f 549/895/547 550/897/548 548/894/546
f 548/896/546 550/898/548 408/846/406
f 550/898/548 407/847/405 408/846/406
f 403/675/401 404/674/402 549/895/547
f 404/674/402 405/893/403 549/895/547
f 549/895/547 405/893/403 550/897/548
f 405/893/403 406/892/404 550/897/548
f 550/897/548 406/892/404 407/899/405
f 406/677/404 390/676/388 407/900/405
