# Blender 5.0.1
# www.blender.org
mtllib coral_table_a.mtl
o coral_table_a_body
usemtl coral_table_a_body
v 0.000000 0.024286 -0.098252
v -0.085726 0.019528 -0.048964
v -0.085726 0.007385 0.049289
v -0.000000 0.000000 0.098252
v 0.085726 0.004758 0.048964
v 0.085726 0.016902 -0.049289
v 0.004704 0.324088 -0.039032
v -0.061972 0.320387 -0.000697
v -0.061972 0.310942 0.075722
v 0.004704 0.305198 0.113805
v 0.071380 0.308899 0.075469
v 0.071380 0.318344 -0.000949
vn -0.8626 0.1458 -0.4845
vn 0.0011 0.1938 -0.9810
vn -0.8626 0.0235 0.5054
vn 0.0011 -0.0509 0.9987
vn 0.8648 -0.0030 0.5021
vn 0.8648 0.1194 -0.4878
vn 0.8648 0.1194 -0.4877
vn -0.0154 -0.9923 -0.1226
vn 0.0154 0.9923 0.1226
vt 0.171453 0.014769
vt -0.009409 0.623889
vt -0.000000 0.024286
vt 0.098577 -0.009517
vt -0.001394 0.616487
vt -0.097928 0.014769
vt -0.000000 -0.024286
vt -0.123943 0.597598
vt -0.171453 -0.009517
vt 0.171453 -0.014769
vt 0.009409 0.586111
vt 0.098577 0.009517
vt -0.150938 0.593513
vt -0.097928 -0.014769
vt -0.142761 0.612402
vt -0.171453 0.009517
vt 0.171453 0.098577
vt -0.000000 -0.196505
vt -0.171453 0.097928
vt -0.123943 0.151443
vt 0.009409 0.227609
vt 0.142761 0.150938
vt 0.123943 0.616487
vt 0.151443 0.597598
vt 0.142761 0.593513
vt 0.001899 0.612402
vt 0.000000 0.196505
vt 0.171453 -0.097928
vt -0.171453 -0.098577
vt 0.142761 -0.001899
vt 0.009409 -0.078065
vt -0.123943 -0.001394
s 1
f 2/1/1 7/2/2 1/3/2
f 3/4/3 8/5/1 2/6/1
f 4/7/4 9/8/3 3/9/3
f 5/10/5 10/11/4 4/7/4
f 6/12/6 11/13/5 5/14/5
f 1/3/2 12/15/7 6/16/6
s 0
f 6/17/8 4/18/8 2/19/8
f 9/20/9 10/21/9 11/22/9
s 1
f 2/1/1 8/23/1 7/2/2
f 3/4/3 9/24/3 8/5/1
f 4/7/4 10/11/4 9/8/3
f 5/10/5 11/25/5 10/11/4
f 6/12/6 12/26/7 11/13/5
f 1/3/2 7/2/2 12/15/7
s 0
f 2/19/8 1/27/8 6/17/8
f 6/17/8 5/28/8 4/18/8
f 4/18/8 3/29/8 2/19/8
f 11/22/9 12/30/9 9/20/9
f 12/30/9 7/31/9 9/20/9
f 7/31/9 8/32/9 9/20/9
o coral_table_a_tip
usemtl coral_table_a_tip
v 0.000000 0.331143 0.000000
v 0.613121 0.302967 0.000000
v 0.418011 0.301833 0.201303
v 0.333822 0.354340 0.418600
v 0.115393 0.373111 0.505568
v -0.120267 0.377080 0.526925
v -0.351696 0.368835 0.441013
v -0.545993 0.311890 0.262936
v -0.541794 0.371012 0.000000
v -0.465363 0.309175 -0.224107
v -0.333771 0.355669 -0.418536
v -0.120889 0.318602 -0.529650
v 0.111013 0.329150 -0.486382
v 0.390041 0.334222 -0.489096
v 0.515981 0.333496 -0.248483
v 0.000000 0.331143 0.000000
v 0.613121 0.302967 0.000000
v 0.418011 0.301833 0.201303
v 0.333822 0.354340 0.418600
v 0.115393 0.373111 0.505568
v -0.120267 0.377080 0.526925
v -0.351696 0.368835 0.441013
v -0.545993 0.311890 0.262936
v -0.541794 0.371012 0.000000
v -0.465363 0.309175 -0.224107
v -0.333771 0.355669 -0.418536
v -0.120889 0.318602 -0.529650
v 0.111013 0.329150 -0.486382
v 0.390041 0.334222 -0.489096
v 0.515981 0.333496 -0.248483
vn -0.0204 -0.9993 0.0299
vn -0.0458 -0.9955 -0.0825
vn -0.0962 -0.9938 0.0551
vn -0.0955 -0.9868 0.1308
vn -0.0285 -0.9956 0.0891
vn -0.0026 -0.9963 0.0863
vn 0.0673 -0.9881 0.1381
vn 0.0289 -0.9995 -0.0132
vn -0.0734 -0.9972 -0.0168
vn 0.0242 -0.9986 0.0476
vn -0.0170 -0.9988 -0.0450
vn -0.0560 -0.9978 0.0364
vn 0.0295 -0.9995 0.0108
vn 0.0093 -1.0000 0.0011
vn -0.0213 -0.9983 -0.0536
vn 0.0204 0.9993 -0.0299
vn 0.0458 0.9955 0.0825
vn 0.0962 0.9938 -0.0551
vn 0.0955 0.9868 -0.1308
vn 0.0285 0.9956 -0.0891
vn 0.0026 0.9963 -0.0863
vn -0.0673 0.9881 -0.1381
vn -0.0289 0.9995 0.0132
vn 0.0734 0.9972 0.0168
vn -0.0242 0.9986 -0.0476
vn 0.0170 0.9988 0.0450
vn 0.0560 0.9978 -0.0364
vn -0.0295 0.9995 -0.0108
vn -0.0093 1.0000 -0.0011
vn 0.0213 0.9983 0.0536
vt 0.000000 0.000000
vt 1.021868 0.000000
vt 0.696684 0.335505
vt 0.556371 0.697667
vt 0.192321 0.842613
vt -0.200445 0.878209
vt -0.586160 0.735021
vt -0.909988 0.438227
vt -0.902990 0.000000
vt -0.775605 -0.373511
vt -0.556286 -0.697560
vt -0.201482 -0.882751
vt 0.185022 -0.810636
vt 0.650068 -0.815160
vt 0.859968 -0.414139
s 1
f 13/33/10 14/34/11 15/35/12
f 13/33/10 15/35/12 16/36/13
f 13/33/10 16/36/13 17/37/14
f 13/33/10 17/37/14 18/38/15
f 13/33/10 18/38/15 19/39/16
f 13/33/10 19/39/16 20/40/17
f 13/33/10 20/40/17 21/41/18
f 13/33/10 21/41/18 22/42/19
f 13/33/10 22/42/19 23/43/20
f 13/33/10 23/43/20 24/44/21
f 13/33/10 24/44/21 25/45/22
f 13/33/10 25/45/22 26/46/23
f 13/33/10 26/46/23 27/47/24
f 13/33/10 27/47/24 14/34/11
f 28/33/25 30/35/27 29/34/26
f 28/33/25 31/36/28 30/35/27
f 28/33/25 32/37/29 31/36/28
f 28/33/25 33/38/30 32/37/29
f 28/33/25 34/39/31 33/38/30
f 28/33/25 35/40/32 34/39/31
f 28/33/25 36/41/33 35/40/32
f 28/33/25 37/42/34 36/41/33
f 28/33/25 38/43/35 37/42/34
f 28/33/25 39/44/36 38/43/35
f 28/33/25 40/45/37 39/44/36
f 28/33/25 41/46/38 40/45/37
f 28/33/25 42/47/39 41/46/38
f 28/33/25 29/34/26 42/47/39
