# Blender 5.0.1
# www.blender.org
mtllib coral_branch_c.mtl
o coral_branch_c_body
usemtl coral_branch_c_body
v 0.011492 0.018831 0.088534
v 0.036550 0.000000 0.065677
v 0.026879 0.007193 0.028803
v -0.004156 0.030469 0.028871
v -0.013666 0.037662 0.065787
v 0.135607 0.184354 0.075723
v 0.151143 0.172679 0.061551
v 0.145147 0.177138 0.038689
v 0.125905 0.191570 0.038732
v 0.120009 0.196029 0.061619
v 0.145296 0.184354 0.076938
v 0.152674 0.167875 0.055627
v 0.136404 0.174169 0.033813
v 0.118970 0.194539 0.041643
v 0.124465 0.200833 0.068295
v 0.240466 0.286043 0.024300
v 0.245041 0.275826 0.011087
v 0.234953 0.279728 -0.002437
v 0.224144 0.292357 0.002417
v 0.227551 0.296260 0.018942
v 0.240601 0.286043 0.026818
v 0.247017 0.274484 0.011663
v 0.236040 0.278899 -0.004599
v 0.222840 0.293187 0.000505
v 0.225659 0.297602 0.019922
v 0.297463 0.348923 -0.002140
v 0.301441 0.341757 -0.011536
v 0.294635 0.344494 -0.021618
v 0.286451 0.353352 -0.018453
v 0.288199 0.356090 -0.006415
v 0.244787 0.286043 0.024479
v 0.248423 0.277049 0.006863
v 0.232723 0.280484 -0.005227
v 0.219384 0.291602 0.004917
v 0.226840 0.295037 0.023276
v 0.284481 0.368666 -0.013875
v 0.286736 0.363090 -0.024797
v 0.277002 0.365220 -0.032293
v 0.268731 0.372113 -0.026003
v 0.273354 0.374243 -0.014621
v 0.142439 0.184354 0.078006
v 0.156464 0.173138 0.056613
v 0.141604 0.177422 0.033354
v 0.118394 0.191286 0.040372
v 0.118910 0.195571 0.067968
v 0.206305 0.305820 0.049263
v 0.215001 0.298866 0.035999
v 0.205788 0.301522 0.021579
v 0.191398 0.310118 0.025930
v 0.191718 0.312774 0.043039
v 0.216241 0.305820 0.044704
v 0.214100 0.297124 0.026698
v 0.195295 0.300446 0.020388
v 0.185815 0.311195 0.034496
v 0.198759 0.314516 0.049524
v 0.242785 0.396368 -0.006447
v 0.241457 0.390976 -0.017611
v 0.229799 0.393035 -0.021523
v 0.223921 0.399700 -0.012776
v 0.231946 0.401759 -0.003459
v 0.212307 0.305820 0.048848
v 0.214099 0.293931 0.032727
v 0.199229 0.298472 0.019972
v 0.188247 0.313168 0.028209
v 0.196329 0.317710 0.046055
v 0.269803 0.377512 -0.002403
v 0.270914 0.370141 -0.012398
v 0.261695 0.372957 -0.020306
v 0.254886 0.382068 -0.015199
v 0.259897 0.384884 -0.004134
v 0.000504 0.018831 -0.065356
v -0.002197 0.000000 -0.031547
v 0.030046 0.007193 -0.011209
v 0.052674 0.030469 -0.032449
v 0.034417 0.037662 -0.065914
v -0.098856 0.216224 0.045107
v -0.100531 0.204549 0.066069
v -0.080540 0.209008 0.078678
v -0.066511 0.223440 0.065509
v -0.077830 0.227899 0.044761
v -0.107800 0.216224 0.066190
v -0.086401 0.208865 0.082564
v -0.062864 0.211676 0.067790
v -0.069716 0.220772 0.042285
v -0.097488 0.223583 0.041296
v -0.083630 0.389106 0.121354
v -0.070363 0.384543 0.131505
v -0.055770 0.386286 0.122346
v -0.060018 0.391926 0.106533
v -0.077237 0.393668 0.105920
v -0.086502 0.389106 0.118083
v -0.074189 0.383925 0.133117
v -0.055263 0.385904 0.126612
v -0.055878 0.392308 0.107558
v -0.075185 0.394287 0.102287
v -0.078571 0.521376 0.162283
v -0.070937 0.518164 0.171604
v -0.059203 0.519390 0.167570
v -0.059584 0.523361 0.155757
v -0.071554 0.524588 0.152489
v -0.069403 0.387098 0.100542
v -0.085307 0.385076 0.112684
v -0.079232 0.388622 0.131525
v -0.059575 0.392837 0.131027
v -0.053500 0.391895 0.111879
v -0.094033 0.501160 0.093612
v -0.103893 0.499906 0.101140
v -0.100127 0.502105 0.112821
v -0.087939 0.504718 0.112512
v -0.084173 0.504134 0.100640
v -0.084854 0.221859 0.036943
v -0.107336 0.220174 0.053431
v -0.098749 0.213030 0.079032
v -0.070959 0.210300 0.078366
v -0.062371 0.215757 0.052353
v -0.065741 0.403327 0.090535
v -0.079681 0.402282 0.100758
v -0.074356 0.397853 0.116630
v -0.057127 0.396161 0.116217
v -0.051802 0.399544 0.100089
v -0.077605 0.399833 0.117172
v -0.059902 0.390311 0.117803
v -0.050269 0.393948 0.100529
v -0.062018 0.405718 0.089220
v -0.078913 0.409355 0.099506
v -0.009949 0.521263 0.173266
v 0.001026 0.515360 0.173658
v 0.006999 0.517615 0.162947
v -0.000286 0.524912 0.155936
v -0.010760 0.527167 0.162314
v -0.065741 0.400495 0.087752
v -0.082006 0.400448 0.099579
v -0.075794 0.399551 0.118686
v -0.055689 0.399045 0.118666
v -0.049477 0.399628 0.099548
v -0.062028 0.547421 0.099944
v -0.072112 0.547392 0.107277
v -0.068260 0.546836 0.119123
v -0.055796 0.546522 0.119111
v -0.051944 0.546884 0.107257
v -0.080333 0.399833 0.095916
v -0.077425 0.391126 0.113809
v -0.058371 0.394452 0.119316
v -0.049503 0.405215 0.104826
v -0.063076 0.408540 0.090364
v -0.114405 0.519629 0.164041
v -0.112602 0.514231 0.175135
v -0.100789 0.516293 0.178549
v -0.095290 0.522966 0.169565
v -0.103706 0.525028 0.160599
v -0.098685 0.216224 0.040706
v -0.101427 0.199437 0.062861
v -0.081265 0.205849 0.081097
v -0.066062 0.226599 0.070212
v -0.076829 0.233011 0.045249
v -0.199327 0.333580 0.123865
v -0.201027 0.323171 0.137601
v -0.188526 0.327147 0.148907
v -0.179101 0.340012 0.142159
v -0.185776 0.343988 0.126682
v -0.207099 0.333580 0.130802
v -0.200176 0.326913 0.148467
v -0.180229 0.329459 0.148686
v -0.174823 0.337700 0.131156
v -0.191430 0.340246 0.120103
v -0.213660 0.430078 0.174139
v -0.209368 0.425945 0.185092
v -0.197000 0.427524 0.185228
v -0.193649 0.432633 0.174359
v -0.203945 0.434212 0.167506
v -0.200659 0.333580 0.121897
v -0.201408 0.320241 0.136929
v -0.187430 0.325336 0.150460
v -0.178042 0.341823 0.143790
v -0.186218 0.346918 0.126137
v -0.273393 0.399123 0.181545
v -0.273857 0.390854 0.190865
v -0.265190 0.394012 0.199254
v -0.259370 0.404234 0.195119
v -0.264439 0.407393 0.184174
v -0.203617 0.333580 0.124567
v -0.201751 0.321286 0.140373
v -0.184684 0.325982 0.149918
v -0.176002 0.341178 0.140011
v -0.187703 0.345874 0.124344
v -0.264726 0.420379 0.204158
v -0.263569 0.412757 0.213957
v -0.252987 0.415669 0.219875
v -0.247604 0.425090 0.213733
v -0.254859 0.428002 0.204019
v -0.005778 0.018831 -0.035875
v -0.039692 0.000000 -0.036285
v -0.057804 0.007193 -0.002742
v -0.035084 0.030469 0.018400
v -0.002930 0.037662 -0.002078
v -0.115357 0.202847 -0.120710
v -0.136384 0.191172 -0.120964
v -0.147614 0.195631 -0.100167
v -0.133527 0.210063 -0.087059
v -0.113592 0.214522 -0.099755
v -0.129295 0.205807 -0.129306
v -0.151204 0.209253 -0.112327
v -0.142835 0.203846 -0.086233
v -0.115754 0.197059 -0.087085
v -0.107386 0.198271 -0.113706
v -0.084363 0.381180 -0.098188
v -0.097946 0.383317 -0.087661
v -0.092758 0.379964 -0.071483
v -0.075967 0.375756 -0.072011
v -0.070779 0.376508 -0.088516
v -0.076207 0.379345 -0.068534
v -0.070744 0.369083 -0.084944
v -0.084102 0.373003 -0.099458
v -0.097820 0.385687 -0.092018
v -0.092941 0.389607 -0.072906
v -0.016557 0.467167 -0.108279
v -0.013171 0.460804 -0.118454
v -0.021452 0.463234 -0.127452
v -0.029957 0.471099 -0.122839
v -0.026932 0.473529 -0.110990
v -0.100005 0.379345 -0.076645
v -0.083656 0.370543 -0.068920
v -0.068284 0.373905 -0.081444
v -0.075132 0.384785 -0.096908
v -0.094737 0.388147 -0.093942
v -0.069619 0.473175 -0.024086
v -0.059483 0.467717 -0.019296
v -0.049952 0.469802 -0.027061
v -0.054198 0.476548 -0.036649
v -0.066353 0.478632 -0.034810
v -0.082673 0.379345 -0.066548
v -0.070393 0.370285 -0.079646
v -0.077418 0.373746 -0.098169
v -0.094041 0.384944 -0.096519
v -0.097288 0.388405 -0.076976
v -0.006144 0.495019 -0.080677
v 0.001469 0.489402 -0.088798
v -0.002887 0.491548 -0.100282
v -0.013193 0.498491 -0.099259
v -0.015206 0.500637 -0.087143
v -0.111045 0.202847 -0.120946
v -0.135045 0.188909 -0.124094
v -0.151098 0.194233 -0.101866
v -0.137020 0.211461 -0.084979
v -0.112266 0.216785 -0.096771
v -0.178708 0.323870 -0.188007
v -0.193588 0.315229 -0.189959
v -0.203541 0.318530 -0.176177
v -0.194813 0.329211 -0.165708
v -0.179465 0.332512 -0.173019
v -0.174968 0.323870 -0.186699
v -0.191189 0.313165 -0.191867
v -0.205799 0.317254 -0.178664
v -0.198606 0.330487 -0.165337
v -0.179552 0.334576 -0.170303
v -0.218748 0.415580 -0.254132
v -0.228805 0.408943 -0.257336
v -0.237863 0.411478 -0.249151
v -0.233403 0.419683 -0.240888
v -0.221590 0.422218 -0.243967
v -0.177862 0.323870 -0.190606
v -0.193305 0.311044 -0.189408
v -0.204212 0.315943 -0.173237
v -0.195510 0.331797 -0.164442
v -0.179225 0.336697 -0.175177
v -0.245380 0.393659 -0.249601
v -0.254955 0.385707 -0.248858
v -0.261717 0.388745 -0.238832
v -0.256321 0.398574 -0.233379
v -0.246225 0.401612 -0.240035
v -0.182494 0.323870 -0.193935
v -0.201365 0.318126 -0.190020
v -0.204562 0.320320 -0.170287
v -0.187666 0.327420 -0.162006
v -0.174028 0.329614 -0.176621
v -0.218934 0.422973 -0.204556
v -0.230634 0.419412 -0.202129
v -0.232616 0.420772 -0.189895
v -0.222141 0.425174 -0.184760
v -0.213685 0.426534 -0.193822
v -0.129295 0.199113 -0.129196
v -0.151859 0.200496 -0.112792
v -0.143241 0.205128 -0.086630
v -0.115349 0.206607 -0.086865
v -0.106730 0.202890 -0.113173
v -0.138633 0.372219 -0.147598
v -0.152623 0.373077 -0.137428
v -0.147279 0.375948 -0.121207
v -0.129986 0.376866 -0.121353
v -0.124643 0.374561 -0.137664
v -0.138633 0.372016 -0.149971
v -0.154762 0.371642 -0.137964
v -0.148601 0.375265 -0.119166
v -0.128664 0.377878 -0.119555
v -0.122504 0.375871 -0.138594
v -0.154848 0.493985 -0.161548
v -0.164848 0.493753 -0.154104
v -0.161029 0.495999 -0.142450
v -0.148668 0.497619 -0.142691
v -0.144849 0.496375 -0.154494
v -0.142702 0.374534 -0.116434
v -0.125599 0.367590 -0.124416
v -0.126508 0.370242 -0.144330
v -0.144173 0.378826 -0.148656
v -0.154181 0.381479 -0.131415
v -0.096727 0.471443 -0.111868
v -0.086123 0.467137 -0.116817
v -0.086687 0.468782 -0.129164
v -0.097639 0.474104 -0.131846
v -0.103844 0.475748 -0.121156
vn 0.7964 -0.5212 0.3067
vn 0.0385 0.0484 0.9981
vn 0.5039 -0.3036 -0.8086
vn -0.4348 0.4004 -0.8066
vn -0.7225 0.6180 0.3100
vn -0.6000 -0.8000 0.0013
vn 0.6000 0.8000 -0.0013
vn 0.7592 -0.6508 -0.0028
vn 0.4493 0.0415 0.8924
vn 0.0757 -0.3864 -0.9192
vn -0.6567 0.4694 -0.5903
vn -0.6567 0.4693 -0.5903
vn -0.4258 0.7338 0.5294
vn -0.6653 -0.6842 0.2988
vn 0.6653 0.6842 -0.2988
vn 0.4078 0.0511 0.9116
vn 0.7819 -0.6228 0.0281
vn 0.1419 -0.3654 -0.9200
vn -0.6277 0.4676 -0.6224
vn -0.4634 0.7250 0.5096
vn -0.6626 -0.7037 0.2562
vn 0.6626 0.7037 -0.2562
vn 0.8449 -0.4701 -0.2552
vn 0.6328 0.0545 0.7724
vn -0.0709 -0.2697 -0.9603
vn -0.8489 0.3788 -0.3686
vn -0.0708 -0.2697 -0.9603
vn -0.4140 0.5791 0.7023
vn -0.4400 -0.8333 0.3346
vn 0.4400 0.8333 -0.3346
vn 0.9085 -0.4152 0.0475
vn 0.3194 0.0559 0.9460
vn 0.2843 -0.2352 -0.9294
vn -0.6905 0.3471 -0.6347
vn 0.2843 -0.2353 -0.9294
vn -0.6688 0.5270 0.5244
vn -0.4751 -0.8681 0.1437
vn 0.4751 0.8681 -0.1437
vn 0.8465 0.0512 0.5299
vn 0.7216 -0.4562 -0.5207
vn -0.3756 -0.2624 -0.8889
vn -0.9288 0.3648 -0.0657
vn -0.1735 0.5586 0.8111
vn -0.2981 -0.8452 0.4436
vn 0.2981 0.8452 -0.4436
vn 0.6350 0.0422 0.7714
vn 0.7396 -0.6515 -0.1692
vn -0.1280 -0.3865 -0.9133
vn -0.7688 0.4709 -0.4328
vn -0.2972 0.7358 0.6084
vn -0.5846 -0.6826 0.4385
vn 0.5846 0.6826 -0.4385
vn -0.7875 -0.5293 0.3159
vn -0.7057 0.0406 -0.7073
vn 0.1883 -0.3116 0.9314
vn 0.8732 0.3928 0.2886
vn 0.3206 0.6105 -0.7242
vn 0.4375 -0.8000 -0.4106
vn -0.4375 0.8000 0.4106
vn -0.0609 -0.2627 0.9630
vn -0.9604 0.0466 0.2747
vn 0.9285 -0.1446 0.3419
vn 0.6405 0.2378 -0.7302
vn -0.5269 0.3560 -0.7718
vn -0.0845 -0.9455 -0.3145
vn 0.0845 0.9455 0.3145
vn -0.9979 0.0441 0.0470
vn -0.2790 -0.2584 0.9249
vn 0.8262 -0.1429 0.5450
vn 0.7902 0.2311 -0.5676
vn -0.3371 0.3466 -0.8753
vn -0.0103 -0.9479 -0.3183
vn 0.0103 0.9479 0.3183
vn -0.9399 -0.1812 -0.2893
vn -0.0117 -0.0632 -0.9979
vn -0.5854 0.0258 0.8103
vn 0.5619 0.2718 0.7813
vn 0.9165 0.2168 -0.3363
vn 0.2110 -0.9707 0.1147
vn -0.2110 0.9707 -0.1147
vn 0.0048 0.2828 -0.9592
vn -0.9404 0.2119 -0.2660
vn -0.5794 -0.0884 0.8103
vn 0.5889 -0.2031 0.7822
vn 0.9499 0.0262 -0.3113
vn -0.1006 -0.9665 -0.2359
vn 0.1006 0.9665 0.2359
vn -0.6745 0.0352 0.7374
vn 0.3593 -0.5209 0.7743
vn 0.9219 -0.3085 -0.2345
vn 0.2357 0.3788 -0.8949
vn -0.7509 0.5912 -0.2942
vn -0.4217 -0.8109 -0.4058
vn 0.4217 0.8109 0.4058
vn -0.9487 0.0799 -0.3059
vn 0.0011 0.0827 -0.9966
vn -0.5859 0.0276 0.8099
vn -0.9487 0.0799 -0.3058
vn 0.5881 -0.0020 0.8088
vn 0.9509 0.0320 -0.3077
vn -0.0252 -0.9989 -0.0387
vn 0.0252 0.9989 0.0387
vn -0.6950 -0.4698 0.5443
vn -0.8648 0.0387 -0.5006
vn 0.4176 -0.2755 0.8658
vn 0.9354 0.3529 0.0197
vn 0.1429 0.5471 -0.8248
vn 0.2794 -0.8447 -0.4565
vn -0.2794 0.8447 0.4565
vn -0.7277 -0.6712 0.1414
vn -0.6124 0.0344 -0.7898
vn 0.1198 -0.4017 0.9079
vn 0.7588 0.4705 0.4504
vn 0.3062 0.7400 -0.5988
vn 0.6040 -0.6694 -0.4325
vn -0.6040 0.6694 0.4325
vn -0.5573 -0.3330 0.7606
vn -0.9612 0.0560 -0.2701
vn 0.6065 -0.1844 0.7734
vn 0.9219 0.2963 -0.2494
vn -0.0470 0.4449 -0.8943
vn 0.1207 -0.9122 -0.3916
vn -0.1207 0.9122 0.3916
vn -0.6598 -0.7460 0.0903
vn -0.6161 0.0325 -0.7870
vn 0.1560 -0.4486 0.8800
vn 0.7038 0.5136 0.4908
vn 0.2267 0.8109 -0.5395
vn 0.6683 -0.5726 -0.4748
vn -0.6683 0.5726 0.4748
vn -0.6666 -0.6857 0.2923
vn -0.7756 0.0321 -0.6305
vn 0.3298 -0.4115 0.8496
vn -0.6666 -0.6857 0.2924
vn 0.8367 0.4757 0.2712
vn 0.1536 0.7499 -0.6435
vn 0.4980 -0.6550 -0.5683
vn -0.4980 0.6550 0.5683
vn -0.3699 -0.5262 -0.7657
vn 0.6563 0.0435 -0.7533
vn -0.9179 -0.3086 0.2493
vn -0.2305 0.3957 0.8890
vn 0.7425 0.6133 0.2694
vn 0.4393 -0.8000 0.4087
vn -0.4393 0.8000 -0.4087
vn -0.9089 0.3166 -0.2713
vn 0.0120 0.1717 -0.9851
vn -0.5572 0.0893 0.8256
vn 0.5812 -0.1960 0.7898
vn 0.9330 -0.1451 -0.3293
vn -0.2449 -0.9620 -0.1208
vn 0.2449 0.9620 0.1208
vn 0.8266 -0.5544 -0.0973
vn 0.5078 0.0445 0.8604
vn 0.0470 -0.3256 -0.9443
vn -0.7536 0.4146 -0.5101
vn -0.4688 0.6434 0.6052
vn -0.5544 -0.7760 0.3007
vn 0.5544 0.7760 -0.3007
vn 0.0540 -0.4648 0.8838
vn -0.9001 0.0489 0.4330
vn 0.9510 -0.2685 0.1530
vn 0.5514 0.3664 -0.7495
vn -0.5927 0.5626 -0.5764
vn -0.2191 -0.8410 -0.4947
vn 0.2191 0.8410 0.4947
vn 0.1245 0.0387 0.9915
vn 0.8416 -0.4903 0.2267
vn 0.4313 -0.2882 -0.8549
vn -0.5393 0.3657 -0.7586
vn -0.7289 0.5678 0.3826
vn -0.5541 -0.8306 0.0550
vn 0.5541 0.8306 -0.0550
vn -0.2647 -0.5395 -0.7993
vn 0.7436 0.0461 -0.6670
vn -0.9392 -0.3158 0.1346
vn -0.3477 0.4081 0.8441
vn 0.6923 0.6317 0.3487
vn 0.3950 -0.7871 0.4738
vn -0.3950 0.7871 -0.4738
vn -0.0848 -0.5848 -0.8068
vn 0.8621 0.0401 -0.5051
vn -0.9375 -0.3461 -0.0361
vn -0.5177 0.4263 0.7418
vn 0.5946 0.6650 0.4519
vn 0.5945 0.6650 0.4519
vn 0.3125 -0.7530 0.5790
vn -0.3125 0.7530 -0.5790
vn 0.6780 0.0352 -0.7343
vn -0.2233 -0.7133 -0.6643
vn -0.8598 -0.4274 0.2794
vn -0.3519 0.4978 0.7927
vn 0.5985 0.7837 0.1662
vn 0.5545 -0.6152 0.5604
vn -0.5545 0.6152 -0.5604
vn -0.6812 -0.2778 -0.6774
vn 0.4199 0.0573 -0.9058
vn -0.8677 -0.1498 0.4740
vn 0.1181 0.2644 0.9571
vn 0.9138 0.3924 0.1044
vn 0.3170 -0.9356 0.1554
vn -0.3170 0.9356 -0.1554
vn -0.9512 -0.0477 -0.3049
vn -0.0028 -0.1059 -0.9944
vn -0.5889 0.1469 0.7947
vn 0.5834 0.2091 0.7848
vn 0.9456 0.0529 -0.3209
vn 0.0536 -0.9862 0.1569
vn -0.0536 0.9862 -0.1569
vn -0.0069 -0.0954 -0.9954
vn -0.9484 -0.1173 -0.2945
vn -0.5888 0.0942 0.8028
vn 0.5750 0.2468 0.7801
vn 0.9346 0.1296 -0.3313
vn 0.1314 -0.9805 0.1459
vn -0.1314 0.9805 -0.1459
vn 0.7856 -0.3505 0.5099
vn -0.2123 0.0548 0.9757
vn 0.7325 -0.1957 -0.6520
vn -0.2982 0.3052 -0.9044
vn -0.8821 0.4600 0.1015
vn -0.4146 -0.9043 -0.1015
vn 0.4146 0.9043 0.1015
vn 0.4217 0.8108 0.4059
vn -0.2794 0.8448 0.4565
vt 0.036715 -0.037662
vt 0.234829 0.331046
vt -0.013401 0.000000
vt -0.065634 -0.023276
vt -0.131131 0.307696
vt -0.139382 -0.037662
vt 0.044696 0.023276
vt -0.253909 0.316615
vt -0.017374 -0.023276
vt 0.139601 0.037662
vt 0.085491 0.345478
vt 0.065769 0.023276
vt 0.203633 0.354397
vt -0.063716 0.037662
vt -0.063716 -0.139601
vt 0.017374 -0.065634
vt 0.036715 -0.139382
vt 0.234829 0.159474
vt 0.265901 0.131131
vt 0.253909 0.085407
vt -0.119281 0.298088
vt -0.056628 0.534424
vt -0.161903 0.331046
vt 0.236424 -0.075654
vt 0.453698 -0.030202
vt 0.268964 -0.119281
vt -0.236424 0.310677
vt -0.411904 0.547053
vt -0.433522 0.521795
vt 0.201555 0.091313
vt 0.418718 0.045911
vt 0.411904 0.012862
vt 0.254207 0.331046
vt 0.418718 0.554858
vt 0.212546 0.364005
vt 0.212546 -0.144618
vt 0.201555 -0.091313
vt 0.453698 0.030202
vt 0.433522 0.003154
vt -0.061663 0.534424
vt 0.015043 0.645851
vt -0.003749 0.660185
vt 0.435695 0.001170
vt 0.566498 0.015043
vt 0.457650 -0.031354
vt -0.409295 0.548712
vt -0.552886 0.651326
vt -0.435695 0.520136
vt 0.414933 0.047872
vt 0.536518 -0.028879
vt 0.409295 0.009039
vt 0.444818 0.534424
vt 0.540013 0.674518
vt 0.414933 0.557542
vt 0.409295 -0.009039
vt 0.558542 0.003749
vt 0.566498 -0.015043
vt 0.552886 -0.035208
vt -0.021754 0.516436
vt 0.019722 0.699671
vt -0.056986 0.534424
vt -0.429062 0.523306
vt -0.537087 0.688518
vt -0.460461 0.516436
vt -0.402383 0.545542
vt -0.517619 0.692778
vt 0.054581 0.552413
vt -0.043978 0.706564
vt 0.017863 0.545542
vt 0.453189 0.534424
vt 0.510323 0.710824
vt 0.417295 0.552413
vt 0.402383 -0.017863
vt 0.429062 0.002425
vt 0.460461 -0.021754
vt 0.537087 -0.041566
vt 0.517619 -0.056557
vt 0.501078 -0.043978
vt -0.121255 0.308613
vt -0.106554 0.573978
vt -0.164040 0.331046
vt -0.074737 0.317182
vt -0.080027 0.560070
vt -0.200403 0.344911
vt -0.375191 0.565382
vt -0.246823 0.317182
vt 0.143965 0.353480
vt 0.059888 0.582574
vt 0.088773 0.344911
vt 0.248493 0.331046
vt 0.347051 0.587887
vt 0.201435 0.353480
vt 0.201435 -0.143965
vt 0.200403 -0.088773
vt 0.246823 -0.074737
vt 0.376226 0.106554
vt 0.375191 0.051186
vt 0.346411 0.059888
vt -0.097437 0.573978
vt 0.027194 0.744290
vt 0.004866 0.755073
vt -0.354206 0.563230
vt -0.446530 0.744290
vt -0.391815 0.556587
vt 0.048805 0.563230
vt -0.017524 0.761737
vt -0.035018 0.748409
vt 0.107076 0.591370
vt 0.077020 0.584727
vt 0.361134 0.591370
vt 0.449185 0.755073
vt 0.427508 0.765856
vt 0.361134 -0.107076
vt 0.335245 -0.077020
vt 0.354206 -0.048805
vt 0.449185 -0.004866
vt 0.423213 -0.035018
vt 0.411457 -0.017524
vt -0.105723 0.573978
vt 0.016767 0.702620
vt -0.003223 0.717363
vt 0.362073 -0.047971
vt 0.505444 0.016767
vt 0.391813 -0.073482
vt -0.362073 0.559282
vt -0.473387 0.726475
vt -0.487005 0.708251
vt 0.340109 0.064446
vt 0.483409 -0.000240
vt 0.473387 -0.022370
vt 0.356274 0.597757
vt 0.503221 0.717363
vt 0.483409 0.732106
vt 0.356274 -0.100138
vt 0.340109 -0.064446
vt 0.505444 -0.016767
vt 0.487005 -0.032584
vt -0.055065 -0.037662
vt 0.098242 0.394786
vt -0.122683 0.000000
vt -0.040778 -0.037662
vt -0.197465 0.380355
vt -0.237446 0.371436
vt 0.023708 -0.023276
vt -0.169406 0.409217
vt 0.056870 0.023276
vt -0.097551 0.418136
vt -0.139047 0.409217
vt 0.035376 0.000000
vt 0.192045 0.418136
vt -0.032449 0.037662
vt 0.032449 0.123799
vt 0.068965 0.056870
vt 0.023708 0.014390
vt -0.234097 0.098242
vt -0.197465 0.165384
vt -0.169406 0.139047
vt -0.209186 0.380068
vt -0.203645 0.740550
vt -0.251984 0.394786
vt -0.147924 0.734910
vt -0.177110 0.731425
vt -0.092598 0.403882
vt -0.252719 0.734910
vt -0.143607 0.385690
vt 0.175816 0.403882
vt 0.190858 0.749675
vt 0.156420 0.746189
vt 0.140408 0.394786
vt 0.219868 0.749675
vt 0.090621 0.409504
vt -0.231360 -0.090621
vt -0.175816 -0.092598
vt -0.162112 -0.143607
vt -0.177110 0.271039
vt -0.147924 0.252719
vt -0.156420 0.221094
vt 0.244195 0.740550
vt 0.351235 0.998665
vt 0.332594 1.005090
vt -0.146911 0.734146
vt -0.178259 0.998665
vt -0.184763 0.730188
vt -0.261252 0.734146
vt -0.319542 1.009060
vt -0.343169 1.001119
vt 0.186754 0.750912
vt 0.155553 1.009060
vt 0.148141 0.746954
vt 0.313006 1.011514
vt 0.212602 0.750912
vt -0.186754 -0.212602
vt -0.146911 -0.261252
vt -0.184763 -0.274262
vt -0.193526 0.332594
vt -0.178259 0.351235
vt -0.154790 0.343169
vt 0.206998 0.732490
vt 0.224451 0.964658
vt 0.175191 0.736535
vt 0.233397 0.732490
vt 0.233670 0.966547
vt 0.210308 0.962150
vt -0.194849 0.739583
vt -0.212263 0.971773
vt -0.236639 0.966547
vt -0.231786 0.746128
vt -0.233052 0.971773
vt -0.270082 0.748012
vt 0.204730 0.970605
vt 0.143384 0.746128
vt -0.155534 -0.270082
vt -0.194849 -0.271078
vt -0.206998 -0.233397
vt -0.244171 0.210308
vt -0.236639 0.233670
vt -0.212263 0.233052
vt 0.206092 0.406055
vt 0.195746 0.766903
vt 0.167867 0.768992
vt 0.166092 0.388399
vt 0.209544 0.766903
vt 0.114891 0.402686
vt -0.178302 0.382939
vt -0.185097 0.758045
vt -0.233881 0.388399
vt -0.112734 0.393851
vt -0.240463 0.754660
vt -0.164759 0.382939
vt 0.139989 0.761425
vt 0.161127 0.393851
vt -0.161127 -0.112734
vt -0.178302 -0.164759
vt -0.233881 -0.166092
vt -0.195746 0.209544
vt -0.185097 0.241289
vt -0.150638 0.240463
vt -0.191594 0.762005
vt -0.034332 0.993057
vt -0.056283 1.004865
vt -0.243635 0.742961
vt -0.333923 0.997567
vt -0.355344 0.993057
vt -0.186469 0.773775
vt -0.209085 0.750235
vt 0.160421 0.773775
vt 0.057905 1.016672
vt 0.036956 1.012162
vt 0.242372 0.762005
vt 0.332655 1.016672
vt 0.207041 0.781049
vt -0.160421 -0.186469
vt -0.136923 -0.209085
vt -0.156189 -0.243635
vt -0.056283 0.354560
vt -0.034332 0.355344
vt -0.022387 0.333923
vt 0.200397 0.763233
vt 0.160440 1.057181
vt 0.167867 0.763328
vt 0.245399 0.761441
vt 0.222582 1.057122
vt 0.207187 0.763233
vt -0.147763 0.760428
vt -0.172905 1.056010
vt -0.187972 0.761441
vt -0.207124 0.761594
vt -0.246249 1.055382
vt -0.245360 0.760428
vt 0.135338 0.761594
vt 0.140272 1.056106
vt -0.135338 -0.207124
vt -0.187972 -0.245399
vt -0.200397 -0.207187
vt -0.180609 0.222582
vt -0.172905 0.246274
vt -0.147976 0.246249
vt 0.235647 0.744591
vt 0.336110 1.001597
vt 0.199860 0.762005
vt -0.191235 0.744591
vt -0.237962 0.994924
vt -0.261589 0.990800
vt -0.217680 0.772767
vt -0.365126 0.994924
vt -0.246660 0.751242
vt -0.329225 1.012393
vt -0.347158 1.008270
vt 0.197050 0.762005
vt 0.243796 1.012393
vt 0.162536 0.779419
vt -0.162536 -0.188756
vt -0.135390 -0.217680
vt -0.153126 -0.246660
vt -0.265195 0.336110
vt -0.261589 0.358298
vt -0.237962 0.365126
vt 0.133749 0.361211
vt 0.255758 0.629497
vt 0.089440 0.394786
vt -0.198914 -0.170221
vt -0.438438 -0.283230
vt -0.239239 -0.133749
vt -0.168509 0.415536
vt -0.413437 0.616632
vt -0.198914 0.374036
vt -0.168509 0.148452
vt -0.407936 0.261392
vt -0.394586 0.292346
vt 0.233755 0.394786
vt 0.407936 0.650314
vt 0.190041 0.428361
vt -0.190041 -0.098527
vt -0.435038 0.255758
vt -0.438438 0.283230
vt -0.413437 0.305843
vt 0.304963 0.616164
vt 0.356307 0.822495
vt 0.269632 0.629497
vt -0.396842 0.621257
vt -0.455121 0.814228
vt -0.436737 0.616164
vt -0.305401 0.621257
vt -0.356746 0.827604
vt -0.378484 0.817386
vt 0.386031 0.637738
vt 0.444275 0.830761
vt 0.423682 0.827604
vt 0.419244 0.642831
vt 0.463705 0.822495
vt -0.386031 -0.270340
vt -0.396842 -0.305401
vt -0.436737 -0.304963
vt -0.463705 0.356307
vt -0.430385 0.378484
vt -0.423682 0.356746
vt 0.281886 0.602821
vt 0.371119 0.760585
vt 0.251822 0.629497
vt -0.439200 -0.281886
vt -0.566765 -0.406537
vt -0.584099 -0.389759
vt -0.392468 0.645985
vt -0.566765 0.750363
vt -0.411244 0.613010
vt -0.392468 0.295609
vt -0.565263 0.376377
vt -0.555125 0.398267
vt 0.408821 0.656174
vt 0.583170 0.760585
vt 0.565263 0.777125
vt -0.295609 0.645985
vt -0.308948 0.613010
vt -0.281886 0.602821
vt 0.406537 0.750363
vt 0.398267 0.770807
vt 0.288774 0.604910
vt 0.416344 0.803097
vt 0.257163 0.629497
vt -0.405752 0.614301
vt -0.563522 0.787852
vt -0.439887 0.604910
vt -0.307864 0.614301
vt -0.435494 0.812518
vt -0.447779 0.793675
vt -0.411791 0.256716
vt -0.531593 0.435494
vt -0.388388 0.288051
vt 0.411791 0.654085
vt 0.565836 0.803097
vt 0.546103 0.818341
vt -0.411791 -0.256716
vt -0.388388 -0.288051
vt -0.405752 -0.307864
vt -0.563522 0.435943
vt -0.542359 0.447779
vt 0.115769 -0.037662
vt 0.267099 0.368032
vt 0.047940 0.000000
vt -0.064542 -0.037662
vt -0.192306 0.353601
vt -0.233900 0.344682
vt -0.151993 -0.023276
vt -0.303439 0.382464
vt -0.331612 0.353601
vt -0.042244 0.037662
vt -0.106553 0.023276
vt 0.063722 0.000000
vt 0.191483 0.391383
vt -0.003872 0.037662
vt -0.042244 -0.003872
vt -0.151993 -0.002545
vt -0.115769 0.064542
vt -0.309153 -0.233900
vt -0.331612 -0.192306
vt -0.303439 -0.166091
vt 0.338792 0.380843
vt 0.205110 0.724698
vt 0.294974 0.373952
vt -0.164437 0.370030
vt -0.167294 0.728971
vt -0.216625 0.380843
vt -0.322055 0.370030
vt -0.188319 0.713851
vt -0.221900 0.722267
vt 0.166141 0.356456
vt 0.169004 0.715354
vt 0.135994 0.713851
vt 0.177942 0.715354
vt 0.251156 0.358880
vt -0.251156 0.219383
vt -0.267893 0.166141
vt -0.322055 0.164437
vt -0.205110 -0.188348
vt -0.232277 -0.167294
vt -0.221900 -0.134937
vt 0.161859 0.700504
vt 0.208530 0.896671
vt 0.129039 0.721028
vt 0.204588 0.708344
vt 0.062726 0.883946
vt 0.177873 0.700504
vt 0.232024 0.733713
vt 0.079289 0.888807
vt -0.137783 0.741552
vt -0.237651 0.904536
vt -0.176007 0.733713
vt -0.188798 0.721028
vt -0.090249 0.909396
vt -0.222266 0.741552
vt -0.222266 0.137783
vt -0.232024 0.176007
vt -0.204588 0.190887
vt -0.069499 -0.208530
vt -0.079289 -0.246876
vt -0.096299 -0.237651
vt -0.203696 0.703423
vt -0.175623 0.908688
vt -0.236394 0.721028
vt -0.172952 0.710148
vt -0.155350 0.897773
vt 0.154859 0.710148
vt 0.065270 0.915433
vt 0.046094 0.901942
vt 0.225858 0.738633
vt 0.144781 0.915433
vt 0.186649 0.731909
vt -0.145261 0.721028
vt -0.061592 0.919603
vt -0.179856 0.738633
vt -0.225858 0.179856
vt -0.186649 0.185788
vt -0.172952 0.154859
vt -0.175623 -0.040143
vt -0.155350 -0.030565
vt -0.136289 -0.046094
vt -0.201730 0.721028
vt -0.033446 0.941143
vt -0.048673 0.952377
vt 0.151264 0.702908
vt 0.192536 0.945434
vt 0.169568 0.941143
vt 0.224466 0.732227
vt 0.042158 0.945434
vt 0.191221 0.709830
vt -0.145924 0.739148
vt -0.190490 0.959320
vt -0.185010 0.732227
vt -0.066796 0.963611
vt -0.230961 0.739148
vt -0.230961 0.145924
vt -0.224466 0.185010
vt -0.191221 0.188310
vt -0.048673 -0.153326
vt -0.042158 -0.192536
vt -0.062770 -0.190490
vt 0.306474 0.340156
vt 0.393800 0.610079
vt 0.258475 0.368032
vt -0.195703 0.350804
vt -0.371890 0.592796
vt -0.240160 0.340156
vt -0.323387 0.620760
vt -0.344327 0.599397
vt -0.260916 0.395908
vt -0.426009 0.620760
vt -0.310425 0.385261
vt 0.233863 0.368032
vt 0.338009 0.627362
vt 0.185514 0.395908
vt -0.260916 0.185514
vt -0.338581 0.195703
vt -0.306474 0.240160
vt -0.393800 -0.367986
vt -0.443466 -0.344327
vt -0.426009 -0.323387
vt 0.418763 0.588668
vt 0.473880 0.793499
vt 0.386321 0.610079
vt -0.349301 0.596846
vt -0.506644 0.780224
vt -0.375705 0.588668
vt -0.322647 0.623311
vt -0.490273 0.785295
vt -0.433597 0.623311
vt -0.479564 0.806774
vt -0.503191 0.801703
vt 0.365369 0.610079
vt 0.479905 0.806774
vt 0.332578 0.631490
vt -0.395488 0.332578
vt -0.433597 0.322647
vt -0.447982 0.349301
vt -0.493994 -0.506644
vt -0.512110 -0.490273
vt -0.503191 -0.473748
vt 0.392109 0.610079
vt 0.546294 0.733752
vt 0.527144 0.749657
vt -0.422995 0.370787
vt -0.559818 0.469636
vt -0.546294 0.489687
vt -0.320856 0.625933
vt -0.469636 0.739827
vt -0.338446 0.594225
vt -0.394834 -0.342325
vt -0.549027 -0.458730
vt -0.427404 -0.320856
vt 0.373185 0.610079
vt 0.472041 0.765561
vt 0.342325 0.635731
vt -0.394834 0.342325
vt -0.444809 0.338446
vt -0.527144 -0.491174
vt -0.559818 -0.469636
vt 0.439114 0.598591
vt 0.474252 0.808284
vt 0.401372 0.610079
vt -0.332546 0.602979
vt -0.396230 0.801161
vt -0.372013 0.598591
vt -0.445508 0.602979
vt -0.480666 0.812686
vt -0.501616 0.803882
vt -0.384440 0.621567
vt -0.411717 0.617179
vt 0.345214 0.621567
vt 0.401085 0.808284
vt 0.379615 0.815407
vt -0.384440 0.345214
vt -0.445508 0.332546
vt -0.439114 0.372013
vt -0.474252 -0.401085
vt -0.497652 -0.396230
vt -0.501616 -0.371761
vt 0.340103 0.363331
vt 0.313650 0.706777
vt 0.294974 0.360565
vt -0.217555 0.363331
vt -0.234387 0.714235
vt -0.266827 0.708492
vt -0.267083 0.375553
vt -0.330942 0.714235
vt -0.322866 0.372594
vt 0.165703 0.375553
vt 0.267299 0.711460
vt 0.234678 0.716070
vt 0.285670 0.711460
vt 0.249845 0.368119
vt -0.249845 0.218317
vt -0.267083 0.165703
vt -0.322866 0.165232
vt -0.313650 -0.287168
vt -0.341630 -0.266827
vt -0.330942 -0.234387
vt 0.313650 0.706371
vt 0.366081 0.949844
vt 0.346081 0.950308
vt -0.267900 0.705622
vt -0.276871 0.954336
vt -0.300180 0.949844
vt -0.293713 0.718095
vt -0.358442 0.954336
vt -0.333586 0.712867
vt 0.231082 0.718095
vt 0.300961 0.955088
vt 0.277353 0.957577
vt 0.281392 0.714079
vt 0.326082 0.955088
vt -0.293713 0.231082
vt -0.333586 0.230304
vt -0.345907 0.267900
vt -0.346081 -0.315069
vt -0.366081 -0.300180
vt -0.358442 -0.276871
vt -0.287583 0.697517
vt -0.229839 0.905224
vt -0.321788 0.711407
vt 0.280632 0.702823
vt 0.225606 0.896612
vt 0.240803 0.697517
vt 0.289401 0.702823
vt 0.231663 0.910546
vt 0.209759 0.899901
vt -0.254802 0.725296
vt -0.255663 0.910546
vt -0.289283 0.719991
vt -0.215708 0.905224
vt -0.234285 0.913835
vt -0.344747 0.254802
vt -0.289401 0.280632
vt -0.287583 0.240803
vt -0.229839 -0.215708
vt -0.208631 -0.225606
vt -0.209759 -0.250299
vt 0.265901 0.307696
vt -0.085407 0.316615
vt -0.215425 0.345478
vt 0.131267 0.354397
vt -0.013401 -0.185096
vt -0.044696 -0.065769
vt 0.215425 0.085491
vt 0.203633 0.131267
vt -0.030202 0.513990
vt 0.433522 -0.003154
vt -0.201555 0.351416
vt 0.212546 0.144618
vt 0.444548 0.534424
vt 0.254207 -0.161903
vt 0.444548 0.056628
vt -0.031354 0.511306
vt 0.552886 0.035208
vt -0.536518 0.669043
vt 0.540013 -0.004802
vt 0.558542 0.660185
vt 0.444818 -0.061663
vt 0.414933 -0.047872
vt 0.041566 0.688518
vt -0.501078 0.706564
vt -0.021213 0.710824
vt 0.532578 0.699671
vt 0.453189 -0.056986
vt 0.417295 -0.054581
vt 0.510323 -0.021213
vt 0.532578 -0.019722
vt -0.051186 0.565382
vt -0.346411 0.582574
vt 0.094107 0.587887
vt 0.376226 0.573978
vt 0.276544 -0.121255
vt 0.248493 -0.164040
vt 0.347051 0.094107
vt 0.393618 0.080027
vt -0.061423 0.556587
vt -0.423213 0.748409
vt 0.001110 0.765856
vt 0.396097 0.573978
vt 0.391815 -0.061423
vt 0.396097 -0.097437
vt 0.427508 0.001110
vt 0.446530 -0.027194
vt -0.073482 0.550200
vt 0.487005 0.032584
vt -0.340109 0.588675
vt 0.356274 0.100138
vt 0.388229 0.573978
vt 0.388229 -0.105723
vt 0.503221 0.003223
vt 0.140166 0.371436
vt 0.068965 0.023276
vt 0.123799 0.037662
vt 0.234097 0.394786
vt -0.040778 0.055065
vt -0.035376 0.122683
vt -0.192045 0.097551
vt -0.237446 0.140166
vt -0.162112 0.385690
vt -0.221094 0.746189
vt 0.231360 0.409504
vt 0.250736 0.740550
vt -0.209186 -0.173155
vt -0.251984 -0.140408
vt -0.190858 0.219868
vt -0.203645 0.250736
vt 0.274262 0.730188
vt -0.154790 1.001119
vt -0.223144 0.746954
vt 0.179493 1.011514
vt -0.209388 -0.244195
vt -0.148141 -0.223144
vt -0.155553 0.319542
vt -0.179493 0.313006
vt 0.244171 0.962150
vt 0.271078 0.739583
vt -0.155534 0.748012
vt -0.209309 0.970605
vt -0.175191 -0.209113
vt -0.143384 -0.231786
vt -0.204730 0.209309
vt -0.224451 0.195252
vt 0.251057 0.402686
vt 0.241289 0.758045
vt -0.150638 0.754660
vt -0.208207 0.761425
vt -0.251057 -0.114891
vt -0.206092 -0.081914
vt -0.139989 0.208207
vt -0.167867 0.189098
vt -0.156189 0.742961
vt -0.319901 1.012162
vt 0.194210 0.781049
vt 0.354560 1.004865
vt -0.191594 -0.242372
vt -0.194210 -0.207041
vt -0.036956 0.319901
vt -0.057905 0.332655
vt 0.180609 1.057122
vt 0.246274 1.056010
vt -0.147976 1.055382
vt -0.222543 1.056106
vt -0.167867 -0.183532
vt -0.147763 -0.245360
vt -0.140272 0.222543
vt -0.160440 0.207916
vt 0.358298 0.990800
vt -0.153126 0.751242
vt -0.188756 0.779419
vt 0.265195 1.001597
vt -0.191235 -0.235647
vt -0.197050 -0.199860
vt -0.226965 0.347158
vt -0.243796 0.329225
vt 0.283230 0.608681
vt -0.413437 -0.305843
vt -0.394586 0.642363
vt -0.190041 0.098527
vt 0.435038 0.629497
vt -0.233755 -0.089440
vt -0.168509 -0.148452
vt 0.378213 0.814228
vt -0.430385 0.817386
vt -0.270340 0.637738
vt 0.450583 0.629497
vt -0.450583 -0.269632
vt -0.419244 -0.248233
vt -0.444275 0.343040
vt -0.455121 0.378213
vt 0.389759 0.744045
vt -0.411244 -0.308948
vt -0.555125 0.770807
vt -0.408821 0.260303
vt 0.437703 0.629497
vt -0.251822 0.629497
vt -0.260303 0.656174
vt 0.376377 0.777125
vt 0.435943 0.787852
vt -0.542359 0.793675
vt -0.288051 0.644694
vt -0.546103 0.416067
vt 0.443618 0.629497
vt -0.439887 -0.288774
vt -0.443618 -0.257163
vt -0.565836 0.416344
vt 0.309153 0.344682
vt 0.002545 -0.023276
vt -0.263568 0.391383
vt 0.233391 0.368032
vt -0.047940 0.063722
vt -0.106553 -0.044827
vt -0.263568 -0.191483
vt -0.267099 -0.233391
vt 0.232277 0.728971
vt -0.134937 0.722267
vt -0.267893 0.356456
vt 0.219383 0.358880
vt -0.338792 0.216625
vt -0.294974 0.250584
vt -0.188319 -0.135994
vt -0.177942 -0.169004
vt 0.228879 0.883946
vt 0.096299 0.904536
vt -0.213952 0.909396
vt -0.069499 0.896671
vt -0.177873 0.161859
vt -0.188798 0.129039
vt -0.090249 -0.213952
vt -0.062726 -0.228879
vt -0.136289 0.901942
vt 0.185788 0.731909
vt 0.169091 0.919603
vt -0.040143 0.908688
vt -0.203696 0.129812
vt -0.236394 0.145261
vt -0.144781 -0.065270
vt -0.169091 -0.061592
vt -0.177170 0.702908
vt 0.188310 0.709830
vt 0.062770 0.959320
vt -0.166257 0.963611
vt -0.177170 0.151264
vt -0.201730 0.125068
vt -0.066796 -0.166257
vt -0.033446 -0.169568
vt 0.423560 0.592796
vt -0.161930 0.385261
vt -0.395314 0.627362
vt 0.367986 0.610079
vt -0.258475 0.233863
vt -0.310425 0.161930
vt -0.395314 -0.338009
vt -0.423560 -0.371890
vt 0.493994 0.780224
vt -0.473748 0.801703
vt -0.395488 0.631490
vt 0.500236 0.793499
vt -0.418763 0.375705
vt -0.386321 0.365369
vt -0.479564 -0.479905
vt -0.473880 -0.500236
vt 0.422995 0.584426
vt -0.458730 0.759486
vt -0.528834 -0.472041
vt 0.491174 0.749657
vt -0.392109 0.373185
vt -0.427404 0.320856
vt -0.546294 -0.489687
vt 0.497652 0.801161
vt -0.371761 0.803882
vt -0.463754 0.815407
vt 0.379842 0.610079
vt -0.401372 0.379842
vt -0.411717 0.315984
vt -0.480666 -0.361492
vt -0.463754 -0.379615
vt 0.341630 0.708492
vt -0.165232 0.372594
vt -0.296357 0.716070
vt 0.218317 0.368119
vt -0.340103 0.217555
vt -0.294974 0.250364
vt -0.296357 -0.234678
vt -0.285670 -0.267299
vt 0.345907 0.705622
vt -0.230304 0.712867
vt -0.333721 0.957577
vt 0.269159 0.714079
vt -0.313650 0.291914
vt -0.281392 0.269159
vt -0.333721 -0.277353
vt -0.326082 -0.300961
vt -0.208631 0.896612
vt 0.250299 0.899901
vt 0.324731 0.719991
vt -0.224839 0.711407
vt -0.321788 0.224839
vt -0.324731 0.289283
vt -0.231663 -0.255663
vt -0.244073 -0.234285
s 1
f 2/1/1 6/2/2 1/3/2
f 3/4/3 7/5/1 2/6/1
f 4/7/4 8/8/3 3/9/3
f 5/10/5 9/11/4 4/12/4
f 1/3/2 10/13/5 5/14/5
s 0
f 5/15/6 3/16/6 2/17/6
f 6/18/7 7/19/7 8/20/7
s 1
f 12/21/8 16/22/9 11/23/9
f 13/24/10 17/25/8 12/26/8
f 13/27/10 19/28/11 18/29/10
f 14/30/12 20/31/13 19/32/11
f 11/33/9 20/34/13 15/35/13
s 0
f 15/36/14 14/37/14 13/24/14
f 17/38/15 18/39/15 19/32/15
s 1
f 21/40/16 27/41/17 26/42/16
f 23/43/18 27/44/17 22/45/17
f 24/46/19 28/47/18 23/48/18
f 25/49/20 29/50/19 24/51/19
f 21/52/16 30/53/20 25/54/20
s 0
f 24/55/21 23/43/21 22/45/21
f 26/56/22 27/57/22 28/58/22
s 1
f 32/59/23 36/60/24 31/61/24
f 33/62/25 37/63/23 32/64/23
f 34/65/26 38/66/27 33/62/25
f 35/67/28 39/68/26 34/69/26
f 31/70/24 40/71/28 35/72/28
s 0
f 34/73/29 33/74/29 32/75/29
f 37/76/30 38/77/30 39/78/30
s 1
f 42/79/31 46/80/32 41/81/32
f 43/82/33 47/83/31 42/79/31
f 44/84/34 48/85/35 43/86/33
f 45/87/36 49/88/34 44/89/34
f 41/90/32 50/91/36 45/92/36
s 0
f 45/93/37 44/94/37 43/95/37
f 46/96/38 48/97/38 49/98/38
s 1
f 51/99/39 57/100/40 56/101/39
f 53/102/41 57/103/40 52/104/40
f 53/105/41 59/106/42 58/107/41
f 55/108/43 59/106/42 54/109/42
f 55/110/43 56/111/39 60/112/43
s 0
f 55/113/44 54/114/44 53/115/44
f 56/116/45 58/117/45 59/118/45
s 1
f 61/119/46 67/120/47 66/121/46
f 63/122/48 67/123/47 62/124/47
f 63/125/48 69/126/49 68/127/48
f 64/128/49 70/129/50 69/130/49
f 65/131/50 66/132/46 70/133/50
s 0
f 65/134/51 64/135/51 63/122/51
f 67/136/52 68/137/52 69/130/52
s 1
f 72/138/53 76/139/54 71/140/54
f 72/141/53 78/142/55 77/143/53
f 73/144/55 79/145/56 78/142/55
f 74/146/56 80/147/57 79/148/56
f 71/149/54 80/150/57 75/151/57
s 0
f 75/152/58 74/153/58 73/154/58
f 76/155/59 78/156/59 79/157/59
s 1
f 82/158/60 86/159/61 81/160/61
f 82/158/60 88/161/62 87/162/60
f 84/163/63 88/164/62 83/165/62
f 84/166/63 90/167/64 89/168/63
f 81/169/61 90/170/64 85/171/64
s 0
f 85/172/65 84/173/65 83/174/65
f 87/175/66 88/176/66 89/177/66
s 1
f 91/178/67 97/179/68 96/180/67
f 93/181/69 97/182/68 92/183/68
f 93/184/69 99/185/70 98/186/69
f 95/187/71 99/188/70 94/189/70
f 91/178/67 100/190/71 95/191/71
s 0
f 95/192/72 93/193/72 92/194/72
f 96/195/73 97/196/73 98/197/73
s 1
f 102/198/74 106/199/75 101/200/75
f 102/201/74 108/202/76 107/203/74
f 103/204/76 109/205/77 108/206/76
f 105/207/78 109/208/77 104/209/77
f 101/200/75 110/210/78 105/211/78
s 0
f 104/212/79 103/213/79 102/214/79
f 107/215/80 108/216/80 109/217/80
s 1
f 111/218/81 117/219/82 116/220/81
f 113/221/83 117/222/82 112/223/82
f 114/224/84 118/225/83 113/226/83
f 115/227/85 119/228/84 114/229/84
f 111/218/81 120/230/85 115/231/85
s 0
f 115/232/86 114/233/86 113/234/86
f 117/235/87 118/236/87 119/237/87
s 1
f 121/238/88 127/239/89 126/240/88
f 122/241/89 128/242/90 127/243/89
f 124/244/91 128/242/90 123/245/90
f 124/246/91 130/247/92 129/248/91
f 121/249/88 130/250/92 125/251/92
s 0
f 124/252/93 123/253/93 122/254/93
f 126/255/94 127/256/94 128/257/94
s 1
f 132/258/95 136/259/96 131/260/96
f 133/261/97 137/262/98 132/263/95
f 134/264/99 138/265/97 133/266/97
f 135/267/100 139/268/99 134/269/99
f 135/270/100 136/259/96 140/271/100
s 0
f 135/272/101 133/273/101 132/274/101
f 137/275/102 138/276/102 139/277/102
s 1
f 142/278/103 146/279/104 141/280/104
f 142/281/103 148/282/105 147/283/103
f 144/284/106 148/285/105 143/286/105
f 144/284/106 150/287/107 149/288/106
f 141/289/104 150/290/107 145/291/107
s 0
f 145/292/108 144/293/108 143/294/108
f 146/295/109 147/296/109 148/297/109
s 1
f 152/298/110 156/299/111 151/300/111
f 153/301/112 157/302/110 152/303/110
f 154/304/113 158/305/112 153/306/112
f 154/307/113 160/308/114 159/309/113
f 151/310/111 160/311/114 155/312/114
s 0
f 155/313/115 153/301/115 152/303/115
f 156/314/116 157/315/116 158/316/116
s 1
f 162/317/117 166/318/118 161/319/118
f 163/320/119 167/321/117 162/322/117
f 163/323/119 169/324/120 168/325/119
f 164/326/120 170/327/121 169/328/120
f 165/329/121 166/330/118 170/327/121
s 0
f 164/331/122 163/332/122 162/333/122
f 166/334/123 168/335/123 169/336/123
s 1
f 172/337/124 176/338/125 171/339/125
f 172/340/124 178/341/126 177/342/124
f 174/343/127 178/344/126 173/345/126
f 174/346/127 180/347/128 179/348/127
f 175/349/128 176/350/125 180/351/128
s 0
f 174/352/129 173/353/129 172/354/129
f 176/338/130 178/355/130 179/356/130
s 1
f 182/357/131 186/358/132 181/359/132
f 183/360/133 187/361/134 182/362/131
f 183/363/133 189/364/135 188/365/133
f 185/366/136 189/367/135 184/368/135
f 185/369/136 186/370/132 190/371/136
s 0
f 185/372/137 184/373/137 183/374/137
f 187/375/138 188/376/138 189/367/138
s 1
f 192/377/139 196/378/140 191/379/140
f 192/380/139 198/381/141 197/382/139
f 193/383/141 199/384/142 198/385/141
f 195/386/143 199/384/142 194/387/142
f 191/388/140 200/389/143 195/390/143
s 0
f 195/391/144 193/392/144 192/393/144
f 197/394/145 198/395/145 199/396/145
s 1
f 202/397/146 206/398/147 201/399/147
f 203/400/148 207/401/146 202/402/146
f 203/403/148 209/404/149 208/405/148
f 204/406/149 210/407/150 209/408/149
f 201/399/147 210/409/150 205/410/150
s 0
f 205/411/151 204/412/151 203/413/151
f 206/414/152 207/415/152 208/416/152
s 1
f 212/417/153 216/418/154 211/419/154
f 213/420/155 217/421/153 212/422/153
f 214/423/156 218/424/155 213/420/155
f 215/425/157 219/426/156 214/427/156
f 211/428/154 220/429/157 215/430/157
s 0
f 215/431/158 214/432/158 213/433/158
f 216/434/159 218/435/159 219/436/159
s 1
f 222/437/160 226/438/161 221/439/161
f 223/440/162 227/441/160 222/437/160
f 223/442/162 229/443/163 228/444/162
f 225/445/164 229/446/163 224/447/163
f 221/448/161 230/449/164 225/450/164
s 0
f 225/451/165 224/452/165 223/453/165
f 226/454/166 227/455/166 228/456/166
s 1
f 231/457/167 237/458/168 236/459/167
f 232/460/168 238/461/169 237/462/168
f 234/463/170 238/464/169 233/465/169
f 235/466/171 239/467/170 234/468/170
f 231/457/167 240/469/171 235/470/171
s 0
f 235/471/172 234/472/172 233/473/172
f 236/474/173 238/475/173 239/476/173
s 1
f 242/477/174 246/478/175 241/479/175
f 243/480/176 247/481/174 242/482/174
f 243/480/176 249/483/177 248/484/176
f 245/485/178 249/486/177 244/487/177
f 241/488/175 250/489/178 245/490/178
s 0
f 245/491/179 243/492/179 242/493/179
f 246/494/180 248/495/180 249/496/180
s 1
f 252/497/181 256/498/182 251/499/182
f 253/500/183 257/501/181 252/502/181
f 254/503/184 258/504/183 253/500/183
f 254/505/184 260/506/185 259/507/184
f 251/508/182 260/509/185 255/510/186
s 0
f 255/511/187 254/512/187 253/513/187
f 257/514/188 258/515/188 259/516/188
s 1
f 261/517/189 267/518/190 266/519/189
f 262/520/190 268/521/191 267/522/190
f 264/523/192 268/524/191 263/525/191
f 265/526/193 269/527/192 264/528/192
f 261/529/189 270/530/193 265/531/193
s 0
f 265/532/194 263/533/194 262/520/194
f 266/534/195 268/535/195 269/527/195
s 1
f 272/536/196 276/537/197 271/538/197
f 273/539/198 277/540/196 272/541/196
f 273/542/198 279/543/199 278/544/198
f 275/545/200 279/543/199 274/546/199
f 275/547/200 276/548/197 280/549/200
s 0
f 275/550/201 273/551/201 272/552/201
f 276/553/202 277/554/202 278/555/202
s 1
f 282/556/203 286/557/204 281/558/204
f 282/559/203 288/560/205 287/561/203
f 284/562/206 288/563/205 283/564/205
f 284/565/206 290/566/207 289/567/206
f 281/558/204 290/568/207 285/569/207
s 0
f 285/570/208 284/571/208 283/572/208
f 286/573/209 287/574/209 288/575/209
s 1
f 291/576/210 297/577/211 296/578/210
f 292/579/211 298/580/212 297/581/211
f 294/582/213 298/583/212 293/584/212
f 294/585/213 300/586/214 299/587/213
f 295/588/214 296/578/210 300/589/214
s 0
f 294/590/215 293/591/215 292/592/215
f 296/593/216 297/594/216 298/595/216
s 1
f 302/596/217 306/597/218 301/598/218
f 303/599/219 307/600/217 302/601/217
f 303/602/219 309/603/220 308/604/219
f 305/605/221 309/606/220 304/607/220
f 305/605/221 306/608/218 310/609/221
s 0
f 305/610/222 303/611/222 302/612/222
f 306/613/223 307/614/223 308/615/223
s 1
f 2/1/1 7/616/1 6/2/2
f 3/4/3 8/617/3 7/5/1
f 4/7/4 9/618/4 8/8/3
f 5/10/5 10/619/5 9/11/4
f 1/3/2 6/2/2 10/13/5
s 0
f 2/17/6 1/620/6 5/15/6
f 5/15/6 4/621/6 3/16/6
f 9/622/7 10/623/7 8/20/7
f 10/623/7 6/18/7 8/20/7
s 1
f 12/21/8 17/624/8 16/22/9
f 13/24/10 18/625/10 17/25/8
f 13/27/10 14/626/12 19/28/11
f 14/30/12 15/627/13 20/31/13
f 11/33/9 16/628/9 20/34/13
s 0
f 12/26/14 11/629/14 13/24/14
f 11/629/14 15/36/14 13/24/14
f 19/32/15 20/31/15 16/630/15
f 16/630/15 17/38/15 19/32/15
s 1
f 21/40/16 22/631/17 27/41/17
f 23/43/18 28/632/18 27/44/17
f 24/46/19 29/633/19 28/47/18
f 25/49/20 30/634/20 29/50/19
f 21/52/16 26/635/16 30/53/20
s 0
f 22/45/21 21/636/21 25/637/21
f 25/637/21 24/55/21 22/45/21
f 29/50/22 30/634/22 28/58/22
f 30/634/22 26/56/22 28/58/22
s 1
f 32/59/23 37/638/23 36/60/24
f 33/62/25 38/66/27 37/63/23
f 34/65/26 39/639/26 38/66/27
f 35/67/28 40/640/28 39/68/26
f 31/70/24 36/641/24 40/71/28
s 0
f 32/75/29 31/642/29 35/643/29
f 35/643/29 34/73/29 32/75/29
f 39/78/30 40/644/30 36/645/30
f 36/645/30 37/76/30 39/78/30
s 1
f 42/79/31 47/83/31 46/80/32
f 43/82/33 48/646/35 47/83/31
f 44/84/34 49/647/34 48/85/35
f 45/87/36 50/648/36 49/88/34
f 41/90/32 46/649/32 50/91/36
s 0
f 42/650/37 41/651/37 43/95/37
f 41/651/37 45/93/37 43/95/37
f 49/98/38 50/652/38 46/96/38
f 46/96/38 47/653/38 48/97/38
s 1
f 51/99/39 52/654/40 57/100/40
f 53/102/41 58/655/41 57/103/40
f 53/105/41 54/109/42 59/106/42
f 55/108/43 60/656/43 59/106/42
f 55/110/43 51/657/39 56/111/39
s 0
f 52/658/44 51/659/44 53/115/44
f 51/659/44 55/113/44 53/115/44
f 59/118/45 60/660/45 56/116/45
f 56/116/45 57/661/45 58/117/45
s 1
f 61/119/46 62/662/47 67/120/47
f 63/122/48 68/663/48 67/123/47
f 63/125/48 64/664/49 69/126/49
f 64/128/49 65/665/50 70/129/50
f 65/131/50 61/666/46 66/132/46
s 0
f 62/124/51 61/667/51 63/122/51
f 61/667/51 65/134/51 63/122/51
f 69/130/52 70/129/52 66/668/52
f 66/668/52 67/136/52 69/130/52
s 1
f 72/138/53 77/669/53 76/139/54
f 72/141/53 73/144/55 78/142/55
f 73/144/55 74/670/56 79/145/56
f 74/146/56 75/671/57 80/147/57
f 71/149/54 76/672/54 80/150/57
s 0
f 72/673/58 71/674/58 73/154/58
f 71/674/58 75/152/58 73/154/58
f 79/157/59 80/675/59 76/155/59
f 76/155/59 77/676/59 78/156/59
s 1
f 82/158/60 87/162/60 86/159/61
f 82/158/60 83/677/62 88/161/62
f 84/163/63 89/678/63 88/164/62
f 84/166/63 85/679/64 90/167/64
f 81/169/61 86/680/61 90/170/64
s 0
f 82/681/65 81/682/65 83/174/65
f 81/682/65 85/172/65 83/174/65
f 89/177/66 90/683/66 86/684/66
f 86/684/66 87/175/66 89/177/66
s 1
f 91/178/67 92/685/68 97/179/68
f 93/181/69 98/686/69 97/182/68
f 93/184/69 94/687/70 99/185/70
f 95/187/71 100/688/71 99/188/70
f 91/178/67 96/180/67 100/190/71
s 0
f 92/194/72 91/689/72 95/192/72
f 95/192/72 94/690/72 93/193/72
f 99/691/73 100/692/73 98/197/73
f 100/692/73 96/195/73 98/197/73
s 1
f 102/198/74 107/693/74 106/199/75
f 102/201/74 103/694/76 108/202/76
f 103/204/76 104/695/77 109/205/77
f 105/207/78 110/696/78 109/208/77
f 101/200/75 106/199/75 110/210/78
s 0
f 102/214/79 101/697/79 105/698/79
f 105/698/79 104/212/79 102/214/79
f 109/217/80 110/699/80 106/700/80
f 106/700/80 107/215/80 109/217/80
s 1
f 111/218/81 112/701/82 117/219/82
f 113/221/83 118/702/83 117/222/82
f 114/224/84 119/703/84 118/225/83
f 115/227/85 120/704/85 119/228/84
f 111/218/81 116/220/81 120/230/85
s 0
f 112/705/86 111/706/86 113/234/86
f 111/706/86 115/232/86 113/234/86
f 119/237/87 120/707/87 116/708/87
f 116/708/87 117/235/87 119/237/87
s 1
f 121/238/88 122/709/89 127/239/89
f 122/241/89 123/245/90 128/242/90
f 124/244/91 129/710/91 128/242/90
f 124/246/91 125/711/92 130/247/92
f 121/249/88 126/712/88 130/250/92
s 0
f 122/254/93 121/713/93 125/714/93
f 125/714/93 124/252/93 122/254/93
f 129/715/94 130/716/94 128/257/94
f 130/716/224 126/255/224 128/257/224
s 1
f 132/258/95 137/717/98 136/259/96
f 133/261/97 138/718/97 137/262/98
f 134/264/99 139/719/99 138/265/97
f 135/267/100 140/720/100 139/268/99
f 135/270/100 131/260/96 136/259/96
s 0
f 132/274/101 131/721/101 135/272/101
f 135/272/101 134/722/101 133/273/101
f 139/277/102 140/723/102 136/724/102
f 136/724/102 137/275/102 139/277/102
s 1
f 142/278/103 147/725/103 146/279/104
f 142/281/103 143/726/105 148/282/105
f 144/284/106 149/288/106 148/285/105
f 144/284/106 145/727/107 150/287/107
f 141/289/104 146/728/104 150/290/107
s 0
f 142/729/108 141/730/108 143/294/108
f 141/730/108 145/292/108 143/294/108
f 149/731/225 150/732/225 148/297/225
f 150/732/225 146/295/225 148/297/225
s 1
f 152/298/110 157/733/110 156/299/111
f 153/301/112 158/734/112 157/302/110
f 154/304/113 159/735/113 158/305/112
f 154/307/113 155/736/114 160/308/114
f 151/310/111 156/737/111 160/311/114
s 0
f 152/303/115 151/738/115 155/313/115
f 155/313/115 154/739/115 153/301/115
f 159/309/116 160/308/116 158/316/116
f 160/308/116 156/314/116 158/316/116
s 1
f 162/317/117 167/740/117 166/318/118
f 163/320/119 168/741/119 167/321/117
f 163/323/119 164/742/120 169/324/120
f 164/326/120 165/329/121 170/327/121
f 165/329/121 161/743/118 166/330/118
s 0
f 162/333/122 161/744/122 165/745/122
f 165/745/122 164/331/122 162/333/122
f 169/336/123 170/746/123 166/334/123
f 166/334/123 167/747/123 168/335/123
s 1
f 172/337/124 177/748/124 176/338/125
f 172/340/124 173/749/126 178/341/126
f 174/343/127 179/750/127 178/344/126
f 174/346/127 175/751/128 180/347/128
f 175/349/128 171/752/125 176/350/125
s 0
f 172/354/129 171/753/129 175/754/129
f 175/754/129 174/352/129 172/354/129
f 179/356/130 180/755/130 176/338/130
f 176/338/130 177/748/130 178/355/130
s 1
f 182/357/131 187/756/134 186/358/132
f 183/360/133 188/757/133 187/361/134
f 183/363/133 184/758/135 189/364/135
f 185/366/136 190/759/136 189/367/135
f 185/369/136 181/760/132 186/370/132
s 0
f 182/761/137 181/762/137 183/374/137
f 181/762/137 185/372/137 183/374/137
f 189/367/138 190/759/138 186/763/138
f 186/763/138 187/375/138 189/367/138
s 1
f 192/377/139 197/764/139 196/378/140
f 192/380/139 193/765/141 198/381/141
f 193/383/141 194/387/142 199/384/142
f 195/386/143 200/766/143 199/384/142
f 191/388/140 196/767/140 200/389/143
s 0
f 192/393/144 191/768/144 195/391/144
f 195/391/144 194/769/144 193/392/144
f 199/396/145 200/770/145 196/771/145
f 196/771/145 197/394/145 199/396/145
s 1
f 202/397/146 207/772/146 206/398/147
f 203/400/148 208/773/148 207/401/146
f 203/403/148 204/774/149 209/404/149
f 204/406/149 205/775/150 210/407/150
f 201/399/147 206/398/147 210/409/150
s 0
f 202/776/151 201/777/151 203/413/151
f 201/777/151 205/411/151 203/413/151
f 209/778/152 210/779/152 208/416/152
f 210/779/152 206/414/152 208/416/152
s 1
f 212/417/153 217/780/153 216/418/154
f 213/420/155 218/424/155 217/421/153
f 214/423/156 219/781/156 218/424/155
f 215/425/157 220/782/157 219/426/156
f 211/428/154 216/783/154 220/429/157
s 0
f 212/784/158 211/785/158 213/433/158
f 211/785/158 215/431/158 213/433/158
f 219/436/159 220/786/159 216/434/159
f 216/434/159 217/787/159 218/435/159
s 1
f 222/437/160 227/441/160 226/438/161
f 223/440/162 228/788/162 227/441/160
f 223/442/162 224/789/163 229/443/163
f 225/445/164 230/790/164 229/446/163
f 221/448/161 226/791/161 230/449/164
s 0
f 222/792/165 221/793/165 223/453/165
f 221/793/165 225/451/165 223/453/165
f 229/794/166 230/795/166 228/456/166
f 230/795/166 226/454/166 228/456/166
s 1
f 231/457/167 232/796/168 237/458/168
f 232/460/168 233/797/169 238/461/169
f 234/463/170 239/798/170 238/464/169
f 235/466/171 240/799/171 239/467/170
f 231/457/167 236/459/167 240/469/171
s 0
f 232/800/172 231/801/172 233/473/172
f 231/801/172 235/471/172 233/473/172
f 239/476/173 240/802/173 236/474/173
f 236/474/173 237/803/173 238/475/173
s 1
f 242/477/174 247/804/174 246/478/175
f 243/480/176 248/484/176 247/481/174
f 243/480/176 244/805/177 249/483/177
f 245/485/178 250/806/178 249/486/177
f 241/488/175 246/807/175 250/489/178
s 0
f 242/493/179 241/808/179 245/491/179
f 245/491/179 244/809/179 243/492/179
f 249/496/180 250/810/180 246/494/180
f 246/494/180 247/811/180 248/495/180
s 1
f 252/497/181 257/812/181 256/498/182
f 253/500/183 258/504/183 257/501/181
f 254/503/184 259/813/184 258/504/183
f 254/505/184 255/814/186 260/506/185
f 251/508/182 256/815/182 260/509/185
s 0
f 252/816/187 251/817/187 253/513/187
f 251/817/187 255/511/187 253/513/187
f 259/516/188 260/818/188 256/819/188
f 256/819/188 257/514/188 259/516/188
s 1
f 261/517/189 262/820/190 267/518/190
f 262/520/190 263/533/191 268/521/191
f 264/523/192 269/821/192 268/524/191
f 265/526/193 270/822/193 269/527/192
f 261/529/189 266/823/189 270/530/193
s 0
f 262/520/194 261/824/194 265/532/194
f 265/532/194 264/825/194 263/533/194
f 269/527/195 270/822/195 266/534/195
f 266/534/195 267/826/195 268/535/195
s 1
f 272/536/196 277/827/196 276/537/197
f 273/539/198 278/828/198 277/540/196
f 273/542/198 274/546/199 279/543/199
f 275/545/200 280/829/200 279/543/199
f 275/547/200 271/830/197 276/548/197
s 0
f 272/552/201 271/831/201 275/550/201
f 275/550/201 274/832/201 273/551/201
f 279/833/202 280/834/202 278/555/202
f 280/834/202 276/553/202 278/555/202
s 1
f 282/556/203 287/835/203 286/557/204
f 282/559/203 283/836/205 288/560/205
f 284/562/206 289/837/206 288/563/205
f 284/565/206 285/838/207 290/566/207
f 281/558/204 286/557/204 290/568/207
s 0
f 282/839/208 281/840/208 283/572/208
f 281/840/208 285/570/208 283/572/208
f 289/841/209 290/842/209 288/575/209
f 290/842/209 286/573/209 288/575/209
s 1
f 291/576/210 292/843/211 297/577/211
f 292/579/211 293/844/212 298/580/212
f 294/582/213 299/845/213 298/583/212
f 294/585/213 295/846/214 300/586/214
f 295/588/214 291/576/210 296/578/210
s 0
f 292/592/215 291/847/215 295/848/215
f 295/848/215 294/590/215 292/592/215
f 299/849/216 300/850/216 298/595/216
f 300/850/216 296/593/216 298/595/216
s 1
f 302/596/217 307/851/217 306/597/218
f 303/599/219 308/852/219 307/600/217
f 303/602/219 304/853/220 309/603/220
f 305/605/221 310/609/221 309/606/220
f 305/605/221 301/854/218 306/608/218
s 0
f 302/612/222 301/855/222 305/610/222
f 305/610/222 304/856/222 303/611/222
f 309/857/223 310/858/223 308/615/223
f 310/858/223 306/613/223 308/615/223
o coral_branch_c_tip
usemtl coral_branch_c_tip
v 0.298719 0.348923 -0.002722
v 0.301339 0.341645 -0.012501
v 0.293316 0.344425 -0.021632
v 0.285738 0.353421 -0.017496
v 0.289078 0.356201 -0.005809
v 0.315493 0.370576 -0.019088
v 0.316549 0.367641 -0.023031
v 0.313314 0.368762 -0.026713
v 0.310259 0.372390 -0.025046
v 0.311605 0.373511 -0.020333
v 0.285471 0.368666 -0.014729
v 0.285800 0.362052 -0.025294
v 0.275433 0.364578 -0.031745
v 0.268698 0.372754 -0.025168
v 0.274902 0.375281 -0.014652
v 0.297330 0.394867 -0.035156
v 0.297462 0.392200 -0.039416
v 0.293282 0.393219 -0.042017
v 0.290566 0.396515 -0.039365
v 0.293068 0.397534 -0.035125
v 0.243552 0.396368 -0.007792
v 0.240815 0.391796 -0.019065
v 0.228634 0.393542 -0.021076
v 0.223843 0.399193 -0.011047
v 0.233063 0.400939 -0.002837
v 0.245165 0.429792 -0.025855
v 0.244061 0.427949 -0.030400
v 0.239150 0.428653 -0.031211
v 0.237218 0.430932 -0.027167
v 0.240936 0.431636 -0.023857
v 0.266879 0.377512 -0.000855
v 0.271192 0.370319 -0.010081
v 0.264790 0.373067 -0.020422
v 0.256521 0.381958 -0.017587
v 0.257812 0.384706 -0.005494
v 0.289620 0.403283 -0.015343
v 0.291360 0.400383 -0.019064
v 0.288778 0.401491 -0.023234
v 0.285444 0.405076 -0.022090
v 0.285965 0.406184 -0.017214
v -0.067970 0.521011 0.151340
v -0.077780 0.523611 0.158584
v -0.074033 0.523122 0.170466
v -0.061907 0.520220 0.170566
v -0.058160 0.518915 0.158746
v -0.056595 0.568694 0.156031
v -0.060551 0.569742 0.158952
v -0.059040 0.569545 0.163743
v -0.054150 0.568375 0.163784
v -0.052640 0.567849 0.159017
v -0.094057 0.502404 0.093539
v -0.103317 0.498442 0.100888
v -0.099747 0.499955 0.112739
v -0.088281 0.504853 0.112713
v -0.084764 0.506367 0.100847
v -0.110090 0.539971 0.099904
v -0.113824 0.538373 0.102867
v -0.112384 0.538983 0.107646
v -0.107761 0.540958 0.107636
v -0.106343 0.541568 0.102851
v -0.013186 0.521263 0.166189
v -0.005460 0.514674 0.173426
v 0.006226 0.517191 0.169881
v 0.005723 0.525336 0.160454
v -0.006274 0.527852 0.158172
v -0.005042 0.560950 0.200041
v -0.001927 0.558293 0.202959
v 0.002785 0.559308 0.201530
v 0.002583 0.562592 0.197729
v -0.002255 0.563607 0.196809
v -0.062028 0.543882 0.100408
v -0.072080 0.545237 0.107660
v -0.068240 0.549044 0.118895
v -0.055816 0.550041 0.118587
v -0.051976 0.546851 0.107161
v -0.066346 0.594848 0.091295
v -0.070399 0.595394 0.094220
v -0.068851 0.596929 0.098750
v -0.063841 0.597332 0.098626
v -0.062292 0.596045 0.094019
v -0.115279 0.519629 0.165826
v -0.111349 0.513851 0.176152
v -0.099140 0.516058 0.177393
v -0.095525 0.523200 0.167833
v -0.105500 0.525407 0.160684
v -0.119415 0.560314 0.194658
v -0.117830 0.557984 0.198822
v -0.112907 0.558874 0.199322
v -0.111450 0.561754 0.195467
v -0.115472 0.562644 0.192585
v -0.212197 0.430078 0.183371
v -0.200739 0.426665 0.186913
v -0.193131 0.427969 0.177122
v -0.199886 0.432188 0.167528
v -0.211669 0.433491 0.171390
v -0.199809 0.464920 0.189970
v -0.195189 0.463544 0.191398
v -0.192121 0.464070 0.187450
v -0.194845 0.465771 0.183581
v -0.199597 0.466296 0.185139
v -0.276856 0.399123 0.185696
v -0.273026 0.391515 0.194801
v -0.261213 0.394421 0.197536
v -0.257743 0.403826 0.190122
v -0.267411 0.406732 0.182804
v -0.283933 0.425427 0.215747
v -0.282388 0.422359 0.219419
v -0.277625 0.423531 0.220522
v -0.276226 0.427323 0.217532
v -0.280124 0.428495 0.214581
v -0.265512 0.420379 0.205173
v -0.263332 0.413000 0.214984
v -0.252054 0.415819 0.219495
v -0.247265 0.424940 0.212471
v -0.255582 0.427758 0.203620
v -0.279397 0.452003 0.236771
v -0.278518 0.449028 0.240727
v -0.273971 0.450164 0.242545
v -0.272040 0.453842 0.239713
v -0.275393 0.454978 0.236144
v -0.011364 0.467167 -0.114877
v -0.016393 0.461008 -0.124481
v -0.028637 0.463361 -0.124580
v -0.031176 0.470973 -0.115037
v -0.020500 0.473325 -0.109040
v -0.011265 0.498539 -0.139873
v -0.013293 0.496056 -0.143746
v -0.018230 0.497004 -0.143786
v -0.019254 0.500073 -0.139938
v -0.014949 0.501022 -0.137520
v -0.059921 0.473889 -0.038963
v -0.069970 0.474274 -0.031591
v -0.066132 0.473140 -0.019783
v -0.053711 0.472054 -0.019856
v -0.049872 0.472517 -0.031710
v -0.056512 0.512274 -0.030028
v -0.060564 0.512430 -0.027056
v -0.059016 0.511972 -0.022294
v -0.054008 0.511534 -0.022324
v -0.052460 0.511721 -0.027104
v -0.012277 0.495019 -0.081923
v -0.002269 0.488164 -0.084808
v 0.000935 0.490782 -0.096570
v -0.007092 0.499256 -0.100955
v -0.015257 0.501875 -0.091903
v 0.019831 0.530774 -0.071598
v 0.023866 0.528010 -0.072761
v 0.025158 0.529066 -0.077504
v 0.021921 0.532483 -0.079272
v 0.018629 0.533539 -0.075622
v -0.228082 0.413550 -0.259505
v -0.237938 0.412845 -0.251900
v -0.234173 0.415921 -0.240419
v -0.221990 0.418526 -0.240927
v -0.218226 0.417061 -0.252723
v -0.237158 0.455640 -0.261267
v -0.241132 0.455355 -0.258200
v -0.239614 0.456596 -0.253571
v -0.234701 0.457646 -0.253776
v -0.233183 0.457055 -0.258532
v -0.244208 0.393659 -0.248191
v -0.253979 0.386011 -0.249413
v -0.262286 0.388933 -0.240586
v -0.257649 0.398386 -0.233908
v -0.246476 0.401307 -0.238608
v -0.266575 0.419547 -0.269305
v -0.270515 0.416463 -0.269798
v -0.273865 0.417641 -0.266238
v -0.271995 0.421453 -0.263546
v -0.267490 0.422631 -0.265441
v -0.216456 0.422973 -0.202870
v -0.227524 0.417233 -0.203043
v -0.233172 0.419426 -0.192145
v -0.225595 0.426520 -0.185237
v -0.215264 0.428713 -0.191866
v -0.236309 0.453460 -0.212405
v -0.240772 0.451145 -0.212475
v -0.243049 0.452029 -0.208081
v -0.239994 0.454890 -0.205295
v -0.235828 0.455774 -0.207968
v -0.154848 0.494758 -0.161635
v -0.164647 0.497692 -0.154504
v -0.160904 0.497661 -0.142610
v -0.148793 0.494707 -0.142390
v -0.145050 0.492913 -0.154148
v -0.144588 0.537071 -0.158441
v -0.148539 0.538254 -0.155565
v -0.147030 0.538242 -0.150770
v -0.142146 0.537051 -0.150681
v -0.140637 0.536327 -0.155422
v -0.091632 0.471443 -0.111880
v -0.085695 0.465236 -0.120919
v -0.091518 0.467607 -0.131687
v -0.101053 0.475279 -0.129303
v -0.101124 0.477650 -0.117062
v -0.070777 0.501008 -0.123618
v -0.068383 0.498505 -0.127263
v -0.070731 0.499461 -0.131605
v -0.074576 0.502555 -0.130644
v -0.074605 0.503511 -0.125708
vn 0.8373 -0.5352 -0.1119
vn 0.5952 0.1373 0.7918
vn 0.5952 0.1374 0.7918
vn 0.0959 -0.2783 -0.9557
vn -0.6044 0.5530 -0.5735
vn -0.2958 0.8099 0.5065
vn -0.6333 -0.6924 0.3457
vn 0.6333 0.6924 -0.3457
vn 0.8020 -0.4780 -0.3582
vn 0.7715 0.1355 0.6217
vn 0.7715 0.1355 0.6216
vn -0.1595 -0.2437 -0.9566
vn -0.7842 0.5146 -0.3466
vn -0.2088 0.7490 0.6288
vn -0.4691 -0.7550 0.4581
vn 0.4691 0.7550 -0.4581
vn 0.9223 0.1484 0.3569
vn 0.6678 -0.2766 -0.6911
vn 0.6678 -0.2766 -0.6910
vn -0.4646 -0.1143 -0.8781
vn -0.9100 0.4111 0.0543
vn -0.0528 0.5734 0.8176
vn -0.9100 0.4110 0.0543
vn -0.1953 -0.8914 0.4090
vn 0.1953 0.8914 -0.4089
vn 0.8348 -0.5494 0.0357
vn 0.4341 0.1190 0.8930
vn 0.2400 -0.2941 -0.9251
vn -0.5283 0.5320 -0.6617
vn -0.4083 0.7873 0.4619
vn -0.6745 -0.7011 0.2313
vn 0.6745 0.7011 -0.2313
vn -0.8873 0.3339 -0.3181
vn 0.0299 0.0908 -0.9954
vn -0.5369 0.2882 0.7929
vn -0.5369 0.2882 0.7928
vn 0.5968 0.0169 0.8022
vn 0.9472 -0.1052 -0.3030
vn -0.2329 -0.9719 0.0335
vn 0.2329 0.9719 -0.0335
vn -0.9251 -0.2284 -0.3033
vn -0.0624 0.1408 -0.9881
vn -0.5925 -0.0874 0.8008
vn 0.4758 0.3690 0.7984
vn 0.8035 0.5100 -0.3072
vn 0.8035 0.5100 -0.3071
vn 0.3928 -0.9196 -0.0009
vn -0.3928 0.9196 0.0009
vn -0.2641 -0.5260 0.8084
vn -0.9872 0.0908 0.1311
vn 0.8297 -0.2904 0.4767
vn 0.7827 0.4720 -0.4058
vn -0.3403 0.7075 -0.6194
vn -0.0348 -0.7572 -0.6523
vn 0.0348 0.7572 0.6523
vn -0.9509 -0.0500 -0.3056
vn -0.0102 -0.1768 -0.9842
vn -0.5915 0.3062 0.7458
vn 0.5712 0.3996 0.7170
vn -0.5916 0.3062 0.7458
vn 0.9305 0.1010 -0.3522
vn 0.0837 -0.9521 0.2940
vn -0.0837 0.9521 -0.2940
vn -0.5859 -0.4367 0.6827
vn -0.9535 0.1037 -0.2831
vn 0.5560 -0.2303 0.7987
vn 0.8941 0.4377 -0.0954
vn -0.0388 0.6441 -0.7640
vn 0.2026 -0.8197 -0.5358
vn -0.2026 0.8197 0.5358
vn -0.7731 0.1586 0.6141
vn 0.2917 -0.1586 0.9433
vn 0.9987 -0.0375 0.0333
vn 0.3710 0.3546 -0.8583
vn -0.7241 0.4757 -0.4993
vn -0.1948 -0.9410 -0.2766
vn 0.1948 0.9410 0.2767
vn -0.5878 -0.6061 0.5359
vn -0.9445 0.1025 -0.3121
vn 0.5123 -0.3355 0.7906
vn -0.5878 -0.6061 0.5358
vn 0.8354 0.5404 0.1001
vn -0.0649 0.8110 -0.5814
vn 0.3197 -0.6566 -0.6831
vn -0.3197 0.6566 0.6831
vn -0.6707 -0.5971 0.4401
vn -0.8743 0.0922 -0.4765
vn 0.3828 -0.3338 0.8614
vn -0.6707 -0.5971 0.4400
vn 0.8303 0.5182 0.2053
vn 0.0533 0.7815 -0.6216
vn 0.4121 -0.6818 -0.6044
vn -0.4121 0.6818 0.6044
vn 0.5108 -0.4484 -0.7335
vn 0.9791 0.1250 0.1607
vn -0.6291 -0.2294 -0.7427
vn -0.8654 0.4793 0.1458
vn 0.1285 0.6983 0.7042
vn -0.1569 -0.7920 0.5900
vn 0.1569 0.7920 -0.5900
vn 0.0140 0.2255 -0.9741
vn -0.9212 0.2614 -0.2881
vn -0.5640 0.1558 0.8109
vn 0.5920 0.0547 0.8041
vn 0.9492 0.0978 -0.2991
vn -0.0873 -0.9939 -0.0671
vn 0.0873 0.9939 0.0671
vn -0.3986 0.0945 0.9123
vn 0.5371 -0.5465 0.6426
vn 0.8367 -0.3017 -0.4572
vn 0.0862 0.4906 -0.8671
vn -0.6773 0.7355 -0.0208
vn -0.5965 -0.7335 -0.3258
vn 0.5965 0.7335 0.3258
vn -0.9504 -0.1143 -0.2891
vn -0.0313 -0.0485 -0.9983
vn -0.5994 0.1726 0.7817
vn 0.5368 0.4156 0.7342
vn 0.8879 0.2789 -0.3659
vn 0.5368 0.4156 0.7343
vn 0.8879 0.2789 -0.3658
vn 0.2129 -0.9590 0.1871
vn -0.2129 0.9590 -0.1871
vn 0.7431 0.1027 -0.6613
vn -0.1667 -0.6094 -0.7751
vn -0.9402 -0.3374 0.0467
vn -0.5084 0.5427 0.6685
vn 0.5319 0.8147 0.2309
vn 0.4324 -0.6521 0.6228
vn -0.4324 0.6521 -0.6228
vn -0.4353 -0.3950 -0.8090
vn 0.5934 0.1384 -0.7930
vn 0.5933 0.1384 -0.7930
vn -0.9601 -0.1913 0.2038
vn -0.4352 -0.3950 -0.8090
vn -0.2559 0.4681 0.8458
vn 0.7042 0.6718 0.2298
vn -0.2560 0.4681 0.8458
vn 0.4205 -0.8223 0.3834
vn -0.4205 0.8223 -0.3834
vn 0.0344 0.0669 -0.9972
vn -0.8796 0.3406 -0.3320
vn -0.5305 0.3377 0.7775
vn 0.5994 0.0622 0.7981
vn 0.9485 -0.1052 -0.2988
vn -0.2375 -0.9687 0.0722
vn 0.2375 0.9687 -0.0722
vn 0.8904 -0.4459 0.0915
vn 0.3385 0.1312 0.9318
vn 0.3491 -0.2255 -0.9096
vn -0.5374 0.4878 -0.6880
vn -0.5439 0.7082 0.4501
vn -0.5970 -0.7883 0.1492
vn 0.5970 0.7883 -0.1492
vn 0.1953 0.8914 -0.4090
vn 0.1948 0.9410 0.2766
vn 0.3197 -0.6566 -0.6832
vn -0.4324 0.6521 -0.6227
vn -0.4324 0.6520 -0.6228
vn -0.4205 0.8223 -0.3833
vt 0.016975 0.645628
vt 0.030148 0.703490
vt -0.002584 0.660185
vt -0.566293 0.645628
vt -0.590244 0.699862
vt -0.596714 0.697621
vt -0.535092 0.669181
vt -0.550248 0.651188
vt 0.541771 -0.003591
vt 0.584133 -0.042063
vt 0.535092 -0.026965
vt 0.541771 0.674741
vt 0.594602 0.703490
vt 0.586826 0.709360
vt 0.541771 0.003591
vt 0.535092 0.026965
vt 0.550248 0.035237
vt 0.594602 -0.030148
vt 0.596714 -0.038035
vt 0.590244 -0.045398
vt 0.042559 0.686442
vt 0.062283 0.752072
vt 0.021430 0.699671
vt -0.514482 0.691495
vt -0.558540 0.746738
vt -0.535215 0.686442
vt -0.544748 0.755369
vt -0.550180 0.748776
vt 0.513419 -0.021275
vt 0.544748 -0.070702
vt 0.501012 -0.042309
vt 0.534557 0.699671
vt 0.549751 0.757407
vt 0.513419 0.712900
vt 0.501012 0.042309
vt 0.514482 0.055463
vt 0.535215 0.042559
vt 0.558540 -0.070803
vt 0.550180 -0.076006
vt 0.007556 0.755073
vt 0.052772 0.818236
vt 0.043681 0.821923
vt -0.445245 0.745930
vt -0.441915 0.819644
vt -0.451738 0.818236
vt -0.014066 0.760724
vt -0.054394 0.819644
vt -0.034124 0.749422
vt -0.039685 0.825610
vt -0.046306 0.824201
vt 0.450720 0.755073
vt 0.445487 0.825610
vt 0.429742 0.764217
vt 0.429742 -0.002355
vt 0.411302 0.014066
vt 0.420883 0.034124
vt 0.453946 -0.043681
vt 0.451738 -0.052772
vt 0.441915 -0.054394
vt 0.012134 0.702977
vt 0.022659 0.768905
vt -0.006319 0.717363
vt 0.038439 0.765319
vt 0.030099 0.763104
vt -0.476658 0.726254
vt -0.541172 0.765319
vt -0.493196 0.708472
vt 0.479240 -0.002959
vt 0.534504 -0.036153
vt 0.476658 -0.027146
vt 0.479240 0.731749
vt 0.542857 0.768905
vt 0.535545 0.774705
vt 0.479240 0.002959
vt 0.476658 0.027146
vt 0.493196 0.032817
vt 0.542857 -0.022659
vt 0.541172 -0.038439
vt 0.191944 1.009560
vt 0.149575 1.099726
vt 0.172324 1.004359
vt 0.325196 1.009560
vt 0.335515 1.101429
vt 0.325932 1.101823
vt -0.184450 1.008583
vt -0.144685 1.099088
vt -0.154464 1.101429
vt -0.325520 1.000168
vt -0.335595 1.099088
vt -0.349161 1.002778
vt 0.141663 1.098036
vt 0.152704 1.000168
vt -0.160198 -0.349161
vt -0.184450 -0.348961
vt -0.191944 -0.325196
vt -0.149575 0.320091
vt -0.157486 0.325932
vt -0.154464 0.335515
vt 0.243018 0.959221
vt 0.256564 1.042279
vt 0.224498 0.967147
vt 0.233505 0.962249
vt 0.213763 1.039084
vt 0.209804 0.959221
vt -0.212946 0.972045
vt -0.261153 1.040304
vt -0.235879 0.962249
vt -0.233454 0.972045
vt -0.213730 1.045475
vt -0.223299 1.044254
vt 0.205912 0.975072
vt 0.249070 1.045475
vt -0.205912 -0.209722
vt -0.212946 -0.233454
vt -0.235879 -0.233505
vt -0.256564 0.207836
vt -0.264032 0.213763
vt -0.261153 0.223320
vt 0.354880 0.991686
vt 0.408111 1.084238
vt 0.340406 1.004865
vt -0.047305 0.991686
vt -0.030814 1.080954
vt -0.040238 1.078924
vt -0.328935 1.013009
vt -0.411088 1.080954
vt -0.347790 0.996720
vt -0.024938 0.328935
vt -0.040894 0.401645
vt -0.031219 0.403486
vt 0.401645 1.089552
vt 0.324372 1.018043
vt -0.024938 -0.328935
vt -0.023933 -0.347790
vt -0.047305 -0.354880
vt -0.040238 0.413947
vt -0.030814 0.411088
vt 0.180544 1.052812
vt 0.169076 1.152034
vt 0.160440 1.050102
vt 0.245818 1.060426
vt 0.196467 1.153127
vt 0.223348 1.052812
vt -0.148016 1.062421
vt -0.174086 1.156197
vt -0.172865 1.060426
vt -0.245202 1.062421
vt -0.196065 1.154428
vt -0.205280 1.157001
vt 0.160969 1.154428
vt 0.140337 1.056040
vt -0.140337 -0.222351
vt -0.148016 -0.245202
vt -0.172865 -0.245818
vt -0.177182 0.196467
vt -0.174086 0.205528
vt -0.164066 0.205280
vt 0.360333 0.990041
vt 0.397344 1.082966
vt 0.339680 1.001597
vt -0.234664 0.994455
vt -0.272045 1.078306
vt -0.259082 0.990041
vt -0.343694 1.008739
vt -0.406672 1.080086
vt -0.362813 0.994455
vt -0.227434 0.343694
vt -0.267328 0.393198
vt -0.259284 0.398962
vt 0.266943 1.001597
vt 0.267328 1.087626
vt 0.247383 1.013153
vt -0.227434 -0.343694
vt -0.234664 -0.362813
vt -0.259082 -0.360333
vt -0.275215 0.397344
vt -0.262199 0.406672
vt -0.460778 0.822495
vt -0.426763 0.889426
vt -0.436003 0.892179
vt -0.362271 0.818276
vt -0.390824 0.889426
vt -0.381855 0.815669
vt -0.375191 0.893880
vt -0.382928 0.890477
vt 0.436157 0.826713
vt 0.435578 0.894931
vt 0.426075 0.893880
vt 0.374771 0.822495
vt 0.378306 0.894931
vt 0.350809 0.829320
vt -0.459723 -0.350809
vt -0.422646 -0.362271
vt -0.437863 -0.381855
vt -0.426763 0.390824
vt -0.420627 0.382928
vt -0.426075 0.375191
vt 0.397630 0.745368
vt 0.439523 0.813192
vt 0.379420 0.760585
vt -0.582436 0.745368
vt -0.591634 0.809400
vt -0.601161 0.807056
vt -0.388272 0.769990
vt -0.449072 0.809400
vt -0.403101 0.751180
vt -0.551871 0.388272
vt -0.596633 0.437191
vt -0.588836 0.443092
vt 0.373636 0.775802
vt 0.437191 0.819328
vt 0.551871 0.769990
vt 0.558811 0.751180
vt 0.582436 0.745368
vt -0.588836 0.816984
vt 0.437997 0.788339
vt 0.481569 0.866344
vt 0.418374 0.803097
vt -0.540493 0.793976
vt -0.593421 0.860393
vt -0.563048 0.788339
vt -0.447018 0.793976
vt -0.487455 0.870022
vt -0.493119 0.862666
vt -0.547549 0.415267
vt -0.580464 0.487455
vt -0.530914 0.432970
vt 0.567409 0.803097
vt 0.587171 0.872295
vt 0.547549 0.817855
vt -0.547549 -0.415267
vt -0.530914 -0.432970
vt -0.540493 -0.447018
vt -0.593421 0.489482
vt -0.584327 0.493119
vt 0.240934 0.884355
vt 0.271718 0.959416
vt 0.221725 0.896671
vt 0.093659 0.889059
vt 0.062970 0.954449
vt 0.069170 0.884355
vt -0.241132 0.889059
vt -0.271848 0.962485
vt -0.279544 0.956346
vt -0.077385 -0.210051
vt -0.074892 -0.271848
vt -0.098736 -0.222045
vt 0.267011 0.964382
vt 0.210051 0.908988
vt -0.077385 0.210051
vt -0.098736 0.222045
vt -0.093659 0.241132
vt -0.062970 -0.279464
vt -0.072844 -0.279544
vt 0.156227 0.910116
vt 0.157512 0.987197
vt 0.149408 0.986887
vt -0.031537 0.908618
vt -0.046083 0.987197
vt -0.055155 0.910886
vt -0.168648 0.908618
vt -0.144400 0.985407
vt -0.154417 0.986283
vt 0.031684 0.906446
vt 0.046179 0.985780
vt 0.036619 0.985407
vt 0.141304 0.985780
vt 0.136129 0.907372
vt -0.136129 0.055392
vt -0.143805 0.031684
vt -0.168648 0.031537
vt -0.149408 -0.052028
vt -0.157512 -0.046083
vt -0.154417 -0.036560
vt -0.060938 0.952377
vt 0.011347 1.018358
vt 0.003277 1.023887
vt 0.161588 0.938665
vt 0.146979 1.020470
vt 0.137494 1.018358
vt 0.050569 0.960851
vt -0.013931 1.020470
vt 0.034515 0.943903
vt -0.050569 -0.193881
vt 0.000873 -0.143215
vt 0.007458 -0.150515
vt -0.155819 0.952377
vt -0.143215 1.029415
vt -0.175777 0.966088
vt -0.050569 0.193881
vt -0.034515 0.185112
vt -0.040923 0.161588
vt 0.011347 -0.137494
vt 0.013931 -0.146979
vt 0.512260 0.788028
vt 0.510700 0.873617
vt 0.492548 0.789437
vt -0.495773 0.788028
vt -0.499113 0.875529
vt -0.508373 0.873049
vt -0.480365 0.799391
vt -0.515612 0.875529
vt -0.504730 0.794179
vt 0.497418 0.796460
vt 0.499523 0.877631
vt 0.473826 0.799391
vt 0.502751 0.876449
vt 0.472836 0.796460
vt -0.472836 0.497418
vt -0.480365 0.473826
vt -0.504730 0.472809
vt -0.518648 -0.508373
vt -0.515612 -0.499113
vt -0.505787 -0.499523
vt 0.524799 0.749657
vt 0.577415 0.795265
vt 0.569535 0.801432
vt -0.490798 0.734361
vt -0.524449 0.797620
vt -0.531567 0.795265
vt -0.459787 0.759110
vt -0.473143 0.740203
vt -0.551683 -0.459787
vt -0.571364 -0.522853
vt -0.580375 -0.519063
vt 0.469187 0.764953
vt 0.530582 0.801432
vt 0.522853 0.807600
vt -0.529336 0.469187
vt -0.551683 0.459787
vt -0.560957 0.473143
vt -0.577415 -0.531567
vt -0.584115 -0.524449
vt 0.491432 0.796804
vt 0.509002 0.869257
vt 0.469296 0.808284
vt -0.376263 0.801189
vt -0.416921 0.864628
vt -0.398058 0.796804
vt -0.362447 0.815379
vt -0.408133 0.866396
vt -0.466912 0.819763
vt -0.516372 0.872118
vt -0.487574 0.815379
vt 0.397712 0.808284
vt 0.407907 0.873886
vt 0.375703 0.819763
vt -0.466912 0.375703
vt -0.487574 0.362447
vt -0.502728 0.376263
vt -0.509002 -0.416782
vt -0.517928 -0.416921
vt -0.522483 -0.408133
vt 0.346081 0.951854
vt 0.333463 1.038847
vt 0.325561 1.036481
vt -0.300980 0.957722
vt -0.293511 1.038821
vt -0.303103 1.038847
vt -0.333970 0.951752
vt -0.330445 1.038821
vt -0.358193 0.957659
vt 0.276753 0.951752
vt 0.302815 1.034993
vt 0.293333 1.036440
vt 0.317659 1.034993
vt 0.326484 0.948165
vt -0.333970 0.276753
vt -0.358193 0.277193
vt -0.365679 0.300980
vt -0.325561 -0.308853
vt -0.330445 -0.293511
vt -0.320677 -0.293333
vt 0.233810 0.892810
vt 0.239208 0.964354
vt 0.215733 0.905224
vt 0.255345 0.897551
vt 0.246498 0.959348
vt 0.219420 0.897551
vt 0.185537 0.967448
vt 0.177847 0.961260
vt -0.250578 0.912896
vt -0.243387 0.969360
vt -0.253259 0.967448
vt -0.219648 0.905224
vt -0.185594 0.969360
vt -0.238632 0.917638
vt -0.238490 0.250578
vt -0.219420 0.255345
vt -0.207775 0.233810
vt -0.173151 -0.246498
vt -0.177847 -0.255181
vt -0.185537 -0.253259
vt 0.038035 0.697621
vt -0.584133 0.707118
vt 0.586826 -0.032638
vt 0.561054 0.660185
vt 0.566293 0.016975
vt 0.561054 -0.002584
vt 0.070803 0.746738
vt -0.501012 0.707847
vt 0.549751 -0.062221
vt 0.558275 0.752072
vt 0.534557 0.021430
vt 0.513419 0.021275
vt 0.558275 -0.062283
vt 0.030101 0.745930
vt -0.420883 0.749422
vt 0.002355 0.764217
vt 0.453946 0.821923
vt 0.445245 0.030101
vt 0.450720 0.007556
vt 0.438052 -0.046306
vt 0.445487 -0.039685
vt 0.032817 0.708472
vt -0.534504 0.772490
vt 0.535545 -0.026400
vt 0.497373 0.717363
vt 0.505999 0.012134
vt 0.497373 -0.006319
vt 0.546335 -0.030099
vt 0.157486 1.101823
vt 0.348961 1.008583
vt -0.160198 1.002778
vt -0.326063 1.098036
vt -0.172324 -0.310709
vt -0.152704 -0.325520
vt -0.144685 0.335595
vt -0.141663 0.326063
vt 0.264032 1.039084
vt 0.223320 1.040304
vt -0.251906 1.044254
vt -0.209722 0.975072
vt -0.243018 -0.209804
vt -0.224498 -0.195105
vt -0.251906 0.223299
vt -0.249070 0.213730
vt 0.413947 1.078924
vt -0.023933 0.996720
vt -0.403486 1.087522
vt -0.048932 0.324372
vt -0.062756 -0.340406
vt -0.048932 -0.324372
vt -0.046468 0.408111
vt 0.177182 1.153127
vt 0.205528 1.156197
vt -0.164066 1.157001
vt -0.222351 1.056040
vt -0.180544 -0.223348
vt -0.160440 -0.208844
vt -0.160969 0.196065
vt -0.169076 0.190619
vt 0.405672 1.078306
vt -0.262199 1.080086
vt -0.398962 1.085846
vt -0.247383 0.329397
vt 0.275215 1.082966
vt -0.266943 -0.339680
vt -0.247383 -0.329397
vt -0.272045 0.405672
vt -0.437863 0.815669
vt -0.343084 0.826713
vt 0.459723 0.829320
vt 0.387968 0.892179
vt -0.460778 -0.374771
vt -0.436157 -0.343084
vt -0.435578 0.378306
vt -0.436003 0.387968
vt 0.446866 0.807056
vt -0.558811 0.751180
vt -0.443092 0.816984
vt -0.571207 0.373636
vt 0.590097 0.760585
vt 0.571207 0.775802
vt -0.596633 0.819328
vt -0.604250 0.813192
vt 0.489482 0.860393
vt -0.584327 0.862666
vt -0.432970 0.812218
vt -0.587171 0.480317
vt 0.595179 0.866344
vt -0.563048 -0.437997
vt -0.567409 -0.418374
vt -0.595179 0.481569
vt 0.279464 0.954449
vt 0.072844 0.956346
vt -0.222045 0.904283
vt -0.066282 -0.267011
vt -0.069170 0.240934
vt -0.059112 0.221725
vt -0.058914 -0.271718
vt 0.176324 0.910886
vt -0.036560 0.986283
vt -0.143805 0.906446
vt 0.055392 0.907372
vt -0.176324 0.055155
vt -0.156227 0.069898
vt -0.144400 -0.036619
vt -0.141304 -0.046179
vt -0.040923 0.938665
vt 0.185112 0.943903
vt -0.007458 1.027304
vt -0.066899 -0.175777
vt -0.135168 1.023887
vt -0.060938 0.155819
vt -0.066899 0.175777
vt 0.003277 -0.135168
vt 0.518648 0.873049
vt -0.472809 0.794179
vt -0.505787 0.877631
vt 0.509036 0.876449
vt -0.512260 0.495773
vt -0.492548 0.510982
vt -0.502751 -0.509036
vt -0.510700 -0.514506
vt 0.544342 0.734361
vt -0.519063 0.805244
vt -0.529336 -0.469187
vt 0.488353 0.749657
vt -0.544342 0.490798
vt -0.524799 0.488353
vt -0.569535 -0.530582
vt 0.517928 0.864628
vt -0.402562 0.872118
vt -0.508041 0.873886
vt 0.416782 0.869257
vt -0.491432 0.398058
vt -0.469296 0.397712
vt -0.516372 -0.402562
vt -0.508041 -0.407907
vt 0.365679 0.957722
vt -0.277193 0.957659
vt -0.320677 1.036440
vt 0.300268 0.948165
vt -0.346081 0.315241
vt -0.326484 0.300268
vt -0.317659 -0.302815
vt -0.333463 -0.303103
vt 0.255181 0.961260
vt 0.238490 0.912896
vt -0.226096 0.917638
vt -0.177939 0.964354
vt -0.219648 0.215733
vt -0.238632 0.226096
vt -0.185594 -0.243387
vt -0.177939 -0.239208
s 1
f 312/859/226 316/860/227 311/861/228
f 312/862/226 318/863/229 317/864/226
f 314/865/230 318/863/229 313/866/229
f 315/867/231 319/868/230 314/869/230
f 315/870/231 316/871/227 320/872/231
s 0
f 315/873/232 314/874/232 313/875/232
f 316/876/233 317/877/233 318/878/233
s 1
f 322/879/234 326/880/235 321/881/236
f 323/882/237 327/883/234 322/884/234
f 323/882/237 329/885/238 328/886/237
f 325/887/239 329/888/238 324/889/238
f 321/890/236 330/891/239 325/892/239
s 0
f 324/893/240 323/894/240 322/895/240
f 327/896/241 328/897/241 329/888/241
s 1
f 331/898/242 337/899/243 336/900/242
f 332/901/244 338/902/245 337/903/243
f 334/904/246 338/905/245 333/906/245
f 334/904/246 340/907/247 339/908/248
f 331/909/242 340/910/247 335/911/247
s 0
f 335/912/249 334/913/249 333/914/249
f 336/915/250 337/916/250 338/917/250
s 1
f 342/918/251 346/919/252 341/920/252
f 342/918/251 348/921/253 347/922/251
f 344/923/254 348/924/253 343/925/253
f 345/926/255 349/927/254 344/928/254
f 345/929/255 346/930/252 350/931/255
s 0
f 345/932/256 344/933/256 343/934/256
f 346/935/257 348/936/257 349/927/257
s 1
f 352/937/258 356/938/259 351/939/259
f 352/940/258 358/941/260 357/942/258
f 353/943/261 359/944/262 358/945/260
f 355/946/263 359/947/262 354/948/262
f 351/939/259 360/949/263 355/950/263
s 0
f 354/951/264 353/952/264 352/953/264
f 356/954/265 357/955/265 358/956/265
s 1
f 362/957/266 366/958/267 361/959/267
f 363/960/268 367/961/266 362/962/266
f 364/963/269 368/964/268 363/965/268
f 364/966/269 370/967/270 369/968/269
f 365/969/271 366/958/267 370/970/270
s 0
f 365/971/272 364/972/272 363/973/272
f 366/974/273 367/975/273 368/976/273
s 1
f 372/977/274 376/978/275 371/979/275
f 372/980/274 378/981/276 377/982/274
f 374/983/277 378/984/276 373/985/276
f 374/986/277 380/987/278 379/988/277
f 371/979/275 380/989/278 375/990/278
s 0
f 374/991/279 373/992/279 372/993/279
f 377/994/280 378/995/280 379/988/280
s 1
f 382/996/281 386/997/282 381/998/282
f 383/999/283 387/1000/281 382/1001/281
f 384/1002/284 388/1003/285 383/1004/283
f 384/1005/284 390/1006/286 389/1007/284
f 381/998/282 390/1008/286 385/1009/286
s 0
f 385/1010/287 384/1011/287 383/1012/287
f 387/1013/288 388/1014/288 389/1015/288
s 1
f 392/1016/289 396/1017/290 391/1018/290
f 393/1019/291 397/1020/289 392/1021/289
f 394/1022/292 398/1023/291 393/1024/291
f 394/1025/292 400/1026/293 399/1027/292
f 391/1028/290 400/1029/293 395/1030/293
s 0
f 394/1031/294 393/1032/294 392/1033/294
f 396/1034/295 398/1035/295 399/1027/295
s 1
f 401/1036/296 407/1037/297 406/1038/296
f 403/1039/298 407/1040/297 402/1041/297
f 403/1039/298 409/1042/299 408/1043/298
f 404/1044/299 410/1045/300 409/1046/299
f 401/1047/296 410/1048/300 405/1049/300
s 0
f 405/1050/301 403/1051/301 402/1052/301
f 407/1053/302 408/1054/302 409/1055/302
s 1
f 412/1056/303 416/1057/304 411/1058/304
f 412/1059/303 418/1060/305 417/1061/306
f 414/1062/307 418/1063/305 413/1064/305
f 414/1065/307 420/1066/308 419/1067/307
f 415/1068/308 416/1057/304 420/1069/308
s 0
f 414/1070/309 413/1071/309 412/1072/309
f 417/1061/310 418/1060/310 419/1073/310
s 1
f 422/1074/311 426/1075/312 421/1076/312
f 423/1077/313 427/1078/314 422/1079/311
f 423/1080/313 429/1081/315 428/1082/313
f 425/1083/316 429/1084/315 424/1085/315
f 421/1086/312 430/1087/316 425/1088/316
s 0
f 425/1089/317 424/1090/317 423/1091/317
f 427/1092/318 428/1093/318 429/1084/318
s 1
f 432/1094/319 436/1095/320 431/1096/320
f 433/1097/321 437/1098/319 432/1099/319
f 433/1100/321 439/1101/322 438/1102/321
f 435/1103/323 439/1104/322 434/1105/322
f 431/1096/320 440/1106/323 435/1107/323
s 0
f 435/1108/324 434/1109/324 433/1110/324
f 437/1111/325 438/1112/325 439/1104/325
s 1
f 441/1113/326 447/1114/327 446/1115/326
f 443/1116/328 447/1117/327 442/1118/327
f 443/1119/328 449/1120/329 448/1121/328
f 444/1122/329 450/1123/330 449/1124/329
f 441/1113/326 450/1125/330 445/1126/330
s 0
f 445/1127/331 444/1128/331 443/1129/331
f 446/1130/332 447/1131/332 448/1132/332
s 1
f 451/1133/333 457/1134/334 456/1135/333
f 452/1136/334 458/1137/335 457/1138/334
f 454/1139/336 458/1140/335 453/1141/335
f 454/1142/336 460/1143/337 459/1144/336
f 451/1145/333 460/1146/337 455/1147/337
s 0
f 454/1148/338 453/1149/338 452/1150/338
f 457/1151/339 458/1152/339 459/1144/339
s 1
f 462/1153/340 466/1154/341 461/1155/341
f 462/1156/340 468/1157/342 467/1158/340
f 464/1159/343 468/1160/342 463/1161/342
f 465/1162/344 469/1163/345 464/1164/343
f 461/1155/341 470/1165/346 465/1166/344
s 0
f 465/1167/347 464/1168/347 463/1169/347
f 467/1170/348 468/1171/348 469/1172/348
s 1
f 471/1173/349 477/1174/350 476/1175/349
f 472/1176/350 478/1177/351 477/1178/350
f 474/1179/352 478/1177/351 473/1180/351
f 474/1181/352 480/1182/353 479/1183/352
f 475/1184/353 476/1185/349 480/1186/353
s 0
f 475/1187/354 474/1188/354 473/1189/354
f 477/1190/355 478/1191/355 479/1183/355
s 1
f 482/1192/356 486/1193/357 481/1194/358
f 483/1195/359 487/1196/360 482/1197/356
f 484/1198/361 488/1199/359 483/1195/359
f 485/1200/362 489/1201/363 484/1202/361
f 481/1203/358 490/1204/362 485/1205/362
s 0
f 485/1206/364 484/1207/364 483/1208/364
f 486/1209/365 487/1210/365 488/1211/365
s 1
f 491/1212/366 497/1213/367 496/1214/366
f 492/1215/367 498/1216/368 497/1217/367
f 494/1218/369 498/1219/368 493/1220/368
f 494/1221/369 500/1222/370 499/1223/369
f 491/1212/366 500/1224/370 495/1225/370
s 0
f 494/1226/371 493/1227/371 492/1228/371
f 496/1229/372 498/1230/372 499/1231/372
s 1
f 502/1232/373 506/1233/374 501/1234/374
f 503/1235/375 507/1236/373 502/1232/373
f 503/1237/375 509/1238/376 508/1239/375
f 504/1240/376 510/1241/377 509/1242/376
f 501/1243/374 510/1244/377 505/1245/377
s 0
f 504/1246/378 503/1247/378 502/1248/378
f 507/1249/379 508/1250/379 509/1251/379
s 1
f 312/859/226 317/1252/226 316/860/227
f 312/862/226 313/866/229 318/863/229
f 314/865/230 319/1253/230 318/863/229
f 315/867/231 320/1254/231 319/868/230
f 315/870/231 311/1255/228 316/871/227
s 0
f 312/1256/232 311/1257/232 313/875/232
f 311/1257/232 315/873/232 313/875/232
f 319/868/233 320/1254/233 318/878/233
f 320/1254/233 316/876/233 318/878/233
s 1
f 322/879/234 327/1258/234 326/880/235
f 323/882/237 328/886/237 327/883/234
f 323/882/237 324/1259/238 329/885/238
f 325/887/239 330/1260/239 329/888/238
f 321/890/236 326/1261/235 330/891/239
s 0
f 322/895/240 321/1262/240 325/1263/240
f 325/1263/240 324/893/240 322/895/240
f 329/888/241 330/1260/241 326/1264/241
f 326/1264/241 327/896/241 329/888/241
s 1
f 331/898/242 332/1265/244 337/899/243
f 332/901/244 333/1266/245 338/902/245
f 334/904/246 339/908/248 338/905/245
f 334/904/246 335/1267/247 340/907/247
f 331/909/242 336/1268/242 340/910/247
s 0
f 332/1269/249 331/1270/249 333/914/249
f 331/1270/249 335/912/249 333/914/249
f 339/1271/380 340/1272/380 338/917/380
f 340/1272/380 336/915/380 338/917/380
s 1
f 342/918/251 347/922/251 346/919/252
f 342/918/251 343/1273/253 348/921/253
f 344/923/254 349/1274/254 348/924/253
f 345/926/255 350/1275/255 349/927/254
f 345/929/255 341/1276/252 346/930/252
s 0
f 342/1277/256 341/1278/256 343/934/256
f 341/1278/256 345/932/256 343/934/256
f 349/927/257 350/1275/257 346/935/257
f 346/935/257 347/1279/257 348/936/257
s 1
f 352/937/258 357/1280/258 356/938/259
f 352/940/258 353/1281/261 358/941/260
f 353/943/261 354/1282/262 359/944/262
f 355/946/263 360/1283/263 359/947/262
f 351/939/259 356/938/259 360/949/263
s 0
f 352/953/264 351/1284/264 355/1285/264
f 355/1285/264 354/951/264 352/953/264
f 359/1286/265 360/1287/265 358/956/265
f 360/1287/265 356/954/265 358/956/265
s 1
f 362/957/266 367/1288/266 366/958/267
f 363/960/268 368/1289/268 367/961/266
f 364/963/269 369/1290/269 368/964/268
f 364/966/269 365/1291/271 370/967/270
f 365/969/271 361/959/267 366/958/267
s 0
f 362/1292/272 361/1293/272 363/973/272
f 361/1293/272 365/971/272 363/973/272
f 369/1294/273 370/1295/273 368/976/273
f 370/1295/273 366/974/273 368/976/273
s 1
f 372/977/274 377/1296/274 376/978/275
f 372/980/274 373/1297/276 378/981/276
f 374/983/277 379/1298/277 378/984/276
f 374/986/277 375/1299/278 380/987/278
f 371/979/275 376/978/275 380/989/278
s 0
f 372/993/279 371/1300/279 375/1301/279
f 375/1301/279 374/991/279 372/993/279
f 379/988/280 380/987/280 376/1302/280
f 376/1302/280 377/994/280 379/988/280
s 1
f 382/996/281 387/1303/281 386/997/282
f 383/999/283 388/1304/285 387/1000/281
f 384/1002/284 389/1305/284 388/1003/285
f 384/1005/284 385/1306/286 390/1006/286
f 381/998/282 386/997/282 390/1008/286
s 0
f 382/1307/287 381/1308/287 383/1012/287
f 381/1308/287 385/1010/287 383/1012/287
f 389/1015/288 390/1309/288 386/1310/288
f 386/1310/288 387/1013/288 389/1015/288
s 1
f 392/1016/289 397/1311/289 396/1017/290
f 393/1019/291 398/1312/291 397/1020/289
f 394/1022/292 399/1313/292 398/1023/291
f 394/1025/292 395/1314/293 400/1026/293
f 391/1028/290 396/1315/290 400/1029/293
s 0
f 392/1033/294 391/1316/294 395/1317/294
f 395/1317/294 394/1031/294 392/1033/294
f 399/1027/295 400/1026/295 396/1034/295
f 396/1034/295 397/1318/295 398/1035/295
s 1
f 401/1036/296 402/1319/297 407/1037/297
f 403/1039/298 408/1043/298 407/1040/297
f 403/1039/298 404/1320/299 409/1042/299
f 404/1044/299 405/1321/300 410/1045/300
f 401/1047/296 406/1322/296 410/1048/300
s 0
f 402/1052/301 401/1323/301 405/1050/301
f 405/1050/301 404/1324/301 403/1051/301
f 409/1055/381 410/1325/381 406/1326/381
f 406/1326/381 407/1053/381 409/1055/381
s 1
f 412/1056/303 417/1327/306 416/1057/304
f 412/1059/303 413/1328/305 418/1060/305
f 414/1062/307 419/1329/307 418/1063/305
f 414/1065/307 415/1330/308 420/1066/308
f 415/1068/308 411/1058/304 416/1057/304
s 0
f 412/1072/382 411/1331/382 415/1332/382
f 415/1332/309 414/1070/309 412/1072/309
f 419/1073/310 420/1333/310 416/1334/310
f 416/1334/310 417/1061/310 419/1073/310
s 1
f 422/1074/311 427/1335/314 426/1075/312
f 423/1077/313 428/1336/313 427/1078/314
f 423/1080/313 424/1337/315 429/1081/315
f 425/1083/316 430/1338/316 429/1084/315
f 421/1086/312 426/1339/312 430/1087/316
s 0
f 422/1340/317 421/1341/317 423/1091/317
f 421/1341/317 425/1089/317 423/1091/317
f 429/1084/318 430/1338/318 426/1342/318
f 426/1342/318 427/1092/318 429/1084/318
s 1
f 432/1094/319 437/1343/319 436/1095/320
f 433/1097/321 438/1344/321 437/1098/319
f 433/1100/321 434/1345/322 439/1101/322
f 435/1103/323 440/1346/323 439/1104/322
f 431/1096/320 436/1095/320 440/1106/323
s 0
f 432/1347/324 431/1348/324 433/1110/324
f 431/1348/324 435/1108/324 433/1110/324
f 439/1104/325 440/1346/325 436/1349/325
f 436/1349/325 437/1111/325 439/1104/325
s 1
f 441/1113/326 442/1350/327 447/1114/327
f 443/1116/328 448/1351/328 447/1117/327
f 443/1119/328 444/1352/329 449/1120/329
f 444/1122/329 445/1353/330 450/1123/330
f 441/1113/326 446/1115/326 450/1125/330
s 0
f 442/1354/331 441/1355/331 443/1129/331
f 441/1355/331 445/1127/331 443/1129/331
f 449/1356/332 450/1357/332 448/1132/332
f 450/1357/332 446/1130/332 448/1132/332
s 1
f 451/1133/333 452/1358/334 457/1134/334
f 452/1136/334 453/1359/335 458/1137/335
f 454/1139/336 459/1360/336 458/1140/335
f 454/1142/336 455/1361/337 460/1143/337
f 451/1145/333 456/1362/333 460/1146/337
s 0
f 452/1150/338 451/1363/338 455/1364/338
f 455/1364/338 454/1148/338 452/1150/338
f 459/1144/339 460/1143/339 456/1365/339
f 456/1365/339 457/1151/339 459/1144/339
s 1
f 462/1153/340 467/1366/340 466/1154/341
f 462/1156/340 463/1367/342 468/1157/342
f 464/1159/343 469/1368/345 468/1160/342
f 465/1162/344 470/1369/346 469/1163/345
f 461/1155/341 466/1154/341 470/1165/346
s 0
f 462/1370/347 461/1371/347 463/1169/347
f 461/1371/347 465/1167/347 463/1169/347
f 469/1172/348 470/1372/348 466/1373/348
f 466/1373/348 467/1170/348 469/1172/348
s 1
f 471/1173/349 472/1374/350 477/1174/350
f 472/1176/350 473/1180/351 478/1177/351
f 474/1179/352 479/1375/352 478/1177/351
f 474/1181/352 475/1376/353 480/1182/353
f 475/1184/353 471/1377/349 476/1185/349
s 0
f 472/1378/354 471/1379/354 473/1189/354
f 471/1379/354 475/1187/354 473/1189/354
f 479/1183/383 480/1182/383 476/1380/383
f 476/1380/384 477/1190/384 479/1183/384
s 1
f 482/1192/356 487/1381/360 486/1193/357
f 483/1195/359 488/1199/359 487/1196/360
f 484/1198/361 489/1382/363 488/1199/359
f 485/1200/362 490/1383/362 489/1201/363
f 481/1203/358 486/1384/357 490/1204/362
s 0
f 482/1385/364 481/1386/364 483/1208/364
f 481/1386/364 485/1206/364 483/1208/364
f 489/1387/365 490/1388/365 488/1211/365
f 490/1388/385 486/1209/385 488/1211/385
s 1
f 491/1212/366 492/1389/367 497/1213/367
f 492/1215/367 493/1390/368 498/1216/368
f 494/1218/369 499/1391/369 498/1219/368
f 494/1221/369 495/1392/370 500/1222/370
f 491/1212/366 496/1214/366 500/1224/370
s 0
f 492/1228/371 491/1393/371 495/1394/371
f 495/1394/371 494/1226/371 492/1228/371
f 499/1231/372 500/1395/372 496/1229/372
f 496/1229/372 497/1396/372 498/1230/372
s 1
f 502/1232/373 507/1236/373 506/1233/374
f 503/1235/375 508/1397/375 507/1236/373
f 503/1237/375 504/1398/376 509/1238/376
f 504/1240/376 505/1399/377 510/1241/377
f 501/1243/374 506/1400/374 510/1244/377
s 0
f 502/1248/378 501/1401/378 505/1402/378
f 505/1402/378 504/1246/378 502/1248/378
f 509/1251/379 510/1403/379 506/1404/379
f 506/1404/379 507/1249/379 509/1251/379
