# Blender 5.0.1
# www.blender.org
mtllib coral_tube_b.mtl
o coral_tube_b_body
usemtl coral_tube_b_body
v 0.195416 0.000000 -0.026775
v 0.124133 0.004027 0.014240
v 0.124133 0.015797 0.095733
v 0.195416 0.023540 0.136211
v 0.266698 0.019514 0.095196
v 0.266698 0.007743 0.013703
v 0.172237 0.874998 -0.124520
v 0.125488 0.877639 -0.097621
v 0.125488 0.885358 -0.044176
v 0.172237 0.890436 -0.017629
v 0.218986 0.887796 -0.044528
v 0.218986 0.880076 -0.097973
v 0.069175 0.022421 0.068239
v 0.001282 0.015006 0.106806
v 0.001282 0.004355 0.184514
v 0.069175 0.001119 0.223654
v 0.137068 0.008535 0.185087
v 0.137068 0.019185 0.107379
v 0.044639 0.801488 0.199681
v -0.002103 0.796383 0.226234
v -0.002103 0.789051 0.279734
v 0.044639 0.786823 0.306681
v 0.091382 0.791928 0.280128
v 0.091382 0.799261 0.226628
v -0.127432 0.017368 0.081258
v -0.197224 0.020527 0.122017
v -0.197224 0.014929 0.202707
v -0.127432 0.006172 0.242639
v -0.057639 0.003013 0.201881
v -0.057639 0.008611 0.121190
v -0.067516 0.714031 0.156540
v -0.114111 0.716140 0.183752
v -0.114111 0.712402 0.237622
v -0.067516 0.706556 0.264281
v -0.020921 0.704447 0.237070
v -0.020921 0.708185 0.183200
v -0.133929 0.003246 -0.060592
v -0.193237 0.011380 -0.027027
v -0.193237 0.019904 0.041073
v -0.133929 0.020294 0.075607
v -0.074621 0.012160 0.042042
v -0.074621 0.003636 -0.026058
v -0.100697 0.506242 -0.108807
v -0.147361 0.512642 -0.082398
v -0.147361 0.519349 -0.028816
v -0.100697 0.519656 -0.001644
v -0.054033 0.513256 -0.028053
v -0.054033 0.506549 -0.081635
v -0.111318 0.012574 -0.291561
v -0.181076 0.005220 -0.251158
v -0.181076 0.004416 -0.170213
v -0.111318 0.010966 -0.129672
v -0.041561 0.018320 -0.170075
v -0.041561 0.019124 -0.251020
v -0.162546 0.526267 -0.259509
v -0.209081 0.521361 -0.232556
v -0.209081 0.520824 -0.178559
v -0.162546 0.525194 -0.151514
v -0.116011 0.530100 -0.178467
v -0.116011 0.530636 -0.232464
v 0.108089 0.013785 -0.235433
v 0.042646 0.019431 -0.197292
v 0.042646 0.017416 -0.121363
v 0.108089 0.009755 -0.083575
v 0.173531 0.004109 -0.121716
v 0.173531 0.006124 -0.197645
v 0.177401 0.694474 -0.195407
v 0.130875 0.698488 -0.168291
v 0.130875 0.697056 -0.114310
v 0.177401 0.691610 -0.087445
v 0.223926 0.687596 -0.114561
v 0.223926 0.689028 -0.168542
vn -0.8661 -0.0622 -0.4959
vn -0.0008 -0.1110 -0.9938
vn -0.8661 0.0807 0.4933
vn -0.0008 0.1747 0.9846
vn 0.8644 0.1258 0.4868
vn 0.8644 -0.0170 -0.5025
vn 0.8644 0.1258 0.4867
vn 0.0263 -0.9894 0.1429
vn -0.0263 0.9894 -0.1429
vn -0.8662 0.0718 -0.4946
vn -0.0010 0.1663 -0.9861
vn -0.8662 -0.0639 0.4957
vn -0.0010 -0.1051 0.9945
vn 0.8642 -0.0106 0.5030
vn 0.8642 0.1251 -0.4873
vn 0.0311 -0.9903 -0.1357
vn -0.0311 0.9903 0.1357
vn -0.8590 0.1462 -0.4907
vn 0.0033 0.1072 -0.9942
vn -0.8590 0.0770 0.5062
vn 0.0033 -0.0312 0.9995
vn 0.8655 -0.0702 0.4960
vn 0.8655 -0.0010 -0.5009
vn -0.0853 -0.9940 -0.0690
vn 0.0853 0.9940 0.0690
vn -0.8619 0.0229 -0.5066
vn 0.0019 -0.0955 -0.9954
vn -0.8619 0.1471 0.4853
vn 0.0019 0.1528 0.9883
vn 0.8657 0.0343 0.4994
vn 0.8657 -0.0899 -0.4924
vn -0.0657 -0.9901 0.1239
vn 0.0657 0.9901 -0.1239
vn -0.8658 -0.0290 -0.4996
vn -0.0052 0.0618 -0.9981
vn -0.8658 -0.0389 0.4990
vn -0.0052 0.0419 0.9991
vn 0.8554 0.1327 0.5007
vn 0.8554 0.1426 -0.4979
vn 0.0992 -0.9950 -0.0099
vn -0.0992 0.9950 0.0099
vn -0.8579 0.1327 -0.4964
vn 0.0032 0.0584 -0.9983
vn -0.8579 0.1062 0.5027
vn 0.0032 0.0053 1.0000
vn 0.8644 -0.0689 0.4981
vn 0.8644 -0.0424 -0.5010
vn -0.1012 -0.9945 -0.0264
vn 0.1012 0.9945 0.0264
vt -0.308419 -0.019358
vt -0.428678 2.158070
vt -0.486625 -0.029425
vt 0.027214 -0.019358
vt -0.118824 2.183970
vt -0.252438 2.164672
vt 0.486625 0.029425
vt 0.311805 2.183970
vt 0.308419 0.010067
vt 0.664831 0.019358
vt 0.428678 2.196666
vt -0.025872 -0.010067
vt 0.119704 2.190063
vt -0.229604 0.019358
vt -0.664831 -0.010067
vt -0.545550 2.170766
vt 0.486625 -0.332141
vt 0.308419 -0.230946
vt 0.308419 -0.027214
vt 0.311805 -0.118824
vt 0.428678 -0.052457
vt 0.545550 -0.119704
vt -0.001290 0.008089
vt -0.109684 1.974296
vt -0.171023 0.026627
vt 0.452900 -0.018538
vt 0.557200 1.961533
vt 0.258631 0.008089
vt 0.171023 -0.026627
vt -0.007173 1.943201
vt 0.001290 -0.018538
vt 0.226541 1.950395
vt 0.109684 1.937632
vt -0.454332 -0.008089
vt -0.558186 1.968727
vt -0.691935 1.950395
vt -0.226541 1.968727
vt -0.340756 0.018538
vt 0.340756 -0.260063
vt 0.171023 -0.550751
vt 0.001290 -0.258631
vt 0.109684 0.758317
vt 0.226541 0.691935
vt 0.109684 0.490818
vt 0.494975 0.021892
vt 0.170704 1.755652
vt 0.320493 0.013995
vt 0.296657 0.021892
vt 0.585670 1.751580
vt 0.450994 1.760924
vt -0.320493 -0.013995
vt -0.287192 1.751580
vt -0.494975 0.007897
vt -0.146011 -0.021892
vt -0.170704 1.736965
vt -0.294591 -0.007897
vt -0.584290 1.731693
vt -0.496317 -0.021892
vt 0.054216 1.741036
vt 0.146011 -0.007897
vt -0.320493 -0.598213
vt -0.494975 -0.498384
vt -0.494975 -0.296657
vt -0.170704 0.652318
vt -0.054216 0.584290
vt -0.170704 0.382966
vt 0.485008 -0.000975
vt 0.253657 1.236180
vt 0.336738 -0.021310
vt 0.094296 0.020335
vt -0.214379 1.252180
vt -0.075953 -0.000975
vt -0.485008 0.020335
vt -0.253657 1.269715
vt -0.370318 1.268947
vt -0.188467 0.000975
vt -0.336738 0.021310
vt 0.073530 -0.020335
vt 0.078518 1.253715
vt -0.096720 0.000975
vt 0.136995 1.236948
vt 0.188467 -0.020335
vt -0.188467 0.073530
vt -0.336738 -0.180633
vt -0.485008 0.075953
vt -0.253657 -0.280403
vt -0.370318 -0.080424
vt -0.136995 -0.078518
vt 0.454604 -0.016376
vt 0.408279 1.286242
vt 0.280210 0.002010
vt -0.433919 -0.018386
vt -0.589776 1.273977
vt -0.636279 -0.016376
vt -0.454604 -0.018386
vt -0.408279 1.283560
vt -0.524616 1.272636
vt -0.105816 0.016376
vt -0.280210 -0.002010
vt 0.635934 0.018386
vt 0.454552 1.295825
vt 0.433573 0.016376
vt 0.291942 1.297166
vt 0.105816 0.018386
vt -0.280210 0.332566
vt -0.454604 0.433919
vt -0.454604 0.636279
vt -0.524616 -0.454782
vt -0.408279 -0.387171
vt -0.291942 -0.454552
vt -0.104702 0.019152
vt -0.441588 1.706761
vt -0.268307 0.005037
vt -0.311792 0.014115
vt -0.429111 1.716796
vt -0.501615 0.019152
vt 0.268307 -0.005037
vt 0.325274 1.713215
vt 0.104702 0.014115
vt 0.431913 -0.019152
vt 0.441588 1.699598
vt 0.312675 -0.019152
vt 0.429739 1.693145
vt 0.294787 1.689564
vt -0.557901 1.693145
vt -0.431913 -0.014115
vt 0.431913 0.502498
vt 0.268307 0.217322
vt 0.104702 0.501615
vt 0.325274 -0.294159
vt 0.441588 -0.226996
vt 0.557901 -0.294787
vt -0.311805 2.164672
vt 0.230946 0.010067
vt 0.545550 2.190063
vt 0.253318 2.170766
vt 0.486625 0.075323
vt 0.664831 -0.025872
vt 0.664831 -0.229604
vt 0.545550 -0.253318
vt 0.428678 -0.319685
vt 0.311805 -0.252438
vt 0.007173 1.961533
vt 0.690949 1.943201
vt 0.340756 -0.008089
vt -0.260063 0.018538
vt 0.171023 -0.162213
vt 0.340756 -0.454332
vt 0.001290 -0.452900
vt 0.226541 0.558186
vt -0.007173 0.557200
vt -0.007173 0.690949
vt 0.287192 1.760924
vt 0.498384 0.007897
vt -0.054216 1.731693
vt -0.449614 1.741036
vt -0.320493 -0.194761
vt -0.146011 -0.294591
vt -0.146011 -0.496317
vt -0.054216 0.449614
vt -0.287192 0.450994
vt -0.287192 0.585670
vt 0.370318 1.252180
vt -0.080424 1.268947
vt -0.136995 1.253715
vt 0.212473 1.236948
vt -0.336738 0.159866
vt -0.188467 -0.096720
vt -0.485008 -0.094296
vt -0.136995 -0.212473
vt -0.370318 -0.214379
vt -0.253657 -0.012494
vt 0.524616 1.273977
vt -0.454782 1.272636
vt -0.291942 1.295825
vt 0.589545 1.297166
vt -0.280210 0.737287
vt -0.105816 0.635934
vt -0.105816 0.433573
vt -0.291942 -0.589545
vt -0.408279 -0.657157
vt -0.524616 -0.589776
vt -0.325274 1.716796
vt -0.294159 1.713215
vt 0.557901 1.689564
vt 0.502498 -0.014115
vt 0.268307 0.596968
vt 0.431913 0.312675
vt 0.104702 0.311792
vt 0.557901 -0.429739
vt 0.441588 -0.496902
vt 0.325274 -0.429111
s 1
f 2/1/1 7/2/2 1/3/2
f 2/4/1 9/5/3 8/6/1
f 4/7/4 9/8/3 3/9/3
f 5/10/5 10/11/4 4/7/4
f 6/12/6 11/13/7 5/14/5
f 6/15/6 7/2/2 12/16/6
s 0
f 4/17/8 3/18/8 2/19/8
f 9/20/9 10/21/9 11/22/9
s 1
f 14/23/10 19/24/11 13/25/11
f 15/26/12 20/27/10 14/28/10
f 16/29/13 21/30/12 15/31/12
f 16/29/13 23/32/14 22/33/13
f 17/34/14 24/35/15 23/36/14
f 13/25/11 24/37/15 18/38/15
s 0
f 18/39/16 16/40/16 14/41/16
f 22/42/17 23/43/17 19/44/17
s 1
f 26/45/18 31/46/19 25/47/19
f 26/48/18 33/49/20 32/50/18
f 28/51/21 33/52/20 27/53/20
f 29/54/22 34/55/21 28/51/21
f 30/56/23 35/57/22 29/58/22
f 25/47/19 36/59/23 30/60/23
s 0
f 28/61/24 27/62/24 26/63/24
f 34/64/25 35/65/25 31/66/25
s 1
f 38/67/26 43/68/27 37/69/27
f 39/70/28 44/71/26 38/72/26
f 39/73/28 46/74/29 45/75/28
f 41/76/30 46/74/29 40/77/29
f 42/78/31 47/79/30 41/80/30
f 37/69/27 48/81/31 42/82/31
s 0
f 42/83/32 40/84/32 38/85/32
f 43/86/33 45/87/33 47/88/33
s 1
f 50/89/34 55/90/35 49/91/35
f 51/92/36 56/93/34 50/94/34
f 51/95/36 58/96/37 57/97/36
f 53/98/38 58/96/37 52/99/37
f 54/100/39 59/101/38 53/102/38
f 49/91/35 60/103/39 54/104/39
s 0
f 52/105/40 51/106/40 50/107/40
f 57/108/41 58/109/41 59/110/41
s 1
f 62/111/42 67/112/43 61/113/43
f 63/114/44 68/115/42 62/116/42
f 64/117/45 69/118/44 63/119/44
f 65/120/46 70/121/45 64/117/45
f 65/122/46 72/123/47 71/124/46
f 61/113/43 72/125/47 66/126/47
s 0
f 66/127/48 64/128/48 62/129/48
f 69/130/49 70/131/49 71/132/49
s 1
f 2/1/1 8/133/1 7/2/2
f 2/4/1 3/134/3 9/5/3
f 4/7/4 10/11/4 9/8/3
f 5/10/5 11/135/7 10/11/4
f 6/12/6 12/136/6 11/13/7
f 6/15/6 1/3/2 7/2/2
s 0
f 2/19/8 1/137/8 6/138/8
f 6/138/8 5/139/8 2/19/8
f 5/139/8 4/17/8 2/19/8
f 11/22/9 12/140/9 7/141/9
f 7/141/9 8/142/9 11/22/9
f 8/142/9 9/20/9 11/22/9
s 1
f 14/23/10 20/143/10 19/24/11
f 15/26/12 21/144/12 20/27/10
f 16/29/13 22/33/13 21/30/12
f 16/29/13 17/145/14 23/32/14
f 17/34/14 18/146/15 24/35/15
f 13/25/11 19/24/11 24/37/15
s 0
f 14/41/16 13/147/16 18/39/16
f 18/39/16 17/148/16 16/40/16
f 16/40/16 15/149/16 14/41/16
f 23/43/17 24/150/17 19/44/17
f 19/44/17 20/151/17 21/152/17
f 21/152/17 22/42/17 19/44/17
s 1
f 26/45/18 32/153/18 31/46/19
f 26/48/18 27/154/20 33/49/20
f 28/51/21 34/55/21 33/52/20
f 29/54/22 35/155/22 34/55/21
f 30/56/23 36/156/23 35/57/22
f 25/47/19 31/46/19 36/59/23
s 0
f 26/63/24 25/157/24 30/158/24
f 30/158/24 29/159/24 26/63/24
f 29/159/24 28/61/24 26/63/24
f 35/65/25 36/160/25 31/66/25
f 31/66/25 32/161/25 33/162/25
f 33/162/25 34/64/25 31/66/25
s 1
f 38/67/26 44/163/26 43/68/27
f 39/70/28 45/164/28 44/71/26
f 39/73/28 40/77/29 46/74/29
f 41/76/30 47/165/30 46/74/29
f 42/78/31 48/166/31 47/79/30
f 37/69/27 43/68/27 48/81/31
s 0
f 38/85/32 37/167/32 42/83/32
f 42/83/32 41/168/32 40/84/32
f 40/84/32 39/169/32 38/85/32
f 47/88/33 48/170/33 43/86/33
f 43/86/33 44/171/33 45/87/33
f 45/87/33 46/172/33 47/88/33
s 1
f 50/89/34 56/173/34 55/90/35
f 51/92/36 57/174/36 56/93/34
f 51/95/36 52/99/37 58/96/37
f 53/98/38 59/175/38 58/96/37
f 54/100/39 60/176/39 59/101/38
f 49/91/35 55/90/35 60/103/39
s 0
f 50/107/40 49/177/40 52/105/40
f 49/177/40 54/178/40 52/105/40
f 54/178/40 53/179/40 52/105/40
f 59/110/41 60/180/41 57/108/41
f 60/180/41 55/181/41 57/108/41
f 55/181/41 56/182/41 57/108/41
s 1
f 62/111/42 68/183/42 67/112/43
f 63/114/44 69/184/44 68/115/42
f 64/117/45 70/121/45 69/118/44
f 65/120/46 71/185/46 70/121/45
f 65/122/46 66/186/47 72/123/47
f 61/113/43 67/112/43 72/125/47
s 0
f 62/129/48 61/187/48 66/127/48
f 66/127/48 65/188/48 64/128/48
f 64/128/48 63/189/48 62/129/48
f 71/132/49 72/190/49 67/191/49
f 67/191/49 68/192/49 71/132/49
f 68/192/49 69/130/49 71/132/49
o coral_tube_b_tip
usemtl coral_tube_b_tip
v 0.172237 0.874741 -0.126301
v 0.123929 0.877470 -0.098506
v 0.123929 0.885446 -0.043279
v 0.172237 0.890694 -0.015847
v 0.220544 0.887965 -0.043643
v 0.220544 0.879988 -0.098870
v 0.170815 0.929454 -0.125110
v 0.130299 0.931743 -0.101798
v 0.130299 0.938433 -0.055479
v 0.170815 0.942834 -0.032472
v 0.211331 0.940545 -0.055784
v 0.211331 0.933855 -0.102103
v 0.044639 0.801733 0.197898
v -0.003662 0.796457 0.225336
v -0.003662 0.788880 0.280619
v 0.044639 0.786578 0.308464
v 0.092940 0.791854 0.281026
v 0.092940 0.799431 0.225743
v 0.042962 0.853985 0.214144
v 0.002452 0.849560 0.237156
v 0.002452 0.843205 0.283523
v 0.042962 0.841275 0.306877
v 0.083473 0.845699 0.283864
v 0.083473 0.852054 0.237498
v -0.067516 0.714155 0.154745
v -0.115664 0.716335 0.182863
v -0.115664 0.712472 0.238529
v -0.067516 0.706431 0.266077
v -0.019368 0.704252 0.237959
v -0.019368 0.708114 0.182293
v -0.062912 0.767207 0.167447
v -0.103295 0.769034 0.191030
v -0.103295 0.765795 0.237718
v -0.062912 0.760729 0.260822
v -0.022530 0.758901 0.237239
v -0.022530 0.762140 0.190552
v -0.100697 0.506019 -0.110593
v -0.148917 0.512632 -0.083303
v -0.148917 0.519562 -0.027935
v -0.100697 0.519880 0.000143
v -0.052477 0.513266 -0.027147
v -0.052477 0.506336 -0.082515
v -0.097152 0.560603 -0.108355
v -0.137594 0.566149 -0.085467
v -0.137594 0.571962 -0.039029
v -0.097152 0.572228 -0.015480
v -0.056709 0.566681 -0.038368
v -0.056709 0.560869 -0.084806
v -0.162546 0.526285 -0.261309
v -0.210632 0.521215 -0.233458
v -0.210632 0.520661 -0.177661
v -0.162546 0.525176 -0.149714
v -0.114460 0.530246 -0.177565
v -0.114460 0.530800 -0.233363
v -0.167901 0.579926 -0.251776
v -0.208231 0.575675 -0.228417
v -0.208231 0.575210 -0.181619
v -0.167901 0.578997 -0.158180
v -0.127571 0.583249 -0.181539
v -0.127571 0.583713 -0.228337
v 0.177401 0.694522 -0.197206
v 0.129325 0.698670 -0.169186
v 0.129325 0.697190 -0.113406
v 0.177401 0.691562 -0.085645
v 0.225477 0.687414 -0.113665
v 0.225477 0.688894 -0.169445
v 0.182865 0.747987 -0.186784
v 0.142543 0.751466 -0.163283
v 0.142543 0.750225 -0.116500
v 0.182865 0.745504 -0.093217
v 0.223187 0.742026 -0.116718
v 0.223187 0.743267 -0.163501
vn -0.0043 0.0217 -0.9998
vn -0.8583 0.0699 -0.5084
vn -0.8583 0.2109 0.4679
vn -0.0043 0.3037 0.9528
vn 0.8496 0.2554 0.4614
vn 0.8496 0.1144 -0.5148
vn 0.0263 -0.9894 0.1429
vn -0.0263 0.9894 -0.1429
vn -0.0051 0.2967 -0.9549
vn -0.8589 0.2035 -0.4699
vn -0.8589 0.0695 0.5073
vn -0.0051 0.0289 0.9996
vn 0.8487 0.1221 0.5145
vn 0.8487 0.2561 -0.4627
vn 0.0311 -0.9903 -0.1357
vn -0.0311 0.9903 0.1357
vn 0.0140 0.2317 -0.9727
vn -0.8371 0.2702 -0.4756
vn -0.8371 0.2019 0.5084
vn 0.0140 0.0951 0.9954
vn 0.8651 0.0566 0.4983
vn 0.8652 0.0566 0.4983
vn 0.8651 0.1249 -0.4857
vn -0.0853 -0.9940 -0.0690
vn 0.0853 0.9940 0.0690
vn 0.0108 0.0403 -0.9991
vn -0.8416 0.1572 -0.5167
vn -0.8416 0.2797 0.4620
vn 0.0108 0.2853 0.9584
vn 0.8632 0.1684 0.4760
vn 0.8632 0.0459 -0.5028
vn -0.0657 -0.9901 0.1239
vn 0.0657 0.9901 -0.1239
vn -0.0163 0.1734 -0.9847
vn -0.8663 0.0838 -0.4924
vn -0.8663 0.0740 0.4940
vn -0.0163 0.1538 0.9880
vn 0.8337 0.2434 0.4956
vn 0.8337 0.2532 -0.4907
vn 0.0992 -0.9950 -0.0099
vn -0.0992 0.9950 0.0099
vn -0.8332 0.2630 -0.4864
vn 0.0166 0.1897 -0.9817
vn -0.8332 0.2368 0.4997
vn 0.0166 0.1373 0.9904
vn 0.8665 0.0640 0.4951
vn 0.8665 0.0902 -0.4910
vn 0.8665 0.0640 0.4950
vn -0.1012 -0.9945 -0.0264
vn 0.1012 0.9945 0.0264
vt -0.428678 2.157427
vt -0.323833 2.299932
vt -0.425123 2.294210
vt -0.116583 2.184190
vt -0.262880 2.299932
vt -0.254650 2.164249
vt 0.307909 2.184190
vt 0.425123 2.327660
vt 0.323833 2.316657
vt 0.549446 2.190487
vt 0.428678 2.197309
vt 0.117492 2.190487
vt 0.263643 2.305213
vt 0.147844 2.321938
vt -0.526413 2.305213
vt -0.549446 2.170546
vt 0.307909 0.116583
vt 0.307909 0.254650
vt 0.549446 0.255559
vt 0.323833 -0.147082
vt 0.425123 -0.089564
vt 0.526413 -0.147844
vt -0.109684 1.974907
vt -0.004216 2.094475
vt -0.105492 2.105536
vt 0.554954 1.961718
vt 0.700421 2.078588
vt 0.584505 2.094475
vt 0.109684 1.937021
vt 0.004216 2.078588
vt -0.011068 1.942775
vt 0.230437 1.950209
vt 0.105492 2.073761
vt -0.555973 1.969152
vt -0.701276 2.084822
vt -0.694181 1.950209
vt -0.206768 2.100710
vt -0.230437 1.969152
vt 0.109684 -0.762776
vt -0.011068 -0.693162
vt -0.011068 -0.554954
vt 0.105492 0.526974
vt 0.004216 0.700421
vt 0.206768 0.701276
vt 0.170704 1.755963
vt 0.260150 1.893161
vt 0.159194 1.888592
vt 0.587938 1.751756
vt 0.469190 1.893161
vt 0.448772 1.761411
vt -0.291075 1.751756
vt -0.159194 1.872396
vt -0.260150 1.885063
vt -0.170704 1.736653
vt -0.058238 1.867827
vt -0.586512 1.731205
vt -0.467994 1.875925
vt -0.584713 1.867827
vt 0.058238 1.875925
vt 0.050333 1.740860
vt -0.050333 -0.447346
vt -0.170704 -0.656807
vt -0.291075 -0.448772
vt -0.260150 0.585909
vt -0.159194 0.643671
vt -0.058238 0.584713
vt 0.253657 1.235622
vt 0.345900 1.385948
vt 0.244793 1.372082
vt -0.078224 1.269481
vt -0.222053 1.385948
vt -0.216644 1.252155
vt -0.374207 1.269481
vt -0.244793 1.401145
vt -0.345900 1.400480
vt -0.133107 1.253741
vt -0.253657 1.270274
vt 0.076253 1.253741
vt 0.220400 1.372747
vt 0.104306 1.387278
vt 0.143687 1.372747
vt 0.133107 1.236414
vt -0.133107 0.214673
vt -0.253657 0.008029
vt -0.374207 0.216644
vt -0.345900 -0.105959
vt -0.244793 -0.047085
vt -0.143687 -0.104306
vt 0.408279 1.286286
vt 0.522493 1.409761
vt 0.421667 1.420391
vt -0.452536 1.272227
vt -0.579427 1.409761
vt -0.592029 1.273612
vt -0.528494 1.272227
vt -0.421667 1.418067
vt -0.522493 1.408599
vt -0.288064 1.296189
vt -0.408279 1.283515
vt 0.452298 1.296189
vt 0.579227 1.429858
vt 0.462233 1.428696
vt 0.320842 1.429858
vt 0.288064 1.297575
vt -0.408279 0.382671
vt -0.528494 0.452536
vt -0.528494 0.592029
vt -0.421667 -0.637824
vt -0.522493 -0.462432
vt -0.320842 -0.462233
vt -0.321397 1.717249
vt -0.455247 1.840543
vt -0.441588 1.706880
vt -0.291899 1.713549
vt -0.416594 1.849240
vt -0.431350 1.717249
vt 0.321397 1.713549
vt 0.455247 1.834336
vt 0.354442 1.846136
vt 0.561778 1.689110
vt 0.441588 1.699479
vt 0.431999 1.692810
vt 0.300179 1.825639
vt 0.292548 1.689110
vt -0.561778 1.692810
vt -0.556052 1.828743
vt 0.441588 0.222498
vt 0.321397 0.291899
vt 0.321397 0.431350
vt 0.354442 -0.299635
vt 0.455247 -0.241427
vt 0.556052 -0.300179
vt -0.307909 2.164249
vt -0.147082 2.316657
vt 0.526413 2.321938
vt 0.255559 2.170546
vt 0.428678 0.324138
vt 0.549446 0.117492
vt 0.428678 0.048004
vt 0.526413 -0.263643
vt 0.425123 -0.321161
vt 0.323833 -0.262880
vt 0.011068 1.961718
vt 0.693162 1.942775
vt 0.206768 2.084822
vt -0.585360 2.100710
vt 0.109684 -0.486360
vt 0.230437 -0.555973
vt 0.230437 -0.694181
vt 0.206768 0.585360
vt 0.004216 0.584505
vt 0.105492 0.758807
vt 0.291075 1.761411
vt 0.585909 1.885063
vt -0.050333 1.731205
vt -0.447346 1.740860
vt -0.170704 -0.378477
vt -0.050333 -0.586512
vt -0.291075 -0.587938
vt -0.058238 0.467994
vt -0.159194 0.410232
vt -0.260150 0.469190
vt 0.374207 1.252155
vt -0.105959 1.400480
vt -0.143687 1.387278
vt 0.214673 1.236414
vt -0.253657 0.284868
vt -0.133107 0.076253
vt -0.374207 0.078224
vt -0.143687 -0.220400
vt -0.244793 -0.279274
vt -0.345900 -0.222053
vt 0.528494 1.273612
vt -0.462432 1.408599
vt -0.320842 1.428696
vt 0.591792 1.297575
vt -0.408279 0.661657
vt -0.288064 0.591792
vt -0.288064 0.452298
vt -0.320842 -0.579227
vt -0.522493 -0.579427
vt -0.421667 -0.403835
vt -0.354442 1.849240
vt -0.299635 1.846136
vt 0.556052 1.825639
vt 0.417138 1.828743
vt 0.441588 0.501400
vt 0.561778 0.431999
vt 0.561778 0.292548
vt 0.556052 -0.417138
vt 0.455247 -0.475345
vt 0.354442 -0.416594
s 1
f 73/193/50 80/194/51 79/195/50
f 75/196/52 80/197/51 74/198/51
f 75/199/52 82/200/53 81/201/52
f 77/202/54 82/200/53 76/203/53
f 77/204/54 84/205/55 83/206/54
f 73/193/50 84/207/55 78/208/55
s 0
f 75/209/56 74/210/56 78/211/56
f 81/212/57 82/213/57 83/214/57
s 1
f 85/215/58 92/216/59 91/217/58
f 86/218/59 93/219/60 92/220/59
f 88/221/61 93/222/60 87/223/60
f 89/224/62 94/225/61 88/221/61
f 90/226/63 95/227/62 89/228/62
f 85/215/58 96/229/63 90/230/63
s 0
f 88/231/64 87/232/64 86/233/64
f 91/234/65 93/235/65 95/236/65
s 1
f 97/237/66 104/238/67 103/239/66
f 99/240/68 104/241/67 98/242/67
f 99/243/68 106/244/69 105/245/68
f 100/246/69 107/247/70 106/244/69
f 101/248/71 108/249/72 107/250/70
f 97/237/66 108/251/72 102/252/72
s 0
f 102/253/73 100/254/73 98/255/73
f 105/256/74 106/257/74 107/258/74
s 1
f 109/259/75 116/260/76 115/261/75
f 111/262/77 116/263/76 110/264/76
f 111/265/77 118/266/78 117/267/77
f 113/268/79 118/266/78 112/269/78
f 113/270/79 120/271/80 119/272/79
f 109/259/75 120/273/80 114/274/80
s 0
f 114/275/81 112/276/81 110/277/81
f 117/278/82 118/279/82 119/280/82
s 1
f 121/281/83 128/282/84 127/283/83
f 123/284/85 128/285/84 122/286/84
f 123/287/85 130/288/86 129/289/85
f 125/290/87 130/288/86 124/291/86
f 125/292/87 132/293/88 131/294/87
f 121/281/83 132/295/88 126/296/88
s 0
f 124/297/89 123/298/89 122/299/89
f 127/300/90 129/301/90 131/302/90
s 1
f 134/303/91 139/304/92 133/305/92
f 135/306/93 140/307/91 134/308/91
f 135/309/93 142/310/94 141/311/93
f 137/312/95 142/310/94 136/313/94
f 138/314/96 143/315/97 137/316/95
f 138/317/96 139/304/92 144/318/96
s 0
f 136/319/98 135/320/98 134/321/98
f 141/322/99 142/323/99 143/324/99
s 1
f 73/193/50 74/325/51 80/194/51
f 75/196/52 81/326/52 80/197/51
f 75/199/52 76/203/53 82/200/53
f 77/202/54 83/327/54 82/200/53
f 77/204/54 78/328/55 84/205/55
f 73/193/50 79/195/50 84/207/55
s 0
f 74/210/56 73/329/56 78/211/56
f 78/211/56 77/330/56 76/331/56
f 76/331/56 75/209/56 78/211/56
f 83/214/57 84/332/57 81/212/57
f 84/332/57 79/333/57 81/212/57
f 79/333/57 80/334/57 81/212/57
s 1
f 85/215/58 86/335/59 92/216/59
f 86/218/59 87/336/60 93/219/60
f 88/221/61 94/225/61 93/222/60
f 89/224/62 95/337/62 94/225/61
f 90/226/63 96/338/63 95/227/62
f 85/215/58 91/217/58 96/229/63
s 0
f 86/233/64 85/339/64 90/340/64
f 90/340/64 89/341/64 86/233/64
f 89/341/64 88/231/64 86/233/64
f 95/236/65 96/342/65 91/234/65
f 91/234/65 92/343/65 93/235/65
f 93/235/65 94/344/65 95/236/65
s 1
f 97/237/66 98/345/67 104/238/67
f 99/240/68 105/346/68 104/241/67
f 99/243/68 100/246/69 106/244/69
f 100/246/69 101/347/71 107/247/70
f 101/248/71 102/348/72 108/249/72
f 97/237/66 103/239/66 108/251/72
s 0
f 98/255/73 97/349/73 102/253/73
f 102/253/73 101/350/73 100/254/73
f 100/254/73 99/351/73 98/255/73
f 107/258/74 108/352/74 103/353/74
f 103/353/74 104/354/74 107/258/74
f 104/354/74 105/256/74 107/258/74
s 1
f 109/259/75 110/355/76 116/260/76
f 111/262/77 117/356/77 116/263/76
f 111/265/77 112/269/78 118/266/78
f 113/268/79 119/357/79 118/266/78
f 113/270/79 114/358/80 120/271/80
f 109/259/75 115/261/75 120/273/80
s 0
f 110/277/81 109/359/81 114/275/81
f 114/275/81 113/360/81 112/276/81
f 112/276/81 111/361/81 110/277/81
f 119/280/82 120/362/82 117/278/82
f 120/362/82 115/363/82 117/278/82
f 115/363/82 116/364/82 117/278/82
s 1
f 121/281/83 122/365/84 128/282/84
f 123/284/85 129/366/85 128/285/84
f 123/287/85 124/291/86 130/288/86
f 125/290/87 131/367/87 130/288/86
f 125/292/87 126/368/88 132/293/88
f 121/281/83 127/283/83 132/295/88
s 0
f 122/299/89 121/369/89 126/370/89
f 126/370/89 125/371/89 122/299/89
f 125/371/89 124/297/89 122/299/89
f 131/302/90 132/372/90 127/300/90
f 127/300/90 128/373/90 129/301/90
f 129/301/90 130/374/90 131/302/90
s 1
f 134/303/91 140/375/91 139/304/92
f 135/306/93 141/376/93 140/307/91
f 135/309/93 136/313/94 142/310/94
f 137/312/95 143/377/97 142/310/94
f 138/314/96 144/378/96 143/315/97
f 138/317/96 133/305/92 139/304/92
s 0
f 134/321/98 133/379/98 138/380/98
f 138/380/98 137/381/98 134/321/98
f 137/381/98 136/319/98 134/321/98
f 143/324/99 144/382/99 139/383/99
f 139/383/99 140/384/99 143/324/99
f 140/384/99 141/322/99 143/324/99
