# Blender 5.0.1
# www.blender.org
mtllib coral_table_b.mtl
o coral_table_b_body
usemtl coral_table_b_body
v 0.000000 0.007504 -0.143961
v -0.124683 0.008288 -0.071923
v -0.124683 0.004928 0.072038
v -0.000000 0.000784 0.143961
v 0.124683 0.000000 0.071923
v 0.124683 0.003360 -0.072038
v 0.007613 0.391758 -0.102983
v -0.089363 0.392368 -0.046954
v -0.089363 0.389754 0.065016
v 0.007613 0.386531 0.120956
v 0.104589 0.385921 0.064927
v 0.104589 0.388534 -0.047043
vn -0.8613 0.1114 -0.4958
vn 0.0016 0.1060 -0.9944
vn -0.8612 0.0882 0.5005
vn -0.8612 0.1114 -0.4958
vn 0.0017 0.0595 0.9982
vn -0.8613 0.0882 0.5005
vn 0.8645 0.0541 0.4997
vn 0.0016 0.0595 0.9982
vn 0.8645 0.0773 -0.4966
vn -0.0198 -0.9995 -0.0233
vn 0.0198 0.9995 0.0233
vt 0.249367 0.008288
vt -0.015226 0.775227
vt -0.000000 0.006721
vt 0.144076 0.001568
vt -0.093907 0.776447
vt -0.143846 0.008288
vt -0.000000 -0.006721
vt -0.178726 0.771219
vt -0.249367 0.001568
vt 0.249367 -0.008288
vt 0.015226 0.764773
vt 0.144076 -0.001568
vt -0.129853 0.763553
vt -0.143846 -0.008288
vt -0.209178 0.768780
vt -0.249367 -0.001568
vt -0.249367 -0.144076
vt -0.249367 0.143846
vt 0.249367 0.144076
vt -0.178726 0.130032
vt 0.015226 0.241912
vt 0.209178 0.129853
vt 0.178726 0.776447
vt 0.130032 0.771219
vt 0.209178 0.763553
vt 0.094086 0.768780
vt 0.000000 0.287922
vt 0.249367 -0.143846
vt -0.000000 -0.287922
vt 0.209178 -0.094086
vt 0.015226 -0.205966
vt -0.178726 -0.093907
s 1
f 2/1/1 7/2/2 1/3/2
f 3/4/3 8/5/4 2/6/1
f 4/7/5 9/8/6 3/9/3
f 5/10/7 10/11/8 4/7/5
f 6/12/9 11/13/7 5/14/7
f 1/3/2 12/15/9 6/16/9
s 0
f 3/17/10 2/18/10 6/19/10
f 9/20/11 10/21/11 11/22/11
s 1
f 2/1/1 8/23/4 7/2/2
f 3/4/3 9/24/6 8/5/4
f 4/7/5 10/11/8 9/8/6
f 5/10/7 11/25/7 10/11/8
f 6/12/9 12/26/9 11/13/7
f 1/3/2 7/2/2 12/15/9
s 0
f 2/18/10 1/27/10 6/19/10
f 6/19/10 5/28/10 4/29/10
f 4/29/10 3/17/10 6/19/10
f 11/22/11 12/30/11 7/31/11
f 7/31/11 8/32/11 11/22/11
f 8/32/11 9/20/11 11/22/11
o coral_table_b_tip
usemtl coral_table_b_tip
v 0.000000 0.410144 0.000000
v 0.835670 0.420888 0.000000
v 0.672499 0.466260 0.323858
v 0.540874 0.468694 0.678235
v 0.151092 0.424379 0.661977
v -0.169436 0.451268 0.742349
v -0.505612 0.439483 0.634018
v -0.667376 0.431956 0.321391
v -0.724333 0.405575 0.000000
v -0.788607 0.417371 -0.379773
v -0.518799 0.434795 -0.650553
v -0.151761 0.467682 -0.664908
v 0.167877 0.465357 -0.735516
v 0.440774 0.387538 -0.552713
v 0.607699 0.386315 -0.292652
v 0.000000 0.410144 0.000000
v 0.835670 0.420888 0.000000
v 0.672499 0.466260 0.323858
v 0.540874 0.468694 0.678235
v 0.151092 0.424379 0.661977
v -0.169436 0.451268 0.742349
v -0.505612 0.439483 0.634018
v -0.667376 0.431956 0.321391
v -0.724333 0.405575 0.000000
v -0.788607 0.417371 -0.379773
v -0.518799 0.434795 -0.650553
v -0.151761 0.467682 -0.664908
v 0.167877 0.465357 -0.735516
v 0.440774 0.387538 -0.552713
v 0.607699 0.386315 -0.292652
vn -0.0011 -1.0000 0.0085
vn 0.0127 -0.9917 0.1281
vn 0.0411 -0.9953 0.0872
vn 0.0884 -0.9960 0.0155
vn 0.0263 -0.9995 0.0155
vn -0.0223 -0.9985 0.0502
vn -0.0000 -0.9989 0.0462
vn -0.0063 -0.9985 0.0547
vn 0.0063 -0.9998 0.0182
vn 0.0111 -0.9991 -0.0420
vn 0.0423 -0.9965 -0.0715
vn 0.0329 -0.9951 -0.0936
vn -0.1146 -0.9883 -0.1003
vn -0.1229 -0.9907 -0.0575
vn -0.0072 -0.9978 0.0663
vn 0.0011 1.0000 -0.0085
vn -0.0127 0.9917 -0.1281
vn -0.0411 0.9953 -0.0872
vn -0.0884 0.9960 -0.0155
vn -0.0263 0.9995 -0.0155
vn 0.0223 0.9985 -0.0502
vn -0.0000 0.9989 -0.0462
vn 0.0063 0.9985 -0.0547
vn -0.0063 0.9998 -0.0182
vn -0.0111 0.9991 0.0420
vn -0.0423 0.9965 0.0715
vn -0.0329 0.9951 0.0936
vn 0.1146 0.9883 0.1003
vn 0.1229 0.9907 0.0575
vn 0.0072 0.9978 -0.0663
vt 0.000000 0.000000
vt 1.392783 0.000000
vt 1.120832 0.539764
vt 0.901457 1.130391
vt 0.251820 1.103296
vt -0.282394 1.237248
vt -0.842687 1.056696
vt -1.112293 0.535652
vt -1.207222 0.000000
vt -1.314344 -0.632955
vt -0.864665 -1.084256
vt -0.252935 -1.108179
vt 0.279795 -1.225861
vt 0.734623 -0.921188
vt 1.012832 -0.487754
s 1
f 13/33/12 14/34/13 15/35/14
f 13/33/12 15/35/14 16/36/15
f 13/33/12 16/36/15 17/37/16
f 13/33/12 17/37/16 18/38/17
f 13/33/12 18/38/17 19/39/18
f 13/33/12 19/39/18 20/40/19
f 13/33/12 20/40/19 21/41/20
f 13/33/12 21/41/20 22/42/21
f 13/33/12 22/42/21 23/43/22
f 13/33/12 23/43/22 24/44/23
f 13/33/12 24/44/23 25/45/24
f 13/33/12 25/45/24 26/46/25
f 13/33/12 26/46/25 27/47/26
f 13/33/12 27/47/26 14/34/13
f 28/33/27 30/35/29 29/34/28
f 28/33/27 31/36/30 30/35/29
f 28/33/27 32/37/31 31/36/30
f 28/33/27 33/38/32 32/37/31
f 28/33/27 34/39/33 33/38/32
f 28/33/27 35/40/34 34/39/33
f 28/33/27 36/41/35 35/40/34
f 28/33/27 37/42/36 36/41/35
f 28/33/27 38/43/37 37/42/36
f 28/33/27 39/44/38 38/43/37
f 28/33/27 40/45/39 39/44/38
f 28/33/27 41/46/40 40/45/39
f 28/33/27 42/47/41 41/46/40
f 28/33/27 29/34/28 42/47/41
