# Blender 5.0.1
# www.blender.org
mtllib coral_fan_d.mtl
o coral_fan_d_body
usemtl coral_fan_d_body
v 0.000000 0.020000 0.000005
v 0.449946 0.528989 -0.008391
v 0.344582 0.808748 0.007547
v 0.315084 1.344664 -0.011139
v 0.137837 1.300127 -0.002272
v 0.000000 1.554730 -0.003385
v -0.130401 1.231071 -0.007761
v -0.254792 1.091186 0.009624
v -0.412595 0.964432 0.004003
v -0.502742 0.588713 0.006631
v 0.000000 0.020000 0.000005
v 0.449946 0.528989 -0.008391
v 0.344582 0.808748 0.007547
v 0.315084 1.344664 -0.011139
v 0.137837 1.300127 -0.002272
v 0.000000 1.554730 -0.003385
v -0.130401 1.231071 -0.007761
v -0.254792 1.091186 0.009624
v -0.412595 0.964432 0.004003
v -0.502742 0.588713 0.006631
vn 0.0136 -0.0033 0.9999
vn 0.0581 -0.0349 0.9977
vn -0.0568 0.0153 0.9983
vn 0.0214 0.0033 0.9998
vn 0.0197 -0.0003 0.9998
vn -0.0193 0.0022 0.9998
vn -0.0015 0.0063 1.0000
vn 0.0694 0.0075 0.9976
vn -0.0133 -0.0100 0.9999
vn 0.0166 0.0030 0.9999
vn -0.0136 0.0033 -0.9999
vn -0.0581 0.0349 -0.9977
vn 0.0568 -0.0153 -0.9983
vn -0.0214 -0.0033 -0.9998
vn -0.0197 0.0003 -0.9998
vn 0.0193 -0.0022 -0.9998
vn 0.0015 -0.0063 -1.0000
vn -0.0694 -0.0075 -0.9976
vn 0.0133 0.0100 -0.9999
vn -0.0166 -0.0030 -0.9999
vt 0.000000 0.040000
vt 0.899892 1.057979
vt 0.689163 1.617496
vt 0.630168 2.689328
vt 0.275673 2.600255
vt 0.000000 3.109460
vt -0.260802 2.462141
vt -0.509584 2.182373
vt -0.825191 1.928865
vt -1.005483 1.177426
s 1
f 1/1/1 2/2/2 3/3/3
f 1/1/1 3/3/3 4/4/4
f 1/1/1 4/4/4 5/5/5
f 1/1/1 5/5/5 6/6/6
f 1/1/1 6/6/6 7/7/7
f 1/1/1 7/7/7 8/8/8
f 1/1/1 8/8/8 9/9/9
f 1/1/1 9/9/9 10/10/10
f 11/1/11 13/3/13 12/2/12
f 11/1/11 14/4/14 13/3/13
f 11/1/11 15/5/15 14/4/14
f 11/1/11 16/6/16 15/5/15
f 11/1/11 17/7/17 16/6/16
f 11/1/11 18/8/18 17/7/17
f 11/1/11 19/9/19 18/8/18
f 11/1/11 20/10/20 19/9/19
o coral_fan_d_tip
usemtl coral_fan_d_tip
v 0.000560 0.020000 0.030000
v 0.022471 0.000129 -0.000414
v -0.000560 0.020000 -0.029990
v -0.022471 0.039871 0.000424
v 0.450170 0.528989 0.003607
v 0.458935 0.521041 -0.008559
v 0.449722 0.528989 -0.020389
v 0.440958 0.536938 -0.008224
v 0.000000 0.019748 -0.029994
v -0.029186 0.026942 -0.000053
v 0.000000 0.020252 0.030004
v 0.029186 0.013058 0.000063
v 0.315084 1.344563 -0.023138
v 0.303410 1.347441 -0.011162
v 0.315084 1.344765 0.000861
v 0.326759 1.341887 -0.011116
v 0.000000 0.019934 -0.029995
v -0.030000 0.020000 0.000005
v 0.000000 0.020066 0.030005
v 0.030000 0.020000 0.000005
v 0.000000 1.554703 -0.015385
v -0.012000 1.554730 -0.003385
v 0.000000 1.554756 0.008615
v 0.012000 1.554730 -0.003385
v 0.000000 0.020269 -0.029994
v -0.029186 0.013058 -0.000057
v 0.000000 0.019731 0.030004
v 0.029186 0.026942 0.000067
v -0.254792 1.091294 -0.002376
v -0.266466 1.088410 0.009599
v -0.254792 1.091079 0.021623
v -0.243118 1.093963 0.009648
v -0.000395 0.020000 -0.029992
v -0.022474 0.000130 0.000301
v 0.000395 0.020000 0.030002
v 0.022474 0.039870 -0.000291
v -0.502900 0.588713 -0.005368
v -0.511731 0.580765 0.006750
v -0.502583 0.588713 0.018630
v -0.493752 0.596661 0.006513
v 0.000000 0.000000 -0.052495
v -0.049930 0.000000 -0.016218
v -0.030859 0.000000 0.042478
v 0.030859 0.000000 0.042478
v 0.049931 0.000000 -0.016218
v 0.000000 0.100000 -0.044995
v -0.042797 0.100000 -0.013901
v -0.026450 0.100000 0.036411
v 0.026450 0.100000 0.036411
v 0.042798 0.100000 -0.013901
vn 0.7663 -0.6423 -0.0143
vn 0.0362 0.0198 0.9991
vn -0.0011 0.0198 -0.9998
vn -0.7312 0.6820 0.0136
vn -0.7312 0.6820 0.0137
vn -0.6623 -0.7492 0.0124
vn 0.6623 0.7492 -0.0124
vn 0.0031 0.0044 -1.0000
vn -0.9697 0.2442 -0.0021
vn 0.0031 0.0213 0.9998
vn 0.9758 -0.2185 0.0018
vn -0.2314 -0.9728 0.0082
vn 0.2314 0.9728 -0.0082
vn -0.9999 0.0117 -0.0000
vn -0.0000 0.0095 -1.0000
vn -0.0000 0.0139 0.9999
vn 0.9999 0.0117 -0.0000
vn -0.0000 -1.0000 0.0022
vn -0.0000 1.0000 -0.0022
vn -0.0038 0.0249 -0.9997
vn -0.9765 -0.2155 -0.0019
vn -0.0038 0.0069 1.0000
vn 0.9689 0.2473 0.0022
vn 0.2314 -0.9728 -0.0087
vn -0.2314 0.9728 0.0087
vn -0.7646 -0.6444 0.0101
vn -0.0289 0.0178 -0.9994
vn -0.0025 0.0178 0.9998
vn 0.7332 0.6799 -0.0097
vn 0.6623 -0.7492 -0.0087
vn -0.6623 0.7492 0.0087
vn -0.9484 0.0748 -0.3081
vn -0.0000 0.0748 -0.9972
vn -0.5861 0.0748 0.8068
vn 0.5862 0.0748 0.8067
vn 0.9484 0.0748 -0.3082
vn 0.5861 0.0748 0.8067
vn -0.0000 -1.0000 -0.0000
vn -0.0000 1.0000 -0.0000
vt 0.044942 0.000257
vt 0.900340 1.057979
vt 0.001119 0.040000
vt -0.917869 1.042081
vt -0.044942 0.000257
vt 0.044942 0.079743
vt -0.899444 1.057979
vt 0.881915 1.073876
vt -0.044942 0.079743
vt -0.044942 -0.000839
vt 0.044942 0.000839
vt 0.001119 -0.059990
vt 0.900340 0.007203
vt 0.899444 -0.040788
vt 0.881915 -0.016457
vt -0.000000 0.039495
vt -0.606820 2.694881
vt -0.630168 2.689126
vt -0.058372 0.053883
vt 0.630168 2.689530
vt 0.606820 2.694881
vt 0.058372 0.026117
vt -0.000000 0.040505
vt -0.058372 0.026117
vt -0.653517 2.683775
vt 0.058372 -0.000117
vt -0.058372 0.000117
vt 0.000000 0.059998
vt 0.653517 -0.022241
vt 0.606820 -0.022334
vt 0.630168 0.001712
vt 0.060000 0.040000
vt -0.000000 3.109407
vt -0.000000 0.039867
vt -0.000000 0.040000
vt 0.017219 3.109513
vt -0.006781 3.109460
vt -0.000000 0.040000
vt -0.017219 3.109513
vt -0.060000 0.040133
vt -0.024000 3.109460
vt -0.060000 0.040000
vt 0.060000 -0.000000
vt -0.060000 0.000000
vt 0.000000 0.060000
vt 0.000000 -0.030781
vt 0.000000 0.017219
vt 0.024000 -0.006781
vt -0.000000 0.040539
vt 0.532933 2.176819
vt 0.509584 2.182588
vt -0.058372 0.026117
vt -0.509584 2.182157
vt -0.532933 2.176819
vt 0.058372 0.053883
vt -0.000000 0.039461
vt 0.486236 2.187926
vt -0.058372 0.053883
vt 0.000000 0.059998
vt -0.000000 -0.059998
vt -0.058372 0.000125
vt -0.486236 0.019287
vt -0.532933 0.019187
vt -0.509584 0.043236
vt 0.044948 0.000259
vt 1.005800 1.177426
vt 0.000791 0.040000
vt -1.023463 1.161529
vt -0.044948 0.000259
vt 0.044948 0.079741
vt -1.005167 1.177426
vt 0.987504 1.193322
vt -0.044948 0.079741
vt 0.044948 0.000592
vt -0.044948 -0.000592
vt -0.000791 0.059995
vt -0.987504 0.013016
vt -1.023463 0.013490
vt -1.005167 0.037251
vt 0.099861 0.000000
vt -0.000000 0.200000
vt -0.000000 0.000000
vt 0.084947 0.000000
vt -0.027812 0.200000
vt -0.032447 0.000000
vt 0.061717 0.000000
vt -0.052901 0.200000
vt -0.061717 0.000000
vt 0.032447 0.000000
vt -0.072812 0.200000
vt -0.084947 0.000000
vt -0.085595 0.200000
vt -0.099861 0.000000
vt 0.099861 0.032447
vt -0.061717 -0.084947
vt -0.099861 0.032447
vt -0.085595 -0.027812
vt -0.052901 0.072812
vt 0.052901 0.072812
vt 0.917869 1.042081
vt -0.881915 1.073876
vt -0.001119 0.059990
vt 0.917869 -0.017128
vt 0.058372 0.053883
vt 0.653517 2.683775
vt -0.000000 -0.059998
vt 0.630168 -0.046287
vt 0.024000 3.109460
vt 0.060000 0.040133
vt 0.006781 3.109460
vt -0.000000 -0.060000
vt -0.024000 -0.006781
vt 0.058372 0.026117
vt -0.486236 2.187926
vt 0.058372 -0.000125
vt -0.509584 -0.004762
vt 1.023463 1.161529
vt -0.987504 1.193322
vt 0.000791 -0.059995
vt -1.005800 -0.010745
vt 0.085595 0.200000
vt 0.072812 0.200000
vt 0.052901 0.200000
vt 0.027812 0.200000
vt 0.000000 0.105000
vt 0.061717 -0.084947
vt 0.085595 -0.027812
vt 0.000000 -0.090000
s 1
f 22/11/21 25/12/22 21/13/22
f 23/13/23 26/14/21 22/15/21
f 24/16/24 27/17/23 23/13/23
f 21/13/22 28/18/25 24/19/24
s 0
f 24/20/26 22/21/26 21/22/26
f 25/23/27 27/24/27 28/25/27
s 1
f 29/26/28 34/27/29 33/28/28
f 30/29/29 35/30/30 34/31/29
f 32/32/31 35/30/30 31/33/30
f 32/34/31 33/28/28 36/35/31
s 0
f 32/36/32 30/37/32 29/38/32
f 36/39/33 34/40/33 35/41/33
s 1
f 38/42/34 41/43/35 37/44/35
f 38/45/34 43/46/36 42/47/34
f 40/48/37 43/49/36 39/50/36
f 37/44/35 44/51/37 40/52/37
s 0
f 40/53/38 38/54/38 37/55/38
f 41/56/39 43/57/39 44/58/39
s 1
f 45/59/40 50/60/41 49/61/40
f 46/62/41 51/63/42 50/64/41
f 48/65/43 51/63/42 47/66/42
f 45/59/40 52/67/43 48/68/43
s 0
f 45/69/44 47/70/44 46/71/44
f 52/72/45 50/73/45 51/74/45
s 1
f 54/75/46 57/76/47 53/77/47
f 55/77/48 58/78/46 54/79/46
f 56/80/49 59/81/48 55/77/48
f 53/77/47 60/82/49 56/83/49
s 0
f 56/84/50 54/85/50 53/86/50
f 60/87/51 58/88/51 59/89/51
s 1
f 62/90/52 66/91/53 61/92/53
f 63/93/54 67/94/52 62/95/52
f 64/96/55 68/97/54 63/98/54
f 65/99/56 69/100/57 64/101/55
f 61/92/53 70/102/56 65/103/56
s 0
f 65/104/58 63/105/58 62/106/58
f 67/107/59 68/108/59 69/109/59
s 1
f 22/11/21 26/110/21 25/12/22
f 23/13/23 27/17/23 26/14/21
f 24/16/24 28/111/25 27/17/23
f 21/13/22 25/12/22 28/18/25
s 0
f 24/20/26 23/112/26 22/21/26
f 25/23/27 26/113/27 27/24/27
s 1
f 29/26/28 30/114/29 34/27/29
f 30/29/29 31/33/30 35/30/30
f 32/32/31 36/115/31 35/30/30
f 32/34/31 29/26/28 33/28/28
s 0
f 32/36/32 31/116/32 30/37/32
f 36/39/33 33/117/33 34/40/33
s 1
f 38/42/34 42/118/34 41/43/35
f 38/45/34 39/119/36 43/46/36
f 40/48/37 44/120/37 43/49/36
f 37/44/35 41/43/35 44/51/37
s 0
f 40/53/38 39/121/38 38/54/38
f 41/56/39 42/122/39 43/57/39
s 1
f 45/59/40 46/123/41 50/60/41
f 46/62/41 47/66/42 51/63/42
f 48/65/43 52/124/43 51/63/42
f 45/59/40 49/61/40 52/67/43
s 0
f 45/69/44 48/125/44 47/70/44
f 52/72/45 49/126/45 50/73/45
s 1
f 54/75/46 58/127/46 57/76/47
f 55/77/48 59/81/48 58/78/46
f 56/80/49 60/128/49 59/81/48
f 53/77/47 57/76/47 60/82/49
s 0
f 56/84/50 55/129/50 54/85/50
f 60/87/51 57/130/51 58/88/51
s 1
f 62/90/52 67/131/52 66/91/53
f 63/93/54 68/132/54 67/94/52
f 64/96/55 69/133/57 68/97/54
f 65/99/56 70/134/56 69/100/57
f 61/92/53 66/91/53 70/102/56
s 0
f 62/106/58 61/135/58 65/104/58
f 65/104/58 64/136/58 63/105/58
f 69/109/59 70/137/59 66/138/59
f 66/138/59 67/107/59 69/109/59
