# Blender 5.0.1
# www.blender.org
mtllib coral_brain_a.mtl
o coral_brain_a_body
usemtl coral_brain_a_body
v -0.000433 0.218046 -0.386325
v 0.234972 0.112008 -0.146191
v -0.107068 0.014567 -0.173245
v -0.350431 0.218046 -0.175701
v -0.092280 0.393307 -0.149317
v 0.226199 0.320133 -0.140769
v 0.107501 0.012086 0.173946
v -0.236376 0.111766 0.145121
v -0.259269 0.334639 0.159270
v 0.090508 0.391580 0.146449
v 0.347813 0.218046 0.173423
v -0.000433 0.218046 0.326940
v -0.054900 0.114113 -0.285902
v 0.160409 0.145595 -0.322389
v 0.083815 0.057290 -0.169197
v 0.312088 0.218046 -0.193852
v 0.154967 0.288047 -0.311506
v -0.165852 0.218046 -0.268355
v -0.245585 0.107616 -0.187983
v -0.053572 0.319446 -0.278950
v -0.245914 0.328624 -0.188234
v 0.083190 0.377611 -0.167948
v 0.354101 0.146626 -0.000701
v 0.368992 0.292466 -0.000701
v -0.000433 0.000000 -0.000701
v 0.193250 0.052766 -0.000701
v -0.320486 0.153573 -0.000701
v -0.201077 0.046826 -0.000701
v -0.223929 0.408768 -0.000701
v -0.324825 0.283394 -0.000701
v 0.189661 0.380265 -0.000701
v -0.000433 0.427924 -0.000701
v 0.260243 0.100623 0.198441
v -0.089040 0.048973 0.176513
v -0.309234 0.218046 0.190151
v -0.082952 0.375502 0.164336
v 0.226962 0.320477 0.173015
v 0.061152 0.100529 0.321774
v 0.191346 0.218046 0.309605
v -0.137636 0.156243 0.273708
v -0.148629 0.284801 0.295693
v 0.056251 0.326211 0.296111
vn -0.1480 0.0304 -0.9885
vn 0.5199 -0.7909 -0.3228
vn -0.1772 -0.9066 -0.3829
vn -0.8888 -0.0061 -0.4583
vn -0.1061 0.9218 -0.3729
vn 0.4871 0.8042 -0.3406
vn 0.1804 -0.9446 0.2741
vn -0.5716 -0.7236 0.3868
vn -0.5938 0.6900 0.4140
vn 0.1914 0.9352 0.2980
vn 0.8646 0.0902 0.4943
vn -0.0995 0.0463 0.9940
vn -0.1980 -0.6583 -0.7262
vn 0.4253 -0.4999 -0.7545
vn 0.2391 -0.9065 -0.3479
vn 0.8391 0.0242 -0.5435
vn 0.4103 0.5626 -0.7178
vn -0.4750 0.0155 -0.8799
vn -0.5760 -0.6312 -0.5195
vn -0.1983 0.7180 -0.6672
vn -0.5143 0.6546 -0.5541
vn 0.2013 0.9153 -0.3489
vn 0.8424 -0.5322 -0.0849
vn 0.8603 0.5070 -0.0539
vn 0.0182 -0.9996 -0.0194
vn 0.4034 -0.9081 -0.1120
vn -0.8796 -0.4694 0.0778
vn -0.4792 -0.8747 0.0729
vn -0.4475 0.8943 0.0084
vn -0.9276 0.3711 0.0426
vn 0.3721 0.9277 -0.0303
vn 0.0535 0.9985 0.0057
vn 0.6016 -0.6642 0.4437
vn -0.3040 -0.8665 0.3960
vn -0.8431 -0.0951 0.5294
vn -0.1340 0.9129 0.3856
vn 0.4766 0.7713 0.4219
vn 0.0315 -0.5288 0.8482
vn 0.4680 0.1264 0.8746
vn -0.4081 -0.4535 0.7923
vn -0.3594 0.3807 0.8520
vn 0.1082 0.6629 0.7409
vt -0.000000 0.525000
vt -0.402105 0.343871
vt 0.136167 0.265167
vt 0.588513 0.363726
vt 0.402105 0.804219
vt 0.781302 0.482878
vt 0.413547 0.525000
vt 0.132848 0.778500
vt 0.000000 -0.964059
vt -0.132848 -0.695621
vt 0.388502 -0.777012
vt 0.363726 0.259904
vt 0.482878 0.525000
vt -0.000000 0.346450
vt -0.266586 0.431360
vt 0.210620 0.421240
vt 0.000000 -0.000000
vt -0.437499 0.525000
vt -0.468204 0.248925
vt 0.000000 0.363816
vt -0.229616 -0.371539
vt -0.613701 -0.468832
vt -0.558740 0.000000
vt 0.566580 -0.350170
vt 0.209059 -0.418118
vt 0.475236 0.000000
vt 0.886336 -0.000000
vt 0.484207 -0.000000
vt -0.501609 -0.000000
vt 0.000000 0.688369
vt 0.923564 0.000000
vt 0.269836 -0.436618
vt 0.651692 -0.497854
vt 0.153964 -0.806188
vt -0.589857 -0.364556
vt -0.221518 -0.443035
vt -0.343008 -0.686023
vt -0.647090 0.816482
vt -0.772001 0.525000
vt -0.370489 0.691887
vt 0.227352 0.367876
vt -0.206297 0.412593
vt 0.141711 0.742030
vt 0.870615 0.435310
vt 0.568487 0.434291
vt 0.479448 0.775766
vt 0.479448 0.525000
vt 0.141711 0.795412
vt -0.370489 0.740985
vt -0.647090 0.399929
vt -0.343008 0.370492
vt -0.772001 -0.477129
vt 0.153964 0.231207
vt 0.651692 0.231442
vt 0.870615 0.525000
vt 0.477129 0.525000
vt 0.399929 0.816482
vt 0.364556 0.259298
vt -0.435310 0.525000
vt -0.497854 0.231442
vt 0.000000 1.001804
vt -0.468832 0.801445
vt -0.800131 -0.000000
vt -0.612880 0.468204
vt -0.000000 0.711049
vt 0.781302 -0.482878
vt 0.613701 0.801445
vt 0.874994 0.525000
vt 0.612880 0.248925
vt 0.266586 0.016301
vt -0.781302 0.525000
vt -0.388502 0.700001
vt -0.136167 0.713002
s 1
f 1/1/1 14/2/14 13/3/13
f 2/4/2 14/5/14 16/6/16
f 1/1/1 13/3/13 18/7/18
f 1/1/1 18/7/18 20/8/20
f 1/9/1 20/10/20 17/11/17
f 2/12/2 16/13/16 23/14/23
f 3/15/3 15/16/15 25/17/25
f 4/18/4 19/19/19 27/20/27
f 5/21/5 21/22/21 29/23/29
f 6/24/6 22/25/22 31/26/31
f 2/4/2 23/27/23 26/28/26
f 3/15/3 25/17/25 28/29/28
f 4/18/4 27/20/27 30/30/30
f 5/21/5 29/23/29 32/17/32
f 6/24/6 31/26/31 24/31/24
f 7/32/7 33/33/33 38/34/38
f 8/35/8 34/36/34 40/37/40
f 9/38/9 35/39/35 41/40/41
f 10/41/10 36/42/36 42/43/42
f 11/44/11 37/45/37 39/46/39
f 39/47/39 42/48/42 12/1/12
f 39/46/39 37/45/37 42/43/42
f 37/45/37 10/41/10 42/43/42
f 42/48/42 41/40/41 12/1/12
f 42/43/42 36/42/36 41/49/41
f 36/42/36 9/50/9 41/49/41
f 41/40/41 40/51/40 12/1/12
f 41/40/41 35/39/35 40/51/40
f 35/52/35 8/35/8 40/37/40
f 40/51/40 38/53/38 12/1/12
f 40/37/40 34/36/34 38/34/38
f 34/36/34 7/32/7 38/34/38
f 38/53/38 39/47/39 12/1/12
f 38/53/38 33/54/33 39/47/39
f 33/54/33 11/55/11 39/47/39
f 24/31/24 37/45/37 11/44/11
f 24/31/24 31/26/31 37/45/37
f 31/26/31 10/41/10 37/45/37
f 32/17/32 36/42/36 10/41/10
f 32/17/32 29/23/29 36/42/36
f 29/23/29 9/50/9 36/42/36
f 30/30/30 35/56/35 9/57/9
f 30/30/30 27/20/27 35/56/35
f 27/20/27 8/58/8 35/56/35
f 28/29/28 34/36/34 8/35/8
f 28/29/28 25/17/25 34/36/34
f 25/17/25 7/32/7 34/36/34
f 26/28/26 33/33/33 7/32/7
f 26/28/26 23/27/23 33/33/33
f 23/14/23 11/59/11 33/60/33
f 31/26/31 32/17/32 10/41/10
f 31/26/31 22/25/22 32/17/32
f 22/25/22 5/21/5 32/17/32
f 29/61/29 30/30/30 9/57/9
f 29/61/29 21/62/21 30/30/30
f 21/62/21 4/18/4 30/30/30
f 27/63/27 28/29/28 8/35/8
f 27/63/27 19/64/19 28/29/28
f 19/64/19 3/15/3 28/29/28
f 25/17/25 26/28/26 7/32/7
f 25/17/25 15/16/15 26/28/26
f 15/16/15 2/4/2 26/28/26
f 23/14/23 24/65/24 11/59/11
f 23/14/23 16/13/16 24/65/24
f 16/66/16 6/24/6 24/31/24
f 17/11/17 22/25/22 6/24/6
f 17/11/17 20/10/20 22/25/22
f 20/10/20 5/21/5 22/25/22
f 20/10/20 21/22/21 5/21/5
f 20/8/20 18/7/18 21/67/21
f 18/7/18 4/68/4 21/67/21
f 18/7/18 19/69/19 4/68/4
f 18/7/18 13/3/13 19/69/19
f 13/3/13 3/70/3 19/69/19
f 16/66/16 17/11/17 6/24/6
f 16/71/16 14/2/14 17/72/17
f 14/2/14 1/1/1 17/72/17
f 13/73/13 15/16/15 3/15/3
f 13/73/13 14/5/14 15/16/15
f 14/5/14 2/4/2 15/16/15
o coral_brain_a_tip
usemtl coral_brain_a_tip
v -0.046474 0.403746 0.018633
v -0.022443 0.379323 0.013484
v 0.002100 0.403746 0.012183
v -0.021932 0.428169 0.017332
v -0.022995 0.391667 0.168860
v -0.002397 0.370733 0.164447
v 0.018639 0.391667 0.163331
v -0.001959 0.412601 0.167745
v 0.110690 0.396413 -0.042743
v 0.134924 0.371960 -0.038837
v 0.159455 0.396413 -0.037948
v 0.135221 0.420866 -0.041854
v 0.101278 0.404581 0.088721
v 0.122050 0.383621 0.092069
v 0.143076 0.404581 0.092831
v 0.122304 0.425541 0.089483
v 0.233117 0.396514 0.050743
v 0.228096 0.372102 0.074812
v 0.219111 0.396514 0.097699
v 0.224131 0.420927 0.073629
v 0.026049 0.378289 -0.007369
v 0.021746 0.357364 0.013262
v 0.014044 0.378289 0.032879
v 0.018347 0.399214 0.012248
v -0.073984 0.396292 -0.009748
v -0.097032 0.371800 -0.018080
v -0.120480 0.396292 -0.025211
v -0.097432 0.420784 -0.016879
v -0.011505 0.401680 -0.208702
v -0.031261 0.380687 -0.215844
v -0.051359 0.401680 -0.221957
v -0.031603 0.422673 -0.214815
v 0.276327 0.376438 -0.029395
v 0.286725 0.351977 -0.007169
v 0.299526 0.376438 0.013766
v 0.289128 0.400901 -0.008460
v 0.089421 0.388374 0.075041
v 0.098334 0.367407 0.094092
v 0.109306 0.388374 0.112036
v 0.100393 0.409341 0.092985
vn -0.0074 -0.9984 -0.0558
vn -0.9880 -0.0018 0.1543
vn 0.9940 -0.0018 -0.1089
vn 0.0134 0.9948 0.1012
vn -0.1312 0.0792 -0.9882
vn 0.1312 -0.0792 0.9882
vn -0.9974 0.0016 -0.0715
vn -0.0086 -0.9961 0.0879
vn 0.9923 0.0017 0.1242
vn 0.0034 0.9994 -0.0352
vn 0.9923 0.0016 0.1242
vn 0.0035 0.9994 -0.0352
vn 0.0977 -0.0619 -0.9933
vn -0.0977 0.0619 0.9933
vn 0.0654 -0.9977 0.0195
vn 0.2703 -0.0014 -0.9628
vn -0.3013 -0.0014 0.9535
vn -0.0964 0.9949 -0.0288
vn -0.0964 0.9949 -0.0287
vn 0.9549 0.0845 0.2848
vn -0.9549 -0.0845 -0.2848
vn 0.0134 -0.9991 -0.0404
vn 0.9541 0.0004 0.2996
vn -0.9435 0.0004 -0.3315
vn -0.0029 1.0000 0.0086
vn -0.3155 -0.0258 0.9486
vn 0.3155 0.0258 -0.9486
vn -0.0634 -0.9974 0.0341
vn -0.4877 0.0009 -0.8730
vn 0.4590 0.0009 0.8884
vn 0.0347 0.9992 -0.0186
vn 0.8795 -0.0557 -0.4727
vn -0.8795 0.0557 0.4727
vt 0.035462 0.928193
vt 0.423903 0.959051
vt 0.048334 0.989250
vt 0.006332 -0.032209
vt -0.004909 -0.412869
vt -0.055024 -0.035462
vt -0.045082 1.050308
vt -0.410081 0.959051
vt -0.032209 0.989250
vt -0.053746 0.045082
vt -0.056405 0.423903
vt -0.003814 0.421115
vt 0.053746 1.050308
vt 0.055024 0.928193
vt 0.115102 0.989250
vt -0.056405 0.959051
vt 0.047682 0.959051
vt -0.003814 1.011386
vt -0.105105 0.970917
vt 0.231925 0.938937
vt 0.223554 0.991336
vt 0.399720 0.093116
vt 0.306208 -0.231925
vt 0.338393 0.095339
vt 0.339135 -0.102882
vt 0.358774 0.233831
vt 0.399720 -0.093116
vt 0.277808 -0.105105
vt 0.306844 0.225460
vt -0.339135 1.032049
vt -0.338393 0.909784
vt -0.277808 0.970917
vt 0.306844 1.043736
vt 0.306208 0.938937
vt 0.358774 0.991336
vt 0.571324 -0.188783
vt 0.066205 0.016669
vt 0.583875 -0.128610
vt 0.548860 -0.245999
vt 0.055447 -0.034908
vt 0.548860 0.245999
vt 0.046950 0.032373
vt 0.036192 0.083950
vt 0.561411 0.185826
vt 0.066205 -0.016669
vt -0.185826 1.032201
vt -0.188783 0.910138
vt -0.128610 0.971170
vt -0.016669 0.925606
vt 0.083950 0.925606
vt 0.032373 0.977919
vt -0.241497 0.043447
vt -0.027679 0.520003
vt -0.183876 0.022616
vt -0.300116 0.061275
vt -0.077068 0.537858
vt -0.242496 -0.040444
vt -0.127313 -0.553139
vt -0.300116 -0.061275
vt -0.027679 -0.520003
vt -0.077924 -0.535284
vt -0.183876 0.970614
vt -0.300116 0.970614
vt -0.241497 0.909384
vt 0.027679 0.984085
vt 0.127313 0.984085
vt 0.077924 1.036568
vt 0.717897 0.016169
vt 0.224636 -0.189356
vt 0.691902 0.071734
vt 0.749899 -0.036167
vt 0.246917 -0.236983
vt 0.723903 -0.019398
vt 0.274347 0.281842
vt 0.749899 0.036167
vt 0.691902 -0.071734
vt 0.252066 0.234215
vt 0.019398 0.982136
vt 0.016169 0.859826
vt 0.071734 0.920981
vt 0.234215 1.003238
vt 0.236983 0.898401
vt 0.281842 0.950819
vt 0.412869 0.906716
vt 0.047682 -0.410081
vt -0.421115 1.011386
vt -0.115102 0.048334
vt -0.006332 0.989250
vt -0.004909 0.906716
vt -0.095339 0.909784
vt 0.358774 -0.233831
vt 0.254278 0.223554
vt -0.399720 0.970917
vt 0.254278 0.991336
vt 0.036192 -0.083950
vt 0.583875 0.128610
vt -0.245999 0.971170
vt 0.034908 0.873294
vt -0.127313 0.553139
vt -0.183876 -0.022616
vt -0.242496 1.031844
vt 0.077068 0.931603
vt 0.274347 -0.281842
vt 0.224636 0.189356
vt -0.036167 0.920981
vt 0.189356 0.950819
s 1
f 44/74/43 47/75/44 43/76/44
f 45/77/45 48/78/43 44/79/43
f 46/80/46 49/81/45 45/82/45
f 46/83/46 47/84/44 50/85/46
s 0
f 46/86/47 44/87/47 43/88/47
f 47/89/48 49/90/48 50/91/48
s 1
f 51/92/49 56/93/50 55/94/49
f 53/95/51 56/96/50 52/97/50
f 54/98/52 57/99/53 53/100/51
f 51/101/49 58/102/54 54/98/52
s 0
f 54/103/55 52/104/55 51/105/55
f 58/106/56 56/107/56 57/108/56
s 1
f 60/109/57 63/110/58 59/111/58
f 61/112/59 64/113/57 60/109/57
f 61/114/59 66/115/60 65/116/59
f 62/117/61 63/118/58 66/115/60
s 0
f 62/119/62 60/120/62 59/121/62
f 63/122/63 65/123/63 66/124/63
s 1
f 68/125/64 71/126/65 67/127/65
f 69/128/66 72/129/64 68/125/64
f 70/130/67 73/131/66 69/132/66
f 70/130/67 71/133/65 74/134/67
s 0
f 67/135/68 69/136/68 68/137/68
f 71/138/69 73/139/69 74/140/69
s 1
f 76/141/70 79/142/71 75/143/71
f 77/144/72 80/145/70 76/141/70
f 78/146/73 81/147/72 77/148/72
f 75/149/71 82/150/73 78/146/73
s 0
f 78/151/74 76/152/74 75/153/74
f 82/154/75 80/155/75 81/156/75
s 1
f 44/74/43 48/157/43 47/75/44
f 45/77/45 49/158/45 48/78/43
f 46/80/46 50/159/46 49/81/45
f 46/83/46 43/160/44 47/84/44
s 0
f 46/86/47 45/161/47 44/87/47
f 47/89/48 48/162/48 49/90/48
s 1
f 51/92/49 52/163/50 56/93/50
f 53/95/51 57/164/53 56/96/50
f 54/98/52 58/102/54 57/99/53
f 51/101/49 55/165/49 58/102/54
s 0
f 54/103/55 53/166/55 52/104/55
f 58/106/56 55/167/56 56/107/56
s 1
f 60/109/57 64/113/57 63/110/58
f 61/112/59 65/168/59 64/113/57
f 61/114/59 62/117/61 66/115/60
f 62/117/61 59/169/58 63/118/58
s 0
f 62/119/62 61/170/62 60/120/62
f 63/122/63 64/171/63 65/123/63
s 1
f 68/125/64 72/129/64 71/126/65
f 69/128/66 73/172/66 72/129/64
f 70/130/67 74/134/67 73/131/66
f 70/130/67 67/173/65 71/133/65
s 0
f 67/135/68 70/174/68 69/136/68
f 71/138/69 72/175/69 73/139/69
s 1
f 76/141/70 80/145/70 79/142/71
f 77/144/72 81/176/72 80/145/70
f 78/146/73 82/150/73 81/147/72
f 75/149/71 79/177/71 82/150/73
s 0
f 78/151/74 77/178/74 76/152/74
f 82/154/75 79/179/75 80/155/75
