# Blender 5.0.1
# www.blender.org
mtllib coral_table_c.mtl
o coral_table_c_body
usemtl coral_table_c_body
v 0.000000 0.000000 -0.070673
v -0.062288 0.009699 -0.035885
v -0.062288 0.023459 0.034788
v -0.000000 0.027520 0.070673
v 0.062288 0.017822 0.035885
v 0.062288 0.004061 -0.034788
v 0.010850 0.234058 -0.099944
v -0.037596 0.241601 -0.072887
v -0.037596 0.252304 -0.017919
v 0.010850 0.255463 0.009991
v 0.059296 0.247919 -0.017066
v 0.059296 0.237217 -0.072033
vn 0.0031 -0.1242 -0.9922
vn -0.8600 0.0102 -0.5102
vn -0.8600 0.2008 0.4691
vn 0.0031 0.2571 0.9664
vn 0.8662 0.1227 0.4843
vn 0.8662 -0.0680 -0.4950
vn -0.0461 -0.9805 0.1909
vn 0.0461 0.9805 -0.1909
vt -0.000000 -0.027520
vt 0.075193 0.455682
vt -0.021699 0.440595
vt -0.071770 -0.008123
vt -0.035839 0.477087
vt -0.145774 0.455682
vt -0.000000 0.027520
vt -0.075193 0.477087
vt -0.124575 0.019398
vt 0.124575 0.008123
vt 0.021699 0.483405
vt 0.069575 -0.019398
vt 0.034131 0.468318
vt -0.071770 0.008123
vt -0.124575 -0.019398
vt -0.118591 0.446913
vt -0.000000 -0.141346
vt -0.124575 -0.069575
vt -0.124575 0.071770
vt 0.021699 -0.199888
vt -0.075193 -0.035839
vt 0.118591 -0.034131
vt 0.124575 -0.008123
vt 0.069575 0.019398
vt 0.118591 0.468318
vt 0.144067 0.446913
vt 0.000000 0.141346
vt 0.124575 0.069575
vt 0.124575 -0.071770
vt 0.118591 -0.144067
vt -0.075193 -0.145774
vt 0.021699 0.019983
s 1
f 1/1/1 8/2/2 7/3/1
f 2/4/2 9/5/3 8/6/2
f 4/7/4 9/8/3 3/9/3
f 5/10/5 10/11/4 4/7/4
f 6/12/6 11/13/5 5/14/5
f 6/15/6 7/3/1 12/16/6
s 0
f 4/17/7 3/18/7 2/19/7
f 7/20/8 9/21/8 11/22/8
s 1
f 1/1/1 2/23/2 8/2/2
f 2/4/2 3/24/3 9/5/3
f 4/7/4 10/11/4 9/8/3
f 5/10/5 11/25/5 10/11/4
f 6/12/6 12/26/6 11/13/5
f 6/15/6 1/1/1 7/3/1
s 0
f 2/19/7 1/27/7 4/17/7
f 1/27/7 6/28/7 4/17/7
f 6/28/7 5/29/7 4/17/7
f 11/22/8 12/30/8 7/20/8
f 7/20/8 8/31/8 9/21/8
f 9/21/8 10/32/8 11/22/8
o coral_table_c_tip
usemtl coral_table_c_tip
v 0.000000 0.257360 0.000000
v 0.349413 0.239973 0.000000
v 0.316433 0.248226 0.152386
v 0.265523 0.240264 0.332956
v 0.097528 0.315493 0.427298
v -0.076024 0.287426 0.333083
v -0.219363 0.247232 0.275072
v -0.353669 0.261105 0.170318
v -0.400807 0.280966 0.000000
v -0.337567 0.238590 -0.162564
v -0.263282 0.274815 -0.330146
v -0.075169 0.303907 -0.329336
v 0.090880 0.308402 -0.398172
v 0.229729 0.314717 -0.288072
v 0.311230 0.312568 -0.149880
v 0.000000 0.257360 0.000000
v 0.349413 0.239973 0.000000
v 0.316433 0.248226 0.152386
v 0.265523 0.240264 0.332956
v 0.097528 0.315493 0.427298
v -0.076024 0.287426 0.333083
v -0.219363 0.247232 0.275072
v -0.353669 0.261105 0.170318
v -0.400807 0.280966 0.000000
v -0.337567 0.238590 -0.162564
v -0.263282 0.274815 -0.330146
v -0.075169 0.303907 -0.329336
v 0.090880 0.308402 -0.398172
v 0.229729 0.314717 -0.288072
v 0.311230 0.312568 -0.149880
vn 0.0168 -0.9989 -0.0430
vn -0.0488 -0.9797 -0.1943
vn -0.0254 -0.9997 -0.0072
vn -0.1894 -0.9767 0.1009
vn -0.1470 -0.9751 0.1662
vn 0.1495 -0.9811 0.1227
vn 0.0726 -0.9971 0.0212
vn -0.0529 -0.9947 -0.0879
vn -0.0587 -0.9965 0.0599
vn 0.0401 -0.9987 0.0321
vn 0.1391 -0.9768 -0.1626
vn 0.0625 -0.9862 -0.1536
vn 0.0539 -0.9919 -0.1149
vn 0.1263 -0.9873 -0.0958
vn 0.0489 -0.9659 -0.2542
vn -0.0168 0.9989 0.0430
vn 0.0488 0.9797 0.1943
vn 0.0254 0.9997 0.0072
vn 0.1894 0.9767 -0.1009
vn 0.1470 0.9751 -0.1662
vn -0.1495 0.9811 -0.1227
vn -0.0726 0.9971 -0.0212
vn 0.0529 0.9947 0.0879
vn 0.0587 0.9965 -0.0599
vn -0.0401 0.9987 -0.0321
vn -0.1391 0.9768 0.1626
vn -0.0625 0.9862 0.1536
vn -0.0539 0.9919 0.1149
vn -0.1263 0.9873 0.0958
vn -0.0489 0.9659 0.2542
vt 0.000000 0.000000
vt 0.582355 0.000000
vt 0.527388 0.253977
vt 0.442539 0.554926
vt 0.162547 0.712164
vt -0.126707 0.555138
vt -0.365605 0.458454
vt -0.589449 0.283864
vt -0.668011 0.000000
vt -0.562612 -0.270940
vt -0.438804 -0.550243
vt -0.125281 -0.548894
vt 0.151467 -0.663621
vt 0.382882 -0.480119
vt 0.518716 -0.249800
s 1
f 13/33/9 14/34/10 15/35/11
f 13/33/9 15/35/11 16/36/12
f 13/33/9 16/36/12 17/37/13
f 13/33/9 17/37/13 18/38/14
f 13/33/9 18/38/14 19/39/15
f 13/33/9 19/39/15 20/40/16
f 13/33/9 20/40/16 21/41/17
f 13/33/9 21/41/17 22/42/18
f 13/33/9 22/42/18 23/43/19
f 13/33/9 23/43/19 24/44/20
f 13/33/9 24/44/20 25/45/21
f 13/33/9 25/45/21 26/46/22
f 13/33/9 26/46/22 27/47/23
f 13/33/9 27/47/23 14/34/10
f 28/33/24 30/35/26 29/34/25
f 28/33/24 31/36/27 30/35/26
f 28/33/24 32/37/28 31/36/27
f 28/33/24 33/38/29 32/37/28
f 28/33/24 34/39/30 33/38/29
f 28/33/24 35/40/31 34/39/30
f 28/33/24 36/41/32 35/40/31
f 28/33/24 37/42/33 36/41/32
f 28/33/24 38/43/34 37/42/33
f 28/33/24 39/44/35 38/43/34
f 28/33/24 40/45/36 39/44/35
f 28/33/24 41/46/37 40/45/36
f 28/33/24 42/47/38 41/46/37
f 28/33/24 29/34/25 42/47/38
