# Blender 5.0.1
# www.blender.org
mtllib coral_fan_b.mtl
o coral_fan_b_body
usemtl coral_fan_b_body
v 0.000000 0.020000 -0.000022
v 0.545299 0.435191 0.010503
v 0.500914 0.791746 0.005713
v 0.362776 1.046556 -0.009854
v 0.177863 1.131830 0.004103
v 0.000000 1.300825 -0.001976
v -0.191153 1.214908 -0.001906
v -0.314206 0.909117 -0.005261
v -0.515794 0.814671 -0.001381
v -0.632910 0.501898 0.011157
v 0.000000 0.020000 -0.000022
v 0.545299 0.435191 0.010503
v 0.500914 0.791746 0.005713
v 0.362776 1.046556 -0.009854
v 0.177863 1.131830 0.004103
v 0.000000 1.300825 -0.001976
v -0.191153 1.214908 -0.001906
v -0.314206 0.909117 -0.005261
v -0.515794 0.814671 -0.001381
v -0.632910 0.501898 0.011157
vn -0.0019 0.0106 0.9999
vn -0.0270 0.0101 0.9996
vn -0.0497 0.0248 0.9985
vn 0.0264 0.0002 0.9997
vn 0.0052 -0.0045 1.0000
vn -0.0137 0.0015 0.9999
vn -0.0053 0.0007 1.0000
vn -0.0085 0.0029 1.0000
vn 0.0233 0.0169 0.9996
vn 0.0375 0.0260 0.9990
vn 0.0019 -0.0106 -0.9999
vn 0.0270 -0.0101 -0.9996
vn 0.0497 -0.0248 -0.9985
vn -0.0264 -0.0002 -0.9997
vn -0.0052 0.0045 -1.0000
vn 0.0137 -0.0015 -0.9999
vn 0.0053 -0.0007 -1.0000
vn 0.0085 -0.0029 -1.0000
vn -0.0233 -0.0169 -0.9996
vn -0.0375 -0.0260 -0.9990
vt 0.000000 0.040000
vt 1.090598 0.870381
vt 1.001828 1.583491
vt 0.725552 2.093111
vt 0.355725 2.263660
vt 0.000000 2.601651
vt -0.382306 2.429817
vt -0.628413 1.818233
vt -1.031588 1.629342
vt -1.265820 1.003795
s 1
f 1/1/1 2/2/2 3/3/3
f 1/1/1 3/3/3 4/4/4
f 1/1/1 4/4/4 5/5/5
f 1/1/1 5/5/5 6/6/6
f 1/1/1 6/6/6 7/7/7
f 1/1/1 7/7/7 8/8/8
f 1/1/1 8/8/8 9/9/9
f 1/1/1 9/9/9 10/10/10
f 11/1/11 13/3/13 12/2/12
f 11/1/11 14/4/14 13/3/13
f 11/1/11 15/5/15 14/4/14
f 11/1/11 16/6/16 15/5/15
f 11/1/11 17/7/17 16/6/16
f 11/1/11 18/8/18 17/7/17
f 11/1/11 19/9/19 18/8/18
f 11/1/11 20/10/20 19/9/19
o coral_fan_b_tip
usemtl coral_fan_b_tip
v -0.000482 0.020000 0.024973
v 0.015140 0.000108 0.000270
v 0.000482 0.020000 -0.025018
v -0.015140 0.039892 -0.000315
v 0.545106 0.435191 0.020501
v 0.551355 0.427234 0.010620
v 0.545492 0.435191 0.000505
v 0.539243 0.443147 0.010386
v 0.000677 0.020000 0.024968
v 0.023562 0.011667 -0.000661
v -0.000677 0.020000 -0.025013
v -0.023562 0.028333 0.000616
v 0.363047 1.046556 0.000143
v 0.372201 1.043222 -0.010109
v 0.362505 1.046556 -0.019850
v 0.353351 1.049889 -0.009598
v 0.000000 0.019962 -0.025022
v -0.025000 0.020000 -0.000022
v 0.000000 0.020038 0.024978
v 0.025000 0.020000 -0.000022
v 0.000000 1.300810 -0.011976
v -0.010000 1.300825 -0.001976
v 0.000000 1.300841 0.008024
v 0.010000 1.300825 -0.001976
v 0.000417 0.020000 -0.025019
v -0.023568 0.011669 -0.000415
v -0.000417 0.020000 0.024974
v 0.023568 0.028331 0.000371
v -0.314040 0.909117 -0.015260
v -0.323633 0.905784 -0.005418
v -0.314373 0.909117 0.004738
v -0.304779 0.912449 -0.005104
v -0.000441 0.020000 -0.025018
v -0.015141 0.000108 0.000245
v 0.000442 0.020000 0.024974
v 0.015141 0.039892 -0.000290
v -0.633087 0.501898 0.001158
v -0.638966 0.493941 0.011264
v -0.632733 0.501898 0.021155
v -0.626854 0.509854 0.011050
v 0.000000 0.000000 -0.043772
v -0.041609 0.000000 -0.013542
v -0.025716 0.000000 0.035372
v 0.025716 0.000000 0.035372
v 0.041609 0.000000 -0.013542
v 0.000000 0.100000 -0.037522
v -0.035665 0.100000 -0.011611
v -0.022042 0.100000 0.030316
v 0.022042 0.100000 0.030316
v 0.035665 0.100000 -0.011611
vn -0.0019 0.0133 0.9999
vn 0.6229 -0.7822 0.0120
vn 0.0367 0.0133 -0.9992
vn -0.5881 0.8087 -0.0114
vn -0.5881 0.8087 -0.0113
vn -0.7955 -0.6057 -0.0154
vn 0.7955 0.6057 0.0154
vn 0.9470 -0.3203 -0.0257
vn 0.0317 0.0130 0.9994
vn -0.0225 0.0130 -0.9997
vn -0.9378 0.3463 0.0254
vn -0.3332 -0.9428 0.0090
vn 0.3332 0.9428 -0.0090
vn -0.9999 0.0117 -0.0000
vn -0.0000 0.0102 -0.9999
vn -0.0000 0.0132 0.9999
vn 0.9999 0.0117 -0.0000
vn -0.0000 -1.0000 0.0015
vn -0.0000 1.0000 -0.0015
vn 0.0114 0.0150 -0.9998
vn -0.9479 -0.3182 -0.0158
vn -0.0220 0.0150 0.9996
vn 0.9373 0.3482 0.0156
vn 0.3332 -0.9428 0.0056
vn -0.3332 0.9428 -0.0056
vn -0.6205 -0.7841 0.0110
vn -0.0327 0.0114 -0.9994
vn 0.0027 0.0114 0.9999
vn 0.5905 0.8069 -0.0104
vn 0.7955 -0.6057 -0.0141
vn -0.7955 0.6057 0.0141
vn -0.9492 0.0624 -0.3084
vn -0.0000 0.0624 -0.9981
vn -0.5866 0.0624 0.8075
vn 0.5867 0.0624 0.8074
vn -0.5866 0.0624 0.8074
vn 0.9492 0.0624 -0.3084
vn 0.5866 0.0624 0.8074
vn -0.0000 -1.0000 -0.0000
vn -0.0000 1.0000 -0.0000
vt -0.000965 0.040000
vt 1.102710 0.854468
vt 1.090212 0.870381
vt -0.030280 0.000216
vt -1.090984 0.870381
vt -1.102710 0.854468
vt 0.030280 0.079784
vt 1.078486 0.886295
vt -0.030280 0.079784
vt -0.000584 0.079784
vt 0.000584 0.000216
vt 0.049991 0.040000
vt -0.041047 0.870381
vt -0.001054 0.870381
vt -0.020817 0.886295
vt 0.001277 0.023335
vt -0.000330 2.093111
vt -0.049982 0.040000
vt 0.001355 0.040000
vt -0.744402 2.086445
vt -0.047124 0.023335
vt 0.047124 0.056665
vt -0.725010 2.093111
vt 0.706703 2.099777
vt -0.047124 0.056665
vt -0.047124 -0.001277
vt 0.047124 0.001277
vt 0.001355 -0.049982
vt 0.706703 -0.019152
vt 0.744402 -0.020174
vt 0.725010 -0.039655
vt 0.050000 0.040000
vt -0.000000 2.601620
vt -0.000000 0.039924
vt 0.050000 0.040076
vt -0.003907 2.601651
vt -0.000000 0.040000
vt -0.050000 0.040076
vt 0.003907 2.601651
vt -0.016093 2.601681
vt -0.050000 0.040000
vt -0.020000 2.601651
vt 0.050000 -0.000000
vt -0.050000 0.000000
vt 0.000000 0.050000
vt 0.000000 -0.023907
vt 0.000000 0.016093
vt 0.020000 -0.003907
vt -0.000834 0.040000
vt 0.647267 1.811569
vt 0.628079 1.818233
vt -0.647267 1.811569
vt -0.047136 0.023338
vt -0.609559 1.824898
vt -0.628746 1.818233
vt 0.609559 1.824898
vt -0.047136 0.056662
vt 0.000834 0.049993
vt -0.000834 -0.049993
vt -0.047136 0.000786
vt -0.609559 -0.010163
vt -0.647267 -0.010792
vt -0.628746 0.009520
vt 0.030282 0.000216
vt 1.266173 1.003795
vt 0.000883 0.040000
vt -1.277933 0.987882
vt -0.030282 0.000216
vt 0.030282 0.079784
vt -1.265467 1.003795
vt 1.253707 1.019709
vt -0.030282 0.079784
vt 0.000535 0.079784
vt -0.000535 0.000216
vt 0.049992 0.040000
vt 0.002361 1.003795
vt 0.042355 1.003795
vt 0.022144 1.019709
vt 0.083217 0.000000
vt -0.000000 0.200000
vt -0.000000 0.000000
vt 0.070789 0.000000
vt -0.023176 0.200000
vt -0.027039 0.000000
vt 0.051431 0.000000
vt -0.044084 0.200000
vt -0.051431 0.000000
vt 0.027039 0.000000
vt -0.060676 0.200000
vt -0.070789 0.000000
vt -0.071329 0.200000
vt -0.083217 0.000000
vt 0.083217 0.027039
vt -0.051431 -0.070789
vt -0.083217 0.027039
vt 0.000000 -0.075000
vt -0.044084 0.060676
vt 0.044084 0.060676
vt 0.030280 0.000216
vt -1.078486 0.886295
vt -0.049991 0.040000
vt -0.021285 0.854468
vt 0.020174 2.086445
vt -0.706703 2.099777
vt 0.726094 2.093111
vt -0.001355 0.049982
vt 0.726094 0.000330
vt 0.020000 2.601651
vt 0.016093 2.601681
vt -0.000000 0.040000
vt -0.000000 -0.050000
vt -0.020000 -0.003907
vt 0.047136 0.023338
vt 0.047136 0.056662
vt 0.047136 -0.000786
vt -0.628079 -0.030475
vt 1.277933 0.987882
vt -1.253707 1.019709
vt -0.049992 0.040000
vt 0.022572 0.987882
vt 0.071329 0.200000
vt 0.060676 0.200000
vt 0.044084 0.200000
vt 0.023176 0.200000
vt 0.000000 0.087500
vt 0.051431 -0.070789
vt 0.071329 -0.023176
vt -0.071329 -0.023176
s 1
f 21/11/21 26/12/22 25/13/21
f 22/14/22 27/15/23 26/16/22
f 24/17/24 27/15/23 23/11/23
f 21/11/21 28/18/25 24/19/24
s 0
f 24/20/26 22/21/26 21/22/26
f 25/23/27 27/24/27 28/25/27
s 1
f 30/26/28 33/27/29 29/28/29
f 31/29/30 34/30/28 30/31/28
f 32/32/31 35/33/30 31/29/30
f 29/29/29 36/34/31 32/35/31
s 0
f 32/36/32 30/37/32 29/38/32
f 36/39/33 34/40/33 35/41/33
s 1
f 38/42/34 41/43/35 37/44/35
f 39/45/36 42/46/34 38/47/34
f 39/48/36 44/49/37 43/50/36
f 40/51/37 41/43/35 44/52/37
s 0
f 40/53/38 38/54/38 37/55/38
f 41/56/39 43/57/39 44/58/39
s 1
f 45/59/40 50/60/41 49/61/40
f 47/59/42 50/62/41 46/63/41
f 47/59/42 52/64/43 51/65/42
f 45/59/40 52/66/43 48/67/43
s 0
f 45/68/44 47/69/44 46/70/44
f 52/71/45 50/72/45 51/73/45
s 1
f 54/74/46 57/75/47 53/76/47
f 55/76/48 58/77/46 54/78/46
f 56/79/49 59/80/48 55/76/48
f 53/76/47 60/81/49 56/82/49
s 0
f 56/83/50 54/84/50 53/85/50
f 57/86/51 59/87/51 60/88/51
s 1
f 62/89/52 66/90/53 61/91/53
f 63/92/54 67/93/52 62/94/52
f 64/95/55 68/96/56 63/97/54
f 65/98/57 69/99/58 64/100/55
f 61/91/53 70/101/57 65/102/57
s 0
f 65/103/59 63/104/59 62/105/59
f 66/106/60 68/107/60 69/108/60
s 1
f 21/11/21 22/109/22 26/12/22
f 22/14/22 23/11/23 27/15/23
f 24/17/24 28/110/25 27/15/23
f 21/11/21 25/13/21 28/18/25
s 0
f 24/20/26 23/111/26 22/21/26
f 25/23/27 26/112/27 27/24/27
s 1
f 30/26/28 34/113/28 33/27/29
f 31/29/30 35/33/30 34/30/28
f 32/32/31 36/114/31 35/33/30
f 29/29/29 33/115/29 36/34/31
s 0
f 32/36/32 31/116/32 30/37/32
f 36/39/33 33/117/33 34/40/33
s 1
f 38/42/34 42/118/34 41/43/35
f 39/45/36 43/119/36 42/46/34
f 39/48/36 40/120/37 44/49/37
f 40/51/37 37/44/35 41/43/35
s 0
f 40/53/38 39/121/38 38/54/38
f 41/56/39 42/122/39 43/57/39
s 1
f 45/59/40 46/123/41 50/60/41
f 47/59/42 51/65/42 50/62/41
f 47/59/42 48/124/43 52/64/43
f 45/59/40 49/61/40 52/66/43
s 0
f 45/68/44 48/125/44 47/69/44
f 52/71/45 49/126/45 50/72/45
s 1
f 54/74/46 58/127/46 57/75/47
f 55/76/48 59/80/48 58/77/46
f 56/79/49 60/128/49 59/80/48
f 53/76/47 57/75/47 60/81/49
s 0
f 56/83/50 55/129/50 54/84/50
f 57/86/51 58/130/51 59/87/51
s 1
f 62/89/52 67/131/52 66/90/53
f 63/92/54 68/132/56 67/93/52
f 64/95/55 69/133/58 68/96/56
f 65/98/57 70/134/57 69/99/58
f 61/91/53 66/90/53 70/101/57
s 0
f 62/105/59 61/135/59 65/103/59
f 65/103/59 64/136/59 63/104/59
f 69/108/60 70/137/60 66/106/60
f 66/106/60 67/138/60 68/107/60
