# Blender 5.0.1
# www.blender.org
mtllib coral_brain_c.mtl
o coral_brain_c_body
usemtl coral_brain_c_body
v -0.000204 0.134832 -0.240215
v 0.165311 0.060276 -0.104660
v -0.058828 0.022966 -0.097223
v -0.239354 0.134832 -0.121940
v -0.062572 0.253842 -0.103281
v 0.190856 0.220895 -0.120448
v 0.060148 0.019668 0.095291
v -0.193445 0.047787 0.117066
v -0.188199 0.219515 0.113824
v 0.067090 0.263243 0.106523
v 0.226285 0.134832 0.110881
v -0.000204 0.134832 0.214627
v -0.035517 0.067448 -0.187271
v 0.111787 0.084386 -0.226350
v 0.057485 0.024755 -0.117742
v 0.185839 0.134832 -0.117347
v 0.113195 0.185913 -0.229164
v -0.114761 0.134832 -0.187722
v -0.148877 0.067862 -0.115942
v -0.041587 0.213799 -0.219056
v -0.150425 0.202500 -0.117124
v 0.060871 0.251371 -0.124515
v 0.241563 0.086129 -0.002365
v 0.219556 0.179102 -0.002365
v -0.000204 0.000000 -0.002365
v 0.133020 0.021145 -0.002365
v -0.204370 0.093704 -0.002365
v -0.126850 0.026758 -0.002365
v -0.152290 0.264616 -0.002365
v -0.201557 0.175394 -0.002365
v 0.125388 0.242007 -0.002365
v -0.000204 0.289911 -0.002365
v 0.147934 0.068103 0.110804
v -0.064770 0.011632 0.126768
v -0.215806 0.134832 0.130887
v -0.063215 0.255065 0.123657
v 0.166085 0.209738 0.124671
v 0.043304 0.051810 0.225454
v 0.122682 0.134832 0.196470
v -0.099962 0.089896 0.197154
v -0.096663 0.178282 0.190555
v 0.040790 0.213056 0.212288
vn -0.1733 -0.1606 -0.9717
vn 0.6241 -0.6860 -0.3742
vn -0.2073 -0.9257 -0.3163
vn -0.9033 -0.0018 -0.4291
vn -0.2200 0.9125 -0.3448
vn 0.7448 0.5805 -0.3290
vn 0.2529 -0.9430 0.2164
vn -0.6808 -0.6563 0.3253
vn -0.6772 0.6214 0.3940
vn 0.2423 0.9319 0.2698
vn 0.8717 -0.0494 0.4876
vn -0.0744 0.0800 0.9940
vn -0.2417 -0.7049 -0.6668
vn 0.4133 -0.4941 -0.7649
vn 0.1195 -0.9383 -0.3245
vn 0.8820 -0.1237 -0.4547
vn 0.4318 0.4017 -0.8076
vn -0.5300 -0.1039 -0.8416
vn -0.4800 -0.7617 -0.4352
vn -0.2742 0.5936 -0.7566
vn -0.5590 0.6879 -0.4628
vn 0.1496 0.9418 -0.3010
vn 0.9138 -0.4014 -0.0612
vn 0.8609 0.5072 -0.0402
vn -0.0051 -0.9992 -0.0408
vn 0.3674 -0.9297 0.0266
vn -0.8954 -0.4423 -0.0516
vn -0.4153 -0.9014 -0.1223
vn -0.5409 0.8351 -0.1005
vn -0.9356 0.3506 -0.0410
vn 0.4258 0.9047 0.0177
vn 0.0565 0.9977 -0.0362
vn 0.5290 -0.7382 0.4185
vn -0.1591 -0.9325 0.3243
vn -0.8807 0.0391 0.4721
vn -0.1801 0.8807 0.4382
vn 0.6007 0.6781 0.4235
vn 0.1859 -0.5260 0.8299
vn 0.5421 -0.0359 0.8396
vn -0.3576 -0.2961 0.8857
vn -0.3350 0.3714 0.8660
vn 0.1125 0.5235 0.8446
vt -0.000000 0.360000
vt -0.279979 0.233883
vt 0.088282 0.191540
vt 0.255738 0.173609
vt 0.559963 0.233883
vt 0.287456 0.360000
vt 0.286392 0.360000
vt 0.103458 0.557417
vt -0.283496 0.487701
vt -0.000000 0.238242
vt -0.146560 0.237146
vt 0.144222 0.288443
vt 0.000000 -0.000000
vt -0.597876 0.298939
vt -0.371683 0.283944
vt -0.510416 -0.000000
vt -0.155920 -0.252292
vt -0.375552 -0.286899
vt -0.380214 0.000000
vt 0.477650 -0.295207
vt 0.152688 -0.305375
vt 0.313980 0.000000
vt 0.413788 0.255738
vt 0.604417 -0.000000
vt 0.333061 -0.000000
vt -0.316616 -0.000000
vt -0.298939 0.360000
vt 0.000000 0.257178
vt 0.000000 0.461405
vt 0.549401 0.000000
vt 0.150881 -0.244138
vt 0.370346 -0.282923
vt 0.108770 -0.569545
vt -0.483101 -0.298577
vt -0.161416 -0.322832
vt -0.249395 -0.498795
vt -0.469988 0.571707
vt -0.539005 0.360000
vt -0.241147 0.468625
vt 0.168235 0.272220
vt -0.157527 0.315053
vt 0.102484 0.536631
vt 0.566224 0.360000
vt 0.415723 0.547264
vt 0.307215 0.360000
vt 0.102484 0.555560
vt 0.415723 0.317588
vt -0.241147 0.482298
vt -0.469988 0.290472
vt -0.249395 0.247660
vt -0.483101 0.142387
vt 0.108770 0.152445
vt -0.569545 0.152445
vt -0.282923 0.193176
vt -0.497087 0.360000
vt 0.370346 0.193176
vt -0.000000 0.470675
vt -0.317588 0.547264
vt -0.283113 0.360000
vt 0.333128 0.360000
vt 0.290472 0.571707
vt 0.298577 0.142387
vt 0.566224 -0.283113
vt 0.000000 0.684458
vt -0.286899 0.529169
vt -0.597876 -0.298939
vt -0.503382 0.000000
vt 0.295207 0.575158
vt 0.283496 -0.566999
vt -0.103458 -0.541728
vt 0.375552 0.529169
vt 0.597876 0.360000
vt 0.371683 0.192574
vt -0.088282 0.462266
vt 0.566999 0.487701
vt 0.279979 0.559963
s 1
f 1/1/1 14/2/14 13/3/13
f 2/4/2 14/5/14 16/6/16
f 1/1/1 13/3/13 18/7/18
f 1/1/1 18/7/18 20/8/20
f 1/1/1 20/8/20 17/9/17
f 2/4/2 16/6/16 23/10/23
f 3/11/3 15/12/15 25/13/25
f 4/14/4 19/15/19 27/16/27
f 5/17/5 21/18/21 29/19/29
f 6/20/6 22/21/22 31/22/31
f 2/23/2 23/24/23 26/25/26
f 3/11/3 25/13/25 28/26/28
f 4/27/4 27/28/27 30/29/30
f 5/17/5 29/19/29 32/13/32
f 6/20/6 31/22/31 24/30/24
f 7/31/7 33/32/33 38/33/38
f 8/34/8 34/35/34 40/36/40
f 9/37/9 35/38/35 41/39/41
f 10/40/10 36/41/36 42/42/42
f 11/43/11 37/44/37 39/45/39
f 39/45/39 42/46/42 12/1/12
f 39/45/39 37/44/37 42/46/42
f 37/47/37 10/40/10 42/42/42
f 42/46/42 41/39/41 12/1/12
f 42/42/42 36/41/36 41/48/41
f 36/41/36 9/49/9 41/48/41
f 41/39/41 40/50/40 12/1/12
f 41/39/41 35/38/35 40/50/40
f 35/38/35 8/51/8 40/50/40
f 40/50/40 38/52/38 12/1/12
f 40/36/40 34/35/34 38/33/38
f 34/35/34 7/31/7 38/33/38
f 38/52/38 39/45/39 12/1/12
f 38/53/38 33/54/33 39/55/39
f 33/56/33 11/43/11 39/45/39
f 24/57/24 37/58/37 11/59/11
f 24/30/24 31/22/31 37/47/37
f 31/22/31 10/40/10 37/47/37
f 32/13/32 36/41/36 10/40/10
f 32/13/32 29/19/29 36/41/36
f 29/19/29 9/49/9 36/41/36
f 30/29/30 35/60/35 9/61/9
f 30/29/30 27/28/27 35/60/35
f 27/28/27 8/62/8 35/60/35
f 28/26/28 34/35/34 8/34/8
f 28/26/28 25/13/25 34/35/34
f 25/13/25 7/31/7 34/35/34
f 26/25/26 33/32/33 7/31/7
f 26/25/26 23/24/23 33/32/33
f 23/24/23 11/63/11 33/32/33
f 31/22/31 32/13/32 10/40/10
f 31/22/31 22/21/22 32/13/32
f 22/21/22 5/17/5 32/13/32
f 29/64/29 30/29/30 9/61/9
f 29/64/29 21/65/21 30/29/30
f 21/18/21 4/66/4 30/67/30
f 27/16/27 28/26/28 8/34/8
f 27/16/27 19/15/19 28/26/28
f 19/15/19 3/11/3 28/26/28
f 25/13/25 26/25/26 7/31/7
f 25/13/25 15/12/15 26/25/26
f 15/12/15 2/23/2 26/25/26
f 23/10/23 24/57/24 11/59/11
f 23/10/23 16/6/16 24/57/24
f 16/6/16 6/68/6 24/57/24
f 17/69/17 22/21/22 6/20/6
f 17/69/17 20/70/20 22/21/22
f 20/70/20 5/17/5 22/21/22
f 20/70/20 21/18/21 5/17/5
f 20/8/20 18/7/18 21/71/21
f 18/7/18 4/72/4 21/71/21
f 18/7/18 19/73/19 4/72/4
f 18/7/18 13/3/13 19/73/19
f 13/74/13 3/11/3 19/15/19
f 16/6/16 17/75/17 6/68/6
f 16/6/16 14/5/14 17/75/17
f 14/2/14 1/1/1 17/9/17
f 13/74/13 15/12/15 3/11/3
f 13/74/13 14/76/14 15/12/15
f 14/76/14 2/23/2 15/12/15
o coral_brain_c_tip
usemtl coral_brain_c_tip
v 0.020462 0.260667 -0.028410
v 0.029259 0.244058 -0.042944
v 0.033392 0.260667 -0.059422
v 0.024595 0.277276 -0.044888
v 0.103650 0.274224 0.003674
v 0.111191 0.259987 -0.008784
v 0.114733 0.274224 -0.022908
v 0.107193 0.288460 -0.010450
v -0.001561 0.262641 -0.010344
v -0.010585 0.246031 -0.024737
v -0.023441 0.262641 -0.035844
v -0.014417 0.279250 -0.021450
v 0.074192 0.278123 -0.078505
v 0.066457 0.263886 -0.090843
v 0.055438 0.278123 -0.100362
v 0.063173 0.292360 -0.088025
v 0.104286 0.262194 -0.040690
v 0.109706 0.245403 -0.024779
v 0.114068 0.262194 -0.008546
v 0.108648 0.278985 -0.024457
v 0.011323 0.258971 -0.009892
v 0.015969 0.244578 0.003746
v 0.019708 0.258971 0.017660
v 0.015062 0.273363 0.004022
v -0.134912 0.242801 -0.020698
v -0.118119 0.226094 -0.018870
v -0.102073 0.242801 -0.013589
v -0.118866 0.259508 -0.015417
v -0.157907 0.230141 0.096853
v -0.143513 0.215820 0.098420
v -0.129760 0.230141 0.102947
v -0.144154 0.244461 0.101379
v 0.020498 0.259359 0.069990
v 0.014661 0.242935 0.053846
v 0.015817 0.259359 0.036718
v 0.021655 0.275784 0.052862
v 0.108078 0.240273 0.055245
v 0.103075 0.226195 0.041407
v 0.104066 0.240273 0.026726
v 0.109069 0.254351 0.040564
v 0.119292 0.243235 0.011612
v 0.102992 0.226464 0.007425
v 0.087295 0.243235 0.001359
v 0.103594 0.260006 0.005546
v 0.159141 0.235113 -0.120610
v 0.145169 0.220738 -0.124199
v 0.131714 0.235113 -0.129399
v 0.145686 0.249488 -0.125810
vn 0.1630 -0.9843 0.0680
vn -0.3604 0.0040 0.9328
vn 0.4090 0.0040 -0.9125
vn -0.1145 0.9923 -0.0477
vn -0.9125 -0.1504 -0.3805
vn 0.9125 0.1504 0.3805
vn 0.1315 -0.9849 -0.1128
vn 0.6685 0.0035 0.7437
vn -0.6335 0.0035 -0.7737
vn -0.0965 0.9919 0.0828
vn -0.7503 -0.1502 0.6438
vn 0.7503 0.1502 -0.6438
vn 0.0081 -1.0000 -0.0025
vn -0.3145 -0.0008 -0.9493
vn 0.2676 -0.0008 0.9635
vn -0.0549 0.9984 0.0167
vn 0.9562 0.0329 -0.2910
vn -0.9562 -0.0329 0.2910
vn 0.0181 -0.9964 -0.0834
vn -0.9814 -0.0021 -0.1922
vn 0.9730 -0.0021 0.2309
vn 0.0180 -0.9964 -0.0834
vn -0.0264 0.9922 0.1221
vn 0.2104 0.1051 -0.9719
vn -0.2104 -0.1051 0.9719
vn -0.1825 -0.9829 0.0257
vn 0.1648 -0.0055 0.9863
vn 0.1648 -0.0056 0.9863
vn -0.1137 -0.0055 -0.9935
vn -0.1137 -0.0056 -0.9935
vn 0.2336 0.9718 -0.0329
vn -0.9681 0.2102 0.1362
vn 0.9681 -0.2102 -0.1362
vn -0.0126 -0.9991 0.0394
vn 0.9574 -0.0010 0.2886
vn -0.9469 -0.0010 -0.3216
vn 0.0232 0.9971 -0.0724
vn -0.3046 0.0587 0.9507
vn 0.3046 -0.0587 -0.9507
vt 0.073658 0.633063
vt 0.259636 0.708478
vt 0.051665 0.674585
vt 0.083991 0.142645
vt 0.278487 0.016048
vt 0.073658 0.101449
vt 0.083991 -0.142645
vt 0.268493 -0.020215
vt 0.287344 -0.051359
vt 0.051665 -0.065114
vt 0.061999 -0.106310
vt -0.065114 0.674585
vt -0.142645 0.674585
vt -0.101449 0.633063
vt 0.020215 0.744069
vt 0.016048 0.672888
vt 0.051359 0.708478
vt -0.025953 0.055932
vt 0.185990 0.190352
vt -0.003393 0.019948
vt -0.058092 0.083698
vt 0.166653 0.221195
vt -0.035532 -0.047714
vt 0.139105 -0.244994
vt -0.058092 -0.083698
vt -0.003393 -0.019948
vt 0.158443 -0.214151
vt -0.019948 0.679521
vt -0.083698 0.679521
vt -0.055932 0.637998
vt 0.190352 0.718227
vt 0.244994 0.718227
vt 0.214151 0.753818
vt 0.274774 0.056036
vt 0.028818 0.018819
vt 0.261225 0.095814
vt 0.049779 -0.050062
vt 0.040432 -0.015277
vt 0.272130 -0.055231
vt 0.049779 0.050062
vt 0.285679 -0.015453
vt 0.261225 -0.095814
vt 0.038165 0.015966
vt 0.095814 0.678405
vt 0.015453 0.678405
vt 0.056036 0.636428
vt -0.018819 0.670346
vt 0.050062 0.670346
vt 0.015966 0.706326
vt -0.294787 0.041263
vt -0.394258 -0.248043
vt -0.336771 0.045835
vt -0.254673 0.028060
vt -0.358273 -0.251962
vt -0.296656 -0.032632
vt -0.323889 0.263279
vt -0.254673 -0.028060
vt -0.045835 0.629922
vt 0.259360 0.634071
vt -0.032632 0.671689
vt 0.296656 0.671689
vt 0.294787 0.588154
vt 0.336771 0.629922
vt -0.359874 0.634071
vt -0.358273 0.562470
vt -0.323889 0.598271
vt 0.037163 0.630256
vt 0.270706 0.623601
vt 0.051756 0.671317
vt 0.037163 -0.140526
vt 0.260675 -0.072726
vt 0.258198 -0.109429
vt -0.040054 0.671317
vt -0.273183 0.658797
vt -0.260675 0.623601
vt 0.051756 0.180887
vt 0.273183 0.107321
vt 0.054647 0.138067
vt 0.180887 0.671317
vt 0.097706 0.671317
vt 0.140526 0.630256
vt -0.144024 0.623601
vt -0.072726 0.623601
vt -0.107321 0.658797
vt 0.257991 -0.024473
vt 0.398362 0.295614
vt 0.298740 -0.034941
vt 0.218747 -0.009308
vt 0.363434 0.304586
vt 0.259496 0.019776
vt 0.329796 -0.317585
vt 0.218747 0.009308
vt 0.298740 0.034941
vt 0.364724 -0.308613
vt 0.298740 0.631006
vt 0.218747 0.631006
vt 0.257991 0.589079
vt -0.364724 0.646639
vt -0.363434 0.574763
vt -0.329796 0.610701
vt 0.278487 0.672888
vt 0.287344 0.051359
vt 0.259636 0.015096
vt -0.106310 0.716108
vt -0.015096 0.708478
vt 0.139105 0.244994
vt 0.185990 -0.190352
vt -0.047714 0.721044
vt 0.221195 0.682635
vt 0.285679 0.015453
vt 0.028818 -0.018819
vt 0.055231 0.720382
vt 0.015277 0.634365
vt -0.323889 -0.263279
vt -0.359874 0.259360
vt 0.248043 0.598271
vt 0.254673 0.629922
vt -0.394258 0.598271
vt 0.258198 0.588405
vt 0.040054 -0.097706
vt -0.054647 0.712379
vt 0.270706 0.144024
vt 0.138067 0.712379
vt -0.109429 0.588405
vt 0.329796 0.317585
vt 0.398362 -0.295614
vt 0.259496 0.672934
vt -0.398362 0.610701
s 1
f 44/77/43 47/78/44 43/79/44
f 45/80/45 48/81/43 44/82/43
f 45/83/45 50/84/46 49/85/45
f 43/86/44 50/84/46 46/87/46
s 0
f 43/88/47 45/89/47 44/90/47
f 50/91/48 48/92/48 49/93/48
s 1
f 52/94/49 55/95/50 51/96/50
f 53/97/51 56/98/49 52/94/49
f 54/99/52 57/100/51 53/101/51
f 51/102/50 58/103/52 54/99/52
s 0
f 51/104/53 53/105/53 52/106/53
f 55/107/54 57/108/54 58/109/54
s 1
f 60/110/55 63/111/56 59/112/56
f 60/110/55 65/113/57 64/114/55
f 62/115/58 65/116/57 61/117/57
f 59/118/56 66/119/58 62/115/58
s 0
f 59/120/59 61/121/59 60/122/59
f 63/123/60 65/124/60 66/125/60
s 1
f 68/126/61 71/127/62 67/128/62
f 69/129/63 72/130/64 68/126/61
f 70/131/65 73/132/63 69/133/63
f 67/134/62 74/135/65 70/136/65
s 0
f 70/137/66 68/138/66 67/139/66
f 74/140/67 72/141/67 73/142/67
s 1
f 76/143/68 79/144/69 75/145/70
f 76/146/68 81/147/71 80/148/68
f 77/149/72 82/150/73 81/151/71
f 75/152/70 82/153/73 78/154/73
s 0
f 75/155/74 77/156/74 76/157/74
f 79/158/75 81/159/75 82/160/75
s 1
f 84/161/76 87/162/77 83/163/77
f 85/164/78 88/165/76 84/161/76
f 86/166/79 89/167/78 85/168/78
f 83/169/77 90/170/79 86/166/79
s 0
f 83/171/80 85/172/80 84/173/80
f 90/174/81 88/175/81 89/176/81
s 1
f 44/77/43 48/177/43 47/78/44
f 45/80/45 49/178/45 48/81/43
f 45/83/45 46/87/46 50/84/46
f 43/86/44 47/179/44 50/84/46
s 0
f 43/88/47 46/180/47 45/89/47
f 50/91/48 47/181/48 48/92/48
s 1
f 52/94/49 56/98/49 55/95/50
f 53/97/51 57/182/51 56/98/49
f 54/99/52 58/103/52 57/100/51
f 51/102/50 55/183/50 58/103/52
s 0
f 51/104/53 54/184/53 53/105/53
f 55/107/54 56/185/54 57/108/54
s 1
f 60/110/55 64/114/55 63/111/56
f 60/110/55 61/186/57 65/113/57
f 62/115/58 66/119/58 65/116/57
f 59/118/56 63/187/56 66/119/58
s 0
f 59/120/59 62/188/59 61/121/59
f 63/123/60 64/189/60 65/124/60
s 1
f 68/126/61 72/130/64 71/127/62
f 69/129/63 73/190/63 72/130/64
f 70/131/65 74/191/65 73/132/63
f 67/134/62 71/192/62 74/135/65
s 0
f 70/137/66 69/193/66 68/138/66
f 74/140/67 71/194/67 72/141/67
s 1
f 76/143/68 80/195/68 79/144/69
f 76/146/68 77/196/72 81/147/71
f 77/149/72 78/197/73 82/150/73
f 75/152/70 79/198/69 82/153/73
s 0
f 75/155/74 78/199/74 77/156/74
f 79/158/75 80/200/75 81/159/75
s 1
f 84/161/76 88/165/76 87/162/77
f 85/164/78 89/201/78 88/165/76
f 86/166/79 90/170/79 89/167/78
f 83/169/77 87/202/77 90/170/79
s 0
f 83/171/80 86/203/80 85/172/80
f 90/174/81 87/204/81 88/175/81
