# Blender 5.0.1
# www.blender.org
mtllib coral_fan_a.mtl
o coral_fan_a_body
usemtl coral_fan_a_body
v 0.000000 0.020000 -0.000011
v 0.442674 0.390008 0.008929
v 0.366778 0.640338 0.005729
v 0.219812 0.702825 0.001530
v 0.118351 0.832153 0.014729
v 0.000000 0.937911 0.005510
v -0.130051 0.912445 -0.010604
v -0.259842 0.827176 -0.013106
v -0.326933 0.572948 0.009495
v -0.416911 0.368474 0.001022
v 0.000000 0.020000 -0.000011
v 0.442674 0.390008 0.008929
v 0.366778 0.640338 0.005729
v 0.219812 0.702825 0.001530
v 0.118351 0.832153 0.014729
v 0.000000 0.937911 0.005510
v -0.130051 0.912445 -0.010604
v -0.259842 0.827176 -0.013106
v -0.326933 0.572948 0.009495
v -0.416911 0.368474 0.001022
vn -0.0077 -0.0003 1.0000
vn -0.0246 0.0053 0.9997
vn -0.0255 0.0058 0.9997
vn 0.0428 -0.0160 0.9990
vn -0.0358 -0.0129 0.9993
vn -0.1071 -0.0060 0.9942
vn -0.0819 -0.0001 0.9966
vn 0.0104 0.0196 0.9998
vn 0.0810 0.0308 0.9962
vn -0.0235 -0.0311 0.9992
vn 0.0077 0.0003 -1.0000
vn 0.0246 -0.0053 -0.9997
vn 0.0255 -0.0058 -0.9997
vn -0.0428 0.0160 -0.9990
vn 0.0358 0.0129 -0.9993
vn 0.1071 0.0060 -0.9942
vn 0.0819 0.0001 -0.9966
vn -0.0104 -0.0196 -0.9998
vn -0.0810 -0.0308 -0.9962
vn 0.0235 0.0311 -0.9992
vt 0.000000 0.040000
vt 0.885347 0.780016
vt 0.733555 1.280676
vt 0.439624 1.405649
vt 0.236701 1.664306
vt 0.000000 1.875823
vt -0.260102 1.824890
vt -0.519685 1.654353
vt -0.653866 1.145897
vt -0.833822 0.736948
s 1
f 1/1/1 2/2/2 3/3/3
f 1/1/1 3/3/3 4/4/4
f 1/1/1 4/4/4 5/5/5
f 1/1/1 5/5/5 6/6/6
f 1/1/1 6/6/6 7/7/7
f 1/1/1 7/7/7 8/8/8
f 1/1/1 8/8/8 9/9/9
f 1/1/1 9/9/9 10/10/10
f 11/1/11 13/3/13 12/2/12
f 11/1/11 14/4/14 13/3/13
f 11/1/11 15/5/15 14/4/14
f 11/1/11 16/6/16 15/5/15
f 11/1/11 17/7/17 16/6/16
f 11/1/11 18/8/18 17/7/17
f 11/1/11 19/9/19 18/8/18
f 11/1/11 20/10/20 19/9/19
o coral_fan_a_tip
usemtl coral_fan_a_tip
v -0.000383 0.020000 0.018985
v 0.012181 0.005421 0.000235
v 0.000384 0.020000 -0.019007
v -0.012181 0.034579 -0.000257
v 0.442520 0.390008 0.016528
v 0.447546 0.384176 0.009028
v 0.442827 0.390008 0.001331
v 0.437801 0.395840 0.008831
v 0.000000 0.020043 -0.019011
v -0.018086 0.025822 0.000002
v 0.000000 0.019957 0.018989
v 0.018086 0.014178 -0.000024
v 0.219812 0.702842 -0.006070
v 0.212578 0.705153 0.001535
v 0.219812 0.702807 0.009130
v 0.227046 0.700496 0.001524
v 0.000000 0.020114 -0.019011
v -0.019000 0.020000 -0.000011
v 0.000000 0.019886 0.018989
v 0.019000 0.020000 -0.000011
v 0.000000 0.937957 -0.002090
v -0.007600 0.937911 0.005510
v 0.000000 0.937866 0.013110
v 0.007600 0.937911 0.005510
v 0.000000 0.019692 -0.019009
v -0.018086 0.014179 0.000083
v 0.000000 0.020308 0.018986
v 0.018086 0.025821 -0.000105
v -0.259842 0.827053 -0.020705
v -0.267077 0.824848 -0.013068
v -0.259842 0.827300 -0.005507
v -0.252608 0.829505 -0.013144
v -0.000047 0.020000 -0.019011
v -0.012185 0.005422 0.000019
v 0.000047 0.020000 0.018989
v 0.012185 0.034578 -0.000041
v -0.416930 0.368474 -0.006578
v -0.421785 0.362643 0.001034
v -0.416892 0.368474 0.008622
v -0.412037 0.374305 0.001010
v 0.000000 0.000000 -0.033261
v -0.031622 0.000000 -0.010286
v -0.019544 0.000000 0.026889
v 0.019544 0.000000 0.026889
v 0.031623 0.000000 -0.010286
v 0.000000 0.100000 -0.028511
v -0.027105 0.100000 -0.008818
v -0.016752 0.100000 0.023046
v 0.016752 0.100000 0.023046
v 0.027105 0.100000 -0.008818
vn 0.6561 -0.7545 0.0133
vn -0.0050 0.0127 0.9999
vn 0.0353 0.0127 -0.9993
vn 0.6561 -0.7545 0.0132
vn -0.6258 0.7799 -0.0126
vn -0.7672 -0.6412 -0.0155
vn 0.7672 0.6412 0.0155
vn -0.9469 0.3215 0.0007
vn 0.0049 0.0174 -0.9998
vn 0.0049 0.0129 0.9999
vn 0.9566 -0.2913 -0.0007
vn -0.3064 -0.9519 -0.0021
vn 0.3064 0.9519 0.0022
vn -0.9999 0.0124 0.0001
vn -0.0000 0.0184 -0.9998
vn -0.0000 0.0064 1.0000
vn 0.9999 0.0124 0.0001
vn -0.0000 -1.0000 -0.0060
vn -0.0000 1.0000 0.0060
vn -0.9559 -0.2935 0.0048
vn -0.0041 -0.0034 -1.0000
vn -0.0041 0.0290 0.9996
vn 0.9477 0.3191 -0.0052
vn 0.3064 -0.9518 0.0154
vn -0.3064 0.9518 -0.0154
vn -0.6573 -0.7537 0.0016
vn -0.0186 0.0134 -0.9997
vn -0.0186 0.0135 -0.9997
vn -0.0136 0.0135 0.9998
vn 0.6251 0.7806 -0.0015
vn 0.6251 0.7806 -0.0016
vn 0.7673 -0.6413 -0.0019
vn -0.7673 0.6413 0.0019
vn -0.9500 0.0474 -0.3086
vn -0.0000 0.0474 -0.9989
vn -0.5871 0.0474 0.8081
vn -0.9500 0.0474 -0.3087
vn 0.5871 0.0474 0.8081
vn 0.9500 0.0474 -0.3087
vn -0.0000 -1.0000 -0.0000
vn -0.0000 1.0000 -0.0000
vt 0.024362 0.010841
vt 0.885040 0.780016
vt -0.000767 0.040000
vt -0.895092 0.768352
vt -0.024362 0.010841
vt 0.024362 0.069159
vt -0.885654 0.780016
vt 0.875602 0.791679
vt -0.024362 0.069159
vt -0.000492 0.069159
vt 0.000492 0.010841
vt 0.037992 0.040000
vt -0.017684 0.791679
vt -0.018078 0.768352
vt -0.002684 0.780016
vt 0.036172 0.051644
vt -0.439624 1.405684
vt -0.000000 0.040086
vt -0.036172 0.051644
vt 0.439624 1.405615
vt 0.425155 1.410307
vt 0.036172 0.028356
vt -0.000000 0.039914
vt -0.454092 1.400991
vt -0.036172 0.028356
vt 0.036172 0.000026
vt -0.036172 -0.000026
vt 0.000000 0.038000
vt 0.439624 -0.012118
vt 0.439624 0.018281
vt 0.454092 0.003071
vt -0.000000 0.040000
vt -0.004158 1.875914
vt -0.037999 0.040229
vt -0.000000 0.039771
vt -0.015200 1.875823
vt -0.038000 0.040000
vt 0.038000 0.040000
vt 0.000000 1.875731
vt 0.037999 0.040229
vt -0.011042 1.875823
vt -0.000000 0.040000
vt 0.038000 -0.000000
vt -0.038000 0.000000
vt 0.000000 0.037999
vt 0.000000 -0.004158
vt 0.000000 0.026241
vt 0.015200 0.011042
vt 0.036172 0.028359
vt 0.519685 1.654106
vt -0.000000 0.039384
vt -0.036172 0.028359
vt -0.519685 1.654599
vt -0.534154 1.649696
vt 0.036172 0.051641
vt -0.000000 0.040616
vt 0.505216 1.659009
vt -0.036172 0.051641
vt 0.036172 0.000189
vt -0.036172 -0.000189
vt 0.000000 0.037995
vt -0.519685 -0.041388
vt -0.519685 -0.010992
vt -0.505216 -0.026266
vt 0.024370 0.010844
vt 0.833860 0.736948
vt 0.000094 0.040000
vt -0.843570 0.725286
vt -0.024370 0.010844
vt 0.024370 0.069156
vt -0.833784 0.736948
vt 0.824074 0.748611
vt -0.024370 0.069156
vt 0.000060 0.069156
vt -0.000060 0.010844
vt 0.038000 0.040000
vt -0.013135 0.736948
vt 0.017265 0.736948
vt 0.002041 0.748611
vt 0.063245 0.000000
vt -0.000000 0.200000
vt -0.000000 0.000000
vt 0.053800 0.000000
vt -0.017614 0.200000
vt -0.020550 0.000000
vt 0.039088 0.000000
vt -0.033504 0.200000
vt -0.039088 0.000000
vt 0.020550 0.000000
vt -0.046114 0.200000
vt -0.053800 0.000000
vt -0.054210 0.200000
vt -0.063245 0.000000
vt 0.063245 0.020550
vt -0.039088 -0.053800
vt -0.063245 0.020550
vt 0.000000 -0.057000
vt -0.054210 -0.017614
vt -0.033504 0.046114
vt 0.895092 0.768352
vt -0.875602 0.791679
vt -0.037992 0.040000
vt -0.033078 0.780016
vt -0.425155 1.410307
vt 0.454092 1.400991
vt -0.000000 -0.038000
vt 0.425155 0.003092
vt 0.011042 1.875823
vt 0.015200 1.875823
vt 0.004158 1.875914
vt -0.000000 -0.037999
vt -0.015200 0.011042
vt 0.534154 1.649696
vt -0.505216 1.659009
vt -0.000000 -0.037995
vt -0.534154 -0.026115
vt 0.843570 0.725286
vt -0.824074 0.748611
vt -0.038000 0.040000
vt 0.002089 0.725286
vt 0.054210 0.200000
vt 0.046114 0.200000
vt 0.033504 0.200000
vt 0.017614 0.200000
vt 0.000000 0.066500
vt 0.039088 -0.053800
vt 0.033504 0.046114
vt 0.054210 -0.017614
s 1
f 22/11/21 25/12/22 21/13/22
f 23/13/23 26/14/24 22/15/21
f 24/16/25 27/17/23 23/13/23
f 21/13/22 28/18/25 24/19/25
s 0
f 24/20/26 22/21/26 21/22/26
f 28/23/27 26/24/27 27/25/27
s 1
f 30/26/28 33/27/29 29/28/29
f 30/29/28 35/30/30 34/31/28
f 32/32/31 35/30/30 31/33/30
f 29/28/29 36/34/31 32/35/31
s 0
f 32/36/32 30/37/32 29/38/32
f 33/39/33 35/40/33 36/41/33
s 1
f 38/42/34 41/43/35 37/44/35
f 39/45/36 42/46/34 38/47/34
f 40/48/37 43/49/36 39/45/36
f 37/50/35 44/51/37 40/52/37
s 0
f 40/53/38 38/54/38 37/55/38
f 41/56/39 43/57/39 44/58/39
s 1
f 46/59/40 49/60/41 45/61/41
f 46/62/40 51/63/42 50/64/40
f 48/65/43 51/63/42 47/66/42
f 45/61/41 52/67/43 48/68/43
s 0
f 48/69/44 46/70/44 45/71/44
f 49/72/45 51/73/45 52/74/45
s 1
f 54/75/46 57/76/47 53/77/48
f 55/77/49 58/78/46 54/79/46
f 56/80/50 59/81/49 55/77/49
f 53/77/48 60/82/51 56/83/50
s 0
f 56/84/52 54/85/52 53/86/52
f 57/87/53 59/88/53 60/89/53
s 1
f 62/90/54 66/91/55 61/92/55
f 63/93/56 67/94/57 62/95/54
f 64/96/58 68/97/56 63/98/56
f 65/99/59 69/100/58 64/101/58
f 61/92/55 70/102/59 65/103/59
s 0
f 65/104/60 63/105/60 62/106/60
f 66/107/61 67/108/61 68/109/61
s 1
f 22/11/21 26/110/24 25/12/22
f 23/13/23 27/17/23 26/14/24
f 24/16/25 28/111/25 27/17/23
f 21/13/22 25/12/22 28/18/25
s 0
f 24/20/26 23/112/26 22/21/26
f 28/23/27 25/113/27 26/24/27
s 1
f 30/26/28 34/114/28 33/27/29
f 30/29/28 31/33/30 35/30/30
f 32/32/31 36/115/31 35/30/30
f 29/28/29 33/27/29 36/34/31
s 0
f 32/36/32 31/116/32 30/37/32
f 33/39/33 34/117/33 35/40/33
s 1
f 38/42/34 42/118/34 41/43/35
f 39/45/36 43/49/36 42/46/34
f 40/48/37 44/119/37 43/49/36
f 37/50/35 41/120/35 44/51/37
s 0
f 40/53/38 39/121/38 38/54/38
f 41/56/39 42/122/39 43/57/39
s 1
f 46/59/40 50/123/40 49/60/41
f 46/62/40 47/66/42 51/63/42
f 48/65/43 52/124/43 51/63/42
f 45/61/41 49/60/41 52/67/43
s 0
f 48/69/44 47/125/44 46/70/44
f 49/72/45 50/126/45 51/73/45
s 1
f 54/75/46 58/127/46 57/76/47
f 55/77/49 59/81/49 58/78/46
f 56/80/50 60/128/51 59/81/49
f 53/77/48 57/76/47 60/82/51
s 0
f 56/84/52 55/129/52 54/85/52
f 57/87/53 58/130/53 59/88/53
s 1
f 62/90/54 67/131/57 66/91/55
f 63/93/56 68/132/56 67/94/57
f 64/96/58 69/133/58 68/97/56
f 65/99/59 70/134/59 69/100/58
f 61/92/55 66/91/55 70/102/59
s 0
f 62/106/60 61/135/60 65/104/60
f 65/104/60 64/136/60 63/105/60
f 69/137/61 70/138/61 68/109/61
f 70/138/61 66/107/61 68/109/61
