# Blender 5.0.1
# www.blender.org
mtllib coral_table_d.mtl
o coral_table_d_body
usemtl coral_table_d_body
v 0.000000 0.024645 -0.120874
v -0.105106 0.013560 -0.060939
v -0.105106 0.001238 0.059935
v -0.000000 0.000000 0.120874
v 0.105106 0.011085 0.060939
v 0.105106 0.023407 -0.059935
v -0.015619 0.351906 -0.060371
v -0.097368 0.343285 -0.013755
v -0.097368 0.333701 0.080257
v -0.015619 0.332738 0.127654
v 0.066130 0.341360 0.081038
v 0.066130 0.350944 -0.012975
vn -0.8660 0.0907 -0.4917
vn -0.0038 0.1816 -0.9834
vn -0.8660 -0.0104 0.4999
vn -0.0038 -0.0206 0.9998
vn 0.8584 0.0704 0.5081
vn 0.8584 0.1715 -0.4835
vn 0.0470 -0.9937 -0.1013
vn -0.0470 0.9937 0.1013
vt 0.210211 0.002475
vt 0.031238 0.679168
vt -0.000000 0.024645
vt 0.119870 -0.022169
vt -0.027511 0.661925
vt -0.121877 0.002475
vt -0.210211 -0.022169
vt -0.031238 0.640832
vt -0.194735 0.642757
vt 0.210211 -0.002475
vt -0.000000 -0.024645
vt 0.119870 0.022169
vt -0.162076 0.658075
vt -0.121877 -0.002475
vt -0.210211 0.022169
vt -0.132260 0.677243
vt 0.210211 0.119870
vt -0.000000 -0.241747
vt -0.210211 0.121877
vt -0.031238 0.255308
vt 0.132260 0.162076
vt -0.031238 -0.120742
vt 0.194735 0.661925
vt 0.160515 0.642757
vt 0.132260 0.658075
vt 0.025949 0.677243
vt 0.000000 0.241747
vt 0.210211 -0.121877
vt -0.210211 -0.119870
vt 0.132260 -0.025949
vt -0.194735 -0.027511
vt -0.194735 0.160515
s 1
f 2/1/1 7/2/2 1/3/2
f 3/4/3 8/5/1 2/6/1
f 3/7/3 10/8/4 9/9/3
f 5/10/5 10/8/4 4/11/4
f 6/12/6 11/13/5 5/14/5
f 6/15/6 7/2/2 12/16/6
s 0
f 6/17/7 4/18/7 2/19/7
f 10/20/8 11/21/8 7/22/8
s 1
f 2/1/1 8/23/1 7/2/2
f 3/4/3 9/24/3 8/5/1
f 3/7/3 4/11/4 10/8/4
f 5/10/5 11/25/5 10/8/4
f 6/12/6 12/26/6 11/13/5
f 6/15/6 1/3/2 7/2/2
s 0
f 2/19/7 1/27/7 6/17/7
f 6/17/7 5/28/7 4/18/7
f 4/18/7 3/29/7 2/19/7
f 11/21/8 12/30/8 7/22/8
f 7/22/8 8/31/8 9/32/8
f 9/32/8 10/20/8 7/22/8
o coral_table_d_tip
usemtl coral_table_d_tip
v 0.000000 0.360322 0.000000
v 0.675669 0.376686 0.000000
v 0.657601 0.410210 0.316684
v 0.426682 0.344357 0.535042
v 0.147916 0.399072 0.648062
v -0.168469 0.332735 0.738109
v -0.405851 0.389623 0.508921
v -0.603898 0.412719 0.290822
v -0.725611 0.404036 0.000000
v -0.566576 0.358232 -0.272849
v -0.410537 0.419307 -0.514797
v -0.167571 0.341426 -0.734178
v 0.145109 0.392423 -0.635765
v 0.464051 0.381898 -0.581902
v 0.606173 0.381112 -0.291917
v 0.000000 0.360322 0.000000
v 0.675669 0.376686 0.000000
v 0.657601 0.410210 0.316684
v 0.426682 0.344357 0.535042
v 0.147916 0.399072 0.648062
v -0.168469 0.332735 0.738109
v -0.405851 0.389623 0.508921
v -0.603898 0.412719 0.290822
v -0.725611 0.404036 0.000000
v -0.566576 0.358232 -0.272849
v -0.410537 0.419307 -0.514797
v -0.167571 0.341426 -0.734178
v 0.145109 0.392423 -0.635765
v 0.464051 0.381898 -0.581902
v 0.606173 0.381112 -0.291917
vn -0.0081 -1.0000 -0.0038
vn 0.0242 -0.9986 0.0469
vn 0.0852 -0.9962 -0.0201
vn 0.0052 -0.9994 -0.0340
vn 0.0399 -0.9979 0.0506
vn 0.0263 -0.9992 -0.0313
vn -0.1326 -0.9900 -0.0487
vn -0.0763 -0.9969 0.0212
vn -0.0599 -0.9941 0.0908
vn 0.0122 -0.9998 -0.0176
vn -0.0966 -0.9946 -0.0369
vn -0.0402 -0.9986 0.0349
vn 0.0714 -0.9969 -0.0340
vn 0.0023 -0.9994 -0.0352
vn 0.0255 -0.9995 -0.0182
vn 0.0081 1.0000 0.0038
vn -0.0242 0.9986 -0.0469
vn -0.0852 0.9962 0.0201
vn -0.0052 0.9994 0.0340
vn -0.0399 0.9979 -0.0506
vn -0.0263 0.9992 0.0313
vn 0.1326 0.9900 0.0487
vn 0.0763 0.9969 -0.0212
vn 0.0599 0.9941 -0.0908
vn -0.0122 0.9998 0.0176
vn 0.0966 0.9946 0.0369
vn 0.0402 0.9986 -0.0349
vn -0.0714 0.9969 0.0340
vn -0.0023 0.9994 0.0352
vn -0.0255 0.9995 0.0182
vt 0.000000 0.000000
vt 1.126116 0.000000
vt 1.096002 0.527807
vt 0.711137 0.891737
vt 0.246527 1.080104
vt -0.280781 1.230182
vt -0.676418 0.848202
vt -1.006497 0.484703
vt -1.209352 0.000000
vt -0.944293 -0.454748
vt -0.684228 -0.857994
vt -0.279285 -1.223629
vt 0.241849 -1.059608
vt 0.773418 -0.969836
vt 1.010288 -0.486529
s 1
f 13/33/9 14/34/10 15/35/11
f 13/33/9 15/35/11 16/36/12
f 13/33/9 16/36/12 17/37/13
f 13/33/9 17/37/13 18/38/14
f 13/33/9 18/38/14 19/39/15
f 13/33/9 19/39/15 20/40/16
f 13/33/9 20/40/16 21/41/17
f 13/33/9 21/41/17 22/42/18
f 13/33/9 22/42/18 23/43/19
f 13/33/9 23/43/19 24/44/20
f 13/33/9 24/44/20 25/45/21
f 13/33/9 25/45/21 26/46/22
f 13/33/9 26/46/22 27/47/23
f 13/33/9 27/47/23 14/34/10
f 28/33/24 30/35/26 29/34/25
f 28/33/24 31/36/27 30/35/26
f 28/33/24 32/37/28 31/36/27
f 28/33/24 33/38/29 32/37/28
f 28/33/24 34/39/30 33/38/29
f 28/33/24 35/40/31 34/39/30
f 28/33/24 36/41/32 35/40/31
f 28/33/24 37/42/33 36/41/32
f 28/33/24 38/43/34 37/42/33
f 28/33/24 39/44/35 38/43/34
f 28/33/24 40/45/36 39/44/35
f 28/33/24 41/46/37 40/45/36
f 28/33/24 42/47/38 41/46/37
f 28/33/24 29/34/25 42/47/38
