# Blender 5.0.1
# www.blender.org
mtllib coral_tube_c.mtl
o coral_tube_c_body
usemtl coral_tube_c_body
v 0.073917 0.006509 -0.045912
v 0.037726 0.010805 -0.024711
v 0.037726 0.009699 0.017438
v 0.073917 0.004297 0.038384
v 0.110107 0.000000 0.017183
v 0.110107 0.001106 -0.024965
v 0.107881 0.259385 -0.024109
v 0.084705 0.262137 -0.010532
v 0.084705 0.261429 0.016459
v 0.107881 0.257969 0.029873
v 0.131056 0.255217 0.016296
v 0.131056 0.255925 -0.010695
v -0.012292 0.006831 0.033800
v -0.044473 0.009208 0.052569
v -0.044473 0.007780 0.089873
v -0.012292 0.003975 0.108406
v 0.019888 0.001598 0.089636
v 0.019888 0.003026 0.052333
v 0.024343 0.387278 0.058703
v 0.001067 0.388997 0.072279
v 0.001067 0.387964 0.099259
v 0.024343 0.385212 0.112664
v 0.047618 0.383493 0.099088
v 0.047618 0.384526 0.072108
v -0.061624 0.008464 -0.106632
v -0.095703 0.005037 -0.087133
v -0.095703 0.001975 -0.047841
v -0.061624 0.002341 -0.028047
v -0.027546 0.005768 -0.047545
v -0.027546 0.008830 -0.086838
v -0.078302 0.305370 -0.071048
v -0.101648 0.303022 -0.057690
v -0.101648 0.300925 -0.030771
v -0.078302 0.301175 -0.017211
v -0.054955 0.303523 -0.030569
v -0.054955 0.305621 -0.057487
vn -0.8490 0.1866 -0.4944
vn 0.0079 0.0849 -0.9964
vn -0.8490 0.1604 0.5035
vn 0.0079 0.0325 0.9994
vn 0.8647 -0.0692 0.4975
vn 0.8647 -0.0431 -0.5004
vn -0.1329 -0.9908 -0.0260
vn 0.1329 0.9908 0.0260
vn -0.8592 0.1287 -0.4953
vn 0.0026 0.0651 -0.9979
vn -0.8592 0.0905 0.5036
vn 0.0026 -0.0114 0.9999
vn 0.8643 -0.0751 0.4973
vn 0.8643 -0.0368 -0.5016
vn -0.0957 -0.9947 -0.0381
vn 0.0957 0.9947 0.0381
vn -0.0023 0.1189 -0.9929
vn -0.8662 0.0320 -0.4986
vn -0.8662 -0.0456 0.4975
vn -0.0023 -0.0364 0.9993
vn 0.8616 0.0505 0.5050
vn 0.8616 0.1281 -0.4911
vn 0.0557 -0.9954 -0.0776
vn -0.0557 0.9954 0.0776
vt -0.075272 0.013507
vt -0.250657 0.634956
vt -0.165748 0.002765
vt -0.120454 0.013507
vt -0.017531 0.640065
vt -0.085008 0.641835
vt 0.075272 0.010742
vt 0.250657 0.631415
vt 0.192719 0.640065
vt 0.256223 -0.013507
vt 0.165748 -0.002765
vt 0.121091 -0.010742
vt 0.017939 0.624536
vt 0.015720 -0.013507
vt -0.308596 0.626307
vt -0.256223 -0.010742
vt 0.165748 -0.037283
vt 0.075272 0.015084
vt 0.075272 0.120454
vt 0.192719 -0.017531
vt 0.250657 0.016003
vt 0.308596 -0.017939
vt 0.130227 0.009513
vt -0.041813 0.954688
vt 0.049775 0.003570
vt 0.166004 0.005943
vt 0.122019 0.958986
vt 0.072746 0.009513
vt -0.130227 0.005943
vt 0.041813 0.949523
vt -0.016376 0.956404
vt -0.049775 -0.003570
vt 0.100001 0.945225
vt -0.165412 -0.009513
vt -0.121591 0.947807
vt -0.189041 0.945225
vt -0.100001 0.947807
vt -0.030677 -0.005943
vt -0.049775 -0.212337
vt -0.130227 -0.166004
vt -0.130227 -0.072746
vt 0.041813 0.222981
vt 0.100001 0.189041
vt 0.041813 0.088080
vt 0.173105 0.007654
vt 0.273165 0.744048
vt 0.214799 0.749918
vt -0.178280 -0.008568
vt -0.202903 0.744048
vt -0.276511 -0.000914
vt -0.258301 -0.008568
vt -0.214799 0.739431
vt -0.273165 0.738805
vt -0.087909 0.000914
vt -0.173105 -0.007654
vt 0.275772 0.008568
vt 0.135101 0.745301
vt 0.177541 0.000914
vt 0.156433 0.750545
vt 0.087909 0.008568
vt -0.173105 0.128795
vt -0.258301 0.178280
vt -0.258301 0.276511
vt -0.273165 -0.135607
vt -0.214799 -0.101706
vt -0.156433 -0.135101
vt -0.192719 0.641835
vt -0.015084 0.010742
vt 0.308596 0.624536
vt 0.085415 0.626307
vt 0.165748 0.173458
vt 0.256223 0.121091
vt 0.256223 0.015720
vt 0.308596 -0.085415
vt 0.250657 -0.118950
vt 0.192719 -0.085008
vt 0.016376 0.958986
vt 0.189469 0.956404
vt 0.030677 -0.009513
vt -0.072154 -0.005943
vt -0.049775 -0.025821
vt 0.030677 -0.072154
vt 0.030677 -0.165412
vt 0.100001 0.121591
vt -0.016376 0.122019
vt -0.016376 0.189469
vt 0.258301 -0.000914
vt -0.135607 0.738805
vt -0.156433 0.745301
vt 0.202397 0.750545
vt -0.173105 0.325257
vt -0.087909 0.275772
vt -0.087909 0.177541
vt -0.156433 -0.202397
vt -0.214799 -0.236298
vt -0.273165 -0.202903
s 1
f 2/1/1 7/2/2 1/3/2
f 2/4/1 9/5/3 8/6/1
f 3/7/3 10/8/4 9/9/3
f 5/10/5 10/8/4 4/11/4
f 6/12/6 11/13/5 5/14/5
f 1/3/2 12/15/6 6/16/6
s 0
f 4/17/7 3/18/7 2/19/7
f 9/20/8 10/21/8 11/22/8
s 1
f 14/23/9 19/24/10 13/25/10
f 15/26/11 20/27/9 14/28/9
f 15/29/11 22/30/12 21/31/11
f 16/32/12 23/33/13 22/30/12
f 17/34/13 24/35/14 23/36/13
f 13/25/10 24/37/14 18/38/14
s 0
f 16/39/15 15/40/15 14/41/15
f 22/42/16 23/43/16 19/44/16
s 1
f 25/45/17 32/46/18 31/47/17
f 27/48/19 32/49/18 26/50/18
f 27/51/19 34/52/20 33/53/19
f 29/54/21 34/52/20 28/55/20
f 30/56/22 35/57/21 29/58/21
f 25/45/17 36/59/22 30/60/22
s 0
f 28/61/23 27/62/23 26/63/23
f 33/64/24 34/65/24 35/66/24
s 1
f 2/1/1 8/67/1 7/2/2
f 2/4/1 3/68/3 9/5/3
f 3/7/3 4/11/4 10/8/4
f 5/10/5 11/69/5 10/8/4
f 6/12/6 12/70/6 11/13/5
f 1/3/2 7/2/2 12/15/6
s 0
f 2/19/7 1/71/7 6/72/7
f 6/72/7 5/73/7 2/19/7
f 5/73/7 4/17/7 2/19/7
f 11/22/8 12/74/8 9/20/8
f 12/74/8 7/75/8 9/20/8
f 7/75/8 8/76/8 9/20/8
s 1
f 14/23/9 20/77/9 19/24/10
f 15/26/11 21/78/11 20/27/9
f 15/29/11 16/32/12 22/30/12
f 16/32/12 17/79/13 23/33/13
f 17/34/13 18/80/14 24/35/14
f 13/25/10 19/24/10 24/37/14
s 0
f 14/41/15 13/81/15 16/39/15
f 13/81/15 18/82/15 16/39/15
f 18/82/15 17/83/15 16/39/15
f 23/43/16 24/84/16 19/44/16
f 19/44/16 20/85/16 21/86/16
f 21/86/16 22/42/16 19/44/16
s 1
f 25/45/17 26/87/18 32/46/18
f 27/48/19 33/88/19 32/49/18
f 27/51/19 28/55/20 34/52/20
f 29/54/21 35/89/21 34/52/20
f 30/56/22 36/90/22 35/57/21
f 25/45/17 31/47/17 36/59/22
s 0
f 26/63/23 25/91/23 30/92/23
f 30/92/23 29/93/23 26/63/23
f 29/93/23 28/61/23 26/63/23
f 35/66/24 36/94/24 33/64/24
f 36/94/24 31/95/24 33/64/24
f 31/95/24 32/96/24 33/64/24
o coral_tube_c_tip
usemtl coral_tube_c_tip
v 0.107881 0.259409 -0.025008
v 0.083933 0.262252 -0.010979
v 0.083933 0.261520 0.016911
v 0.107881 0.257945 0.030772
v 0.131829 0.255102 0.016743
v 0.131829 0.255834 -0.011147
v 0.111468 0.286042 -0.019808
v 0.091383 0.288427 -0.008041
v 0.091383 0.287813 0.015350
v 0.111468 0.284815 0.026976
v 0.131553 0.282430 0.015209
v 0.131553 0.283044 -0.008183
v 0.024343 0.387312 0.057804
v 0.000291 0.389089 0.071832
v 0.000291 0.388021 0.099712
v 0.024343 0.385178 0.113563
v 0.048394 0.383401 0.099535
v 0.048394 0.384468 0.071655
v 0.026926 0.413997 0.063329
v 0.006754 0.415487 0.075094
v 0.006754 0.414591 0.098477
v 0.026926 0.412206 0.110094
v 0.047098 0.410716 0.098329
v 0.047098 0.411611 0.074946
v -0.078302 0.305440 -0.071945
v -0.102426 0.303014 -0.058142
v -0.102426 0.300846 -0.030326
v -0.078302 0.301105 -0.016314
v -0.054177 0.303531 -0.030117
v -0.054177 0.305699 -0.057933
v -0.079807 0.331967 -0.065365
v -0.100040 0.329932 -0.053788
v -0.100040 0.328114 -0.030458
v -0.079807 0.328331 -0.018706
v -0.059573 0.330366 -0.030283
v -0.059573 0.332184 -0.053612
vn 0.0218 0.1888 -0.9818
vn -0.8248 0.2893 -0.4858
vn 0.0219 0.1888 -0.9818
vn -0.8248 0.2634 0.5003
vn 0.0218 0.1370 0.9903
vn 0.8685 0.0365 0.4943
vn 0.0219 0.1370 0.9903
vn 0.8685 0.0624 -0.4917
vn -0.1329 -0.9908 -0.0260
vn 0.1329 0.9908 0.0260
vn 0.0157 0.2013 -0.9794
vn -0.8346 0.2641 -0.4834
vn 0.0158 0.2013 -0.9794
vn -0.8346 0.2263 0.5022
vn 0.0157 0.1258 0.9919
vn 0.8661 0.0630 0.4960
vn 0.8661 0.1007 -0.4897
vn 0.8660 0.1007 -0.4897
vn -0.0957 -0.9947 -0.0381
vn 0.0957 0.9947 0.0381
vn -0.8621 0.1545 -0.4827
vn -0.0092 0.2403 -0.9707
vn -0.8621 0.0779 0.5008
vn -0.8621 0.1545 -0.4826
vn -0.0092 0.0870 0.9962
vn 0.8438 0.1728 0.5082
vn 0.8438 0.2494 -0.4753
vn 0.8437 0.2494 -0.4753
vn 0.0557 -0.9954 -0.0776
vn -0.0557 0.9954 0.0776
vt -0.250657 0.635015
vt -0.209413 0.707560
vt -0.259626 0.701599
vt -0.086126 0.642123
vt -0.020302 0.706026
vt -0.078782 0.707560
vt 0.250657 0.631356
vt 0.209413 0.706026
vt 0.190788 0.640294
vt 0.310527 0.624248
vt 0.259626 0.698530
vt 0.086547 0.626078
vt 0.020655 0.692568
vt 0.016821 0.624248
vt -0.310527 0.626078
vt -0.309839 0.694103
vt 0.250657 -0.018253
vt 0.190788 0.016400
vt 0.190788 0.086126
vt 0.209413 -0.020302
vt 0.259626 0.008761
vt 0.309839 -0.020655
vt -0.041813 0.954774
vt 0.002159 1.025210
vt -0.048271 1.021485
vt 0.190601 0.956547
vt 0.129057 1.025210
vt 0.120902 0.959215
vt -0.018316 0.956547
vt 0.048271 1.017009
vt -0.002159 1.022972
vt 0.101941 0.944996
vt 0.041813 0.949437
vt -0.190158 0.944996
vt -0.128687 1.015522
vt -0.187144 1.013284
vt -0.101941 0.947664
vt -0.098701 1.015522
vt 0.041813 -0.225229
vt -0.018316 -0.190601
vt -0.018316 -0.120902
vt 0.048271 0.099643
vt -0.002159 0.187515
vt 0.098701 0.187144
vt 0.275110 0.744027
vt 0.218561 0.816411
vt 0.214799 0.750093
vt -0.134494 0.738609
vt -0.193147 0.811323
vt -0.204033 0.744027
vt -0.275110 0.738609
vt -0.218561 0.807322
vt -0.269144 0.806779
vt -0.214799 0.739256
vt -0.167977 0.812409
vt 0.203510 0.750740
vt 0.134385 0.812409
vt 0.133971 0.745322
vt 0.167977 0.816953
vt 0.154487 0.750740
vt -0.154487 0.203510
vt -0.214799 0.099463
vt -0.275110 0.204033
vt -0.218561 -0.222089
vt -0.269144 -0.134824
vt -0.167977 -0.134385
vt -0.190788 0.642123
vt -0.016400 0.640294
vt 0.309839 0.692568
vt 0.079135 0.694103
vt 0.250657 0.121199
vt 0.310527 0.086547
vt 0.310527 0.016821
vt 0.309839 -0.079135
vt 0.259626 -0.108198
vt 0.209413 -0.078782
vt 0.018316 0.959215
vt 0.187515 1.022972
vt 0.098701 1.013284
vt -0.120460 0.947664
vt 0.041813 -0.085831
vt 0.101941 -0.120460
vt 0.101941 -0.190158
vt 0.098701 0.128687
vt -0.002159 0.129057
vt 0.048271 0.216558
vt 0.269144 0.811323
vt -0.134824 0.806779
vt -0.154487 0.745322
vt 0.192709 0.816953
vt -0.214799 0.238541
vt -0.154487 0.133971
vt -0.275110 0.134494
vt -0.167977 -0.192709
vt -0.269144 -0.193147
vt -0.218561 -0.105443
s 1
f 37/97/25 44/98/26 43/99/27
f 38/100/26 45/101/28 44/102/26
f 40/103/29 45/104/28 39/105/28
f 41/106/30 46/107/31 40/103/29
f 42/108/32 47/109/30 41/110/30
f 42/111/32 43/99/27 48/112/32
s 0
f 40/113/33 39/114/33 38/115/33
f 45/116/34 46/117/34 47/118/34
s 1
f 49/119/35 56/120/36 55/121/37
f 51/122/38 56/123/36 50/124/36
f 51/125/38 58/126/39 57/127/38
f 53/128/40 58/126/39 52/129/39
f 53/130/40 60/131/41 59/132/40
f 54/133/42 55/121/37 60/134/41
s 0
f 52/135/43 51/136/43 50/137/43
f 55/138/44 57/139/44 59/140/44
s 1
f 62/141/45 67/142/46 61/143/46
f 63/144/47 68/145/48 62/146/45
f 63/147/47 70/148/49 69/149/47
f 64/150/49 71/151/50 70/148/49
f 66/152/51 71/153/50 65/154/50
f 61/143/46 72/155/52 66/156/51
s 0
f 66/157/53 64/158/53 62/159/53
f 67/160/54 69/161/54 71/162/54
s 1
f 37/97/25 38/163/26 44/98/26
f 38/100/26 39/164/28 45/101/28
f 40/103/29 46/107/31 45/104/28
f 41/106/30 47/165/30 46/107/31
f 42/108/32 48/166/32 47/109/30
f 42/111/32 37/97/25 43/99/27
s 0
f 38/115/33 37/167/33 40/113/33
f 37/167/33 42/168/33 40/113/33
f 42/168/33 41/169/33 40/113/33
f 47/118/34 48/170/34 45/116/34
f 48/170/34 43/171/34 45/116/34
f 43/171/34 44/172/34 45/116/34
s 1
f 49/119/35 50/173/36 56/120/36
f 51/122/38 57/174/38 56/123/36
f 51/125/38 52/129/39 58/126/39
f 53/128/40 59/175/40 58/126/39
f 53/130/40 54/176/42 60/131/41
f 54/133/42 49/119/35 55/121/37
s 0
f 50/137/43 49/177/43 54/178/43
f 54/178/43 53/179/43 50/137/43
f 53/179/43 52/135/43 50/137/43
f 59/140/44 60/180/44 55/138/44
f 55/138/44 56/181/44 57/139/44
f 57/139/44 58/182/44 59/140/44
s 1
f 62/141/45 68/183/48 67/142/46
f 63/144/47 69/184/47 68/145/48
f 63/147/47 64/150/49 70/148/49
f 64/150/49 65/185/50 71/151/50
f 66/152/51 72/186/52 71/153/50
f 61/143/46 67/142/46 72/155/52
s 0
f 62/159/53 61/187/53 66/157/53
f 66/157/53 65/188/53 64/158/53
f 64/158/53 63/189/53 62/159/53
f 71/162/54 72/190/54 67/160/54
f 67/160/54 68/191/54 69/161/54
f 69/161/54 70/192/54 71/162/54
