# Blender 5.0.1
# www.blender.org
mtllib coral_fan_c.mtl
o coral_fan_c_body
usemtl coral_fan_c_body
v -0.000000 0.020000 0.000013
v 0.298193 0.274290 -0.000070
v 0.226543 0.410912 -0.009763
v 0.156089 0.514693 -0.000624
v 0.082602 0.598311 0.014589
v -0.000000 0.729830 -0.004193
v -0.079458 0.576297 -0.009422
v -0.193149 0.632145 -0.009290
v -0.225607 0.409296 0.011004
v -0.320533 0.293340 -0.011439
v -0.000000 0.020000 0.000013
v 0.298193 0.274290 -0.000070
v 0.226543 0.410912 -0.009763
v 0.156089 0.514693 -0.000624
v 0.082602 0.598311 0.014589
v -0.000000 0.729830 -0.004193
v -0.079458 0.576297 -0.009422
v -0.193149 0.632145 -0.009290
v -0.225607 0.409296 0.011004
v -0.320533 0.293340 -0.011439
vn -0.0078 -0.0060 1.0000
vn -0.0415 0.0490 0.9979
vn 0.0459 -0.0016 0.9989
vn 0.1329 -0.0407 0.9903
vn -0.1186 -0.0081 0.9929
vn -0.1513 0.0059 0.9885
vn -0.0367 0.0117 0.9993
vn 0.0651 0.0357 0.9972
vn 0.0708 0.0129 0.9974
vn -0.1169 -0.0956 0.9885
vn 0.0078 0.0060 -1.0000
vn 0.0415 -0.0490 -0.9979
vn -0.0459 0.0016 -0.9989
vn -0.1329 0.0407 -0.9903
vn 0.1186 0.0081 -0.9929
vn 0.1513 -0.0059 -0.9885
vn 0.0367 -0.0117 -0.9993
vn -0.0651 -0.0357 -0.9972
vn -0.0708 -0.0129 -0.9974
vn 0.1169 0.0956 -0.9885
vt 0.000000 0.040000
vt 0.596387 0.548580
vt 0.453086 0.821825
vt 0.312179 1.029386
vt 0.165204 1.196622
vt 0.000000 1.459660
vt -0.158915 1.152593
vt -0.386298 1.264290
vt -0.451212 0.818592
vt -0.641066 0.586681
s 1
f 1/1/1 2/2/2 3/3/3
f 1/1/1 3/3/3 4/4/4
f 1/1/1 4/4/4 5/5/5
f 1/1/1 5/5/5 6/6/6
f 1/1/1 6/6/6 7/7/7
f 1/1/1 7/7/7 8/8/8
f 1/1/1 8/8/8 9/9/9
f 1/1/1 9/9/9 10/10/10
f 11/1/11 13/3/13 12/2/12
f 11/1/11 14/4/14 13/3/13
f 11/1/11 15/5/15 14/4/14
f 11/1/11 16/6/16 15/5/15
f 11/1/11 17/7/17 16/6/16
f 11/1/11 18/8/18 17/7/17
f 11/1/11 19/9/19 18/8/18
f 11/1/11 20/10/20 19/9/19
o coral_fan_c_tip
usemtl coral_fan_c_tip
v 0.000004 0.020000 0.014013
v 0.009084 0.009347 0.000011
v -0.000004 0.020000 -0.013987
v -0.009085 0.030653 0.000016
v 0.298195 0.274290 0.005530
v 0.301827 0.270029 -0.000071
v 0.298192 0.274290 -0.005670
v 0.294559 0.278551 -0.000069
v -0.000000 0.019982 -0.013987
v -0.013352 0.024213 0.000008
v -0.000000 0.020018 0.014013
v 0.013351 0.015787 0.000019
v 0.156089 0.514686 -0.006224
v 0.150749 0.516378 -0.000627
v 0.156089 0.514700 0.004976
v 0.161430 0.513008 -0.000622
v -0.000000 0.019917 -0.013987
v -0.014000 0.020000 0.000013
v -0.000000 0.020083 0.014013
v 0.014000 0.020000 0.000013
v -0.000000 0.729797 -0.009793
v -0.005600 0.729830 -0.004193
v -0.000000 0.729863 0.001407
v 0.005600 0.729830 -0.004193
v -0.000000 0.019787 -0.013985
v -0.013352 0.015788 0.000077
v -0.000000 0.020213 0.014011
v 0.013351 0.024212 -0.000051
v -0.193149 0.632060 -0.014890
v -0.198490 0.630460 -0.009265
v -0.193149 0.632230 -0.003691
v -0.187809 0.633829 -0.009316
v 0.000500 0.020000 -0.013978
v -0.009075 0.009345 -0.000311
v -0.000500 0.020000 0.014004
v 0.009075 0.030655 0.000337
v -0.320334 0.293340 -0.017036
v -0.324163 0.289078 -0.011569
v -0.320733 0.293340 -0.005843
v -0.316903 0.297603 -0.011310
v -0.000000 0.000000 -0.024487
v -0.023301 0.000000 -0.007558
v -0.014401 0.000000 0.019834
v 0.014400 0.000000 0.019834
v 0.023301 0.000000 -0.007558
v -0.000000 0.100000 -0.020987
v -0.019973 0.100000 -0.006476
v -0.012344 0.100000 0.017002
v 0.012343 0.100000 0.017002
v 0.019972 0.100000 -0.006476
vn 0.6650 -0.7468 -0.0002
vn 0.0166 0.0139 0.9998
vn 0.0160 0.0139 -0.9998
vn -0.6324 0.7746 0.0002
vn -0.7609 -0.6489 0.0002
vn 0.7609 0.6489 -0.0002
vn -0.9487 0.3163 -0.0004
vn 0.0049 0.0142 -0.9999
vn 0.0049 0.0167 0.9998
vn 0.9584 -0.2854 0.0004
vn -0.3009 -0.9537 0.0012
vn 0.3009 0.9537 -0.0012
vn -0.0000 0.0059 -1.0000
vn -0.9999 0.0118 -0.0001
vn -0.0000 0.0178 0.9998
vn 0.9999 0.0118 -0.0001
vn -0.0000 -1.0000 0.0059
vn -0.0000 1.0000 -0.0059
vn -0.9575 -0.2883 0.0044
vn -0.0039 -0.0027 -1.0000
vn -0.0039 0.0277 0.9996
vn 0.9496 0.3133 -0.0048
vn 0.3009 -0.9536 0.0145
vn -0.3009 0.9536 -0.0145
vn -0.6632 -0.7480 -0.0237
vn 0.0205 0.0129 -0.9997
vn -0.0509 0.0129 0.9986
vn 0.6329 0.7739 0.0226
vn -0.0508 0.0129 0.9986
vn 0.7606 -0.6486 0.0272
vn -0.7606 0.6486 -0.0272
vn -0.0000 0.0350 -0.9994
vn -0.9505 0.0350 -0.3088
vn -0.5874 0.0350 0.8085
vn 0.5874 0.0350 0.8085
vn 0.9505 0.0350 -0.3088
vn -0.0000 -1.0000 -0.0000
vn -0.0000 1.0000 -0.0000
vt 0.018168 0.018695
vt 0.596390 0.548580
vt 0.000008 0.040000
vt -0.603654 0.540058
vt -0.018168 0.018695
vt 0.018168 0.061305
vt -0.596384 0.548580
vt -0.018168 0.061305
vt 0.589120 0.557102
vt 0.000005 0.061305
vt -0.000005 0.018695
vt 0.028000 0.040000
vt -0.011034 0.548580
vt 0.011366 0.548580
vt 0.000164 0.557102
vt 0.026702 0.048425
vt -0.312179 1.029372
vt -0.000000 0.039964
vt -0.026702 0.048425
vt 0.312179 1.029401
vt 0.301498 1.032757
vt 0.026702 0.031575
vt -0.000000 0.040036
vt -0.026702 0.031575
vt -0.322860 1.026016
vt 0.026702 -0.000011
vt -0.026702 0.000011
vt 0.000000 0.028000
vt 0.322860 -0.001271
vt 0.301498 -0.001279
vt 0.312179 0.009925
vt -0.000000 0.039834
vt 0.011200 1.459660
vt -0.000000 1.459594
vt 0.028000 0.040166
vt -0.008413 1.459660
vt -0.000000 0.040000
vt -0.028000 0.040166
vt 0.008413 1.459660
vt -0.002787 1.459726
vt -0.028000 0.040000
vt -0.011200 1.459660
vt 0.000000 0.028000
vt -0.000000 -0.028000
vt -0.028000 0.000000
vt 0.000000 -0.019613
vt 0.000000 0.002787
vt 0.011200 -0.008413
vt 0.026703 0.031577
vt 0.386298 1.264119
vt -0.000000 0.039575
vt -0.000000 0.040425
vt -0.396979 1.260920
vt -0.026703 0.031577
vt -0.375617 1.267659
vt -0.386298 1.264460
vt 0.375617 1.267659
vt -0.026703 0.048423
vt 0.000000 0.027997
vt -0.000000 -0.027997
vt -0.026703 -0.000128
vt -0.375617 -0.018658
vt -0.396979 -0.018556
vt -0.386298 -0.007408
vt 0.018150 0.018689
vt 0.640666 0.586681
vt -0.001000 0.040000
vt -0.648326 0.578156
vt -0.018150 0.018689
vt 0.018150 0.061311
vt -0.641466 0.586681
vt 0.633806 0.595205
vt -0.018150 0.061311
vt 0.027982 0.040000
vt -0.027982 0.040000
vt 0.000648 0.018689
vt -0.022646 0.595205
vt -0.023164 0.578156
vt -0.011712 0.586681
vt -0.000000 0.000000
vt 0.039944 0.200000
vt -0.000000 0.200000
vt 0.039642 0.000000
vt -0.012979 0.200000
vt -0.015142 0.000000
vt 0.028801 0.000000
vt -0.024687 0.200000
vt -0.028801 0.000000
vt 0.015142 0.000000
vt -0.033979 0.200000
vt -0.039642 0.000000
vt -0.039944 0.200000
vt -0.046602 0.000000
vt 0.028801 -0.039642
vt -0.028801 -0.039642
vt -0.046602 0.015142
vt -0.039944 -0.012979
vt -0.024687 0.033979
vt 0.024687 0.033979
vt 0.603654 0.540058
vt -0.589120 0.557102
vt 0.000168 0.540058
vt -0.301498 1.032757
vt 0.322860 1.026016
vt -0.000000 -0.028000
vt 0.312179 -0.012475
vt 0.002787 1.459726
vt -0.000000 0.040000
vt 0.028000 -0.000000
vt -0.011200 -0.008413
vt 0.396979 1.260920
vt 0.026703 0.048423
vt 0.026703 0.000128
vt -0.386298 -0.029806
vt 0.648326 0.578156
vt -0.633806 0.595205
vt -0.000648 0.061311
vt -0.034098 0.586681
vt 0.046602 0.000000
vt 0.033979 0.200000
vt 0.024687 0.200000
vt 0.012979 0.200000
vt 0.000000 0.049000
vt 0.046602 0.015142
vt 0.039944 -0.012979
vt 0.000000 -0.042000
s 1
f 22/11/21 25/12/22 21/13/22
f 23/13/23 26/14/21 22/15/21
f 24/16/24 27/17/23 23/13/23
f 24/18/24 25/12/22 28/19/24
s 0
f 24/20/25 22/21/25 21/22/25
f 25/23/26 27/24/26 28/25/26
s 1
f 30/26/27 33/27/28 29/28/28
f 30/29/27 35/30/29 34/31/27
f 32/32/30 35/30/29 31/33/29
f 32/34/30 33/27/28 36/35/30
s 0
f 32/36/31 30/37/31 29/38/31
f 36/39/32 34/40/32 35/41/32
s 1
f 37/42/33 42/43/34 41/44/33
f 39/45/35 42/46/34 38/47/34
f 39/48/35 44/49/36 43/50/35
f 40/51/36 41/44/33 44/52/36
s 0
f 37/53/37 39/54/37 38/55/37
f 41/56/38 43/57/38 44/58/38
s 1
f 46/59/39 49/60/40 45/61/40
f 47/62/41 50/63/39 46/64/39
f 47/62/41 52/65/42 51/66/41
f 45/61/40 52/67/42 48/68/42
s 0
f 45/69/43 47/70/43 46/71/43
f 52/72/44 50/73/44 51/74/44
s 1
f 54/75/45 57/76/46 53/77/46
f 55/77/47 58/78/45 54/79/45
f 56/80/48 59/81/49 55/77/47
f 53/77/46 60/82/48 56/83/48
s 0
f 53/84/50 55/85/50 54/86/50
f 60/87/51 58/88/51 59/89/51
s 1
f 61/90/52 67/91/53 66/92/52
f 63/93/54 67/94/53 62/95/53
f 64/96/55 68/97/54 63/98/54
f 65/99/56 69/100/55 64/101/55
f 61/90/52 70/102/56 65/103/56
s 0
f 64/104/57 63/105/57 62/106/57
f 67/107/58 68/108/58 69/109/58
s 1
f 22/11/21 26/110/21 25/12/22
f 23/13/23 27/17/23 26/14/21
f 24/16/24 28/111/24 27/17/23
f 24/18/24 21/13/22 25/12/22
s 0
f 24/20/25 23/51/25 22/21/25
f 25/23/26 26/112/26 27/24/26
s 1
f 30/26/27 34/113/27 33/27/28
f 30/29/27 31/33/29 35/30/29
f 32/32/30 36/114/30 35/30/29
f 32/34/30 29/28/28 33/27/28
s 0
f 32/36/31 31/115/31 30/37/31
f 36/39/32 33/116/32 34/40/32
s 1
f 37/42/33 38/22/34 42/43/34
f 39/45/35 43/117/35 42/46/34
f 39/48/35 40/118/36 44/49/36
f 40/51/36 37/42/33 41/44/33
s 0
f 37/53/37 40/119/37 39/54/37
f 41/56/38 42/120/38 43/57/38
s 1
f 46/59/39 50/121/39 49/60/40
f 47/62/41 51/66/41 50/63/39
f 47/62/41 48/122/42 52/65/42
f 45/61/40 49/60/40 52/67/42
s 0
f 45/69/43 48/123/43 47/70/43
f 52/72/44 49/124/44 50/73/44
s 1
f 54/75/45 58/125/45 57/76/46
f 55/77/47 59/81/49 58/78/45
f 56/80/48 60/126/48 59/81/49
f 53/77/46 57/76/46 60/82/48
s 0
f 53/84/50 56/127/50 55/85/50
f 60/87/51 57/128/51 58/88/51
s 1
f 61/90/52 62/129/53 67/91/53
f 63/93/54 68/130/54 67/94/53
f 64/96/55 69/131/55 68/97/54
f 65/99/56 70/132/56 69/100/55
f 61/90/52 66/92/52 70/102/56
s 0
f 62/106/57 61/133/57 65/134/57
f 65/134/57 64/104/57 62/106/57
f 69/109/58 70/135/58 66/136/58
f 66/136/58 67/107/58 69/109/58
