# Blender 5.0.1
# www.blender.org
mtllib coral_brain_b.mtl
o coral_brain_b_body
usemtl coral_brain_b_body
v 0.172481 0.318790 -0.512679
v 0.563711 0.142560 -0.241796
v 0.035112 0.056662 -0.222276
v -0.334532 0.318790 -0.253508
v 0.040007 0.571577 -0.214355
v 0.510394 0.471004 -0.208844
v 0.310884 0.054691 0.223947
v -0.178792 0.160559 0.217101
v -0.233370 0.501606 0.250833
v 0.311596 0.584248 0.225100
v 0.617060 0.318790 0.222290
v 0.172481 0.318790 0.570737
v 0.081439 0.145065 -0.476716
v 0.393744 0.219122 -0.442529
v 0.315541 0.045814 -0.286120
v 0.594588 0.318790 -0.260879
v 0.414911 0.427993 -0.484864
v -0.132841 0.318790 -0.494023
v -0.171679 0.163762 -0.262918
v 0.094434 0.467719 -0.408672
v -0.146228 0.462354 -0.243475
v 0.323234 0.606446 -0.301506
v 0.675554 0.217448 0.000000
v 0.681835 0.421398 0.000000
v 0.172481 0.000000 0.000000
v 0.478088 0.057999 0.000000
v -0.303740 0.222857 0.000000
v -0.172481 0.024415 0.000000
v -0.160595 0.603023 0.000000
v -0.346371 0.423312 0.000000
v 0.475714 0.577556 0.000000
v 0.172481 0.620000 0.000000
v 0.497236 0.172503 0.248093
v 0.050606 0.086238 0.243749
v -0.246886 0.318790 0.259187
v 0.044607 0.562791 0.255749
v 0.529523 0.479621 0.272759
v 0.260368 0.151084 0.460198
v 0.446794 0.318790 0.443849
v -0.057830 0.215046 0.460628
v -0.029507 0.409776 0.403982
v 0.263541 0.492551 0.476812
vn 0.0190 0.1096 -0.9938
vn 0.6865 -0.5934 -0.4202
vn -0.2009 -0.9280 -0.3138
vn -0.9062 0.0207 -0.4224
vn -0.2508 0.8943 -0.3706
vn 0.6800 0.6500 -0.3393
vn 0.1998 -0.9249 0.3235
vn -0.6276 -0.6517 0.4260
vn -0.6291 0.5596 0.5396
vn 0.1595 0.9533 0.2566
vn 0.8671 -0.0994 0.4881
vn -0.0586 0.0227 0.9980
vn -0.1213 -0.6448 -0.7547
vn 0.4293 -0.4297 -0.7944
vn 0.1868 -0.9054 -0.3812
vn 0.8548 0.1134 -0.5065
vn 0.4456 0.3464 -0.8255
vn -0.5251 0.0980 -0.8454
vn -0.5590 -0.7235 -0.4051
vn -0.2067 0.7107 -0.6724
vn -0.4726 0.7581 -0.4494
vn 0.1901 0.9021 -0.3875
vn 0.9084 -0.4156 0.0461
vn 0.9077 0.4177 -0.0395
vn 0.0113 -0.9989 0.0445
vn 0.4369 -0.8958 0.0818
vn -0.8964 -0.4351 0.0843
vn -0.5091 -0.8602 0.0285
vn -0.4062 0.9094 -0.0893
vn -0.9442 0.3295 0.0040
vn 0.4368 0.8995 -0.0072
vn -0.0053 0.9995 0.0302
vn 0.6019 -0.6626 0.4457
vn -0.1770 -0.9103 0.3741
vn -0.8269 -0.1312 0.5468
vn -0.1557 0.9031 0.4003
vn 0.6364 0.6224 0.4556
vn 0.1933 -0.7234 0.6628
vn 0.6346 -0.0752 0.7692
vn -0.5201 -0.3859 0.7620
vn -0.4450 0.4984 0.7440
vn 0.1264 0.6871 0.7155
vt -0.000000 0.787500
vt -0.553156 0.538330
vt 0.227605 0.353186
vt 0.604491 0.346925
vt 1.106324 0.538330
vt 0.652198 0.787500
vt 0.763305 0.787500
vt 0.195117 1.159822
vt -0.606073 1.060506
vt -0.000000 0.534144
vt -0.343424 0.555690
vt 0.357650 0.715300
vt 0.000000 -0.000000
vt -1.267532 0.633770
vt -0.860400 0.657295
vt -1.190552 -0.000000
vt -0.331186 -0.535887
vt -0.796773 -0.608688
vt -0.832690 0.000000
vt 0.844783 -0.522111
vt 0.376882 -0.753764
vt 0.758082 0.000000
vt 0.978075 0.604491
vt 1.257683 -0.000000
vt 0.764018 -0.000000
vt -0.862406 -0.000000
vt -0.633770 0.787500
vt 0.000000 0.547667
vt 0.000000 1.048803
vt 1.273383 0.000000
vt 0.346007 -0.559869
vt 0.811886 -0.620233
vt 0.219718 -1.150494
vt -0.878182 -0.542753
vt -0.304687 -0.609374
vt -0.575779 -1.151570
vt -1.014628 1.244540
vt -1.048418 0.787500
vt -0.504972 1.014965
vt 0.347787 0.562749
vt -0.319686 0.639372
vt 0.227650 1.192029
vt -0.555726 0.787500
vt -0.681897 1.189578
vt -1.109622 0.787500
vt 0.685782 0.787500
vt 0.227650 1.221901
vt 0.892605 1.189578
vt 0.892605 0.681897
vt -0.504972 1.009954
vt -1.014628 0.627082
vt -0.575779 0.528140
vt 0.647966 0.787500
vt 0.542753 0.391922
vt 1.151570 0.528140
vt 0.219718 0.368235
vt 0.811886 0.421782
vt -0.620233 0.421782
vt -0.000000 1.044019
vt 0.627082 1.244540
vt -1.297132 0.000000
vt -1.267532 -0.633770
vt 0.000000 0.051561
vt -0.657295 0.399929
vt 0.522111 1.168033
vt 0.606073 -1.212159
vt -0.376882 1.506639
vt -0.195117 -1.021680
vt -0.763305 -1.235059
vt -1.235059 0.787500
vt -0.763305 1.235059
vt -0.227605 1.191790
vt 1.212159 1.060506
vt 0.553156 1.106324
s 1
f 1/1/1 14/2/14 13/3/13
f 2/4/2 14/5/14 16/6/16
f 1/1/1 13/3/13 18/7/18
f 1/1/1 18/7/18 20/8/20
f 1/1/1 20/8/20 17/9/17
f 2/4/2 16/6/16 23/10/23
f 3/11/3 15/12/15 25/13/25
f 4/14/4 19/15/19 27/16/27
f 5/17/5 21/18/21 29/19/29
f 6/20/6 22/21/22 31/22/31
f 2/23/2 23/24/23 26/25/26
f 3/11/3 25/13/25 28/26/28
f 4/27/4 27/28/27 30/29/30
f 5/17/5 29/19/29 32/13/32
f 6/20/6 31/22/31 24/30/24
f 7/31/7 33/32/33 38/33/38
f 8/34/8 34/35/34 40/36/40
f 9/37/9 35/38/35 41/39/41
f 10/40/10 36/41/36 42/42/42
f 11/43/11 37/44/37 39/45/39
f 39/46/39 42/47/42 12/1/12
f 39/46/39 37/48/37 42/47/42
f 37/49/37 10/40/10 42/42/42
f 42/47/42 41/39/41 12/1/12
f 42/42/42 36/41/36 41/50/41
f 36/41/36 9/51/9 41/50/41
f 41/39/41 40/52/40 12/1/12
f 41/39/41 35/38/35 40/52/40
f 35/53/35 8/54/8 40/55/40
f 40/52/40 38/56/38 12/1/12
f 40/36/40 34/35/34 38/33/38
f 34/35/34 7/31/7 38/33/38
f 38/56/38 39/46/39 12/1/12
f 38/56/38 33/57/33 39/46/39
f 33/58/33 11/43/11 39/45/39
f 24/59/24 37/44/37 11/43/11
f 24/30/24 31/22/31 37/49/37
f 31/22/31 10/40/10 37/49/37
f 32/13/32 36/41/36 10/40/10
f 32/13/32 29/19/29 36/41/36
f 29/19/29 9/51/9 36/41/36
f 30/29/30 35/53/35 9/60/9
f 30/29/30 27/28/27 35/53/35
f 27/28/27 8/54/8 35/53/35
f 28/26/28 34/35/34 8/34/8
f 28/26/28 25/13/25 34/35/34
f 25/13/25 7/31/7 34/35/34
f 26/25/26 33/32/33 7/31/7
f 26/25/26 23/24/23 33/32/33
f 23/10/23 11/43/11 33/58/33
f 31/22/31 32/13/32 10/40/10
f 31/22/31 22/21/22 32/13/32
f 22/21/22 5/17/5 32/13/32
f 29/19/29 30/61/30 9/51/9
f 29/19/29 21/18/21 30/61/30
f 21/18/21 4/62/4 30/61/30
f 27/28/27 28/63/28 8/54/8
f 27/28/27 19/64/19 28/63/28
f 19/15/19 3/11/3 28/26/28
f 25/13/25 26/25/26 7/31/7
f 25/13/25 15/12/15 26/25/26
f 15/12/15 2/23/2 26/25/26
f 23/10/23 24/59/24 11/43/11
f 23/10/23 16/6/16 24/59/24
f 16/6/16 6/65/6 24/59/24
f 17/66/17 22/21/22 6/20/6
f 17/9/17 20/8/20 22/67/22
f 20/68/20 5/17/5 22/21/22
f 20/68/20 21/18/21 5/17/5
f 20/68/20 18/69/18 21/18/21
f 18/69/18 4/62/4 21/18/21
f 18/70/18 19/64/19 4/27/4
f 18/71/18 13/72/13 19/15/19
f 13/72/13 3/11/3 19/15/19
f 16/6/16 17/73/17 6/65/6
f 16/6/16 14/5/14 17/73/17
f 14/2/14 1/1/1 17/9/17
f 13/72/13 15/12/15 3/11/3
f 13/72/13 14/74/14 15/12/15
f 14/74/14 2/23/2 15/12/15
o coral_brain_b_tip
usemtl coral_brain_b_tip
v 0.220381 0.582074 -0.089157
v 0.198851 0.545324 -0.118941
v 0.177480 0.582074 -0.148838
v 0.199009 0.618824 -0.119054
v 0.393959 0.581500 -0.220397
v 0.375505 0.550000 -0.245926
v 0.357186 0.581500 -0.271552
v 0.375640 0.613000 -0.246023
v -0.054337 0.596652 0.178046
v -0.055679 0.559969 0.141254
v -0.061441 0.596652 0.104891
v -0.060100 0.633335 0.141683
v 0.270268 0.616426 0.141249
v 0.269118 0.584983 0.109713
v 0.264178 0.616426 0.078544
v 0.265328 0.647868 0.110081
v 0.094083 0.561444 0.180987
v 0.077503 0.524700 0.213791
v 0.062056 0.561444 0.247142
v 0.078636 0.598189 0.214339
v -0.215130 0.567284 0.037124
v -0.229341 0.535789 0.065241
v -0.242582 0.567284 0.093828
v -0.228370 0.598780 0.065711
v -0.118885 0.583094 0.135533
v -0.132852 0.546355 0.101528
v -0.145110 0.583094 0.066870
v -0.131143 0.619833 0.100875
v 0.084025 0.577635 0.052414
v 0.072054 0.546145 0.023267
v 0.061547 0.577635 -0.006439
v 0.073519 0.609125 0.022708
vn 0.6031 -0.0001 0.7977
vn 0.0174 -0.9998 -0.0125
vn 0.0175 -0.9998 -0.0125
vn -0.5639 -0.0001 -0.8258
vn 0.0217 0.9996 -0.0156
vn -0.8120 0.0026 0.5837
vn 0.8120 -0.0026 -0.5837
vn 0.1126 0.0010 0.9936
vn 0.0761 -0.9971 -0.0074
vn -0.0807 0.0010 -0.9967
vn -0.0442 0.9990 0.0043
vn -0.9935 -0.0604 0.0965
vn 0.9935 0.0604 -0.0965
vn -0.0293 -0.9995 -0.0142
vn 0.4218 0.0003 -0.9067
vn -0.4495 0.0003 0.8933
vn 0.0016 1.0000 0.0008
vn 0.8999 -0.0171 0.4357
vn -0.8999 0.0171 -0.4357
vn -0.0009 -1.0000 0.0003
vn 0.3790 -0.0006 0.9254
vn -0.3343 -0.0006 -0.9425
vn -0.0009 -1.0000 0.0004
vn 0.0456 0.9988 -0.0174
vn -0.9339 0.0249 0.3567
vn 0.9339 -0.0249 -0.3567
vt 0.119748 0.222893
vt 0.507560 0.614815
vt 0.553693 0.550993
vt 0.065926 0.297352
vt 0.461763 0.678880
vt 0.012497 -0.372094
vt 0.507897 -0.615057
vt 0.461763 -0.678880
vt 0.119748 -0.222893
vt 0.066319 -0.297635
vt -0.222893 1.445710
vt -0.372094 1.445710
vt -0.297352 1.353835
vt 0.550993 1.444275
vt 0.678880 1.444275
vt 0.615057 1.523024
vt -0.567046 -0.445116
vt 0.241591 -0.274282
vt 0.244466 -0.353124
vt 0.584806 1.482154
vt -0.241591 1.452983
vt 0.570400 1.390447
vt -0.581452 0.354208
vt 0.229243 0.196361
vt -0.584806 0.262227
vt -0.581452 1.573861
vt 0.244466 1.531589
vt 0.232118 1.610195
vt 0.445116 1.482154
vt 0.262227 1.482154
vt 0.353135 1.390447
vt -0.353124 1.531589
vt -0.196361 1.531589
vt -0.275202 1.610195
vt -0.237445 -0.534477
vt -0.969028 -0.092809
vt -0.195995 -0.452468
vt -1.037657 -0.234570
vt -1.004556 -0.163102
vt -0.276063 0.617856
vt -1.002129 0.164277
vt -1.037657 0.234570
vt -0.195995 0.452468
vt -0.234613 0.535848
vt -0.535848 1.485996
vt -0.534477 1.302273
vt -0.452468 1.394135
vt 0.164277 1.487473
vt 0.163102 1.329996
vt 0.234570 1.408734
vt -0.763334 -0.253819
vt -0.221140 -0.131036
vt -0.728416 -0.338831
vt -0.793977 -0.167175
vt -0.251069 -0.058168
vt -0.793977 0.167175
vt -0.247406 0.056769
vt -0.277335 -0.016098
vt -0.759060 0.252187
vt -0.221140 0.131036
vt 0.338831 1.448259
vt 0.167175 1.448259
vt 0.253819 1.356412
vt -0.131036 1.434611
vt 0.016098 1.434611
vt -0.056769 1.513337
vt 0.012497 0.372094
vt 0.553693 -0.550993
vt -0.297635 1.537584
vt 0.614815 1.365525
vt -0.570400 -0.353135
vt -0.229243 1.531589
vt 0.232118 0.275202
vt -0.567046 1.482154
vt 0.354208 1.573861
vt -0.274282 1.452983
vt -0.276063 -0.617856
vt -0.969028 0.092809
vt -0.617856 1.394135
vt 0.092809 1.408734
vt -0.277335 0.016098
vt -0.728416 0.338831
vt 0.252187 1.540105
vt -0.058168 1.355886
s 1
f 43/75/43 48/76/44 47/77/43
f 44/78/45 49/79/46 48/76/44
f 45/80/46 50/81/47 49/82/46
f 43/83/43 50/81/47 46/84/47
s 0
f 43/85/48 45/86/48 44/87/48
f 47/88/49 49/89/49 50/90/49
s 1
f 51/91/50 56/92/51 55/93/50
f 53/94/52 56/95/51 52/96/51
f 54/97/53 57/98/52 53/99/52
f 54/100/53 55/101/50 58/102/53
s 0
f 51/103/54 53/104/54 52/105/54
f 55/106/55 57/107/55 58/108/55
s 1
f 60/109/56 63/110/57 59/111/57
f 60/109/56 65/112/58 64/113/56
f 61/114/58 66/115/59 65/116/58
f 59/117/57 66/115/59 62/118/59
s 0
f 62/119/60 60/120/60 59/121/60
f 66/122/61 64/123/61 65/124/61
s 1
f 68/125/62 71/126/63 67/127/63
f 69/128/64 72/129/65 68/125/62
f 69/130/64 74/131/66 73/132/64
f 70/133/66 71/134/63 74/131/66
s 0
f 67/135/67 69/136/67 68/137/67
f 71/138/68 73/139/68 74/140/68
s 1
f 43/75/43 44/78/45 48/76/44
f 44/78/45 45/141/46 49/79/46
f 45/80/46 46/84/47 50/81/47
f 43/83/43 47/142/43 50/81/47
s 0
f 43/85/48 46/143/48 45/86/48
f 47/88/49 48/144/49 49/89/49
s 1
f 51/91/50 52/145/51 56/92/51
f 53/94/52 57/146/52 56/95/51
f 54/97/53 58/147/53 57/98/52
f 54/100/53 51/148/50 55/101/50
s 0
f 51/103/54 54/149/54 53/104/54
f 55/106/55 56/150/55 57/107/55
s 1
f 60/109/56 64/113/56 63/110/57
f 60/109/56 61/151/58 65/112/58
f 61/114/58 62/118/59 66/115/59
f 59/117/57 63/152/57 66/115/59
s 0
f 62/119/60 61/153/60 60/120/60
f 66/122/61 63/154/61 64/123/61
s 1
f 68/125/62 72/129/65 71/126/63
f 69/128/64 73/155/64 72/129/65
f 69/130/64 70/133/66 74/131/66
f 70/133/66 67/156/63 71/134/63
s 0
f 67/135/67 70/157/67 69/136/67
f 71/138/68 72/158/68 73/139/68
