# Blender 5.0.1
# www.blender.org
mtllib coral_tube_a.mtl
o coral_tube_a_body
usemtl coral_tube_a_body
v 0.062663 0.004773 -0.032039
v 0.024215 0.001851 -0.009623
v 0.024215 0.003399 0.034951
v 0.062663 0.007870 0.057109
v 0.101112 0.010792 0.034694
v 0.101112 0.009243 -0.009880
v 0.020344 0.444716 -0.038718
v -0.010689 0.442357 -0.020625
v -0.010689 0.443607 0.015353
v 0.020344 0.447216 0.033239
v 0.051378 0.449574 0.015146
v 0.051378 0.448324 -0.020832
v -0.006906 0.001559 0.111158
v -0.043185 0.000000 0.132542
v -0.043185 0.004762 0.174413
v -0.006906 0.011084 0.194900
v 0.029373 0.012643 0.173516
v 0.029373 0.007880 0.131645
v -0.060086 0.485659 0.062276
v -0.091078 0.484328 0.080544
v -0.091078 0.488396 0.116313
v -0.060086 0.493796 0.133815
v -0.029094 0.495128 0.115548
v -0.029094 0.491059 0.079778
v -0.084957 0.003200 -0.074994
v -0.131927 0.004397 -0.047898
v -0.131927 0.007518 0.006250
v -0.084957 0.009443 0.033303
v -0.037986 0.008246 0.006208
v -0.037986 0.005125 -0.047940
v -0.089317 0.564848 -0.089101
v -0.120493 0.565642 -0.071117
v -0.120493 0.567714 -0.035176
v -0.089317 0.568991 -0.017220
v -0.058141 0.568197 -0.035204
v -0.058141 0.566125 -0.071144
v 0.029199 0.007783 -0.196453
v -0.015510 0.010225 -0.170497
v -0.015510 0.008764 -0.118762
v 0.029199 0.004860 -0.092984
v 0.073908 0.002417 -0.118941
v 0.073908 0.003879 -0.170676
v 0.063687 0.492845 -0.166988
v 0.032588 0.494544 -0.148933
v 0.032588 0.493528 -0.112947
v 0.063687 0.490812 -0.095017
v 0.094785 0.489113 -0.113072
v 0.094785 0.490130 -0.149058
vn -0.8637 -0.0809 -0.4974
vn -0.0019 -0.0154 -0.9999
vn -0.8637 -0.0461 0.5018
vn -0.0019 0.0541 0.9985
vn 0.8600 0.1196 0.4961
vn 0.8600 0.0849 -0.5032
vn 0.8600 0.1196 0.4960
vn 0.0958 -0.9948 0.0346
vn -0.0958 0.9948 -0.0346
vn -0.8622 -0.1376 -0.4875
vn -0.0014 -0.1006 -0.9949
vn -0.8622 -0.0246 0.5060
vn -0.0014 0.1254 0.9921
vn 0.8595 0.1624 0.4847
vn 0.8595 0.0494 -0.5088
vn 0.1087 -0.9877 0.1123
vn -0.1087 0.9877 -0.1123
vn -0.0003 -0.0251 -0.9997
vn -0.8658 -0.0031 -0.5004
vn -0.0002 -0.0251 -0.9997
vn -0.8658 0.0545 0.4974
vn -0.0003 0.0899 0.9959
vn 0.8653 0.0679 0.4967
vn -0.0002 0.0899 0.9959
vn 0.8653 0.0104 -0.5012
vn 0.0078 -0.9983 0.0575
vn -0.0078 0.9983 -0.0575
vn 0.0023 0.0605 -0.9982
vn -0.8611 0.1076 -0.4969
vn -0.8611 0.0794 0.5022
vn 0.0023 0.0040 1.0000
vn 0.8657 -0.0431 0.4987
vn 0.8657 -0.0149 -0.5004
vn -0.0708 -0.9971 -0.0282
vn 0.0708 0.9971 0.0282
vt -0.128292 -0.011177
vt -0.118615 1.095986
vt -0.224413 -0.003872
vt 0.083185 -0.007305
vt -0.055755 1.090089
vt -0.028251 -0.011177
vt 0.224413 0.003872
vt 0.041031 1.093214
vt 0.128292 -0.007305
vt 0.320534 0.011177
vt 0.118615 1.102236
vt 0.028893 0.007305
vt -0.033673 1.108132
vt -0.082543 0.011177
vt -0.196199 1.105007
vt -0.320534 0.007305
vt 0.320534 0.028893
vt 0.224413 -0.138582
vt 0.128292 0.028251
vt 0.041031 0.034191
vt 0.118615 0.078905
vt 0.196199 0.033673
vt 0.040207 -0.015803
vt 0.082460 1.198345
vt -0.050490 -0.011906
vt 0.431839 -0.003897
vt 0.197168 1.195016
vt 0.327162 -0.015803
vt 0.050490 0.011906
vt -0.159941 1.205187
vt -0.040207 -0.003897
vt 0.141188 0.015803
vt -0.082460 1.218687
vt -0.324922 0.003897
vt -0.284677 1.222016
vt -0.429599 0.015803
vt 0.004980 1.211845
vt -0.141188 0.003897
vt 0.141188 -0.324922
vt 0.050490 -0.483058
vt -0.040207 -0.327162
vt -0.082460 0.151499
vt -0.159941 0.286591
vt -0.004980 0.284677
vt 0.144637 -0.007803
vt 0.233478 1.398301
vt 0.155538 1.396316
vt 0.011433 0.002991
vt -0.181983 1.398301
vt -0.123938 -0.004812
vt -0.144637 0.007803
vt -0.233478 1.403481
vt -0.262063 0.002991
vt -0.027212 0.004812
vt -0.155538 1.406675
vt -0.011328 0.004812
vt 0.182053 1.399510
vt 0.092202 1.404689
vt 0.027212 -0.002991
vt 0.077598 1.399510
vt -0.144637 -0.079066
vt -0.262063 -0.011433
vt -0.262063 0.123938
vt -0.155538 -0.226944
vt -0.233478 -0.092132
vt -0.077598 -0.092202
vt -0.140752 0.003654
vt -0.149225 1.220557
vt -0.226971 1.216310
vt -0.301097 0.006106
vt -0.376525 1.220557
vt -0.430433 0.009760
vt 0.028980 0.006106
vt 0.226971 1.211227
vt 0.149225 1.218016
vt 0.252524 -0.009760
vt 0.140752 -0.003654
vt 0.430882 -0.006106
vt 0.286872 1.206979
vt 0.301545 -0.009760
vt -0.304718 1.209521
vt -0.252524 -0.006106
vt 0.140752 0.236653
vt 0.028980 0.301097
vt 0.028980 0.430433
vt 0.226971 -0.241735
vt 0.304718 -0.286872
vt 0.226971 -0.421663
vt -0.041031 1.090089
vt 0.034191 1.093214
vt 0.196199 1.108132
vt 0.056273 1.105007
vt 0.224413 0.084290
vt 0.320534 -0.082543
vt 0.128292 -0.083185
vt 0.196199 -0.056273
vt 0.118615 -0.100987
vt 0.041031 -0.055755
vt 0.159941 1.195016
vt 0.286591 1.205187
vt -0.004980 1.222016
vt -0.195254 1.211845
vt 0.050490 -0.273703
vt 0.141188 -0.429599
vt -0.040207 -0.431839
vt -0.004980 0.195254
vt -0.159941 0.197168
vt -0.082460 0.330346
vt 0.262063 -0.004812
vt -0.092132 1.403481
vt -0.077598 1.404689
vt 0.124043 -0.002991
vt -0.144637 0.191676
vt -0.027212 0.124043
vt -0.027212 -0.011328
vt -0.077598 -0.182053
vt -0.233478 -0.181983
vt -0.155538 -0.047242
vt -0.028980 0.009760
vt -0.286561 1.218016
vt 0.304718 1.206979
vt 0.376837 1.209521
vt 0.140752 0.495326
vt 0.252524 0.430882
vt 0.252524 0.301545
vt 0.304718 -0.376837
vt 0.149225 -0.376525
vt 0.149225 -0.286561
s 1
f 2/1/1 7/2/2 1/3/2
f 3/4/3 8/5/1 2/6/1
f 4/7/4 9/8/3 3/9/3
f 5/10/5 10/11/4 4/7/4
f 6/12/6 11/13/7 5/14/5
f 1/3/2 12/15/6 6/16/6
s 0
f 6/17/8 4/18/8 2/19/8
f 9/20/9 10/21/9 11/22/9
s 1
f 14/23/10 19/24/11 13/25/11
f 15/26/12 20/27/10 14/28/10
f 16/29/13 21/30/12 15/31/12
f 17/32/14 22/33/13 16/29/13
f 18/34/15 23/35/14 17/36/14
f 13/25/11 24/37/15 18/38/15
s 0
f 18/39/16 16/40/16 14/41/16
f 19/42/17 21/43/17 23/44/17
s 1
f 25/45/18 32/46/19 31/47/20
f 27/48/21 32/49/19 26/50/19
f 28/51/22 33/52/21 27/53/21
f 29/54/23 34/55/24 28/51/22
f 29/56/23 36/57/25 35/58/23
f 30/59/25 31/47/20 36/60/25
s 0
f 28/61/26 27/62/26 26/63/26
f 31/64/27 33/65/27 35/66/27
s 1
f 37/67/28 44/68/29 43/69/28
f 39/70/30 44/71/29 38/72/29
f 39/73/30 46/74/31 45/75/30
f 41/76/32 46/74/31 40/77/31
f 42/78/33 47/79/32 41/80/32
f 37/67/28 48/81/33 42/82/33
s 0
f 40/83/34 39/84/34 38/85/34
f 46/86/35 47/87/35 43/88/35
s 1
f 2/1/1 8/89/1 7/2/2
f 3/4/3 9/90/3 8/5/1
f 4/7/4 10/11/4 9/8/3
f 5/10/5 11/91/7 10/11/4
f 6/12/6 12/92/6 11/13/7
f 1/3/2 7/2/2 12/15/6
s 0
f 2/19/8 1/93/8 6/17/8
f 6/17/8 5/94/8 4/18/8
f 4/18/8 3/95/8 2/19/8
f 11/22/9 12/96/9 9/20/9
f 12/96/9 7/97/9 9/20/9
f 7/97/9 8/98/9 9/20/9
s 1
f 14/23/10 20/99/10 19/24/11
f 15/26/12 21/100/12 20/27/10
f 16/29/13 22/33/13 21/30/12
f 17/32/14 23/101/14 22/33/13
f 18/34/15 24/102/15 23/35/14
f 13/25/11 19/24/11 24/37/15
s 0
f 14/41/16 13/103/16 18/39/16
f 18/39/16 17/104/16 16/40/16
f 16/40/16 15/105/16 14/41/16
f 23/44/17 24/106/17 19/42/17
f 19/42/17 20/107/17 21/43/17
f 21/43/17 22/108/17 23/44/17
s 1
f 25/45/18 26/109/19 32/46/19
f 27/48/21 33/110/21 32/49/19
f 28/51/22 34/55/24 33/52/21
f 29/54/23 35/111/23 34/55/24
f 29/56/23 30/112/25 36/57/25
f 30/59/25 25/45/18 31/47/20
s 0
f 26/63/26 25/113/26 28/61/26
f 25/113/26 30/114/26 28/61/26
f 30/114/26 29/115/26 28/61/26
f 35/66/27 36/116/27 31/64/27
f 31/64/27 32/117/27 33/65/27
f 33/65/27 34/118/27 35/66/27
s 1
f 37/67/28 38/119/29 44/68/29
f 39/70/30 45/120/30 44/71/29
f 39/73/30 40/77/31 46/74/31
f 41/76/32 47/121/32 46/74/31
f 42/78/33 48/122/33 47/79/32
f 37/67/28 43/69/28 48/81/33
s 0
f 38/85/34 37/123/34 42/124/34
f 42/124/34 41/125/34 38/85/34
f 41/125/34 40/83/34 38/85/34
f 47/87/35 48/126/35 43/88/35
f 43/88/35 44/127/35 45/128/35
f 45/128/35 46/86/35 43/88/35
o coral_tube_a_tip
usemtl coral_tube_a_tip
v 0.020344 0.444674 -0.039917
v -0.011724 0.442237 -0.021221
v -0.011724 0.443528 0.015956
v 0.020344 0.447257 0.034438
v 0.052412 0.449695 0.015742
v 0.052412 0.448403 -0.021436
v 0.016897 0.480695 -0.035165
v -0.009999 0.478651 -0.019485
v -0.009999 0.479734 0.011697
v 0.016897 0.482862 0.027197
v 0.043793 0.484906 0.011517
v 0.043793 0.483823 -0.019664
v -0.060086 0.485524 0.061084
v -0.092111 0.484148 0.079961
v -0.092111 0.488352 0.116922
v -0.060086 0.493932 0.135008
v -0.028061 0.495308 0.116131
v -0.028061 0.491104 0.079169
v -0.063998 0.521759 0.063001
v -0.090858 0.520605 0.078833
v -0.090858 0.524131 0.109833
v -0.063998 0.528811 0.125002
v -0.037138 0.529966 0.109170
v -0.037138 0.526440 0.078170
v -0.089317 0.564779 -0.090299
v -0.121532 0.565599 -0.071715
v -0.121532 0.567740 -0.034577
v -0.089317 0.569060 -0.016022
v -0.057102 0.568240 -0.034605
v -0.057102 0.566099 -0.071744
v -0.089596 0.601063 -0.086380
v -0.116616 0.601752 -0.070794
v -0.116616 0.603547 -0.039646
v -0.089596 0.604654 -0.024084
v -0.062577 0.603966 -0.039670
v -0.062577 0.602170 -0.070818
v 0.063687 0.492879 -0.168188
v 0.031551 0.494635 -0.149531
v 0.031551 0.493584 -0.112346
v 0.063687 0.490778 -0.093817
v 0.095822 0.489023 -0.112474
v 0.095822 0.490073 -0.149660
v 0.066236 0.528605 -0.161176
v 0.039284 0.530078 -0.145528
v 0.039284 0.529197 -0.114341
v 0.066236 0.526843 -0.098801
v 0.093189 0.525370 -0.114449
v 0.093189 0.526252 -0.145636
vn -0.8661 0.0647 -0.4957
vn -0.0158 0.1293 -0.9915
vn -0.0157 0.1293 -0.9915
vn -0.8661 0.0989 0.4901
vn -0.0157 0.1978 0.9801
vn 0.8346 0.2624 0.4844
vn 0.8346 0.2282 -0.5014
vn 0.0958 -0.9948 0.0346
vn -0.0958 0.9948 -0.0346
vn -0.8670 0.0144 -0.4980
vn -0.0179 0.0509 -0.9985
vn -0.8670 0.1259 0.4821
vn -0.0179 0.2739 0.9616
vn 0.8313 0.3103 0.4611
vn 0.8313 0.1989 -0.5190
vn 0.1087 -0.9877 0.1123
vn -0.1087 0.9877 -0.1123
vn -0.8555 0.1291 -0.5015
vn -0.0013 0.1074 -0.9942
vn -0.8555 0.1859 0.4833
vn -0.0013 0.2209 0.9753
vn 0.8529 0.1991 0.4826
vn 0.8529 0.1991 0.4825
vn 0.8530 0.1424 -0.5022
vn 0.8529 0.1424 -0.5022
vn 0.0078 -0.9983 0.0575
vn -0.0078 0.9983 -0.0575
vn -0.8404 0.2383 -0.4867
vn 0.0116 0.1918 -0.9814
vn 0.0117 0.1918 -0.9814
vn -0.8405 0.2105 0.4993
vn -0.8405 0.2383 -0.4866
vn 0.0116 0.1361 0.9906
vn 0.0117 0.1361 0.9906
vn 0.8637 0.0895 0.4959
vn 0.8637 0.1174 -0.4901
vn -0.0708 -0.9971 -0.0282
vn 0.0708 0.9971 0.0282
vt -0.038445 1.089788
vt -0.109997 1.185935
vt -0.118615 1.095882
vt 0.035699 1.093018
vt -0.052904 1.180824
vt -0.057245 1.089788
vt 0.038445 1.093018
vt 0.109997 1.191352
vt 0.042757 1.183533
vt 0.198785 1.108433
vt 0.118615 1.102340
vt -0.035163 1.108433
vt 0.053353 1.193753
vt -0.024600 1.196462
vt -0.177236 1.193753
vt -0.198785 1.105204
vt 0.118615 -0.081903
vt 0.038445 -0.035699
vt 0.038445 0.057245
vt 0.042757 0.025049
vt 0.109997 0.063801
vt 0.177236 0.024600
vt 0.162524 1.194566
vt 0.092240 1.288595
vt 0.082460 1.198006
vt 0.195709 1.194566
vt 0.270391 1.294525
vt 0.192891 1.285710
vt -0.082460 1.219026
vt -0.159390 1.294525
vt -0.162524 1.205076
vt -0.025090 1.309110
vt -0.092240 1.306225
vt -0.193731 1.211956
vt -0.268732 1.309110
vt -0.286136 1.222466
vt 0.025090 1.300295
vt 0.002397 1.211956
vt -0.082460 -0.333327
vt -0.162524 -0.288114
vt -0.162524 -0.195709
vt -0.092240 0.153311
vt -0.159390 0.270391
vt -0.025090 0.268732
vt 0.236076 1.398195
vt 0.156237 1.486855
vt 0.155538 1.396143
vt -0.183480 1.398195
vt -0.103306 1.493064
vt -0.181177 1.488575
vt -0.155538 1.406847
vt -0.223785 1.493064
vt -0.236076 1.403547
vt -0.088689 1.494111
vt -0.156237 1.495832
vt 0.090706 1.404796
vt 0.181237 1.489623
vt 0.103367 1.494111
vt 0.075000 1.399444
vt 0.088689 1.489623
vt -0.075000 0.183552
vt -0.155538 0.044247
vt -0.236076 0.183480
vt -0.156237 -0.220143
vt -0.223785 -0.103306
vt -0.088689 -0.103367
vt -0.146633 1.220784
vt -0.233346 1.305709
vt -0.226971 1.216395
vt -0.285056 1.218158
vt -0.368013 1.309391
vt -0.378019 1.220784
vt 0.146633 1.218158
vt 0.233346 1.301304
vt 0.165965 1.307188
vt 0.226971 1.211142
vt 0.300726 1.297623
vt 0.285378 1.206753
vt 0.368283 1.299825
vt 0.290314 1.297623
vt -0.300726 1.299825
vt -0.307309 1.209379
vt 0.307309 0.378341
vt 0.226971 0.238736
vt 0.146633 0.378019
vt 0.233346 -0.407132
vt 0.165965 -0.290044
vt 0.300726 -0.290314
vt -0.042757 1.180824
vt 0.025049 1.183533
vt 0.177236 1.196462
vt 0.057781 1.105204
vt 0.118615 0.103985
vt 0.198785 0.057781
vt 0.198785 -0.035163
vt 0.177236 -0.053353
vt 0.109997 -0.092105
vt 0.042757 -0.052904
vt 0.159390 1.285710
vt 0.288114 1.205076
vt -0.002397 1.222466
vt -0.191232 1.300295
vt -0.082460 -0.148518
vt -0.002397 -0.193731
vt -0.002397 -0.286136
vt -0.025090 0.191232
vt -0.159390 0.192891
vt -0.092240 0.308312
vt 0.223785 1.488575
vt -0.090634 1.403547
vt -0.075000 1.404796
vt 0.183552 1.399444
vt -0.155538 0.229939
vt -0.075000 0.090706
vt -0.236076 0.090634
vt -0.088689 -0.181237
vt -0.223785 -0.181177
vt -0.156237 -0.064401
vt -0.165965 1.309391
vt -0.290044 1.307188
vt 0.307309 1.206753
vt 0.378341 1.209379
vt 0.226971 0.424662
vt 0.307309 0.285378
vt 0.146633 0.285056
vt 0.300726 -0.368283
vt 0.165965 -0.368013
vt 0.233346 -0.251194
s 1
f 50/129/36 55/130/37 49/131/38
f 51/132/39 56/133/36 50/134/36
f 51/135/39 58/136/40 57/137/39
f 53/138/41 58/136/40 52/139/40
f 53/140/41 60/141/42 59/142/41
f 49/131/38 60/143/42 54/144/42
s 0
f 52/145/43 51/146/43 50/147/43
f 57/148/44 58/149/44 59/150/44
s 1
f 62/151/45 67/152/46 61/153/46
f 62/154/45 69/155/47 68/156/45
f 64/157/48 69/158/47 63/159/47
f 64/157/48 71/160/49 70/161/48
f 66/162/50 71/163/49 65/164/49
f 61/153/46 72/165/50 66/166/50
s 0
f 64/167/51 63/168/51 62/169/51
f 67/170/52 69/171/52 71/172/52
s 1
f 74/173/53 79/174/54 73/175/54
f 74/176/53 81/177/55 80/178/53
f 76/179/56 81/180/55 75/181/55
f 76/179/56 83/182/57 82/183/56
f 77/184/58 84/185/59 83/186/57
f 78/187/60 79/174/54 84/188/59
s 0
f 78/189/61 76/190/61 74/191/61
f 79/192/62 81/193/62 83/194/62
s 1
f 86/195/63 91/196/64 85/197/65
f 87/198/66 92/199/67 86/200/63
f 87/201/66 94/202/68 93/203/66
f 88/204/69 95/205/70 94/202/68
f 89/206/70 96/207/71 95/208/70
f 85/197/65 96/209/71 90/210/71
s 0
f 90/211/72 88/212/72 86/213/72
f 91/214/73 93/215/73 95/216/73
s 1
f 50/129/36 56/217/36 55/130/37
f 51/132/39 57/218/39 56/133/36
f 51/135/39 52/139/40 58/136/40
f 53/138/41 59/219/41 58/136/40
f 53/140/41 54/220/42 60/141/42
f 49/131/38 55/130/37 60/143/42
s 0
f 50/147/43 49/221/43 52/145/43
f 49/221/43 54/222/43 52/145/43
f 54/222/43 53/223/43 52/145/43
f 59/150/44 60/224/44 57/148/44
f 60/224/44 55/225/44 57/148/44
f 55/225/44 56/226/44 57/148/44
s 1
f 62/151/45 68/227/45 67/152/46
f 62/154/45 63/228/47 69/155/47
f 64/157/48 70/161/48 69/158/47
f 64/157/48 65/229/49 71/160/49
f 66/162/50 72/230/50 71/163/49
f 61/153/46 67/152/46 72/165/50
s 0
f 62/169/51 61/231/51 64/167/51
f 61/231/51 66/232/51 64/167/51
f 66/232/51 65/233/51 64/167/51
f 71/172/52 72/234/52 67/170/52
f 67/170/52 68/235/52 69/171/52
f 69/171/52 70/236/52 71/172/52
s 1
f 74/173/53 80/237/53 79/174/54
f 74/176/53 75/238/55 81/177/55
f 76/179/56 82/183/56 81/180/55
f 76/179/56 77/239/58 83/182/57
f 77/184/58 78/240/60 84/185/59
f 78/187/60 73/175/54 79/174/54
s 0
f 74/191/61 73/241/61 78/189/61
f 78/189/61 77/242/61 76/190/61
f 76/190/61 75/243/61 74/191/61
f 83/194/62 84/244/62 79/192/62
f 79/192/62 80/245/62 81/193/62
f 81/193/62 82/246/62 83/194/62
s 1
f 86/195/63 92/247/67 91/196/64
f 87/198/66 93/248/66 92/199/67
f 87/201/66 88/204/69 94/202/68
f 88/204/69 89/249/70 95/205/70
f 89/206/70 90/250/71 96/207/71
f 85/197/65 91/196/64 96/209/71
s 0
f 86/213/72 85/251/72 90/211/72
f 90/211/72 89/252/72 88/212/72
f 88/212/72 87/253/72 86/213/72
f 95/216/73 96/254/73 91/214/73
f 91/214/73 92/255/73 93/215/73
f 93/215/73 94/256/73 95/216/73
