# Blender 5.0.1
# www.blender.org
o crate_a
v -0.409425 0.000000 -0.369584
v -0.409710 0.000000 -0.284713
v -0.409425 0.649664 -0.369584
v -0.409710 0.649664 -0.284713
v -0.324516 0.000000 -0.369300
v -0.324800 0.000000 -0.284429
v -0.324516 0.649664 -0.369300
v -0.324800 0.649664 -0.284429
v -0.409478 0.000000 0.284481
v -0.409657 0.000000 0.369353
v -0.409478 0.649664 0.284481
v -0.409657 0.649664 0.369353
v -0.324568 0.000000 0.284660
v -0.324747 0.000000 0.369531
v -0.324568 0.649664 0.284660
v -0.324747 0.649664 0.369531
v 0.325392 0.000000 -0.370164
v 0.323935 0.000000 -0.285305
v 0.325392 0.649664 -0.370164
v 0.323935 0.649664 -0.285305
v 0.410290 0.000000 -0.368707
v 0.408833 0.000000 -0.283848
v 0.410290 0.649664 -0.368707
v 0.408833 0.649664 -0.283848
v 0.324742 0.000000 0.284486
v 0.324573 0.000000 0.369358
v 0.324742 0.649664 0.284486
v 0.324573 0.649664 0.369358
v 0.409652 0.000000 0.284655
v 0.409483 0.000000 0.369527
v 0.409652 0.649664 0.284655
v 0.409483 0.649664 0.369527
v -0.389190 0.077497 -0.369442
v -0.389190 0.077497 -0.331024
v -0.391524 0.225889 -0.369442
v -0.391524 0.225889 -0.331024
v 0.370418 0.089100 -0.369442
v 0.370418 0.089100 -0.331024
v 0.368083 0.237491 -0.369442
v 0.368083 0.237491 -0.331024
v -0.390682 0.075243 0.337970
v -0.390682 0.075243 0.369442
v -0.392560 0.230847 0.337970
v -0.392560 0.230847 0.369442
v 0.368962 0.084142 0.337970
v 0.368962 0.084142 0.369442
v 0.367085 0.239746 0.337970
v 0.367085 0.239746 0.369442
v -0.409568 0.093167 -0.352223
v -0.409568 0.075159 0.327006
v -0.409568 0.239830 -0.348222
v -0.409568 0.221822 0.331007
v -0.375994 0.093167 -0.352223
v -0.375994 0.075159 0.327006
v -0.375994 0.239830 -0.348222
v -0.375994 0.221822 0.331007
v 0.372077 0.083134 -0.343565
v 0.372077 0.074740 0.335856
v 0.372077 0.240249 -0.341568
v 0.372077 0.231854 0.337853
v 0.409568 0.083134 -0.343565
v 0.409568 0.074740 0.335856
v 0.409568 0.240249 -0.341568
v 0.409568 0.231854 0.337853
v -0.390715 0.259755 -0.369442
v -0.390715 0.259755 -0.330454
v -0.392475 0.400364 -0.369442
v -0.392475 0.400364 -0.330454
v 0.368926 0.268987 -0.369442
v 0.368926 0.268987 -0.330454
v 0.367166 0.409597 -0.369442
v 0.367166 0.409597 -0.330454
v -0.388610 0.262137 0.337312
v -0.388610 0.262137 0.369442
v -0.388967 0.405376 0.337312
v -0.388967 0.405376 0.369442
v 0.371086 0.263975 0.337312
v 0.371086 0.263975 0.369442
v 0.370729 0.407214 0.337312
v 0.370729 0.407214 0.369442
v -0.409568 0.263648 -0.330936
v -0.409568 0.249641 0.348389
v -0.409568 0.419710 -0.327625
v -0.409568 0.405703 0.351700
v -0.379461 0.263648 -0.330936
v -0.379461 0.249641 0.348389
v -0.379461 0.419710 -0.327625
v -0.379461 0.405703 0.351700
v 0.373318 0.268745 -0.345239
v 0.373318 0.254956 0.334091
v 0.373318 0.414395 -0.342197
v 0.373318 0.400606 0.337133
v 0.409568 0.268745 -0.345239
v 0.409568 0.254956 0.334091
v 0.409568 0.414395 -0.342197
v 0.409568 0.400606 0.337133
v -0.379506 0.444666 -0.369442
v -0.379506 0.444666 -0.331307
v -0.375827 0.596870 -0.369442
v -0.375827 0.596870 -0.331307
v 0.379977 0.426843 -0.369442
v 0.379977 0.426843 -0.331307
v 0.383656 0.579047 -0.369442
v 0.383656 0.579047 -0.331307
v -0.379102 0.431399 0.338802
v -0.379102 0.431399 0.369442
v -0.380385 0.586204 0.338802
v -0.380385 0.586204 0.369442
v 0.380571 0.437510 0.338802
v 0.380571 0.437510 0.369442
v 0.379288 0.592314 0.338802
v 0.379288 0.592314 0.369442
v -0.409568 0.436602 -0.343381
v -0.409568 0.433303 0.336085
v -0.409568 0.590411 -0.342612
v -0.409568 0.587111 0.336853
v -0.369334 0.436602 -0.343381
v -0.369334 0.433303 0.336085
v -0.369334 0.590411 -0.342612
v -0.369334 0.587111 0.336853
v 0.374769 0.438119 -0.342629
v 0.374769 0.433286 0.336828
v 0.374769 0.590427 -0.341514
v 0.374769 0.585594 0.337942
v 0.409568 0.438119 -0.342629
v 0.409568 0.433286 0.336828
v 0.409568 0.590427 -0.341514
v 0.409568 0.585594 0.337942
v -0.399472 0.603893 -0.365723
v -0.396028 0.603893 0.350987
v -0.399472 0.648188 -0.365723
v -0.396028 0.648188 0.350987
v -0.142813 0.603893 -0.366955
v -0.139368 0.603893 0.349754
v -0.142813 0.648188 -0.366955
v -0.139368 0.648188 0.349754
v -0.131559 0.615705 -0.357589
v -0.137351 0.615705 0.359106
v -0.131559 0.660000 -0.357589
v -0.137351 0.660000 0.359106
v 0.125095 0.615705 -0.355516
v 0.119303 0.615705 0.361178
v 0.125095 0.660000 -0.355516
v 0.119303 0.660000 0.361178
v 0.127296 0.603893 -0.346407
v 0.153404 0.603893 0.369836
v 0.127296 0.648188 -0.346407
v 0.153404 0.648188 0.369836
v 0.383789 0.603893 -0.355748
v 0.409897 0.603893 0.360495
v 0.383789 0.648188 -0.355748
v 0.409897 0.648188 0.360495
v -0.401376 0.000492 -0.314525
v -0.401376 0.000492 -0.224661
v -0.401376 0.054631 -0.314525
v -0.401376 0.054631 -0.224661
v 0.401376 0.000492 -0.314525
v 0.401376 0.000492 -0.224661
v 0.401376 0.054631 -0.314525
v 0.401376 0.054631 -0.224661
v -0.401376 0.000492 0.224661
v -0.401376 0.000492 0.314525
v -0.401376 0.054631 0.224661
v -0.401376 0.054631 0.314525
v 0.401376 0.000492 0.224661
v 0.401376 0.000492 0.314525
v 0.401376 0.054631 0.224661
v 0.401376 0.054631 0.314525
vn -1.0000 -0.0000 -0.0033
vn -0.0000 1.0000 -0.0000
vn 1.0000 -0.0000 0.0033
vn -0.0000 -1.0000 -0.0000
vn 0.0033 -0.0000 -1.0000
vn -0.0033 -0.0000 1.0000
vn -1.0000 -0.0000 -0.0021
vn 1.0000 -0.0000 0.0021
vn 0.0021 -0.0000 -1.0000
vn -0.0021 -0.0000 1.0000
vn -0.9999 -0.0000 -0.0172
vn 0.9999 -0.0000 0.0172
vn 0.0172 -0.0000 -0.9999
vn -0.0172 -0.0000 0.9999
vn -1.0000 -0.0000 -0.0020
vn 1.0000 -0.0000 0.0020
vn 0.0020 -0.0000 -1.0000
vn -0.0020 -0.0000 1.0000
vn -0.9999 -0.0157 -0.0000
vn -0.0153 0.9999 -0.0000
vn 0.9999 0.0157 -0.0000
vn 0.0153 -0.9999 -0.0000
vn -0.0000 -0.0000 -1.0000
vn -0.0000 -0.0000 1.0000
vn -0.9999 -0.0121 -0.0000
vn -0.0117 0.9999 -0.0000
vn 0.9999 0.0121 -0.0000
vn 0.0117 -0.9999 -0.0000
vn -1.0000 -0.0000 -0.0000
vn -0.0000 0.9996 0.0265
vn 1.0000 -0.0000 -0.0000
vn -0.0000 -0.9996 -0.0265
vn -0.0000 0.0273 -0.9996
vn -0.0000 -0.0273 0.9996
vn -0.0000 0.9999 0.0124
vn -0.0000 -0.9999 -0.0124
vn -0.0000 0.0127 -0.9999
vn -0.0000 -0.0127 0.9999
vn -0.9999 -0.0125 -0.0000
vn -0.0122 0.9999 -0.0000
vn 0.9999 0.0125 -0.0000
vn 0.0122 -0.9999 -0.0000
vn -1.0000 -0.0025 -0.0000
vn -0.0024 1.0000 -0.0000
vn 1.0000 0.0025 -0.0000
vn 0.0024 -1.0000 -0.0000
vn -0.0000 0.9998 0.0206
vn -0.0000 -0.9998 -0.0206
vn -0.0000 0.0212 -0.9998
vn -0.0000 -0.0212 0.9998
vn -0.0000 0.9998 0.0203
vn -0.0000 -0.9998 -0.0203
vn -0.0000 0.0209 -0.9998
vn -0.0000 -0.0209 0.9998
vn -0.9997 0.0242 -0.0000
vn 0.0235 0.9997 -0.0000
vn 0.9997 -0.0242 -0.0000
vn -0.0235 -0.9997 -0.0000
vn -1.0000 -0.0083 -0.0000
vn -0.0080 1.0000 -0.0000
vn 1.0000 0.0083 -0.0000
vn 0.0080 -1.0000 -0.0000
vn -0.0000 1.0000 0.0049
vn -0.0000 -1.0000 -0.0049
vn -0.0000 0.0050 -1.0000
vn -0.0000 -0.0050 1.0000
vn -0.0000 1.0000 0.0071
vn -0.0000 -1.0000 -0.0071
vn -0.0000 0.0073 -1.0000
vn -0.0000 -0.0073 1.0000
vn -1.0000 -0.0000 0.0048
vn 1.0000 -0.0000 -0.0048
vn -0.0048 -0.0000 -1.0000
vn 0.0048 -0.0000 1.0000
vn -1.0000 -0.0000 -0.0081
vn 1.0000 -0.0000 0.0081
vn 0.0081 -0.0000 -1.0000
vn -0.0081 -0.0000 1.0000
vn -0.9993 -0.0000 0.0364
vn 0.9993 -0.0000 -0.0364
vn -0.0364 -0.0000 -0.9993
vn 0.0364 -0.0000 0.9993
vt -0.517659 0.000000
vt -0.671971 1.181208
vt -0.671971 0.000000
vt -0.744927 -0.517659
vt -0.590028 -0.671454
vt -0.744410 -0.671971
vt 0.517143 1.181208
vt 0.671454 0.000000
vt 0.671454 1.181208
vt -0.590545 0.517143
vt -0.744410 0.671971
vt -0.590028 0.671454
vt 0.590028 1.181208
vt 0.744410 0.000000
vt 0.744410 1.181208
vt -0.744927 1.181208
vt -0.590545 0.000000
vt -0.590545 1.181208
vt 0.671551 0.000000
vt 0.517239 1.181208
vt 0.517239 0.000000
vt -0.744831 0.671551
vt -0.590124 0.517563
vt -0.744506 0.517239
vt -0.671875 1.181208
vt -0.517563 0.000000
vt -0.517563 1.181208
vt -0.590449 -0.671875
vt -0.744506 -0.517239
vt -0.590124 -0.517563
vt 0.590124 1.181208
vt 0.744506 0.000000
vt 0.744506 1.181208
vt -0.744831 1.181208
vt -0.590449 0.000000
vt -0.590449 1.181208
vt -0.518736 0.000000
vt -0.673026 1.181208
vt -0.673026 0.000000
vt 0.588973 -0.518736
vt 0.745982 -0.670377
vt 0.591623 -0.673026
vt 0.516088 1.181208
vt 0.670377 0.000000
vt 0.670377 1.181208
vt 0.743332 0.516088
vt 0.591623 0.673026
vt 0.745982 0.670377
vt -0.745982 1.181208
vt -0.591623 0.000000
vt -0.591623 1.181208
vt 0.588973 1.181208
vt 0.743332 0.000000
vt 0.743332 1.181208
vt 0.671559 0.000000
vt 0.517247 1.181208
vt 0.517247 0.000000
vt 0.590133 0.671559
vt 0.744822 0.517554
vt 0.590440 0.517247
vt -0.671866 1.181208
vt -0.517554 0.000000
vt -0.517554 1.181208
vt 0.744515 -0.671866
vt 0.590440 -0.517247
vt 0.744822 -0.517554
vt -0.744822 1.181208
vt -0.590440 0.000000
vt -0.590440 1.181208
vt 0.590133 1.181208
vt 0.744515 0.000000
vt 0.744515 1.181208
vt -0.601861 0.140904
vt -0.671713 0.410707
vt -0.671713 0.140904
vt -0.711862 -0.601861
vt 0.669242 -0.671713
vt -0.711862 -0.671713
vt 0.601861 0.431803
vt 0.671713 0.162000
vt 0.671713 0.431803
vt 0.673486 0.601861
vt -0.707618 0.671713
vt 0.673486 0.671713
vt -0.669242 0.431803
vt 0.707618 0.140904
vt 0.711862 0.410707
vt -0.711862 0.410707
vt 0.673486 0.162000
vt 0.669242 0.431803
vt 0.671713 0.136805
vt 0.614490 0.419722
vt 0.614490 0.136805
vt -0.713745 0.671713
vt 0.667427 0.614490
vt -0.713745 0.614490
vt -0.671713 0.435902
vt -0.614490 0.152985
vt -0.614490 0.435902
vt 0.670841 -0.671713
vt -0.710331 -0.614490
vt 0.670841 -0.614490
vt -0.667427 0.435902
vt 0.710331 0.136805
vt 0.713745 0.419722
vt -0.713745 0.419722
vt 0.670841 0.152985
vt 0.667427 0.435902
vt 0.594556 0.136653
vt -0.633130 0.436054
vt -0.640405 0.169395
vt -0.744669 0.601830
vt -0.683625 -0.633130
vt -0.744669 -0.633130
vt -0.601830 0.403312
vt 0.640405 0.169395
vt 0.633130 0.436054
vt -0.683625 -0.594556
vt -0.744669 0.640405
vt -0.683625 0.640405
vt 0.683625 0.436054
vt 0.744669 0.169395
vt 0.744669 0.436054
vt -0.744669 0.403312
vt -0.683625 0.136653
vt -0.683625 0.403312
vt 0.610647 0.135890
vt -0.621032 0.436817
vt -0.624664 0.151153
vt 0.676504 0.614278
vt 0.744669 -0.621032
vt 0.676504 -0.621032
vt -0.614278 0.421553
vt 0.624664 0.151153
vt 0.621032 0.436817
vt 0.744669 -0.610647
vt 0.676504 0.624664
vt 0.744669 0.624664
vt -0.744669 0.436817
vt -0.676504 0.151153
vt -0.676504 0.436817
vt 0.676504 0.421553
vt 0.744669 0.135890
vt 0.744669 0.421553
vt -0.600826 0.472281
vt -0.671713 0.727935
vt -0.671713 0.472281
vt -0.713590 -0.600826
vt 0.667574 -0.671713
vt -0.713590 -0.671713
vt 0.600826 0.744721
vt 0.671713 0.489067
vt 0.671713 0.744721
vt 0.670774 0.600826
vt -0.710390 0.671713
vt 0.670774 0.671713
vt -0.667574 0.744721
vt 0.710390 0.472281
vt 0.713590 0.727935
vt 0.667574 0.744721
vt -0.710390 0.472281
vt 0.670774 0.489067
vt 0.671713 0.476612
vt 0.613295 0.737048
vt 0.613295 0.476612
vt -0.707212 0.671713
vt 0.674053 0.613295
vt -0.707212 0.613295
vt -0.671713 0.740390
vt -0.613295 0.479954
vt -0.613295 0.740390
vt 0.674702 -0.671713
vt -0.706563 -0.613295
vt 0.674702 -0.613295
vt -0.674053 0.740390
vt 0.706563 0.476612
vt 0.707212 0.737048
vt -0.707212 0.737048
vt 0.674702 0.479954
vt 0.674053 0.740390
vt 0.633435 0.453893
vt -0.595682 0.763109
vt -0.601702 0.479361
vt -0.744669 0.639455
vt -0.689929 -0.595682
vt -0.744669 -0.595682
vt -0.639455 0.737642
vt 0.601702 0.479361
vt 0.595682 0.763109
vt -0.689929 -0.633435
vt -0.744669 0.601702
vt -0.689929 0.601702
vt 0.689929 0.763109
vt 0.744669 0.479361
vt 0.744669 0.763109
vt -0.744669 0.737642
vt -0.689929 0.453893
vt -0.689929 0.737642
vt -0.627708 0.488628
vt 0.612969 0.728375
vt -0.622177 0.753446
vt 0.678759 0.612969
vt 0.744669 -0.622177
vt 0.678759 -0.622177
vt -0.612969 0.728375
vt 0.627708 0.488628
vt 0.622177 0.753446
vt 0.744669 -0.607438
vt 0.678759 0.627708
vt 0.744669 0.627708
vt -0.744669 0.753446
vt -0.678759 0.488628
vt -0.678759 0.753446
vt 0.678759 0.728375
vt 0.744669 0.463556
vt 0.744669 0.728375
vt -0.602376 0.808484
vt -0.671713 1.085219
vt -0.671713 0.808484
vt -0.683322 -0.602376
vt 0.697556 -0.671713
vt -0.683322 -0.671713
vt 0.602376 1.052813
vt 0.671713 0.776079
vt 0.671713 1.052813
vt 0.690868 0.602376
vt -0.690010 0.671713
vt 0.690868 0.671713
vt -0.697556 1.052813
vt 0.690010 0.808484
vt 0.683322 1.085219
vt -0.683322 1.085219
vt 0.690868 0.776079
vt 0.697556 1.052813
vt 0.671713 0.784362
vt 0.616004 1.065825
vt 0.616004 0.784362
vt -0.691608 0.671713
vt 0.689615 0.616004
vt -0.691608 0.616004
vt -0.671713 1.076935
vt -0.616004 0.795473
vt -0.616004 1.076935
vt 0.691947 -0.671713
vt -0.689277 -0.616004
vt 0.691947 -0.616004
vt -0.689615 1.076935
vt 0.689277 0.784362
vt 0.691608 1.065825
vt 0.689615 1.076935
vt -0.689277 0.784362
vt 0.691947 0.795473
vt 0.611064 0.787823
vt -0.622931 1.073474
vt -0.624329 0.793822
vt -0.744669 0.612461
vt -0.671516 -0.622931
vt -0.744669 -0.622931
vt -0.612461 1.067475
vt 0.624329 0.793822
vt 0.622931 1.073474
vt -0.671516 -0.611064
vt -0.744669 0.624329
vt -0.671516 0.624329
vt 0.671516 1.073474
vt 0.744669 0.793822
vt 0.744669 1.073474
vt -0.744669 1.067475
vt -0.671516 0.787823
vt -0.671516 1.067475
vt 0.612414 0.787793
vt -0.620934 1.073504
vt -0.622961 0.796580
vt 0.681399 0.614441
vt 0.744669 -0.620934
vt 0.681399 -0.620934
vt -0.614441 1.064717
vt 0.622961 0.796580
vt 0.620934 1.073504
vt 0.744669 -0.612414
vt 0.681399 0.622961
vt 0.744669 0.622961
vt -0.744669 1.073504
vt -0.681399 0.796580
vt -0.681399 1.073504
vt 0.681399 1.064717
vt 0.744669 0.787793
vt 0.744669 1.064717
vt 0.638158 1.097987
vt -0.664950 1.178523
vt -0.664950 1.097987
vt -0.720050 0.638158
vt -0.259660 -0.667191
vt -0.726313 -0.664950
vt -0.635917 1.178523
vt 0.667191 1.097987
vt 0.667191 1.178523
vt -0.253397 -0.635917
vt -0.726313 0.664950
vt -0.259660 0.667191
vt 0.259660 1.178523
vt 0.726313 1.097987
vt 0.726313 1.178523
vt -0.720050 1.178523
vt -0.253397 1.097987
vt -0.253397 1.178523
vt 0.652920 1.119463
vt -0.650161 1.200000
vt -0.650161 1.119463
vt -0.249729 0.652920
vt 0.227446 -0.646393
vt -0.239198 -0.650161
vt -0.656687 1.200000
vt 0.646393 1.119463
vt 0.646393 1.200000
vt 0.216915 -0.656687
vt -0.239198 0.650161
vt 0.227446 0.646393
vt -0.227446 1.200000
vt 0.239198 1.119463
vt 0.239198 1.200000
vt -0.249729 1.200000
vt 0.216915 1.119463
vt 0.216915 1.200000
vt 0.672429 1.097987
vt -0.629831 1.178523
vt -0.629831 1.097987
vt 0.278917 0.672429
vt 0.697798 -0.646814
vt 0.231448 -0.629831
vt -0.655445 1.178523
vt 0.646814 1.097987
vt 0.646814 1.178523
vt 0.745267 -0.655445
vt 0.231448 0.629831
vt 0.697798 0.646814
vt -0.697798 1.178523
vt -0.231448 1.097987
vt -0.231448 1.178523
vt 0.278917 1.178523
vt 0.745267 1.097987
vt 0.745267 1.178523
vt -0.408474 0.000895
vt -0.571864 0.099329
vt -0.571864 0.000895
vt -0.729775 -0.408474
vt 0.729775 -0.571864
vt -0.729775 -0.571864
vt 0.408474 0.099329
vt 0.571864 0.000895
vt 0.571864 0.099329
vt 0.729775 0.408474
vt -0.729775 0.571864
vt 0.729775 0.571864
vt -0.729775 0.099329
vt 0.729775 0.000895
vt 0.729775 0.099329
vt 0.408474 0.000895
vt -0.729775 0.408474
vt -0.408474 0.099329
vt 0.729775 -0.408474
vt -0.517659 1.181208
vt -0.590545 -0.517143
vt 0.517143 0.000000
vt -0.744927 0.517659
vt 0.590028 0.000000
vt -0.744927 0.000000
vt 0.671551 1.181208
vt -0.590449 0.671875
vt -0.671875 0.000000
vt -0.744831 -0.671551
vt 0.590124 0.000000
vt -0.744831 0.000000
vt -0.518736 1.181208
vt 0.743332 -0.516088
vt 0.516088 0.000000
vt 0.588973 0.518736
vt -0.745982 0.000000
vt 0.588973 0.000000
vt 0.671559 1.181208
vt 0.744515 0.671866
vt -0.671866 0.000000
vt 0.590133 -0.671559
vt -0.744822 0.000000
vt 0.590133 0.000000
vt -0.601861 0.410707
vt 0.669242 -0.601861
vt 0.601861 0.162000
vt -0.707618 0.601861
vt -0.673486 0.162000
vt -0.707618 0.140904
vt 0.671713 0.419722
vt 0.667427 0.671713
vt -0.671713 0.152985
vt -0.710331 -0.671713
vt -0.670841 0.152985
vt -0.710331 0.136805
vt 0.601830 0.403312
vt -0.683625 0.601830
vt -0.594556 0.136653
vt -0.744669 -0.594556
vt 0.683625 0.169395
vt -0.744669 0.136653
vt 0.614278 0.421553
vt 0.744669 0.614278
vt -0.610647 0.135890
vt 0.676504 -0.610647
vt -0.744669 0.151153
vt 0.676504 0.135890
vt -0.600826 0.727935
vt 0.667574 -0.600826
vt 0.600826 0.489067
vt -0.710390 0.600826
vt -0.670774 0.489067
vt -0.713590 0.727935
vt 0.671713 0.737048
vt 0.674053 0.671713
vt -0.671713 0.479954
vt -0.706563 -0.671713
vt -0.674702 0.479954
vt -0.706563 0.476612
vt 0.639455 0.737642
vt -0.689929 0.639455
vt -0.633435 0.453893
vt -0.744669 -0.633435
vt 0.689929 0.479361
vt -0.744669 0.453893
vt 0.607438 0.463556
vt 0.744669 0.612969
vt -0.607438 0.463556
vt 0.678759 -0.607438
vt -0.744669 0.488628
vt 0.678759 0.463556
vt -0.602376 1.085219
vt 0.697556 -0.602376
vt 0.602376 0.776079
vt -0.690010 0.602376
vt -0.690868 0.776079
vt -0.690010 0.808484
vt 0.671713 1.065825
vt 0.689615 0.671713
vt -0.671713 0.795473
vt -0.689277 -0.671713
vt -0.691947 0.795473
vt -0.691608 1.065825
vt 0.612461 1.067475
vt -0.671516 0.612461
vt -0.611064 0.787823
vt -0.744669 -0.611064
vt 0.671516 0.793822
vt -0.744669 0.787823
vt 0.614441 1.064717
vt 0.744669 0.614441
vt -0.612414 0.787793
vt 0.681399 -0.612414
vt -0.744669 0.796580
vt 0.681399 0.787793
vt 0.638158 1.178523
vt -0.253397 0.635917
vt -0.635917 1.097987
vt -0.720050 -0.638158
vt 0.259660 1.097987
vt -0.720050 1.097987
vt 0.652920 1.200000
vt 0.216915 0.656687
vt -0.656687 1.119463
vt -0.249729 -0.652920
vt -0.227446 1.119463
vt -0.249729 1.119463
vt 0.672429 1.178523
vt 0.745267 0.655445
vt -0.655445 1.097987
vt 0.278917 -0.672429
vt -0.697798 1.097987
vt 0.278917 1.097987
vt -0.729775 0.000895
s 0
f 2/1/1 3/2/1 1/3/1
f 4/4/2 7/5/2 3/6/2
f 8/7/3 5/8/3 7/9/3
f 6/10/4 1/11/4 5/12/4
f 7/13/5 1/14/5 3/15/5
f 4/16/6 6/17/6 8/18/6
f 10/19/7 11/20/7 9/21/7
f 12/22/2 15/23/2 11/24/2
f 16/25/8 13/26/8 15/27/8
f 14/28/4 9/29/4 13/30/4
f 15/31/9 9/32/9 11/33/9
f 12/34/10 14/35/10 16/36/10
f 18/37/11 19/38/11 17/39/11
f 20/40/2 23/41/2 19/42/2
f 24/43/12 21/44/12 23/45/12
f 22/46/4 17/47/4 21/48/4
f 23/49/13 17/50/13 19/51/13
f 20/52/14 22/53/14 24/54/14
f 26/55/15 27/56/15 25/57/15
f 28/58/2 31/59/2 27/60/2
f 32/61/16 29/62/16 31/63/16
f 30/64/4 25/65/4 29/66/4
f 31/67/17 25/68/17 27/69/17
f 28/70/18 30/71/18 32/72/18
f 34/73/19 35/74/19 33/75/19
f 36/76/20 39/77/20 35/78/20
f 40/79/21 37/80/21 39/81/21
f 38/82/22 33/83/22 37/84/22
f 39/85/23 33/86/23 35/87/23
f 36/88/24 38/89/24 40/90/24
f 42/91/25 43/92/25 41/93/25
f 44/94/26 47/95/26 43/96/26
f 48/97/27 45/98/27 47/99/27
f 46/100/28 41/101/28 45/102/28
f 47/103/23 41/104/23 43/105/23
f 44/106/24 46/107/24 48/108/24
f 50/109/29 51/110/29 49/111/29
f 52/112/30 55/113/30 51/114/30
f 56/115/31 53/116/31 55/117/31
f 54/118/32 49/119/32 53/120/32
f 55/121/33 49/122/33 51/123/33
f 52/124/34 54/125/34 56/126/34
f 58/127/29 59/128/29 57/129/29
f 60/130/35 63/131/35 59/132/35
f 64/133/31 61/134/31 63/135/31
f 62/136/36 57/137/36 61/138/36
f 63/139/37 57/140/37 59/141/37
f 60/142/38 62/143/38 64/144/38
f 66/145/39 67/146/39 65/147/39
f 68/148/40 71/149/40 67/150/40
f 72/151/41 69/152/41 71/153/41
f 70/154/42 65/155/42 69/156/42
f 71/157/23 65/158/23 67/159/23
f 72/160/24 66/161/24 70/162/24
f 74/163/43 75/164/43 73/165/43
f 76/166/44 79/167/44 75/168/44
f 80/169/45 77/170/45 79/171/45
f 78/172/46 73/173/46 77/174/46
f 79/175/23 73/176/23 75/177/23
f 76/178/24 78/179/24 80/180/24
f 82/181/29 83/182/29 81/183/29
f 84/184/47 87/185/47 83/186/47
f 88/187/31 85/188/31 87/189/31
f 86/190/48 81/191/48 85/192/48
f 87/193/49 81/194/49 83/195/49
f 84/196/50 86/197/50 88/198/50
f 89/199/29 92/200/29 91/201/29
f 92/202/51 95/203/51 91/204/51
f 96/205/31 93/206/31 95/207/31
f 94/208/52 89/209/52 93/210/52
f 95/211/53 89/212/53 91/213/53
f 92/214/54 94/215/54 96/216/54
f 98/217/55 99/218/55 97/219/55
f 100/220/56 103/221/56 99/222/56
f 104/223/57 101/224/57 103/225/57
f 102/226/58 97/227/58 101/228/58
f 103/229/23 97/230/23 99/231/23
f 100/232/24 102/233/24 104/234/24
f 106/235/59 107/236/59 105/237/59
f 108/238/60 111/239/60 107/240/60
f 112/241/61 109/242/61 111/243/61
f 110/244/62 105/245/62 109/246/62
f 111/247/23 105/248/23 107/249/23
f 112/250/24 106/251/24 110/252/24
f 114/253/29 115/254/29 113/255/29
f 116/256/63 119/257/63 115/258/63
f 120/259/31 117/260/31 119/261/31
f 118/262/64 113/263/64 117/264/64
f 119/265/65 113/266/65 115/267/65
f 116/268/66 118/269/66 120/270/66
f 122/271/29 123/272/29 121/273/29
f 124/274/67 127/275/67 123/276/67
f 128/277/31 125/278/31 127/279/31
f 126/280/68 121/281/68 125/282/68
f 127/283/69 121/284/69 123/285/69
f 124/286/70 126/287/70 128/288/70
f 130/289/71 131/290/71 129/291/71
f 132/292/2 135/293/2 131/294/2
f 136/295/72 133/296/72 135/297/72
f 134/298/4 129/299/4 133/300/4
f 135/301/73 129/302/73 131/303/73
f 132/304/74 134/305/74 136/306/74
f 138/307/75 139/308/75 137/309/75
f 140/310/2 143/311/2 139/312/2
f 144/313/76 141/314/76 143/315/76
f 142/316/4 137/317/4 141/318/4
f 143/319/77 137/320/77 139/321/77
f 140/322/78 142/323/78 144/324/78
f 146/325/79 147/326/79 145/327/79
f 148/328/2 151/329/2 147/330/2
f 152/331/80 149/332/80 151/333/80
f 150/334/4 145/335/4 149/336/4
f 151/337/81 145/338/81 147/339/81
f 148/340/82 150/341/82 152/342/82
f 154/343/29 155/344/29 153/345/29
f 156/346/2 159/347/2 155/348/2
f 160/349/31 157/350/31 159/351/31
f 158/352/4 153/353/4 157/354/4
f 159/355/23 153/356/23 155/357/23
f 156/355/24 158/356/24 160/357/24
f 162/350/29 163/349/29 161/358/29
f 164/353/2 167/352/2 163/359/2
f 168/344/31 165/343/31 167/360/31
f 166/347/4 161/346/4 165/361/4
f 167/355/23 161/356/23 163/357/23
f 164/355/24 166/356/24 168/357/24
f 2/1/1 4/362/1 3/2/1
f 4/4/2 8/363/2 7/5/2
f 8/7/3 6/364/3 5/8/3
f 6/10/4 2/365/4 1/11/4
f 7/13/5 5/366/5 1/14/5
f 4/16/6 2/367/6 6/17/6
f 10/19/7 12/368/7 11/20/7
f 12/22/2 16/369/2 15/23/2
f 16/25/8 14/370/8 13/26/8
f 14/28/4 10/371/4 9/29/4
f 15/31/9 13/372/9 9/32/9
f 12/34/10 10/373/10 14/35/10
f 18/37/11 20/374/11 19/38/11
f 20/40/2 24/375/2 23/41/2
f 24/43/12 22/376/12 21/44/12
f 22/46/4 18/377/4 17/47/4
f 23/49/13 21/378/13 17/50/13
f 20/52/14 18/379/14 22/53/14
f 26/55/15 28/380/15 27/56/15
f 28/58/2 32/381/2 31/59/2
f 32/61/16 30/382/16 29/62/16
f 30/64/4 26/383/4 25/65/4
f 31/67/17 29/384/17 25/68/17
f 28/70/18 26/385/18 30/71/18
f 34/73/19 36/386/19 35/74/19
f 36/76/20 40/387/20 39/77/20
f 40/79/21 38/388/21 37/80/21
f 38/82/22 34/389/22 33/83/22
f 39/85/23 37/390/23 33/86/23
f 36/88/24 34/391/24 38/89/24
f 42/91/25 44/392/25 43/92/25
f 44/94/26 48/393/26 47/95/26
f 48/97/27 46/394/27 45/98/27
f 46/100/28 42/395/28 41/101/28
f 47/103/23 45/396/23 41/104/23
f 44/106/24 42/397/24 46/107/24
f 50/109/29 52/398/29 51/110/29
f 52/112/30 56/399/30 55/113/30
f 56/115/31 54/400/31 53/116/31
f 54/118/32 50/401/32 49/119/32
f 55/121/33 53/402/33 49/122/33
f 52/124/34 50/403/34 54/125/34
f 58/127/29 60/404/29 59/128/29
f 60/130/35 64/405/35 63/131/35
f 64/133/31 62/406/31 61/134/31
f 62/136/36 58/407/36 57/137/36
f 63/139/37 61/408/37 57/140/37
f 60/142/38 58/409/38 62/143/38
f 66/145/39 68/410/39 67/146/39
f 68/148/40 72/411/40 71/149/40
f 72/151/41 70/412/41 69/152/41
f 70/154/42 66/413/42 65/155/42
f 71/157/23 69/414/23 65/158/23
f 72/160/24 68/415/24 66/161/24
f 74/163/43 76/416/43 75/164/43
f 76/166/44 80/417/44 79/167/44
f 80/169/45 78/418/45 77/170/45
f 78/172/46 74/419/46 73/173/46
f 79/175/23 77/420/23 73/176/23
f 76/178/24 74/421/24 78/179/24
f 82/181/29 84/422/29 83/182/29
f 84/184/47 88/423/47 87/185/47
f 88/187/31 86/424/31 85/188/31
f 86/190/48 82/425/48 81/191/48
f 87/193/49 85/426/49 81/194/49
f 84/196/50 82/427/50 86/197/50
f 89/199/29 90/428/29 92/200/29
f 92/202/51 96/429/51 95/203/51
f 96/205/31 94/430/31 93/206/31
f 94/208/52 90/431/52 89/209/52
f 95/211/53 93/432/53 89/212/53
f 92/214/54 90/433/54 94/215/54
f 98/217/55 100/434/55 99/218/55
f 100/220/56 104/435/56 103/221/56
f 104/223/57 102/436/57 101/224/57
f 102/226/58 98/437/58 97/227/58
f 103/229/23 101/438/23 97/230/23
f 100/232/24 98/439/24 102/233/24
f 106/235/59 108/440/59 107/236/59
f 108/238/60 112/441/60 111/239/60
f 112/241/61 110/442/61 109/242/61
f 110/244/62 106/443/62 105/245/62
f 111/247/23 109/444/23 105/248/23
f 112/250/24 108/445/24 106/251/24
f 114/253/29 116/446/29 115/254/29
f 116/256/63 120/447/63 119/257/63
f 120/259/31 118/448/31 117/260/31
f 118/262/64 114/449/64 113/263/64
f 119/265/65 117/450/65 113/266/65
f 116/268/66 114/451/66 118/269/66
f 122/271/29 124/452/29 123/272/29
f 124/274/67 128/453/67 127/275/67
f 128/277/31 126/454/31 125/278/31
f 126/280/68 122/455/68 121/281/68
f 127/283/69 125/456/69 121/284/69
f 124/286/70 122/457/70 126/287/70
f 130/289/71 132/458/71 131/290/71
f 132/292/2 136/459/2 135/293/2
f 136/295/72 134/460/72 133/296/72
f 134/298/4 130/461/4 129/299/4
f 135/301/73 133/462/73 129/302/73
f 132/304/74 130/463/74 134/305/74
f 138/307/75 140/464/75 139/308/75
f 140/310/2 144/465/2 143/311/2
f 144/313/76 142/466/76 141/314/76
f 142/316/4 138/467/4 137/317/4
f 143/319/77 141/468/77 137/320/77
f 140/322/78 138/469/78 142/323/78
f 146/325/79 148/470/79 147/326/79
f 148/328/2 152/471/2 151/329/2
f 152/331/80 150/472/80 149/332/80
f 150/334/4 146/473/4 145/335/4
f 151/337/81 149/474/81 145/338/81
f 148/340/82 146/475/82 150/341/82
f 154/343/29 156/360/29 155/344/29
f 156/346/2 160/361/2 159/347/2
f 160/349/31 158/358/31 157/350/31
f 158/352/4 154/359/4 153/353/4
f 159/355/23 157/476/23 153/356/23
f 156/355/24 154/476/24 158/356/24
f 162/350/29 164/351/29 163/349/29
f 164/353/2 168/354/2 167/352/2
f 168/344/31 166/345/31 165/343/31
f 166/347/4 162/348/4 161/346/4
f 167/355/23 165/476/23 161/356/23
f 164/355/24 162/476/24 166/356/24
