# Blender 5.0.1
# www.blender.org
o grass_b
v -0.069838 0.000000 -0.012671
v -0.013930 0.000000 -0.008920
v -0.067408 0.211410 0.080797
v -0.027154 0.211410 0.083498
v -0.066203 0.360976 0.190524
v -0.041045 0.360976 0.192212
v -0.063300 0.443679 0.290328
v -0.055473 0.443679 0.290853
v -0.069838 0.000000 -0.012671
v -0.013930 0.000000 -0.008920
v -0.067408 0.211410 0.080797
v -0.027154 0.211410 0.083498
v -0.066203 0.360976 0.190524
v -0.041045 0.360976 0.192212
v -0.063300 0.443679 0.290328
v -0.055473 0.443679 0.290853
v 0.001978 0.000000 0.088939
v 0.046556 0.000000 0.065022
v 0.032315 0.160335 0.137474
v 0.064411 0.160335 0.120254
v 0.068777 0.275955 0.199795
v 0.088837 0.275955 0.189032
v 0.104462 0.341746 0.258046
v 0.110703 0.341746 0.254698
v 0.001978 0.000000 0.088939
v 0.046556 0.000000 0.065022
v 0.032315 0.160335 0.137474
v 0.064411 0.160335 0.120254
v 0.068777 0.275955 0.199795
v 0.088837 0.275955 0.189032
v 0.104462 0.341746 0.258046
v 0.110703 0.341746 0.254698
v 0.017228 0.000000 -0.008180
v 0.021919 0.000000 -0.067439
v 0.100600 0.163107 -0.008912
v 0.103978 0.163107 -0.051578
v 0.207200 0.256937 -0.007221
v 0.209311 0.256937 -0.033887
v 0.300272 0.282128 -0.007961
v 0.300928 0.282128 -0.016257
v 0.017228 0.000000 -0.008180
v 0.021919 0.000000 -0.067439
v 0.100600 0.163107 -0.008912
v 0.103978 0.163107 -0.051578
v 0.207200 0.256937 -0.007221
v 0.209311 0.256937 -0.033887
v 0.300272 0.282128 -0.007961
v 0.300928 0.282128 -0.016257
v 0.086104 0.000000 -0.055729
v 0.071194 0.000000 -0.099742
v 0.169406 0.219332 -0.095307
v 0.158671 0.219332 -0.126996
v 0.270903 0.370942 -0.141757
v 0.264194 0.370942 -0.161562
v 0.363223 0.450000 -0.185612
v 0.361135 0.450000 -0.191773
v 0.086104 0.000000 -0.055729
v 0.071194 0.000000 -0.099742
v 0.169406 0.219332 -0.095307
v 0.158671 0.219332 -0.126996
v 0.270903 0.370942 -0.141757
v 0.264194 0.370942 -0.161562
v 0.363223 0.450000 -0.185612
v 0.361135 0.450000 -0.191773
v 0.049063 0.000000 0.104790
v 0.020190 0.000000 0.066358
v 0.098032 0.171440 0.053403
v 0.077243 0.171440 0.025732
v 0.172039 0.273369 -0.019398
v 0.159047 0.273369 -0.036692
v 0.238889 0.302477 -0.087256
v 0.234847 0.302477 -0.092636
v 0.049063 0.000000 0.104790
v 0.020190 0.000000 0.066358
v 0.098032 0.171440 0.053403
v 0.077243 0.171440 0.025732
v 0.172039 0.273369 -0.019398
v 0.159047 0.273369 -0.036692
v 0.238889 0.302477 -0.087256
v 0.234847 0.302477 -0.092636
v -0.064867 0.000000 -0.033128
v -0.119835 0.000000 -0.028957
v -0.077746 0.127924 -0.111455
v -0.117323 0.127924 -0.108451
v -0.090718 0.213596 -0.195410
v -0.115454 0.213596 -0.193533
v -0.103978 0.256447 -0.266923
v -0.111674 0.256447 -0.266339
v -0.064867 0.000000 -0.033128
v -0.119835 0.000000 -0.028957
v -0.077746 0.127924 -0.111455
v -0.117323 0.127924 -0.108451
v -0.090718 0.213596 -0.195410
v -0.115454 0.213596 -0.193533
v -0.103978 0.256447 -0.266923
v -0.111674 0.256447 -0.266339
v -0.029328 0.000000 -0.060168
v -0.074788 0.000000 -0.026496
v -0.062833 0.148602 -0.097783
v -0.095564 0.148602 -0.073539
v -0.104796 0.254960 -0.149114
v -0.125253 0.254960 -0.133961
v -0.146231 0.314070 -0.197529
v -0.152596 0.314070 -0.192815
v -0.029328 0.000000 -0.060168
v -0.074788 0.000000 -0.026496
v -0.062833 0.148602 -0.097783
v -0.095564 0.148602 -0.073539
v -0.104796 0.254960 -0.149114
v -0.125253 0.254960 -0.133961
v -0.146231 0.314070 -0.197529
v -0.152596 0.314070 -0.192815
v 0.074548 0.000000 0.010436
v 0.049335 0.000000 0.049520
v -0.002728 0.158295 -0.039051
v -0.020882 0.158295 -0.010911
v -0.091811 0.254818 -0.097627
v -0.103157 0.254818 -0.080039
v -0.169529 0.290523 -0.146575
v -0.173059 0.290523 -0.141104
v 0.074548 0.000000 0.010436
v 0.049335 0.000000 0.049520
v -0.002728 0.158295 -0.039051
v -0.020882 0.158295 -0.010911
v -0.091811 0.254818 -0.097627
v -0.103157 0.254818 -0.080039
v -0.169529 0.290523 -0.146575
v -0.173059 0.290523 -0.141104
v -0.055183 0.000000 0.033691
v -0.045586 0.000000 0.076976
v -0.121605 0.161777 0.057108
v -0.114695 0.161777 0.088273
v -0.193728 0.279907 0.081756
v -0.189409 0.279907 0.101235
v -0.256777 0.350388 0.104996
v -0.255434 0.350388 0.111056
v -0.055183 0.000000 0.033691
v -0.045586 0.000000 0.076976
v -0.121605 0.161777 0.057108
v -0.114695 0.161777 0.088273
v -0.193728 0.279907 0.081756
v -0.189409 0.279907 0.101235
v -0.256777 0.350388 0.104996
v -0.255434 0.350388 0.111056
v -0.001391 0.000000 -0.058853
v 0.036630 0.000000 -0.035450
v -0.051909 0.183287 0.049223
v -0.024533 0.183287 0.066074
v -0.115288 0.274842 0.180966
v -0.098179 0.274842 0.191497
v -0.165452 0.281444 0.289801
v -0.160129 0.281444 0.293077
v -0.001391 0.000000 -0.058853
v 0.036630 0.000000 -0.035450
v -0.051909 0.183287 0.049223
v -0.024533 0.183287 0.066074
v -0.115288 0.274842 0.180966
v -0.098179 0.274842 0.191497
v -0.165452 0.281444 0.289801
v -0.160129 0.281444 0.293077
vn -0.0613 -0.4030 0.9131
vn -0.0540 -0.5904 0.8053
vn -0.0428 -0.7687 0.6382
vn 0.0613 0.4030 -0.9131
vn 0.0540 0.5904 -0.8053
vn 0.0428 0.7687 -0.6382
vn 0.4454 -0.3355 0.8301
vn 0.4011 -0.5294 0.7476
vn 0.3282 -0.7197 0.6118
vn -0.4454 0.3355 -0.8301
vn -0.4011 0.5294 -0.7476
vn -0.3282 0.7197 -0.6118
vn 0.8883 -0.4538 0.0703
vn 0.6593 -0.7500 0.0522
vn 0.2614 -0.9650 0.0207
vn -0.8883 0.4538 -0.0703
vn -0.6593 0.7500 -0.0522
vn -0.2614 0.9650 -0.0207
vn 0.8740 -0.3854 -0.2961
vn 0.7641 -0.5909 -0.2589
vn 0.5820 -0.7889 -0.1971
vn 0.5820 -0.7889 -0.1972
vn -0.8740 0.3854 0.2961
vn -0.7641 0.5909 0.2589
vn -0.5820 0.7889 0.1971
vn -0.5820 0.7889 0.1972
vn 0.7402 -0.3781 -0.5561
vn 0.5627 -0.7104 -0.4227
vn 0.2360 -0.9554 -0.1773
vn -0.7402 0.3781 0.5561
vn -0.5627 0.7104 0.4227
vn -0.2360 0.9554 0.1773
vn -0.0644 -0.5258 -0.8482
vn -0.0538 -0.7030 -0.7091
vn -0.0386 -0.8603 -0.5083
vn 0.0644 0.5258 0.8482
vn 0.0538 0.7030 0.7091
vn 0.0386 0.8603 0.5083
vn -0.5639 -0.3199 -0.7614
vn -0.5053 -0.5286 -0.6821
vn -0.4053 -0.7323 -0.5472
vn 0.5639 0.3199 0.7614
vn 0.5053 0.5286 0.6821
vn 0.4053 0.7323 0.5472
vn -0.7270 -0.5015 -0.4690
vn -0.5640 -0.7413 -0.3638
vn -0.3045 -0.9320 -0.1964
vn 0.7270 0.5015 0.4690
vn 0.5640 0.7413 0.3638
vn 0.3045 0.9320 0.1964
vn -0.8962 -0.3967 0.1987
vn -0.8218 -0.5398 0.1822
vn -0.7097 -0.6867 0.1573
vn -0.7097 -0.6867 0.1574
vn 0.8962 0.3967 -0.1987
vn 0.8218 0.5398 -0.1822
vn 0.7097 0.6867 -0.1573
vn 0.7097 0.6867 -0.1574
vn -0.4402 -0.5430 0.7151
vn -0.2793 -0.8462 0.4537
vn -0.0290 -0.9985 0.0472
vn 0.4402 0.5430 -0.7151
vn 0.2793 0.8462 -0.4537
vn 0.0290 0.9985 -0.0472
vt 0.666667 0.000000
vt 0.380000 0.420000
vt 0.333333 0.000000
vt 0.620000 0.420000
vt 0.425000 0.760000
vt 0.575000 0.760000
vt 0.476667 1.000000
vt 0.523333 1.000000
vt 0.425000 0.760000
vt 0.575000 0.760000
vt 0.476667 1.000000
vt 0.523333 1.000000
vt 0.380000 0.420000
vt 0.620000 0.420000
vt 0.333333 0.000000
vt 0.425000 0.760000
s 0
f 2/1/1 3/2/1 1/3/1
f 4/4/2 5/5/2 3/2/2
f 6/6/3 7/7/3 5/5/3
f 2/1/1 4/4/1 3/2/1
f 4/4/2 6/6/2 5/5/2
f 6/6/3 8/8/3 7/7/3
f 10/1/4 9/3/4 11/2/4
f 12/4/5 11/2/5 13/5/5
f 14/6/6 13/5/6 15/7/6
f 10/1/4 11/2/4 12/4/4
f 12/4/5 13/5/5 14/6/5
f 14/6/6 15/7/6 16/8/6
f 18/1/7 19/2/7 17/3/7
f 20/4/8 21/9/8 19/2/8
f 22/10/9 23/11/9 21/9/9
f 18/1/7 20/4/7 19/2/7
f 20/4/8 22/10/8 21/9/8
f 22/10/9 24/12/9 23/11/9
f 26/1/10 25/3/10 27/2/10
f 28/4/11 27/2/11 29/9/11
f 30/10/12 29/9/12 31/11/12
f 26/1/10 27/2/10 28/4/10
f 28/4/11 29/9/11 30/10/11
f 30/10/12 31/11/12 32/12/12
f 34/1/13 35/13/13 33/3/13
f 36/14/14 37/9/14 35/13/14
f 38/10/15 39/11/15 37/9/15
f 34/1/13 36/14/13 35/13/13
f 36/14/14 38/10/14 37/9/14
f 38/10/15 40/12/15 39/11/15
f 42/1/16 41/3/16 43/13/16
f 44/14/17 43/13/17 45/9/17
f 46/10/18 45/9/18 47/11/18
f 42/1/16 43/13/16 44/14/16
f 44/14/17 45/9/17 46/10/17
f 46/10/18 47/11/18 48/12/18
f 50/1/19 51/13/19 49/15/19
f 52/14/20 53/9/20 51/13/20
f 54/10/21 55/7/21 53/9/21
f 50/1/19 52/14/19 51/13/19
f 52/14/20 54/10/20 53/9/20
f 54/10/22 56/8/22 55/7/22
f 58/1/23 57/15/23 59/13/23
f 60/14/24 59/13/24 61/9/24
f 62/10/25 61/9/25 63/7/25
f 58/1/23 59/13/23 60/14/23
f 60/14/24 61/9/24 62/10/24
f 62/10/26 63/7/26 64/8/26
f 66/1/27 67/13/27 65/3/27
f 67/13/28 70/10/28 69/9/28
f 70/10/29 71/7/29 69/9/29
f 66/1/27 68/14/27 67/13/27
f 67/13/28 68/14/28 70/10/28
f 70/10/29 72/8/29 71/7/29
f 74/1/30 73/3/30 75/13/30
f 75/13/31 77/9/31 78/10/31
f 78/10/32 77/9/32 79/7/32
f 74/1/30 75/13/30 76/14/30
f 75/13/31 78/10/31 76/14/31
f 78/10/32 79/7/32 80/8/32
f 82/1/33 83/13/33 81/3/33
f 84/14/34 85/16/34 83/13/34
f 86/6/35 87/7/35 85/16/35
f 82/1/33 84/14/33 83/13/33
f 84/14/34 86/6/34 85/16/34
f 86/6/35 88/8/35 87/7/35
f 90/1/36 89/3/36 91/13/36
f 92/14/37 91/13/37 93/16/37
f 94/6/38 93/16/38 95/7/38
f 90/1/36 91/13/36 92/14/36
f 92/14/37 93/16/37 94/6/37
f 94/6/38 95/7/38 96/8/38
f 98/1/39 99/2/39 97/15/39
f 100/4/40 101/16/40 99/2/40
f 102/6/41 103/11/41 101/16/41
f 98/1/39 100/4/39 99/2/39
f 100/4/40 102/6/40 101/16/40
f 102/6/41 104/12/41 103/11/41
f 106/1/42 105/15/42 107/2/42
f 108/4/43 107/2/43 109/16/43
f 110/6/44 109/16/44 111/11/44
f 106/1/42 107/2/42 108/4/42
f 108/4/43 109/16/43 110/6/43
f 110/6/44 111/11/44 112/12/44
f 114/1/45 115/13/45 113/3/45
f 116/14/46 117/9/46 115/13/46
f 118/10/47 119/11/47 117/9/47
f 114/1/45 116/14/45 115/13/45
f 116/14/46 118/10/46 117/9/46
f 118/10/47 120/12/47 119/11/47
f 122/1/48 121/3/48 123/13/48
f 124/14/49 123/13/49 125/9/49
f 126/10/50 125/9/50 127/11/50
f 122/1/48 123/13/48 124/14/48
f 124/14/49 125/9/49 126/10/49
f 126/10/50 127/11/50 128/12/50
f 130/1/51 131/2/51 129/3/51
f 132/4/52 133/9/52 131/2/52
f 134/10/53 135/7/53 133/9/53
f 130/1/51 132/4/51 131/2/51
f 132/4/52 134/10/52 133/9/52
f 134/10/54 136/8/54 135/7/54
f 138/1/55 137/3/55 139/2/55
f 140/4/56 139/2/56 141/9/56
f 142/10/57 141/9/57 143/7/57
f 138/1/55 139/2/55 140/4/55
f 140/4/56 141/9/56 142/10/56
f 142/10/58 143/7/58 144/8/58
f 146/1/59 147/2/59 145/3/59
f 148/4/60 149/9/60 147/2/60
f 150/10/61 151/7/61 149/9/61
f 146/1/59 148/4/59 147/2/59
f 148/4/60 150/10/60 149/9/60
f 150/10/61 152/8/61 151/7/61
f 154/1/62 153/3/62 155/2/62
f 156/4/63 155/2/63 157/9/63
f 158/10/64 157/9/64 159/7/64
f 154/1/62 155/2/62 156/4/62
f 156/4/63 157/9/63 158/10/63
f 158/10/64 159/7/64 160/8/64
