# Blender 5.0.1
# www.blender.org
o grass_a
v 0.042428 0.000000 -0.006397
v 0.073838 0.000000 0.003224
v 0.025799 0.129211 0.065410
v 0.048414 0.129211 0.072337
v 0.007158 0.218213 0.143384
v 0.021293 0.218213 0.147714
v -0.007819 0.265431 0.211378
v -0.003421 0.265431 0.212725
v 0.042428 0.000000 -0.006397
v 0.073838 0.000000 0.003224
v 0.025799 0.129211 0.065410
v 0.048414 0.129211 0.072337
v 0.007158 0.218213 0.143384
v 0.021293 0.218213 0.147714
v -0.007819 0.265431 0.211378
v -0.003421 0.265431 0.212725
v -0.033093 0.000000 0.008856
v -0.016269 0.000000 -0.029865
v 0.013011 0.095302 0.022946
v 0.025124 0.095302 -0.004934
v 0.063587 0.162820 0.039260
v 0.071157 0.162820 0.021836
v 0.108744 0.200702 0.052233
v 0.111099 0.200702 0.046813
v -0.033093 0.000000 0.008856
v -0.016269 0.000000 -0.029865
v 0.013011 0.095302 0.022946
v 0.025124 0.095302 -0.004934
v 0.063587 0.162820 0.039260
v 0.071157 0.162820 0.021836
v 0.108744 0.200702 0.052233
v 0.111099 0.200702 0.046813
v -0.031318 0.000000 0.080686
v -0.026474 0.000000 0.051923
v 0.026110 0.166834 0.086467
v 0.029597 0.166834 0.065758
v 0.107735 0.282122 0.096578
v 0.109915 0.282122 0.083635
v 0.187272 0.340000 0.105737
v 0.187950 0.340000 0.101710
v -0.031318 0.000000 0.080686
v -0.026474 0.000000 0.051923
v 0.026110 0.166834 0.086467
v 0.029597 0.166834 0.065758
v 0.107735 0.282122 0.096578
v 0.109915 0.282122 0.083635
v 0.187272 0.340000 0.105737
v 0.187950 0.340000 0.101710
v 0.009914 0.000000 0.009968
v -0.020104 0.000000 0.004708
v 0.014331 0.166664 -0.041255
v -0.007281 0.166664 -0.045043
v 0.024252 0.279567 -0.123803
v 0.010744 0.279567 -0.126170
v 0.033586 0.331431 -0.206538
v 0.029383 0.331431 -0.207275
v 0.009914 0.000000 0.009968
v -0.020104 0.000000 0.004708
v 0.014331 0.166664 -0.041255
v -0.007281 0.166664 -0.045043
v 0.024252 0.279567 -0.123803
v 0.010744 0.279567 -0.126170
v 0.033586 0.331431 -0.206538
v 0.029383 0.331431 -0.207275
v 0.014232 0.000000 -0.052548
v -0.023087 0.000000 -0.038702
v -0.001467 0.105252 -0.079586
v -0.028337 0.105252 -0.069617
v -0.026217 0.171308 -0.132250
v -0.043010 0.171308 -0.126020
v -0.051531 0.192667 -0.184134
v -0.056756 0.192667 -0.182195
v 0.014232 0.000000 -0.052548
v -0.023087 0.000000 -0.038702
v -0.001467 0.105252 -0.079586
v -0.028337 0.105252 -0.069617
v -0.026217 0.171308 -0.132250
v -0.043010 0.171308 -0.126020
v -0.051531 0.192667 -0.184134
v -0.056756 0.192667 -0.182195
v 0.028365 0.000000 0.001871
v 0.021106 0.000000 0.029342
v -0.068014 0.143758 -0.020146
v -0.073241 0.143758 -0.000366
v -0.178375 0.224894 -0.046102
v -0.181642 0.224894 -0.033740
v -0.271034 0.246771 -0.066668
v -0.272050 0.246771 -0.062822
v 0.028365 0.000000 0.001871
v 0.021106 0.000000 0.029342
v -0.068014 0.143758 -0.020146
v -0.073241 0.143758 -0.000366
v -0.178375 0.224894 -0.046102
v -0.181642 0.224894 -0.033740
v -0.271034 0.246771 -0.066668
v -0.272050 0.246771 -0.062822
v -0.028408 0.000000 -0.050539
v -0.011129 0.000000 -0.012529
v -0.075642 0.107881 -0.022049
v -0.063201 0.107881 0.005317
v -0.137455 0.173840 0.013012
v -0.129680 0.173840 0.030116
v -0.192163 0.197040 0.045679
v -0.189744 0.197040 0.051001
v -0.028408 0.000000 -0.050539
v -0.011129 0.000000 -0.012529
v -0.075642 0.107881 -0.022049
v -0.063201 0.107881 0.005317
v -0.137455 0.173840 0.013012
v -0.129680 0.173840 0.030116
v -0.192163 0.197040 0.045679
v -0.189744 0.197040 0.051001
vn -0.2545 -0.4946 0.8310
vn -0.2178 -0.6686 0.7110
vn -0.1647 -0.8268 0.5379
vn 0.2545 0.4946 -0.8310
vn 0.2178 0.6686 -0.7110
vn 0.1647 0.8268 -0.5379
vn 0.8195 -0.4491 0.3561
vn 0.7220 -0.6167 0.3137
vn 0.5786 -0.7759 0.2514
vn -0.8195 0.4491 -0.3561
vn -0.7220 0.6167 -0.3137
vn -0.5786 0.7759 -0.2514
vn 0.9321 -0.3263 0.1570
vn 0.8030 -0.5804 0.1352
vn 0.5782 -0.8100 0.0974
vn -0.9321 0.3263 -0.1570
vn -0.8030 0.5804 -0.1352
vn -0.5782 0.8100 -0.0974
vn 0.1650 -0.2938 -0.9415
vn 0.1391 -0.5924 -0.7935
vn 0.0914 -0.8483 -0.5215
vn -0.1650 0.2938 0.9415
vn -0.1391 0.5924 0.7935
vn -0.0914 0.8483 0.5215
vn -0.3338 -0.2809 -0.8998
vn -0.2614 -0.6597 -0.7046
vn -0.1212 -0.9373 -0.3267
vn 0.3338 0.2809 0.8998
vn 0.2614 0.6597 0.7046
vn 0.1212 0.9373 0.3267
vn -0.7968 -0.5664 -0.2105
vn -0.5628 -0.8131 -0.1487
vn -0.2173 -0.9744 -0.0574
vn 0.7968 0.5664 0.2105
vn 0.5628 0.8131 0.1487
vn 0.2173 0.9744 0.0574
vn -0.8117 -0.4528 0.3690
vn -0.6206 -0.7316 0.2821
vn -0.3132 -0.9390 0.1424
vn 0.8117 0.4528 -0.3690
vn 0.6206 0.7316 -0.2821
vn 0.3132 0.9390 -0.1424
vt 0.666667 0.000000
vt 0.380000 0.420000
vt 0.333333 0.000000
vt 0.620000 0.420000
vt 0.425000 0.760000
vt 0.523333 1.000000
vt 0.476667 1.000000
vt 0.575000 0.760000
vt 0.380000 0.420000
vt 0.333333 0.000000
vt 0.620000 0.420000
vt 0.476667 1.000000
vt 0.523333 1.000000
s 0
f 2/1/1 3/2/1 1/3/1
f 4/4/2 5/5/2 3/2/2
f 5/5/3 8/6/3 7/7/3
f 2/1/1 4/4/1 3/2/1
f 4/4/2 6/8/2 5/5/2
f 5/5/3 6/8/3 8/6/3
f 10/1/4 9/3/4 11/2/4
f 12/4/5 11/2/5 13/5/5
f 13/5/6 15/7/6 16/6/6
f 10/1/4 11/2/4 12/4/4
f 12/4/5 13/5/5 14/8/5
f 13/5/6 16/6/6 14/8/6
f 18/1/7 19/9/7 17/10/7
f 20/11/8 21/5/8 19/9/8
f 22/8/9 23/12/9 21/5/9
f 18/1/7 20/11/7 19/9/7
f 20/11/8 22/8/8 21/5/8
f 22/8/9 24/13/9 23/12/9
f 26/1/10 25/10/10 27/9/10
f 28/11/11 27/9/11 29/5/11
f 30/8/12 29/5/12 31/12/12
f 26/1/10 27/9/10 28/11/10
f 28/11/11 29/5/11 30/8/11
f 30/8/12 31/12/12 32/13/12
f 34/1/13 35/9/13 33/10/13
f 36/11/14 37/5/14 35/9/14
f 38/8/15 39/12/15 37/5/15
f 34/1/13 36/11/13 35/9/13
f 36/11/14 38/8/14 37/5/14
f 38/8/15 40/13/15 39/12/15
f 42/1/16 41/10/16 43/9/16
f 44/11/17 43/9/17 45/5/17
f 46/8/18 45/5/18 47/12/18
f 42/1/16 43/9/16 44/11/16
f 44/11/17 45/5/17 46/8/17
f 46/8/18 47/12/18 48/13/18
f 50/1/19 51/9/19 49/3/19
f 52/11/20 53/5/20 51/9/20
f 54/8/21 55/7/21 53/5/21
f 50/1/19 52/11/19 51/9/19
f 52/11/20 54/8/20 53/5/20
f 54/8/21 56/6/21 55/7/21
f 58/1/22 57/3/22 59/9/22
f 60/11/23 59/9/23 61/5/23
f 62/8/24 61/5/24 63/7/24
f 58/1/22 59/9/22 60/11/22
f 60/11/23 61/5/23 62/8/23
f 62/8/24 63/7/24 64/6/24
f 66/1/25 67/9/25 65/10/25
f 68/11/26 69/5/26 67/9/26
f 70/8/27 71/12/27 69/5/27
f 66/1/25 68/11/25 67/9/25
f 68/11/26 70/8/26 69/5/26
f 70/8/27 72/13/27 71/12/27
f 74/1/28 73/10/28 75/9/28
f 76/11/29 75/9/29 77/5/29
f 78/8/30 77/5/30 79/12/30
f 74/1/28 75/9/28 76/11/28
f 76/11/29 77/5/29 78/8/29
f 78/8/30 79/12/30 80/13/30
f 81/10/31 84/11/31 83/9/31
f 84/11/32 85/5/32 83/9/32
f 86/8/33 87/12/33 85/5/33
f 81/10/31 82/1/31 84/11/31
f 84/11/32 86/8/32 85/5/32
f 86/8/33 88/13/33 87/12/33
f 89/10/34 91/9/34 92/11/34
f 92/11/35 91/9/35 93/5/35
f 94/8/36 93/5/36 95/12/36
f 89/10/34 92/11/34 90/1/34
f 92/11/35 93/5/35 94/8/35
f 94/8/36 95/12/36 96/13/36
f 98/1/37 99/2/37 97/10/37
f 99/2/38 102/8/38 101/5/38
f 101/5/39 104/13/39 103/12/39
f 98/1/37 100/4/37 99/2/37
f 99/2/38 100/4/38 102/8/38
f 101/5/39 102/8/39 104/13/39
f 106/1/40 105/10/40 107/2/40
f 107/2/41 109/5/41 110/8/41
f 109/5/42 111/12/42 112/13/42
f 106/1/40 107/2/40 108/4/40
f 107/2/41 110/8/41 108/4/41
f 109/5/42 112/13/42 110/8/42
