# Blender 5.0.1
# www.blender.org
mtllib kelp_d.mtl
o kelp_d_blade
usemtl kelp_d_blade
v -0.102446 0.000000 0.004104
v -0.031777 0.000000 0.154637
v -0.139598 0.587817 0.028762
v -0.074482 0.587817 0.167468
v -0.139924 1.175634 0.036132
v -0.080360 1.175634 0.163010
v -0.151823 1.763451 0.048936
v -0.097812 1.763451 0.163986
v -0.229262 2.351269 0.092507
v -0.180803 2.351269 0.195730
v -0.378309 2.939086 0.169695
v -0.335403 2.939086 0.261090
v -0.537732 3.526903 0.251754
v -0.500379 3.526903 0.331322
v -0.615049 4.114720 0.295268
v -0.583248 4.114720 0.363008
v 0.032869 0.000000 -0.056457
v -0.068370 0.000000 0.002513
v 0.024058 0.492578 -0.062439
v -0.069226 0.492578 -0.008102
v 0.022040 0.985156 -0.056760
v -0.063290 0.985156 -0.007056
v 0.042642 1.477735 -0.012246
v -0.034734 1.477735 0.032824
v 0.079878 1.970313 0.060827
v 0.010457 1.970313 0.101263
v 0.106508 2.462891 0.115689
v 0.045042 2.462891 0.151493
v 0.094747 2.955469 0.104643
v 0.041235 2.955469 0.135813
v 0.041857 3.448048 0.022987
v -0.003700 3.448048 0.049523
v 0.020941 0.000000 0.178828
v -0.061654 0.000000 0.048314
v 0.007140 0.515124 0.180382
v -0.068966 0.515124 0.060123
v -0.001133 1.030249 0.178436
v -0.070749 1.030249 0.068432
v 0.031445 1.545373 0.150638
v -0.031681 1.545373 0.050888
v 0.110040 2.060498 0.093719
v 0.053402 2.060498 0.004224
v 0.198679 2.575622 0.030443
v 0.148532 2.575622 -0.048798
v 0.239566 3.090747 -0.002614
v 0.195909 3.090747 -0.071600
v 0.192322 3.605871 0.020104
v 0.155154 3.605871 -0.038627
v -0.049280 0.000000 -0.149328
v -0.077671 0.000000 -0.038432
v -0.023948 0.592399 -0.138200
v -0.050108 0.592399 -0.036018
v 0.022114 1.184798 -0.121766
v -0.001816 1.184798 -0.028296
v 0.110240 1.777197 -0.094562
v 0.088541 1.777197 -0.009805
v 0.217675 2.369596 -0.062414
v 0.198207 2.369596 0.013629
v 0.289910 2.961994 -0.039278
v 0.272672 2.961994 0.028051
v 0.285385 3.554393 -0.035795
v 0.270378 3.554393 0.022822
v 0.217866 4.146792 -0.048439
v 0.205090 4.146792 0.001465
v 0.068675 0.000000 -0.069075
v 0.167919 0.000000 -0.150430
v 0.119138 0.560011 -0.015469
v 0.210583 0.560011 -0.090432
v 0.183153 1.120022 0.054670
v 0.266801 1.120022 -0.013901
v 0.244628 1.680033 0.121709
v 0.320478 1.680033 0.059530
v 0.285396 2.240044 0.163489
v 0.353449 2.240044 0.107702
v 0.296002 2.800055 0.168475
v 0.356257 2.800055 0.119081
v 0.282873 3.360066 0.144507
v 0.335330 3.360066 0.101505
v 0.267904 3.920077 0.118294
v 0.312563 3.920077 0.081684
v -0.010907 0.000000 0.005524
v 0.111700 0.000000 0.069801
v 0.005376 0.525282 -0.013821
v 0.118349 0.525282 0.045406
v -0.002407 1.050563 0.012737
v 0.100933 1.050563 0.066914
v -0.013615 1.575845 0.045830
v 0.080091 1.575845 0.094956
v 0.010847 2.101126 0.010881
v 0.094920 2.101126 0.054957
v 0.077070 2.626408 -0.103724
v 0.151510 2.626408 -0.064699
v 0.137182 3.151689 -0.206673
v 0.201989 3.151689 -0.172698
v 0.131552 3.676971 -0.184221
v 0.186725 3.676971 -0.155296
v -0.102446 0.000000 0.004104
v -0.031777 0.000000 0.154637
v -0.139598 0.587817 0.028762
v -0.074482 0.587817 0.167468
v -0.139924 1.175634 0.036132
v -0.080360 1.175634 0.163010
v -0.151823 1.763451 0.048936
v -0.097812 1.763451 0.163986
v -0.229262 2.351269 0.092507
v -0.180803 2.351269 0.195730
v -0.378309 2.939086 0.169695
v -0.335403 2.939086 0.261090
v -0.537732 3.526903 0.251754
v -0.500379 3.526903 0.331322
v -0.615049 4.114720 0.295268
v -0.583248 4.114720 0.363008
v 0.032869 0.000000 -0.056457
v -0.068370 0.000000 0.002513
v 0.024058 0.492578 -0.062439
v -0.069226 0.492578 -0.008102
v 0.022040 0.985156 -0.056760
v -0.063290 0.985156 -0.007056
v 0.042642 1.477735 -0.012246
v -0.034734 1.477735 0.032824
v 0.079878 1.970313 0.060827
v 0.010457 1.970313 0.101263
v 0.106508 2.462891 0.115689
v 0.045042 2.462891 0.151493
v 0.094747 2.955469 0.104643
v 0.041235 2.955469 0.135813
v 0.041857 3.448048 0.022987
v -0.003700 3.448048 0.049523
v 0.020941 0.000000 0.178828
v -0.061654 0.000000 0.048314
v 0.007140 0.515124 0.180382
v -0.068966 0.515124 0.060123
v -0.001133 1.030249 0.178436
v -0.070749 1.030249 0.068432
v 0.031445 1.545373 0.150638
v -0.031681 1.545373 0.050888
v 0.110040 2.060498 0.093719
v 0.053402 2.060498 0.004224
v 0.198679 2.575622 0.030443
v 0.148532 2.575622 -0.048798
v 0.239566 3.090747 -0.002614
v 0.195909 3.090747 -0.071600
v 0.192322 3.605871 0.020104
v 0.155154 3.605871 -0.038627
v -0.049280 0.000000 -0.149328
v -0.077671 0.000000 -0.038432
v -0.023948 0.592399 -0.138200
v -0.050108 0.592399 -0.036018
v 0.022114 1.184798 -0.121766
v -0.001816 1.184798 -0.028296
v 0.110240 1.777197 -0.094562
v 0.088541 1.777197 -0.009805
v 0.217675 2.369596 -0.062414
v 0.198207 2.369596 0.013629
v 0.289910 2.961994 -0.039278
v 0.272672 2.961994 0.028051
v 0.285385 3.554393 -0.035795
v 0.270378 3.554393 0.022822
v 0.217866 4.146792 -0.048439
v 0.205090 4.146792 0.001465
v 0.068675 0.000000 -0.069075
v 0.167919 0.000000 -0.150430
v 0.119138 0.560011 -0.015469
v 0.210583 0.560011 -0.090432
v 0.183153 1.120022 0.054670
v 0.266801 1.120022 -0.013901
v 0.244628 1.680033 0.121709
v 0.320478 1.680033 0.059530
v 0.285396 2.240044 0.163489
v 0.353449 2.240044 0.107702
v 0.296002 2.800055 0.168475
v 0.356257 2.800055 0.119081
v 0.282873 3.360066 0.144507
v 0.335330 3.360066 0.101505
v 0.267904 3.920077 0.118294
v 0.312563 3.920077 0.081684
v -0.010907 0.000000 0.005524
v 0.111700 0.000000 0.069801
v 0.005376 0.525282 -0.013821
v 0.118349 0.525282 0.045406
v -0.002407 1.050563 0.012737
v 0.100933 1.050563 0.066914
v -0.013615 1.575845 0.045830
v 0.080091 1.575845 0.094956
v 0.010847 2.101126 0.010881
v 0.094920 2.101126 0.054957
v 0.077070 2.626408 -0.103724
v 0.151510 2.626408 -0.064699
v 0.137182 3.151689 -0.206673
v 0.201989 3.151689 -0.172698
v 0.131552 3.676971 -0.184221
v 0.186725 3.676971 -0.155296
vn -0.9027 -0.0748 0.4238
vn -0.9045 -0.0406 0.4246
vn -0.9051 -0.0166 0.4249
vn -0.9017 -0.0881 0.4233
vn -0.8847 -0.2117 0.4153
vn -0.8682 -0.2829 0.4076
vn -0.8828 -0.2213 0.4144
vn -0.8951 -0.1488 0.4202
vn 0.5032 0.0195 0.8639
vn 0.5033 0.0059 0.8641
vn 0.5026 -0.0531 0.8629
vn 0.4990 -0.1312 0.8566
vn 0.4981 -0.1434 0.8552
vn 0.5028 -0.0462 0.8632
vn 0.5001 0.1124 0.8586
vn 0.4938 0.1936 0.8478
vn 0.8448 0.0242 -0.5346
vn 0.8449 0.0179 -0.5347
vn 0.8445 -0.0349 -0.5344
vn 0.8375 -0.1332 -0.5300
vn 0.8287 -0.1956 -0.5244
vn 0.8349 -0.1543 -0.5284
vn 0.8450 -0.0009 -0.5348
vn 0.8407 0.1006 -0.5320
vn 0.9677 -0.0460 0.2478
vn 0.9668 -0.0639 0.2475
vn 0.9620 -0.1177 0.2463
vn 0.9547 -0.1697 0.2444
vn 0.9568 -0.1565 0.2450
vn 0.9670 -0.0609 0.2476
vn 0.9670 0.0603 0.2476
vn 0.9623 0.1149 0.2464
vn 0.6286 -0.1300 0.7668
vn 0.6269 -0.1484 0.7648
vn 0.6254 -0.1635 0.7629
vn 0.6284 -0.1319 0.7666
vn 0.6328 -0.0614 0.7719
vn 0.6339 0.0143 0.7733
vn 0.6332 0.0505 0.7724
vn 0.6331 0.0531 0.7723
vn 0.4638 -0.0470 -0.8847
vn 0.4643 0.0020 -0.8857
vn 0.4635 0.0585 -0.8842
vn 0.4643 -0.0069 -0.8856
vn 0.4582 -0.1623 -0.8739
vn 0.4516 -0.2327 -0.8614
vn 0.4624 -0.0908 -0.8820
vn 0.4639 0.0428 -0.8849
vn 0.9027 0.0748 -0.4238
vn 0.9045 0.0406 -0.4246
vn 0.9051 0.0166 -0.4249
vn 0.9017 0.0881 -0.4233
vn 0.8847 0.2117 -0.4153
vn 0.8682 0.2829 -0.4076
vn 0.8828 0.2213 -0.4144
vn 0.8951 0.1488 -0.4202
vn -0.5032 -0.0195 -0.8639
vn -0.5033 -0.0059 -0.8641
vn -0.5026 0.0531 -0.8629
vn -0.4990 0.1312 -0.8566
vn -0.4981 0.1434 -0.8552
vn -0.5028 0.0462 -0.8632
vn -0.5001 -0.1124 -0.8586
vn -0.4938 -0.1936 -0.8478
vn -0.8448 -0.0242 0.5346
vn -0.8449 -0.0179 0.5347
vn -0.8445 0.0349 0.5344
vn -0.8375 0.1332 0.5300
vn -0.8287 0.1956 0.5244
vn -0.8349 0.1543 0.5284
vn -0.8450 0.0009 0.5348
vn -0.8407 -0.1006 0.5320
vn -0.9677 0.0460 -0.2478
vn -0.9668 0.0639 -0.2475
vn -0.9620 0.1177 -0.2463
vn -0.9547 0.1697 -0.2444
vn -0.9568 0.1565 -0.2450
vn -0.9670 0.0609 -0.2476
vn -0.9670 -0.0603 -0.2476
vn -0.9623 -0.1149 -0.2464
vn -0.6286 0.1300 -0.7668
vn -0.6269 0.1484 -0.7648
vn -0.6254 0.1635 -0.7629
vn -0.6284 0.1319 -0.7666
vn -0.6328 0.0614 -0.7719
vn -0.6339 -0.0143 -0.7733
vn -0.6332 -0.0505 -0.7724
vn -0.6331 -0.0531 -0.7723
vn -0.4638 0.0470 0.8847
vn -0.4643 -0.0020 0.8857
vn -0.4635 -0.0585 0.8842
vn -0.4643 0.0069 0.8856
vn -0.4582 0.1623 0.8739
vn -0.4516 0.2327 0.8614
vn -0.4624 0.0908 0.8820
vn -0.4639 -0.0428 0.8849
vt -0.055828 0.000000
vt -0.235529 0.979695
vt -0.173609 0.000000
vt -0.127002 0.979695
vt -0.236071 1.959391
vt -0.136799 1.959391
vt -0.255904 2.939086
vt -0.304204 3.918781
vt -0.384968 3.918781
vt -0.633381 4.898476
vt -0.836830 5.878171
vt -0.899086 5.878171
vt -0.974945 6.857867
vt -1.027947 6.857867
vt 0.037232 0.820964
vt -0.116815 0.000000
vt 0.051917 0.000000
vt -0.108349 1.641927
vt -0.118243 0.820964
vt 0.068204 2.462891
vt 0.033868 1.641927
vt 0.014564 3.283855
vt -0.060755 2.462891
vt 0.174649 4.104819
vt 0.130265 3.283855
vt 0.065860 4.925782
vt 0.072204 4.104819
vt 0.155047 4.925782
vt -0.009033 5.746746
vt -0.105622 0.000000
vt 0.009034 0.858541
vt 0.032037 0.000000
vt -0.120781 1.717081
vt -0.004754 1.717081
vt 0.049543 2.575622
vt -0.055668 2.575622
vt 0.180534 3.434163
vt 0.086139 3.434163
vt 0.328267 4.292704
vt 0.323649 5.151245
vt 0.396412 5.151245
vt 0.317671 6.009785
vt -0.042778 0.987331
vt -0.132317 0.000000
vt -0.084998 0.000000
vt 0.033991 1.974663
vt -0.086379 0.987331
vt 0.180868 2.961994
vt -0.005892 1.974663
vt 0.327480 3.949326
vt 0.144703 2.961994
vt 0.480318 4.936657
vt 0.359927 3.949326
vt 0.472776 5.923989
vt 0.451588 4.936657
vt 0.360245 6.911321
vt 0.447765 5.923989
vt 0.111593 0.000000
vt 0.348106 0.933352
vt 0.195697 0.933352
vt 0.441803 1.866703
vt 0.302390 1.866703
vt 0.404847 2.800055
vt 0.586216 3.733407
vt 0.472795 3.733407
vt 0.590896 4.666759
vt 0.490472 4.666759
vt 0.468590 5.600111
vt 0.518073 6.533462
vt 0.443641 6.533462
vt 0.006095 0.875469
vt 0.183302 0.000000
vt -0.021043 0.000000
vt -0.006877 1.750939
vt 0.194384 0.875469
vt -0.025558 2.626408
vt 0.165356 1.750939
vt 0.015213 3.501877
vt 0.130620 2.626408
vt 0.125585 4.377347
vt 0.155335 3.501877
vt 0.333782 5.252815
vt 0.249651 4.377347
vt 0.216388 6.128285
vt 0.225772 5.252815
vt -0.165886 2.939086
vt -0.561871 4.898476
vt 0.066897 5.746746
vt -0.117809 0.858541
vt 0.244688 4.292704
vt 0.276999 0.000000
vt 0.531264 2.800055
vt 0.556018 5.600111
vt 0.255724 6.009785
vt 0.338951 6.911321
vt 0.308343 6.128285
s 1
f 2/1/1 3/2/2 1/3/1
f 4/4/2 5/5/3 3/2/2
f 6/6/3 7/7/4 5/5/3
f 7/7/4 10/8/5 9/9/5
f 10/8/5 11/10/6 9/9/5
f 11/10/6 14/11/7 13/12/7
f 13/12/7 16/13/8 15/14/8
f 19/15/10 18/16/9 17/17/9
f 19/15/10 22/18/11 20/19/10
f 23/20/12 22/18/11 21/21/11
f 23/20/12 26/22/13 24/23/12
f 27/24/14 26/22/13 25/25/13
f 27/24/14 30/26/15 28/27/14
f 29/28/15 32/29/16 30/26/15
f 34/30/17 35/31/18 33/32/17
f 35/31/18 38/33/19 37/34/19
f 38/33/19 39/35/20 37/34/19
f 40/36/20 41/37/21 39/35/20
f 42/38/21 43/39/22 41/37/21
f 43/39/22 46/40/23 45/41/23
f 46/40/23 47/42/24 45/41/23
f 51/43/26 50/44/25 49/45/25
f 53/46/27 52/47/26 51/43/26
f 55/48/28 54/49/27 53/46/27
f 55/48/28 58/50/29 56/51/28
f 59/52/30 58/50/29 57/53/29
f 61/54/31 60/55/30 59/52/30
f 63/56/32 62/57/31 61/54/31
f 65/58/33 68/59/34 67/60/34
f 67/60/34 70/61/35 69/62/35
f 70/61/35 71/63/36 69/62/35
f 71/63/36 74/64/37 73/65/37
f 73/65/37 76/66/38 75/67/38
f 76/66/38 77/68/39 75/67/38
f 77/68/39 80/69/40 79/70/40
f 83/71/42 82/72/41 81/73/41
f 85/74/43 84/75/42 83/71/42
f 87/76/44 86/77/43 85/74/43
f 89/78/45 88/79/44 87/76/44
f 91/80/46 90/81/45 89/78/45
f 91/80/46 94/82/47 92/83/46
f 95/84/48 94/82/47 93/85/47
f 99/2/50 98/1/49 97/3/49
f 101/5/51 100/4/50 99/2/50
f 103/7/52 102/6/51 101/5/51
f 103/7/52 106/8/53 104/86/52
f 107/10/54 106/8/53 105/9/53
f 109/12/55 108/87/54 107/10/54
f 109/12/55 112/13/56 110/11/55
f 114/16/57 115/15/58 113/17/57
f 115/15/58 118/18/59 117/21/59
f 118/18/59 119/20/60 117/21/59
f 120/23/60 121/25/61 119/20/60
f 122/22/61 123/24/62 121/25/61
f 123/24/62 126/26/63 125/28/63
f 126/26/63 127/88/64 125/28/63
f 131/31/66 130/30/65 129/32/65
f 131/31/66 134/33/67 132/89/66
f 135/35/68 134/33/67 133/34/67
f 137/37/69 136/36/68 135/35/68
f 139/39/70 138/38/69 137/37/69
f 139/39/70 142/40/71 140/90/70
f 143/42/72 142/40/71 141/41/71
f 146/44/73 147/43/74 145/45/73
f 148/47/74 149/46/75 147/43/74
f 150/49/75 151/48/76 149/46/75
f 151/48/76 154/50/77 153/53/77
f 154/50/77 155/52/78 153/53/77
f 156/55/78 157/54/79 155/52/78
f 158/57/79 159/56/80 157/54/79
f 161/58/81 164/59/82 162/91/81
f 165/62/83 164/59/82 163/60/82
f 165/62/83 168/92/84 166/61/83
f 167/63/84 170/64/85 168/92/84
f 169/65/85 172/66/86 170/64/85
f 173/68/87 172/66/86 171/67/86
f 175/70/88 174/93/87 173/68/87
f 178/72/89 179/71/90 177/73/89
f 180/75/90 181/74/91 179/71/90
f 182/77/91 183/76/92 181/74/91
f 184/79/92 185/78/93 183/76/92
f 185/78/93 188/83/94 187/80/94
f 187/80/94 190/82/95 189/85/95
f 190/82/95 191/84/96 189/85/95
f 2/1/1 4/4/2 3/2/2
f 4/4/2 6/6/3 5/5/3
f 6/6/3 8/86/4 7/7/4
f 7/7/4 8/86/4 10/8/5
f 10/8/5 12/87/6 11/10/6
f 11/10/6 12/87/6 14/11/7
f 13/12/7 14/11/7 16/13/8
f 19/15/10 20/19/10 18/16/9
f 19/15/10 21/21/11 22/18/11
f 23/20/12 24/23/12 22/18/11
f 23/20/12 25/25/13 26/22/13
f 27/24/14 28/27/14 26/22/13
f 27/24/14 29/28/15 30/26/15
f 29/28/15 31/88/16 32/29/16
f 34/30/17 36/89/18 35/31/18
f 35/31/18 36/89/18 38/33/19
f 38/33/19 40/36/20 39/35/20
f 40/36/20 42/38/21 41/37/21
f 42/38/21 44/90/22 43/39/22
f 43/39/22 44/90/22 46/40/23
f 46/40/23 48/94/24 47/42/24
f 51/43/26 52/47/26 50/44/25
f 53/46/27 54/49/27 52/47/26
f 55/48/28 56/51/28 54/49/27
f 55/48/28 57/53/29 58/50/29
f 59/52/30 60/55/30 58/50/29
f 61/54/31 62/57/31 60/55/30
f 63/56/32 64/95/32 62/57/31
f 65/58/33 66/91/33 68/59/34
f 67/60/34 68/59/34 70/61/35
f 70/61/35 72/92/36 71/63/36
f 71/63/36 72/92/36 74/64/37
f 73/65/37 74/64/37 76/66/38
f 76/66/38 78/93/39 77/68/39
f 77/68/39 78/93/39 80/69/40
f 83/71/42 84/75/42 82/72/41
f 85/74/43 86/77/43 84/75/42
f 87/76/44 88/79/44 86/77/43
f 89/78/45 90/81/45 88/79/44
f 91/80/46 92/83/46 90/81/45
f 91/80/46 93/85/47 94/82/47
f 95/84/48 96/96/48 94/82/47
f 99/2/50 100/4/50 98/1/49
f 101/5/51 102/6/51 100/4/50
f 103/7/52 104/86/52 102/6/51
f 103/7/52 105/9/53 106/8/53
f 107/10/54 108/87/54 106/8/53
f 109/12/55 110/11/55 108/87/54
f 109/12/55 111/14/56 112/13/56
f 114/16/57 116/19/58 115/15/58
f 115/15/58 116/19/58 118/18/59
f 118/18/59 120/23/60 119/20/60
f 120/23/60 122/22/61 121/25/61
f 122/22/61 124/27/62 123/24/62
f 123/24/62 124/27/62 126/26/63
f 126/26/63 128/29/64 127/88/64
f 131/31/66 132/89/66 130/30/65
f 131/31/66 133/34/67 134/33/67
f 135/35/68 136/36/68 134/33/67
f 137/37/69 138/38/69 136/36/68
f 139/39/70 140/90/70 138/38/69
f 139/39/70 141/41/71 142/40/71
f 143/42/72 144/94/72 142/40/71
f 146/44/73 148/47/74 147/43/74
f 148/47/74 150/49/75 149/46/75
f 150/49/75 152/51/76 151/48/76
f 151/48/76 152/51/76 154/50/77
f 154/50/77 156/55/78 155/52/78
f 156/55/78 158/57/79 157/54/79
f 158/57/79 160/95/80 159/56/80
f 161/58/81 163/60/82 164/59/82
f 165/62/83 166/61/83 164/59/82
f 165/62/83 167/63/84 168/92/84
f 167/63/84 169/65/85 170/64/85
f 169/65/85 171/67/86 172/66/86
f 173/68/87 174/93/87 172/66/86
f 175/70/88 176/69/88 174/93/87
f 178/72/89 180/75/90 179/71/90
f 180/75/90 182/77/91 181/74/91
f 182/77/91 184/79/92 183/76/92
f 184/79/92 186/81/93 185/78/93
f 185/78/93 186/81/93 188/83/94
f 187/80/94 188/83/94 190/82/95
f 190/82/95 192/96/96 191/84/96
