# Blender 5.0.1
# www.blender.org
mtllib kelp_j.mtl
o kelp_j_blade
usemtl kelp_j_blade
v 0.012041 0.000000 -0.062828
v 0.071763 0.000000 0.091319
v -0.007517 0.195175 -0.048286
v 0.047513 0.195175 0.093750
v 0.009686 0.390349 -0.047986
v 0.060023 0.390349 0.081938
v 0.066293 0.585524 -0.062953
v 0.111938 0.585524 0.054860
v 0.132733 0.780699 -0.081729
v 0.173685 0.780699 0.023972
v 0.162212 0.975874 -0.086186
v 0.198472 0.975874 0.007404
v 0.118396 1.171048 -0.062245
v 0.149963 1.171048 0.019233
v 0.000802 1.366223 -0.009720
v 0.027677 1.366223 0.059646
v -0.122585 0.000000 -0.009496
v 0.038782 0.000000 -0.018995
v -0.116860 0.206556 -0.020315
v 0.031827 0.206556 -0.029068
v -0.111613 0.413112 -0.039236
v 0.024396 0.413112 -0.047242
v -0.104454 0.619667 -0.025698
v 0.018876 0.619667 -0.032958
v -0.093941 0.826223 0.044843
v 0.016711 0.826223 0.038330
v -0.080754 1.032779 0.160791
v 0.017218 1.032779 0.155023
v -0.067690 1.239335 0.274658
v 0.017604 1.239335 0.269637
v -0.058332 1.445890 0.325556
v 0.014282 1.445890 0.321281
v 0.036137 0.387434 0.048451
v -0.021316 0.387434 0.142458
v 0.158183 0.544938 0.134338
v 0.110784 0.544938 0.211894
v 0.280229 0.626380 0.220226
v 0.242884 0.626380 0.281330
v 0.402274 0.599781 0.306113
v 0.374984 0.599781 0.350766
v 0.524320 0.477841 0.392000
v 0.507084 0.477841 0.420202
v 0.185794 0.517431 0.099246
v 0.063797 0.517431 0.056527
v 0.114177 0.780101 0.269546
v 0.013530 0.780101 0.234303
v 0.042560 0.918075 0.439846
v -0.036738 0.918075 0.412078
v -0.029057 0.878201 0.610146
v -0.087005 0.878201 0.589854
v -0.100674 0.681586 0.780445
v -0.137273 0.681586 0.767630
v -0.056407 0.580931 -0.058926
v 0.027073 0.580931 -0.014375
v 0.033980 0.825978 -0.210709
v 0.102851 0.825978 -0.173954
v 0.124367 0.982112 -0.362492
v 0.178629 0.982112 -0.333534
v 0.214755 1.001991 -0.514275
v 0.254407 1.001991 -0.493113
v 0.305142 0.904415 -0.666058
v 0.330186 0.904415 -0.652693
v -0.052227 0.535595 0.072411
v 0.062283 0.535595 0.056566
v -0.058696 0.661270 -0.048138
v 0.035775 0.661270 -0.061210
v -0.065165 0.735545 -0.168687
v 0.009267 0.735545 -0.178986
v -0.071634 0.733664 -0.289236
v -0.017242 0.733664 -0.296762
v -0.078103 0.665457 -0.409785
v -0.043750 0.665457 -0.414538
v 0.012041 0.000000 -0.062828
v 0.071763 0.000000 0.091319
v -0.007517 0.195175 -0.048286
v 0.047513 0.195175 0.093750
v 0.009686 0.390349 -0.047986
v 0.060023 0.390349 0.081938
v 0.066293 0.585524 -0.062953
v 0.111938 0.585524 0.054860
v 0.132733 0.780699 -0.081729
v 0.173685 0.780699 0.023972
v 0.162212 0.975874 -0.086186
v 0.198472 0.975874 0.007404
v 0.118396 1.171048 -0.062245
v 0.149963 1.171048 0.019233
v 0.000802 1.366223 -0.009720
v 0.027677 1.366223 0.059646
v -0.122585 0.000000 -0.009496
v 0.038782 0.000000 -0.018995
v -0.116860 0.206556 -0.020315
v 0.031827 0.206556 -0.029068
v -0.111613 0.413112 -0.039236
v 0.024396 0.413112 -0.047242
v -0.104454 0.619667 -0.025698
v 0.018876 0.619667 -0.032958
v -0.093941 0.826223 0.044843
v 0.016711 0.826223 0.038330
v -0.080754 1.032779 0.160791
v 0.017218 1.032779 0.155023
v -0.067690 1.239335 0.274658
v 0.017604 1.239335 0.269637
v -0.058332 1.445890 0.325556
v 0.014282 1.445890 0.321281
v 0.036137 0.387434 0.048451
v -0.021316 0.387434 0.142458
v 0.158183 0.544938 0.134338
v 0.110784 0.544938 0.211894
v 0.280229 0.626380 0.220226
v 0.242884 0.626380 0.281330
v 0.402274 0.599781 0.306113
v 0.374984 0.599781 0.350766
v 0.524320 0.477841 0.392000
v 0.507084 0.477841 0.420202
v 0.185794 0.517431 0.099246
v 0.063797 0.517431 0.056527
v 0.114177 0.780101 0.269546
v 0.013530 0.780101 0.234303
v 0.042560 0.918075 0.439846
v -0.036738 0.918075 0.412078
v -0.029057 0.878201 0.610146
v -0.087005 0.878201 0.589854
v -0.100674 0.681586 0.780445
v -0.137273 0.681586 0.767630
v -0.056407 0.580931 -0.058926
v 0.027073 0.580931 -0.014375
v 0.033980 0.825978 -0.210709
v 0.102851 0.825978 -0.173954
v 0.124367 0.982112 -0.362492
v 0.178629 0.982112 -0.333534
v 0.214755 1.001991 -0.514275
v 0.254407 1.001991 -0.493113
v 0.305142 0.904415 -0.666058
v 0.330186 0.904415 -0.652693
v -0.052227 0.535595 0.072411
v 0.062283 0.535595 0.056566
v -0.058696 0.661270 -0.048138
v 0.035775 0.661270 -0.061210
v -0.065165 0.735545 -0.168687
v 0.009267 0.735545 -0.178986
v -0.071634 0.733664 -0.289236
v -0.017242 0.733664 -0.296762
v -0.078103 0.665457 -0.409785
v -0.043750 0.665457 -0.414538
vn 0.9258 0.1195 -0.3587
vn 0.9323 0.0213 -0.3612
vn 0.9168 -0.1824 -0.3552
vn 0.8870 -0.3086 -0.3436
vn 0.9046 -0.2428 -0.3505
vn 0.9315 0.0460 -0.3609
vn 0.8543 0.4007 -0.3310
vn 0.8543 0.4008 -0.3310
vn 0.7786 0.5503 -0.3017
vn -0.0587 -0.0506 -0.9970
vn -0.0586 -0.0697 -0.9958
vn -0.0588 -0.0127 -0.9982
vn -0.0576 0.1955 -0.9790
vn -0.0536 0.4085 -0.9112
vn -0.0513 0.4880 -0.8713
vn -0.0546 0.3683 -0.9281
vn -0.0570 0.2413 -0.9688
vn -0.6200 0.6870 -0.3789
vn -0.5245 0.7888 -0.3206
vn -0.1489 0.9847 -0.0910
vn 0.3495 0.9123 0.2136
vn 0.5406 0.7737 0.3304
vn 0.2705 0.5746 -0.7725
vn 0.2382 0.6932 -0.6802
vn 0.0755 0.9735 -0.2157
vn -0.1599 0.8751 0.4568
vn -0.2411 0.6841 0.6884
vn -0.3821 0.5844 0.7159
vn -0.3499 0.6691 0.6556
vn -0.1948 0.9104 0.3650
vn 0.0878 0.9825 -0.1645
vn 0.2278 0.8751 -0.4269
vn 0.0990 0.6915 0.7156
vn 0.0868 0.7741 0.6271
vn 0.0383 0.9602 0.2768
vn -0.0343 0.9682 -0.2480
vn -0.0343 0.9682 -0.2479
vn -0.0676 0.8699 -0.4886
vn -0.9258 -0.1195 0.3587
vn -0.9323 -0.0213 0.3612
vn -0.9168 0.1824 0.3552
vn -0.8870 0.3086 0.3436
vn -0.9046 0.2428 0.3505
vn -0.9315 -0.0460 0.3609
vn -0.8543 -0.4008 0.3310
vn -0.8543 -0.4007 0.3310
vn -0.7786 -0.5503 0.3017
vn 0.0587 0.0506 0.9970
vn 0.0586 0.0697 0.9958
vn 0.0588 0.0127 0.9982
vn 0.0576 -0.1955 0.9790
vn 0.0536 -0.4085 0.9112
vn 0.0513 -0.4880 0.8713
vn 0.0546 -0.3683 0.9281
vn 0.0570 -0.2413 0.9688
vn 0.6200 -0.6870 0.3789
vn 0.5245 -0.7888 0.3206
vn 0.1489 -0.9847 0.0910
vn -0.3495 -0.9123 -0.2136
vn -0.5406 -0.7737 -0.3304
vn -0.2705 -0.5746 0.7725
vn -0.2382 -0.6932 0.6802
vn -0.0755 -0.9735 0.2157
vn 0.1599 -0.8751 -0.4568
vn 0.2411 -0.6841 -0.6884
vn 0.3821 -0.5844 -0.7159
vn 0.3499 -0.6691 -0.6556
vn 0.1948 -0.9104 -0.3650
vn -0.0878 -0.9825 0.1645
vn -0.2278 -0.8751 0.4269
vn -0.0990 -0.6915 -0.7156
vn -0.0868 -0.7741 -0.6271
vn -0.0383 -0.9602 -0.2768
vn 0.0343 -0.9682 0.2480
vn 0.0343 -0.9682 0.2479
vn 0.0676 -0.8699 0.4886
vt -0.056462 0.325291
vt 0.075671 0.000000
vt -0.023866 0.000000
vt 0.056104 0.650582
vt 0.035254 0.325291
vt 0.066555 0.975874
vt -0.027791 0.650582
vt 0.245541 1.301165
vt 0.142629 0.975874
vt 0.226420 1.626456
vt 0.177288 1.301165
vt 0.153392 1.951747
vt 0.286853 1.626456
vt 0.002195 2.277039
vt 0.206004 1.951747
vt -0.248241 0.000000
vt 0.009112 0.344260
vt 0.020702 0.000000
vt -0.229955 0.688519
vt -0.238701 0.344260
vt -0.218024 1.032779
vt -0.003274 0.688519
vt -0.016083 1.377038
vt -0.012474 1.032779
vt -0.178524 1.721298
vt -0.200501 1.377038
vt -0.156750 2.065558
vt -0.015236 1.721298
vt -0.020130 2.409817
vt -0.014594 2.065558
vt -0.079460 0.645724
vt 0.219704 0.908231
vt 0.016295 0.645724
vt 0.140707 0.908231
vt 0.423114 1.043966
vt 0.360873 1.043966
vt 0.626524 0.999635
vt 0.581040 0.999635
vt 0.829934 0.796402
vt 0.062395 0.862384
vt 0.146361 1.300169
vt 0.265723 0.862384
vt -0.021384 1.300169
vt 0.027000 1.530126
vt -0.188943 1.463669
vt -0.092362 1.463669
vt -0.211723 1.135977
vt 0.001187 0.968218
vt 0.012700 1.376629
vt -0.137946 0.968218
vt 0.253781 1.636854
vt 0.163345 1.636854
vt 0.380079 1.669985
vt 0.313991 1.669985
vt 0.506376 1.507358
vt 0.464636 1.507358
vt 0.059872 0.892658
vt -0.141760 1.102117
vt -0.130978 0.892658
vt 0.015691 1.102117
vt -0.152542 1.225909
vt -0.028489 1.225909
vt -0.163323 1.222773
vt -0.072670 1.222773
vt -0.174105 1.109095
vt -0.042597 2.277039
vt -0.141154 2.409817
vt -0.105163 1.530126
vt 0.127484 1.376629
vt 0.801207 0.796402
vt -0.272722 1.135977
vt -0.116850 1.109095
s 1
f 3/1/2 2/2/1 1/3/1
f 3/1/2 6/4/3 4/5/2
f 7/6/4 6/4/3 5/7/3
f 7/6/4 10/8/5 8/9/4
f 11/10/6 10/8/5 9/11/5
f 13/12/7 12/13/6 11/10/6
f 13/12/7 16/14/9 14/15/8
f 17/16/10 20/17/11 18/18/10
f 21/19/12 20/17/11 19/20/11
f 23/21/13 22/22/12 21/19/12
f 23/21/13 26/23/14 24/24/13
f 27/25/15 26/23/14 25/26/14
f 29/27/16 28/28/15 27/25/15
f 29/27/16 32/29/17 30/30/16
f 34/31/18 35/32/19 33/33/18
f 36/34/19 37/35/20 35/32/19
f 38/36/20 39/37/21 37/35/20
f 40/38/21 41/39/22 39/37/21
f 44/40/23 45/41/24 43/42/23
f 46/43/24 47/44/25 45/41/24
f 47/44/25 50/45/26 49/46/26
f 50/45/26 51/47/27 49/46/26
f 54/48/28 55/49/29 53/50/28
f 55/49/29 58/51/30 57/52/30
f 57/52/30 60/53/31 59/54/31
f 59/54/31 62/55/32 61/56/32
f 64/57/33 65/58/34 63/59/33
f 66/60/34 67/61/35 65/58/34
f 68/62/35 69/63/36 67/61/35
f 70/64/37 71/65/38 69/63/36
f 73/3/39 76/5/40 75/1/40
f 75/1/40 78/4/41 77/7/41
f 78/4/41 79/6/42 77/7/41
f 80/9/42 81/11/43 79/6/42
f 82/8/43 83/10/44 81/11/43
f 84/13/44 85/12/45 83/10/44
f 86/15/46 87/66/47 85/12/45
f 90/18/48 91/20/49 89/16/48
f 92/17/49 93/19/50 91/20/49
f 94/22/50 95/21/51 93/19/50
f 95/21/51 98/23/52 97/26/52
f 98/23/52 99/25/53 97/26/52
f 99/25/53 102/30/54 101/27/54
f 101/27/54 104/29/55 103/67/55
f 105/33/56 108/34/57 106/31/56
f 109/35/58 108/34/57 107/32/57
f 111/37/59 110/36/58 109/35/58
f 113/39/60 112/38/59 111/37/59
f 117/41/62 116/40/61 115/42/61
f 119/44/63 118/43/62 117/41/62
f 119/44/63 122/45/64 120/68/63
f 123/47/65 122/45/64 121/46/64
f 125/50/66 128/69/67 126/48/66
f 129/52/68 128/69/67 127/49/67
f 129/52/68 132/53/69 130/51/68
f 131/54/69 134/55/70 132/53/69
f 137/58/72 136/57/71 135/59/71
f 139/61/73 138/60/72 137/58/72
f 141/63/74 140/62/73 139/61/73
f 143/65/76 142/64/75 141/63/74
f 3/1/2 4/5/2 2/2/1
f 3/1/2 5/7/3 6/4/3
f 7/6/4 8/9/4 6/4/3
f 7/6/4 9/11/5 10/8/5
f 11/10/6 12/13/6 10/8/5
f 13/12/7 14/15/8 12/13/6
f 13/12/7 15/66/9 16/14/9
f 17/16/10 19/20/11 20/17/11
f 21/19/12 22/22/12 20/17/11
f 23/21/13 24/24/13 22/22/12
f 23/21/13 25/26/14 26/23/14
f 27/25/15 28/28/15 26/23/14
f 29/27/16 30/30/16 28/28/15
f 29/27/16 31/67/17 32/29/17
f 34/31/18 36/34/19 35/32/19
f 36/34/19 38/36/20 37/35/20
f 38/36/20 40/38/21 39/37/21
f 40/38/21 42/70/22 41/39/22
f 44/40/23 46/43/24 45/41/24
f 46/43/24 48/68/25 47/44/25
f 47/44/25 48/68/25 50/45/26
f 50/45/26 52/71/27 51/47/27
f 54/48/28 56/69/29 55/49/29
f 55/49/29 56/69/29 58/51/30
f 57/52/30 58/51/30 60/53/31
f 59/54/31 60/53/31 62/55/32
f 64/57/33 66/60/34 65/58/34
f 66/60/34 68/62/35 67/61/35
f 68/62/35 70/64/37 69/63/36
f 70/64/37 72/72/38 71/65/38
f 73/3/39 74/2/39 76/5/40
f 75/1/40 76/5/40 78/4/41
f 78/4/41 80/9/42 79/6/42
f 80/9/42 82/8/43 81/11/43
f 82/8/43 84/13/44 83/10/44
f 84/13/44 86/15/46 85/12/45
f 86/15/46 88/14/47 87/66/47
f 90/18/48 92/17/49 91/20/49
f 92/17/49 94/22/50 93/19/50
f 94/22/50 96/24/51 95/21/51
f 95/21/51 96/24/51 98/23/52
f 98/23/52 100/28/53 99/25/53
f 99/25/53 100/28/53 102/30/54
f 101/27/54 102/30/54 104/29/55
f 105/33/56 107/32/57 108/34/57
f 109/35/58 110/36/58 108/34/57
f 111/37/59 112/38/59 110/36/58
f 113/39/60 114/70/60 112/38/59
f 117/41/62 118/43/62 116/40/61
f 119/44/63 120/68/63 118/43/62
f 119/44/63 121/46/64 122/45/64
f 123/47/65 124/71/65 122/45/64
f 125/50/66 127/49/67 128/69/67
f 129/52/68 130/51/68 128/69/67
f 129/52/68 131/54/69 132/53/69
f 131/54/69 133/56/70 134/55/70
f 137/58/72 138/60/72 136/57/71
f 139/61/73 140/62/73 138/60/72
f 141/63/74 142/64/75 140/62/73
f 143/65/76 144/72/76 142/64/75
