# Blender 5.0.1
# www.blender.org
mtllib kelp_b.mtl
o kelp_b_blade
usemtl kelp_b_blade
v -0.002795 0.000000 -0.040559
v -0.119630 0.000000 -0.092585
v -0.002942 0.431017 -0.052581
v -0.110597 0.431017 -0.100519
v -0.017175 0.862034 -0.032969
v -0.115650 0.862034 -0.076819
v -0.048331 1.293051 0.024646
v -0.137626 1.293051 -0.015116
v -0.079023 1.724069 0.081221
v -0.159138 1.724069 0.045546
v -0.084649 2.155086 0.081504
v -0.155585 2.155086 0.049917
v -0.055715 2.586103 0.004175
v -0.117471 2.586103 -0.023325
v -0.011077 3.017120 -0.108422
v -0.063652 3.017120 -0.131834
v 0.081201 0.000000 0.033378
v -0.043170 0.000000 0.009523
v 0.073244 0.523813 0.048452
v -0.041355 0.523813 0.026471
v 0.063568 1.047625 0.072489
v -0.041259 1.047625 0.052383
v 0.058260 1.571438 0.073750
v -0.036795 1.571438 0.055518
v 0.061416 2.095251 0.030885
v -0.023867 2.095251 0.014528
v 0.071877 2.619063 -0.050066
v -0.003634 2.619063 -0.064550
v 0.082911 3.142876 -0.134005
v 0.017172 3.142876 -0.146614
v 0.085314 3.666688 -0.172941
v 0.029347 3.666688 -0.183676
v 0.161460 0.000000 0.140600
v 0.155393 0.000000 0.035522
v 0.154049 0.501186 0.136886
v 0.148458 0.501186 0.040065
v 0.131439 1.002373 0.134050
v 0.126325 1.002373 0.045484
v 0.123344 1.503559 0.130375
v 0.118707 1.503559 0.050066
v 0.155047 2.004746 0.124403
v 0.150887 2.004746 0.052350
v 0.226273 2.505932 0.116149
v 0.222589 2.505932 0.052352
v 0.305428 3.007119 0.107437
v 0.302221 3.007119 0.051896
v 0.344814 3.508305 0.101021
v 0.342083 3.508305 0.053736
v 0.016498 0.000000 0.012614
v -0.106860 0.000000 0.054456
v 0.000380 0.504748 -0.018976
v -0.113286 0.504748 0.019578
v -0.026723 1.009496 -0.082948
v -0.130696 1.009496 -0.047682
v -0.059481 1.514243 -0.163594
v -0.153762 1.514243 -0.131615
v -0.085994 2.018991 -0.225830
v -0.170582 2.018991 -0.197138
v -0.095349 2.523739 -0.237480
v -0.170245 2.523739 -0.212077
v -0.085528 3.028487 -0.192592
v -0.150731 3.028487 -0.170476
v -0.066800 3.533235 -0.121446
v -0.122311 3.533235 -0.102617
v -0.072602 0.000000 -0.127338
v -0.069495 0.000000 -0.025611
v -0.083035 0.411297 -0.123019
v -0.080172 0.411297 -0.029285
v -0.101402 0.822594 -0.118458
v -0.098783 0.822594 -0.032717
v -0.073029 1.233890 -0.115324
v -0.070654 1.233890 -0.037576
v 0.003234 1.645187 -0.113654
v 0.005365 1.645187 -0.043899
v 0.052281 2.056484 -0.111152
v 0.054168 2.056484 -0.049389
v 0.000975 2.467781 -0.105585
v 0.002617 2.467781 -0.051815
v -0.123352 2.879077 -0.097787
v -0.121954 2.879077 -0.052010
v -0.002795 0.000000 -0.040559
v -0.119630 0.000000 -0.092585
v -0.002942 0.431017 -0.052581
v -0.110597 0.431017 -0.100519
v -0.017175 0.862034 -0.032969
v -0.115650 0.862034 -0.076819
v -0.048331 1.293051 0.024646
v -0.137626 1.293051 -0.015116
v -0.079023 1.724069 0.081221
v -0.159138 1.724069 0.045546
v -0.084649 2.155086 0.081504
v -0.155585 2.155086 0.049917
v -0.055715 2.586103 0.004175
v -0.117471 2.586103 -0.023325
v -0.011077 3.017120 -0.108422
v -0.063652 3.017120 -0.131834
v 0.081201 0.000000 0.033378
v -0.043170 0.000000 0.009523
v 0.073244 0.523813 0.048452
v -0.041355 0.523813 0.026471
v 0.063568 1.047625 0.072489
v -0.041259 1.047625 0.052383
v 0.058260 1.571438 0.073750
v -0.036795 1.571438 0.055518
v 0.061416 2.095251 0.030885
v -0.023867 2.095251 0.014528
v 0.071877 2.619063 -0.050066
v -0.003634 2.619063 -0.064550
v 0.082911 3.142876 -0.134005
v 0.017172 3.142876 -0.146614
v 0.085314 3.666688 -0.172941
v 0.029347 3.666688 -0.183676
v 0.161460 0.000000 0.140600
v 0.155393 0.000000 0.035522
v 0.154049 0.501186 0.136886
v 0.148458 0.501186 0.040065
v 0.131439 1.002373 0.134050
v 0.126325 1.002373 0.045484
v 0.123344 1.503559 0.130375
v 0.118707 1.503559 0.050066
v 0.155047 2.004746 0.124403
v 0.150887 2.004746 0.052350
v 0.226273 2.505932 0.116149
v 0.222589 2.505932 0.052352
v 0.305428 3.007119 0.107437
v 0.302221 3.007119 0.051896
v 0.344814 3.508305 0.101021
v 0.342083 3.508305 0.053736
v 0.016498 0.000000 0.012614
v -0.106860 0.000000 0.054456
v 0.000380 0.504748 -0.018976
v -0.113286 0.504748 0.019578
v -0.026723 1.009496 -0.082948
v -0.130696 1.009496 -0.047682
v -0.059481 1.514243 -0.163594
v -0.153762 1.514243 -0.131615
v -0.085994 2.018991 -0.225830
v -0.170582 2.018991 -0.197138
v -0.095349 2.523739 -0.237480
v -0.170245 2.523739 -0.212077
v -0.085528 3.028487 -0.192592
v -0.150731 3.028487 -0.170476
v -0.066800 3.533235 -0.121446
v -0.122311 3.533235 -0.102617
v -0.072602 0.000000 -0.127338
v -0.069495 0.000000 -0.025611
v -0.083035 0.411297 -0.123019
v -0.080172 0.411297 -0.029285
v -0.101402 0.822594 -0.118458
v -0.098783 0.822594 -0.032717
v -0.073029 1.233890 -0.115324
v -0.070654 1.233890 -0.037576
v 0.003234 1.645187 -0.113654
v 0.005365 1.645187 -0.043899
v 0.052281 2.056484 -0.111152
v 0.054168 2.056484 -0.049389
v 0.000975 2.467781 -0.105585
v 0.002617 2.467781 -0.051815
v -0.123352 2.879077 -0.097787
v -0.121954 2.879077 -0.052010
vn -0.4067 0.0253 0.9132
vn -0.4067 -0.0145 0.9134
vn -0.4047 -0.1021 0.9087
vn -0.4023 -0.1485 0.9034
vn -0.4056 -0.0773 0.9108
vn -0.4051 0.0907 0.9098
vn -0.3960 0.2290 0.8893
vn -0.3916 0.2703 0.8795
vn -0.1883 -0.0311 0.9816
vn -0.1882 -0.0397 0.9813
vn -0.1883 -0.0265 0.9818
vn -0.1882 0.0383 0.9814
vn -0.1871 0.1173 0.9753
vn -0.1861 0.1565 0.9700
vn -0.1871 0.1168 0.9754
vn -0.1879 0.0737 0.9794
vn 0.9982 0.0143 -0.0576
vn 0.9979 0.0294 -0.0576
vn 0.9979 0.0303 -0.0576
vn 0.9981 -0.0238 -0.0576
vn 0.9931 -0.1024 -0.0573
vn 0.9872 -0.1490 -0.0570
vn 0.9913 -0.1181 -0.0572
vn 0.9952 -0.0789 -0.0575
vn -0.3204 -0.0694 -0.9447
vn -0.3195 -0.1025 -0.9420
vn -0.3174 -0.1527 -0.9359
vn -0.3175 -0.1512 -0.9361
vn -0.3202 -0.0806 -0.9439
vn -0.3211 0.0308 -0.9466
vn -0.3190 0.1169 -0.9405
vn -0.3179 0.1439 -0.9372
vn 0.9992 0.0257 -0.0305
vn 0.9989 0.0352 -0.0305
vn 0.9995 -0.0115 -0.0305
vn 0.9917 -0.1252 -0.0303
vn 0.9882 -0.1504 -0.0302
vn 0.9995 0.0023 -0.0305
vn 0.9778 0.2072 -0.0299
vn 0.9567 0.2897 -0.0292
vn 0.4067 -0.0253 -0.9132
vn 0.4067 0.0145 -0.9134
vn 0.4047 0.1021 -0.9087
vn 0.4023 0.1485 -0.9034
vn 0.4056 0.0773 -0.9108
vn 0.4051 -0.0907 -0.9098
vn 0.3960 -0.2290 -0.8893
vn 0.3916 -0.2703 -0.8795
vn 0.1883 0.0311 -0.9816
vn 0.1882 0.0397 -0.9813
vn 0.1883 0.0265 -0.9818
vn 0.1882 -0.0383 -0.9814
vn 0.1871 -0.1173 -0.9753
vn 0.1861 -0.1565 -0.9700
vn 0.1871 -0.1168 -0.9754
vn 0.1879 -0.0737 -0.9794
vn -0.9982 -0.0143 0.0576
vn -0.9979 -0.0294 0.0576
vn -0.9979 -0.0303 0.0576
vn -0.9981 0.0238 0.0576
vn -0.9931 0.1024 0.0573
vn -0.9872 0.1490 0.0570
vn -0.9913 0.1181 0.0572
vn -0.9952 0.0789 0.0575
vn 0.3204 0.0694 0.9447
vn 0.3195 0.1025 0.9420
vn 0.3174 0.1527 0.9359
vn 0.3175 0.1512 0.9361
vn 0.3202 0.0806 0.9439
vn 0.3211 -0.0308 0.9466
vn 0.3190 -0.1169 0.9405
vn 0.3179 -0.1439 0.9372
vn -0.9992 -0.0257 0.0305
vn -0.9989 -0.0352 0.0305
vn -0.9995 0.0115 0.0305
vn -0.9917 0.1252 0.0303
vn -0.9882 0.1504 0.0302
vn -0.9995 -0.0023 0.0305
vn -0.9778 -0.2072 0.0299
vn -0.9567 -0.2897 0.0292
vt -0.080161 0.000000
vt -0.259832 0.718362
vt -0.274887 0.000000
vt -0.104128 1.436724
vt -0.080406 0.718362
vt -0.156054 2.155086
vt -0.268254 1.436724
vt -0.207208 2.873448
vt -0.304880 2.155086
vt -0.216585 3.591810
vt -0.340734 2.873448
vt -0.271288 4.310172
vt -0.334811 3.591810
vt -0.093964 5.028533
vt -0.168362 4.310172
vt 0.046570 0.873021
vt -0.147453 0.000000
vt 0.059832 0.000000
vt 0.030443 1.746042
vt -0.144428 0.873021
vt -0.136828 2.619063
vt -0.144268 1.746042
vt 0.026857 3.492084
vt 0.021597 2.619063
vt 0.044292 4.365105
vt -0.115281 3.492084
vt 0.062682 5.238127
vt -0.081559 4.365105
vt 0.066686 6.111147
vt -0.046883 5.238127
vt 0.183485 0.000000
vt 0.181245 0.835311
vt 0.193597 0.000000
vt 0.135039 1.670621
vt 0.143561 1.670621
vt 0.130069 2.505932
vt 0.175974 3.341243
vt 0.182908 3.341243
vt 0.301618 4.176554
vt 0.428199 5.011865
vt 0.433544 5.011865
vt 0.499186 5.847175
vt -0.253604 0.000000
vt -0.074871 0.841246
vt -0.048006 0.000000
vt -0.293330 1.682493
vt -0.120041 1.682493
vt -0.331773 2.523739
vt -0.174638 2.523739
vt -0.359807 3.364986
vt -0.218826 3.364986
vt -0.359246 4.206232
vt -0.234419 4.206232
vt -0.326722 5.047478
vt -0.218049 5.047478
vt -0.186836 5.888725
vt -0.213895 0.685495
vt -0.191328 0.000000
vt -0.196507 0.000000
vt -0.244507 1.370989
vt -0.209123 0.685495
vt -0.197218 2.056484
vt -0.240141 1.370989
vt -0.070113 2.741979
vt -0.193259 2.056484
vt 0.014776 3.427473
vt -0.066562 2.741979
vt -0.073879 4.112968
vt 0.011632 3.427473
vt -0.281090 4.798462
vt -0.071141 4.112968
vt 0.171927 0.835311
vt 0.122341 2.505932
vt 0.295479 4.176554
vt -0.264314 0.841246
vt -0.278759 4.798462
vt -0.181591 5.028533
vt -0.026592 6.111147
vt 0.494636 5.847175
vt -0.279355 5.888725
s 1
f 1/1/1 4/2/2 2/3/1
f 5/4/3 4/2/2 3/5/2
f 7/6/4 6/7/3 5/4/3
f 9/8/5 8/9/4 7/6/4
f 11/10/6 10/11/5 9/8/5
f 11/10/6 14/12/7 12/13/6
f 15/14/8 14/12/7 13/15/7
f 19/16/10 18/17/9 17/18/9
f 21/19/11 20/20/10 19/16/10
f 21/19/11 24/21/12 22/22/11
f 25/23/13 24/21/12 23/24/12
f 27/25/14 26/26/13 25/23/13
f 29/27/15 28/28/14 27/25/14
f 31/29/16 30/30/15 29/27/15
f 34/31/17 35/32/18 33/33/17
f 35/32/18 38/34/19 37/35/19
f 38/34/19 39/36/20 37/35/19
f 39/36/20 42/37/21 41/38/21
f 42/37/21 43/39/22 41/38/21
f 43/39/22 46/40/23 45/41/23
f 46/40/23 47/42/24 45/41/23
f 50/43/25 51/44/26 49/45/25
f 51/44/26 54/46/27 53/47/27
f 53/47/27 56/48/28 55/49/28
f 55/49/28 58/50/29 57/51/29
f 57/51/29 60/52/30 59/53/30
f 59/53/30 62/54/31 61/55/31
f 62/54/31 63/56/32 61/55/31
f 67/57/34 66/58/33 65/59/33
f 69/60/35 68/61/34 67/57/34
f 71/62/36 70/63/35 69/60/35
f 73/64/37 72/65/36 71/62/36
f 73/64/37 76/66/38 74/67/37
f 77/68/39 76/66/38 75/69/38
f 79/70/40 78/71/39 77/68/39
f 82/3/41 83/5/42 81/1/41
f 84/2/42 85/4/43 83/5/42
f 86/7/43 87/6/44 85/4/43
f 88/9/44 89/8/45 87/6/44
f 90/11/45 91/10/46 89/8/45
f 92/13/46 93/15/47 91/10/46
f 94/12/47 95/14/48 93/15/47
f 98/17/49 99/16/50 97/18/49
f 99/16/50 102/22/51 101/19/51
f 101/19/51 104/21/52 103/24/52
f 104/21/52 105/23/53 103/24/52
f 106/26/53 107/25/54 105/23/53
f 108/28/54 109/27/55 107/25/54
f 110/30/55 111/29/56 109/27/55
f 115/32/58 114/31/57 113/33/57
f 117/35/59 116/72/58 115/32/58
f 119/36/60 118/34/59 117/35/59
f 121/38/61 120/73/60 119/36/60
f 123/39/62 122/37/61 121/38/61
f 123/39/62 126/40/63 124/74/62
f 127/42/64 126/40/63 125/41/63
f 131/44/66 130/43/65 129/45/65
f 131/44/66 134/46/67 132/75/66
f 135/49/68 134/46/67 133/47/67
f 137/51/69 136/48/68 135/49/68
f 137/51/69 140/52/70 138/50/69
f 139/53/70 142/54/71 140/52/70
f 143/56/72 142/54/71 141/55/71
f 146/58/73 147/57/74 145/59/73
f 148/61/74 149/60/75 147/57/74
f 150/63/75 151/62/76 149/60/75
f 152/65/76 153/64/77 151/62/76
f 153/64/77 156/66/78 155/69/78
f 156/66/78 157/68/79 155/69/78
f 157/68/79 160/76/80 159/70/80
f 1/1/1 3/5/2 4/2/2
f 5/4/3 6/7/3 4/2/2
f 7/6/4 8/9/4 6/7/3
f 9/8/5 10/11/5 8/9/4
f 11/10/6 12/13/6 10/11/5
f 11/10/6 13/15/7 14/12/7
f 15/14/8 16/77/8 14/12/7
f 19/16/10 20/20/10 18/17/9
f 21/19/11 22/22/11 20/20/10
f 21/19/11 23/24/12 24/21/12
f 25/23/13 26/26/13 24/21/12
f 27/25/14 28/28/14 26/26/13
f 29/27/15 30/30/15 28/28/14
f 31/29/16 32/78/16 30/30/15
f 34/31/17 36/72/18 35/32/18
f 35/32/18 36/72/18 38/34/19
f 38/34/19 40/73/20 39/36/20
f 39/36/20 40/73/20 42/37/21
f 42/37/21 44/74/22 43/39/22
f 43/39/22 44/74/22 46/40/23
f 46/40/23 48/79/24 47/42/24
f 50/43/25 52/75/26 51/44/26
f 51/44/26 52/75/26 54/46/27
f 53/47/27 54/46/27 56/48/28
f 55/49/28 56/48/28 58/50/29
f 57/51/29 58/50/29 60/52/30
f 59/53/30 60/52/30 62/54/31
f 62/54/31 64/80/32 63/56/32
f 67/57/34 68/61/34 66/58/33
f 69/60/35 70/63/35 68/61/34
f 71/62/36 72/65/36 70/63/35
f 73/64/37 74/67/37 72/65/36
f 73/64/37 75/69/38 76/66/38
f 77/68/39 78/71/39 76/66/38
f 79/70/40 80/76/40 78/71/39
f 82/3/41 84/2/42 83/5/42
f 84/2/42 86/7/43 85/4/43
f 86/7/43 88/9/44 87/6/44
f 88/9/44 90/11/45 89/8/45
f 90/11/45 92/13/46 91/10/46
f 92/13/46 94/12/47 93/15/47
f 94/12/47 96/77/48 95/14/48
f 98/17/49 100/20/50 99/16/50
f 99/16/50 100/20/50 102/22/51
f 101/19/51 102/22/51 104/21/52
f 104/21/52 106/26/53 105/23/53
f 106/26/53 108/28/54 107/25/54
f 108/28/54 110/30/55 109/27/55
f 110/30/55 112/78/56 111/29/56
f 115/32/58 116/72/58 114/31/57
f 117/35/59 118/34/59 116/72/58
f 119/36/60 120/73/60 118/34/59
f 121/38/61 122/37/61 120/73/60
f 123/39/62 124/74/62 122/37/61
f 123/39/62 125/41/63 126/40/63
f 127/42/64 128/79/64 126/40/63
f 131/44/66 132/75/66 130/43/65
f 131/44/66 133/47/67 134/46/67
f 135/49/68 136/48/68 134/46/67
f 137/51/69 138/50/69 136/48/68
f 137/51/69 139/53/70 140/52/70
f 139/53/70 141/55/71 142/54/71
f 143/56/72 144/80/72 142/54/71
f 146/58/73 148/61/74 147/57/74
f 148/61/74 150/63/75 149/60/75
f 150/63/75 152/65/76 151/62/76
f 152/65/76 154/67/77 153/64/77
f 153/64/77 154/67/77 156/66/78
f 156/66/78 158/71/79 157/68/79
f 157/68/79 158/71/79 160/76/80
