# Blender 5.0.1
# www.blender.org
mtllib kelp_h.mtl
o kelp_h_blade
usemtl kelp_h_blade
v -0.047060 0.000000 0.162307
v 0.010962 0.000000 -0.049040
v -0.083797 0.299851 0.143293
v -0.030334 0.299851 -0.051449
v -0.136026 0.599702 0.120025
v -0.087122 0.599702 -0.058110
v -0.182150 0.899553 0.098434
v -0.137805 0.899553 -0.063096
v -0.200187 1.199404 0.084553
v -0.160401 1.199404 -0.060370
v -0.174171 1.499256 0.082767
v -0.138943 1.499256 -0.045551
v -0.099302 1.799107 0.094392
v -0.068634 1.799107 -0.017320
v 0.015459 2.098958 0.116969
v 0.041569 2.098958 0.021863
v -0.064836 0.000000 -0.075582
v 0.100934 0.000000 -0.037685
v -0.051431 0.272525 -0.104244
v 0.101314 0.272525 -0.069324
v -0.029278 0.545051 -0.171169
v 0.110443 0.545051 -0.139227
v -0.003472 0.817576 -0.254071
v 0.123223 0.817576 -0.225107
v 0.016898 1.090102 -0.313199
v 0.130569 1.090102 -0.287212
v 0.023783 1.362627 -0.313341
v 0.124429 1.362627 -0.290332
v 0.015182 1.635152 -0.245745
v 0.102804 1.635152 -0.225714
v -0.002479 1.907678 -0.138514
v 0.072117 1.907678 -0.121460
v 0.054629 1.008831 0.054575
v 0.140544 1.008831 0.129600
v 0.183345 1.291569 -0.077651
v 0.254225 1.291569 -0.015756
v 0.312062 1.446240 -0.209878
v 0.367906 1.446240 -0.161112
v 0.440778 1.416134 -0.342104
v 0.481588 1.416134 -0.306468
v 0.569495 1.223771 -0.474331
v 0.595269 1.223771 -0.451824
v 0.090629 1.096284 0.136872
v 0.076078 1.096284 0.013014
v -0.088110 1.309337 0.146883
v -0.100115 1.309337 0.044701
v -0.266849 1.430597 0.156895
v -0.276308 1.430597 0.076387
v -0.445588 1.417718 0.166906
v -0.452500 1.417718 0.108074
v -0.624328 1.287516 0.176918
v -0.628693 1.287516 0.139761
v -0.005216 0.856815 0.085080
v -0.003717 0.856815 -0.031624
v -0.213915 1.178152 0.072186
v -0.212678 1.178152 -0.024095
v -0.422614 1.375911 0.059292
v -0.421640 1.375911 -0.016566
v -0.631313 1.387437 0.046397
v -0.630601 1.387437 -0.009037
v -0.840012 1.237611 0.033503
v -0.839563 1.237611 -0.001508
v 0.140816 0.754004 -0.048000
v 0.051928 0.754004 -0.044934
v 0.139527 0.936277 0.140379
v 0.066194 0.936277 0.142909
v 0.138237 1.011266 0.328759
v 0.080460 1.011266 0.330751
v 0.136947 0.940390 0.517138
v 0.094726 0.940390 0.518594
v 0.135658 0.738971 0.705517
v 0.108991 0.738971 0.706437
v 0.136758 0.850597 -0.057184
v 0.023763 0.850597 -0.001846
v 0.203854 1.045957 0.104850
v 0.110633 1.045957 0.150504
v 0.270951 1.145384 0.266885
v 0.197504 1.145384 0.302855
v 0.338047 1.109085 0.428920
v 0.284374 1.109085 0.455205
v 0.405143 0.952862 0.590954
v 0.371245 0.952862 0.607556
v -0.047060 0.000000 0.162307
v 0.010962 0.000000 -0.049040
v -0.083797 0.299851 0.143293
v -0.030334 0.299851 -0.051449
v -0.136026 0.599702 0.120025
v -0.087122 0.599702 -0.058110
v -0.182150 0.899553 0.098434
v -0.137805 0.899553 -0.063096
v -0.200187 1.199404 0.084553
v -0.160401 1.199404 -0.060370
v -0.174171 1.499256 0.082767
v -0.138943 1.499256 -0.045551
v -0.099302 1.799107 0.094392
v -0.068634 1.799107 -0.017320
v 0.015459 2.098958 0.116969
v 0.041569 2.098958 0.021863
v -0.064836 0.000000 -0.075582
v 0.100934 0.000000 -0.037685
v -0.051431 0.272525 -0.104244
v 0.101314 0.272525 -0.069324
v -0.029278 0.545051 -0.171169
v 0.110443 0.545051 -0.139227
v -0.003472 0.817576 -0.254071
v 0.123223 0.817576 -0.225107
v 0.016898 1.090102 -0.313199
v 0.130569 1.090102 -0.287212
v 0.023783 1.362627 -0.313341
v 0.124429 1.362627 -0.290332
v 0.015182 1.635152 -0.245745
v 0.102804 1.635152 -0.225714
v -0.002479 1.907678 -0.138514
v 0.072117 1.907678 -0.121460
v 0.054629 1.008831 0.054575
v 0.140544 1.008831 0.129600
v 0.183345 1.291569 -0.077651
v 0.254225 1.291569 -0.015756
v 0.312062 1.446240 -0.209878
v 0.367906 1.446240 -0.161112
v 0.440778 1.416134 -0.342104
v 0.481588 1.416134 -0.306468
v 0.569495 1.223771 -0.474331
v 0.595269 1.223771 -0.451824
v 0.090629 1.096284 0.136872
v 0.076078 1.096284 0.013014
v -0.088110 1.309337 0.146883
v -0.100115 1.309337 0.044701
v -0.266849 1.430597 0.156895
v -0.276308 1.430597 0.076387
v -0.445588 1.417718 0.166906
v -0.452500 1.417718 0.108074
v -0.624328 1.287516 0.176918
v -0.628693 1.287516 0.139761
v -0.005216 0.856815 0.085080
v -0.003717 0.856815 -0.031624
v -0.213915 1.178152 0.072186
v -0.212678 1.178152 -0.024095
v -0.422614 1.375911 0.059292
v -0.421640 1.375911 -0.016566
v -0.631313 1.387437 0.046397
v -0.630601 1.387437 -0.009037
v -0.840012 1.237611 0.033503
v -0.839563 1.237611 -0.001508
v 0.140816 0.754004 -0.048000
v 0.051928 0.754004 -0.044934
v 0.139527 0.936277 0.140379
v 0.066194 0.936277 0.142909
v 0.138237 1.011266 0.328759
v 0.080460 1.011266 0.330751
v 0.136947 0.940390 0.517138
v 0.094726 0.940390 0.518594
v 0.135658 0.738971 0.705517
v 0.108991 0.738971 0.706437
v 0.136758 0.850597 -0.057184
v 0.023763 0.850597 -0.001846
v 0.203854 1.045957 0.104850
v 0.110633 1.045957 0.150504
v 0.270951 1.145384 0.266885
v 0.197504 1.145384 0.302855
v 0.338047 1.109085 0.428920
v 0.284374 1.109085 0.455205
v 0.405143 0.952862 0.590954
v 0.371245 0.952862 0.607556
vn -0.9557 -0.1337 -0.2624
vn -0.9520 -0.1591 -0.2614
vn -0.9494 -0.1754 -0.2606
vn -0.9575 -0.1186 -0.2629
vn -0.9643 0.0045 -0.2647
vn -0.9516 0.1617 -0.2613
vn -0.9191 0.3026 -0.2523
vn -0.8987 0.3625 -0.2467
vn 0.2214 -0.1128 -0.9686
vn 0.2192 -0.1805 -0.9588
vn 0.2142 -0.2758 -0.9370
vn 0.2150 -0.2634 -0.9404
vn 0.2213 -0.1167 -0.9682
vn 0.2213 0.1167 -0.9682
vn 0.2122 0.3054 -0.9283
vn 0.2071 0.3698 -0.9057
vn -0.5511 0.5460 0.6311
vn -0.5511 0.5460 0.6310
vn -0.4938 0.6606 0.5655
vn -0.1831 0.9605 0.2097
vn 0.3007 0.8894 -0.3444
vn 0.4750 0.6917 -0.5439
vn 0.7610 0.6426 -0.0894
vn 0.6686 0.7394 -0.0786
vn 0.2692 0.9626 -0.0316
vn -0.3320 0.9425 0.0390
vn -0.5849 0.8082 0.0687
vn 0.8384 0.5449 0.0108
vn 0.7698 0.6382 0.0099
vn 0.4045 0.9145 0.0052
vn -0.2703 0.9628 -0.0035
vn -0.5829 0.8125 -0.0075
vn -0.0240 0.7184 -0.6952
vn -0.0188 0.8373 -0.5465
vn -0.0007 0.9998 -0.0190
vn 0.0190 0.8339 0.5517
vn 0.0252 0.6828 0.7302
vn -0.3276 0.6673 -0.6689
vn -0.2777 0.7754 -0.5671
vn -0.0744 0.9856 -0.1520
vn 0.1942 0.8972 0.3966
vn 0.2929 0.7461 0.5980
vn 0.9557 0.1337 0.2624
vn 0.9520 0.1591 0.2614
vn 0.9494 0.1754 0.2606
vn 0.9575 0.1186 0.2629
vn 0.9643 -0.0045 0.2647
vn 0.9516 -0.1617 0.2613
vn 0.9191 -0.3026 0.2523
vn 0.8987 -0.3625 0.2467
vn -0.2214 0.1128 0.9686
vn -0.2192 0.1805 0.9588
vn -0.2142 0.2758 0.9370
vn -0.2150 0.2634 0.9404
vn -0.2213 0.1167 0.9682
vn -0.2213 0.1166 0.9682
vn -0.2213 -0.1167 0.9682
vn -0.2122 -0.3054 0.9283
vn -0.2071 -0.3698 0.9057
vn 0.5511 -0.5460 -0.6311
vn 0.5511 -0.5460 -0.6310
vn 0.4938 -0.6606 -0.5655
vn 0.1831 -0.9605 -0.2097
vn -0.3007 -0.8894 0.3444
vn -0.4750 -0.6917 0.5439
vn -0.7610 -0.6426 0.0894
vn -0.6686 -0.7394 0.0786
vn -0.2692 -0.9626 0.0316
vn 0.3320 -0.9425 -0.0390
vn 0.5849 -0.8082 -0.0687
vn -0.8384 -0.5449 -0.0108
vn -0.7698 -0.6382 -0.0099
vn -0.4045 -0.9145 -0.0052
vn 0.2703 -0.9628 0.0035
vn 0.5829 -0.8125 0.0075
vn 0.0240 -0.7184 0.6952
vn 0.0188 -0.8373 0.5465
vn 0.0007 -0.9998 0.0190
vn -0.0190 -0.8339 -0.5517
vn -0.0252 -0.6828 -0.7302
vn 0.3276 -0.6673 0.6689
vn 0.2777 -0.7754 0.5671
vn 0.0744 -0.9856 0.1520
vn -0.1942 -0.8972 -0.3966
vn -0.2929 -0.7461 -0.5980
vt -0.184154 0.499752
vt -0.026224 0.000000
vt -0.122927 0.000000
vt -0.271203 0.999504
vt -0.095049 0.499752
vt -0.348077 1.499256
vt -0.189696 0.999504
vt -0.311828 1.999007
vt -0.274168 1.499256
vt -0.334778 2.498760
vt -0.378139 1.999007
vt -0.158883 2.998511
vt -0.276066 2.498760
vt -0.209998 2.998511
vt 0.024788 3.498263
vt -0.152553 0.000000
vt 0.124364 0.454209
vt 0.123730 0.000000
vt -0.093290 0.908418
vt -0.130211 0.454209
vt 0.160878 1.362627
vt 0.139577 0.908418
vt -0.016330 1.816836
vt -0.050281 1.362627
vt 0.162888 2.271045
vt 0.173121 1.816836
vt -0.019189 2.725254
vt -0.004855 2.271045
vt -0.048626 3.179463
vt 0.126846 2.725254
vt 0.046555 1.681385
vt 0.379215 2.152615
vt 0.261082 2.152615
vt 0.568684 2.410400
vt 0.475610 2.410400
vt 0.690137 2.360223
vt 0.758153 2.360223
vt 0.904664 2.039619
vt 0.082303 1.827140
vt -0.191344 2.182228
vt 0.106554 1.827140
vt -0.211352 2.182228
vt -0.489243 2.384329
vt -0.505006 2.384329
vt -0.787141 2.362864
vt -0.798661 2.362864
vt -1.085040 2.145861
vt -0.053187 1.428025
vt -0.398957 1.963587
vt -0.401018 1.963587
vt -0.747226 2.293186
vt -0.748850 2.293186
vt -1.095495 2.312395
vt -1.096682 2.312395
vt -1.444514 2.062685
vt 0.042053 1.256673
vt 0.188051 1.560462
vt 0.190200 1.256673
vt 0.089606 1.685444
vt 0.185902 1.685444
vt 0.183752 1.567317
vt 0.137159 1.231618
vt 0.181603 1.231618
vt -0.004889 1.417662
vt 0.295264 1.743262
vt 0.183437 1.417662
vt 0.139895 1.743262
vt 0.407091 1.908973
vt 0.284679 1.908973
vt 0.518918 1.848475
vt 0.429464 1.848475
vt 0.630745 1.588104
vt -0.018728 3.498263
vt 0.189746 1.681385
vt -0.050688 1.428025
vt 0.065830 1.560462
vt 0.113382 1.567317
vt 0.075701 3.179463
vt 0.947622 2.039619
vt -1.092315 2.145861
vt -1.443764 2.062685
vt 0.574248 1.588104
s 1
f 3/1/2 2/2/1 1/3/1
f 5/4/3 4/5/2 3/1/2
f 7/6/4 6/7/3 5/4/3
f 7/6/4 10/8/5 8/9/4
f 11/10/6 10/8/5 9/11/5
f 11/10/6 14/12/7 12/13/6
f 13/14/7 16/15/8 14/12/7
f 17/16/9 20/17/10 18/18/9
f 21/19/11 20/17/10 19/20/10
f 21/19/11 24/21/12 22/22/11
f 25/23/13 24/21/12 23/24/12
f 25/23/13 28/25/14 26/26/13
f 29/27/15 28/25/14 27/28/14
f 31/29/16 30/30/15 29/27/15
f 33/31/17 36/32/19 35/33/19
f 35/33/19 38/34/20 37/35/20
f 38/34/20 39/36/21 37/35/20
f 40/37/21 41/38/22 39/36/21
f 44/39/23 45/40/24 43/41/23
f 46/42/24 47/43/25 45/40/24
f 48/44/25 49/45/26 47/43/25
f 50/46/26 51/47/27 49/45/26
f 53/48/28 56/49/29 55/50/29
f 55/50/29 58/51/30 57/52/30
f 57/52/30 60/53/31 59/54/31
f 60/53/31 61/55/32 59/54/31
f 64/56/33 65/57/34 63/58/33
f 65/57/34 68/59/35 67/60/35
f 68/59/35 69/61/36 67/60/35
f 69/61/36 72/62/37 71/63/37
f 74/64/38 75/65/39 73/66/38
f 76/67/39 77/68/40 75/65/39
f 78/69/40 79/70/41 77/68/40
f 80/71/41 81/72/42 79/70/41
f 84/2/43 85/1/44 83/3/43
f 86/5/44 87/4/45 85/1/44
f 88/7/45 89/6/46 87/4/45
f 89/6/46 92/8/47 91/11/47
f 92/8/47 93/10/48 91/11/47
f 93/10/48 96/12/49 95/14/49
f 95/14/49 98/15/50 97/73/50
f 99/16/51 102/17/52 101/20/52
f 102/17/52 103/19/53 101/20/52
f 103/19/53 106/21/54 105/24/54
f 105/24/54 108/26/56 107/23/55
f 107/23/55 110/25/57 109/28/57
f 110/25/57 111/27/58 109/28/57
f 112/30/58 113/29/59 111/27/58
f 115/31/60 118/32/62 116/74/61
f 119/35/63 118/32/62 117/33/62
f 121/36/64 120/34/63 119/35/63
f 123/38/65 122/37/64 121/36/64
f 127/40/67 126/39/66 125/41/66
f 127/40/67 130/44/68 128/42/67
f 131/45/69 130/44/68 129/43/68
f 133/47/70 132/46/69 131/45/69
f 135/48/71 138/49/72 136/75/71
f 137/50/72 140/51/73 138/49/72
f 139/52/73 142/53/74 140/51/73
f 143/55/75 142/53/74 141/54/74
f 145/58/76 148/76/77 146/56/76
f 147/57/77 150/59/78 148/76/77
f 149/60/78 152/77/79 150/59/78
f 151/61/79 154/62/80 152/77/79
f 157/65/82 156/64/81 155/66/81
f 159/68/83 158/67/82 157/65/82
f 161/70/84 160/69/83 159/68/83
f 163/72/85 162/71/84 161/70/84
f 3/1/2 4/5/2 2/2/1
f 5/4/3 6/7/3 4/5/2
f 7/6/4 8/9/4 6/7/3
f 7/6/4 9/11/5 10/8/5
f 11/10/6 12/13/6 10/8/5
f 11/10/6 13/14/7 14/12/7
f 13/14/7 15/73/8 16/15/8
f 17/16/9 19/20/10 20/17/10
f 21/19/11 22/22/11 20/17/10
f 21/19/11 23/24/12 24/21/12
f 25/23/13 26/26/13 24/21/12
f 25/23/13 27/28/14 28/25/14
f 29/27/15 30/30/15 28/25/14
f 31/29/16 32/78/16 30/30/15
f 33/31/17 34/74/18 36/32/19
f 35/33/19 36/32/19 38/34/20
f 38/34/20 40/37/21 39/36/21
f 40/37/21 42/79/22 41/38/22
f 44/39/23 46/42/24 45/40/24
f 46/42/24 48/44/25 47/43/25
f 48/44/25 50/46/26 49/45/26
f 50/46/26 52/80/27 51/47/27
f 53/48/28 54/75/28 56/49/29
f 55/50/29 56/49/29 58/51/30
f 57/52/30 58/51/30 60/53/31
f 60/53/31 62/81/32 61/55/32
f 64/56/33 66/76/34 65/57/34
f 65/57/34 66/76/34 68/59/35
f 68/59/35 70/77/36 69/61/36
f 69/61/36 70/77/36 72/62/37
f 74/64/38 76/67/39 75/65/39
f 76/67/39 78/69/40 77/68/40
f 78/69/40 80/71/41 79/70/41
f 80/71/41 82/82/42 81/72/42
f 84/2/43 86/5/44 85/1/44
f 86/5/44 88/7/45 87/4/45
f 88/7/45 90/9/46 89/6/46
f 89/6/46 90/9/46 92/8/47
f 92/8/47 94/13/48 93/10/48
f 93/10/48 94/13/48 96/12/49
f 95/14/49 96/12/49 98/15/50
f 99/16/51 100/18/51 102/17/52
f 102/17/52 104/22/53 103/19/53
f 103/19/53 104/22/53 106/21/54
f 105/24/54 106/21/54 108/26/56
f 107/23/55 108/26/56 110/25/57
f 110/25/57 112/30/58 111/27/58
f 112/30/58 114/78/59 113/29/59
f 115/31/60 117/33/62 118/32/62
f 119/35/63 120/34/63 118/32/62
f 121/36/64 122/37/64 120/34/63
f 123/38/65 124/79/65 122/37/64
f 127/40/67 128/42/67 126/39/66
f 127/40/67 129/43/68 130/44/68
f 131/45/69 132/46/69 130/44/68
f 133/47/70 134/80/70 132/46/69
f 135/48/71 137/50/72 138/49/72
f 137/50/72 139/52/73 140/51/73
f 139/52/73 141/54/74 142/53/74
f 143/55/75 144/81/75 142/53/74
f 145/58/76 147/57/77 148/76/77
f 147/57/77 149/60/78 150/59/78
f 149/60/78 151/61/79 152/77/79
f 151/61/79 153/63/80 154/62/80
f 157/65/82 158/67/82 156/64/81
f 159/68/83 160/69/83 158/67/82
f 161/70/84 162/71/84 160/69/83
f 163/72/85 164/82/85 162/71/84
