# Blender 5.0.1
# www.blender.org
mtllib kelp_e.mtl
o kelp_e_blade
usemtl kelp_e_blade
v 0.052577 0.000000 0.084511
v -0.027359 0.000000 -0.051782
v -0.070474 0.136238 0.140653
v -0.136422 0.136238 0.028211
v -0.193525 0.220772 0.196795
v -0.245484 0.220772 0.108204
v -0.316576 0.227095 0.252937
v -0.354546 0.227095 0.188197
v -0.439628 0.165732 0.309079
v -0.463609 0.165732 0.268190
v -0.065787 0.000000 0.019028
v -0.001538 0.000000 -0.070880
v -0.154748 0.129423 -0.056429
v -0.101742 0.129423 -0.130603
v -0.243709 0.201274 -0.131886
v -0.201947 0.201274 -0.190326
v -0.332670 0.189680 -0.207344
v -0.302151 0.189680 -0.250050
v -0.421631 0.104915 -0.282801
v -0.402356 0.104915 -0.309773
v 0.118973 0.000000 -0.033296
v 0.094293 0.000000 0.084954
v 0.261195 0.194430 0.007185
v 0.240834 0.194430 0.104741
v 0.403418 0.327377 0.047666
v 0.387376 0.327377 0.124528
v 0.545641 0.362018 0.088148
v 0.533918 0.362018 0.144316
v 0.687863 0.312975 0.128629
v 0.680459 0.312975 0.164103
v -0.048086 0.000000 0.041720
v -0.067554 0.000000 -0.061057
v -0.194854 0.191078 0.060206
v -0.210915 0.191078 -0.024586
v -0.341622 0.319480 0.078691
v -0.354277 0.319480 0.011886
v -0.488391 0.348832 0.097176
v -0.497638 0.348832 0.048357
v -0.635159 0.293578 0.115661
v -0.640999 0.293578 0.084828
v -0.034454 0.000000 0.002200
v -0.131099 0.000000 -0.030554
v -0.089426 0.179212 0.136586
v -0.169158 0.179212 0.109564
v -0.144398 0.299295 0.270971
v -0.207218 0.299295 0.249681
v -0.199370 0.326107 0.405357
v -0.245277 0.326107 0.389798
v -0.254342 0.273206 0.539742
v -0.283336 0.273206 0.529916
v -0.060339 0.000000 -0.105144
v -0.023784 0.000000 0.004267
v 0.087716 0.205770 -0.143968
v 0.117874 0.205770 -0.053704
v 0.235772 0.341181 -0.182793
v 0.259532 0.341181 -0.111676
v 0.383827 0.366828 -0.221617
v 0.401191 0.366828 -0.169647
v 0.531882 0.298359 -0.260442
v 0.542849 0.298359 -0.227618
v 0.038307 0.000000 -0.067132
v 0.171278 0.000000 0.021356
v 0.111182 0.150347 -0.151414
v 0.220882 0.150347 -0.078411
v 0.184056 0.240297 -0.235695
v 0.270487 0.240297 -0.178178
v 0.256931 0.240326 -0.319977
v 0.320091 0.240326 -0.277946
v 0.329805 0.162157 -0.404259
v 0.369696 0.162157 -0.377713
v -0.048656 0.000000 0.042963
v 0.033228 0.000000 0.118845
v 0.060647 0.206932 -0.060613
v 0.128201 0.206932 0.001990
v 0.169950 0.335070 -0.164190
v 0.223174 0.335070 -0.114866
v 0.279252 0.344130 -0.267766
v 0.318147 0.344130 -0.231722
v 0.388555 0.250109 -0.371342
v 0.413120 0.250109 -0.348578
v 0.052577 0.000000 0.084511
v -0.027359 0.000000 -0.051782
v -0.070474 0.136238 0.140653
v -0.136422 0.136238 0.028211
v -0.193525 0.220772 0.196795
v -0.245484 0.220772 0.108204
v -0.316576 0.227095 0.252937
v -0.354546 0.227095 0.188197
v -0.439628 0.165732 0.309079
v -0.463609 0.165732 0.268190
v -0.065787 0.000000 0.019028
v -0.001538 0.000000 -0.070880
v -0.154748 0.129423 -0.056429
v -0.101742 0.129423 -0.130603
v -0.243709 0.201274 -0.131886
v -0.201947 0.201274 -0.190326
v -0.332670 0.189680 -0.207344
v -0.302151 0.189680 -0.250050
v -0.421631 0.104915 -0.282801
v -0.402356 0.104915 -0.309773
v 0.118973 0.000000 -0.033296
v 0.094293 0.000000 0.084954
v 0.261195 0.194430 0.007185
v 0.240834 0.194430 0.104741
v 0.403418 0.327377 0.047666
v 0.387376 0.327377 0.124528
v 0.545641 0.362018 0.088148
v 0.533918 0.362018 0.144316
v 0.687863 0.312975 0.128629
v 0.680459 0.312975 0.164103
v -0.048086 0.000000 0.041720
v -0.067554 0.000000 -0.061057
v -0.194854 0.191078 0.060206
v -0.210915 0.191078 -0.024586
v -0.341622 0.319480 0.078691
v -0.354277 0.319480 0.011886
v -0.488391 0.348832 0.097176
v -0.497638 0.348832 0.048357
v -0.635159 0.293578 0.115661
v -0.640999 0.293578 0.084828
v -0.034454 0.000000 0.002200
v -0.131099 0.000000 -0.030554
v -0.089426 0.179212 0.136586
v -0.169158 0.179212 0.109564
v -0.144398 0.299295 0.270971
v -0.207218 0.299295 0.249681
v -0.199370 0.326107 0.405357
v -0.245277 0.326107 0.389798
v -0.254342 0.273206 0.539742
v -0.283336 0.273206 0.529916
v -0.060339 0.000000 -0.105144
v -0.023784 0.000000 0.004267
v 0.087716 0.205770 -0.143968
v 0.117874 0.205770 -0.053704
v 0.235772 0.341181 -0.182793
v 0.259532 0.341181 -0.111676
v 0.383827 0.366828 -0.221617
v 0.401191 0.366828 -0.169647
v 0.531882 0.298359 -0.260442
v 0.542849 0.298359 -0.227618
v 0.038307 0.000000 -0.067132
v 0.171278 0.000000 0.021356
v 0.111182 0.150347 -0.151414
v 0.220882 0.150347 -0.078411
v 0.184056 0.240297 -0.235695
v 0.270487 0.240297 -0.178178
v 0.256931 0.240326 -0.319977
v 0.320091 0.240326 -0.277946
v 0.329805 0.162157 -0.404259
v 0.369696 0.162157 -0.377713
v -0.048656 0.000000 0.042963
v 0.033228 0.000000 0.118845
v 0.060647 0.206932 -0.060613
v 0.128201 0.206932 0.001990
v 0.169950 0.335070 -0.164190
v 0.223174 0.335070 -0.114866
v 0.279252 0.344130 -0.267766
v 0.318147 0.344130 -0.231722
v 0.388555 0.250109 -0.371342
v 0.413120 0.250109 -0.348578
vn 0.6137 0.7027 -0.3600
vn 0.5439 0.7762 -0.3190
vn 0.2712 0.9493 -0.1591
vn -0.1506 0.9846 0.0883
vn -0.3579 0.9098 0.2099
vn 0.6053 0.6682 0.4325
vn 0.5254 0.7635 0.3755
vn 0.1963 0.9705 0.1403
vn -0.2804 0.9387 -0.2004
vn -0.4794 0.8080 -0.3426
vn -0.7799 0.6044 -0.1628
vn -0.7228 0.6744 -0.1508
vn -0.4626 0.8813 -0.0966
vn 0.0321 0.9995 0.0067
vn 0.3089 0.9489 0.0645
vn 0.7775 0.6114 -0.1473
vn 0.7164 0.6844 -0.1357
vn 0.4407 0.8938 -0.0835
vn -0.0689 0.9975 0.0131
vn -0.3444 0.9366 0.0652
vn 0.2496 0.6288 -0.7364
vn 0.2289 0.7009 -0.6755
vn 0.1386 0.9020 -0.4089
vn -0.0235 0.9973 0.0693
vn -0.1101 0.9394 0.3248
vn -0.7616 0.5960 0.2545
vn -0.7010 0.6736 0.2342
vn -0.4180 0.8977 0.1397
vn 0.1093 0.9933 -0.0365
vn 0.3880 0.9125 -0.1296
vn -0.4464 0.5924 0.6707
vn -0.4039 0.6844 0.6070
vn -0.1989 0.9334 0.2988
vn -0.1989 0.9333 0.2988
vn 0.1556 0.9598 -0.2338
vn 0.3199 0.8165 -0.4807
vn -0.5500 0.5876 0.5935
vn -0.5005 0.6765 0.5401
vn -0.2618 0.9228 0.2825
vn -0.2618 0.9229 0.2825
vn 0.1598 0.9720 -0.1724
vn 0.3605 0.8477 -0.3891
vn -0.6137 -0.7027 0.3600
vn -0.5439 -0.7762 0.3190
vn -0.2712 -0.9493 0.1591
vn 0.1506 -0.9846 -0.0883
vn 0.3579 -0.9098 -0.2099
vn -0.6053 -0.6682 -0.4325
vn -0.5254 -0.7635 -0.3755
vn -0.1963 -0.9705 -0.1403
vn 0.2804 -0.9387 0.2004
vn 0.4794 -0.8080 0.3426
vn 0.7799 -0.6044 0.1628
vn 0.7228 -0.6744 0.1508
vn 0.4626 -0.8813 0.0966
vn -0.0321 -0.9995 -0.0067
vn -0.3089 -0.9489 -0.0645
vn -0.7775 -0.6114 0.1473
vn -0.7164 -0.6844 0.1357
vn -0.4407 -0.8938 0.0835
vn 0.0689 -0.9975 -0.0131
vn 0.3444 -0.9366 -0.0652
vn -0.2496 -0.6288 0.7364
vn -0.2289 -0.7009 0.6755
vn -0.1386 -0.9020 0.4089
vn 0.0235 -0.9973 -0.0693
vn 0.1101 -0.9394 -0.3248
vn 0.7616 -0.5960 -0.2545
vn 0.7010 -0.6736 -0.2342
vn 0.4180 -0.8977 -0.1397
vn -0.1093 -0.9933 0.0365
vn -0.3880 -0.9125 0.1296
vn 0.4464 -0.5924 -0.6707
vn 0.4039 -0.6844 -0.6070
vn 0.1989 -0.9334 -0.2988
vn 0.1989 -0.9333 -0.2988
vn -0.1556 -0.9598 0.2338
vn -0.3199 -0.8165 0.4807
vn 0.5500 -0.5876 -0.5935
vn 0.5005 -0.6765 -0.5401
vn 0.2618 -0.9228 -0.2825
vn 0.2618 -0.9229 -0.2825
vn -0.1598 -0.9720 0.1724
vn -0.3605 -0.8477 0.3891
vt -0.073997 0.000000
vt -0.145855 0.227063
vt 0.059231 0.000000
vt -0.437538 0.367954
vt -0.350940 0.367954
vt -0.556026 0.378491
vt -0.801079 0.276220
vt -0.761111 0.276220
vt -0.138043 0.000000
vt -0.197969 0.215706
vt -0.286312 0.215706
vt -0.434580 0.335457
vt -0.364976 0.335457
vt -0.582848 0.316133
vt -0.531984 0.316133
vt -0.731116 0.174858
vt 0.169889 0.000000
vt 0.372992 0.324050
vt 0.406927 0.324050
vt 0.643965 0.545629
vt 0.617229 0.545629
vt 0.881003 0.603363
vt 1.105701 0.521626
vt 1.118041 0.521626
vt -0.140988 0.000000
vt -0.353155 0.318463
vt -0.108542 0.000000
vt -0.379924 0.318463
vt -0.597769 0.532466
vt -0.857795 0.581386
vt -0.842383 0.581386
vt -1.096730 0.489297
vt -1.086996 0.489297
vt -0.246897 0.000000
vt -0.177441 0.298687
vt -0.085821 0.000000
vt -0.310329 0.298687
vt -0.269062 0.498825
vt -0.373761 0.498825
vt -0.360682 0.543512
vt -0.437193 0.543512
vt -0.452302 0.455343
vt -0.128964 0.000000
vt 0.168059 0.342951
vt 0.117796 0.342951
vt 0.364555 0.568635
vt 0.404156 0.568635
vt 0.611314 0.611380
vt 0.640253 0.611380
vt 0.858073 0.497265
vt 0.257065 0.000000
vt 0.156905 0.250578
vt 0.035447 0.000000
vt 0.422413 0.400495
vt 0.278362 0.400495
vt 0.399819 0.400543
vt 0.587762 0.270261
vt 0.521277 0.270261
vt 0.026983 0.000000
vt 0.072680 0.344887
vt -0.109491 0.000000
vt 0.343559 0.558450
vt 0.254851 0.558450
vt 0.501847 0.573550
vt 0.437022 0.573550
vt 0.619193 0.416848
vt -0.255767 0.227063
vt -0.619309 0.378491
vt -0.030961 0.000000
vt 0.128756 0.000000
vt 0.861465 0.603363
vt -0.618859 0.532466
vt -0.068038 0.000000
vt 0.339739 0.250578
vt 0.505087 0.400543
vt 0.185271 0.344887
vt -0.698991 0.174858
vt -0.500625 0.455343
vt 0.876350 0.497265
vt 0.660135 0.416848
s 1
f 2/1/1 3/2/2 1/3/1
f 3/2/2 6/4/3 5/5/3
f 6/4/3 7/6/4 5/5/3
f 7/6/4 10/7/5 9/8/5
f 11/9/6 14/10/7 13/11/7
f 14/10/7 15/12/8 13/11/7
f 16/13/8 17/14/9 15/12/8
f 18/15/9 19/16/10 17/14/9
f 21/17/11 24/18/12 23/19/12
f 24/18/12 25/20/13 23/19/12
f 26/21/13 27/22/14 25/20/13
f 27/22/14 30/23/15 29/24/15
f 32/25/16 33/26/17 31/27/16
f 34/28/17 35/29/18 33/26/17
f 35/29/18 38/30/19 37/31/19
f 37/31/19 40/32/20 39/33/20
f 42/34/21 43/35/22 41/36/21
f 44/37/22 45/38/23 43/35/22
f 46/39/23 47/40/24 45/38/23
f 48/41/24 49/42/25 47/40/24
f 51/43/26 54/44/27 53/45/27
f 54/44/27 55/46/28 53/45/27
f 56/47/28 57/48/29 55/46/28
f 58/49/29 59/50/30 57/48/29
f 62/51/31 63/52/32 61/53/31
f 63/52/32 66/54/34 65/55/33
f 66/54/34 67/56/35 65/55/33
f 67/56/35 70/57/36 69/58/36
f 72/59/37 73/60/38 71/61/37
f 73/60/38 76/62/40 75/63/39
f 75/63/39 78/64/41 77/65/41
f 78/64/41 79/66/42 77/65/41
f 83/2/44 82/1/43 81/3/43
f 85/5/45 84/67/44 83/2/44
f 87/6/46 86/4/45 85/5/45
f 87/6/46 90/7/47 88/68/46
f 93/11/49 92/69/48 91/9/48
f 95/12/50 94/10/49 93/11/49
f 97/14/51 96/13/50 95/12/50
f 99/16/52 98/15/51 97/14/51
f 103/19/54 102/70/53 101/17/53
f 105/20/55 104/18/54 103/19/54
f 107/22/56 106/21/55 105/20/55
f 109/24/57 108/71/56 107/22/56
f 111/27/58 114/28/59 112/25/58
f 115/29/60 114/28/59 113/26/59
f 115/29/60 118/30/61 116/72/60
f 117/31/61 120/32/62 118/30/61
f 123/35/64 122/34/63 121/36/63
f 125/38/65 124/37/64 123/35/64
f 127/40/66 126/39/65 125/38/65
f 129/42/67 128/41/66 127/40/66
f 131/43/68 134/44/69 132/73/68
f 135/46/70 134/44/69 133/45/69
f 137/48/71 136/47/70 135/46/70
f 139/50/72 138/49/71 137/48/71
f 143/52/74 142/51/73 141/53/73
f 143/52/74 146/54/76 144/74/74
f 145/55/75 148/75/77 146/54/76
f 147/56/77 150/57/78 148/75/77
f 153/60/80 152/59/79 151/61/79
f 155/63/81 154/76/80 153/60/80
f 155/63/81 158/64/83 156/62/82
f 159/66/84 158/64/83 157/65/83
f 2/1/1 4/67/2 3/2/2
f 3/2/2 4/67/2 6/4/3
f 6/4/3 8/68/4 7/6/4
f 7/6/4 8/68/4 10/7/5
f 11/9/6 12/69/6 14/10/7
f 14/10/7 16/13/8 15/12/8
f 16/13/8 18/15/9 17/14/9
f 18/15/9 20/77/10 19/16/10
f 21/17/11 22/70/11 24/18/12
f 24/18/12 26/21/13 25/20/13
f 26/21/13 28/71/14 27/22/14
f 27/22/14 28/71/14 30/23/15
f 32/25/16 34/28/17 33/26/17
f 34/28/17 36/72/18 35/29/18
f 35/29/18 36/72/18 38/30/19
f 37/31/19 38/30/19 40/32/20
f 42/34/21 44/37/22 43/35/22
f 44/37/22 46/39/23 45/38/23
f 46/39/23 48/41/24 47/40/24
f 48/41/24 50/78/25 49/42/25
f 51/43/26 52/73/26 54/44/27
f 54/44/27 56/47/28 55/46/28
f 56/47/28 58/49/29 57/48/29
f 58/49/29 60/79/30 59/50/30
f 62/51/31 64/74/32 63/52/32
f 63/52/32 64/74/32 66/54/34
f 66/54/34 68/75/35 67/56/35
f 67/56/35 68/75/35 70/57/36
f 72/59/37 74/76/38 73/60/38
f 73/60/38 74/76/38 76/62/40
f 75/63/39 76/62/40 78/64/41
f 78/64/41 80/80/42 79/66/42
f 83/2/44 84/67/44 82/1/43
f 85/5/45 86/4/45 84/67/44
f 87/6/46 88/68/46 86/4/45
f 87/6/46 89/8/47 90/7/47
f 93/11/49 94/10/49 92/69/48
f 95/12/50 96/13/50 94/10/49
f 97/14/51 98/15/51 96/13/50
f 99/16/52 100/77/52 98/15/51
f 103/19/54 104/18/54 102/70/53
f 105/20/55 106/21/55 104/18/54
f 107/22/56 108/71/56 106/21/55
f 109/24/57 110/23/57 108/71/56
f 111/27/58 113/26/59 114/28/59
f 115/29/60 116/72/60 114/28/59
f 115/29/60 117/31/61 118/30/61
f 117/31/61 119/33/62 120/32/62
f 123/35/64 124/37/64 122/34/63
f 125/38/65 126/39/65 124/37/64
f 127/40/66 128/41/66 126/39/65
f 129/42/67 130/78/67 128/41/66
f 131/43/68 133/45/69 134/44/69
f 135/46/70 136/47/70 134/44/69
f 137/48/71 138/49/71 136/47/70
f 139/50/72 140/79/72 138/49/71
f 143/52/74 144/74/74 142/51/73
f 143/52/74 145/55/75 146/54/76
f 145/55/75 147/56/77 148/75/77
f 147/56/77 149/58/78 150/57/78
f 153/60/80 154/76/80 152/59/79
f 155/63/81 156/62/82 154/76/80
f 155/63/81 157/65/83 158/64/83
f 159/66/84 160/80/84 158/64/83
