# Blender 5.0.1
# www.blender.org
mtllib kelp_f.mtl
o kelp_f_blade
usemtl kelp_f_blade
v 0.090434 0.000000 0.035560
v -0.032951 0.000000 0.054994
v 0.093900 0.147978 0.127813
v -0.007892 0.147978 0.143846
v 0.097367 0.245257 0.220066
v 0.017167 0.245257 0.232699
v 0.100833 0.263491 0.312320
v 0.042226 0.263491 0.321551
v 0.104300 0.213936 0.404573
v 0.067285 0.213936 0.410403
v -0.053139 0.000000 -0.105970
v -0.011655 0.000000 0.000167
v 0.024177 0.112923 -0.125483
v 0.058401 0.112923 -0.037920
v 0.101492 0.188215 -0.144996
v 0.128457 0.188215 -0.076007
v 0.178808 0.204331 -0.164509
v 0.198513 0.204331 -0.114094
v 0.256123 0.169827 -0.184022
v 0.268568 0.169827 -0.152181
v -0.035606 0.000000 -0.002556
v 0.016993 0.000000 0.133174
v 0.060216 0.154115 -0.026030
v 0.103610 0.154115 0.085948
v 0.156038 0.247000 -0.049503
v 0.190227 0.247000 0.038722
v 0.251859 0.248447 -0.072976
v 0.276844 0.248447 -0.008504
v 0.347681 0.170451 -0.096450
v 0.363460 0.170451 -0.055731
v 0.038643 0.000000 0.029532
v -0.050178 0.000000 -0.067337
v -0.032330 0.111211 0.079007
v -0.105608 0.111211 -0.000910
v -0.103303 0.174220 0.128482
v -0.161037 0.174220 0.065517
v -0.174276 0.166900 0.177956
v -0.216466 0.166900 0.131944
v -0.245249 0.098036 0.227431
v -0.271896 0.098036 0.198371
v 0.042915 0.000000 0.113092
v 0.089045 0.000000 -0.029337
v -0.033301 0.078615 0.074637
v 0.004757 0.078615 -0.042867
v -0.109516 0.126979 0.036182
v -0.079531 0.126979 -0.056397
v -0.185731 0.129760 -0.002273
v -0.163819 0.129760 -0.069927
v -0.261946 0.093046 -0.040728
v -0.248107 0.093046 -0.083456
v 0.016524 0.000000 -0.069702
v -0.111026 0.000000 -0.091617
v -0.010429 0.080205 0.020294
v -0.115658 0.080205 0.002214
v -0.037382 0.121353 0.110290
v -0.120290 0.121353 0.096044
v -0.064335 0.107135 0.200285
v -0.124921 0.107135 0.189875
v -0.091288 0.044027 0.290281
v -0.129553 0.044027 0.283706
v 0.090434 0.000000 0.035560
v -0.032951 0.000000 0.054994
v 0.093900 0.147978 0.127813
v -0.007892 0.147978 0.143846
v 0.097367 0.245257 0.220066
v 0.017167 0.245257 0.232699
v 0.100833 0.263491 0.312320
v 0.042226 0.263491 0.321551
v 0.104300 0.213936 0.404573
v 0.067285 0.213936 0.410403
v -0.053139 0.000000 -0.105970
v -0.011655 0.000000 0.000167
v 0.024177 0.112923 -0.125483
v 0.058401 0.112923 -0.037920
v 0.101492 0.188215 -0.144996
v 0.128457 0.188215 -0.076007
v 0.178808 0.204331 -0.164509
v 0.198513 0.204331 -0.114094
v 0.256123 0.169827 -0.184022
v 0.268568 0.169827 -0.152181
v -0.035606 0.000000 -0.002556
v 0.016993 0.000000 0.133174
v 0.060216 0.154115 -0.026030
v 0.103610 0.154115 0.085948
v 0.156038 0.247000 -0.049503
v 0.190227 0.247000 0.038722
v 0.251859 0.248447 -0.072976
v 0.276844 0.248447 -0.008504
v 0.347681 0.170451 -0.096450
v 0.363460 0.170451 -0.055731
v 0.038643 0.000000 0.029532
v -0.050178 0.000000 -0.067337
v -0.032330 0.111211 0.079007
v -0.105608 0.111211 -0.000910
v -0.103303 0.174220 0.128482
v -0.161037 0.174220 0.065517
v -0.174276 0.166900 0.177956
v -0.216466 0.166900 0.131944
v -0.245249 0.098036 0.227431
v -0.271896 0.098036 0.198371
v 0.042915 0.000000 0.113092
v 0.089045 0.000000 -0.029337
v -0.033301 0.078615 0.074637
v 0.004757 0.078615 -0.042867
v -0.109516 0.126979 0.036182
v -0.079531 0.126979 -0.056397
v -0.185731 0.129760 -0.002273
v -0.163819 0.129760 -0.069927
v -0.261946 0.093046 -0.040728
v -0.248107 0.093046 -0.083456
v 0.016524 0.000000 -0.069702
v -0.111026 0.000000 -0.091617
v -0.010429 0.080205 0.020294
v -0.115658 0.080205 0.002214
v -0.037382 0.121353 0.110290
v -0.120290 0.121353 0.096044
v -0.064335 0.107135 0.200285
v -0.124921 0.107135 0.189875
v -0.091288 0.044027 0.290281
v -0.129553 0.044027 0.283706
vn -0.1323 0.5266 -0.8397
vn -0.1238 0.6056 -0.7861
vn -0.0781 0.8648 -0.4960
vn 0.0193 0.9923 0.1226
vn 0.0193 0.9923 0.1225
vn 0.0740 0.8797 0.4698
vn -0.7628 0.5738 0.2981
vn -0.7091 0.6484 0.2772
vn -0.4470 0.8773 0.1747
vn 0.0756 0.9967 -0.0296
vn 0.3723 0.9166 -0.1455
vn -0.7872 0.5359 0.3051
vn -0.7239 0.6303 0.2805
vn -0.3762 0.9150 0.1458
vn -0.3761 0.9150 0.1458
vn 0.2783 0.9544 -0.1078
vn 0.5813 0.7819 -0.2253
vn 0.5837 0.6106 -0.5352
vn 0.5196 0.7092 -0.4765
vn 0.2201 0.9544 -0.2018
vn -0.2583 0.9366 0.2369
vn -0.4615 0.7797 0.4232
vn 0.6486 0.7316 0.2101
vn 0.5716 0.7994 0.1851
vn 0.2809 0.9554 0.0910
vn -0.1588 0.9860 -0.0514
vn -0.3796 0.9169 -0.1230
vn 0.1104 0.7582 -0.6426
vn 0.0917 0.8405 -0.5339
vn 0.0259 0.9882 -0.1507
vn -0.0592 0.9368 0.3448
vn -0.0949 0.8282 0.5523
vn 0.1323 -0.5266 0.8397
vn 0.1238 -0.6056 0.7861
vn 0.0781 -0.8648 0.4960
vn -0.0193 -0.9923 -0.1225
vn -0.0740 -0.8797 -0.4698
vn 0.7628 -0.5738 -0.2981
vn 0.7091 -0.6484 -0.2772
vn 0.4470 -0.8773 -0.1747
vn -0.0756 -0.9967 0.0296
vn -0.3723 -0.9166 0.1455
vn 0.7872 -0.5359 -0.3051
vn 0.7239 -0.6303 -0.2805
vn 0.3762 -0.9150 -0.1458
vn 0.3761 -0.9150 -0.1458
vn -0.2783 -0.9544 0.1078
vn -0.5813 -0.7819 0.2253
vn -0.5837 -0.6106 0.5352
vn -0.5196 -0.7092 0.4765
vn -0.2201 -0.9544 0.2018
vn 0.2584 -0.9366 -0.2369
vn 0.2583 -0.9366 -0.2369
vn 0.4615 -0.7797 -0.4232
vn -0.6486 -0.7316 -0.2101
vn -0.5716 -0.7994 -0.1851
vn -0.2809 -0.9554 -0.0910
vn 0.1588 -0.9860 0.0514
vn 0.3796 -0.9169 0.1230
vn -0.1104 -0.7582 0.6426
vn -0.0917 -0.8405 0.5339
vn -0.0259 -0.9882 0.1507
vn 0.0592 -0.9368 -0.3448
vn 0.0949 -0.8282 -0.5523
vt -0.008229 0.000000
vt 0.203189 0.246631
vt 0.197412 0.000000
vt 0.033535 0.246631
vt 0.208967 0.408762
vt 0.117065 0.439152
vt 0.214744 0.439152
vt 0.220522 0.356561
vt 0.027264 0.000000
vt 0.086983 0.188205
vt -0.041876 0.000000
vt 0.144024 0.188205
vt 0.215842 0.313691
vt 0.260783 0.313691
vt 0.344701 0.340552
vt 0.377543 0.340552
vt 0.473560 0.283045
vt 0.075011 0.000000
vt 0.147049 0.256858
vt -0.012654 0.000000
vt 0.219372 0.256858
vt 0.306751 0.411667
vt 0.363733 0.411667
vt 0.466454 0.414078
vt 0.652456 0.284084
vt 0.626157 0.284084
vt -0.036942 0.000000
vt -0.007195 0.185352
vt 0.111093 0.000000
vt -0.129324 0.185352
vt -0.125483 0.290367
vt -0.314089 0.278166
vt -0.243772 0.278166
vt -0.406471 0.163394
vt -0.362060 0.163394
vt 0.195097 0.000000
vt -0.008812 0.131026
vt 0.118213 0.000000
vt 0.054617 0.131026
vt -0.135838 0.211631
vt -0.085863 0.211631
vt -0.262863 0.216266
vt -0.226343 0.216266
vt -0.389888 0.155077
vt -0.138355 0.000000
vt 0.029307 0.133674
vt 0.074229 0.000000
vt -0.146075 0.133674
vt -0.015614 0.202255
vt -0.161514 0.178558
vt -0.060536 0.178558
vt -0.105458 0.073379
vt 0.075300 0.408762
vt 0.508095 0.414078
vt -0.221706 0.290367
vt -0.153794 0.202255
vt 0.158830 0.356561
vt 0.494302 0.283045
vt -0.366823 0.155077
vt -0.169233 0.073379
s 1
f 2/1/1 3/2/2 1/3/1
f 4/4/2 5/5/3 3/2/2
f 5/5/3 8/6/5 7/7/4
f 8/6/5 9/8/6 7/7/4
f 12/9/7 13/10/8 11/11/7
f 14/12/8 15/13/9 13/10/8
f 16/14/9 17/15/10 15/13/9
f 18/16/10 19/17/11 17/15/10
f 22/18/12 23/19/13 21/20/12
f 24/21/13 25/22/14 23/19/13
f 26/23/15 27/24/16 25/22/14
f 27/24/16 30/25/17 29/26/17
f 32/27/18 33/28/19 31/29/18
f 34/30/19 35/31/20 33/28/19
f 35/31/20 38/32/21 37/33/21
f 37/33/21 40/34/22 39/35/22
f 42/36/23 43/37/24 41/38/23
f 44/39/24 45/40/25 43/37/24
f 46/41/25 47/42/26 45/40/25
f 48/43/26 49/44/27 47/42/26
f 52/45/28 53/46/29 51/47/28
f 54/48/29 55/49/30 53/46/29
f 55/49/30 58/50/31 57/51/31
f 58/50/31 59/52/32 57/51/31
f 63/2/34 62/1/33 61/3/33
f 63/2/34 66/53/35 64/4/34
f 67/7/36 66/53/35 65/5/35
f 69/8/37 68/6/36 67/7/36
f 73/10/39 72/9/38 71/11/38
f 75/13/40 74/12/39 73/10/39
f 77/15/41 76/14/40 75/13/40
f 79/17/42 78/16/41 77/15/41
f 81/20/43 84/21/44 82/18/43
f 85/22/45 84/21/44 83/19/44
f 87/24/47 86/23/46 85/22/45
f 89/26/48 88/54/47 87/24/47
f 93/28/50 92/27/49 91/29/49
f 95/31/51 94/30/50 93/28/50
f 95/31/51 98/32/53 96/55/51
f 99/35/54 98/32/53 97/33/52
f 103/37/56 102/36/55 101/38/55
f 105/40/57 104/39/56 103/37/56
f 107/42/58 106/41/57 105/40/57
f 109/44/59 108/43/58 107/42/58
f 113/46/61 112/45/60 111/47/60
f 115/49/62 114/48/61 113/46/61
f 115/49/62 118/50/63 116/56/62
f 119/52/64 118/50/63 117/51/63
f 2/1/1 4/4/2 3/2/2
f 4/4/2 6/53/3 5/5/3
f 5/5/3 6/53/3 8/6/5
f 8/6/5 10/57/6 9/8/6
f 12/9/7 14/12/8 13/10/8
f 14/12/8 16/14/9 15/13/9
f 16/14/9 18/16/10 17/15/10
f 18/16/10 20/58/11 19/17/11
f 22/18/12 24/21/13 23/19/13
f 24/21/13 26/23/15 25/22/14
f 26/23/15 28/54/16 27/24/16
f 27/24/16 28/54/16 30/25/17
f 32/27/18 34/30/19 33/28/19
f 34/30/19 36/55/20 35/31/20
f 35/31/20 36/55/20 38/32/21
f 37/33/21 38/32/21 40/34/22
f 42/36/23 44/39/24 43/37/24
f 44/39/24 46/41/25 45/40/25
f 46/41/25 48/43/26 47/42/26
f 48/43/26 50/59/27 49/44/27
f 52/45/28 54/48/29 53/46/29
f 54/48/29 56/56/30 55/49/30
f 55/49/30 56/56/30 58/50/31
f 58/50/31 60/60/32 59/52/32
f 63/2/34 64/4/34 62/1/33
f 63/2/34 65/5/35 66/53/35
f 67/7/36 68/6/36 66/53/35
f 69/8/37 70/57/37 68/6/36
f 73/10/39 74/12/39 72/9/38
f 75/13/40 76/14/40 74/12/39
f 77/15/41 78/16/41 76/14/40
f 79/17/42 80/58/42 78/16/41
f 81/20/43 83/19/44 84/21/44
f 85/22/45 86/23/46 84/21/44
f 87/24/47 88/54/47 86/23/46
f 89/26/48 90/25/48 88/54/47
f 93/28/50 94/30/50 92/27/49
f 95/31/51 96/55/51 94/30/50
f 95/31/51 97/33/52 98/32/53
f 99/35/54 100/34/54 98/32/53
f 103/37/56 104/39/56 102/36/55
f 105/40/57 106/41/57 104/39/56
f 107/42/58 108/43/58 106/41/57
f 109/44/59 110/59/59 108/43/58
f 113/46/61 114/48/61 112/45/60
f 115/49/62 116/56/62 114/48/61
f 115/49/62 117/51/63 118/50/63
f 119/52/64 120/60/64 118/50/63
