# Blender 5.0.1
# www.blender.org
mtllib kelp_i.mtl
o kelp_i_blade
usemtl kelp_i_blade
v -0.111275 0.000000 -0.006384
v 0.113143 0.000000 0.066680
v -0.099810 0.368967 -0.011648
v 0.106975 0.368967 0.055676
v -0.100595 0.737935 0.020714
v 0.088557 0.737935 0.082297
v -0.112050 1.106902 0.085848
v 0.059469 1.106902 0.141690
v -0.128660 1.475869 0.166816
v 0.025226 1.475869 0.216917
v -0.142304 1.844837 0.238671
v -0.006050 1.844837 0.283031
v -0.144334 2.213804 0.274858
v -0.025714 2.213804 0.313478
v -0.127943 2.582772 0.254463
v -0.026955 2.582772 0.287342
v 0.045935 0.000000 -0.084579
v -0.045352 0.000000 0.060536
v 0.018460 0.379008 -0.093906
v -0.065655 0.379008 0.039807
v 0.011996 0.758016 -0.090015
v -0.064946 0.758016 0.032296
v 0.022710 1.137025 -0.075319
v -0.047060 1.137025 0.035591
v 0.041816 1.516033 -0.055343
v -0.020781 1.516033 0.044165
v 0.057268 1.895041 -0.037665
v 0.001844 1.895041 0.050441
v 0.056170 2.274049 -0.030399
v 0.007918 2.274049 0.046304
v 0.027474 2.653058 -0.040494
v -0.013606 2.653058 0.024808
v -0.087629 0.000000 0.021661
v 0.085177 0.000000 -0.057914
v -0.078413 0.379521 0.023805
v 0.080815 0.379521 -0.049518
v -0.057440 0.759041 0.051480
v 0.088210 0.759041 -0.015591
v -0.040728 1.138562 0.069903
v 0.091345 1.138562 0.009085
v -0.045069 1.518083 0.042609
v 0.073427 1.518083 -0.011957
v -0.078107 1.897604 -0.047006
v 0.026811 1.897604 -0.095319
v -0.132277 2.277124 -0.182509
v -0.040937 2.277124 -0.224571
v -0.185952 2.656645 -0.316937
v -0.108189 2.656645 -0.352746
v -0.106265 0.883136 0.127336
v -0.026043 0.883136 0.061726
v -0.300977 1.348989 -0.125069
v -0.234793 1.348989 -0.179197
v -0.495689 1.630237 -0.377474
v -0.443544 1.630237 -0.420120
v -0.690400 1.635599 -0.629879
v -0.652294 1.635599 -0.661044
v -0.885112 1.401323 -0.882284
v -0.861045 1.401323 -0.901967
v -0.022527 1.199574 0.013229
v 0.002242 1.199574 0.096657
v 0.335728 1.551326 -0.085191
v 0.356162 1.551326 -0.016363
v 0.693982 1.696284 -0.183612
v 0.710082 1.696284 -0.129384
v 1.052237 1.560016 -0.282032
v 1.064002 1.560016 -0.242404
v 1.410491 1.172080 -0.380453
v 1.417922 1.172080 -0.355424
v 0.087848 1.361482 -0.063960
v 0.002399 1.361482 -0.055262
v 0.107763 1.628554 0.205894
v 0.037268 1.628554 0.213070
v 0.127678 1.779537 0.475747
v 0.072136 1.779537 0.481401
v 0.147593 1.761262 0.745601
v 0.107005 1.761262 0.749733
v 0.167508 1.594844 1.015455
v 0.141874 1.594844 1.018064
v -0.112513 1.130894 0.050731
v -0.147524 1.130894 -0.039152
v -0.442438 1.478150 0.170185
v -0.471322 1.478150 0.096032
v -0.772362 1.649418 0.289639
v -0.795120 1.649418 0.231215
v -1.102287 1.573519 0.409092
v -1.118917 1.573519 0.366398
v -1.432212 1.278720 0.528546
v -1.442715 1.278720 0.501581
v 0.041283 1.282773 0.138919
v -0.064127 1.282773 0.066598
v -0.176578 1.624222 0.436683
v -0.263541 1.624222 0.377018
v -0.394439 1.765478 0.734447
v -0.462955 1.765478 0.687439
v -0.612300 1.634331 1.032212
v -0.662369 1.634331 0.997859
v -0.830160 1.259458 1.329976
v -0.861783 1.259458 1.308279
v -0.140905 1.215249 -0.037650
v -0.051657 1.215249 -0.087643
v -0.284536 1.635074 -0.312380
v -0.210907 1.635074 -0.353624
v -0.428167 1.849955 -0.587109
v -0.370156 1.849955 -0.619605
v -0.571799 1.774476 -0.861839
v -0.529406 1.774476 -0.885586
v -0.715429 1.442558 -1.136569
v -0.688655 1.442558 -1.151567
v -0.111275 0.000000 -0.006384
v 0.113143 0.000000 0.066680
v -0.099810 0.368967 -0.011648
v 0.106975 0.368967 0.055676
v -0.100595 0.737935 0.020714
v 0.088557 0.737935 0.082297
v -0.112050 1.106902 0.085848
v 0.059469 1.106902 0.141690
v -0.128660 1.475869 0.166816
v 0.025226 1.475869 0.216917
v -0.142304 1.844837 0.238671
v -0.006050 1.844837 0.283031
v -0.144334 2.213804 0.274858
v -0.025714 2.213804 0.313478
v -0.127943 2.582772 0.254463
v -0.026955 2.582772 0.287342
v 0.045935 0.000000 -0.084579
v -0.045352 0.000000 0.060536
v 0.018460 0.379008 -0.093906
v -0.065655 0.379008 0.039807
v 0.011996 0.758016 -0.090015
v -0.064946 0.758016 0.032296
v 0.022710 1.137025 -0.075319
v -0.047060 1.137025 0.035591
v 0.041816 1.516033 -0.055343
v -0.020781 1.516033 0.044165
v 0.057268 1.895041 -0.037665
v 0.001844 1.895041 0.050441
v 0.056170 2.274049 -0.030399
v 0.007918 2.274049 0.046304
v 0.027474 2.653058 -0.040494
v -0.013606 2.653058 0.024808
v -0.087629 0.000000 0.021661
v 0.085177 0.000000 -0.057914
v -0.078413 0.379521 0.023805
v 0.080815 0.379521 -0.049518
v -0.057440 0.759041 0.051480
v 0.088210 0.759041 -0.015591
v -0.040728 1.138562 0.069903
v 0.091345 1.138562 0.009085
v -0.045069 1.518083 0.042609
v 0.073427 1.518083 -0.011957
v -0.078107 1.897604 -0.047006
v 0.026811 1.897604 -0.095319
v -0.132277 2.277124 -0.182509
v -0.040937 2.277124 -0.224571
v -0.185952 2.656645 -0.316937
v -0.108189 2.656645 -0.352746
v -0.106265 0.883136 0.127336
v -0.026043 0.883136 0.061726
v -0.300977 1.348989 -0.125069
v -0.234793 1.348989 -0.179197
v -0.495689 1.630237 -0.377474
v -0.443544 1.630237 -0.420120
v -0.690400 1.635599 -0.629879
v -0.652294 1.635599 -0.661044
v -0.885112 1.401323 -0.882284
v -0.861045 1.401323 -0.901967
v -0.022527 1.199574 0.013229
v 0.002242 1.199574 0.096657
v 0.335728 1.551326 -0.085191
v 0.356162 1.551326 -0.016363
v 0.693982 1.696284 -0.183612
v 0.710082 1.696284 -0.129384
v 1.052237 1.560016 -0.282032
v 1.064002 1.560016 -0.242404
v 1.410491 1.172080 -0.380453
v 1.417922 1.172080 -0.355424
v 0.087848 1.361482 -0.063960
v 0.002399 1.361482 -0.055262
v 0.107763 1.628554 0.205894
v 0.037268 1.628554 0.213070
v 0.127678 1.779537 0.475747
v 0.072136 1.779537 0.481401
v 0.147593 1.761262 0.745601
v 0.107005 1.761262 0.749733
v 0.167508 1.594844 1.015455
v 0.141874 1.594844 1.018064
v -0.112513 1.130894 0.050731
v -0.147524 1.130894 -0.039152
v -0.442438 1.478150 0.170185
v -0.471322 1.478150 0.096032
v -0.772362 1.649418 0.289639
v -0.795120 1.649418 0.231215
v -1.102287 1.573519 0.409092
v -1.118917 1.573519 0.366398
v -1.432212 1.278720 0.528546
v -1.442715 1.278720 0.501581
v 0.041283 1.282773 0.138919
v -0.064127 1.282773 0.066598
v -0.176578 1.624222 0.436683
v -0.263541 1.624222 0.377018
v -0.394439 1.765478 0.734447
v -0.462955 1.765478 0.687439
v -0.612300 1.634331 1.032212
v -0.662369 1.634331 0.997859
v -0.830160 1.259458 1.329976
v -0.861783 1.259458 1.308279
v -0.140905 1.215249 -0.037650
v -0.051657 1.215249 -0.087643
v -0.284536 1.635074 -0.312380
v -0.210907 1.635074 -0.353624
v -0.428167 1.849955 -0.587109
v -0.370156 1.849955 -0.619605
v -0.571799 1.774476 -0.861839
v -0.529406 1.774476 -0.885586
v -0.715429 1.442558 -1.136569
v -0.688655 1.442558 -1.151567
vn -0.3095 0.0232 0.9506
vn -0.3094 -0.0295 0.9505
vn -0.3070 -0.1287 0.9430
vn -0.3036 -0.1957 0.9325
vn -0.3030 -0.2053 0.9306
vn -0.3063 -0.1447 0.9409
vn -0.3095 -0.0155 0.9508
vn -0.3089 0.0662 0.9488
vn 0.8441 0.0743 0.5310
vn 0.8457 0.0420 0.5320
vn 0.8463 -0.0175 0.5324
vn 0.8451 -0.0574 0.5316
vn 0.8447 -0.0650 0.5313
vn 0.8460 -0.0338 0.5322
vn 0.8459 0.0347 0.5322
vn 0.8439 0.0780 0.5309
vn 0.4182 -0.0153 0.9082
vn 0.4177 -0.0517 0.9071
vn 0.4171 -0.0759 0.9057
vn 0.4183 0.0030 0.9083
vn 0.4131 0.1562 0.8972
vn 0.3989 0.3008 0.8663
vn 0.3907 0.3572 0.8484
vn 0.3909 0.3559 0.8488
vn 0.5225 0.5646 0.6389
vn 0.4750 0.6611 0.5808
vn 0.2324 0.9302 0.2841
vn -0.1889 0.9544 -0.2310
vn -0.3750 0.8057 -0.4585
vn -0.6592 0.7261 0.1957
vn -0.5151 0.8434 0.1529
vn -0.0142 0.9999 0.0042
vn 0.5229 0.8382 -0.1552
vn 0.6924 0.6916 -0.2056
vn -0.0712 0.7116 -0.6990
vn -0.0610 0.7985 -0.5989
vn -0.0227 0.9746 -0.2227
vn 0.0305 0.9537 0.2992
vn 0.0531 0.8517 0.5213
vn 0.6556 0.7107 -0.2553
vn 0.5409 0.8143 -0.2107
vn 0.1167 0.9921 -0.0454
vn -0.4076 0.8993 0.1588
vn -0.5995 0.7656 0.2335
vn 0.3844 0.7338 -0.5602
vn 0.3003 0.8475 -0.4376
vn 0.0106 0.9998 -0.0154
vn 0.0106 0.9998 -0.0155
vn -0.3024 0.8451 0.4408
vn -0.4033 0.7013 0.5878
vn 0.3932 0.5939 0.7019
vn 0.3412 0.7160 0.6091
vn 0.0928 0.9818 0.1657
vn -0.2449 0.8654 -0.4371
vn -0.3572 0.6824 -0.6377
vn 0.3095 -0.0232 -0.9506
vn 0.3094 0.0295 -0.9505
vn 0.3070 0.1287 -0.9430
vn 0.3036 0.1957 -0.9325
vn 0.3030 0.2053 -0.9306
vn 0.3063 0.1447 -0.9409
vn 0.3095 0.0155 -0.9508
vn 0.3089 -0.0662 -0.9488
vn -0.8441 -0.0743 -0.5310
vn -0.8457 -0.0420 -0.5320
vn -0.8463 0.0175 -0.5324
vn -0.8451 0.0574 -0.5316
vn -0.8447 0.0650 -0.5313
vn -0.8460 0.0338 -0.5322
vn -0.8459 -0.0347 -0.5322
vn -0.8439 -0.0780 -0.5309
vn -0.4182 0.0153 -0.9082
vn -0.4177 0.0517 -0.9071
vn -0.4171 0.0759 -0.9057
vn -0.4183 -0.0030 -0.9083
vn -0.4131 -0.1562 -0.8972
vn -0.3989 -0.3008 -0.8663
vn -0.3907 -0.3572 -0.8484
vn -0.3909 -0.3559 -0.8488
vn -0.5225 -0.5646 -0.6389
vn -0.4750 -0.6611 -0.5808
vn -0.2324 -0.9302 -0.2841
vn 0.1889 -0.9544 0.2310
vn 0.3750 -0.8057 0.4585
vn 0.6592 -0.7261 -0.1957
vn 0.5151 -0.8434 -0.1529
vn 0.0142 -0.9999 -0.0042
vn -0.5229 -0.8382 0.1552
vn -0.6924 -0.6916 0.2056
vn 0.0712 -0.7116 0.6990
vn 0.0610 -0.7985 0.5989
vn 0.0227 -0.9746 0.2227
vn -0.0305 -0.9537 -0.2992
vn -0.0531 -0.8517 -0.5213
vn -0.6556 -0.7107 0.2553
vn -0.5409 -0.8143 0.2107
vn -0.1167 -0.9921 0.0454
vn 0.4076 -0.8993 -0.1588
vn 0.5995 -0.7656 -0.2335
vn -0.3844 -0.7338 0.5602
vn -0.3003 -0.8475 0.4376
vn -0.0106 -0.9998 0.0155
vn 0.3024 -0.8451 -0.4408
vn 0.4033 -0.7013 -0.5878
vn -0.3932 -0.5939 -0.7019
vn -0.3412 -0.7160 -0.6091
vn -0.0928 -0.9818 -0.1657
vn 0.2449 -0.8654 0.4371
vn 0.3572 -0.6824 0.6377
vt -0.102207 0.000000
vt 0.261542 0.614946
vt -0.083099 0.614946
vt -0.084408 1.229891
vt 0.230845 1.229891
vt -0.103499 1.844837
vt 0.125295 2.459782
vt -0.131183 2.459782
vt 0.073168 3.074728
vt -0.153921 3.074728
vt 0.040395 3.689674
vt -0.157306 3.689674
vt -0.129987 4.304619
vt 0.114017 0.631680
vt 0.007664 0.000000
vt 0.159810 0.000000
vt -0.024992 1.263361
vt -0.026174 0.631680
vt 0.103245 1.263361
vt 0.004818 1.895041
vt 0.152944 2.526721
vt 0.121101 1.895041
vt 0.178699 3.158402
vt 0.048616 2.526721
vt 0.096447 3.790082
vt 0.086324 3.158402
vt 0.129041 4.421762
vt 0.176867 3.790082
vt 0.225213 0.000000
vt -0.047437 0.632535
vt -0.062796 0.000000
vt 0.217943 0.632535
vt -0.012483 1.265069
vt 0.235492 1.897604
vt 0.015371 1.897604
vt 0.205629 2.530138
vt 0.008137 2.530138
vt -0.046927 3.162673
vt 0.015023 3.795207
vt -0.137211 3.795207
vt -0.097064 4.427742
vt -0.226668 4.427742
vt 0.039847 1.471893
vt -0.418377 2.248316
vt -0.093858 1.471893
vt -0.308071 2.248316
vt -0.742897 2.717061
vt -1.003906 2.725997
vt -1.067416 2.725997
vt -1.351824 2.335539
vt -1.391935 2.335539
vt 0.086988 1.999289
vt 0.642797 2.585543
vt 0.045706 1.999289
vt 1.266722 2.827141
vt 1.239888 2.827141
vt 1.836979 2.600027
vt 1.856588 2.600027
vt 2.434070 1.953467
vt 0.087249 2.269136
vt 0.262857 2.714256
vt 0.229665 2.269136
vt 0.145364 2.714256
vt 0.296048 2.965894
vt 0.203478 2.965894
vt 0.329240 2.935437
vt 0.261593 2.935437
vt 0.362432 2.658074
vt -0.104271 1.884823
vt -0.702286 2.463583
vt -0.654145 2.463583
vt -1.204020 2.749030
vt -1.781611 2.622532
vt -1.753894 2.622532
vt -2.303768 2.131200
vt 0.152056 2.137955
vt -0.355984 2.707037
vt -0.211046 2.707037
vt -0.574147 2.942463
vt -0.688341 2.942463
vt -0.937248 2.723886
vt -1.020697 2.723886
vt -1.300349 2.099097
vt -0.002844 2.025414
vt -0.390976 2.725124
vt -0.151591 2.025414
vt -0.268260 2.725124
vt -0.630361 3.083258
vt -0.533676 3.083258
vt -0.869746 2.957460
vt -0.799092 2.957460
vt -1.109131 2.404263
vt 0.271823 0.000000
vt 0.182366 1.844837
vt 0.230268 1.265069
vt 0.127936 3.162673
vt -0.655988 2.717061
vt 0.676855 2.585543
vt -0.162623 1.884823
vt -1.241948 2.749030
vt -2.321274 2.131200
vt -0.023627 2.137955
vt 0.038326 4.304619
vt 0.060575 4.421762
vt 2.446455 1.953467
vt 0.319707 2.658074
vt -1.353054 2.099097
vt -1.064507 2.404263
s 1
f 1/1/1 4/2/2 3/3/2
f 4/2/2 5/4/3 3/3/2
f 6/5/3 7/6/4 5/4/3
f 7/6/4 10/7/5 9/8/5
f 9/8/5 12/9/6 11/10/6
f 11/10/6 14/11/7 13/12/7
f 14/11/7 15/13/8 13/12/7
f 19/14/10 18/15/9 17/16/9
f 19/14/10 22/17/11 20/18/10
f 21/19/11 24/20/12 22/17/11
f 25/21/13 24/20/12 23/22/12
f 27/23/14 26/24/13 25/21/13
f 27/23/14 30/25/15 28/26/14
f 31/27/16 30/25/15 29/28/15
f 34/29/17 35/30/18 33/31/17
f 36/32/18 37/33/19 35/30/18
f 37/33/19 40/34/20 39/35/20
f 39/35/20 42/36/21 41/37/21
f 42/36/21 43/38/22 41/37/21
f 43/38/22 46/39/23 45/40/23
f 45/40/23 48/41/24 47/42/24
f 50/43/25 51/44/26 49/45/25
f 52/46/26 53/47/27 51/44/26
f 53/47/27 56/48/28 55/49/28
f 55/49/28 58/50/29 57/51/29
f 60/52/30 61/53/31 59/54/30
f 61/53/31 64/55/32 63/56/32
f 64/55/32 65/57/33 63/56/32
f 66/58/33 67/59/34 65/57/33
f 70/60/35 71/61/36 69/62/35
f 72/63/36 73/64/37 71/61/36
f 74/65/37 75/66/38 73/64/37
f 76/67/38 77/68/39 75/66/38
f 79/69/40 82/70/41 81/71/41
f 82/70/41 83/72/42 81/71/41
f 83/72/42 86/73/43 85/74/43
f 86/73/43 87/75/44 85/74/43
f 89/76/45 92/77/46 91/78/46
f 92/77/46 93/79/47 91/78/46
f 94/80/48 95/81/49 93/79/47
f 96/82/49 97/83/50 95/81/49
f 100/84/51 101/85/52 99/86/51
f 102/87/52 103/88/53 101/85/52
f 104/89/53 105/90/54 103/88/53
f 106/91/54 107/92/55 105/90/54
f 109/1/56 112/2/57 110/93/56
f 113/4/58 112/2/57 111/3/57
f 115/6/59 114/5/58 113/4/58
f 117/8/60 116/94/59 115/6/59
f 119/10/61 118/7/60 117/8/60
f 119/10/61 122/11/62 120/9/61
f 123/13/63 122/11/62 121/12/62
f 126/15/64 127/14/65 125/16/64
f 127/14/65 130/17/66 129/19/66
f 129/19/66 132/20/67 131/22/67
f 132/20/67 133/21/68 131/22/67
f 134/24/68 135/23/69 133/21/68
f 135/23/69 138/25/70 137/28/70
f 138/25/70 139/27/71 137/28/70
f 143/30/73 142/29/72 141/31/72
f 145/33/74 144/32/73 143/30/73
f 145/33/74 148/34/75 146/95/74
f 147/35/75 150/36/76 148/34/75
f 151/38/77 150/36/76 149/37/76
f 153/40/78 152/96/77 151/38/77
f 153/40/78 156/41/79 154/39/78
f 159/44/81 158/43/80 157/45/80
f 159/44/81 162/97/82 160/46/81
f 161/47/82 164/48/83 162/97/82
f 163/49/83 166/50/84 164/48/83
f 169/53/86 168/52/85 167/54/85
f 171/56/87 170/98/86 169/53/86
f 173/57/88 172/55/87 171/56/87
f 175/59/89 174/58/88 173/57/88
f 179/61/91 178/60/90 177/62/90
f 181/64/92 180/63/91 179/61/91
f 183/66/93 182/65/92 181/64/92
f 185/68/94 184/67/93 183/66/93
f 187/69/95 190/70/96 188/99/95
f 189/71/96 192/100/97 190/70/96
f 191/72/97 194/73/98 192/100/97
f 193/74/98 196/101/99 194/73/98
f 199/78/101 198/102/100 197/76/100
f 201/79/102 200/77/101 199/78/101
f 203/81/103 202/80/102 201/79/102
f 205/83/104 204/82/103 203/81/103
f 209/85/106 208/84/105 207/86/105
f 211/88/107 210/87/106 209/85/106
f 213/90/108 212/89/107 211/88/107
f 215/92/109 214/91/108 213/90/108
f 1/1/1 2/93/1 4/2/2
f 4/2/2 6/5/3 5/4/3
f 6/5/3 8/94/4 7/6/4
f 7/6/4 8/94/4 10/7/5
f 9/8/5 10/7/5 12/9/6
f 11/10/6 12/9/6 14/11/7
f 14/11/7 16/103/8 15/13/8
f 19/14/10 20/18/10 18/15/9
f 19/14/10 21/19/11 22/17/11
f 21/19/11 23/22/12 24/20/12
f 25/21/13 26/24/13 24/20/12
f 27/23/14 28/26/14 26/24/13
f 27/23/14 29/28/15 30/25/15
f 31/27/16 32/104/16 30/25/15
f 34/29/17 36/32/18 35/30/18
f 36/32/18 38/95/19 37/33/19
f 37/33/19 38/95/19 40/34/20
f 39/35/20 40/34/20 42/36/21
f 42/36/21 44/96/22 43/38/22
f 43/38/22 44/96/22 46/39/23
f 45/40/23 46/39/23 48/41/24
f 50/43/25 52/46/26 51/44/26
f 52/46/26 54/97/27 53/47/27
f 53/47/27 54/97/27 56/48/28
f 55/49/28 56/48/28 58/50/29
f 60/52/30 62/98/31 61/53/31
f 61/53/31 62/98/31 64/55/32
f 64/55/32 66/58/33 65/57/33
f 66/58/33 68/105/34 67/59/34
f 70/60/35 72/63/36 71/61/36
f 72/63/36 74/65/37 73/64/37
f 74/65/37 76/67/38 75/66/38
f 76/67/38 78/106/39 77/68/39
f 79/69/40 80/99/40 82/70/41
f 82/70/41 84/100/42 83/72/42
f 83/72/42 84/100/42 86/73/43
f 86/73/43 88/101/44 87/75/44
f 89/76/45 90/102/45 92/77/46
f 92/77/46 94/80/48 93/79/47
f 94/80/48 96/82/49 95/81/49
f 96/82/49 98/107/50 97/83/50
f 100/84/51 102/87/52 101/85/52
f 102/87/52 104/89/53 103/88/53
f 104/89/53 106/91/54 105/90/54
f 106/91/54 108/108/55 107/92/55
f 109/1/56 111/3/57 112/2/57
f 113/4/58 114/5/58 112/2/57
f 115/6/59 116/94/59 114/5/58
f 117/8/60 118/7/60 116/94/59
f 119/10/61 120/9/61 118/7/60
f 119/10/61 121/12/62 122/11/62
f 123/13/63 124/103/63 122/11/62
f 126/15/64 128/18/65 127/14/65
f 127/14/65 128/18/65 130/17/66
f 129/19/66 130/17/66 132/20/67
f 132/20/67 134/24/68 133/21/68
f 134/24/68 136/26/69 135/23/69
f 135/23/69 136/26/69 138/25/70
f 138/25/70 140/104/71 139/27/71
f 143/30/73 144/32/73 142/29/72
f 145/33/74 146/95/74 144/32/73
f 145/33/74 147/35/75 148/34/75
f 147/35/75 149/37/76 150/36/76
f 151/38/77 152/96/77 150/36/76
f 153/40/78 154/39/78 152/96/77
f 153/40/78 155/42/79 156/41/79
f 159/44/81 160/46/81 158/43/80
f 159/44/81 161/47/82 162/97/82
f 161/47/82 163/49/83 164/48/83
f 163/49/83 165/51/84 166/50/84
f 169/53/86 170/98/86 168/52/85
f 171/56/87 172/55/87 170/98/86
f 173/57/88 174/58/88 172/55/87
f 175/59/89 176/105/89 174/58/88
f 179/61/91 180/63/91 178/60/90
f 181/64/92 182/65/92 180/63/91
f 183/66/93 184/67/93 182/65/92
f 185/68/94 186/106/94 184/67/93
f 187/69/95 189/71/96 190/70/96
f 189/71/96 191/72/97 192/100/97
f 191/72/97 193/74/98 194/73/98
f 193/74/98 195/75/99 196/101/99
f 199/78/101 200/77/101 198/102/100
f 201/79/102 202/80/102 200/77/101
f 203/81/103 204/82/103 202/80/102
f 205/83/104 206/107/104 204/82/103
f 209/85/106 210/87/106 208/84/105
f 211/88/107 212/89/107 210/87/106
f 213/90/108 214/91/108 212/89/107
f 215/92/109 216/108/109 214/91/108
