# Blender 5.0.1
# www.blender.org
mtllib kelp_c.mtl
o kelp_c_blade
usemtl kelp_c_blade
v 0.053053 0.000000 0.039265
v 0.079209 0.000000 -0.081133
v 0.040141 0.221434 0.031506
v 0.064241 0.221434 -0.079432
v 0.052639 0.442868 0.029268
v 0.074684 0.442868 -0.072210
v 0.060247 0.664302 0.025968
v 0.080238 0.664302 -0.066050
v 0.027654 0.885736 0.013934
v 0.045589 0.885736 -0.068624
v -0.058169 1.107170 -0.009663
v -0.042289 1.107170 -0.082762
v -0.172809 1.328604 -0.039521
v -0.158984 1.328604 -0.103160
v -0.262950 1.550038 -0.064057
v -0.251180 1.550038 -0.118236
v -0.130353 0.000000 0.119861
v -0.054026 0.000000 -0.031241
v -0.118972 0.231308 0.118159
v -0.048642 0.231308 -0.021071
v -0.071093 0.462616 0.134894
v -0.006760 0.462616 0.007536
v 0.001421 0.693923 0.164073
v 0.059757 0.693923 0.048587
v 0.065782 0.925231 0.189133
v 0.118120 0.925231 0.085520
v 0.085085 1.156539 0.191432
v 0.131426 1.156539 0.099692
v 0.039220 1.387847 0.160814
v 0.079564 1.387847 0.080945
v -0.060476 1.619155 0.103003
v -0.026129 1.619155 0.035007
v 0.035252 0.000000 0.033492
v 0.016866 0.000000 -0.080244
v -0.001379 0.213227 0.034829
v -0.018320 0.213227 -0.069971
v -0.057221 0.426454 0.039271
v -0.072717 0.426454 -0.056592
v -0.109697 0.639682 0.043169
v -0.123749 0.639682 -0.043758
v -0.133158 0.852909 0.042376
v -0.145765 0.852909 -0.035614
v -0.114192 1.066136 0.034725
v -0.125355 1.066136 -0.034328
v -0.061855 1.279363 0.021680
v -0.071573 1.279363 -0.038437
v -0.007091 1.492590 0.008242
v -0.015365 1.492590 -0.042939
v 0.053053 0.000000 0.039265
v 0.079209 0.000000 -0.081133
v 0.040141 0.221434 0.031506
v 0.064241 0.221434 -0.079432
v 0.052639 0.442868 0.029268
v 0.074684 0.442868 -0.072210
v 0.060247 0.664302 0.025968
v 0.080238 0.664302 -0.066050
v 0.027654 0.885736 0.013934
v 0.045589 0.885736 -0.068624
v -0.058169 1.107170 -0.009663
v -0.042289 1.107170 -0.082762
v -0.172809 1.328604 -0.039521
v -0.158984 1.328604 -0.103160
v -0.262950 1.550038 -0.064057
v -0.251180 1.550038 -0.118236
v -0.130353 0.000000 0.119861
v -0.054026 0.000000 -0.031241
v -0.118972 0.231308 0.118159
v -0.048642 0.231308 -0.021071
v -0.071093 0.462616 0.134894
v -0.006760 0.462616 0.007536
v 0.001421 0.693923 0.164073
v 0.059757 0.693923 0.048587
v 0.065782 0.925231 0.189133
v 0.118120 0.925231 0.085520
v 0.085085 1.156539 0.191432
v 0.131426 1.156539 0.099692
v 0.039220 1.387847 0.160814
v 0.079564 1.387847 0.080945
v -0.060476 1.619155 0.103003
v -0.026129 1.619155 0.035007
v 0.035252 0.000000 0.033492
v 0.016866 0.000000 -0.080244
v -0.001379 0.213227 0.034829
v -0.018320 0.213227 -0.069971
v -0.057221 0.426454 0.039271
v -0.072717 0.426454 -0.056592
v -0.109697 0.639682 0.043169
v -0.123749 0.639682 -0.043758
v -0.133158 0.852909 0.042376
v -0.145765 0.852909 -0.035614
v -0.114192 1.066136 0.034725
v -0.125355 1.066136 -0.034328
v -0.061855 1.279363 0.021680
v -0.071573 1.279363 -0.038437
v -0.007091 1.492590 0.008242
v -0.015365 1.492590 -0.042939
vn 0.9752 0.0643 0.2119
vn 0.9772 0.0065 0.2123
vn 0.9764 -0.0418 0.2121
vn 0.9754 0.0606 0.2119
vn 0.9427 0.2633 0.2048
vn 0.8860 0.4220 0.1925
vn 0.8819 0.4308 0.1916
vn 0.9005 0.3883 0.1956
vn 0.8919 -0.0406 0.4505
vn 0.8855 -0.1254 0.4473
vn 0.8606 -0.2652 0.4347
vn 0.8508 -0.3023 0.4298
vn 0.8772 -0.1847 0.4431
vn 0.8901 0.0739 0.4496
vn 0.8400 0.3382 0.4243
vn 0.7992 0.4454 0.4037
vn -0.9731 -0.1682 0.1573
vn -0.9651 -0.2104 0.1560
vn -0.9568 -0.2461 0.1547
vn -0.9721 -0.1743 0.1571
vn -0.9871 -0.0085 0.1596
vn -0.9731 0.1683 0.1573
vn -0.9559 0.2496 0.1545
vn -0.9546 0.2549 0.1543
vn -0.9752 -0.0643 -0.2119
vn -0.9772 -0.0065 -0.2123
vn -0.9764 0.0418 -0.2121
vn -0.9754 -0.0606 -0.2119
vn -0.9427 -0.2633 -0.2048
vn -0.8860 -0.4220 -0.1925
vn -0.8819 -0.4308 -0.1916
vn -0.9005 -0.3883 -0.1956
vn -0.8919 0.0406 -0.4505
vn -0.8855 0.1254 -0.4473
vn -0.8606 0.2652 -0.4347
vn -0.8508 0.3023 -0.4298
vn -0.8772 0.1847 -0.4431
vn -0.8901 -0.0739 -0.4496
vn -0.8400 -0.3382 -0.4243
vn -0.7992 -0.4454 -0.4037
vn 0.9731 0.1682 -0.1573
vn 0.9651 0.2104 -0.1560
vn 0.9568 0.2461 -0.1547
vn 0.9721 0.1743 -0.1571
vn 0.9871 0.0085 -0.1596
vn 0.9731 -0.1683 -0.1573
vn 0.9559 -0.2496 -0.1545
vn 0.9546 -0.2549 -0.1543
vt 0.216676 0.000000
vt 0.151562 0.369057
vt 0.173083 0.000000
vt 0.209135 0.738113
vt 0.172393 0.738113
vt 0.185073 1.107170
vt 0.160643 1.476226
vt 0.130751 1.476226
vt -0.012287 1.845283
vt 0.014180 1.845283
vt -0.203353 2.214339
vt -0.333971 2.583396
vt -0.353588 2.583396
vt -0.132594 0.000000
vt 0.003591 0.385513
vt -0.113626 0.385513
vt 0.073395 0.771026
vt -0.033827 0.771026
vt 0.087030 1.156539
vt 0.184256 1.156539
vt 0.194297 1.542052
vt 0.303705 1.927565
vt 0.226469 1.927565
vt 0.150027 2.313078
vt 0.041113 2.698591
vt -0.016133 2.698591
vt 0.082363 0.355379
vt 0.112771 0.000000
vt 0.143414 0.000000
vt -0.036534 0.710757
vt 0.054128 0.355379
vt -0.098167 1.066136
vt -0.010707 0.710757
vt -0.137268 1.421515
vt -0.121587 1.066136
vt -0.124263 1.776893
vt -0.158280 1.421515
vt -0.018431 2.132272
vt -0.105659 1.776893
vt 0.072843 2.487651
vt -0.034628 2.132272
vt 0.191730 0.369057
vt 0.218391 1.107170
vt -0.180311 2.214339
vt -0.005382 0.000000
vt 0.281528 1.542052
vt 0.217268 2.313078
vt 0.059053 2.487651
s 1
f 2/1/1 3/2/2 1/3/1
f 3/2/2 6/4/3 5/5/3
f 6/4/3 7/6/4 5/5/3
f 7/6/4 10/7/5 9/8/5
f 10/7/5 11/9/6 9/8/5
f 12/10/6 13/11/7 11/9/6
f 13/11/7 16/12/8 15/13/8
f 17/14/9 20/15/10 19/16/10
f 19/16/10 22/17/11 21/18/11
f 22/17/11 23/19/12 21/18/11
f 24/20/12 25/21/13 23/19/12
f 25/21/13 28/22/14 27/23/14
f 28/22/14 29/24/15 27/23/14
f 29/24/15 32/25/16 31/26/16
f 35/27/18 34/28/17 33/29/17
f 35/27/18 38/30/19 36/31/18
f 39/32/20 38/30/19 37/33/19
f 41/34/21 40/35/20 39/32/20
f 41/34/21 44/36/22 42/37/21
f 45/38/23 44/36/22 43/39/22
f 47/40/24 46/41/23 45/38/23
f 51/2/26 50/1/25 49/3/25
f 53/5/27 52/42/26 51/2/26
f 55/6/28 54/4/27 53/5/27
f 55/6/28 58/7/29 56/43/28
f 59/9/30 58/7/29 57/8/29
f 61/11/31 60/10/30 59/9/30
f 61/11/31 64/12/32 62/44/31
f 67/16/34 66/45/33 65/14/33
f 69/18/35 68/15/34 67/16/34
f 71/19/36 70/17/35 69/18/35
f 73/21/37 72/20/36 71/19/36
f 73/21/37 76/22/38 74/46/37
f 77/24/39 76/22/38 75/23/38
f 79/26/40 78/47/39 77/24/39
f 82/28/41 83/27/42 81/29/41
f 84/31/42 85/33/43 83/27/42
f 86/30/43 87/32/44 85/33/43
f 88/35/44 89/34/45 87/32/44
f 89/34/45 92/36/46 91/39/46
f 92/36/46 93/38/47 91/39/46
f 94/41/47 95/40/48 93/38/47
f 2/1/1 4/42/2 3/2/2
f 3/2/2 4/42/2 6/4/3
f 6/4/3 8/43/4 7/6/4
f 7/6/4 8/43/4 10/7/5
f 10/7/5 12/10/6 11/9/6
f 12/10/6 14/44/7 13/11/7
f 13/11/7 14/44/7 16/12/8
f 17/14/9 18/45/9 20/15/10
f 19/16/10 20/15/10 22/17/11
f 22/17/11 24/20/12 23/19/12
f 24/20/12 26/46/13 25/21/13
f 25/21/13 26/46/13 28/22/14
f 28/22/14 30/47/15 29/24/15
f 29/24/15 30/47/15 32/25/16
f 35/27/18 36/31/18 34/28/17
f 35/27/18 37/33/19 38/30/19
f 39/32/20 40/35/20 38/30/19
f 41/34/21 42/37/21 40/35/20
f 41/34/21 43/39/22 44/36/22
f 45/38/23 46/41/23 44/36/22
f 47/40/24 48/48/24 46/41/23
f 51/2/26 52/42/26 50/1/25
f 53/5/27 54/4/27 52/42/26
f 55/6/28 56/43/28 54/4/27
f 55/6/28 57/8/29 58/7/29
f 59/9/30 60/10/30 58/7/29
f 61/11/31 62/44/31 60/10/30
f 61/11/31 63/13/32 64/12/32
f 67/16/34 68/15/34 66/45/33
f 69/18/35 70/17/35 68/15/34
f 71/19/36 72/20/36 70/17/35
f 73/21/37 74/46/37 72/20/36
f 73/21/37 75/23/38 76/22/38
f 77/24/39 78/47/39 76/22/38
f 79/26/40 80/25/40 78/47/39
f 82/28/41 84/31/42 83/27/42
f 84/31/42 86/30/43 85/33/43
f 86/30/43 88/35/44 87/32/44
f 88/35/44 90/37/45 89/34/45
f 89/34/45 90/37/45 92/36/46
f 92/36/46 94/41/47 93/38/47
f 94/41/47 96/48/48 95/40/48
