# Blender 5.0.1
# www.blender.org
mtllib kelp_g.mtl
o kelp_g_blade
usemtl kelp_g_blade
v -0.006171 0.000000 0.044057
v 0.040184 0.000000 -0.068128
v -0.172858 0.265422 -0.036310
v -0.134616 0.265422 -0.128863
v -0.339546 0.424825 -0.116678
v -0.309415 0.424825 -0.189598
v -0.506234 0.426137 -0.197045
v -0.484215 0.426137 -0.250333
v -0.672921 0.290035 -0.277412
v -0.659015 0.290035 -0.311068
v 0.001133 0.000000 -0.113207
v -0.007620 0.000000 -0.010496
v 0.158816 0.189492 -0.090717
v 0.151595 0.189492 -0.005980
v 0.316499 0.316909 -0.068226
v 0.310809 0.316909 -0.001465
v 0.474182 0.346186 -0.045736
v 0.470024 0.346186 0.003051
v 0.631865 0.291645 -0.023246
v 0.629239 0.291645 0.007567
v 0.028476 0.000000 -0.069663
v -0.123057 0.000000 -0.074003
v 0.010166 0.236037 0.106314
v -0.114850 0.236037 0.102733
v -0.008145 0.372006 0.282292
v -0.106642 0.372006 0.279470
v -0.026456 0.361123 0.458269
v -0.098434 0.361123 0.456207
v -0.044767 0.221966 0.634246
v -0.090227 0.221966 0.632944
v 0.038259 0.000000 0.007330
v -0.008785 0.000000 0.157798
v 0.194281 0.225940 0.070564
v 0.155469 0.225940 0.194700
v 0.350302 0.370048 0.133797
v 0.319723 0.370048 0.231602
v 0.506323 0.388683 0.197031
v 0.483977 0.388683 0.268504
v 0.662345 0.299177 0.260265
v 0.648231 0.299177 0.305406
v 0.003090 0.000000 0.015373
v 0.048214 0.000000 0.113456
v 0.190820 0.312430 -0.060596
v 0.228047 0.312430 0.020322
v 0.378549 0.500273 -0.136566
v 0.407880 0.500273 -0.072812
v 0.566279 0.502249 -0.212536
v 0.587713 0.502249 -0.165947
v 0.754009 0.342692 -0.288506
v 0.767546 0.342692 -0.259081
v 0.087221 0.000000 -0.010656
v -0.058227 0.000000 -0.053926
v 0.006824 0.374088 0.213026
v -0.113171 0.374088 0.177328
v -0.073574 0.610408 0.436707
v -0.168115 0.610408 0.408581
v -0.153972 0.636519 0.660388
v -0.223060 0.636519 0.639835
v -0.234370 0.481188 0.884070
v -0.278004 0.481188 0.871089
v 0.016583 0.000000 0.096279
v -0.111205 0.000000 0.072179
v -0.033049 0.319794 0.298052
v -0.138474 0.319794 0.278169
v -0.082681 0.511788 0.499824
v -0.165744 0.511788 0.484159
v -0.132313 0.513236 0.701596
v -0.193013 0.513236 0.690149
v -0.181945 0.349054 0.903369
v -0.220282 0.349054 0.896139
v 0.075704 0.000000 -0.070095
v -0.069653 0.000000 -0.033352
v 0.123197 0.306289 0.171326
v 0.003278 0.306289 0.201638
v 0.170690 0.497155 0.412746
v 0.076209 0.497155 0.436628
v 0.218184 0.513070 0.654166
v 0.149139 0.513070 0.671618
v 0.265677 0.377674 0.895586
v 0.222070 0.377674 0.906608
v -0.076227 0.000000 -0.000791
v 0.042717 0.000000 0.033438
v -0.006781 0.332758 -0.202951
v 0.091347 0.332758 -0.174713
v 0.062665 0.541408 -0.405112
v 0.139978 0.541408 -0.382863
v 0.132110 0.561386 -0.607272
v 0.188609 0.561386 -0.591013
v 0.201556 0.418331 -0.809432
v 0.237239 0.418331 -0.799164
v -0.020466 0.000000 -0.039842
v 0.099828 0.000000 0.004249
v 0.068201 0.244883 -0.249176
v 0.167443 0.244883 -0.212801
v 0.156867 0.374546 -0.458509
v 0.235057 0.374546 -0.429850
v 0.245533 0.339520 -0.667843
v 0.302672 0.339520 -0.646900
v 0.334199 0.159451 -0.877176
v 0.370287 0.159451 -0.863949
v -0.006171 0.000000 0.044057
v 0.040184 0.000000 -0.068128
v -0.172858 0.265422 -0.036310
v -0.134616 0.265422 -0.128863
v -0.339546 0.424825 -0.116678
v -0.309415 0.424825 -0.189598
v -0.506234 0.426137 -0.197045
v -0.484215 0.426137 -0.250333
v -0.672921 0.290035 -0.277412
v -0.659015 0.290035 -0.311068
v 0.001133 0.000000 -0.113207
v -0.007620 0.000000 -0.010496
v 0.158816 0.189492 -0.090717
v 0.151595 0.189492 -0.005980
v 0.316499 0.316909 -0.068226
v 0.310809 0.316909 -0.001465
v 0.474182 0.346186 -0.045736
v 0.470024 0.346186 0.003051
v 0.631865 0.291645 -0.023246
v 0.629239 0.291645 0.007567
v 0.028476 0.000000 -0.069663
v -0.123057 0.000000 -0.074003
v 0.010166 0.236037 0.106314
v -0.114850 0.236037 0.102733
v -0.008145 0.372006 0.282292
v -0.106642 0.372006 0.279470
v -0.026456 0.361123 0.458269
v -0.098434 0.361123 0.456207
v -0.044767 0.221966 0.634246
v -0.090227 0.221966 0.632944
v 0.038259 0.000000 0.007330
v -0.008785 0.000000 0.157798
v 0.194281 0.225940 0.070564
v 0.155469 0.225940 0.194700
v 0.350302 0.370048 0.133797
v 0.319723 0.370048 0.231602
v 0.506323 0.388683 0.197031
v 0.483977 0.388683 0.268504
v 0.662345 0.299177 0.260265
v 0.648231 0.299177 0.305406
v 0.003090 0.000000 0.015373
v 0.048214 0.000000 0.113456
v 0.190820 0.312430 -0.060596
v 0.228047 0.312430 0.020322
v 0.378549 0.500273 -0.136566
v 0.407880 0.500273 -0.072812
v 0.566279 0.502249 -0.212536
v 0.587713 0.502249 -0.165947
v 0.754009 0.342692 -0.288506
v 0.767546 0.342692 -0.259081
v 0.087221 0.000000 -0.010656
v -0.058227 0.000000 -0.053926
v 0.006824 0.374088 0.213026
v -0.113171 0.374088 0.177328
v -0.073574 0.610408 0.436707
v -0.168115 0.610408 0.408581
v -0.153972 0.636519 0.660388
v -0.223060 0.636519 0.639835
v -0.234370 0.481188 0.884070
v -0.278004 0.481188 0.871089
v 0.016583 0.000000 0.096279
v -0.111205 0.000000 0.072179
v -0.033049 0.319794 0.298052
v -0.138474 0.319794 0.278169
v -0.082681 0.511788 0.499824
v -0.165744 0.511788 0.484159
v -0.132313 0.513236 0.701596
v -0.193013 0.513236 0.690149
v -0.181945 0.349054 0.903369
v -0.220282 0.349054 0.896139
v 0.075704 0.000000 -0.070095
v -0.069653 0.000000 -0.033352
v 0.123197 0.306289 0.171326
v 0.003278 0.306289 0.201638
v 0.170690 0.497155 0.412746
v 0.076209 0.497155 0.436628
v 0.218184 0.513070 0.654166
v 0.149139 0.513070 0.671618
v 0.265677 0.377674 0.895586
v 0.222070 0.377674 0.906608
v -0.076227 0.000000 -0.000791
v 0.042717 0.000000 0.033438
v -0.006781 0.332758 -0.202951
v 0.091347 0.332758 -0.174713
v 0.062665 0.541408 -0.405112
v 0.139978 0.541408 -0.382863
v 0.132110 0.561386 -0.607272
v 0.188609 0.561386 -0.591013
v 0.201556 0.418331 -0.809432
v 0.237239 0.418331 -0.799164
v -0.020466 0.000000 -0.039842
v 0.099828 0.000000 0.004249
v 0.068201 0.244883 -0.249176
v 0.167443 0.244883 -0.212801
v 0.156867 0.374546 -0.458509
v 0.235057 0.374546 -0.429850
v 0.245533 0.339520 -0.667843
v 0.302672 0.339520 -0.646900
v 0.334199 0.159451 -0.877176
v 0.370287 0.159451 -0.863949
vn 0.7585 0.5713 0.3134
vn 0.6884 0.6672 0.2845
vn 0.3354 0.9318 0.1386
vn -0.2758 0.9544 -0.1139
vn -0.2758 0.9545 -0.1139
vn -0.5482 0.8051 -0.2265
vn -0.7632 0.6428 -0.0650
vn -0.6983 0.7133 -0.0595
vn -0.4215 0.9061 -0.0359
vn 0.0648 0.9979 0.0055
vn 0.3233 0.9459 0.0275
vn 0.0229 0.5987 -0.8006
vn 0.0205 0.6986 -0.7152
vn 0.0088 0.9512 -0.3084
vn -0.0099 0.9389 0.3441
vn -0.0177 0.7852 0.6190
vn -0.7663 0.5962 -0.2396
vn -0.7010 0.6787 -0.2192
vn -0.3930 0.9113 -0.1229
vn 0.1658 0.9848 0.0518
vn 0.4492 0.8823 0.1405
vn -0.7626 0.5435 0.3508
vn -0.6971 0.6413 0.3207
vn -0.3446 0.9253 0.1585
vn 0.2855 0.9493 -0.1314
vn 0.5626 0.7852 -0.2588
vn 0.2408 0.5357 -0.8094
vn 0.2228 0.6241 -0.7489
vn 0.1259 0.8973 -0.4230
vn 0.1258 0.8973 -0.4230
vn -0.0632 0.9752 0.2123
vn -0.1562 0.8367 0.5249
vn 0.1555 0.5443 -0.8244
vn 0.1421 0.6419 -0.7535
vn 0.0702 0.9254 -0.3723
vn -0.0584 0.9491 0.3094
vn -0.1150 0.7842 0.6098
vn -0.1912 0.6257 -0.7563
vn -0.1724 0.7106 -0.6821
vn -0.0891 0.9316 -0.3523
vn 0.0511 0.9780 0.2023
vn 0.1183 0.8758 0.4679
vn -0.2328 0.5400 0.8089
vn -0.2148 0.6298 0.7464
vn -0.2148 0.6298 0.7465
vn -0.1187 0.9033 0.4123
vn 0.0652 0.9718 -0.2266
vn 0.1539 0.8307 -0.5350
vn -0.2524 0.6799 0.6885
vn -0.2150 0.7809 0.5865
vn -0.0660 0.9814 0.1802
vn 0.1354 0.9193 -0.3695
vn 0.2138 0.7835 -0.5834
vn -0.7585 -0.5713 -0.3134
vn -0.6884 -0.6672 -0.2845
vn -0.3354 -0.9318 -0.1386
vn 0.2758 -0.9544 0.1139
vn 0.2758 -0.9545 0.1139
vn 0.5482 -0.8051 0.2265
vn 0.7632 -0.6428 0.0650
vn 0.6983 -0.7133 0.0595
vn 0.4215 -0.9061 0.0359
vn -0.0648 -0.9979 -0.0055
vn -0.3233 -0.9459 -0.0275
vn -0.0229 -0.5987 0.8006
vn -0.0205 -0.6986 0.7152
vn -0.0088 -0.9512 0.3084
vn 0.0099 -0.9389 -0.3441
vn 0.0177 -0.7852 -0.6190
vn 0.7663 -0.5962 0.2396
vn 0.7010 -0.6787 0.2192
vn 0.3930 -0.9113 0.1229
vn -0.1658 -0.9848 -0.0518
vn -0.4492 -0.8823 -0.1405
vn 0.7626 -0.5435 -0.3508
vn 0.6971 -0.6413 -0.3207
vn 0.3446 -0.9253 -0.1585
vn -0.2855 -0.9493 0.1314
vn -0.5626 -0.7852 0.2588
vn -0.2408 -0.5357 0.8094
vn -0.2228 -0.6241 0.7489
vn -0.1258 -0.8973 0.4230
vn 0.0632 -0.9752 -0.2123
vn 0.1562 -0.8367 -0.5249
vn -0.1555 -0.5443 0.8244
vn -0.1421 -0.6419 0.7535
vn -0.0702 -0.9254 0.3723
vn 0.0584 -0.9491 -0.3094
vn 0.1150 -0.7842 -0.6098
vn 0.1912 -0.6257 0.7563
vn 0.1724 -0.7106 0.6821
vn 0.0891 -0.9316 0.3523
vn -0.0511 -0.9780 -0.2023
vn -0.1183 -0.8758 -0.4679
vn 0.2328 -0.5400 -0.8089
vn 0.2148 -0.6298 -0.7465
vn 0.2148 -0.6298 -0.7464
vn 0.1187 -0.9033 -0.4123
vn -0.0652 -0.9718 0.2266
vn -0.1539 -0.8307 0.5350
vn 0.2524 -0.6799 -0.6885
vn 0.2150 -0.7809 -0.5865
vn 0.0660 -0.9814 -0.1802
vn -0.1354 -0.9193 0.3695
vn -0.2138 -0.7835 0.5834
vt 0.047454 0.000000
vt -0.166620 0.442369
vt -0.230358 0.442369
vt -0.457953 0.708042
vt -0.508171 0.708042
vt -0.785984 0.710228
vt -0.749286 0.710228
vt -1.063796 0.483391
vt 0.045039 0.000000
vt 0.322432 0.315820
vt 0.059628 0.000000
vt 0.575755 0.528182
vt 0.585237 0.528182
vt 0.848042 0.576977
vt 0.841112 0.576977
vt 1.110847 0.486075
vt 0.105199 0.000000
vt -0.133677 0.393396
vt 0.074681 0.393396
vt 0.044164 0.620010
vt -0.119998 0.620010
vt 0.013646 0.601872
vt -0.106318 0.601872
vt -0.016872 0.369944
vt 0.043097 0.000000
vt 0.381540 0.376566
vt 0.121505 0.000000
vt 0.316854 0.376566
vt 0.641576 0.616746
vt 0.590610 0.616746
vt 0.901611 0.647805
vt 0.864367 0.647805
vt 1.161646 0.498628
vt 0.138096 0.000000
vt 0.375771 0.520717
vt 0.062888 0.000000
vt 0.437818 0.520717
vt 0.688654 0.833789
vt 1.037261 0.837081
vt 1.001537 0.837081
vt 1.314420 0.571154
vt -0.039306 0.000000
vt 0.069112 0.623480
vt 0.203108 0.000000
vt -0.222454 1.017347
vt -0.064885 1.017347
vt -0.314028 1.060865
vt -0.198881 1.060865
vt -0.332877 0.801979
vt 0.085378 0.000000
vt -0.173052 0.532990
vt 0.002658 0.532990
vt -0.218500 0.852981
vt -0.080063 0.852981
vt -0.162783 0.855393
vt -0.309398 0.581757
vt -0.245503 0.581757
vt -0.058349 0.000000
vt 0.263067 0.510482
vt 0.183911 0.000000
vt 0.063202 0.510482
vt 0.342223 0.828591
vt 0.184753 0.828591
vt 0.421378 0.855117
vt 0.306304 0.855117
vt 0.500534 0.629456
vt 0.128934 0.000000
vt 0.046437 0.554596
vt -0.069306 0.000000
vt 0.209985 0.554596
vt 0.162180 0.902347
vt 0.372086 0.935643
vt 0.277923 0.935643
vt 0.393666 0.697218
vt 0.224119 0.000000
vt 0.171406 0.408138
vt 0.023630 0.000000
vt 0.449501 0.624243
vt 0.319183 0.624243
vt 0.466960 0.565867
vt 0.562192 0.565867
vt 0.614737 0.265752
vt 0.124712 0.000000
vt 0.310397 0.315820
vt -0.147356 0.000000
vt 1.138124 0.498628
vt 0.737540 0.833789
vt -0.130880 0.623480
vt -0.127603 0.000000
vt -0.263949 0.855393
vt 0.427856 0.629456
vt 0.291036 0.902347
vt 0.336810 0.408138
vt -1.040619 0.483391
vt 1.106470 0.486075
vt -0.092639 0.369944
vt 1.336983 0.571154
vt -0.405602 0.801979
vt 0.453137 0.697218
vt 0.674883 0.265752
s 1
f 1/1/1 4/2/2 3/3/2
f 3/3/2 6/4/3 5/5/3
f 6/4/3 7/6/4 5/5/3
f 8/7/5 9/8/6 7/6/4
f 12/9/7 13/10/8 11/11/7
f 13/10/8 16/12/9 15/13/9
f 16/12/9 17/14/10 15/13/9
f 18/15/10 19/16/11 17/14/10
f 21/17/12 24/18/13 23/19/13
f 24/18/13 25/20/14 23/19/13
f 26/21/14 27/22/15 25/20/14
f 28/23/15 29/24/16 27/22/15
f 32/25/17 33/26/18 31/27/17
f 34/28/18 35/29/19 33/26/18
f 36/30/19 37/31/20 35/29/19
f 38/32/20 39/33/21 37/31/20
f 42/34/22 43/35/23 41/36/22
f 44/37/23 45/38/24 43/35/23
f 45/38/24 48/39/25 47/40/25
f 48/39/25 49/41/26 47/40/25
f 52/42/27 53/43/28 51/44/27
f 53/43/28 56/45/30 55/46/29
f 55/46/29 58/47/31 57/48/31
f 58/47/31 59/49/32 57/48/31
f 61/50/33 64/51/34 63/52/34
f 63/52/34 66/53/35 65/54/35
f 66/53/35 67/55/36 65/54/35
f 67/55/36 70/56/37 69/57/37
f 72/58/38 73/59/39 71/60/38
f 74/61/39 75/62/40 73/59/39
f 76/63/40 77/64/41 75/62/40
f 78/65/41 79/66/42 77/64/41
f 82/67/43 83/68/44 81/69/43
f 84/70/45 85/71/46 83/68/44
f 85/71/46 88/72/47 87/73/47
f 88/72/47 89/74/48 87/73/47
f 92/75/49 93/76/50 91/77/49
f 93/76/50 96/78/51 95/79/51
f 96/78/51 97/80/52 95/79/51
f 98/81/52 99/82/53 97/80/52
f 103/3/55 102/83/54 101/1/54
f 103/3/55 106/4/56 104/2/55
f 107/6/57 106/4/56 105/5/56
f 109/8/59 108/7/58 107/6/57
f 113/10/61 112/9/60 111/11/60
f 113/10/61 116/12/62 114/84/61
f 117/14/63 116/12/62 115/13/62
f 119/16/64 118/15/63 117/14/63
f 123/19/66 122/85/65 121/17/65
f 125/20/67 124/18/66 123/19/66
f 127/22/68 126/21/67 125/20/67
f 129/24/69 128/23/68 127/22/68
f 131/27/70 134/28/71 132/25/70
f 135/29/72 134/28/71 133/26/71
f 137/31/73 136/30/72 135/29/72
f 137/31/73 140/86/74 138/32/73
f 143/35/76 142/34/75 141/36/75
f 145/38/77 144/37/76 143/35/76
f 147/40/78 146/87/77 145/38/77
f 149/41/79 148/39/78 147/40/78
f 153/43/81 152/42/80 151/44/80
f 155/46/82 154/88/81 153/43/81
f 155/46/82 158/47/83 156/45/82
f 159/49/84 158/47/83 157/48/83
f 161/50/85 164/51/86 162/89/85
f 165/54/87 164/51/86 163/52/86
f 167/55/88 166/53/87 165/54/87
f 169/57/89 168/90/88 167/55/88
f 171/60/90 174/61/91 172/58/90
f 173/59/91 176/63/92 174/61/91
f 175/62/92 178/65/93 176/63/92
f 177/64/93 180/91/94 178/65/93
f 181/69/95 184/70/97 182/67/95
f 183/68/96 186/92/98 184/70/97
f 185/71/98 188/72/99 186/92/98
f 189/74/100 188/72/99 187/73/99
f 193/76/102 192/75/101 191/77/101
f 193/76/102 196/78/103 194/93/102
f 197/80/104 196/78/103 195/79/103
f 199/82/105 198/81/104 197/80/104
f 1/1/1 2/83/1 4/2/2
f 3/3/2 4/2/2 6/4/3
f 6/4/3 8/7/5 7/6/4
f 8/7/5 10/94/6 9/8/6
f 12/9/7 14/84/8 13/10/8
f 13/10/8 14/84/8 16/12/9
f 16/12/9 18/15/10 17/14/10
f 18/15/10 20/95/11 19/16/11
f 21/17/12 22/85/12 24/18/13
f 24/18/13 26/21/14 25/20/14
f 26/21/14 28/23/15 27/22/15
f 28/23/15 30/96/16 29/24/16
f 32/25/17 34/28/18 33/26/18
f 34/28/18 36/30/19 35/29/19
f 36/30/19 38/32/20 37/31/20
f 38/32/20 40/86/21 39/33/21
f 42/34/22 44/37/23 43/35/23
f 44/37/23 46/87/24 45/38/24
f 45/38/24 46/87/24 48/39/25
f 48/39/25 50/97/26 49/41/26
f 52/42/27 54/88/28 53/43/28
f 53/43/28 54/88/28 56/45/30
f 55/46/29 56/45/30 58/47/31
f 58/47/31 60/98/32 59/49/32
f 61/50/33 62/89/33 64/51/34
f 63/52/34 64/51/34 66/53/35
f 66/53/35 68/90/36 67/55/36
f 67/55/36 68/90/36 70/56/37
f 72/58/38 74/61/39 73/59/39
f 74/61/39 76/63/40 75/62/40
f 76/63/40 78/65/41 77/64/41
f 78/65/41 80/91/42 79/66/42
f 82/67/43 84/70/45 83/68/44
f 84/70/45 86/92/46 85/71/46
f 85/71/46 86/92/46 88/72/47
f 88/72/47 90/99/48 89/74/48
f 92/75/49 94/93/50 93/76/50
f 93/76/50 94/93/50 96/78/51
f 96/78/51 98/81/52 97/80/52
f 98/81/52 100/100/53 99/82/53
f 103/3/55 104/2/55 102/83/54
f 103/3/55 105/5/56 106/4/56
f 107/6/57 108/7/58 106/4/56
f 109/8/59 110/94/59 108/7/58
f 113/10/61 114/84/61 112/9/60
f 113/10/61 115/13/62 116/12/62
f 117/14/63 118/15/63 116/12/62
f 119/16/64 120/95/64 118/15/63
f 123/19/66 124/18/66 122/85/65
f 125/20/67 126/21/67 124/18/66
f 127/22/68 128/23/68 126/21/67
f 129/24/69 130/96/69 128/23/68
f 131/27/70 133/26/71 134/28/71
f 135/29/72 136/30/72 134/28/71
f 137/31/73 138/32/73 136/30/72
f 137/31/73 139/33/74 140/86/74
f 143/35/76 144/37/76 142/34/75
f 145/38/77 146/87/77 144/37/76
f 147/40/78 148/39/78 146/87/77
f 149/41/79 150/97/79 148/39/78
f 153/43/81 154/88/81 152/42/80
f 155/46/82 156/45/82 154/88/81
f 155/46/82 157/48/83 158/47/83
f 159/49/84 160/98/84 158/47/83
f 161/50/85 163/52/86 164/51/86
f 165/54/87 166/53/87 164/51/86
f 167/55/88 168/90/88 166/53/87
f 169/57/89 170/56/89 168/90/88
f 171/60/90 173/59/91 174/61/91
f 173/59/91 175/62/92 176/63/92
f 175/62/92 177/64/93 178/65/93
f 177/64/93 179/66/94 180/91/94
f 181/69/95 183/68/96 184/70/97
f 183/68/96 185/71/98 186/92/98
f 185/71/98 187/73/99 188/72/99
f 189/74/100 190/99/100 188/72/99
f 193/76/102 194/93/102 192/75/101
f 193/76/102 195/79/103 196/78/103
f 197/80/104 198/81/104 196/78/103
f 199/82/105 200/100/105 198/81/104
