# Blender 5.0.1
# www.blender.org
mtllib kelp_a.mtl
o kelp_a_blade
usemtl kelp_a_blade
v 0.013690 0.000000 -0.121764
v -0.008005 0.000000 0.033871
v -0.003969 0.308886 -0.117992
v -0.023960 0.308886 0.025414
v -0.077665 0.617771 -0.122032
v -0.095950 0.617771 0.009145
v -0.139972 0.926657 -0.124485
v -0.156553 0.926657 -0.005535
v -0.102706 1.235543 -0.113057
v -0.117583 1.235543 -0.006336
v 0.013567 1.544429 -0.090616
v 0.000395 1.544429 0.003877
v 0.066377 1.853314 -0.077021
v 0.054910 1.853314 0.005243
v -0.062795 2.162200 -0.088794
v -0.072558 2.162200 -0.018759
v -0.113033 0.000000 -0.002490
v -0.008592 0.000000 -0.078451
v -0.084614 0.295540 0.027958
v 0.011620 0.295540 -0.042035
v -0.073788 0.591080 0.034218
v 0.014241 0.591080 -0.029807
v -0.083791 0.886620 0.011838
v -0.003969 0.886620 -0.046218
v -0.100667 1.182159 -0.019989
v -0.029050 1.182159 -0.072077
v -0.100267 1.477699 -0.028066
v -0.036857 1.477699 -0.074186
v -0.062836 1.773239 0.014773
v -0.007632 1.773239 -0.025378
v 0.012968 2.068779 0.110372
v 0.059966 2.068779 0.076189
v 0.107744 0.000000 0.083682
v -0.022969 0.000000 0.168435
v 0.081178 0.352491 0.053959
v -0.039265 0.352491 0.132053
v 0.047042 0.704982 0.012561
v -0.063131 0.704982 0.083996
v 0.033802 1.057473 0.003390
v -0.066101 1.057473 0.068166
v 0.057110 1.409965 0.050588
v -0.032522 1.409965 0.108704
v 0.102155 1.762456 0.131309
v 0.022793 1.762456 0.182766
v 0.128700 2.114947 0.183497
v 0.059608 2.114947 0.228296
v 0.097827 2.467438 0.147132
v 0.039006 2.467438 0.185271
v -0.019113 0.000000 -0.110504
v 0.050277 0.000000 0.027222
v -0.002222 0.292479 -0.112230
v 0.061715 0.292479 0.014675
v -0.032199 0.584958 -0.090343
v 0.026287 0.584958 0.025740
v -0.092351 0.877437 -0.053253
v -0.039317 0.877437 0.052009
v -0.112692 1.169916 -0.036220
v -0.065110 1.169916 0.058220
v -0.040356 1.462395 -0.065881
v 0.001774 1.462395 0.017738
v 0.093392 1.754874 -0.126482
v 0.130069 1.754874 -0.053684
v 0.180072 2.047353 -0.163370
v 0.211298 2.047353 -0.101393
v 0.013690 0.000000 -0.121764
v -0.008005 0.000000 0.033871
v -0.003969 0.308886 -0.117992
v -0.023960 0.308886 0.025414
v -0.077665 0.617771 -0.122032
v -0.095950 0.617771 0.009145
v -0.139972 0.926657 -0.124485
v -0.156553 0.926657 -0.005535
v -0.102706 1.235543 -0.113057
v -0.117583 1.235543 -0.006336
v 0.013567 1.544429 -0.090616
v 0.000395 1.544429 0.003877
v 0.066377 1.853314 -0.077021
v 0.054910 1.853314 0.005243
v -0.062795 2.162200 -0.088794
v -0.072558 2.162200 -0.018759
v -0.113033 0.000000 -0.002490
v -0.008592 0.000000 -0.078451
v -0.084614 0.295540 0.027958
v 0.011620 0.295540 -0.042035
v -0.073788 0.591080 0.034218
v 0.014241 0.591080 -0.029807
v -0.083791 0.886620 0.011838
v -0.003969 0.886620 -0.046218
v -0.100667 1.182159 -0.019989
v -0.029050 1.182159 -0.072077
v -0.100267 1.477699 -0.028066
v -0.036857 1.477699 -0.074186
v -0.062836 1.773239 0.014773
v -0.007632 1.773239 -0.025378
v 0.012968 2.068779 0.110372
v 0.059966 2.068779 0.076189
v 0.107744 0.000000 0.083682
v -0.022969 0.000000 0.168435
v 0.081178 0.352491 0.053959
v -0.039265 0.352491 0.132053
v 0.047042 0.704982 0.012561
v -0.063131 0.704982 0.083996
v 0.033802 1.057473 0.003390
v -0.066101 1.057473 0.068166
v 0.057110 1.409965 0.050588
v -0.032522 1.409965 0.108704
v 0.102155 1.762456 0.131309
v 0.022793 1.762456 0.182766
v 0.128700 2.114947 0.183497
v 0.059608 2.114947 0.228296
v 0.097827 2.467438 0.147132
v 0.039006 2.467438 0.185271
v -0.019113 0.000000 -0.110504
v 0.050277 0.000000 0.027222
v -0.002222 0.292479 -0.112230
v 0.061715 0.292479 0.014675
v -0.032199 0.584958 -0.090343
v 0.026287 0.584958 0.025740
v -0.092351 0.877437 -0.053253
v -0.039317 0.877437 0.052009
v -0.112692 1.169916 -0.036220
v -0.065110 1.169916 0.058220
v -0.040356 1.462395 -0.065881
v 0.001774 1.462395 0.017738
v 0.093392 1.754874 -0.126482
v 0.130069 1.754874 -0.053684
v 0.180072 2.047353 -0.163370
v 0.211298 2.047353 -0.101393
vn 0.9889 0.0549 0.1379
vn 0.9803 0.1427 0.1366
vn 0.9674 0.2145 0.1348
vn 0.9897 0.0392 0.1380
vn 0.9613 -0.2409 0.1340
vn 0.9543 -0.2675 0.1330
vn 0.9846 0.1080 0.1373
vn 0.9133 0.3868 0.1273
vn -0.5825 0.1385 -0.8009
vn -0.5858 0.0892 -0.8055
vn -0.5881 -0.0205 -0.8085
vn -0.5852 -0.1002 -0.8047
vn -0.5867 -0.0712 -0.8067
vn -0.5862 0.0828 -0.8059
vn -0.5638 0.2852 -0.7751
vn -0.5438 0.3813 -0.7476
vn 0.5407 0.1111 0.8339
vn 0.5394 0.1301 0.8319
vn 0.5415 0.0966 0.8351
vn 0.5433 -0.0514 0.8379
vn 0.5331 -0.1997 0.8222
vn 0.5321 -0.2088 0.8206
vn 0.5440 -0.0168 0.8389
vn 0.5392 0.1330 0.8316
vn -0.8917 0.0541 0.4493
vn -0.8925 -0.0340 0.4497
vn -0.8787 -0.1787 0.4427
vn -0.8812 -0.1624 0.4440
vn -0.8899 0.0838 0.4484
vn -0.8354 0.3536 0.4209
vn -0.8264 0.3792 0.4163
vn -0.8502 0.3060 0.4284
vn -0.9889 -0.0549 -0.1379
vn -0.9803 -0.1427 -0.1366
vn -0.9674 -0.2145 -0.1348
vn -0.9897 -0.0392 -0.1380
vn -0.9613 0.2409 -0.1340
vn -0.9543 0.2675 -0.1330
vn -0.9846 -0.1080 -0.1373
vn -0.9133 -0.3868 -0.1273
vn 0.5825 -0.1385 0.8009
vn 0.5858 -0.0892 0.8055
vn 0.5881 0.0205 0.8085
vn 0.5852 0.1002 0.8047
vn 0.5867 0.0712 0.8067
vn 0.5862 -0.0828 0.8059
vn 0.5638 -0.2852 0.7751
vn 0.5438 -0.3813 0.7476
vn -0.5407 -0.1111 -0.8339
vn -0.5394 -0.1301 -0.8319
vn -0.5415 -0.0966 -0.8351
vn -0.5433 0.0514 -0.8379
vn -0.5331 0.1997 -0.8222
vn -0.5321 0.2088 -0.8206
vn -0.5440 0.0168 -0.8389
vn -0.5392 -0.1330 -0.8316
vn 0.8917 -0.0541 -0.4493
vn 0.8925 0.0340 -0.4497
vn 0.8787 0.1787 -0.4427
vn 0.8812 0.1624 -0.4440
vn 0.8899 -0.0838 -0.4484
vn 0.8354 -0.3536 -0.4209
vn 0.8264 -0.3792 -0.4163
vn 0.8502 -0.3060 -0.4284
vt 0.058685 0.514810
vt 0.051959 0.000000
vt 0.088117 0.000000
vt -0.064141 1.029619
vt 0.025368 0.514810
vt -0.167986 1.544429
vt -0.094617 1.029619
vt -0.105877 2.059238
vt -0.195621 1.544429
vt 0.065959 2.574048
vt -0.130671 2.059238
vt 0.175929 3.088857
vt 0.087912 2.574048
vt -0.055629 3.603667
vt 0.156817 3.088857
vt -0.075723 0.492566
vt 0.050980 0.000000
vt -0.123087 0.000000
vt 0.089035 0.985133
vt 0.084667 0.492566
vt -0.057679 0.985133
vt 0.058685 1.477699
vt -0.102477 1.970266
vt -0.074352 1.477699
vt -0.101812 2.462832
vt 0.016883 1.970266
vt -0.039427 2.955398
vt 0.003871 2.462832
vt 0.086914 3.447965
vt 0.052580 2.955398
vt 0.244874 0.000000
vt -0.000141 0.587485
vt 0.027018 0.000000
vt 0.143704 1.174971
vt 0.200598 0.587485
vt 0.121636 1.762456
vt -0.039918 1.174971
vt 0.011097 2.349941
vt -0.044868 1.762456
vt 0.235559 2.937426
vt 0.160484 2.349941
vt 0.279800 3.524911
vt 0.103289 2.937426
vt 0.130310 4.112397
vt 0.164647 3.524911
vt 0.149096 0.000000
vt 0.061596 0.487465
vt 0.033446 0.000000
vt 0.168159 0.487465
vt 0.011635 0.974930
vt 0.109112 0.974930
vt -0.088617 1.462395
vt -0.000228 1.462395
vt -0.122520 1.949860
vt -0.043217 1.949860
vt -0.001959 2.437325
vt 0.068257 2.437325
vt 0.220953 2.924790
vt 0.282082 2.924790
vt 0.365421 3.412256
vt -0.039358 3.603667
vt 0.165244 3.447965
vt 0.228345 4.112397
vt 0.417463 3.412256
s 1
f 3/1/2 2/2/1 1/3/1
f 5/4/3 4/5/2 3/1/2
f 7/6/4 6/7/3 5/4/3
f 9/8/5 8/9/4 7/6/4
f 9/8/5 12/10/6 10/11/5
f 13/12/7 12/10/6 11/13/6
f 13/12/7 16/14/8 14/15/7
f 19/16/10 18/17/9 17/18/9
f 19/16/10 22/19/11 20/20/10
f 21/21/11 24/22/12 22/19/11
f 25/23/13 24/22/12 23/24/12
f 27/25/14 26/26/13 25/23/13
f 29/27/15 28/28/14 27/25/14
f 31/29/16 30/30/15 29/27/15
f 33/31/17 36/32/18 34/33/17
f 37/34/19 36/32/18 35/35/18
f 39/36/20 38/37/19 37/34/19
f 39/36/20 42/38/21 40/39/20
f 43/40/22 42/38/21 41/41/21
f 45/42/23 44/43/22 43/40/22
f 45/42/23 48/44/24 46/45/23
f 50/46/25 51/47/26 49/48/25
f 52/49/26 53/50/27 51/47/26
f 54/51/27 55/52/28 53/50/27
f 56/53/28 57/54/29 55/52/28
f 58/55/29 59/56/30 57/54/29
f 60/57/30 61/58/31 59/56/30
f 62/59/31 63/60/32 61/58/31
f 66/2/33 67/1/34 65/3/33
f 68/5/34 69/4/35 67/1/34
f 70/7/35 71/6/36 69/4/35
f 71/6/36 74/11/37 73/8/37
f 74/11/37 75/13/38 73/8/37
f 76/10/38 77/12/39 75/13/38
f 77/12/39 80/14/40 79/61/40
f 81/18/41 84/20/42 83/16/42
f 84/20/42 85/21/43 83/16/42
f 86/19/43 87/24/44 85/21/43
f 88/22/44 89/23/45 87/24/44
f 90/26/45 91/25/46 89/23/45
f 91/25/46 94/30/47 93/27/47
f 93/27/47 96/62/48 95/29/48
f 97/31/49 100/32/50 99/35/50
f 100/32/50 101/34/51 99/35/50
f 102/37/51 103/36/52 101/34/51
f 103/36/52 106/38/53 105/41/53
f 106/38/53 107/40/54 105/41/53
f 108/43/54 109/42/55 107/40/54
f 109/42/55 112/44/56 111/63/56
f 115/47/58 114/46/57 113/48/57
f 115/47/58 118/51/59 116/49/58
f 119/52/60 118/51/59 117/50/59
f 121/54/61 120/53/60 119/52/60
f 123/56/62 122/55/61 121/54/61
f 125/58/63 124/57/62 123/56/62
f 125/58/63 128/64/64 126/59/63
f 3/1/2 4/5/2 2/2/1
f 5/4/3 6/7/3 4/5/2
f 7/6/4 8/9/4 6/7/3
f 9/8/5 10/11/5 8/9/4
f 9/8/5 11/13/6 12/10/6
f 13/12/7 14/15/7 12/10/6
f 13/12/7 15/61/8 16/14/8
f 19/16/10 20/20/10 18/17/9
f 19/16/10 21/21/11 22/19/11
f 21/21/11 23/24/12 24/22/12
f 25/23/13 26/26/13 24/22/12
f 27/25/14 28/28/14 26/26/13
f 29/27/15 30/30/15 28/28/14
f 31/29/16 32/62/16 30/30/15
f 33/31/17 35/35/18 36/32/18
f 37/34/19 38/37/19 36/32/18
f 39/36/20 40/39/20 38/37/19
f 39/36/20 41/41/21 42/38/21
f 43/40/22 44/43/22 42/38/21
f 45/42/23 46/45/23 44/43/22
f 45/42/23 47/63/24 48/44/24
f 50/46/25 52/49/26 51/47/26
f 52/49/26 54/51/27 53/50/27
f 54/51/27 56/53/28 55/52/28
f 56/53/28 58/55/29 57/54/29
f 58/55/29 60/57/30 59/56/30
f 60/57/30 62/59/31 61/58/31
f 62/59/31 64/64/32 63/60/32
f 66/2/33 68/5/34 67/1/34
f 68/5/34 70/7/35 69/4/35
f 70/7/35 72/9/36 71/6/36
f 71/6/36 72/9/36 74/11/37
f 74/11/37 76/10/38 75/13/38
f 76/10/38 78/15/39 77/12/39
f 77/12/39 78/15/39 80/14/40
f 81/18/41 82/17/41 84/20/42
f 84/20/42 86/19/43 85/21/43
f 86/19/43 88/22/44 87/24/44
f 88/22/44 90/26/45 89/23/45
f 90/26/45 92/28/46 91/25/46
f 91/25/46 92/28/46 94/30/47
f 93/27/47 94/30/47 96/62/48
f 97/31/49 98/33/49 100/32/50
f 100/32/50 102/37/51 101/34/51
f 102/37/51 104/39/52 103/36/52
f 103/36/52 104/39/52 106/38/53
f 106/38/53 108/43/54 107/40/54
f 108/43/54 110/45/55 109/42/55
f 109/42/55 110/45/55 112/44/56
f 115/47/58 116/49/58 114/46/57
f 115/47/58 117/50/59 118/51/59
f 119/52/60 120/53/60 118/51/59
f 121/54/61 122/55/61 120/53/60
f 123/56/62 124/57/62 122/55/61
f 125/58/63 126/59/63 124/57/62
f 125/58/63 127/60/64 128/64/64
