# Blender 5.0.1
# www.blender.org
mtllib marine_b.mtl
o body
usemtl body
v 0.003663 0.054075 0.090000
v 0.002590 0.057183 0.090000
v 0.000000 0.058470 0.090000
v -0.002590 0.057183 0.090000
v -0.003663 0.054075 0.090000
v -0.002590 0.051115 0.090000
v -0.000000 0.049889 0.090000
v 0.002590 0.051115 0.090000
v 0.010988 0.056168 0.079535
v 0.007770 0.065788 0.079535
v 0.000000 0.069773 0.079535
v -0.007770 0.065788 0.079535
v -0.010988 0.056168 0.079535
v -0.007770 0.047288 0.079535
v -0.000000 0.043610 0.079535
v 0.007770 0.047288 0.079535
v 0.018314 0.058261 0.062791
v 0.012950 0.078241 0.062791
v 0.000000 0.086517 0.062791
v -0.012950 0.078241 0.062791
v -0.018314 0.058261 0.062791
v -0.012950 0.041241 0.062791
v -0.000000 0.034191 0.062791
v 0.012950 0.041241 0.062791
v 0.021453 0.058261 0.039767
v 0.015170 0.084901 0.039767
v 0.000000 0.095936 0.039767
v -0.015170 0.084901 0.039767
v -0.021453 0.058261 0.039767
v -0.015170 0.033841 0.039767
v -0.000000 0.023726 0.039767
v 0.015170 0.033841 0.039767
v 0.020930 0.056168 0.010465
v 0.014800 0.083918 0.010465
v 0.000000 0.095412 0.010465
v -0.014800 0.083918 0.010465
v -0.020930 0.056168 0.010465
v -0.014800 0.030638 0.010465
v -0.000000 0.020063 0.010465
v 0.014800 0.030638 0.010465
v 0.016535 0.054075 -0.020930
v 0.011692 0.074943 -0.020930
v 0.000000 0.083587 -0.020930
v -0.011692 0.074943 -0.020930
v -0.016535 0.054075 -0.020930
v -0.011692 0.035427 -0.020930
v -0.000000 0.027703 -0.020930
v 0.011692 0.035427 -0.020930
v 0.009000 0.053029 -0.046047
v 0.006364 0.063241 -0.046047
v 0.000000 0.067470 -0.046047
v -0.006364 0.063241 -0.046047
v -0.009000 0.053029 -0.046047
v -0.006364 0.044593 -0.046047
v -0.000000 0.041098 -0.046047
v 0.006364 0.044593 -0.046047
v 0.003349 0.053029 -0.060698
v 0.002368 0.057099 -0.060698
v 0.000000 0.058784 -0.060698
v -0.002368 0.057099 -0.060698
v -0.003349 0.053029 -0.060698
v -0.002368 0.049625 -0.060698
v -0.000000 0.048215 -0.060698
v 0.002368 0.049625 -0.060698
v -0.017267 0.067680 0.059233
v -0.014238 0.065259 0.061778
v -0.018424 0.063763 0.061778
v -0.021012 0.067680 0.061778
v -0.018424 0.071597 0.061778
v -0.014238 0.070101 0.061778
v -0.016110 0.063763 0.065897
v -0.020296 0.065259 0.065897
v -0.020296 0.070101 0.065897
v -0.016110 0.071597 0.065897
v -0.013523 0.067680 0.065896
v -0.017267 0.067680 0.068442
v 0.017267 0.067680 0.059233
v 0.020296 0.065259 0.061778
v 0.016110 0.063763 0.061778
v 0.013523 0.067680 0.061778
v 0.016110 0.071597 0.061778
v 0.020296 0.070101 0.061778
v 0.018424 0.063763 0.065897
v 0.014238 0.065259 0.065897
v 0.014238 0.070101 0.065897
v 0.018424 0.071597 0.065897
v 0.021012 0.067680 0.065896
v 0.017267 0.067680 0.068442
vn 0.5359 -0.0272 0.8438
vn 0.3873 0.2951 0.8734
vn -0.0000 0.4517 0.8922
vn -0.3873 0.2951 0.8734
vn -0.5359 -0.0272 0.8438
vn -0.4159 -0.3907 0.8212
vn -0.0000 -0.5833 0.8122
vn 0.4159 -0.3907 0.8212
vn 0.8740 -0.0073 0.4859
vn 0.6282 0.4885 0.6056
vn -0.0000 0.7105 0.7037
vn -0.6282 0.4885 0.6056
vn -0.8740 -0.0073 0.4859
vn -0.6610 -0.5854 0.4695
vn -0.0000 -0.8726 0.4884
vn 0.6610 -0.5854 0.4695
vn 0.9629 -0.0084 0.2699
vn 0.7392 0.5403 0.4021
vn -0.0000 0.8599 0.5104
vn -0.7392 0.5403 0.4021
vn -0.9629 -0.0084 0.2699
vn -0.7426 -0.5831 0.3296
vn -0.0000 -0.9046 0.4262
vn 0.7426 -0.5831 0.3296
vn 0.9975 -0.0082 0.0697
vn 0.8148 0.5683 0.1143
vn -0.0000 0.9851 0.1718
vn -0.8148 0.5683 0.1143
vn -0.9975 -0.0082 0.0697
vn -0.7974 -0.5811 0.1628
vn -0.0000 -0.9679 0.2514
vn 0.7974 -0.5811 0.1628
vn 0.9969 -0.0121 -0.0777
vn 0.8277 0.5449 -0.1345
vn -0.0000 0.9828 -0.1844
vn -0.8277 0.5449 -0.1345
vn -0.9969 -0.0121 -0.0777
vn -0.8148 -0.5772 -0.0551
vn -0.0000 -0.9986 -0.0537
vn 0.8148 -0.5772 -0.0551
vn 0.9765 -0.0161 -0.2149
vn 0.7947 0.5199 -0.3133
vn -0.0000 0.9038 -0.4281
vn -0.7947 0.5199 -0.3133
vn -0.9765 -0.0161 -0.2149
vn -0.7813 -0.5662 -0.2626
vn -0.0000 -0.9425 -0.3342
vn 0.7813 -0.5662 -0.2626
vn 0.9472 -0.0276 -0.3194
vn 0.7577 0.5134 -0.4029
vn -0.0000 0.8550 -0.5186
vn -0.7577 0.5134 -0.4029
vn -0.9472 -0.0276 -0.3194
vn -0.7305 -0.5741 -0.3697
vn -0.0000 -0.8976 -0.4408
vn 0.7305 -0.5741 -0.3697
vn 0.6225 -0.0146 -0.7825
vn 0.5248 0.3238 -0.7872
vn -0.0000 0.6090 -0.7931
vn -0.5248 0.3238 -0.7872
vn -0.6225 -0.0146 -0.7825
vn -0.5068 -0.3737 -0.7769
vn -0.0000 -0.6318 -0.7751
vn 0.5068 -0.3737 -0.7769
vn 0.0001 -0.0000 -1.0000
vn 0.7343 -0.5170 -0.4398
vn -0.2836 -0.8488 -0.4462
vn -0.9003 -0.0000 -0.4353
vn -0.2836 0.8488 -0.4462
vn 0.7343 0.5170 -0.4398
vn 0.2836 -0.8488 0.4462
vn -0.7343 -0.5170 0.4398
vn -0.7343 0.5170 0.4398
vn 0.2836 0.8488 0.4462
vn 0.9003 -0.0000 0.4353
vn -0.0001 -0.0000 1.0000
vt -0.761099 0.021142
vt -0.866808 0.031394
vt -0.866808 0.000000
vt 0.078484 0.118313
vt 0.000000 0.044397
vt 0.026161 0.031394
vt -0.078484 0.118313
vt -0.026161 0.031394
vt 0.866808 0.031394
vt 0.761099 0.021142
vt 0.866808 0.000000
vt 0.761099 -0.068555
vt 0.866808 -0.029899
vt -0.026161 -0.866808
vt -0.000000 -0.761099
vt -0.000000 -0.866808
vt 0.026161 -0.866808
vt -0.761099 -0.068555
vt -0.866808 -0.029899
vt -0.591966 0.042283
vt -0.761099 0.118313
vt 0.130807 0.591966
vt 0.000000 0.761099
vt 0.078484 0.761099
vt -0.130807 0.591966
vt -0.078484 0.761099
vt 0.761099 0.118313
vt 0.591966 0.042283
vt 0.591966 -0.129635
vt -0.130807 -0.591966
vt -0.078484 -0.761099
vt 0.130807 -0.591966
vt 0.078484 -0.761099
vt -0.591966 -0.129635
vt -0.359408 0.042283
vt -0.591966 0.244100
vt 0.153231 0.359408
vt 0.000000 0.591966
vt -0.153231 0.359408
vt 0.591966 0.244100
vt 0.359408 0.042283
vt -0.153231 -0.359408
vt -0.000000 -0.591966
vt 0.153231 -0.359408
vt -0.063425 0.301443
vt -0.359408 0.311373
vt 0.000000 0.063425
vt 0.000000 0.359408
vt 0.063425 0.301443
vt 0.359408 0.311373
vt 0.063425 0.021142
vt 0.359408 -0.204382
vt -0.149494 -0.063425
vt -0.000000 -0.359408
vt 0.149494 -0.063425
vt -0.359408 -0.204382
vt -0.063425 0.021142
vt 0.253700 0.210787
vt 0.149494 0.063425
vt 0.000000 -0.253700
vt -0.149494 0.063425
vt -0.253700 0.210787
vt -0.253700 -0.188362
vt 0.063425 -0.236736
vt -0.000000 0.253700
vt -0.000000 -0.063425
vt 0.253700 -0.188362
vt -0.063425 -0.236736
vt 0.253700 0.000000
vt 0.507400 0.092580
vt 0.118100 -0.253700
vt 0.000000 -0.507400
vt -0.118100 -0.253700
vt -0.507400 0.092580
vt -0.253700 0.000000
vt -0.507400 -0.095782
vt -0.118100 0.253700
vt -0.000000 0.507400
vt 0.118100 0.253700
vt 0.507400 -0.095782
vt 0.507400 -0.010571
vt 0.655391 0.030540
vt 0.064282 -0.507400
vt 0.000000 -0.655391
vt -0.064282 -0.507400
vt -0.655391 0.030540
vt -0.507400 -0.010571
vt -0.655391 -0.044954
vt -0.064282 0.507400
vt -0.000000 0.655391
vt 0.064282 0.507400
vt 0.655391 -0.044954
vt -0.026161 -0.029899
vt -0.000000 -0.042283
vt 0.026161 -0.029899
vt 0.023919 0.030540
vt -0.000000 0.047569
vt -0.023919 0.030540
vt 0.174419 0.137421
vt 0.143822 0.112968
vt 0.186105 0.097856
vt 0.143822 0.161873
vt 0.212238 0.137421
vt 0.186105 0.176986
vt -0.581736 0.112968
vt -0.581736 0.161873
vt -0.623338 0.137421
vt -0.186105 -0.581736
vt -0.143822 -0.581736
vt -0.162732 -0.623338
vt 0.581736 0.137421
vt 0.581736 0.097856
vt 0.623338 0.112968
vt 0.581736 0.176986
vt 0.623338 0.161873
vt -0.143822 0.581736
vt -0.186105 0.581736
vt -0.162732 0.623338
vt -0.623338 0.097856
vt -0.205015 -0.623338
vt -0.205015 0.623338
vt -0.623338 0.176986
vt -0.162732 0.097856
vt -0.136599 0.137421
vt -0.174419 0.137421
vt -0.205015 0.112968
vt -0.205015 0.161873
vt -0.162732 0.176986
vt 0.162732 -0.581736
vt 0.205015 -0.581736
vt 0.186105 -0.623338
vt 0.205015 0.581736
vt 0.162732 0.581736
vt 0.186105 0.623338
vt 0.143822 -0.623338
vt 0.143822 0.623338
vt 0.000000 0.158562
vt 0.130807 0.244100
vt 0.000000 0.327696
vt -0.130807 0.244100
vt 0.655391 -0.010571
vt 0.023919 -0.655391
vt -0.023919 -0.655391
vt -0.655391 -0.010571
vt -0.023919 0.655391
vt 0.023919 0.655391
vt 0.036998 0.000000
vt -0.036998 0.000000
vt -0.033827 -0.010571
vt 0.033827 -0.010571
vt -0.023919 -0.044954
vt 0.023919 -0.044954
vt 0.000000 -0.059197
s 1
f 9/1/9 2/2/2 1/3/1
f 10/4/10 3/5/3 2/6/2
f 3/5/3 12/7/12 4/8/4
f 4/9/4 13/10/13 5/11/5
f 5/11/5 14/12/14 6/13/6
f 6/14/6 15/15/15 7/16/7
f 15/15/15 8/17/8 7/16/7
f 16/18/16 1/3/1 8/19/8
f 17/20/17 10/21/10 9/1/9
f 18/22/18 11/23/11 10/24/10
f 11/23/11 20/25/20 12/26/12
f 12/27/12 21/28/21 13/10/13
f 13/10/13 22/29/22 14/12/14
f 22/30/22 15/15/15 14/31/14
f 15/15/15 24/32/24 16/33/16
f 24/34/24 9/1/9 16/18/16
f 25/35/25 18/36/18 17/20/17
f 26/37/26 19/38/19 18/22/18
f 19/38/19 28/39/28 20/25/20
f 20/40/20 29/41/29 21/28/21
f 29/41/29 22/29/22 21/28/21
f 30/42/30 23/43/23 22/30/22
f 23/43/23 32/44/32 24/32/24
f 24/34/24 25/35/25 17/20/17
f 25/35/25 34/45/34 26/46/26
f 26/37/26 35/47/35 27/48/27
f 35/47/35 28/39/28 27/48/27
f 36/49/36 29/41/29 28/50/28
f 37/51/37 30/52/30 29/41/29
f 38/53/38 31/54/31 30/42/30
f 31/54/31 40/55/40 32/44/32
f 32/56/32 33/57/33 25/35/25
f 33/57/33 42/58/42 34/45/34
f 34/59/34 43/60/43 35/47/35
f 43/60/43 36/61/36 35/47/35
f 44/62/44 37/51/37 36/49/36
f 37/51/37 46/63/46 38/64/38
f 38/53/38 47/65/47 39/66/39
f 47/65/47 40/55/40 39/66/39
f 48/67/48 33/57/33 40/68/40
f 41/69/41 50/70/50 42/58/42
f 42/71/42 51/72/51 43/60/43
f 51/72/51 44/73/44 43/60/43
f 52/74/52 45/75/45 44/62/44
f 45/75/45 54/76/54 46/63/46
f 46/77/46 55/78/55 47/65/47
f 55/78/55 48/79/48 47/65/47
f 56/80/56 41/69/41 48/67/48
f 49/81/49 58/82/58 50/70/50
f 50/83/50 59/84/59 51/72/51
f 59/84/59 52/85/52 51/72/51
f 60/86/60 53/87/53 52/74/52
f 53/87/53 62/88/62 54/76/54
f 54/89/54 63/90/63 55/78/55
f 63/90/63 56/91/56 55/78/55
f 64/92/64 49/81/49 56/80/56
f 6/93/6 7/94/7 8/95/8
f 60/96/60 59/97/59 58/98/58
f 65/99/65 66/100/66 67/101/67
f 66/100/66 65/99/65 70/102/70
f 65/99/65 67/101/67 68/103/68
f 65/99/65 68/103/68 69/104/69
f 65/99/65 69/104/69 70/102/70
f 66/105/66 70/106/70 75/107/75
f 67/108/67 66/109/66 71/110/71
f 68/111/68 67/112/67 72/113/72
f 69/114/69 68/111/68 73/115/73
f 70/116/70 69/117/69 74/118/74
f 66/105/66 75/107/75 71/119/71
f 67/108/67 71/110/71 72/120/72
f 68/111/68 72/113/72 73/115/73
f 69/117/69 73/121/73 74/118/74
f 70/106/70 74/122/74 75/107/75
f 71/123/71 75/124/75 76/125/76
f 72/126/72 71/123/71 76/125/76
f 73/127/73 72/126/72 76/125/76
f 74/128/74 73/127/73 76/125/76
f 75/124/75 74/128/74 76/125/76
f 77/125/65 78/126/66 79/123/67
f 78/126/66 77/125/65 82/127/70
f 77/125/65 79/123/67 80/124/68
f 77/125/65 80/124/68 81/128/69
f 77/125/65 81/128/69 82/127/70
f 78/105/66 82/106/70 87/107/75
f 79/129/67 78/130/66 83/131/71
f 80/111/68 79/112/67 84/113/72
f 81/114/69 80/111/68 85/115/73
f 82/132/70 81/133/69 86/134/74
f 78/105/66 87/107/75 83/119/71
f 79/129/67 83/131/71 84/135/72
f 80/111/68 84/113/72 85/115/73
f 81/133/69 85/136/73 86/134/74
f 82/106/70 86/122/74 87/107/75
f 83/101/71 87/103/75 88/99/76
f 84/100/72 83/101/71 88/99/76
f 85/102/73 84/100/72 88/99/76
f 86/104/74 85/102/73 88/99/76
f 87/103/75 86/104/74 88/99/76
f 9/1/9 10/21/10 2/2/2
f 10/4/10 11/137/11 3/5/3
f 3/5/3 11/137/11 12/7/12
f 4/9/4 12/27/12 13/10/13
f 5/11/5 13/10/13 14/12/14
f 6/14/6 14/31/14 15/15/15
f 15/15/15 16/33/16 8/17/8
f 16/18/16 9/1/9 1/3/1
f 17/20/17 18/36/18 10/21/10
f 18/138/18 19/139/19 11/137/11
f 11/137/11 19/139/19 20/140/20
f 12/27/12 20/40/20 21/28/21
f 13/10/13 21/28/21 22/29/22
f 22/30/22 23/43/23 15/15/15
f 15/15/15 23/43/23 24/32/24
f 24/34/24 17/20/17 9/1/9
f 25/35/25 26/46/26 18/36/18
f 26/37/26 27/48/27 19/38/19
f 19/38/19 27/48/27 28/39/28
f 20/40/20 28/50/28 29/41/29
f 29/41/29 30/52/30 22/29/22
f 30/42/30 31/54/31 23/43/23
f 23/43/23 31/54/31 32/44/32
f 24/34/24 32/56/32 25/35/25
f 25/35/25 33/57/33 34/45/34
f 26/37/26 34/59/34 35/47/35
f 35/47/35 36/61/36 28/39/28
f 36/49/36 37/51/37 29/41/29
f 37/51/37 38/64/38 30/52/30
f 38/53/38 39/66/39 31/54/31
f 31/54/31 39/66/39 40/55/40
f 32/56/32 40/68/40 33/57/33
f 33/57/33 41/69/41 42/58/42
f 34/59/34 42/71/42 43/60/43
f 43/60/43 44/73/44 36/61/36
f 44/62/44 45/75/45 37/51/37
f 37/51/37 45/75/45 46/63/46
f 38/53/38 46/77/46 47/65/47
f 47/65/47 48/79/48 40/55/40
f 48/67/48 41/69/41 33/57/33
f 41/69/41 49/81/49 50/70/50
f 42/71/42 50/83/50 51/72/51
f 51/72/51 52/85/52 44/73/44
f 52/74/52 53/87/53 45/75/45
f 45/75/45 53/87/53 54/76/54
f 46/77/46 54/89/54 55/78/55
f 55/78/55 56/91/56 48/79/48
f 56/80/56 49/81/49 41/69/41
f 49/81/49 57/141/57 58/82/58
f 50/83/50 58/142/58 59/84/59
f 59/84/59 60/143/60 52/85/52
f 60/86/60 61/144/61 53/87/53
f 53/87/53 61/144/61 62/88/62
f 54/89/54 62/145/62 63/90/63
f 63/90/63 64/146/64 56/91/56
f 64/92/64 57/141/57 49/81/49
f 8/95/8 1/147/1 5/148/5
f 1/147/1 2/6/2 4/8/4
f 2/6/2 3/5/3 4/8/4
f 4/8/4 5/148/5 1/147/1
f 5/148/5 6/93/6 8/95/8
f 58/98/58 57/149/57 61/150/61
f 57/149/57 64/151/64 62/152/62
f 64/151/64 63/153/63 62/152/62
f 62/152/62 61/150/61 57/149/57
f 61/150/61 60/96/60 58/98/58
o fin
usemtl fin
v -0.001674 0.081284 0.069070
v -0.001674 0.091750 0.069070
v -0.001674 0.112107 0.044477
v -0.001674 0.111507 0.019884
v -0.001674 0.106872 -0.004709
v -0.001674 0.098029 -0.029302
v -0.001674 0.081284 -0.029302
v 0.001674 0.081284 0.069070
v 0.001674 0.091750 0.069070
v 0.001674 0.112107 0.044477
v 0.001674 0.111507 0.019884
v 0.001674 0.106872 -0.004709
v 0.001674 0.098029 -0.029302
v 0.001674 0.081284 -0.029302
v -0.001674 0.026866 0.014651
v -0.001674 0.019540 0.014651
v -0.001674 0.002386 0.001047
v -0.001674 0.000000 -0.012558
v -0.001674 0.003772 -0.026163
v -0.001674 0.012215 -0.039767
v -0.001674 0.026866 -0.039767
v 0.001674 0.026866 0.014651
v 0.001674 0.019540 0.014651
v 0.001674 0.002386 0.001047
v 0.001674 0.000000 -0.012558
v 0.001674 0.003772 -0.026163
v 0.001674 0.012215 -0.039767
v 0.001674 0.026866 -0.039767
v -0.001570 0.065587 -0.048140
v -0.001570 0.079837 -0.069070
v -0.001570 0.087563 -0.090000
v -0.001570 0.074838 -0.080791
v -0.001570 0.054075 -0.071163
v -0.001570 0.033312 -0.080791
v -0.001570 0.020587 -0.090000
v -0.001570 0.028313 -0.069070
v -0.001570 0.042563 -0.048140
v 0.001570 0.065587 -0.048140
v 0.001570 0.079837 -0.069070
v 0.001570 0.087563 -0.090000
v 0.001570 0.074838 -0.080791
v 0.001570 0.054075 -0.071163
v 0.001570 0.033312 -0.080791
v 0.001570 0.020587 -0.090000
v 0.001570 0.028313 -0.069070
v 0.001570 0.042563 -0.048140
v 0.013802 0.049884 0.039311
v 0.018674 0.045344 0.049141
v 0.029554 0.040803 0.052298
v 0.046382 0.036263 0.048848
v 0.048139 0.036263 0.046897
v 0.041635 0.040803 0.038880
v 0.032228 0.045344 0.034087
v 0.020421 0.049884 0.031960
v 0.014498 0.051987 0.039938
v 0.019370 0.047447 0.049767
v 0.030250 0.042907 0.052924
v 0.047078 0.038366 0.049475
v 0.048835 0.038366 0.047524
v 0.042331 0.042907 0.039507
v 0.032924 0.047447 0.034714
v 0.021117 0.051987 0.032587
v -0.013802 0.049884 0.039311
v -0.018674 0.045344 0.049141
v -0.029554 0.040803 0.052298
v -0.046382 0.036263 0.048848
v -0.048139 0.036263 0.046897
v -0.041635 0.040803 0.038880
v -0.032228 0.045344 0.034087
v -0.020421 0.049884 0.031960
v -0.014498 0.051987 0.039938
v -0.019370 0.047447 0.049767
v -0.030250 0.042907 0.052924
v -0.047078 0.038366 0.049475
v -0.048835 0.038366 0.047524
v -0.042331 0.042907 0.039507
v -0.032924 0.047447 0.034714
v -0.021117 0.051987 0.032587
vn -1.0000 -0.0000 -0.0000
vn 1.0000 -0.0000 -0.0000
vn -0.0000 -0.0000 1.0000
vn -0.0000 0.7703 0.6377
vn -0.0000 0.9997 -0.0244
vn -0.0000 0.9827 -0.1852
vn -0.0000 0.9410 -0.3384
vn -0.0000 -0.0000 -1.0000
vn -0.0000 -1.0000 -0.0000
vn -0.0000 -0.6214 0.7835
vn -0.0000 -0.9850 0.1727
vn -0.0000 -0.9636 -0.2672
vn -0.0000 -0.8497 -0.5273
vn -0.0000 1.0000 -0.0000
vn -0.0000 0.8266 0.5628
vn -0.0000 0.9381 0.3463
vn -0.0000 -0.5863 -0.8101
vn -0.0000 -0.4207 -0.9072
vn -0.0000 0.4207 -0.9072
vn -0.0000 0.5863 -0.8101
vn -0.0000 -0.9381 0.3463
vn -0.0000 -0.8266 0.5628
vn -0.3023 -0.9135 -0.2722
vn 0.3023 0.9135 0.2722
vn -0.8604 0.1386 0.4904
vn -0.3375 -0.1644 0.9268
vn 0.1078 -0.3164 0.9425
vn 0.6789 -0.4067 0.6113
vn 0.7590 -0.0579 -0.6485
vn 0.4885 0.0967 -0.8672
vn 0.2478 0.2004 -0.9479
vn -0.6789 0.4067 -0.6113
vn 0.3023 -0.9135 -0.2722
vn -0.3023 0.9135 0.2722
vn 0.8604 0.1386 0.4904
vn 0.3375 -0.1644 0.9268
vn -0.1078 -0.3164 0.9425
vn -0.6789 -0.4067 0.6113
vn -0.7590 -0.0579 -0.6485
vn -0.4885 0.0967 -0.8672
vn -0.2478 0.2004 -0.9479
vn 0.6789 0.4067 -0.6113
vt -0.123547 0.733291
vt -0.465116 0.610465
vt -0.465116 0.377907
vt -0.559593 0.806002
vt -0.901163 0.523256
vt -0.901163 0.377907
vt 0.023256 0.377907
vt -0.023256 0.523256
vt -0.023256 0.377907
vt 0.023256 0.901163
vt -0.023256 0.559593
vt -0.023256 0.901163
vt 0.023256 0.559593
vt -0.023256 0.218023
vt 0.023256 0.218023
vt -0.023256 -0.123547
vt 0.023256 -0.123547
vt -0.023256 -0.465116
vt -0.023256 0.610465
vt 0.023256 0.377907
vt 0.023256 0.610465
vt 0.023256 0.465116
vt -0.023256 -0.901163
vt -0.023256 0.465116
vt -0.421512 -0.698655
vt -0.232558 -0.751043
vt 0.145349 -0.377907
vt 0.232558 -0.751043
vt 0.421512 -0.698655
vt -0.145349 -0.377907
vt -0.023256 -0.479651
vt 0.023256 -0.377907
vt -0.023256 -0.377907
vt -0.023256 -0.717906
vt 0.023256 -0.479651
vt -0.023256 0.232558
vt 0.023256 0.043605
vt -0.023256 0.043605
vt -0.023256 0.421512
vt 0.023256 0.232558
vt -0.023256 0.610465
vt 0.023256 0.421512
vt 0.023256 -0.377907
vt -0.023256 -0.581395
vt 0.023256 -0.581395
vt -0.023256 0.145349
vt 0.023256 -0.610465
vt -0.023256 -0.610465
vt -1.046512 0.000000
vt -1.180233 -0.288372
vt -1.017442 -0.357803
vt 1.046512 0.000000
vt 1.180233 0.288372
vt 1.017442 0.357803
vt 0.021802 -0.726744
vt -0.021802 -1.017442
vt -0.021802 -0.726744
vt 0.021802 -1.308140
vt -0.021802 -1.308140
vt -0.021802 0.465116
vt 0.021802 0.288372
vt 0.021802 0.465116
vt -0.021802 0.288372
vt 0.021802 0.000000
vt -0.021802 0.000000
vt 0.021802 -0.288372
vt -0.021802 -0.288372
vt 0.021802 -0.465116
vt 0.021802 1.308140
vt -0.021802 1.017442
vt -0.021802 1.308140
vt 0.021802 1.017442
vt -0.021802 0.726744
vt 0.021802 -0.159884
vt -0.021802 0.159884
vt -0.021802 -0.159884
vt 0.644198 -0.620308
vt 0.410474 -0.668215
vt 0.578265 -0.481864
vt 0.587931 0.490567
vt 0.457281 0.423998
vt 0.420139 0.676918
vt 0.487848 -0.058211
vt 0.633075 -0.092058
vt 0.496551 -0.028999
vt 0.410474 -0.184331
vt 0.269027 -0.092058
vt 0.259361 -0.121271
vt 0.644198 -0.247391
vt 0.420139 -0.155118
vt -0.593210 -0.247391
vt -0.629011 -0.218178
vt -0.620308 -0.247391
vt -0.490567 -0.155118
vt -0.601913 -0.218178
vt -0.578265 -0.184331
vt -0.457281 -0.092059
vt -0.587931 -0.155118
vt -0.283628 -0.058211
vt -0.447616 -0.121271
vt 0.394454 -0.028999
vt 0.385752 -0.058211
vt -0.447616 -0.415295
vt -0.283628 -0.385752
vt -0.259361 -0.624373
vt -0.420139 0.676918
vt -0.269027 0.633075
vt -0.457281 0.423998
vt -0.487848 -0.058211
vt -0.633075 -0.092058
vt -0.624373 -0.121271
vt -0.259361 -0.121271
vt -0.420139 -0.155118
vt -0.410474 -0.184331
vt -0.644198 -0.247391
vt 0.629011 -0.218178
vt 0.593210 -0.247391
vt 0.620308 -0.247391
vt 0.490567 -0.155118
vt 0.481864 -0.184331
vt 0.578265 -0.184331
vt 0.457281 -0.092059
vt 0.447616 -0.121271
vt 0.283628 -0.058211
vt -0.394454 -0.028999
vt -0.385752 -0.058211
vt 0.901163 0.377907
vt 0.218023 0.797666
vt 0.901163 0.523256
vt 0.559593 0.806002
vt 0.465116 0.377907
vt -0.218023 0.797666
vt 0.465116 0.610465
vt 0.123547 0.733291
vt 0.023256 0.523256
vt 0.023256 -0.465116
vt -0.023256 0.377907
vt 0.023256 -0.901163
vt 0.145349 -0.479651
vt -0.043605 -0.717906
vt -0.610465 -0.377907
vt -0.610465 -0.581395
vt 0.610465 -0.581395
vt 0.610465 -0.377907
vt -0.145349 -0.479651
vt 0.043605 -0.717906
vt 0.023256 -0.717906
vt 0.023256 0.610465
vt -0.023256 -0.377907
vt 0.023256 0.145349
vt -0.726744 -0.159884
vt -0.726744 0.159884
vt -1.017442 0.357803
vt -1.308140 0.465116
vt -1.180233 0.288372
vt -1.308140 -0.465116
vt 0.726744 0.159884
vt 0.726744 -0.159884
vt 1.017442 -0.357803
vt 1.308140 -0.465116
vt 1.180233 -0.288372
vt 1.308140 0.465116
vt 0.021802 -1.017442
vt -0.021802 -0.465116
vt 0.021802 0.726744
vt 0.021802 0.159884
vt 0.259361 -0.624373
vt 0.191700 -0.487848
vt 0.283628 -0.385752
vt 0.447616 -0.415295
vt 0.668597 -0.593210
vt 0.293293 0.394454
vt 0.269027 0.633075
vt 0.201365 0.496551
vt 0.653864 0.629011
vt 0.678263 0.601913
vt 0.624373 -0.121271
vt 0.653864 -0.218178
vt -0.481864 -0.184331
vt -0.293293 -0.028999
vt -0.191700 -0.487848
vt -0.410474 -0.668215
vt -0.644198 -0.620308
vt -0.578265 -0.481864
vt -0.668597 -0.593210
vt -0.201365 0.496551
vt -0.293293 0.394454
vt -0.587931 0.490567
vt -0.678263 0.601913
vt -0.653864 0.629011
vt -0.496551 -0.028999
vt -0.269027 -0.092058
vt -0.653864 -0.218178
vt 0.601913 -0.218178
vt 0.587931 -0.155118
vt 0.293293 -0.028999
s 0
f 93/154/77 94/155/77 95/156/77
f 98/157/78 97/158/78 96/159/78
f 96/160/79 90/161/79 89/162/79
f 97/163/80 91/164/80 90/165/80
f 98/166/81 92/167/81 91/164/81
f 99/168/82 93/169/82 92/167/82
f 100/170/83 94/171/83 93/169/83
f 101/172/84 95/173/84 94/174/84
f 102/175/85 89/176/85 95/177/85
f 107/178/77 106/179/77 103/180/77
f 113/181/78 114/182/78 110/183/78
f 104/184/79 110/185/79 103/186/79
f 105/187/86 111/188/86 104/184/86
f 106/189/87 112/190/87 105/191/87
f 107/192/88 113/193/88 106/189/88
f 108/194/89 114/195/89 107/192/89
f 109/196/84 115/197/84 108/198/84
f 103/199/90 116/200/90 109/201/90
f 121/202/77 122/203/77 124/204/77
f 130/205/78 129/206/78 127/207/78
f 126/208/91 118/209/91 117/210/91
f 118/209/92 128/211/92 119/212/92
f 128/213/93 120/214/93 119/215/93
f 129/216/94 121/217/94 120/214/94
f 130/218/95 122/219/95 121/217/95
f 131/220/96 123/221/96 122/219/96
f 132/222/97 124/223/97 123/224/97
f 133/225/98 125/226/98 124/223/98
f 134/227/79 117/228/79 125/229/79
f 138/230/99 137/231/99 140/232/99
f 148/233/100 149/234/100 145/235/100
f 135/236/101 144/237/101 143/238/101
f 137/239/102 144/240/102 136/241/102
f 138/242/103 145/243/103 137/239/103
f 139/244/104 146/245/104 138/246/104
f 139/244/105 148/247/105 147/248/105
f 140/249/106 149/250/106 148/251/106
f 142/252/107 149/250/107 141/253/107
f 135/236/108 150/254/108 142/255/108
f 157/256/109 158/257/109 152/258/109
f 161/259/110 160/260/110 165/261/110
f 151/262/111 160/263/111 152/264/111
f 152/265/112 161/266/112 153/267/112
f 161/266/113 154/268/113 153/267/113
f 162/269/114 155/270/114 154/271/114
f 155/270/115 164/272/115 156/273/115
f 156/274/116 165/275/116 157/276/116
f 165/275/117 158/277/117 157/276/117
f 166/278/118 151/262/118 158/279/118
f 95/156/77 89/280/77 92/281/77
f 89/280/77 90/282/77 91/283/77
f 92/281/77 89/280/77 91/283/77
f 92/281/77 93/154/77 95/156/77
f 96/159/78 102/284/78 99/285/78
f 102/284/78 101/286/78 100/287/78
f 99/285/78 102/284/78 100/287/78
f 99/285/78 98/157/78 96/159/78
f 96/160/79 97/288/79 90/161/79
f 97/163/80 98/166/80 91/164/80
f 98/166/81 99/168/81 92/167/81
f 99/168/82 100/170/82 93/169/82
f 100/170/83 101/289/83 94/171/83
f 101/172/84 102/290/84 95/173/84
f 102/175/85 96/291/85 89/176/85
f 104/292/77 103/180/77 105/293/77
f 103/180/77 109/294/77 107/178/77
f 105/293/77 103/180/77 106/179/77
f 109/294/77 108/295/77 107/178/77
f 115/296/78 116/297/78 114/182/78
f 116/297/78 110/183/78 114/182/78
f 110/183/78 111/298/78 112/299/78
f 112/299/78 113/181/78 110/183/78
f 104/184/79 111/188/79 110/185/79
f 105/187/86 112/300/86 111/188/86
f 106/189/87 113/193/87 112/190/87
f 107/192/88 114/195/88 113/193/88
f 108/194/89 115/301/89 114/195/89
f 109/196/84 116/302/84 115/197/84
f 103/199/90 110/303/90 116/200/90
f 125/304/77 117/305/77 121/202/77
f 117/305/77 118/306/77 121/202/77
f 118/306/77 119/307/77 120/308/77
f 118/306/77 120/308/77 121/202/77
f 124/204/77 125/304/77 121/202/77
f 122/203/77 123/309/77 124/204/77
f 126/310/78 134/311/78 130/205/78
f 134/311/78 133/312/78 130/205/78
f 133/312/78 132/313/78 131/314/78
f 133/312/78 131/314/78 130/205/78
f 127/207/78 126/310/78 130/205/78
f 129/206/78 128/315/78 127/207/78
f 126/208/91 127/316/91 118/209/91
f 118/209/92 127/316/92 128/211/92
f 128/213/93 129/216/93 120/214/93
f 129/216/94 130/218/94 121/217/94
f 130/218/95 131/220/95 122/219/95
f 131/220/96 132/317/96 123/221/96
f 132/222/97 133/225/97 124/223/97
f 133/225/98 134/318/98 125/226/98
f 134/227/79 126/319/79 117/228/79
f 136/320/99 135/321/99 142/322/99
f 142/322/99 141/323/99 136/320/99
f 141/323/99 140/232/99 137/231/99
f 136/320/99 141/323/99 137/231/99
f 140/232/99 139/324/99 138/230/99
f 149/234/100 150/325/100 144/326/100
f 150/325/100 143/327/100 144/326/100
f 144/326/100 145/235/100 149/234/100
f 145/235/100 146/328/100 148/233/100
f 146/328/100 147/329/100 148/233/100
f 135/236/101 136/330/101 144/237/101
f 137/239/102 145/243/102 144/240/102
f 138/242/103 146/331/103 145/243/103
f 139/244/104 147/248/104 146/245/104
f 139/244/105 140/332/105 148/247/105
f 140/249/106 141/253/106 149/250/106
f 142/252/107 150/333/107 149/250/107
f 135/236/108 143/238/108 150/254/108
f 158/257/109 151/334/109 152/258/109
f 152/258/109 153/335/109 157/256/109
f 153/335/109 154/336/109 156/337/109
f 154/336/109 155/338/109 156/337/109
f 156/337/109 157/256/109 153/335/109
f 159/339/110 166/340/110 160/260/110
f 166/340/110 165/261/110 160/260/110
f 165/261/110 164/341/110 161/259/110
f 164/341/110 163/342/110 162/343/110
f 161/259/110 164/341/110 162/343/110
f 151/262/111 159/344/111 160/263/111
f 152/265/112 160/345/112 161/266/112
f 161/266/113 162/346/113 154/268/113
f 162/269/114 163/347/114 155/270/114
f 155/270/115 163/347/115 164/272/115
f 156/274/116 164/348/116 165/275/116
f 165/275/117 166/349/117 158/277/117
f 166/278/118 159/344/118 151/262/118
