# Blender 5.0.1
# www.blender.org
mtllib marine_e.mtl
o body
usemtl body
v 0.020812 0.047867 0.806504
v 0.018023 0.053070 0.806504
v 0.010406 0.056879 0.806504
v 0.000000 0.058273 0.806504
v -0.010406 0.056879 0.806504
v -0.018023 0.053070 0.806504
v -0.020812 0.047867 0.806504
v -0.018023 0.043704 0.806504
v -0.010406 0.040657 0.806504
v -0.000000 0.039542 0.806504
v 0.010406 0.040657 0.806504
v 0.018023 0.043704 0.806504
v 0.078044 0.047867 0.733663
v 0.067588 0.063476 0.733663
v 0.039022 0.074902 0.733663
v 0.000000 0.079084 0.733663
v -0.039022 0.074902 0.733663
v -0.067588 0.063476 0.733663
v -0.078044 0.047867 0.733663
v -0.067588 0.035380 0.733663
v -0.039022 0.026239 0.733663
v -0.000000 0.022893 0.733663
v 0.039022 0.026239 0.733663
v 0.067588 0.035380 0.733663
v 0.156087 0.047867 0.608793
v 0.135176 0.078044 0.608793
v 0.078044 0.100135 0.608793
v 0.000000 0.108221 0.608793
v -0.078044 0.100135 0.608793
v -0.135176 0.078044 0.608793
v -0.156087 0.047867 0.608793
v -0.135176 0.027055 0.608793
v -0.078044 0.011820 0.608793
v -0.000000 0.006243 0.608793
v 0.078044 0.011820 0.608793
v 0.135176 0.027055 0.608793
v 0.202914 0.047867 0.452705
v 0.175728 0.085328 0.452705
v 0.101457 0.112751 0.452705
v 0.000000 0.122789 0.452705
v -0.101457 0.112751 0.452705
v -0.175728 0.085328 0.452705
v -0.202914 0.047867 0.452705
v -0.175728 0.023933 0.452705
v -0.101457 0.006413 0.452705
v -0.000000 0.000000 0.452705
v 0.101457 0.006413 0.452705
v 0.175728 0.023933 0.452705
v 0.192508 0.047867 0.286212
v 0.166717 0.080125 0.286212
v 0.096254 0.103739 0.286212
v 0.000000 0.112383 0.286212
v -0.096254 0.103739 0.286212
v -0.166717 0.080125 0.286212
v -0.192508 0.047867 0.286212
v -0.166717 0.027055 0.286212
v -0.096254 0.011820 0.286212
v -0.000000 0.006243 0.286212
v 0.096254 0.011820 0.286212
v 0.166717 0.027055 0.286212
v 0.140479 0.047867 0.130125
v 0.121658 0.069719 0.130125
v 0.070239 0.085716 0.130125
v 0.000000 0.091571 0.130125
v -0.070239 0.085716 0.130125
v -0.121658 0.069719 0.130125
v -0.140479 0.047867 0.130125
v -0.121658 0.033299 0.130125
v -0.070239 0.022634 0.130125
v -0.000000 0.018730 0.130125
v 0.070239 0.022634 0.130125
v 0.121658 0.033299 0.130125
v 0.078044 0.047867 0.015661
v 0.067588 0.061394 0.015661
v 0.039022 0.071297 0.015661
v 0.000000 0.074922 0.015661
v -0.039022 0.071297 0.015661
v -0.067588 0.061394 0.015661
v -0.078044 0.047867 0.015661
v -0.067588 0.038502 0.015661
v -0.039022 0.031646 0.015661
v -0.000000 0.029136 0.015661
v 0.039022 0.031646 0.015661
v 0.067588 0.038502 0.015661
v 0.039542 0.047867 -0.057180
v 0.034244 0.056191 -0.057180
v 0.019771 0.062286 -0.057180
v 0.000000 0.064516 -0.057180
v -0.019771 0.062286 -0.057180
v -0.034244 0.056191 -0.057180
v -0.039542 0.047867 -0.057180
v -0.034244 0.041623 -0.057180
v -0.019771 0.037053 -0.057180
v -0.000000 0.035380 -0.057180
v 0.019771 0.037053 -0.057180
v 0.034244 0.041623 -0.057180
v -0.088450 0.101977 0.570291
v -0.065860 0.088848 0.588698
v -0.097078 0.080733 0.588698
v -0.116371 0.101977 0.588698
v -0.097078 0.123221 0.588698
v -0.065860 0.115107 0.588698
v -0.079821 0.080733 0.618482
v -0.111039 0.088848 0.618482
v -0.111039 0.115107 0.618482
v -0.079821 0.123221 0.618482
v -0.060528 0.101977 0.618482
v -0.088450 0.101977 0.636889
v 0.088450 0.101977 0.570291
v 0.111039 0.088848 0.588698
v 0.079821 0.080733 0.588698
v 0.060528 0.101977 0.588698
v 0.079821 0.123221 0.588698
v 0.111039 0.115107 0.588698
v 0.097078 0.080733 0.618482
v 0.065860 0.088848 0.618482
v 0.065860 0.115107 0.618482
v 0.097078 0.123221 0.618482
v 0.116371 0.101977 0.618482
v 0.088450 0.101977 0.636889
v -0.119667 0.097815 0.499532
v -0.095572 0.087968 0.516788
v -0.128870 0.081882 0.516788
v -0.149450 0.097815 0.516788
v -0.128870 0.113748 0.516788
v -0.095572 0.107662 0.516788
v -0.110464 0.081882 0.544710
v -0.143762 0.087968 0.544710
v -0.143762 0.107662 0.544710
v -0.110464 0.113748 0.544710
v -0.089884 0.097815 0.544710
v -0.119667 0.097815 0.561967
v 0.119667 0.097815 0.499532
v 0.143762 0.087968 0.516788
v 0.110464 0.081882 0.516788
v 0.089884 0.097815 0.516788
v 0.110464 0.113748 0.516788
v 0.143762 0.107662 0.516788
v 0.128870 0.081882 0.544710
v 0.095572 0.087968 0.544710
v 0.095572 0.107662 0.544710
v 0.128870 0.113748 0.544710
v 0.149450 0.097815 0.544710
v 0.119667 0.097815 0.561967
vn 0.5491 -0.0346 0.8351
vn 0.3711 0.4517 0.8113
vn 0.1619 0.6004 0.7831
vn -0.0000 0.6328 0.7743
vn -0.1619 0.6004 0.7831
vn -0.3711 0.4517 0.8113
vn -0.5491 -0.0346 0.8351
vn -0.3368 -0.5039 0.7954
vn -0.1346 -0.6246 0.7693
vn -0.0000 -0.6479 0.7617
vn 0.1346 -0.6246 0.7693
vn 0.3368 -0.5039 0.7954
vn 0.8274 -0.0528 0.5591
vn 0.5610 0.7062 0.4320
vn 0.2322 0.9278 0.2921
vn -0.0000 0.9677 0.2522
vn -0.2322 0.9278 0.2921
vn -0.5610 0.7062 0.4320
vn -0.8274 -0.0528 0.5591
vn -0.5079 -0.7761 0.3739
vn -0.1920 -0.9570 0.2174
vn -0.0000 -0.9839 0.1785
vn 0.1920 -0.9570 0.2174
vn 0.5079 -0.7761 0.3739
vn 0.9182 -0.0871 0.3864
vn 0.5951 0.7487 0.2922
vn 0.2336 0.9540 0.1878
vn -0.0000 0.9871 0.1602
vn -0.2336 0.9540 0.1878
vn -0.5951 0.7487 0.2922
vn -0.9182 -0.0871 0.3864
vn -0.4915 -0.8391 0.2330
vn -0.1687 -0.9789 0.1149
vn -0.0000 -0.9961 0.0877
vn 0.1687 -0.9789 0.1149
vn 0.4915 -0.8391 0.2330
vn 0.9890 -0.1029 0.1061
vn 0.6150 0.7852 0.0719
vn 0.2287 0.9730 0.0304
vn -0.0000 0.9998 0.0178
vn -0.2287 0.9730 0.0304
vn -0.6150 0.7852 0.0719
vn -0.9890 -0.1029 0.1061
vn -0.4753 -0.8781 0.0552
vn -0.1517 -0.9883 0.0144
vn -0.0000 -1.0000 0.0037
vn 0.1517 -0.9883 0.0144
vn 0.4753 -0.8781 0.0552
vn 0.9770 -0.1033 -0.1866
vn 0.5790 0.8035 -0.1381
vn 0.2077 0.9728 -0.1021
vn -0.0000 0.9954 -0.0961
vn -0.2077 0.9728 -0.1021
vn -0.5790 0.8035 -0.1381
vn -0.9770 -0.1033 -0.1866
vn -0.4417 -0.8912 -0.1032
vn -0.1378 -0.9884 -0.0639
vn -0.0000 -0.9983 -0.0582
vn 0.1378 -0.9884 -0.0639
vn 0.4417 -0.8912 -0.1032
vn 0.9168 -0.0980 -0.3871
vn 0.5356 0.8021 -0.2640
vn 0.1933 0.9676 -0.1625
vn -0.0000 0.9903 -0.1392
vn -0.1933 0.9676 -0.1625
vn -0.5356 0.8021 -0.2640
vn -0.9168 -0.0980 -0.3871
vn -0.4171 -0.8862 -0.2018
vn -0.1325 -0.9856 -0.1048
vn -0.0000 -0.9963 -0.0863
vn 0.1325 -0.9856 -0.1048
vn 0.4171 -0.8862 -0.2018
vn 0.8806 -0.0904 -0.4651
vn 0.5471 0.7776 -0.3098
vn 0.2084 0.9617 -0.1783
vn -0.0000 0.9895 -0.1449
vn -0.2084 0.9617 -0.1783
vn -0.5471 0.7776 -0.3098
vn -0.8806 -0.0904 -0.4651
vn -0.4444 -0.8617 -0.2451
vn -0.1492 -0.9818 -0.1178
vn -0.0000 -0.9959 -0.0902
vn 0.1492 -0.9818 -0.1178
vn 0.4444 -0.8617 -0.2451
vn 0.6436 -0.0559 -0.7633
vn 0.3889 0.5284 -0.7547
vn 0.1550 0.6565 -0.7383
vn -0.0000 0.6804 -0.7329
vn -0.1550 0.6565 -0.7383
vn -0.3889 0.5284 -0.7547
vn -0.6436 -0.0559 -0.7633
vn -0.3329 -0.5882 -0.7370
vn -0.1200 -0.6797 -0.7236
vn -0.0000 -0.6950 -0.7190
vn 0.1200 -0.6797 -0.7236
vn 0.3329 -0.5882 -0.7370
vn 0.0005 -0.0000 -1.0000
vn 0.7142 -0.5523 -0.4300
vn -0.2617 -0.8734 -0.4108
vn -0.8987 -0.0000 -0.4385
vn -0.2617 0.8734 -0.4108
vn 0.7142 0.5523 -0.4300
vn 0.2617 -0.8734 0.4108
vn -0.7142 -0.5523 0.4300
vn -0.7142 0.5523 0.4300
vn 0.2617 0.8734 0.4108
vn 0.8987 -0.0000 0.4385
vn -0.0005 -0.0000 1.0000
vn 0.0034 -0.0000 -1.0000
vn 0.6890 -0.5770 -0.4386
vn -0.2258 -0.8970 -0.3799
vn -0.8919 -0.0000 -0.4522
vn -0.2258 0.8970 -0.3799
vn 0.6890 0.5770 -0.4386
vn 0.2258 -0.8970 0.3799
vn -0.6890 -0.5770 0.4386
vn -0.6890 0.5770 0.4386
vn 0.2258 0.8970 0.3799
vn 0.8919 -0.0000 0.4522
vn -0.0034 -0.0000 1.0000
vt -0.504366 0.000000
vt -0.422260 0.017594
vt -0.504366 0.005865
vt 0.020316 0.504366
vt 0.043985 0.422260
vt 0.011729 0.504366
vt 0.000000 0.422260
vt 0.000000 0.504366
vt -0.011729 0.504366
vt -0.043985 0.422260
vt -0.020316 0.504366
vt 0.422260 0.017594
vt 0.504366 0.000000
vt 0.504366 0.005865
vt 0.422260 -0.014075
vt 0.504366 -0.004692
vt -0.020316 -0.504366
vt -0.043985 -0.422260
vt -0.011729 -0.504366
vt -0.000000 -0.422260
vt -0.000000 -0.504366
vt 0.011729 -0.504366
vt 0.043985 -0.422260
vt 0.020316 -0.504366
vt -0.422260 -0.014075
vt -0.504366 -0.004692
vt -0.422260 0.000000
vt -0.281507 0.034015
vt 0.076185 0.422260
vt 0.087971 0.281507
vt 0.000000 0.281507
vt -0.087971 0.281507
vt -0.076185 0.422260
vt 0.281507 0.034015
vt 0.422260 0.000000
vt 0.281507 -0.023459
vt -0.076185 -0.422260
vt -0.087971 -0.281507
vt -0.000000 -0.281507
vt 0.087971 -0.281507
vt 0.076185 -0.422260
vt -0.281507 -0.023459
vt -0.281507 0.000000
vt -0.105565 0.042226
vt 0.152370 0.281507
vt 0.114362 0.105565
vt 0.000000 0.105565
vt -0.114362 0.105565
vt -0.152370 0.281507
vt 0.105565 0.042226
vt 0.281507 0.000000
vt -0.175942 -0.281507
vt -0.198081 -0.105565
vt -0.152370 -0.281507
vt -0.114362 -0.105565
vt -0.000000 -0.105565
vt 0.114362 -0.105565
vt 0.152370 -0.281507
vt 0.198081 -0.105565
vt 0.175942 -0.281507
vt 0.082106 0.000000
vt -0.105565 0.000000
vt 0.187923 -0.082106
vt 0.198081 0.105565
vt 0.108497 -0.082106
vt -0.108497 -0.082106
vt -0.187923 -0.082106
vt -0.198081 0.105565
vt -0.082106 0.000000
vt 0.105565 0.000000
vt -0.216995 0.082106
vt -0.228724 -0.105565
vt -0.187923 0.082106
vt -0.108497 0.082106
vt 0.108497 0.082106
vt 0.187923 0.082106
vt 0.216995 0.082106
vt 0.228724 -0.105565
vt 0.258048 0.000000
vt 0.082106 0.036361
vt 0.137133 -0.258048
vt 0.079174 -0.258048
vt 0.000000 -0.082106
vt -0.079174 -0.258048
vt -0.137133 -0.258048
vt -0.082106 0.036361
vt -0.258048 0.000000
vt -0.158348 0.258048
vt -0.137133 0.258048
vt -0.079174 0.258048
vt -0.000000 0.082106
vt 0.079174 0.258048
vt 0.137133 0.258048
vt 0.158348 0.258048
vt 0.387072 0.000000
vt 0.258048 0.024632
vt 0.076185 -0.387072
vt 0.043985 -0.387072
vt 0.000000 -0.258048
vt -0.043985 -0.387072
vt -0.076185 -0.387072
vt -0.258048 0.024632
vt -0.387072 0.000000
vt -0.087971 0.387072
vt -0.076185 0.387072
vt -0.043985 0.387072
vt -0.000000 0.258048
vt 0.043985 0.387072
vt 0.076185 0.387072
vt 0.087971 0.387072
vt 0.469178 0.000000
vt 0.387072 0.015248
vt 0.038600 -0.469178
vt 0.022286 -0.469178
vt 0.000000 -0.387072
vt -0.022286 -0.469178
vt -0.038600 -0.469178
vt -0.387072 0.015248
vt -0.469178 0.000000
vt -0.044572 0.469178
vt -0.038600 0.469178
vt -0.022286 0.469178
vt -0.000000 0.387072
vt 0.022286 0.469178
vt 0.038600 0.469178
vt 0.044572 0.469178
vt -0.000000 -0.009384
vt 0.011729 -0.008126
vt 0.011729 0.010158
vt -0.000000 0.018767
vt -0.022286 0.016253
vt 0.000000 -0.014075
vt 0.099700 0.060993
vt 0.074238 0.046194
vt 0.109426 0.037047
vt 0.074238 0.075793
vt 0.131174 0.060993
vt 0.109426 0.084939
vt -0.258856 0.046194
vt -0.258856 0.075793
vt -0.292428 0.060993
vt -0.109426 -0.258856
vt -0.074238 -0.258856
vt -0.089975 -0.292428
vt 0.258856 0.060993
vt 0.258856 0.037047
vt 0.292428 0.046194
vt 0.258856 0.084939
vt 0.292428 0.075793
vt -0.074238 0.258856
vt -0.109426 0.258856
vt -0.089975 0.292428
vt -0.292428 0.037047
vt -0.125163 -0.292428
vt -0.125163 0.292428
vt -0.292428 0.084939
vt -0.089975 0.037047
vt -0.068227 0.060993
vt -0.099700 0.060993
vt -0.125163 0.046194
vt -0.125163 0.075793
vt -0.089975 0.084939
vt 0.089975 -0.258856
vt 0.125163 -0.258856
vt 0.109426 -0.292428
vt 0.125163 0.258856
vt 0.089975 0.258856
vt 0.109426 0.292428
vt 0.074238 -0.292428
vt 0.074238 0.292428
vt -0.134889 -0.158348
vt -0.107729 -0.177799
vt -0.145263 -0.177799
vt 0.107729 0.045202
vt 0.134889 0.056301
vt 0.107729 0.067401
vt 0.145263 0.038342
vt 0.168460 0.056301
vt 0.145263 0.074261
vt -0.134889 0.158348
vt -0.145263 0.177799
vt -0.107729 0.177799
vt -0.177799 0.045202
vt -0.177799 0.067401
vt -0.209273 0.056301
vt -0.124515 -0.209273
vt -0.168460 -0.177799
vt -0.162049 -0.209273
vt -0.168460 0.177799
vt -0.162049 0.209273
vt -0.124515 0.209273
vt -0.101317 -0.209273
vt 0.177799 0.056301
vt 0.209273 0.045202
vt 0.209273 0.067401
vt -0.101317 0.209273
vt -0.124515 0.038342
vt -0.101317 0.056301
vt -0.134889 0.056301
vt -0.134889 -0.228724
vt -0.162049 0.067401
vt -0.162049 0.045202
vt -0.134889 0.228724
vt -0.124515 0.074261
vt 0.134889 -0.158348
vt 0.162049 -0.177799
vt 0.124515 -0.177799
vt 0.134889 0.158348
vt 0.124515 0.177799
vt 0.162049 0.177799
vt 0.145263 -0.209273
vt 0.101317 -0.177799
vt 0.107729 -0.209273
vt 0.101317 0.177799
vt 0.107729 0.209273
vt 0.145263 0.209273
vt 0.168460 -0.209273
vt 0.168460 0.209273
vt 0.134889 -0.228724
vt 0.134889 0.228724
vt -0.087971 -0.422260
vt 0.087971 -0.422260
vt 0.469178 0.009384
vt 0.000000 -0.469178
vt -0.469178 0.009384
vt -0.469178 -0.007038
vt -0.387072 -0.010557
vt -0.000000 0.469178
vt 0.387072 -0.010557
vt 0.469178 -0.007038
vt 0.020316 -0.004692
vt 0.023459 0.000000
vt 0.020316 0.005865
vt 0.000000 0.011729
vt -0.011729 0.010158
vt -0.020316 0.005865
vt -0.011729 -0.008126
vt -0.020316 -0.004692
vt -0.023459 0.000000
vt -0.038600 0.009384
vt -0.044572 0.000000
vt -0.038600 -0.007038
vt -0.022286 -0.012190
vt 0.022286 -0.012190
vt 0.022286 0.016253
vt 0.038600 -0.007038
vt 0.038600 0.009384
vt 0.044572 0.000000
s 1
f 1/1/1 14/2/14 2/3/2
f 2/4/2 15/5/15 3/6/3
f 3/6/3 16/7/16 4/8/4
f 16/7/16 5/9/5 4/8/4
f 17/10/17 6/11/6 5/9/5
f 18/12/18 7/13/7 6/14/6
f 7/13/7 20/15/20 8/16/8
f 8/17/8 21/18/21 9/19/9
f 9/19/9 22/20/22 10/21/10
f 22/20/22 11/22/11 10/21/10
f 23/23/23 12/24/12 11/22/11
f 24/25/24 1/1/1 12/26/12
f 13/27/13 26/28/26 14/2/14
f 14/29/14 27/30/27 15/5/15
f 15/5/15 28/31/28 16/7/16
f 28/31/28 17/10/17 16/7/16
f 29/32/29 18/33/18 17/10/17
f 30/34/30 19/35/19 18/12/18
f 19/35/19 32/36/32 20/15/20
f 20/37/20 33/38/33 21/18/21
f 21/18/21 34/39/34 22/20/22
f 34/39/34 23/23/23 22/20/22
f 35/40/35 24/41/24 23/23/23
f 36/42/36 13/27/13 24/25/24
f 25/43/25 38/44/38 26/28/26
f 26/45/26 39/46/39 27/30/27
f 27/30/27 40/47/40 28/31/28
f 40/47/40 29/32/29 28/31/28
f 41/48/41 30/49/30 29/32/29
f 42/50/42 31/51/31 30/34/30
f 31/52/31 44/53/44 32/54/32
f 32/54/32 45/55/45 33/38/33
f 33/38/33 46/56/46 34/39/34
f 46/56/46 35/40/35 34/39/34
f 47/57/47 36/58/36 35/40/35
f 48/59/48 25/60/25 36/58/36
f 49/61/49 38/44/38 37/62/37
f 50/63/50 39/46/39 38/64/38
f 51/65/51 40/47/40 39/46/39
f 40/47/40 53/66/53 41/48/41
f 41/48/41 54/67/54 42/68/42
f 42/50/42 55/69/55 43/70/43
f 55/71/55 44/53/44 43/72/43
f 56/73/56 45/55/45 44/53/44
f 57/74/57 46/56/46 45/55/45
f 46/56/46 59/75/59 47/57/47
f 47/57/47 60/76/60 48/59/48
f 48/59/48 49/77/49 37/78/37
f 61/79/61 50/80/50 49/61/49
f 62/81/62 51/65/51 50/63/50
f 63/82/63 52/83/52 51/65/51
f 52/83/52 65/84/65 53/66/53
f 53/66/53 66/85/66 54/67/54
f 54/86/54 67/87/67 55/69/55
f 67/88/67 56/73/56 55/71/55
f 68/89/68 57/74/57 56/73/56
f 69/90/69 58/91/58 57/74/57
f 58/91/58 71/92/71 59/75/59
f 59/75/59 72/93/72 60/76/60
f 60/76/60 61/94/61 49/77/49
f 73/95/73 62/96/62 61/79/61
f 74/97/74 63/82/63 62/81/62
f 75/98/75 64/99/64 63/82/63
f 64/99/64 77/100/77 65/84/65
f 65/84/65 78/101/78 66/85/66
f 66/102/66 79/103/79 67/87/67
f 79/104/79 68/89/68 67/88/67
f 80/105/80 69/90/69 68/89/68
f 81/106/81 70/107/70 69/90/69
f 70/107/70 83/108/83 71/92/71
f 71/92/71 84/109/84 72/93/72
f 72/93/72 73/110/73 61/94/61
f 85/111/85 74/112/74 73/95/73
f 86/113/86 75/98/75 74/97/74
f 87/114/87 76/115/76 75/98/75
f 76/115/76 89/116/89 77/100/77
f 77/100/77 90/117/90 78/101/78
f 78/118/78 91/119/91 79/103/79
f 91/120/91 80/105/80 79/104/79
f 92/121/92 81/106/81 80/105/80
f 93/122/93 82/123/82 81/106/81
f 82/123/82 95/124/95 83/108/83
f 83/108/83 96/125/96 84/109/84
f 84/109/84 85/126/85 73/110/73
f 10/127/10 11/128/11 3/129/3
f 88/130/88 87/131/87 94/132/94
f 97/133/97 98/134/98 99/135/99
f 98/134/98 97/133/97 102/136/102
f 97/133/97 99/135/99 100/137/100
f 97/133/97 100/137/100 101/138/101
f 97/133/97 101/138/101 102/136/102
f 98/139/98 102/140/102 107/141/107
f 99/142/99 98/143/98 103/144/103
f 100/145/100 99/146/99 104/147/104
f 101/148/101 100/145/100 105/149/105
f 102/150/102 101/151/101 106/152/106
f 98/139/98 107/141/107 103/153/103
f 99/142/99 103/144/103 104/154/104
f 100/145/100 104/147/104 105/149/105
f 101/151/101 105/155/105 106/152/106
f 102/140/102 106/156/106 107/141/107
f 103/157/103 107/158/107 108/159/108
f 104/160/104 103/157/103 108/159/108
f 105/161/105 104/160/104 108/159/108
f 106/162/106 105/161/105 108/159/108
f 107/158/107 106/162/106 108/159/108
f 109/159/97 110/160/98 111/157/99
f 110/160/98 109/159/97 114/161/102
f 109/159/97 111/157/99 112/158/100
f 109/159/97 112/158/100 113/162/101
f 109/159/97 113/162/101 114/161/102
f 110/139/98 114/140/102 119/141/107
f 111/163/99 110/164/98 115/165/103
f 112/145/100 111/146/99 116/147/104
f 113/148/101 112/145/100 117/149/105
f 114/166/102 113/167/101 118/168/106
f 110/139/98 119/141/107 115/153/103
f 111/163/99 115/165/103 116/169/104
f 112/145/100 116/147/104 117/149/105
f 113/167/101 117/170/105 118/168/106
f 114/140/102 118/156/106 119/141/107
f 115/135/103 119/137/107 120/133/108
f 116/134/104 115/135/103 120/133/108
f 117/136/105 116/134/104 120/133/108
f 118/138/106 117/136/105 120/133/108
f 119/137/107 118/138/106 120/133/108
f 121/171/109 122/172/110 123/173/111
f 122/174/110 121/175/109 126/176/114
f 121/175/109 123/177/111 124/178/112
f 121/175/109 124/178/112 125/179/113
f 121/180/109 125/181/113 126/182/114
f 122/183/110 126/184/114 131/185/119
f 123/173/111 122/172/110 127/186/115
f 124/187/112 123/173/111 128/188/116
f 125/181/113 124/189/112 129/190/117
f 126/182/114 125/181/113 130/191/118
f 122/172/110 131/192/119 127/186/115
f 123/173/111 127/186/115 128/188/116
f 124/193/112 128/194/116 129/195/117
f 125/181/113 129/190/117 130/191/118
f 126/182/114 130/191/118 131/196/119
f 127/197/115 131/198/119 132/199/120
f 128/188/116 127/186/115 132/200/120
f 129/201/117 128/202/116 132/199/120
f 130/191/118 129/190/117 132/203/120
f 131/198/119 130/204/118 132/199/120
f 133/205/109 134/206/110 135/207/111
f 134/202/110 133/199/109 138/201/114
f 133/199/109 135/197/111 136/198/112
f 133/199/109 136/198/112 137/204/113
f 133/208/109 137/209/113 138/210/114
f 134/183/110 138/184/114 143/185/119
f 135/207/111 134/206/110 139/211/115
f 136/212/112 135/207/111 140/213/116
f 137/209/113 136/214/112 141/215/117
f 138/210/114 137/209/113 142/216/118
f 134/206/110 143/217/119 139/211/115
f 135/207/111 139/211/115 140/213/116
f 136/193/112 140/194/116 141/195/117
f 137/209/113 141/215/117 142/216/118
f 138/210/114 142/216/118 143/218/119
f 139/177/115 143/178/119 144/175/120
f 140/213/116 139/211/115 144/219/120
f 141/176/117 140/174/116 144/175/120
f 142/216/118 141/215/117 144/220/120
f 143/178/119 142/179/118 144/175/120
f 1/1/1 13/27/13 14/2/14
f 2/4/2 14/29/14 15/5/15
f 3/6/3 15/5/15 16/7/16
f 16/7/16 17/10/17 5/9/5
f 17/10/17 18/33/18 6/11/6
f 18/12/18 19/35/19 7/13/7
f 7/13/7 19/35/19 20/15/20
f 8/17/8 20/37/20 21/18/21
f 9/19/9 21/18/21 22/20/22
f 22/20/22 23/23/23 11/22/11
f 23/23/23 24/41/24 12/24/12
f 24/25/24 13/27/13 1/1/1
f 13/27/13 25/43/25 26/28/26
f 14/29/14 26/45/26 27/30/27
f 15/5/15 27/30/27 28/31/28
f 28/31/28 29/32/29 17/10/17
f 29/32/29 30/49/30 18/33/18
f 30/34/30 31/51/31 19/35/19
f 19/221/19 31/52/31 32/54/32
f 20/37/20 32/54/32 33/38/33
f 21/18/21 33/38/33 34/39/34
f 34/39/34 35/40/35 23/23/23
f 35/40/35 36/58/36 24/41/24
f 36/58/36 25/60/25 13/222/13
f 25/43/25 37/62/37 38/44/38
f 26/45/26 38/64/38 39/46/39
f 27/30/27 39/46/39 40/47/40
f 40/47/40 41/48/41 29/32/29
f 41/48/41 42/68/42 30/49/30
f 42/50/42 43/70/43 31/51/31
f 31/52/31 43/72/43 44/53/44
f 32/54/32 44/53/44 45/55/45
f 33/38/33 45/55/45 46/56/46
f 46/56/46 47/57/47 35/40/35
f 47/57/47 48/59/48 36/58/36
f 48/59/48 37/78/37 25/60/25
f 49/61/49 50/80/50 38/44/38
f 50/63/50 51/65/51 39/46/39
f 51/65/51 52/83/52 40/47/40
f 40/47/40 52/83/52 53/66/53
f 41/48/41 53/66/53 54/67/54
f 42/50/42 54/86/54 55/69/55
f 55/71/55 56/73/56 44/53/44
f 56/73/56 57/74/57 45/55/45
f 57/74/57 58/91/58 46/56/46
f 46/56/46 58/91/58 59/75/59
f 47/57/47 59/75/59 60/76/60
f 48/59/48 60/76/60 49/77/49
f 61/79/61 62/96/62 50/80/50
f 62/81/62 63/82/63 51/65/51
f 63/82/63 64/99/64 52/83/52
f 52/83/52 64/99/64 65/84/65
f 53/66/53 65/84/65 66/85/66
f 54/86/54 66/102/66 67/87/67
f 67/88/67 68/89/68 56/73/56
f 68/89/68 69/90/69 57/74/57
f 69/90/69 70/107/70 58/91/58
f 58/91/58 70/107/70 71/92/71
f 59/75/59 71/92/71 72/93/72
f 60/76/60 72/93/72 61/94/61
f 73/95/73 74/112/74 62/96/62
f 74/97/74 75/98/75 63/82/63
f 75/98/75 76/115/76 64/99/64
f 64/99/64 76/115/76 77/100/77
f 65/84/65 77/100/77 78/101/78
f 66/102/66 78/118/78 79/103/79
f 79/104/79 80/105/80 68/89/68
f 80/105/80 81/106/81 69/90/69
f 81/106/81 82/123/82 70/107/70
f 70/107/70 82/123/82 83/108/83
f 71/92/71 83/108/83 84/109/84
f 72/93/72 84/109/84 73/110/73
f 85/111/85 86/223/86 74/112/74
f 86/113/86 87/114/87 75/98/75
f 87/114/87 88/224/88 76/115/76
f 76/115/76 88/224/88 89/116/89
f 77/100/77 89/116/89 90/117/90
f 78/118/78 90/225/90 91/119/91
f 91/119/91 92/226/92 80/227/80
f 92/121/92 93/122/93 81/106/81
f 93/122/93 94/228/94 82/123/82
f 82/123/82 94/228/94 95/124/95
f 83/108/83 95/124/95 96/125/96
f 84/229/84 96/230/96 85/111/85
f 12/231/12 1/232/1 2/233/2
f 2/233/2 3/129/3 11/128/11
f 3/129/3 4/234/4 10/127/10
f 2/233/2 11/128/11 12/231/12
f 4/234/4 5/235/5 10/127/10
f 5/235/5 6/236/6 9/237/9
f 9/237/9 6/236/6 8/238/8
f 6/236/6 7/239/7 8/238/8
f 9/237/9 10/127/10 5/235/5
f 86/240/86 85/241/85 96/242/96
f 96/242/96 95/243/95 86/240/86
f 95/243/95 94/132/94 87/131/87
f 86/240/86 95/243/95 87/131/87
f 94/132/94 93/244/93 89/245/89
f 93/244/93 92/246/92 90/247/90
f 92/246/92 91/248/91 90/247/90
f 90/247/90 89/245/89 93/244/93
f 89/245/89 88/130/88 94/132/94
o fin
usemtl fin
v 0.020812 0.058273 0.775286
v 0.020812 0.094009 0.583819
v 0.020812 0.104836 0.392352
v 0.020812 0.104836 0.200884
v 0.020812 0.094009 0.009417
v 0.020812 0.058273 -0.182050
v 0.020812 0.022537 0.009417
v 0.020812 0.011709 0.200884
v 0.020812 0.011709 0.392352
v 0.020812 0.022537 0.583819
v 0.118210 0.059106 0.750277
v 0.118210 0.088232 0.565849
v 0.118210 0.097057 0.381420
v 0.118210 0.097057 0.196991
v 0.118210 0.088232 0.012562
v 0.118210 0.059106 -0.171866
v 0.118210 0.029980 0.012562
v 0.118210 0.021155 0.196991
v 0.118210 0.021155 0.381420
v 0.118210 0.029980 0.565849
v 0.215609 0.062102 0.706960
v 0.215609 0.085138 0.536009
v 0.215609 0.092118 0.365057
v 0.215609 0.092118 0.194106
v 0.215609 0.085138 0.023155
v 0.215609 0.062102 -0.147796
v 0.215609 0.039066 0.023155
v 0.215609 0.032087 0.194106
v 0.215609 0.032087 0.365057
v 0.215609 0.039066 0.536009
v 0.313007 0.067617 0.652282
v 0.313007 0.085115 0.499344
v 0.313007 0.090417 0.346406
v 0.313007 0.090417 0.193468
v 0.313007 0.085115 0.040529
v 0.313007 0.067617 -0.112409
v 0.313007 0.050119 0.040529
v 0.313007 0.044817 0.193468
v 0.313007 0.044817 0.346406
v 0.313007 0.050119 0.499344
v 0.410406 0.075869 0.588614
v 0.410406 0.088421 0.457524
v 0.410406 0.092224 0.326434
v 0.410406 0.092224 0.195344
v 0.410406 0.088421 0.064255
v 0.410406 0.075869 -0.066835
v 0.410406 0.063317 0.064255
v 0.410406 0.059514 0.195344
v 0.410406 0.059514 0.326434
v 0.410406 0.063317 0.457524
v 0.507804 0.087022 0.517298
v 0.507804 0.095271 0.411480
v 0.507804 0.097770 0.305661
v 0.507804 0.097770 0.199843
v 0.507804 0.095271 0.094024
v 0.507804 0.087022 -0.011794
v 0.507804 0.078773 0.094024
v 0.507804 0.076274 0.199843
v 0.507804 0.076274 0.305661
v 0.507804 0.078773 0.411480
v 0.605203 0.101209 0.439230
v 0.605203 0.105871 0.361823
v 0.605203 0.107284 0.284415
v 0.605203 0.107284 0.207008
v 0.605203 0.105871 0.129601
v 0.605203 0.101209 0.052194
v 0.605203 0.096547 0.129601
v 0.605203 0.095135 0.207008
v 0.605203 0.095135 0.284415
v 0.605203 0.096547 0.361823
v 0.702601 0.118544 0.355058
v 0.702601 0.120448 0.308992
v 0.702601 0.121025 0.262926
v 0.702601 0.121025 0.216861
v 0.702601 0.120448 0.170795
v 0.702601 0.118544 0.124729
v 0.702601 0.116640 0.170795
v 0.702601 0.116063 0.216861
v 0.702601 0.116063 0.262926
v 0.702601 0.116640 0.308992
v 0.800000 0.139125 0.265282
v 0.800000 0.139332 0.253323
v 0.800000 0.139395 0.241364
v 0.800000 0.139395 0.229404
v 0.800000 0.139332 0.217445
v 0.800000 0.139125 0.205485
v 0.800000 0.138918 0.217445
v 0.800000 0.138855 0.229404
v 0.800000 0.138855 0.241364
v 0.800000 0.138918 0.253323
v -0.020812 0.058273 0.775286
v -0.020812 0.094009 0.583819
v -0.020812 0.104836 0.392352
v -0.020812 0.104836 0.200884
v -0.020812 0.094009 0.009417
v -0.020812 0.058273 -0.182050
v -0.020812 0.022537 0.009417
v -0.020812 0.011709 0.200884
v -0.020812 0.011709 0.392352
v -0.020812 0.022537 0.583819
v -0.118210 0.059106 0.750277
v -0.118210 0.088232 0.565849
v -0.118210 0.097057 0.381420
v -0.118210 0.097057 0.196991
v -0.118210 0.088232 0.012562
v -0.118210 0.059106 -0.171866
v -0.118210 0.029980 0.012562
v -0.118210 0.021155 0.196991
v -0.118210 0.021155 0.381420
v -0.118210 0.029980 0.565849
v -0.215609 0.062102 0.706960
v -0.215609 0.085138 0.536009
v -0.215609 0.092118 0.365057
v -0.215609 0.092118 0.194106
v -0.215609 0.085138 0.023155
v -0.215609 0.062102 -0.147796
v -0.215609 0.039066 0.023155
v -0.215609 0.032087 0.194106
v -0.215609 0.032087 0.365057
v -0.215609 0.039066 0.536009
v -0.313007 0.067617 0.652282
v -0.313007 0.085115 0.499344
v -0.313007 0.090417 0.346406
v -0.313007 0.090417 0.193468
v -0.313007 0.085115 0.040529
v -0.313007 0.067617 -0.112409
v -0.313007 0.050119 0.040529
v -0.313007 0.044817 0.193468
v -0.313007 0.044817 0.346406
v -0.313007 0.050119 0.499344
v -0.410406 0.075869 0.588614
v -0.410406 0.088421 0.457524
v -0.410406 0.092224 0.326434
v -0.410406 0.092224 0.195344
v -0.410406 0.088421 0.064255
v -0.410406 0.075869 -0.066835
v -0.410406 0.063317 0.064255
v -0.410406 0.059514 0.195344
v -0.410406 0.059514 0.326434
v -0.410406 0.063317 0.457524
v -0.507804 0.087022 0.517298
v -0.507804 0.095271 0.411480
v -0.507804 0.097770 0.305661
v -0.507804 0.097770 0.199843
v -0.507804 0.095271 0.094024
v -0.507804 0.087022 -0.011794
v -0.507804 0.078773 0.094024
v -0.507804 0.076274 0.199843
v -0.507804 0.076274 0.305661
v -0.507804 0.078773 0.411480
v -0.605203 0.101209 0.439230
v -0.605203 0.105871 0.361823
v -0.605203 0.107284 0.284415
v -0.605203 0.107284 0.207008
v -0.605203 0.105871 0.129601
v -0.605203 0.101209 0.052194
v -0.605203 0.096547 0.129601
v -0.605203 0.095135 0.207008
v -0.605203 0.095135 0.284415
v -0.605203 0.096547 0.361823
v -0.702601 0.118544 0.355058
v -0.702601 0.120448 0.308992
v -0.702601 0.121025 0.262926
v -0.702601 0.121025 0.216861
v -0.702601 0.120448 0.170795
v -0.702601 0.118544 0.124729
v -0.702601 0.116640 0.170795
v -0.702601 0.116063 0.216861
v -0.702601 0.116063 0.262926
v -0.702601 0.116640 0.308992
v -0.800000 0.139125 0.265282
v -0.800000 0.139332 0.253323
v -0.800000 0.139395 0.241364
v -0.800000 0.139395 0.229404
v -0.800000 0.139332 0.217445
v -0.800000 0.139125 0.205485
v -0.800000 0.138918 0.217445
v -0.800000 0.138855 0.229404
v -0.800000 0.138855 0.241364
v -0.800000 0.138918 0.253323
v 0.020812 0.035380 -0.057180
v 0.171696 0.035380 -0.104006
v 0.197711 0.035380 -0.202862
v 0.052029 0.035380 -0.231998
v 0.020812 0.047867 -0.057180
v 0.171696 0.047867 -0.104006
v 0.197711 0.047867 -0.202862
v 0.052029 0.047867 -0.231998
v -0.020812 0.035380 -0.057180
v -0.171696 0.035380 -0.104006
v -0.197711 0.035380 -0.202862
v -0.052029 0.035380 -0.231998
v -0.020812 0.047867 -0.057180
v -0.171696 0.047867 -0.104006
v -0.197711 0.047867 -0.202862
v -0.052029 0.047867 -0.231998
v -0.039022 0.054110 -0.077992
v -0.019511 0.081935 -0.075500
v 0.019511 0.081935 -0.075500
v 0.039022 0.054110 -0.077992
v 0.019511 0.026285 -0.080483
v -0.019511 0.026285 -0.080483
v -0.036500 0.059546 -0.138692
v -0.018250 0.085582 -0.136397
v 0.018250 0.085582 -0.136397
v 0.036500 0.059546 -0.138692
v 0.018250 0.033509 -0.140988
v -0.018250 0.033509 -0.140988
v -0.033943 0.064815 -0.199393
v -0.016971 0.089043 -0.197355
v 0.016971 0.089043 -0.197355
v 0.033943 0.064815 -0.199393
v 0.016971 0.040586 -0.201431
v -0.016971 0.040586 -0.201431
v -0.031347 0.069757 -0.260094
v -0.015674 0.092152 -0.258359
v 0.015674 0.092152 -0.258359
v 0.031347 0.069757 -0.260094
v 0.015674 0.047361 -0.261829
v -0.015674 0.047361 -0.261829
v -0.028708 0.074221 -0.320794
v -0.014354 0.094753 -0.319388
v 0.014354 0.094753 -0.319388
v 0.028708 0.074221 -0.320794
v 0.014354 0.053689 -0.322200
v -0.014354 0.053689 -0.322200
v -0.026018 0.078071 -0.381495
v -0.013009 0.096703 -0.380426
v 0.013009 0.096703 -0.380426
v 0.026018 0.078071 -0.381495
v 0.013009 0.059440 -0.382564
v -0.013009 0.059440 -0.382564
v -0.023270 0.081189 -0.442196
v -0.011635 0.097875 -0.441452
v 0.011635 0.097875 -0.441452
v 0.023270 0.081189 -0.442196
v 0.011635 0.064503 -0.442939
v -0.011635 0.064503 -0.442939
v -0.020452 0.083480 -0.502896
v -0.010226 0.098166 -0.502451
v 0.010226 0.098166 -0.502451
v 0.020452 0.083480 -0.502896
v 0.010226 0.068794 -0.503342
v -0.010226 0.068794 -0.503342
v -0.017548 0.084874 -0.563597
v -0.008774 0.097493 -0.563405
v 0.008774 0.097493 -0.563405
v 0.017548 0.084874 -0.563597
v 0.008774 0.072254 -0.563789
v -0.008774 0.072254 -0.563789
v -0.014531 0.085328 -0.624298
v -0.007266 0.095797 -0.624302
v 0.007266 0.095797 -0.624302
v 0.014531 0.085328 -0.624298
v 0.007266 0.074858 -0.624294
v -0.007266 0.074858 -0.624294
v -0.011357 0.084828 -0.684998
v -0.005678 0.093033 -0.685129
v 0.005678 0.093033 -0.685129
v 0.011357 0.084828 -0.684998
v 0.005678 0.076623 -0.684867
v -0.005678 0.076623 -0.684867
v -0.007922 0.083390 -0.745699
v -0.003961 0.089143 -0.745878
v 0.003961 0.089143 -0.745878
v 0.007922 0.083390 -0.745699
v 0.003961 0.077637 -0.745520
v -0.003961 0.077637 -0.745520
v -0.003642 0.081058 -0.806400
v -0.001821 0.083759 -0.806503
v 0.001821 0.083759 -0.806503
v 0.003642 0.081058 -0.806400
v 0.001821 0.078356 -0.806296
v -0.001821 0.078356 -0.806296
v -0.003642 0.066597 -0.161238
v -0.003642 0.118626 -0.194537
v -0.003642 0.081165 -0.269459
v -0.003642 0.061394 -0.210146
v 0.003642 0.066597 -0.161238
v 0.003642 0.118626 -0.194537
v 0.003642 0.081165 -0.269459
v 0.003642 0.061394 -0.210146
vn 0.3575 -0.0002 0.9339
vn -0.6668 0.7402 0.0868
vn -0.4498 -0.0038 0.8931
vn 0.0677 0.9926 0.1010
vn -0.6717 0.7405 0.0200
vn 0.0673 0.9975 0.0230
vn -0.6723 0.7400 -0.0204
vn 0.0620 0.9978 -0.0244
vn -0.6723 0.7359 -0.0804
vn 0.2128 -0.0027 -0.9771
vn -0.5019 -0.0042 -0.8649
vn -0.6660 -0.7415 -0.0809
vn 0.1009 -0.9946 -0.0243
vn -0.6660 -0.7457 -0.0205
vn 0.1061 -0.9941 0.0229
vn -0.6654 -0.7462 0.0201
vn 0.1062 -0.9892 0.1006
vn -0.6605 -0.7457 0.0874
vn 0.4762 0.0115 0.8793
vn 0.0430 0.9954 0.0857
vn 0.0366 0.9991 0.0194
vn 0.0262 0.9960 -0.0860
vn 0.0487 0.9939 -0.0992
vn 0.3262 0.0056 -0.9453
vn 0.0875 -0.9912 -0.0989
vn 0.1125 -0.9900 -0.0854
vn 0.1230 -0.9922 0.0193
vn 0.1290 -0.9880 0.0849
vn 0.5463 0.0278 0.8371
vn 0.0104 0.9973 0.0727
vn 0.0019 0.9999 0.0165
vn 0.0328 0.9993 -0.0196
vn -0.0033 0.9973 -0.0730
vn 0.4160 0.0195 -0.9092
vn 0.1363 -0.9880 -0.0723
vn 0.1193 -0.9927 -0.0194
vn 0.1417 -0.9898 0.0163
vn 0.1496 -0.9861 0.0718
vn 0.5976 0.0475 0.8004
vn -0.0265 0.9978 0.0609
vn -0.0356 0.9993 0.0137
vn -0.0012 0.9999 -0.0166
vn -0.0370 0.9974 -0.0611
vn 0.4907 0.0378 -0.8705
vn 0.1597 -0.9853 -0.0603
vn 0.1387 -0.9902 -0.0165
vn 0.1614 -0.9868 0.0136
vn 0.1697 -0.9837 0.0600
vn 0.6387 0.0702 0.7662
vn -0.0666 0.9965 0.0497
vn -0.0754 0.9971 0.0112
vn -0.0380 0.9992 -0.0139
vn -0.0741 0.9960 -0.0498
vn 0.5545 0.0601 -0.8300
vn 0.1823 -0.9820 -0.0491
vn 0.1591 -0.9872 -0.0137
vn 0.1815 -0.9833 0.0110
vn 0.1895 -0.9807 0.0489
vn 0.6744 0.0956 0.7321
vn -0.1093 0.9933 0.0387
vn -0.1172 0.9931 0.0086
vn -0.0770 0.9970 -0.0113
vn -0.1142 0.9927 -0.0388
vn 0.6111 0.0861 -0.7869
vn 0.2040 -0.9782 -0.0382
vn 0.1799 -0.9836 -0.0111
vn 0.2013 -0.9795 0.0085
vn 0.2087 -0.9772 0.0380
vn 0.7092 0.1240 0.6940
vn -0.1545 0.9876 0.0270
vn -0.1615 0.9869 0.0060
vn -0.1183 0.9929 -0.0087
vn -0.1573 0.9872 -0.0271
vn 0.6651 0.1159 -0.7377
vn 0.2240 -0.9742 -0.0267
vn 0.2003 -0.9797 -0.0086
vn 0.2200 -0.9755 0.0060
vn 0.2266 -0.9736 0.0266
vn 0.8469 0.1788 0.5007
vn 0.6377 0.7702 0.0079
vn 0.6378 0.7702 0.0017
vn -0.1621 0.9868 -0.0061
vn 0.6374 0.7705 -0.0082
vn 0.8332 0.1759 -0.5242
vn 0.7828 -0.6222 -0.0066
vn 0.2194 -0.9756 -0.0060
vn 0.7832 -0.6218 0.0014
vn 0.7831 -0.6219 0.0064
vn 0.6377 0.7703 -0.0019
vn 0.7831 -0.6219 -0.0015
vn 0.6668 0.7402 0.0868
vn -0.3575 -0.0002 0.9339
vn 0.4498 -0.0038 0.8931
vn 0.6717 0.7405 0.0200
vn -0.0677 0.9926 0.1010
vn 0.6723 0.7400 -0.0203
vn -0.0673 0.9975 0.0230
vn 0.6723 0.7359 -0.0804
vn -0.0620 0.9978 -0.0244
vn -0.2128 -0.0027 -0.9771
vn -0.0487 0.9939 -0.0992
vn 0.6660 -0.7415 -0.0809
vn 0.5019 -0.0042 -0.8649
vn -0.1009 -0.9946 -0.0243
vn -0.0875 -0.9912 -0.0989
vn 0.6660 -0.7457 -0.0205
vn -0.1061 -0.9941 0.0229
vn 0.6654 -0.7462 0.0201
vn -0.1062 -0.9892 0.1006
vn 0.6605 -0.7457 0.0874
vn -0.4762 0.0115 0.8793
vn -0.0430 0.9954 0.0857
vn -0.0366 0.9991 0.0194
vn -0.0262 0.9960 -0.0860
vn -0.0328 0.9993 -0.0196
vn -0.3262 0.0056 -0.9453
vn -0.1125 -0.9900 -0.0854
vn -0.1230 -0.9922 0.0193
vn -0.1193 -0.9927 -0.0194
vn -0.1290 -0.9880 0.0849
vn -0.5463 0.0278 0.8371
vn -0.0104 0.9973 0.0727
vn -0.0019 0.9999 0.0165
vn 0.0033 0.9973 -0.0730
vn 0.0012 0.9999 -0.0166
vn -0.4160 0.0195 -0.9092
vn -0.1363 -0.9880 -0.0723
vn -0.1417 -0.9898 0.0163
vn -0.1387 -0.9902 -0.0165
vn -0.1496 -0.9861 0.0718
vn -0.5976 0.0475 0.8004
vn 0.0265 0.9978 0.0609
vn 0.0356 0.9993 0.0137
vn 0.0370 0.9974 -0.0611
vn 0.0380 0.9992 -0.0139
vn -0.4907 0.0378 -0.8705
vn -0.1597 -0.9853 -0.0603
vn -0.1614 -0.9868 0.0136
vn -0.1591 -0.9872 -0.0137
vn -0.1697 -0.9837 0.0600
vn -0.6387 0.0702 0.7662
vn 0.0666 0.9965 0.0497
vn 0.0754 0.9971 0.0112
vn 0.0741 0.9960 -0.0498
vn 0.0770 0.9970 -0.0113
vn -0.5545 0.0601 -0.8300
vn -0.1823 -0.9820 -0.0491
vn -0.1815 -0.9833 0.0110
vn -0.1799 -0.9836 -0.0111
vn -0.1895 -0.9807 0.0489
vn -0.6744 0.0956 0.7321
vn 0.1093 0.9933 0.0387
vn 0.1172 0.9931 0.0086
vn 0.1142 0.9927 -0.0388
vn 0.1183 0.9929 -0.0087
vn -0.6111 0.0861 -0.7869
vn -0.2040 -0.9782 -0.0382
vn -0.2013 -0.9795 0.0085
vn -0.2003 -0.9797 -0.0086
vn -0.2087 -0.9772 0.0380
vn -0.7092 0.1240 0.6940
vn 0.1545 0.9876 0.0270
vn 0.1615 0.9869 0.0060
vn 0.1573 0.9872 -0.0271
vn 0.1621 0.9868 -0.0061
vn -0.6651 0.1160 -0.7377
vn -0.2240 -0.9742 -0.0267
vn -0.2200 -0.9755 0.0060
vn -0.2194 -0.9756 -0.0060
vn -0.2266 -0.9736 0.0266
vn -0.8469 0.1788 0.5007
vn -0.6377 0.7702 0.0079
vn -0.6378 0.7702 0.0017
vn -0.6374 0.7705 -0.0082
vn -0.6377 0.7703 -0.0019
vn -0.8332 0.1759 -0.5242
vn -0.7828 -0.6222 -0.0066
vn -0.7832 -0.6218 0.0014
vn -0.7831 -0.6219 -0.0015
vn -0.7831 -0.6219 0.0064
vn -0.4603 -0.5763 -0.6753
vn 0.5710 -0.6125 0.5466
vn -0.5500 -0.5563 0.6229
vn -0.4603 0.5763 -0.6753
vn 0.5710 0.6125 0.5466
vn 0.6945 0.5743 -0.4335
vn -0.5500 0.5563 0.6229
vn 0.6945 -0.5743 -0.4335
vn -0.5710 -0.6125 0.5466
vn 0.4603 -0.5763 -0.6753
vn 0.5500 -0.5563 0.6229
vn 0.4603 0.5763 -0.6753
vn -0.5710 0.6125 0.5466
vn 0.5500 0.5563 0.6229
vn -0.6945 -0.5743 -0.4335
vn -0.6945 0.5743 -0.4335
vn -0.3698 0.6504 0.6635
vn -0.9991 0.0042 -0.0414
vn -0.8128 -0.0520 0.5803
vn 0.3698 0.6503 0.6636
vn -0.4619 0.8860 0.0420
vn 0.9991 0.0042 -0.0414
vn 0.4619 0.8860 0.0420
vn 0.3698 -0.7579 0.5374
vn 0.8128 -0.0520 0.5803
vn -0.3698 -0.7579 0.5374
vn 0.4622 -0.8795 -0.1137
vn -0.4622 -0.8795 -0.1137
vn -0.9991 0.0045 -0.0420
vn -0.4618 0.8862 0.0380
vn 0.9991 0.0045 -0.0420
vn 0.4618 0.8862 0.0380
vn -0.4624 -0.8797 -0.1107
vn 0.4624 -0.8797 -0.1107
vn -0.9991 0.0048 -0.0427
vn -0.4617 0.8865 0.0316
vn 0.9991 0.0048 -0.0427
vn 0.4617 0.8865 0.0316
vn 0.4626 -0.8803 -0.1056
vn -0.4626 -0.8803 -0.1056
vn -0.9990 0.0048 -0.0435
vn -0.4616 0.8868 0.0230
vn 0.9990 0.0048 -0.0435
vn 0.4616 0.8868 0.0230
vn 0.4628 -0.8810 -0.0984
vn -0.4628 -0.8810 -0.0984
vn -0.9990 0.0048 -0.0444
vn -0.4616 0.8870 0.0124
vn 0.9990 0.0048 -0.0444
vn 0.4616 0.8870 0.0124
vn 0.4630 -0.8818 -0.0895
vn -0.4630 -0.8818 -0.0895
vn -0.9990 0.0045 -0.0455
vn -0.4616 0.8871 0.0001
vn 0.9990 0.0045 -0.0455
vn 0.4617 0.8871 0.0001
vn 0.4632 -0.8827 -0.0791
vn -0.4633 -0.8827 -0.0791
vn -0.9989 0.0042 -0.0469
vn -0.4617 0.8869 -0.0136
vn 0.9989 0.0042 -0.0469
vn 0.4617 0.8869 -0.0136
vn 0.4635 -0.8835 -0.0677
vn -0.4635 -0.8835 -0.0677
vn -0.9988 0.0036 -0.0486
vn -0.4619 0.8865 -0.0284
vn 0.9988 0.0036 -0.0486
vn 0.4619 0.8865 -0.0284
vn 0.4638 -0.8842 -0.0558
vn -0.4638 -0.8842 -0.0558
vn -0.9987 0.0029 -0.0508
vn -0.4622 0.8856 -0.0442
vn 0.9987 0.0029 -0.0508
vn 0.4622 0.8856 -0.0442
vn 0.4641 -0.8847 -0.0439
vn -0.4641 -0.8847 -0.0439
vn -0.9985 0.0020 -0.0542
vn -0.4628 0.8844 -0.0610
vn 0.9985 0.0020 -0.0542
vn 0.4628 0.8844 -0.0610
vn -0.4647 -0.8849 -0.0331
vn 0.4647 -0.8849 -0.0331
vn -0.9980 0.0007 -0.0630
vn 0.4640 0.8820 -0.0821
vn -0.4640 0.8820 -0.0821
vn 0.9980 0.0007 -0.0630
vn 0.4657 -0.8845 -0.0276
vn -0.4657 -0.8845 -0.0276
vn -0.7797 -0.0240 -0.6257
vn -0.3602 0.6557 -0.6635
vn 0.7797 -0.0240 -0.6257
vn 0.3602 0.6557 -0.6635
vn -0.3602 -0.7047 -0.6113
vn 0.3602 -0.7047 -0.6113
vn -1.0000 -0.0000 -0.0000
vn 1.0000 -0.0000 -0.0000
vn -0.0000 0.5391 0.8423
vn -0.0000 0.8944 -0.4472
vn -0.0000 -0.9487 -0.3162
vn -0.0000 -0.9944 0.1058
vt 0.183214 0.606359
vt 0.032256 0.348365
vt 0.032256 0.645120
vt 0.183214 0.320513
vt 0.032256 0.051610
vt 0.183214 0.034666
vt 0.032256 -0.245145
vt 0.183214 -0.251180
vt 0.032256 -0.541901
vt 0.183214 -0.822872
vt 0.032256 -0.838656
vt 0.183214 0.822872
vt 0.032256 0.541901
vt 0.032256 0.838656
vt 0.183214 0.251180
vt 0.032256 0.245145
vt 0.183214 -0.034666
vt 0.032256 -0.051610
vt 0.183214 -0.320513
vt 0.032256 -0.348365
vt 0.183214 -0.606359
vt 0.032256 -0.645120
vt 0.334172 0.539221
vt 0.334172 0.274264
vt 0.334172 0.009306
vt 0.334172 -0.520609
vt 0.183214 -0.537026
vt 0.334172 -0.785566
vt 0.334172 0.785566
vt 0.183214 0.537026
vt 0.334172 0.520609
vt 0.334172 -0.009306
vt 0.334172 -0.274264
vt 0.334172 -0.539221
vt 0.485130 0.454476
vt 0.485130 0.217437
vt 0.485130 -0.019602
vt 0.334172 -0.255651
vt 0.485130 -0.493680
vt 0.485130 -0.730719
vt 0.485130 0.730719
vt 0.485130 0.493680
vt 0.334172 0.255651
vt 0.485130 0.019602
vt 0.485130 -0.217437
vt 0.485130 -0.454476
vt 0.636088 0.355796
vt 0.636088 0.152620
vt 0.636088 -0.050556
vt 0.485130 -0.256641
vt 0.636088 -0.456908
vt 0.636088 -0.660084
vt 0.636088 0.660084
vt 0.636088 0.456908
vt 0.485130 0.256641
vt 0.636088 0.050556
vt 0.636088 -0.152620
vt 0.636088 -0.355796
vt 0.787046 0.245264
vt 0.787046 0.081256
vt 0.787046 -0.082752
vt 0.636088 -0.253732
vt 0.787046 -0.410768
vt 0.787046 -0.574777
vt 0.787046 0.574777
vt 0.787046 0.410768
vt 0.636088 0.253732
vt 0.787046 0.082752
vt 0.787046 -0.081256
vt 0.787046 -0.245264
vt 0.938004 0.124266
vt 0.938004 0.004293
vt 0.938004 -0.115681
vt 0.787046 -0.246760
vt 0.938004 -0.355628
vt 0.938004 -0.475601
vt 0.938004 0.475601
vt 0.938004 0.355628
vt 0.787046 0.246760
vt 0.938004 0.115681
vt 0.938004 -0.004293
vt 0.938004 -0.124266
vt 1.088962 -0.006192
vt 1.088962 -0.077589
vt 1.088962 -0.148987
vt 0.938004 -0.235654
vt 1.088962 -0.291782
vt 1.088962 -0.363179
vt 1.088962 0.363179
vt 1.088962 0.291782
vt 0.938004 0.235654
vt 1.088962 0.148987
vt 1.088962 0.077589
vt 1.088962 0.006192
vt 1.239920 -0.145335
vt 1.239920 -0.163871
vt 1.239920 -0.182407
vt 1.088962 -0.220384
vt 1.239920 -0.219479
vt 1.239920 -0.238015
vt 1.239920 0.238015
vt 1.239920 0.219479
vt 1.088962 0.220384
vt 1.239920 0.182407
vt 1.239920 0.163871
vt 1.239920 0.145335
vt -0.245145 -0.056041
vt 0.051610 -0.056041
vt -0.245145 0.088297
vt 0.200943 0.141859
vt 0.182407 0.141859
vt 0.200943 0.141023
vt -0.032256 0.348365
vt -0.183214 0.606359
vt -0.032256 0.645120
vt -0.032256 0.051610
vt -0.183214 0.320513
vt -0.032256 -0.245145
vt -0.183214 0.034666
vt -0.032256 -0.541901
vt -0.183214 -0.251180
vt -0.183214 -0.822872
vt -0.183214 -0.537026
vt -0.032256 0.541901
vt -0.183214 0.822872
vt -0.032256 0.838656
vt -0.183214 0.251180
vt -0.183214 0.537026
vt -0.032256 0.245145
vt -0.183214 -0.034666
vt -0.032256 -0.051610
vt -0.183214 -0.320513
vt -0.032256 -0.348365
vt -0.183214 -0.606359
vt -0.334172 0.539221
vt -0.334172 0.274264
vt -0.334172 0.009306
vt -0.334172 -0.520609
vt -0.334172 -0.255651
vt -0.334172 -0.785566
vt -0.334172 0.785566
vt -0.334172 0.520609
vt -0.334172 -0.009306
vt -0.334172 0.255651
vt -0.334172 -0.274264
vt -0.334172 -0.539221
vt -0.485130 0.454476
vt -0.485130 0.217437
vt -0.485130 -0.019602
vt -0.485130 -0.493680
vt -0.485130 -0.256641
vt -0.485130 -0.730719
vt -0.485130 0.730719
vt -0.485130 0.493680
vt -0.485130 0.019602
vt -0.485130 0.256641
vt -0.485130 -0.217437
vt -0.485130 -0.454476
vt -0.636088 0.355796
vt -0.636088 0.152620
vt -0.636088 -0.050556
vt -0.636088 -0.456908
vt -0.636088 -0.253732
vt -0.636088 -0.660084
vt -0.636088 0.660084
vt -0.636088 0.456908
vt -0.636088 0.050556
vt -0.636088 0.253732
vt -0.636088 -0.152620
vt -0.636088 -0.355796
vt -0.787046 0.245264
vt -0.787046 0.081256
vt -0.787046 -0.082752
vt -0.787046 -0.410768
vt -0.787046 -0.246760
vt -0.787046 -0.574777
vt -0.787046 0.574777
vt -0.787046 0.410768
vt -0.787046 0.082752
vt -0.787046 0.246760
vt -0.787046 -0.081256
vt -0.787046 -0.245264
vt -0.938004 0.124266
vt -0.938004 0.004293
vt -0.938004 -0.115681
vt -0.938004 -0.355628
vt -0.938004 -0.235654
vt -0.938004 -0.475601
vt -0.938004 0.475601
vt -0.938004 0.355628
vt -0.938004 0.115681
vt -0.938004 0.235654
vt -0.938004 -0.004293
vt -0.938004 -0.124266
vt -1.088962 -0.006192
vt -1.088962 -0.077589
vt -1.088962 -0.148987
vt -1.088962 -0.291782
vt -1.088962 -0.220384
vt -1.088962 -0.363179
vt -1.088962 0.363179
vt -1.088962 0.291782
vt -1.088962 0.148987
vt -1.088962 0.220384
vt -1.088962 0.077589
vt -1.088962 0.006192
vt -1.239920 -0.145335
vt -1.239920 -0.163871
vt -1.239920 -0.182407
vt -1.239920 -0.219479
vt -1.239920 -0.200943
vt -1.239920 -0.238015
vt -1.239920 0.238015
vt -1.239920 0.219479
vt -1.239920 0.182407
vt -1.239920 0.200943
vt -1.239920 0.163871
vt -1.239920 0.145335
vt 0.245145 0.088297
vt -0.051610 0.088297
vt 0.245145 -0.056041
vt -0.200943 0.141023
vt -0.182407 0.141023
vt -0.200943 0.141859
vt 0.080640 0.916070
vt 0.266112 0.717696
vt 0.080640 -0.916070
vt 0.266112 -0.717696
vt 0.306432 -0.870912
vt 0.032256 -0.019354
vt 0.266112 0.000000
vt 0.032256 0.000000
vt 0.870912 -0.019354
vt 0.717696 0.000000
vt 0.717696 -0.019354
vt -0.080640 -0.019354
vt -0.306432 -0.000000
vt -0.306432 -0.019354
vt -0.645120 -0.019354
vt -0.916070 -0.000000
vt -0.916070 -0.019354
vt -0.266112 0.717696
vt -0.080640 0.916070
vt -0.080640 -0.916070
vt -0.266112 -0.717696
vt -0.032256 -0.645120
vt -0.032256 -0.019354
vt -0.266112 0.000000
vt -0.266112 -0.019354
vt -0.717696 0.000000
vt -0.870912 -0.019354
vt -0.717696 -0.019354
vt 0.306432 -0.000000
vt 0.080640 -0.019354
vt 0.306432 -0.019354
vt 0.916070 -0.000000
vt 0.645120 -0.019354
vt 0.916070 -0.019354
vt -0.673514 0.052803
vt -0.771456 0.018101
vt -0.677376 0.009677
vt 0.030240 -0.673514
vt -0.028285 -0.767898
vt -0.030240 -0.673514
vt 0.673514 0.052803
vt 0.771456 0.018101
vt 0.767898 0.058455
vt 0.681237 -0.033449
vt 0.677376 0.009677
vt -0.030240 0.681237
vt 0.028285 0.775014
vt 0.030240 0.681237
vt -0.681237 -0.033449
vt -0.775014 -0.022253
vt -0.767898 0.058455
vt -0.865536 0.026268
vt 0.028285 -0.767898
vt -0.026304 -0.862377
vt 0.865536 0.026268
vt 0.862377 0.063819
vt 0.775014 -0.022253
vt -0.026304 0.868694
vt 0.026304 0.868694
vt -0.868694 -0.011284
vt -0.862377 0.063819
vt -0.959616 0.033927
vt 0.026304 -0.862377
vt -0.024292 -0.956926
vt 0.959616 0.033927
vt 0.956926 0.068638
vt 0.868694 -0.011284
vt 0.024292 0.962305
vt -0.962305 -0.000783
vt -0.956926 0.068638
vt -1.053696 0.040847
vt 0.024292 -0.956926
vt -0.022247 -1.051516
vt 1.053696 0.040847
vt 1.051516 0.072669
vt 0.962305 -0.000783
vt -0.024292 0.962305
vt 0.022247 1.055875
vt -1.055875 0.009024
vt -1.051516 0.072669
vt -1.147776 0.046814
vt 0.022247 -1.051516
vt -0.020163 -1.146118
vt 1.147776 0.046814
vt 1.146118 0.075690
vt 1.055875 0.009024
vt -0.022247 1.055875
vt 0.020163 1.149433
vt -1.149433 0.017937
vt -1.146118 0.075690
vt -1.241856 0.051646
vt 0.020163 -1.146118
vt -0.018033 -1.240703
vt 1.241856 0.051646
vt 1.240703 0.077507
vt 1.149433 0.017937
vt -0.020163 1.149433
vt 0.018033 1.243008
vt -1.243008 0.025785
vt -1.240703 0.077507
vt -1.335935 0.055197
vt 0.018033 -1.240703
vt -0.015850 -1.335245
vt 1.335935 0.055197
vt 1.335245 0.077958
vt 1.243008 0.025785
vt -0.018033 1.243008
vt 0.015850 1.336626
vt -1.336626 0.032435
vt -1.335245 0.077958
vt -1.430015 0.057357
vt 0.015850 -1.335245
vt -0.013599 -1.429718
vt 1.430015 0.057357
vt 1.429718 0.076916
vt 1.336626 0.032435
vt -0.015850 1.336626
vt 0.013599 1.430313
vt -1.430313 0.037797
vt -1.429718 0.076916
vt -1.524095 0.058060
vt 0.013599 -1.429718
vt -0.011261 -1.524102
vt 1.524095 0.058060
vt 1.524102 0.074288
vt 1.430313 0.037797
vt -0.013599 1.430313
vt 0.011261 1.524089
vt -1.524089 0.041833
vt -1.524102 0.074288
vt -1.618175 0.057286
vt 0.011261 -1.524102
vt -0.008801 -1.618379
vt 1.618175 0.057286
vt 1.618379 0.070002
vt 1.524089 0.041833
vt -0.008801 1.617972
vt 0.008801 1.617972
vt -1.617972 0.044570
vt -1.618379 0.070002
vt -1.712255 0.055057
vt 0.006139 -1.712532
vt -0.006139 -1.712532
vt 1.712255 0.055057
vt 1.712532 0.063974
vt 1.617972 0.044570
vt 0.006139 1.711978
vt -1.711978 0.046140
vt -1.712532 0.063974
vt -1.806335 0.051442
vt -0.002822 -1.806496
vt 1.806335 0.051442
vt 1.806496 0.055629
vt 1.711978 0.046140
vt -0.002822 1.806174
vt 0.002822 1.806174
vt -1.806174 0.047255
vt 0.030240 0.052803
vt -0.030240 0.052803
vt -0.030240 -0.033449
vt -0.002822 0.047255
vt 0.002822 0.047255
vt 0.002822 0.055629
vt -0.858009 0.109670
vt -0.882201 0.020966
vt -0.806400 0.029030
vt 0.882201 0.020966
vt 0.858009 0.109670
vt 0.806400 0.029030
vt 0.005645 0.029030
vt -0.005645 0.109670
vt -0.005645 0.029030
vt 0.005645 -0.858009
vt -0.005645 -0.974131
vt -0.005645 -0.858009
vt 0.005645 0.974131
vt -0.005645 0.882201
vt -0.005645 0.974131
vt 0.005645 0.806400
vt -0.005645 0.806400
vt 1.239920 -0.200943
vt 1.239920 0.200943
vt 0.348365 -0.039259
vt 0.645120 0.016128
vt 0.348365 0.071515
vt 0.051610 0.088297
vt -0.541901 0.071515
vt -0.541901 -0.039259
vt -0.838656 0.016128
vt 0.163871 0.141762
vt 0.145335 0.141441
vt 0.163871 0.141120
vt 0.182407 0.141023
vt 0.219479 0.141120
vt 0.219479 0.141762
vt 0.238015 0.141441
vt -0.032256 -0.838656
vt -0.348365 0.071515
vt -0.645120 0.016128
vt -0.348365 -0.039259
vt -0.051610 -0.056041
vt 0.541901 -0.039259
vt 0.541901 0.071515
vt 0.838656 0.016128
vt -0.163871 0.141120
vt -0.145335 0.141441
vt -0.163871 0.141762
vt -0.182407 0.141859
vt -0.219479 0.141762
vt -0.219479 0.141120
vt -0.238015 0.141441
vt 0.306432 0.870912
vt 0.266112 -0.019354
vt 0.870912 -0.000000
vt -0.080640 -0.000000
vt -0.645120 0.000000
vt -0.306432 0.870912
vt -0.306432 -0.870912
vt -0.032256 0.000000
vt -0.870912 -0.000000
vt 0.080640 -0.000000
vt 0.645120 0.000000
vt -0.028285 0.775014
vt -0.011261 1.524089
vt 0.008801 -1.618379
vt -0.006139 1.711978
vt -1.806496 0.055629
vt 0.002822 -1.806496
vt 1.806174 0.047255
vt -0.060480 0.009677
vt 0.030240 -0.033449
vt 0.060480 0.009677
vt 0.005645 0.051442
vt -0.002822 0.055629
vt -0.005645 0.051442
vt -0.974131 0.051610
vt 0.974131 0.051610
vt 0.005645 0.109670
vt 0.005645 -0.974131
vt 0.005645 0.882201
s 1
f 155/249/121 146/250/122 145/251/123
f 156/252/124 147/253/125 146/250/122
f 157/254/126 148/255/127 147/253/125
f 158/256/128 149/257/129 148/255/127
f 149/257/129 160/258/130 150/259/131
f 160/260/130 151/261/132 150/262/131
f 151/261/132 162/263/133 152/264/134
f 152/264/134 163/265/135 153/266/136
f 153/266/136 164/267/137 154/268/138
f 154/268/138 155/269/121 145/270/123
f 165/271/139 156/252/124 155/249/121
f 166/272/140 157/254/126 156/252/124
f 167/273/141 158/256/128 157/254/126
f 158/256/128 169/274/142 159/275/143
f 159/275/143 170/276/144 160/258/130
f 170/277/144 161/278/145 160/260/130
f 171/279/146 162/263/133 161/278/145
f 162/263/133 173/280/147 163/265/135
f 163/265/135 174/281/148 164/267/137
f 164/267/137 165/282/139 155/269/121
f 175/283/149 166/272/140 165/271/139
f 176/284/150 167/273/141 166/272/140
f 177/285/151 168/286/152 167/273/141
f 168/286/152 179/287/153 169/274/142
f 169/274/142 180/288/154 170/276/144
f 180/289/154 171/279/146 170/277/144
f 181/290/155 172/291/156 171/279/146
f 172/291/156 183/292/157 173/280/147
f 173/280/147 184/293/158 174/281/148
f 174/281/148 175/294/149 165/282/139
f 185/295/159 176/284/150 175/283/149
f 186/296/160 177/285/151 176/284/150
f 187/297/161 178/298/162 177/285/151
f 178/298/162 189/299/163 179/287/153
f 179/287/153 190/300/164 180/288/154
f 190/301/164 181/290/155 180/289/154
f 191/302/165 182/303/166 181/290/155
f 182/303/166 193/304/167 183/292/157
f 183/292/157 194/305/168 184/293/158
f 184/293/158 185/306/159 175/294/149
f 195/307/169 186/296/160 185/295/159
f 196/308/170 187/297/161 186/296/160
f 197/309/171 188/310/172 187/297/161
f 188/310/172 199/311/173 189/299/163
f 189/299/163 200/312/174 190/300/164
f 200/313/174 191/302/165 190/301/164
f 201/314/175 192/315/176 191/302/165
f 192/315/176 203/316/177 193/304/167
f 193/304/167 204/317/178 194/305/168
f 194/305/168 195/318/169 185/306/159
f 205/319/179 196/308/170 195/307/169
f 206/320/180 197/309/171 196/308/170
f 207/321/181 198/322/182 197/309/171
f 198/322/182 209/323/183 199/311/173
f 199/311/173 210/324/184 200/312/174
f 210/325/184 201/314/175 200/313/174
f 211/326/185 202/327/186 201/314/175
f 202/327/186 213/328/187 203/316/177
f 203/316/177 214/329/188 204/317/178
f 204/317/178 205/330/179 195/318/169
f 215/331/189 206/320/180 205/319/179
f 216/332/190 207/321/181 206/320/180
f 217/333/191 208/334/192 207/321/181
f 208/334/192 219/335/193 209/323/183
f 209/323/183 220/336/194 210/324/184
f 220/337/194 211/326/185 210/325/184
f 221/338/195 212/339/196 211/326/185
f 212/339/196 223/340/197 213/328/187
f 213/328/187 224/341/198 214/329/188
f 214/329/188 215/342/189 205/330/179
f 225/343/199 216/332/190 215/331/189
f 226/344/200 217/333/191 216/332/190
f 227/345/201 218/346/202 217/333/191
f 218/346/202 229/347/203 219/335/193
f 219/335/193 230/348/204 220/336/194
f 230/349/204 221/338/195 220/337/194
f 231/350/205 222/351/206 221/338/195
f 222/351/206 233/352/207 223/340/197
f 223/340/197 234/353/208 224/341/198
f 224/341/198 225/354/199 215/342/189
f 152/355/134 153/356/136 148/357/127
f 228/358/209 227/359/201 232/360/210
f 236/361/211 245/362/212 235/363/213
f 237/364/214 246/365/215 236/361/211
f 238/366/216 247/367/217 237/364/214
f 239/368/218 248/369/219 238/366/216
f 239/368/218 250/370/220 249/371/221
f 241/372/222 250/373/220 240/374/223
f 241/372/222 252/375/224 251/376/225
f 242/377/226 253/378/227 252/375/224
f 243/379/228 254/380/229 253/378/227
f 244/381/230 245/382/212 254/380/229
f 246/365/215 255/383/231 245/362/212
f 247/367/217 256/384/232 246/365/215
f 248/369/219 257/385/233 247/367/217
f 248/369/219 259/386/234 258/387/235
f 249/371/221 260/388/236 259/386/234
f 251/376/225 260/389/236 250/373/220
f 252/375/224 261/390/237 251/376/225
f 252/375/224 263/391/238 262/392/239
f 253/378/227 264/393/240 263/391/238
f 254/380/229 255/394/231 264/393/240
f 256/384/232 265/395/241 255/383/231
f 257/385/233 266/396/242 256/384/232
f 258/387/235 267/397/243 257/385/233
f 258/387/235 269/398/244 268/399/245
f 259/386/234 270/400/246 269/398/244
f 261/390/237 270/401/246 260/389/236
f 262/392/239 271/402/247 261/390/237
f 262/392/239 273/403/248 272/404/249
f 263/391/238 274/405/250 273/403/248
f 264/393/240 265/406/241 274/405/250
f 266/396/242 275/407/251 265/395/241
f 267/397/243 276/408/252 266/396/242
f 268/399/245 277/409/253 267/397/243
f 268/399/245 279/410/254 278/411/255
f 269/398/244 280/412/256 279/410/254
f 271/402/247 280/413/256 270/401/246
f 272/404/249 281/414/257 271/402/247
f 272/404/249 283/415/258 282/416/259
f 273/403/248 284/417/260 283/415/258
f 274/405/250 275/418/251 284/417/260
f 276/408/252 285/419/261 275/407/251
f 277/409/253 286/420/262 276/408/252
f 278/411/255 287/421/263 277/409/253
f 278/411/255 289/422/264 288/423/265
f 279/410/254 290/424/266 289/422/264
f 281/414/257 290/425/266 280/413/256
f 282/416/259 291/426/267 281/414/257
f 282/416/259 293/427/268 292/428/269
f 283/415/258 294/429/270 293/427/268
f 284/417/260 285/430/261 294/429/270
f 286/420/262 295/431/271 285/419/261
f 287/421/263 296/432/272 286/420/262
f 288/423/265 297/433/273 287/421/263
f 288/423/265 299/434/274 298/435/275
f 289/422/264 300/436/276 299/434/274
f 291/426/267 300/437/276 290/425/266
f 292/428/269 301/438/277 291/426/267
f 292/428/269 303/439/278 302/440/279
f 293/427/268 304/441/280 303/439/278
f 294/429/270 295/442/271 304/441/280
f 296/432/272 305/443/281 295/431/271
f 297/433/273 306/444/282 296/432/272
f 298/435/275 307/445/283 297/433/273
f 298/435/275 309/446/284 308/447/285
f 299/434/274 310/448/286 309/446/284
f 301/438/277 310/449/286 300/437/276
f 302/440/279 311/450/287 301/438/277
f 302/440/279 313/451/288 312/452/289
f 303/439/278 314/453/290 313/451/288
f 304/441/280 305/454/281 314/453/290
f 306/444/282 315/455/291 305/443/281
f 307/445/283 316/456/292 306/444/282
f 308/447/285 317/457/293 307/445/283
f 308/447/285 319/458/294 318/459/295
f 309/446/284 320/460/296 319/458/294
f 311/450/287 320/461/296 310/449/286
f 312/452/289 321/462/297 311/450/287
f 312/452/289 323/463/298 322/464/299
f 313/451/288 324/465/300 323/463/298
f 314/453/290 315/466/291 324/465/300
f 238/467/216 237/468/214 242/469/226
f 322/470/299 323/471/298 318/472/295
f 328/473/301 326/474/302 325/251/303
f 332/475/304 330/476/305 331/477/306
f 325/478/303 330/479/305 329/480/307
f 327/481/308 330/482/305 326/483/302
f 328/484/301 331/485/306 327/486/308
f 325/487/303 332/488/304 328/489/301
f 334/490/309 336/491/310 333/363/311
f 340/492/312 338/493/313 337/494/314
f 333/495/311 338/496/313 334/497/309
f 338/498/313 335/499/315 334/500/309
f 339/501/316 336/502/310 335/503/315
f 340/504/312 333/505/311 336/506/310
f 342/507/317 347/508/318 341/509/319
f 343/510/320 348/511/321 342/512/317
f 343/513/320 350/514/322 349/515/323
f 345/516/324 350/514/322 344/517/325
f 346/518/326 351/519/327 345/520/324
f 346/521/326 347/508/318 352/522/328
f 348/523/321 353/524/329 347/508/318
f 349/525/323 354/526/330 348/511/321
f 349/515/323 356/527/331 355/528/332
f 351/529/327 356/527/331 350/514/322
f 351/519/327 358/530/333 357/531/334
f 352/522/328 353/524/329 358/532/333
f 354/533/330 359/534/335 353/524/329
f 355/535/332 360/536/336 354/526/330
f 355/528/332 362/537/337 361/538/338
f 357/539/334 362/537/337 356/527/331
f 358/530/333 363/540/339 357/531/334
f 358/532/333 359/534/335 364/541/340
f 360/542/336 365/543/341 359/534/335
f 361/544/338 366/545/342 360/536/336
f 361/538/338 368/546/343 367/547/344
f 363/548/339 368/546/343 362/537/337
f 364/549/340 369/550/345 363/540/339
f 364/541/340 365/543/341 370/551/346
f 366/552/342 371/553/347 365/543/341
f 367/554/344 372/555/348 366/545/342
f 367/547/344 374/556/349 373/557/350
f 369/558/345 374/556/349 368/546/343
f 370/559/346 375/560/351 369/550/345
f 370/551/346 371/553/347 376/561/352
f 372/562/348 377/563/353 371/553/347
f 373/564/350 378/565/354 372/555/348
f 373/557/350 380/566/355 379/567/356
f 375/568/351 380/566/355 374/556/349
f 376/569/352 381/570/357 375/560/351
f 376/561/352 377/563/353 382/571/358
f 378/572/354 383/573/359 377/563/353
f 379/574/356 384/575/360 378/565/354
f 379/567/356 386/576/361 385/577/362
f 381/578/357 386/576/361 380/566/355
f 382/579/358 387/580/363 381/570/357
f 382/571/358 383/573/359 388/581/364
f 384/582/360 389/583/365 383/573/359
f 385/584/362 390/585/366 384/575/360
f 385/577/362 392/586/367 391/587/368
f 387/588/363 392/586/367 386/576/361
f 388/589/364 393/590/369 387/580/363
f 388/581/364 389/583/365 394/591/370
f 390/592/366 395/593/371 389/583/365
f 391/594/368 396/595/372 390/585/366
f 391/587/368 398/596/373 397/597/374
f 393/598/369 398/596/373 392/586/367
f 394/599/370 399/600/375 393/590/369
f 394/591/370 395/593/371 400/601/376
f 396/602/372 401/603/377 395/593/371
f 397/604/374 402/605/378 396/595/372
f 397/597/374 404/606/379 403/607/380
f 399/608/375 404/606/379 398/596/373
f 399/600/375 406/609/381 405/610/382
f 400/601/376 401/603/377 406/611/381
f 402/612/378 407/613/383 401/603/377
f 402/605/378 409/614/384 408/615/385
f 403/607/380 410/616/386 409/617/384
f 405/618/382 410/616/386 404/606/379
f 406/609/381 411/619/387 405/610/382
f 406/611/381 407/613/383 412/620/388
f 408/621/385 413/622/389 407/613/383
f 409/614/384 414/623/390 408/615/385
f 409/617/384 416/624/391 415/625/392
f 411/626/387 416/624/391 410/616/386
f 411/619/387 418/627/393 417/628/394
f 412/620/388 413/622/389 418/629/393
f 343/630/320 342/631/317 346/632/326
f 417/633/394 418/634/393 414/635/390
s 0
f 420/636/395 422/637/395 419/638/395
f 426/639/396 424/640/396 423/641/396
f 423/642/397 420/643/397 419/644/397
f 424/645/398 421/646/398 420/647/398
f 425/648/399 422/649/399 421/650/399
f 422/649/400 423/651/400 419/652/400
s 1
f 155/249/121 156/252/124 146/250/122
f 156/252/124 157/254/126 147/253/125
f 157/254/126 158/256/128 148/255/127
f 158/256/128 159/275/143 149/257/129
f 149/257/129 159/275/143 160/258/130
f 160/260/130 161/278/145 151/261/132
f 151/261/132 161/278/145 162/263/133
f 152/264/134 162/263/133 163/265/135
f 153/266/136 163/265/135 164/267/137
f 154/268/138 164/267/137 155/269/121
f 165/271/139 166/272/140 156/252/124
f 166/272/140 167/273/141 157/254/126
f 167/273/141 168/286/152 158/256/128
f 158/256/128 168/286/152 169/274/142
f 159/275/143 169/274/142 170/276/144
f 170/277/144 171/279/146 161/278/145
f 171/279/146 172/291/156 162/263/133
f 162/263/133 172/291/156 173/280/147
f 163/265/135 173/280/147 174/281/148
f 164/267/137 174/281/148 165/282/139
f 175/283/149 176/284/150 166/272/140
f 176/284/150 177/285/151 167/273/141
f 177/285/151 178/298/162 168/286/152
f 168/286/152 178/298/162 179/287/153
f 169/274/142 179/287/153 180/288/154
f 180/289/154 181/290/155 171/279/146
f 181/290/155 182/303/166 172/291/156
f 172/291/156 182/303/166 183/292/157
f 173/280/147 183/292/157 184/293/158
f 174/281/148 184/293/158 175/294/149
f 185/295/159 186/296/160 176/284/150
f 186/296/160 187/297/161 177/285/151
f 187/297/161 188/310/172 178/298/162
f 178/298/162 188/310/172 189/299/163
f 179/287/153 189/299/163 190/300/164
f 190/301/164 191/302/165 181/290/155
f 191/302/165 192/315/176 182/303/166
f 182/303/166 192/315/176 193/304/167
f 183/292/157 193/304/167 194/305/168
f 184/293/158 194/305/168 185/306/159
f 195/307/169 196/308/170 186/296/160
f 196/308/170 197/309/171 187/297/161
f 197/309/171 198/322/182 188/310/172
f 188/310/172 198/322/182 199/311/173
f 189/299/163 199/311/173 200/312/174
f 200/313/174 201/314/175 191/302/165
f 201/314/175 202/327/186 192/315/176
f 192/315/176 202/327/186 203/316/177
f 193/304/167 203/316/177 204/317/178
f 194/305/168 204/317/178 195/318/169
f 205/319/179 206/320/180 196/308/170
f 206/320/180 207/321/181 197/309/171
f 207/321/181 208/334/192 198/322/182
f 198/322/182 208/334/192 209/323/183
f 199/311/173 209/323/183 210/324/184
f 210/325/184 211/326/185 201/314/175
f 211/326/185 212/339/196 202/327/186
f 202/327/186 212/339/196 213/328/187
f 203/316/177 213/328/187 214/329/188
f 204/317/178 214/329/188 205/330/179
f 215/331/189 216/332/190 206/320/180
f 216/332/190 217/333/191 207/321/181
f 217/333/191 218/346/202 208/334/192
f 208/334/192 218/346/202 219/335/193
f 209/323/183 219/335/193 220/336/194
f 220/337/194 221/338/195 211/326/185
f 221/338/195 222/351/206 212/339/196
f 212/339/196 222/351/206 223/340/197
f 213/328/187 223/340/197 224/341/198
f 214/329/188 224/341/198 215/342/189
f 225/343/199 226/344/200 216/332/190
f 226/344/200 227/345/201 217/333/191
f 227/345/201 228/653/209 218/346/202
f 218/346/202 228/653/209 229/347/203
f 219/335/193 229/347/203 230/348/204
f 230/349/204 231/350/205 221/338/195
f 231/350/205 232/654/210 222/351/206
f 222/351/206 232/654/210 233/352/207
f 223/340/197 233/352/207 234/353/208
f 224/341/198 234/353/208 225/354/199
f 154/655/138 145/656/123 146/657/122
f 146/657/122 147/658/125 154/655/138
f 147/658/125 148/357/127 153/356/136
f 154/655/138 147/658/125 153/356/136
f 148/357/127 149/659/129 151/660/132
f 149/659/129 150/661/131 151/660/132
f 151/660/132 152/355/134 148/357/127
f 226/662/200 225/663/199 234/664/208
f 234/664/208 233/665/207 226/662/200
f 233/665/207 232/360/210 227/359/201
f 226/662/200 233/665/207 227/359/201
f 232/360/210 231/666/205 229/667/203
f 231/666/205 230/668/204 229/667/203
f 229/667/203 228/358/209 232/360/210
f 236/361/211 246/365/215 245/362/212
f 237/364/214 247/367/217 246/365/215
f 238/366/216 248/369/219 247/367/217
f 239/368/218 249/371/221 248/369/219
f 239/368/218 240/669/223 250/370/220
f 241/372/222 251/376/225 250/373/220
f 241/372/222 242/377/226 252/375/224
f 242/377/226 243/379/228 253/378/227
f 243/379/228 244/381/230 254/380/229
f 244/381/230 235/494/213 245/382/212
f 246/365/215 256/384/232 255/383/231
f 247/367/217 257/385/233 256/384/232
f 248/369/219 258/387/235 257/385/233
f 248/369/219 249/371/221 259/386/234
f 249/371/221 250/370/220 260/388/236
f 251/376/225 261/390/237 260/389/236
f 252/375/224 262/392/239 261/390/237
f 252/375/224 253/378/227 263/391/238
f 253/378/227 254/380/229 264/393/240
f 254/380/229 245/382/212 255/394/231
f 256/384/232 266/396/242 265/395/241
f 257/385/233 267/397/243 266/396/242
f 258/387/235 268/399/245 267/397/243
f 258/387/235 259/386/234 269/398/244
f 259/386/234 260/388/236 270/400/246
f 261/390/237 271/402/247 270/401/246
f 262/392/239 272/404/249 271/402/247
f 262/392/239 263/391/238 273/403/248
f 263/391/238 264/393/240 274/405/250
f 264/393/240 255/394/231 265/406/241
f 266/396/242 276/408/252 275/407/251
f 267/397/243 277/409/253 276/408/252
f 268/399/245 278/411/255 277/409/253
f 268/399/245 269/398/244 279/410/254
f 269/398/244 270/400/246 280/412/256
f 271/402/247 281/414/257 280/413/256
f 272/404/249 282/416/259 281/414/257
f 272/404/249 273/403/248 283/415/258
f 273/403/248 274/405/250 284/417/260
f 274/405/250 265/406/241 275/418/251
f 276/408/252 286/420/262 285/419/261
f 277/409/253 287/421/263 286/420/262
f 278/411/255 288/423/265 287/421/263
f 278/411/255 279/410/254 289/422/264
f 279/410/254 280/412/256 290/424/266
f 281/414/257 291/426/267 290/425/266
f 282/416/259 292/428/269 291/426/267
f 282/416/259 283/415/258 293/427/268
f 283/415/258 284/417/260 294/429/270
f 284/417/260 275/418/251 285/430/261
f 286/420/262 296/432/272 295/431/271
f 287/421/263 297/433/273 296/432/272
f 288/423/265 298/435/275 297/433/273
f 288/423/265 289/422/264 299/434/274
f 289/422/264 290/424/266 300/436/276
f 291/426/267 301/438/277 300/437/276
f 292/428/269 302/440/279 301/438/277
f 292/428/269 293/427/268 303/439/278
f 293/427/268 294/429/270 304/441/280
f 294/429/270 285/430/261 295/442/271
f 296/432/272 306/444/282 305/443/281
f 297/433/273 307/445/283 306/444/282
f 298/435/275 308/447/285 307/445/283
f 298/435/275 299/434/274 309/446/284
f 299/434/274 300/436/276 310/448/286
f 301/438/277 311/450/287 310/449/286
f 302/440/279 312/452/289 311/450/287
f 302/440/279 303/439/278 313/451/288
f 303/439/278 304/441/280 314/453/290
f 304/441/280 295/442/271 305/454/281
f 306/444/282 316/456/292 315/455/291
f 307/445/283 317/457/293 316/456/292
f 308/447/285 318/459/295 317/457/293
f 308/447/285 309/446/284 319/458/294
f 309/446/284 310/448/286 320/460/296
f 311/450/287 321/462/297 320/461/296
f 312/452/289 322/464/299 321/462/297
f 312/452/289 313/451/288 323/463/298
f 313/451/288 314/453/290 324/465/300
f 314/453/290 305/454/281 315/466/291
f 236/670/211 235/671/213 244/672/230
f 244/672/230 243/673/228 236/670/211
f 243/673/228 242/469/226 237/468/214
f 236/670/211 243/673/228 237/468/214
f 242/469/226 241/674/222 239/675/218
f 241/674/222 240/676/223 239/675/218
f 239/675/218 238/467/216 242/469/226
f 324/677/300 315/678/291 316/679/292
f 316/679/292 317/680/293 324/677/300
f 317/680/293 318/472/295 323/471/298
f 324/677/300 317/680/293 323/471/298
f 318/472/295 319/681/294 321/682/297
f 319/681/294 320/683/296 321/682/297
f 321/682/297 322/470/299 318/472/295
f 328/473/301 327/684/308 326/474/302
f 332/475/304 329/270/307 330/476/305
f 325/478/303 326/685/302 330/479/305
f 327/481/308 331/686/306 330/482/305
f 328/484/301 332/687/304 331/485/306
f 325/487/303 329/688/307 332/488/304
f 334/490/309 335/689/315 336/491/310
f 340/492/312 339/690/316 338/493/313
f 333/495/311 337/691/314 338/496/313
f 338/498/313 339/692/316 335/499/315
f 339/501/316 340/693/312 336/502/310
f 340/504/312 337/694/314 333/505/311
f 342/507/317 348/523/321 347/508/318
f 343/510/320 349/525/323 348/511/321
f 343/513/320 344/517/325 350/514/322
f 345/516/324 351/529/327 350/514/322
f 346/518/326 352/695/328 351/519/327
f 346/521/326 341/509/319 347/508/318
f 348/523/321 354/533/330 353/524/329
f 349/525/323 355/535/332 354/526/330
f 349/515/323 350/514/322 356/527/331
f 351/529/327 357/539/334 356/527/331
f 351/519/327 352/695/328 358/530/333
f 352/522/328 347/508/318 353/524/329
f 354/533/330 360/542/336 359/534/335
f 355/535/332 361/544/338 360/536/336
f 355/528/332 356/527/331 362/537/337
f 357/539/334 363/548/339 362/537/337
f 358/530/333 364/549/340 363/540/339
f 358/532/333 353/524/329 359/534/335
f 360/542/336 366/552/342 365/543/341
f 361/544/338 367/554/344 366/545/342
f 361/538/338 362/537/337 368/546/343
f 363/548/339 369/558/345 368/546/343
f 364/549/340 370/559/346 369/550/345
f 364/541/340 359/534/335 365/543/341
f 366/552/342 372/562/348 371/553/347
f 367/554/344 373/564/350 372/555/348
f 367/547/344 368/546/343 374/556/349
f 369/558/345 375/568/351 374/556/349
f 370/559/346 376/569/352 375/560/351
f 370/551/346 365/543/341 371/553/347
f 372/562/348 378/572/354 377/563/353
f 373/564/350 379/574/356 378/565/354
f 373/557/350 374/556/349 380/566/355
f 375/568/351 381/578/357 380/566/355
f 376/569/352 382/579/358 381/570/357
f 376/561/352 371/553/347 377/563/353
f 378/572/354 384/582/360 383/573/359
f 379/574/356 385/584/362 384/575/360
f 379/567/356 380/566/355 386/576/361
f 381/578/357 387/588/363 386/576/361
f 382/579/358 388/589/364 387/580/363
f 382/571/358 377/563/353 383/573/359
f 384/582/360 390/592/366 389/583/365
f 385/584/362 391/594/368 390/585/366
f 385/577/362 386/576/361 392/586/367
f 387/588/363 393/598/369 392/586/367
f 388/589/364 394/599/370 393/590/369
f 388/581/364 383/573/359 389/583/365
f 390/592/366 396/602/372 395/593/371
f 391/594/368 397/604/374 396/595/372
f 391/587/368 392/586/367 398/596/373
f 393/598/369 399/608/375 398/596/373
f 394/599/370 400/696/376 399/600/375
f 394/591/370 389/583/365 395/593/371
f 396/602/372 402/612/378 401/603/377
f 397/604/374 403/697/380 402/605/378
f 397/597/374 398/596/373 404/606/379
f 399/608/375 405/618/382 404/606/379
f 399/600/375 400/696/376 406/609/381
f 400/601/376 395/593/371 401/603/377
f 402/612/378 408/621/385 407/613/383
f 402/605/378 403/697/380 409/614/384
f 403/607/380 404/606/379 410/616/386
f 405/618/382 411/626/387 410/616/386
f 406/609/381 412/698/388 411/619/387
f 406/611/381 401/603/377 407/613/383
f 408/621/385 414/699/390 413/622/389
f 409/614/384 415/700/392 414/623/390
f 409/617/384 410/616/386 416/624/391
f 411/626/387 417/701/394 416/624/391
f 411/619/387 412/698/388 418/627/393
f 412/620/388 407/613/383 413/622/389
f 342/631/317 341/702/319 346/632/326
f 346/632/326 345/703/324 343/630/320
f 345/703/324 344/704/325 343/630/320
f 418/634/393 413/705/389 414/635/390
f 414/635/390 415/706/392 417/633/394
f 415/706/392 416/707/391 417/633/394
s 0
f 420/636/395 421/708/395 422/637/395
f 426/639/396 425/709/396 424/640/396
f 423/642/397 424/710/397 420/643/397
f 424/645/398 425/711/398 421/646/398
f 425/648/399 426/712/399 422/649/399
f 422/649/400 426/712/400 423/651/400
