# Blender 5.0.1
# www.blender.org
mtllib marine_h.mtl
o body
usemtl body
v 0.020465 0.335878 1.100000
v 0.017723 0.347134 1.100000
v 0.010233 0.355374 1.100000
v 0.000000 0.358390 1.100000
v -0.010233 0.355374 1.100000
v -0.017723 0.347134 1.100000
v -0.020465 0.335878 1.100000
v -0.017723 0.325646 1.100000
v -0.010233 0.318155 1.100000
v -0.000000 0.315413 1.100000
v 0.010233 0.318155 1.100000
v 0.017723 0.325646 1.100000
v 0.038884 0.335878 0.977209
v 0.033674 0.354297 0.977209
v 0.019442 0.367780 0.977209
v 0.000000 0.372715 0.977209
v -0.019442 0.367780 0.977209
v -0.033674 0.354297 0.977209
v -0.038884 0.335878 0.977209
v -0.033674 0.315413 0.977209
v -0.019442 0.300432 0.977209
v -0.000000 0.294948 0.977209
v 0.019442 0.300432 0.977209
v 0.033674 0.315413 0.977209
v 0.053209 0.339971 0.859535
v 0.046081 0.364529 0.859535
v 0.026605 0.382507 0.859535
v 0.000000 0.389087 0.859535
v -0.026605 0.382507 0.859535
v -0.046081 0.364529 0.859535
v -0.053209 0.339971 0.859535
v -0.046081 0.312343 0.859535
v -0.026605 0.292118 0.859535
v -0.000000 0.284715 0.859535
v 0.026605 0.292118 0.859535
v 0.046081 0.312343 0.859535
v 0.077767 0.356343 0.803256
v 0.067349 0.409553 0.803256
v 0.038884 0.448505 0.803256
v 0.000000 0.462762 0.803256
v -0.038884 0.448505 0.803256
v -0.067349 0.409553 0.803256
v -0.077767 0.356343 0.803256
v -0.067349 0.322576 0.803256
v -0.038884 0.297856 0.803256
v -0.000000 0.288808 0.803256
v 0.038884 0.297856 0.803256
v 0.067349 0.322576 0.803256
v 0.114605 0.356343 0.700930
v 0.099251 0.433087 0.700930
v 0.057302 0.489268 0.700930
v 0.000000 0.509832 0.700930
v -0.057302 0.489268 0.700930
v -0.099251 0.433087 0.700930
v -0.114605 0.356343 0.700930
v -0.099251 0.306204 0.700930
v -0.057302 0.269499 0.700930
v -0.000000 0.256064 0.700930
v 0.057302 0.269499 0.700930
v 0.099251 0.306204 0.700930
v 0.139163 0.350204 0.598605
v 0.120519 0.432064 0.598605
v 0.069581 0.491990 0.598605
v 0.000000 0.513925 0.598605
v -0.069581 0.491990 0.598605
v -0.120519 0.432064 0.598605
v -0.139163 0.350204 0.598605
v -0.120519 0.287785 0.598605
v -0.069581 0.242092 0.598605
v -0.000000 0.225367 0.598605
v 0.069581 0.242092 0.598605
v 0.120519 0.287785 0.598605
v 0.161674 0.342018 0.434884
v 0.140014 0.436157 0.434884
v 0.080837 0.505072 0.434884
v 0.000000 0.530297 0.434884
v -0.080837 0.505072 0.434884
v -0.140014 0.436157 0.434884
v -0.161674 0.342018 0.434884
v -0.140014 0.259134 0.434884
v -0.080837 0.198459 0.434884
v -0.000000 0.176250 0.434884
v 0.080837 0.198459 0.434884
v 0.140014 0.259134 0.434884
v 0.180093 0.335878 0.179070
v 0.155965 0.436157 0.179070
v 0.090047 0.509567 0.179070
v 0.000000 0.536436 0.179070
v -0.090047 0.509567 0.179070
v -0.155965 0.436157 0.179070
v -0.180093 0.335878 0.179070
v -0.155965 0.240715 0.179070
v -0.090047 0.171051 0.179070
v -0.000000 0.145553 0.179070
v 0.090047 0.171051 0.179070
v 0.155965 0.240715 0.179070
v 0.169860 0.335878 -0.076744
v 0.147103 0.427971 -0.076744
v 0.084930 0.495388 -0.076744
v 0.000000 0.520064 -0.076744
v -0.084930 0.495388 -0.076744
v -0.147103 0.427971 -0.076744
v -0.169860 0.335878 -0.076744
v -0.147103 0.245832 -0.076744
v -0.084930 0.179913 -0.076744
v -0.000000 0.155785 -0.076744
v 0.084930 0.179913 -0.076744
v 0.147103 0.245832 -0.076744
v 0.128930 0.335878 -0.332558
v 0.111657 0.408529 -0.332558
v 0.064465 0.461714 -0.332558
v 0.000000 0.481180 -0.332558
v -0.064465 0.461714 -0.332558
v -0.111657 0.408529 -0.332558
v -0.128930 0.335878 -0.332558
v -0.111657 0.269367 -0.332558
v -0.064465 0.220677 -0.332558
v -0.000000 0.202855 -0.332558
v 0.064465 0.220677 -0.332558
v 0.111657 0.269367 -0.332558
v 0.081860 0.335878 -0.567907
v 0.070893 0.386018 -0.567907
v 0.040930 0.422722 -0.567907
v 0.000000 0.436157 -0.567907
v -0.040930 0.422722 -0.567907
v -0.070893 0.386018 -0.567907
v -0.081860 0.335878 -0.567907
v -0.070893 0.291878 -0.567907
v -0.040930 0.259668 -0.567907
v -0.000000 0.247878 -0.567907
v 0.040930 0.259668 -0.567907
v 0.070893 0.291878 -0.567907
v 0.042977 0.342018 -0.752093
v 0.037219 0.373739 -0.752093
v 0.021488 0.396960 -0.752093
v 0.000000 0.405460 -0.752093
v -0.021488 0.396960 -0.752093
v -0.037219 0.373739 -0.752093
v -0.042977 0.342018 -0.752093
v -0.037219 0.316436 -0.752093
v -0.021488 0.297709 -0.752093
v -0.000000 0.290855 -0.752093
v 0.021488 0.297709 -0.752093
v 0.037219 0.316436 -0.752093
v 0.024558 0.346111 -0.885116
v 0.021268 0.367599 -0.885116
v 0.012279 0.383330 -0.885116
v 0.000000 0.389087 -0.885116
v -0.012279 0.383330 -0.885116
v -0.021268 0.367599 -0.885116
v -0.024558 0.346111 -0.885116
v -0.021268 0.329739 -0.885116
v -0.012279 0.317753 -0.885116
v -0.000000 0.313367 -0.885116
v 0.012279 0.317753 -0.885116
v 0.021268 0.329739 -0.885116
v -0.110512 0.366576 0.681488
v -0.097924 0.357431 0.692236
v -0.115319 0.351779 0.692236
v -0.126070 0.366576 0.692236
v -0.115319 0.381373 0.692236
v -0.097924 0.375721 0.692236
v -0.105704 0.351779 0.709625
v -0.123099 0.357431 0.709625
v -0.123099 0.375721 0.709625
v -0.105704 0.381373 0.709625
v -0.094953 0.366576 0.709625
v -0.110512 0.366576 0.720372
v 0.110512 0.366576 0.681488
v 0.123099 0.357431 0.692236
v 0.105704 0.351779 0.692236
v 0.094953 0.366576 0.692236
v 0.105704 0.381373 0.692236
v 0.123099 0.375721 0.692236
v 0.115319 0.351779 0.709625
v 0.097924 0.357431 0.709625
v 0.097924 0.375721 0.709625
v 0.115319 0.381373 0.709625
v 0.126070 0.366576 0.709625
v 0.110512 0.366576 0.720372
vn 0.7056 -0.0070 0.7086
vn 0.6245 0.3361 0.7050
vn 0.3791 0.6101 0.6958
vn -0.0000 0.7226 0.6913
vn -0.3791 0.6101 0.6958
vn -0.6245 0.3361 0.7050
vn -0.7056 -0.0070 0.7086
vn -0.6118 -0.3517 0.7085
vn -0.3531 -0.6080 0.7111
vn -0.0000 -0.7017 0.7125
vn 0.3531 -0.6080 0.7111
vn 0.6118 -0.3517 0.7085
vn 0.9909 0.0098 0.1345
vn 0.8492 0.5098 0.1381
vn 0.4803 0.8670 0.1331
vn -0.0000 0.9916 0.1292
vn -0.4803 0.8670 0.1331
vn -0.8492 0.5098 0.1381
vn -0.9909 0.0098 0.1345
vn -0.8664 -0.4826 0.1279
vn -0.5105 -0.8507 0.1253
vn -0.0000 -0.9922 0.1248
vn 0.5105 -0.8507 0.1253
vn 0.8664 -0.4826 0.1279
vn 0.9659 -0.0108 0.2588
vn 0.8149 0.4522 0.3627
vn 0.4483 0.7585 0.4730
vn -0.0000 0.8543 0.5197
vn -0.4483 0.7585 0.4730
vn -0.8149 0.4522 0.3627
vn -0.9659 -0.0108 0.2588
vn -0.8460 -0.5126 0.1469
vn -0.4918 -0.8695 0.0464
vn -0.0000 -1.0000 0.0072
vn 0.4918 -0.8695 0.0464
vn 0.8460 -0.5126 0.1469
vn 0.9269 -0.0288 0.3743
vn 0.7970 0.3730 0.4751
vn 0.4873 0.6648 0.5662
vn -0.0000 0.7992 0.6010
vn -0.4873 0.6648 0.5662
vn -0.7970 0.3730 0.4751
vn -0.9269 -0.0288 0.3743
vn -0.8159 -0.5009 0.2888
vn -0.4663 -0.8658 0.1815
vn -0.0000 -0.9916 0.1294
vn 0.4663 -0.8658 0.1815
vn 0.8159 -0.5009 0.2888
vn 0.9587 -0.0399 0.2815
vn 0.8751 0.4101 0.2569
vn 0.5636 0.7923 0.2336
vn -0.0000 0.9745 0.2244
vn -0.5636 0.7923 0.2336
vn -0.8751 0.4101 0.2569
vn -0.9587 -0.0399 0.2815
vn -0.8059 -0.5141 0.2935
vn -0.4405 -0.8480 0.2946
vn -0.0000 -0.9557 0.2943
vn 0.4405 -0.8480 0.2946
vn 0.8059 -0.5141 0.2935
vn 0.9821 -0.0326 0.1856
vn 0.8870 0.4366 0.1504
vn 0.5595 0.8223 0.1042
vn -0.0000 0.9969 0.0781
vn -0.5595 0.8223 0.1042
vn -0.8870 0.4366 0.1504
vn -0.9821 -0.0326 0.1856
vn -0.8271 -0.5163 0.2223
vn -0.4564 -0.8499 0.2632
vn -0.0000 -0.9595 0.2818
vn 0.4564 -0.8499 0.2632
vn 0.8271 -0.5163 0.2223
vn 0.9942 -0.0176 0.1061
vn 0.8889 0.4503 0.0843
vn 0.5474 0.8341 0.0683
vn -0.0000 0.9981 0.0618
vn -0.5474 0.8341 0.0683
vn -0.8889 0.4503 0.0843
vn -0.9942 -0.0176 0.1061
vn -0.8580 -0.4934 0.1426
vn -0.4959 -0.8489 0.1829
vn -0.0000 -0.9798 0.2000
vn 0.4959 -0.8489 0.1829
vn 0.8580 -0.4934 0.1426
vn 0.9998 -0.0078 0.0160
vn 0.8857 0.4642 0.0046
vn 0.5363 0.8440 -0.0104
vn -0.0000 0.9998 -0.0181
vn -0.5363 0.8440 -0.0104
vn -0.8857 0.4642 0.0046
vn -0.9998 -0.0078 0.0160
vn -0.8742 -0.4848 0.0256
vn -0.5156 -0.8561 0.0351
vn -0.0000 -0.9992 0.0392
vn 0.5156 -0.8561 0.0351
vn 0.8742 -0.4848 0.0256
vn 0.9952 -0.0032 -0.0981
vn 0.8773 0.4697 -0.0986
vn 0.5254 0.8446 -0.1026
vn -0.0000 0.9944 -0.1053
vn -0.5254 0.8446 -0.1026
vn -0.8773 0.4697 -0.0986
vn -0.9952 -0.0032 -0.0981
vn -0.8714 -0.4799 -0.1018
vn -0.5149 -0.8506 -0.1070
vn -0.0000 -0.9940 -0.1095
vn 0.5149 -0.8506 -0.1070
vn 0.8714 -0.4799 -0.1018
vn 0.9844 -0.0105 -0.1754
vn 0.8740 0.4539 -0.1735
vn 0.5305 0.8303 -0.1710
vn -0.0000 0.9854 -0.1700
vn -0.5305 0.8303 -0.1710
vn -0.8740 0.4539 -0.1735
vn -0.9844 -0.0105 -0.1754
vn -0.8590 -0.4803 -0.1771
vn -0.5037 -0.8447 -0.1809
vn -0.0000 -0.9831 -0.1833
vn 0.5037 -0.8447 -0.1809
vn 0.8590 -0.4803 -0.1771
vn 0.9795 -0.0159 -0.2007
vn 0.8842 0.4248 -0.1946
vn 0.5584 0.8086 -0.1853
vn -0.0000 0.9838 -0.1795
vn -0.5584 0.8086 -0.1853
vn -0.8842 0.4248 -0.1946
vn -0.9795 -0.0159 -0.2007
vn -0.8597 -0.4678 -0.2052
vn -0.5107 -0.8343 -0.2075
vn -0.0000 -0.9781 -0.2082
vn 0.5107 -0.8343 -0.2075
vn 0.8597 -0.4678 -0.2052
vn 0.9852 -0.0184 -0.1705
vn 0.9142 0.3750 -0.1537
vn 0.6194 0.7713 -0.1467
vn -0.0000 0.9886 -0.1504
vn -0.6194 0.7713 -0.1467
vn -0.9142 0.3750 -0.1537
vn -0.9852 -0.0184 -0.1705
vn -0.8808 -0.4359 -0.1847
vn -0.5450 -0.8152 -0.1961
vn -0.0000 -0.9796 -0.2012
vn 0.5450 -0.8152 -0.1961
vn 0.8808 -0.4359 -0.1847
vn 0.6954 -0.0125 -0.7185
vn 0.6610 0.2301 -0.7143
vn 0.4884 0.5311 -0.6924
vn -0.0000 0.7405 -0.6721
vn -0.4884 0.5311 -0.6924
vn -0.6610 0.2301 -0.7143
vn -0.6954 -0.0125 -0.7185
vn -0.6392 -0.2826 -0.7152
vn -0.4208 -0.5672 -0.7080
vn -0.0000 -0.7121 -0.7020
vn 0.4208 -0.5672 -0.7080
vn 0.6392 -0.2826 -0.7152
vn -0.0000 -0.0000 -1.0000
vn 0.7292 -0.5298 -0.4331
vn -0.2785 -0.8572 -0.4331
vn -0.9014 -0.0000 -0.4331
vn -0.2785 0.8572 -0.4331
vn 0.7292 0.5298 -0.4331
vn 0.2785 -0.8572 0.4331
vn -0.7292 -0.5298 0.4331
vn -0.7292 0.5298 0.4331
vn 0.2785 0.8572 0.4331
vn 0.9014 -0.0000 0.4331
vn -0.0000 -0.0000 1.0000
vt -0.887949 0.000000
vt -0.786469 0.015222
vt -0.887949 0.009302
vt -0.786469 0.026365
vt -0.887949 0.016112
vt 0.008457 0.887949
vt 0.000000 0.786469
vt 0.000000 0.887949
vt -0.008457 0.887949
vt 0.786469 0.026365
vt 0.887949 0.009302
vt 0.887949 0.016112
vt 0.786469 0.015222
vt 0.887949 0.000000
vt 0.786469 0.000000
vt 0.887949 -0.008457
vt -0.027830 -0.786469
vt -0.008457 -0.887949
vt -0.014647 -0.887949
vt -0.016068 -0.786469
vt -0.000000 -0.887949
vt 0.016068 -0.786469
vt 0.008457 -0.887949
vt 0.027830 -0.786469
vt 0.014647 -0.887949
vt -0.887949 -0.008457
vt -0.786469 0.000000
vt -0.689218 0.003383
vt 0.038083 0.689218
vt 0.016068 0.786469
vt 0.027830 0.786469
vt 0.021987 0.689218
vt -0.021987 0.689218
vt -0.016068 0.786469
vt -0.038083 0.689218
vt -0.027830 0.786469
vt 0.689218 0.003383
vt 0.689218 -0.019450
vt 0.786469 -0.016913
vt 0.689218 -0.036165
vt 0.786469 -0.029295
vt -0.000000 -0.689218
vt -0.000000 -0.786469
vt -0.689218 -0.036165
vt -0.786469 -0.016913
vt -0.786469 -0.029295
vt -0.689218 -0.019450
vt -0.642706 0.016913
vt -0.689218 0.023679
vt 0.055660 0.060888
vt 0.021987 0.038536
vt 0.038083 0.023679
vt 0.032135 0.093080
vt 0.000000 0.043975
vt -0.032135 0.093080
vt -0.021987 0.038536
vt -0.055660 0.060888
vt -0.038083 0.023679
vt 0.689218 0.023679
vt 0.642706 0.016913
vt 0.642706 -0.010994
vt 0.642706 -0.031423
vt -0.021987 -0.689218
vt -0.000000 -0.642706
vt 0.021987 -0.689218
vt -0.642706 -0.031423
vt -0.642706 -0.010994
vt -0.558140 0.016913
vt -0.642706 0.060888
vt -0.558140 0.080338
vt -0.642706 0.093080
vt 0.047357 0.558140
vt 0.000000 0.642706
vt 0.032135 0.642706
vt -0.047357 0.558140
vt -0.032135 0.642706
vt 0.642706 0.093080
vt 0.558140 0.080338
vt 0.642706 0.060888
vt 0.558140 0.016913
vt 0.558140 -0.024524
vt -0.055660 -0.642706
vt -0.047357 -0.558140
vt -0.032135 -0.642706
vt -0.000000 -0.558140
vt 0.032135 -0.642706
vt 0.047357 -0.558140
vt 0.055660 -0.642706
vt -0.558140 -0.024524
vt -0.473573 0.079493
vt -0.473573 0.129018
vt -0.558140 0.126769
vt 0.000000 0.473573
vt 0.000000 0.558140
vt 0.473573 0.129018
vt 0.558140 0.126769
vt 0.473573 0.079493
vt 0.473573 0.011839
vt -0.099602 -0.473573
vt -0.082025 -0.558140
vt -0.057505 -0.473573
vt 0.057505 -0.473573
vt 0.099602 -0.473573
vt 0.082025 -0.558140
vt -0.473573 0.011839
vt -0.338266 0.082875
vt -0.338266 0.139830
vt 0.057505 0.473573
vt 0.000000 0.338266
vt -0.057505 0.473573
vt 0.338266 0.139830
vt 0.338266 0.082875
vt 0.338266 0.005074
vt 0.473573 -0.039746
vt -0.115714 -0.338266
vt -0.066808 -0.338266
vt -0.000000 -0.473573
vt 0.066808 -0.338266
vt 0.115714 -0.338266
vt -0.473573 -0.039746
vt -0.338266 0.005074
vt -0.126850 0.082875
vt -0.126850 0.143544
vt 0.066808 0.338266
vt 0.000000 0.126850
vt -0.066808 0.338266
vt 0.126850 0.143544
vt 0.126850 0.082875
vt 0.126850 0.000000
vt 0.338266 -0.063425
vt 0.126850 -0.078647
vt 0.338266 -0.113570
vt -0.074419 -0.126850
vt -0.000000 -0.338266
vt 0.074419 -0.126850
vt -0.338266 -0.113570
vt -0.126850 -0.078647
vt -0.338266 -0.063425
vt -0.126850 0.000000
vt 0.084567 0.076110
vt 0.084567 0.131826
vt 0.074419 0.126850
vt 0.000000 -0.084567
vt -0.074419 0.126850
vt -0.084567 0.131826
vt -0.084567 0.076110
vt -0.084567 -0.074419
vt -0.084567 -0.128897
vt 0.126850 -0.136220
vt -0.000000 0.084567
vt -0.000000 -0.126850
vt 0.084567 -0.128897
vt -0.126850 -0.136220
vt 0.084567 -0.074419
vt 0.084567 0.000000
vt 0.295983 0.060042
vt 0.295983 0.103996
vt 0.070190 -0.084567
vt 0.000000 -0.295983
vt -0.070190 -0.084567
vt -0.295983 0.103996
vt -0.295983 0.060042
vt -0.084567 0.000000
vt -0.295983 -0.054968
vt -0.295983 -0.095208
vt -0.070190 0.084567
vt -0.000000 0.295983
vt 0.070190 0.084567
vt 0.295983 -0.095208
vt 0.295983 -0.054968
vt 0.295983 0.000000
vt 0.490486 0.041438
vt 0.490486 0.071772
vt 0.053277 -0.295983
vt 0.000000 -0.490486
vt -0.053277 -0.295983
vt -0.490486 0.071772
vt -0.490486 0.041438
vt -0.295983 0.000000
vt -0.490486 -0.036364
vt -0.490486 -0.062984
vt -0.053277 0.295983
vt -0.000000 0.490486
vt 0.053277 0.295983
vt 0.490486 -0.062984
vt 0.490486 -0.036364
vt 0.642706 0.005074
vt 0.490486 0.000000
vt 0.642706 0.031290
vt 0.033827 -0.490486
vt 0.000000 -0.642706
vt -0.033827 -0.490486
vt -0.642706 0.031290
vt -0.642706 0.005074
vt -0.490486 0.000000
vt -0.642706 -0.016068
vt -0.642706 -0.031544
vt -0.033827 0.490486
vt -0.000000 0.642706
vt 0.033827 0.490486
vt 0.642706 -0.031544
vt 0.642706 -0.016068
vt 0.752643 0.008457
vt 0.752643 0.039216
vt 0.642706 0.050481
vt 0.017759 -0.642706
vt 0.000000 -0.752643
vt -0.017759 -0.642706
vt -0.752643 0.039216
vt -0.642706 0.050481
vt -0.752643 0.008457
vt -0.752643 -0.005074
vt -0.752643 -0.014979
vt -0.017759 0.642706
vt -0.000000 0.752643
vt 0.017759 0.642706
vt 0.752643 -0.014979
vt 0.752643 -0.005074
vt -0.014647 -0.008457
vt -0.000000 -0.016913
vt 0.014647 -0.008457
vt -0.010148 0.039216
vt -0.017577 0.026216
vt 0.017577 0.026216
vt 0.091332 0.025370
vt 0.080929 0.017812
vt 0.095305 0.013141
vt 0.080929 0.032928
vt 0.104190 0.025370
vt 0.095305 0.037599
vt -0.550954 0.017812
vt -0.550954 0.032928
vt -0.565325 0.025370
vt -0.095305 -0.550954
vt -0.080929 -0.550954
vt -0.087358 -0.565325
vt 0.550954 0.025370
vt 0.550954 0.013141
vt 0.565325 0.017812
vt 0.550954 0.037599
vt 0.565325 0.032928
vt -0.080929 0.550954
vt -0.095305 0.550954
vt -0.087358 0.565325
vt -0.565325 0.013141
vt -0.101735 -0.565325
vt -0.101735 0.565325
vt -0.565325 0.037599
vt -0.087358 0.013141
vt -0.078473 0.025370
vt -0.091332 0.025370
vt -0.101735 0.017812
vt -0.101735 0.032928
vt -0.087358 0.037599
vt 0.087358 -0.550954
vt 0.101735 -0.550954
vt 0.095305 -0.565325
vt 0.101735 0.550954
vt 0.087358 0.550954
vt 0.095305 0.565325
vt 0.080929 -0.565325
vt 0.080929 0.565325
vt 0.014647 0.887949
vt -0.014647 0.887949
vt 0.887949 -0.014647
vt -0.887949 -0.014647
vt 0.000000 0.689218
vt 0.000000 0.104863
vt -0.038083 -0.689218
vt 0.038083 -0.689218
vt 0.473573 -0.077510
vt -0.473573 -0.077510
vt 0.752643 0.026216
vt 0.010148 -0.752643
vt -0.010148 -0.752643
vt -0.752643 0.026216
vt -0.010148 0.752643
vt 0.010148 0.752643
vt 0.016913 0.000000
vt 0.014647 0.009302
vt -0.016913 0.000000
vt 0.008457 0.016112
vt -0.014647 0.009302
vt 0.000000 0.018605
vt -0.008457 0.016112
vt -0.008457 -0.014647
vt 0.008457 -0.014647
vt -0.020296 0.008457
vt -0.017577 -0.005074
vt 0.020296 0.008457
vt -0.010148 -0.014979
vt 0.010148 -0.014979
vt 0.000000 -0.018605
vt 0.017577 -0.005074
vt 0.010148 0.039216
vt -0.000000 0.043975
s 1
f 1/1/1 14/2/14 2/3/2
f 2/3/2 15/4/15 3/5/3
f 3/6/3 16/7/16 4/8/4
f 16/7/16 5/9/5 4/8/4
f 17/10/17 6/11/6 5/12/5
f 18/13/18 7/14/7 6/11/6
f 19/15/19 8/16/8 7/14/7
f 20/17/20 9/18/9 8/19/8
f 21/20/21 10/21/10 9/18/9
f 10/21/10 23/22/23 11/23/11
f 11/23/11 24/24/24 12/25/12
f 12/26/12 13/27/13 1/1/1
f 25/28/25 14/2/14 13/27/13
f 26/29/26 15/30/15 14/31/14
f 27/32/27 16/7/16 15/30/15
f 16/7/16 29/33/29 17/34/17
f 17/34/17 30/35/30 18/36/18
f 18/13/18 31/37/31 19/15/19
f 19/15/19 32/38/32 20/39/20
f 20/39/20 33/40/33 21/41/21
f 21/20/21 34/42/34 22/43/22
f 34/42/34 23/22/23 22/43/22
f 35/44/35 24/45/24 23/46/23
f 36/47/36 13/27/13 24/45/24
f 37/48/37 26/49/26 25/28/25
f 38/50/38 27/51/27 26/52/26
f 39/53/39 28/54/28 27/51/27
f 28/54/28 41/55/41 29/56/29
f 29/56/29 42/57/42 30/58/30
f 30/59/30 43/60/43 31/37/31
f 31/37/31 44/61/44 32/38/32
f 32/38/32 45/62/45 33/40/33
f 33/63/33 46/64/46 34/42/34
f 46/64/46 35/65/35 34/42/34
f 47/66/47 36/47/36 35/44/35
f 48/67/48 25/28/25 36/47/36
f 49/68/49 38/69/38 37/48/37
f 50/70/50 39/71/39 38/69/38
f 51/72/51 40/73/40 39/74/39
f 40/73/40 53/75/53 41/76/41
f 41/77/41 54/78/54 42/79/42
f 42/79/42 55/80/55 43/60/43
f 43/60/43 56/81/56 44/61/44
f 44/82/44 57/83/57 45/84/45
f 45/84/45 58/85/58 46/64/46
f 58/85/58 47/86/47 46/64/46
f 59/87/59 48/88/48 47/86/47
f 60/89/60 37/48/37 48/67/48
f 49/68/49 62/90/62 50/70/50
f 50/70/50 63/91/63 51/92/51
f 51/72/51 64/93/64 52/94/52
f 64/93/64 53/75/53 52/94/52
f 65/95/65 54/78/54 53/96/53
f 66/97/66 55/80/55 54/78/54
f 67/98/67 56/81/56 55/80/55
f 68/99/68 57/83/57 56/100/56
f 69/101/69 58/85/58 57/83/57
f 58/85/58 71/102/71 59/87/59
f 59/87/59 72/103/72 60/104/60
f 60/89/60 61/105/61 49/68/49
f 61/105/61 74/106/74 62/90/62
f 62/90/62 75/107/75 63/91/63
f 63/108/63 76/109/76 64/93/64
f 76/109/76 65/110/65 64/93/64
f 77/111/77 66/97/66 65/95/65
f 78/112/78 67/98/67 66/97/66
f 79/113/79 68/114/68 67/98/67
f 80/115/80 69/101/69 68/99/68
f 81/116/81 70/117/70 69/101/69
f 70/117/70 83/118/83 71/102/71
f 71/102/71 84/119/84 72/103/72
f 72/120/72 73/121/73 61/105/61
f 73/121/73 86/122/86 74/106/74
f 74/106/74 87/123/87 75/107/75
f 75/124/75 88/125/88 76/109/76
f 88/125/88 77/126/77 76/109/76
f 89/127/89 78/112/78 77/111/77
f 90/128/90 79/113/79 78/112/78
f 91/129/91 80/130/80 79/113/79
f 92/131/92 81/132/81 80/130/80
f 93/133/93 82/134/82 81/116/81
f 82/134/82 95/135/95 83/118/83
f 83/136/83 96/137/96 84/138/84
f 84/138/84 85/139/85 73/121/73
f 85/139/85 98/140/98 86/122/86
f 86/122/86 99/141/99 87/123/87
f 87/142/87 100/143/100 88/125/88
f 100/143/100 89/144/89 88/125/88
f 101/145/101 90/128/90 89/127/89
f 102/146/102 91/129/91 90/128/90
f 91/129/91 104/147/104 92/131/92
f 92/131/92 105/148/105 93/149/93
f 93/133/93 106/150/106 94/151/94
f 106/150/106 95/135/95 94/151/94
f 107/152/107 96/137/96 95/153/95
f 108/154/108 85/139/85 96/137/96
f 97/155/97 110/156/110 98/140/98
f 98/140/98 111/157/111 99/141/99
f 99/158/99 112/159/112 100/143/100
f 112/159/112 101/160/101 100/143/100
f 113/161/113 102/146/102 101/145/101
f 114/162/114 103/163/103 102/146/102
f 103/163/103 116/164/116 104/147/104
f 104/147/104 117/165/117 105/148/105
f 105/166/105 118/167/118 106/150/106
f 118/167/118 107/168/107 106/150/106
f 119/169/119 108/154/108 107/152/107
f 120/170/120 97/155/97 108/154/108
f 109/171/109 122/172/122 110/156/110
f 110/156/110 123/173/123 111/157/111
f 111/174/111 124/175/124 112/159/112
f 124/175/124 113/176/113 112/159/112
f 125/177/125 114/162/114 113/161/113
f 126/178/126 115/179/115 114/162/114
f 115/179/115 128/180/128 116/164/116
f 116/164/116 129/181/129 117/165/117
f 117/182/117 130/183/130 118/167/118
f 130/183/130 119/184/119 118/167/118
f 131/185/131 120/170/120 119/169/119
f 132/186/132 109/171/109 120/170/120
f 133/187/133 122/172/122 121/188/121
f 134/189/134 123/173/123 122/172/122
f 123/190/123 136/191/136 124/175/124
f 136/191/136 125/192/125 124/175/124
f 125/177/125 138/193/138 126/178/126
f 126/178/126 139/194/139 127/195/127
f 127/195/127 140/196/140 128/180/128
f 128/180/128 141/197/141 129/181/129
f 129/198/129 142/199/142 130/183/130
f 142/199/142 131/200/131 130/183/130
f 143/201/143 132/186/132 131/185/131
f 144/202/144 121/188/121 132/186/132
f 145/203/145 134/189/134 133/187/133
f 134/189/134 147/204/147 135/205/135
f 135/206/135 148/207/148 136/191/136
f 148/207/148 137/208/137 136/191/136
f 149/209/149 138/193/138 137/210/137
f 138/193/138 151/211/151 139/194/139
f 139/194/139 152/212/152 140/196/140
f 140/196/140 153/213/153 141/197/141
f 141/214/141 154/215/154 142/199/142
f 154/215/154 143/216/143 142/199/142
f 155/217/155 144/202/144 143/201/143
f 156/218/156 133/187/133 144/202/144
f 8/219/8 10/220/10 12/221/12
f 147/222/147 146/223/146 150/224/150
f 157/225/157 158/226/158 159/227/159
f 158/226/158 157/225/157 162/228/162
f 157/225/157 159/227/159 160/229/160
f 157/225/157 160/229/160 161/230/161
f 157/225/157 161/230/161 162/228/162
f 158/231/158 162/232/162 167/233/167
f 159/234/159 158/235/158 163/236/163
f 160/237/160 159/238/159 164/239/164
f 161/240/161 160/237/160 165/241/165
f 162/242/162 161/243/161 166/244/166
f 158/231/158 167/233/167 163/245/163
f 159/234/159 163/236/163 164/246/164
f 160/237/160 164/239/164 165/241/165
f 161/243/161 165/247/165 166/244/166
f 162/232/162 166/248/166 167/233/167
f 163/249/163 167/250/167 168/251/168
f 164/252/164 163/249/163 168/251/168
f 165/253/165 164/252/164 168/251/168
f 166/254/166 165/253/165 168/251/168
f 167/250/167 166/254/166 168/251/168
f 169/251/157 170/252/158 171/249/159
f 170/252/158 169/251/157 174/253/162
f 169/251/157 171/249/159 172/250/160
f 169/251/157 172/250/160 173/254/161
f 169/251/157 173/254/161 174/253/162
f 170/231/158 174/232/162 179/233/167
f 171/255/159 170/256/158 175/257/163
f 172/237/160 171/238/159 176/239/164
f 173/240/161 172/237/160 177/241/165
f 174/258/162 173/259/161 178/260/166
f 170/231/158 179/233/167 175/245/163
f 171/255/159 175/257/163 176/261/164
f 172/237/160 176/239/164 177/241/165
f 173/259/161 177/262/165 178/260/166
f 174/232/162 178/248/166 179/233/167
f 175/227/163 179/229/167 180/225/168
f 176/226/164 175/227/163 180/225/168
f 177/228/165 176/226/164 180/225/168
f 178/230/166 177/228/165 180/225/168
f 179/229/167 178/230/166 180/225/168
f 1/1/1 13/27/13 14/2/14
f 2/263/2 14/31/14 15/30/15
f 3/6/3 15/30/15 16/7/16
f 16/7/16 17/34/17 5/9/5
f 17/34/17 18/36/18 6/264/6
f 18/13/18 19/15/19 7/14/7
f 19/15/19 20/39/20 8/16/8
f 20/39/20 21/41/21 9/265/9
f 21/20/21 22/43/22 10/21/10
f 10/21/10 22/43/22 23/22/23
f 11/266/11 23/46/23 24/45/24
f 12/26/12 24/45/24 13/27/13
f 25/28/25 26/49/26 14/2/14
f 26/29/26 27/32/27 15/30/15
f 27/32/27 28/267/28 16/7/16
f 16/7/16 28/267/28 29/33/29
f 17/34/17 29/33/29 30/35/30
f 18/13/18 30/59/30 31/37/31
f 19/15/19 31/37/31 32/38/32
f 20/39/20 32/38/32 33/40/33
f 21/20/21 33/63/33 34/42/34
f 34/42/34 35/65/35 23/22/23
f 35/44/35 36/47/36 24/45/24
f 36/47/36 25/28/25 13/27/13
f 37/48/37 38/69/38 26/49/26
f 38/50/38 39/53/39 27/51/27
f 39/53/39 40/268/40 28/54/28
f 28/54/28 40/268/40 41/55/41
f 29/56/29 41/55/41 42/57/42
f 30/59/30 42/79/42 43/60/43
f 31/37/31 43/60/43 44/61/44
f 32/269/32 44/82/44 45/84/45
f 33/63/33 45/84/45 46/64/46
f 46/64/46 47/86/47 35/65/35
f 47/86/47 48/88/48 36/270/36
f 48/67/48 37/48/37 25/28/25
f 49/68/49 50/70/50 38/69/38
f 50/70/50 51/92/51 39/71/39
f 51/72/51 52/94/52 40/73/40
f 40/73/40 52/94/52 53/75/53
f 41/77/41 53/96/53 54/78/54
f 42/79/42 54/78/54 55/80/55
f 43/60/43 55/80/55 56/81/56
f 44/82/44 56/100/56 57/83/57
f 45/84/45 57/83/57 58/85/58
f 58/85/58 59/87/59 47/86/47
f 59/87/59 60/104/60 48/88/48
f 60/89/60 49/68/49 37/48/37
f 49/68/49 61/105/61 62/90/62
f 50/70/50 62/90/62 63/91/63
f 51/72/51 63/108/63 64/93/64
f 64/93/64 65/110/65 53/75/53
f 65/95/65 66/97/66 54/78/54
f 66/97/66 67/98/67 55/80/55
f 67/98/67 68/114/68 56/81/56
f 68/99/68 69/101/69 57/83/57
f 69/101/69 70/117/70 58/85/58
f 58/85/58 70/117/70 71/102/71
f 59/87/59 71/102/71 72/103/72
f 60/89/60 72/120/72 61/105/61
f 61/105/61 73/121/73 74/106/74
f 62/90/62 74/106/74 75/107/75
f 63/108/63 75/124/75 76/109/76
f 76/109/76 77/126/77 65/110/65
f 77/111/77 78/112/78 66/97/66
f 78/112/78 79/113/79 67/98/67
f 79/113/79 80/130/80 68/114/68
f 80/130/80 81/132/81 69/271/69
f 81/116/81 82/134/82 70/117/70
f 70/117/70 82/134/82 83/118/83
f 71/272/71 83/136/83 84/138/84
f 72/120/72 84/138/84 73/121/73
f 73/121/73 85/139/85 86/122/86
f 74/106/74 86/122/86 87/123/87
f 75/124/75 87/142/87 88/125/88
f 88/125/88 89/144/89 77/126/77
f 89/127/89 90/128/90 78/112/78
f 90/128/90 91/129/91 79/113/79
f 91/129/91 92/131/92 80/130/80
f 92/131/92 93/149/93 81/132/81
f 93/133/93 94/151/94 82/134/82
f 82/134/82 94/151/94 95/135/95
f 83/136/83 95/153/95 96/137/96
f 84/138/84 96/137/96 85/139/85
f 85/139/85 97/155/97 98/140/98
f 86/122/86 98/140/98 99/141/99
f 87/142/87 99/158/99 100/143/100
f 100/143/100 101/160/101 89/144/89
f 101/145/101 102/146/102 90/128/90
f 102/146/102 103/163/103 91/129/91
f 91/129/91 103/163/103 104/147/104
f 92/131/92 104/147/104 105/148/105
f 93/133/93 105/166/105 106/150/106
f 106/150/106 107/168/107 95/135/95
f 107/152/107 108/154/108 96/137/96
f 108/154/108 97/155/97 85/139/85
f 97/155/97 109/171/109 110/156/110
f 98/140/98 110/156/110 111/157/111
f 99/158/99 111/174/111 112/159/112
f 112/159/112 113/176/113 101/160/101
f 113/161/113 114/162/114 102/146/102
f 114/162/114 115/179/115 103/163/103
f 103/163/103 115/179/115 116/164/116
f 104/147/104 116/164/116 117/165/117
f 105/166/105 117/182/117 118/167/118
f 118/167/118 119/184/119 107/168/107
f 119/169/119 120/170/120 108/154/108
f 120/170/120 109/171/109 97/155/97
f 109/171/109 121/188/121 122/172/122
f 110/156/110 122/172/122 123/173/123
f 111/174/111 123/190/123 124/175/124
f 124/175/124 125/192/125 113/176/113
f 125/177/125 126/178/126 114/162/114
f 126/178/126 127/195/127 115/179/115
f 115/179/115 127/195/127 128/180/128
f 116/164/116 128/180/128 129/181/129
f 117/182/117 129/198/129 130/183/130
f 130/183/130 131/200/131 119/184/119
f 131/185/131 132/186/132 120/170/120
f 132/186/132 121/188/121 109/171/109
f 133/187/133 134/189/134 122/172/122
f 134/189/134 135/205/135 123/173/123
f 123/190/123 135/206/135 136/191/136
f 136/191/136 137/208/137 125/192/125
f 125/177/125 137/210/137 138/193/138
f 126/178/126 138/193/138 139/194/139
f 127/195/127 139/194/139 140/196/140
f 128/180/128 140/196/140 141/197/141
f 129/198/129 141/214/141 142/199/142
f 142/199/142 143/216/143 131/200/131
f 143/201/143 144/202/144 132/186/132
f 144/202/144 133/187/133 121/188/121
f 145/203/145 146/273/146 134/189/134
f 134/189/134 146/273/146 147/204/147
f 135/206/135 147/274/147 148/207/148
f 148/207/148 149/275/149 137/208/137
f 149/209/149 150/276/150 138/193/138
f 138/193/138 150/276/150 151/211/151
f 139/194/139 151/211/151 152/212/152
f 140/196/140 152/212/152 153/213/153
f 141/214/141 153/277/153 154/215/154
f 154/215/154 155/278/155 143/216/143
f 155/217/155 156/218/156 144/202/144
f 156/218/156 145/203/145 133/187/133
f 12/221/12 1/279/1 8/219/8
f 1/279/1 2/280/2 7/281/7
f 8/219/8 1/279/1 7/281/7
f 2/280/2 3/282/3 6/283/6
f 3/282/3 4/284/4 5/285/5
f 6/283/6 3/282/3 5/285/5
f 6/283/6 7/281/7 2/280/2
f 8/219/8 9/286/9 10/220/10
f 10/220/10 11/287/11 12/221/12
f 146/223/146 145/288/145 150/224/150
f 145/288/145 156/289/156 151/290/151
f 150/224/150 145/288/145 151/290/151
f 156/289/156 155/291/155 153/292/153
f 155/291/155 154/293/154 153/292/153
f 153/292/153 152/294/152 156/289/156
f 152/294/152 151/290/151 156/289/156
f 150/224/150 149/295/149 147/222/147
f 149/295/149 148/296/148 147/222/147
o fin
usemtl fin
v -0.014326 0.489367 0.240465
v -0.014326 0.673553 0.148372
v -0.014326 0.775878 -0.005116
v -0.014326 0.755413 -0.127907
v -0.014326 0.642855 -0.035814
v -0.014326 0.520064 -0.005116
v 0.014326 0.489367 0.240465
v 0.014326 0.673553 0.148372
v 0.014326 0.775878 -0.005116
v 0.014326 0.755413 -0.127907
v 0.014326 0.642855 -0.035814
v 0.014326 0.520064 -0.005116
v 0.077428 0.225948 0.441556
v 0.098746 0.188290 0.484743
v 0.131773 0.150632 0.510570
v 0.175686 0.112974 0.520260
v 0.230156 0.075316 0.514298
v 0.294790 0.037658 0.493266
v 0.371322 0.000000 0.454595
v 0.383165 0.000000 0.437037
v 0.350160 0.037658 0.411176
v 0.311597 0.075316 0.393556
v 0.269226 0.112974 0.381582
v 0.223147 0.150632 0.375103
v 0.173775 0.188290 0.373507
v 0.122047 0.225948 0.375405
v 0.088780 0.241157 0.449214
v 0.110099 0.203499 0.492400
v 0.143126 0.165841 0.518228
v 0.187039 0.128183 0.527917
v 0.241508 0.090525 0.521955
v 0.306143 0.052867 0.500924
v 0.382675 0.015209 0.462252
v 0.394518 0.015209 0.444695
v 0.361513 0.052867 0.418834
v 0.322950 0.090525 0.401213
v 0.280578 0.128183 0.389239
v 0.234500 0.165841 0.382760
v 0.185128 0.203499 0.381165
v 0.133400 0.241157 0.383062
v -0.077428 0.225948 0.441556
v -0.098746 0.188290 0.484743
v -0.131773 0.150632 0.510570
v -0.175686 0.112974 0.520260
v -0.230156 0.075316 0.514298
v -0.294790 0.037658 0.493266
v -0.371322 0.000000 0.454595
v -0.383165 0.000000 0.437037
v -0.350160 0.037658 0.411176
v -0.311597 0.075316 0.393556
v -0.269226 0.112974 0.381582
v -0.223147 0.150632 0.375103
v -0.173775 0.188290 0.373507
v -0.122047 0.225948 0.375405
v -0.088780 0.241157 0.449214
v -0.110099 0.203499 0.492400
v -0.143126 0.165841 0.518228
v -0.187039 0.128183 0.527917
v -0.241508 0.090525 0.521955
v -0.306143 0.052867 0.500924
v -0.382675 0.015209 0.462252
v -0.394518 0.015209 0.444695
v -0.361513 0.052867 0.418834
v -0.322950 0.090525 0.401213
v -0.280578 0.128183 0.389239
v -0.234500 0.165841 0.382760
v -0.185128 0.203499 0.381165
v -0.133400 0.241157 0.383062
v 0.000000 0.321553 -0.782791
v 0.068558 0.321553 -0.812548
v 0.137116 0.321553 -0.864091
v 0.205674 0.321553 -0.929151
v 0.274233 0.321553 -1.004910
v 0.342791 0.321552 -1.089767
v 0.332558 0.321552 -1.100000
v 0.249419 0.321553 -1.043925
v 0.166279 0.321553 -1.005693
v 0.083140 0.321553 -0.972176
v 0.000000 0.321553 -0.920930
v -0.083140 0.321553 -0.972176
v -0.166279 0.321553 -1.005693
v -0.249419 0.321553 -1.043925
v -0.332558 0.321552 -1.100000
v -0.342791 0.321552 -1.089767
v -0.274233 0.321553 -1.004910
v -0.205674 0.321553 -0.929151
v -0.137116 0.321553 -0.864091
v -0.068558 0.321553 -0.812548
v 0.000000 0.350204 -0.782791
v 0.068558 0.350204 -0.812548
v 0.137116 0.350204 -0.864091
v 0.205674 0.350204 -0.929151
v 0.274233 0.350204 -1.004910
v 0.342791 0.350204 -1.089767
v 0.332558 0.350204 -1.100000
v 0.249419 0.350204 -1.043925
v 0.166279 0.350204 -1.005693
v 0.083140 0.350204 -0.972176
v 0.000000 0.350204 -0.920930
v -0.083140 0.350204 -0.972176
v -0.166279 0.350204 -1.005693
v -0.249419 0.350204 -1.043925
v -0.332558 0.350204 -1.100000
v -0.342791 0.350204 -1.089767
v -0.274233 0.350204 -1.004910
v -0.205674 0.350204 -0.929151
v -0.137116 0.350204 -0.864091
v -0.068558 0.350204 -0.812548
vn -0.5526 -0.4814 0.6804
vn -0.6536 0.5009 0.5674
vn -0.6329 0.7570 0.1625
vn -0.5548 0.2930 -0.7787
vn -0.7598 -0.2918 -0.5810
vn -0.5993 -0.5991 -0.5309
vn 0.5526 -0.4814 0.6804
vn 0.6536 0.5009 0.5674
vn 0.6329 0.7570 0.1625
vn 0.5548 0.2931 -0.7787
vn 0.7598 -0.2918 -0.5810
vn 0.5993 -0.5991 -0.5309
vn -0.9907 -0.0012 -0.1363
vn -0.8790 -0.3863 0.2796
vn -0.7309 -0.5565 0.3951
vn -0.5645 -0.7057 0.4281
vn -0.4261 -0.8085 0.4058
vn -0.3181 -0.8743 0.3667
vn -0.0442 -0.9638 0.2631
vn 0.3557 -0.8266 -0.4361
vn 0.0084 -0.4942 -0.8693
vn -0.0692 -0.4290 -0.9007
vn -0.1292 -0.3773 -0.9170
vn -0.1852 -0.3347 -0.9239
vn -0.2300 -0.3056 -0.9239
vn -0.5304 0.0045 -0.8477
vn -0.3234 0.8927 0.3138
vn -0.1356 0.6096 0.7810
vn 0.0138 0.4410 0.8974
vn 0.1871 0.3012 0.9350
vn 0.3343 0.2101 0.9187
vn 0.4463 0.1498 0.8823
vn 0.6684 -0.0092 0.7437
vn 0.9994 0.0357 -0.0020
vn 0.7716 0.5282 -0.3546
vn 0.7010 0.6028 -0.3811
vn 0.6421 0.6559 -0.3968
vn 0.5883 0.7015 -0.4022
vn 0.5471 0.7354 -0.3998
vn 0.1442 0.9083 -0.3927
vn 0.9907 -0.0012 -0.1363
vn 0.8790 -0.3863 0.2796
vn 0.7309 -0.5565 0.3951
vn 0.5645 -0.7057 0.4281
vn 0.4261 -0.8085 0.4058
vn 0.3181 -0.8743 0.3667
vn 0.0442 -0.9638 0.2631
vn -0.3557 -0.8266 -0.4361
vn -0.0084 -0.4942 -0.8693
vn 0.0692 -0.4290 -0.9007
vn 0.1292 -0.3773 -0.9170
vn 0.1852 -0.3347 -0.9239
vn 0.2300 -0.3056 -0.9239
vn 0.5304 0.0045 -0.8477
vn 0.3234 0.8927 0.3138
vn 0.1356 0.6096 0.7810
vn -0.0137 0.4410 0.8974
vn -0.1871 0.3012 0.9350
vn -0.3343 0.2101 0.9187
vn -0.4463 0.1498 0.8823
vn -0.6684 -0.0092 0.7437
vn -0.9994 0.0357 -0.0020
vn -0.7716 0.5282 -0.3545
vn -0.7010 0.6028 -0.3812
vn -0.6421 0.6559 -0.3968
vn -0.5883 0.7015 -0.4022
vn -0.5471 0.7354 -0.3998
vn -0.1442 0.9083 -0.3927
vn -0.0000 -0.6275 0.7786
vn 0.3680 -0.6816 0.6324
vn 0.4646 -0.6945 0.5494
vn 0.5119 -0.6987 0.4999
vn 0.5421 -0.7009 0.4636
vn 0.8113 -0.5831 -0.0430
vn 0.0775 -0.5881 -0.8050
vn -0.3371 -0.7258 -0.5996
vn -0.2778 -0.7125 -0.6443
vn -0.3270 -0.6886 -0.6472
vn -0.0000 -0.8462 -0.5329
vn 0.3270 -0.6886 -0.6472
vn 0.2778 -0.7125 -0.6443
vn 0.3371 -0.7258 -0.5996
vn -0.0775 -0.5881 -0.8050
vn -0.8113 -0.5831 -0.0430
vn -0.5421 -0.7009 0.4636
vn -0.5119 -0.6987 0.4999
vn -0.4646 -0.6945 0.5494
vn -0.3680 -0.6817 0.6324
vn -0.0000 0.6275 0.7786
vn 0.3680 0.6817 0.6324
vn 0.4646 0.6945 0.5494
vn 0.5119 0.6987 0.4999
vn 0.5421 0.7009 0.4636
vn 0.8113 0.5831 -0.0430
vn 0.0775 0.5881 -0.8050
vn -0.3371 0.7258 -0.5996
vn -0.2778 0.7125 -0.6443
vn -0.3270 0.6886 -0.6472
vn -0.0000 0.8462 -0.5329
vn 0.3270 0.6886 -0.6472
vn 0.2778 0.7125 -0.6443
vn 0.3371 0.7258 -0.5996
vn -0.0775 0.5881 -0.8050
vn -0.8113 0.5831 -0.0430
vn -0.5421 0.7009 0.4636
vn -0.5119 0.6987 0.4999
vn -0.4646 0.6945 0.5494
vn -0.3680 0.6817 0.6324
vt -0.069767 0.348837
vt -0.034884 0.209302
vt 0.139535 0.383721
vt 0.034884 0.500000
vt -0.139535 0.383721
vt 0.069767 0.348837
vt 0.016279 0.174419
vt -0.016279 0.383721
vt -0.016279 0.174419
vt 0.016279 0.139535
vt -0.016279 -0.034884
vt -0.016279 0.139535
vt 0.016279 -0.034884
vt -0.016279 -0.174419
vt -0.016279 0.476744
vt 0.016279 0.348837
vt 0.016279 0.476744
vt -0.016279 0.348837
vt 0.016279 0.209302
vt 0.016279 0.034884
vt -0.016279 -0.244186
vt -0.016279 0.034884
vt 0.199643 -0.562134
vt 0.149742 -0.551124
vt 0.253576 -0.397184
vt 0.266477 0.405885
vt 0.210373 0.404072
vt 0.162643 0.559826
vt 0.521774 -0.167714
vt 0.481400 -0.107638
vt 0.472699 -0.124920
vt 0.112211 -0.167714
vt 0.162643 -0.193224
vt 0.125112 -0.150431
vt 0.199643 -0.253300
vt 0.149742 -0.210507
vt 0.261541 -0.296093
vt 0.212544 -0.236018
vt 0.334989 -0.338886
vt 0.274441 -0.278811
vt 0.421957 -0.381680
vt 0.347889 -0.321604
vt 0.435415 -0.467563
vt 0.434858 -0.496217
vt 0.421957 -0.487515
vt -0.397909 -0.338886
vt -0.448316 -0.364397
vt -0.435415 -0.381680
vt -0.366989 -0.278811
vt -0.410810 -0.321604
vt -0.305938 -0.253300
vt -0.354088 -0.296093
vt -0.253576 -0.210507
vt -0.318839 -0.236018
vt -0.210373 -0.150431
vt -0.266477 -0.193224
vt -0.197472 -0.167714
vt -0.151591 -0.107638
vt 0.138690 0.397527
vt 0.100887 0.481400
vt 0.151591 0.406228
vt -0.197472 -0.395370
vt -0.138690 -0.397527
vt -0.112211 -0.521774
vt -0.162643 0.559826
vt -0.125112 0.530476
vt -0.210373 0.404072
vt -0.481400 -0.107638
vt -0.521774 -0.167714
vt -0.472699 -0.124920
vt -0.125112 -0.150431
vt -0.149742 -0.210507
vt -0.112211 -0.167714
vt -0.162643 -0.193224
vt -0.199643 -0.253300
vt -0.212544 -0.236018
vt -0.261541 -0.296093
vt -0.274441 -0.278811
vt -0.334989 -0.338886
vt -0.347889 -0.321604
vt -0.421957 -0.381680
vt -0.434858 -0.496217
vt -0.435415 -0.467563
vt -0.421957 -0.487515
vt 0.435415 -0.381680
vt 0.410810 -0.321604
vt 0.397909 -0.338886
vt 0.354088 -0.296093
vt 0.366989 -0.278811
vt 0.305938 -0.253300
vt 0.318839 -0.236018
vt 0.253576 -0.210507
vt 0.266477 -0.193224
vt 0.197472 -0.167714
vt 0.210373 -0.150431
vt 0.138690 -0.124920
vt -0.138690 0.397527
vt -0.100887 0.481400
vt -0.087986 0.472699
vt 0.389535 1.267442
vt 0.311628 1.171013
vt 0.283430 1.215348
vt 0.311628 -1.171013
vt 0.283430 -1.215348
vt 0.188954 -1.171903
vt 0.000000 -0.016279
vt 0.077907 0.016279
vt 0.000000 0.016279
vt 0.155814 -0.016279
vt 0.077907 -0.016279
vt 0.233721 -0.016279
vt 0.155814 0.016279
vt 1.171013 -0.016279
vt 1.084924 0.016279
vt 1.084924 -0.016279
vt 1.267442 -0.016279
vt 1.171013 0.016279
vt -0.377907 -0.016279
vt -0.389535 0.016279
vt -0.389535 -0.016279
vt -0.283430 -0.016279
vt -0.377907 0.016279
vt -0.188954 -0.016279
vt -0.283430 0.016279
vt -0.094477 -0.016279
vt -0.188954 0.016279
vt -0.000000 -0.016279
vt -0.094477 0.016279
vt 0.094477 -0.016279
vt -0.000000 0.016279
vt 0.188954 -0.016279
vt 0.094477 0.016279
vt 0.283430 -0.016279
vt 0.188954 0.016279
vt 0.377907 0.016279
vt 0.283430 0.016279
vt 0.389535 -0.016279
vt 0.377907 -0.016279
vt -1.171013 -0.016279
vt -1.267442 0.016279
vt -1.267442 -0.016279
vt -1.084924 -0.016279
vt -1.171013 0.016279
vt -0.155814 -0.016279
vt -0.233721 0.016279
vt -0.233721 -0.016279
vt -0.077907 -0.016279
vt -0.155814 0.016279
vt -0.077907 0.016279
vt 0.244186 0.174419
vt -0.034884 0.500000
vt -0.174419 0.476744
vt -0.244186 0.174419
vt 0.034884 0.209302
vt 0.174419 0.476744
vt 0.016279 0.383721
vt 0.016279 -0.174419
vt -0.016279 0.209302
vt 0.016279 -0.244186
vt 0.112211 -0.521774
vt 0.087986 -0.472699
vt 0.138690 -0.397527
vt 0.197472 -0.395370
vt 0.305938 -0.404546
vt 0.261541 -0.555360
vt 0.354088 -0.418153
vt 0.334989 -0.531460
vt 0.397909 -0.438176
vt 0.125112 0.530476
vt 0.212544 0.570836
vt 0.274441 0.564061
vt 0.318839 0.413247
vt 0.347889 0.540162
vt 0.434858 0.496217
vt 0.410810 0.446878
vt 0.366989 0.426854
vt 0.448316 0.476265
vt 0.530476 -0.150431
vt 0.434858 -0.364397
vt 0.448316 -0.476265
vt -0.138690 -0.124920
vt 0.087986 0.472699
vt -0.087986 -0.472699
vt -0.149742 -0.551124
vt -0.199643 -0.562134
vt -0.253576 -0.397184
vt -0.261541 -0.555360
vt -0.334989 -0.531460
vt -0.305938 -0.404546
vt -0.397909 -0.438176
vt -0.354088 -0.418153
vt -0.151591 0.406228
vt -0.266477 0.405885
vt -0.318839 0.413247
vt -0.274441 0.564061
vt -0.212544 0.570836
vt -0.366989 0.426854
vt -0.347889 0.540162
vt -0.410810 0.446878
vt -0.448316 0.476265
vt -0.434858 0.496217
vt -0.530476 -0.150431
vt -0.434858 -0.364397
vt -0.448316 -0.476265
vt 0.448316 -0.364397
vt 0.151591 -0.107638
vt 0.077907 0.952420
vt 0.000000 0.918605
vt 0.000000 1.075581
vt -0.077907 0.952420
vt -0.155814 1.010992
vt -0.233721 1.084924
vt -0.094477 1.133816
vt -0.311628 1.171013
vt -0.188954 1.171903
vt -0.389535 1.267442
vt -0.283430 1.215348
vt -0.377907 1.279070
vt 0.094477 1.133816
vt 0.155814 1.010992
vt 0.188954 1.171903
vt 0.233721 1.084924
vt 0.377907 1.279070
vt -0.155814 -1.010992
vt -0.077907 -0.952420
vt 0.000000 -1.075581
vt 0.000000 -0.918605
vt 0.077907 -0.952420
vt 0.155814 -1.010992
vt 0.233721 -1.084924
vt 0.094477 -1.133816
vt 0.389535 -1.267442
vt 0.377907 -1.279070
vt -0.233721 -1.084924
vt -0.094477 -1.133816
vt -0.389535 -1.267442
vt -0.311628 -1.171013
vt -0.283430 -1.215348
vt -0.188954 -1.171903
vt -0.377907 -1.279070
vt 0.233721 0.016279
vt 1.267442 0.016279
vt 0.389535 0.016279
vt -1.084924 0.016279
s 1
f 185/297/173 186/298/174 182/299/170
f 189/300/177 188/301/176 191/302/179
f 187/303/175 182/304/170 181/305/169
f 188/306/176 183/307/171 182/308/170
f 189/309/177 184/310/172 183/307/171
f 190/311/178 185/312/173 184/313/172
f 191/314/179 186/315/174 185/312/173
f 192/316/180 181/317/169 186/318/174
f 196/319/184 195/320/183 204/321/192
f 218/322/206 219/323/207 209/324/197
f 194/325/182 207/326/195 193/327/181
f 194/328/182 209/329/197 208/330/196
f 196/331/184 209/329/197 195/332/183
f 197/333/185 210/334/198 196/331/184
f 198/335/186 211/336/199 197/333/185
f 199/337/187 212/338/200 198/335/186
f 200/339/188 213/340/201 199/341/187
f 201/342/189 214/343/202 200/344/188
f 201/342/189 216/345/204 215/346/203
f 203/347/191 216/345/204 202/348/190
f 204/349/192 217/350/205 203/347/191
f 204/349/192 219/351/207 218/352/206
f 205/353/193 220/354/208 219/351/207
f 206/355/194 207/356/195 220/357/208
f 233/358/221 234/359/222 222/360/210
f 237/361/225 236/362/224 247/363/235
f 235/364/223 222/365/210 221/366/209
f 236/367/224 223/368/211 222/369/210
f 237/370/225 224/371/212 223/368/211
f 238/372/226 225/373/213 224/371/212
f 239/374/227 226/375/214 225/373/213
f 240/376/228 227/377/215 226/375/214
f 241/378/229 228/379/216 227/380/215
f 228/381/216 243/382/231 229/383/217
f 243/382/231 230/384/218 229/383/217
f 244/385/232 231/386/219 230/384/218
f 245/387/233 232/388/220 231/386/219
f 246/389/234 233/390/221 232/388/220
f 247/391/235 234/392/222 233/390/221
f 234/393/222 235/394/223 221/395/209
f 254/396/242 253/397/241 256/398/244
f 273/399/261 276/400/264 277/401/265
f 249/402/237 270/403/258 269/404/257
f 251/405/239 270/403/258 250/406/238
f 252/407/240 271/408/259 251/405/239
f 253/409/241 272/410/260 252/411/240
f 254/412/242 273/413/261 253/409/241
f 255/414/243 274/415/262 254/416/242
f 256/417/244 275/418/263 255/414/243
f 257/419/245 276/420/264 256/417/244
f 258/421/246 277/422/265 257/419/245
f 259/423/247 278/424/266 258/421/246
f 260/425/248 279/426/267 259/423/247
f 261/427/249 280/428/268 260/425/248
f 262/429/250 281/430/269 261/427/249
f 262/429/250 283/431/271 282/432/270
f 264/433/252 283/431/271 263/434/251
f 265/435/253 284/436/272 264/437/252
f 266/438/254 285/439/273 265/435/253
f 267/440/255 286/441/274 266/442/254
f 268/443/256 287/444/275 267/440/255
f 249/402/237 288/445/276 268/443/256
f 186/298/174 181/446/169 182/299/170
f 182/299/170 183/447/171 185/297/173
f 183/447/171 184/448/172 185/297/173
f 187/449/175 192/450/180 188/301/176
f 192/450/180 191/302/179 188/301/176
f 191/302/179 190/451/178 189/300/177
f 187/303/175 188/452/176 182/304/170
f 188/306/176 189/309/177 183/307/171
f 189/309/177 190/453/178 184/310/172
f 190/311/178 191/314/179 185/312/173
f 191/314/179 192/454/180 186/315/174
f 192/316/180 187/455/175 181/317/169
f 194/456/182 193/457/181 206/458/194
f 206/458/194 205/459/193 194/456/182
f 205/459/193 204/321/192 195/320/183
f 194/456/182 205/459/193 195/320/183
f 204/321/192 203/460/191 197/461/185
f 203/460/191 202/462/190 198/463/186
f 202/462/190 201/464/189 198/463/186
f 201/464/189 200/339/188 199/341/187
f 198/463/186 201/464/189 199/341/187
f 198/463/186 197/461/185 203/460/191
f 197/461/185 196/319/184 204/321/192
f 219/323/207 220/357/208 208/465/196
f 220/357/208 207/356/195 208/465/196
f 208/465/196 209/324/197 219/323/207
f 209/324/197 210/466/198 218/322/206
f 210/466/198 211/467/199 218/322/206
f 218/322/206 211/467/199 217/468/205
f 211/467/199 212/469/200 217/468/205
f 212/469/200 213/470/201 215/471/203
f 217/468/205 212/469/200 216/472/204
f 213/470/201 214/473/202 215/471/203
f 215/471/203 216/472/204 212/469/200
f 194/325/182 208/474/196 207/326/195
f 194/328/182 195/332/183 209/329/197
f 196/331/184 210/334/198 209/329/197
f 197/333/185 211/336/199 210/334/198
f 198/335/186 212/338/200 211/336/199
f 199/337/187 213/475/201 212/338/200
f 200/339/188 214/476/202 213/340/201
f 201/342/189 215/346/203 214/343/202
f 201/342/189 202/348/190 216/345/204
f 203/347/191 217/350/205 216/345/204
f 204/349/192 218/352/206 217/350/205
f 204/349/192 205/353/193 219/351/207
f 205/353/193 206/477/194 220/354/208
f 206/355/194 193/478/181 207/356/195
f 234/359/222 221/479/209 222/360/210
f 222/360/210 223/480/211 233/358/221
f 223/480/211 224/481/212 232/482/220
f 233/358/221 223/480/211 232/482/220
f 224/481/212 225/483/213 232/482/220
f 225/483/213 226/484/214 231/485/219
f 232/482/220 225/483/213 231/485/219
f 226/484/214 227/380/215 229/486/217
f 227/380/215 228/379/216 229/486/217
f 229/486/217 230/487/218 226/484/214
f 230/487/218 231/485/219 226/484/214
f 235/394/223 248/488/236 236/362/224
f 248/488/236 247/363/235 236/362/224
f 247/363/235 246/489/234 237/361/225
f 246/489/234 245/490/233 239/491/227
f 237/361/225 246/489/234 238/492/226
f 245/490/233 244/493/232 240/494/228
f 244/493/232 243/495/231 240/494/228
f 243/495/231 242/496/230 241/497/229
f 241/497/229 240/494/228 243/495/231
f 240/494/228 239/491/227 245/490/233
f 239/491/227 238/492/226 246/489/234
f 235/364/223 236/498/224 222/365/210
f 236/367/224 237/370/225 223/368/211
f 237/370/225 238/372/226 224/371/212
f 238/372/226 239/374/227 225/373/213
f 239/374/227 240/376/228 226/375/214
f 240/376/228 241/499/229 227/377/215
f 241/378/229 242/500/230 228/379/216
f 228/381/216 242/501/230 243/382/231
f 243/382/231 244/385/232 230/384/218
f 244/385/232 245/387/233 231/386/219
f 245/387/233 246/389/234 232/388/220
f 246/389/234 247/391/235 233/390/221
f 247/391/235 248/502/236 234/392/222
f 234/393/222 248/488/236 235/394/223
f 250/503/238 249/504/237 259/505/247
f 249/504/237 268/506/256 259/505/247
f 268/506/256 267/507/255 259/505/247
f 267/507/255 266/508/254 260/509/248
f 259/505/247 267/507/255 260/509/248
f 266/508/254 265/510/253 261/511/249
f 265/510/253 264/512/252 262/513/250
f 264/512/252 263/514/251 262/513/250
f 261/511/249 260/509/248 266/508/254
f 265/510/253 262/513/250 261/511/249
f 259/505/247 258/515/246 251/516/239
f 258/515/246 257/517/245 252/518/240
f 256/398/244 255/519/243 254/396/242
f 258/515/246 252/518/240 251/516/239
f 257/517/245 256/398/244 253/397/241
f 252/518/240 257/517/245 253/397/241
f 251/516/239 250/503/238 259/505/247
f 287/520/275 288/521/276 279/522/267
f 288/521/276 269/523/257 279/522/267
f 269/523/257 270/524/258 279/522/267
f 270/524/258 271/525/259 279/522/267
f 271/525/259 272/526/260 278/527/266
f 272/526/260 273/399/261 277/401/265
f 273/399/261 274/528/262 276/400/264
f 274/528/262 275/529/263 276/400/264
f 272/526/260 277/401/265 278/527/266
f 279/522/267 271/525/259 278/527/266
f 286/530/274 287/520/275 280/531/268
f 284/532/272 285/533/273 282/534/270
f 285/533/273 286/530/274 281/535/269
f 282/534/270 285/533/273 281/535/269
f 282/534/270 283/536/271 284/532/272
f 279/522/267 280/531/268 287/520/275
f 280/531/268 281/535/269 286/530/274
f 249/402/237 250/406/238 270/403/258
f 251/405/239 271/408/259 270/403/258
f 252/407/240 272/537/260 271/408/259
f 253/409/241 273/413/261 272/410/260
f 254/412/242 274/538/262 273/413/261
f 255/414/243 275/418/263 274/415/262
f 256/417/244 276/420/264 275/418/263
f 257/419/245 277/422/265 276/420/264
f 258/421/246 278/424/266 277/422/265
f 259/423/247 279/426/267 278/424/266
f 260/425/248 280/428/268 279/426/267
f 261/427/249 281/430/269 280/428/268
f 262/429/250 282/432/270 281/430/269
f 262/429/250 263/434/251 283/431/271
f 264/433/252 284/539/272 283/431/271
f 265/435/253 285/439/273 284/436/272
f 266/438/254 286/540/274 285/439/273
f 267/440/255 287/444/275 286/441/274
f 268/443/256 288/445/276 287/444/275
f 249/402/237 269/404/257 288/445/276
