# Blender 5.0.1
# www.blender.org
mtllib marine_c.mtl
o body
usemtl body
v 0.003500 0.090000 0.150000
v 0.002832 0.092645 0.150000
v 0.001082 0.094280 0.150000
v -0.001082 0.094280 0.150000
v -0.002832 0.092645 0.150000
v -0.003500 0.090000 0.150000
v -0.002832 0.087531 0.150000
v -0.001082 0.086006 0.150000
v 0.001082 0.086006 0.150000
v 0.002832 0.087531 0.150000
v 0.007500 0.090000 0.135000
v 0.006068 0.095290 0.135000
v 0.002318 0.098560 0.135000
v -0.002318 0.098560 0.135000
v -0.006068 0.095290 0.135000
v -0.007500 0.090000 0.135000
v -0.006068 0.084827 0.135000
v -0.002318 0.081631 0.135000
v 0.002318 0.081631 0.135000
v 0.006068 0.084827 0.135000
v 0.011000 0.091000 0.118000
v 0.008899 0.099229 0.118000
v 0.003399 0.104315 0.118000
v -0.003399 0.104315 0.118000
v -0.008899 0.099229 0.118000
v -0.011000 0.091000 0.118000
v -0.008899 0.083065 0.118000
v -0.003399 0.078161 0.118000
v 0.003399 0.078161 0.118000
v 0.008899 0.083065 0.118000
v 0.016500 0.094000 0.098000
v 0.013349 0.113397 0.098000
v 0.005099 0.125385 0.098000
v -0.005099 0.125385 0.098000
v -0.013349 0.113397 0.098000
v -0.016500 0.094000 0.098000
v -0.013349 0.076366 0.098000
v -0.005099 0.065468 0.098000
v 0.005099 0.065468 0.098000
v 0.013349 0.076366 0.098000
v 0.020000 0.096000 0.070000
v 0.016180 0.128916 0.070000
v 0.006180 0.149259 0.070000
v -0.006180 0.149259 0.070000
v -0.016180 0.128916 0.070000
v -0.020000 0.096000 0.070000
v -0.016180 0.065435 0.070000
v -0.006180 0.046545 0.070000
v 0.006180 0.046545 0.070000
v 0.016180 0.065435 0.070000
v 0.021500 0.095000 0.030000
v 0.017394 0.135557 0.030000
v 0.006644 0.160623 0.030000
v -0.006644 0.160623 0.030000
v -0.017394 0.135557 0.030000
v -0.021500 0.095000 0.030000
v -0.017394 0.056206 0.030000
v -0.006644 0.032230 0.030000
v 0.006644 0.032230 0.030000
v 0.017394 0.056206 0.030000
v 0.019800 0.093000 -0.010000
v 0.016019 0.130618 -0.010000
v 0.006119 0.153868 -0.010000
v -0.006119 0.153868 -0.010000
v -0.016019 0.130618 -0.010000
v -0.019800 0.093000 -0.010000
v -0.016019 0.057733 -0.010000
v -0.006119 0.035937 -0.010000
v 0.006119 0.035937 -0.010000
v 0.016019 0.057733 -0.010000
v 0.015000 0.090000 -0.048000
v 0.012135 0.115275 -0.048000
v 0.004635 0.130895 -0.048000
v -0.004635 0.130895 -0.048000
v -0.012135 0.115275 -0.048000
v -0.015000 0.090000 -0.048000
v -0.012135 0.067076 -0.048000
v -0.004635 0.052909 -0.048000
v 0.004635 0.052909 -0.048000
v 0.012135 0.067076 -0.048000
v 0.009200 0.089000 -0.076000
v 0.007443 0.102519 -0.076000
v 0.002843 0.110874 -0.076000
v -0.002843 0.110874 -0.076000
v -0.007443 0.102519 -0.076000
v -0.009200 0.089000 -0.076000
v -0.007443 0.077538 -0.076000
v -0.002843 0.070454 -0.076000
v 0.002843 0.070454 -0.076000
v 0.007443 0.077538 -0.076000
v 0.005000 0.089000 -0.094000
v 0.004045 0.095172 -0.094000
v 0.001545 0.098986 -0.094000
v -0.001545 0.098986 -0.094000
v -0.004045 0.095172 -0.094000
v -0.005000 0.089000 -0.094000
v -0.004045 0.083827 -0.094000
v -0.001545 0.080631 -0.094000
v 0.001545 0.080631 -0.094000
v 0.004045 0.083827 -0.094000
v 0.003000 0.089000 -0.104000
v 0.002427 0.092527 -0.104000
v 0.000927 0.094706 -0.104000
v -0.000927 0.094706 -0.104000
v -0.002427 0.092527 -0.104000
v -0.003000 0.089000 -0.104000
v -0.002427 0.086061 -0.104000
v -0.000927 0.084245 -0.104000
v 0.000927 0.084245 -0.104000
v 0.002427 0.086061 -0.104000
v -0.018000 0.115000 0.093800
v -0.014020 0.111741 0.097227
v -0.019520 0.109726 0.097227
v -0.022919 0.115000 0.097227
v -0.019520 0.120274 0.097227
v -0.014020 0.118260 0.097227
v -0.016480 0.109726 0.102773
v -0.021980 0.111741 0.102773
v -0.021980 0.118260 0.102773
v -0.016480 0.120274 0.102773
v -0.013081 0.115000 0.102773
v -0.018000 0.115000 0.106200
v 0.018000 0.115000 0.093800
v 0.021980 0.111741 0.097227
v 0.016480 0.109726 0.097227
v 0.013081 0.115000 0.097227
v 0.016480 0.120274 0.097227
v 0.021980 0.118260 0.097227
v 0.019520 0.109726 0.102773
v 0.014020 0.111741 0.102773
v 0.014020 0.118260 0.102773
v 0.019520 0.120274 0.102773
v 0.022919 0.115000 0.102773
v 0.018000 0.115000 0.106200
vn 0.6645 -0.0059 0.7473
vn 0.5756 0.3354 0.7458
vn 0.2493 0.6262 0.7387
vn -0.2493 0.6262 0.7388
vn -0.5756 0.3354 0.7458
vn -0.6645 -0.0059 0.7473
vn -0.5680 -0.3501 0.7448
vn -0.2381 -0.6263 0.7424
vn 0.2381 -0.6263 0.7424
vn 0.5680 -0.3501 0.7448
vn 0.9735 -0.0074 0.2286
vn 0.8244 0.5044 0.2570
vn 0.3414 0.8904 0.3010
vn -0.3414 0.8904 0.3010
vn -0.8244 0.5044 0.2570
vn -0.9735 -0.0074 0.2286
vn -0.8194 -0.5256 0.2288
vn -0.3359 -0.9094 0.2452
vn 0.3359 -0.9094 0.2452
vn 0.8194 -0.5256 0.2288
vn 0.9722 -0.0118 0.2337
vn 0.8280 0.4418 0.3454
vn 0.3499 0.7753 0.5258
vn -0.3499 0.7753 0.5258
vn -0.8280 0.4418 0.3454
vn -0.9722 -0.0118 0.2337
vn -0.8364 -0.4839 0.2574
vn -0.3648 -0.8576 0.3626
vn 0.3648 -0.8576 0.3626
vn 0.8364 -0.4839 0.2574
vn 0.9786 -0.0038 0.2058
vn 0.8681 0.3407 0.3610
vn 0.4153 0.6686 0.6168
vn -0.4153 0.6686 0.6168
vn -0.8681 0.3407 0.3610
vn -0.9786 -0.0038 0.2058
vn -0.8841 -0.3746 0.2793
vn -0.4283 -0.7569 0.4936
vn 0.4283 -0.7569 0.4936
vn 0.8841 -0.3746 0.2793
vn 0.9959 -0.0008 0.0906
vn 0.9361 0.2975 0.1875
vn 0.4892 0.7746 0.4009
vn -0.4892 0.7746 0.4009
vn -0.9361 0.2975 0.1875
vn -0.9959 -0.0008 0.0906
vn -0.9356 -0.3083 0.1721
vn -0.4894 -0.7816 0.3867
vn 0.4894 -0.7816 0.3867
vn 0.9356 -0.3083 0.1721
vn 1.0000 -0.0020 0.0015
vn 0.9638 0.2664 0.0103
vn 0.5203 0.8528 0.0448
vn -0.5203 0.8528 0.0448
vn -0.9638 0.2664 0.0103
vn -1.0000 -0.0020 0.0015
vn -0.9603 -0.2772 0.0327
vn -0.5139 -0.8516 0.1035
vn 0.5139 -0.8516 0.1036
vn 0.9603 -0.2772 0.0327
vn 0.9962 -0.0025 -0.0868
vn 0.9557 0.2589 -0.1397
vn 0.5153 0.8027 -0.3003
vn -0.5153 0.8027 -0.3003
vn -0.9557 0.2589 -0.1397
vn -0.9962 -0.0025 -0.0868
vn -0.9556 -0.2735 -0.1098
vn -0.5144 -0.8283 -0.2220
vn 0.5144 -0.8283 -0.2220
vn 0.9556 -0.2735 -0.1098
vn 0.9860 -0.0079 -0.1665
vn 0.9327 0.2673 -0.2422
vn 0.4976 0.7193 -0.4848
vn -0.4976 0.7193 -0.4848
vn -0.9327 0.2673 -0.2422
vn -0.9860 -0.0079 -0.1665
vn -0.9289 -0.2973 -0.2208
vn -0.4883 -0.7668 -0.4165
vn 0.4883 -0.7668 -0.4165
vn 0.9289 -0.2973 -0.2208
vn 0.9759 -0.0128 -0.2177
vn 0.9115 0.2922 -0.2894
vn 0.4698 0.7156 -0.5169
vn -0.4698 0.7156 -0.5169
vn -0.9115 0.2922 -0.2894
vn -0.9759 -0.0128 -0.2177
vn -0.8989 -0.3359 -0.2813
vn -0.4492 -0.7586 -0.4719
vn 0.4492 -0.7586 -0.4719
vn 0.8989 -0.3359 -0.2813
vn 0.9769 -0.0143 -0.2131
vn 0.9035 0.3346 -0.2677
vn 0.4547 0.7708 -0.4462
vn -0.4547 0.7708 -0.4462
vn -0.9035 0.3346 -0.2677
vn -0.9769 -0.0143 -0.2131
vn -0.8845 -0.3856 -0.2626
vn -0.4235 -0.8126 -0.4004
vn 0.4235 -0.8126 -0.4004
vn 0.8845 -0.3856 -0.2626
vn 0.6729 -0.0108 -0.7397
vn 0.6253 0.2314 -0.7453
vn 0.3359 0.5671 -0.7520
vn -0.3359 0.5671 -0.7520
vn -0.6253 0.2314 -0.7453
vn -0.6729 -0.0108 -0.7397
vn -0.6158 -0.2739 -0.7388
vn -0.3047 -0.5958 -0.7431
vn 0.3047 -0.5958 -0.7431
vn 0.6158 -0.2739 -0.7388
vn 0.0002 -0.0000 -1.0000
vn 0.7371 -0.5147 -0.4379
vn -0.2852 -0.8484 -0.4459
vn -0.9019 -0.0000 -0.4320
vn -0.2852 0.8484 -0.4459
vn 0.7371 0.5147 -0.4379
vn 0.2852 -0.8484 0.4459
vn -0.7371 -0.5147 0.4379
vn -0.7371 0.5147 0.4379
vn 0.2852 0.8484 0.4459
vn 0.9019 -0.0000 0.4320
vn -0.0002 -0.0000 1.0000
vt -0.818182 0.000000
vt -0.909091 0.016031
vt -0.909091 0.000000
vt 0.036773 0.818182
vt 0.006555 0.909091
vt 0.017161 0.909091
vt 0.014046 0.818182
vt -0.006555 0.909091
vt -0.036773 0.818182
vt -0.017161 0.909091
vt 0.909091 0.016031
vt 0.818182 0.000000
vt 0.909091 0.000000
vt 0.909091 -0.014962
vt -0.036773 -0.818182
vt -0.006555 -0.909091
vt -0.017161 -0.909091
vt -0.014046 -0.818182
vt 0.006555 -0.909091
vt 0.036773 -0.818182
vt 0.017161 -0.909091
vt -0.909091 -0.014962
vt -0.715151 0.006061
vt -0.818182 0.032061
vt 0.053934 0.715151
vt 0.020601 0.715151
vt -0.014046 0.818182
vt -0.053934 0.715151
vt 0.818182 0.032061
vt 0.715151 0.006061
vt 0.715151 -0.042031
vt 0.818182 -0.031349
vt -0.053934 -0.715151
vt -0.020601 -0.715151
vt 0.014046 -0.818182
vt 0.053934 -0.715151
vt -0.715151 -0.042031
vt -0.818182 -0.031349
vt -0.593939 0.024242
vt -0.715151 0.055933
vt 0.080902 0.593939
vt 0.030902 0.214454
vt -0.020601 0.086756
vt 0.020601 0.086756
vt -0.020601 0.715151
vt -0.080902 0.593939
vt 0.715151 0.055933
vt 0.593939 0.024242
vt -0.080902 -0.593939
vt -0.030902 -0.593939
vt 0.020601 -0.715151
vt 0.080902 -0.593939
vt -0.424242 0.036364
vt -0.593939 0.141799
vt -0.424242 0.235854
vt -0.593939 0.214454
vt 0.037457 0.424242
vt -0.030902 0.593939
vt 0.030902 0.593939
vt 0.593939 0.214454
vt 0.424242 0.235854
vt 0.593939 0.141799
vt 0.424242 0.036364
vt 0.593939 -0.082628
vt 0.424242 -0.148878
vt 0.593939 -0.148677
vt -0.037457 -0.424242
vt 0.030902 -0.593939
vt -0.593939 -0.148677
vt -0.424242 -0.148878
vt -0.593939 -0.082628
vt -0.181818 0.030303
vt -0.181818 0.276104
vt -0.424242 0.359146
vt 0.040266 0.181818
vt -0.037457 0.424242
vt 0.424242 0.359146
vt 0.181818 0.276104
vt 0.181818 0.030303
vt 0.181818 -0.204811
vt 0.424242 -0.263363
vt -0.040266 -0.181818
vt 0.037457 -0.424242
vt -0.424242 -0.263363
vt -0.181818 -0.204811
vt 0.060606 0.246171
vt 0.060606 0.387076
vt -0.181818 0.428018
vt 0.037082 -0.060606
vt -0.040266 0.181818
vt -0.060606 0.387076
vt 0.181818 0.428018
vt -0.060606 0.246171
vt -0.060606 0.018182
vt -0.060606 -0.327657
vt 0.181818 -0.350120
vt -0.037082 0.060606
vt 0.040266 -0.181818
vt 0.060606 -0.327657
vt -0.181818 -0.350120
vt 0.060606 0.018182
vt 0.290909 0.153180
vt 0.290909 0.247851
vt 0.028092 -0.290909
vt -0.037082 -0.060606
vt -0.290909 0.247851
vt -0.290909 0.153180
vt -0.290909 -0.138931
vt -0.060606 -0.195558
vt -0.290909 -0.224795
vt -0.028092 0.290909
vt 0.037082 0.060606
vt 0.290909 -0.224795
vt 0.060606 -0.195558
vt 0.290909 -0.138931
vt 0.290909 0.000000
vt 0.460606 0.075873
vt 0.460606 0.126511
vt 0.017230 -0.460606
vt -0.028092 -0.290909
vt -0.460606 0.126511
vt -0.460606 0.075873
vt -0.290909 0.000000
vt -0.460606 -0.075526
vt -0.460606 -0.118458
vt -0.017230 0.460606
vt 0.028092 0.290909
vt 0.460606 -0.118458
vt 0.460606 -0.075526
vt 0.460606 -0.006061
vt 0.569697 0.031344
vt 0.569697 0.054461
vt 0.009364 -0.569697
vt -0.017230 -0.460606
vt -0.569697 0.054461
vt -0.569697 0.031344
vt -0.460606 -0.006061
vt -0.569697 -0.037409
vt -0.569697 -0.056784
vt -0.009364 0.569697
vt 0.017230 0.460606
vt 0.569697 -0.056784
vt 0.569697 -0.037409
vt 0.569697 -0.006061
vt 0.630303 0.015313
vt 0.630303 0.028523
vt 0.005618 -0.630303
vt -0.009364 -0.569697
vt -0.630303 0.028523
vt -0.630303 0.015313
vt -0.569697 -0.006061
vt -0.630303 -0.023872
vt -0.630303 -0.034881
vt -0.005618 0.630303
vt 0.009364 0.569697
vt 0.630303 -0.034881
vt 0.630303 -0.023872
vt -0.006555 -0.024209
vt 0.006555 -0.024209
vt 0.017161 -0.014962
vt 0.005618 0.028523
vt -0.005618 0.028523
vt -0.014709 0.015313
vt 0.109091 0.151515
vt 0.084971 0.131761
vt 0.118304 0.119551
vt 0.084971 0.171270
vt 0.138905 0.151515
vt 0.118304 0.183479
vt -0.589256 0.131761
vt -0.589256 0.171270
vt -0.622865 0.151515
vt -0.118304 -0.589256
vt -0.084971 -0.589256
vt -0.099878 -0.622865
vt 0.589256 0.151515
vt 0.589256 0.119551
vt 0.622865 0.131761
vt 0.589256 0.183479
vt 0.622865 0.171270
vt -0.084971 0.589256
vt -0.118304 0.589256
vt -0.099878 0.622865
vt -0.622865 0.119551
vt -0.133211 -0.622865
vt -0.133211 0.622865
vt -0.622865 0.183479
vt -0.099878 0.119551
vt -0.079277 0.151515
vt -0.109091 0.151515
vt -0.133211 0.131761
vt -0.133211 0.171270
vt -0.099878 0.183479
vt 0.099878 -0.589256
vt 0.133211 -0.589256
vt 0.118304 -0.622865
vt 0.133211 0.589256
vt 0.099878 0.589256
vt 0.118304 0.622865
vt 0.084971 -0.622865
vt 0.084971 0.622865
vt -0.715151 0.086756
vt -0.030902 0.214454
vt 0.715151 0.086756
vt 0.715151 -0.071753
vt -0.715151 -0.071753
vt 0.630303 -0.006061
vt -0.005618 -0.630303
vt -0.630303 -0.006061
vt 0.005618 0.630303
vt 0.021212 0.000000
vt -0.021212 0.000000
vt 0.017161 0.016031
vt 0.006555 0.025938
vt -0.006555 0.025938
vt -0.017161 0.016031
vt -0.017161 -0.014962
vt -0.018182 -0.006061
vt 0.018182 -0.006061
vt -0.014709 -0.023872
vt -0.005618 -0.034881
vt 0.005618 -0.034881
vt 0.014709 -0.023872
vt 0.014709 0.015313
s 1
f 11/1/11 2/2/2 1/3/1
f 12/4/12 3/5/3 2/6/2
f 13/7/13 4/8/4 3/5/3
f 4/8/4 15/9/15 5/10/5
f 5/11/5 16/12/16 6/13/6
f 16/12/16 7/14/7 6/13/6
f 17/15/17 8/16/8 7/17/7
f 18/18/18 9/19/9 8/16/8
f 9/19/9 20/20/20 10/21/10
f 10/22/10 11/1/11 1/3/1
f 21/23/21 12/24/12 11/1/11
f 22/25/22 13/7/13 12/4/12
f 23/26/23 14/27/14 13/7/13
f 14/27/14 25/28/25 15/9/15
f 15/29/15 26/30/26 16/12/16
f 16/12/16 27/31/27 17/32/17
f 27/33/27 18/18/18 17/15/17
f 28/34/28 19/35/19 18/18/18
f 19/35/19 30/36/30 20/20/20
f 30/37/30 11/1/11 20/38/20
f 31/39/31 22/40/22 21/23/21
f 32/41/32 23/26/23 22/25/22
f 33/42/33 24/43/24 23/44/23
f 24/45/24 35/46/35 25/28/25
f 25/47/25 36/48/36 26/30/26
f 36/48/36 27/31/27 26/30/26
f 37/49/37 28/34/28 27/33/27
f 38/50/38 29/51/29 28/34/28
f 29/51/29 40/52/40 30/36/30
f 30/37/30 31/39/31 21/23/21
f 41/53/41 32/54/32 31/39/31
f 42/55/42 33/56/33 32/54/32
f 43/57/43 34/58/34 33/59/33
f 34/60/34 45/61/45 35/62/35
f 35/62/35 46/63/46 36/48/36
f 46/63/46 37/64/37 36/48/36
f 47/65/47 38/66/38 37/64/37
f 48/67/48 39/68/39 38/50/38
f 39/69/39 50/70/50 40/71/40
f 40/71/40 41/53/41 31/39/31
f 51/72/51 42/55/42 41/53/41
f 52/73/52 43/74/43 42/55/42
f 53/75/53 44/76/44 43/57/43
f 44/77/44 55/78/55 45/61/45
f 45/61/45 56/79/56 46/63/46
f 56/79/56 47/65/47 46/63/46
f 57/80/57 48/81/48 47/65/47
f 58/82/58 49/83/49 48/67/48
f 49/84/49 60/85/60 50/70/50
f 50/70/50 51/72/51 41/53/41
f 51/72/51 62/86/62 52/73/52
f 52/73/52 63/87/63 53/88/53
f 63/89/63 54/90/54 53/75/53
f 64/91/64 55/78/55 54/92/54
f 65/93/65 56/79/56 55/78/55
f 66/94/66 57/80/57 56/79/56
f 57/80/57 68/95/68 58/96/58
f 68/97/68 59/98/59 58/82/58
f 69/99/69 60/85/60 59/100/59
f 60/85/60 61/101/61 51/72/51
f 61/101/61 72/102/72 62/86/62
f 62/86/62 73/103/73 63/87/63
f 73/104/73 64/105/64 63/89/63
f 74/106/74 65/93/65 64/91/64
f 75/107/75 66/94/66 65/93/65
f 66/94/66 77/108/77 67/109/67
f 67/109/67 78/110/78 68/95/68
f 78/111/78 69/112/69 68/97/68
f 79/113/79 70/114/70 69/99/69
f 80/115/80 61/101/61 70/114/70
f 71/116/71 82/117/82 72/102/72
f 72/102/72 83/118/83 73/103/73
f 83/119/83 74/120/74 73/104/73
f 84/121/84 75/107/75 74/106/74
f 85/122/85 76/123/76 75/107/75
f 76/123/76 87/124/87 77/108/77
f 77/108/77 88/125/88 78/110/78
f 88/126/88 79/127/79 78/111/78
f 89/128/89 80/115/80 79/113/79
f 90/129/90 71/116/71 80/115/80
f 81/130/81 92/131/92 82/117/82
f 82/117/82 93/132/93 83/118/83
f 93/133/93 84/134/84 83/119/83
f 94/135/94 85/122/85 84/121/84
f 95/136/95 86/137/86 85/122/85
f 86/137/86 97/138/97 87/124/87
f 87/124/87 98/139/98 88/125/88
f 98/140/98 89/141/89 88/126/88
f 99/142/99 90/129/90 89/128/89
f 100/143/100 81/130/81 90/129/90
f 91/144/91 102/145/102 92/131/92
f 92/131/92 103/146/103 93/132/93
f 103/147/103 94/148/94 93/133/93
f 104/149/104 95/136/95 94/135/94
f 105/150/105 96/151/96 95/136/95
f 96/151/96 107/152/107 97/138/97
f 97/138/97 108/153/108 98/139/98
f 108/154/108 99/155/99 98/140/98
f 109/156/109 100/143/100 99/142/99
f 110/157/110 91/144/91 100/143/100
f 8/158/8 9/159/9 10/160/10
f 104/161/104 103/162/103 102/163/102
f 111/164/111 112/165/112 113/166/113
f 112/165/112 111/164/111 116/167/116
f 111/164/111 113/166/113 114/168/114
f 111/164/111 114/168/114 115/169/115
f 111/164/111 115/169/115 116/167/116
f 112/170/112 116/171/116 121/172/121
f 113/173/113 112/174/112 117/175/117
f 114/176/114 113/177/113 118/178/118
f 115/179/115 114/176/114 119/180/119
f 116/181/116 115/182/115 120/183/120
f 112/170/112 121/172/121 117/184/117
f 113/173/113 117/175/117 118/185/118
f 114/176/114 118/178/118 119/180/119
f 115/182/115 119/186/119 120/183/120
f 116/171/116 120/187/120 121/172/121
f 117/188/117 121/189/121 122/190/122
f 118/191/118 117/188/117 122/190/122
f 119/192/119 118/191/118 122/190/122
f 120/193/120 119/192/119 122/190/122
f 121/189/121 120/193/120 122/190/122
f 123/190/111 124/191/112 125/188/113
f 124/191/112 123/190/111 128/192/116
f 123/190/111 125/188/113 126/189/114
f 123/190/111 126/189/114 127/193/115
f 123/190/111 127/193/115 128/192/116
f 124/170/112 128/171/116 133/172/121
f 125/194/113 124/195/112 129/196/117
f 126/176/114 125/177/113 130/178/118
f 127/179/115 126/176/114 131/180/119
f 128/197/116 127/198/115 132/199/120
f 124/170/112 133/172/121 129/184/117
f 125/194/113 129/196/117 130/200/118
f 126/176/114 130/178/118 131/180/119
f 127/198/115 131/201/119 132/199/120
f 128/171/116 132/187/120 133/172/121
f 129/166/117 133/168/121 134/164/122
f 130/165/118 129/166/117 134/164/122
f 131/167/119 130/165/118 134/164/122
f 132/169/120 131/167/119 134/164/122
f 133/168/121 132/169/120 134/164/122
f 11/1/11 12/24/12 2/2/2
f 12/4/12 13/7/13 3/5/3
f 13/7/13 14/27/14 4/8/4
f 4/8/4 14/27/14 15/9/15
f 5/11/5 15/29/15 16/12/16
f 16/12/16 17/32/17 7/14/7
f 17/15/17 18/18/18 8/16/8
f 18/18/18 19/35/19 9/19/9
f 9/19/9 19/35/19 20/20/20
f 10/22/10 20/38/20 11/1/11
f 21/23/21 22/40/22 12/24/12
f 22/25/22 23/26/23 13/7/13
f 23/26/23 24/45/24 14/27/14
f 14/27/14 24/45/24 25/28/25
f 15/29/15 25/47/25 26/30/26
f 16/12/16 26/30/26 27/31/27
f 27/33/27 28/34/28 18/18/18
f 28/34/28 29/51/29 19/35/19
f 19/35/19 29/51/29 30/36/30
f 30/37/30 21/23/21 11/1/11
f 31/39/31 32/54/32 22/40/22
f 32/54/32 33/56/33 23/202/23
f 33/42/33 34/203/34 24/43/24
f 24/204/24 34/60/34 35/62/35
f 25/47/25 35/62/35 36/48/36
f 36/48/36 37/64/37 27/31/27
f 37/64/37 38/66/38 28/205/28
f 38/50/38 39/68/39 29/51/29
f 29/206/29 39/69/39 40/71/40
f 30/37/30 40/71/40 31/39/31
f 41/53/41 42/55/42 32/54/32
f 42/55/42 43/74/43 33/56/33
f 43/57/43 44/76/44 34/58/34
f 34/60/34 44/77/44 45/61/45
f 35/62/35 45/61/45 46/63/46
f 46/63/46 47/65/47 37/64/37
f 47/65/47 48/81/48 38/66/38
f 48/67/48 49/83/49 39/68/39
f 39/69/39 49/84/49 50/70/50
f 40/71/40 50/70/50 41/53/41
f 51/72/51 52/73/52 42/55/42
f 52/73/52 53/88/53 43/74/43
f 53/75/53 54/90/54 44/76/44
f 44/77/44 54/92/54 55/78/55
f 45/61/45 55/78/55 56/79/56
f 56/79/56 57/80/57 47/65/47
f 57/80/57 58/96/58 48/81/48
f 58/82/58 59/98/59 49/83/49
f 49/84/49 59/100/59 60/85/60
f 50/70/50 60/85/60 51/72/51
f 51/72/51 61/101/61 62/86/62
f 52/73/52 62/86/62 63/87/63
f 63/89/63 64/105/64 54/90/54
f 64/91/64 65/93/65 55/78/55
f 65/93/65 66/94/66 56/79/56
f 66/94/66 67/109/67 57/80/57
f 57/80/57 67/109/67 68/95/68
f 68/97/68 69/112/69 59/98/59
f 69/99/69 70/114/70 60/85/60
f 60/85/60 70/114/70 61/101/61
f 61/101/61 71/116/71 72/102/72
f 62/86/62 72/102/72 73/103/73
f 73/104/73 74/120/74 64/105/64
f 74/106/74 75/107/75 65/93/65
f 75/107/75 76/123/76 66/94/66
f 66/94/66 76/123/76 77/108/77
f 67/109/67 77/108/77 78/110/78
f 78/111/78 79/127/79 69/112/69
f 79/113/79 80/115/80 70/114/70
f 80/115/80 71/116/71 61/101/61
f 71/116/71 81/130/81 82/117/82
f 72/102/72 82/117/82 83/118/83
f 83/119/83 84/134/84 74/120/74
f 84/121/84 85/122/85 75/107/75
f 85/122/85 86/137/86 76/123/76
f 76/123/76 86/137/86 87/124/87
f 77/108/77 87/124/87 88/125/88
f 88/126/88 89/141/89 79/127/79
f 89/128/89 90/129/90 80/115/80
f 90/129/90 81/130/81 71/116/71
f 81/130/81 91/144/91 92/131/92
f 82/117/82 92/131/92 93/132/93
f 93/133/93 94/148/94 84/134/84
f 94/135/94 95/136/95 85/122/85
f 95/136/95 96/151/96 86/137/86
f 86/137/86 96/151/96 97/138/97
f 87/124/87 97/138/97 98/139/98
f 98/140/98 99/155/99 89/141/89
f 99/142/99 100/143/100 90/129/90
f 100/143/100 91/144/91 81/130/81
f 91/144/91 101/207/101 102/145/102
f 92/131/92 102/145/102 103/146/103
f 103/147/103 104/208/104 94/148/94
f 104/149/104 105/150/105 95/136/95
f 105/150/105 106/209/106 96/151/96
f 96/151/96 106/209/106 107/152/107
f 97/138/97 107/152/107 108/153/108
f 108/154/108 109/210/109 99/155/99
f 109/156/109 110/157/110 100/143/100
f 110/157/110 101/207/101 91/144/91
f 10/160/10 1/211/1 6/212/6
f 1/211/1 2/213/2 6/212/6
f 2/213/2 3/214/3 4/215/4
f 4/215/4 5/216/5 2/213/2
f 5/216/5 6/212/6 2/213/2
f 6/212/6 7/217/7 10/160/10
f 7/217/7 8/158/8 10/160/10
f 102/163/102 101/218/101 106/219/106
f 101/218/101 110/220/110 106/219/106
f 110/220/110 109/221/109 108/222/108
f 108/222/108 107/223/107 110/220/110
f 107/223/107 106/219/106 110/220/110
f 106/219/106 105/224/105 102/163/102
f 105/224/105 104/161/104 102/163/102
o fin
usemtl fin
v -0.002100 0.120000 0.096000
v -0.002100 0.136000 0.096000
v -0.002100 0.169448 0.068000
v -0.002100 0.186437 0.040000
v -0.002100 0.189592 0.012000
v -0.002100 0.182434 -0.016000
v -0.002100 0.166781 -0.044000
v -0.002100 0.140000 -0.072000
v -0.002100 0.120000 -0.072000
v 0.002100 0.120000 0.096000
v 0.002100 0.136000 0.096000
v 0.002100 0.169448 0.068000
v 0.002100 0.186437 0.040000
v 0.002100 0.189592 0.012000
v 0.002100 0.182434 -0.016000
v 0.002100 0.166781 -0.044000
v 0.002100 0.140000 -0.072000
v 0.002100 0.120000 -0.072000
v -0.002100 0.060000 0.028000
v -0.002100 0.046000 0.028000
v -0.002100 0.019580 0.009333
v -0.002100 0.005000 -0.009333
v -0.002100 0.000000 -0.028000
v -0.002100 0.004565 -0.046667
v -0.002100 0.017877 -0.065333
v -0.002100 0.042000 -0.084000
v -0.002100 0.060000 -0.084000
v 0.002100 0.060000 0.028000
v 0.002100 0.046000 0.028000
v 0.002100 0.019580 0.009333
v 0.002100 0.005000 -0.009333
v 0.002100 0.000000 -0.028000
v 0.002100 0.004565 -0.046667
v 0.002100 0.017877 -0.065333
v 0.002100 0.042000 -0.084000
v 0.002100 0.060000 -0.084000
v -0.001900 0.104000 -0.098000
v -0.001900 0.117454 -0.115333
v -0.001900 0.130734 -0.132667
v -0.001900 0.136000 -0.150000
v -0.001900 0.118520 -0.139600
v -0.001900 0.090000 -0.126000
v -0.001900 0.061480 -0.139600
v -0.001900 0.044000 -0.150000
v -0.001900 0.049266 -0.132667
v -0.001900 0.062546 -0.115333
v -0.001900 0.076000 -0.098000
v 0.001900 0.104000 -0.098000
v 0.001900 0.117454 -0.115333
v 0.001900 0.130734 -0.132667
v 0.001900 0.136000 -0.150000
v 0.001900 0.118520 -0.139600
v 0.001900 0.090000 -0.126000
v 0.001900 0.061480 -0.139600
v 0.001900 0.044000 -0.150000
v 0.001900 0.049266 -0.132667
v 0.001900 0.062546 -0.115333
v 0.001900 0.076000 -0.098000
v 0.013861 0.080742 0.067581
v 0.016549 0.077381 0.075333
v 0.021243 0.074020 0.080517
v 0.027836 0.070659 0.083271
v 0.036288 0.067298 0.083645
v 0.046536 0.063937 0.081720
v 0.058923 0.060577 0.077058
v 0.061163 0.060577 0.074192
v 0.057007 0.063937 0.068318
v 0.051689 0.067298 0.063933
v 0.045525 0.070659 0.060630
v 0.038522 0.074020 0.058400
v 0.030738 0.077381 0.057172
v 0.022299 0.080742 0.056781
v 0.014828 0.083258 0.068336
v 0.017516 0.079897 0.076088
v 0.022210 0.076537 0.081273
v 0.028803 0.073176 0.084026
v 0.037255 0.069815 0.084401
v 0.047504 0.066454 0.082476
v 0.059890 0.063093 0.077814
v 0.062130 0.063093 0.074948
v 0.057975 0.066454 0.069074
v 0.052656 0.069815 0.064688
v 0.046492 0.073176 0.061385
v 0.039490 0.076537 0.059156
v 0.031705 0.079897 0.057928
v 0.023266 0.083258 0.057536
v -0.013861 0.080742 0.067581
v -0.016549 0.077381 0.075333
v -0.021243 0.074020 0.080517
v -0.027836 0.070659 0.083271
v -0.036288 0.067298 0.083645
v -0.046536 0.063937 0.081720
v -0.058923 0.060577 0.077058
v -0.061163 0.060577 0.074192
v -0.057007 0.063937 0.068318
v -0.051689 0.067298 0.063933
v -0.045525 0.070659 0.060630
v -0.038522 0.074020 0.058400
v -0.030738 0.077381 0.057172
v -0.022299 0.080742 0.056781
v -0.014828 0.083258 0.068336
v -0.017516 0.079897 0.076088
v -0.022210 0.076537 0.081273
v -0.028803 0.073176 0.084026
v -0.037255 0.069815 0.084401
v -0.047504 0.066454 0.082476
v -0.059890 0.063093 0.077814
v -0.062130 0.063093 0.074948
v -0.057975 0.066454 0.069074
v -0.052656 0.069815 0.064688
v -0.046492 0.073176 0.061385
v -0.039490 0.076537 0.059156
v -0.031705 0.079897 0.057928
v -0.023266 0.083258 0.057536
vn -1.0000 -0.0000 -0.0000
vn 1.0000 -0.0000 -0.0000
vn -0.0000 -0.0000 1.0000
vn -0.0000 0.6419 0.7668
vn -0.0000 0.8549 0.5187
vn -0.0000 0.9937 0.1120
vn -0.0000 0.9688 -0.2477
vn -0.0000 0.8729 -0.4880
vn -0.0000 0.7227 -0.6912
vn -0.0000 -0.0000 -1.0000
vn -0.0000 -1.0000 -0.0000
vn -0.0000 -0.5770 0.8167
vn -0.0000 -0.7881 0.6156
vn -0.0000 -0.9659 0.2587
vn -0.0000 -0.9714 -0.2376
vn -0.0000 -0.8142 -0.5806
vn -0.0000 -0.6120 -0.7909
vn -0.0000 1.0000 -0.0000
vn -0.0000 0.7900 0.6132
vn -0.0000 0.7938 0.6082
vn -0.0000 0.9568 0.2907
vn -0.0000 -0.5113 -0.8594
vn -0.0000 -0.4304 -0.9026
vn -0.0000 0.4304 -0.9026
vn -0.0000 0.5113 -0.8594
vn -0.0000 -0.9568 0.2907
vn -0.0000 -0.7938 0.6082
vn -0.0000 -0.7900 0.6132
vn -0.3454 -0.8988 -0.2699
vn 0.3454 0.8988 0.2699
vn -0.8881 0.2202 0.4034
vn -0.7175 0.0676 0.6933
vn -0.4283 -0.1049 0.8975
vn -0.1366 -0.2364 0.9620
vn 0.0751 -0.3132 0.9467
vn 0.2404 -0.3628 0.9003
vn 0.7083 -0.4384 0.5534
vn 0.7790 -0.1143 -0.6165
vn 0.6322 -0.0104 -0.7747
vn 0.4995 0.0674 -0.8637
vn 0.3602 0.1386 -0.9225
vn 0.2347 0.1957 -0.9522
vn 0.1384 0.2356 -0.9619
vn -0.7083 0.4384 -0.5534
vn 0.3454 -0.8988 -0.2699
vn -0.3454 0.8988 0.2699
vn 0.8881 0.2202 0.4034
vn 0.7175 0.0676 0.6933
vn 0.4283 -0.1049 0.8975
vn 0.1366 -0.2364 0.9620
vn -0.0751 -0.3132 0.9467
vn -0.2404 -0.3628 0.9003
vn -0.7083 -0.4384 0.5534
vn -0.7790 -0.1143 -0.6165
vn -0.6322 -0.0104 -0.7747
vn -0.4995 0.0673 -0.8637
vn -0.3602 0.1386 -0.9225
vn -0.2347 0.1957 -0.9522
vn -0.1384 0.2356 -0.9619
vn 0.7083 0.4384 -0.5534
vn 0.4995 0.0673 -0.8637
vn -0.4995 0.0674 -0.8637
vt -0.366667 0.639845
vt -0.600000 0.416667
vt -0.600000 0.250000
vt -0.800000 0.250000
vt 0.133333 0.770284
vt -0.566667 0.662069
vt 0.017500 0.250000
vt -0.017500 0.383333
vt -0.017500 0.250000
vt 0.017500 0.383333
vt -0.017500 0.662069
vt 0.017500 0.566667
vt -0.017500 0.333333
vt -0.017500 0.566667
vt 0.017500 0.333333
vt -0.017500 0.100000
vt 0.017500 0.100000
vt -0.017500 -0.133333
vt 0.017500 -0.133333
vt -0.017500 -0.366667
vt 0.017500 -0.366667
vt -0.017500 -0.600000
vt -0.017500 0.416667
vt 0.017500 0.250000
vt 0.017500 0.416667
vt 0.017500 0.600000
vt -0.017500 -0.800000
vt -0.017500 0.600000
vt -0.700000 -0.250000
vt -0.544444 -0.601022
vt 0.077778 -0.586834
vt 0.388889 -0.711955
vt 0.544444 -0.601022
vt -0.077778 -0.586834
vt -0.017500 -0.366667
vt 0.017500 -0.250000
vt -0.017500 -0.250000
vt -0.017500 -0.586834
vt 0.017500 -0.366667
vt -0.017500 0.077778
vt 0.017500 -0.077778
vt -0.017500 -0.077778
vt -0.017500 0.233333
vt 0.017500 0.077778
vt -0.017500 0.388889
vt 0.017500 0.233333
vt -0.017500 0.544444
vt 0.017500 0.388889
vt 0.017500 -0.400000
vt -0.017500 -0.601022
vt 0.017500 -0.601022
vt 0.017500 -0.250000
vt -0.017500 -0.400000
vt -0.017500 0.233333
vt 0.017500 -0.700000
vt -0.017500 -0.700000
vt -1.050000 0.000000
vt -1.163333 -0.237667
vt -0.961111 -0.228786
vt 1.050000 0.000000
vt 1.163333 0.237667
vt 0.961111 0.228786
vt 0.015833 -0.816667
vt -0.015833 -0.961111
vt -0.015833 -0.816667
vt 0.015833 -1.105556
vt -0.015833 -1.105556
vt -0.015833 -1.250000
vt -0.015833 0.383333
vt 0.015833 0.237667
vt 0.015833 0.383333
vt -0.015833 0.237667
vt 0.015833 0.000000
vt -0.015833 0.000000
vt 0.015833 -0.237667
vt -0.015833 -0.237667
vt 0.015833 -0.383333
vt 0.015833 1.250000
vt -0.015833 1.105556
vt -0.015833 1.250000
vt 0.015833 1.105556
vt -0.015833 0.961111
vt 0.015833 0.961111
vt -0.015833 0.816667
vt 0.015833 -0.116667
vt -0.015833 0.116667
vt -0.015833 -0.116667
vt 0.231968 -0.693922
vt 0.177024 -0.670977
vt 0.256148 -0.476433
vt 0.329080 0.492968
vt 0.264208 0.482731
vt 0.240028 0.700220
vt 0.627772 -0.105160
vt 0.569471 -0.056181
vt 0.563173 -0.077153
vt 0.670977 -0.133167
vt 0.634069 -0.084188
vt 0.231968 -0.161174
vt 0.185084 -0.112195
vt 0.177024 -0.133167
vt 0.302399 -0.189181
vt 0.240028 -0.140202
vt 0.387804 -0.217188
vt 0.310459 -0.168209
vt 0.491027 -0.245195
vt 0.395864 -0.196216
vt -0.618266 -0.245195
vt -0.648450 -0.224223
vt -0.642153 -0.245195
vt -0.569317 -0.217188
vt -0.624563 -0.224223
vt -0.430743 -0.189181
vt -0.483122 -0.196216
vt -0.475062 -0.217188
vt -0.379377 -0.161174
vt -0.438803 -0.168209
vt -0.329080 -0.112195
vt -0.387437 -0.140202
vt -0.321020 -0.133167
vt -0.264208 -0.084188
vt -0.185824 -0.077153
vt -0.256148 -0.105160
vt 0.473173 -0.077153
vt 0.479470 -0.056181
vt -0.256148 -0.476433
vt -0.185824 -0.473173
vt -0.137909 -0.627772
vt -0.185084 0.677275
vt -0.145969 0.634069
vt -0.264208 0.482731
vt -0.569471 -0.056181
vt -0.627772 -0.105160
vt -0.563173 -0.077153
vt -0.634069 -0.084188
vt -0.670977 -0.133167
vt -0.185084 -0.112195
vt -0.231968 -0.161174
vt -0.177024 -0.133167
vt -0.240028 -0.140202
vt -0.302399 -0.189181
vt -0.395864 -0.196216
vt -0.387804 -0.217188
vt -0.491027 -0.245195
vt 0.648450 -0.224223
vt 0.618266 -0.245195
vt 0.642153 -0.245195
vt 0.624563 -0.224223
vt 0.569317 -0.217188
vt 0.483122 -0.196216
vt 0.430743 -0.189181
vt 0.475062 -0.217188
vt 0.387437 -0.140202
vt 0.379377 -0.161174
vt 0.329080 -0.112195
vt 0.321020 -0.133167
vt 0.256148 -0.105160
vt 0.264208 -0.084188
vt 0.185824 -0.077153
vt -0.473173 -0.077153
vt 0.800000 0.250000
vt -0.133333 0.770284
vt 0.800000 0.383333
vt 0.566667 0.662069
vt 0.333333 0.803642
vt 0.100000 0.829937
vt 0.600000 0.250000
vt 0.600000 0.416667
vt 0.366667 0.639845
vt -0.100000 0.829937
vt -0.333333 0.803642
vt -0.800000 0.383333
vt 0.017500 0.662069
vt 0.017500 -0.600000
vt -0.017500 0.250000
vt 0.017500 -0.800000
vt 0.233333 -0.366667
vt 0.233333 -0.250000
vt -0.700000 -0.400000
vt -0.388889 -0.711955
vt -0.233333 -0.750000
vt -0.077778 -0.708332
vt 0.700000 -0.400000
vt 0.700000 -0.250000
vt -0.233333 -0.250000
vt -0.233333 -0.366667
vt 0.077778 -0.708332
vt 0.233333 -0.750000
vt 0.017500 -0.586834
vt 0.017500 0.544444
vt -0.017500 -0.250000
vt 0.017500 0.233333
vt -0.816667 -0.116667
vt -0.816667 0.116667
vt -0.961111 0.228786
vt -1.105556 0.339450
vt -1.163333 0.237667
vt -1.250000 0.383333
vt -1.250000 -0.383333
vt -1.105556 -0.339450
vt 0.816667 0.116667
vt 0.816667 -0.116667
vt 0.961111 -0.228786
vt 1.105556 -0.339450
vt 1.163333 -0.237667
vt 1.250000 -0.383333
vt 1.250000 0.383333
vt 1.105556 0.339450
vt 0.015833 -0.961111
vt 0.015833 -1.250000
vt -0.015833 -0.383333
vt 0.015833 0.816667
vt 0.015833 0.116667
vt 0.137909 -0.627772
vt 0.115508 -0.563173
vt 0.185824 -0.473173
vt 0.321020 -0.486671
vt 0.379377 -0.505247
vt 0.302399 -0.697046
vt 0.430743 -0.532773
vt 0.387804 -0.681002
vt 0.475062 -0.569317
vt 0.509690 -0.618266
vt 0.491027 -0.642153
vt 0.193884 0.479470
vt 0.145969 0.634069
vt 0.123568 0.569471
vt 0.185084 0.677275
vt 0.310459 0.703343
vt 0.395864 0.687300
vt 0.387437 0.511545
vt 0.499087 0.648450
vt 0.483122 0.575614
vt 0.438803 0.539070
vt 0.517750 0.624563
vt 0.677275 -0.112195
vt 0.499087 -0.224223
vt -0.575614 -0.196216
vt -0.193884 -0.056181
vt -0.115508 -0.563173
vt -0.177024 -0.670977
vt -0.231968 -0.693922
vt -0.302399 -0.697046
vt -0.321020 -0.486671
vt -0.387804 -0.681002
vt -0.379377 -0.505247
vt -0.491027 -0.642153
vt -0.475062 -0.569317
vt -0.509690 -0.618266
vt -0.430743 -0.532773
vt -0.123568 0.569471
vt -0.193884 0.479470
vt -0.329080 0.492968
vt -0.240028 0.700220
vt -0.387437 0.511545
vt -0.310459 0.703343
vt -0.438803 0.539070
vt -0.395864 0.687300
vt -0.483122 0.575614
vt -0.517750 0.624563
vt -0.499087 0.648450
vt -0.677275 -0.112195
vt -0.310459 -0.168209
vt -0.499087 -0.224223
vt 0.575614 -0.196216
vt 0.438803 -0.168209
vt 0.193884 -0.056181
vt -0.479470 -0.056181
s 0
f 141/225/123 142/226/123 143/227/123
f 144/228/124 149/229/124 146/230/124
f 144/231/125 136/232/125 135/233/125
f 145/234/126 137/235/126 136/232/126
f 146/236/127 138/237/127 137/238/127
f 147/239/128 139/240/128 138/237/128
f 148/241/129 140/242/129 139/240/129
f 149/243/130 141/244/130 140/242/130
f 150/245/131 142/246/131 141/244/131
f 151/247/132 143/248/132 142/249/132
f 152/250/133 135/251/133 143/252/133
f 161/253/123 159/254/123 155/255/123
f 167/256/124 168/257/124 164/258/124
f 154/259/125 162/260/125 153/261/125
f 155/262/134 163/263/134 154/259/134
f 156/264/135 164/265/135 155/266/135
f 157/267/136 165/268/136 156/264/136
f 158/269/137 166/270/137 157/267/137
f 159/271/138 167/272/138 158/269/138
f 160/273/139 168/274/139 159/275/139
f 161/276/132 169/277/132 160/273/132
f 153/278/140 170/279/140 161/280/140
f 176/281/123 177/282/123 180/283/123
f 187/284/124 186/285/124 183/286/124
f 182/287/141 172/288/141 171/289/141
f 172/288/142 184/290/142 173/291/142
f 184/290/143 174/292/143 173/291/143
f 185/293/144 175/294/144 174/295/144
f 186/296/145 176/297/145 175/294/145
f 187/298/146 177/299/146 176/297/146
f 188/300/147 178/301/147 177/299/147
f 189/302/148 179/303/148 178/304/148
f 190/305/149 180/306/149 179/303/149
f 191/307/150 181/308/150 180/306/150
f 192/309/125 171/310/125 181/311/125
f 196/312/151 195/313/151 205/314/151
f 218/315/152 219/316/152 210/317/152
f 194/318/153 207/319/153 193/320/153
f 195/321/154 208/322/154 194/318/154
f 196/323/155 209/324/155 195/325/155
f 197/326/156 210/327/156 196/323/156
f 198/328/157 211/329/157 197/326/157
f 199/330/158 212/331/158 198/328/158
f 200/332/159 213/333/159 199/334/159
f 201/335/160 214/336/160 200/332/160
f 202/337/161 215/338/161 201/339/161
f 203/340/162 216/341/162 202/337/162
f 203/340/163 218/342/163 217/343/163
f 204/344/164 219/345/164 218/342/164
f 206/346/165 219/345/165 205/347/165
f 206/348/166 207/319/166 220/349/166
f 233/350/167 234/351/167 222/352/167
f 237/353/168 236/354/168 247/355/168
f 235/356/169 222/357/169 221/358/169
f 236/359/170 223/360/170 222/357/170
f 237/361/171 224/362/171 223/363/171
f 238/364/172 225/365/172 224/362/172
f 225/365/173 240/366/173 226/367/173
f 240/366/174 227/368/174 226/367/174
f 241/369/175 228/370/175 227/371/175
f 242/372/176 229/373/176 228/370/176
f 243/374/177 230/375/177 229/376/177
f 230/375/178 245/377/178 231/378/178
f 231/378/179 246/379/179 232/380/179
f 246/379/180 233/381/180 232/380/180
f 247/382/181 234/383/181 233/381/181
f 234/384/182 235/356/182 221/358/182
f 143/227/123 135/385/123 140/386/123
f 135/385/123 136/387/123 137/388/123
f 140/386/123 135/385/123 137/388/123
f 137/388/123 138/389/123 139/390/123
f 140/386/123 137/388/123 139/390/123
f 140/386/123 141/225/123 143/227/123
f 144/228/124 152/391/124 149/229/124
f 152/391/124 151/392/124 150/393/124
f 149/229/124 152/391/124 150/393/124
f 149/229/124 148/394/124 146/230/124
f 148/394/124 147/395/124 146/230/124
f 146/230/124 145/396/124 144/228/124
f 144/231/125 145/234/125 136/232/125
f 145/234/126 146/397/126 137/235/126
f 146/236/127 147/239/127 138/237/127
f 147/239/128 148/241/128 139/240/128
f 148/241/129 149/243/129 140/242/129
f 149/243/130 150/245/130 141/244/130
f 150/245/131 151/398/131 142/246/131
f 151/247/132 152/399/132 143/248/132
f 152/250/133 144/400/133 135/251/133
f 154/401/123 153/402/123 155/255/123
f 153/402/123 161/253/123 155/255/123
f 161/253/123 160/403/123 159/254/123
f 159/254/123 158/404/123 155/255/123
f 158/404/123 157/405/123 156/406/123
f 155/255/123 158/404/123 156/406/123
f 169/407/124 170/408/124 168/257/124
f 170/408/124 162/409/124 164/258/124
f 168/257/124 170/408/124 164/258/124
f 162/409/124 163/410/124 164/258/124
f 164/258/124 165/411/124 167/256/124
f 165/411/124 166/412/124 167/256/124
f 154/259/125 163/263/125 162/260/125
f 155/262/134 164/413/134 163/263/134
f 156/264/135 165/268/135 164/265/135
f 157/267/136 166/270/136 165/268/136
f 158/269/137 167/272/137 166/270/137
f 159/271/138 168/414/138 167/272/138
f 160/273/139 169/277/139 168/274/139
f 161/276/132 170/415/132 169/277/132
f 153/278/140 162/416/140 170/279/140
f 181/417/123 171/418/123 176/281/123
f 171/418/123 172/419/123 176/281/123
f 172/419/123 173/420/123 175/421/123
f 173/420/123 174/422/123 175/421/123
f 180/283/123 181/417/123 176/281/123
f 178/423/123 179/424/123 177/282/123
f 179/424/123 180/283/123 177/282/123
f 172/419/123 175/421/123 176/281/123
f 182/425/124 192/426/124 187/284/124
f 192/426/124 191/427/124 187/284/124
f 191/427/124 190/428/124 188/429/124
f 190/428/124 189/430/124 188/429/124
f 183/286/124 182/425/124 187/284/124
f 185/431/124 184/432/124 186/285/124
f 184/432/124 183/286/124 186/285/124
f 191/427/124 188/429/124 187/284/124
f 182/287/141 183/433/141 172/288/141
f 172/288/142 183/433/142 184/290/142
f 184/290/143 185/434/143 174/292/143
f 185/293/144 186/296/144 175/294/144
f 186/296/145 187/298/145 176/297/145
f 187/298/146 188/300/146 177/299/146
f 188/300/147 189/435/147 178/301/147
f 189/302/148 190/305/148 179/303/148
f 190/305/149 191/307/149 180/306/149
f 191/307/150 192/436/150 181/308/150
f 192/309/125 182/437/125 171/310/125
f 194/438/151 193/439/151 206/440/151
f 206/440/151 205/314/151 194/438/151
f 205/314/151 204/441/151 196/312/151
f 194/438/151 205/314/151 195/313/151
f 204/441/151 203/442/151 197/443/151
f 203/442/151 202/444/151 198/445/151
f 202/444/151 201/446/151 198/445/151
f 201/446/151 200/447/151 199/448/151
f 198/445/151 201/446/151 199/448/151
f 198/445/151 197/443/151 203/442/151
f 197/443/151 196/312/151 204/441/151
f 219/316/152 220/449/152 208/450/152
f 220/449/152 207/451/152 208/450/152
f 208/450/152 209/452/152 219/316/152
f 209/452/152 210/317/152 219/316/152
f 210/317/152 211/453/152 218/315/152
f 211/453/152 212/454/152 217/455/152
f 212/454/152 213/456/152 215/457/152
f 217/455/152 212/454/152 216/458/152
f 213/456/152 214/459/152 215/457/152
f 215/457/152 216/458/152 212/454/152
f 217/455/152 218/315/152 211/453/152
f 194/318/153 208/322/153 207/319/153
f 195/321/154 209/460/154 208/322/154
f 196/323/155 210/327/155 209/324/155
f 197/326/156 211/329/156 210/327/156
f 198/328/157 212/331/157 211/329/157
f 199/330/158 213/461/158 212/331/158
f 200/332/159 214/336/159 213/333/159
f 201/335/160 215/462/160 214/336/160
f 202/337/161 216/341/161 215/338/161
f 203/340/183 217/343/183 216/341/183
f 203/340/163 204/344/163 218/342/163
f 204/344/164 205/347/164 219/345/164
f 206/346/165 220/463/165 219/345/165
f 206/348/166 193/320/166 207/319/166
f 234/351/167 221/464/167 222/352/167
f 222/352/167 223/465/167 233/350/167
f 223/465/167 224/466/167 233/350/167
f 224/466/167 225/467/167 232/468/167
f 225/467/167 226/469/167 231/470/167
f 232/468/167 225/467/167 231/470/167
f 226/469/167 227/471/167 229/472/167
f 227/471/167 228/473/167 229/472/167
f 229/472/167 230/474/167 226/469/167
f 230/474/167 231/470/167 226/469/167
f 232/468/167 233/350/167 224/466/167
f 235/475/168 248/476/168 236/354/168
f 248/476/168 247/355/168 236/354/168
f 247/355/168 246/477/168 238/478/168
f 246/477/168 245/479/168 239/480/168
f 247/355/168 238/478/168 237/353/168
f 245/479/168 244/481/168 240/482/168
f 244/481/168 243/483/168 240/482/168
f 243/483/168 242/484/168 241/485/168
f 241/485/168 240/482/168 243/483/168
f 240/482/168 239/480/168 245/479/168
f 239/480/168 238/478/168 246/477/168
f 235/356/169 236/359/169 222/357/169
f 236/359/170 237/486/170 223/360/170
f 237/361/171 238/364/171 224/362/171
f 238/364/172 239/487/172 225/365/172
f 225/365/173 239/487/173 240/366/173
f 240/366/174 241/488/174 227/368/174
f 241/369/175 242/372/175 228/370/175
f 242/372/176 243/489/176 229/373/176
f 243/374/177 244/490/177 230/375/177
f 230/375/184 244/490/184 245/377/184
f 231/378/179 245/377/179 246/379/179
f 246/379/180 247/382/180 233/381/180
f 247/382/181 248/491/181 234/383/181
f 234/384/182 248/492/182 235/356/182
