# Blender 5.0.1
# www.blender.org
mtllib marine_a.mtl
o body
usemtl body
v 0.003000 0.042000 0.110000
v 0.002121 0.044687 0.110000
v 0.000000 0.045800 0.110000
v -0.002121 0.044687 0.110000
v -0.003000 0.042000 0.110000
v -0.002121 0.039596 0.110000
v -0.000000 0.038600 0.110000
v 0.002121 0.039596 0.110000
v 0.008500 0.043000 0.098000
v 0.006010 0.050425 0.098000
v 0.000000 0.053500 0.098000
v -0.006010 0.050425 0.098000
v -0.008500 0.043000 0.098000
v -0.006010 0.036495 0.098000
v -0.000000 0.033800 0.098000
v 0.006010 0.036495 0.098000
v 0.013500 0.044000 0.080000
v 0.009546 0.057081 0.080000
v 0.000000 0.062500 0.080000
v -0.009546 0.057081 0.080000
v -0.013500 0.044000 0.080000
v -0.009546 0.032686 0.080000
v -0.000000 0.028000 0.080000
v 0.009546 0.032686 0.080000
v 0.015200 0.044000 0.055000
v 0.010748 0.061536 0.055000
v 0.000000 0.068800 0.055000
v -0.010748 0.061536 0.055000
v -0.015200 0.044000 0.055000
v -0.010748 0.028302 0.055000
v -0.000000 0.021800 0.055000
v 0.010748 0.028302 0.055000
v 0.014500 0.043000 0.022000
v 0.010253 0.061950 0.022000
v 0.000000 0.069800 0.022000
v -0.010253 0.061950 0.022000
v -0.014500 0.043000 0.022000
v -0.010253 0.026171 0.022000
v -0.000000 0.019200 0.022000
v 0.010253 0.026171 0.022000
v 0.010500 0.042000 -0.014000
v 0.007425 0.055859 -0.014000
v 0.000000 0.061600 -0.014000
v -0.007425 0.055859 -0.014000
v -0.010500 0.042000 -0.014000
v -0.007425 0.030121 -0.014000
v -0.000000 0.025200 -0.014000
v 0.007425 0.030121 -0.014000
v 0.004800 0.041000 -0.042000
v 0.003394 0.047223 -0.042000
v 0.000000 0.049800 -0.042000
v -0.003394 0.047223 -0.042000
v -0.004800 0.041000 -0.042000
v -0.003394 0.035909 -0.042000
v -0.000000 0.033800 -0.042000
v 0.003394 0.035909 -0.042000
v 0.002600 0.041000 -0.056000
v 0.001838 0.044394 -0.056000
v 0.000000 0.045800 -0.056000
v -0.001838 0.044394 -0.056000
v -0.002600 0.041000 -0.056000
v -0.001838 0.038172 -0.056000
v -0.000000 0.037000 -0.056000
v 0.001838 0.038172 -0.056000
v -0.013000 0.049500 0.075200
v -0.010467 0.047502 0.077301
v -0.013967 0.046268 0.077301
v -0.016130 0.049500 0.077301
v -0.013967 0.052732 0.077301
v -0.010467 0.051498 0.077301
v -0.012033 0.046268 0.080699
v -0.015533 0.047502 0.080699
v -0.015533 0.051498 0.080699
v -0.012033 0.052732 0.080699
v -0.009870 0.049500 0.080699
v -0.013000 0.049500 0.082800
v 0.013000 0.049500 0.075200
v 0.015533 0.047502 0.077301
v 0.012033 0.046268 0.077301
v 0.009870 0.049500 0.077301
v 0.012033 0.052732 0.077301
v 0.015533 0.051498 0.077301
v 0.013967 0.046268 0.080699
v 0.010467 0.047502 0.080699
v 0.010467 0.051498 0.080699
v 0.013967 0.052732 0.080699
v 0.016130 0.049500 0.080699
v 0.013000 0.049500 0.082800
vn 0.6134 -0.0244 0.7894
vn 0.4640 0.3633 0.8079
vn -0.0000 0.5754 0.8179
vn -0.4640 0.3633 0.8079
vn -0.6134 -0.0244 0.7894
vn -0.4666 -0.4360 0.7696
vn -0.0000 -0.6500 0.7599
vn 0.4666 -0.4360 0.7696
vn 0.9404 -0.0172 0.3398
vn 0.6984 0.5836 0.4143
vn -0.0000 0.8775 0.4796
vn -0.6984 0.5836 0.4143
vn -0.9404 -0.0172 0.3398
vn -0.6908 -0.6452 0.3263
vn -0.0000 -0.9438 0.3305
vn 0.6908 -0.6452 0.3263
vn 0.9858 -0.0145 0.1675
vn 0.7593 0.6024 0.2460
vn -0.0000 0.9469 0.3214
vn -0.7593 0.6024 0.2460
vn -0.9858 -0.0145 0.1675
vn -0.7418 -0.6395 0.2022
vn -0.0000 -0.9672 0.2541
vn 0.7418 -0.6395 0.2022
vn 0.9993 -0.0143 0.0357
vn 0.8072 0.5854 0.0755
vn -0.0000 0.9925 0.1225
vn -0.8072 0.5854 0.0755
vn -0.9993 -0.0143 0.0357
vn -0.7875 -0.6097 0.0899
vn -0.0000 -0.9891 0.1470
vn 0.7875 -0.6097 0.0899
vn 0.9979 -0.0162 -0.0625
vn 0.8302 0.5519 -0.0781
vn -0.0000 0.9957 -0.0923
vn -0.8302 0.5519 -0.0781
vn -0.9979 -0.0162 -0.0625
vn -0.8097 -0.5851 -0.0461
vn -0.0000 -0.9991 -0.0415
vn 0.8097 -0.5851 -0.0461
vn 0.9879 -0.0172 -0.1544
vn 0.8221 0.5271 -0.2152
vn -0.0000 0.9547 -0.2977
vn -0.8221 0.5271 -0.2152
vn -0.9879 -0.0172 -0.1544
vn -0.7996 -0.5737 -0.1777
vn -0.0000 -0.9749 -0.2225
vn 0.7996 -0.5737 -0.1777
vn 0.9839 -0.0261 -0.1771
vn 0.8230 0.5163 -0.2369
vn -0.0000 0.9410 -0.3383
vn -0.8230 0.5163 -0.2369
vn -0.9839 -0.0261 -0.1771
vn -0.7865 -0.5820 -0.2065
vn -0.0000 -0.9664 -0.2571
vn 0.7865 -0.5820 -0.2065
vn 0.7005 -0.0152 -0.7135
vn 0.6025 0.3649 -0.7098
vn -0.0000 0.7184 -0.6956
vn -0.6025 0.3649 -0.7098
vn -0.7005 -0.0152 -0.7135
vn -0.5809 -0.4133 -0.7013
vn -0.0000 -0.7257 -0.6880
vn 0.5808 -0.4133 -0.7013
vn 0.0001 -0.0000 -1.0000
vn 0.7329 -0.5182 -0.4409
vn -0.2827 -0.8491 -0.4463
vn -0.8995 -0.0000 -0.4370
vn -0.2827 0.8491 -0.4463
vn 0.7329 0.5182 -0.4409
vn 0.2827 -0.8491 0.4463
vn -0.7329 -0.5182 0.4409
vn -0.7329 0.5182 0.4409
vn 0.2827 0.8491 0.4463
vn 0.8995 -0.0000 0.4370
vn -0.0001 -0.0000 1.0000
vt -0.809917 0.008264
vt -0.909091 0.022207
vt -0.909091 0.000000
vt 0.049673 0.809917
vt 0.000000 0.909091
vt 0.017532 0.909091
vt -0.049673 0.809917
vt -0.017532 0.909091
vt 0.909091 0.022207
vt 0.809917 0.008264
vt 0.909091 0.000000
vt 0.809917 -0.045499
vt 0.909091 -0.019869
vt -0.017532 -0.909091
vt -0.000000 -0.809917
vt -0.000000 -0.909091
vt 0.017532 -0.909091
vt -0.809917 -0.045499
vt -0.909091 -0.019869
vt -0.661157 0.016529
vt -0.809917 0.069625
vt 0.078892 0.661157
vt 0.000000 0.809917
vt -0.078892 0.661157
vt 0.809917 0.069625
vt 0.661157 0.016529
vt 0.661157 -0.076973
vt -0.078892 -0.661157
vt -0.049673 -0.809917
vt 0.078892 -0.661157
vt 0.049673 -0.809917
vt -0.661157 -0.076973
vt -0.454545 0.016529
vt -0.661157 0.124640
vt 0.088827 0.454545
vt 0.000000 0.661157
vt -0.088827 0.454545
vt 0.661157 0.124640
vt 0.454545 0.016529
vt -0.088827 -0.454545
vt -0.000000 -0.661157
vt 0.088827 -0.454545
vt -0.181818 0.164880
vt -0.454545 0.161457
vt 0.084736 0.181818
vt 0.000000 0.454545
vt -0.084736 0.181818
vt 0.181818 0.164880
vt 0.454545 0.161457
vt 0.181818 0.008264
vt 0.454545 -0.113205
vt -0.084736 -0.181818
vt -0.000000 -0.454545
vt 0.084736 -0.181818
vt -0.454545 -0.113205
vt -0.181818 0.008264
vt 0.115702 0.114540
vt 0.000000 -0.115702
vt 0.000000 0.181818
vt -0.115702 0.114540
vt -0.115702 -0.098177
vt 0.181818 -0.130819
vt -0.000000 0.115702
vt -0.000000 -0.181818
vt 0.115702 -0.098177
vt -0.181818 -0.130819
vt 0.115702 0.000000
vt 0.347107 0.043161
vt 0.061361 -0.115702
vt 0.000000 -0.347107
vt -0.061361 -0.115702
vt -0.347107 0.043161
vt -0.115702 0.000000
vt -0.347107 -0.050340
vt -0.061361 0.115702
vt -0.000000 0.347107
vt 0.061361 0.115702
vt 0.347107 -0.050340
vt 0.347107 -0.008264
vt 0.462810 0.019786
vt 0.028051 -0.347107
vt 0.000000 -0.462810
vt -0.028051 -0.347107
vt -0.462810 0.019786
vt -0.347107 -0.008264
vt -0.462810 -0.031640
vt -0.028051 0.347107
vt -0.000000 0.462810
vt 0.028051 0.347107
vt 0.462810 -0.031640
vt -0.017532 -0.019869
vt -0.000000 -0.028099
vt 0.017532 -0.019869
vt 0.015194 0.019786
vt -0.000000 0.031405
vt -0.015194 0.019786
vt 0.107438 0.061983
vt 0.086507 0.045473
vt 0.115433 0.035269
vt 0.086507 0.078494
vt 0.133310 0.061983
vt 0.115433 0.088698
vt -0.638848 0.045473
vt -0.638848 0.078494
vt -0.666937 0.061983
vt -0.115433 -0.638848
vt -0.086507 -0.638848
vt -0.099443 -0.666937
vt 0.638848 0.061983
vt 0.638848 0.035269
vt 0.666937 0.045473
vt 0.638848 0.088698
vt 0.666937 0.078494
vt -0.086507 0.638848
vt -0.115433 0.638848
vt -0.099443 0.666937
vt -0.666937 0.035269
vt -0.128369 -0.666937
vt -0.128369 0.666937
vt -0.666937 0.088698
vt -0.099443 0.035269
vt -0.081566 0.061983
vt -0.107438 0.061983
vt -0.128369 0.045473
vt -0.128369 0.078494
vt -0.099443 0.088698
vt 0.099443 -0.638848
vt 0.128369 -0.638848
vt 0.115433 -0.666937
vt 0.128369 0.638848
vt 0.099443 0.638848
vt 0.115433 0.666937
vt 0.086507 -0.666937
vt 0.086507 0.666937
vt 0.462810 -0.008264
vt 0.015194 -0.462810
vt -0.015194 -0.462810
vt -0.462810 -0.008264
vt -0.015194 0.462810
vt 0.015194 0.462810
vt 0.024793 0.000000
vt -0.024793 0.000000
vt 0.017532 0.022207
vt -0.017532 0.022207
vt 0.000000 0.031405
vt -0.021488 -0.008264
vt 0.021488 -0.008264
vt -0.015194 -0.031640
vt 0.015194 -0.031640
vt 0.000000 -0.041322
s 1
f 9/1/9 2/2/2 1/3/1
f 10/4/10 3/5/3 2/6/2
f 3/5/3 12/7/12 4/8/4
f 4/9/4 13/10/13 5/11/5
f 5/11/5 14/12/14 6/13/6
f 6/14/6 15/15/15 7/16/7
f 15/15/15 8/17/8 7/16/7
f 16/18/16 1/3/1 8/19/8
f 17/20/17 10/21/10 9/1/9
f 18/22/18 11/23/11 10/4/10
f 11/23/11 20/24/20 12/7/12
f 12/25/12 21/26/21 13/10/13
f 13/10/13 22/27/22 14/12/14
f 22/28/22 15/15/15 14/29/14
f 15/15/15 24/30/24 16/31/16
f 24/32/24 9/1/9 16/18/16
f 25/33/25 18/34/18 17/20/17
f 26/35/26 19/36/19 18/22/18
f 19/36/19 28/37/28 20/24/20
f 20/38/20 29/39/29 21/26/21
f 29/39/29 22/27/22 21/26/21
f 30/40/30 23/41/23 22/28/22
f 23/41/23 32/42/32 24/30/24
f 24/32/24 25/33/25 17/20/17
f 25/33/25 34/43/34 26/44/26
f 34/45/34 27/46/27 26/35/26
f 27/46/27 36/47/36 28/37/28
f 36/48/36 29/39/29 28/49/28
f 37/50/37 30/51/30 29/39/29
f 38/52/38 31/53/31 30/40/30
f 31/53/31 40/54/40 32/42/32
f 32/55/32 33/56/33 25/33/25
f 33/56/33 42/57/42 34/43/34
f 34/45/34 43/58/43 35/59/35
f 43/58/43 36/47/36 35/59/35
f 44/60/44 37/50/37 36/48/36
f 37/50/37 46/61/46 38/62/38
f 38/52/38 47/63/47 39/64/39
f 47/63/47 40/54/40 39/64/39
f 48/65/48 33/56/33 40/66/40
f 41/67/41 50/68/50 42/57/42
f 42/69/42 51/70/51 43/58/43
f 51/70/51 44/71/44 43/58/43
f 52/72/52 45/73/45 44/60/44
f 45/73/45 54/74/54 46/61/46
f 46/75/46 55/76/55 47/63/47
f 55/76/55 48/77/48 47/63/47
f 56/78/56 41/67/41 48/65/48
f 49/79/49 58/80/58 50/68/50
f 50/81/50 59/82/59 51/70/51
f 59/82/59 52/83/52 51/70/51
f 60/84/60 53/85/53 52/72/52
f 53/85/53 62/86/62 54/74/54
f 54/87/54 63/88/63 55/76/55
f 63/88/63 56/89/56 55/76/55
f 64/90/64 49/79/49 56/78/56
f 6/91/6 7/92/7 8/93/8
f 60/94/60 59/95/59 58/96/58
f 65/97/65 66/98/66 67/99/67
f 66/98/66 65/97/65 70/100/70
f 65/97/65 67/99/67 68/101/68
f 65/97/65 68/101/68 69/102/69
f 65/97/65 69/102/69 70/100/70
f 66/103/66 70/104/70 75/105/75
f 67/106/67 66/107/66 71/108/71
f 68/109/68 67/110/67 72/111/72
f 69/112/69 68/109/68 73/113/73
f 70/114/70 69/115/69 74/116/74
f 66/103/66 75/105/75 71/117/71
f 67/106/67 71/108/71 72/118/72
f 68/109/68 72/111/72 73/113/73
f 69/115/69 73/119/73 74/116/74
f 70/104/70 74/120/74 75/105/75
f 71/121/71 75/122/75 76/123/76
f 72/124/72 71/121/71 76/123/76
f 73/125/73 72/124/72 76/123/76
f 74/126/74 73/125/73 76/123/76
f 75/122/75 74/126/74 76/123/76
f 77/123/65 78/124/66 79/121/67
f 78/124/66 77/123/65 82/125/70
f 77/123/65 79/121/67 80/122/68
f 77/123/65 80/122/68 81/126/69
f 77/123/65 81/126/69 82/125/70
f 78/103/66 82/104/70 87/105/75
f 79/127/67 78/128/66 83/129/71
f 80/109/68 79/110/67 84/111/72
f 81/112/69 80/109/68 85/113/73
f 82/130/70 81/131/69 86/132/74
f 78/103/66 87/105/75 83/117/71
f 79/127/67 83/129/71 84/133/72
f 80/109/68 84/111/72 85/113/73
f 81/131/69 85/134/73 86/132/74
f 82/104/70 86/120/74 87/105/75
f 83/99/71 87/101/75 88/97/76
f 84/98/72 83/99/71 88/97/76
f 85/100/73 84/98/72 88/97/76
f 86/102/74 85/100/73 88/97/76
f 87/101/75 86/102/74 88/97/76
f 9/1/9 10/21/10 2/2/2
f 10/4/10 11/23/11 3/5/3
f 3/5/3 11/23/11 12/7/12
f 4/9/4 12/25/12 13/10/13
f 5/11/5 13/10/13 14/12/14
f 6/14/6 14/29/14 15/15/15
f 15/15/15 16/31/16 8/17/8
f 16/18/16 9/1/9 1/3/1
f 17/20/17 18/34/18 10/21/10
f 18/22/18 19/36/19 11/23/11
f 11/23/11 19/36/19 20/24/20
f 12/25/12 20/38/20 21/26/21
f 13/10/13 21/26/21 22/27/22
f 22/28/22 23/41/23 15/15/15
f 15/15/15 23/41/23 24/30/24
f 24/32/24 17/20/17 9/1/9
f 25/33/25 26/44/26 18/34/18
f 26/35/26 27/46/27 19/36/19
f 19/36/19 27/46/27 28/37/28
f 20/38/20 28/49/28 29/39/29
f 29/39/29 30/51/30 22/27/22
f 30/40/30 31/53/31 23/41/23
f 23/41/23 31/53/31 32/42/32
f 24/32/24 32/55/32 25/33/25
f 25/33/25 33/56/33 34/43/34
f 34/45/34 35/59/35 27/46/27
f 27/46/27 35/59/35 36/47/36
f 36/48/36 37/50/37 29/39/29
f 37/50/37 38/62/38 30/51/30
f 38/52/38 39/64/39 31/53/31
f 31/53/31 39/64/39 40/54/40
f 32/55/32 40/66/40 33/56/33
f 33/56/33 41/67/41 42/57/42
f 34/45/34 42/69/42 43/58/43
f 43/58/43 44/71/44 36/47/36
f 44/60/44 45/73/45 37/50/37
f 37/50/37 45/73/45 46/61/46
f 38/52/38 46/75/46 47/63/47
f 47/63/47 48/77/48 40/54/40
f 48/65/48 41/67/41 33/56/33
f 41/67/41 49/79/49 50/68/50
f 42/69/42 50/81/50 51/70/51
f 51/70/51 52/83/52 44/71/44
f 52/72/52 53/85/53 45/73/45
f 45/73/45 53/85/53 54/74/54
f 46/75/46 54/87/54 55/76/55
f 55/76/55 56/89/56 48/77/48
f 56/78/56 49/79/49 41/67/41
f 49/79/49 57/135/57 58/80/58
f 50/81/50 58/136/58 59/82/59
f 59/82/59 60/137/60 52/83/52
f 60/84/60 61/138/61 53/85/53
f 53/85/53 61/138/61 62/86/62
f 54/87/54 62/139/62 63/88/63
f 63/88/63 64/140/64 56/89/56
f 64/90/64 57/135/57 49/79/49
f 8/93/8 1/141/1 5/142/5
f 1/141/1 2/143/2 4/144/4
f 2/143/2 3/145/3 4/144/4
f 4/144/4 5/142/5 1/141/1
f 5/142/5 6/91/6 8/93/8
f 58/96/58 57/146/57 61/147/61
f 57/146/57 64/148/64 62/149/62
f 64/148/64 63/150/63 62/149/62
f 62/149/62 61/147/61 57/146/57
f 61/147/61 60/94/60 58/96/58
o fin
usemtl fin
v -0.001600 0.060000 0.062000
v -0.001600 0.068000 0.062000
v -0.001600 0.092796 0.044500
v -0.001600 0.094894 0.027000
v -0.001600 0.085720 0.009500
v -0.001600 0.066000 -0.008000
v -0.001600 0.060000 -0.008000
v 0.001600 0.060000 0.062000
v 0.001600 0.068000 0.062000
v 0.001600 0.092796 0.044500
v 0.001600 0.094894 0.027000
v 0.001600 0.085720 0.009500
v 0.001600 0.066000 -0.008000
v 0.001600 0.060000 -0.008000
v -0.001500 0.026000 0.002000
v -0.001500 0.021000 0.002000
v -0.001500 0.005648 -0.007000
v -0.001500 0.002163 -0.016000
v -0.001500 0.007746 -0.025000
v -0.001500 0.022000 -0.034000
v -0.001500 0.026000 -0.034000
v 0.001500 0.026000 0.002000
v 0.001500 0.021000 0.002000
v 0.001500 0.005648 -0.007000
v 0.001500 0.002163 -0.016000
v 0.001500 0.007746 -0.025000
v 0.001500 0.022000 -0.034000
v 0.001500 0.026000 -0.034000
v -0.001500 0.050000 -0.040000
v -0.001500 0.072046 -0.075000
v -0.001500 0.084000 -0.110000
v -0.001500 0.068040 -0.098800
v -0.001500 0.042000 -0.066000
v -0.001500 0.015960 -0.098800
v -0.001500 0.000000 -0.110000
v -0.001500 0.011954 -0.075000
v -0.001500 0.034000 -0.040000
v 0.001500 0.050000 -0.040000
v 0.001500 0.072046 -0.075000
v 0.001500 0.084000 -0.110000
v 0.001500 0.068040 -0.098800
v 0.001500 0.042000 -0.066000
v 0.001500 0.015960 -0.098800
v 0.001500 0.000000 -0.110000
v 0.001500 0.011954 -0.075000
v 0.001500 0.034000 -0.040000
v 0.008883 0.036134 0.054937
v 0.013695 0.031134 0.062675
v 0.023283 0.026134 0.064722
v 0.037543 0.021134 0.061200
v 0.038833 0.021134 0.059663
v 0.032154 0.026134 0.054149
v 0.023648 0.031134 0.050813
v 0.013743 0.036134 0.049144
v 0.009649 0.037866 0.055580
v 0.014461 0.032866 0.063318
v 0.024049 0.027866 0.065365
v 0.038309 0.022866 0.061843
v 0.039599 0.022866 0.060305
v 0.032920 0.027866 0.054792
v 0.024415 0.032866 0.051456
v 0.014510 0.037866 0.049787
v -0.008883 0.036134 0.054937
v -0.013695 0.031134 0.062675
v -0.023283 0.026134 0.064722
v -0.037543 0.021134 0.061200
v -0.038833 0.021134 0.059663
v -0.032154 0.026134 0.054149
v -0.023648 0.031134 0.050813
v -0.013743 0.036134 0.049144
v -0.009649 0.037866 0.055580
v -0.014461 0.032866 0.063318
v -0.024049 0.027866 0.065365
v -0.038309 0.022866 0.061843
v -0.039599 0.022866 0.060305
v -0.032920 0.027866 0.054792
v -0.024415 0.032866 0.051456
v -0.014510 0.037866 0.049787
vn -1.0000 -0.0000 -0.0000
vn 1.0000 -0.0000 -0.0000
vn -0.0000 -0.0000 1.0000
vn -0.0000 0.5766 0.8170
vn -0.0000 0.9929 0.1191
vn -0.0000 0.8857 -0.4643
vn -0.0000 0.6638 -0.7480
vn -0.0000 -0.0000 -1.0000
vn -0.0000 -1.0000 -0.0000
vn -0.0000 -0.5057 0.8627
vn -0.0000 -0.9325 0.3611
vn -0.0000 -0.8498 -0.5271
vn -0.0000 -0.5339 -0.8456
vn -0.0000 1.0000 -0.0000
vn -0.0000 0.8461 0.5330
vn -0.0000 0.9463 0.3232
vn -0.0000 -0.5744 -0.8186
vn -0.0000 -0.7832 -0.6218
vn -0.0000 0.7832 -0.6218
vn -0.0000 0.5744 -0.8186
vn -0.0000 -0.9463 0.3232
vn -0.0000 -0.8461 0.5330
vn -0.3830 -0.8660 -0.3214
vn 0.3830 0.8660 0.3214
vn -0.7994 0.1364 0.5852
vn -0.3071 -0.2088 0.9285
vn 0.0930 -0.3823 0.9193
vn 0.6634 -0.5000 0.5567
vn 0.6382 0.0035 -0.7699
vn 0.4317 0.1398 -0.8911
vn 0.2720 0.2268 -0.9352
vn -0.6634 0.5000 -0.5567
vn 0.3830 -0.8660 -0.3214
vn -0.3830 0.8660 0.3214
vn 0.7994 0.1364 0.5852
vn 0.3071 -0.2088 0.9285
vn -0.0930 -0.3823 0.9193
vn -0.6634 -0.5000 0.5567
vn -0.6382 0.0035 -0.7699
vn -0.4317 0.1398 -0.8911
vn -0.2720 0.2268 -0.9352
vn 0.6634 0.5000 -0.5567
vt 0.107955 0.496818
vt -0.090909 0.272727
vt -0.090909 0.204545
vt -0.704545 0.295455
vt -0.704545 0.204545
vt -0.107955 0.496818
vt 0.018182 0.204545
vt -0.018182 0.295455
vt -0.018182 0.204545
vt 0.018182 0.295455
vt -0.018182 0.577223
vt 0.018182 0.505682
vt -0.018182 0.306818
vt -0.018182 0.505682
vt 0.018182 0.306818
vt -0.018182 0.107955
vt -0.018182 0.496818
vt 0.018182 0.272727
vt 0.018182 0.496818
vt -0.018182 0.272727
vt 0.018182 0.204545
vt 0.018182 0.090909
vt -0.018182 -0.704545
vt -0.018182 0.090909
vt -0.079545 -0.413088
vt 0.022727 -0.238636
vt -0.284091 -0.389255
vt 0.284091 -0.389255
vt 0.386364 -0.227273
vt -0.022727 -0.238636
vt -0.017045 -0.238636
vt 0.017045 -0.181818
vt -0.017045 -0.181818
vt 0.017045 -0.413088
vt 0.017045 -0.238636
vt -0.017045 0.181818
vt 0.017045 0.079545
vt -0.017045 0.079545
vt -0.017045 0.284091
vt 0.017045 0.181818
vt 0.017045 -0.227273
vt -0.017045 -0.389255
vt 0.017045 -0.389255
vt 0.017045 -0.181818
vt -0.017045 -0.227273
vt -0.017045 0.022727
vt 0.017045 -0.386364
vt -0.017045 -0.386364
vt -0.852273 -0.341435
vt -0.454545 -0.090909
vt -0.750000 0.000000
vt 0.852273 0.341435
vt 0.454545 0.090909
vt 0.750000 0.000000
vt 0.017045 -0.454545
vt -0.017045 -0.852273
vt -0.017045 -0.454545
vt 0.017045 -0.852273
vt -0.017045 -1.250000
vt -0.017046 0.477273
vt 0.017045 0.295909
vt 0.017045 0.477273
vt 0.017046 1.122727
vt -0.017045 0.750000
vt -0.017045 1.122727
vt 0.017045 -0.750000
vt -0.017045 -1.122727
vt -0.017045 -0.750000
vt 0.017045 -0.295909
vt -0.017046 -0.477273
vt 0.017045 -0.477273
vt 0.017046 1.250000
vt -0.017045 0.852273
vt -0.017045 1.250000
vt 0.017045 0.852273
vt -0.017045 0.454545
vt 0.017045 -0.090909
vt -0.017045 0.090909
vt -0.017045 -0.090909
vt 0.426625 -0.695455
vt 0.264575 -0.735477
vt 0.365389 -0.615331
vt 0.374094 0.622636
vt 0.277438 0.584724
vt 0.273280 0.742781
vt 0.624283 -0.066659
vt 0.719523 -0.103795
vt 0.631588 -0.046977
vt 0.264575 -0.180296
vt 0.164329 -0.103795
vt 0.155624 -0.123478
vt 0.426625 -0.237114
vt 0.273280 -0.160613
vt -0.677984 -0.237114
vt -0.702760 -0.217432
vt -0.695455 -0.237114
vt -0.441285 -0.237114
vt -0.374094 -0.160613
vt -0.449990 -0.217432
vt -0.268733 -0.123478
vt -0.365389 -0.180296
vt -0.156176 -0.066659
vt -0.277438 -0.103795
vt 0.558459 -0.066659
vt 0.565763 -0.046977
vt -0.268733 -0.577420
vt -0.156176 -0.558459
vt -0.155624 -0.712218
vt -0.273280 0.742781
vt -0.164329 0.719523
vt -0.277438 0.584724
vt -0.624283 -0.066659
vt -0.719523 -0.103795
vt -0.712218 -0.123478
vt -0.164329 -0.103795
vt -0.264575 -0.180296
vt -0.155624 -0.123478
vt -0.435330 -0.217432
vt -0.426625 -0.237114
vt 0.702760 -0.217432
vt 0.677984 -0.237114
vt 0.695455 -0.237114
vt 0.441285 -0.237114
vt 0.374094 -0.160613
vt 0.365389 -0.180296
vt 0.277438 -0.103795
vt 0.268733 -0.123478
vt 0.156176 -0.066659
vt -0.558459 -0.066659
vt -0.631588 -0.046977
vt 0.704545 0.204545
vt 0.704545 0.295455
vt 0.505682 0.577223
vt 0.306818 0.601070
vt 0.090909 0.204545
vt 0.090909 0.272727
vt -0.306818 0.601070
vt -0.505682 0.577223
vt 0.018182 0.577223
vt 0.018182 0.107955
vt -0.018182 0.204545
vt 0.018182 -0.704545
vt 0.022727 -0.181818
vt -0.386364 -0.227273
vt -0.386364 -0.181818
vt -0.181818 -0.452693
vt 0.386364 -0.181818
vt -0.022727 -0.181818
vt 0.079545 -0.413088
vt 0.181818 -0.452693
vt -0.017045 -0.413088
vt 0.017045 0.284091
vt -0.017045 -0.181818
vt 0.017045 0.022727
vt -0.454545 0.090909
vt -0.852273 0.341435
vt -1.250000 0.477273
vt -1.122727 0.295909
vt -1.122727 -0.295909
vt -1.250000 -0.477273
vt 0.454545 -0.090909
vt 0.852273 -0.341435
vt 1.250000 -0.477273
vt 1.122727 -0.295909
vt 1.122727 0.295909
vt 1.250000 0.477273
vt 0.017046 -1.250000
vt -0.017046 0.295909
vt 0.017045 0.750000
vt 0.017046 -1.122727
vt -0.017046 -0.295909
vt 0.017045 0.454545
vt 0.017045 0.090909
vt 0.155624 -0.712218
vt 0.100942 -0.624283
vt 0.156176 -0.558459
vt 0.268733 -0.577420
vt 0.441285 -0.677984
vt 0.164881 0.565763
vt 0.164329 0.719523
vt 0.109647 0.631588
vt 0.435330 0.702760
vt 0.449990 0.685289
vt 0.712218 -0.123478
vt 0.435330 -0.217432
vt -0.685289 -0.217432
vt -0.164881 -0.046977
vt -0.100942 -0.624283
vt -0.264575 -0.735477
vt -0.426625 -0.695455
vt -0.365389 -0.615331
vt -0.441285 -0.677984
vt -0.109647 0.631588
vt -0.164881 0.565763
vt -0.374094 0.622636
vt -0.449990 0.685289
vt -0.435330 0.702760
vt -0.273280 -0.160613
vt 0.685289 -0.217432
vt 0.449990 -0.217432
vt 0.164881 -0.046977
vt -0.565763 -0.046977
s 0
f 93/151/77 94/152/77 95/153/77
f 97/154/78 96/155/78 100/156/78
f 96/157/79 90/158/79 89/159/79
f 97/160/80 91/161/80 90/158/80
f 98/162/81 92/163/81 91/164/81
f 99/165/82 93/166/82 92/163/82
f 100/167/83 94/168/83 93/169/83
f 101/170/84 95/171/84 94/168/84
f 102/172/85 89/173/85 95/174/85
f 105/175/77 104/176/77 107/177/77
f 114/178/78 115/179/78 111/180/78
f 104/181/79 110/182/79 103/183/79
f 104/181/86 112/184/86 111/185/86
f 106/186/87 112/187/87 105/188/87
f 107/189/88 113/190/88 106/186/88
f 108/191/89 114/192/89 107/193/89
f 109/194/84 115/195/84 108/191/84
f 103/196/90 116/197/90 109/198/90
f 124/199/77 125/200/77 121/201/77
f 127/202/78 126/203/78 130/204/78
f 126/205/91 118/206/91 117/207/91
f 127/208/92 119/209/92 118/206/92
f 128/210/93 120/211/93 119/212/93
f 129/213/94 121/214/94 120/215/94
f 130/216/95 122/217/95 121/218/95
f 122/219/96 132/220/96 123/221/96
f 132/222/97 124/223/97 123/224/97
f 133/225/98 125/226/98 124/223/98
f 134/227/79 117/228/79 125/229/79
f 138/230/99 137/231/99 140/232/99
f 148/233/100 149/234/100 145/235/100
f 135/236/101 144/237/101 143/238/101
f 137/239/102 144/240/102 136/241/102
f 138/242/103 145/243/103 137/239/103
f 139/244/104 146/245/104 138/246/104
f 139/247/105 148/248/105 147/249/105
f 141/250/106 148/248/106 140/251/106
f 142/252/107 149/253/107 141/250/107
f 142/254/108 143/238/108 150/255/108
f 157/256/109 158/257/109 152/258/109
f 161/259/110 160/260/110 165/261/110
f 151/262/111 160/263/111 152/264/111
f 160/265/112 153/266/112 152/267/112
f 153/266/113 162/268/113 154/269/113
f 162/270/114 155/271/114 154/272/114
f 155/273/115 164/274/115 156/275/115
f 156/275/116 165/276/116 157/277/116
f 165/276/117 158/278/117 157/277/117
f 158/279/118 159/280/118 151/262/118
f 95/153/77 89/281/77 93/151/77
f 89/281/77 90/282/77 93/151/77
f 90/282/77 91/283/77 92/284/77
f 92/284/77 93/151/77 90/282/77
f 96/155/78 102/285/78 100/156/78
f 102/285/78 101/286/78 100/156/78
f 100/156/78 99/287/78 97/154/78
f 99/287/78 98/288/78 97/154/78
f 96/157/79 97/160/79 90/158/79
f 97/160/80 98/289/80 91/161/80
f 98/162/81 99/165/81 92/163/81
f 99/165/82 100/290/82 93/166/82
f 100/167/83 101/170/83 94/168/83
f 101/170/84 102/291/84 95/171/84
f 102/172/85 96/292/85 89/173/85
f 104/176/77 103/293/77 108/294/77
f 103/293/77 109/295/77 108/294/77
f 108/294/77 107/177/77 104/176/77
f 107/177/77 106/296/77 105/175/77
f 115/179/78 116/297/78 110/298/78
f 110/298/78 111/180/78 115/179/78
f 111/180/78 112/299/78 114/178/78
f 112/299/78 113/300/78 114/178/78
f 104/181/79 111/185/79 110/182/79
f 104/181/86 105/301/86 112/184/86
f 106/186/87 113/190/87 112/187/87
f 107/189/88 114/302/88 113/190/88
f 108/191/89 115/195/89 114/192/89
f 109/194/84 116/303/84 115/195/84
f 103/196/90 110/304/90 116/197/90
f 125/200/77 117/305/77 121/201/77
f 117/305/77 118/306/77 121/201/77
f 118/306/77 119/307/77 120/308/77
f 121/201/77 122/309/77 124/199/77
f 122/309/77 123/310/77 124/199/77
f 118/306/77 120/308/77 121/201/77
f 126/203/78 134/311/78 130/204/78
f 134/311/78 133/312/78 130/204/78
f 133/312/78 132/313/78 131/314/78
f 130/204/78 129/315/78 127/202/78
f 129/315/78 128/316/78 127/202/78
f 133/312/78 131/314/78 130/204/78
f 126/205/91 127/208/91 118/206/91
f 127/208/92 128/317/92 119/209/92
f 128/210/93 129/318/93 120/211/93
f 129/213/94 130/319/94 121/214/94
f 130/216/95 131/320/95 122/217/95
f 122/219/96 131/321/96 132/220/96
f 132/222/97 133/225/97 124/223/97
f 133/225/98 134/322/98 125/226/98
f 134/227/79 126/323/79 117/228/79
f 136/324/99 135/325/99 142/326/99
f 142/326/99 141/327/99 136/324/99
f 141/327/99 140/232/99 137/231/99
f 136/324/99 141/327/99 137/231/99
f 140/232/99 139/328/99 138/230/99
f 149/234/100 150/329/100 144/330/100
f 150/329/100 143/331/100 144/330/100
f 144/330/100 145/235/100 149/234/100
f 145/235/100 146/332/100 148/233/100
f 146/332/100 147/333/100 148/233/100
f 135/236/101 136/334/101 144/237/101
f 137/239/102 145/243/102 144/240/102
f 138/242/103 146/335/103 145/243/103
f 139/244/104 147/336/104 146/245/104
f 139/247/105 140/251/105 148/248/105
f 141/250/106 149/253/106 148/248/106
f 142/252/107 150/337/107 149/253/107
f 142/254/108 135/236/108 143/238/108
f 158/257/109 151/338/109 152/258/109
f 152/258/109 153/339/109 157/256/109
f 153/339/109 154/340/109 156/341/109
f 154/340/109 155/342/109 156/341/109
f 156/341/109 157/256/109 153/339/109
f 159/343/110 166/344/110 160/260/110
f 166/344/110 165/261/110 160/260/110
f 165/261/110 164/345/110 161/259/110
f 164/345/110 163/346/110 162/347/110
f 161/259/110 164/345/110 162/347/110
f 151/262/111 159/280/111 160/263/111
f 160/265/112 161/348/112 153/266/112
f 153/266/113 161/348/113 162/268/113
f 162/270/114 163/349/114 155/271/114
f 155/273/115 163/350/115 164/274/115
f 156/275/116 164/274/116 165/276/116
f 165/276/117 166/351/117 158/278/117
f 158/279/118 166/352/118 159/280/118
