# Blender 5.0.1
# www.blender.org
o plankpile_a
v -1.074178 0.015112 -0.317708
v -1.054389 0.015112 -0.089061
v -1.074178 0.056368 -0.317708
v -1.054389 0.056368 -0.089061
v 0.678533 0.015112 -0.433581
v 0.698322 0.015112 -0.204934
v 0.678533 0.056368 -0.433581
v 0.698322 0.056368 -0.204934
v -0.950812 0.015112 -0.179033
v -0.967266 0.015112 0.075338
v -0.950812 0.056368 -0.179033
v -0.967266 0.056368 0.075338
v 0.882918 0.015112 -0.088425
v 0.866463 0.015112 0.165946
v 0.882918 0.056368 -0.088425
v 0.866463 0.056368 0.165946
v -1.045351 0.015112 0.129177
v -1.043912 0.015112 0.341488
v -1.045351 0.056368 0.129177
v -1.043912 0.056368 0.341488
v 0.532019 0.015112 0.121010
v 0.533458 0.015112 0.333321
v 0.532019 0.056368 0.121010
v 0.533458 0.056368 0.333321
v -0.865007 0.056368 -0.064407
v -0.800800 0.056368 0.166668
v -0.865007 0.095973 -0.064407
v -0.800800 0.095973 0.166668
v 0.638716 0.056368 -0.383577
v 0.702924 0.056368 -0.152502
v 0.638716 0.095973 -0.383577
v 0.702924 0.095973 -0.152502
v -0.941368 0.059668 -0.089486
v -0.984216 0.059668 0.110866
v -0.941368 0.099274 -0.089486
v -0.984216 0.099274 0.110866
v 0.511191 0.059668 0.147809
v 0.468343 0.059668 0.348161
v 0.511191 0.099274 0.147809
v 0.468343 0.099274 0.348161
v -0.727198 0.068709 0.076587
v -0.644882 0.068709 0.285345
v -0.729809 0.105765 0.077374
v -0.647492 0.105765 0.286131
v 0.407673 0.133213 -0.265248
v 0.489990 0.133213 -0.056490
v 0.405062 0.170269 -0.264461
v 0.487379 0.170269 -0.055704
v -0.141707 0.179217 -0.511839
v -0.235650 0.183363 -0.344064
v -0.134953 0.215853 -0.509909
v -0.228896 0.220000 -0.342134
v 1.019069 0.000000 -0.010656
v 0.925125 0.004147 0.157119
v 1.025823 0.036637 -0.008726
v 0.931880 0.040783 0.159048
vn -0.9963 -0.0000 0.0862
vn -0.0000 1.0000 -0.0000
vn 0.9963 -0.0000 -0.0862
vn -0.0000 -1.0000 -0.0000
vn -0.0660 -0.0000 -0.9978
vn 0.0660 -0.0000 0.9978
vn -0.9979 -0.0000 -0.0646
vn 0.9979 -0.0000 0.0646
vn 0.0494 -0.0000 -0.9988
vn -0.0494 -0.0000 0.9988
vn -1.0000 -0.0000 0.0068
vn 1.0000 -0.0000 -0.0068
vn -0.0052 -0.0000 -1.0000
vn 0.0052 -0.0000 1.0000
vn -0.9635 -0.0000 0.2677
vn 0.9635 -0.0000 -0.2677
vn -0.2076 -0.0000 -0.9782
vn 0.2076 -0.0000 0.9782
vn -0.9779 -0.0000 -0.2091
vn 0.9779 -0.0000 0.2091
vn 0.1612 -0.0000 -0.9869
vn -0.1612 -0.0000 0.9869
vn -0.9278 -0.0731 0.3658
vn -0.0507 0.9985 0.0200
vn 0.9278 0.0731 -0.3658
vn 0.0507 -0.9985 -0.0200
vn -0.2884 -0.0000 -0.9575
vn 0.2884 -0.0000 0.9575
vn -0.8558 0.1832 -0.4837
vn 0.1316 0.9901 0.0492
vn 0.8558 -0.1832 0.4837
vn -0.1316 -0.9901 -0.0492
vn 0.3931 -0.0241 -0.9192
vn -0.3931 0.0241 0.9192
vt -0.119150 0.000000
vt -0.534871 0.075010
vt -0.534871 0.000000
vt -1.663720 -0.119150
vt 1.487049 -0.745549
vt -1.699699 -0.534871
vt 0.329828 0.075010
vt 0.745549 0.000000
vt 0.745549 0.075010
vt 1.523028 0.329828
vt -1.699699 0.534871
vt 1.487049 0.745549
vt -1.487049 0.075010
vt 1.699699 0.000000
vt 1.699699 0.075010
vt -1.663720 0.075010
vt 1.523028 0.000000
vt 1.523028 0.075010
vt 0.179758 0.000000
vt -0.282736 0.075010
vt -0.282736 0.000000
vt -1.505314 0.179758
vt 1.858656 -0.117994
vt -1.475398 -0.282736
vt -0.344500 0.075010
vt 0.117994 0.000000
vt 0.117994 0.075010
vt 1.828740 -0.344500
vt -1.475398 0.282736
vt 1.858656 0.117994
vt -1.858656 0.075010
vt 1.475398 0.000000
vt 1.475398 0.075010
vt -1.505314 0.075010
vt 1.828740 0.000000
vt 1.828740 0.075010
vt 0.663666 0.000000
vt 0.277646 0.075010
vt 0.277646 0.000000
vt -1.644670 0.663666
vt 1.220660 0.262798
vt -1.647286 0.277646
vt -0.648817 0.075010
vt -0.262798 0.000000
vt -0.262798 0.075010
vt 1.220660 -0.262798
vt -1.644670 -0.663666
vt -1.647286 -0.277646
vt -1.220660 0.075010
vt 1.647286 0.000000
vt 1.647286 0.075010
vt -1.644670 0.075010
vt 1.223276 0.000000
vt 1.223276 0.075010
vt 0.345813 0.075010
vt -0.074325 0.147020
vt -0.074325 0.075010
vt -1.202649 0.345813
vt 1.414654 -0.654634
vt -1.319389 -0.074325
vt 0.234496 0.147020
vt 0.654634 0.075010
vt 0.654634 0.147020
vt 1.531394 0.234496
vt -1.319389 0.074325
vt 1.414654 0.654634
vt -1.414654 0.147020
vt 1.319389 0.075010
vt 1.319389 0.147020
vt -1.202649 0.147020
vt 1.531394 0.075010
vt 1.531394 0.147020
vt 0.244355 0.081011
vt -0.119922 0.153021
vt -0.119922 0.081011
vt -1.536132 0.244355
vt 1.182790 0.311524
vt -1.458227 -0.119922
vt -0.675800 0.153021
vt -0.311524 0.081011
vt -0.311524 0.153021
vt 1.182790 -0.311524
vt -1.536132 -0.244355
vt -1.458227 0.119922
vt -1.182790 0.153021
vt 1.458227 0.081011
vt 1.458227 0.153021
vt -1.536132 0.153021
vt 1.104885 0.081011
vt 1.104885 0.153021
vt 0.561588 0.097449
vt 0.183459 0.164824
vt 0.182029 0.097449
vt -1.073574 0.183459
vt 1.139496 -0.058500
vt 0.989829 -0.438060
vt 0.058500 0.282103
vt 0.439489 0.214728
vt 0.438060 0.282103
vt 0.994576 0.439489
vt -0.919160 -0.561588
vt -1.068827 -0.182029
vt 1.073574 0.164824
vt -0.994576 0.214728
vt 1.068827 0.097449
vt 1.139496 0.282103
vt -0.919160 0.097449
vt 1.144243 0.214728
vt -0.582791 0.305912
vt -0.884328 0.364984
vt -0.887836 0.298372
vt 0.007982 -0.884328
vt 1.947678 0.331958
vt 2.118484 0.026913
vt -0.331958 0.046676
vt -0.023405 -0.027476
vt -0.026913 0.039136
vt 1.935398 -0.328450
vt -0.004298 0.887836
vt 2.106204 -0.023405
vt -2.118484 0.039136
vt 0.004298 0.298372
vt -0.007982 0.364984
vt -0.162823 0.372524
vt 1.935398 -0.019936
vt 1.947678 0.046676
vt -0.119150 0.075010
vt 1.523028 -0.329828
vt 0.329828 0.000000
vt -1.663720 0.119150
vt -1.487049 0.000000
vt -1.663720 0.000000
vt 0.179758 0.075010
vt 1.828740 0.344500
vt -0.344500 0.000000
vt -1.505314 -0.179758
vt -1.858656 0.000000
vt -1.505314 0.000000
vt 0.663666 0.075010
vt 1.223276 0.648817
vt -0.648817 0.000000
vt 1.223276 -0.648817
vt -1.220660 0.000000
vt -1.644670 0.000000
vt 0.345813 0.147020
vt 1.531394 -0.234496
vt 0.234496 0.075010
vt -1.202649 -0.345813
vt -1.414654 0.075010
vt -1.202649 0.075010
vt 0.244355 0.153021
vt 1.104885 0.675800
vt -0.675800 0.081011
vt 1.104885 -0.675800
vt -1.182790 0.081011
vt -1.536132 0.081011
vt 0.563018 0.164824
vt -0.923907 0.563018
vt 0.059930 0.214728
vt 1.144243 0.059930
vt -0.989829 0.282103
vt -0.923907 0.164824
vt -0.579283 0.372524
vt -0.162823 -0.579283
vt -0.328450 -0.019936
vt -0.175103 0.582791
vt -2.106204 -0.027476
vt -0.175103 0.305912
s 0
f 2/1/1 3/2/1 1/3/1
f 4/4/2 7/5/2 3/6/2
f 8/7/3 5/8/3 7/9/3
f 6/10/4 1/11/4 5/12/4
f 7/13/5 1/14/5 3/15/5
f 4/16/6 6/17/6 8/18/6
f 10/19/7 11/20/7 9/21/7
f 12/22/2 15/23/2 11/24/2
f 16/25/8 13/26/8 15/27/8
f 14/28/4 9/29/4 13/30/4
f 15/31/9 9/32/9 11/33/9
f 12/34/10 14/35/10 16/36/10
f 18/37/11 19/38/11 17/39/11
f 20/40/2 23/41/2 19/42/2
f 24/43/12 21/44/12 23/45/12
f 21/46/4 18/47/4 17/48/4
f 23/49/13 17/50/13 19/51/13
f 20/52/14 22/53/14 24/54/14
f 26/55/15 27/56/15 25/57/15
f 28/58/2 31/59/2 27/60/2
f 32/61/16 29/62/16 31/63/16
f 30/64/4 25/65/4 29/66/4
f 31/67/17 25/68/17 27/69/17
f 28/70/18 30/71/18 32/72/18
f 34/73/19 35/74/19 33/75/19
f 36/76/2 39/77/2 35/78/2
f 40/79/20 37/80/20 39/81/20
f 37/82/4 34/83/4 33/84/4
f 39/85/21 33/86/21 35/87/21
f 36/88/22 38/89/22 40/90/22
f 42/91/23 43/92/23 41/93/23
f 43/94/24 48/95/24 47/96/24
f 48/97/25 45/98/25 47/99/25
f 45/100/26 42/101/26 41/102/26
f 43/103/27 45/104/27 41/105/27
f 48/106/28 42/107/28 46/108/28
f 50/109/29 51/110/29 49/111/29
f 51/112/30 56/113/30 55/114/30
f 56/115/31 53/116/31 55/117/31
f 54/118/32 49/119/32 53/120/32
f 55/121/33 49/122/33 51/123/33
f 52/124/34 54/125/34 56/126/34
f 2/1/1 4/127/1 3/2/1
f 4/4/2 8/128/2 7/5/2
f 8/7/3 6/129/3 5/8/3
f 6/10/4 2/130/4 1/11/4
f 7/13/5 5/131/5 1/14/5
f 4/16/6 2/132/6 6/17/6
f 10/19/7 12/133/7 11/20/7
f 12/22/2 16/134/2 15/23/2
f 16/25/8 14/135/8 13/26/8
f 14/28/4 10/136/4 9/29/4
f 15/31/9 13/137/9 9/32/9
f 12/34/10 10/138/10 14/35/10
f 18/37/11 20/139/11 19/38/11
f 20/40/2 24/140/2 23/41/2
f 24/43/12 22/141/12 21/44/12
f 21/46/4 22/142/4 18/47/4
f 23/49/13 21/143/13 17/50/13
f 20/52/14 18/144/14 22/53/14
f 26/55/15 28/145/15 27/56/15
f 28/58/2 32/146/2 31/59/2
f 32/61/16 30/147/16 29/62/16
f 30/64/4 26/148/4 25/65/4
f 31/67/17 29/149/17 25/68/17
f 28/70/18 26/150/18 30/71/18
f 34/73/19 36/151/19 35/74/19
f 36/76/2 40/152/2 39/77/2
f 40/79/20 38/153/20 37/80/20
f 37/82/4 38/154/4 34/83/4
f 39/85/21 37/155/21 33/86/21
f 36/88/22 34/156/22 38/89/22
f 42/91/23 44/157/23 43/92/23
f 43/94/24 44/158/24 48/95/24
f 48/97/25 46/159/25 45/98/25
f 45/100/26 46/160/26 42/101/26
f 43/103/27 47/161/27 45/104/27
f 48/106/28 44/162/28 42/107/28
f 50/109/29 52/163/29 51/110/29
f 51/112/30 52/164/30 56/113/30
f 56/115/31 54/165/31 53/116/31
f 54/118/32 50/166/32 49/119/32
f 55/121/33 53/167/33 49/122/33
f 52/124/34 50/168/34 54/125/34
