# Blender 5.0.1
# www.blender.org
mtllib raft_base_wood.mtl
o wood
usemtl wood
v -1.000000 0.116056 -0.975557
v -0.941421 0.045481 -0.975557
v -0.800000 0.016248 -0.975557
v -0.658579 0.045481 -0.975557
v -0.600000 0.116056 -0.975557
v -0.658579 0.186632 -0.975557
v -0.800000 0.215865 -0.975557
v -0.941421 0.186632 -0.975557
v -1.000000 0.116056 -0.695557
v -0.941421 0.033992 -0.695557
v -0.800000 0.000000 -0.695557
v -0.658579 0.033992 -0.695557
v -0.600000 0.116056 -0.695557
v -0.658579 0.198121 -0.695557
v -0.800000 0.232113 -0.695557
v -0.941421 0.198121 -0.695557
v -1.000000 0.116056 0.720000
v -0.941421 0.033992 0.720000
v -0.800000 0.000000 0.720000
v -0.658579 0.033992 0.720000
v -0.600000 0.116056 0.720000
v -0.658579 0.198121 0.720000
v -0.800000 0.232113 0.720000
v -0.941421 0.198121 0.720000
v -1.000000 0.116056 1.000000
v -0.941421 0.045481 1.000000
v -0.800000 0.016248 1.000000
v -0.658579 0.045481 1.000000
v -0.600000 0.116056 1.000000
v -0.658579 0.186632 1.000000
v -0.800000 0.215865 1.000000
v -0.941421 0.186632 1.000000
v -0.600000 0.116673 -0.977156
v -0.541421 0.045723 -0.977156
v -0.400000 0.016334 -0.977156
v -0.258579 0.045723 -0.977156
v -0.200000 0.116673 -0.977156
v -0.258579 0.187623 -0.977156
v -0.400000 0.217012 -0.977156
v -0.541421 0.187623 -0.977156
v -0.600000 0.116673 -0.697156
v -0.541421 0.034173 -0.697156
v -0.400000 0.000000 -0.697156
v -0.258579 0.034173 -0.697156
v -0.200000 0.116673 -0.697156
v -0.258579 0.199173 -0.697156
v -0.400000 0.233346 -0.697156
v -0.541421 0.199173 -0.697156
v -0.600000 0.116673 0.713289
v -0.541421 0.034173 0.713289
v -0.400000 0.000000 0.713289
v -0.258579 0.034173 0.713289
v -0.200000 0.116673 0.713289
v -0.258579 0.199173 0.713289
v -0.400000 0.233346 0.713289
v -0.541421 0.199173 0.713289
v -0.600000 0.116673 0.993289
v -0.541421 0.045723 0.993289
v -0.400000 0.016334 0.993289
v -0.258579 0.045723 0.993289
v -0.200000 0.116673 0.993289
v -0.258579 0.187623 0.993289
v -0.400000 0.217012 0.993289
v -0.541421 0.187623 0.993289
v -0.200000 0.123272 -0.996150
v -0.141421 0.048309 -0.996150
v -0.000000 0.017258 -0.996150
v 0.141421 0.048309 -0.996150
v 0.200000 0.123272 -0.996150
v 0.141421 0.198235 -0.996150
v 0.000000 0.229285 -0.996150
v -0.141421 0.198235 -0.996150
v -0.200000 0.123272 -0.716150
v -0.141421 0.036105 -0.716150
v -0.000000 0.000000 -0.716150
v 0.141421 0.036105 -0.716150
v 0.200000 0.123272 -0.716150
v 0.141421 0.210438 -0.716150
v 0.000000 0.246543 -0.716150
v -0.141421 0.210438 -0.716150
v -0.200000 0.123272 0.713558
v -0.141421 0.036105 0.713558
v -0.000000 0.000000 0.713558
v 0.141421 0.036105 0.713558
v 0.200000 0.123272 0.713558
v 0.141421 0.210438 0.713558
v 0.000000 0.246543 0.713558
v -0.141421 0.210438 0.713558
v -0.200000 0.123272 0.993558
v -0.141421 0.048309 0.993558
v -0.000000 0.017258 0.993558
v 0.141421 0.048309 0.993558
v 0.200000 0.123272 0.993558
v 0.141421 0.198235 0.993558
v 0.000000 0.229285 0.993558
v -0.141421 0.198235 0.993558
v 0.200000 0.115440 -1.000000
v 0.258579 0.045239 -1.000000
v 0.400000 0.016162 -1.000000
v 0.541421 0.045239 -1.000000
v 0.600000 0.115440 -1.000000
v 0.541421 0.185640 -1.000000
v 0.400000 0.214718 -1.000000
v 0.258579 0.185640 -1.000000
v 0.200000 0.115440 -0.720000
v 0.258579 0.033811 -0.720000
v 0.400000 0.000000 -0.720000
v 0.541421 0.033811 -0.720000
v 0.600000 0.115440 -0.720000
v 0.541421 0.197068 -0.720000
v 0.400000 0.230879 -0.720000
v 0.258579 0.197068 -0.720000
v 0.200000 0.115440 0.717807
v 0.258579 0.033811 0.717807
v 0.400000 0.000000 0.717807
v 0.541421 0.033811 0.717807
v 0.600000 0.115440 0.717807
v 0.541421 0.197068 0.717807
v 0.400000 0.230879 0.717807
v 0.258579 0.197068 0.717807
v 0.200000 0.115440 0.997807
v 0.258579 0.045239 0.997807
v 0.400000 0.016162 0.997807
v 0.541421 0.045239 0.997807
v 0.600000 0.115440 0.997807
v 0.541421 0.185640 0.997807
v 0.400000 0.214718 0.997807
v 0.258579 0.185640 0.997807
v 0.600000 0.111780 -0.998752
v 0.658579 0.043805 -0.998752
v 0.800000 0.015649 -0.998752
v 0.941421 0.043805 -0.998752
v 1.000000 0.111780 -0.998752
v 0.941421 0.179755 -0.998752
v 0.800000 0.207911 -0.998752
v 0.658579 0.179755 -0.998752
v 0.600000 0.111780 -0.718753
v 0.658579 0.032740 -0.718753
v 0.800000 0.000000 -0.718753
v 0.941421 0.032740 -0.718753
v 1.000000 0.111780 -0.718753
v 0.941421 0.190820 -0.718753
v 0.800000 0.223560 -0.718753
v 0.658579 0.190820 -0.718753
v 0.600000 0.111780 0.676863
v 0.658579 0.032740 0.676863
v 0.800000 0.000000 0.676863
v 0.941421 0.032740 0.676863
v 1.000000 0.111780 0.676863
v 0.941421 0.190820 0.676863
v 0.800000 0.223560 0.676863
v 0.658579 0.190820 0.676863
v 0.600000 0.111780 0.956863
v 0.658579 0.043805 0.956863
v 0.800000 0.015649 0.956863
v 0.941421 0.043805 0.956863
v 1.000000 0.111780 0.956863
v 0.941421 0.179755 0.956863
v 0.800000 0.207911 0.956863
v 0.658579 0.179755 0.956863
vn -0.5255 -0.8504 -0.0239
vn -0.9999 -0.0000 -0.0118
vn -1.0000 -0.0000 -0.0000
vn -0.0000 -0.9989 -0.0461
vn -0.5550 -0.8316 -0.0201
vn 0.5550 -0.8316 -0.0201
vn -0.0000 -0.9996 -0.0289
vn 0.5255 -0.8504 -0.0239
vn 0.9999 -0.0000 -0.0118
vn 0.5255 0.8504 -0.0239
vn 1.0000 -0.0000 -0.0000
vn -0.0000 0.9989 -0.0461
vn 0.5550 0.8316 -0.0201
vn -0.5550 0.8316 -0.0201
vn -0.0000 0.9996 -0.0289
vn -0.5255 0.8504 -0.0239
vn -0.9999 -0.0000 0.0118
vn -0.5550 -0.8316 0.0201
vn -0.0000 -0.9996 0.0289
vn 0.5550 -0.8316 0.0201
vn 0.9999 -0.0000 0.0118
vn 0.5550 0.8316 0.0201
vn -0.0000 0.9996 0.0289
vn -0.5550 0.8316 0.0201
vn -0.5255 -0.8504 0.0239
vn -0.0000 -0.9989 0.0461
vn 0.5255 -0.8504 0.0239
vn 0.5255 0.8504 0.0239
vn -0.0000 0.9989 0.0461
vn -0.5255 0.8504 0.0239
vn -0.0000 -0.0000 -1.0000
vn -0.0000 -0.0000 1.0000
vn -0.5271 -0.8494 -0.0240
vn -0.0000 -0.9989 -0.0464
vn -0.5565 -0.8306 -0.0202
vn 0.5565 -0.8306 -0.0202
vn -0.0000 -0.9996 -0.0290
vn 0.5271 -0.8494 -0.0240
vn 0.5271 0.8494 -0.0240
vn -0.0000 0.9989 -0.0464
vn 0.5565 0.8306 -0.0202
vn -0.5565 0.8306 -0.0202
vn -0.0000 0.9996 -0.0290
vn -0.5271 0.8494 -0.0240
vn -0.5565 -0.8306 0.0202
vn -0.0000 -0.9996 0.0290
vn 0.5565 -0.8306 0.0202
vn 0.5565 0.8306 0.0202
vn -0.0000 0.9996 0.0290
vn -0.5565 0.8306 0.0202
vn -0.5271 -0.8494 0.0240
vn -0.0000 -0.9989 0.0464
vn 0.5271 -0.8494 0.0240
vn 0.5271 0.8494 0.0240
vn -0.0000 0.9989 0.0464
vn -0.5271 0.8494 0.0240
vn -0.5438 -0.8388 -0.0253
vn -0.9999 -0.0000 -0.0117
vn -0.0000 -0.9988 -0.0490
vn -0.5721 -0.8199 -0.0211
vn 0.5721 -0.8199 -0.0211
vn -0.0000 -0.9995 -0.0306
vn 0.5438 -0.8388 -0.0253
vn 0.9999 -0.0000 -0.0117
vn 0.5438 0.8388 -0.0253
vn -0.0000 0.9988 -0.0490
vn 0.5721 0.8199 -0.0211
vn -0.5721 0.8199 -0.0211
vn -0.0000 0.9995 -0.0306
vn -0.5438 0.8388 -0.0253
vn -0.9999 -0.0000 0.0117
vn -0.5721 -0.8199 0.0211
vn -0.0000 -0.9995 0.0306
vn 0.5721 -0.8199 0.0211
vn 0.9999 -0.0000 0.0117
vn 0.5721 0.8199 0.0211
vn -0.0000 0.9995 0.0306
vn -0.5721 0.8199 0.0211
vn -0.5438 -0.8388 0.0253
vn -0.0000 -0.9988 0.0490
vn 0.5438 -0.8388 0.0253
vn 0.5438 0.8388 0.0253
vn -0.0000 0.9988 0.0490
vn -0.5438 0.8388 0.0253
vn -0.5239 -0.8514 -0.0237
vn -0.0000 -0.9989 -0.0459
vn -0.5535 -0.8326 -0.0201
vn 0.5535 -0.8326 -0.0201
vn -0.0000 -0.9996 -0.0287
vn 0.5239 -0.8514 -0.0237
vn 0.5239 0.8514 -0.0237
vn -0.0000 0.9989 -0.0459
vn 0.5535 0.8326 -0.0201
vn -0.5535 0.8326 -0.0201
vn -0.0000 0.9996 -0.0287
vn -0.5239 0.8514 -0.0237
vn -0.5535 -0.8326 0.0201
vn -0.0000 -0.9996 0.0287
vn 0.5535 -0.8326 0.0201
vn 0.5535 0.8326 0.0201
vn -0.0000 0.9996 0.0287
vn -0.5535 0.8326 0.0201
vn -0.5239 -0.8514 0.0237
vn -0.0000 -0.9989 0.0459
vn 0.5239 -0.8514 0.0237
vn 0.5239 0.8514 0.0237
vn -0.0000 0.9989 0.0459
vn -0.5239 0.8514 0.0237
vn -0.5141 -0.8574 -0.0230
vn -0.0000 -0.9990 -0.0444
vn -0.5442 -0.8387 -0.0195
vn 0.5442 -0.8387 -0.0195
vn -0.0000 -0.9996 -0.0278
vn 0.5141 -0.8574 -0.0230
vn 0.5141 0.8574 -0.0230
vn -0.0000 0.9990 -0.0444
vn 0.5442 0.8387 -0.0195
vn -0.5442 0.8387 -0.0195
vn -0.0000 0.9996 -0.0278
vn -0.5141 0.8574 -0.0230
vn -0.5442 -0.8387 0.0195
vn -0.0000 -0.9996 0.0278
vn 0.5442 -0.8387 0.0195
vn 0.5442 0.8387 0.0195
vn -0.0000 0.9996 0.0278
vn -0.5442 0.8387 0.0195
vn -0.5141 -0.8574 0.0230
vn -0.0000 -0.9990 0.0444
vn 0.5141 -0.8574 0.0230
vn 0.5141 0.8574 0.0230
vn -0.0000 0.9990 0.0444
vn -0.5141 0.8574 0.0230
vt -1.773741 0.080498
vt -1.264650 0.205411
vt -1.773741 0.205411
vt -1.454545 1.773741
vt -1.711675 1.264650
vt -1.711675 1.773741
vt -1.197416 1.264650
vt -1.454545 1.264650
vt 1.773741 0.080498
vt 1.264650 0.205411
vt 1.264650 0.060164
vt 1.773741 0.330324
vt 1.773741 0.205411
vt -1.454545 -1.773741
vt -1.197416 -1.264650
vt -1.197416 -1.773741
vt -1.711675 -1.264650
vt -1.454545 -1.264650
vt -1.773741 0.330324
vt -1.264650 0.350659
vt -1.264650 0.060164
vt 1.309091 0.205411
vt -1.711675 -1.309091
vt -1.454545 -1.309091
vt -1.309091 0.060164
vt 1.264650 0.350659
vt -1.309091 0.205411
vt -1.197416 1.309091
vt -1.454545 1.309091
vt 1.309091 0.350659
vt 1.818182 0.080498
vt 1.818182 0.205411
vt -1.454545 -1.818182
vt -1.711675 -1.818182
vt -1.197416 -1.309091
vt -1.818182 0.080498
vt -1.818182 0.330324
vt -1.818182 0.205411
vt -1.454545 1.818182
vt -1.197416 1.818182
vt -1.711675 1.309091
vt 1.818182 0.330324
vt 1.197416 0.080498
vt 1.454545 0.028758
vt 1.197416 0.330324
vt -1.197416 0.330324
vt -1.454545 0.382065
vt -1.454545 0.028758
vt -1.776648 0.080926
vt -1.267557 0.206502
vt -1.776648 0.206502
vt -0.727273 1.776648
vt -0.984402 1.267557
vt -0.984402 1.776648
vt -0.470143 1.267557
vt -0.727273 1.267557
vt 1.776648 0.080926
vt 1.267557 0.206502
vt 1.267557 0.060483
vt 1.776648 0.332079
vt 1.776648 0.206502
vt -0.727273 -1.776648
vt -0.470143 -1.267557
vt -0.470143 -1.776648
vt -0.984402 -1.267557
vt -0.727273 -1.267557
vt -1.776648 0.332079
vt -1.267557 0.352522
vt -1.267557 0.060483
vt 1.296888 0.206502
vt -0.984402 -1.296888
vt -0.727273 -1.296888
vt -1.296888 0.060483
vt 1.267557 0.352522
vt -1.296888 0.206502
vt -0.470143 1.296888
vt -0.727273 1.296888
vt 1.296888 0.352522
vt 1.805979 0.080926
vt 1.805979 0.206502
vt -0.727273 -1.805979
vt -0.984402 -1.805979
vt -0.470143 -1.296888
vt -1.805979 0.080926
vt -1.805979 0.332079
vt -1.805979 0.206502
vt -0.727273 1.805979
vt -0.470143 1.805979
vt -0.984402 1.296888
vt 1.805979 0.332079
vt 0.470143 0.080926
vt 0.727273 0.028910
vt 0.470143 0.332079
vt -0.470143 0.332079
vt -0.727273 0.384095
vt -0.727273 0.028910
vt -1.811182 0.085503
vt -1.302091 0.218182
vt -1.811182 0.218182
vt -0.000000 1.811182
vt -0.257130 1.302091
vt -0.257130 1.811182
vt 0.257130 1.302091
vt -0.000000 1.302091
vt 1.811182 0.085503
vt 1.302091 0.218182
vt 1.302091 0.063904
vt 1.811182 0.350861
vt 1.811182 0.218182
vt 0.000000 -1.811182
vt 0.257130 -1.302091
vt 0.257130 -1.811182
vt -0.257130 -1.302091
vt 0.000000 -1.302091
vt -1.811182 0.350861
vt -1.302091 0.372460
vt -1.302091 0.063904
vt 1.297378 0.218182
vt -0.257130 -1.297378
vt -0.000000 -1.297378
vt -1.297378 0.063904
vt 1.302091 0.372460
vt -1.297378 0.218182
vt 0.257130 1.297378
vt 0.000000 1.297378
vt 1.297378 0.372460
vt 1.806469 0.085503
vt 1.806469 0.218182
vt -0.000000 -1.806469
vt -0.257130 -1.806469
vt 0.257130 -1.297378
vt -1.806469 0.085503
vt -1.806469 0.350861
vt -1.806469 0.218182
vt 0.000000 1.806469
vt 0.257130 1.806469
vt -0.257130 1.297378
vt 1.806469 0.350861
vt -0.257130 0.085503
vt 0.000000 0.030545
vt -0.257130 0.350861
vt 0.000000 0.405818
vt 0.257130 0.085503
vt 0.257130 0.350861
vt -1.818182 0.080070
vt -1.309091 0.204320
vt -1.818182 0.204320
vt 0.727273 1.818182
vt 0.470143 1.309091
vt 0.470143 1.818182
vt 0.984402 1.309091
vt 0.727273 1.309091
vt 1.818182 0.080070
vt 1.309091 0.204320
vt 1.309091 0.059844
vt 1.818182 0.328569
vt 1.818182 0.204320
vt 0.727273 -1.818182
vt 0.984402 -1.309091
vt 0.984402 -1.818182
vt 0.470143 -1.309091
vt 0.727273 -1.309091
vt -1.818182 0.328569
vt -1.309091 0.348795
vt -1.309091 0.059844
vt 1.305104 0.204320
vt 0.470143 -1.305104
vt 0.727273 -1.305104
vt -1.305104 0.059844
vt 1.309091 0.348795
vt -1.305104 0.204320
vt 0.984402 1.305104
vt 0.727273 1.305104
vt 1.305104 0.348795
vt 1.814195 0.080070
vt 1.814195 0.204320
vt 0.727273 -1.814195
vt 0.470143 -1.814195
vt 0.984402 -1.305104
vt -1.814195 0.080070
vt -1.814195 0.328569
vt -1.814195 0.204320
vt 0.727273 1.814195
vt 0.984402 1.814195
vt 0.470143 1.305104
vt 1.814195 0.328569
vt -0.984402 0.080070
vt -0.727273 0.028605
vt -0.984402 0.328569
vt 0.984402 0.328569
vt 0.727273 0.380034
vt 0.727273 0.028605
vt -1.815914 0.077532
vt -1.306823 0.197842
vt -1.815914 0.197842
vt 1.454545 1.815914
vt 1.197416 1.306823
vt 1.197416 1.815914
vt 1.711675 1.306823
vt 1.454545 1.306823
vt 1.815914 0.077532
vt 1.306823 0.197842
vt 1.306823 0.057947
vt 1.815914 0.318153
vt 1.815914 0.197842
vt 1.454545 -1.815914
vt 1.711675 -1.306823
vt 1.711675 -1.815914
vt 1.197416 -1.306823
vt 1.454545 -1.306823
vt -1.815914 0.318153
vt -1.306823 0.337738
vt -1.306823 0.057947
vt 1.230661 0.197842
vt 1.197416 -1.230661
vt 1.454545 -1.230661
vt -1.230661 0.057947
vt 1.306823 0.337738
vt -1.230661 0.197842
vt 1.711675 1.230661
vt 1.454545 1.230661
vt 1.230661 0.337738
vt 1.739752 0.077532
vt 1.739752 0.197842
vt 1.454545 -1.739752
vt 1.197416 -1.739752
vt 1.711675 -1.230661
vt -1.739752 0.077532
vt -1.739752 0.318153
vt -1.739752 0.197842
vt 1.454545 1.739752
vt 1.711675 1.739752
vt 1.197416 1.230661
vt 1.739752 0.318153
vt -1.711675 0.077532
vt -1.454545 0.027698
vt -1.711675 0.318153
vt 1.711675 0.318153
vt 1.454545 0.367987
vt 1.454545 0.027698
vt -1.197416 1.773741
vt -1.711675 -1.773741
vt 1.309091 0.060164
vt -1.309091 0.350659
vt -1.197416 -1.818182
vt -1.711675 1.818182
vt 1.711675 0.080498
vt 1.711675 0.330324
vt 1.454545 0.382065
vt 1.090909 0.205411
vt -1.711675 0.330324
vt -1.711675 0.080498
vt -1.197416 0.080498
vt -1.090909 0.205411
vt -0.470143 1.776648
vt -0.984402 -1.776648
vt 1.296888 0.060483
vt -1.296888 0.352522
vt -0.470143 -1.805979
vt -0.984402 1.805979
vt 0.984402 0.080926
vt 1.090909 0.206502
vt 0.984402 0.332079
vt 0.727273 0.384095
vt 0.363636 0.206502
vt -0.984402 0.332079
vt -0.984402 0.080926
vt -1.090909 0.206502
vt -0.470143 0.080926
vt -0.363636 0.206502
vt 0.257130 1.811182
vt -0.257130 -1.811182
vt 1.297378 0.063904
vt -1.297378 0.372460
vt 0.257130 -1.806469
vt -0.257130 1.806469
vt 0.363636 0.218182
vt -0.000000 0.405818
vt -0.363636 0.218182
vt -0.000000 0.030545
vt 0.984402 1.818182
vt 0.470143 -1.818182
vt 1.305104 0.059844
vt -1.305104 0.348795
vt 0.984402 -1.814195
vt 0.470143 1.814195
vt -0.470143 0.080070
vt -0.363636 0.204320
vt -0.470143 0.328569
vt -0.727273 0.380034
vt -1.090909 0.204320
vt 0.470143 0.328569
vt 0.470143 0.080070
vt 0.363636 0.204320
vt 0.984402 0.080070
vt 1.090909 0.204320
vt 1.711675 1.815914
vt 1.197416 -1.815914
vt 1.230661 0.057947
vt -1.230661 0.337738
vt 1.711675 -1.739752
vt 1.197416 1.739752
vt -1.197416 0.077532
vt -1.090909 0.197842
vt -1.197416 0.318153
vt -1.454545 0.367987
vt -1.818182 0.197842
vt 1.197416 0.318153
vt 1.197416 0.077532
vt 1.090909 0.197842
vt 1.711675 0.077532
vt 1.818182 0.197842
s 1
f 2/1/1 9/2/2 1/3/3
f 3/4/4 10/5/5 2/6/1
f 3/4/4 12/7/6 11/8/7
f 4/9/8 13/10/9 12/11/6
f 6/12/10 13/10/9 5/13/11
f 7/14/12 14/15/13 6/16/10
f 7/14/12 16/17/14 15/18/15
f 8/19/16 9/2/2 16/20/14
f 10/21/5 17/22/17 9/2/2
f 11/8/7 18/23/18 10/5/5
f 12/7/6 19/24/19 11/8/7
f 13/10/9 20/25/20 12/11/6
f 14/26/13 21/27/21 13/10/9
f 15/18/15 22/28/22 14/15/13
f 16/17/14 23/29/23 15/18/15
f 9/2/2 24/30/24 16/20/14
f 17/22/17 26/31/25 25/32/3
f 18/23/18 27/33/26 26/34/25
f 20/35/20 27/33/26 19/24/19
f 21/27/21 28/36/27 20/25/20
f 21/27/21 30/37/28 29/38/11
f 22/28/22 31/39/29 30/40/28
f 24/41/24 31/39/29 23/29/23
f 17/22/17 32/42/30 24/30/24
s 0
f 4/43/31 3/44/31 6/45/31
f 30/46/32 31/47/32 27/48/32
s 1
f 34/49/33 41/50/2 33/51/3
f 35/52/34 42/53/35 34/54/33
f 35/52/34 44/55/36 43/56/37
f 36/57/38 45/58/9 44/59/36
f 38/60/39 45/58/9 37/61/11
f 39/62/40 46/63/41 38/64/39
f 39/62/40 48/65/42 47/66/43
f 40/67/44 41/50/2 48/68/42
f 42/69/35 49/70/17 41/50/2
f 43/56/37 50/71/45 42/53/35
f 44/55/36 51/72/46 43/56/37
f 45/58/9 52/73/47 44/59/36
f 46/74/41 53/75/21 45/58/9
f 47/66/43 54/76/48 46/63/41
f 48/65/42 55/77/49 47/66/43
f 41/50/2 56/78/50 48/68/42
f 49/70/17 58/79/51 57/80/3
f 50/71/45 59/81/52 58/82/51
f 52/83/47 59/81/52 51/72/46
f 53/75/21 60/84/53 52/73/47
f 53/75/21 62/85/54 61/86/11
f 54/76/48 63/87/55 62/88/54
f 56/89/50 63/87/55 55/77/49
f 49/70/17 64/90/56 56/78/50
s 0
f 36/91/31 35/92/31 38/93/31
f 62/94/32 63/95/32 59/96/32
s 1
f 66/97/57 73/98/58 65/99/3
f 67/100/59 74/101/60 66/102/57
f 67/100/59 76/103/61 75/104/62
f 68/105/63 77/106/64 76/107/61
f 70/108/65 77/106/64 69/109/11
f 71/110/66 78/111/67 70/112/65
f 71/110/66 80/113/68 79/114/69
f 72/115/70 73/98/58 80/116/68
f 74/117/60 81/118/71 73/98/58
f 75/104/62 82/119/72 74/101/60
f 76/103/61 83/120/73 75/104/62
f 77/106/64 84/121/74 76/107/61
f 78/122/67 85/123/75 77/106/64
f 79/114/69 86/124/76 78/111/67
f 80/113/68 87/125/77 79/114/69
f 73/98/58 88/126/78 80/116/68
f 81/118/71 90/127/79 89/128/3
f 82/119/72 91/129/80 90/130/79
f 84/131/74 91/129/80 83/120/73
f 85/123/75 92/132/81 84/121/74
f 85/123/75 94/133/82 93/134/11
f 86/124/76 95/135/83 94/136/82
f 88/137/78 95/135/83 87/125/77
f 81/118/71 96/138/84 88/126/78
s 0
f 68/139/31 67/140/31 70/141/31
f 95/142/32 92/143/32 94/144/32
s 1
f 98/145/85 105/146/2 97/147/3
f 99/148/86 106/149/87 98/150/85
f 99/148/86 108/151/88 107/152/89
f 100/153/90 109/154/9 108/155/88
f 102/156/91 109/154/9 101/157/11
f 103/158/92 110/159/93 102/160/91
f 103/158/92 112/161/94 111/162/95
f 104/163/96 105/146/2 112/164/94
f 106/165/87 113/166/17 105/146/2
f 107/152/89 114/167/97 106/149/87
f 108/151/88 115/168/98 107/152/89
f 109/154/9 116/169/99 108/155/88
f 110/170/93 117/171/21 109/154/9
f 111/162/95 118/172/100 110/159/93
f 112/161/94 119/173/101 111/162/95
f 105/146/2 120/174/102 112/164/94
f 113/166/17 122/175/103 121/176/3
f 114/167/97 123/177/104 122/178/103
f 116/179/99 123/177/104 115/168/98
f 117/171/21 124/180/105 116/169/99
f 117/171/21 126/181/106 125/182/11
f 118/172/100 127/183/107 126/184/106
f 120/185/102 127/183/107 119/173/101
f 113/166/17 128/186/108 120/174/102
s 0
f 100/187/31 99/188/31 102/189/31
f 126/190/32 127/191/32 123/192/32
s 1
f 130/193/109 137/194/2 129/195/3
f 131/196/110 138/197/111 130/198/109
f 131/196/110 140/199/112 139/200/113
f 132/201/114 141/202/9 140/203/112
f 134/204/115 141/202/9 133/205/11
f 135/206/116 142/207/117 134/208/115
f 135/206/116 144/209/118 143/210/119
f 136/211/120 137/194/2 144/212/118
f 138/213/111 145/214/17 137/194/2
f 139/200/113 146/215/121 138/197/111
f 140/199/112 147/216/122 139/200/113
f 141/202/9 148/217/123 140/203/112
f 142/218/117 149/219/21 141/202/9
f 143/210/119 150/220/124 142/207/117
f 144/209/118 151/221/125 143/210/119
f 137/194/2 152/222/126 144/212/118
f 145/214/17 154/223/127 153/224/3
f 146/215/121 155/225/128 154/226/127
f 148/227/123 155/225/128 147/216/122
f 149/219/21 156/228/129 148/217/123
f 149/219/21 158/229/130 157/230/11
f 150/220/124 159/231/131 158/232/130
f 152/233/126 159/231/131 151/221/125
f 145/214/17 160/234/132 152/222/126
s 0
f 132/235/31 131/236/31 134/237/31
f 158/238/32 159/239/32 155/240/32
s 1
f 2/1/1 10/21/5 9/2/2
f 3/4/4 11/8/7 10/5/5
f 3/4/4 4/241/8 12/7/6
f 4/9/8 5/13/11 13/10/9
f 6/12/10 14/26/13 13/10/9
f 7/14/12 15/18/15 14/15/13
f 7/14/12 8/242/16 16/17/14
f 8/19/16 1/3/3 9/2/2
f 10/21/5 18/243/18 17/22/17
f 11/8/7 19/24/19 18/23/18
f 12/7/6 20/35/20 19/24/19
f 13/10/9 21/27/21 20/25/20
f 14/26/13 22/244/22 21/27/21
f 15/18/15 23/29/23 22/28/22
f 16/17/14 24/41/24 23/29/23
f 9/2/2 17/22/17 24/30/24
f 17/22/17 18/243/18 26/31/25
f 18/23/18 19/24/19 27/33/26
f 20/35/20 28/245/27 27/33/26
f 21/27/21 29/38/11 28/36/27
f 21/27/21 22/244/22 30/37/28
f 22/28/22 23/29/23 31/39/29
f 24/41/24 32/246/30 31/39/29
f 17/22/17 25/32/3 32/42/30
s 0
f 2/247/31 1/32/31 8/248/31
f 8/248/31 7/249/31 2/247/31
f 7/249/31 6/45/31 3/44/31
f 2/247/31 7/249/31 3/44/31
f 6/45/31 5/250/31 4/43/31
f 31/47/32 32/251/32 26/252/32
f 32/251/32 25/38/32 26/252/32
f 26/252/32 27/48/32 31/47/32
f 27/48/32 28/253/32 30/46/32
f 28/253/32 29/254/32 30/46/32
s 1
f 34/49/33 42/69/35 41/50/2
f 35/52/34 43/56/37 42/53/35
f 35/52/34 36/255/38 44/55/36
f 36/57/38 37/61/11 45/58/9
f 38/60/39 46/74/41 45/58/9
f 39/62/40 47/66/43 46/63/41
f 39/62/40 40/256/44 48/65/42
f 40/67/44 33/51/3 41/50/2
f 42/69/35 50/257/45 49/70/17
f 43/56/37 51/72/46 50/71/45
f 44/55/36 52/83/47 51/72/46
f 45/58/9 53/75/21 52/73/47
f 46/74/41 54/258/48 53/75/21
f 47/66/43 55/77/49 54/76/48
f 48/65/42 56/89/50 55/77/49
f 41/50/2 49/70/17 56/78/50
f 49/70/17 50/257/45 58/79/51
f 50/71/45 51/72/46 59/81/52
f 52/83/47 60/259/53 59/81/52
f 53/75/21 61/86/11 60/84/53
f 53/75/21 54/258/48 62/85/54
f 54/76/48 55/77/49 63/87/55
f 56/89/50 64/260/56 63/87/55
f 49/70/17 57/80/3 64/90/56
s 0
f 34/261/31 33/262/31 40/263/31
f 40/263/31 39/264/31 34/261/31
f 39/264/31 38/93/31 35/92/31
f 34/261/31 39/264/31 35/92/31
f 38/93/31 37/265/31 36/91/31
f 63/95/32 64/266/32 58/267/32
f 64/266/32 57/268/32 58/267/32
f 58/267/32 59/96/32 63/95/32
f 59/96/32 60/269/32 62/94/32
f 60/269/32 61/270/32 62/94/32
s 1
f 66/97/57 74/117/60 73/98/58
f 67/100/59 75/104/62 74/101/60
f 67/100/59 68/271/63 76/103/61
f 68/105/63 69/109/11 77/106/64
f 70/108/65 78/122/67 77/106/64
f 71/110/66 79/114/69 78/111/67
f 71/110/66 72/272/70 80/113/68
f 72/115/70 65/99/3 73/98/58
f 74/117/60 82/273/72 81/118/71
f 75/104/62 83/120/73 82/119/72
f 76/103/61 84/131/74 83/120/73
f 77/106/64 85/123/75 84/121/74
f 78/122/67 86/274/76 85/123/75
f 79/114/69 87/125/77 86/124/76
f 80/113/68 88/137/78 87/125/77
f 73/98/58 81/118/71 88/126/78
f 81/118/71 82/273/72 90/127/79
f 82/119/72 83/120/73 91/129/80
f 84/131/74 92/275/81 91/129/80
f 85/123/75 93/134/11 92/132/81
f 85/123/75 86/274/76 94/133/82
f 86/124/76 87/125/77 95/135/83
f 88/137/78 96/276/84 95/135/83
f 81/118/71 89/128/3 96/138/84
s 0
f 66/143/31 65/277/31 72/144/31
f 72/144/31 71/278/31 66/143/31
f 71/278/31 70/141/31 67/140/31
f 66/143/31 71/278/31 67/140/31
f 70/141/31 69/279/31 68/139/31
f 95/142/32 96/141/32 90/139/32
f 96/141/32 89/279/32 90/139/32
f 90/139/32 91/280/32 95/142/32
f 91/280/32 92/143/32 95/142/32
f 92/143/32 93/277/32 94/144/32
s 1
f 98/145/85 106/165/87 105/146/2
f 99/148/86 107/152/89 106/149/87
f 99/148/86 100/281/90 108/151/88
f 100/153/90 101/157/11 109/154/9
f 102/156/91 110/170/93 109/154/9
f 103/158/92 111/162/95 110/159/93
f 103/158/92 104/282/96 112/161/94
f 104/163/96 97/147/3 105/146/2
f 106/165/87 114/283/97 113/166/17
f 107/152/89 115/168/98 114/167/97
f 108/151/88 116/179/99 115/168/98
f 109/154/9 117/171/21 116/169/99
f 110/170/93 118/284/100 117/171/21
f 111/162/95 119/173/101 118/172/100
f 112/161/94 120/185/102 119/173/101
f 105/146/2 113/166/17 120/174/102
f 113/166/17 114/283/97 122/175/103
f 114/167/97 115/168/98 123/177/104
f 116/179/99 124/285/105 123/177/104
f 117/171/21 125/182/11 124/180/105
f 117/171/21 118/284/100 126/181/106
f 118/172/100 119/173/101 127/183/107
f 120/185/102 128/286/108 127/183/107
f 113/166/17 121/176/3 128/186/108
s 0
f 98/287/31 97/288/31 104/289/31
f 104/289/31 103/290/31 98/287/31
f 103/290/31 102/189/31 99/188/31
f 98/287/31 103/290/31 99/188/31
f 102/189/31 101/291/31 100/187/31
f 127/191/32 128/292/32 122/293/32
f 128/292/32 121/294/32 122/293/32
f 122/293/32 123/192/32 127/191/32
f 123/192/32 124/295/32 126/190/32
f 124/295/32 125/296/32 126/190/32
s 1
f 130/193/109 138/213/111 137/194/2
f 131/196/110 139/200/113 138/197/111
f 131/196/110 132/297/114 140/199/112
f 132/201/114 133/205/11 141/202/9
f 134/204/115 142/218/117 141/202/9
f 135/206/116 143/210/119 142/207/117
f 135/206/116 136/298/120 144/209/118
f 136/211/120 129/195/3 137/194/2
f 138/213/111 146/299/121 145/214/17
f 139/200/113 147/216/122 146/215/121
f 140/199/112 148/227/123 147/216/122
f 141/202/9 149/219/21 148/217/123
f 142/218/117 150/300/124 149/219/21
f 143/210/119 151/221/125 150/220/124
f 144/209/118 152/233/126 151/221/125
f 137/194/2 145/214/17 152/222/126
f 145/214/17 146/299/121 154/223/127
f 146/215/121 147/216/122 155/225/128
f 148/227/123 156/301/129 155/225/128
f 149/219/21 157/230/11 156/228/129
f 149/219/21 150/300/124 158/229/130
f 150/220/124 151/221/125 159/231/131
f 152/233/126 160/302/132 159/231/131
f 145/214/17 153/224/3 160/234/132
s 0
f 130/303/31 129/304/31 136/305/31
f 136/305/31 135/306/31 130/303/31
f 135/306/31 134/237/31 131/236/31
f 130/303/31 135/306/31 131/236/31
f 134/237/31 133/307/31 132/235/31
f 159/239/32 160/308/32 154/309/32
f 160/308/32 153/310/32 154/309/32
f 154/309/32 155/240/32 159/239/32
f 155/240/32 156/311/32 158/238/32
f 156/311/32 157/312/32 158/238/32
o metal
usemtl metal
v -1.000000 0.129051 -0.537000
v -1.000041 0.108590 -0.548500
v -1.000041 0.108590 -0.571500
v -1.000000 0.129051 -0.583000
v -0.999959 0.149513 -0.571500
v -0.999959 0.149513 -0.548500
v -0.800000 0.245108 -0.537000
v -0.800041 0.224646 -0.548500
v -0.800041 0.224646 -0.571500
v -0.800000 0.245108 -0.583000
v -0.799959 0.265569 -0.571500
v -0.799959 0.265569 -0.548500
v -0.600000 0.182171 -0.537000
v -0.600042 0.161709 -0.548500
v -0.600042 0.161709 -0.571500
v -0.600000 0.182171 -0.583000
v -0.599959 0.202632 -0.571500
v -0.599959 0.202632 -0.548500
v -0.400000 0.246341 -0.537000
v -0.400041 0.225879 -0.548500
v -0.400041 0.225879 -0.571500
v -0.400000 0.246341 -0.583000
v -0.399959 0.266802 -0.571500
v -0.399959 0.266802 -0.548500
v -0.200000 0.191739 -0.537000
v -0.200041 0.171277 -0.548500
v -0.200041 0.171277 -0.571500
v -0.200000 0.191739 -0.583000
v -0.199959 0.212201 -0.571500
v -0.199959 0.212201 -0.548500
v 0.000000 0.259538 -0.537000
v -0.000041 0.239077 -0.548500
v -0.000041 0.239077 -0.571500
v -0.000000 0.259538 -0.583000
v 0.000041 0.280000 -0.571500
v 0.000041 0.280000 -0.548500
v 0.200000 0.191739 -0.537000
v 0.199959 0.171277 -0.548500
v 0.199959 0.171277 -0.571500
v 0.200000 0.191739 -0.583000
v 0.200041 0.212201 -0.571500
v 0.200041 0.212201 -0.548500
v 0.400000 0.243874 -0.537000
v 0.399959 0.223413 -0.548500
v 0.399959 0.223413 -0.571500
v 0.400000 0.243874 -0.583000
v 0.400041 0.264336 -0.571500
v 0.400041 0.264336 -0.548500
v 0.600000 0.180382 -0.537000
v 0.599959 0.159921 -0.548500
v 0.599959 0.159921 -0.571500
v 0.600000 0.180382 -0.583000
v 0.600042 0.200844 -0.571500
v 0.600042 0.200844 -0.548500
v 0.800000 0.236555 -0.537000
v 0.799959 0.216093 -0.548500
v 0.799959 0.216093 -0.571500
v 0.800000 0.236555 -0.583000
v 0.800041 0.257017 -0.571500
v 0.800041 0.257017 -0.548500
v 1.000000 0.124775 -0.537000
v 0.999959 0.104313 -0.548500
v 0.999959 0.104313 -0.571500
v 1.000000 0.124775 -0.583000
v 1.000041 0.145237 -0.571500
v 1.000041 0.145237 -0.548500
v -1.000000 0.129051 0.583000
v -1.000041 0.108590 0.571500
v -1.000041 0.108590 0.548500
v -1.000000 0.129051 0.537000
v -0.999959 0.149513 0.548500
v -0.999959 0.149513 0.571500
v -0.800000 0.245108 0.583000
v -0.800041 0.224646 0.571500
v -0.800041 0.224646 0.548500
v -0.800000 0.245108 0.537000
v -0.799959 0.265569 0.548500
v -0.799959 0.265569 0.571500
v -0.600000 0.182171 0.583000
v -0.600042 0.161709 0.571500
v -0.600042 0.161709 0.548500
v -0.600000 0.182171 0.537000
v -0.599959 0.202632 0.548500
v -0.599959 0.202632 0.571500
v -0.400000 0.246341 0.583000
v -0.400041 0.225879 0.571500
v -0.400041 0.225879 0.548500
v -0.400000 0.246341 0.537000
v -0.399959 0.266802 0.548500
v -0.399959 0.266802 0.571500
v -0.200000 0.191739 0.583000
v -0.200041 0.171277 0.571500
v -0.200041 0.171277 0.548500
v -0.200000 0.191739 0.537000
v -0.199959 0.212201 0.548500
v -0.199959 0.212201 0.571500
v 0.000000 0.259538 0.583000
v -0.000041 0.239077 0.571500
v -0.000041 0.239077 0.548500
v -0.000000 0.259538 0.537000
v 0.000041 0.280000 0.548500
v 0.000041 0.280000 0.571500
v 0.200000 0.191739 0.583000
v 0.199959 0.171277 0.571500
v 0.199959 0.171277 0.548500
v 0.200000 0.191739 0.537000
v 0.200041 0.212201 0.548500
v 0.200041 0.212201 0.571500
v 0.400000 0.243874 0.583000
v 0.399959 0.223413 0.571500
v 0.399959 0.223413 0.548500
v 0.400000 0.243874 0.537000
v 0.400041 0.264336 0.548500
v 0.400041 0.264336 0.571500
v 0.600000 0.180382 0.583000
v 0.599959 0.159921 0.571500
v 0.599959 0.159921 0.548500
v 0.600000 0.180382 0.537000
v 0.600042 0.200844 0.548500
v 0.600042 0.200844 0.571500
v 0.800000 0.236555 0.583000
v 0.799959 0.216093 0.571500
v 0.799959 0.216093 0.548500
v 0.800000 0.236555 0.537000
v 0.800041 0.257017 0.548500
v 0.800041 0.257017 0.571500
v 1.000000 0.124775 0.583000
v 0.999959 0.104313 0.571500
v 0.999959 0.104313 0.548500
v 1.000000 0.124775 0.537000
v 1.000041 0.145237 0.548500
v 1.000041 0.145237 0.571500
v -0.620000 0.151675 -0.920000
v -0.610000 0.133882 -0.920000
v -0.590000 0.133882 -0.920000
v -0.580000 0.151675 -0.920000
v -0.590000 0.169468 -0.920000
v -0.610000 0.169468 -0.920000
v -0.620000 0.157838 0.000000
v -0.610000 0.140046 0.000000
v -0.590000 0.140046 0.000000
v -0.580000 0.157838 0.000000
v -0.590000 0.175631 0.000000
v -0.610000 0.175631 0.000000
v -0.620000 0.151675 0.920000
v -0.610000 0.133882 0.920000
v -0.590000 0.133882 0.920000
v -0.580000 0.151675 0.920000
v -0.590000 0.169468 0.920000
v -0.610000 0.169468 0.920000
v 0.580000 0.150072 -0.920000
v 0.590000 0.132279 -0.920000
v 0.610000 0.132279 -0.920000
v 0.620000 0.150072 -0.920000
v 0.610000 0.167864 -0.920000
v 0.590000 0.167864 -0.920000
v 0.580000 0.156235 0.000000
v 0.590000 0.138442 0.000000
v 0.610000 0.138442 0.000000
v 0.620000 0.156235 0.000000
v 0.610000 0.174028 0.000000
v 0.590000 0.174028 0.000000
v 0.580000 0.150072 0.920000
v 0.590000 0.132279 0.920000
v 0.610000 0.132279 0.920000
v 0.620000 0.150072 0.920000
v 0.610000 0.167864 0.920000
v 0.590000 0.167864 0.920000
vn 0.0929 -0.1600 0.9827
vn 0.1028 -0.8159 0.5690
vn -0.0313 0.1269 0.9914
vn 0.4612 -0.7948 -0.3945
vn 0.4612 -0.7948 0.3945
vn 0.0929 -0.1600 -0.9827
vn 0.1028 -0.8159 -0.5690
vn -0.4238 0.7303 -0.5358
vn -0.0313 0.1269 -0.9914
vn -0.4238 0.7303 0.5358
vn -0.0933 0.8857 -0.4548
vn -0.0933 0.8857 0.4548
vn 0.0008 -0.0952 0.9955
vn 0.0023 -0.8844 0.4667
vn 0.0008 -0.0952 -0.9955
vn 0.0023 -0.8844 -0.4667
vn -0.0027 0.8333 -0.5527
vn -0.0027 0.8333 0.5527
vn 0.0199 -0.8353 0.5494
vn -0.0043 0.0893 0.9960
vn 0.0199 -0.8353 -0.5494
vn -0.0043 0.0893 -0.9960
vn -0.0186 0.8831 -0.4687
vn -0.0186 0.8831 0.4687
vn 0.0060 -0.0918 0.9958
vn 0.0255 -0.8835 0.4678
vn 0.0060 -0.0918 -0.9958
vn 0.0255 -0.8835 -0.4678
vn -0.0273 0.8342 -0.5507
vn -0.0273 0.8342 0.5507
vn 0.0002 -0.8312 0.5560
vn -0.0002 0.1010 0.9949
vn 0.0002 -0.8312 -0.5560
vn -0.0002 0.1010 -0.9949
vn 0.0001 0.8855 -0.4646
vn 0.0001 0.8855 0.4646
vn -0.0066 -0.0900 0.9959
vn -0.0306 -0.8830 0.4684
vn -0.0066 -0.0900 -0.9959
vn -0.0306 -0.8830 -0.4684
vn 0.0322 0.8347 -0.5497
vn 0.0322 0.8347 0.5497
vn -0.0234 -0.8360 0.5482
vn 0.0046 0.0871 0.9962
vn -0.0234 -0.8360 -0.5482
vn 0.0046 0.0871 -0.9962
vn 0.0223 0.8826 -0.4696
vn 0.0223 0.8826 0.4696
vn -0.0030 -0.0899 0.9959
vn -0.0143 -0.8833 0.4685
vn -0.0030 -0.0899 -0.9959
vn -0.0143 -0.8833 -0.4685
vn 0.0150 0.8351 -0.5498
vn 0.0150 0.8351 0.5498
vn -0.1085 -0.8181 0.5648
vn 0.0307 0.1197 0.9923
vn -0.1085 -0.8181 -0.5648
vn 0.0307 0.1197 -0.9923
vn 0.0998 0.8838 -0.4571
vn 0.0998 0.8838 0.4571
vn -0.0860 -0.1540 0.9843
vn -0.4471 -0.8000 0.4000
vn -0.0860 -0.1540 -0.9843
vn -0.4471 -0.8000 -0.4000
vn 0.4117 0.7367 -0.5365
vn 0.4117 0.7367 0.5365
vn -1.0000 0.0020 -0.0000
vn 1.0000 -0.0020 -0.0000
vn -1.0000 -0.0021 -0.0000
vn -0.5059 -0.8626 -0.0000
vn -1.0000 0.0021 -0.0000
vn 0.5041 -0.8637 0.0058
vn -0.5041 -0.8637 0.0058
vn 1.0000 -0.0021 -0.0000
vn 0.5059 -0.8626 -0.0000
vn 0.5059 0.8626 -0.0058
vn 1.0000 0.0021 -0.0000
vn -0.5059 0.8626 -0.0058
vn 0.5041 0.8637 -0.0000
vn -0.5041 0.8637 -0.0000
vn -0.5041 -0.8637 -0.0058
vn 0.5041 -0.8637 -0.0058
vn 0.5059 0.8626 0.0058
vn -0.5059 0.8626 0.0058
vn -0.0000 -0.0000 -1.0000
vn -0.0000 -0.0000 1.0000
vt -4.000000 0.502505
vt -3.200166 0.874735
vt -3.200000 0.954409
vt -4.000166 2.286000
vt -3.200166 2.194000
vt -4.000166 2.194000
vt 4.000000 0.502505
vt 3.200166 0.874735
vt 4.000166 0.422830
vt 3.999834 0.582179
vt 3.200000 0.954409
vt -3.999834 -2.194000
vt -3.199834 -2.286000
vt -3.999834 -2.286000
vt -3.999834 0.582179
vt -3.199834 1.034083
vt -2.400000 0.709343
vt -3.200166 2.286000
vt -2.400166 2.194000
vt 2.400000 0.709343
vt 2.400166 0.629669
vt 2.399834 0.789017
vt -3.199834 -2.194000
vt -2.399834 -2.286000
vt -2.399834 0.789017
vt -1.600166 0.879537
vt -1.600000 0.959211
vt -2.400166 2.286000
vt -1.600166 2.194000
vt 1.600166 0.879537
vt 1.600000 0.959211
vt -2.399834 -2.194000
vt -1.599834 -2.286000
vt -1.599834 1.038885
vt -0.800000 0.746600
vt -1.600166 2.286000
vt -0.800166 2.194000
vt 0.800000 0.746600
vt 0.800166 0.666926
vt 0.799834 0.826274
vt -1.599834 -2.194000
vt -0.799834 -2.286000
vt -0.799834 0.826274
vt -0.000166 0.930926
vt 0.000000 1.010600
vt -0.800166 2.286000
vt -0.000166 2.194000
vt 0.000166 0.930926
vt 0.000000 1.010600
vt -0.799834 -2.194000
vt 0.000166 -2.286000
vt 0.000166 1.090274
vt -0.000166 2.286000
vt 0.799834 2.194000
vt -0.799834 0.666926
vt -0.800166 0.826274
vt 0.000166 -2.194000
vt 0.800166 -2.286000
vt 0.800166 0.826274
vt 1.599834 0.869932
vt 1.600000 0.949606
vt 0.799834 2.286000
vt 1.599834 2.194000
vt -1.599834 0.869932
vt -1.600000 0.949606
vt 0.800166 -2.194000
vt 1.600166 -2.286000
vt 1.600166 1.029280
vt 2.400000 0.702379
vt 1.599834 2.286000
vt 2.399834 2.194000
vt -2.400000 0.702379
vt -2.399834 0.622705
vt -2.400166 0.782054
vt 1.600166 -2.194000
vt 2.400166 -2.286000
vt 2.400166 0.782054
vt 3.199834 0.841432
vt 3.200000 0.921106
vt 2.399834 2.286000
vt 3.199834 2.194000
vt -3.199834 0.841432
vt -3.200000 0.921106
vt 2.400166 -2.194000
vt 3.200166 -2.286000
vt 3.200166 1.000780
vt 4.000000 0.485853
vt 3.199834 2.286000
vt 3.999834 2.194000
vt -4.000000 0.485853
vt -3.999834 0.406179
vt -4.000166 0.565527
vt 3.200166 -2.194000
vt 4.000166 -2.286000
vt 4.000166 0.565527
vt -2.332000 0.502505
vt -2.286000 0.422830
vt -2.194000 0.422830
vt 2.148000 0.485853
vt 2.286000 0.406179
vt 2.286000 0.565527
vt -4.000166 -2.194000
vt -3.200166 -2.286000
vt -4.000166 -2.286000
vt -3.999834 2.286000
vt -3.199834 2.194000
vt -3.999834 2.194000
vt -3.200166 -2.194000
vt -2.400166 -2.286000
vt -3.199834 2.286000
vt -2.399834 2.194000
vt -2.400166 -2.194000
vt -1.600166 -2.286000
vt -2.399834 2.286000
vt -1.599834 2.194000
vt -1.600166 -2.194000
vt -0.800166 -2.286000
vt -1.599834 2.286000
vt -0.799834 2.194000
vt -0.800166 -2.194000
vt -0.000166 -2.286000
vt -0.799834 2.286000
vt 0.000166 2.194000
vt -0.000166 -2.194000
vt 0.799834 -2.286000
vt 0.000166 2.286000
vt 0.800166 2.194000
vt 0.799834 -2.194000
vt 1.599834 -2.286000
vt 0.800166 2.286000
vt 1.600166 2.194000
vt 1.599834 -2.194000
vt 2.399834 -2.286000
vt 1.600166 2.286000
vt 2.400166 2.194000
vt 2.399834 -2.194000
vt 3.199834 -2.286000
vt 2.400166 2.286000
vt 3.200166 2.194000
vt 3.199834 -2.194000
vt 3.999834 -2.286000
vt 3.200166 2.286000
vt 4.000166 2.194000
vt 2.148000 0.502505
vt 2.194000 0.422830
vt 2.286000 0.422830
vt -2.332000 0.485853
vt -2.194000 0.406179
vt -2.194000 0.565527
vt -3.680000 0.590597
vt 0.000000 0.545315
vt 0.000000 0.614597
vt -2.360000 3.680000
vt -2.440000 -0.000000
vt -2.440000 3.680000
vt 3.680000 0.590597
vt 3.680000 0.521315
vt 3.680000 0.659879
vt -2.440000 -3.680000
vt -2.360000 0.000000
vt -2.360000 -3.680000
vt -3.680000 0.659879
vt 0.000000 0.683879
vt -3.680000 0.521315
vt 2.320000 0.590597
vt 2.360000 0.521315
vt 2.440000 0.521315
vt -2.320000 0.590597
vt -2.360000 0.659879
vt -2.480000 0.590597
vt -3.680000 0.584354
vt 0.000000 0.539072
vt 0.000000 0.608354
vt 2.440000 3.680000
vt 2.360000 -0.000000
vt 2.360000 3.680000
vt 3.680000 0.584354
vt 3.680000 0.515072
vt 3.680000 0.653636
vt 2.360000 -3.680000
vt 2.440000 0.000000
vt 2.440000 -3.680000
vt -3.680000 0.653636
vt 0.000000 0.677636
vt -3.680000 0.515072
vt -2.480000 0.584354
vt -2.440000 0.515072
vt -2.360000 0.515072
vt 2.480000 0.584354
vt 2.440000 0.653636
vt 2.320000 0.584354
vt -4.000166 0.422830
vt 3.199834 1.034083
vt -2.400166 0.629669
vt 1.599834 1.038885
vt -0.800166 0.666926
vt -0.000166 1.090274
vt 0.799834 0.666926
vt -1.600166 1.029280
vt 2.399834 0.622705
vt -3.200166 1.000780
vt 3.999834 0.406179
vt 3.999834 2.286000
vt 4.000166 -2.194000
vt -2.148000 0.502505
vt -2.194000 0.582179
vt -2.286000 0.582179
vt 2.194000 0.565527
vt 2.194000 0.406179
vt 2.332000 0.485853
vt 3.999834 -2.194000
vt 4.000166 2.286000
vt 2.332000 0.502505
vt 2.286000 0.582179
vt 2.194000 0.582179
vt -2.286000 0.565527
vt -2.286000 0.406179
vt -2.148000 0.485853
vt 2.480000 0.590597
vt 2.440000 0.659879
vt 2.360000 0.659879
vt -2.440000 0.659879
vt -2.440000 0.521315
vt -2.360000 0.521315
vt -2.320000 0.584354
vt -2.360000 0.653636
vt -2.440000 0.653636
vt 2.360000 0.653636
vt 2.360000 0.515072
vt 2.440000 0.515072
s 1
f 161/313/133 168/314/134 167/315/135
f 163/316/136 168/317/134 162/318/137
f 164/319/138 169/320/139 163/321/136
f 165/322/140 170/323/141 164/319/138
f 166/324/142 171/325/143 165/326/140
f 166/327/142 167/315/135 172/328/144
f 168/314/134 173/329/145 167/315/135
f 169/330/139 174/331/146 168/317/134
f 169/320/139 176/332/147 175/333/148
f 170/323/141 177/334/149 176/332/147
f 172/335/144 177/336/149 171/325/143
f 167/315/135 178/337/150 172/328/144
f 173/329/145 180/338/151 179/339/152
f 175/340/148 180/341/151 174/331/146
f 176/332/147 181/342/153 175/333/148
f 177/334/149 182/343/154 176/332/147
f 178/344/150 183/345/155 177/336/149
f 178/337/150 179/339/152 184/346/156
f 180/338/151 185/347/157 179/339/152
f 181/348/153 186/349/158 180/341/151
f 181/342/153 188/350/159 187/351/160
f 182/343/154 189/352/161 188/350/159
f 184/353/156 189/354/161 183/345/155
f 179/339/152 190/355/162 184/346/156
f 185/347/157 192/356/163 191/357/164
f 187/358/160 192/359/163 186/349/158
f 188/350/159 193/360/165 187/351/160
f 189/352/161 194/361/166 188/350/159
f 190/362/162 195/363/167 189/354/161
f 190/355/162 191/357/164 196/364/168
f 192/356/163 197/350/169 191/357/164
f 193/365/165 198/366/170 192/359/163
f 193/360/165 200/347/171 199/367/172
f 194/361/166 201/368/173 200/347/171
f 196/369/168 201/370/173 195/363/167
f 191/357/164 202/371/174 196/364/168
f 197/350/169 204/372/175 203/373/176
f 199/374/172 204/375/175 198/366/170
f 200/347/171 205/376/177 199/367/172
f 201/368/173 206/377/178 200/347/171
f 202/378/174 207/379/179 201/370/173
f 202/371/174 203/373/176 208/380/180
f 204/372/175 209/381/181 203/373/176
f 205/382/177 210/383/182 204/375/175
f 205/376/177 212/384/183 211/385/184
f 206/377/178 213/386/185 212/384/183
f 208/387/180 213/388/185 207/379/179
f 203/373/176 214/389/186 208/380/180
f 209/381/181 216/390/187 215/391/188
f 211/392/184 216/393/187 210/383/182
f 212/384/183 217/394/189 211/385/184
f 213/386/185 218/395/190 212/384/183
f 214/396/186 219/397/191 213/388/185
f 214/389/186 215/391/188 220/398/192
f 216/390/187 221/399/193 215/391/188
f 217/400/189 222/401/194 216/393/187
f 217/394/189 224/402/195 223/403/196
f 218/395/190 225/404/197 224/402/195
f 220/405/192 225/406/197 219/397/191
f 215/391/188 226/407/198 220/398/192
s 0
f 164/408/199 163/409/199 162/410/199
f 221/411/200 223/412/200 225/413/200
s 1
f 227/313/133 234/314/134 233/315/135
f 229/414/136 234/415/134 228/416/137
f 230/319/138 235/320/139 229/321/136
f 231/322/140 236/323/141 230/319/138
f 232/417/142 237/418/143 231/419/140
f 232/327/142 233/315/135 238/328/144
f 234/314/134 239/329/145 233/315/135
f 235/420/139 240/421/146 234/415/134
f 235/320/139 242/332/147 241/333/148
f 236/323/141 243/334/149 242/332/147
f 238/422/144 243/423/149 237/418/143
f 233/315/135 244/337/150 238/328/144
f 239/329/145 246/338/151 245/339/152
f 241/424/148 246/425/151 240/421/146
f 242/332/147 247/342/153 241/333/148
f 243/334/149 248/343/154 242/332/147
f 244/426/150 249/427/155 243/423/149
f 244/337/150 245/339/152 250/346/156
f 246/338/151 251/347/157 245/339/152
f 247/428/153 252/429/158 246/425/151
f 247/342/153 254/350/159 253/351/160
f 248/343/154 255/352/161 254/350/159
f 250/430/156 255/431/161 249/427/155
f 245/339/152 256/355/162 250/346/156
f 251/347/157 258/356/163 257/357/164
f 253/432/160 258/433/163 252/429/158
f 254/350/159 259/360/165 253/351/160
f 255/352/161 260/361/166 254/350/159
f 256/434/162 261/435/167 255/431/161
f 256/355/162 257/357/164 262/364/168
f 258/356/163 263/350/169 257/357/164
f 259/436/165 264/437/170 258/433/163
f 259/360/165 266/347/171 265/367/172
f 260/361/166 267/368/173 266/347/171
f 262/438/168 267/439/173 261/435/167
f 257/357/164 268/371/174 262/364/168
f 263/350/169 270/372/175 269/373/176
f 265/440/172 270/441/175 264/437/170
f 266/347/171 271/376/177 265/367/172
f 267/368/173 272/377/178 266/347/171
f 268/442/174 273/443/179 267/439/173
f 268/371/174 269/373/176 274/380/180
f 270/372/175 275/381/181 269/373/176
f 271/444/177 276/445/182 270/441/175
f 271/376/177 278/384/183 277/385/184
f 272/377/178 279/386/185 278/384/183
f 274/446/180 279/447/185 273/443/179
f 269/373/176 280/389/186 274/380/180
f 275/381/181 282/390/187 281/391/188
f 277/448/184 282/449/187 276/445/182
f 278/384/183 283/394/189 277/385/184
f 279/386/185 284/395/190 278/384/183
f 280/450/186 285/451/191 279/447/185
f 280/389/186 281/391/188 286/398/192
f 282/390/187 287/399/193 281/391/188
f 283/452/189 288/453/194 282/449/187
f 283/394/189 290/402/195 289/403/196
f 284/395/190 291/404/197 290/402/195
f 286/454/192 291/455/197 285/451/191
f 281/391/188 292/407/198 286/398/192
s 0
f 230/456/199 229/457/199 228/458/199
f 287/459/200 289/460/200 291/461/200
s 1
f 293/462/201 300/463/202 299/464/203
f 295/465/204 300/466/202 294/467/205
f 296/468/206 301/463/207 295/469/204
f 297/470/208 302/464/209 296/468/206
f 298/471/210 303/472/211 297/473/208
f 298/474/210 299/464/203 304/475/212
f 300/463/202 305/468/201 299/464/203
f 301/472/207 306/471/213 300/466/202
f 301/463/207 308/462/206 307/476/214
f 302/464/209 309/474/215 308/462/206
f 304/466/212 309/465/215 303/472/211
f 299/464/203 310/470/216 304/475/212
s 0
f 296/477/217 295/478/217 294/479/217
f 308/480/218 309/481/218 305/482/218
s 1
f 311/483/201 318/484/202 317/485/203
f 313/486/204 318/487/202 312/488/205
f 314/489/206 319/484/207 313/490/204
f 315/491/208 320/485/209 314/489/206
f 316/492/210 321/493/211 315/494/208
f 316/495/210 317/485/203 322/496/212
f 318/484/202 323/489/201 317/485/203
f 319/493/207 324/492/213 318/487/202
f 319/484/207 326/483/206 325/497/214
f 320/485/209 327/495/215 326/483/206
f 322/487/212 327/486/215 321/493/211
f 317/485/203 328/491/216 322/496/212
s 0
f 314/498/217 313/499/217 312/500/217
f 326/501/218 327/502/218 323/503/218
s 1
f 161/313/133 162/504/137 168/314/134
f 163/316/136 169/330/139 168/317/134
f 164/319/138 170/323/141 169/320/139
f 165/322/140 171/505/143 170/323/141
f 166/324/142 172/335/144 171/325/143
f 166/327/142 161/313/133 167/315/135
f 168/314/134 174/506/146 173/329/145
f 169/330/139 175/340/148 174/331/146
f 169/320/139 170/323/141 176/332/147
f 170/323/141 171/505/143 177/334/149
f 172/335/144 178/344/150 177/336/149
f 167/315/135 173/329/145 178/337/150
f 173/329/145 174/506/146 180/338/151
f 175/340/148 181/348/153 180/341/151
f 176/332/147 182/343/154 181/342/153
f 177/334/149 183/507/155 182/343/154
f 178/344/150 184/353/156 183/345/155
f 178/337/150 173/329/145 179/339/152
f 180/338/151 186/508/158 185/347/157
f 181/348/153 187/358/160 186/349/158
f 181/342/153 182/343/154 188/350/159
f 182/343/154 183/507/155 189/352/161
f 184/353/156 190/362/162 189/354/161
f 179/339/152 185/347/157 190/355/162
f 185/347/157 186/508/158 192/356/163
f 187/358/160 193/365/165 192/359/163
f 188/350/159 194/361/166 193/360/165
f 189/352/161 195/509/167 194/361/166
f 190/362/162 196/369/168 195/363/167
f 190/355/162 185/347/157 191/357/164
f 192/356/163 198/510/170 197/350/169
f 193/365/165 199/374/172 198/366/170
f 193/360/165 194/361/166 200/347/171
f 194/361/166 195/509/167 201/368/173
f 196/369/168 202/378/174 201/370/173
f 191/357/164 197/350/169 202/371/174
f 197/350/169 198/510/170 204/372/175
f 199/374/172 205/382/177 204/375/175
f 200/347/171 206/377/178 205/376/177
f 201/368/173 207/511/179 206/377/178
f 202/378/174 208/387/180 207/379/179
f 202/371/174 197/350/169 203/373/176
f 204/372/175 210/512/182 209/381/181
f 205/382/177 211/392/184 210/383/182
f 205/376/177 206/377/178 212/384/183
f 206/377/178 207/511/179 213/386/185
f 208/387/180 214/396/186 213/388/185
f 203/373/176 209/381/181 214/389/186
f 209/381/181 210/512/182 216/390/187
f 211/392/184 217/400/189 216/393/187
f 212/384/183 218/395/190 217/394/189
f 213/386/185 219/513/191 218/395/190
f 214/396/186 220/405/192 219/397/191
f 214/389/186 209/381/181 215/391/188
f 216/390/187 222/514/194 221/399/193
f 217/400/189 223/515/196 222/401/194
f 217/394/189 218/395/190 224/402/195
f 218/395/190 219/513/191 225/404/197
f 220/405/192 226/516/198 225/406/197
f 215/391/188 221/399/193 226/407/198
s 0
f 162/410/199 161/517/199 164/408/199
f 161/517/199 166/518/199 164/408/199
f 166/518/199 165/519/199 164/408/199
f 225/413/200 226/520/200 221/411/200
f 221/411/200 222/521/200 223/412/200
f 223/412/200 224/522/200 225/413/200
s 1
f 227/313/133 228/504/137 234/314/134
f 229/414/136 235/420/139 234/415/134
f 230/319/138 236/323/141 235/320/139
f 231/322/140 237/505/143 236/323/141
f 232/417/142 238/422/144 237/418/143
f 232/327/142 227/313/133 233/315/135
f 234/314/134 240/506/146 239/329/145
f 235/420/139 241/424/148 240/421/146
f 235/320/139 236/323/141 242/332/147
f 236/323/141 237/505/143 243/334/149
f 238/422/144 244/426/150 243/423/149
f 233/315/135 239/329/145 244/337/150
f 239/329/145 240/506/146 246/338/151
f 241/424/148 247/428/153 246/425/151
f 242/332/147 248/343/154 247/342/153
f 243/334/149 249/507/155 248/343/154
f 244/426/150 250/430/156 249/427/155
f 244/337/150 239/329/145 245/339/152
f 246/338/151 252/508/158 251/347/157
f 247/428/153 253/432/160 252/429/158
f 247/342/153 248/343/154 254/350/159
f 248/343/154 249/507/155 255/352/161
f 250/430/156 256/434/162 255/431/161
f 245/339/152 251/347/157 256/355/162
f 251/347/157 252/508/158 258/356/163
f 253/432/160 259/436/165 258/433/163
f 254/350/159 260/361/166 259/360/165
f 255/352/161 261/509/167 260/361/166
f 256/434/162 262/438/168 261/435/167
f 256/355/162 251/347/157 257/357/164
f 258/356/163 264/510/170 263/350/169
f 259/436/165 265/440/172 264/437/170
f 259/360/165 260/361/166 266/347/171
f 260/361/166 261/509/167 267/368/173
f 262/438/168 268/442/174 267/439/173
f 257/357/164 263/350/169 268/371/174
f 263/350/169 264/510/170 270/372/175
f 265/440/172 271/444/177 270/441/175
f 266/347/171 272/377/178 271/376/177
f 267/368/173 273/511/179 272/377/178
f 268/442/174 274/446/180 273/443/179
f 268/371/174 263/350/169 269/373/176
f 270/372/175 276/512/182 275/381/181
f 271/444/177 277/448/184 276/445/182
f 271/376/177 272/377/178 278/384/183
f 272/377/178 273/511/179 279/386/185
f 274/446/180 280/450/186 279/447/185
f 269/373/176 275/381/181 280/389/186
f 275/381/181 276/512/182 282/390/187
f 277/448/184 283/452/189 282/449/187
f 278/384/183 284/395/190 283/394/189
f 279/386/185 285/513/191 284/395/190
f 280/450/186 286/454/192 285/451/191
f 280/389/186 275/381/181 281/391/188
f 282/390/187 288/514/194 287/399/193
f 283/452/189 289/523/196 288/453/194
f 283/394/189 284/395/190 290/402/195
f 284/395/190 285/513/191 291/404/197
f 286/454/192 292/524/198 291/455/197
f 281/391/188 287/399/193 292/407/198
s 0
f 228/458/199 227/525/199 230/456/199
f 227/525/199 232/526/199 230/456/199
f 232/526/199 231/527/199 230/456/199
f 291/461/200 292/528/200 287/459/200
f 287/459/200 288/529/200 289/460/200
f 289/460/200 290/530/200 291/461/200
s 1
f 293/462/201 294/476/205 300/463/202
f 295/465/204 301/472/207 300/466/202
f 296/468/206 302/464/209 301/463/207
f 297/470/208 303/475/211 302/464/209
f 298/471/210 304/466/212 303/472/211
f 298/474/210 293/462/201 299/464/203
f 300/463/202 306/469/213 305/468/201
f 301/472/207 307/473/214 306/471/213
f 301/463/207 302/464/209 308/462/206
f 302/464/209 303/475/211 309/474/215
f 304/466/212 310/467/216 309/465/215
f 299/464/203 305/468/201 310/470/216
s 0
f 294/479/217 293/531/217 296/477/217
f 293/531/217 298/532/217 296/477/217
f 298/532/217 297/533/217 296/477/217
f 309/481/218 310/534/218 305/482/218
f 305/482/218 306/535/218 307/536/218
f 307/536/218 308/480/218 305/482/218
s 1
f 311/483/201 312/497/205 318/484/202
f 313/486/204 319/493/207 318/487/202
f 314/489/206 320/485/209 319/484/207
f 315/491/208 321/496/211 320/485/209
f 316/492/210 322/487/212 321/493/211
f 316/495/210 311/483/201 317/485/203
f 318/484/202 324/490/213 323/489/201
f 319/493/207 325/494/214 324/492/213
f 319/484/207 320/485/209 326/483/206
f 320/485/209 321/496/211 327/495/215
f 322/487/212 328/488/216 327/486/215
f 317/485/203 323/489/201 328/491/216
s 0
f 312/500/217 311/537/217 314/498/217
f 311/537/217 316/538/217 314/498/217
f 316/538/217 315/539/217 314/498/217
f 327/502/218 328/540/218 323/503/218
f 323/503/218 324/541/218 325/542/218
f 325/542/218 326/501/218 323/503/218
