# Blender 5.0.1
# www.blender.org
mtllib raft_anchor.mtl
o wood
usemtl wood
v -0.300000 0.036364 0.036000
v -0.300000 0.010651 0.025456
v -0.300000 0.000000 0.000000
v -0.300000 0.010651 -0.025456
v -0.300000 0.036364 -0.036000
v -0.300000 0.062077 -0.025456
v -0.300000 0.072727 -0.000000
v -0.300000 0.062077 0.025456
v 0.000000 0.046465 0.040000
v 0.000000 0.017895 0.028284
v 0.000000 0.006061 0.000000
v 0.000000 0.017895 -0.028284
v 0.000000 0.046465 -0.040000
v 0.000000 0.075035 -0.028284
v 0.000000 0.086869 -0.000000
v 0.000000 0.075035 0.028284
v 0.300000 0.036364 0.036000
v 0.300000 0.010651 0.025456
v 0.300000 0.000000 0.000000
v 0.300000 0.010651 -0.025456
v 0.300000 0.036364 -0.036000
v 0.300000 0.062077 -0.025456
v 0.300000 0.072727 -0.000000
v 0.300000 0.062077 0.025456
v -0.034000 0.036364 -0.300000
v -0.024042 0.012079 -0.300000
v -0.000000 0.002020 -0.300000
v 0.024042 0.012079 -0.300000
v 0.034000 0.036364 -0.300000
v 0.024042 0.060648 -0.300000
v 0.000000 0.070707 -0.300000
v -0.024042 0.060648 -0.300000
v -0.038000 0.043434 0.000000
v -0.026870 0.016293 0.000000
v -0.000000 0.005051 0.000000
v 0.026870 0.016293 0.000000
v 0.038000 0.043434 0.000000
v 0.026870 0.070576 0.000000
v 0.000000 0.081818 0.000000
v -0.026870 0.070576 0.000000
v -0.034000 0.036364 0.300000
v -0.024042 0.012079 0.300000
v -0.000000 0.002020 0.300000
v 0.024042 0.012079 0.300000
v 0.034000 0.036364 0.300000
v 0.024042 0.060648 0.300000
v 0.000000 0.070707 0.300000
v -0.024042 0.060648 0.300000
vn -0.0131 -0.0082 0.9999
vn -0.0000 -0.7005 0.7137
vn -0.0000 0.0081 1.0000
vn 0.0105 -0.7086 0.7055
vn -0.0000 -1.0000 -0.0000
vn 0.0105 -0.7086 -0.7055
vn 0.0202 -0.9998 -0.0000
vn -0.0131 -0.0082 -0.9999
vn -0.0000 -0.7005 -0.7137
vn -0.0370 0.6999 -0.7133
vn -0.0000 0.0081 -1.0000
vn -0.0471 0.9989 -0.0000
vn -0.0000 0.7087 -0.7055
vn -0.0000 0.7087 0.7055
vn -0.0000 1.0000 -0.0000
vn -0.0370 0.6999 0.7133
vn 0.0131 -0.0082 0.9999
vn -0.0105 -0.7086 0.7055
vn -0.0105 -0.7086 -0.7055
vn -0.0202 -0.9998 -0.0000
vn 0.0131 -0.0082 -0.9999
vn 0.0370 0.6999 -0.7133
vn 0.0471 0.9989 -0.0000
vn 0.0370 0.6999 0.7133
vn -1.0000 -0.0000 -0.0000
vn 1.0000 -0.0000 -0.0000
vn -0.9999 -0.0057 -0.0132
vn -0.7125 -0.7017 -0.0000
vn -1.0000 0.0057 -0.0000
vn -0.7068 -0.7074 0.0033
vn 0.7068 -0.7074 0.0033
vn -0.0000 -0.9999 0.0101
vn 0.9999 -0.0057 -0.0132
vn 0.7125 -0.7017 -0.0000
vn 0.7122 0.7013 -0.0299
vn 1.0000 0.0057 -0.0000
vn -0.0000 0.9993 -0.0370
vn 0.7068 0.7075 -0.0000
vn -0.7068 0.7075 -0.0000
vn -0.7122 0.7013 -0.0299
vn -0.9999 -0.0057 0.0132
vn -0.7068 -0.7074 -0.0033
vn 0.7068 -0.7074 -0.0033
vn -0.0000 -0.9999 -0.0101
vn 0.9999 -0.0057 0.0132
vn 0.7122 0.7013 0.0299
vn -0.0000 0.9993 0.0370
vn -0.7122 0.7013 0.0299
vn -0.0000 -0.0000 -1.0000
vn -0.0000 -0.0000 1.0000
vt -0.857143 0.128571
vt 0.000000 0.076331
vt 0.000000 0.157143
vt -0.857143 -0.072731
vt 0.000000 -0.000000
vt 0.000000 -0.080812
vt -0.857143 0.072731
vt -0.857143 -0.000000
vt 0.857143 0.128571
vt 0.857143 0.055840
vt 0.857143 0.201302
vt -0.857143 -0.000000
vt 0.000000 0.080812
vt 0.000000 -0.000000
vt -0.857143 0.201302
vt 0.000000 0.237955
vt 0.857143 -0.072731
vt 0.857143 0.072731
vt 0.857143 -0.000000
vt -0.857143 0.055840
vt 0.857143 -0.000000
vt -0.072731 0.201302
vt -0.072731 0.055840
vt 0.072731 0.055840
vt 0.000000 0.231429
vt -0.102857 0.128571
vt -0.000000 0.025714
vt 0.000000 0.071800
vt 0.000000 0.148571
vt -0.068690 0.857143
vt -0.000000 -0.000000
vt -0.076772 -0.000000
vt 0.068690 0.857143
vt -0.000000 0.857143
vt 0.857143 0.059881
vt 0.857143 0.197262
vt 0.000000 -0.857143
vt 0.076772 0.000000
vt 0.068690 -0.857143
vt 0.000000 0.000000
vt -0.857143 0.197262
vt 0.000000 0.225343
vt -0.068690 -0.857143
vt -0.000000 -0.857143
vt -0.857143 0.059881
vt 0.000000 0.857143
vt -0.068690 0.197262
vt -0.068690 0.059881
vt 0.068690 0.059881
vt 0.068690 0.197262
vt 0.000000 0.225714
vt -0.000000 0.031429
vt 0.102857 0.128571
vt 0.072731 0.201302
vt -0.000000 0.231429
vt 0.000000 0.025714
vt 0.097143 0.128571
vt -0.000000 0.225714
vt -0.097143 0.128571
vt 0.000000 0.031429
s 1
f 1/1/1 10/2/2 9/3/3
f 2/4/4 11/5/5 10/6/2
f 4/7/6 11/5/5 3/8/7
f 5/9/8 12/2/9 4/10/6
f 6/11/10 13/3/11 5/9/8
f 7/12/12 14/6/13 6/4/10
f 7/12/12 16/13/14 15/14/15
f 8/15/16 9/3/3 16/16/14
f 10/2/2 17/9/17 9/3/3
f 11/5/5 18/17/18 10/6/2
f 11/5/5 20/18/19 19/19/20
f 12/2/9 21/1/21 20/20/19
f 13/3/11 22/15/22 21/1/21
f 14/6/13 23/21/23 22/17/22
f 16/13/14 23/21/23 15/14/15
f 9/3/3 24/11/24 16/16/14
s 0
f 6/22/25 4/23/25 2/24/25
f 23/25/26 17/26/26 19/27/26
s 1
f 25/1/27 34/28/28 33/29/29
f 26/30/30 35/31/5 34/32/28
f 28/33/31 35/31/5 27/34/32
f 29/9/33 36/28/34 28/35/31
f 30/36/35 37/29/36 29/9/33
f 31/37/37 38/38/38 30/39/35
f 31/37/37 40/32/39 39/40/15
f 32/41/40 33/29/29 40/42/39
f 34/28/28 41/9/41 33/29/29
f 35/31/5 42/43/42 34/32/28
f 35/31/5 44/39/43 43/44/44
f 36/28/34 45/1/45 44/45/43
f 37/29/36 46/41/46 45/1/45
f 38/38/38 47/46/47 46/33/46
f 40/32/39 47/46/47 39/40/15
f 33/29/29 48/36/48 40/42/39
s 0
f 30/47/49 28/48/49 26/49/49
f 46/50/50 47/51/50 43/52/50
s 1
f 1/1/1 2/20/4 10/2/2
f 2/4/4 3/8/7 11/5/5
f 4/7/6 12/13/9 11/5/5
f 5/9/8 13/3/11 12/2/9
f 6/11/10 14/16/13 13/3/11
f 7/12/12 15/14/15 14/6/13
f 7/12/12 8/7/16 16/13/14
f 8/15/16 1/1/1 9/3/3
f 10/2/2 18/10/18 17/9/17
f 11/5/5 19/19/20 18/17/18
f 11/5/5 12/13/9 20/18/19
f 12/2/9 13/3/11 21/1/21
f 13/3/11 14/16/13 22/15/22
f 14/6/13 15/14/15 23/21/23
f 16/13/14 24/18/24 23/21/23
f 9/3/3 17/9/17 24/11/24
s 0
f 2/24/25 1/53/25 8/54/25
f 8/54/25 7/55/25 2/24/25
f 7/55/25 6/22/25 2/24/25
f 6/22/25 5/26/25 4/23/25
f 4/23/25 3/56/25 2/24/25
f 23/25/26 24/22/26 17/26/26
f 17/26/26 18/23/26 19/27/26
f 19/27/26 20/24/26 21/53/26
f 21/53/26 22/54/26 19/27/26
f 22/54/26 23/25/26 19/27/26
s 1
f 25/1/27 26/45/30 34/28/28
f 26/30/30 27/34/32 35/31/5
f 28/33/31 36/38/34 35/31/5
f 29/9/33 37/29/36 36/28/34
f 30/36/35 38/42/38 37/29/36
f 31/37/37 39/40/15 38/38/38
f 31/37/37 32/43/40 40/32/39
f 32/41/40 25/1/27 33/29/29
f 34/28/28 42/35/42 41/9/41
f 35/31/5 43/44/44 42/43/42
f 35/31/5 36/38/34 44/39/43
f 36/28/34 37/29/36 45/1/45
f 37/29/36 38/42/38 46/41/46
f 38/38/38 39/40/15 47/46/47
f 40/32/39 48/30/48 47/46/47
f 33/29/29 41/9/41 48/36/48
s 0
f 26/49/49 25/57/49 32/50/49
f 32/50/49 31/58/49 30/47/49
f 30/47/49 29/59/49 28/48/49
f 28/48/49 27/60/49 26/49/49
f 26/49/49 32/50/49 30/47/49
f 47/51/50 48/47/50 41/59/50
f 41/59/50 42/48/50 47/51/50
f 42/48/50 43/52/50 47/51/50
f 43/52/50 44/49/50 45/57/50
f 45/57/50 46/50/50 43/52/50
o metal
usemtl metal
v -0.018485 0.324242 -0.193144
v 0.139349 0.205126 -0.105713
v -0.067035 0.126482 -0.088368
v -0.176286 0.324242 -0.068017
v -0.063070 0.510305 -0.083141
v 0.148614 0.451279 -0.112742
v 0.071738 0.112608 0.094568
v -0.133059 0.210502 0.100941
v -0.135166 0.439783 0.102539
v 0.079039 0.557415 0.104193
v 0.213760 0.324242 0.082476
v 0.021179 0.324242 0.221295
v -0.056801 0.195327 -0.194512
v 0.084399 0.240297 -0.218747
v 0.045779 0.131363 -0.118650
v 0.184587 0.324242 -0.140031
v 0.074844 0.398685 -0.193983
v -0.149936 0.324242 -0.197646
v -0.163520 0.201691 -0.101825
v -0.051217 0.440483 -0.175389
v -0.172184 0.453287 -0.107220
v 0.052089 0.543708 -0.135004
v 0.199167 0.252608 -0.019061
v 0.216990 0.402287 -0.020767
v 0.000000 0.087184 0.000000
v 0.145883 0.101975 -0.013962
v -0.197305 0.253278 0.018883
v -0.116308 0.147035 0.011131
v -0.116744 0.502114 0.011173
v -0.195623 0.394602 0.018722
v 0.145347 0.545694 -0.013911
v 0.000000 0.570424 0.000000
v 0.140308 0.219087 0.087371
v -0.046007 0.130402 0.119241
v -0.152657 0.324242 0.115808
v -0.047481 0.524295 0.123062
v 0.180205 0.459299 0.112215
v 0.045688 0.220550 0.156456
v 0.121116 0.324242 0.159656
v -0.072695 0.251938 0.188414
v -0.070966 0.394827 0.183931
v 0.059105 0.458385 0.202400
v 0.154149 0.061616 0.128693
v 0.133978 0.055707 0.126112
v 0.124093 0.057964 0.144688
v 0.138155 0.065268 0.158749
v 0.156731 0.067526 0.148864
v 0.182434 0.213131 0.156978
v 0.162263 0.207222 0.154396
v 0.152378 0.209479 0.172972
v 0.166439 0.216784 0.187034
v 0.185015 0.219041 0.177149
v 0.175362 0.394949 0.149907
v 0.155192 0.389040 0.147325
v 0.145307 0.391297 0.165901
v 0.159368 0.398602 0.179963
v 0.177944 0.400859 0.170078
v 0.104652 0.546465 0.079196
v 0.084481 0.540555 0.076615
v 0.074596 0.542812 0.095190
v 0.088658 0.550117 0.109252
v 0.107233 0.552374 0.099367
v 0.012728 0.617172 -0.012728
v -0.007443 0.611262 -0.015309
v -0.017328 0.613519 0.003266
v -0.003266 0.620824 0.017328
v 0.015309 0.623081 0.007443
v -0.128693 0.061616 0.154149
v -0.126112 0.055707 0.133978
v -0.144688 0.057964 0.124093
v -0.158749 0.065268 0.138155
v -0.148864 0.067526 0.156731
v -0.156978 0.213131 0.182434
v -0.154396 0.207222 0.162263
v -0.172972 0.209479 0.152378
v -0.187034 0.216784 0.166439
v -0.177149 0.219041 0.185015
v -0.149907 0.394949 0.175362
v -0.147325 0.389040 0.155192
v -0.165901 0.391297 0.145307
v -0.179963 0.398602 0.159368
v -0.170078 0.400859 0.177944
v -0.079196 0.546465 0.104652
v -0.076615 0.540555 0.084481
v -0.095190 0.542812 0.074596
v -0.109252 0.550117 0.088658
v -0.099367 0.552374 0.107233
v 0.012728 0.617172 0.012728
v 0.015309 0.611262 -0.007443
v -0.003266 0.613519 -0.017328
v -0.017328 0.620824 -0.003266
v -0.007443 0.623081 0.015309
v -0.154149 0.061616 -0.128693
v -0.133978 0.055707 -0.126112
v -0.124093 0.057964 -0.144688
v -0.138155 0.065268 -0.158749
v -0.156731 0.067526 -0.148864
v -0.182434 0.213131 -0.156978
v -0.162263 0.207222 -0.154396
v -0.152378 0.209479 -0.172972
v -0.166439 0.216784 -0.187034
v -0.185015 0.219041 -0.177149
v -0.175362 0.394949 -0.149907
v -0.155192 0.389040 -0.147325
v -0.145307 0.391297 -0.165901
v -0.159368 0.398602 -0.179963
v -0.177944 0.400859 -0.170078
v -0.104652 0.546465 -0.079196
v -0.084481 0.540555 -0.076615
v -0.074596 0.542812 -0.095190
v -0.088658 0.550117 -0.109252
v -0.107233 0.552374 -0.099367
v -0.012728 0.617172 0.012728
v 0.007443 0.611262 0.015309
v 0.017328 0.613519 -0.003266
v 0.003266 0.620824 -0.017328
v -0.015309 0.623081 -0.007443
v 0.128693 0.061616 -0.154149
v 0.126112 0.055707 -0.133978
v 0.144688 0.057964 -0.124093
v 0.158749 0.065268 -0.138155
v 0.148864 0.067526 -0.156731
v 0.156978 0.213131 -0.182434
v 0.154396 0.207222 -0.162263
v 0.172972 0.209479 -0.152378
v 0.187034 0.216784 -0.166439
v 0.177149 0.219041 -0.185015
v 0.149907 0.394949 -0.175362
v 0.147325 0.389040 -0.155192
v 0.165901 0.391297 -0.145307
v 0.179963 0.398602 -0.159368
v 0.170078 0.400859 -0.177944
v 0.079196 0.546465 -0.104652
v 0.076615 0.540555 -0.084481
v 0.095190 0.542812 -0.074596
v 0.109252 0.550117 -0.088658
v 0.099367 0.552374 -0.107233
v -0.012728 0.617172 -0.012728
v -0.015309 0.611262 0.007443
v 0.003266 0.613519 0.017328
v 0.017328 0.620824 0.003266
v 0.007443 0.623081 -0.015309
v 0.252000 0.293939 0.000000
v 0.235000 0.311111 0.000000
v 0.218000 0.293939 0.000000
v 0.235000 0.276768 0.000000
v 0.203872 0.293939 -0.148122
v 0.190119 0.311111 -0.138130
v 0.176366 0.293939 -0.128137
v 0.190119 0.276768 -0.138130
v 0.077872 0.293939 -0.239666
v 0.072619 0.311111 -0.223498
v 0.067366 0.293939 -0.207330
v 0.072619 0.276768 -0.223498
v -0.077872 0.293939 -0.239666
v -0.072619 0.311111 -0.223498
v -0.067366 0.293939 -0.207330
v -0.072619 0.276768 -0.223498
v -0.203872 0.293939 -0.148122
v -0.190119 0.311111 -0.138130
v -0.176366 0.293939 -0.128137
v -0.190119 0.276768 -0.138130
v -0.252000 0.293939 -0.000000
v -0.235000 0.311111 -0.000000
v -0.218000 0.293939 -0.000000
v -0.235000 0.276768 -0.000000
v -0.203872 0.293939 0.148122
v -0.190119 0.311111 0.138130
v -0.176366 0.293939 0.128137
v -0.190119 0.276768 0.138130
v -0.077872 0.293939 0.239666
v -0.072619 0.311111 0.223498
v -0.067366 0.293939 0.207330
v -0.072619 0.276768 0.223498
v 0.077872 0.293939 0.239666
v 0.072619 0.311111 0.223498
v 0.067366 0.293939 0.207330
v 0.072619 0.276768 0.223498
v 0.203872 0.293939 0.148122
v 0.190119 0.311111 0.138130
v 0.176366 0.293939 0.128137
v 0.190119 0.276768 0.138130
v 0.026000 0.576768 0.000000
v 0.013000 0.576768 -0.022517
v -0.013000 0.576768 -0.022517
v -0.026000 0.576768 -0.000000
v -0.013000 0.576768 0.022517
v 0.013000 0.576768 0.022517
v 0.024000 0.657576 0.000000
v 0.012000 0.657576 -0.020785
v -0.012000 0.657576 -0.020785
v -0.024000 0.657576 -0.000000
v -0.012000 0.657576 0.020785
v 0.012000 0.657576 0.020785
v 0.000000 0.800000 0.000000
v 0.000000 0.780808 0.019000
v 0.000000 0.761616 0.000000
v 0.000000 0.780808 -0.019000
v -0.047611 0.784374 0.000000
v -0.036443 0.768848 0.019000
v -0.025275 0.753321 0.000000
v -0.036443 0.768848 -0.019000
v -0.077036 0.743465 0.000000
v -0.058966 0.737534 0.019000
v -0.040895 0.731604 0.000000
v -0.058966 0.737534 -0.019000
v -0.077036 0.692899 0.000000
v -0.058966 0.698829 0.019000
v -0.040895 0.704760 0.000000
v -0.058966 0.698829 -0.019000
v -0.047611 0.651990 0.000000
v -0.036443 0.667516 0.019000
v -0.025275 0.683043 0.000000
v -0.036443 0.667516 -0.019000
v -0.000000 0.636364 0.000000
v -0.000000 0.655556 0.019000
v -0.000000 0.674747 0.000000
v -0.000000 0.655556 -0.019000
v 0.047611 0.651990 0.000000
v 0.036443 0.667516 0.019000
v 0.025275 0.683043 0.000000
v 0.036443 0.667516 -0.019000
v 0.077036 0.692899 0.000000
v 0.058966 0.698829 0.019000
v 0.040895 0.704760 0.000000
v 0.058966 0.698829 -0.019000
v 0.077036 0.743465 0.000000
v 0.058966 0.737534 0.019000
v 0.040895 0.731604 0.000000
v 0.058966 0.737534 -0.019000
v 0.047611 0.784374 0.000000
v 0.036443 0.768848 0.019000
v 0.025275 0.753321 0.000000
v 0.036443 0.768848 -0.019000
vn -0.1894 0.0667 -0.9796
vn 0.7523 -0.4296 -0.4994
vn 0.0342 0.0004 -0.9994
vn 0.0338 0.1602 -0.9865
vn -0.1054 0.1211 -0.9870
vn 0.8382 -0.4189 -0.3491
vn -0.0587 -0.9279 -0.3681
vn -0.9658 -0.0295 -0.2577
vn -0.4276 0.8885 -0.1662
vn 0.6528 0.5584 -0.5119
vn 0.8529 -0.3158 -0.4158
vn -0.4605 -0.8865 -0.0449
vn -0.9740 0.0113 -0.2263
vn -0.5084 0.8334 -0.2169
vn 0.8195 0.4276 -0.3815
vn 0.5580 -0.3073 0.7708
vn -0.5887 -0.4936 0.6401
vn -0.7190 0.1858 0.6697
vn -0.0816 0.7100 0.6994
vn 0.6400 -0.0102 0.7683
vn 0.5247 -0.0285 0.8508
vn 0.5971 0.0205 0.8019
vn 0.4916 0.5613 0.6658
vn -0.2328 0.1999 0.9518
vn -0.3373 0.4500 0.8269
vn -0.5775 0.4308 0.6935
vn -0.3533 0.0336 0.9349
vn -0.6561 0.0316 0.7540
vn -0.7548 -0.2112 0.6210
vn 0.0949 -0.5116 0.8540
vn 0.1105 -0.4732 0.8740
vn 0.1114 -0.4739 0.8735
vn 0.4860 -0.3779 0.7880
vn 0.5335 -0.4109 0.7393
vn 0.5919 -0.3804 0.7106
vn 0.9631 0.1994 0.1809
vn 0.8942 0.4440 0.0570
vn 0.6525 0.6971 0.2972
vn -0.2053 0.9398 0.2731
vn -0.4910 0.8609 0.1333
vn -0.6972 0.6498 0.3027
vn -0.8417 0.1856 0.5070
vn -0.9113 0.0113 0.4115
vn -0.8200 -0.2108 0.5321
vn -0.6748 -0.6562 0.3378
vn -0.4409 -0.8848 0.1506
vn -0.0774 -0.9465 0.3132
vn 0.7250 -0.4306 0.5375
vn 0.8724 -0.2954 0.3894
vn 0.7955 -0.5431 0.2688
vn 0.1674 0.9859 -0.0039
vn 0.1537 0.9789 -0.1344
vn -0.3948 0.8603 -0.3226
vn -0.7739 0.5849 0.2430
vn -0.7953 0.5925 0.1281
vn -0.9803 -0.0283 -0.1956
vn -0.7535 -0.5949 0.2799
vn -0.7934 -0.6076 0.0376
vn -0.5978 -0.7906 -0.1327
vn 0.1159 -0.9777 0.1750
vn 0.0644 -0.9431 -0.3263
vn 0.5223 -0.5480 -0.6533
vn 0.9912 -0.1187 -0.0587
vn 0.9751 -0.1182 -0.1876
vn 0.8331 0.3311 -0.4430
vn 0.5433 0.3880 -0.7445
vn -0.0124 0.3750 -0.9269
vn -0.4558 0.6806 -0.5737
vn -0.2605 0.7534 -0.6037
vn -0.3909 0.4821 -0.7841
vn -0.9795 -0.0294 -0.1991
vn -0.9789 -0.0471 -0.1990
vn -0.6007 -0.4500 -0.6608
vn -0.4841 -0.7121 -0.5085
vn 0.5857 0.3253 -0.7424
vn 0.5219 0.1624 -0.8374
vn -0.1252 0.1459 -0.9813
vn -0.1113 -0.8288 -0.5483
vn 0.0976 -0.6919 -0.7154
vn 0.5816 -0.6525 -0.4858
vn 0.5030 0.0670 -0.8617
vn -0.4462 0.1199 -0.8869
vn 0.7529 -0.0368 -0.6572
vn -0.9780 0.1959 -0.0715
vn -0.5152 0.2493 -0.8200
vn -0.3047 -0.1195 0.9449
vn -0.9798 0.0494 0.1937
vn 0.8813 -0.2405 0.4068
vn -0.0988 -0.0734 0.9924
vn 0.8780 -0.0777 0.4723
vn -0.3896 -0.2919 -0.8735
vn 0.7703 0.0275 -0.6371
vn -0.9518 -0.1625 0.2600
vn -0.1067 0.2013 0.9737
vn 0.8439 0.3030 0.4427
vn 0.7293 0.1173 -0.6741
vn -0.8589 -0.3853 0.3374
vn -0.2081 -0.7259 -0.6555
vn -0.2284 0.4932 0.8394
vn 0.6727 0.6862 0.2768
vn 0.5576 -0.2875 -0.7787
vn -0.6915 -0.7071 0.1476
vn -0.1943 -0.8618 -0.4686
vn -0.4779 0.3973 0.7835
vn 0.5510 0.8299 0.0873
vn 0.2438 -0.9387 0.2438
vn -0.2438 0.9387 -0.2438
vn 0.8617 0.0670 0.5030
vn 0.8869 0.1199 -0.4462
vn 0.6572 -0.0368 0.7529
vn 0.0715 0.1959 -0.9780
vn 0.8200 0.2493 -0.5152
vn -0.9449 -0.1195 -0.3047
vn -0.1937 0.0494 -0.9798
vn -0.4068 -0.2405 0.8813
vn -0.9924 -0.0734 -0.0988
vn -0.4723 -0.0777 0.8780
vn 0.8735 -0.2919 -0.3896
vn 0.6371 0.0275 0.7703
vn -0.2600 -0.1625 -0.9518
vn -0.9737 0.2013 -0.1067
vn -0.4427 0.3030 0.8439
vn 0.6741 0.1173 0.7293
vn -0.3374 -0.3853 -0.8589
vn 0.6555 -0.7259 -0.2081
vn -0.8394 0.4932 -0.2284
vn -0.2768 0.6862 0.6727
vn 0.7787 -0.2875 0.5576
vn -0.1476 -0.7071 -0.6915
vn 0.4686 -0.8618 -0.1943
vn -0.7835 0.3973 -0.4779
vn -0.0873 0.8299 0.5510
vn -0.2438 -0.9387 0.2438
vn 0.2438 0.9387 -0.2438
vn -0.5030 0.0670 0.8617
vn 0.4462 0.1199 0.8869
vn -0.7529 -0.0368 0.6572
vn 0.9780 0.1959 0.0715
vn 0.5152 0.2493 0.8200
vn 0.3047 -0.1195 -0.9449
vn 0.9798 0.0494 -0.1937
vn -0.8813 -0.2405 -0.4068
vn 0.0988 -0.0734 -0.9924
vn -0.8780 -0.0777 -0.4723
vn 0.3896 -0.2919 0.8735
vn -0.7703 0.0275 0.6371
vn 0.9518 -0.1625 -0.2600
vn 0.1067 0.2013 -0.9737
vn -0.8439 0.3030 -0.4427
vn -0.7293 0.1173 0.6741
vn 0.8589 -0.3853 -0.3374
vn 0.2081 -0.7259 0.6555
vn 0.2284 0.4932 -0.8394
vn -0.6727 0.6862 -0.2768
vn -0.5576 -0.2875 0.7787
vn 0.6915 -0.7071 -0.1476
vn 0.1943 -0.8618 0.4686
vn 0.4779 0.3973 -0.7835
vn -0.5510 0.8299 -0.0873
vn -0.2438 -0.9387 -0.2438
vn 0.2438 0.9387 0.2438
vn -0.8617 0.0670 -0.5030
vn -0.8869 0.1199 0.4462
vn -0.6572 -0.0368 -0.7529
vn -0.0715 0.1959 0.9780
vn -0.8200 0.2493 0.5152
vn 0.9449 -0.1195 0.3047
vn 0.1937 0.0494 0.9798
vn 0.4068 -0.2405 -0.8813
vn 0.9924 -0.0734 0.0988
vn 0.4723 -0.0777 -0.8780
vn -0.8735 -0.2919 0.3896
vn -0.6371 0.0275 -0.7703
vn 0.2600 -0.1625 0.9518
vn 0.9737 0.2013 0.1067
vn 0.4427 0.3030 -0.8439
vn -0.6741 0.1173 -0.7293
vn 0.3374 -0.3853 0.8589
vn -0.6555 -0.7259 0.2081
vn 0.8394 0.4932 0.2284
vn 0.2768 0.6862 -0.6727
vn -0.7787 -0.2875 -0.5576
vn 0.1476 -0.7071 0.6915
vn -0.4686 -0.8618 0.1943
vn 0.7835 0.3973 0.4779
vn 0.0873 0.8299 -0.5510
vn 0.2438 -0.9387 -0.2438
vn -0.2438 0.9387 0.2438
vn 0.8090 -0.0000 -0.5878
vn 0.1395 0.9902 -0.0000
vn 1.0000 -0.0000 -0.0000
vn 0.1129 0.9902 -0.0820
vn -1.0000 -0.0000 -0.0000
vn -0.8090 -0.0000 0.5878
vn 0.1396 -0.9902 -0.0000
vn 0.1129 -0.9902 -0.0820
vn 0.0431 0.9902 -0.1327
vn -0.3090 -0.0000 0.9511
vn 0.0431 -0.9902 -0.1327
vn -0.3090 -0.0000 -0.9511
vn 0.3090 -0.0000 -0.9511
vn -0.0431 0.9902 -0.1327
vn -0.0431 -0.9902 -0.1327
vn -0.1129 0.9902 -0.0820
vn 0.3090 -0.0000 0.9511
vn 0.8090 -0.0000 0.5878
vn -0.1129 -0.9902 -0.0820
vn -0.8090 -0.0000 -0.5878
vn -0.1395 0.9902 -0.0000
vn -0.1396 -0.9902 -0.0000
vn -0.1129 0.9902 0.0820
vn -0.1129 -0.9902 0.0820
vn -0.0431 0.9902 0.1327
vn -0.0431 -0.9902 0.1327
vn 0.0431 0.9902 0.1327
vn 0.0431 -0.9902 0.1327
vn 0.1129 0.9902 0.0820
vn 0.1129 -0.9902 0.0820
vn 0.9997 0.0247 -0.0000
vn 0.4998 0.0247 -0.8658
vn -0.4999 0.0247 -0.8658
vn -0.9997 0.0247 -0.0000
vn -0.4998 0.0247 -0.8658
vn -0.4998 0.0247 0.8658
vn 0.4999 0.0247 0.8658
vn 0.4998 0.0247 0.8658
vn -0.0000 -1.0000 -0.0000
vn -0.0000 1.0000 -0.0000
vn -0.0831 0.1112 0.9903
vn -0.0000 0.1395 0.9902
vn 0.5921 -0.8058 -0.0000
vn -0.0000 0.1395 -0.9902
vn -0.0831 0.1112 -0.9903
vn -0.5901 0.8073 -0.0000
vn -0.1314 0.0415 0.9905
vn -0.1314 0.0415 -0.9905
vn -0.9516 -0.3073 -0.0000
vn -0.9516 0.3073 -0.0000
vn -0.1314 -0.0415 0.9905
vn 0.9521 -0.3059 -0.0000
vn 0.9521 0.3059 -0.0000
vn -0.1314 -0.0415 -0.9905
vn -0.5901 -0.8073 -0.0000
vn 0.5921 0.8058 -0.0000
vn -0.0831 -0.1112 0.9903
vn -0.0000 -0.1394 0.9902
vn -0.0000 -0.1394 -0.9902
vn -0.0831 -0.1112 -0.9903
vn 0.0831 -0.1112 0.9903
vn -0.5921 0.8058 -0.0000
vn 0.0831 -0.1112 -0.9903
vn 0.5901 -0.8073 -0.0000
vn 0.1314 -0.0415 0.9905
vn 0.1314 -0.0415 -0.9905
vn 0.9516 0.3073 -0.0000
vn 0.9516 -0.3073 -0.0000
vn 0.1314 0.0415 0.9905
vn -0.9521 0.3059 -0.0000
vn -0.9521 -0.3059 -0.0000
vn 0.1314 0.0415 -0.9905
vn 0.5901 0.8073 -0.0000
vn -0.5921 -0.8058 -0.0000
vn 0.0831 0.1112 0.9903
vn 0.0831 0.1112 -0.9903
vt 0.061616 1.100000
vt -0.281328 0.822980
vt 0.189338 0.674581
vt 0.352376 0.706916
vt 0.729158 0.822980
vt 0.466770 1.100000
vt 0.499786 1.100000
vt 0.170724 1.483595
vt -0.249479 1.345659
vt 0.063538 0.863608
vt -0.223451 0.294562
vt 0.152596 0.395500
vt 0.000000 -0.000000
vt -0.226723 1.100000
vt -0.339416 0.695582
vt 0.062944 0.865817
vt -0.210233 -0.277138
vt -0.573947 -0.357401
vt -0.389147 0.037244
vt 0.375805 1.519220
vt 0.450015 1.824237
vt 0.046369 1.830790
vt 0.046539 0.366517
vt -0.387694 -0.037105
vt 0.062407 1.332186
vt 0.069224 1.357547
vt 0.239128 0.401606
vt 0.467695 0.752988
vt 0.152294 0.757814
vt -0.443530 0.724658
vt -0.153356 0.460327
vt -0.242317 0.861394
vt 0.341798 1.481285
vt 0.386028 1.100000
vt 0.613104 1.332929
vt 0.263464 0.347308
vt -0.158271 0.410208
vt 0.197016 0.674666
vt 0.712535 1.100000
vt 0.600684 1.545685
vt 0.403720 1.100000
vt 0.197016 1.542671
vt 0.070597 1.100000
vt 0.263464 1.869470
vt -0.236552 1.332929
vt -0.158271 1.760173
vt -0.450552 1.481285
vt -0.508855 1.100000
vt 0.336471 0.724658
vt 0.628046 0.861394
vt -0.374050 1.545685
vt -0.274920 1.100000
vt 0.484491 -0.046369
vt 0.600684 0.374050
vt 0.037244 1.686976
vt 0.410208 1.760173
vt 0.037105 0.515215
vt 0.397470 0.460327
vt -0.153356 -0.397470
vt 0.239128 -0.315228
vt -0.291237 0.752988
vt -0.315228 0.401606
vt 0.173630 -0.450015
vt -0.357401 1.525847
vt -0.545066 0.339416
vt 0.486276 0.046539
vt -0.152596 0.463497
vt -0.464495 0.706916
vt -0.486276 0.366517
vt -0.173630 1.824237
vt -0.495380 1.519220
vt -0.170724 -0.584629
vt 0.573947 1.525847
vt -0.658819 1.100000
vt 0.545066 0.695582
vt -0.189338 0.648373
vt -0.615289 1.100000
vt 0.281328 0.729158
vt 0.464495 0.352376
vt -0.513831 0.233333
vt -0.540875 0.713832
vt -0.608112 0.733333
vt 0.482292 0.221281
vt 0.514654 0.713832
vt 0.420373 0.213832
vt 0.529164 0.245386
vt 0.576573 0.721281
vt 0.522436 0.252834
vt 0.554798 0.745386
vt 0.460517 0.245386
vt -0.496215 0.252834
vt -0.523259 0.733333
vt -0.590496 0.752834
vt -0.517305 1.313832
vt -0.584542 1.333333
vt 0.491084 1.313832
vt 0.623445 0.745386
vt 0.553003 1.321281
vt 0.616717 0.752834
vt 0.531228 1.345386
vt -0.499689 1.333333
vt -0.566925 1.352834
vt -0.348839 1.833333
vt 0.317300 1.821281
vt 0.255382 1.813832
vt 0.364173 1.845386
vt 0.357444 1.852834
vt 0.295525 1.845386
vt -0.331223 1.852834
vt -0.281603 1.813832
vt -0.042426 2.066667
vt 0.281603 -0.255382
vt -0.057760 -0.010887
vt -0.024810 0.051031
vt 0.248653 1.821281
vt -0.010887 2.078719
vt -0.057760 2.054615
vt 0.295525 0.364173
vt 0.051031 0.024810
vt -0.010887 0.057760
vt -0.263987 1.833333
vt -0.024810 2.086168
vt 0.522436 -0.496215
vt 0.460517 -0.529164
vt 0.413645 -0.482292
vt 0.042426 -0.042426
vt -0.057760 0.010887
vt 0.507926 0.721281
vt 0.413645 0.221281
vt 0.484355 1.321281
vt -0.255382 -0.281603
vt -0.364173 0.295525
vt -0.496215 -0.522436
vt -0.529164 -0.460517
vt -0.482292 -0.413645
vt 0.042426 0.042426
vt -0.010887 -0.057760
vt -0.281603 0.255382
vt 0.057760 0.010887
vt 0.024810 -0.051031
vt -0.295525 -0.364173
vt -0.051031 -0.024810
vt 0.010887 -0.057760
vt -0.522436 0.496215
vt -0.460517 0.529164
vt -0.413645 0.482292
vt -0.042426 0.042426
vt 0.057760 -0.010887
vt 0.255382 0.281603
vt 0.364173 -0.295525
vt 0.496215 0.522436
vt 0.529164 0.460517
vt 0.482292 0.413645
vt -0.042426 -0.042426
vt 0.010887 0.057760
vt 0.679574 -0.493740
vt 0.783333 0.000000
vt 0.840000 0.000000
vt 0.633730 -0.460432
vt 0.726667 0.000000
vt 0.587886 0.427124
vt 0.633730 0.460432
vt 0.242063 -0.744994
vt 0.224552 -0.691101
vt 0.587886 -0.427124
vt 0.224552 0.691101
vt 0.242063 0.744994
vt 0.679574 0.493740
vt 0.259574 1.000000
vt -0.242063 1.056667
vt -0.259574 1.000000
vt 0.224552 1.000000
vt 0.242063 1.056667
vt -0.242063 0.943333
vt 0.242063 0.943333
vt -0.259574 -0.798887
vt -0.633730 -0.460432
vt -0.242063 -0.744994
vt -0.224552 -0.691101
vt -0.587886 0.427124
vt -0.242063 0.744994
vt -0.224552 0.691101
vt -0.633730 0.460432
vt -0.259574 0.798887
vt -0.679574 -0.493740
vt -0.783333 -0.000000
vt -0.587886 -0.427124
vt -0.726667 0.000000
vt -0.783333 0.000000
vt -0.679574 0.493740
vt -0.840000 -0.000000
vt -0.726667 -0.000000
vt -0.840000 0.000000
vt 0.259574 0.798887
vt 0.259574 -0.798887
vt -0.000000 1.933333
vt 0.069282 2.200000
vt -0.000000 2.200000
vt 0.043333 1.933333
vt -0.040000 2.200000
vt -0.043333 1.933333
vt -0.000000 1.933333
vt -0.069282 2.200000
vt -0.075056 1.933333
vt -0.000000 2.200000
vt 0.043333 -0.075056
vt -0.086667 0.000000
vt 0.043333 0.075056
vt 0.080000 0.000000
vt -0.040000 -0.069282
vt -0.040000 0.069282
vt -0.121476 0.063333
vt 0.000000 0.063333
vt -0.121476 -0.063333
vt 0.000000 -0.000000
vt 0.000000 -0.063333
vt -0.084249 -0.000000
vt -0.158702 2.618435
vt -0.196552 2.463864
vt -0.121476 2.567197
vt -0.084249 2.515959
vt 0.084249 2.515959
vt 0.196552 2.463864
vt 0.121476 2.567197
vt 0.158702 2.618435
vt 0.000000 2.316566
vt 0.063333 2.463864
vt 0.000000 2.483435
vt -0.063333 2.336137
vt -0.000000 2.444293
vt -0.063333 2.463864
vt -0.000000 2.355707
vt -0.158702 2.181566
vt -0.196552 2.336137
vt -0.256785 2.316566
vt -0.084249 2.284041
vt -0.136318 2.355707
vt 0.084249 2.284041
vt 0.196552 2.336137
vt 0.136318 2.355707
vt 0.158702 2.181566
vt 0.256785 2.316566
vt -0.000000 -0.000000
vt -0.158702 -0.000000
vt -0.000000 0.063333
vt -0.084249 0.000000
vt -0.000000 -0.063333
vt 0.121476 -0.063333
vt 0.084249 0.000000
vt -0.000000 0.000000
vt 0.121476 0.063333
vt 0.121476 2.232803
vt -0.121476 2.232803
vt 0.000000 2.355707
vt 0.063333 2.336137
vt 0.000000 2.444293
vt 0.256785 2.483435
vt 0.136318 2.444293
vt -0.136318 2.444293
vt -0.256785 2.483435
vt 0.158702 0.000000
vt 0.084249 -0.000000
vt -0.446594 0.213832
vt -0.428978 0.233333
vt 0.599875 1.345386
vt 0.593146 1.352834
vt 0.024810 2.047166
vt 0.248653 -0.317300
vt 0.357444 0.331223
vt 0.042426 2.066667
vt 0.446594 -0.420373
vt 0.513831 -0.428978
vt -0.024810 -0.051031
vt -0.317300 -0.248653
vt -0.331223 0.357444
vt -0.420373 -0.446594
vt -0.428978 -0.513831
vt 0.051031 -0.024810
vt -0.248653 0.317300
vt -0.357444 -0.331223
vt -0.446594 0.420373
vt -0.513831 0.428978
vt 0.024810 0.051031
vt 0.317300 0.248653
vt 0.331223 -0.357444
vt 0.420373 0.446594
vt 0.428978 0.513831
vt -0.051031 0.024810
vt -0.224552 1.000000
vt 0.075056 1.933333
vt 0.040000 2.200000
vt 0.086667 -0.000000
vt -0.043333 -0.075056
vt -0.043333 0.075056
vt 0.040000 0.069282
vt 0.040000 -0.069282
vt -0.080000 -0.000000
s 0
f 49/61/51 62/62/51 61/63/51
f 50/64/52 62/65/52 64/66/52
f 49/61/53 61/63/53 66/67/53
f 49/61/54 66/67/54 68/68/54
f 49/61/55 68/68/55 65/69/55
f 50/64/56 64/66/56 71/70/56
f 51/71/57 63/72/57 73/73/57
f 52/74/58 67/75/58 75/76/58
f 53/77/59 69/78/59 77/79/59
f 54/80/60 70/81/60 79/82/60
f 50/64/61 71/70/61 74/83/61
f 51/71/62 73/73/62 76/84/62
f 52/74/63 75/76/63 78/85/63
f 53/77/64 77/79/64 80/73/64
f 54/80/65 79/82/65 72/86/65
f 55/87/66 81/88/66 86/89/66
f 56/90/67 82/91/67 88/92/67
f 57/93/68 83/94/68 89/95/68
f 58/96/69 84/97/69 90/98/69
f 59/99/70 85/100/70 87/101/70
f 87/101/71 90/102/71 60/103/71
f 87/101/72 85/100/72 90/102/72
f 85/100/73 58/104/73 90/102/73
f 90/102/74 89/105/74 60/103/74
f 90/102/75 84/106/75 89/105/75
f 84/106/76 57/107/76 89/105/76
f 89/105/77 88/92/77 60/103/77
f 89/105/78 83/108/78 88/92/78
f 83/94/79 56/109/79 88/110/79
f 88/92/80 86/89/80 60/103/80
f 88/92/81 82/91/81 86/89/81
f 82/91/82 55/87/82 86/89/82
f 86/89/83 87/101/83 60/103/83
f 86/89/84 81/88/84 87/101/84
f 81/88/85 59/99/85 87/101/85
f 72/86/86 85/111/86 59/112/86
f 72/86/87 79/82/87 85/111/87
f 79/113/88 58/96/88 85/114/88
f 80/73/89 84/97/89 58/96/89
f 80/73/90 77/79/90 84/97/90
f 77/115/91 57/93/91 84/116/91
f 78/85/92 83/94/92 57/93/92
f 78/85/93 75/76/93 83/94/93
f 75/76/94 56/109/94 83/94/94
f 76/117/95 82/118/95 56/109/95
f 76/84/96 73/73/96 82/119/96
f 73/73/97 55/120/97 82/119/97
f 74/83/98 81/121/98 55/122/98
f 74/83/99 71/70/99 81/121/99
f 71/70/100 59/112/100 81/121/100
f 79/113/101 80/73/101 58/96/101
f 79/113/102 70/123/102 80/73/102
f 70/123/103 53/77/103 80/73/103
f 77/115/104 78/85/104 57/93/104
f 77/115/105 69/124/105 78/85/105
f 69/124/106 52/74/106 78/85/106
f 75/76/107 76/117/107 56/109/107
f 75/76/108 67/75/108 76/117/108
f 67/125/109 51/71/109 76/84/109
f 73/73/110 74/126/110 55/120/110
f 73/73/111 63/72/111 74/126/111
f 63/127/112 50/128/112 74/129/112
f 71/70/113 72/86/113 59/112/113
f 71/70/114 64/66/114 72/86/114
f 64/66/115 54/80/115 72/86/115
f 65/69/116 70/130/116 54/131/116
f 65/69/117 68/68/117 70/130/117
f 68/132/118 53/77/118 70/123/118
f 68/132/119 69/78/119 53/77/119
f 68/68/120 66/67/120 69/133/120
f 66/134/121 52/74/121 69/124/121
f 66/134/122 67/75/122 52/74/122
f 66/67/123 61/63/123 67/135/123
f 61/136/124 51/71/124 67/125/124
f 64/137/125 65/69/125 54/131/125
f 64/137/126 62/62/126 65/69/126
f 62/62/127 49/61/127 65/69/127
f 61/136/128 63/72/128 51/71/128
f 61/63/129 62/62/129 63/127/129
f 62/138/130 50/139/130 63/72/130
s 1
f 91/140/131 97/141/132 96/142/133
f 93/143/134 97/144/132 92/145/135
f 94/146/136 98/147/137 93/143/134
f 95/148/138 99/149/139 94/150/136
f 95/151/138 96/152/133 100/153/140
f 96/142/133 102/154/141 101/155/142
f 98/147/137 102/156/141 97/144/132
f 99/157/139 103/158/143 98/147/137
f 100/159/140 104/160/144 99/149/139
f 100/153/140 101/161/142 105/162/145
f 102/154/141 106/163/146 101/155/142
f 102/156/141 108/164/147 107/165/148
f 103/158/143 109/166/149 108/164/147
f 104/160/144 110/167/150 109/168/149
f 101/161/142 110/169/150 105/162/145
f 107/170/148 111/171/151 106/163/146
f 107/172/148 113/173/152 112/174/153
f 108/175/147 114/176/154 113/177/152
f 109/178/149 115/179/155 114/180/154
f 106/181/146 115/182/155 110/169/150
s 0
f 95/183/156 94/184/156 93/185/156
f 111/186/157 113/187/157 114/180/157
s 1
f 116/140/158 122/141/159 121/142/160
f 118/143/161 122/144/159 117/145/162
f 119/150/163 123/188/164 118/189/161
f 120/148/165 124/149/166 119/150/163
f 120/151/165 121/152/160 125/153/167
f 121/142/160 127/154/168 126/155/169
f 123/147/164 127/156/168 122/144/159
f 124/149/166 128/190/170 123/188/164
f 125/159/167 129/160/171 124/149/166
f 125/153/167 126/161/169 130/162/172
f 127/154/168 131/163/173 126/155/169
f 127/156/168 133/164/174 132/165/175
f 128/190/170 134/168/176 133/175/174
f 129/160/171 135/167/177 134/168/176
f 126/161/169 135/169/177 130/162/172
f 132/170/175 136/171/178 131/163/173
f 132/191/175 138/180/179 137/179/180
f 133/175/174 139/176/181 138/177/179
f 134/192/176 140/174/182 139/173/181
f 131/181/173 140/182/182 135/169/177
s 0
f 120/193/183 119/194/183 118/195/183
f 136/196/184 138/197/184 139/173/184
s 1
f 141/140/185 147/141/186 146/142/187
f 143/143/188 147/144/186 142/145/189
f 144/146/190 148/147/191 143/143/188
f 145/148/192 149/149/193 144/150/190
f 145/151/192 146/152/187 150/153/194
f 146/142/187 152/154/195 151/155/196
f 148/147/191 152/156/195 147/144/186
f 149/157/193 153/158/197 148/147/191
f 150/159/194 154/160/198 149/149/193
f 150/153/194 151/161/196 155/162/199
f 152/154/195 156/163/200 151/155/196
f 152/156/195 158/164/201 157/165/202
f 153/158/197 159/166/203 158/164/201
f 154/160/198 160/167/204 159/168/203
f 151/161/196 160/169/204 155/162/199
f 157/170/202 161/171/205 156/163/200
f 157/198/202 163/199/206 162/200/207
f 158/175/201 164/176/208 163/177/206
f 159/201/203 165/202/209 164/203/208
f 156/181/200 165/182/209 160/169/204
s 0
f 145/204/210 144/205/210 143/206/210
f 161/207/211 163/208/211 164/203/211
s 1
f 166/140/212 172/141/213 171/142/214
f 168/143/215 172/144/213 167/145/216
f 169/150/217 173/188/218 168/189/215
f 170/148/219 174/149/220 169/150/217
f 170/151/219 171/152/214 175/153/221
f 171/142/214 177/154/222 176/155/223
f 173/147/218 177/156/222 172/144/213
f 174/149/220 178/190/224 173/188/218
f 175/159/221 179/160/225 174/149/220
f 175/153/221 176/161/223 180/162/226
f 177/154/222 181/163/227 176/155/223
f 177/156/222 183/164/228 182/165/229
f 178/190/224 184/168/230 183/175/228
f 179/160/225 185/167/231 184/168/230
f 176/161/223 185/169/231 180/162/226
f 182/170/229 186/171/232 181/163/227
f 182/209/229 188/203/233 187/202/234
f 183/175/228 189/176/235 188/177/233
f 184/210/230 190/200/236 189/199/235
f 181/181/227 190/182/236 185/169/231
s 0
f 170/211/237 169/212/237 168/213/237
f 186/214/238 188/215/238 189/199/238
s 1
f 195/216/239 192/217/240 191/218/241
f 196/219/242 193/220/243 192/217/240
f 197/221/244 194/217/245 193/220/243
f 198/222/246 191/218/241 194/217/245
f 195/216/239 200/223/247 196/219/242
f 196/219/242 201/224/248 197/225/244
f 201/226/248 198/222/246 197/221/244
f 202/227/249 195/228/239 198/222/246
f 203/229/250 200/230/247 199/231/251
f 204/230/252 201/232/248 200/233/247
f 201/232/248 206/234/253 202/235/249
f 206/235/253 199/231/251 202/234/249
f 203/236/250 208/237/254 204/238/252
f 208/237/254 205/239/255 204/238/252
f 209/240/256 206/241/253 205/242/255
f 210/243/257 203/244/250 206/241/253
f 207/245/258 212/246/259 208/237/254
f 212/246/259 209/247/256 208/237/254
f 213/248/241 210/243/257 209/240/256
f 214/249/260 207/250/258 210/243/257
f 215/250/244 212/246/259 211/251/243
f 216/243/261 213/252/241 212/246/259
f 217/247/239 214/249/260 213/248/241
f 218/237/262 211/253/243 214/249/260
f 215/250/244 220/241/263 216/243/261
f 216/243/261 221/242/251 217/240/239
f 221/239/251 218/237/262 217/247/239
f 222/238/264 215/245/244 218/237/262
f 223/229/255 220/230/263 219/231/248
f 224/230/265 221/232/251 220/233/263
f 221/232/251 226/234/266 222/235/264
f 226/235/266 219/231/248 222/234/264
f 223/254/255 228/222/267 224/227/265
f 228/222/267 225/226/250 224/227/265
f 229/225/258 226/223/266 225/224/250
f 230/219/268 223/255/255 226/223/266
f 227/228/256 192/217/240 228/222/267
f 192/217/240 229/221/258 228/222/267
f 193/220/243 230/219/268 229/225/258
f 194/217/245 227/216/256 230/219/268
f 231/256/269 238/257/270 237/258/269
f 233/259/271 238/260/270 232/261/270
f 234/262/272 239/263/273 233/264/271
f 234/262/272 241/257/274 240/265/272
f 236/259/275 241/260/274 235/261/274
f 231/256/269 242/263/276 236/264/275
s 0
f 236/266/277 234/267/277 232/268/277
f 237/269/278 239/270/278 241/271/278
s 1
f 243/73/278 248/272/279 244/273/280
f 248/274/279 245/275/277 244/276/280
f 249/277/281 246/273/282 245/275/277
f 250/274/283 243/73/278 246/276/282
f 247/278/284 252/279/285 248/280/279
f 252/279/285 249/281/281 248/280/279
f 249/282/281 254/283/286 250/284/283
f 254/283/286 247/285/284 250/284/283
f 255/286/287 252/287/285 251/288/288
f 256/289/289 253/290/290 252/291/285
f 257/292/291 254/287/286 253/290/290
f 258/289/292 251/288/288 254/291/286
f 259/293/293 256/294/289 255/295/287
f 256/294/289 261/296/294 257/297/291
f 261/298/294 258/299/292 257/300/291
f 258/299/292 259/301/293 255/302/287
f 263/303/277 260/274/295 259/304/293
f 264/305/296 261/306/294 260/272/295
f 261/306/294 266/307/297 262/274/298
f 266/305/297 259/304/293 262/272/298
f 263/303/277 268/308/299 264/307/296
f 264/305/296 269/309/300 265/310/278
f 269/309/300 266/307/297 265/310/278
f 270/311/301 263/303/277 266/305/297
f 267/301/302 272/299/303 268/312/299
f 272/299/303 269/298/300 268/312/299
f 269/296/300 274/294/304 270/313/301
f 274/294/304 267/293/302 270/313/301
f 275/288/305 272/289/303 271/286/306
f 276/287/307 273/314/308 272/315/303
f 277/316/309 274/289/304 273/314/308
f 278/287/310 271/286/306 274/315/304
f 279/285/311 276/283/307 275/317/305
f 276/283/307 281/282/312 277/318/309
f 281/281/312 278/279/310 277/319/309
f 278/279/310 279/278/311 275/320/305
f 243/73/278 280/311/313 279/321/311
f 244/276/280 281/322/312 280/308/313
f 245/275/277 282/311/314 281/322/312
f 282/308/314 243/73/278 279/321/311
f 91/140/131 92/323/135 97/141/132
f 93/143/134 98/147/137 97/144/132
f 94/146/136 99/157/139 98/147/137
f 95/148/138 100/159/140 99/149/139
f 95/151/138 91/324/131 96/152/133
f 96/142/133 97/141/132 102/154/141
f 98/147/137 103/158/143 102/156/141
f 99/157/139 104/325/144 103/158/143
f 100/159/140 105/326/145 104/160/144
f 100/153/140 96/152/133 101/161/142
f 102/154/141 107/170/148 106/163/146
f 102/156/141 103/158/143 108/164/147
f 103/158/143 104/325/144 109/166/149
f 104/160/144 105/326/145 110/167/150
f 101/161/142 106/181/146 110/169/150
f 107/170/148 112/327/153 111/171/151
f 107/172/148 108/328/147 113/173/152
f 108/175/147 109/168/149 114/176/154
f 109/178/149 110/329/150 115/179/155
f 106/181/146 111/330/151 115/182/155
s 0
f 92/331/156 91/332/156 93/185/156
f 91/332/156 95/183/156 93/185/156
f 114/180/157 115/179/157 111/186/157
f 111/186/157 112/333/157 113/187/157
s 1
f 116/140/158 117/323/162 122/141/159
f 118/143/161 123/147/164 122/144/159
f 119/150/163 124/149/166 123/188/164
f 120/148/165 125/159/167 124/149/166
f 120/151/165 116/324/158 121/152/160
f 121/142/160 122/141/159 127/154/168
f 123/147/164 128/158/170 127/156/168
f 124/149/166 129/160/171 128/190/170
f 125/159/167 130/326/172 129/160/171
f 125/153/167 121/152/160 126/161/169
f 127/154/168 132/170/175 131/163/173
f 127/156/168 128/158/170 133/164/174
f 128/190/170 129/160/171 134/168/176
f 129/160/171 130/326/172 135/167/177
f 126/161/169 131/181/173 135/169/177
f 132/170/175 137/327/180 136/171/178
f 132/191/175 133/334/174 138/180/179
f 133/175/174 134/168/176 139/176/181
f 134/192/176 135/335/177 140/174/182
f 131/181/173 136/330/178 140/182/182
s 0
f 117/336/183 116/337/183 118/195/183
f 116/337/183 120/193/183 118/195/183
f 139/173/184 140/174/184 136/196/184
f 136/196/184 137/338/184 138/197/184
s 1
f 141/140/185 142/323/189 147/141/186
f 143/143/188 148/147/191 147/144/186
f 144/146/190 149/157/193 148/147/191
f 145/148/192 150/159/194 149/149/193
f 145/151/192 141/324/185 146/152/187
f 146/142/187 147/141/186 152/154/195
f 148/147/191 153/158/197 152/156/195
f 149/157/193 154/325/198 153/158/197
f 150/159/194 155/326/199 154/160/198
f 150/153/194 146/152/187 151/161/196
f 152/154/195 157/170/202 156/163/200
f 152/156/195 153/158/197 158/164/201
f 153/158/197 154/325/198 159/166/203
f 154/160/198 155/326/199 160/167/204
f 151/161/196 156/181/200 160/169/204
f 157/170/202 162/327/207 161/171/205
f 157/198/202 158/339/201 163/199/206
f 158/175/201 159/168/203 164/176/208
f 159/201/203 160/340/204 165/202/209
f 156/181/200 161/330/205 165/182/209
s 0
f 142/341/210 141/342/210 143/206/210
f 141/342/210 145/204/210 143/206/210
f 164/203/211 165/202/211 161/207/211
f 161/207/211 162/343/211 163/208/211
s 1
f 166/140/212 167/323/216 172/141/213
f 168/143/215 173/147/218 172/144/213
f 169/150/217 174/149/220 173/188/218
f 170/148/219 175/159/221 174/149/220
f 170/151/219 166/324/212 171/152/214
f 171/142/214 172/141/213 177/154/222
f 173/147/218 178/158/224 177/156/222
f 174/149/220 179/160/225 178/190/224
f 175/159/221 180/326/226 179/160/225
f 175/153/221 171/152/214 176/161/223
f 177/154/222 182/170/229 181/163/227
f 177/156/222 178/158/224 183/164/228
f 178/190/224 179/160/225 184/168/230
f 179/160/225 180/326/226 185/167/231
f 176/161/223 181/181/227 185/169/231
f 182/170/229 187/327/234 186/171/232
f 182/209/229 183/344/228 188/203/233
f 183/175/228 184/168/230 189/176/235
f 184/210/230 185/345/231 190/200/236
f 181/181/227 186/330/232 190/182/236
s 0
f 167/346/237 166/347/237 168/213/237
f 166/347/237 170/211/237 168/213/237
f 189/199/238 190/200/238 186/214/238
f 186/214/238 187/348/238 188/215/238
s 1
f 195/216/239 196/219/242 192/217/240
f 196/219/242 197/225/244 193/220/243
f 197/221/244 198/222/246 194/217/245
f 198/222/246 195/228/239 191/218/241
f 195/216/239 199/255/251 200/223/247
f 196/219/242 200/223/247 201/224/248
f 201/226/248 202/227/249 198/222/246
f 202/227/249 199/254/251 195/228/239
f 203/229/250 204/233/252 200/230/247
f 204/230/252 205/349/255 201/232/248
f 201/232/248 205/349/255 206/234/253
f 206/235/253 203/229/250 199/231/251
f 203/236/250 207/245/258 208/237/254
f 208/237/254 209/247/256 205/239/255
f 209/240/256 210/243/257 206/241/253
f 210/243/257 207/250/258 203/244/250
f 207/245/258 211/251/243 212/246/259
f 212/246/259 213/252/241 209/247/256
f 213/248/241 214/249/260 210/243/257
f 214/249/260 211/253/243 207/250/258
f 215/250/244 216/243/261 212/246/259
f 216/243/261 217/240/239 213/252/241
f 217/247/239 218/237/262 214/249/260
f 218/237/262 215/245/244 211/253/243
f 215/250/244 219/244/248 220/241/263
f 216/243/261 220/241/263 221/242/251
f 221/239/251 222/238/264 218/237/262
f 222/238/264 219/236/248 215/245/244
f 223/229/255 224/233/265 220/230/263
f 224/230/265 225/349/250 221/232/251
f 221/232/251 225/349/250 226/234/266
f 226/235/266 223/229/255 219/231/248
f 223/254/255 227/228/256 228/222/267
f 228/222/267 229/221/258 225/226/250
f 229/225/258 230/219/268 226/223/266
f 230/219/268 227/216/256 223/255/255
f 227/228/256 191/218/241 192/217/240
f 192/217/240 193/220/243 229/221/258
f 193/220/243 194/217/245 230/219/268
f 194/217/245 191/218/241 227/216/256
f 231/256/269 232/350/270 238/257/270
f 233/259/271 239/351/273 238/260/270
f 234/262/272 240/265/272 239/263/273
f 234/262/272 235/350/274 241/257/274
f 236/259/275 242/351/276 241/260/274
f 231/256/269 237/258/269 242/263/276
s 0
f 232/268/277 231/352/277 236/266/277
f 236/266/277 235/353/277 234/267/277
f 234/267/277 233/354/277 232/268/277
f 241/271/278 242/355/278 237/269/278
f 237/269/278 238/356/278 239/270/278
f 239/270/278 240/357/278 241/271/278
s 1
f 243/73/278 247/304/284 248/272/279
f 248/274/279 249/277/281 245/275/277
f 249/277/281 250/272/283 246/273/282
f 250/274/283 247/304/284 243/73/278
f 247/278/284 251/320/288 252/279/285
f 252/279/285 253/319/290 249/281/281
f 249/282/281 253/318/290 254/283/286
f 254/283/286 251/317/288 247/285/284
f 255/286/287 256/315/289 252/287/285
f 256/289/289 257/292/291 253/290/290
f 257/292/291 258/315/292 254/287/286
f 258/289/292 255/286/287 251/288/288
f 259/293/293 260/313/295 256/294/289
f 256/294/289 260/313/295 261/296/294
f 261/298/294 262/312/298 258/299/292
f 258/299/292 262/312/298 259/301/293
f 263/303/277 264/307/296 260/274/295
f 264/305/296 265/310/278 261/306/294
f 261/306/294 265/310/278 266/307/297
f 266/305/297 263/303/277 259/304/293
f 263/303/277 267/321/302 268/308/299
f 264/305/296 268/311/299 269/309/300
f 269/309/300 270/308/301 266/307/297
f 270/311/301 267/321/302 263/303/277
f 267/301/302 271/302/306 272/299/303
f 272/299/303 273/300/308 269/298/300
f 269/296/300 273/297/308 274/294/304
f 274/294/304 271/295/306 267/293/302
f 275/288/305 276/291/307 272/289/303
f 276/287/307 277/316/309 273/314/308
f 277/316/309 278/291/310 274/289/304
f 278/287/310 275/288/305 271/286/306
f 279/285/311 280/284/313 276/283/307
f 276/283/307 280/284/313 281/282/312
f 281/281/312 282/280/314 278/279/310
f 278/279/310 282/280/314 279/278/311
f 243/73/278 244/273/280 280/311/313
f 244/276/280 245/275/277 281/322/312
f 245/275/277 246/273/282 282/311/314
f 282/308/314 246/276/282 243/73/278
