# Blender 5.0.1
# www.blender.org
mtllib raft_motor.mtl
o wood
usemtl wood
v -0.229657 0.764970 0.499806
v -0.229657 0.764970 0.650653
v -0.229657 1.001462 0.499806
v -0.229657 1.001462 0.650653
v -0.158208 0.764970 0.499806
v -0.158208 0.764970 0.650653
v -0.158208 1.001462 0.499806
v -0.158208 1.001462 0.650653
v 0.158208 0.764970 0.499806
v 0.158208 0.764970 0.650653
v 0.158208 1.001462 0.499806
v 0.158208 1.001462 0.650653
v 0.229657 0.764970 0.499806
v 0.229657 0.764970 0.650653
v 0.229657 1.001462 0.499806
v 0.229657 1.001462 0.650653
v -0.234760 0.742799 0.570201
v -0.234760 0.742799 0.660710
v -0.234760 0.816702 0.570201
v -0.234760 0.816702 0.660710
v 0.234760 0.742799 0.570201
v 0.234760 0.742799 0.660710
v 0.234760 0.816702 0.570201
v 0.234760 0.816702 0.660710
v -0.204140 0.848727 0.625512
v -0.204140 0.848727 0.675794
v -0.204140 0.996535 0.625512
v -0.204140 0.996535 0.675794
v 0.204140 0.848727 0.625512
v 0.204140 0.848727 0.675794
v 0.204140 0.996535 0.625512
v 0.204140 0.996535 0.675794
v -0.040828 0.804385 0.484721
v -0.020414 0.770890 0.478007
v 0.020414 0.770890 0.478007
v 0.040828 0.804385 0.484721
v 0.020414 0.837880 0.491436
v -0.020414 0.837880 0.491436
v -0.037766 0.779750 0.625512
v -0.018883 0.748768 0.619301
v 0.018883 0.748768 0.619301
v 0.037766 0.779750 0.625512
v 0.018883 0.810733 0.631723
v -0.018883 0.810733 0.631723
v -0.033683 0.750189 0.766302
v -0.016842 0.722556 0.760763
v 0.016842 0.722556 0.760763
v 0.033683 0.750189 0.766302
v 0.016842 0.777822 0.771842
v -0.016842 0.777822 0.771842
vn -1.0000 -0.0000 -0.0000
vn -0.0000 1.0000 -0.0000
vn 1.0000 -0.0000 -0.0000
vn -0.0000 -1.0000 -0.0000
vn -0.0000 -0.0000 -1.0000
vn -0.0000 -0.0000 1.0000
vn -0.9997 -0.0120 0.0196
vn -0.4956 -0.8572 -0.1401
vn -0.9997 0.0006 0.0254
vn 0.4899 -0.8621 -0.1297
vn -0.4899 -0.8621 -0.1297
vn 0.9997 -0.0120 0.0196
vn 0.4956 -0.8572 -0.1401
vn 0.4969 0.8510 0.1701
vn 0.9997 0.0006 0.0254
vn -0.4969 0.8510 0.1701
vn 0.4912 0.8505 0.1882
vn -0.4912 0.8505 0.1882
vn -0.9996 -0.0085 0.0272
vn -0.4920 -0.8573 -0.1518
vn 0.9996 -0.0085 0.0272
vn 0.4920 -0.8573 -0.1518
vn 0.4942 0.8447 0.2056
vn -0.4942 0.8447 0.2056
vn -0.0000 0.1966 -0.9805
vn -0.0000 -0.1966 0.9805
vt 0.812500 1.900000
vt 0.437500 2.500000
vt 0.437500 1.900000
vt -0.562500 0.812500
vt -0.387500 0.437500
vt -0.562500 0.437500
vt -0.812500 2.500000
vt -0.437500 1.900000
vt -0.437500 2.500000
vt -0.387500 -0.812500
vt -0.562500 -0.437500
vt -0.387500 -0.437500
vt 0.387500 2.500000
vt 0.562500 1.900000
vt 0.562500 2.500000
vt -0.562500 2.500000
vt -0.387500 1.900000
vt -0.387500 2.500000
vt 0.387500 0.812500
vt 0.562500 0.437500
vt 0.387500 0.437500
vt 0.562500 -0.812500
vt 0.387500 -0.437500
vt 0.562500 -0.437500
vt 0.837500 1.843750
vt 0.612500 2.031250
vt 0.612500 1.843750
vt -0.575000 0.837500
vt 0.575000 0.612500
vt -0.575000 0.612500
vt -0.837500 2.031250
vt -0.612500 1.843750
vt -0.612500 2.031250
vt 0.575000 -0.837500
vt -0.575000 -0.612500
vt 0.575000 -0.612500
vt -0.575000 2.031250
vt 0.575000 1.843750
vt 0.575000 2.031250
vt 0.875000 2.112500
vt 0.750000 2.487500
vt 0.750000 2.112500
vt -0.500000 0.875000
vt 0.500000 0.750000
vt -0.500000 0.750000
vt -0.875000 2.487500
vt -0.750000 2.112500
vt -0.750000 2.487500
vt 0.500000 -0.875000
vt -0.500000 -0.750000
vt 0.500000 -0.750000
vt -0.500000 2.487500
vt 0.500000 2.112500
vt 0.500000 2.487500
vt 0.400000 2.000000
vt 0.734560 1.858895
vt 0.750000 1.937500
vt 0.050000 -0.383308
vt -0.046250 -0.734560
vt -0.050000 -0.383308
vt -0.400000 2.000000
vt -0.734560 1.858895
vt -0.383308 1.915021
vt -0.416692 2.084979
vt -0.750000 1.937500
vt -0.050000 0.416692
vt 0.046250 0.765440
vt 0.050000 0.416692
vt 0.416692 2.084979
vt 0.765440 2.016105
vt 1.100000 1.862500
vt 0.046250 -0.734560
vt -0.041250 -1.086229
vt -1.100000 1.862500
vt -1.086229 1.792393
vt -1.113771 1.932607
vt -0.046250 0.765440
vt 0.041250 1.113771
vt 1.113771 1.932607
vt -0.100000 2.000000
vt -0.050000 1.915021
vt 0.050000 1.915021
vt 0.082500 1.862500
vt 0.041250 1.932607
vt -0.082500 1.862500
vt 0.812500 2.500000
vt -0.387500 0.812500
vt -0.812500 1.900000
vt -0.562500 -0.812500
vt 0.387500 1.900000
vt -0.562500 1.900000
vt 0.562500 0.812500
vt 0.387500 -0.812500
vt 0.837500 2.031250
vt 0.575000 0.837500
vt -0.837500 1.843750
vt -0.575000 -0.837500
vt -0.575000 1.843750
vt 0.875000 2.487500
vt 0.500000 0.875000
vt -0.875000 2.112500
vt -0.500000 -0.875000
vt -0.500000 2.112500
vt 0.383308 1.915021
vt -0.765440 2.016105
vt 1.086229 1.792393
vt 0.041250 -1.086229
vt -0.041250 1.113771
vt 0.100000 2.000000
vt 0.050000 2.084979
vt -0.050000 2.084979
vt -0.041250 1.932607
vt -0.041250 1.792393
vt 0.041250 1.792393
s 0
f 2/1/1 3/2/1 1/3/1
f 4/4/2 7/5/2 3/6/2
f 8/7/3 5/8/3 7/9/3
f 6/10/4 1/11/4 5/12/4
f 7/13/5 1/14/5 3/15/5
f 4/16/6 6/17/6 8/18/6
f 10/1/1 11/2/1 9/3/1
f 12/19/2 15/20/2 11/21/2
f 16/7/3 13/8/3 15/9/3
f 14/22/4 9/23/4 13/24/4
f 15/16/5 9/17/5 11/18/5
f 12/13/6 14/14/6 16/15/6
f 18/25/1 19/26/1 17/27/1
f 20/28/2 23/29/2 19/30/2
f 24/31/3 21/32/3 23/33/3
f 22/34/4 17/35/4 21/36/4
f 23/37/5 17/38/5 19/39/5
f 20/37/6 22/38/6 24/39/6
f 26/40/1 27/41/1 25/42/1
f 28/43/2 31/44/2 27/45/2
f 32/46/3 29/47/3 31/48/3
f 30/49/4 25/50/4 29/51/4
f 31/52/5 25/53/5 27/54/5
f 28/52/6 30/53/6 32/54/6
s 1
f 33/55/7 40/56/8 39/57/9
f 35/58/10 40/59/8 34/60/11
f 36/61/12 41/62/13 35/63/10
f 37/64/14 42/65/15 36/61/12
f 38/66/16 43/67/17 37/68/14
f 38/69/16 39/57/9 44/70/18
f 40/56/8 45/71/19 39/57/9
f 41/72/13 46/73/20 40/59/8
f 41/62/13 48/74/21 47/75/22
f 42/65/15 49/76/23 48/74/21
f 44/77/18 49/78/23 43/67/17
f 39/57/9 50/79/24 44/70/18
s 0
f 36/80/25 35/81/25 34/82/25
f 48/83/26 49/84/26 45/85/26
f 2/1/1 4/86/1 3/2/1
f 4/4/2 8/87/2 7/5/2
f 8/7/3 6/88/3 5/8/3
f 6/10/4 2/89/4 1/11/4
f 7/13/5 5/90/5 1/14/5
f 4/16/6 2/91/6 6/17/6
f 10/1/1 12/86/1 11/2/1
f 12/19/2 16/92/2 15/20/2
f 16/7/3 14/88/3 13/8/3
f 14/22/4 10/93/4 9/23/4
f 15/16/5 13/91/5 9/17/5
f 12/13/6 10/90/6 14/14/6
f 18/25/1 20/94/1 19/26/1
f 20/28/2 24/95/2 23/29/2
f 24/31/3 22/96/3 21/32/3
f 22/34/4 18/97/4 17/35/4
f 23/37/5 21/98/5 17/38/5
f 20/37/6 18/98/6 22/38/6
f 26/40/1 28/99/1 27/41/1
f 28/43/2 32/100/2 31/44/2
f 32/46/3 30/101/3 29/47/3
f 30/49/4 26/102/4 25/50/4
f 31/52/5 29/103/5 25/53/5
f 28/52/6 26/103/6 30/53/6
s 1
f 33/55/7 34/104/11 40/56/8
f 35/58/10 41/72/13 40/59/8
f 36/61/12 42/65/15 41/62/13
f 37/64/14 43/105/17 42/65/15
f 38/66/16 44/77/18 43/67/17
f 38/69/16 33/55/7 39/57/9
f 40/56/8 46/106/20 45/71/19
f 41/72/13 47/107/22 46/73/20
f 41/62/13 42/65/15 48/74/21
f 42/65/15 43/105/17 49/76/23
f 44/77/18 50/108/24 49/78/23
f 39/57/9 45/71/19 50/79/24
s 0
f 34/82/25 33/109/25 38/110/25
f 38/110/25 37/111/25 34/82/25
f 37/111/25 36/80/25 34/82/25
f 49/84/26 50/112/26 45/85/26
f 45/85/26 46/113/26 47/114/26
f 47/114/26 48/83/26 45/85/26
o metal
usemtl metal
v -0.183726 0.735408 0.172971
v -0.183726 0.735408 0.474665
v -0.183726 0.991608 0.172971
v -0.183726 0.991608 0.474665
v 0.183726 0.735408 0.172971
v 0.183726 0.735408 0.474665
v 0.183726 0.991608 0.172971
v 0.183726 0.991608 0.474665
v 0.188829 0.962046 0.323818
v 0.133522 0.962046 0.213598
v 0.000000 0.962046 0.167943
v -0.133522 0.962046 0.213598
v -0.188829 0.962046 0.323818
v -0.133522 0.962046 0.434038
v -0.000000 0.962046 0.479693
v 0.133522 0.962046 0.434038
v 0.178622 1.050731 0.323818
v 0.126305 1.050731 0.218575
v 0.000000 1.050731 0.174982
v -0.126305 1.050731 0.218575
v -0.178622 1.050731 0.323818
v -0.126305 1.050731 0.429061
v -0.000000 1.050731 0.472654
v 0.126305 1.050731 0.429061
v 0.137794 1.100000 0.323818
v 0.097435 1.100000 0.242042
v 0.000000 1.100000 0.208169
v -0.097435 1.100000 0.242042
v -0.137794 1.100000 0.323818
v -0.097435 1.100000 0.405594
v -0.000000 1.100000 0.439467
v 0.097435 1.100000 0.405594
v -0.193933 0.932485 0.243366
v -0.193933 0.881283 0.273536
v -0.193933 0.881283 0.333875
v -0.193933 0.932485 0.364044
v -0.193933 0.983687 0.333875
v -0.193933 0.983687 0.273536
v -0.255174 0.932485 0.248395
v -0.255174 0.885550 0.276050
v -0.255174 0.885550 0.331360
v -0.255174 0.932485 0.359016
v -0.255174 0.979420 0.331360
v -0.255174 0.979420 0.276050
v 0.173660 0.848727 0.138458
v 0.214990 0.848727 0.314835
v 0.173660 1.035950 0.138458
v 0.214990 1.035950 0.314835
v 0.203496 0.848727 0.131672
v 0.244826 0.848727 0.308049
v 0.203496 1.035950 0.131672
v 0.244826 1.035950 0.308049
v 0.076552 0.232863 0.303705
v 0.054131 0.233830 0.250382
v 0.000000 0.234231 0.228295
v -0.054131 0.233830 0.250382
v -0.076552 0.232863 0.303705
v -0.054131 0.231895 0.357028
v -0.000000 0.231495 0.379116
v 0.054131 0.231895 0.357028
v 0.081656 0.489062 0.303705
v 0.057739 0.490095 0.246827
v 0.000000 0.490522 0.223267
v -0.057739 0.490095 0.246827
v -0.081656 0.489062 0.303705
v -0.057739 0.488030 0.360583
v -0.000000 0.487603 0.384143
v 0.057739 0.488030 0.360583
v 0.089821 0.764970 0.313762
v 0.063513 0.766105 0.251196
v 0.000000 0.766575 0.225280
v -0.063513 0.766105 0.251196
v -0.089821 0.764970 0.313762
v -0.063513 0.763834 0.376328
v -0.000000 0.763364 0.402243
v 0.063513 0.763834 0.376328
v -0.153105 0.304303 0.102576
v -0.153105 0.304303 0.364044
v -0.153105 0.328938 0.102576
v -0.153105 0.328938 0.364044
v 0.153105 0.304303 0.102576
v 0.153105 0.304303 0.364044
v 0.153105 0.328938 0.102576
v 0.153105 0.328938 0.364044
v -0.035724 0.183594 0.082463
v -0.025261 0.159207 0.082463
v -0.000000 0.149105 0.082463
v 0.025261 0.159207 0.082463
v 0.035724 0.183594 0.082463
v 0.025261 0.207981 0.082463
v 0.000000 0.218082 0.082463
v -0.025261 0.207981 0.082463
v -0.073490 0.183594 0.142802
v -0.051965 0.133426 0.142802
v -0.000000 0.112646 0.142802
v 0.051965 0.133426 0.142802
v 0.073490 0.183594 0.142802
v 0.051965 0.233761 0.142802
v 0.000000 0.254541 0.142802
v -0.051965 0.233761 0.142802
v -0.083697 0.183594 0.303705
v -0.059183 0.126458 0.303705
v -0.000000 0.102792 0.303705
v 0.059183 0.126458 0.303705
v 0.083697 0.183594 0.303705
v 0.059183 0.240729 0.303705
v 0.000000 0.264395 0.303705
v -0.059183 0.240729 0.303705
v -0.063283 0.183594 0.424383
v -0.044748 0.140394 0.424383
v -0.000000 0.122500 0.424383
v 0.044748 0.140394 0.424383
v 0.063283 0.183594 0.424383
v 0.044748 0.226794 0.424383
v 0.000000 0.244687 0.424383
v -0.044748 0.226794 0.424383
v -0.028580 0.183594 0.474665
v -0.020209 0.164084 0.474665
v -0.000000 0.156003 0.474665
v 0.020209 0.164084 0.474665
v 0.028580 0.183594 0.474665
v 0.020209 0.203103 0.474665
v 0.000000 0.211184 0.474665
v -0.020209 0.203103 0.474665
v 0.016331 0.168813 0.424383
v 0.016331 0.168813 0.263479
v 0.016331 0.035786 0.303705
v 0.016331 0.035786 0.384157
v -0.016331 0.168813 0.424383
v -0.016331 0.168813 0.263479
v -0.016331 0.035786 0.303705
v -0.016331 0.035786 0.384157
v -0.045931 0.183594 -0.028158
v -0.032478 0.152239 -0.028158
v -0.000000 0.139251 -0.028158
v 0.032478 0.152239 -0.028158
v 0.045931 0.183594 -0.028158
v 0.032478 0.214948 -0.028158
v 0.000000 0.227936 -0.028158
v -0.032478 0.214948 -0.028158
v -0.053076 0.183594 0.122689
v -0.037531 0.147362 0.122689
v -0.000000 0.132354 0.122689
v 0.037531 0.147362 0.122689
v 0.053076 0.183594 0.122689
v 0.037531 0.219826 0.122689
v 0.000000 0.234834 0.122689
v -0.037531 0.219826 0.122689
v -0.030621 0.139251 0.022124
v -0.015310 0.140709 0.012660
v 0.015310 0.140709 0.012660
v 0.030621 0.139251 0.022124
v 0.015310 0.137794 0.031588
v -0.015310 0.137794 0.031588
v -0.042177 0.086206 0.006609
v -0.019664 0.086804 0.002726
v 0.022513 0.085653 0.010196
v 0.042177 0.083905 0.021549
v 0.019664 0.083307 0.025432
v -0.022513 0.084457 0.017962
v -0.036020 0.037942 -0.007969
v -0.015387 0.037848 -0.007359
v 0.020633 0.035692 0.006643
v 0.036020 0.033630 0.020037
v 0.015387 0.033724 0.019427
v -0.020633 0.035880 0.005424
v -0.014172 0.002514 -0.007898
v -0.004451 0.002596 -0.008429
v 0.009722 0.001380 -0.000531
v 0.014172 0.000082 0.007898
v 0.004451 0.000000 0.008429
v -0.009722 0.001216 0.000531
v 0.055088 0.180164 0.022124
v 0.046126 0.192236 0.012660
v 0.030815 0.217837 0.012660
v 0.024467 0.231366 0.022124
v 0.033430 0.219294 0.031588
v 0.048740 0.193693 0.031588
v 0.108452 0.197025 0.006609
v 0.096659 0.215548 0.002726
v 0.076602 0.251386 0.010196
v 0.068338 0.268700 0.021549
v 0.080131 0.250177 0.025432
v 0.100188 0.214340 0.017962
v 0.148668 0.226305 -0.007969
v 0.138436 0.243602 -0.007359
v 0.122360 0.274795 0.006643
v 0.116517 0.288690 0.020037
v 0.126749 0.271393 0.019427
v 0.142825 0.240200 0.005424
v 0.169526 0.262284 -0.007898
v 0.164592 0.270371 -0.008429
v 0.158597 0.282829 -0.000531
v 0.157535 0.287199 0.007898
v 0.162470 0.279112 0.008429
v 0.168465 0.266655 0.000531
v -0.024467 0.231366 0.022124
v -0.030815 0.217837 0.012660
v -0.046126 0.192236 0.012660
v -0.055088 0.180164 0.022124
v -0.048740 0.193693 0.031588
v -0.033430 0.219294 0.031588
v -0.066275 0.267550 0.006609
v -0.076995 0.248429 0.002726
v -0.099115 0.213742 0.010196
v -0.110515 0.198176 0.021549
v -0.099795 0.217297 0.025432
v -0.077675 0.251984 0.017962
v -0.112649 0.286534 -0.007969
v -0.123049 0.269331 -0.007359
v -0.142993 0.240294 0.006643
v -0.152536 0.228461 0.020037
v -0.142136 0.245664 0.019427
v -0.122192 0.274701 0.005424
v -0.155354 0.285983 -0.007898
v -0.160141 0.277814 -0.008429
v -0.168318 0.266573 -0.000531
v -0.171708 0.263501 0.007898
v -0.166920 0.271669 0.008429
v -0.158743 0.282910 0.000531
vn -1.0000 -0.0000 -0.0000
vn -0.0000 1.0000 -0.0000
vn 1.0000 -0.0000 -0.0000
vn -0.0000 -1.0000 -0.0000
vn -0.0000 -0.0000 -1.0000
vn -0.0000 -0.0000 1.0000
vn 0.8891 0.1023 -0.4461
vn 0.3225 0.0792 -0.9432
vn -0.3253 0.0748 -0.9426
vn -0.8912 0.0974 -0.4430
vn -0.8891 0.1023 0.4461
vn -0.3225 0.0792 0.9432
vn 0.3253 0.0748 0.9426
vn 0.8912 0.0974 0.4430
vn 0.7191 0.5959 -0.3575
vn 0.2746 0.5399 -0.7957
vn -0.2770 0.5368 -0.7969
vn -0.7221 0.5929 -0.3564
vn -0.7191 0.5959 0.3575
vn -0.2746 0.5399 0.7957
vn 0.2770 0.5368 0.7969
vn 0.7221 0.5929 0.3564
vn -0.0818 -0.0000 -0.9966
vn -0.0806 -0.8656 -0.4942
vn -0.0806 -0.8653 0.4948
vn -0.0806 -0.8652 -0.4948
vn -0.0818 -0.0000 0.9966
vn -0.0806 -0.8656 0.4943
vn -0.0806 0.8656 0.4942
vn -0.0806 0.8653 -0.4948
vn -0.0806 0.8652 0.4948
vn -0.0806 0.8656 -0.4943
vn -0.9736 -0.0000 0.2281
vn 0.9736 -0.0000 -0.2281
vn -0.2218 -0.0000 -0.9751
vn 0.2218 -0.0000 0.9751
vn 0.7052 -0.0198 -0.7087
vn 0.9997 -0.0247 -0.0049
vn 0.9998 -0.0199 0.0041
vn -0.0000 -0.0196 -0.9998
vn 0.7010 -0.0115 -0.7131
vn -0.7010 -0.0115 -0.7131
vn -0.0000 -0.0061 -1.0000
vn -0.7052 -0.0198 -0.7087
vn -0.9997 -0.0247 -0.0049
vn -0.9998 -0.0199 0.0041
vn -0.7054 -0.0376 0.7078
vn -0.7011 -0.0198 0.7128
vn -0.0000 -0.0427 0.9991
vn 0.7011 -0.0198 0.7128
vn -0.0000 -0.0196 0.9998
vn 0.7054 -0.0376 0.7078
vn 0.7056 -0.0035 -0.7086
vn 0.9996 -0.0297 0.0039
vn -0.0000 0.0073 -1.0000
vn -0.7056 -0.0035 -0.7086
vn -0.9996 -0.0297 0.0039
vn -0.7006 -0.0553 0.7114
vn 0.7006 -0.0553 0.7114
vn -0.0000 -0.0655 0.9979
vn -0.0000 -0.9998 -0.0181
vn -0.0000 0.9998 0.0181
vn -0.5919 -0.6126 -0.5237
vn -0.9571 -0.0000 -0.2897
vn -0.8477 -0.0000 -0.5305
vn -0.0000 -0.8559 -0.5172
vn -0.6698 -0.6852 -0.2862
vn 0.5919 -0.6126 -0.5237
vn -0.0000 -0.9592 -0.2828
vn 0.8477 -0.0000 -0.5305
vn 0.6698 -0.6852 -0.2862
vn 0.5919 0.6126 -0.5237
vn 0.9571 -0.0000 -0.2897
vn -0.0000 0.8559 -0.5172
vn 0.6698 0.6852 -0.2862
vn -0.5919 0.6126 -0.5237
vn -0.0000 0.9592 -0.2828
vn -0.6698 0.6852 -0.2862
vn -0.9987 -0.0000 0.0506
vn -0.6979 -0.7144 0.0498
vn -0.0000 -0.9988 0.0491
vn 0.6979 -0.7144 0.0498
vn 0.9987 -0.0000 0.0506
vn 0.6979 0.7144 0.0498
vn -0.0000 0.9988 0.0491
vn -0.6979 0.7144 0.0498
vn -0.9335 -0.0000 0.3586
vn -0.6534 -0.6690 0.3543
vn -0.0000 -0.9367 0.3501
vn 0.6534 -0.6690 0.3543
vn 0.9335 -0.0000 0.3586
vn 0.6534 0.6690 0.3543
vn -0.0000 0.9367 0.3501
vn -0.6534 0.6690 0.3543
vn -0.8230 -0.0000 0.5680
vn -0.5749 -0.5955 0.5611
vn -0.0000 -0.8322 0.5545
vn 0.5749 -0.5955 0.5611
vn 0.8230 -0.0000 0.5680
vn 0.5749 0.5955 0.5611
vn -0.5749 0.5955 0.5611
vn -0.0000 0.8322 0.5545
vn -0.0000 -0.2894 -0.9572
vn -0.0000 -0.2894 0.9572
vn -0.6972 -0.7153 -0.0465
vn -0.9989 -0.0000 -0.0473
vn -0.0000 -0.9990 -0.0457
vn -0.6977 -0.7148 -0.0465
vn 0.6973 -0.7153 -0.0465
vn 0.9989 -0.0000 -0.0473
vn 0.6977 -0.7149 -0.0465
vn 0.6972 0.7153 -0.0465
vn -0.0000 0.9990 -0.0457
vn 0.6977 0.7148 -0.0465
vn -0.6973 0.7153 -0.0465
vn -0.6977 0.7149 -0.0465
vn -0.9966 0.0716 0.0412
vn -0.0264 0.2221 -0.9747
vn -0.9825 0.1191 -0.1436
vn 0.2880 0.1258 -0.9493
vn -0.2639 0.1954 -0.9446
vn 0.9964 0.0809 -0.0241
vn 0.3744 0.0946 -0.9224
vn 0.0263 -0.0852 0.9960
vn 0.9811 0.0699 0.1804
vn -0.2885 -0.1554 0.9448
vn 0.2642 -0.0874 0.9605
vn -0.3739 -0.1904 0.9077
vn -0.8677 -0.2487 -0.4303
vn 0.1617 0.1161 -0.9800
vn 0.5360 -0.0160 -0.8441
vn 0.8659 -0.3740 0.3320
vn -0.1614 -0.2122 0.9638
vn -0.5334 -0.2911 0.7942
vn -0.7732 -0.3036 -0.5568
vn 0.2403 0.0587 -0.9689
vn 0.7792 -0.4715 0.4129
vn 0.6750 -0.0609 -0.7353
vn -0.2407 -0.2732 0.9314
vn -0.6748 -0.3071 0.6710
vn -0.0000 0.9884 0.1522
vn -0.0000 -0.9884 -0.1522
vn 0.4271 -0.9034 0.0386
vn -0.1740 -0.1338 -0.9756
vn 0.3802 -0.9138 -0.1430
vn -0.2509 0.1975 -0.9476
vn -0.0342 -0.3282 -0.9440
vn -0.5523 0.8331 -0.0302
vn -0.2648 0.2862 -0.9209
vn 0.0597 0.0654 0.9961
vn -0.5381 0.8228 0.1829
vn 0.2707 -0.1770 0.9462
vn -0.0616 0.2839 0.9569
vn 0.3444 -0.2394 0.9078
vn 0.6369 -0.6404 -0.4292
vn -0.1794 0.0881 -0.9798
vn -0.2523 0.4830 -0.8385
vn -0.1124 0.9337 0.3399
vn 0.2603 -0.0393 0.9647
vn 0.5086 -0.3325 0.7942
vn 0.6382 -0.5399 -0.5488
vn -0.1647 0.1820 -0.9694
vn 0.0112 0.9044 0.4265
vn -0.2827 0.6258 -0.7270
vn 0.3516 -0.0814 0.9326
vn 0.5933 -0.4518 0.6662
vn -0.8477 -0.5070 0.1561
vn 0.8477 0.5070 -0.1561
vn 0.5459 0.8373 0.0315
vn 0.1980 -0.0880 -0.9762
vn 0.5827 0.7979 -0.1545
vn -0.0343 -0.3154 -0.9483
vn 0.2978 0.1430 -0.9438
vn -0.4196 -0.9074 -0.0251
vn -0.1058 -0.3810 -0.9185
vn -0.0831 0.0200 0.9963
vn -0.4210 -0.8880 0.1849
vn 0.0165 0.3377 0.9411
vn -0.2031 -0.1887 0.9608
vn 0.0263 0.4268 0.9040
vn 0.2209 0.8716 -0.4375
vn 0.0146 -0.2032 -0.9790
vn -0.2777 -0.4694 -0.8382
vn -0.7434 -0.5756 0.3406
vn -0.0955 0.2516 0.9631
vn 0.0223 0.6161 0.7873
vn 0.1304 0.8176 -0.5609
vn -0.0732 -0.2464 -0.9664
vn -0.7828 -0.4597 0.4194
vn -0.3873 -0.5709 -0.7239
vn -0.1131 0.3473 0.9309
vn 0.0782 0.7439 0.6637
vn 0.8477 -0.5070 0.1561
vn -0.8477 0.5070 -0.1561
vn 0.8912 0.0974 -0.4430
vn 0.3253 0.0748 -0.9426
vn -0.3225 0.0792 -0.9432
vn -0.8891 0.1023 -0.4461
vn -0.8912 0.0974 0.4430
vn -0.3253 0.0748 0.9426
vn 0.3225 0.0792 0.9432
vn 0.8891 0.1023 0.4461
vn 0.7221 0.5929 -0.3564
vn 0.2770 0.5368 -0.7969
vn -0.2746 0.5399 -0.7957
vn -0.7191 0.5959 -0.3575
vn -0.7221 0.5929 0.3564
vn -0.2770 0.5368 0.7969
vn 0.2746 0.5399 0.7957
vn 0.7191 0.5959 0.3575
vt 0.500000 2.433333
vt -0.500000 3.300000
vt -0.500000 2.433333
vt -0.600000 0.500000
vt 0.600000 -0.500000
vt -0.600000 -0.500000
vt 0.500000 3.300000
vt 0.600000 0.500000
vt -0.600000 3.300000
vt 0.600000 2.433333
vt 0.600000 3.300000
vt 0.365339 3.200000
vt -0.000000 3.500000
vt -0.000000 3.200000
vt -0.000000 3.200000
vt -0.412479 3.500000
vt -0.436049 3.200000
vt 0.412479 3.500000
vt -0.000000 3.500000
vt -0.365339 3.200000
vt -0.000000 3.500000
vt -0.348839 3.500000
vt -0.000000 3.200000
vt -0.000000 3.200000
vt -0.000000 3.500000
vt 0.348839 3.500000
vt -0.000000 3.666667
vt -0.318198 3.666667
vt 0.318198 3.666667
vt -0.000000 3.666667
vt -0.000000 3.666667
vt -0.271058 3.666667
vt -0.000000 3.666667
vt -0.436049 0.365339
vt 0.000000 0.516667
vt -0.436049 -0.365339
vt -0.318198 0.271058
vt -0.000000 0.383333
vt 0.000000 -0.383333
vt 0.633333 3.100000
vt 0.833333 2.941229
vt 0.833333 3.100000
vt -0.633333 -0.033333
vt -0.833333 0.158333
vt -0.633333 0.166667
vt -0.633333 3.100000
vt -0.833333 2.941229
vt -0.633333 2.926795
vt -0.833333 3.258771
vt -0.833333 3.100000
vt -0.633333 -0.166667
vt -0.833333 0.025000
vt -0.633333 0.033333
vt 0.833333 3.258771
vt 0.633333 3.273205
vt -0.133333 3.100000
vt -0.033333 2.926795
vt 0.166667 2.926795
vt -0.250000 3.100000
vt 0.025000 2.941229
vt 0.025000 3.258771
vt -0.029775 2.816667
vt -0.614397 3.450000
vt -0.614397 2.816667
vt 0.702100 -0.029775
vt 0.664567 -0.636892
vt 0.567130 -0.614397
vt 0.052270 3.450000
vt 0.636892 2.816667
vt 0.636892 3.450000
vt 0.799537 0.052270
vt 0.567130 0.614397
vt 0.664567 0.636892
vt -0.664567 3.450000
vt -0.567130 2.816667
vt -0.567130 3.450000
vt 0.702100 3.450000
vt 0.799537 2.816667
vt 0.799537 3.450000
vt 0.243413 0.736606
vt 0.066667 1.600000
vt 0.066667 0.733333
vt -0.000000 0.737962
vt -0.188562 1.603491
vt -0.176777 0.736606
vt 0.188562 1.603491
vt -0.000000 1.604937
vt -0.243413 0.736606
vt -0.066667 1.600000
vt -0.255196 1.603491
vt -0.066667 0.733333
vt 0.121863 1.596509
vt -0.176777 0.730060
vt -0.000000 1.595062
vt -0.188562 1.596509
vt 0.176777 0.730060
vt -0.000000 0.728704
vt -0.121863 1.596509
vt -0.110080 0.730060
vt 0.240716 2.537174
vt 0.033333 2.533333
vt -0.000000 2.538764
vt -0.207418 2.537174
vt -0.240716 2.537174
vt -0.033333 2.533333
vt -0.207418 2.529493
vt 0.207418 2.529493
vt -0.000000 2.527902
vt -0.174049 2.529493
vt -0.176777 -0.110080
vt -0.176777 0.243413
vt 0.176777 0.243413
vt 0.000000 -0.326616
vt -0.293333 -0.033333
vt -0.000000 0.259950
vt 0.133333 0.975000
vt -0.733333 1.058333
vt -0.733333 0.975000
vt -0.500000 0.133333
vt 0.500000 -0.733333
vt -0.500000 -0.733333
vt -0.133333 1.058333
vt 0.733333 0.975000
vt 0.733333 1.058333
vt 0.500000 -0.133333
vt -0.500000 0.733333
vt 0.500000 0.733333
vt -0.500000 1.058333
vt 0.500000 0.975000
vt 0.500000 1.058333
vt -0.800000 0.484171
vt -0.600000 0.566667
vt -0.800000 0.566667
vt -0.000000 0.800000
vt -0.169706 0.600000
vt -0.082496 0.800000
vt 0.082496 0.800000
vt -0.000000 0.600000
vt 0.800000 0.566667
vt 0.600000 0.396961
vt 0.800000 0.484171
vt 0.800000 0.649162
vt 0.600000 0.566667
vt 0.000000 -0.800000
vt 0.169706 -0.600000
vt 0.082496 -0.800000
vt -0.082496 -0.800000
vt 0.000000 -0.600000
vt -0.600000 0.736372
vt -0.800000 0.649162
vt -0.600000 0.396961
vt -0.066667 0.566667
vt -0.193276 0.066667
vt 0.169706 0.600000
vt -0.000000 0.066667
vt 0.066667 0.373391
vt 0.600000 0.736372
vt 0.066667 0.566667
vt 0.193276 -0.066667
vt -0.169706 -0.600000
vt 0.000000 -0.066667
vt -0.066667 0.759943
vt -0.066667 0.373391
vt 0.333333 0.566667
vt -0.146135 -0.333333
vt 0.193276 0.066667
vt -0.000000 -0.333333
vt -0.333333 0.420531
vt 0.066667 0.759943
vt -0.333333 0.566667
vt 0.146135 0.333333
vt -0.193276 -0.066667
vt 0.000000 0.333333
vt 0.333333 0.712802
vt 0.333333 0.420531
vt 0.500000 0.566667
vt -0.065997 -0.500000
vt 0.146135 -0.333333
vt -0.000000 -0.500000
vt -0.500000 0.500670
vt -0.333333 0.712802
vt -0.500000 0.566667
vt 0.065997 0.500000
vt -0.065997 0.500000
vt 0.000000 0.500000
vt 0.500000 0.632663
vt -0.082496 0.484171
vt 0.000000 0.450000
vt 0.082496 0.484171
vt -0.000000 0.473333
vt 0.093333 0.566667
vt 0.000000 0.660000
vt -0.200000 0.066667
vt 0.200000 0.516667
vt -0.333333 0.516667
vt 0.333333 0.516667
vt -0.066667 0.066667
vt 0.200000 0.066667
vt 0.053333 -0.200000
vt -0.053333 0.333333
vt 0.053333 0.333333
vt -0.053333 0.066667
vt 0.053333 0.516667
vt -0.053333 0.516667
vt 0.053333 0.066667
vt -1.166667 0.460601
vt -0.666667 0.566667
vt -1.166667 0.566667
vt -0.000000 1.166667
vt -0.122565 0.666667
vt -0.106066 1.166667
vt 0.106066 1.166667
vt -0.000000 0.666667
vt 1.166667 0.566667
vt 0.666667 0.444101
vt 1.166667 0.460601
vt 1.166667 0.672733
vt 0.666667 0.566667
vt 0.000000 -1.166667
vt 0.122565 -0.666667
vt 0.106066 -1.166667
vt -0.106066 -1.166667
vt 0.000000 -0.666667
vt -0.666667 0.689232
vt -1.166667 0.672733
vt -0.106066 0.672733
vt -0.106066 0.460601
vt 0.106066 0.460601
vt 0.122565 0.689232
vt 0.000000 0.740000
vt -0.000000 0.393333
vt 0.100000 0.416667
vt 0.064218 0.239247
vt 0.137738 0.237224
vt -0.050000 0.421596
vt 0.050000 0.421596
vt -0.100000 0.416667
vt -0.073520 0.235356
vt 0.064218 0.227420
vt 0.137738 0.229442
vt -0.050000 0.411737
vt 0.050000 0.411737
vt -0.073520 0.231311
vt 0.117631 0.073960
vt 0.050249 0.073643
vt -0.137738 0.229442
vt -0.067381 0.066349
vt 0.117631 0.059373
vt 0.050249 0.059691
vt -0.137738 0.237224
vt -0.067381 0.066984
vt 0.046284 -0.045886
vt 0.014536 -0.045610
vt 1.051313 0.066349
vt 1.047154 -0.054114
vt 1.075093 -0.049724
vt 0.046284 -0.054114
vt 0.014536 -0.054390
vt -1.055354 0.066984
vt -1.099512 -0.045886
vt -1.071574 -0.050276
vt -0.050000 -1.031369
vt 0.050000 -0.968631
vt 0.050000 -1.031369
vt 0.031748 1.075093
vt 0.046284 1.047154
vt 0.014536 1.045395
vt -0.179904 0.555064
vt -0.315663 0.674762
vt -0.354175 0.612103
vt -0.100635 0.682503
vt -0.150635 0.595901
vt -0.079904 0.728269
vt -0.250163 0.795993
vt 0.079904 0.728269
vt 0.261687 0.791904
vt 0.223176 0.854564
vt 0.159173 0.600830
vt 0.109173 0.687433
vt 0.179904 0.555064
vt 0.327187 0.670674
vt -0.485512 0.711149
vt -0.452096 0.769661
vt -0.223176 0.854564
vt -0.399597 0.875179
vt 0.380514 0.922185
vt 0.413929 0.863672
vt 0.354175 0.612103
vt 0.466428 0.758154
vt -0.553628 0.832860
vt -0.537515 0.860217
vt 0.399597 -1.051313
vt 0.514470 -1.047154
vt 0.517936 -1.075093
vt 0.514470 0.917140
vt 0.530583 0.889783
vt 1.055354 0.758154
vt 1.099512 0.832860
vt 1.071574 0.847644
vt -1.031369 0.682503
vt -1.031369 0.595901
vt -0.968631 0.600830
vt 1.075093 0.902356
vt 1.047154 0.917140
vt 1.045395 0.889783
vt 0.251445 0.785991
vt 0.216436 0.850673
vt 0.150635 0.595901
vt 0.100635 0.682503
vt 0.323684 0.668652
vt -0.325905 0.680676
vt -0.360914 0.615994
vt -0.109173 0.687433
vt -0.159173 0.600830
vt -0.253667 0.798015
vt 0.367881 0.914891
vt 0.401847 0.856696
vt 0.360914 0.615994
vt 0.466978 0.758471
vt -0.498145 0.718442
vt -0.464179 0.776637
vt -0.216436 0.850673
vt -0.399047 0.874862
vt 0.507344 0.913026
vt 0.522979 0.885393
vt 0.560753 0.836974
vt 0.549684 0.847367
vt -0.560753 0.836974
vt -0.545119 0.864607
vt -0.399047 -1.055354
vt -0.507344 -1.099512
vt -0.518414 -1.071574
vt 1.031369 0.682503
vt 0.968631 0.600830
vt 1.031369 0.595901
vt -1.075093 0.847367
vt -1.047154 0.836974
vt -1.045395 0.864607
vt -0.600000 2.433333
vt 0.436049 3.200000
vt 0.271058 3.666667
vt 0.436049 0.365339
vt 0.616667 -0.000000
vt 0.436049 -0.365339
vt -0.000000 -0.516667
vt -0.616667 0.000000
vt 0.318198 0.271058
vt 0.318198 -0.271058
vt 0.450000 0.000000
vt -0.318198 -0.271058
vt -0.450000 -0.000000
vt 0.633333 2.926795
vt -0.833333 -0.025000
vt -0.633333 3.273205
vt -0.833333 -0.158333
vt 0.266667 3.100000
vt 0.166667 3.273205
vt -0.033333 3.273205
vt -0.158333 3.258771
vt -0.158333 2.941229
vt 0.116667 3.100000
vt -0.029775 3.450000
vt 0.799537 -0.052270
vt 0.052270 2.816667
vt 0.702100 0.029775
vt -0.664567 2.816667
vt 0.702100 2.816667
vt 0.255196 1.603491
vt 0.176777 0.736606
vt 0.110080 0.730060
vt 0.188562 1.596509
vt 0.207418 2.537174
vt 0.174049 2.529493
vt 0.250000 0.066667
vt 0.176777 -0.110080
vt -0.000000 -0.183290
vt -0.250000 0.066667
vt 0.000000 0.316624
vt 0.207418 0.174049
vt 0.293333 -0.033333
vt 0.207418 -0.240716
vt -0.207418 -0.240716
vt -0.207418 0.174049
vt 0.133333 1.058333
vt 0.500000 0.133333
vt -0.133333 0.975000
vt -0.500000 -0.133333
vt -0.500000 0.975000
vt -0.146135 0.333333
vt 0.500000 0.500670
vt 0.065997 -0.500000
vt -0.500000 0.632663
vt 0.116667 0.566667
vt -0.082496 0.649162
vt 0.082496 0.649162
vt -0.000000 0.683333
vt -0.116667 0.566667
vt -0.065997 0.632663
vt -0.093333 0.566667
vt -0.065997 0.500670
vt 0.065997 0.500670
vt 0.065997 0.632663
vt 0.066667 0.066667
vt -0.200000 0.516667
vt -0.053333 -0.200000
vt -0.666667 0.444101
vt 0.122565 0.666667
vt 0.666667 0.689232
vt -0.122565 -0.666667
vt 0.150000 0.566667
vt 0.106066 0.672733
vt -0.000000 0.716667
vt -0.150000 0.566667
vt 0.000000 0.416667
vt -0.122565 0.689232
vt -0.173333 0.566667
vt -0.122565 0.444101
vt 0.122565 0.444101
vt 0.173333 0.566667
vt -0.117631 0.059373
vt -0.117631 0.073960
vt -0.031748 -0.049724
vt 1.006920 0.059373
vt -0.031748 -0.050276
vt -1.099747 0.073960
vt -0.100000 -1.000000
vt -0.050000 -0.968631
vt 0.100000 -1.000000
vt -0.031748 1.071574
vt -0.014536 1.101272
vt -0.046284 1.099512
vt -0.380514 0.922185
vt 0.485512 0.711149
vt -0.517936 0.902356
vt 0.380514 -1.006920
vt 0.550162 0.847644
vt 1.099747 0.711149
vt -1.000000 0.555064
vt -0.968631 0.687433
vt -1.000000 0.728269
vt 1.101272 0.860217
vt 0.498145 0.718442
vt -0.367881 0.914891
vt -0.518414 0.902633
vt -0.367881 -1.099747
vt 1.000000 0.728269
vt 0.968631 0.687433
vt 1.000000 0.555064
vt -1.071574 0.902633
vt -1.101272 0.885393
vt -1.099512 0.913026
s 0
f 52/115/27 53/116/27 51/117/27
f 54/118/28 57/119/28 53/120/28
f 58/116/29 55/115/29 57/121/29
f 56/119/30 51/118/30 55/122/30
f 57/123/31 51/124/31 53/125/31
f 54/123/32 56/124/32 58/125/32
f 60/126/33 67/127/33 59/128/33
f 61/129/34 68/130/34 60/131/34
f 61/129/35 70/132/35 69/133/35
f 62/134/36 71/135/36 70/136/36
f 64/126/37 71/135/37 63/137/37
f 65/138/38 72/130/38 64/131/38
f 65/138/39 74/132/39 73/139/39
f 66/134/40 67/127/40 74/136/40
f 68/140/41 75/141/41 67/127/41
f 69/133/42 76/142/42 68/130/42
f 69/133/43 78/143/43 77/144/43
f 70/136/44 79/145/44 78/146/44
f 72/140/45 79/145/45 71/135/45
f 73/139/46 80/142/46 72/130/46
f 73/139/47 82/143/47 81/147/47
f 74/136/48 75/141/48 82/146/48
f 62/148/30 61/149/30 64/150/30
f 80/151/28 81/152/28 77/153/28
s 1
f 83/154/49 90/155/50 89/156/49
f 85/157/51 90/158/50 84/159/52
f 86/160/53 91/161/54 85/162/51
f 86/160/53 93/163/55 92/164/53
f 88/165/56 93/166/55 87/167/57
f 83/154/49 94/168/58 88/169/56
s 0
f 86/170/29 85/171/29 84/172/29
f 89/173/27 91/174/27 93/175/27
f 96/176/59 97/177/59 95/178/59
f 98/179/28 101/180/28 97/181/28
f 102/182/60 99/183/60 101/184/60
f 100/185/30 95/186/30 99/187/30
f 101/188/61 95/189/61 97/190/61
f 98/191/62 100/192/62 102/193/62
s 1
f 104/194/63 111/195/64 103/196/65
f 105/197/66 112/198/67 104/199/63
f 105/197/66 114/200/68 113/201/69
f 106/202/70 115/203/71 114/204/68
f 107/205/72 116/206/73 115/203/71
f 108/207/74 117/208/75 116/209/73
f 110/210/76 117/208/75 109/211/77
f 103/196/65 118/212/78 110/213/76
f 111/195/64 120/214/79 119/215/80
f 112/198/67 121/216/81 120/217/79
f 114/200/68 121/216/81 113/201/69
f 115/203/71 122/218/82 114/204/68
f 116/206/73 123/219/83 115/203/71
f 117/208/75 124/220/84 116/209/73
f 117/208/75 126/221/85 125/222/86
f 118/212/78 119/215/80 126/223/85
s 0
f 108/224/87 106/225/87 104/226/87
f 121/227/88 123/228/88 125/229/88
f 128/230/27 129/231/27 127/232/27
f 130/233/28 133/234/28 129/235/28
f 134/236/29 131/237/29 133/238/29
f 132/239/30 127/240/30 131/241/30
f 133/242/31 127/243/31 129/244/31
f 130/242/32 132/243/32 134/244/32
s 1
f 136/245/89 143/246/90 135/247/91
f 137/248/92 144/249/93 136/250/89
f 138/251/94 145/252/95 137/248/92
f 139/253/96 146/254/97 138/255/94
f 140/256/98 147/257/99 139/253/96
f 141/258/100 148/259/101 140/260/98
f 142/261/102 149/262/103 141/258/100
f 135/247/91 150/263/104 142/264/102
f 144/265/93 151/266/105 143/246/90
f 145/252/95 152/267/106 144/249/93
f 146/268/97 153/269/107 145/252/95
f 147/257/99 154/270/108 146/254/97
f 148/271/101 155/272/109 147/257/99
f 149/262/103 156/273/110 148/259/101
f 150/274/104 157/275/111 149/262/103
f 143/246/90 158/276/112 150/263/104
f 152/277/106 159/278/113 151/266/105
f 153/269/107 160/279/114 152/267/106
f 154/280/108 161/281/115 153/269/107
f 155/272/109 162/282/116 154/270/108
f 156/283/110 163/284/117 155/272/109
f 157/275/111 164/285/118 156/273/110
f 158/286/112 165/287/119 157/275/111
f 151/266/105 166/288/120 158/276/112
f 160/289/114 167/290/121 159/278/113
f 161/281/115 168/291/122 160/279/114
f 162/292/116 169/293/123 161/281/115
f 163/284/117 170/294/124 162/282/116
f 164/295/118 171/296/125 163/284/117
f 165/287/119 172/297/126 164/285/118
f 165/287/119 174/298/127 173/299/128
f 166/288/120 167/290/121 174/300/127
s 0
f 138/301/31 137/302/31 136/303/31
f 169/304/32 171/305/32 173/306/32
f 178/307/29 176/308/29 175/309/29
f 179/310/27 181/311/27 182/312/27
f 176/313/28 179/314/28 175/315/28
f 177/316/129 180/317/129 176/318/129
f 178/313/30 181/316/30 177/319/30
f 175/317/130 182/316/130 178/319/130
s 1
f 184/320/131 191/321/132 183/322/132
f 185/323/133 192/324/134 184/325/131
f 186/326/135 193/327/133 185/323/133
f 187/328/136 194/329/137 186/330/135
f 188/331/138 195/332/136 187/328/136
f 189/333/139 196/334/140 188/335/138
f 190/336/141 197/337/139 189/333/139
f 183/322/132 198/338/142 190/339/141
s 0
f 188/340/31 186/341/31 184/342/31
f 196/343/32 197/344/32 193/345/32
s 1
f 199/346/143 206/347/144 205/348/145
f 201/349/146 206/347/144 200/350/147
f 202/351/148 207/352/149 201/349/146
f 202/346/148 209/353/150 208/354/151
f 204/355/152 209/353/150 203/356/153
f 199/351/143 210/357/154 204/355/152
f 206/347/144 211/358/155 205/348/145
f 207/352/149 212/359/156 206/347/144
f 208/360/151 213/361/157 207/352/149
f 209/353/150 214/362/158 208/354/151
f 210/357/154 215/363/159 209/353/150
f 205/364/145 216/365/160 210/357/154
f 212/359/156 217/366/161 211/358/155
f 213/361/157 218/367/162 212/359/156
f 213/368/157 220/369/163 219/370/164
f 215/363/159 220/371/163 214/362/158
f 216/365/160 221/372/165 215/363/159
f 216/373/160 217/374/161 222/375/166
s 0
f 200/376/167 203/377/167 201/378/167
f 219/379/168 220/380/168 221/381/168
s 1
f 223/382/169 230/383/170 229/384/171
f 225/385/172 230/383/170 224/386/173
f 226/387/174 231/388/175 225/385/172
f 226/389/174 233/390/176 232/391/177
f 228/392/178 233/390/176 227/393/179
f 223/394/169 234/395/180 228/392/178
f 230/383/170 235/396/181 229/384/171
f 231/388/175 236/397/182 230/383/170
f 232/398/177 237/399/183 231/388/175
f 233/390/176 238/400/184 232/391/177
f 234/395/180 239/401/185 233/390/176
f 229/402/171 240/403/186 234/395/180
f 236/397/182 241/404/187 235/396/181
f 237/399/183 242/405/188 236/397/182
f 237/406/183 244/407/189 243/408/190
f 239/401/185 244/409/189 238/400/184
f 240/403/186 245/410/191 239/401/185
f 240/411/186 241/412/187 246/413/192
s 0
f 225/414/193 224/415/193 228/416/193
f 243/417/194 244/418/194 245/419/194
s 1
f 247/389/195 254/420/196 253/421/197
f 249/422/198 254/420/196 248/423/199
f 250/394/200 255/424/201 249/422/198
f 250/382/200 257/425/202 256/426/203
f 252/427/204 257/425/202 251/428/205
f 247/387/195 258/429/206 252/427/204
f 254/420/196 259/430/207 253/421/197
f 255/424/201 260/431/208 254/420/196
f 256/432/203 261/433/209 255/424/201
f 257/425/202 262/434/210 256/426/203
f 258/429/206 263/435/211 257/425/202
f 253/436/197 264/437/212 258/429/206
f 260/431/208 265/438/213 259/430/207
f 261/433/209 266/439/214 260/431/208
f 261/433/209 268/440/215 267/441/216
f 263/435/211 268/442/215 262/434/210
f 264/437/212 269/443/217 263/435/211
f 264/444/212 265/445/213 270/446/218
s 0
f 248/447/219 251/448/219 249/449/219
f 267/450/220 268/451/220 269/452/220
f 52/115/27 54/121/27 53/116/27
f 54/118/28 58/122/28 57/119/28
f 58/116/29 56/117/29 55/115/29
f 56/119/30 52/120/30 51/118/30
f 57/123/31 55/453/31 51/124/31
f 54/123/32 52/453/32 56/124/32
f 60/126/221 68/140/221 67/127/221
f 61/129/222 69/133/222 68/130/222
f 61/129/223 62/454/223 70/132/223
f 62/134/224 63/137/224 71/135/224
f 64/126/225 72/140/225 71/135/225
f 65/138/226 73/139/226 72/130/226
f 65/138/227 66/454/227 74/132/227
f 66/134/228 59/128/228 67/127/228
f 68/140/229 76/455/229 75/141/229
f 69/133/230 77/144/230 76/142/230
f 69/133/231 70/132/231 78/143/231
f 70/136/232 71/135/232 79/145/232
f 72/140/233 80/455/233 79/145/233
f 73/139/234 81/147/234 80/142/234
f 73/139/235 74/132/235 82/143/235
f 74/136/236 67/127/236 75/141/236
f 60/456/30 59/457/30 66/458/30
f 66/458/30 65/459/30 60/456/30
f 65/459/30 64/150/30 61/149/30
f 60/456/30 65/459/30 61/149/30
f 64/150/30 63/460/30 62/148/30
f 81/152/28 82/461/28 76/462/28
f 82/461/28 75/463/28 76/462/28
f 76/462/28 77/153/28 81/152/28
f 77/153/28 78/464/28 80/151/28
f 78/464/28 79/465/28 80/151/28
s 1
f 83/154/49 84/466/52 90/155/50
f 85/157/51 91/467/54 90/158/50
f 86/160/53 92/164/53 91/161/54
f 86/160/53 87/468/57 93/163/55
f 88/165/56 94/469/58 93/166/55
f 83/154/49 89/156/49 94/168/58
s 0
f 84/172/29 83/470/29 86/170/29
f 83/470/29 88/471/29 86/170/29
f 88/471/29 87/472/29 86/170/29
f 93/175/27 94/473/27 89/173/27
f 89/173/27 90/474/27 91/174/27
f 91/174/27 92/475/27 93/175/27
f 96/176/59 98/476/59 97/177/59
f 98/179/28 102/477/28 101/180/28
f 102/182/60 100/478/60 99/183/60
f 100/185/30 96/479/30 95/186/30
f 101/188/61 99/480/61 95/189/61
f 98/191/62 96/481/62 100/192/62
s 1
f 104/194/63 112/482/67 111/195/64
f 105/197/66 113/201/69 112/198/67
f 105/197/66 106/483/70 114/200/68
f 106/202/70 107/205/72 115/203/71
f 107/205/72 108/484/74 116/206/73
f 108/207/74 109/211/77 117/208/75
f 110/210/76 118/485/78 117/208/75
f 103/196/65 111/195/64 118/212/78
f 111/195/64 112/482/67 120/214/79
f 112/198/67 113/201/69 121/216/81
f 114/200/68 122/486/82 121/216/81
f 115/203/71 123/219/83 122/218/82
f 116/206/73 124/487/84 123/219/83
f 117/208/75 125/222/86 124/220/84
f 117/208/75 118/485/78 126/221/85
f 118/212/78 111/195/64 119/215/80
s 0
f 104/226/87 103/488/87 110/489/87
f 110/489/87 109/490/87 108/224/87
f 108/224/87 107/491/87 106/225/87
f 106/225/87 105/492/87 104/226/87
f 104/226/87 110/489/87 108/224/87
f 125/229/88 126/493/88 119/494/88
f 119/494/88 120/495/88 121/227/88
f 121/227/88 122/496/88 123/228/88
f 123/228/88 124/497/88 125/229/88
f 125/229/88 119/494/88 121/227/88
f 128/230/27 130/498/27 129/231/27
f 130/233/28 134/499/28 133/234/28
f 134/236/29 132/500/29 131/237/29
f 132/239/30 128/501/30 127/240/30
f 133/242/31 131/502/31 127/243/31
f 130/242/32 128/502/32 132/243/32
s 1
f 136/245/89 144/265/93 143/246/90
f 137/248/92 145/252/95 144/249/93
f 138/251/94 146/268/97 145/252/95
f 139/253/96 147/257/99 146/254/97
f 140/256/98 148/271/101 147/257/99
f 141/258/100 149/262/103 148/259/101
f 142/261/102 150/274/104 149/262/103
f 135/247/91 143/246/90 150/263/104
f 144/265/93 152/277/106 151/266/105
f 145/252/95 153/269/107 152/267/106
f 146/268/97 154/280/108 153/269/107
f 147/257/99 155/272/109 154/270/108
f 148/271/101 156/283/110 155/272/109
f 149/262/103 157/275/111 156/273/110
f 150/274/104 158/286/112 157/275/111
f 143/246/90 151/266/105 158/276/112
f 152/277/106 160/289/114 159/278/113
f 153/269/107 161/281/115 160/279/114
f 154/280/108 162/292/116 161/281/115
f 155/272/109 163/284/117 162/282/116
f 156/283/110 164/295/118 163/284/117
f 157/275/111 165/287/119 164/285/118
f 158/286/112 166/503/120 165/287/119
f 151/266/105 159/278/113 166/288/120
f 160/289/114 168/504/122 167/290/121
f 161/281/115 169/293/123 168/291/122
f 162/292/116 170/505/124 169/293/123
f 163/284/117 171/296/125 170/294/124
f 164/295/118 172/506/126 171/296/125
f 165/287/119 173/299/128 172/297/126
f 165/287/119 166/503/120 174/298/127
f 166/288/120 159/278/113 167/290/121
s 0
f 136/303/31 135/507/31 140/508/31
f 135/507/31 142/509/31 140/508/31
f 142/509/31 141/510/31 140/508/31
f 140/508/31 139/511/31 136/303/31
f 139/511/31 138/301/31 136/303/31
f 173/306/32 174/512/32 167/513/32
f 167/513/32 168/514/32 169/304/32
f 169/304/32 170/515/32 171/305/32
f 171/305/32 172/516/32 173/306/32
f 173/306/32 167/513/32 169/304/32
f 178/307/29 177/517/29 176/308/29
f 179/310/27 180/518/27 181/311/27
f 176/313/28 180/519/28 179/314/28
f 177/316/129 181/319/129 180/317/129
f 178/313/30 182/519/30 181/316/30
f 175/317/130 179/318/130 182/316/130
s 1
f 184/320/131 192/520/134 191/321/132
f 185/323/133 193/327/133 192/324/134
f 186/326/135 194/521/137 193/327/133
f 187/328/136 195/332/136 194/329/137
f 188/331/138 196/522/140 195/332/136
f 189/333/139 197/337/139 196/334/140
f 190/336/141 198/523/142 197/337/139
f 183/322/132 191/321/132 198/338/142
s 0
f 184/342/31 183/524/31 190/525/31
f 190/525/31 189/526/31 188/340/31
f 188/340/31 187/527/31 186/341/31
f 186/341/31 185/528/31 184/342/31
f 184/342/31 190/525/31 188/340/31
f 197/344/32 198/529/32 191/530/32
f 191/530/32 192/531/32 197/344/32
f 192/531/32 193/345/32 197/344/32
f 193/345/32 194/532/32 195/533/32
f 195/533/32 196/343/32 193/345/32
s 1
f 199/346/143 200/350/147 206/347/144
f 201/349/146 207/352/149 206/347/144
f 202/351/148 208/360/151 207/352/149
f 202/346/148 203/356/153 209/353/150
f 204/355/152 210/357/154 209/353/150
f 199/351/143 205/364/145 210/357/154
f 206/347/144 212/359/156 211/358/155
f 207/352/149 213/361/157 212/359/156
f 208/360/151 214/534/158 213/361/157
f 209/353/150 215/363/159 214/362/158
f 210/357/154 216/365/160 215/363/159
f 205/364/145 211/535/155 216/365/160
f 212/359/156 218/367/162 217/366/161
f 213/361/157 219/536/164 218/367/162
f 213/368/157 214/537/158 220/369/163
f 215/363/159 221/372/165 220/371/163
f 216/365/160 222/538/166 221/372/165
f 216/373/160 211/539/155 217/374/161
s 0
f 200/376/167 199/540/167 204/541/167
f 204/541/167 203/377/167 200/376/167
f 203/377/167 202/542/167 201/378/167
f 221/381/168 222/543/168 218/544/168
f 222/543/168 217/545/168 218/544/168
f 218/544/168 219/379/168 221/381/168
s 1
f 223/382/169 224/386/173 230/383/170
f 225/385/172 231/388/175 230/383/170
f 226/387/174 232/398/177 231/388/175
f 226/389/174 227/393/179 233/390/176
f 228/392/178 234/395/180 233/390/176
f 223/394/169 229/402/171 234/395/180
f 230/383/170 236/397/182 235/396/181
f 231/388/175 237/399/183 236/397/182
f 232/398/177 238/546/184 237/399/183
f 233/390/176 239/401/185 238/400/184
f 234/395/180 240/403/186 239/401/185
f 229/402/171 235/547/181 240/403/186
f 236/397/182 242/405/188 241/404/187
f 237/399/183 243/548/190 242/405/188
f 237/406/183 238/549/184 244/407/189
f 239/401/185 245/410/191 244/409/189
f 240/403/186 246/550/192 245/410/191
f 240/411/186 235/551/181 241/412/187
s 0
f 224/415/193 223/552/193 228/416/193
f 228/416/193 227/553/193 225/414/193
f 227/553/193 226/554/193 225/414/193
f 245/419/194 246/413/194 242/555/194
f 246/413/194 241/412/194 242/555/194
f 242/555/194 243/417/194 245/419/194
s 1
f 247/389/195 248/423/199 254/420/196
f 249/422/198 255/424/201 254/420/196
f 250/394/200 256/432/203 255/424/201
f 250/382/200 251/428/205 257/425/202
f 252/427/204 258/429/206 257/425/202
f 247/387/195 253/436/197 258/429/206
f 254/420/196 260/431/208 259/430/207
f 255/424/201 261/433/209 260/431/208
f 256/432/203 262/556/210 261/433/209
f 257/425/202 263/435/211 262/434/210
f 258/429/206 264/437/212 263/435/211
f 253/436/197 259/557/207 264/437/212
f 260/431/208 266/439/214 265/438/213
f 261/433/209 267/441/216 266/439/214
f 261/433/209 262/556/210 268/440/215
f 263/435/211 269/443/217 268/442/215
f 264/437/212 270/558/218 269/443/217
f 264/444/212 259/559/207 265/445/213
s 0
f 248/447/219 247/560/219 252/561/219
f 252/561/219 251/448/219 248/447/219
f 251/448/219 250/562/219 249/449/219
f 269/452/220 270/563/220 266/564/220
f 270/563/220 265/565/220 266/564/220
f 266/564/220 267/450/220 269/452/220
