# Blender 5.0.1
# www.blender.org
mtllib raft_floor.mtl
o wood
usemtl wood
v -1.000000 0.000000 -0.981597
v -1.000000 0.000000 1.000000
v -1.000000 0.062635 -0.981597
v -1.000000 0.062635 1.000000
v -0.722286 0.000000 -0.981597
v -0.722286 0.000000 1.000000
v -0.722286 0.062635 -0.981597
v -0.722286 0.062635 1.000000
v -0.706286 0.000000 -0.990481
v -0.706286 0.000000 0.994651
v -0.706286 0.064905 -0.990481
v -0.706286 0.064905 0.994651
v -0.436571 0.000000 -0.990481
v -0.436571 0.000000 0.994651
v -0.436571 0.064905 -0.990481
v -0.436571 0.064905 0.994651
v -0.420571 0.000000 -0.987987
v -0.420571 0.000000 0.981719
v -0.420571 0.063373 -0.987987
v -0.420571 0.063373 0.981719
v -0.150857 0.000000 -0.987987
v -0.150857 0.000000 0.981719
v -0.150857 0.063373 -0.987987
v -0.150857 0.063373 0.981719
v -0.134857 0.000000 -0.979381
v -0.134857 0.000000 0.991454
v -0.134857 0.063373 -0.979381
v -0.134857 0.063373 0.991454
v 0.134857 0.000000 -0.979381
v 0.134857 0.000000 0.991454
v 0.134857 0.063373 -0.979381
v 0.134857 0.063373 0.991454
v 0.150857 0.000000 -0.999624
v 0.150857 0.000000 0.979310
v 0.150857 0.064572 -0.999624
v 0.150857 0.064572 0.979310
v 0.420571 0.000000 -0.999624
v 0.420571 0.000000 0.979310
v 0.420571 0.064572 -0.999624
v 0.420571 0.064572 0.979310
v 0.436571 0.000000 -0.990629
v 0.436571 0.000000 0.986788
v 0.436571 0.062214 -0.990629
v 0.436571 0.062214 0.986788
v 0.706286 0.000000 -0.990629
v 0.706286 0.000000 0.986788
v 0.706286 0.062214 -0.990629
v 0.706286 0.062214 0.986788
v 0.722286 0.000000 -1.000000
v 0.722286 0.000000 0.982201
v 0.722286 0.064702 -1.000000
v 0.722286 0.064702 0.982201
v 1.000000 0.000000 -1.000000
v 1.000000 0.000000 0.982201
v 1.000000 0.064702 -1.000000
v 1.000000 0.064702 0.982201
v 0.563404 0.052214 0.580770
v 0.555445 0.052214 0.561555
v 0.536230 0.052214 0.553596
v 0.517016 0.052214 0.561555
v 0.509057 0.052214 0.580770
v 0.517016 0.052214 0.599984
v 0.536230 0.052214 0.607943
v 0.555445 0.052214 0.599984
v 0.557969 0.066214 0.580770
v 0.551602 0.066214 0.565398
v 0.536230 0.066214 0.559031
v 0.520859 0.066214 0.565398
v 0.514491 0.066214 0.580770
v 0.520859 0.066214 0.596141
v 0.536230 0.066214 0.602508
v 0.551602 0.066214 0.596141
v 0.272150 0.054572 0.350987
v 0.262700 0.054572 0.328173
v 0.239886 0.054572 0.318723
v 0.217072 0.054572 0.328173
v 0.207622 0.054572 0.350987
v 0.217072 0.054572 0.373801
v 0.239886 0.054572 0.383251
v 0.262700 0.054572 0.373801
v 0.265697 0.068572 0.350987
v 0.258137 0.068572 0.332736
v 0.239886 0.068572 0.325176
v 0.221635 0.068572 0.332736
v 0.214075 0.068572 0.350987
v 0.221635 0.068572 0.369238
v 0.239886 0.068572 0.376798
v 0.258137 0.068572 0.369238
v 0.025342 0.053373 0.756687
v 0.017567 0.053373 0.737915
v -0.001206 0.053373 0.730139
v -0.019978 0.053373 0.737915
v -0.027753 0.053373 0.756687
v -0.019978 0.053373 0.775459
v -0.001206 0.053373 0.783235
v 0.017567 0.053373 0.775459
v 0.020033 0.067373 0.756687
v 0.013812 0.067373 0.741669
v -0.001206 0.067373 0.735448
v -0.016223 0.067373 0.741669
v -0.022444 0.067373 0.756687
v -0.016223 0.067373 0.771704
v -0.001206 0.067373 0.777925
v 0.013812 0.067373 0.771704
v 0.880850 0.054702 -0.325774
v 0.871495 0.054702 -0.348359
v 0.848909 0.054702 -0.357714
v 0.826324 0.054702 -0.348359
v 0.816969 0.054702 -0.325774
v 0.826324 0.054702 -0.303188
v 0.848909 0.054702 -0.293833
v 0.871495 0.054702 -0.303188
v 0.874462 0.068702 -0.325774
v 0.866978 0.068702 -0.343842
v 0.848909 0.068702 -0.351326
v 0.830841 0.068702 -0.343842
v 0.823357 0.068702 -0.325774
v 0.830841 0.068702 -0.307705
v 0.848909 0.068702 -0.300221
v 0.866978 0.068702 -0.307705
v 0.905587 0.054702 0.376678
v 0.896119 0.054702 0.353819
v 0.873260 0.054702 0.344350
v 0.850400 0.054702 0.353819
v 0.840932 0.054702 0.376678
v 0.850400 0.054702 0.399537
v 0.873260 0.054702 0.409006
v 0.896119 0.054702 0.399537
v 0.899122 0.068702 0.376678
v 0.891547 0.068702 0.358391
v 0.873260 0.068702 0.350816
v 0.854972 0.068702 0.358391
v 0.847397 0.068702 0.376678
v 0.854972 0.068702 0.394965
v 0.873260 0.068702 0.402540
v 0.891547 0.068702 0.394965
vn -1.0000 -0.0000 -0.0000
vn -0.0000 1.0000 -0.0000
vn 1.0000 -0.0000 -0.0000
vn -0.0000 -1.0000 -0.0000
vn -0.0000 -0.0000 -1.0000
vn -0.0000 -0.0000 1.0000
vn 0.8696 0.3376 -0.3602
vn 0.3602 0.3376 -0.8696
vn -0.3602 0.3376 -0.8696
vn -0.8696 0.3376 -0.3602
vn -0.8696 0.3376 0.3602
vn -0.3602 0.3376 0.8696
vn 0.3602 0.3376 0.8696
vn 0.8696 0.3376 0.3602
vn 0.8500 0.3918 -0.3521
vn 0.3521 0.3918 -0.8500
vn -0.3521 0.3918 -0.8500
vn -0.8500 0.3918 -0.3521
vn -0.8500 0.3918 0.3521
vn -0.3521 0.3918 0.8500
vn 0.3521 0.3918 0.8500
vn 0.8500 0.3918 0.3521
vn 0.8719 0.3307 -0.3612
vn 0.3612 0.3307 -0.8719
vn -0.3612 0.3307 -0.8719
vn -0.8719 0.3307 -0.3612
vn -0.8719 0.3307 0.3612
vn -0.3612 0.3307 0.8719
vn 0.3612 0.3307 0.8719
vn 0.8719 0.3307 0.3612
vn 0.8513 0.3884 -0.3526
vn 0.3526 0.3885 -0.8513
vn -0.3526 0.3885 -0.8513
vn -0.8513 0.3885 -0.3526
vn -0.8513 0.3884 0.3526
vn -0.3526 0.3885 0.8513
vn 0.3526 0.3885 0.8513
vn 0.8513 0.3885 0.3526
vn 0.8498 0.3924 -0.3520
vn 0.3520 0.3924 -0.8498
vn -0.3520 0.3924 -0.8498
vn -0.8498 0.3924 -0.3520
vn -0.8498 0.3924 0.3520
vn -0.3520 0.3924 0.8498
vn 0.3520 0.3924 0.8498
vn 0.8498 0.3924 0.3520
vn 0.8513 0.3885 -0.3526
vn -0.8513 0.3885 0.3526
vn 0.8513 0.3884 0.3526
vt 2.000000 0.000000
vt -1.963194 0.125271
vt -1.963194 0.000000
vt -2.000000 2.000000
vt -1.444571 -1.963194
vt -2.000000 -1.963194
vt -2.000000 0.125271
vt 1.963194 0.000000
vt 1.963194 0.125271
vt -1.444571 -2.000000
vt -2.000000 1.963194
vt -1.444571 1.963194
vt 1.444571 0.125271
vt 2.000000 0.125271
vt -1.444571 0.000000
vt -1.444571 0.125271
vt 1.989302 0.000000
vt -1.980962 0.129809
vt -1.980962 0.000000
vt -1.412571 1.989302
vt -0.873143 -1.980962
vt -1.412571 -1.980962
vt -1.989302 0.129809
vt 1.980962 0.000000
vt 1.980962 0.129809
vt -0.873143 -1.989302
vt -1.412571 1.980962
vt -0.873143 1.980962
vt 0.873143 0.129809
vt 1.412571 0.000000
vt 1.412571 0.129809
vt -1.412571 0.129809
vt -0.873143 0.000000
vt -0.873143 0.129809
vt 1.963439 0.000000
vt -1.975975 0.126746
vt -1.975975 0.000000
vt -0.841143 1.963439
vt -0.301714 -1.975975
vt -0.841143 -1.975975
vt -1.963439 0.126746
vt 1.975975 0.000000
vt 1.975975 0.126746
vt -0.301714 -1.963439
vt -0.841143 1.975975
vt -0.301714 1.975975
vt 0.301714 0.126746
vt 0.841143 0.000000
vt 0.841143 0.126746
vt -0.841143 0.126746
vt -0.301714 0.000000
vt -0.301714 0.126746
vt 1.982909 0.000000
vt -1.958763 0.126746
vt -1.958763 0.000000
vt -0.269714 1.982909
vt 0.269714 -1.958763
vt -0.269714 -1.958763
vt -1.982909 0.126746
vt 1.958763 0.000000
vt 1.958763 0.126746
vt 0.269714 -1.982909
vt -0.269714 1.958763
vt 0.269714 1.958763
vt -0.269714 0.126746
vt 0.269714 0.000000
vt 0.269714 0.126746
vt 1.958621 0.000000
vt -1.999248 0.129144
vt -1.999248 0.000000
vt 0.301714 1.958621
vt 0.841143 -1.999248
vt 0.301714 -1.999248
vt -1.958621 0.129144
vt 1.999248 0.000000
vt 1.999248 0.129144
vt 0.841143 -1.958621
vt 0.301714 1.999248
vt 0.841143 1.999248
vt -0.841143 0.129144
vt -0.301714 0.129144
vt 0.301714 0.129144
vt 0.841143 0.129144
vt 1.973577 0.000000
vt -1.981259 0.124429
vt -1.981259 0.000000
vt 0.873143 1.973577
vt 1.412571 -1.981259
vt 0.873143 -1.981259
vt -1.973577 0.124429
vt 1.981259 0.000000
vt 1.981259 0.124429
vt 1.412571 -1.973577
vt 0.873143 1.981259
vt 1.412571 1.981259
vt -1.412571 0.124429
vt -0.873143 0.124429
vt 0.873143 0.124429
vt 1.412571 0.124429
vt 1.964402 0.000000
vt -2.000000 0.129403
vt -2.000000 0.000000
vt 1.444571 1.964402
vt 2.000000 -2.000000
vt 1.444571 -2.000000
vt -1.964402 0.129403
vt 2.000000 0.129403
vt 2.000000 -1.964402
vt 1.444571 2.000000
vt 2.000000 2.000000
vt -1.444571 0.129403
vt 1.444571 0.129403
vt -1.123110 0.104429
vt -1.161539 0.132429
vt -1.161539 0.104429
vt -1.110890 0.104429
vt -1.072461 0.132429
vt -1.103204 0.132429
vt -1.034031 0.104429
vt -1.072461 0.104429
vt 1.123110 0.104429
vt 1.161539 0.132429
vt 1.130796 0.132429
vt 1.161539 0.104429
vt 1.192283 0.132429
vt 1.072461 0.104429
vt 1.041717 0.132429
vt 1.034031 0.104429
vt 1.110890 0.104429
vt 1.072461 0.132429
vt -1.192283 0.132429
vt -1.199968 0.104429
vt 1.072461 -1.107192
vt 1.110890 -1.123110
vt 1.034031 -1.199968
vt 1.072461 1.118062
vt 1.028983 1.161539
vt 1.072461 1.205017
vt -0.656346 0.109144
vt -0.701974 0.137144
vt -0.701974 0.109144
vt -0.479772 0.109144
vt -0.516274 0.137144
vt -0.525400 0.109144
vt -0.434144 0.109144
vt -0.479772 0.137144
vt 0.701974 0.109144
vt 0.665472 0.137144
vt 0.656346 0.109144
vt 0.747601 0.109144
vt 0.701974 0.137144
vt 0.479772 0.109144
vt 0.443270 0.137144
vt 0.434144 0.109144
vt 0.525400 0.109144
vt 0.479772 0.137144
vt -0.747601 0.109144
vt -0.738476 0.137144
vt 0.434144 -0.747601
vt 0.434144 -0.656346
vt 0.525400 -0.656346
vt 0.428150 0.701974
vt 0.443270 0.738476
vt 0.479772 0.753596
vt -1.475829 0.106746
vt -1.513373 0.134746
vt -1.513373 0.106746
vt -0.035133 0.106746
vt 0.002411 0.134746
vt -0.027624 0.134746
vt 0.039955 0.106746
vt 0.002411 0.106746
vt 1.475829 0.106746
vt 1.513373 0.134746
vt 1.483338 0.134746
vt 1.550918 0.106746
vt 1.513373 0.106746
vt -0.039955 0.106746
vt -0.002411 0.134746
vt -0.032447 0.134746
vt 0.035133 0.106746
vt -0.002411 0.106746
vt -1.550918 0.106746
vt -1.543409 0.134746
vt -0.039955 -1.550918
vt -0.039955 -1.475829
vt 0.035133 -1.475829
vt -0.032447 1.543409
vt -0.002411 1.555850
vt -0.002411 1.470897
vt 0.696718 0.109403
vt 0.651547 0.137403
vt 0.651547 0.109403
vt -1.742989 0.109403
vt -1.697819 0.137403
vt -1.733955 0.137403
vt -1.697819 0.109403
vt -1.661682 0.137403
vt -0.696718 0.109403
vt -0.651547 0.137403
vt -0.687684 0.137403
vt -0.651547 0.109403
vt -0.615411 0.137403
vt 1.697819 0.109403
vt 1.661682 0.137403
vt 1.652648 0.109403
vt 1.742989 0.109403
vt 1.697819 0.137403
vt 0.606377 0.109403
vt 0.615411 0.137403
vt 1.652648 0.696718
vt 1.697819 0.715428
vt 1.742989 0.696718
vt 1.661682 -0.615411
vt 1.697819 -0.600443
vt 1.697819 -0.702652
vt -0.707638 0.109403
vt -0.753356 0.137403
vt -0.753356 0.109403
vt -1.746519 0.109403
vt -1.783094 0.137403
vt -1.792237 0.109403
vt -1.700801 0.109403
vt -1.746519 0.137403
vt 0.707638 0.109403
vt 0.753356 0.137403
vt 0.716781 0.137403
vt 0.753356 0.109403
vt 0.789930 0.137403
vt 1.700801 0.109403
vt 1.746519 0.137403
vt 1.709944 0.137403
vt 1.746519 0.109403
vt 1.783094 0.137403
vt -0.799074 0.109403
vt -0.789930 0.137403
vt 1.746519 -0.688701
vt 1.792237 -0.707638
vt 1.700801 -0.799074
vt 1.746519 0.701632
vt 1.694795 0.753356
vt 1.746519 0.805080
vt -1.444571 2.000000
vt -2.000000 -2.000000
vt 1.444571 0.000000
vt 1.989302 0.129809
vt -0.873143 1.989302
vt -1.989302 0.000000
vt -1.412571 -1.989302
vt 0.873143 0.000000
vt -1.412571 0.000000
vt 1.963439 0.126746
vt -0.301714 1.963439
vt -1.963439 0.000000
vt -0.841143 -1.963439
vt 0.301714 0.000000
vt -0.841143 0.000000
vt 1.982909 0.126746
vt 0.269714 1.982909
vt -1.982909 0.000000
vt -0.269714 -1.982909
vt -0.269714 0.000000
vt 1.958621 0.129144
vt 0.841143 1.958621
vt -1.958621 0.000000
vt 0.301714 -1.958621
vt 1.973577 0.124429
vt 1.412571 1.973577
vt -1.973577 0.000000
vt 0.873143 -1.973577
vt 1.964402 0.129403
vt 2.000000 1.964402
vt -1.964402 0.000000
vt 1.444571 -1.964402
vt -1.130796 0.132429
vt -1.041717 0.132429
vt 1.199968 0.104429
vt 1.103204 0.132429
vt 1.126808 -1.161539
vt 1.110890 -1.199968
vt 1.072461 -1.215886
vt 1.018113 -1.161539
vt 1.034031 -1.123110
vt 1.103204 1.192283
vt 1.115938 1.161539
vt 1.103204 1.130796
vt 1.041717 1.130796
vt 1.041717 1.192283
vt -0.665472 0.137144
vt -0.443270 0.137144
vt 0.738476 0.137144
vt 0.516274 0.137144
vt 0.544299 -0.701974
vt 0.525400 -0.747601
vt 0.479772 -0.766501
vt 0.415245 -0.701974
vt 0.479772 -0.637446
vt 0.516274 0.738476
vt 0.531394 0.701974
vt 0.516274 0.665472
vt 0.479772 0.650352
vt 0.443270 0.665472
vt -1.483338 0.134746
vt 0.032447 0.134746
vt 1.543409 0.134746
vt 0.027624 0.134746
vt 0.050685 -1.513373
vt 0.035133 -1.550918
vt -0.002411 -1.566469
vt -0.055507 -1.513373
vt -0.002411 -1.460278
vt 0.027624 1.543409
vt 0.040066 1.513373
vt 0.027624 1.483338
vt -0.032447 1.483338
vt -0.044888 1.513373
vt 0.687684 0.137403
vt -1.652648 0.109403
vt -0.606377 0.109403
vt 1.733955 0.137403
vt 1.761700 0.651547
vt 1.652648 0.606377
vt 1.742989 0.606377
vt 1.697819 0.587666
vt 1.633938 0.651547
vt 1.733955 -0.615411
vt 1.748923 -0.651547
vt 1.733955 -0.687684
vt 1.661682 -0.687684
vt 1.646714 -0.651547
vt -0.716781 0.137403
vt -1.709944 0.137403
vt 0.799074 0.109403
vt 1.792237 0.109403
vt 1.811174 -0.753356
vt 1.792237 -0.799074
vt 1.746519 -0.818011
vt 1.681864 -0.753356
vt 1.700801 -0.707638
vt 1.783094 0.789930
vt 1.798243 0.753356
vt 1.783094 0.716781
vt 1.709944 0.716781
vt 1.709944 0.789930
s 0
f 2/1/1 3/2/1 1/3/1
f 4/4/2 7/5/2 3/6/2
f 8/7/3 5/8/3 7/9/3
f 6/10/4 1/11/4 5/12/4
f 7/13/5 1/1/5 3/14/5
f 4/7/6 6/15/6 8/16/6
f 10/17/1 11/18/1 9/19/1
f 12/20/2 15/21/2 11/22/2
f 16/23/3 13/24/3 15/25/3
f 14/26/4 9/27/4 13/28/4
f 15/29/5 9/30/5 11/31/5
f 12/32/6 14/33/6 16/34/6
f 18/35/1 19/36/1 17/37/1
f 20/38/2 23/39/2 19/40/2
f 24/41/3 21/42/3 23/43/3
f 22/44/4 17/45/4 21/46/4
f 23/47/5 17/48/5 19/49/5
f 20/50/6 22/51/6 24/52/6
f 26/53/1 27/54/1 25/55/1
f 28/56/2 31/57/2 27/58/2
f 32/59/3 29/60/3 31/61/3
f 30/62/4 25/63/4 29/64/4
f 31/65/5 25/66/5 27/67/5
f 28/65/6 30/66/6 32/67/6
f 34/68/1 35/69/1 33/70/1
f 36/71/2 39/72/2 35/73/2
f 40/74/3 37/75/3 39/76/3
f 38/77/4 33/78/4 37/79/4
f 39/80/5 33/51/5 35/81/5
f 36/82/6 38/48/6 40/83/6
f 42/84/1 43/85/1 41/86/1
f 44/87/2 47/88/2 43/89/2
f 48/90/3 45/91/3 47/92/3
f 46/93/4 41/94/4 45/95/4
f 47/96/5 41/33/5 43/97/5
f 44/98/6 46/30/6 48/99/6
f 50/100/1 51/101/1 49/102/1
f 52/103/2 55/104/2 51/105/2
f 56/106/3 53/1/3 55/107/3
f 54/108/4 49/109/4 53/110/4
f 55/101/5 49/15/5 51/111/5
f 52/112/6 54/1/6 56/107/6
f 58/113/7 65/114/7 57/115/7
f 58/116/8 67/117/8 66/118/8
f 60/119/9 67/117/9 59/120/9
f 60/121/10 69/122/10 68/123/10
f 61/124/11 70/125/11 69/122/11
f 63/126/12 70/127/12 62/128/12
f 64/129/13 71/130/13 63/126/13
f 57/115/14 72/131/14 64/132/14
f 59/133/4 58/134/4 62/135/4
f 67/136/2 69/137/2 71/138/2
f 74/139/15 81/140/15 73/141/15
f 75/142/16 82/143/16 74/144/16
f 76/145/17 83/146/17 75/142/17
f 77/147/18 84/148/18 76/149/18
f 78/150/19 85/151/19 77/147/19
f 79/152/20 86/153/20 78/154/20
f 80/155/21 87/156/21 79/152/21
f 80/157/22 81/140/22 88/158/22
f 78/159/4 76/160/4 74/161/4
f 85/162/2 86/163/2 87/164/2
f 90/165/23 97/166/23 89/167/23
f 90/168/24 99/169/24 98/170/24
f 92/171/25 99/169/25 91/172/25
f 92/173/26 101/174/26 100/175/26
f 94/176/27 101/174/27 93/177/27
f 94/178/28 103/179/28 102/180/28
f 96/181/29 103/179/29 95/182/29
f 96/183/30 97/166/30 104/184/30
f 94/185/4 92/186/4 90/187/4
f 102/188/2 103/189/2 99/190/2
f 106/191/31 113/192/31 105/193/31
f 106/194/32 115/195/32 114/196/32
f 107/197/33 116/198/33 115/195/33
f 108/199/34 117/200/34 116/201/34
f 109/202/35 118/203/35 117/200/35
f 111/204/36 118/205/36 110/206/36
f 112/207/37 119/208/37 111/204/37
f 112/209/38 113/192/38 120/210/38
f 108/211/4 107/212/4 106/213/4
f 118/214/2 119/215/2 115/216/2
f 122/217/39 129/218/39 121/219/39
f 123/220/40 130/221/40 122/222/40
f 124/223/41 131/224/41 123/220/41
f 124/225/42 133/226/42 132/227/42
f 125/228/43 134/229/43 133/226/43
f 126/230/44 135/231/44 134/232/44
f 127/233/45 136/234/45 135/231/45
f 128/235/46 129/218/46 136/236/46
f 123/237/4 122/238/4 126/239/4
f 131/240/2 133/241/2 135/242/2
f 2/1/1 4/14/1 3/2/1
f 4/4/2 8/243/2 7/5/2
f 8/7/3 6/102/3 5/8/3
f 6/10/4 2/244/4 1/11/4
f 7/13/5 5/245/5 1/1/5
f 4/7/6 2/102/6 6/15/6
f 10/17/1 12/246/1 11/18/1
f 12/20/2 16/247/2 15/21/2
f 16/23/3 14/248/3 13/24/3
f 14/26/4 10/249/4 9/27/4
f 15/29/5 13/250/5 9/30/5
f 12/32/6 10/251/6 14/33/6
f 18/35/1 20/252/1 19/36/1
f 20/38/2 24/253/2 23/39/2
f 24/41/3 22/254/3 21/42/3
f 22/44/4 18/255/4 17/45/4
f 23/47/5 21/256/5 17/48/5
f 20/50/6 18/257/6 22/51/6
f 26/53/1 28/258/1 27/54/1
f 28/56/2 32/259/2 31/57/2
f 32/59/3 30/260/3 29/60/3
f 30/62/4 26/261/4 25/63/4
f 31/65/5 29/262/5 25/66/5
f 28/65/6 26/262/6 30/66/6
f 34/68/1 36/263/1 35/69/1
f 36/71/2 40/264/2 39/72/2
f 40/74/3 38/265/3 37/75/3
f 38/77/4 34/266/4 33/78/4
f 39/80/5 37/257/5 33/51/5
f 36/82/6 34/256/6 38/48/6
f 42/84/1 44/267/1 43/85/1
f 44/87/2 48/268/2 47/88/2
f 48/90/3 46/269/3 45/91/3
f 46/93/4 42/270/4 41/94/4
f 47/96/5 45/251/5 41/33/5
f 44/98/6 42/250/6 46/30/6
f 50/100/1 52/271/1 51/101/1
f 52/103/2 56/272/2 55/104/2
f 56/106/3 54/273/3 53/1/3
f 54/108/4 50/274/4 49/109/4
f 55/101/5 53/102/5 49/15/5
f 52/112/6 50/245/6 54/1/6
f 58/113/7 66/275/7 65/114/7
f 58/116/8 59/120/8 67/117/8
f 60/119/9 68/276/9 67/117/9
f 60/121/10 61/124/10 69/122/10
f 61/124/11 62/277/11 70/125/11
f 63/126/12 71/130/12 70/127/12
f 64/129/13 72/278/13 71/130/13
f 57/115/14 65/114/14 72/131/14
f 58/134/4 57/279/4 64/280/4
f 64/280/4 63/281/4 58/134/4
f 63/281/4 62/135/4 58/134/4
f 62/135/4 61/282/4 60/283/4
f 60/283/4 59/133/4 62/135/4
f 71/138/2 72/284/2 65/285/2
f 65/285/2 66/286/2 67/136/2
f 67/136/2 68/287/2 69/137/2
f 69/137/2 70/288/2 71/138/2
f 71/138/2 65/285/2 67/136/2
f 74/139/15 82/289/15 81/140/15
f 75/142/16 83/146/16 82/143/16
f 76/145/17 84/290/17 83/146/17
f 77/147/18 85/151/18 84/148/18
f 78/150/19 86/291/19 85/151/19
f 79/152/20 87/156/20 86/153/20
f 80/155/21 88/292/21 87/156/21
f 80/157/22 73/141/22 81/140/22
f 74/161/4 73/293/4 80/294/4
f 80/294/4 79/295/4 78/159/4
f 78/159/4 77/296/4 76/160/4
f 76/160/4 75/297/4 74/161/4
f 74/161/4 80/294/4 78/159/4
f 87/164/2 88/298/2 81/299/2
f 81/299/2 82/300/2 87/164/2
f 82/300/2 83/301/2 87/164/2
f 83/301/2 84/302/2 87/164/2
f 84/302/2 85/162/2 87/164/2
f 90/165/23 98/303/23 97/166/23
f 90/168/24 91/172/24 99/169/24
f 92/171/25 100/304/25 99/169/25
f 92/173/26 93/177/26 101/174/26
f 94/176/27 102/305/27 101/174/27
f 94/178/28 95/182/28 103/179/28
f 96/181/29 104/306/29 103/179/29
f 96/183/30 89/167/30 97/166/30
f 90/187/4 89/307/4 96/308/4
f 96/308/4 95/309/4 94/185/4
f 94/185/4 93/310/4 92/186/4
f 92/186/4 91/311/4 90/187/4
f 90/187/4 96/308/4 94/185/4
f 103/189/2 104/312/2 97/313/2
f 97/313/2 98/314/2 103/189/2
f 98/314/2 99/190/2 103/189/2
f 99/190/2 100/315/2 101/316/2
f 101/316/2 102/188/2 99/190/2
f 106/191/47 114/317/47 113/192/47
f 106/194/32 107/197/32 115/195/32
f 107/197/33 108/318/33 116/198/33
f 108/199/34 109/202/34 117/200/34
f 109/202/48 110/319/48 118/203/48
f 111/204/36 119/208/36 118/205/36
f 112/207/37 120/320/37 119/208/37
f 112/209/49 105/193/49 113/192/49
f 106/213/4 105/321/4 110/322/4
f 105/321/4 112/323/4 110/322/4
f 112/323/4 111/324/4 110/322/4
f 110/322/4 109/325/4 106/213/4
f 109/325/4 108/211/4 106/213/4
f 119/215/2 120/326/2 113/327/2
f 113/327/2 114/328/2 119/215/2
f 114/328/2 115/216/2 119/215/2
f 115/216/2 116/329/2 117/330/2
f 117/330/2 118/214/2 115/216/2
f 122/217/39 130/331/39 129/218/39
f 123/220/40 131/224/40 130/221/40
f 124/223/41 132/332/41 131/224/41
f 124/225/42 125/228/42 133/226/42
f 125/228/43 126/333/43 134/229/43
f 126/230/44 127/233/44 135/231/44
f 127/233/45 128/334/45 136/234/45
f 128/235/46 121/219/46 129/218/46
f 122/238/4 121/335/4 128/336/4
f 128/336/4 127/337/4 122/238/4
f 127/337/4 126/239/4 122/238/4
f 126/239/4 125/338/4 124/339/4
f 124/339/4 123/237/4 126/239/4
f 135/242/2 136/340/2 129/341/2
f 129/341/2 130/342/2 131/240/2
f 131/240/2 132/343/2 133/241/2
f 133/241/2 134/344/2 135/242/2
f 135/242/2 129/341/2 131/240/2
o metal
usemtl metal
v -0.841143 0.042635 -0.881597
v -0.854963 0.042635 -0.900618
v -0.877323 0.042635 -0.893353
v -0.877323 0.042635 -0.869841
v -0.854963 0.042635 -0.862576
v -0.837143 0.080000 -0.881597
v -0.853726 0.080000 -0.904422
v -0.880559 0.080000 -0.895704
v -0.880559 0.080000 -0.867490
v -0.853726 0.080000 -0.858772
v -0.841143 0.042635 0.900000
v -0.854963 0.042635 0.880979
v -0.877323 0.042635 0.888244
v -0.877323 0.042635 0.911756
v -0.854963 0.042635 0.919021
v -0.837143 0.080000 0.900000
v -0.853726 0.080000 0.877175
v -0.880559 0.080000 0.885893
v -0.880559 0.080000 0.914107
v -0.853726 0.080000 0.922825
v -0.551429 0.044905 -0.890481
v -0.565248 0.044905 -0.909502
v -0.587609 0.044905 -0.902237
v -0.587609 0.044905 -0.878725
v -0.565248 0.044905 -0.871460
v -0.547429 0.080000 -0.890481
v -0.564012 0.080000 -0.913306
v -0.590845 0.080000 -0.904588
v -0.590845 0.080000 -0.876374
v -0.564012 0.080000 -0.867656
v -0.551429 0.044905 0.894651
v -0.565248 0.044905 0.875630
v -0.587609 0.044905 0.882895
v -0.587609 0.044905 0.906407
v -0.565248 0.044905 0.913672
v -0.547429 0.080000 0.894651
v -0.564012 0.080000 0.871825
v -0.590845 0.080000 0.880544
v -0.590845 0.080000 0.908758
v -0.564012 0.080000 0.917476
v -0.265714 0.043373 -0.887987
v -0.279534 0.043373 -0.907008
v -0.301895 0.043373 -0.899743
v -0.301895 0.043373 -0.876232
v -0.279534 0.043373 -0.868966
v -0.261714 0.080000 -0.887987
v -0.278298 0.080000 -0.910813
v -0.305131 0.080000 -0.902094
v -0.305131 0.080000 -0.873880
v -0.278298 0.080000 -0.865162
v -0.265714 0.043373 0.881719
v -0.279534 0.043373 0.862698
v -0.301895 0.043373 0.869964
v -0.301895 0.043373 0.893475
v -0.279534 0.043373 0.900740
v -0.261714 0.080000 0.881719
v -0.278298 0.080000 0.858894
v -0.305131 0.080000 0.867612
v -0.305131 0.080000 0.895826
v -0.278298 0.080000 0.904545
v 0.020000 0.043373 -0.879381
v 0.006180 0.043373 -0.898403
v -0.016180 0.043373 -0.891137
v -0.016180 0.043373 -0.867626
v 0.006180 0.043373 -0.860360
v 0.024000 0.080000 -0.879381
v 0.007416 0.080000 -0.902207
v -0.019416 0.080000 -0.893488
v -0.019416 0.080000 -0.865275
v 0.007416 0.080000 -0.856556
v 0.020000 0.043373 0.891454
v 0.006180 0.043373 0.872433
v -0.016180 0.043373 0.879699
v -0.016180 0.043373 0.903210
v 0.006180 0.043373 0.910475
v 0.024000 0.080000 0.891454
v 0.007416 0.080000 0.868629
v -0.019416 0.080000 0.877347
v -0.019416 0.080000 0.905561
v 0.007416 0.080000 0.914280
v 0.305714 0.044572 -0.899624
v 0.291895 0.044572 -0.918645
v 0.269534 0.044572 -0.911380
v 0.269534 0.044572 -0.887868
v 0.291895 0.044572 -0.880603
v 0.309714 0.080000 -0.899624
v 0.293131 0.080000 -0.922449
v 0.266298 0.080000 -0.913731
v 0.266298 0.080000 -0.885517
v 0.293131 0.080000 -0.876799
v 0.305714 0.044572 0.879310
v 0.291895 0.044572 0.860289
v 0.269534 0.044572 0.867555
v 0.269534 0.044572 0.891066
v 0.291895 0.044572 0.898332
v 0.309714 0.080000 0.879310
v 0.293131 0.080000 0.856485
v 0.266298 0.080000 0.865204
v 0.266298 0.080000 0.893417
v 0.293131 0.080000 0.902136
v 0.591429 0.042214 -0.890629
v 0.577609 0.042214 -0.909651
v 0.555248 0.042214 -0.902385
v 0.555248 0.042214 -0.878874
v 0.577609 0.042214 -0.871608
v 0.595429 0.080000 -0.890629
v 0.578845 0.080000 -0.913455
v 0.552012 0.080000 -0.904736
v 0.552012 0.080000 -0.876523
v 0.578845 0.080000 -0.867804
v 0.591429 0.042214 0.886788
v 0.577609 0.042214 0.867767
v 0.555248 0.042214 0.875033
v 0.555248 0.042214 0.898544
v 0.577609 0.042214 0.905810
v 0.595429 0.080000 0.886788
v 0.578845 0.080000 0.863963
v 0.552012 0.080000 0.872682
v 0.552012 0.080000 0.900895
v 0.578845 0.080000 0.909614
v 0.881143 0.044702 -0.900000
v 0.867323 0.044702 -0.919021
v 0.844963 0.044702 -0.911756
v 0.844963 0.044702 -0.888244
v 0.867323 0.044702 -0.880979
v 0.885143 0.080000 -0.900000
v 0.868559 0.080000 -0.922825
v 0.841726 0.080000 -0.914107
v 0.841726 0.080000 -0.885893
v 0.868559 0.080000 -0.877175
v 0.881143 0.044702 0.882201
v 0.867323 0.044702 0.863180
v 0.844963 0.044702 0.870445
v 0.844963 0.044702 0.893957
v 0.867323 0.044702 0.901222
v 0.885143 0.080000 0.882201
v 0.868559 0.080000 0.859376
v 0.841726 0.080000 0.868094
v 0.841726 0.080000 0.896308
v 0.868559 0.080000 0.905026
vn 0.8060 -0.0863 -0.5856
vn -0.3079 -0.0863 -0.9475
vn -0.9963 -0.0863 -0.0000
vn -0.3079 -0.0863 0.9475
vn 0.8060 -0.0863 0.5856
vn -0.0000 -1.0000 -0.0000
vn -0.0000 1.0000 -0.0000
vn 0.8056 -0.0918 -0.5853
vn -0.3077 -0.0918 -0.9470
vn -0.9958 -0.0918 -0.0000
vn -0.3077 -0.0918 0.9470
vn 0.8056 -0.0918 0.5853
vn 0.8059 -0.0880 -0.5855
vn -0.3078 -0.0880 -0.9474
vn -0.9961 -0.0880 -0.0000
vn -0.3078 -0.0880 0.9474
vn 0.8059 -0.0880 0.5855
vn 0.8057 -0.0910 -0.5853
vn -0.3077 -0.0910 -0.9471
vn -0.9959 -0.0910 -0.0000
vn -0.3077 -0.0910 0.9471
vn 0.8057 -0.0910 0.5853
vn 0.8061 -0.0853 -0.5856
vn -0.3079 -0.0853 -0.9476
vn -0.9964 -0.0853 -0.0000
vn -0.3079 -0.0853 0.9476
vn 0.8061 -0.0853 0.5856
vn 0.8056 -0.0913 -0.5853
vn -0.3077 -0.0913 -0.9471
vn -0.9958 -0.0913 -0.0000
vn -0.3077 -0.0913 0.9471
vn 0.8056 -0.0913 0.5853
vt 4.503091 0.213176
vt 4.407986 0.400000
vt 4.407986 0.213176
vt 4.386616 0.213176
vt 4.268632 0.400000
vt 4.274813 0.213176
vt -4.349207 0.213176
vt -4.478520 0.400000
vt -4.466764 0.213176
vt -4.274813 0.213176
vt -4.402796 0.400000
vt -4.386616 0.213176
vt 4.293859 0.400000
vt 4.312880 0.213176
vt -4.274813 4.312880
vt -4.386616 4.349207
vt -4.386616 4.466764
vt -4.185714 -4.407986
vt -4.402796 -4.478520
vt -4.402796 -4.337451
vt -4.404894 0.213176
vt -4.500000 0.400000
vt -4.500000 0.213176
vt 4.402796 0.400000
vt 4.558778 0.213176
vt 4.429465 0.400000
vt 4.441221 0.213176
vt -4.268632 0.400000
vt -4.595106 0.213176
vt -4.614127 0.400000
vt -4.274813 -4.595106
vt -4.386616 -4.558778
vt -4.386616 -4.441221
vt -4.185714 4.500000
vt -4.402796 4.429465
vt -4.402796 4.570534
vt 4.547511 0.224523
vt 4.452405 0.400000
vt 4.452405 0.224523
vt 2.826241 0.224523
vt 2.954225 0.400000
vt 2.820061 0.400000
vt -4.511184 0.224523
vt -4.381871 0.400000
vt -4.522939 0.400000
vt -2.826241 0.224523
vt -2.954225 0.400000
vt -2.938045 0.224523
vt 4.338278 0.400000
vt 4.357299 0.224523
vt -2.826241 4.357299
vt -2.938045 4.393626
vt -2.938045 4.511184
vt -2.737143 -4.452405
vt -2.954225 -4.522939
vt -2.954225 -4.381871
vt -4.473254 0.224523
vt -4.359127 0.400000
vt -4.473254 0.400000
vt 4.414475 0.224523
vt 4.543788 0.400000
vt 4.402719 0.400000
vt -4.587381 0.400000
vt -4.568360 0.224523
vt -2.826241 -4.568360
vt -2.938045 -4.532032
vt -2.938045 -4.414475
vt -2.737143 4.473254
vt -2.954225 4.402719
vt -2.954225 4.543788
vt 4.535042 0.216866
vt 4.439936 0.400000
vt 4.439936 0.216866
vt 1.509473 0.216866
vt 1.391490 0.400000
vt 1.397670 0.216866
vt -4.381158 0.216866
vt -4.510470 0.400000
vt -4.498715 0.216866
vt -1.509473 0.216866
vt -1.391490 0.400000
vt -1.525654 0.400000
vt 4.325809 0.400000
vt 4.344831 0.216866
vt -1.397670 4.344831
vt -1.509473 4.381158
vt -1.509473 4.498715
vt -1.308572 -4.439936
vt -1.391490 -4.554063
vt -1.525654 -4.510470
vt -4.313491 0.216866
vt -4.408597 0.400000
vt -4.408597 0.216866
vt 4.467375 0.216866
vt 4.338062 0.400000
vt 4.349818 0.216866
vt -4.522723 0.400000
vt -4.503702 0.216866
vt -1.397670 -4.503702
vt -1.509473 -4.467375
vt -1.509473 -4.349818
vt -1.308572 4.408597
vt -1.391490 4.294470
vt -1.525654 4.338062
vt 4.396907 0.216866
vt 4.511034 0.400000
vt 4.396907 0.400000
vt 0.080902 0.216866
vt -0.037082 0.400000
vt -0.030902 0.216866
vt -4.338129 0.216866
vt -4.467442 0.400000
vt -4.455686 0.216866
vt -0.080902 0.216866
vt 0.037082 0.400000
vt -0.097082 0.400000
vt 4.282780 0.400000
vt 4.301801 0.216866
vt 0.030902 4.301801
vt -0.080902 4.338129
vt -0.080902 4.455686
vt 0.120000 -4.396907
vt -0.097082 -4.467442
vt -0.097082 -4.326373
vt -4.457272 0.216866
vt -4.343144 0.400000
vt -4.457272 0.400000
vt 4.516050 0.216866
vt 4.386737 0.400000
vt 4.398493 0.216866
vt -4.571398 0.400000
vt -4.552377 0.216866
vt 0.030902 -4.552377
vt -0.080902 -4.516050
vt -0.080902 -4.398493
vt 0.120000 4.457272
vt -0.097082 4.386737
vt -0.097082 4.527806
vt 4.498120 0.222859
vt 4.612247 0.400000
vt 4.498120 0.400000
vt -1.459473 0.222859
vt -1.331489 0.400000
vt -1.465653 0.400000
vt -4.439342 0.222859
vt -4.568654 0.400000
vt -4.556899 0.222859
vt 1.347670 0.222859
vt 1.465653 0.400000
vt 1.331489 0.400000
vt 4.403014 0.222859
vt 4.383993 0.400000
vt 1.459473 4.403014
vt 1.347670 4.439342
vt 1.347670 4.556899
vt 1.548571 -4.498120
vt 1.465653 -4.612247
vt 1.331489 -4.568654
vt -4.396552 0.222859
vt -4.282425 0.400000
vt -4.396552 0.400000
vt -1.347670 0.222859
vt 4.455331 0.222859
vt 4.326018 0.400000
vt 4.337774 0.222859
vt 1.459473 0.222859
vt -4.510679 0.400000
vt -4.491658 0.222859
vt 1.459473 -4.491658
vt 1.347670 -4.455331
vt 1.347670 -4.337774
vt 1.548571 4.396552
vt 1.465653 4.282425
vt 1.331489 4.326018
vt 4.548253 0.211072
vt 4.453147 0.400000
vt 4.453147 0.211072
vt -2.776241 0.211072
vt -2.894225 0.400000
vt -2.888045 0.211072
vt -4.511926 0.211072
vt -4.382613 0.400000
vt -4.523682 0.400000
vt 2.776241 0.211072
vt 2.894225 0.400000
vt 2.760061 0.400000
vt 4.358041 0.211072
vt 4.339020 0.400000
vt 2.888045 4.358041
vt 2.776241 4.394369
vt 2.776241 4.511926
vt 2.977143 -4.453147
vt 2.760061 -4.523682
vt 2.760061 -4.382613
vt -4.433942 0.211072
vt -4.319816 0.400000
vt -4.433942 0.400000
vt 4.375164 0.211072
vt 4.504477 0.400000
vt 4.363408 0.400000
vt -4.548069 0.400000
vt -4.529048 0.211072
vt 2.888045 -4.529048
vt 2.776241 -4.492721
vt 2.776241 -4.375164
vt 2.977143 4.433942
vt 2.760061 4.363408
vt 2.760061 4.504477
vt 4.595106 0.223508
vt 4.500000 0.400000
vt 4.500000 0.223508
vt -4.336616 0.223508
vt -4.208632 0.400000
vt -4.342796 0.400000
vt -4.441221 0.223508
vt -4.570534 0.400000
vt -4.558778 0.223508
vt 4.224813 0.223508
vt 4.342796 0.400000
vt 4.208632 0.400000
vt 4.385873 0.400000
vt 4.404894 0.223508
vt 4.336616 4.404894
vt 4.224813 4.441221
vt 4.224813 4.558778
vt 4.425714 -4.500000
vt 4.208632 -4.570534
vt 4.208632 -4.429465
vt -4.315900 0.223508
vt -4.411005 0.400000
vt -4.411005 0.223508
vt 4.469784 0.223508
vt 4.340471 0.400000
vt 4.352227 0.223508
vt -4.525133 0.400000
vt -4.506112 0.223508
vt 4.336616 -4.506112
vt 4.224813 -4.469784
vt 4.224813 -4.352227
vt 4.425714 4.411005
vt 4.208632 4.340471
vt 4.208632 4.481540
vt 4.522112 0.400000
vt -4.337451 0.400000
vt -4.274813 4.503091
vt -4.205714 4.407986
vt -4.268632 -4.293859
vt -4.268632 -4.522112
vt -4.385873 0.400000
vt 4.570534 0.400000
vt -4.274813 -4.404894
vt -4.205714 -4.500000
vt -4.268632 4.614127
vt -4.268632 4.385873
vt 4.566532 0.400000
vt 2.938045 0.224523
vt -4.393626 0.224523
vt -2.820061 0.400000
vt -2.826241 4.547511
vt -2.757143 4.452405
vt -2.820061 -4.338278
vt -2.820061 -4.566532
vt -4.378148 0.224523
vt 4.532032 0.224523
vt -2.826241 -4.378148
vt -2.757143 -4.473254
vt -2.820061 4.587381
vt -2.820061 4.359127
vt 4.554063 0.400000
vt 1.525654 0.400000
vt -4.369402 0.400000
vt -1.397670 0.216866
vt -1.397670 4.535042
vt -1.328571 4.439936
vt -1.525654 -4.369402
vt -1.391490 -4.325809
vt -4.294470 0.400000
vt 4.479131 0.400000
vt -1.397670 -4.313491
vt -1.328571 -4.408597
vt -1.525654 4.479131
vt -1.391490 4.522723
vt 4.492013 0.216866
vt 0.097082 0.400000
vt -4.326373 0.400000
vt 0.030902 0.216866
vt 0.030902 4.492013
vt 0.100000 4.396907
vt 0.037082 -4.282780
vt 0.037082 -4.511034
vt -4.362165 0.216866
vt 4.527806 0.400000
vt 0.030902 -4.362165
vt 0.100000 -4.457272
vt 0.037082 4.571398
vt 0.037082 4.343144
vt 4.593225 0.222859
vt -4.427586 0.400000
vt 1.459473 4.593225
vt 1.528572 4.498120
vt 1.331489 -4.427586
vt 1.465653 -4.383993
vt -4.301446 0.222859
vt 4.467086 0.400000
vt 1.459473 -4.301446
vt 1.528572 -4.396552
vt 1.331489 4.467086
vt 1.465653 4.510679
vt 4.567274 0.400000
vt -2.760061 0.400000
vt -4.394369 0.211072
vt 2.888045 0.211072
vt 2.888045 4.548253
vt 2.957143 4.453147
vt 2.894225 -4.339020
vt 2.894225 -4.567274
vt -4.338837 0.211072
vt 4.492721 0.211072
vt 2.888045 -4.338837
vt 2.957143 -4.433942
vt 2.894225 4.548069
vt 2.894225 4.319816
vt 4.614127 0.400000
vt -4.224813 0.223508
vt -4.429465 0.400000
vt 4.336616 0.223508
vt 4.336616 4.595106
vt 4.405714 4.500000
vt 4.342796 -4.385873
vt 4.342796 -4.614127
vt -4.296879 0.400000
vt 4.481540 0.400000
vt 4.336616 -4.315900
vt 4.405714 -4.411005
vt 4.342796 4.525133
vt 4.342796 4.296879
s 0
f 138/345/50 142/346/50 137/347/50
f 139/348/51 143/349/51 138/350/51
f 140/351/52 144/352/52 139/353/52
f 141/354/53 145/355/53 140/356/53
f 137/347/54 146/357/54 141/358/54
f 141/359/55 140/360/55 139/361/55
f 142/362/56 144/363/56 145/364/56
f 148/365/50 152/366/50 147/367/50
f 148/350/51 154/368/51 153/349/51
f 150/369/52 154/370/52 149/371/52
f 150/356/53 156/372/53 155/355/53
f 151/373/54 152/366/54 156/374/54
f 151/375/55 150/376/55 149/377/55
f 152/378/56 154/379/56 155/380/56
f 158/381/57 162/382/57 157/383/57
f 158/384/58 164/385/58 163/386/58
f 159/387/59 165/388/59 164/389/59
f 161/390/60 165/391/60 160/392/60
f 157/383/61 166/393/61 161/394/61
f 161/395/55 160/396/55 159/397/55
f 162/398/56 164/399/56 165/400/56
f 167/401/57 173/402/57 172/403/57
f 168/384/58 174/385/58 173/386/58
f 169/404/59 175/405/59 174/406/59
f 171/390/60 175/391/60 170/392/60
f 167/401/61 176/407/61 171/408/61
f 171/409/55 170/410/55 169/411/55
f 172/412/56 174/413/56 175/414/56
f 178/415/62 182/416/62 177/417/62
f 179/418/63 183/419/63 178/420/63
f 180/421/64 184/422/64 179/423/64
f 180/424/65 186/425/65 185/426/65
f 177/417/66 186/427/66 181/428/66
f 181/429/55 180/430/55 179/431/55
f 182/432/56 183/433/56 184/434/56
f 188/435/62 192/436/62 187/437/62
f 189/418/63 193/419/63 188/420/63
f 190/438/64 194/439/64 189/440/64
f 190/424/65 196/425/65 195/426/65
f 187/437/66 196/441/66 191/442/66
f 191/443/55 190/444/55 189/445/55
f 192/446/56 193/447/56 194/448/56
f 197/449/62 203/450/62 202/451/62
f 199/452/63 203/453/63 198/454/63
f 200/455/64 204/456/64 199/457/64
f 200/458/65 206/459/65 205/460/65
f 197/449/66 206/461/66 201/462/66
f 201/463/55 200/464/55 199/465/55
f 202/466/56 204/467/56 205/468/56
f 207/469/62 213/470/62 212/471/62
f 209/452/63 213/453/63 208/454/63
f 210/472/64 214/473/64 209/474/64
f 210/458/65 216/459/65 215/460/65
f 207/469/66 216/475/66 211/476/66
f 211/477/55 210/478/55 209/479/55
f 212/480/56 214/481/56 215/482/56
f 217/483/67 223/484/67 222/485/67
f 218/486/68 224/487/68 223/488/68
f 220/489/69 224/490/69 219/491/69
f 220/492/70 226/493/70 225/494/70
f 221/495/71 222/485/71 226/496/71
f 221/497/55 220/498/55 219/499/55
f 222/500/56 223/501/56 224/502/56
f 227/503/67 233/504/67 232/505/67
f 229/506/68 233/488/68 228/486/68
f 230/507/69 234/508/69 229/509/69
f 231/510/70 235/494/70 230/492/70
f 227/503/71 236/511/71 231/512/71
f 231/513/55 230/514/55 229/515/55
f 232/516/56 233/517/56 234/518/56
f 238/519/72 242/520/72 237/521/72
f 239/522/73 243/523/73 238/524/73
f 239/525/74 245/526/74 244/527/74
f 240/528/75 246/529/75 245/530/75
f 241/531/76 242/520/76 246/532/76
f 241/533/55 240/534/55 239/535/55
f 242/536/56 244/537/56 245/538/56
f 247/539/72 253/540/72 252/541/72
f 249/522/73 253/523/73 248/524/73
f 249/542/74 255/543/74 254/544/74
f 250/528/75 256/529/75 255/530/75
f 247/539/76 256/545/76 251/546/76
f 251/547/55 250/548/55 249/549/55
f 252/550/56 254/551/56 255/552/56
f 258/553/77 262/554/77 257/555/77
f 258/556/78 264/557/78 263/558/78
f 260/559/79 264/560/79 259/561/79
f 260/562/80 266/563/80 265/564/80
f 257/555/81 266/565/81 261/566/81
f 261/567/55 260/568/55 259/569/55
f 262/570/56 264/571/56 265/572/56
f 268/573/77 272/574/77 267/575/77
f 268/556/78 274/557/78 273/558/78
f 270/576/79 274/577/79 269/578/79
f 270/562/80 276/563/80 275/564/80
f 267/575/81 276/579/81 271/580/81
f 271/581/55 270/582/55 269/583/55
f 272/584/56 274/585/56 275/586/56
f 138/345/50 143/587/50 142/346/50
f 139/348/51 144/368/51 143/349/51
f 140/351/52 145/588/52 144/352/52
f 141/354/53 146/372/53 145/355/53
f 137/347/54 142/346/54 146/357/54
f 138/589/55 137/590/55 139/361/55
f 137/590/55 141/359/55 139/361/55
f 145/364/56 146/591/56 142/362/56
f 142/362/56 143/592/56 144/363/56
f 148/365/50 153/593/50 152/366/50
f 148/350/51 149/348/51 154/368/51
f 150/369/52 155/594/52 154/370/52
f 150/356/53 151/354/53 156/372/53
f 151/373/54 147/367/54 152/366/54
f 148/595/55 147/596/55 149/377/55
f 147/596/55 151/375/55 149/377/55
f 155/380/56 156/597/56 152/378/56
f 152/378/56 153/598/56 154/379/56
f 158/381/57 163/599/57 162/382/57
f 158/384/58 159/600/58 164/385/58
f 159/387/59 160/601/59 165/388/59
f 161/390/60 166/602/60 165/391/60
f 157/383/61 162/382/61 166/393/61
f 158/603/55 157/604/55 159/397/55
f 157/604/55 161/395/55 159/397/55
f 165/400/56 166/605/56 162/398/56
f 162/398/56 163/606/56 164/399/56
f 167/401/57 168/607/57 173/402/57
f 168/384/58 169/600/58 174/385/58
f 169/404/59 170/608/59 175/405/59
f 171/390/60 176/602/60 175/391/60
f 167/401/61 172/403/61 176/407/61
f 168/609/55 167/610/55 169/411/55
f 167/610/55 171/409/55 169/411/55
f 175/414/56 176/611/56 172/412/56
f 172/412/56 173/612/56 174/413/56
f 178/415/62 183/613/62 182/416/62
f 179/418/63 184/614/63 183/419/63
f 180/421/64 185/615/64 184/422/64
f 180/424/65 181/616/65 186/425/65
f 177/417/66 182/416/66 186/427/66
f 178/617/55 177/618/55 179/431/55
f 177/618/55 181/429/55 179/431/55
f 185/619/56 186/620/56 184/434/56
f 186/620/56 182/432/56 184/434/56
f 188/435/62 193/621/62 192/436/62
f 189/418/63 194/614/63 193/419/63
f 190/438/64 195/622/64 194/439/64
f 190/424/65 191/616/65 196/425/65
f 187/437/66 192/436/66 196/441/66
f 188/623/55 187/624/55 189/445/55
f 187/624/55 191/443/55 189/445/55
f 195/625/56 196/626/56 194/448/56
f 196/626/56 192/446/56 194/448/56
f 197/449/62 198/627/62 203/450/62
f 199/452/63 204/628/63 203/453/63
f 200/455/64 205/629/64 204/456/64
f 200/458/65 201/630/65 206/459/65
f 197/449/66 202/451/66 206/461/66
f 198/631/55 197/632/55 199/465/55
f 197/632/55 201/463/55 199/465/55
f 205/468/56 206/633/56 202/466/56
f 202/466/56 203/634/56 204/467/56
f 207/469/62 208/635/62 213/470/62
f 209/452/63 214/628/63 213/453/63
f 210/472/64 215/636/64 214/473/64
f 210/458/65 211/630/65 216/459/65
f 207/469/66 212/471/66 216/475/66
f 208/637/55 207/638/55 209/479/55
f 207/638/55 211/477/55 209/479/55
f 215/482/56 216/639/56 212/480/56
f 212/480/56 213/640/56 214/481/56
f 217/483/67 218/641/67 223/484/67
f 218/486/68 219/506/68 224/487/68
f 220/489/69 225/642/69 224/490/69
f 220/492/70 221/510/70 226/493/70
f 221/495/71 217/483/71 222/485/71
f 218/643/55 217/644/55 219/499/55
f 217/644/55 221/497/55 219/499/55
f 225/645/56 226/646/56 224/502/56
f 226/646/56 222/500/56 224/502/56
f 227/503/67 228/647/67 233/504/67
f 229/506/68 234/487/68 233/488/68
f 230/507/69 235/648/69 234/508/69
f 231/510/70 236/493/70 235/494/70
f 227/503/71 232/505/71 236/511/71
f 228/649/55 227/650/55 229/515/55
f 227/650/55 231/513/55 229/515/55
f 235/651/56 236/652/56 234/518/56
f 236/652/56 232/516/56 234/518/56
f 238/519/72 243/653/72 242/520/72
f 239/522/73 244/654/73 243/523/73
f 239/525/74 240/655/74 245/526/74
f 240/528/75 241/656/75 246/529/75
f 241/531/76 237/521/76 242/520/76
f 238/657/55 237/658/55 239/535/55
f 237/658/55 241/533/55 239/535/55
f 245/538/56 246/659/56 242/536/56
f 242/536/56 243/660/56 244/537/56
f 247/539/72 248/661/72 253/540/72
f 249/522/73 254/654/73 253/523/73
f 249/542/74 250/662/74 255/543/74
f 250/528/75 251/656/75 256/529/75
f 247/539/76 252/541/76 256/545/76
f 248/663/55 247/664/55 249/549/55
f 247/664/55 251/547/55 249/549/55
f 255/552/56 256/665/56 252/550/56
f 252/550/56 253/666/56 254/551/56
f 258/553/77 263/667/77 262/554/77
f 258/556/78 259/668/78 264/557/78
f 260/559/79 265/669/79 264/560/79
f 260/562/80 261/670/80 266/563/80
f 257/555/81 262/554/81 266/565/81
f 258/671/55 257/672/55 259/569/55
f 257/672/55 261/567/55 259/569/55
f 265/572/56 266/673/56 262/570/56
f 262/570/56 263/674/56 264/571/56
f 268/573/77 273/675/77 272/574/77
f 268/556/78 269/668/78 274/557/78
f 270/576/79 275/676/79 274/577/79
f 270/562/80 271/670/80 276/563/80
f 267/575/81 272/574/81 276/579/81
f 268/677/55 267/678/55 269/583/55
f 267/678/55 271/581/55 269/583/55
f 275/586/56 276/679/56 272/584/56
f 272/584/56 273/680/56 274/585/56
