# Blender 5.0.1
# www.blender.org
mtllib raft_rudder.mtl
o wood
usemtl wood
v 0.045000 0.704213 -0.159455
v 0.045000 0.645529 0.279046
v 0.045000 0.176053 0.298978
v 0.045000 0.000000 0.139523
v 0.045000 0.019561 -0.139523
v -0.045000 0.704213 -0.159455
v -0.045000 0.645529 0.279046
v -0.045000 0.176053 0.298978
v -0.045000 0.000000 0.139523
v -0.045000 0.019561 -0.139523
v 0.058000 0.508598 0.000000
v 0.041012 0.504169 -0.040622
v 0.000000 0.502334 -0.057449
v -0.041012 0.504169 -0.040622
v -0.058000 0.508598 0.000000
v -0.041012 0.513028 0.040622
v -0.000000 0.514863 0.057449
v 0.041012 0.513028 0.040622
v 0.054000 0.880267 -0.039864
v 0.038184 0.876142 -0.077685
v 0.000000 0.874434 -0.093351
v -0.038184 0.876142 -0.077685
v -0.054000 0.880267 -0.039864
v -0.038184 0.884391 -0.002043
v -0.000000 0.886099 0.013623
v 0.038184 0.884391 -0.002043
v 0.050000 1.212812 -0.079727
v 0.035355 1.208993 -0.114747
v 0.000000 1.207411 -0.129252
v -0.035355 1.208993 -0.114747
v -0.050000 1.212812 -0.079727
v -0.035355 1.216630 -0.044708
v -0.000000 1.218212 -0.030203
v 0.035355 1.216630 -0.044708
v 0.000000 1.132158 -0.127257
v -0.039837 1.152923 -0.118441
v -0.039837 1.194454 -0.100809
v -0.000000 1.215219 -0.091993
v 0.039837 1.194454 -0.100809
v 0.039837 1.152923 -0.118441
v 0.000000 1.254944 -0.354174
v -0.034641 1.273001 -0.346508
v -0.034641 1.309114 -0.331175
v -0.000000 1.327171 -0.323509
v 0.034641 1.309114 -0.331175
v 0.034641 1.273001 -0.346508
v 0.000000 1.338607 -0.601022
v -0.029445 1.353955 -0.594506
v -0.029445 1.384652 -0.581474
v -0.000000 1.400000 -0.574957
v 0.029445 1.384652 -0.581474
v 0.029445 1.353955 -0.594506
v -0.250000 0.956067 -0.014949
v -0.250000 0.956067 0.074744
v -0.250000 1.039204 -0.014949
v -0.250000 1.039204 0.074744
v 0.250000 0.956067 -0.014949
v 0.250000 0.956067 0.074744
v 0.250000 1.039204 -0.014949
v 0.250000 1.039204 0.074744
vn 1.0000 -0.0000 -0.0000
vn -1.0000 -0.0000 -0.0000
vn -0.0000 0.9912 0.1326
vn -0.0000 0.0424 0.9991
vn -0.0000 -0.6713 0.7412
vn -0.0000 -0.9976 -0.0699
vn -0.0000 -0.0291 -0.9996
vn 0.9999 0.0106 -0.0016
vn 0.7069 -0.0686 -0.7040
vn 0.9999 0.0114 0.0003
vn 0.7059 -0.0649 -0.7053
vn -0.0000 -0.1016 -0.9948
vn -0.7059 -0.0649 -0.7053
vn -0.0000 -0.0960 -0.9954
vn -0.9999 0.0106 -0.0016
vn -0.7069 -0.0686 -0.7040
vn -0.7064 0.0861 0.7026
vn -0.9999 0.0114 0.0003
vn -0.0000 0.1172 0.9931
vn -0.7054 0.0912 0.7029
vn 0.7054 0.0912 0.7029
vn -0.0000 0.1240 0.9923
vn 0.7064 0.0861 0.7026
vn 0.9999 0.0116 -0.0039
vn 0.7049 -0.0726 -0.7056
vn -0.7049 -0.0726 -0.7056
vn -0.0000 -0.1072 -0.9942
vn -0.9999 0.0116 -0.0039
vn -0.7074 0.0960 0.7003
vn -0.0000 0.1308 0.9914
vn 0.7074 0.0960 0.7003
vn -0.0000 -0.9941 0.1084
vn -0.0000 0.9941 -0.1084
vn -0.8525 -0.4542 -0.2586
vn -0.0000 -0.9165 -0.4001
vn -0.0000 -0.8795 -0.4759
vn -0.8738 0.4429 0.2007
vn -0.8755 -0.4376 -0.2047
vn -0.0000 0.9003 0.4353
vn -0.8518 0.4929 0.1772
vn 0.8518 0.4929 0.1772
vn -0.0000 0.9334 0.3589
vn 0.8738 0.4429 0.2007
vn 0.8755 -0.4376 -0.2047
vn 0.8525 -0.4542 -0.2586
vn -0.8499 -0.4955 -0.1796
vn -0.0000 -0.9471 -0.3210
vn -0.8754 0.4675 0.1229
vn -0.0000 0.9605 0.2782
vn 0.8754 0.4675 0.1229
vn 0.8499 -0.4955 -0.1796
vn -0.0000 -0.3908 0.9205
vn -0.0000 0.3908 -0.9205
vn -0.0000 1.0000 -0.0000
vn -0.0000 -1.0000 -0.0000
vn -0.0000 -0.0000 -1.0000
vn -0.0000 -0.0000 1.0000
vt -0.977778 0.400000
vt -0.622222 0.000000
vt -0.000000 0.044444
vt 0.977778 0.400000
vt 0.933333 1.466667
vt -0.044444 1.600000
vt -0.100000 -0.044444
vt 0.100000 0.933333
vt 0.100000 -0.044444
vt -0.100000 1.466667
vt 0.100000 0.400000
vt 0.100000 1.466667
vt -0.100000 0.400000
vt 0.100000 0.000000
vt -0.100000 -0.622222
vt 0.100000 -0.622222
vt 0.100000 0.044444
vt -0.100000 1.600000
vt -0.100000 0.044444
vt -0.311111 1.155555
vt -0.137888 1.990630
vt -0.222222 2.000000
vt -0.091138 1.145491
vt -0.000000 1.986748
vt -0.084853 1.990630
vt 0.091138 1.145491
vt -0.000000 1.141322
vt 0.311111 1.155555
vt 0.137888 1.990630
vt 0.220530 1.145491
vt 0.401692 1.165620
vt 0.222222 2.000000
vt -0.000000 1.169789
vt -0.084853 2.009370
vt -0.091138 1.165620
vt 0.084853 2.009370
vt -0.000000 2.013252
vt -0.401692 1.165620
vt -0.306556 2.009370
vt -0.133333 2.755556
vt -0.078567 2.746879
vt 0.078567 2.746879
vt -0.000000 2.743285
vt 0.133333 2.755556
vt 0.055246 2.746879
vt 0.211420 2.764232
vt -0.000000 2.767826
vt -0.078567 2.764232
vt -0.211420 2.764232
vt -0.091138 -0.401692
vt -0.091138 -0.220530
vt 0.091138 -0.220530
vt 0.000000 0.022902
vt -0.111111 0.133333
vt -0.000000 0.243765
vt -0.088527 -0.047009
vt 0.000000 0.478632
vt 0.000000 -0.027350
vt 0.086325 2.713846
vt -0.461538 2.892308
vt 0.047009 2.619487
vt -0.000000 0.105983
vt -0.076980 -0.427350
vt -0.088527 0.086325
vt 0.076980 -0.427350
vt -0.000000 -0.410256
vt -0.086325 2.713846
vt 0.461538 2.892308
vt 0.427350 2.974359
vt 0.088527 -0.047009
vt 0.076980 0.461538
vt -0.065433 1.014530
vt 0.000000 1.029060
vt -0.985470 3.145983
vt -1.014530 3.076239
vt -0.000000 -0.970940
vt -0.065433 -0.985470
vt 0.985470 3.145983
vt 0.065433 1.014530
vt 0.088527 2.619487
vt -0.000000 2.761026
vt -0.088527 2.619487
vt 0.000000 3.180855
vt -0.065433 3.145983
vt -0.000000 3.041368
vt 0.477778 2.172222
vt 0.277778 2.361111
vt 0.277778 2.172222
vt -0.555556 0.477778
vt 0.555556 0.277778
vt -0.555556 0.277778
vt -0.477778 2.361111
vt -0.277778 2.172222
vt -0.277778 2.361111
vt 0.555556 -0.477778
vt -0.555556 -0.277778
vt 0.555556 -0.277778
vt -0.555556 2.361111
vt 0.555556 2.172222
vt 0.555556 2.361111
vt 0.044444 1.600000
vt -0.933333 1.466667
vt 0.622222 0.000000
vt -0.100000 0.933333
vt -0.100000 0.000000
vt 0.100000 1.600000
vt -0.220530 1.145491
vt 0.084853 1.990630
vt 0.306556 2.009370
vt 0.091138 1.165620
vt -0.055246 2.746879
vt 0.078567 2.764232
vt 0.128889 -0.311111
vt 0.091138 -0.401692
vt -0.000000 -0.439212
vt -0.128889 -0.311111
vt 0.000000 -0.183011
vt 0.078567 0.211420
vt 0.111111 0.133333
vt 0.078567 0.055246
vt -0.078567 0.055246
vt -0.078567 0.211420
vt -0.076980 0.461538
vt -0.427350 2.974359
vt 0.088527 0.086325
vt -0.047009 2.619487
vt 0.065433 -0.985470
vt 1.014530 3.076239
vt 0.000000 2.572308
vt 0.088527 2.713846
vt -0.088527 2.713846
vt -0.065433 3.076239
vt 0.065433 3.076239
vt 0.065433 3.145983
vt 0.477778 2.361111
vt 0.555556 0.477778
vt -0.477778 2.172222
vt -0.555556 -0.477778
vt -0.555556 2.172222
s 0
f 3/1/1 4/2/1 5/3/1
f 8/4/2 7/5/2 6/6/2
f 6/7/3 2/8/3 1/9/3
f 7/10/4 3/11/4 2/12/4
f 8/13/5 4/14/5 3/11/5
f 9/15/6 5/14/6 4/16/6
f 10/17/7 1/18/7 5/19/7
s 1
f 11/20/8 20/21/9 19/22/10
f 12/23/11 21/24/12 20/25/9
f 14/26/13 21/24/12 13/27/14
f 15/28/15 22/29/16 14/30/13
f 16/31/17 23/32/18 15/28/15
f 17/33/19 24/34/20 16/35/17
f 17/33/19 26/36/21 25/37/22
f 18/38/23 19/22/10 26/39/21
f 20/21/9 27/40/24 19/22/10
f 21/24/12 28/41/25 20/25/9
f 21/24/12 30/42/26 29/43/27
f 22/29/16 31/44/28 30/45/26
f 23/32/18 32/46/29 31/44/28
f 24/34/20 33/47/30 32/48/29
f 26/36/21 33/47/30 25/37/22
f 19/22/10 34/49/31 26/39/21
s 0
f 16/50/32 14/51/32 12/52/32
f 29/53/33 31/54/33 33/55/33
s 1
f 36/56/34 41/57/35 35/58/36
f 37/59/37 42/60/38 36/61/34
f 38/62/39 43/63/40 37/64/37
f 38/62/39 45/65/41 44/66/42
f 39/67/43 46/68/44 45/69/41
f 40/70/45 41/57/35 46/71/44
f 41/57/35 48/72/46 47/73/47
f 42/60/38 49/74/48 48/75/46
f 43/63/40 50/76/49 49/77/48
f 45/65/41 50/76/49 44/66/42
f 46/68/44 51/78/50 45/69/41
f 41/57/35 52/79/51 46/71/44
s 0
f 40/80/52 38/81/52 36/82/52
f 50/83/53 51/84/53 47/85/53
f 54/86/2 55/87/2 53/88/2
f 56/89/54 59/90/54 55/91/54
f 60/92/1 57/93/1 59/94/1
f 58/95/55 53/96/55 57/97/55
f 59/98/56 53/99/56 55/100/56
f 56/98/57 58/99/57 60/100/57
f 5/3/1 1/101/1 3/1/1
f 1/101/1 2/102/1 3/1/1
f 6/6/2 10/3/2 8/4/2
f 10/3/2 9/103/2 8/4/2
f 6/7/3 7/104/3 2/8/3
f 7/10/4 8/13/4 3/11/4
f 8/13/5 9/105/5 4/14/5
f 9/15/6 10/105/6 5/14/6
f 10/17/7 6/106/7 1/18/7
s 1
f 11/20/8 12/107/11 20/21/9
f 12/23/11 13/27/14 21/24/12
f 14/26/13 22/108/16 21/24/12
f 15/28/15 23/32/18 22/29/16
f 16/31/17 24/109/20 23/32/18
f 17/33/19 25/37/22 24/34/20
f 17/33/19 18/110/23 26/36/21
f 18/38/23 11/20/8 19/22/10
f 20/21/9 28/111/25 27/40/24
f 21/24/12 29/43/27 28/41/25
f 21/24/12 22/108/16 30/42/26
f 22/29/16 23/32/18 31/44/28
f 23/32/18 24/109/20 32/46/29
f 24/34/20 25/37/22 33/47/30
f 26/36/21 34/112/31 33/47/30
f 19/22/10 27/40/24 34/49/31
s 0
f 12/52/32 11/113/32 18/114/32
f 18/114/32 17/115/32 12/52/32
f 17/115/32 16/50/32 12/52/32
f 16/50/32 15/116/32 14/51/32
f 14/51/32 13/117/32 12/52/32
f 33/55/33 34/118/33 27/119/33
f 27/119/33 28/120/33 29/53/33
f 29/53/33 30/121/33 31/54/33
f 31/54/33 32/122/33 33/55/33
f 33/55/33 27/119/33 29/53/33
s 1
f 36/56/34 42/123/38 41/57/35
f 37/59/37 43/124/40 42/60/38
f 38/62/39 44/66/42 43/63/40
f 38/62/39 39/125/43 45/65/41
f 39/67/43 40/126/45 46/68/44
f 40/70/45 35/58/36 41/57/35
f 41/57/35 42/123/38 48/72/46
f 42/60/38 43/124/40 49/74/48
f 43/63/40 44/66/42 50/76/49
f 45/65/41 51/127/50 50/76/49
f 46/68/44 52/128/51 51/78/50
f 41/57/35 47/73/47 52/79/51
s 0
f 36/82/52 35/129/52 40/80/52
f 40/80/52 39/130/52 38/81/52
f 38/81/52 37/131/52 36/82/52
f 51/84/53 52/132/53 47/85/53
f 47/85/53 48/133/53 49/134/53
f 49/134/53 50/83/53 47/85/53
f 54/86/2 56/135/2 55/87/2
f 56/89/54 60/136/54 59/90/54
f 60/92/1 58/137/1 57/93/1
f 58/95/55 54/138/55 53/96/55
f 59/98/56 57/139/56 53/99/56
f 56/98/57 54/139/57 58/99/57
o metal
usemtl metal
v 0.085000 0.606406 -0.009966
v 0.068000 0.623033 -0.009966
v 0.051000 0.606406 -0.009966
v 0.068000 0.589779 -0.009966
v 0.060104 0.606406 -0.069865
v 0.048083 0.623033 -0.057885
v 0.036062 0.606406 -0.045906
v 0.048083 0.589779 -0.057885
v 0.000000 0.606406 -0.094676
v 0.000000 0.623033 -0.077734
v 0.000000 0.606406 -0.060792
v 0.000000 0.589779 -0.077734
v -0.060104 0.606406 -0.069865
v -0.048083 0.623033 -0.057885
v -0.036062 0.606406 -0.045906
v -0.048083 0.589779 -0.057885
v -0.085000 0.606406 -0.009966
v -0.068000 0.623033 -0.009966
v -0.051000 0.606406 -0.009966
v -0.068000 0.589779 -0.009966
v -0.060104 0.606406 0.049933
v -0.048083 0.623033 0.037954
v -0.036062 0.606406 0.025974
v -0.048083 0.589779 0.037954
v -0.000000 0.606406 0.074744
v -0.000000 0.623033 0.057802
v -0.000000 0.606406 0.040860
v -0.000000 0.589779 0.057802
v 0.060104 0.606406 0.049933
v 0.048083 0.623033 0.037954
v 0.036062 0.606406 0.025974
v 0.048083 0.589779 0.037954
v 0.085000 1.026978 -0.078532
v 0.068000 1.043605 -0.078532
v 0.051000 1.026978 -0.078532
v 0.068000 1.010350 -0.078532
v 0.060104 1.026978 -0.138431
v 0.048083 1.043605 -0.126451
v 0.036062 1.026978 -0.114471
v 0.048083 1.010350 -0.126451
v 0.000000 1.026978 -0.163242
v 0.000000 1.043605 -0.146300
v 0.000000 1.026978 -0.129358
v 0.000000 1.010350 -0.146300
v -0.060104 1.026978 -0.138431
v -0.048083 1.043605 -0.126451
v -0.036062 1.026978 -0.114471
v -0.048083 1.010350 -0.126451
v -0.085000 1.026978 -0.078532
v -0.068000 1.043605 -0.078532
v -0.051000 1.026978 -0.078532
v -0.068000 1.010350 -0.078532
v -0.060104 1.026978 -0.018632
v -0.048083 1.043605 -0.030612
v -0.036062 1.026978 -0.042592
v -0.048083 1.010350 -0.030612
v -0.000000 1.026978 0.006179
v -0.000000 1.043605 -0.010763
v -0.000000 1.026978 -0.027705
v -0.000000 1.010350 -0.010763
v 0.060104 1.026978 -0.018632
v 0.048083 1.043605 -0.030612
v 0.036062 1.026978 -0.042592
v 0.048083 1.010350 -0.030612
v -0.240000 0.997635 0.053816
v -0.240000 0.977307 0.041857
v -0.240000 0.977307 0.017939
v -0.240000 0.997635 0.005980
v -0.240000 1.017964 0.017939
v -0.240000 1.017964 0.041857
v 0.240000 0.997635 0.053816
v 0.240000 0.977307 0.041857
v 0.240000 0.977307 0.017939
v 0.240000 0.997635 0.005980
v 0.240000 1.017964 0.017939
v 0.240000 1.017964 0.041857
v -0.055000 0.364333 -0.049830
v -0.055000 0.364333 0.249148
v -0.055000 0.418127 -0.049830
v -0.055000 0.418127 0.249148
v 0.055000 0.364333 -0.049830
v 0.055000 0.364333 0.249148
v 0.055000 0.418127 -0.049830
v 0.055000 0.418127 0.249148
v -0.050000 0.581954 -0.049830
v -0.050000 0.581954 0.169421
v -0.050000 0.630858 -0.049830
v -0.050000 0.630858 0.169421
v 0.050000 0.581954 -0.049830
v 0.050000 0.581954 0.169421
v 0.050000 0.630858 -0.049830
v 0.050000 0.630858 0.169421
vn 0.7065 -0.0000 -0.7077
vn 0.1705 0.9854 -0.0000
vn 1.0000 -0.0000 -0.0000
vn 0.1198 0.9854 -0.1209
vn -1.0000 -0.0000 -0.0000
vn -0.7058 -0.0000 0.7084
vn 0.1705 -0.9854 -0.0000
vn 0.1198 -0.9854 -0.1209
vn -0.0000 -0.0000 -1.0000
vn -0.0000 -0.0000 1.0000
vn -0.0000 -0.9855 -0.1698
vn -0.1198 0.9854 -0.1209
vn -0.0000 0.9855 -0.1698
vn -0.1198 -0.9854 -0.1209
vn -0.7065 -0.0000 -0.7077
vn -0.1705 0.9854 -0.0000
vn 0.7058 -0.0000 0.7084
vn -0.7065 -0.0000 0.7077
vn -0.1198 0.9854 0.1209
vn 0.7058 -0.0000 -0.7084
vn -0.1705 -0.9854 -0.0000
vn -0.1198 -0.9854 0.1209
vn -0.0000 -0.9855 0.1698
vn 0.1198 0.9854 0.1209
vn -0.0000 0.9855 0.1698
vn 0.1198 -0.9854 0.1209
vn 0.7065 -0.0000 0.7077
vn -0.7058 -0.0000 -0.7084
vn -0.0000 -0.8681 0.4965
vn -0.0000 -0.8681 -0.4965
vn -0.0000 0.8681 -0.4965
vn -0.0000 0.8681 0.4965
vn -0.0000 1.0000 -0.0000
vn -0.0000 -1.0000 -0.0000
vt -0.232986 2.066667
vt -0.433333 2.123333
vt -0.433333 2.066667
vt 0.273056 2.123333
vt 0.433333 2.066667
vt 0.433333 2.123333
vt 0.313125 2.066667
vt 0.433333 2.010000
vt -0.273056 2.010000
vt -0.433333 2.010000
vt -0.000000 2.066667
vt -0.160278 2.123333
vt -0.200347 2.066667
vt 0.160278 2.123333
vt 0.000000 2.066667
vt 0.120208 2.066667
vt 0.160278 2.010000
vt -0.000000 2.010000
vt -0.160278 2.010000
vt -0.000000 2.123333
vt 0.000000 2.123333
vt 0.000000 2.010000
vt 0.200347 2.066667
vt 0.232986 2.066667
vt -0.313125 2.066667
vt -0.273056 2.123333
vt 0.273056 2.010000
vt 0.633680 2.066667
vt -0.593611 2.123333
vt -0.553541 2.066667
vt 0.593611 2.010000
vt -0.000000 2.066667
vt 0.000000 2.066667
vt 0.000000 2.010000
vt -0.000000 2.010000
vt -0.000000 2.123333
vt 0.000000 2.123333
vt -0.633680 2.066667
vt 0.593611 2.123333
vt 0.553541 2.066667
vt -0.593611 2.010000
vt 0.200347 0.003653
vt 0.226667 0.204000
vt 0.283333 0.204000
vt 0.120208 0.083792
vt 0.170000 0.204000
vt 0.120208 -0.083792
vt 0.226667 -0.204000
vt 0.170000 -0.204000
vt 0.160278 -0.043722
vt 0.283333 -0.204000
vt 0.000000 -0.022667
vt 0.160278 0.043722
vt 0.000000 0.022667
vt 0.200347 -0.003653
vt -0.200347 0.003653
vt 0.000000 -0.079333
vt -0.160278 0.043722
vt 0.000000 0.034000
vt -0.120208 -0.083792
vt 0.000000 -0.034000
vt -0.160278 -0.043722
vt 0.000000 0.079333
vt -0.226667 0.204000
vt -0.120208 0.083792
vt -0.226667 -0.204000
vt -0.283333 -0.204000
vt -0.200347 -0.003653
vt -0.200347 0.404347
vt -0.283333 0.204000
vt -0.120208 0.324208
vt -0.170000 0.204000
vt -0.120208 -0.324208
vt -0.170000 -0.204000
vt -0.160278 -0.364278
vt -0.000000 0.430667
vt -0.160278 0.364278
vt -0.000000 -0.430667
vt -0.200347 -0.404347
vt 0.200347 0.404347
vt -0.000000 0.487333
vt 0.120208 0.324208
vt -0.000000 0.374000
vt 0.120208 -0.324208
vt -0.000000 -0.374000
vt 0.160278 -0.364278
vt -0.000000 -0.487333
vt 0.160278 0.364278
vt 0.200347 -0.404347
vt -0.800000 3.330718
vt 0.800000 3.400000
vt -0.800000 3.400000
vt -0.800000 -0.526667
vt 0.800000 -0.606667
vt -0.800000 -0.606667
vt 0.800000 3.330718
vt 0.800000 3.469282
vt -0.800000 0.606667
vt 0.800000 0.526667
vt -0.800000 0.526667
vt -0.800000 3.469282
vt 0.486667 3.400000
vt 0.526667 3.330718
vt 0.606667 3.330718
vt -0.526667 3.330718
vt -0.486667 3.400000
vt -0.526667 3.469282
vt 1.300000 1.241667
vt 0.300000 1.425000
vt 0.300000 1.241667
vt -0.183333 1.300000
vt 0.183333 0.300000
vt -0.183333 0.300000
vt -1.300000 1.425000
vt -0.300000 1.241667
vt -0.300000 1.425000
vt 0.183333 -1.300000
vt -0.183333 -0.300000
vt 0.183333 -0.300000
vt -0.183333 1.425000
vt 0.183333 1.241667
vt 0.183333 1.425000
vt 1.033333 1.983333
vt 0.300000 2.150000
vt 0.300000 1.983333
vt -0.166667 1.033333
vt 0.166667 0.300000
vt -0.166667 0.300000
vt -1.033333 2.150000
vt -0.300000 1.983333
vt -0.300000 2.150000
vt 0.166667 -1.033333
vt -0.166667 -0.300000
vt 0.166667 -0.300000
vt -0.166667 2.150000
vt 0.166667 1.983333
vt 0.166667 2.150000
vt -0.120208 2.066667
vt 0.800000 -0.526667
vt 0.800000 0.606667
vt 0.646667 3.400000
vt 0.606667 3.469282
vt 0.526667 3.469282
vt -0.606667 3.469282
vt -0.646667 3.400000
vt -0.606667 3.330718
vt 1.300000 1.425000
vt 0.183333 1.300000
vt -1.300000 1.241667
vt -0.183333 -1.300000
vt -0.183333 1.241667
vt 1.033333 2.150000
vt 0.166667 1.033333
vt -1.033333 1.983333
vt -0.166667 -1.033333
vt -0.166667 1.983333
s 1
f 65/140/58 62/141/59 61/142/60
f 66/143/61 63/144/62 62/145/59
f 67/146/63 64/147/64 63/144/62
f 68/148/65 61/142/60 64/149/64
f 69/150/66 66/151/61 65/152/58
f 66/153/61 71/154/67 67/155/63
f 71/154/67 68/156/65 67/155/63
f 72/157/68 65/152/58 68/158/65
f 69/150/66 74/153/69 70/159/70
f 74/151/69 71/154/67 70/160/70
f 71/154/67 76/158/71 72/161/68
f 72/157/68 73/162/72 69/150/66
f 77/144/62 74/143/69 73/163/72
f 78/141/73 75/164/74 74/165/69
f 79/142/60 76/148/71 75/164/74
f 76/166/71 77/144/62 73/163/72
f 81/167/75 78/145/73 77/144/62
f 82/168/76 79/142/60 78/141/73
f 83/169/77 80/149/78 79/142/60
f 84/170/79 77/144/62 80/147/78
f 85/171/67 82/151/76 81/152/75
f 82/153/76 87/172/66 83/155/77
f 83/155/77 88/173/80 84/156/79
f 88/174/80 81/152/75 84/158/79
f 85/171/67 90/153/81 86/175/82
f 90/151/81 87/172/66 86/176/82
f 87/172/66 92/158/83 88/173/80
f 92/156/83 85/171/67 88/174/80
f 89/177/84 62/141/59 90/168/81
f 90/178/81 63/144/62 91/179/85
f 63/144/62 92/170/83 91/179/85
f 64/149/64 89/177/84 92/180/83
f 97/181/58 94/182/59 93/183/60
f 94/182/59 99/184/63 95/185/62
f 99/186/63 96/187/64 95/188/62
f 100/189/65 93/190/60 96/187/64
f 97/181/58 102/191/70 98/192/61
f 102/191/70 99/184/63 98/192/61
f 99/186/63 104/193/68 100/189/65
f 104/193/68 97/194/58 100/189/65
f 105/195/72 102/191/70 101/196/66
f 106/197/69 103/198/67 102/191/70
f 107/199/74 104/193/68 103/200/67
f 108/201/71 101/202/66 104/193/68
f 105/195/72 110/203/73 106/197/69
f 110/203/73 107/204/74 106/197/69
f 107/199/74 112/205/78 108/201/71
f 108/201/71 109/206/62 105/207/72
f 113/208/75 110/203/73 109/209/62
f 110/203/73 115/210/77 111/211/60
f 115/212/77 112/205/78 111/213/60
f 116/214/79 109/206/62 112/205/78
f 113/208/75 118/215/82 114/216/76
f 118/215/82 115/210/77 114/216/76
f 115/212/77 120/217/80 116/214/79
f 120/217/80 113/218/75 116/214/79
f 121/219/84 118/215/82 117/220/67
f 118/215/82 123/221/85 119/222/66
f 123/223/85 120/217/80 119/224/66
f 124/225/83 117/226/67 120/217/80
f 121/219/84 94/182/59 122/227/81
f 94/182/59 123/221/85 122/227/81
f 123/223/85 96/187/64 124/225/83
f 96/187/64 121/228/84 124/225/83
f 126/229/86 131/230/67 125/231/67
f 127/232/87 132/233/86 126/234/86
f 128/230/66 133/229/87 127/235/87
f 129/236/88 134/231/66 128/230/66
f 130/237/89 135/238/88 129/239/88
f 125/231/67 136/236/89 130/240/89
s 0
f 128/241/62 127/242/62 126/243/62
f 133/244/60 134/245/60 135/246/60
f 138/247/62 139/248/62 137/249/62
f 140/250/90 143/251/90 139/252/90
f 144/253/60 141/254/60 143/255/60
f 142/256/91 137/257/91 141/258/91
f 143/259/66 137/260/66 139/261/66
f 140/259/67 142/260/67 144/261/67
f 146/262/62 147/263/62 145/264/62
f 148/265/90 151/266/90 147/267/90
f 152/268/60 149/269/60 151/270/60
f 150/271/91 145/272/91 149/273/91
f 151/274/66 145/275/66 147/276/66
f 148/274/67 150/275/67 152/276/67
s 1
f 65/140/58 66/165/61 62/141/59
f 66/143/61 67/146/63 63/144/62
f 67/146/63 68/166/65 64/147/64
f 68/148/65 65/140/58 61/142/60
f 69/150/66 70/159/70 66/151/61
f 66/153/61 70/160/70 71/154/67
f 71/154/67 72/161/68 68/156/65
f 72/157/68 69/150/66 65/152/58
f 69/150/66 73/162/72 74/153/69
f 74/151/69 75/277/74 71/154/67
f 71/154/67 75/277/74 76/158/71
f 72/157/68 76/156/71 73/162/72
f 77/144/62 78/145/73 74/143/69
f 78/141/73 79/142/60 75/164/74
f 79/142/60 80/149/78 76/148/71
f 76/166/71 80/147/78 77/144/62
f 81/167/75 82/178/76 78/145/73
f 82/168/76 83/169/77 79/142/60
f 83/169/77 84/180/79 80/149/78
f 84/170/79 81/167/75 77/144/62
f 85/171/67 86/175/82 82/151/76
f 82/153/76 86/176/82 87/172/66
f 83/155/77 87/172/66 88/173/80
f 88/174/80 85/171/67 81/152/75
f 85/171/67 89/162/84 90/153/81
f 90/151/81 91/277/85 87/172/66
f 87/172/66 91/277/85 92/158/83
f 92/156/83 89/162/84 85/171/67
f 89/177/84 61/142/60 62/141/59
f 90/178/81 62/145/59 63/144/62
f 63/144/62 64/147/64 92/170/83
f 64/149/64 61/142/60 89/177/84
f 97/181/58 98/192/61 94/182/59
f 94/182/59 98/192/61 99/184/63
f 99/186/63 100/189/65 96/187/64
f 100/189/65 97/194/58 93/190/60
f 97/181/58 101/196/66 102/191/70
f 102/191/70 103/198/67 99/184/63
f 99/186/63 103/200/67 104/193/68
f 104/193/68 101/202/66 97/194/58
f 105/195/72 106/197/69 102/191/70
f 106/197/69 107/204/74 103/198/67
f 107/199/74 108/201/71 104/193/68
f 108/201/71 105/207/72 101/202/66
f 105/195/72 109/209/62 110/203/73
f 110/203/73 111/211/60 107/204/74
f 107/199/74 111/213/60 112/205/78
f 108/201/71 112/205/78 109/206/62
f 113/208/75 114/216/76 110/203/73
f 110/203/73 114/216/76 115/210/77
f 115/212/77 116/214/79 112/205/78
f 116/214/79 113/218/75 109/206/62
f 113/208/75 117/220/67 118/215/82
f 118/215/82 119/222/66 115/210/77
f 115/212/77 119/224/66 120/217/80
f 120/217/80 117/226/67 113/218/75
f 121/219/84 122/227/81 118/215/82
f 118/215/82 122/227/81 123/221/85
f 123/223/85 124/225/83 120/217/80
f 124/225/83 121/228/84 117/226/67
f 121/219/84 93/183/60 94/182/59
f 94/182/59 95/185/62 123/221/85
f 123/223/85 95/188/62 96/187/64
f 96/187/64 93/190/60 121/228/84
f 126/229/86 132/235/86 131/230/67
f 127/232/87 133/278/87 132/233/86
f 128/230/66 134/231/66 133/229/87
f 129/236/88 135/240/88 134/231/66
f 130/237/89 136/279/89 135/238/88
f 125/231/67 131/230/67 136/236/89
s 0
f 126/243/62 125/280/62 130/281/62
f 130/281/62 129/282/62 126/243/62
f 129/282/62 128/241/62 126/243/62
f 135/246/60 136/283/60 133/244/60
f 136/283/60 131/284/60 133/244/60
f 131/284/60 132/285/60 133/244/60
f 138/247/62 140/286/62 139/248/62
f 140/250/90 144/287/90 143/251/90
f 144/253/60 142/288/60 141/254/60
f 142/256/91 138/289/91 137/257/91
f 143/259/66 141/290/66 137/260/66
f 140/259/67 138/290/67 142/260/67
f 146/262/62 148/291/62 147/263/62
f 148/265/90 152/292/90 151/266/90
f 152/268/60 150/293/60 149/269/60
f 150/271/91 146/294/91 145/272/91
f 151/274/66 149/295/66 145/275/66
f 148/274/67 146/295/67 150/275/67
