# Blender 5.0.1
# www.blender.org
mtllib raft_base_barrel.mtl
o wood
usemtl wood
v -1.000000 0.100000 -1.000000
v -1.000000 0.100000 1.000000
v -1.000000 0.400000 -1.000000
v -1.000000 0.400000 1.000000
v -0.880000 0.100000 -1.000000
v -0.880000 0.100000 1.000000
v -0.880000 0.400000 -1.000000
v -0.880000 0.400000 1.000000
v 0.880000 0.100000 -1.000000
v 0.880000 0.100000 1.000000
v 0.880000 0.400000 -1.000000
v 0.880000 0.400000 1.000000
v 1.000000 0.100000 -1.000000
v 1.000000 0.100000 1.000000
v 1.000000 0.400000 -1.000000
v 1.000000 0.400000 1.000000
v -1.000000 0.480000 -0.945000
v -1.000000 0.480000 -0.815000
v -1.000000 0.550000 -0.945000
v -1.000000 0.550000 -0.815000
v 1.000000 0.480000 -0.945000
v 1.000000 0.480000 -0.815000
v 1.000000 0.550000 -0.945000
v 1.000000 0.550000 -0.815000
v -1.000000 0.480000 -0.065000
v -1.000000 0.480000 0.065000
v -1.000000 0.550000 -0.065000
v -1.000000 0.550000 0.065000
v 1.000000 0.480000 -0.065000
v 1.000000 0.480000 0.065000
v 1.000000 0.550000 -0.065000
v 1.000000 0.550000 0.065000
v -1.000000 0.480000 0.815000
v -1.000000 0.480000 0.945000
v -1.000000 0.550000 0.815000
v -1.000000 0.550000 0.945000
v 1.000000 0.480000 0.815000
v 1.000000 0.480000 0.945000
v 1.000000 0.550000 0.815000
v 1.000000 0.550000 0.945000
vn -1.0000 -0.0000 -0.0000
vn -0.0000 1.0000 -0.0000
vn 1.0000 -0.0000 -0.0000
vn -0.0000 -1.0000 -0.0000
vn -0.0000 -0.0000 -1.0000
vn -0.0000 -0.0000 1.0000
vt 2.000000 0.200000
vt -2.000000 0.800000
vt -2.000000 0.200000
vt -2.000000 2.000000
vt -1.760000 -2.000000
vt -2.000000 -2.000000
vt 2.000000 0.800000
vt -1.760000 2.000000
vt 1.760000 0.800000
vt -1.760000 0.200000
vt -1.760000 0.800000
vt 1.760000 2.000000
vt 2.000000 -2.000000
vt 1.760000 -2.000000
vt 2.000000 2.000000
vt -1.630000 0.960000
vt -1.890000 1.100000
vt -1.890000 0.960000
vt -2.000000 -1.630000
vt 2.000000 -1.890000
vt -2.000000 -1.890000
vt 1.630000 1.100000
vt 1.890000 0.960000
vt 1.890000 1.100000
vt 2.000000 1.630000
vt -2.000000 1.890000
vt 2.000000 1.890000
vt -2.000000 1.100000
vt 2.000000 0.960000
vt 2.000000 1.100000
vt 0.130000 0.960000
vt -0.130000 1.100000
vt -0.130000 0.960000
vt -2.000000 0.130000
vt 2.000000 -0.130000
vt -2.000000 -0.130000
vt 0.130000 1.100000
vt 2.000000 0.130000
vt 1.630000 0.960000
vt -2.000000 1.630000
vt -1.630000 1.100000
vt 2.000000 -1.630000
vt 1.760000 0.200000
vt -2.000000 0.960000
s 0
f 2/1/1 3/2/1 1/3/1
f 4/4/2 7/5/2 3/6/2
f 8/2/3 5/1/3 7/7/3
f 6/5/4 1/4/4 5/8/4
f 7/9/5 1/1/5 3/7/5
f 4/2/6 6/10/6 8/11/6
f 10/1/1 11/2/1 9/3/1
f 12/12/2 15/13/2 11/14/2
f 16/2/3 13/1/3 15/7/3
f 14/13/4 9/12/4 13/15/4
f 15/2/5 9/10/5 11/11/5
f 12/9/6 14/1/6 16/7/6
f 18/16/1 19/17/1 17/18/1
f 20/19/2 23/20/2 19/21/2
f 24/22/3 21/23/3 23/24/3
f 22/25/4 17/26/4 21/27/4
f 23/28/5 17/29/5 19/30/5
f 20/28/6 22/29/6 24/30/6
f 26/31/1 27/32/1 25/33/1
f 28/34/2 31/35/2 27/36/2
f 32/32/3 29/31/3 31/37/3
f 30/35/4 25/34/4 29/38/4
f 31/28/5 25/29/5 27/30/5
f 28/28/6 30/29/6 32/30/6
f 34/23/1 35/22/1 33/39/1
f 36/26/2 39/25/2 35/40/2
f 40/17/3 37/16/3 39/41/3
f 38/20/4 33/19/4 37/42/4
f 39/28/5 33/29/5 35/30/5
f 36/28/6 38/29/6 40/30/6
f 2/1/1 4/7/1 3/2/1
f 4/4/2 8/8/2 7/5/2
f 8/2/3 6/3/3 5/1/3
f 6/5/4 2/6/4 1/4/4
f 7/9/5 5/43/5 1/1/5
f 4/2/6 2/3/6 6/10/6
f 10/1/1 12/7/1 11/2/1
f 12/12/2 16/15/2 15/13/2
f 16/2/3 14/3/3 13/1/3
f 14/13/4 10/14/4 9/12/4
f 15/2/5 13/3/5 9/10/5
f 12/9/6 10/43/6 14/1/6
f 18/16/1 20/41/1 19/17/1
f 20/19/2 24/42/2 23/20/2
f 24/22/3 22/39/3 21/23/3
f 22/25/4 18/40/4 17/26/4
f 23/28/5 21/44/5 17/29/5
f 20/28/6 18/44/6 22/29/6
f 26/31/1 28/37/1 27/32/1
f 28/34/2 32/38/2 31/35/2
f 32/32/3 30/33/3 29/31/3
f 30/35/4 26/36/4 25/34/4
f 31/28/5 29/44/5 25/29/5
f 28/28/6 26/44/6 30/29/6
f 34/23/1 36/24/1 35/22/1
f 36/26/2 40/27/2 39/25/2
f 40/17/3 38/18/3 37/16/3
f 38/20/4 34/21/4 33/19/4
f 39/28/5 37/44/5 33/29/5
f 36/28/6 34/44/6 38/29/6
o metal
usemtl metal
v -0.705000 0.255000 -0.920000
v -0.662029 0.122748 -0.920000
v -0.549529 0.041012 -0.920000
v -0.410471 0.041012 -0.920000
v -0.297971 0.122748 -0.920000
v -0.255000 0.255000 -0.920000
v -0.297971 0.387252 -0.920000
v -0.410471 0.468988 -0.920000
v -0.549529 0.468988 -0.920000
v -0.662029 0.387252 -0.920000
v -0.720000 0.255000 -0.890000
v -0.674164 0.113932 -0.890000
v -0.554164 0.026746 -0.890000
v -0.405836 0.026746 -0.890000
v -0.285836 0.113932 -0.890000
v -0.240000 0.255000 -0.890000
v -0.285836 0.396068 -0.890000
v -0.405836 0.483254 -0.890000
v -0.554164 0.483254 -0.890000
v -0.674164 0.396068 -0.890000
v -0.705000 0.255000 -0.860000
v -0.662029 0.122748 -0.860000
v -0.549529 0.041012 -0.860000
v -0.410471 0.041012 -0.860000
v -0.297971 0.122748 -0.860000
v -0.255000 0.255000 -0.860000
v -0.297971 0.387252 -0.860000
v -0.410471 0.468988 -0.860000
v -0.549529 0.468988 -0.860000
v -0.662029 0.387252 -0.860000
v -0.705000 0.255000 -0.330000
v -0.662029 0.122748 -0.330000
v -0.549529 0.041012 -0.330000
v -0.410471 0.041012 -0.330000
v -0.297971 0.122748 -0.330000
v -0.255000 0.255000 -0.330000
v -0.297971 0.387252 -0.330000
v -0.410471 0.468988 -0.330000
v -0.549529 0.468988 -0.330000
v -0.662029 0.387252 -0.330000
v -0.720000 0.255000 -0.300000
v -0.674164 0.113932 -0.300000
v -0.554164 0.026746 -0.300000
v -0.405836 0.026746 -0.300000
v -0.285836 0.113932 -0.300000
v -0.240000 0.255000 -0.300000
v -0.285836 0.396068 -0.300000
v -0.405836 0.483254 -0.300000
v -0.554164 0.483254 -0.300000
v -0.674164 0.396068 -0.300000
v -0.705000 0.255000 -0.270000
v -0.662029 0.122748 -0.270000
v -0.549529 0.041012 -0.270000
v -0.410471 0.041012 -0.270000
v -0.297971 0.122748 -0.270000
v -0.255000 0.255000 -0.270000
v -0.297971 0.387252 -0.270000
v -0.410471 0.468988 -0.270000
v -0.549529 0.468988 -0.270000
v -0.662029 0.387252 -0.270000
v -0.705000 0.255000 0.270000
v -0.662029 0.122748 0.270000
v -0.549529 0.041012 0.270000
v -0.410471 0.041012 0.270000
v -0.297971 0.122748 0.270000
v -0.255000 0.255000 0.270000
v -0.297971 0.387252 0.270000
v -0.410471 0.468988 0.270000
v -0.549529 0.468988 0.270000
v -0.662029 0.387252 0.270000
v -0.720000 0.255000 0.300000
v -0.674164 0.113932 0.300000
v -0.554164 0.026746 0.300000
v -0.405836 0.026746 0.300000
v -0.285836 0.113932 0.300000
v -0.240000 0.255000 0.300000
v -0.285836 0.396068 0.300000
v -0.405836 0.483254 0.300000
v -0.554164 0.483254 0.300000
v -0.674164 0.396068 0.300000
v -0.705000 0.255000 0.330000
v -0.662029 0.122748 0.330000
v -0.549529 0.041012 0.330000
v -0.410471 0.041012 0.330000
v -0.297971 0.122748 0.330000
v -0.255000 0.255000 0.330000
v -0.297971 0.387252 0.330000
v -0.410471 0.468988 0.330000
v -0.549529 0.468988 0.330000
v -0.662029 0.387252 0.330000
v -0.705000 0.255000 0.860000
v -0.662029 0.122748 0.860000
v -0.549529 0.041012 0.860000
v -0.410471 0.041012 0.860000
v -0.297971 0.122748 0.860000
v -0.255000 0.255000 0.860000
v -0.297971 0.387252 0.860000
v -0.410471 0.468988 0.860000
v -0.549529 0.468988 0.860000
v -0.662029 0.387252 0.860000
v -0.720000 0.255000 0.890000
v -0.674164 0.113932 0.890000
v -0.554164 0.026746 0.890000
v -0.405836 0.026746 0.890000
v -0.285836 0.113932 0.890000
v -0.240000 0.255000 0.890000
v -0.285836 0.396068 0.890000
v -0.405836 0.483254 0.890000
v -0.554164 0.483254 0.890000
v -0.674164 0.396068 0.890000
v -0.705000 0.255000 0.920000
v -0.662029 0.122748 0.920000
v -0.549529 0.041012 0.920000
v -0.410471 0.041012 0.920000
v -0.297971 0.122748 0.920000
v -0.255000 0.255000 0.920000
v -0.297971 0.387252 0.920000
v -0.410471 0.468988 0.920000
v -0.549529 0.468988 0.920000
v -0.662029 0.387252 0.920000
v -0.480000 0.510000 -0.580000
v -0.480000 0.496000 -0.566000
v -0.480000 0.482000 -0.580000
v -0.480000 0.496000 -0.594000
v -0.660312 0.435312 -0.580000
v -0.650413 0.425413 -0.566000
v -0.640513 0.415513 -0.580000
v -0.650413 0.425413 -0.594000
v -0.735000 0.255000 -0.580000
v -0.721000 0.255000 -0.566000
v -0.707000 0.255000 -0.580000
v -0.721000 0.255000 -0.594000
v -0.660312 0.074688 -0.580000
v -0.650413 0.084587 -0.566000
v -0.640513 0.094487 -0.580000
v -0.650413 0.084587 -0.594000
v -0.480000 -0.000000 -0.580000
v -0.480000 0.014000 -0.566000
v -0.480000 0.028000 -0.580000
v -0.480000 0.014000 -0.594000
v -0.299688 0.074688 -0.580000
v -0.309587 0.084587 -0.566000
v -0.319487 0.094487 -0.580000
v -0.309587 0.084587 -0.594000
v -0.225000 0.255000 -0.580000
v -0.239000 0.255000 -0.566000
v -0.253000 0.255000 -0.580000
v -0.239000 0.255000 -0.594000
v -0.299688 0.435312 -0.580000
v -0.309587 0.425413 -0.566000
v -0.319487 0.415513 -0.580000
v -0.309587 0.425413 -0.594000
v -0.480000 0.510000 0.580000
v -0.480000 0.496000 0.594000
v -0.480000 0.482000 0.580000
v -0.480000 0.496000 0.566000
v -0.660312 0.435312 0.580000
v -0.650413 0.425413 0.594000
v -0.640513 0.415513 0.580000
v -0.650413 0.425413 0.566000
v -0.735000 0.255000 0.580000
v -0.721000 0.255000 0.594000
v -0.707000 0.255000 0.580000
v -0.721000 0.255000 0.566000
v -0.660312 0.074688 0.580000
v -0.650413 0.084587 0.594000
v -0.640513 0.094487 0.580000
v -0.650413 0.084587 0.566000
v -0.480000 -0.000000 0.580000
v -0.480000 0.014000 0.594000
v -0.480000 0.028000 0.580000
v -0.480000 0.014000 0.566000
v -0.299688 0.074688 0.580000
v -0.309587 0.084587 0.594000
v -0.319487 0.094487 0.580000
v -0.309587 0.084587 0.566000
v -0.225000 0.255000 0.580000
v -0.239000 0.255000 0.594000
v -0.253000 0.255000 0.580000
v -0.239000 0.255000 0.566000
v -0.299688 0.435312 0.580000
v -0.309587 0.425413 0.594000
v -0.319487 0.415513 0.580000
v -0.309587 0.425413 0.566000
v 0.255000 0.255000 -0.920000
v 0.297971 0.122748 -0.920000
v 0.410471 0.041012 -0.920000
v 0.549529 0.041012 -0.920000
v 0.662029 0.122748 -0.920000
v 0.705000 0.255000 -0.920000
v 0.662029 0.387252 -0.920000
v 0.549529 0.468988 -0.920000
v 0.410471 0.468988 -0.920000
v 0.297971 0.387252 -0.920000
v 0.240000 0.255000 -0.890000
v 0.285836 0.113932 -0.890000
v 0.405836 0.026746 -0.890000
v 0.554164 0.026746 -0.890000
v 0.674164 0.113932 -0.890000
v 0.720000 0.255000 -0.890000
v 0.674164 0.396068 -0.890000
v 0.554164 0.483254 -0.890000
v 0.405836 0.483254 -0.890000
v 0.285836 0.396068 -0.890000
v 0.255000 0.255000 -0.860000
v 0.297971 0.122748 -0.860000
v 0.410471 0.041012 -0.860000
v 0.549529 0.041012 -0.860000
v 0.662029 0.122748 -0.860000
v 0.705000 0.255000 -0.860000
v 0.662029 0.387252 -0.860000
v 0.549529 0.468988 -0.860000
v 0.410471 0.468988 -0.860000
v 0.297971 0.387252 -0.860000
v 0.255000 0.255000 -0.330000
v 0.297971 0.122748 -0.330000
v 0.410471 0.041012 -0.330000
v 0.549529 0.041012 -0.330000
v 0.662029 0.122748 -0.330000
v 0.705000 0.255000 -0.330000
v 0.662029 0.387252 -0.330000
v 0.549529 0.468988 -0.330000
v 0.410471 0.468988 -0.330000
v 0.297971 0.387252 -0.330000
v 0.240000 0.255000 -0.300000
v 0.285836 0.113932 -0.300000
v 0.405836 0.026746 -0.300000
v 0.554164 0.026746 -0.300000
v 0.674164 0.113932 -0.300000
v 0.720000 0.255000 -0.300000
v 0.674164 0.396068 -0.300000
v 0.554164 0.483254 -0.300000
v 0.405836 0.483254 -0.300000
v 0.285836 0.396068 -0.300000
v 0.255000 0.255000 -0.270000
v 0.297971 0.122748 -0.270000
v 0.410471 0.041012 -0.270000
v 0.549529 0.041012 -0.270000
v 0.662029 0.122748 -0.270000
v 0.705000 0.255000 -0.270000
v 0.662029 0.387252 -0.270000
v 0.549529 0.468988 -0.270000
v 0.410471 0.468988 -0.270000
v 0.297971 0.387252 -0.270000
v 0.255000 0.255000 0.270000
v 0.297971 0.122748 0.270000
v 0.410471 0.041012 0.270000
v 0.549529 0.041012 0.270000
v 0.662029 0.122748 0.270000
v 0.705000 0.255000 0.270000
v 0.662029 0.387252 0.270000
v 0.549529 0.468988 0.270000
v 0.410471 0.468988 0.270000
v 0.297971 0.387252 0.270000
v 0.240000 0.255000 0.300000
v 0.285836 0.113932 0.300000
v 0.405836 0.026746 0.300000
v 0.554164 0.026746 0.300000
v 0.674164 0.113932 0.300000
v 0.720000 0.255000 0.300000
v 0.674164 0.396068 0.300000
v 0.554164 0.483254 0.300000
v 0.405836 0.483254 0.300000
v 0.285836 0.396068 0.300000
v 0.255000 0.255000 0.330000
v 0.297971 0.122748 0.330000
v 0.410471 0.041012 0.330000
v 0.549529 0.041012 0.330000
v 0.662029 0.122748 0.330000
v 0.705000 0.255000 0.330000
v 0.662029 0.387252 0.330000
v 0.549529 0.468988 0.330000
v 0.410471 0.468988 0.330000
v 0.297971 0.387252 0.330000
v 0.255000 0.255000 0.860000
v 0.297971 0.122748 0.860000
v 0.410471 0.041012 0.860000
v 0.549529 0.041012 0.860000
v 0.662029 0.122748 0.860000
v 0.705000 0.255000 0.860000
v 0.662029 0.387252 0.860000
v 0.549529 0.468988 0.860000
v 0.410471 0.468988 0.860000
v 0.297971 0.387252 0.860000
v 0.240000 0.255000 0.890000
v 0.285836 0.113932 0.890000
v 0.405836 0.026746 0.890000
v 0.554164 0.026746 0.890000
v 0.674164 0.113932 0.890000
v 0.720000 0.255000 0.890000
v 0.674164 0.396068 0.890000
v 0.554164 0.483254 0.890000
v 0.405836 0.483254 0.890000
v 0.285836 0.396068 0.890000
v 0.255000 0.255000 0.920000
v 0.297971 0.122748 0.920000
v 0.410471 0.041012 0.920000
v 0.549529 0.041012 0.920000
v 0.662029 0.122748 0.920000
v 0.705000 0.255000 0.920000
v 0.662029 0.387252 0.920000
v 0.549529 0.468988 0.920000
v 0.410471 0.468988 0.920000
v 0.297971 0.387252 0.920000
v 0.480000 0.510000 -0.580000
v 0.480000 0.496000 -0.566000
v 0.480000 0.482000 -0.580000
v 0.480000 0.496000 -0.594000
v 0.299688 0.435312 -0.580000
v 0.309587 0.425413 -0.566000
v 0.319487 0.415513 -0.580000
v 0.309587 0.425413 -0.594000
v 0.225000 0.255000 -0.580000
v 0.239000 0.255000 -0.566000
v 0.253000 0.255000 -0.580000
v 0.239000 0.255000 -0.594000
v 0.299688 0.074688 -0.580000
v 0.309587 0.084587 -0.566000
v 0.319487 0.094487 -0.580000
v 0.309587 0.084587 -0.594000
v 0.480000 -0.000000 -0.580000
v 0.480000 0.014000 -0.566000
v 0.480000 0.028000 -0.580000
v 0.480000 0.014000 -0.594000
v 0.660312 0.074688 -0.580000
v 0.650413 0.084587 -0.566000
v 0.640513 0.094487 -0.580000
v 0.650413 0.084587 -0.594000
v 0.735000 0.255000 -0.580000
v 0.721000 0.255000 -0.566000
v 0.707000 0.255000 -0.580000
v 0.721000 0.255000 -0.594000
v 0.660312 0.435312 -0.580000
v 0.650413 0.425413 -0.566000
v 0.640513 0.415513 -0.580000
v 0.650413 0.425413 -0.594000
v 0.480000 0.510000 0.580000
v 0.480000 0.496000 0.594000
v 0.480000 0.482000 0.580000
v 0.480000 0.496000 0.566000
v 0.299688 0.435312 0.580000
v 0.309587 0.425413 0.594000
v 0.319487 0.415513 0.580000
v 0.309587 0.425413 0.566000
v 0.225000 0.255000 0.580000
v 0.239000 0.255000 0.594000
v 0.253000 0.255000 0.580000
v 0.239000 0.255000 0.566000
v 0.299688 0.074688 0.580000
v 0.309587 0.084587 0.594000
v 0.319487 0.094487 0.580000
v 0.309587 0.084587 0.566000
v 0.480000 -0.000000 0.580000
v 0.480000 0.014000 0.594000
v 0.480000 0.028000 0.580000
v 0.480000 0.014000 0.566000
v 0.660312 0.074688 0.580000
v 0.650413 0.084587 0.594000
v 0.640513 0.094487 0.580000
v 0.650413 0.084587 0.566000
v 0.735000 0.255000 0.580000
v 0.721000 0.255000 0.594000
v 0.707000 0.255000 0.580000
v 0.721000 0.255000 0.566000
v 0.660312 0.435312 0.580000
v 0.650413 0.425413 0.594000
v 0.640513 0.415513 0.580000
v 0.650413 0.425413 0.566000
vn -0.8589 -0.2791 -0.4294
vn -0.5308 -0.7306 -0.4294
vn -0.0000 -0.9031 -0.4294
vn 0.5308 -0.7306 -0.4294
vn 0.8589 -0.2791 -0.4294
vn 0.8589 0.2791 -0.4294
vn 0.5308 0.7306 -0.4294
vn -0.0000 0.9031 -0.4294
vn -0.5308 0.7306 -0.4294
vn -0.8589 0.2791 -0.4294
vn -0.8589 -0.2791 0.4294
vn -0.5308 -0.7306 0.4294
vn -0.0000 -0.9031 0.4294
vn 0.5308 -0.7306 0.4294
vn 0.8589 -0.2791 0.4294
vn 0.8589 0.2791 0.4294
vn 0.5308 0.7306 0.4294
vn -0.0000 0.9031 0.4294
vn -0.5308 0.7306 0.4294
vn -0.8589 0.2791 0.4294
vn -0.8090 -0.5878 -0.0000
vn -1.0000 -0.0000 -0.0000
vn -0.3090 -0.9511 -0.0000
vn 0.3090 -0.9511 -0.0000
vn 0.8090 -0.5878 -0.0000
vn 1.0000 -0.0000 -0.0000
vn 0.8090 0.5878 -0.0000
vn 0.3090 0.9511 -0.0000
vn -0.3090 0.9511 -0.0000
vn -0.8090 0.5878 -0.0000
vn -0.0000 -0.0000 -1.0000
vn -0.0000 -0.0000 1.0000
vn -0.0000 1.0000 -0.0000
vn -0.1215 0.1215 0.9851
vn -0.0000 0.1719 0.9851
vn -0.0000 -1.0000 -0.0000
vn 0.7071 -0.7071 -0.0000
vn -0.0000 0.1719 -0.9851
vn -0.1215 0.1215 -0.9851
vn -0.7071 0.7071 -0.0000
vn -0.1719 -0.0000 0.9851
vn -0.1719 -0.0000 -0.9851
vn -0.7071 -0.7071 -0.0000
vn -0.1215 -0.1215 0.9851
vn -0.1215 -0.1215 -0.9851
vn -0.0000 -0.1719 0.9851
vn 0.7071 0.7071 -0.0000
vn -0.0000 -0.1719 -0.9851
vn 0.1215 -0.1215 0.9851
vn 0.1215 -0.1215 -0.9851
vn 0.1719 -0.0000 0.9851
vn 0.1719 -0.0000 -0.9851
vn 0.1215 0.1215 0.9851
vn 0.1215 0.1215 -0.9851
vt 0.444763 -1.533333
vt 0.473355 -1.483333
vt 0.445827 -1.483333
vt 0.488144 -1.533333
vt 0.470822 -1.533333
vt 0.484151 -1.533333
vt 0.492324 -1.483333
vt 0.437808 -1.533333
vt 0.489526 -1.483333
vt 0.375000 -1.533333
vt 0.439634 -1.483333
vt 0.354379 -1.533333
vt 0.370179 -1.483333
vt 0.364426 -1.533333
vt 0.349493 -1.483333
vt 0.385862 -1.483333
vt 0.361176 -1.483333
vt 0.387559 -1.533333
vt 0.415461 -1.483333
vt 0.415763 -1.533333
vt 0.444763 -1.433333
vt 0.470822 -1.433333
vt 0.484151 -1.433333
vt 0.488144 -1.433333
vt 0.437808 -1.433333
vt 0.354379 -1.433333
vt 0.375000 -1.433333
vt 0.364426 -1.433333
vt 0.387559 -1.433333
vt 0.415763 -1.433333
vt 0.444763 -0.550000
vt 0.470822 -0.550000
vt 0.488144 -0.550000
vt 0.484151 -0.550000
vt 0.437808 -0.550000
vt 0.375000 -0.550000
vt 0.354379 -0.550000
vt 0.364426 -0.550000
vt 0.387559 -0.550000
vt 0.415763 -0.550000
vt 0.473355 -0.500000
vt 0.445827 -0.500000
vt 0.492324 -0.500000
vt 0.489526 -0.500000
vt 0.370179 -0.500000
vt 0.439634 -0.500000
vt 0.361176 -0.500000
vt 0.349493 -0.500000
vt 0.385862 -0.500000
vt 0.415461 -0.500000
vt 0.444763 -0.450000
vt 0.488144 -0.450000
vt 0.470822 -0.450000
vt 0.484151 -0.450000
vt 0.437808 -0.450000
vt 0.375000 -0.450000
vt 0.354379 -0.450000
vt 0.364426 -0.450000
vt 0.415763 -0.450000
vt 0.387559 -0.450000
vt 0.444763 0.450000
vt 0.470822 0.450000
vt 0.488144 0.450000
vt 0.484151 0.450000
vt 0.437808 0.450000
vt 0.375000 0.450000
vt 0.354379 0.450000
vt 0.364426 0.450000
vt 0.387559 0.450000
vt 0.415763 0.450000
vt 0.473355 0.500000
vt 0.445827 0.500000
vt 0.492324 0.500000
vt 0.489526 0.500000
vt 0.439634 0.500000
vt 0.370179 0.500000
vt 0.361176 0.500000
vt 0.349493 0.500000
vt 0.385862 0.500000
vt 0.415461 0.500000
vt 0.444763 0.550000
vt 0.488144 0.550000
vt 0.470822 0.550000
vt 0.484151 0.550000
vt 0.375000 0.550000
vt 0.437808 0.550000
vt 0.354379 0.550000
vt 0.364426 0.550000
vt 0.415763 0.550000
vt 0.387559 0.550000
vt 0.444763 1.433333
vt 0.470822 1.433333
vt 0.488144 1.433333
vt 0.484151 1.433333
vt 0.437808 1.433333
vt 0.375000 1.433333
vt 0.354379 1.433333
vt 0.364426 1.433333
vt 0.387559 1.433333
vt 0.415763 1.433333
vt 0.445827 1.483333
vt 0.492324 1.483333
vt 0.473355 1.483333
vt 0.489526 1.483333
vt 0.370179 1.483333
vt 0.439634 1.483333
vt 0.361176 1.483333
vt 0.349493 1.483333
vt 0.385862 1.483333
vt 0.415461 1.483333
vt 0.444763 1.533333
vt 0.488144 1.533333
vt 0.470822 1.533333
vt 0.484151 1.533333
vt 0.375000 1.533333
vt 0.437808 1.533333
vt 0.364426 1.533333
vt 0.354379 1.533333
vt 0.387559 1.533333
vt 0.415763 1.533333
vt 0.370179 -0.966667
vt 0.407813 -0.943333
vt 0.372391 -0.943333
vt 0.374669 -0.966667
vt 0.408410 -0.966667
vt 0.372391 -0.990000
vt 0.407813 -0.990000
vt 0.446851 -0.966667
vt 0.407236 -0.966667
vt 0.445896 -0.943333
vt 0.444907 -0.966667
vt 0.445896 -0.990000
vt 0.482074 -0.966667
vt 0.479417 -0.943333
vt 0.479417 -0.990000
vt 0.500000 -0.966667
vt 0.495359 -0.943333
vt 0.476690 -0.966667
vt 0.490726 -0.966667
vt 0.495359 -0.990000
vt 0.457551 -0.943333
vt 0.454235 -0.966667
vt 0.457551 -0.990000
vt 0.365066 -0.966667
vt 0.461127 -0.966667
vt 0.369847 -0.943333
vt 0.374373 -0.966667
vt 0.369847 -0.990000
vt 0.345959 -0.966667
vt 0.350124 -0.943333
vt 0.354324 -0.966667
vt 0.350124 -0.990000
vt 0.370179 0.966667
vt 0.407813 0.990000
vt 0.372391 0.990000
vt 0.408410 0.966667
vt 0.374669 0.966667
vt 0.372391 0.943333
vt 0.407813 0.943333
vt 0.446851 0.966667
vt 0.407236 0.966667
vt 0.445896 0.990000
vt 0.444907 0.966667
vt 0.482074 0.966667
vt 0.479417 0.990000
vt 0.479417 0.943333
vt 0.445896 0.943333
vt 0.500000 0.966667
vt 0.495359 0.990000
vt 0.476690 0.966667
vt 0.490726 0.966667
vt 0.495359 0.943333
vt 0.461127 0.966667
vt 0.457551 0.990000
vt 0.454235 0.966667
vt 0.457551 0.943333
vt 0.365066 0.966667
vt 0.369847 0.990000
vt 0.374373 0.966667
vt 0.369847 0.943333
vt 0.350124 0.990000
vt 0.354324 0.966667
vt 0.350124 0.943333
vt 0.345959 0.966667
vt 0.062192 -1.533333
vt 0.129821 -1.483333
vt 0.125000 -1.533333
vt 0.015849 -1.533333
vt 0.060366 -1.483333
vt 0.007676 -1.483333
vt 0.010474 -1.483333
vt 0.029178 -1.533333
vt 0.011856 -1.533333
vt 0.055237 -1.533333
vt 0.026645 -1.483333
vt 0.084237 -1.533333
vt 0.054173 -1.483333
vt 0.112441 -1.533333
vt 0.084539 -1.483333
vt 0.135574 -1.533333
vt 0.114138 -1.483333
vt 0.150507 -1.483333
vt 0.138824 -1.483333
vt 0.145621 -1.533333
vt 0.062192 -1.433333
vt 0.125000 -1.433333
vt 0.015849 -1.433333
vt 0.029178 -1.433333
vt 0.011856 -1.433333
vt 0.055237 -1.433333
vt 0.084237 -1.433333
vt 0.135574 -1.433333
vt 0.112441 -1.433333
vt 0.145621 -1.433333
vt 0.125000 -0.550000
vt 0.062192 -0.550000
vt 0.015849 -0.550000
vt 0.011856 -0.550000
vt 0.029178 -0.550000
vt 0.055237 -0.550000
vt 0.084237 -0.550000
vt 0.112441 -0.550000
vt 0.135574 -0.550000
vt 0.145621 -0.550000
vt 0.060366 -0.500000
vt 0.129821 -0.500000
vt 0.007676 -0.500000
vt 0.010474 -0.500000
vt 0.026645 -0.500000
vt 0.054173 -0.500000
vt 0.114138 -0.500000
vt 0.084539 -0.500000
vt 0.138824 -0.500000
vt 0.150507 -0.500000
vt 0.125000 -0.450000
vt 0.062192 -0.450000
vt 0.015849 -0.450000
vt 0.011856 -0.450000
vt 0.029178 -0.450000
vt 0.084237 -0.450000
vt 0.055237 -0.450000
vt 0.135574 -0.450000
vt 0.112441 -0.450000
vt 0.145621 -0.450000
vt 0.125000 0.450000
vt 0.062192 0.450000
vt 0.015849 0.450000
vt 0.011856 0.450000
vt 0.029178 0.450000
vt 0.055237 0.450000
vt 0.084237 0.450000
vt 0.112441 0.450000
vt 0.135574 0.450000
vt 0.145621 0.450000
vt 0.129821 0.500000
vt 0.060366 0.500000
vt 0.007676 0.500000
vt 0.010474 0.500000
vt 0.026645 0.500000
vt 0.054173 0.500000
vt 0.114138 0.500000
vt 0.084539 0.500000
vt 0.138824 0.500000
vt 0.150507 0.500000
vt 0.125000 0.550000
vt 0.062192 0.550000
vt 0.015849 0.550000
vt 0.011856 0.550000
vt 0.055237 0.550000
vt 0.029178 0.550000
vt 0.084237 0.550000
vt 0.135574 0.550000
vt 0.112441 0.550000
vt 0.145621 0.550000
vt 0.125000 1.433333
vt 0.062192 1.433333
vt 0.015849 1.433333
vt 0.011856 1.433333
vt 0.029178 1.433333
vt 0.055237 1.433333
vt 0.084237 1.433333
vt 0.112441 1.433333
vt 0.135574 1.433333
vt 0.145621 1.433333
vt 0.129821 1.483333
vt 0.060366 1.483333
vt 0.007676 1.483333
vt 0.010474 1.483333
vt 0.054173 1.483333
vt 0.026645 1.483333
vt 0.084539 1.483333
vt 0.114138 1.483333
vt 0.138824 1.483333
vt 0.150507 1.483333
vt 0.125000 1.533333
vt 0.015849 1.533333
vt 0.062192 1.533333
vt 0.029178 1.533333
vt 0.011856 1.533333
vt 0.055237 1.533333
vt 0.084237 1.533333
vt 0.135574 1.533333
vt 0.112441 1.533333
vt 0.145621 1.533333
vt 0.154041 -0.966667
vt 0.127609 -0.943333
vt 0.129821 -0.966667
vt 0.149876 -0.943333
vt 0.125331 -0.966667
vt 0.145676 -0.966667
vt 0.127609 -0.990000
vt 0.149876 -0.990000
vt 0.134934 -0.966667
vt 0.130153 -0.943333
vt 0.125627 -0.966667
vt 0.130153 -0.990000
vt 0.038872 -0.966667
vt 0.042449 -0.943333
vt 0.045765 -0.966667
vt 0.042449 -0.990000
vt 1.000000 -0.966667
vt 1.042449 -0.943333
vt 1.038872 -0.966667
vt 0.004641 -0.943333
vt 0.004641 -0.990000
vt 1.004641 -0.990000
vt 1.042449 -0.990000
vt 1.017926 -0.966667
vt 1.004641 -0.943333
vt 0.020583 -0.943333
vt 0.009274 -0.966667
vt 0.023310 -0.966667
vt 1.020583 -0.990000
vt 0.017926 -0.966667
vt 0.054104 -0.943333
vt 0.055093 -0.966667
vt 0.020583 -0.990000
vt 0.054104 -0.990000
vt 0.053149 -0.966667
vt 0.092187 -0.943333
vt 0.091590 -0.966667
vt 0.092187 -0.990000
vt 0.092764 -0.966667
vt 0.154041 0.966667
vt 0.127609 0.990000
vt 0.129821 0.966667
vt 0.149876 0.990000
vt 0.125331 0.966667
vt 0.145676 0.966667
vt 0.127609 0.943333
vt 0.149876 0.943333
vt 0.134934 0.966667
vt 0.130153 0.990000
vt 0.125627 0.966667
vt 0.130153 0.943333
vt 0.038872 0.966667
vt 0.045765 0.966667
vt 0.042449 0.943333
vt 1.000000 0.966667
vt 1.042449 0.990000
vt 1.038872 0.966667
vt 0.004641 0.990000
vt 0.042449 0.990000
vt 0.009274 0.966667
vt 1.042449 0.943333
vt 1.017926 0.966667
vt 1.004641 0.990000
vt 0.020583 0.990000
vt 0.023310 0.966667
vt 0.004641 0.943333
vt 1.020583 0.943333
vt 1.004641 0.943333
vt 0.017926 0.966667
vt 0.054104 0.990000
vt 0.055093 0.966667
vt 0.020583 0.943333
vt 0.054104 0.943333
vt 0.053149 0.966667
vt 0.092187 0.990000
vt 0.092187 0.943333
vt 0.092764 0.966667
vt 0.091590 0.966667
vt 1.020583 -0.943333
vt 1.020583 0.990000
s 0
f 41/45/7 52/46/7 51/47/7
f 43/48/8 52/46/8 42/49/8
f 44/50/9 53/51/9 43/48/9
f 45/52/10 54/53/10 44/50/10
f 46/54/11 55/55/11 45/52/11
f 47/56/12 56/57/12 46/54/12
f 48/58/13 57/59/13 47/56/13
f 48/58/14 59/60/14 58/61/14
f 49/62/15 60/63/15 59/60/15
f 41/45/16 60/63/16 50/64/16
f 52/46/17 61/65/17 51/47/17
f 53/51/18 62/66/18 52/46/18
f 53/51/19 64/67/19 63/68/19
f 55/55/20 64/67/20 54/53/20
f 56/57/21 65/69/21 55/55/21
f 56/57/22 67/70/22 66/71/22
f 58/61/23 67/70/23 57/59/23
f 59/60/24 68/72/24 58/61/24
f 60/63/25 69/73/25 59/60/25
f 51/47/26 70/74/26 60/63/26
s 1
f 62/66/27 71/75/28 61/65/28
f 63/68/29 72/76/27 62/66/27
f 64/67/30 73/77/29 63/68/29
f 65/69/31 74/78/30 64/67/30
f 66/71/32 75/79/31 65/69/31
f 67/70/33 76/80/32 66/71/32
f 68/72/34 77/81/33 67/70/33
f 69/73/35 78/82/34 68/72/34
f 70/74/36 79/83/35 69/73/35
f 61/65/28 80/84/36 70/74/36
s 0
f 71/75/7 82/85/7 81/86/7
f 73/77/8 82/85/8 72/76/8
f 74/78/9 83/87/9 73/77/9
f 75/79/10 84/88/10 74/78/10
f 75/79/11 86/89/11 85/90/11
f 77/81/12 86/89/12 76/80/12
f 77/81/13 88/91/13 87/92/13
f 78/82/14 89/93/14 88/91/14
f 80/84/15 89/93/15 79/83/15
f 80/84/16 81/86/16 90/94/16
f 82/85/17 91/95/17 81/86/17
f 82/85/18 93/96/18 92/97/18
f 83/87/19 94/98/19 93/96/19
f 85/90/20 94/98/20 84/88/20
f 86/89/21 95/99/21 85/90/21
f 87/92/22 96/100/22 86/89/22
f 88/91/23 97/101/23 87/92/23
f 89/93/24 98/102/24 88/91/24
f 89/93/25 100/103/25 99/104/25
f 81/86/26 100/103/26 90/94/26
s 1
f 92/97/27 101/105/28 91/95/28
f 93/96/29 102/106/27 92/97/27
f 94/98/30 103/107/29 93/96/29
f 95/99/31 104/108/30 94/98/30
f 96/100/32 105/109/31 95/99/31
f 97/101/33 106/110/32 96/100/32
f 98/102/34 107/111/33 97/101/33
f 99/104/35 108/112/34 98/102/34
f 100/103/36 109/113/35 99/104/35
f 91/95/28 110/114/36 100/103/36
s 0
f 101/105/7 112/115/7 111/116/7
f 103/107/8 112/115/8 102/106/8
f 104/108/9 113/117/9 103/107/9
f 105/109/10 114/118/10 104/108/10
f 106/110/11 115/119/11 105/109/11
f 107/111/12 116/120/12 106/110/12
f 107/111/13 118/121/13 117/122/13
f 108/112/14 119/123/14 118/121/14
f 110/114/15 119/123/15 109/113/15
f 110/114/16 111/116/16 120/124/16
f 112/115/17 121/125/17 111/116/17
f 112/115/18 123/126/18 122/127/18
f 113/117/19 124/128/19 123/126/19
f 115/119/20 124/128/20 114/118/20
f 115/119/21 126/129/21 125/130/21
f 117/122/22 126/129/22 116/120/22
f 118/121/23 127/131/23 117/122/23
f 119/123/24 128/132/24 118/121/24
f 119/123/25 130/133/25 129/134/25
f 111/116/26 130/133/26 120/124/26
s 1
f 122/127/27 131/135/28 121/125/28
f 123/126/29 132/136/27 122/127/27
f 124/128/30 133/137/29 123/126/29
f 125/130/31 134/138/30 124/128/30
f 126/129/32 135/139/31 125/130/31
f 127/131/33 136/140/32 126/129/32
f 128/132/34 137/141/33 127/131/33
f 129/134/35 138/142/34 128/132/34
f 130/133/36 139/143/35 129/134/35
f 121/125/28 140/144/36 130/133/36
s 0
f 132/136/7 141/145/7 131/135/7
f 132/136/8 143/146/8 142/147/8
f 134/138/9 143/146/9 133/137/9
f 135/139/10 144/148/10 134/138/10
f 135/139/11 146/149/11 145/150/11
f 137/141/12 146/149/12 136/140/12
f 137/141/13 148/151/13 147/152/13
f 138/142/14 149/153/14 148/151/14
f 140/144/15 149/153/15 139/143/15
f 131/135/16 150/154/16 140/144/16
f 142/147/17 151/155/17 141/145/17
f 142/147/18 153/156/18 152/157/18
f 143/146/19 154/158/19 153/156/19
f 145/150/20 154/158/20 144/148/20
f 145/150/21 156/159/21 155/160/21
f 147/152/22 156/159/22 146/149/22
f 147/152/23 158/161/23 157/162/23
f 149/153/24 158/161/24 148/151/24
f 150/154/25 159/163/25 149/153/25
f 141/145/26 160/164/26 150/154/26
f 48/58/37 44/50/37 42/49/37
f 158/161/38 159/163/38 153/156/38
s 1
f 161/165/39 166/166/40 162/167/41
f 166/166/40 163/168/42 162/167/41
f 167/169/43 164/170/44 163/168/42
f 168/171/45 161/165/39 164/170/44
f 169/172/28 166/166/40 165/173/46
f 170/174/47 167/169/43 166/166/40
f 171/175/32 168/171/45 167/169/43
f 172/176/48 165/173/46 168/171/45
f 173/177/49 170/174/47 169/172/28
f 174/178/50 171/175/32 170/174/47
f 171/175/32 176/179/51 172/176/48
f 172/176/48 173/177/49 169/172/28
f 177/180/42 174/178/50 173/177/49
f 178/181/52 175/182/53 174/178/50
f 179/183/39 176/179/51 175/182/53
f 180/184/54 173/177/49 176/179/51
f 177/180/42 182/185/55 178/181/52
f 182/185/55 179/183/39 178/181/52
f 183/186/46 180/184/54 179/183/39
f 184/187/56 177/180/42 180/184/54
f 185/188/32 182/185/55 181/189/43
f 186/190/57 183/186/46 182/185/55
f 187/191/28 184/187/56 183/186/46
f 188/192/58 181/189/43 184/187/56
f 189/193/53 186/190/57 185/188/32
f 190/194/59 187/191/28 186/190/57
f 191/195/49 188/192/58 187/191/28
f 192/196/60 185/188/32 188/192/58
f 161/165/39 190/194/59 189/193/53
f 162/167/41 191/195/49 190/194/59
f 191/195/49 164/170/44 192/196/60
f 164/170/44 189/193/53 192/196/60
f 193/197/39 198/198/40 194/199/41
f 194/199/41 199/200/43 195/201/42
f 199/200/43 196/202/44 195/201/42
f 200/203/45 193/197/39 196/202/44
f 201/204/28 198/198/40 197/205/46
f 202/206/47 199/200/43 198/198/40
f 203/207/32 200/203/45 199/200/43
f 200/203/45 201/204/28 197/205/46
f 205/208/49 202/206/47 201/204/28
f 206/209/50 203/207/32 202/206/47
f 203/207/32 208/210/51 204/211/48
f 204/211/48 205/208/49 201/204/28
f 209/212/42 206/209/50 205/208/49
f 210/213/52 207/214/53 206/209/50
f 211/215/39 208/210/51 207/214/53
f 212/216/54 205/208/49 208/210/51
f 213/217/43 210/213/52 209/212/42
f 214/218/55 211/215/39 210/213/52
f 215/219/46 212/216/54 211/215/39
f 216/220/56 209/212/42 212/216/54
f 217/221/32 214/218/55 213/217/43
f 218/222/57 215/219/46 214/218/55
f 219/223/28 216/220/56 215/219/46
f 220/224/58 213/217/43 216/220/56
f 217/221/32 222/225/59 218/222/57
f 222/225/59 219/223/28 218/222/57
f 223/226/49 220/224/58 219/223/28
f 224/227/60 217/221/32 220/224/58
f 193/197/39 222/225/59 221/228/53
f 194/199/41 223/226/49 222/225/59
f 195/201/42 224/227/60 223/226/49
f 196/202/44 221/228/53 224/227/60
s 0
f 226/229/7 235/230/7 225/231/7
f 227/232/8 236/233/8 226/229/8
f 227/232/9 238/234/9 237/235/9
f 229/236/10 238/234/10 228/237/10
f 230/238/11 239/239/11 229/236/11
f 231/240/12 240/241/12 230/238/12
f 232/242/13 241/243/13 231/240/13
f 233/244/14 242/245/14 232/242/14
f 233/244/15 244/246/15 243/247/15
f 225/231/16 244/246/16 234/248/16
f 235/230/17 246/249/17 245/250/17
f 236/233/18 247/251/18 246/249/18
f 238/234/19 247/251/19 237/235/19
f 238/234/20 249/252/20 248/253/20
f 240/241/21 249/252/21 239/239/21
f 241/243/22 250/254/22 240/241/22
f 242/245/23 251/255/23 241/243/23
f 242/245/24 253/256/24 252/257/24
f 244/246/25 253/256/25 243/247/25
f 235/230/26 254/258/26 244/246/26
s 1
f 246/249/27 255/259/28 245/250/28
f 247/251/29 256/260/27 246/249/27
f 248/253/30 257/261/29 247/251/29
f 249/252/31 258/262/30 248/253/30
f 250/254/32 259/263/31 249/252/31
f 251/255/33 260/264/32 250/254/32
f 252/257/34 261/265/33 251/255/33
f 253/256/35 262/266/34 252/257/34
f 254/258/36 263/267/35 253/256/35
f 245/250/28 264/268/36 254/258/36
s 0
f 255/259/7 266/269/7 265/270/7
f 257/261/8 266/269/8 256/260/8
f 257/261/9 268/271/9 267/272/9
f 259/263/10 268/271/10 258/262/10
f 260/264/11 269/273/11 259/263/11
f 261/265/12 270/274/12 260/264/12
f 261/265/13 272/275/13 271/276/13
f 263/267/14 272/275/14 262/266/14
f 264/268/15 273/277/15 263/267/15
f 255/259/16 274/278/16 264/268/16
f 266/269/17 275/279/17 265/270/17
f 267/272/18 276/280/18 266/269/18
f 268/271/19 277/281/19 267/272/19
f 269/273/20 278/282/20 268/271/20
f 270/274/21 279/283/21 269/273/21
f 270/274/22 281/284/22 280/285/22
f 272/275/23 281/284/23 271/276/23
f 272/275/24 283/286/24 282/287/24
f 273/277/25 284/288/25 283/286/25
f 265/270/26 284/288/26 274/278/26
s 1
f 276/280/27 285/289/28 275/279/28
f 277/281/29 286/290/27 276/280/27
f 278/282/30 287/291/29 277/281/29
f 279/283/31 288/292/30 278/282/30
f 280/285/32 289/293/31 279/283/31
f 281/284/33 290/294/32 280/285/32
f 282/287/34 291/295/33 281/284/33
f 283/286/35 292/296/34 282/287/34
f 284/288/36 293/297/35 283/286/35
f 275/279/28 294/298/36 284/288/36
s 0
f 286/290/7 295/299/7 285/289/7
f 287/291/8 296/300/8 286/290/8
f 287/291/9 298/301/9 297/302/9
f 289/293/10 298/301/10 288/292/10
f 290/294/11 299/303/11 289/293/11
f 291/295/12 300/304/12 290/294/12
f 291/295/13 302/305/13 301/306/13
f 293/297/14 302/305/14 292/296/14
f 294/298/15 303/307/15 293/297/15
f 285/289/16 304/308/16 294/298/16
f 296/300/17 305/309/17 295/299/17
f 297/302/18 306/310/18 296/300/18
f 298/301/19 307/311/19 297/302/19
f 299/303/20 308/312/20 298/301/20
f 299/303/21 310/313/21 309/314/21
f 300/304/22 311/315/22 310/313/22
f 302/305/23 311/315/23 301/306/23
f 302/305/24 313/316/24 312/317/24
f 303/307/25 314/318/25 313/316/25
f 295/299/26 314/318/26 304/308/26
s 1
f 306/310/27 315/319/28 305/309/28
f 307/311/29 316/320/27 306/310/27
f 308/312/30 317/321/29 307/311/29
f 309/314/31 318/322/30 308/312/30
f 310/313/32 319/323/31 309/314/31
f 311/315/33 320/324/32 310/313/32
f 312/317/34 321/325/33 311/315/33
f 313/316/35 322/326/34 312/317/34
f 314/318/36 323/327/35 313/316/35
f 305/309/28 324/328/36 314/318/36
s 0
f 316/320/7 325/329/7 315/319/7
f 317/321/8 326/330/8 316/320/8
f 317/321/9 328/331/9 327/332/9
f 319/323/10 328/331/10 318/322/10
f 319/323/11 330/333/11 329/334/11
f 321/325/12 330/333/12 320/324/12
f 322/326/13 331/335/13 321/325/13
f 323/327/14 332/336/14 322/326/14
f 324/328/15 333/337/15 323/327/15
f 324/328/16 325/329/16 334/338/16
f 326/330/17 335/339/17 325/329/17
f 326/330/18 337/340/18 336/341/18
f 328/331/19 337/340/19 327/332/19
f 328/331/20 339/342/20 338/343/20
f 329/334/21 340/344/21 339/342/21
f 331/335/22 340/344/22 330/333/22
f 332/336/23 341/345/23 331/335/23
f 332/336/24 343/346/24 342/347/24
f 333/337/25 344/348/25 343/346/25
f 325/329/26 344/348/26 334/338/26
f 230/238/37 228/237/37 226/229/37
f 337/340/38 341/345/38 343/346/38
s 1
f 349/349/46 346/350/41 345/351/39
f 350/352/40 347/353/42 346/350/41
f 351/354/43 348/355/44 347/353/42
f 352/356/45 345/351/39 348/355/44
f 353/357/28 350/352/40 349/349/46
f 354/358/47 351/354/43 350/352/40
f 355/359/32 352/356/45 351/354/43
f 356/360/48 349/349/46 352/356/45
f 357/361/49 354/358/47 353/357/28
f 358/362/50 355/359/32 354/358/47
f 359/363/53 356/360/48 355/359/32
f 360/364/51 353/357/28 356/360/48
f 361/365/42 358/366/50 357/367/49
f 362/368/52 359/363/53 358/362/50
f 359/363/53 364/369/54 360/364/51
f 364/370/54 357/367/49 360/371/51
f 365/372/43 362/373/52 361/365/42
f 366/374/55 363/375/39 362/368/52
f 367/376/46 364/369/54 363/375/39
f 368/377/56 361/365/42 364/370/54
f 365/378/43 370/379/57 366/374/55
f 366/374/55 371/380/28 367/376/46
f 371/380/28 368/381/56 367/376/46
f 372/382/58 365/378/43 368/381/56
f 369/383/32 374/384/59 370/379/57
f 374/384/59 371/380/28 370/379/57
f 375/385/49 372/382/58 371/380/28
f 376/386/60 369/383/32 372/382/58
f 345/351/39 374/384/59 373/387/53
f 346/350/41 375/385/49 374/384/59
f 347/353/42 376/386/60 375/385/49
f 376/386/60 345/351/39 373/387/53
f 381/388/46 378/389/41 377/390/39
f 382/391/40 379/392/42 378/389/41
f 383/393/43 380/394/44 379/392/42
f 384/395/45 377/390/39 380/394/44
f 385/396/28 382/391/40 381/388/46
f 386/397/47 383/393/43 382/391/40
f 387/398/32 384/395/45 383/393/43
f 388/399/48 381/388/46 384/395/45
f 389/400/49 386/397/47 385/396/28
f 386/397/47 391/401/53 387/398/32
f 391/401/53 388/399/48 387/398/32
f 392/402/51 385/396/28 388/399/48
f 393/403/42 390/404/50 389/405/49
f 394/406/52 391/401/53 390/407/50
f 395/408/39 392/402/51 391/401/53
f 392/409/51 393/403/42 389/405/49
f 397/410/43 394/411/52 393/403/42
f 398/412/55 395/408/39 394/406/52
f 399/413/46 396/414/54 395/408/39
f 400/415/56 393/403/42 396/416/54
f 397/417/43 402/418/57 398/412/55
f 398/412/55 403/419/28 399/413/46
f 403/419/28 400/420/56 399/413/46
f 404/421/58 397/417/43 400/420/56
f 401/422/32 406/423/59 402/418/57
f 406/423/59 403/419/28 402/418/57
f 403/419/28 408/424/60 404/421/58
f 408/424/60 401/422/32 404/421/58
f 377/390/39 406/423/59 405/425/53
f 378/389/41 407/426/49 406/423/59
f 379/392/42 408/424/60 407/426/49
f 408/424/60 377/390/39 405/425/53
s 0
f 41/45/7 42/49/7 52/46/7
f 43/48/8 53/51/8 52/46/8
f 44/50/9 54/53/9 53/51/9
f 45/52/10 55/55/10 54/53/10
f 46/54/11 56/57/11 55/55/11
f 47/56/12 57/59/12 56/57/12
f 48/58/13 58/61/13 57/59/13
f 48/58/14 49/62/14 59/60/14
f 49/62/15 50/64/15 60/63/15
f 41/45/16 51/47/16 60/63/16
f 52/46/17 62/66/17 61/65/17
f 53/51/18 63/68/18 62/66/18
f 53/51/19 54/53/19 64/67/19
f 55/55/20 65/69/20 64/67/20
f 56/57/21 66/71/21 65/69/21
f 56/57/22 57/59/22 67/70/22
f 58/61/23 68/72/23 67/70/23
f 59/60/24 69/73/24 68/72/24
f 60/63/25 70/74/25 69/73/25
f 51/47/26 61/65/26 70/74/26
s 1
f 62/66/27 72/76/27 71/75/28
f 63/68/29 73/77/29 72/76/27
f 64/67/30 74/78/30 73/77/29
f 65/69/31 75/79/31 74/78/30
f 66/71/32 76/80/32 75/79/31
f 67/70/33 77/81/33 76/80/32
f 68/72/34 78/82/34 77/81/33
f 69/73/35 79/83/35 78/82/34
f 70/74/36 80/84/36 79/83/35
f 61/65/28 71/75/28 80/84/36
s 0
f 71/75/7 72/76/7 82/85/7
f 73/77/8 83/87/8 82/85/8
f 74/78/9 84/88/9 83/87/9
f 75/79/10 85/90/10 84/88/10
f 75/79/11 76/80/11 86/89/11
f 77/81/12 87/92/12 86/89/12
f 77/81/13 78/82/13 88/91/13
f 78/82/14 79/83/14 89/93/14
f 80/84/15 90/94/15 89/93/15
f 80/84/16 71/75/16 81/86/16
f 82/85/17 92/97/17 91/95/17
f 82/85/18 83/87/18 93/96/18
f 83/87/19 84/88/19 94/98/19
f 85/90/20 95/99/20 94/98/20
f 86/89/21 96/100/21 95/99/21
f 87/92/22 97/101/22 96/100/22
f 88/91/23 98/102/23 97/101/23
f 89/93/24 99/104/24 98/102/24
f 89/93/25 90/94/25 100/103/25
f 81/86/26 91/95/26 100/103/26
s 1
f 92/97/27 102/106/27 101/105/28
f 93/96/29 103/107/29 102/106/27
f 94/98/30 104/108/30 103/107/29
f 95/99/31 105/109/31 104/108/30
f 96/100/32 106/110/32 105/109/31
f 97/101/33 107/111/33 106/110/32
f 98/102/34 108/112/34 107/111/33
f 99/104/35 109/113/35 108/112/34
f 100/103/36 110/114/36 109/113/35
f 91/95/28 101/105/28 110/114/36
s 0
f 101/105/7 102/106/7 112/115/7
f 103/107/8 113/117/8 112/115/8
f 104/108/9 114/118/9 113/117/9
f 105/109/10 115/119/10 114/118/10
f 106/110/11 116/120/11 115/119/11
f 107/111/12 117/122/12 116/120/12
f 107/111/13 108/112/13 118/121/13
f 108/112/14 109/113/14 119/123/14
f 110/114/15 120/124/15 119/123/15
f 110/114/16 101/105/16 111/116/16
f 112/115/17 122/127/17 121/125/17
f 112/115/18 113/117/18 123/126/18
f 113/117/19 114/118/19 124/128/19
f 115/119/20 125/130/20 124/128/20
f 115/119/21 116/120/21 126/129/21
f 117/122/22 127/131/22 126/129/22
f 118/121/23 128/132/23 127/131/23
f 119/123/24 129/134/24 128/132/24
f 119/123/25 120/124/25 130/133/25
f 111/116/26 121/125/26 130/133/26
s 1
f 122/127/27 132/136/27 131/135/28
f 123/126/29 133/137/29 132/136/27
f 124/128/30 134/138/30 133/137/29
f 125/130/31 135/139/31 134/138/30
f 126/129/32 136/140/32 135/139/31
f 127/131/33 137/141/33 136/140/32
f 128/132/34 138/142/34 137/141/33
f 129/134/35 139/143/35 138/142/34
f 130/133/36 140/144/36 139/143/35
f 121/125/28 131/135/28 140/144/36
s 0
f 132/136/7 142/147/7 141/145/7
f 132/136/8 133/137/8 143/146/8
f 134/138/9 144/148/9 143/146/9
f 135/139/10 145/150/10 144/148/10
f 135/139/11 136/140/11 146/149/11
f 137/141/12 147/152/12 146/149/12
f 137/141/13 138/142/13 148/151/13
f 138/142/14 139/143/14 149/153/14
f 140/144/15 150/154/15 149/153/15
f 131/135/16 141/145/16 150/154/16
f 142/147/17 152/157/17 151/155/17
f 142/147/18 143/146/18 153/156/18
f 143/146/19 144/148/19 154/158/19
f 145/150/20 155/160/20 154/158/20
f 145/150/21 146/149/21 156/159/21
f 147/152/22 157/162/22 156/159/22
f 147/152/23 148/151/23 158/161/23
f 149/153/24 159/163/24 158/161/24
f 150/154/25 160/164/25 159/163/25
f 141/145/26 151/155/26 160/164/26
f 42/49/37 41/45/37 50/64/37
f 50/64/37 49/62/37 42/49/37
f 49/62/37 48/58/37 42/49/37
f 48/58/37 47/56/37 46/54/37
f 46/54/37 45/52/37 44/50/37
f 44/50/37 43/48/37 42/49/37
f 48/58/37 46/54/37 44/50/37
f 159/163/38 160/164/38 151/155/38
f 151/155/38 152/157/38 159/163/38
f 152/157/38 153/156/38 159/163/38
f 153/156/38 154/158/38 157/162/38
f 154/158/38 155/160/38 157/162/38
f 155/160/38 156/159/38 157/162/38
f 157/162/38 158/161/38 153/156/38
s 1
f 161/165/39 165/173/46 166/166/40
f 166/166/40 167/169/43 163/168/42
f 167/169/43 168/171/45 164/170/44
f 168/171/45 165/173/46 161/165/39
f 169/172/28 170/174/47 166/166/40
f 170/174/47 171/175/32 167/169/43
f 171/175/32 172/176/48 168/171/45
f 172/176/48 169/172/28 165/173/46
f 173/177/49 174/178/50 170/174/47
f 174/178/50 175/182/53 171/175/32
f 171/175/32 175/182/53 176/179/51
f 172/176/48 176/179/51 173/177/49
f 177/180/42 178/181/52 174/178/50
f 178/181/52 179/183/39 175/182/53
f 179/183/39 180/184/54 176/179/51
f 180/184/54 177/180/42 173/177/49
f 177/180/42 181/189/43 182/185/55
f 182/185/55 183/186/46 179/183/39
f 183/186/46 184/187/56 180/184/54
f 184/187/56 181/189/43 177/180/42
f 185/188/32 186/190/57 182/185/55
f 186/190/57 187/191/28 183/186/46
f 187/191/28 188/192/58 184/187/56
f 188/192/58 185/188/32 181/189/43
f 189/193/53 190/194/59 186/190/57
f 190/194/59 191/195/49 187/191/28
f 191/195/49 192/196/60 188/192/58
f 192/196/60 189/193/53 185/188/32
f 161/165/39 162/167/41 190/194/59
f 162/167/41 163/168/42 191/195/49
f 191/195/49 163/168/42 164/170/44
f 164/170/44 161/165/39 189/193/53
f 193/197/39 197/205/46 198/198/40
f 194/199/41 198/198/40 199/200/43
f 199/200/43 200/203/45 196/202/44
f 200/203/45 197/205/46 193/197/39
f 201/204/28 202/206/47 198/198/40
f 202/206/47 203/207/32 199/200/43
f 203/207/32 204/211/48 200/203/45
f 200/203/45 204/211/48 201/204/28
f 205/208/49 206/209/50 202/206/47
f 206/209/50 207/214/53 203/207/32
f 203/207/32 207/214/53 208/210/51
f 204/211/48 208/210/51 205/208/49
f 209/212/42 210/213/52 206/209/50
f 210/213/52 211/215/39 207/214/53
f 211/215/39 212/216/54 208/210/51
f 212/216/54 209/212/42 205/208/49
f 213/217/43 214/218/55 210/213/52
f 214/218/55 215/219/46 211/215/39
f 215/219/46 216/220/56 212/216/54
f 216/220/56 213/217/43 209/212/42
f 217/221/32 218/222/57 214/218/55
f 218/222/57 219/223/28 215/219/46
f 219/223/28 220/224/58 216/220/56
f 220/224/58 217/221/32 213/217/43
f 217/221/32 221/228/53 222/225/59
f 222/225/59 223/226/49 219/223/28
f 223/226/49 224/227/60 220/224/58
f 224/227/60 221/228/53 217/221/32
f 193/197/39 194/199/41 222/225/59
f 194/199/41 195/201/42 223/226/49
f 195/201/42 196/202/44 224/227/60
f 196/202/44 193/197/39 221/228/53
s 0
f 226/229/7 236/233/7 235/230/7
f 227/232/8 237/235/8 236/233/8
f 227/232/9 228/237/9 238/234/9
f 229/236/10 239/239/10 238/234/10
f 230/238/11 240/241/11 239/239/11
f 231/240/12 241/243/12 240/241/12
f 232/242/13 242/245/13 241/243/13
f 233/244/14 243/247/14 242/245/14
f 233/244/15 234/248/15 244/246/15
f 225/231/16 235/230/16 244/246/16
f 235/230/17 236/233/17 246/249/17
f 236/233/18 237/235/18 247/251/18
f 238/234/19 248/253/19 247/251/19
f 238/234/20 239/239/20 249/252/20
f 240/241/21 250/254/21 249/252/21
f 241/243/22 251/255/22 250/254/22
f 242/245/23 252/257/23 251/255/23
f 242/245/24 243/247/24 253/256/24
f 244/246/25 254/258/25 253/256/25
f 235/230/26 245/250/26 254/258/26
s 1
f 246/249/27 256/260/27 255/259/28
f 247/251/29 257/261/29 256/260/27
f 248/253/30 258/262/30 257/261/29
f 249/252/31 259/263/31 258/262/30
f 250/254/32 260/264/32 259/263/31
f 251/255/33 261/265/33 260/264/32
f 252/257/34 262/266/34 261/265/33
f 253/256/35 263/267/35 262/266/34
f 254/258/36 264/268/36 263/267/35
f 245/250/28 255/259/28 264/268/36
s 0
f 255/259/7 256/260/7 266/269/7
f 257/261/8 267/272/8 266/269/8
f 257/261/9 258/262/9 268/271/9
f 259/263/10 269/273/10 268/271/10
f 260/264/11 270/274/11 269/273/11
f 261/265/12 271/276/12 270/274/12
f 261/265/13 262/266/13 272/275/13
f 263/267/14 273/277/14 272/275/14
f 264/268/15 274/278/15 273/277/15
f 255/259/16 265/270/16 274/278/16
f 266/269/17 276/280/17 275/279/17
f 267/272/18 277/281/18 276/280/18
f 268/271/19 278/282/19 277/281/19
f 269/273/20 279/283/20 278/282/20
f 270/274/21 280/285/21 279/283/21
f 270/274/22 271/276/22 281/284/22
f 272/275/23 282/287/23 281/284/23
f 272/275/24 273/277/24 283/286/24
f 273/277/25 274/278/25 284/288/25
f 265/270/26 275/279/26 284/288/26
s 1
f 276/280/27 286/290/27 285/289/28
f 277/281/29 287/291/29 286/290/27
f 278/282/30 288/292/30 287/291/29
f 279/283/31 289/293/31 288/292/30
f 280/285/32 290/294/32 289/293/31
f 281/284/33 291/295/33 290/294/32
f 282/287/34 292/296/34 291/295/33
f 283/286/35 293/297/35 292/296/34
f 284/288/36 294/298/36 293/297/35
f 275/279/28 285/289/28 294/298/36
s 0
f 286/290/7 296/300/7 295/299/7
f 287/291/8 297/302/8 296/300/8
f 287/291/9 288/292/9 298/301/9
f 289/293/10 299/303/10 298/301/10
f 290/294/11 300/304/11 299/303/11
f 291/295/12 301/306/12 300/304/12
f 291/295/13 292/296/13 302/305/13
f 293/297/14 303/307/14 302/305/14
f 294/298/15 304/308/15 303/307/15
f 285/289/16 295/299/16 304/308/16
f 296/300/17 306/310/17 305/309/17
f 297/302/18 307/311/18 306/310/18
f 298/301/19 308/312/19 307/311/19
f 299/303/20 309/314/20 308/312/20
f 299/303/21 300/304/21 310/313/21
f 300/304/22 301/306/22 311/315/22
f 302/305/23 312/317/23 311/315/23
f 302/305/24 303/307/24 313/316/24
f 303/307/25 304/308/25 314/318/25
f 295/299/26 305/309/26 314/318/26
s 1
f 306/310/27 316/320/27 315/319/28
f 307/311/29 317/321/29 316/320/27
f 308/312/30 318/322/30 317/321/29
f 309/314/31 319/323/31 318/322/30
f 310/313/32 320/324/32 319/323/31
f 311/315/33 321/325/33 320/324/32
f 312/317/34 322/326/34 321/325/33
f 313/316/35 323/327/35 322/326/34
f 314/318/36 324/328/36 323/327/35
f 305/309/28 315/319/28 324/328/36
s 0
f 316/320/7 326/330/7 325/329/7
f 317/321/8 327/332/8 326/330/8
f 317/321/9 318/322/9 328/331/9
f 319/323/10 329/334/10 328/331/10
f 319/323/11 320/324/11 330/333/11
f 321/325/12 331/335/12 330/333/12
f 322/326/13 332/336/13 331/335/13
f 323/327/14 333/337/14 332/336/14
f 324/328/15 334/338/15 333/337/15
f 324/328/16 315/319/16 325/329/16
f 326/330/17 336/341/17 335/339/17
f 326/330/18 327/332/18 337/340/18
f 328/331/19 338/343/19 337/340/19
f 328/331/20 329/334/20 339/342/20
f 329/334/21 330/333/21 340/344/21
f 331/335/22 341/345/22 340/344/22
f 332/336/23 342/347/23 341/345/23
f 332/336/24 333/337/24 343/346/24
f 333/337/25 334/338/25 344/348/25
f 325/329/26 335/339/26 344/348/26
f 226/229/37 225/231/37 232/242/37
f 225/231/37 234/248/37 232/242/37
f 234/248/37 233/244/37 232/242/37
f 232/242/37 231/240/37 230/238/37
f 230/238/37 229/236/37 228/237/37
f 228/237/37 227/232/37 226/229/37
f 232/242/37 230/238/37 226/229/37
f 343/346/38 344/348/38 335/339/38
f 335/339/38 336/341/38 337/340/38
f 337/340/38 338/343/38 339/342/38
f 339/342/38 340/344/38 341/345/38
f 341/345/38 342/347/38 343/346/38
f 343/346/38 335/339/38 337/340/38
f 337/340/38 339/342/38 341/345/38
s 1
f 349/349/46 350/352/40 346/350/41
f 350/352/40 351/354/43 347/353/42
f 351/354/43 352/356/45 348/355/44
f 352/356/45 349/349/46 345/351/39
f 353/357/28 354/358/47 350/352/40
f 354/358/47 355/359/32 351/354/43
f 355/359/32 356/360/48 352/356/45
f 356/360/48 353/357/28 349/349/46
f 357/361/49 358/362/50 354/358/47
f 358/362/50 359/363/53 355/359/32
f 359/363/53 360/364/51 356/360/48
f 360/364/51 357/361/49 353/357/28
f 361/365/42 362/373/52 358/366/50
f 362/368/52 363/375/39 359/363/53
f 359/363/53 363/375/39 364/369/54
f 364/370/54 361/365/42 357/367/49
f 365/372/43 366/427/55 362/373/52
f 366/374/55 367/376/46 363/375/39
f 367/376/46 368/381/56 364/369/54
f 368/377/56 365/372/43 361/365/42
f 365/378/43 369/383/32 370/379/57
f 366/374/55 370/379/57 371/380/28
f 371/380/28 372/382/58 368/381/56
f 372/382/58 369/383/32 365/378/43
f 369/383/32 373/387/53 374/384/59
f 374/384/59 375/385/49 371/380/28
f 375/385/49 376/386/60 372/382/58
f 376/386/60 373/387/53 369/383/32
f 345/351/39 346/350/41 374/384/59
f 346/350/41 347/353/42 375/385/49
f 347/353/42 348/355/44 376/386/60
f 376/386/60 348/355/44 345/351/39
f 381/388/46 382/391/40 378/389/41
f 382/391/40 383/393/43 379/392/42
f 383/393/43 384/395/45 380/394/44
f 384/395/45 381/388/46 377/390/39
f 385/396/28 386/397/47 382/391/40
f 386/397/47 387/398/32 383/393/43
f 387/398/32 388/399/48 384/395/45
f 388/399/48 385/396/28 381/388/46
f 389/400/49 390/407/50 386/397/47
f 386/397/47 390/407/50 391/401/53
f 391/401/53 392/402/51 388/399/48
f 392/402/51 389/400/49 385/396/28
f 393/403/42 394/411/52 390/404/50
f 394/406/52 395/408/39 391/401/53
f 395/408/39 396/414/54 392/402/51
f 392/409/51 396/416/54 393/403/42
f 397/410/43 398/428/55 394/411/52
f 398/412/55 399/413/46 395/408/39
f 399/413/46 400/420/56 396/414/54
f 400/415/56 397/410/43 393/403/42
f 397/417/43 401/422/32 402/418/57
f 398/412/55 402/418/57 403/419/28
f 403/419/28 404/421/58 400/420/56
f 404/421/58 401/422/32 397/417/43
f 401/422/32 405/425/53 406/423/59
f 406/423/59 407/426/49 403/419/28
f 403/419/28 407/426/49 408/424/60
f 408/424/60 405/425/53 401/422/32
f 377/390/39 378/389/41 406/423/59
f 378/389/41 379/392/42 407/426/49
f 379/392/42 380/394/44 408/424/60
f 408/424/60 380/394/44 377/390/39
