# Blender 5.0.1
# www.blender.org
mtllib raft_base_buoy.mtl
o wood
usemtl wood
v -1.000000 0.233096 -1.000000
v -1.000000 0.233096 -0.880000
v -1.000000 0.372194 -1.000000
v -1.000000 0.372194 -0.880000
v 1.000000 0.233096 -1.000000
v 1.000000 0.233096 -0.880000
v 1.000000 0.372194 -1.000000
v 1.000000 0.372194 -0.880000
v -1.000000 0.233096 0.880000
v -1.000000 0.233096 1.000000
v -1.000000 0.372194 0.880000
v -1.000000 0.372194 1.000000
v 1.000000 0.233096 0.880000
v 1.000000 0.233096 1.000000
v 1.000000 0.372194 0.880000
v 1.000000 0.372194 1.000000
v -1.000000 0.233096 -0.880000
v -1.000000 0.233096 0.880000
v -1.000000 0.372194 -0.880000
v -1.000000 0.372194 0.880000
v -0.880000 0.233096 -0.880000
v -0.880000 0.233096 0.880000
v -0.880000 0.372194 -0.880000
v -0.880000 0.372194 0.880000
v 0.880000 0.233096 -0.880000
v 0.880000 0.233096 0.880000
v 0.880000 0.372194 -0.880000
v 0.880000 0.372194 0.880000
v 1.000000 0.233096 -0.880000
v 1.000000 0.233096 0.880000
v 1.000000 0.372194 -0.880000
v 1.000000 0.372194 0.880000
v -0.880000 0.243032 -0.055000
v -0.880000 0.243032 0.055000
v -0.880000 0.362258 -0.055000
v -0.880000 0.362258 0.055000
v 0.880000 0.243032 -0.055000
v 0.880000 0.243032 0.055000
v 0.880000 0.362258 -0.055000
v 0.880000 0.362258 0.055000
v -0.055000 0.243032 -0.880000
v -0.055000 0.243032 0.880000
v -0.055000 0.362258 -0.880000
v -0.055000 0.362258 0.880000
v 0.055000 0.243032 -0.880000
v 0.055000 0.243032 0.880000
v 0.055000 0.362258 -0.880000
v 0.055000 0.362258 0.880000
vn -1.0000 -0.0000 -0.0000
vn -0.0000 1.0000 -0.0000
vn 1.0000 -0.0000 -0.0000
vn -0.0000 -1.0000 -0.0000
vn -0.0000 -0.0000 -1.0000
vn -0.0000 -0.0000 1.0000
vt -1.760000 0.480000
vt -2.000000 0.760000
vt -2.000000 0.480000
vt -2.000000 -1.760000
vt 2.000000 -2.000000
vt -2.000000 -2.000000
vt 1.760000 0.760000
vt 2.000000 0.480000
vt 2.000000 0.760000
vt 2.000000 1.760000
vt -2.000000 2.000000
vt 2.000000 2.000000
vt 1.760000 0.480000
vt -2.000000 1.760000
vt -1.760000 0.760000
vt 2.000000 -1.760000
vt -1.760000 -1.760000
vt -1.760000 1.760000
vt 1.760000 1.760000
vt 1.760000 -1.760000
vt 0.110000 0.500000
vt -0.110000 0.740000
vt -0.110000 0.500000
vt -1.760000 0.110000
vt 1.760000 -0.110000
vt -1.760000 -0.110000
vt 0.110000 0.740000
vt 1.760000 0.110000
vt -1.760000 0.740000
vt 1.760000 0.500000
vt 1.760000 0.740000
vt -1.760000 0.500000
vt -0.110000 1.760000
vt 0.110000 -1.760000
vt -0.110000 -1.760000
vt 0.110000 1.760000
s 0
f 2/1/1 3/2/1 1/3/1
f 4/4/2 7/5/2 3/6/2
f 8/7/3 5/8/3 7/9/3
f 6/10/4 1/11/4 5/12/4
f 7/2/5 1/8/5 3/9/5
f 4/2/6 6/8/6 8/9/6
f 10/8/1 11/7/1 9/13/1
f 12/11/2 15/10/2 11/14/2
f 16/2/3 13/1/3 15/15/3
f 14/5/4 9/4/4 13/16/4
f 15/2/5 9/8/5 11/9/5
f 12/2/6 14/8/6 16/9/6
f 18/13/1 19/15/1 17/1/1
f 20/14/2 23/17/2 19/4/2
f 24/15/3 21/13/3 23/7/3
f 22/17/4 17/14/4 21/18/4
f 23/7/5 17/8/5 19/9/5
f 20/2/6 22/1/6 24/15/6
f 26/13/1 27/15/1 25/1/1
f 28/19/2 31/16/2 27/20/2
f 32/15/3 29/13/3 31/7/3
f 30/16/4 25/19/4 29/10/4
f 31/2/5 25/1/5 27/15/5
f 28/7/6 30/8/6 32/9/6
f 34/21/1 35/22/1 33/23/1
f 36/24/2 39/25/2 35/26/2
f 40/22/3 37/21/3 39/27/3
f 38/25/4 33/24/4 37/28/4
f 39/29/5 33/30/5 35/31/5
f 36/29/6 38/30/6 40/31/6
f 42/30/1 43/29/1 41/32/1
f 44/33/2 47/34/2 43/35/2
f 48/29/3 45/30/3 47/31/3
f 46/34/4 41/33/4 45/36/4
f 47/22/5 41/21/5 43/27/5
f 44/22/6 46/21/6 48/27/6
f 2/1/1 4/15/1 3/2/1
f 4/4/2 8/16/2 7/5/2
f 8/7/3 6/13/3 5/8/3
f 6/10/4 2/14/4 1/11/4
f 7/2/5 5/3/5 1/8/5
f 4/2/6 2/3/6 6/8/6
f 10/8/1 12/9/1 11/7/1
f 12/11/2 16/12/2 15/10/2
f 16/2/3 14/3/3 13/1/3
f 14/5/4 10/6/4 9/4/4
f 15/2/5 13/3/5 9/8/5
f 12/2/6 10/3/6 14/8/6
f 18/13/1 20/7/1 19/15/1
f 20/14/2 24/18/2 23/17/2
f 24/15/3 22/1/3 21/13/3
f 22/17/4 18/4/4 17/14/4
f 23/7/5 21/13/5 17/8/5
f 20/2/6 18/3/6 22/1/6
f 26/13/1 28/7/1 27/15/1
f 28/19/2 32/10/2 31/16/2
f 32/15/3 30/1/3 29/13/3
f 30/16/4 26/20/4 25/19/4
f 31/2/5 29/3/5 25/1/5
f 28/7/6 26/13/6 30/8/6
f 34/21/1 36/27/1 35/22/1
f 36/24/2 40/28/2 39/25/2
f 40/22/3 38/23/3 37/21/3
f 38/25/4 34/26/4 33/24/4
f 39/29/5 37/32/5 33/30/5
f 36/29/6 34/32/6 38/30/6
f 42/30/1 44/31/1 43/29/1
f 44/33/2 48/36/2 47/34/2
f 48/29/3 46/32/3 45/30/3
f 46/34/4 42/35/4 41/33/4
f 47/22/5 45/23/5 41/21/5
f 44/22/6 42/23/6 46/21/6
o metal
usemtl metal
v -0.779345 0.225148 -0.609420
v -0.547380 0.106138 -0.760009
v -0.649875 0.045550 -0.472692
v -0.719746 0.225148 -0.301830
v -0.649215 0.403954 -0.472812
v -0.545733 0.340019 -0.750968
v -0.346826 0.041597 -0.527909
v -0.455733 0.113958 -0.257076
v -0.453987 0.340723 -0.247493
v -0.347976 0.407320 -0.527700
v -0.277849 0.225148 -0.700339
v -0.228989 0.225148 -0.393845
v -0.746701 0.119577 -0.546072
v -0.697180 0.155447 -0.718646
v -0.618744 0.047341 -0.631672
v -0.551958 0.225148 -0.785129
v -0.691913 0.292986 -0.712805
v -0.784963 0.225148 -0.448074
v -0.725697 0.114115 -0.363141
v -0.756650 0.334976 -0.547930
v -0.722639 0.334676 -0.364995
v -0.618757 0.402975 -0.631687
v -0.396552 0.158001 -0.764099
v -0.398474 0.291047 -0.759192
v -0.500000 0.000000 -0.500000
v -0.438130 0.055029 -0.657951
v -0.603959 0.157669 -0.234595
v -0.562128 0.054319 -0.341390
v -0.561800 0.395074 -0.342227
v -0.608094 0.295310 -0.224039
v -0.435184 0.403367 -0.665472
v -0.500000 0.439365 -0.500000
v -0.270251 0.112122 -0.639316
v -0.379510 0.044726 -0.366392
v -0.444886 0.225148 -0.197554
v -0.385777 0.396186 -0.373341
v -0.279745 0.333503 -0.633559
v -0.247298 0.117009 -0.452807
v -0.200521 0.225148 -0.554571
v -0.305148 0.156270 -0.283935
v -0.311589 0.291748 -0.291078
v -0.237796 0.337352 -0.451033
v -0.755906 0.225148 0.366735
v -0.519354 0.106412 0.237029
v -0.655442 0.041401 0.511437
v -0.740429 0.225148 0.674209
v -0.655245 0.408661 0.511422
v -0.519248 0.343236 0.238461
v -0.338881 0.034690 0.488146
v -0.480992 0.108534 0.758272
v -0.481766 0.337017 0.747765
v -0.345422 0.407873 0.488627
v -0.253499 0.225148 0.321391
v -0.243471 0.225148 0.633590
v -0.750607 0.115088 0.424830
v -0.666538 0.157955 0.270161
v -0.601728 0.051281 0.359604
v -0.521468 0.225148 0.208297
v -0.661357 0.290250 0.277311
v -0.790557 0.225148 0.521382
v -0.743796 0.111886 0.614273
v -0.754136 0.336757 0.423772
v -0.744505 0.338739 0.614605
v -0.603729 0.402435 0.356842
v -0.367450 0.157210 0.245469
v -0.367514 0.293052 0.245592
v -0.500000 0.001286 0.500000
v -0.415949 0.042655 0.338599
v -0.629152 0.158952 0.748007
v -0.578327 0.055084 0.650409
v -0.580421 0.399759 0.654431
v -0.634215 0.293939 0.757730
v -0.421595 0.395382 0.349440
v -0.500000 0.444269 0.500000
v -0.265850 0.116367 0.390248
v -0.392665 0.041698 0.648135
v -0.477929 0.225148 0.799898
v -0.397467 0.400391 0.641508
v -0.268829 0.332544 0.391645
v -0.247266 0.114154 0.575808
v -0.191630 0.225148 0.477308
v -0.326841 0.155283 0.738978
v -0.334296 0.292004 0.728688
v -0.241252 0.338783 0.577612
v 0.217507 0.225148 -0.587794
v 0.438432 0.114072 -0.738865
v 0.353150 0.046368 -0.462152
v 0.293099 0.225148 -0.284468
v 0.343628 0.415520 -0.459698
v 0.437614 0.337699 -0.742038
v 0.658669 0.031979 -0.540894
v 0.561974 0.113339 -0.259560
v 0.564408 0.341347 -0.250117
v 0.658695 0.418348 -0.540901
v 0.710828 0.225148 -0.719623
v 0.778747 0.225148 -0.413370
v 0.245482 0.117400 -0.528784
v 0.299767 0.159440 -0.692212
v 0.375111 0.051539 -0.619887
v 0.422376 0.225148 -0.801158
v 0.290117 0.294022 -0.701475
v 0.220219 0.225148 -0.427888
v 0.281993 0.112700 -0.345311
v 0.241056 0.334769 -0.529285
v 0.280195 0.338522 -0.344036
v 0.374005 0.400293 -0.620949
v 0.586063 0.156497 -0.776925
v 0.585696 0.293505 -0.775742
v 0.500000 0.003282 -0.500000
v 0.550952 0.052977 -0.663947
v 0.413020 0.155765 -0.220124
v 0.446299 0.043690 -0.327208
v 0.448000 0.400859 -0.332681
v 0.418581 0.290094 -0.238019
v 0.552427 0.402304 -0.668695
v 0.500000 0.442332 -0.500000
v 0.718096 0.112655 -0.654752
v 0.629292 0.045419 -0.375886
v 0.574888 0.225148 -0.209458
v 0.628309 0.403509 -0.376830
v 0.704047 0.330394 -0.644784
v 0.754903 0.117238 -0.471172
v 0.784592 0.225148 -0.573352
v 0.698528 0.159999 -0.309424
v 0.700840 0.291055 -0.307205
v 0.752316 0.331963 -0.471465
v 0.373358 0.225148 0.221735
v 0.643988 0.108630 0.285005
v 0.364783 0.033289 0.409438
v 0.190468 0.225148 0.488681
v 0.372920 0.405460 0.414887
v 0.645685 0.343039 0.282470
v 0.633125 0.036258 0.589161
v 0.357943 0.110192 0.712112
v 0.354338 0.343020 0.717495
v 0.633729 0.414894 0.589566
v 0.795358 0.225148 0.510800
v 0.622509 0.225148 0.769183
v 0.351396 0.116924 0.289987
v 0.510416 0.157658 0.215102
v 0.506604 0.043907 0.319390
v 0.670070 0.225148 0.246060
v 0.510348 0.292195 0.216971
v 0.247800 0.225148 0.331093
v 0.237179 0.111724 0.439773
v 0.344620 0.338306 0.280410
v 0.236989 0.338653 0.439730
v 0.506257 0.396868 0.328878
v 0.756514 0.158428 0.383257
v 0.750960 0.290422 0.385785
v 0.500000 0.015077 0.500000
v 0.654868 0.054512 0.429517
v 0.232816 0.155653 0.621599
v 0.345277 0.054671 0.570417
v 0.336530 0.405261 0.574397
v 0.239266 0.292965 0.618664
v 0.654407 0.395276 0.429727
v 0.500000 0.450000 0.500000
v 0.750878 0.116878 0.557490
v 0.493786 0.054603 0.669951
v 0.329782 0.225148 0.754161
v 0.493367 0.407178 0.681397
v 0.757858 0.336429 0.559089
v 0.645975 0.118839 0.706298
v 0.753087 0.225148 0.669501
v 0.489817 0.159168 0.778522
v 0.489410 0.293766 0.789658
v 0.647628 0.332660 0.708634
v -1.000000 0.372194 -0.480000
v -1.000000 0.354985 -0.490000
v -1.000000 0.354985 -0.510000
v -1.000000 0.372194 -0.520000
v -1.000000 0.389403 -0.510000
v -1.000000 0.389403 -0.490000
v -0.500000 0.426840 -0.480000
v -0.500000 0.409631 -0.490000
v -0.500000 0.409631 -0.510000
v -0.500000 0.426840 -0.520000
v -0.500000 0.444049 -0.510000
v -0.500000 0.444049 -0.490000
v 0.000000 0.382130 -0.480000
v 0.000000 0.364921 -0.490000
v 0.000000 0.364921 -0.510000
v 0.000000 0.382130 -0.520000
v 0.000000 0.399338 -0.510000
v 0.000000 0.399338 -0.490000
v 0.500000 0.426840 -0.480000
v 0.500000 0.409631 -0.490000
v 0.500000 0.409631 -0.510000
v 0.500000 0.426840 -0.520000
v 0.500000 0.444049 -0.510000
v 0.500000 0.444049 -0.490000
v 1.000000 0.372194 -0.480000
v 1.000000 0.354985 -0.490000
v 1.000000 0.354985 -0.510000
v 1.000000 0.372194 -0.520000
v 1.000000 0.389403 -0.510000
v 1.000000 0.389403 -0.490000
v -1.000000 0.372194 0.520000
v -1.000000 0.354985 0.510000
v -1.000000 0.354985 0.490000
v -1.000000 0.372194 0.480000
v -1.000000 0.389403 0.490000
v -1.000000 0.389403 0.510000
v -0.500000 0.426840 0.520000
v -0.500000 0.409631 0.510000
v -0.500000 0.409631 0.490000
v -0.500000 0.426840 0.480000
v -0.500000 0.444049 0.490000
v -0.500000 0.444049 0.510000
v 0.000000 0.382130 0.520000
v 0.000000 0.364921 0.510000
v 0.000000 0.364921 0.490000
v 0.000000 0.382130 0.480000
v 0.000000 0.399338 0.490000
v 0.000000 0.399338 0.510000
v 0.500000 0.426840 0.520000
v 0.500000 0.409631 0.510000
v 0.500000 0.409631 0.490000
v 0.500000 0.426840 0.480000
v 0.500000 0.444049 0.490000
v 0.500000 0.444049 0.510000
v 1.000000 0.372194 0.520000
v 1.000000 0.354985 0.510000
v 1.000000 0.354985 0.490000
v 1.000000 0.372194 0.480000
v 1.000000 0.389403 0.490000
v 1.000000 0.389403 0.510000
v -0.518000 0.362258 -1.000000
v -0.509000 0.346770 -1.000000
v -0.491000 0.346770 -1.000000
v -0.482000 0.362258 -1.000000
v -0.491000 0.377746 -1.000000
v -0.509000 0.377746 -1.000000
v -0.518000 0.409949 -0.500000
v -0.509000 0.394461 -0.500000
v -0.491000 0.394461 -0.500000
v -0.482000 0.409949 -0.500000
v -0.491000 0.425437 -0.500000
v -0.509000 0.425437 -0.500000
v -0.518000 0.367226 0.000000
v -0.509000 0.351738 0.000000
v -0.491000 0.351738 0.000000
v -0.482000 0.367226 0.000000
v -0.491000 0.382714 0.000000
v -0.509000 0.382714 0.000000
v -0.518000 0.409949 0.500000
v -0.509000 0.394461 0.500000
v -0.491000 0.394461 0.500000
v -0.482000 0.409949 0.500000
v -0.491000 0.425437 0.500000
v -0.509000 0.425437 0.500000
v -0.518000 0.362258 1.000000
v -0.509000 0.346770 1.000000
v -0.491000 0.346770 1.000000
v -0.482000 0.362258 1.000000
v -0.491000 0.377746 1.000000
v -0.509000 0.377746 1.000000
v 0.482000 0.362258 -1.000000
v 0.491000 0.346770 -1.000000
v 0.509000 0.346770 -1.000000
v 0.518000 0.362258 -1.000000
v 0.509000 0.377746 -1.000000
v 0.491000 0.377746 -1.000000
v 0.482000 0.409949 -0.500000
v 0.491000 0.394461 -0.500000
v 0.509000 0.394461 -0.500000
v 0.518000 0.409949 -0.500000
v 0.509000 0.425437 -0.500000
v 0.491000 0.425437 -0.500000
v 0.482000 0.367226 0.000000
v 0.491000 0.351738 0.000000
v 0.509000 0.351738 0.000000
v 0.518000 0.367226 0.000000
v 0.509000 0.382714 0.000000
v 0.491000 0.382714 0.000000
v 0.482000 0.409949 0.500000
v 0.491000 0.394461 0.500000
v 0.509000 0.394461 0.500000
v 0.518000 0.409949 0.500000
v 0.509000 0.425437 0.500000
v 0.491000 0.425437 0.500000
v 0.482000 0.362258 1.000000
v 0.491000 0.346770 1.000000
v 0.509000 0.346770 1.000000
v 0.518000 0.362258 1.000000
v 0.509000 0.377746 1.000000
v 0.491000 0.377746 1.000000
vn -0.9474 -0.0211 -0.3193
vn -0.6316 -0.3604 -0.6864
vn -0.7896 -0.6028 -0.1148
vn -0.1061 -0.5991 -0.7936
vn -0.1503 0.0415 -0.9878
vn -0.9852 -0.0146 0.1711
vn -0.7963 0.5925 -0.1216
vn -0.6020 0.3882 -0.6978
vn 0.3260 -0.3579 -0.8750
vn -0.4335 -0.8976 0.0802
vn -0.3390 -0.8815 -0.3287
vn -0.0125 -0.9999 -0.0043
vn -0.7671 -0.0064 0.6414
vn -0.7012 -0.5921 0.3972
vn -0.3272 -0.4296 0.8417
vn -0.3921 0.9150 0.0954
vn -0.6971 0.5990 0.3940
vn -0.1667 0.8969 0.4097
vn -0.1280 0.5861 -0.8000
vn -0.3311 0.8791 -0.3429
vn 0.1960 0.8671 -0.4580
vn 0.1853 -0.8768 -0.4437
vn -0.1818 -0.8686 0.4610
vn -0.3535 0.3856 0.8522
vn -0.0043 0.9995 0.0307
vn 0.3258 0.3691 -0.8704
vn 0.4170 -0.9046 -0.0889
vn 0.6763 -0.6037 -0.4221
vn 0.7966 -0.5835 0.1579
vn 0.1044 -0.6565 0.7471
vn 0.3220 -0.8676 0.3789
vn 0.6353 -0.3599 0.6833
vn 0.1631 0.6681 0.7260
vn 0.1932 -0.0308 0.9807
vn 0.6258 0.4035 0.6675
vn 0.3976 0.9152 -0.0651
vn 0.3045 0.8839 0.3548
vn 0.7893 0.5906 0.1679
vn 0.7182 0.0451 -0.6943
vn 0.6708 0.6041 -0.4302
vn 0.9866 0.0030 -0.1632
vn 0.9266 -0.0170 0.3756
vn -0.8804 0.0026 -0.4742
vn -0.5662 -0.3352 -0.7530
vn -0.7862 -0.5638 -0.2528
vn -0.0824 -0.5851 -0.8068
vn -0.0966 0.0130 -0.9952
vn -0.9989 -0.0097 0.0449
vn -0.7904 0.5525 -0.2645
vn -0.5561 0.3539 -0.7520
vn 0.4264 -0.3550 -0.8320
vn -0.4069 -0.9130 0.0303
vn -0.3123 -0.8700 -0.3817
vn -0.0393 -0.9992 0.0087
vn -0.8080 -0.0210 0.5888
vn -0.7348 -0.5788 0.3535
vn -0.4200 -0.4037 0.8128
vn -0.3957 0.9179 0.0302
vn -0.7470 0.5721 0.3388
vn -0.1983 0.8798 0.4321
vn -0.0721 0.6009 -0.7960
vn -0.2883 0.8701 -0.3998
vn 0.2445 0.8793 -0.4087
vn 0.2356 -0.8665 -0.4401
vn -0.2391 -0.8687 0.4338
vn -0.4104 0.3613 0.8373
vn 0.0087 0.9999 -0.0054
vn 0.4212 0.3952 -0.8163
vn 0.4488 -0.8926 -0.0436
vn 0.7244 -0.5968 -0.3450
vn 0.7934 -0.5614 0.2351
vn -0.0012 -0.6205 0.7842
vn 0.2682 -0.8757 0.4016
vn 0.5682 -0.3263 0.7554
vn 0.0726 0.6408 0.7643
vn 0.0617 0.0343 0.9975
vn 0.5313 0.3990 0.7473
vn 0.4049 0.9120 -0.0655
vn 0.2679 0.8723 0.4091
vn 0.7739 0.5818 0.2504
vn 0.8045 0.0109 -0.5938
vn 0.6886 0.6342 -0.3515
vn 0.9974 -0.0057 -0.0722
vn 0.8771 -0.0001 0.4804
vn -0.9603 -0.0368 -0.2767
vn -0.6623 -0.4243 -0.6175
vn -0.7992 -0.5930 -0.0983
vn -0.2080 -0.6717 -0.7110
vn -0.2647 -0.0198 -0.9641
vn -0.9751 -0.0146 0.2213
vn -0.8221 0.5618 -0.0927
vn -0.6791 0.3664 -0.6361
vn 0.2537 -0.4099 -0.8761
vn -0.4185 -0.9056 0.0689
vn -0.3632 -0.8635 -0.3500
vn -0.0362 -0.9991 -0.0214
vn -0.6916 0.0241 0.7218
vn -0.6930 -0.5772 0.4320
vn -0.2569 -0.3291 0.9087
vn -0.4003 0.9121 0.0880
vn -0.6734 0.5558 0.4875
vn -0.1380 0.8633 0.4855
vn -0.1865 0.6614 -0.7265
vn -0.3398 0.8736 -0.3483
vn 0.1416 0.8651 -0.4811
vn 0.1033 -0.8711 -0.4801
vn -0.1405 -0.8748 0.4636
vn -0.2632 0.3991 0.8783
vn -0.0119 0.9999 -0.0004
vn 0.2828 0.4105 -0.8669
vn 0.4209 -0.9000 -0.1133
vn 0.6720 -0.5805 -0.4598
vn 0.8271 -0.5487 0.1216
vn 0.2384 -0.6102 0.7556
vn 0.3829 -0.8423 0.3793
vn 0.6751 -0.3623 0.6426
vn 0.1848 0.6063 0.7734
vn 0.2697 -0.0164 0.9628
vn 0.6934 0.3474 0.6313
vn 0.4514 0.8834 -0.1260
vn 0.3711 0.8589 0.3531
vn 0.8243 0.5589 0.0903
vn 0.7121 0.0578 -0.6997
vn 0.6709 0.5903 -0.4487
vn 0.9744 0.0424 -0.2206
vn 0.9507 0.0035 0.3102
vn -0.3955 -0.0348 -0.9178
vn 0.0281 -0.3680 -0.9294
vn -0.4565 -0.5906 -0.6654
vn 0.4529 -0.6327 -0.6281
vn 0.5701 -0.0021 -0.8215
vn -0.8181 -0.0250 -0.5745
vn -0.4406 0.6156 -0.6534
vn 0.0395 0.3908 -0.9196
vn 0.8538 -0.3733 -0.3629
vn -0.3420 -0.9146 -0.2155
vn 0.0271 -0.8750 -0.4834
vn 0.0036 -0.9996 0.0273
vn -0.9996 0.0105 -0.0272
vn -0.7727 -0.6068 -0.1862
vn -0.8255 -0.3966 0.4017
vn -0.3183 0.9163 -0.2432
vn -0.7709 0.6106 -0.1814
vn -0.4526 0.8723 0.1854
vn 0.4415 0.6449 -0.6239
vn 0.0194 0.8808 -0.4731
vn 0.4510 0.8659 -0.2164
vn 0.4448 -0.8760 -0.1862
vn -0.3938 -0.8928 0.2188
vn -0.8334 0.3875 0.3940
vn 0.0035 0.9990 -0.0452
vn 0.8461 0.3883 -0.3652
vn 0.3475 -0.9060 0.2418
vn 0.7832 -0.5995 0.1649
vn 0.4387 -0.6031 0.6662
vn -0.3894 -0.6632 0.6392
vn -0.0212 -0.8750 0.4836
vn -0.0076 -0.4199 0.9075
vn -0.4486 0.6131 0.6503
vn -0.5418 -0.0234 0.8402
vn -0.0038 0.3390 0.9408
vn 0.3806 0.8955 0.2308
vn 0.0017 0.8637 0.5040
vn 0.4678 0.5795 0.6674
vn 0.9999 -0.0139 -0.0036
vn 0.7943 0.5884 0.1512
vn 0.8216 -0.0206 0.5697
vn 0.4102 -0.0274 0.9116
vn 0.0038 -0.0348 0.9994
vn 0.0086 -0.8584 0.5128
vn -0.0006 0.0316 0.9995
vn 0.0952 -0.8709 -0.4822
vn 0.0952 -0.8709 0.4822
vn 0.0038 -0.0348 -0.9994
vn 0.0086 -0.8584 -0.5128
vn -0.0933 0.8539 -0.5121
vn -0.0006 0.0316 -0.9995
vn -0.0933 0.8539 0.5121
vn -0.0085 0.8741 -0.4857
vn -0.0085 0.8741 0.4857
vn -0.0000 -0.0285 0.9996
vn -0.0000 -0.8734 0.4869
vn -0.0000 -0.0285 -0.9996
vn -0.0000 -0.8734 -0.4869
vn -0.0000 0.8593 -0.5114
vn -0.0000 0.8593 0.5114
vn -0.0086 -0.8584 0.5128
vn 0.0006 0.0316 0.9995
vn -0.0086 -0.8584 -0.5128
vn 0.0006 0.0316 -0.9995
vn 0.0085 0.8741 -0.4857
vn 0.0085 0.8741 0.4857
vn -0.0038 -0.0348 0.9994
vn -0.0952 -0.8709 0.4822
vn -0.0038 -0.0348 -0.9994
vn -0.0952 -0.8709 -0.4822
vn 0.0933 0.8539 -0.5121
vn 0.0933 0.8539 0.5121
vn -1.0000 -0.0000 -0.0000
vn 1.0000 -0.0000 -0.0000
vn -0.9995 -0.0304 0.0029
vn -0.5115 -0.8592 0.0043
vn -0.9996 0.0288 -0.0003
vn 0.4845 -0.8708 0.0831
vn -0.4845 -0.8708 0.0831
vn 0.9995 -0.0304 0.0029
vn 0.5115 -0.8592 0.0043
vn 0.5106 0.8560 -0.0816
vn 0.9996 0.0288 -0.0003
vn -0.5106 0.8560 -0.0816
vn 0.4868 0.8735 -0.0042
vn -0.4868 0.8735 -0.0042
vn -0.9996 -0.0272 -0.0000
vn -0.4874 -0.8732 -0.0000
vn 0.9996 -0.0272 -0.0000
vn 0.4874 -0.8732 -0.0000
vn 0.5108 0.8597 -0.0000
vn -0.5108 0.8597 -0.0000
vn -0.5115 -0.8592 -0.0043
vn -0.9996 0.0288 0.0003
vn 0.5115 -0.8592 -0.0043
vn 0.9996 0.0288 0.0003
vn 0.4868 0.8735 0.0042
vn -0.4868 0.8735 0.0042
vn -0.9995 -0.0304 -0.0029
vn -0.4845 -0.8708 -0.0831
vn 0.9995 -0.0304 -0.0029
vn 0.4845 -0.8708 -0.0831
vn 0.5106 0.8560 0.0816
vn -0.5106 0.8560 0.0816
vn -0.0000 -0.0000 -1.0000
vn -0.0000 -0.0000 1.0000
vt -1.741199 0.662857
vt -2.053274 0.462421
vt -1.560206 0.359271
vt 1.563944 0.320625
vt 1.991943 0.462421
vt 1.577023 0.662857
vt -1.280212 0.662857
vt -1.565515 0.978687
vt -2.036587 0.857939
vt 1.133006 0.469765
vt -1.856786 1.350548
vt -1.767839 1.804776
vt -1.428571 1.428571
vt -2.056417 0.662857
vt -2.073419 0.343564
vt -1.725598 0.468810
vt -1.854899 -1.350892
vt -2.064683 -1.042843
vt -1.605142 -0.977790
vt -1.559237 -2.145622
vt -1.767878 -1.804820
vt -1.243384 -1.901350
vt -1.563944 2.171453
vt -1.133006 2.183141
vt -1.251801 1.879861
vt -1.606079 0.975399
vt -1.737411 0.864622
vt -1.428571 -1.428571
vt 1.559237 0.993189
vt 1.243384 1.175356
vt 1.138498 0.852362
vt -0.990931 1.508312
vt -0.772147 1.826618
vt -0.706567 1.293735
vt -1.302094 0.734503
vt -1.084315 1.046834
vt -0.871850 0.811243
vt -1.297104 0.995215
vt -1.271104 0.662857
vt -0.890255 0.854379
vt -0.994218 -1.507713
vt -1.102220 -1.066689
vt -0.679418 -1.288665
vt 2.000968 0.662857
vt 1.810169 0.974452
vt 1.584488 0.662857
vt 1.288665 0.985521
vt 1.125271 0.662857
vt -0.799273 -1.810169
vt 0.831651 0.854379
vt -0.890255 -0.831651
vt -1.297104 -0.707123
vt 0.811243 0.464787
vt -0.871850 0.464787
vt -1.302094 0.343113
vt 1.293735 0.351886
vt 1.826618 0.337831
vt 0.799273 0.974452
vt 0.793854 0.662857
vt -1.138498 -2.169121
vt 0.772147 0.337831
vt -1.737411 -0.640112
vt -1.042843 0.977825
vt -0.862372 0.662857
vt -0.640112 0.864622
vt -1.725598 0.670272
vt -2.073419 1.037545
vt -1.976894 -2.036587
vt -2.161858 -1.565515
vt -1.037545 0.343564
vt -2.133431 1.560206
vt 1.976894 0.857939
vt -1.991943 2.053274
vt 1.047813 0.662857
vt 0.771888 0.469632
vt 1.213800 0.346361
vt 1.483867 0.321413
vt 1.904394 0.469632
vt 1.489909 0.662857
vt 1.489662 0.662857
vt 1.210776 0.983809
vt 0.792317 0.850071
vt 1.049858 0.467491
vt -1.872692 -1.461248
vt -1.719222 -1.027441
vt -2.115512 0.662857
vt -2.125132 0.337153
vt -1.797577 0.472499
vt -1.872128 1.461206
vt -2.127158 1.756016
vt -1.658347 1.869803
vt -1.483566 0.681318
vt -1.724940 1.019549
vt -1.204556 0.998401
vt 1.188425 0.138069
vt -1.652363 -1.858312
vt -1.812044 0.860678
vt -1.050041 0.701690
vt -0.968231 -1.394702
vt -0.759572 -1.114995
vt -0.706474 -1.645165
vt -1.374264 -2.166491
vt -1.121900 -1.851813
vt -0.933830 -2.111364
vt -1.376473 0.984558
vt -1.365511 0.662857
vt -0.955132 0.855114
vt -0.986919 1.396077
vt -1.135619 1.832879
vt -0.689291 1.650319
vt -0.918261 0.662857
vt -1.118984 0.971694
vt -1.363736 0.662857
vt -1.650319 0.989634
vt -1.810257 0.662857
vt -0.768083 1.118984
vt -2.081965 0.855114
vt -0.955132 2.081965
vt -1.376473 2.136471
vt -2.111364 0.461950
vt -0.933830 0.461950
vt -1.374264 0.327514
vt -1.645165 0.343675
vt -1.114995 0.350040
vt -0.701690 0.858129
vt -1.188425 -0.967426
vt -1.049858 -0.701339
vt -0.701339 0.467491
vt -1.812044 2.164943
vt 1.756016 0.989508
vt 1.926311 0.662857
vt 2.164943 0.860678
vt -1.797577 -2.137162
vt -2.125132 -1.755066
vt -1.483867 -0.677225
vt 1.050041 0.858129
vt 0.724282 0.662857
vt 1.483566 1.002442
vt -1.889591 0.792317
vt -2.154674 1.210776
vt 1.755066 0.337153
vt -2.144593 -1.213800
vt 1.889591 0.850071
vt -1.904394 -0.771888
vt -1.679411 0.662857
vt -1.977748 0.473904
vt -1.510812 0.353011
vt -1.252663 0.343440
vt -0.856478 0.473904
vt -1.206789 0.662857
vt -1.222538 0.662857
vt -1.512242 0.978091
vt -2.004215 0.860917
vt -1.674467 0.465439
vt 1.009000 1.320435
vt 1.071745 1.771107
vt 1.428571 1.428571
vt 0.837425 0.662857
vt 0.805694 0.339496
vt 1.180056 0.463336
vt 0.981794 -1.313424
vt 0.800559 -0.982959
vt 1.280001 -0.950517
vt 1.250327 -2.120109
vt 1.068586 -1.774140
vt 1.578364 -1.910557
vt 1.252663 2.111042
vt 1.674467 2.219786
vt 1.574148 1.896992
vt 1.275141 0.934881
vt 1.195946 0.849621
vt 1.428571 -1.428571
vt -1.250327 0.986518
vt -1.578364 1.172300
vt -1.673416 0.859431
vt 1.545411 0.107369
vt 1.870721 0.339364
vt 1.346207 0.352543
vt 1.605639 0.741600
vt 1.797978 1.073959
vt 1.995795 0.884069
vt 1.612593 0.997008
vt 1.642536 0.662857
vt 2.002400 0.852384
vt 1.881987 -1.545430
vt 1.795168 -1.076657
vt 2.149473 -1.347043
vt 2.056066 0.662857
vt 1.842240 0.965512
vt 1.638148 0.662857
vt 1.347043 0.970022
vt 1.181058 0.662857
vt 1.545430 1.218439
vt 0.877729 0.852384
vt 1.076657 1.175767
vt 1.612593 -0.714621
vt 2.002400 -0.877729
vt 0.884069 0.475512
vt 1.995795 0.475512
vt 1.605639 0.341333
vt 1.073959 0.146015
vt 1.881911 1.545411
vt 2.156865 1.346207
vt -2.011564 0.965512
vt -2.030938 0.662857
vt 1.673416 -2.216405
vt 2.011564 -1.842240
vt 2.051703 1.870721
vt -2.051703 0.339364
vt 1.280001 1.168145
vt 0.800559 0.988884
vt 1.275141 0.141043
vt 1.180056 0.628926
vt 0.805694 0.986603
vt 0.828907 -2.004215
vt 0.688731 -1.512242
vt -0.982959 0.988884
vt -0.812765 0.662857
vt -0.986603 0.339496
vt 0.701377 1.510812
vt -0.828907 0.860917
vt 0.856478 1.977748
vt -1.066736 0.662857
vt -1.458332 0.468778
vt -1.003988 0.351643
vt -1.839964 0.327790
vt -1.914486 0.662857
vt -0.708001 0.662857
vt -0.984628 0.988262
vt -1.458136 0.855663
vt -0.814300 0.327790
vt -0.703029 0.662857
vt -1.095019 0.470994
vt 1.042236 -1.169822
vt 1.447440 -0.912544
vt 1.396232 0.662857
vt 1.256496 0.336688
vt 1.775998 0.463014
vt 1.065486 1.185393
vt 0.677113 1.256371
vt 0.961515 1.641135
vt 1.844815 0.807058
vt 1.446449 0.939651
vt 1.869736 1.227791
vt 1.839964 -0.814300
vt 2.161469 -1.095019
vt 1.871051 -1.227193
vt 0.986506 -1.629762
vt 1.767612 0.857877
vt 2.145599 1.102242
vt 1.808929 -1.683318
vt 2.145366 -1.592828
vt 1.845644 -2.017996
vt 1.022695 -2.034606
vt 1.410816 -1.914146
vt 1.399477 -2.224350
vt 1.012394 1.001820
vt 0.942234 0.662857
vt 1.398314 0.860180
vt 1.810654 1.684473
vt 1.409621 1.946847
vt 1.850366 2.024668
vt -1.459430 0.662857
vt -1.597398 0.982867
vt -1.912861 0.662857
vt 2.151677 0.662857
vt 1.850366 0.972027
vt 1.778597 0.662857
vt -2.024668 0.972027
vt 2.165308 1.597398
vt 1.409621 1.186317
vt 1.399477 0.473121
vt 1.022695 0.332283
vt 1.845644 0.357148
vt -2.017996 0.357148
vt -1.592828 0.351510
vt -1.102242 0.850565
vt 1.012394 2.049986
vt 2.154746 0.662857
vt 2.049986 1.001820
vt 0.665189 0.463014
vt 0.683616 1.767612
vt 1.641135 1.180805
vt 1.256371 0.989261
vt 0.665189 -1.775998
vt 0.677654 -1.256496
vt -0.807058 1.001875
vt 1.458136 0.619918
vt 0.984628 0.801172
vt 0.801172 0.988262
vt 0.945979 0.662857
vt 0.828533 0.351643
vt 1.003988 -0.828533
vt -1.844815 1.001875
vt -1.447440 0.141668
vt -2.857143 1.085714
vt -1.428571 1.193370
vt -1.428571 1.242857
vt -2.857143 1.457143
vt -1.428571 1.400000
vt -2.857143 1.400000
vt 2.857143 1.085714
vt 1.428571 1.193370
vt 2.857143 1.036227
vt 2.857143 1.135201
vt 1.428571 1.242857
vt -2.857143 -1.400000
vt -1.428571 -1.457143
vt -2.857143 -1.457143
vt -2.857143 1.135201
vt -1.428571 1.292344
vt 0.000000 1.114286
vt -1.428571 1.457143
vt 0.000000 1.400000
vt -0.000000 1.064798
vt -0.000000 1.163773
vt -1.428571 -1.400000
vt 0.000000 -1.457143
vt 0.000000 1.457143
vt 1.428571 1.400000
vt 0.000000 -1.400000
vt 1.428571 -1.457143
vt 1.428571 1.292344
vt 1.428571 1.457143
vt 2.857143 1.400000
vt -2.857143 1.036227
vt 1.428571 -1.400000
vt 2.857143 -1.457143
vt -1.400000 1.135201
vt -1.485714 1.085714
vt -1.400000 1.036227
vt 1.485714 1.085714
vt 1.457143 1.135201
vt 1.371428 1.085714
vt 1.400000 1.036227
vt 1.457143 1.036227
vt -2.857143 1.057143
vt -1.428571 1.149747
vt -1.428571 1.194286
vt -1.402857 2.857143
vt -1.454286 1.428571
vt -1.454286 2.857143
vt 2.857143 1.057143
vt 1.428571 1.149747
vt 2.857143 1.012604
vt 2.857143 1.101681
vt 1.428571 1.194286
vt -1.454286 -2.857143
vt -1.402857 -1.428571
vt -1.402857 -2.857143
vt -2.857143 1.101681
vt -1.428571 1.238824
vt 0.000000 1.071429
vt -1.402857 1.428571
vt -1.454286 -0.000000
vt -0.000000 1.026890
vt -0.000000 1.115967
vt -1.454286 -1.428571
vt -1.402857 0.000000
vt 1.428571 1.238824
vt -2.857143 1.012604
vt 1.454286 1.101681
vt 1.377143 1.057143
vt 1.454286 1.012604
vt -1.480000 1.057143
vt -1.402857 1.012604
vt -1.402857 1.101681
vt 1.454286 2.857143
vt 1.402857 1.428571
vt 1.402857 2.857143
vt 1.402857 -2.857143
vt 1.454286 -1.428571
vt 1.454286 -2.857143
vt 1.454286 1.428571
vt 1.402857 -0.000000
vt 1.402857 -1.428571
vt 1.454286 0.000000
vt 2.857143 1.457143
vt 2.857143 -1.400000
vt -1.371428 1.085714
vt -1.457143 1.135201
vt -1.457143 1.036227
vt 1.400000 1.135201
vt 1.480000 1.057143
vt 1.402857 1.101681
vt 1.402857 1.012604
vt -1.454286 1.101681
vt -1.454286 1.012604
vt -1.377143 1.057143
s 1
f 49/37/7 62/38/8 61/39/9
f 50/40/10 62/41/8 64/42/11
f 49/37/7 61/39/9 66/43/12
f 49/37/7 66/43/12 68/44/13
f 49/37/7 68/44/13 65/45/14
f 50/40/10 64/42/11 71/46/15
f 51/47/16 63/48/17 73/49/18
f 52/50/19 67/51/20 75/52/21
f 53/53/22 69/54/23 77/55/24
f 54/56/25 70/57/26 79/58/27
f 50/59/10 71/60/15 74/61/28
f 51/47/16 73/49/18 76/62/29
f 52/50/19 75/52/21 78/63/30
f 53/53/22 77/55/24 80/64/31
f 54/65/25 79/66/27 72/67/32
f 55/68/33 81/69/34 86/70/35
f 56/71/36 82/72/37 88/73/38
f 57/74/39 83/75/40 89/76/41
f 58/77/42 84/78/43 90/79/44
f 59/80/45 85/81/46 87/82/47
f 87/82/47 90/83/44 60/84/48
f 87/82/47 85/81/46 90/83/44
f 85/85/46 58/77/42 90/79/44
f 90/83/44 89/86/41 60/84/48
f 90/79/44 84/78/43 89/87/41
f 84/78/43 57/88/39 89/87/41
f 89/86/41 88/89/38 60/84/48
f 89/76/41 83/75/40 88/90/38
f 83/75/40 56/91/36 88/90/38
f 88/89/38 86/92/35 60/84/48
f 88/73/38 82/72/37 86/70/35
f 82/72/37 55/68/33 86/70/35
f 86/92/35 87/82/47 60/84/48
f 86/92/35 81/93/34 87/82/47
f 81/93/34 59/80/45 87/82/47
f 72/67/32 85/94/46 59/95/45
f 72/96/32 79/58/27 85/85/46
f 79/58/27 58/77/42 85/85/46
f 80/64/31 84/78/43 58/77/42
f 80/64/31 77/55/24 84/78/43
f 77/55/24 57/88/39 84/78/43
f 78/63/30 83/75/40 57/74/39
f 78/63/30 75/52/21 83/75/40
f 75/52/21 56/91/36 83/75/40
f 76/62/29 82/72/37 56/71/36
f 76/62/29 73/49/18 82/72/37
f 73/49/18 55/68/33 82/72/37
f 74/61/28 81/69/34 55/68/33
f 74/61/28 71/60/15 81/69/34
f 71/46/15 59/95/45 81/97/34
f 79/58/27 80/64/31 58/77/42
f 79/58/27 70/57/26 80/64/31
f 70/57/26 53/53/22 80/64/31
f 77/55/24 78/98/30 57/88/39
f 77/55/24 69/54/23 78/98/30
f 69/99/23 52/100/19 78/101/30
f 75/102/21 76/62/29 56/71/36
f 75/102/21 67/103/20 76/62/29
f 67/103/20 51/47/16 76/62/29
f 73/49/18 74/61/28 55/68/33
f 73/49/18 63/48/17 74/61/28
f 63/48/17 50/59/10 74/61/28
f 71/46/15 72/67/32 59/95/45
f 71/46/15 64/42/11 72/67/32
f 64/42/11 54/65/25 72/67/32
f 65/104/14 70/57/26 54/56/25
f 65/104/14 68/105/13 70/57/26
f 68/105/13 53/53/22 70/57/26
f 68/105/13 69/54/23 53/53/22
f 68/44/13 66/43/12 69/99/23
f 66/43/12 52/100/19 69/99/23
f 66/43/12 67/106/20 52/100/19
f 66/43/12 61/39/9 67/106/20
f 61/107/9 51/47/16 67/103/20
f 64/42/11 65/108/14 54/65/25
f 64/42/11 62/41/8 65/108/14
f 62/38/8 49/37/7 65/45/14
f 61/107/9 63/48/17 51/47/16
f 61/107/9 62/109/8 63/48/17
f 62/109/8 50/59/10 63/48/17
f 91/110/49 104/111/50 103/112/51
f 92/113/52 104/114/50 106/115/53
f 91/110/49 103/112/51 108/116/54
f 91/110/49 108/116/54 110/117/55
f 91/110/49 110/117/55 107/118/56
f 92/113/52 106/115/53 113/119/57
f 93/120/58 105/121/59 115/64/60
f 94/122/61 109/123/62 117/124/63
f 95/125/64 111/126/65 119/127/66
f 96/128/67 112/129/68 121/130/69
f 92/113/52 113/119/57 116/131/70
f 93/120/58 115/64/60 118/132/71
f 94/122/61 117/124/63 120/133/72
f 95/125/64 119/127/66 122/49/73
f 96/128/67 121/130/69 114/134/74
f 97/135/75 123/136/76 128/137/77
f 98/138/78 124/139/79 130/140/80
f 99/141/81 125/142/82 131/143/83
f 100/144/84 126/145/85 132/146/86
f 101/147/87 127/148/88 129/149/89
f 129/149/89 132/150/86 102/151/90
f 129/149/89 127/148/88 132/150/86
f 127/152/88 100/144/84 132/146/86
f 132/150/86 131/153/83 102/151/90
f 132/146/86 126/145/85 131/154/83
f 126/145/85 99/155/81 131/154/83
f 131/153/83 130/156/80 102/151/90
f 131/143/83 125/142/82 130/157/80
f 125/142/82 98/158/78 130/157/80
f 130/156/80 128/159/77 102/151/90
f 130/140/80 124/139/79 128/137/77
f 124/139/79 97/135/75 128/137/77
f 128/159/77 129/149/89 102/151/90
f 128/159/77 123/160/76 129/149/89
f 123/160/76 101/147/87 129/149/89
f 114/161/74 127/148/88 101/147/87
f 114/134/74 121/130/69 127/152/88
f 121/130/69 100/144/84 127/152/88
f 122/49/73 126/145/85 100/144/84
f 122/49/73 119/127/66 126/145/85
f 119/127/66 99/155/81 126/145/85
f 120/133/72 125/142/82 99/141/81
f 120/133/72 117/124/63 125/142/82
f 117/124/63 98/158/78 125/142/82
f 118/132/71 124/139/79 98/138/78
f 118/132/71 115/64/60 124/139/79
f 115/64/60 97/135/75 124/139/79
f 116/162/70 123/136/76 97/135/75
f 116/162/70 113/163/57 123/136/76
f 113/164/57 101/147/87 123/160/76
f 121/130/69 122/49/73 100/144/84
f 121/130/69 112/129/68 122/49/73
f 112/129/68 95/125/64 122/49/73
f 119/127/66 120/165/72 99/155/81
f 119/127/66 111/126/65 120/165/72
f 111/166/65 94/167/61 120/168/72
f 117/169/63 118/132/71 98/138/78
f 117/169/63 109/170/62 118/132/71
f 109/170/62 93/120/58 118/132/71
f 115/64/60 116/162/70 97/135/75
f 115/64/60 105/121/59 116/162/70
f 105/121/59 92/171/52 116/162/70
f 113/119/57 114/172/74 101/173/87
f 113/119/57 106/115/53 114/172/74
f 106/115/53 96/174/67 114/172/74
f 107/175/56 112/129/68 96/128/67
f 107/175/56 110/176/55 112/129/68
f 110/176/55 95/125/64 112/129/68
f 110/176/55 111/126/65 95/125/64
f 110/117/55 108/116/54 111/166/65
f 108/116/54 94/167/61 111/166/65
f 108/116/54 109/177/62 94/167/61
f 108/116/54 103/112/51 109/177/62
f 103/178/51 93/120/58 109/170/62
f 106/115/53 107/179/56 96/174/67
f 106/115/53 104/114/50 107/179/56
f 104/111/50 91/110/49 107/118/56
f 103/178/51 105/121/59 93/120/58
f 103/178/51 104/180/50 105/121/59
f 104/180/50 92/171/52 105/121/59
f 133/181/91 146/182/92 145/183/93
f 134/184/94 146/185/92 148/186/95
f 133/181/91 145/183/93 150/187/96
f 133/181/91 150/187/96 152/188/97
f 133/181/91 152/188/97 149/189/98
f 134/184/94 148/186/95 155/190/99
f 135/191/100 147/192/101 157/193/102
f 136/194/103 151/195/104 159/196/105
f 137/197/106 153/198/107 161/199/108
f 138/200/109 154/201/110 163/202/111
f 134/203/94 155/204/99 158/205/112
f 135/191/100 157/193/102 160/206/113
f 136/194/103 159/196/105 162/207/114
f 137/197/106 161/199/108 164/208/115
f 138/209/109 163/210/111 156/211/116
f 139/212/117 165/213/118 170/214/119
f 140/215/120 166/216/121 172/217/122
f 141/218/123 167/219/124 173/220/125
f 142/221/126 168/222/127 174/223/128
f 143/224/129 169/225/130 171/226/131
f 171/226/131 174/227/128 144/228/132
f 171/226/131 169/225/130 174/227/128
f 169/225/130 142/229/126 174/227/128
f 174/227/128 173/230/125 144/228/132
f 174/227/128 168/231/127 173/230/125
f 168/222/127 141/232/123 173/233/125
f 173/230/125 172/234/122 144/228/132
f 173/220/125 167/219/124 172/235/122
f 167/219/124 140/236/120 172/235/122
f 172/234/122 170/214/119 144/228/132
f 172/234/122 166/237/121 170/214/119
f 166/216/121 139/238/117 170/239/119
f 170/214/119 171/226/131 144/228/132
f 170/214/119 165/213/118 171/226/131
f 165/213/118 143/224/129 171/226/131
f 156/211/116 169/240/130 143/241/129
f 156/242/116 163/202/111 169/243/130
f 163/202/111 142/221/126 169/243/130
f 164/208/115 168/222/127 142/221/126
f 164/208/115 161/199/108 168/222/127
f 161/199/108 141/232/123 168/222/127
f 162/207/114 167/219/124 141/218/123
f 162/207/114 159/196/105 167/219/124
f 159/196/105 140/236/120 167/219/124
f 160/206/113 166/216/121 140/215/120
f 160/206/113 157/193/102 166/216/121
f 157/193/102 139/238/117 166/216/121
f 158/205/112 165/244/118 139/238/117
f 158/205/112 155/204/99 165/244/118
f 155/190/99 143/241/129 165/245/118
f 163/202/111 164/208/115 142/221/126
f 163/202/111 154/201/110 164/208/115
f 154/201/110 137/197/106 164/208/115
f 161/246/108 162/207/114 141/218/123
f 161/246/108 153/247/107 162/207/114
f 153/247/107 136/194/103 162/207/114
f 159/196/105 160/248/113 140/236/120
f 159/249/105 151/250/104 160/206/113
f 151/250/104 135/191/100 160/206/113
f 157/193/102 158/205/112 139/238/117
f 157/193/102 147/192/101 158/205/112
f 147/192/101 134/203/94 158/205/112
f 155/190/99 156/211/116 143/241/129
f 155/190/99 148/186/95 156/211/116
f 148/186/95 138/209/109 156/211/116
f 149/251/98 154/201/110 138/200/109
f 149/251/98 152/252/97 154/201/110
f 152/252/97 137/197/106 154/201/110
f 152/252/97 153/198/107 137/197/106
f 152/188/97 150/187/96 153/253/107
f 150/187/96 136/254/103 153/253/107
f 150/187/96 151/255/104 136/254/103
f 150/187/96 145/183/93 151/255/104
f 145/256/93 135/191/100 151/250/104
f 148/186/95 149/257/98 138/209/109
f 148/186/95 146/185/92 149/257/98
f 146/182/92 133/181/91 149/189/98
f 145/256/93 147/192/101 135/191/100
f 145/256/93 146/258/92 147/192/101
f 146/258/92 134/203/94 147/192/101
f 175/259/133 188/260/134 187/261/135
f 176/262/136 188/260/134 190/263/137
f 175/259/133 187/261/135 192/264/138
f 175/259/133 192/264/138 194/265/139
f 175/259/133 194/265/139 191/266/140
f 176/267/136 190/268/137 197/269/141
f 177/270/142 189/271/143 199/208/144
f 178/272/145 193/273/146 201/274/147
f 179/275/148 195/276/149 203/277/150
f 180/278/151 196/279/152 205/280/153
f 176/281/136 197/282/141 200/283/154
f 177/270/142 199/208/144 202/284/155
f 178/272/145 201/274/147 204/285/156
f 179/275/148 203/277/150 206/193/157
f 180/278/151 205/280/153 198/286/158
f 181/287/159 207/288/160 212/289/161
f 182/290/162 208/291/163 214/292/164
f 183/293/165 209/294/166 215/295/167
f 184/296/168 210/297/169 216/298/170
f 185/299/171 211/300/172 213/301/173
f 213/302/173 216/303/170 186/304/174
f 213/301/173 211/300/172 216/305/170
f 211/306/172 184/296/168 216/298/170
f 216/303/170 215/295/167 186/304/174
f 216/303/170 210/307/169 215/295/167
f 210/307/169 183/293/165 215/295/167
f 215/295/167 214/308/164 186/304/174
f 215/295/167 209/294/166 214/308/164
f 209/294/166 182/309/162 214/308/164
f 214/308/164 212/310/161 186/304/174
f 214/292/164 208/291/163 212/289/161
f 208/291/163 181/287/159 212/289/161
f 212/310/161 213/302/173 186/304/174
f 212/311/161 207/312/160 213/301/173
f 207/312/160 185/299/171 213/301/173
f 198/313/158 211/300/172 185/299/171
f 198/286/158 205/280/153 211/306/172
f 205/280/153 184/296/168 211/306/172
f 206/193/157 210/297/169 184/296/168
f 206/193/157 203/277/150 210/297/169
f 203/277/150 183/314/165 210/297/169
f 204/285/156 209/315/166 183/316/165
f 204/285/156 201/274/147 209/315/166
f 201/317/147 182/309/162 209/294/166
f 202/284/155 208/291/163 182/290/162
f 202/284/155 199/208/144 208/291/163
f 199/208/144 181/287/159 208/291/163
f 200/283/154 207/288/160 181/287/159
f 200/283/154 197/282/141 207/288/160
f 197/269/141 185/299/171 207/312/160
f 205/280/153 206/193/157 184/296/168
f 205/280/153 196/279/152 206/193/157
f 196/279/152 179/275/148 206/193/157
f 203/277/150 204/318/156 183/314/165
f 203/319/150 195/320/149 204/285/156
f 195/320/149 178/272/145 204/285/156
f 201/321/147 202/284/155 182/290/162
f 201/321/147 193/322/146 202/284/155
f 193/322/146 177/270/142 202/284/155
f 199/208/144 200/283/154 181/287/159
f 199/208/144 189/271/143 200/283/154
f 189/271/143 176/281/136 200/283/154
f 197/269/141 198/313/158 185/299/171
f 197/269/141 190/268/137 198/313/158
f 190/268/137 180/323/151 198/313/158
f 191/324/140 196/279/152 180/278/151
f 191/324/140 194/325/139 196/279/152
f 194/325/139 179/275/148 196/279/152
f 194/325/139 195/276/149 179/275/148
f 194/326/139 192/327/138 195/320/149
f 192/327/138 178/272/145 195/320/149
f 192/327/138 193/273/146 178/272/145
f 192/327/138 187/328/135 193/273/146
f 187/329/135 177/270/142 193/322/146
f 190/263/137 191/266/140 180/330/151
f 190/263/137 188/260/134 191/266/140
f 188/260/134 175/259/133 191/266/140
f 187/329/135 189/271/143 177/270/142
f 187/261/135 188/260/134 189/331/143
f 188/260/134 176/262/136 189/331/143
f 217/332/175 224/333/176 223/334/177
f 219/335/178 224/336/176 218/337/179
f 220/338/180 225/339/181 219/340/178
f 221/341/182 226/342/183 220/338/180
f 222/343/184 227/344/185 221/345/182
f 222/346/184 223/334/177 228/347/186
f 224/333/176 229/348/187 223/334/177
f 225/349/181 230/350/188 224/336/176
f 225/339/181 232/348/189 231/351/190
f 226/342/183 233/352/191 232/348/189
f 228/353/186 233/354/191 227/344/185
f 223/334/177 234/352/192 228/347/186
f 229/348/187 236/339/193 235/342/194
f 231/355/190 236/356/193 230/350/188
f 232/348/189 237/333/195 231/351/190
f 233/352/191 238/334/196 232/348/189
f 234/357/192 239/358/197 233/354/191
f 234/352/192 235/342/194 240/359/198
f 236/339/193 241/338/199 235/342/194
f 237/360/195 242/361/200 236/356/193
f 237/333/195 244/332/201 243/362/202
f 238/334/196 245/346/203 244/332/201
f 240/363/198 245/364/203 239/358/197
f 235/342/194 246/341/204 240/359/198
s 0
f 222/365/205 220/366/205 218/367/205
f 244/368/206 245/369/206 241/370/206
s 1
f 247/332/175 254/333/176 253/334/177
f 249/343/178 254/344/176 248/345/179
f 250/338/180 255/339/181 249/340/178
f 251/341/182 256/342/183 250/338/180
f 252/335/184 257/336/185 251/337/182
f 252/346/184 253/334/177 258/347/186
f 254/333/176 259/348/187 253/334/177
f 255/353/181 260/354/188 254/344/176
f 255/339/181 262/348/189 261/351/190
f 256/342/183 263/352/191 262/348/189
f 258/349/186 263/350/191 257/336/185
f 253/334/177 264/352/192 258/347/186
f 259/348/187 266/339/193 265/342/194
f 261/357/190 266/358/193 260/354/188
f 262/348/189 267/333/195 261/351/190
f 263/352/191 268/334/196 262/348/189
f 264/355/192 269/356/197 263/350/191
f 264/352/192 265/342/194 270/359/198
f 266/339/193 271/338/199 265/342/194
f 267/363/195 272/364/200 266/358/193
f 267/333/195 274/332/201 273/362/202
f 268/334/196 275/346/203 274/332/201
f 270/360/198 275/361/203 269/356/197
f 265/342/194 276/341/204 270/359/198
s 0
f 250/370/205 249/371/205 248/372/205
f 271/366/206 273/367/206 275/365/206
s 1
f 277/373/207 284/374/208 283/375/209
f 279/376/210 284/377/208 278/378/211
f 280/379/212 285/380/213 279/381/210
f 281/382/214 286/383/215 280/379/212
f 282/384/216 287/385/217 281/386/214
f 282/387/216 283/375/209 288/388/218
f 284/374/208 289/389/219 283/375/209
f 285/390/213 290/391/220 284/377/208
f 285/380/213 292/389/221 291/392/222
f 286/383/215 293/393/223 292/389/221
f 288/394/218 293/395/223 287/385/217
f 283/375/209 294/393/224 288/388/218
f 289/389/219 296/380/225 295/383/226
f 291/395/222 296/394/225 290/391/220
f 292/389/221 297/374/227 291/392/222
f 293/393/223 298/375/228 292/389/221
f 294/391/224 299/390/229 293/395/223
f 294/393/224 295/383/226 300/396/230
f 296/380/225 301/379/231 295/383/226
f 297/385/227 302/384/232 296/394/225
f 297/374/227 304/373/233 303/397/234
f 298/375/228 305/387/235 304/373/233
f 300/377/230 305/376/235 299/390/229
f 295/383/226 306/382/236 300/396/230
s 0
f 282/398/237 280/399/237 278/400/237
f 301/401/238 303/402/238 305/403/238
s 1
f 307/373/207 314/374/208 313/375/209
f 309/404/210 314/405/208 308/406/211
f 310/379/212 315/380/213 309/381/210
f 311/382/214 316/383/215 310/379/212
f 312/407/216 317/408/217 311/409/214
f 312/387/216 313/375/209 318/388/218
f 314/374/208 319/389/219 313/375/209
f 315/410/213 320/411/220 314/405/208
f 315/380/213 322/389/221 321/392/222
f 316/383/215 323/393/223 322/389/221
f 318/412/218 323/413/223 317/408/217
f 313/375/209 324/393/224 318/388/218
f 319/389/219 326/380/225 325/383/226
f 321/413/222 326/412/225 320/411/220
f 322/389/221 327/374/227 321/392/222
f 323/393/223 328/375/228 322/389/221
f 324/411/224 329/410/229 323/413/223
f 324/393/224 325/383/226 330/396/230
f 326/380/225 331/379/231 325/383/226
f 327/408/227 332/407/232 326/412/225
f 327/374/227 334/373/233 333/397/234
f 328/375/228 335/387/235 334/373/233
f 330/405/230 335/404/235 329/410/229
f 325/383/226 336/382/236 330/396/230
s 0
f 312/403/237 310/401/237 308/402/237
f 331/399/238 333/400/238 335/398/238
s 1
f 217/332/175 218/362/179 224/333/176
f 219/335/178 225/349/181 224/336/176
f 220/338/180 226/342/183 225/339/181
f 221/341/182 227/359/185 226/342/183
f 222/343/184 228/353/186 227/344/185
f 222/346/184 217/332/175 223/334/177
f 224/333/176 230/351/188 229/348/187
f 225/349/181 231/355/190 230/350/188
f 225/339/181 226/342/183 232/348/189
f 226/342/183 227/359/185 233/352/191
f 228/353/186 234/357/192 233/354/191
f 223/334/177 229/348/187 234/352/192
f 229/348/187 230/351/188 236/339/193
f 231/355/190 237/360/195 236/356/193
f 232/348/189 238/334/196 237/333/195
f 233/352/191 239/347/197 238/334/196
f 234/357/192 240/363/198 239/358/197
f 234/352/192 229/348/187 235/342/194
f 236/339/193 242/340/200 241/338/199
f 237/360/195 243/414/202 242/361/200
f 237/333/195 238/334/196 244/332/201
f 238/334/196 239/347/197 245/346/203
f 240/363/198 246/415/204 245/364/203
f 235/342/194 241/338/199 246/341/204
s 0
f 218/367/205 217/416/205 222/365/205
f 222/365/205 221/417/205 220/366/205
f 220/366/205 219/418/205 218/367/205
f 245/369/206 246/419/206 241/370/206
f 241/370/206 242/371/206 243/372/206
f 243/372/206 244/368/206 241/370/206
s 1
f 247/332/175 248/362/179 254/333/176
f 249/343/178 255/353/181 254/344/176
f 250/338/180 256/342/183 255/339/181
f 251/341/182 257/359/185 256/342/183
f 252/335/184 258/349/186 257/336/185
f 252/346/184 247/332/175 253/334/177
f 254/333/176 260/351/188 259/348/187
f 255/353/181 261/357/190 260/354/188
f 255/339/181 256/342/183 262/348/189
f 256/342/183 257/359/185 263/352/191
f 258/349/186 264/355/192 263/350/191
f 253/334/177 259/348/187 264/352/192
f 259/348/187 260/351/188 266/339/193
f 261/357/190 267/363/195 266/358/193
f 262/348/189 268/334/196 267/333/195
f 263/352/191 269/347/197 268/334/196
f 264/355/192 270/360/198 269/356/197
f 264/352/192 259/348/187 265/342/194
f 266/339/193 272/340/200 271/338/199
f 267/363/195 273/415/202 272/364/200
f 267/333/195 268/334/196 274/332/201
f 268/334/196 269/347/197 275/346/203
f 270/360/198 276/414/204 275/361/203
f 265/342/194 271/338/199 276/341/204
s 0
f 248/372/205 247/368/205 250/370/205
f 247/368/205 252/369/205 250/370/205
f 252/369/205 251/419/205 250/370/205
f 275/365/206 276/417/206 271/366/206
f 271/366/206 272/418/206 273/367/206
f 273/367/206 274/416/206 275/365/206
s 1
f 277/373/207 278/397/211 284/374/208
f 279/376/210 285/390/213 284/377/208
f 280/379/212 286/383/215 285/380/213
f 281/382/214 287/396/217 286/383/215
f 282/384/216 288/394/218 287/385/217
f 282/387/216 277/373/207 283/375/209
f 284/374/208 290/392/220 289/389/219
f 285/390/213 291/395/222 290/391/220
f 285/380/213 286/383/215 292/389/221
f 286/383/215 287/396/217 293/393/223
f 288/394/218 294/391/224 293/395/223
f 283/375/209 289/389/219 294/393/224
f 289/389/219 290/392/220 296/380/225
f 291/395/222 297/385/227 296/394/225
f 292/389/221 298/375/228 297/374/227
f 293/393/223 299/388/229 298/375/228
f 294/391/224 300/377/230 299/390/229
f 294/393/224 289/389/219 295/383/226
f 296/380/225 302/381/232 301/379/231
f 297/385/227 303/386/234 302/384/232
f 297/374/227 298/375/228 304/373/233
f 298/375/228 299/388/229 305/387/235
f 300/377/230 306/378/236 305/376/235
f 295/383/226 301/379/231 306/382/236
s 0
f 278/400/237 277/420/237 282/398/237
f 282/398/237 281/421/237 280/399/237
f 280/399/237 279/422/237 278/400/237
f 305/403/238 306/423/238 301/401/238
f 301/401/238 302/424/238 303/402/238
f 303/402/238 304/425/238 305/403/238
s 1
f 307/373/207 308/397/211 314/374/208
f 309/404/210 315/410/213 314/405/208
f 310/379/212 316/383/215 315/380/213
f 311/382/214 317/396/217 316/383/215
f 312/407/216 318/412/218 317/408/217
f 312/387/216 307/373/207 313/375/209
f 314/374/208 320/392/220 319/389/219
f 315/410/213 321/413/222 320/411/220
f 315/380/213 316/383/215 322/389/221
f 316/383/215 317/396/217 323/393/223
f 318/412/218 324/411/224 323/413/223
f 313/375/209 319/389/219 324/393/224
f 319/389/219 320/392/220 326/380/225
f 321/413/222 327/408/227 326/412/225
f 322/389/221 328/375/228 327/374/227
f 323/393/223 329/388/229 328/375/228
f 324/411/224 330/405/230 329/410/229
f 324/393/224 319/389/219 325/383/226
f 326/380/225 332/381/232 331/379/231
f 327/408/227 333/409/234 332/407/232
f 327/374/227 328/375/228 334/373/233
f 328/375/228 329/388/229 335/387/235
f 330/405/230 336/406/236 335/404/235
f 325/383/226 331/379/231 336/382/236
s 0
f 308/402/237 307/425/237 312/403/237
f 312/403/237 311/423/237 310/401/237
f 310/401/237 309/424/237 308/402/237
f 335/398/238 336/421/238 331/399/238
f 331/399/238 332/422/238 333/400/238
f 333/400/238 334/420/238 335/398/238
