# Blender 5.0.1
# www.blender.org
mtllib raft_sail.mtl
o wood
usemtl wood
v -0.180000 0.000000 -0.180000
v -0.180000 0.000000 0.180000
v -0.180000 0.140000 -0.180000
v -0.180000 0.140000 0.180000
v 0.180000 0.000000 -0.180000
v 0.180000 0.000000 0.180000
v 0.180000 0.140000 -0.180000
v 0.180000 0.140000 0.180000
v 0.078000 0.100000 0.000000
v 0.055154 0.100000 -0.055154
v 0.000000 0.100000 -0.078000
v -0.055154 0.100000 -0.055154
v -0.078000 0.100000 -0.000000
v -0.055154 0.100000 0.055154
v -0.000000 0.100000 0.078000
v 0.055154 0.100000 0.055154
v 0.070000 1.200000 0.010000
v 0.049497 1.200000 -0.039497
v 0.000000 1.200000 -0.060000
v -0.049497 1.200000 -0.039497
v -0.070000 1.200000 0.010000
v -0.049497 1.200000 0.059497
v -0.000000 1.200000 0.080000
v 0.049497 1.200000 0.059497
v 0.060000 2.300000 0.015000
v 0.042426 2.300000 -0.027426
v 0.000000 2.300000 -0.045000
v -0.042426 2.300000 -0.027426
v -0.060000 2.300000 0.015000
v -0.042426 2.300000 0.057426
v -0.000000 2.300000 0.075000
v 0.042426 2.300000 0.057426
v 0.050000 3.200000 0.000000
v 0.035355 3.200000 -0.035355
v 0.000000 3.200000 -0.050000
v -0.035355 3.200000 -0.035355
v -0.050000 3.200000 -0.000000
v -0.035355 3.200000 0.035355
v -0.000000 3.200000 0.050000
v 0.035355 3.200000 0.035355
v -0.900000 2.920000 0.045000
v -0.900000 2.881029 0.022500
v -0.900000 2.881029 -0.022500
v -0.900000 2.920000 -0.045000
v -0.900000 2.958971 -0.022500
v -0.900000 2.958971 0.022500
v 0.000000 2.908000 0.065000
v 0.000000 2.869029 0.042500
v 0.000000 2.869029 -0.002500
v 0.000000 2.908000 -0.025000
v 0.000000 2.946971 -0.002500
v 0.000000 2.946971 0.042500
v 0.900000 2.920000 0.045000
v 0.900000 2.881029 0.022500
v 0.900000 2.881029 -0.022500
v 0.900000 2.920000 -0.045000
v 0.900000 2.958971 -0.022500
v 0.900000 2.958971 0.022500
v -0.800000 0.780000 0.040000
v -0.800000 0.745359 0.020000
v -0.800000 0.745359 -0.020000
v -0.800000 0.780000 -0.040000
v -0.800000 0.814641 -0.020000
v -0.800000 0.814641 0.020000
v 0.000000 0.768000 0.060000
v 0.000000 0.733359 0.040000
v 0.000000 0.733359 0.000000
v 0.000000 0.768000 -0.020000
v 0.000000 0.802641 0.000000
v 0.000000 0.802641 0.040000
v 0.800000 0.780000 0.040000
v 0.800000 0.745359 0.020000
v 0.800000 0.745359 -0.020000
v 0.800000 0.780000 -0.040000
v 0.800000 0.814641 -0.020000
v 0.800000 0.814641 0.020000
vn -1.0000 -0.0000 -0.0000
vn -0.0000 1.0000 -0.0000
vn 1.0000 -0.0000 -0.0000
vn -0.0000 -1.0000 -0.0000
vn -0.0000 -0.0000 -1.0000
vn -0.0000 -0.0000 1.0000
vn 1.0000 0.0073 -0.0022
vn 0.7073 0.0130 -0.7068
vn 1.0000 0.0082 0.0006
vn 0.7059 0.0137 -0.7081
vn -0.0000 0.0150 -0.9999
vn -0.7059 0.0137 -0.7081
vn -0.0000 0.0164 -0.9999
vn -1.0000 0.0073 -0.0022
vn -0.7073 0.0130 -0.7068
vn -0.7082 0.0009 0.7060
vn -1.0000 0.0082 0.0006
vn -0.0000 -0.0018 1.0000
vn -0.7068 0.0034 0.7074
vn 0.7068 0.0034 0.7074
vn -0.0000 0.0014 1.0000
vn 0.7082 0.0009 0.7060
vn 0.7084 0.0058 -0.7058
vn 0.9999 0.0101 0.0026
vn -0.0000 0.0040 -1.0000
vn -0.7084 0.0058 -0.7058
vn -0.9999 0.0101 0.0026
vn -0.7058 0.0144 0.7083
vn 0.7058 0.0144 0.7083
vn -0.0000 0.0161 0.9999
vn 0.9999 0.0110 -0.0041
vn 0.7051 -0.0007 -0.7091
vn -0.7051 -0.0007 -0.7091
vn -0.0000 -0.0056 -1.0000
vn -0.9999 0.0110 -0.0041
vn -0.7090 0.0229 0.7049
vn -0.0000 0.0278 0.9996
vn 0.7090 0.0229 0.7049
vn -0.0226 -0.8678 0.4964
vn -0.0000 -0.0042 1.0000
vn -0.0222 0.0043 0.9997
vn -0.0000 -0.8701 -0.4928
vn -0.0000 -0.8640 0.5034
vn -0.0002 -0.8619 -0.5071
vn -0.0000 -0.0043 -1.0000
vn 0.0223 0.0042 -0.9997
vn -0.0000 0.8680 -0.4965
vn 0.0006 0.8701 0.4928
vn 0.0227 0.8638 -0.5033
vn -0.0000 0.8619 0.5071
vn 0.0226 -0.8678 0.4964
vn 0.0222 0.0043 0.9997
vn 0.0002 -0.8619 -0.5071
vn -0.0223 0.0042 -0.9997
vn -0.0006 0.8701 0.4928
vn -0.0227 0.8638 -0.5033
vn -0.0254 -0.8680 0.4959
vn -0.0000 -0.0047 1.0000
vn -0.0249 0.0048 0.9997
vn -0.0000 -0.8706 -0.4919
vn -0.0000 -0.8638 0.5038
vn -0.0002 -0.8614 -0.5080
vn -0.0000 -0.0048 -1.0000
vn 0.0251 0.0047 -0.9997
vn -0.0000 0.8683 -0.4961
vn 0.0008 0.8706 0.4919
vn 0.0255 0.8635 -0.5037
vn -0.0000 0.8614 0.5080
vn 0.0254 -0.8680 0.4959
vn 0.0249 0.0048 0.9997
vn 0.0002 -0.8614 -0.5080
vn -0.0251 0.0047 -0.9997
vn -0.0008 0.8706 0.4919
vn -0.0255 0.8635 -0.5037
vt 0.360000 0.000000
vt -0.360000 0.280000
vt -0.360000 0.000000
vt -0.360000 0.360000
vt 0.360000 -0.360000
vt -0.360000 -0.360000
vt 0.360000 0.280000
vt 0.360000 0.360000
vt -0.000000 0.200000
vt 0.078995 2.400000
vt -0.020000 2.400000
vt -0.110309 0.200000
vt -0.000000 2.400000
vt -0.098995 2.400000
vt 0.110309 0.200000
vt -0.000000 0.200000
vt -0.000000 0.200000
vt -0.078995 2.400000
vt 0.020000 2.400000
vt -0.000000 0.200000
vt 0.098995 2.400000
vt -0.000000 2.400000
vt -0.118995 2.400000
vt 0.054853 4.600000
vt -0.030000 4.600000
vt -0.000000 4.600000
vt -0.084853 4.600000
vt -0.054853 4.600000
vt 0.118995 2.400000
vt 0.030000 4.600000
vt 0.084853 4.600000
vt -0.000000 4.600000
vt -0.114853 4.600000
vt -0.000000 6.400000
vt -0.070711 6.400000
vt 0.070711 6.400000
vt -0.000000 6.400000
vt -0.000000 6.400000
vt -0.000000 6.400000
vt -0.110309 -0.110309
vt -0.110309 0.110309
vt 0.110309 0.110309
vt 0.000000 -0.100000
vt -0.100000 -0.000000
vt -0.000000 0.100000
vt -1.800000 5.762058
vt 0.000000 5.816000
vt -1.800000 5.840000
vt -1.800000 -0.045000
vt 0.000000 0.005000
vt 0.000000 -0.085000
vt 1.800000 5.762058
vt -0.000000 5.738058
vt 1.800000 5.840000
vt -0.000000 5.893942
vt -1.800000 0.045000
vt 0.000000 -0.005000
vt -1.800000 5.917943
vt 1.800000 -0.045000
vt 1.800000 0.045000
vt 1.800000 5.917943
vt -0.090000 5.840000
vt -0.045000 5.762058
vt 0.045000 5.762058
vt 0.090000 5.840000
vt 0.045000 5.917943
vt -1.600000 1.490718
vt 0.000000 1.536000
vt -1.600000 1.560000
vt -1.600000 -0.040000
vt 0.000000 -0.000000
vt 0.000000 -0.080000
vt 1.600000 1.490718
vt -0.000000 1.466718
vt 1.600000 1.560000
vt -0.000000 1.605282
vt -1.600000 0.040000
vt -1.600000 1.629282
vt 1.600000 -0.040000
vt 1.600000 0.040000
vt 1.600000 1.629282
vt -0.080000 1.560000
vt -0.040000 1.490718
vt 0.040000 1.490718
vt 0.080000 1.560000
vt 0.040000 1.629282
vt 0.114853 4.600000
vt 0.156000 -0.000000
vt 0.110309 -0.110309
vt -0.000000 -0.156000
vt -0.156000 0.000000
vt 0.000000 0.156000
vt 0.070711 0.070711
vt 0.100000 0.000000
vt 0.070711 -0.070711
vt -0.070711 -0.070711
vt -0.070711 0.070711
vt 0.000000 0.085000
vt -0.045000 5.917943
vt 0.000000 0.080000
vt -0.040000 1.629282
s 0
f 2/1/1 3/2/1 1/3/1
f 4/4/2 7/5/2 3/6/2
f 8/2/3 5/1/3 7/7/3
f 6/5/4 1/4/4 5/8/4
f 7/2/5 1/1/5 3/7/5
f 4/2/6 6/1/6 8/7/6
s 1
f 9/9/7 18/10/8 17/11/9
f 10/12/10 19/13/11 18/14/8
f 12/15/12 19/13/11 11/16/13
f 13/17/14 20/18/15 12/12/12
f 14/15/16 21/19/17 13/17/14
f 15/20/18 22/14/19 14/12/16
f 15/20/18 24/21/20 23/22/21
f 16/12/22 17/11/9 24/23/20
f 17/11/9 26/24/23 25/25/24
f 18/14/8 27/26/25 26/27/23
f 20/21/15 27/26/25 19/13/11
f 21/19/17 28/28/26 20/18/15
f 22/29/19 29/30/27 21/19/17
f 23/22/21 30/27/28 22/14/19
f 23/22/21 32/31/29 31/32/30
f 24/23/20 25/25/24 32/33/29
f 26/24/23 33/34/31 25/25/24
f 27/26/25 34/35/32 26/27/23
f 27/26/25 36/36/33 35/37/34
f 28/28/26 37/38/35 36/35/33
f 29/30/27 38/36/36 37/38/35
f 30/27/28 39/39/37 38/35/36
f 32/31/29 39/39/37 31/32/30
f 25/25/24 40/35/38 32/33/29
s 0
f 14/40/4 12/41/4 10/42/4
f 35/43/2 37/44/2 39/45/2
s 1
f 42/46/39 47/47/40 41/48/41
f 42/49/39 49/50/42 48/51/43
f 43/52/44 50/47/45 49/53/42
f 44/54/46 51/55/47 50/47/45
f 46/56/48 51/57/47 45/49/49
f 41/48/41 52/55/50 46/58/48
f 47/47/40 54/52/51 53/54/52
f 49/50/42 54/59/51 48/51/43
f 50/47/45 55/46/53 49/53/42
f 51/55/47 56/48/54 50/47/45
f 51/57/47 58/60/55 57/59/56
f 52/55/50 53/54/52 58/61/55
s 0
f 44/62/1 43/63/1 42/64/1
f 56/65/3 57/66/3 53/62/3
s 1
f 60/67/57 65/68/58 59/69/59
f 60/70/57 67/71/60 66/72/61
f 61/73/62 68/68/63 67/74/60
f 62/75/64 69/76/65 68/68/63
f 64/77/66 69/71/65 63/70/67
f 59/69/59 70/76/68 64/78/66
f 65/68/58 72/73/69 71/75/70
f 67/71/60 72/79/69 66/72/61
f 68/68/63 73/67/71 67/74/60
f 69/76/65 74/69/72 68/68/63
f 69/71/65 76/80/73 75/79/74
f 70/76/68 71/75/70 76/81/73
s 0
f 62/82/1 61/83/1 60/84/1
f 74/85/3 75/86/3 71/82/3
f 2/1/1 4/7/1 3/2/1
f 4/4/2 8/8/2 7/5/2
f 8/2/3 6/3/3 5/1/3
f 6/5/4 2/6/4 1/4/4
f 7/2/5 5/3/5 1/1/5
f 4/2/6 2/3/6 6/1/6
s 1
f 9/9/7 10/15/10 18/10/8
f 10/12/10 11/16/13 19/13/11
f 12/15/12 20/21/15 19/13/11
f 13/17/14 21/19/17 20/18/15
f 14/15/16 22/29/19 21/19/17
f 15/20/18 23/22/21 22/14/19
f 15/20/18 16/15/22 24/21/20
f 16/12/22 9/9/7 17/11/9
f 17/11/9 18/10/8 26/24/23
f 18/14/8 19/13/11 27/26/25
f 20/21/15 28/31/26 27/26/25
f 21/19/17 29/30/27 28/28/26
f 22/29/19 30/87/28 29/30/27
f 23/22/21 31/32/30 30/27/28
f 23/22/21 24/21/20 32/31/29
f 24/23/20 17/11/9 25/25/24
f 26/24/23 34/36/32 33/34/31
f 27/26/25 35/37/34 34/35/32
f 27/26/25 28/31/26 36/36/33
f 28/28/26 29/30/27 37/38/35
f 29/30/27 30/87/28 38/36/36
f 30/27/28 31/32/30 39/39/37
f 32/31/29 40/36/38 39/39/37
f 25/25/24 33/34/31 40/35/38
s 0
f 10/42/4 9/88/4 16/89/4
f 16/89/4 15/90/4 14/40/4
f 14/40/4 13/91/4 12/41/4
f 12/41/4 11/92/4 10/42/4
f 10/42/4 16/89/4 14/40/4
f 39/45/2 40/93/2 33/94/2
f 33/94/2 34/95/2 35/43/2
f 35/43/2 36/96/2 37/44/2
f 37/44/2 38/97/2 39/45/2
f 39/45/2 33/94/2 35/43/2
s 1
f 42/46/39 48/53/43 47/47/40
f 42/49/39 43/56/44 49/50/42
f 43/52/44 44/54/46 50/47/45
f 44/54/46 45/61/49 51/55/47
f 46/56/48 52/98/50 51/57/47
f 41/48/41 47/47/40 52/55/50
f 47/47/40 48/53/43 54/52/51
f 49/50/42 55/60/53 54/59/51
f 50/47/45 56/48/54 55/46/53
f 51/55/47 57/58/56 56/48/54
f 51/57/47 52/98/50 58/60/55
f 52/55/50 47/47/40 53/54/52
s 0
f 42/64/1 41/65/1 44/62/1
f 41/65/1 46/66/1 44/62/1
f 46/66/1 45/99/1 44/62/1
f 57/66/3 58/99/3 53/62/3
f 53/62/3 54/63/3 55/64/3
f 55/64/3 56/65/3 53/62/3
s 1
f 60/67/57 66/74/61 65/68/58
f 60/70/57 61/77/62 67/71/60
f 61/73/62 62/75/64 68/68/63
f 62/75/64 63/81/67 69/76/65
f 64/77/66 70/100/68 69/71/65
f 59/69/59 65/68/58 70/76/68
f 65/68/58 66/74/61 72/73/69
f 67/71/60 73/80/71 72/79/69
f 68/68/63 74/69/72 73/67/71
f 69/76/65 75/78/74 74/69/72
f 69/71/65 70/100/68 76/80/73
f 70/76/68 65/68/58 71/75/70
s 0
f 60/84/1 59/85/1 62/82/1
f 59/85/1 64/86/1 62/82/1
f 64/86/1 63/101/1 62/82/1
f 75/86/3 76/101/3 71/82/3
f 71/82/3 72/83/3 73/84/3
f 73/84/3 74/85/3 71/82/3
o cloth
usemtl cloth
v -0.850000 2.920000 0.000000
v -0.637500 2.920000 0.045595
v -0.425000 2.920000 0.084248
v -0.212500 2.920000 0.110075
v 0.000000 2.920000 0.119144
v 0.212500 2.920000 0.110075
v 0.425000 2.920000 0.084248
v 0.637500 2.920000 0.045595
v 0.850000 2.920000 0.000000
v -0.837778 2.682222 0.000000
v -0.628333 2.682010 0.083560
v -0.418889 2.681829 0.142828
v -0.209444 2.681709 0.171497
v 0.000000 2.681667 0.178849
v 0.209444 2.681709 0.171497
v 0.418889 2.681829 0.142828
v 0.628333 2.682010 0.083560
v 0.837778 2.682222 0.000000
v -0.825556 2.444444 0.000000
v -0.619167 2.443594 0.110877
v -0.412778 2.442873 0.187148
v -0.206389 2.442391 0.221360
v 0.000000 2.442222 0.229214
v 0.206389 2.442391 0.221360
v 0.412778 2.442873 0.187148
v 0.619167 2.443594 0.110877
v 0.825556 2.444444 0.000000
v -0.813333 2.206667 0.000000
v -0.610000 2.204753 0.123210
v -0.406667 2.203131 0.212075
v -0.203333 2.202047 0.256722
v 0.000000 2.201667 0.268742
v 0.203333 2.202047 0.256722
v 0.406667 2.203131 0.212075
v 0.610000 2.204753 0.123210
v 0.813333 2.206667 0.000000
v -0.801111 1.968889 0.000000
v -0.600833 1.965487 0.120375
v -0.400556 1.962603 0.216267
v -0.200278 1.960677 0.274523
v 0.000000 1.960000 0.293535
v 0.200278 1.960677 0.274523
v 0.400556 1.962603 0.216267
v 0.600833 1.965487 0.120375
v 0.801111 1.968889 0.000000
v -0.788889 1.731111 0.000000
v -0.591667 1.725796 0.105992
v -0.394444 1.721290 0.202004
v -0.197222 1.718279 0.271974
v 0.000000 1.717222 0.297989
v 0.197222 1.718279 0.271974
v 0.394444 1.721290 0.202004
v 0.591667 1.725796 0.105992
v 0.788889 1.731111 0.000000
v -0.776667 1.493333 0.000000
v -0.582500 1.485680 0.085618
v -0.388333 1.479191 0.173790
v -0.194167 1.474856 0.247434
v 0.000000 1.473333 0.276953
v 0.194167 1.474856 0.247434
v 0.388333 1.479191 0.173790
v 0.582500 1.485680 0.085618
v 0.776667 1.493333 0.000000
v -0.764444 1.255556 0.000000
v -0.573333 1.245138 0.064234
v -0.382222 1.236307 0.136415
v -0.191111 1.230405 0.201395
v 0.000000 1.228333 0.228372
v 0.191111 1.230405 0.201395
v 0.382222 1.236307 0.136415
v 0.573333 1.245138 0.064234
v 0.764444 1.255556 0.000000
v -0.752222 1.017778 0.000000
v -0.564167 1.004171 0.044267
v -0.376111 0.992636 0.093365
v -0.188056 0.984929 0.137104
v 0.000000 0.982222 0.155178
v 0.188056 0.984929 0.137104
v 0.376111 0.992636 0.093365
v 0.564167 1.004171 0.044267
v 0.752222 1.017778 0.000000
v -0.740000 0.780000 0.000000
v -0.555000 0.762779 0.025044
v -0.370000 0.748180 0.046275
v -0.185000 0.738425 0.060461
v 0.000000 0.735000 0.065443
v 0.185000 0.738425 0.060461
v 0.370000 0.748180 0.046275
v 0.555000 0.762779 0.025044
v 0.740000 0.780000 0.000000
v -0.850000 2.920000 0.000000
v -0.637500 2.920000 0.045595
v -0.425000 2.920000 0.084248
v -0.212500 2.920000 0.110075
v 0.000000 2.920000 0.119144
v 0.212500 2.920000 0.110075
v 0.425000 2.920000 0.084248
v 0.637500 2.920000 0.045595
v 0.850000 2.920000 0.000000
v -0.837778 2.682222 0.000000
v -0.628333 2.682010 0.083560
v -0.418889 2.681829 0.142828
v -0.209444 2.681709 0.171497
v 0.000000 2.681667 0.178849
v 0.209444 2.681709 0.171497
v 0.418889 2.681829 0.142828
v 0.628333 2.682010 0.083560
v 0.837778 2.682222 0.000000
v -0.825556 2.444444 0.000000
v -0.619167 2.443594 0.110877
v -0.412778 2.442873 0.187148
v -0.206389 2.442391 0.221360
v 0.000000 2.442222 0.229214
v 0.206389 2.442391 0.221360
v 0.412778 2.442873 0.187148
v 0.619167 2.443594 0.110877
v 0.825556 2.444444 0.000000
v -0.813333 2.206667 0.000000
v -0.610000 2.204753 0.123210
v -0.406667 2.203131 0.212075
v -0.203333 2.202047 0.256722
v 0.000000 2.201667 0.268742
v 0.203333 2.202047 0.256722
v 0.406667 2.203131 0.212075
v 0.610000 2.204753 0.123210
v 0.813333 2.206667 0.000000
v -0.801111 1.968889 0.000000
v -0.600833 1.965487 0.120375
v -0.400556 1.962603 0.216267
v -0.200278 1.960677 0.274523
v 0.000000 1.960000 0.293535
v 0.200278 1.960677 0.274523
v 0.400556 1.962603 0.216267
v 0.600833 1.965487 0.120375
v 0.801111 1.968889 0.000000
v -0.788889 1.731111 0.000000
v -0.591667 1.725796 0.105992
v -0.394444 1.721290 0.202004
v -0.197222 1.718279 0.271974
v 0.000000 1.717222 0.297989
v 0.197222 1.718279 0.271974
v 0.394444 1.721290 0.202004
v 0.591667 1.725796 0.105992
v 0.788889 1.731111 0.000000
v -0.776667 1.493333 0.000000
v -0.582500 1.485680 0.085618
v -0.388333 1.479191 0.173790
v -0.194167 1.474856 0.247434
v 0.000000 1.473333 0.276953
v 0.194167 1.474856 0.247434
v 0.388333 1.479191 0.173790
v 0.582500 1.485680 0.085618
v 0.776667 1.493333 0.000000
v -0.764444 1.255556 0.000000
v -0.573333 1.245138 0.064234
v -0.382222 1.236307 0.136415
v -0.191111 1.230405 0.201395
v 0.000000 1.228333 0.228372
v 0.191111 1.230405 0.201395
v 0.382222 1.236307 0.136415
v 0.573333 1.245138 0.064234
v 0.764444 1.255556 0.000000
v -0.752222 1.017778 0.000000
v -0.564167 1.004171 0.044267
v -0.376111 0.992636 0.093365
v -0.188056 0.984929 0.137104
v 0.000000 0.982222 0.155178
v 0.188056 0.984929 0.137104
v 0.376111 0.992636 0.093365
v 0.564167 1.004171 0.044267
v 0.752222 1.017778 0.000000
v -0.740000 0.780000 0.000000
v -0.555000 0.762779 0.025044
v -0.370000 0.748180 0.046275
v -0.185000 0.738425 0.060461
v 0.000000 0.735000 0.065443
v 0.185000 0.738425 0.060461
v 0.370000 0.748180 0.046275
v 0.555000 0.762779 0.025044
v 0.740000 0.780000 0.000000
vn -0.2098 -0.0108 0.9777
vn -0.2351 0.1018 0.9666
vn -0.1701 0.2085 0.9631
vn -0.0834 0.2443 0.9661
vn -0.0000 0.2464 0.9692
vn 0.0834 0.2443 0.9661
vn 0.1701 0.2085 0.9631
vn 0.2351 0.1018 0.9666
vn 0.2098 -0.0108 0.9777
vn -0.3323 0.0249 0.9428
vn -0.3227 0.1136 0.9397
vn -0.2081 0.1930 0.9589
vn -0.0873 0.2207 0.9714
vn -0.0000 0.2237 0.9747
vn 0.0873 0.2207 0.9714
vn 0.2081 0.1930 0.9589
vn 0.3227 0.1136 0.9397
vn 0.3323 0.0249 0.9428
vn -0.4482 0.0057 0.8939
vn -0.4070 0.0633 0.9112
vn -0.2572 0.1277 0.9579
vn -0.1049 0.1666 0.9804
vn -0.0000 0.1792 0.9838
vn 0.1049 0.1666 0.9804
vn 0.2572 0.1277 0.9579
vn 0.4070 0.0633 0.9112
vn 0.4482 0.0057 0.8939
vn -0.5069 -0.0127 0.8619
vn -0.4531 0.0082 0.8914
vn -0.3058 0.0519 0.9507
vn -0.1413 0.1010 0.9848
vn -0.0000 0.1238 0.9923
vn 0.1413 0.1010 0.9848
vn 0.3058 0.0519 0.9507
vn 0.4531 0.0082 0.8914
vn 0.5069 -0.0127 0.8619
vn -0.5161 -0.0274 0.8561
vn -0.4650 -0.0394 0.8844
vn -0.3498 -0.0209 0.9366
vn -0.1897 0.0258 0.9815
vn -0.0000 0.0515 0.9987
vn 0.1897 0.0258 0.9815
vn 0.3498 -0.0209 0.9366
vn 0.4650 -0.0394 0.8844
vn 0.5161 -0.0274 0.8561
vn -0.4846 -0.0373 0.8740
vn -0.4471 -0.0715 0.8916
vn -0.3798 -0.0778 0.9218
vn -0.2315 -0.0502 0.9715
vn -0.0000 -0.0339 0.9994
vn 0.2315 -0.0502 0.9715
vn 0.3798 -0.0778 0.9218
vn 0.4471 -0.0715 0.8916
vn 0.4846 -0.0373 0.8740
vn -0.4222 -0.0416 0.9056
vn -0.4030 -0.0870 0.9111
vn -0.3742 -0.1302 0.9182
vn -0.2491 -0.1449 0.9576
vn -0.0000 -0.1445 0.9895
vn 0.2491 -0.1449 0.9576
vn 0.3742 -0.1302 0.9182
vn 0.4030 -0.0870 0.9111
vn 0.4222 -0.0416 0.9056
vn -0.3411 -0.0406 0.9391
vn -0.3359 -0.0901 0.9376
vn -0.3189 -0.1615 0.9339
vn -0.2296 -0.2168 0.9488
vn -0.0000 -0.2372 0.9715
vn 0.2296 -0.2168 0.9488
vn 0.3189 -0.1615 0.9339
vn 0.3359 -0.0901 0.9376
vn 0.3411 -0.0406 0.9391
vn -0.2528 -0.0363 0.9668
vn -0.2467 -0.0890 0.9650
vn -0.2302 -0.1671 0.9587
vn -0.1590 -0.2481 0.9556
vn -0.0000 -0.2911 0.9567
vn 0.1590 -0.2481 0.9556
vn 0.2302 -0.1671 0.9587
vn 0.2467 -0.0890 0.9650
vn 0.2528 -0.0363 0.9668
vn -0.1793 -0.0534 0.9823
vn -0.1632 -0.1181 0.9795
vn -0.1372 -0.2240 0.9649
vn -0.0725 -0.3105 0.9478
vn -0.0000 -0.3412 0.9400
vn 0.0725 -0.3105 0.9478
vn 0.1372 -0.2240 0.9649
vn 0.1632 -0.1181 0.9795
vn 0.1793 -0.0534 0.9823
vn 0.2098 0.0108 -0.9777
vn 0.2351 -0.1018 -0.9666
vn 0.1701 -0.2085 -0.9631
vn 0.0834 -0.2443 -0.9661
vn -0.0000 -0.2464 -0.9692
vn -0.0834 -0.2443 -0.9661
vn -0.1701 -0.2085 -0.9631
vn -0.2351 -0.1018 -0.9666
vn -0.2098 0.0108 -0.9777
vn 0.3323 -0.0249 -0.9428
vn 0.3227 -0.1136 -0.9397
vn 0.2081 -0.1930 -0.9589
vn 0.0873 -0.2207 -0.9714
vn -0.0000 -0.2237 -0.9747
vn -0.0873 -0.2207 -0.9714
vn -0.2081 -0.1930 -0.9589
vn -0.3227 -0.1136 -0.9397
vn -0.3323 -0.0249 -0.9428
vn 0.4482 -0.0057 -0.8939
vn 0.4070 -0.0633 -0.9112
vn 0.2572 -0.1277 -0.9579
vn 0.1049 -0.1666 -0.9804
vn -0.0000 -0.1792 -0.9838
vn -0.1049 -0.1666 -0.9804
vn -0.2572 -0.1277 -0.9579
vn -0.4070 -0.0633 -0.9112
vn -0.4482 -0.0057 -0.8939
vn 0.5069 0.0127 -0.8619
vn 0.4531 -0.0082 -0.8914
vn 0.3058 -0.0519 -0.9507
vn 0.1413 -0.1010 -0.9848
vn -0.0000 -0.1238 -0.9923
vn -0.1413 -0.1010 -0.9848
vn -0.3058 -0.0519 -0.9507
vn -0.4531 -0.0082 -0.8914
vn -0.5069 0.0127 -0.8619
vn 0.5161 0.0274 -0.8561
vn 0.4650 0.0394 -0.8844
vn 0.3498 0.0209 -0.9366
vn 0.1897 -0.0258 -0.9815
vn -0.0000 -0.0515 -0.9987
vn -0.1897 -0.0258 -0.9815
vn -0.3498 0.0209 -0.9366
vn -0.4650 0.0394 -0.8844
vn -0.5161 0.0274 -0.8561
vn 0.4846 0.0373 -0.8740
vn 0.4471 0.0715 -0.8916
vn 0.3798 0.0778 -0.9218
vn 0.2315 0.0502 -0.9715
vn -0.0000 0.0339 -0.9994
vn -0.2315 0.0502 -0.9715
vn -0.3798 0.0778 -0.9218
vn -0.4471 0.0715 -0.8916
vn -0.4846 0.0373 -0.8740
vn 0.4222 0.0416 -0.9056
vn 0.4030 0.0870 -0.9111
vn 0.3742 0.1302 -0.9182
vn 0.2491 0.1449 -0.9576
vn -0.0000 0.1445 -0.9895
vn -0.2491 0.1449 -0.9576
vn -0.3742 0.1302 -0.9182
vn -0.4030 0.0870 -0.9111
vn -0.4222 0.0416 -0.9056
vn 0.3411 0.0406 -0.9391
vn 0.3359 0.0901 -0.9376
vn 0.3189 0.1615 -0.9339
vn 0.2296 0.2168 -0.9488
vn -0.0000 0.2372 -0.9715
vn -0.2296 0.2168 -0.9488
vn -0.3189 0.1615 -0.9339
vn -0.3359 0.0901 -0.9376
vn -0.3411 0.0406 -0.9391
vn 0.2528 0.0363 -0.9668
vn 0.2467 0.0890 -0.9650
vn 0.2302 0.1671 -0.9587
vn 0.1590 0.2481 -0.9556
vn -0.0000 0.2911 -0.9567
vn -0.1590 0.2481 -0.9556
vn -0.2302 0.1671 -0.9587
vn -0.2467 0.0890 -0.9650
vn -0.2528 0.0363 -0.9668
vn 0.1793 0.0534 -0.9823
vn 0.1632 0.1181 -0.9795
vn 0.1372 0.2240 -0.9649
vn 0.0725 0.3105 -0.9478
vn -0.0000 0.3412 -0.9400
vn -0.0725 0.3105 -0.9478
vn -0.1372 0.2240 -0.9649
vn -0.1632 0.1181 -0.9795
vn -0.1793 0.0534 -0.9823
vt -0.465432 1.117593
vt -0.354167 1.216667
vt -0.472222 1.216667
vt -0.349074 1.117504
vt -0.236111 1.216667
vt -0.232716 1.117429
vt -0.118056 1.216667
vt -0.116358 1.117379
vt 0.000000 1.216667
vt 0.116358 1.117379
vt 0.118056 1.216667
vt 0.232716 1.117429
vt 0.236111 1.216667
vt 0.349074 1.117504
vt 0.354167 1.216667
vt 0.465432 1.117593
vt 0.472222 1.216667
vt -0.458642 1.018518
vt -0.343981 1.018164
vt -0.229321 1.017864
vt -0.114660 1.017663
vt 0.000000 1.117361
vt 0.114660 1.017663
vt 0.229321 1.017864
vt 0.343981 1.018164
vt 0.458642 1.018518
vt -0.451852 0.919444
vt -0.338889 0.918647
vt -0.225926 0.917971
vt -0.112963 0.917520
vt 0.000000 1.017593
vt 0.112963 0.917520
vt 0.225926 0.917971
vt 0.338889 0.918647
vt 0.451852 0.919444
vt -0.445062 0.820370
vt -0.333796 0.818953
vt -0.222531 0.817751
vt -0.111265 0.816949
vt 0.000000 0.917361
vt 0.111265 0.816949
vt 0.222531 0.817751
vt 0.333796 0.818953
vt 0.445062 0.820370
vt -0.438272 0.721296
vt -0.328704 0.719082
vt -0.219136 0.717204
vt -0.109568 0.715950
vt 0.000000 0.816667
vt 0.109568 0.715950
vt 0.219136 0.717204
vt 0.328704 0.719082
vt 0.438272 0.721296
vt -0.431481 0.622222
vt -0.323611 0.619033
vt -0.107870 0.614523
vt 0.000000 0.613889
vt 0.000000 0.715509
vt 0.107870 0.614523
vt 0.323611 0.619033
vt 0.431481 0.622222
vt -0.424691 0.523148
vt -0.318519 0.518808
vt -0.215741 0.616330
vt -0.106173 0.512669
vt 0.000000 0.511806
vt 0.106173 0.512669
vt 0.215741 0.616330
vt 0.318519 0.518808
vt 0.424691 0.523148
vt -0.417901 0.424074
vt -0.313426 0.418405
vt -0.212346 0.515128
vt -0.104475 0.410387
vt 0.000000 0.409259
vt 0.104475 0.410387
vt 0.212346 0.515128
vt 0.313426 0.418405
vt 0.417901 0.424074
vt -0.411111 0.325000
vt -0.308333 0.317825
vt -0.208951 0.413598
vt -0.205556 0.311742
vt -0.102778 0.307677
vt 0.102778 0.307677
vt 0.205556 0.311742
vt 0.208951 0.413598
vt 0.308333 0.317825
vt 0.411111 0.325000
vt 0.000000 0.306250
s 1
f 86/102/84 78/103/76 77/104/75
f 87/105/85 79/106/77 78/103/76
f 88/107/86 80/108/78 79/106/77
f 89/109/87 81/110/79 80/108/78
f 81/110/79 91/111/89 82/112/80
f 82/112/80 92/113/90 83/114/81
f 83/114/81 93/115/91 84/116/82
f 84/116/82 94/117/92 85/118/83
f 95/119/93 87/105/85 86/102/84
f 96/120/94 88/107/86 87/105/85
f 97/121/95 89/109/87 88/107/86
f 98/122/96 90/123/88 89/109/87
f 90/123/88 100/124/98 91/111/89
f 91/111/89 101/125/99 92/113/90
f 92/113/90 102/126/100 93/115/91
f 93/115/91 103/127/101 94/117/92
f 104/128/102 96/120/94 95/119/93
f 105/129/103 97/121/95 96/120/94
f 106/130/104 98/122/96 97/121/95
f 107/131/105 99/132/97 98/122/96
f 99/132/97 109/133/107 100/124/98
f 100/124/98 110/134/108 101/125/99
f 101/125/99 111/135/109 102/126/100
f 102/126/100 112/136/110 103/127/101
f 113/137/111 105/129/103 104/128/102
f 114/138/112 106/130/104 105/129/103
f 115/139/113 107/131/105 106/130/104
f 116/140/114 108/141/106 107/131/105
f 108/141/106 118/142/116 109/133/107
f 109/133/107 119/143/117 110/134/108
f 110/134/108 120/144/118 111/135/109
f 111/135/109 121/145/119 112/136/110
f 122/146/120 114/138/112 113/137/111
f 123/147/121 115/139/113 114/138/112
f 124/148/122 116/140/114 115/139/113
f 125/149/123 117/150/115 116/140/114
f 117/150/115 127/151/125 118/142/116
f 118/142/116 128/152/126 119/143/117
f 119/143/117 129/153/127 120/144/118
f 120/144/118 130/154/128 121/145/119
f 131/155/129 123/147/121 122/146/120
f 132/156/130 124/148/122 123/147/121
f 124/148/122 134/157/132 125/149/123
f 125/149/123 135/158/133 126/159/124
f 135/158/133 127/151/125 126/159/124
f 136/160/134 128/152/126 127/151/125
f 128/152/126 138/161/136 129/153/127
f 129/153/127 139/162/137 130/154/128
f 140/163/138 132/156/130 131/155/129
f 141/164/139 133/165/131 132/156/130
f 133/165/131 143/166/141 134/157/132
f 134/157/132 144/167/142 135/158/133
f 144/167/142 136/160/134 135/158/133
f 145/168/143 137/169/135 136/160/134
f 137/169/135 147/170/145 138/161/136
f 138/161/136 148/171/146 139/162/137
f 149/172/147 141/164/139 140/163/138
f 150/173/148 142/174/140 141/164/139
f 142/174/140 152/175/150 143/166/141
f 143/166/141 153/176/151 144/167/142
f 153/176/151 145/168/143 144/167/142
f 154/177/152 146/178/144 145/168/143
f 146/178/144 156/179/154 147/170/145
f 147/170/145 157/180/155 148/171/146
f 158/181/156 150/173/148 149/172/147
f 159/182/157 151/183/149 150/173/148
f 160/184/158 152/175/150 151/183/149
f 161/185/159 153/176/151 152/175/150
f 153/176/151 163/186/161 154/177/152
f 154/177/152 164/187/162 155/188/153
f 155/188/153 165/189/163 156/179/154
f 156/179/154 166/190/164 157/180/155
f 168/103/166 176/102/174 167/104/165
f 169/106/167 177/105/175 168/103/166
f 170/108/168 178/107/176 169/106/167
f 171/110/169 179/109/177 170/108/168
f 171/110/169 181/111/179 180/123/178
f 172/112/170 182/113/180 181/111/179
f 173/114/171 183/115/181 182/113/180
f 174/116/172 184/117/182 183/115/181
f 177/105/175 185/119/183 176/102/174
f 178/107/176 186/120/184 177/105/175
f 179/109/177 187/121/185 178/107/176
f 180/123/178 188/122/186 179/109/177
f 180/123/178 190/124/188 189/132/187
f 181/111/179 191/125/189 190/124/188
f 182/113/180 192/126/190 191/125/189
f 183/115/181 193/127/191 192/126/190
f 186/120/184 194/128/192 185/119/183
f 187/121/185 195/129/193 186/120/184
f 188/122/186 196/130/194 187/121/185
f 189/132/187 197/131/195 188/122/186
f 189/132/187 199/133/197 198/141/196
f 190/124/188 200/134/198 199/133/197
f 191/125/189 201/135/199 200/134/198
f 192/126/190 202/136/200 201/135/199
f 195/129/193 203/137/201 194/128/192
f 196/130/194 204/138/202 195/129/193
f 197/131/195 205/139/203 196/130/194
f 198/141/196 206/140/204 197/131/195
f 198/141/196 208/142/206 207/150/205
f 199/133/197 209/143/207 208/142/206
f 200/134/198 210/144/208 209/143/207
f 201/135/199 211/145/209 210/144/208
f 204/138/202 212/146/210 203/137/201
f 205/139/203 213/147/211 204/138/202
f 206/140/204 214/148/212 205/139/203
f 207/150/205 215/149/213 206/140/204
f 207/150/205 217/151/215 216/159/214
f 208/142/206 218/152/216 217/151/215
f 209/143/207 219/153/217 218/152/216
f 210/144/208 220/154/218 219/153/217
f 213/147/211 221/155/219 212/146/210
f 214/148/212 222/156/220 213/147/211
f 214/148/212 224/157/222 223/165/221
f 215/149/213 225/158/223 224/157/222
f 217/151/215 225/158/223 216/159/214
f 218/152/216 226/160/224 217/151/215
f 218/152/216 228/161/226 227/169/225
f 219/153/217 229/162/227 228/161/226
f 222/156/220 230/163/228 221/155/219
f 223/165/221 231/164/229 222/156/220
f 223/165/221 233/166/231 232/174/230
f 224/157/222 234/167/232 233/166/231
f 226/160/224 234/167/232 225/158/223
f 227/169/225 235/168/233 226/160/224
f 227/169/225 237/170/235 236/178/234
f 228/161/226 238/171/236 237/170/235
f 231/164/229 239/172/237 230/163/228
f 232/174/230 240/173/238 231/164/229
f 232/174/230 242/175/240 241/183/239
f 233/166/231 243/176/241 242/175/240
f 235/168/233 243/176/241 234/167/232
f 236/178/234 244/177/242 235/168/233
f 236/178/234 246/179/244 245/188/243
f 237/170/235 247/180/245 246/179/244
f 240/173/238 248/181/246 239/172/237
f 241/183/239 249/182/247 240/173/238
f 242/175/240 250/184/248 241/183/239
f 243/176/241 251/185/249 242/175/240
f 243/176/241 253/186/251 252/191/250
f 244/177/242 254/187/252 253/186/251
f 245/188/243 255/189/253 254/187/252
f 246/179/244 256/190/254 255/189/253
f 86/102/84 87/105/85 78/103/76
f 87/105/85 88/107/86 79/106/77
f 88/107/86 89/109/87 80/108/78
f 89/109/87 90/123/88 81/110/79
f 81/110/79 90/123/88 91/111/89
f 82/112/80 91/111/89 92/113/90
f 83/114/81 92/113/90 93/115/91
f 84/116/82 93/115/91 94/117/92
f 95/119/93 96/120/94 87/105/85
f 96/120/94 97/121/95 88/107/86
f 97/121/95 98/122/96 89/109/87
f 98/122/96 99/132/97 90/123/88
f 90/123/88 99/132/97 100/124/98
f 91/111/89 100/124/98 101/125/99
f 92/113/90 101/125/99 102/126/100
f 93/115/91 102/126/100 103/127/101
f 104/128/102 105/129/103 96/120/94
f 105/129/103 106/130/104 97/121/95
f 106/130/104 107/131/105 98/122/96
f 107/131/105 108/141/106 99/132/97
f 99/132/97 108/141/106 109/133/107
f 100/124/98 109/133/107 110/134/108
f 101/125/99 110/134/108 111/135/109
f 102/126/100 111/135/109 112/136/110
f 113/137/111 114/138/112 105/129/103
f 114/138/112 115/139/113 106/130/104
f 115/139/113 116/140/114 107/131/105
f 116/140/114 117/150/115 108/141/106
f 108/141/106 117/150/115 118/142/116
f 109/133/107 118/142/116 119/143/117
f 110/134/108 119/143/117 120/144/118
f 111/135/109 120/144/118 121/145/119
f 122/146/120 123/147/121 114/138/112
f 123/147/121 124/148/122 115/139/113
f 124/148/122 125/149/123 116/140/114
f 125/149/123 126/159/124 117/150/115
f 117/150/115 126/159/124 127/151/125
f 118/142/116 127/151/125 128/152/126
f 119/143/117 128/152/126 129/153/127
f 120/144/118 129/153/127 130/154/128
f 131/155/129 132/156/130 123/147/121
f 132/156/130 133/165/131 124/148/122
f 124/148/122 133/165/131 134/157/132
f 125/149/123 134/157/132 135/158/133
f 135/158/133 136/160/134 127/151/125
f 136/160/134 137/169/135 128/152/126
f 128/152/126 137/169/135 138/161/136
f 129/153/127 138/161/136 139/162/137
f 140/163/138 141/164/139 132/156/130
f 141/164/139 142/174/140 133/165/131
f 133/165/131 142/174/140 143/166/141
f 134/157/132 143/166/141 144/167/142
f 144/167/142 145/168/143 136/160/134
f 145/168/143 146/178/144 137/169/135
f 137/169/135 146/178/144 147/170/145
f 138/161/136 147/170/145 148/171/146
f 149/172/147 150/173/148 141/164/139
f 150/173/148 151/183/149 142/174/140
f 142/174/140 151/183/149 152/175/150
f 143/166/141 152/175/150 153/176/151
f 153/176/151 154/177/152 145/168/143
f 154/177/152 155/188/153 146/178/144
f 146/178/144 155/188/153 156/179/154
f 147/170/145 156/179/154 157/180/155
f 158/181/156 159/182/157 150/173/148
f 159/182/157 160/184/158 151/183/149
f 160/184/158 161/185/159 152/175/150
f 161/185/159 162/191/160 153/176/151
f 153/176/151 162/191/160 163/186/161
f 154/177/152 163/186/161 164/187/162
f 155/188/153 164/187/162 165/189/163
f 156/179/154 165/189/163 166/190/164
f 168/103/166 177/105/175 176/102/174
f 169/106/167 178/107/176 177/105/175
f 170/108/168 179/109/177 178/107/176
f 171/110/169 180/123/178 179/109/177
f 171/110/169 172/112/170 181/111/179
f 172/112/170 173/114/171 182/113/180
f 173/114/171 174/116/172 183/115/181
f 174/116/172 175/118/173 184/117/182
f 177/105/175 186/120/184 185/119/183
f 178/107/176 187/121/185 186/120/184
f 179/109/177 188/122/186 187/121/185
f 180/123/178 189/132/187 188/122/186
f 180/123/178 181/111/179 190/124/188
f 181/111/179 182/113/180 191/125/189
f 182/113/180 183/115/181 192/126/190
f 183/115/181 184/117/182 193/127/191
f 186/120/184 195/129/193 194/128/192
f 187/121/185 196/130/194 195/129/193
f 188/122/186 197/131/195 196/130/194
f 189/132/187 198/141/196 197/131/195
f 189/132/187 190/124/188 199/133/197
f 190/124/188 191/125/189 200/134/198
f 191/125/189 192/126/190 201/135/199
f 192/126/190 193/127/191 202/136/200
f 195/129/193 204/138/202 203/137/201
f 196/130/194 205/139/203 204/138/202
f 197/131/195 206/140/204 205/139/203
f 198/141/196 207/150/205 206/140/204
f 198/141/196 199/133/197 208/142/206
f 199/133/197 200/134/198 209/143/207
f 200/134/198 201/135/199 210/144/208
f 201/135/199 202/136/200 211/145/209
f 204/138/202 213/147/211 212/146/210
f 205/139/203 214/148/212 213/147/211
f 206/140/204 215/149/213 214/148/212
f 207/150/205 216/159/214 215/149/213
f 207/150/205 208/142/206 217/151/215
f 208/142/206 209/143/207 218/152/216
f 209/143/207 210/144/208 219/153/217
f 210/144/208 211/145/209 220/154/218
f 213/147/211 222/156/220 221/155/219
f 214/148/212 223/165/221 222/156/220
f 214/148/212 215/149/213 224/157/222
f 215/149/213 216/159/214 225/158/223
f 217/151/215 226/160/224 225/158/223
f 218/152/216 227/169/225 226/160/224
f 218/152/216 219/153/217 228/161/226
f 219/153/217 220/154/218 229/162/227
f 222/156/220 231/164/229 230/163/228
f 223/165/221 232/174/230 231/164/229
f 223/165/221 224/157/222 233/166/231
f 224/157/222 225/158/223 234/167/232
f 226/160/224 235/168/233 234/167/232
f 227/169/225 236/178/234 235/168/233
f 227/169/225 228/161/226 237/170/235
f 228/161/226 229/162/227 238/171/236
f 231/164/229 240/173/238 239/172/237
f 232/174/230 241/183/239 240/173/238
f 232/174/230 233/166/231 242/175/240
f 233/166/231 234/167/232 243/176/241
f 235/168/233 244/177/242 243/176/241
f 236/178/234 245/188/243 244/177/242
f 236/178/234 237/170/235 246/179/244
f 237/170/235 238/171/236 247/180/245
f 240/173/238 249/182/247 248/181/246
f 241/183/239 250/184/248 249/182/247
f 242/175/240 251/185/249 250/184/248
f 243/176/241 252/191/250 251/185/249
f 243/176/241 244/177/242 253/186/251
f 244/177/242 245/188/243 254/187/252
f 245/188/243 246/179/244 255/189/253
f 246/179/244 247/180/245 256/190/254
