# collision hull for rock_stack_a - convex, faces 200
o rock_stack_a_col
v 0.49668 0.14436 0.79804
v 1.07686 1.28595 0.44625
v 0.27914 0.55358 1.09966
v 1.30774 1.36314 0.10046
v 0.36038 0.03542 0.63677
v 0.24534 0.00007 0.52759
v -0.70071 0.00102 0.34294
v -1.29639 0.72426 0.10470
v 0.05940 0.37138 0.97490
v 0.11360 0.84282 1.09619
v -1.07948 0.33936 0.42531
v -0.99499 1.17388 0.45429
v 0.11440 1.07993 1.02677
v 1.20863 0.28613 -0.53781
v -0.65781 1.08798 0.75247
v -0.89082 1.04961 0.64521
v -0.72193 0.84771 0.80521
v -0.86960 0.77442 0.73775
v -0.99131 0.47492 0.60259
v -1.10369 0.72599 0.52746
v -1.14390 0.50744 0.45285
v -1.20842 0.86250 0.30073
v -1.24914 0.60899 0.30078
v -1.19130 0.33748 0.22917
v -0.69627 0.60387 0.81810
v -0.84249 0.42131 0.66801
v -0.98413 0.24559 0.46098
v -0.74794 0.26802 0.62383
v -0.84356 0.09582 0.40034
v 0.09678 0.59159 1.08950
v 0.44371 0.42264 1.04221
v 0.20814 0.08777 0.74413
v 0.24877 0.28443 0.96092
v -1.27159 0.76395 -0.20754
v -1.28354 0.50223 0.09173
v 0.84044 0.23679 -0.82408
v -0.99852 0.12480 0.25026
v -0.93511 0.03779 -0.67131
v -1.07898 0.14245 -0.47395
v -1.03687 1.19973 -0.53098
v -0.93485 1.23627 -0.67158
v -1.27048 0.49184 -0.20829
v -0.76207 0.11132 -0.90358
v 1.06309 0.04539 -0.20124
v 1.23504 0.22359 -0.39195
v -0.62043 0.85310 -1.10528
v -0.58418 0.75577 -1.15527
v -0.60403 0.37720 -1.12783
v -0.84890 1.18605 -0.79019
v -0.56073 0.61957 -1.18665
v -0.43470 0.67458 -1.21898
v -0.52681 0.24205 -1.07189
v -0.49828 -0.00133 -0.88506
v -0.21270 0.60998 -1.25212
v -0.28935 0.46514 -1.22530
v -0.28914 0.35129 -1.17586
v 0.21320 0.51407 -1.17103
v -0.06335 0.31029 -1.12810
v -0.28685 0.12641 -1.00697
v 0.68001 0.00432 -0.56757
v 1.03846 0.17372 -0.57381
v 0.87218 0.00109 -0.42593
v -0.92965 -0.00090 -0.58547
v 0.99268 -0.00210 -0.11202
v -0.48291 2.61109 -0.42399
v 0.34776 2.20990 0.53992
v 0.59130 2.28860 0.29477
v -0.10615 2.18479 -1.09232
v 0.19795 2.61947 0.28955
v -0.45546 2.53558 0.09983
v 0.49838 2.05299 -1.12532
v 0.33122 2.10171 -1.16400
v -0.11842 2.24684 -1.07160
v -0.09845 2.13594 -1.10510
v -0.09207 2.07885 -1.11529
v 0.03997 2.83606 -1.02077
v 0.07347 2.75685 -1.04410
v 0.38948 3.25404 -0.65047
v 0.57584 3.13377 -0.77859
v -0.23069 2.92944 -0.72296
v 0.19075 3.17566 -0.88220
v -0.20374 3.07645 -0.48962
v 0.75613 2.91580 -0.56105
v -0.13803 3.10282 -0.68092
v -0.22578 3.03875 -0.62476
v -0.18729 2.98265 -0.75004
v 0.03463 2.95933 -0.97836
v 0.03388 2.86471 -1.01141
v 0.05691 2.78708 -1.03562
v 0.10624 3.12941 -0.10509
v 0.13598 3.28075 -0.40085
v -0.03776 3.21855 -0.56914
v 0.17198 3.30558 -0.54982
v 0.11569 3.24338 -0.68177
v 0.34338 3.25288 -0.75515
v -0.00930 3.19810 -0.31505
v 0.28562 3.27388 -0.42449
v 0.11189 2.70555 -1.05705
v 0.34202 2.99731 -0.06890
v 0.38600 3.22508 -0.83667
v 0.48902 3.03460 -0.19759
v 0.75262 2.96102 -0.76088
vn 0.4749 -0.6557 0.5870
vn 0.7315 0.1012 0.6743
vn 0.1667 -0.0923 0.9817
vn 0.9672 0.1314 0.2173
vn 0.1316 -0.9278 0.3490
vn 0.0051 -0.9815 0.1914
vn -0.2114 -0.9258 0.3133
vn -0.9820 0.1637 0.0943
vn -0.2323 -0.5109 0.8277
vn 0.0167 0.1814 0.9833
vn -0.7223 -0.4567 0.5194
vn -0.7732 0.3888 0.5010
vn 0.0553 0.3333 0.9412
vn 0.8115 -0.2820 -0.5117
vn -0.3712 0.3615 0.8553
vn -0.5987 0.3234 0.7328
vn -0.3980 0.1608 0.9032
vn -0.5677 0.0545 0.8215
vn -0.6064 -0.2812 0.7438
vn -0.7676 0.0862 0.6351
vn -0.7920 -0.2248 0.5676
vn -0.8925 0.3019 0.3351
vn -0.9215 -0.0625 0.3833
vn -0.8355 -0.4930 0.2425
vn -0.3873 -0.2086 0.8980
vn -0.4272 -0.4124 0.8047
vn -0.5762 -0.5767 0.5792
vn -0.3254 -0.5863 0.7419
vn -0.3988 -0.7619 0.5103
vn -0.2064 -0.2070 0.9563
vn 0.4522 -0.2720 0.8495
vn -0.0825 -0.8255 0.5584
vn -0.0661 -0.6162 0.7848
vn -0.9471 0.1523 -0.2824
vn -0.9620 -0.2599 0.0832
vn 0.4511 -0.4613 -0.7640
vn -0.6019 -0.7651 0.2288
vn -0.6672 -0.5356 -0.5177
vn -0.8625 -0.4171 -0.2866
vn -0.8844 0.2203 -0.4115
vn -0.7946 0.1787 -0.5803
vn -0.9448 -0.1870 -0.2689
vn -0.5596 -0.4710 -0.6819
vn 0.7303 -0.6693 0.1364
vn 0.8860 -0.4626 -0.0310
vn -0.6942 0.1245 -0.7090
vn -0.6051 0.0951 -0.7904
vn -0.5182 -0.2371 -0.8217
vn -0.7445 0.1468 -0.6513
vn -0.5188 -0.0238 -0.8546
vn -0.2144 0.0355 -0.9761
vn -0.1827 -0.5464 -0.8173
vn -0.0734 -0.8892 -0.4516
vn 0.0115 -0.0676 -0.9976
vn -0.0568 -0.2720 -0.9606
vn -0.0218 -0.4825 -0.8756
vn 0.2840 -0.2347 -0.9297
vn 0.1535 -0.5430 -0.8256
vn 0.0650 -0.7016 -0.7096
vn 0.1584 -0.9265 -0.3414
vn 0.4912 -0.7299 -0.4753
vn 0.2679 -0.9323 -0.2428
vn -0.4254 -0.8957 -0.1291
vn 0.5368 -0.8084 0.2415
vn -0.8932 0.4396 -0.0945
vn 0.1876 0.4569 0.8695
vn 0.6241 0.4600 0.6316
vn -0.4168 0.1879 -0.8894
vn -0.0029 0.5579 0.8299
vn -0.6621 0.5302 0.5297
vn 0.4771 0.0879 -0.8744
vn 0.1095 0.1334 -0.9850
vn -0.4905 0.2030 -0.8475
vn -0.3007 0.1618 -0.9399
vn -0.1958 0.1272 -0.9724
vn -0.1635 0.2674 -0.9496
vn -0.0449 0.2385 -0.9701
vn 0.4412 0.8967 0.0361
vn 0.6200 0.6889 -0.3754
vn -0.8002 0.3451 -0.4904
vn -0.1557 0.6708 -0.7252
vn -0.7417 0.6642 0.0930
vn 0.8090 0.5450 0.2200
vn -0.5950 0.6911 -0.4103
vn -0.7911 0.5639 -0.2372
vn -0.6887 0.4359 -0.5794
vn -0.3250 0.4234 -0.8457
vn -0.3068 0.3056 -0.9014
vn -0.1056 0.2477 -0.9631
vn -0.1016 0.7632 0.6382
vn -0.1501 0.9502 0.2731
vn -0.5111 0.8496 -0.1304
vn -0.1026 0.9921 -0.0718
vn -0.3123 0.8731 -0.3744
vn 0.0800 0.9640 -0.2535
vn -0.4896 0.8074 0.3292
vn 0.3402 0.8963 0.2846
vn 0.0550 0.2193 -0.9741
vn 0.3536 0.6379 0.6842
vn 0.2585 0.7366 -0.6249
vn 0.5789 0.6554 0.4851
vn 0.7709 0.4714 -0.4283
f 2//2 66//66 13//13
f 14//14 102//102 4//4
f 71//71 102//102 14//14
f 6//6 63//63 64//64
f 4//4 102//102 83//83
f 12//12 16//16 70//70
f 70//70 16//16 15//15
f 22//22 70//70 8//8
f 22//22 12//12 70//70
f 45//45 14//14 4//4
f 4//4 2//2 45//45
f 71//71 14//14 36//36
f 42//42 35//35 8//8
f 8//8 34//34 42//42
f 31//31 45//45 2//2
f 100//100 102//102 71//71
f 71//71 72//72 100//100
f 78//78 100//100 95//95
f 78//78 95//95 93//93
f 86//86 49//49 41//41
f 70//70 96//96 82//82
f 41//41 49//49 40//40
f 64//64 63//63 53//53
f 14//14 45//45 61//61
f 61//61 36//36 14//14
f 35//35 42//42 39//39
f 39//39 42//42 34//34
f 34//34 40//40 39//39
f 39//39 40//40 49//49
f 51//51 72//72 54//54
f 51//51 75//75 72//72
f 72//72 75//75 98//98
f 98//98 100//100 72//72
f 88//88 47//47 46//46
f 46//46 49//49 88//88
f 47//47 39//39 46//46
f 46//46 39//39 49//49
f 90//90 96//96 70//70
f 67//67 2//2 4//4
f 66//66 2//2 67//67
f 102//102 100//100 79//79
f 100//100 78//78 79//79
f 79//79 83//83 102//102
f 79//79 78//78 83//83
f 83//83 78//78 101//101
f 101//101 90//90 99//99
f 4//4 83//83 101//101
f 101//101 67//67 4//4
f 101//101 99//99 66//66
f 66//66 67//67 101//101
f 88//88 49//49 87//87
f 49//49 86//86 87//87
f 85//85 82//82 92//92
f 92//92 82//82 96//96
f 65//65 40//40 34//34
f 85//85 40//40 65//65
f 65//65 34//34 8//8
f 8//8 70//70 65//65
f 70//70 82//82 65//65
f 65//65 82//82 85//85
f 85//85 86//86 80//80
f 80//80 40//40 85//85
f 80//80 86//86 41//41
f 41//41 40//40 80//80
f 45//45 31//31 44//44
f 44//44 1//1 64//64
f 31//31 1//1 44//44
f 52//52 53//53 43//43
f 63//63 6//6 7//7
f 20//20 18//18 16//16
f 16//16 12//12 20//20
f 12//12 22//22 20//20
f 23//23 22//22 8//8
f 8//8 35//35 23//23
f 23//23 20//20 22//22
f 21//21 20//20 23//23
f 35//35 39//39 24//24
f 24//24 23//23 35//35
f 21//21 23//23 24//24
f 5//5 6//6 64//64
f 64//64 1//1 5//5
f 17//17 15//15 16//16
f 16//16 18//18 17//17
f 13//13 15//15 17//17
f 17//17 10//10 13//13
f 18//18 25//25 17//17
f 17//17 25//25 10//10
f 73//73 47//47 88//88
f 88//88 68//68 73//73
f 73//73 68//68 47//47
f 76//76 68//68 88//88
f 88//88 87//87 76//76
f 76//76 87//87 98//98
f 47//47 68//68 74//74
f 75//75 51//51 74//74
f 68//68 76//76 74//74
f 36//36 58//58 57//57
f 71//71 36//36 57//57
f 54//54 72//72 57//57
f 57//57 72//72 71//71
f 69//69 90//90 70//70
f 13//13 66//66 69//69
f 66//66 99//99 69//69
f 99//99 90//90 69//69
f 69//69 15//15 13//13
f 70//70 15//15 69//69
f 97//97 78//78 93//93
f 97//97 101//101 78//78
f 90//90 101//101 97//97
f 100//100 98//98 81//81
f 98//98 87//87 81//81
f 95//95 100//100 81//81
f 36//36 61//61 62//62
f 62//62 60//60 36//36
f 62//62 61//61 45//45
f 45//45 44//44 62//62
f 62//62 44//44 64//64
f 64//64 53//53 62//62
f 53//53 60//60 62//62
f 63//63 39//39 38//38
f 38//38 53//53 63//63
f 38//38 43//43 53//53
f 32//32 5//5 1//1
f 32//32 7//7 6//6
f 6//6 5//5 32//32
f 19//19 25//25 18//18
f 18//18 20//20 19//19
f 19//19 20//20 21//21
f 77//77 76//76 98//98
f 77//77 98//98 75//75
f 75//75 74//74 77//77
f 55//55 51//51 54//54
f 54//54 57//57 55//55
f 55//55 57//57 58//58
f 58//58 56//56 55//55
f 59//59 56//56 58//58
f 59//59 58//58 36//36
f 59//59 53//53 52//52
f 52//52 56//56 59//59
f 36//36 60//60 59//59
f 59//59 60//60 53//53
f 96//96 90//90 91//91
f 90//90 97//97 91//91
f 91//91 97//97 93//93
f 93//93 92//92 91//91
f 91//91 92//92 96//96
f 84//84 86//86 85//85
f 85//85 92//92 84//84
f 84//84 87//87 86//86
f 84//84 81//81 87//87
f 93//93 95//95 94//94
f 95//95 81//81 94//94
f 94//94 92//92 93//93
f 94//94 84//84 92//92
f 81//81 84//84 94//94
f 43//43 38//38 48//48
f 52//52 43//43 48//48
f 48//48 39//39 47//47
f 48//48 38//38 39//39
f 48//48 56//56 52//52
f 48//48 55//55 56//56
f 13//13 10//10 3//3
f 3//3 2//2 13//13
f 3//3 31//31 2//2
f 28//28 9//9 25//25
f 29//29 7//7 28//28
f 7//7 32//32 28//28
f 29//29 28//28 27//27
f 89//89 74//74 76//76
f 76//76 77//77 89//89
f 89//89 77//77 74//74
f 50//50 48//48 47//47
f 47//47 74//74 50//50
f 50//50 74//74 51//51
f 51//51 55//55 50//50
f 55//55 48//48 50//50
f 25//25 9//9 30//30
f 30//30 9//9 3//3
f 10//10 25//25 30//30
f 30//30 3//3 10//10
f 25//25 19//19 26//26
f 26//26 28//28 25//25
f 19//19 27//27 26//26
f 26//26 27//27 28//28
f 33//33 28//28 32//32
f 9//9 28//28 33//33
f 33//33 1//1 31//31
f 33//33 32//32 1//1
f 31//31 3//3 33//33
f 3//3 9//9 33//33
f 11//11 19//19 21//21
f 11//11 27//27 19//19
f 21//21 24//24 11//11
f 24//24 27//27 11//11
f 29//29 27//27 37//37
f 37//37 27//27 24//24
f 63//63 7//7 37//37
f 37//37 7//7 29//29
f 37//37 39//39 63//63
f 37//37 24//24 39//39
