# collision hull for rock_e - convex, faces 180
o rock_e_col
v 0.33023 1.72169 0.91605
v 0.80356 2.06478 0.41461
v 1.00475 1.80443 0.08336
v 0.21533 2.65428 0.95000
v 0.11419 2.88856 -0.08096
v -0.22945 3.20000 0.51005
v 0.44284 2.40633 0.91045
v -0.53867 3.01132 0.58057
v -0.96293 2.36954 0.30066
v 0.28742 1.42648 0.91140
v 0.26329 1.21498 0.90023
v 0.24970 1.07007 0.88870
v 0.24272 0.95761 0.87612
v 0.23426 0.73466 0.84405
v -0.47801 0.20021 -0.74633
v -1.02082 2.20400 0.18577
v -1.00623 2.24899 0.21794
v 0.26366 1.22382 0.90140
v -1.02960 2.17492 0.16443
v -1.06146 2.04110 0.05917
v -1.06601 2.00730 0.02970
v -1.06660 1.99656 0.01962
v -1.06836 1.95770 -0.01709
v -1.06809 1.94453 -0.03033
v -1.04942 1.85782 -0.13108
v 0.92366 0.70025 -0.68517
v -0.02393 1.89481 -0.93324
v 1.08216 0.00081 -0.29275
v -0.96551 1.16274 0.21715
v -1.04102 2.13275 0.13240
v -1.05469 2.07568 0.08759
v -1.06798 1.97446 -0.00098
v -1.04129 1.84113 -0.15424
v 0.24419 2.56355 0.94761
v 0.17442 2.46578 0.94392
v 0.19785 2.50368 0.94594
v 0.22855 2.46760 0.94501
v 0.31606 1.63133 0.91590
v 0.27306 1.53337 0.91500
v 0.30192 1.53485 0.91456
v 0.19589 0.96676 0.87889
v 0.26073 1.42290 0.91088
v 0.00553 1.04096 0.82777
v -0.88282 2.12808 0.37919
v -0.90700 2.21757 0.36072
v -0.92050 2.27500 0.35020
v -0.93304 2.33466 0.34024
v -0.94736 2.41109 0.32864
v 0.22881 0.39508 0.77801
v -0.03981 2.62247 0.92421
v 0.26574 0.00013 0.66315
v 0.28758 2.41557 0.94055
v 0.34525 2.38469 0.93229
v 0.31099 2.54902 0.94208
v -0.98640 2.30574 0.25734
v -0.92658 1.28478 0.27004
v -0.94632 1.22219 0.24415
v -0.93650 1.16133 0.25019
v -0.65120 1.63636 0.55539
v -0.81827 0.43110 0.24397
v -0.99442 0.28860 -0.04966
v -0.91537 0.23145 0.09579
v -0.89088 0.01678 -0.15546
v -1.00530 1.31459 0.17152
v -0.98584 0.88829 0.16745
v -1.02116 1.27566 0.14284
v -1.04555 1.27100 0.09597
v -1.05022 1.33923 0.08767
v -1.03641 1.08454 0.10396
v -1.05634 1.31897 0.07167
v -1.06812 1.50517 0.03161
v -1.06476 1.17512 0.04174
v -0.99814 0.61848 0.11020
v -1.07424 1.47850 -0.03138
v -1.07485 1.34248 -0.01568
v -1.06421 1.90353 -0.07387
v -1.05444 1.87021 -0.11475
v -1.05805 0.63018 -0.07113
v -1.05536 1.56194 -0.13376
v -1.06827 1.12628 -0.11155
v -0.85972 1.50830 -0.63205
v -0.84763 1.49040 -0.65975
v -0.43904 0.14326 -0.75154
v -0.80022 1.34169 -0.74705
v -0.71508 0.67147 -0.72121
v -0.54946 0.31377 -0.73723
v -0.52364 0.27082 -0.74042
v -0.40402 0.09409 -0.75632
v -0.36541 0.04090 -0.76165
v 0.97959 0.00044 -0.66329
v -0.85930 -0.00045 0.05555
v 0.05156 -0.00287 -0.90289
vn 0.4932 -0.0784 0.8664
vn 0.8793 0.3141 0.3579
vn 0.9595 0.2805 -0.0271
vn 0.3814 0.5233 0.7620
vn 0.2582 0.8235 -0.5051
vn -0.0354 0.9957 0.0852
vn 0.6854 0.3153 0.6564
vn -0.6910 0.6623 0.2897
vn -0.9198 0.3871 -0.0644
vn 0.4092 -0.0883 0.9081
vn 0.7316 -0.1211 0.6709
vn 0.3701 -0.1118 0.9222
vn 0.4270 -0.1369 0.8938
vn 0.3064 -0.1768 0.9353
vn -0.5293 -0.2818 -0.8003
vn -0.9179 0.3789 -0.1182
vn -0.9196 0.3818 -0.0925
vn 0.3343 -0.0953 0.9376
vn -0.9160 0.3755 -0.1410
vn -0.9023 0.3612 -0.2354
vn -0.8923 0.3541 -0.2800
vn -0.5371 0.5927 -0.6001
vn -0.8895 0.3243 -0.3220
vn -0.8608 0.3459 -0.3733
vn -0.7956 0.3348 -0.5050
vn 0.7036 0.1141 -0.7014
vn 0.0593 0.4278 -0.9019
vn 0.7775 -0.6166 0.1235
vn -0.7858 -0.0508 0.6164
vn -0.9125 0.3720 -0.1705
vn -0.9085 0.3674 -0.1989
vn -0.8773 0.3521 -0.3262
vn -0.7842 0.3355 -0.5221
vn 0.0432 -0.0178 0.9989
vn -0.0776 -0.0318 0.9965
vn -0.0269 -0.0256 0.9993
vn 0.0073 -0.0309 0.9995
vn 0.4605 -0.0795 0.8841
vn -0.0058 -0.0328 0.9994
vn 0.4252 -0.0826 0.9013
vn -0.1516 -0.1302 0.9798
vn -0.0795 -0.0449 0.9958
vn -0.3881 -0.1333 0.9119
vn -0.6638 -0.0278 0.7474
vn -0.6692 -0.0219 0.7427
vn -0.6746 -0.0191 0.7380
vn -0.6813 -0.0170 0.7318
vn -0.8795 0.4488 0.1581
vn 0.1127 -0.2436 0.9633
vn -0.2883 0.2069 0.9349
vn 0.1821 -0.6852 0.7052
vn 0.0797 -0.0279 0.9964
vn 0.1898 -0.0240 0.9815
vn 0.5529 0.4197 0.7199
vn -0.9200 0.3850 -0.0726
vn -0.7043 -0.0568 0.7076
vn -0.7478 -0.0495 0.6621
vn -0.6961 -0.0815 0.7133
vn -0.5613 -0.0659 0.8250
vn -0.5693 -0.2146 0.7936
vn -0.9703 -0.2415 0.0138
vn -0.7705 -0.2565 0.5836
vn -0.6635 -0.7097 -0.2370
vn -0.8372 -0.0354 0.5458
vn -0.7698 -0.0872 0.6324
vn -0.8692 -0.0299 0.4936
vn -0.9088 -0.0226 0.4165
vn -0.9231 -0.0133 0.3843
vn -0.9000 -0.0547 0.4324
vn -0.9428 -0.0110 0.3331
vn -0.9819 0.0009 0.1896
vn -0.9711 -0.0333 0.2365
vn -0.8410 -0.1323 0.5246
vn -0.9992 0.0098 -0.0386
vn -0.9988 -0.0060 0.0483
vn -0.8477 0.3337 -0.4123
vn -0.8119 0.3358 -0.4776
vn -0.9878 -0.1301 -0.0861
vn -0.9523 0.0158 -0.3048
vn -0.9756 -0.0262 -0.2179
vn -0.7879 0.3081 -0.5332
vn -0.7302 0.2769 -0.6246
vn -0.5260 -0.2920 -0.7988
vn -0.6259 0.0386 -0.7789
vn -0.6307 -0.1510 -0.7612
vn -0.5492 -0.2401 -0.8005
vn -0.5338 -0.2687 -0.8018
vn -0.5239 -0.2981 -0.7979
vn -0.3836 -0.6589 -0.6470
vn 0.5777 -0.5954 -0.5583
vn -0.5405 -0.7545 0.3723
vn -0.0165 -0.6658 -0.7460
f 49//49 60//60 51//51
f 5//5 3//3 27//27
f 92//92 90//90 28//28
f 28//28 51//51 92//92
f 27//27 3//3 26//26
f 26//26 92//92 27//27
f 90//90 92//92 26//26
f 26//26 3//3 28//28
f 28//28 90//90 26//26
f 27//27 92//92 84//84
f 43//43 60//60 49//49
f 59//59 60//60 43//43
f 3//3 5//5 2//2
f 28//28 3//3 2//2
f 2//2 7//7 28//28
f 58//58 60//60 59//59
f 59//59 43//43 50//50
f 91//91 92//92 51//51
f 91//91 51//51 60//60
f 60//60 62//62 91//91
f 75//75 78//78 72//72
f 27//27 84//84 82//82
f 82//82 5//5 27//27
f 82//82 84//84 78//78
f 6//6 5//5 82//82
f 85//85 84//84 92//92
f 78//78 84//84 85//85
f 29//29 48//48 64//64
f 73//73 62//62 60//60
f 73//73 72//72 78//78
f 22//22 82//82 24//24
f 8//8 48//48 59//59
f 59//59 50//50 8//8
f 6//6 82//82 8//8
f 89//89 92//92 63//63
f 92//92 91//91 63//63
f 78//78 85//85 63//63
f 61//61 91//91 62//62
f 61//61 73//73 78//78
f 62//62 73//73 61//61
f 78//78 63//63 61//61
f 61//61 63//63 91//91
f 33//33 79//79 25//25
f 81//81 79//79 33//33
f 33//33 82//82 81//81
f 9//9 82//82 22//22
f 48//48 8//8 9//9
f 9//9 8//8 82//82
f 64//64 48//48 9//9
f 86//86 85//85 92//92
f 86//86 63//63 85//85
f 41//41 43//43 49//49
f 41//41 50//50 43//43
f 6//6 8//8 4//4
f 4//4 8//8 50//50
f 4//4 5//5 6//6
f 4//4 2//2 5//5
f 60//60 58//58 65//65
f 65//65 73//73 60//60
f 58//58 29//29 65//65
f 65//65 29//29 64//64
f 22//22 24//24 32//32
f 31//31 19//19 22//22
f 33//33 25//25 77//77
f 77//77 82//82 33//33
f 77//77 24//24 82//82
f 76//76 24//24 77//77
f 77//77 79//79 76//76
f 77//77 25//25 79//79
f 80//80 82//82 78//78
f 80//80 81//81 82//82
f 79//79 81//81 80//80
f 80//80 78//78 75//75
f 76//76 79//79 80//80
f 22//22 19//19 55//55
f 55//55 9//9 22//22
f 14//14 41//41 49//49
f 49//49 51//51 14//14
f 14//14 51//51 28//28
f 35//35 4//4 50//50
f 45//45 44//44 59//59
f 59//59 46//46 45//45
f 48//48 29//29 47//47
f 59//59 48//48 47//47
f 47//47 46//46 59//59
f 57//57 29//29 58//58
f 58//58 45//45 57//57
f 57//57 45//45 46//46
f 57//57 47//47 29//29
f 46//46 47//47 57//57
f 75//75 32//32 74//74
f 74//74 80//80 75//75
f 74//74 24//24 76//76
f 76//76 80//80 74//74
f 19//19 31//31 30//30
f 75//75 72//72 71//71
f 72//72 31//31 71//71
f 72//72 67//67 70//70
f 19//19 30//30 70//70
f 70//70 31//31 72//72
f 70//70 30//30 31//31
f 64//64 9//9 66//66
f 9//9 55//55 66//66
f 73//73 65//65 69//69
f 72//72 73//73 69//69
f 69//69 67//67 72//72
f 69//69 66//66 67//67
f 69//69 65//65 64//64
f 64//64 66//66 69//69
f 17//17 55//55 19//19
f 67//67 66//66 17//17
f 17//17 66//66 55//55
f 83//83 15//15 92//92
f 63//63 15//15 83//83
f 87//87 86//86 92//92
f 92//92 15//15 87//87
f 63//63 86//86 87//87
f 87//87 15//15 63//63
f 41//41 14//14 13//13
f 13//13 14//14 28//28
f 7//7 2//2 54//54
f 2//2 4//4 54//54
f 28//28 7//7 1//1
f 1//1 38//38 28//28
f 42//42 35//35 50//50
f 50//50 41//41 42//42
f 42//42 41//41 18//18
f 56//56 45//45 58//58
f 44//44 45//45 56//56
f 56//56 58//58 59//59
f 59//59 44//44 56//56
f 23//23 32//32 24//24
f 24//24 74//74 23//23
f 23//23 74//74 32//32
f 20//20 31//31 22//22
f 20//20 71//71 31//31
f 19//19 70//70 68//68
f 68//68 70//70 67//67
f 16//16 17//17 19//19
f 67//67 17//17 16//16
f 19//19 68//68 16//16
f 16//16 68//68 67//67
f 88//88 92//92 89//89
f 88//88 83//83 92//92
f 89//89 63//63 88//88
f 63//63 83//83 88//88
f 18//18 41//41 12//12
f 41//41 13//13 12//12
f 11//11 13//13 28//28
f 18//18 12//12 11//11
f 11//11 12//12 13//13
f 53//53 54//54 38//38
f 38//38 1//1 53//53
f 7//7 54//54 53//53
f 53//53 1//1 7//7
f 10//10 42//42 18//18
f 18//18 11//11 10//10
f 10//10 11//11 28//28
f 21//21 20//20 22//22
f 71//71 20//20 21//21
f 75//75 71//71 21//21
f 21//21 32//32 75//75
f 22//22 32//32 21//21
f 38//38 54//54 40//40
f 54//54 52//52 40//40
f 28//28 38//38 40//40
f 40//40 10//10 28//28
f 34//34 40//40 52//52
f 34//34 54//54 4//4
f 34//34 52//52 54//54
f 35//35 42//42 36//36
f 4//4 35//35 36//36
f 36//36 34//34 4//4
f 42//42 10//10 39//39
f 39//39 36//36 42//42
f 10//10 40//40 39//39
f 34//34 36//36 37//37
f 36//36 39//39 37//37
f 40//40 34//34 37//37
f 37//37 39//39 40//40
