# collision hull for rock_d - convex, faces 180
o rock_d_col
v -0.91562 0.00000 0.84990
v 0.69308 0.95004 1.10754
v -0.22060 0.00000 1.22500
v -0.05016 0.93558 1.19778
v -1.13323 0.87389 -0.06080
v -0.71265 0.00000 -1.13255
v -0.84465 0.90483 0.77290
v 0.90016 0.32420 -1.00348
v -1.43661 0.00001 -0.67283
v 1.09288 0.93854 0.39625
v -1.47712 0.12963 -0.83334
v 1.40400 0.58627 -0.06582
v 1.02652 0.45295 1.07121
v 0.81962 0.87740 1.09224
v 0.84511 0.92188 0.97388
v 0.94764 0.94595 0.75921
v 1.00675 0.87326 0.81497
v 1.06727 0.88662 0.64381
v 1.15095 0.87501 0.45570
v 1.44148 0.49361 0.15589
v 1.16870 0.92956 0.01844
v 1.12910 0.38943 0.94463
v 1.04586 0.32202 1.06955
v 0.90893 -0.00003 0.70712
v 1.25124 0.40391 0.71697
v 1.30045 0.32691 0.61909
v 1.16751 0.32817 0.87873
v 1.20307 0.45361 0.79135
v 1.34272 0.46462 0.49266
v 1.36468 0.37865 0.46902
v 1.39216 0.50210 0.31909
v 1.11037 0.04130 0.33331
v 1.41616 0.41443 0.31692
v 1.42364 0.32518 0.30209
v 1.17888 0.05336 0.16715
v 1.44884 0.38541 0.21572
v 1.22919 0.87389 0.11894
v 1.21635 0.87805 -0.05341
v 1.17950 0.87285 -0.21839
v 1.09136 0.91907 -0.27888
v 1.11828 0.87592 -0.33189
v 0.98373 0.90988 -0.44132
v 1.21167 0.06215 0.01833
v 1.16657 0.04264 -0.11694
v 1.23495 0.08955 -0.05991
v 1.11859 0.05932 -0.30190
v 1.03663 0.00037 -0.27435
v 1.17104 0.11241 -0.32562
v 1.21163 0.09824 -0.21002
v 1.46579 0.32274 0.10846
v 1.46786 0.38326 0.13456
v 1.47197 0.32919 -0.03402
v 1.47532 0.41846 -0.01494
v 1.46150 0.42945 0.12493
v 1.46660 0.44377 0.06306
v -1.36078 0.04329 -0.95480
v -1.25284 0.00021 -1.02462
v 1.44743 0.50562 0.05391
v 1.43745 0.53596 0.00717
v 1.44536 0.49838 -0.10096
v 1.42924 0.53676 -0.10177
v 1.44943 0.32535 -0.17254
v 1.40484 0.54793 -0.22197
v 1.35658 0.60804 -0.24625
v 1.43949 0.46057 -0.20748
v 1.42067 0.32299 -0.25727
v 1.42254 0.38324 -0.27777
v 1.43341 0.44048 -0.24450
v 1.32092 0.58416 -0.36298
v 1.38080 0.43461 -0.35252
v 1.36706 0.48950 -0.35549
v 1.37825 0.34845 -0.35446
v 1.32995 0.31920 -0.41737
v 1.35984 0.32576 -0.38026
v 1.34975 0.44257 -0.40801
v 0.98888 0.49574 -0.91143
v 0.97333 0.32217 -0.91770
v 0.98720 0.35844 -0.91885
v 1.12630 0.10371 -0.37397
v 0.96767 0.38711 -0.95738
v 0.93863 0.31785 -0.95492
v 0.86472 0.34785 -1.05279
v 0.33004 0.00001 -1.13442
v 0.69517 0.23367 -1.08604
v 0.21210 0.00170 -1.21730
v 0.32748 0.10126 -1.22502
v 0.58137 0.00035 1.12773
v 0.80796 -0.00009 0.88384
v 1.11899 0.00035 0.13299
v 1.12176 0.00019 -0.03990
v 0.38526 0.00000 -1.08158
v 0.40335 0.00001 -1.06144
vn -0.6144 -0.5901 0.5237
vn 0.1650 0.7231 0.6707
vn -0.1712 -0.6191 0.7664
vn -0.1259 0.6750 0.7270
vn -0.6508 0.7522 -0.1038
vn -0.1776 -0.3591 -0.9162
vn -0.5739 0.6760 0.4622
vn 0.6191 -0.5067 -0.5999
vn -0.7336 -0.6672 0.1288
vn 0.3458 0.9346 0.0836
vn -0.8663 0.2303 -0.4432
vn 0.8484 0.5237 -0.0770
vn 0.5377 0.1607 0.8277
vn 0.4710 0.4119 0.7800
vn 0.5095 0.7853 0.3517
vn 0.3280 0.9312 0.1590
vn 0.7286 0.5547 0.4018
vn 0.7035 0.6537 0.2789
vn 0.7552 0.6058 0.2503
vn 0.9180 0.3514 0.1839
vn 0.3786 0.9248 -0.0364
vn 0.8397 0.1206 0.5295
vn 0.5750 -0.2686 0.7728
vn 0.3607 -0.9147 0.1822
vn 0.8912 0.1076 0.4407
vn 0.8510 -0.3585 0.3837
vn 0.8174 -0.3538 0.4547
vn 0.8478 0.2621 0.4611
vn 0.8882 0.2739 0.3689
vn 0.9298 0.0237 0.3674
vn 0.8898 0.3581 0.2828
vn 0.6022 -0.7664 0.2236
vn 0.9428 0.1408 0.3020
vn 0.8835 -0.3782 0.2763
vn 0.6474 -0.7455 0.1584
vn 0.9674 0.0635 0.2452
vn 0.7554 0.6499 0.0839
vn 0.7399 0.6614 -0.1228
vn 0.6875 0.6808 -0.2527
vn 0.3106 0.9318 -0.1879
vn 0.6258 0.6586 -0.4178
vn 0.1945 0.8771 -0.4392
vn 0.6483 -0.7613 0.0105
vn 0.5705 -0.8066 -0.1546
vn 0.6728 -0.7339 -0.0934
vn 0.5331 -0.7849 -0.3157
vn 0.2799 -0.9450 -0.1693
vn 0.6140 -0.6985 -0.3674
vn 0.6351 -0.7383 -0.2270
vn 0.9041 -0.4155 0.0996
vn 0.9871 0.0266 0.1581
vn 0.9262 -0.3714 -0.0656
vn 0.9916 0.1218 -0.0433
vn 0.9676 0.1918 0.1644
vn 0.9732 0.2190 0.0704
vn -0.6112 -0.0627 -0.7890
vn -0.3003 -0.3631 -0.8820
vn 0.9273 0.3687 0.0641
vn 0.9029 0.4297 0.0127
vn 0.9432 0.3132 -0.1105
vn 0.8892 0.4447 -0.1072
vn 0.9061 -0.3747 -0.1965
vn 0.8643 0.4314 -0.2587
vn 0.7918 0.5389 -0.2873
vn 0.9563 0.1997 -0.2138
vn 0.8358 -0.4370 -0.3323
vn 0.9192 -0.0464 -0.3910
vn 0.9374 0.1398 -0.3189
vn 0.7694 0.4558 -0.4474
vn 0.8790 0.0994 -0.4664
vn 0.8395 0.2934 -0.4573
vn 0.8681 -0.1143 -0.4831
vn 0.6945 -0.5357 -0.4803
vn 0.7878 -0.3884 -0.4779
vn 0.8356 0.1205 -0.5359
vn 0.4376 0.5283 -0.7276
vn 0.6774 -0.5101 -0.5300
vn 0.7735 -0.2699 -0.5735
vn 0.5553 -0.7163 -0.4226
vn 0.7347 -0.0454 -0.6769
vn 0.6175 -0.5771 -0.5344
vn 0.3532 0.1474 -0.9238
vn 0.2736 -0.8887 -0.3679
vn 0.4892 -0.5773 -0.6537
vn 0.0504 -0.6847 -0.7271
vn 0.1986 0.0956 -0.9754
vn 0.1814 -0.7025 0.6882
vn 0.3379 -0.9074 0.2499
vn 0.3443 -0.9365 0.0667
vn 0.3256 -0.9443 -0.0476
vn 0.2828 -0.9161 -0.2843
vn 0.2829 -0.9262 -0.2492
f 11//11 9//9 5//5
f 9//9 6//6 88//88
f 57//57 6//6 9//9
f 6//6 57//57 56//56
f 11//11 5//5 56//56
f 56//56 9//9 11//11
f 56//56 57//57 9//9
f 4//4 21//21 7//7
f 7//7 21//21 5//5
f 3//3 88//88 87//87
f 87//87 88//88 23//23
f 6//6 56//56 76//76
f 76//76 5//5 42//42
f 76//76 56//56 5//5
f 42//42 5//5 40//40
f 5//5 21//21 40//40
f 38//38 21//21 37//37
f 6//6 85//85 83//83
f 86//86 85//85 6//6
f 6//6 76//76 86//86
f 86//86 76//76 82//82
f 86//86 83//83 85//85
f 1//1 5//5 9//9
f 1//1 7//7 5//5
f 1//1 88//88 3//3
f 9//9 88//88 1//1
f 3//3 4//4 1//1
f 4//4 7//7 1//1
f 53//53 58//58 55//55
f 82//82 76//76 80//80
f 12//12 38//38 37//37
f 64//64 69//69 39//39
f 39//39 40//40 21//21
f 21//21 38//38 39//39
f 2//2 14//14 15//15
f 15//15 14//14 17//17
f 37//37 21//21 10//10
f 26//26 32//32 34//34
f 17//17 14//14 13//13
f 13//13 28//28 17//17
f 13//13 14//14 2//2
f 2//2 4//4 13//13
f 13//13 4//4 3//3
f 3//3 87//87 13//13
f 13//13 87//87 23//23
f 91//91 88//88 6//6
f 6//6 83//83 91//91
f 53//53 55//55 51//51
f 53//53 51//51 52//52
f 63//63 69//69 64//64
f 38//38 12//12 63//63
f 64//64 39//39 63//63
f 63//63 39//39 38//38
f 76//76 69//69 71//71
f 71//71 63//63 68//68
f 69//69 63//63 71//71
f 41//41 39//39 69//69
f 41//41 76//76 42//42
f 41//41 69//69 76//76
f 42//42 40//40 41//41
f 40//40 39//39 41//41
f 37//37 10//10 19//19
f 19//19 10//10 18//18
f 19//19 18//18 17//17
f 18//18 10//10 16//16
f 17//17 18//18 16//16
f 16//16 15//15 17//17
f 2//2 15//15 16//16
f 16//16 10//10 21//21
f 16//16 4//4 2//2
f 16//16 21//21 4//4
f 22//22 13//13 23//23
f 28//28 13//13 22//22
f 23//23 88//88 27//27
f 27//27 22//22 23//23
f 73//73 77//77 74//74
f 82//82 80//80 8//8
f 80//80 77//77 8//8
f 78//78 80//80 74//74
f 74//74 77//77 78//78
f 78//78 77//77 80//80
f 44//44 90//90 47//47
f 47//47 46//46 44//44
f 45//45 44//44 49//49
f 49//49 44//44 46//46
f 88//88 91//91 24//24
f 24//24 91//91 90//90
f 90//90 89//89 24//24
f 24//24 89//89 32//32
f 32//32 26//26 24//24
f 24//24 27//27 88//88
f 26//26 27//27 24//24
f 47//47 90//90 92//92
f 90//90 91//91 92//92
f 92//92 46//46 47//47
f 79//79 46//46 92//92
f 20//20 55//55 58//58
f 37//37 19//19 20//20
f 20//20 19//19 31//31
f 17//17 28//28 29//29
f 29//29 19//19 17//17
f 31//31 19//19 29//29
f 43//43 89//89 90//90
f 90//90 44//44 43//43
f 43//43 44//44 45//45
f 45//45 52//52 43//43
f 31//31 29//29 33//33
f 33//33 20//20 31//31
f 53//53 68//68 65//65
f 68//68 63//63 65//65
f 59//59 58//58 53//53
f 59//59 12//12 37//37
f 37//37 20//20 59//59
f 59//59 20//20 58//58
f 82//82 8//8 84//84
f 84//84 86//86 82//82
f 83//83 86//86 84//84
f 84//84 91//91 83//83
f 84//84 8//8 91//91
f 74//74 72//72 66//66
f 72//72 67//67 66//66
f 48//48 73//73 74//74
f 74//74 66//66 48//48
f 48//48 66//66 49//49
f 48//48 46//46 79//79
f 48//48 49//49 46//46
f 79//79 77//77 48//48
f 77//77 73//73 48//48
f 91//91 8//8 81//81
f 81//81 92//92 91//91
f 81//81 8//8 77//77
f 81//81 77//77 79//79
f 79//79 92//92 81//81
f 54//54 51//51 55//55
f 55//55 20//20 54//54
f 25//25 29//29 28//28
f 25//25 27//27 26//26
f 28//28 22//22 25//25
f 22//22 27//27 25//25
f 89//89 43//43 35//35
f 34//34 32//32 35//35
f 32//32 89//89 35//35
f 50//50 43//43 52//52
f 50//50 51//51 34//34
f 50//50 52//52 51//51
f 34//34 35//35 50//50
f 50//50 35//35 43//43
f 34//34 51//51 36//36
f 36//36 33//33 34//34
f 51//51 54//54 36//36
f 20//20 33//33 36//36
f 36//36 54//54 20//20
f 30//30 33//33 29//29
f 30//30 25//25 26//26
f 29//29 25//25 30//30
f 30//30 26//26 34//34
f 34//34 33//33 30//30
f 75//75 67//67 72//72
f 74//74 80//80 75//75
f 75//75 72//72 74//74
f 75//75 80//80 76//76
f 76//76 71//71 75//75
f 61//61 63//63 12//12
f 12//12 59//59 61//61
f 62//62 66//66 67//67
f 62//62 67//67 68//68
f 62//62 52//52 45//45
f 62//62 68//68 53//53
f 53//53 52//52 62//62
f 45//45 49//49 62//62
f 49//49 66//66 62//62
f 68//68 67//67 70//70
f 67//67 75//75 70//70
f 70//70 71//71 68//68
f 70//70 75//75 71//71
f 60//60 59//59 53//53
f 60//60 61//61 59//59
f 53//53 65//65 60//60
f 60//60 65//65 63//63
f 63//63 61//61 60//60
