# Blender 5.0.1
# www.blender.org
mtllib rockform_h.mtl
o rockform_h_rock
usemtl rockform_h_rock
v 0.539805 2.290515 -0.997279
v 0.046439 1.438352 -1.037029
v 0.374360 0.444529 -1.006166
v 1.143385 2.094984 -0.947767
v 1.296517 2.813893 -0.208416
v 1.250061 3.301069 0.658886
v 0.728139 2.538202 1.109046
v -0.100660 0.857527 1.243147
v 0.599809 2.993842 -0.285554
v 0.591748 3.024718 -0.233396
v -0.821631 0.000000 -0.359812
v 0.051651 0.595815 -1.037846
v 0.829734 2.269824 -0.978409
v 0.983649 3.005471 -0.211968
v 0.930370 3.500000 0.683922
v 0.414791 2.733722 1.122781
v -0.435024 1.009342 1.245981
v -0.519039 0.000000 -0.741965
v -0.148999 0.649826 -1.054019
v -0.043874 1.244722 -1.044629
v 0.560980 3.478724 0.545794
v 0.031307 2.716946 0.992913
v -0.760101 1.097496 1.121557
v 0.116803 0.000000 -0.798809
v -0.297684 0.000000 -0.751768
v -0.389283 0.000000 0.836549
v -0.776275 0.000000 0.769802
v -1.127758 0.000000 0.602920
v 0.741628 0.281863 0.143428
v 1.162978 0.146608 0.253259
v 0.319857 0.248960 0.351162
v 0.636719 0.525898 0.322550
v 1.139778 0.470590 0.253770
v 0.477524 0.064873 0.621811
v 0.439473 0.442018 0.628297
v 1.018532 0.610248 0.560174
v 1.472242 0.323037 0.517335
v 0.973307 0.281863 0.867462
v 0.672074 0.046992 0.246927
v 0.692424 0.127324 0.200778
v 0.717003 0.208623 0.166527
v 0.848734 0.245375 0.152548
v 0.961434 0.209324 0.183049
v 1.076129 0.172204 0.210255
v 1.068815 0.091622 0.248494
v 1.204830 0.408566 0.221348
v 1.226412 0.313026 0.213336
v 1.200243 0.219180 0.230729
v 0.841352 0.333962 0.142053
v 0.953300 0.387601 0.169625
v 1.062760 0.438876 0.203627
v 0.384880 0.254815 0.282842
v 0.515729 0.264734 0.231794
v 0.629909 0.273534 0.180539
v 0.568278 0.047115 0.312448
v 0.459321 0.105768 0.319205
v 0.370276 0.177309 0.332804
v 0.637736 0.493089 0.257567
v 0.660508 0.429845 0.197345
v 0.697035 0.353779 0.153472
v 0.331268 0.329693 0.329639
v 0.419878 0.414285 0.319568
v 0.539828 0.476058 0.321208
v 0.745068 0.555178 0.283849
v 0.892418 0.538591 0.263927
v 1.023897 0.500619 0.259588
v 1.453594 0.266973 0.437725
v 1.357901 0.214280 0.358676
v 1.251853 0.175081 0.297985
v 1.244919 0.456497 0.295547
v 1.360939 0.427905 0.358294
v 1.455805 0.381274 0.439279
v 1.167871 0.097208 0.309394
v 0.390037 0.095192 0.563317
v 0.364572 0.152951 0.483829
v 0.341903 0.203840 0.413743
v 0.560863 0.011746 0.459098
v 0.492918 0.018331 0.550721
v 0.460744 0.485646 0.552522
v 0.533875 0.497892 0.462498
v 0.597109 0.505009 0.388954
v 0.312990 0.294284 0.414334
v 0.310022 0.348869 0.490702
v 0.339944 0.406852 0.573611
v 1.070524 0.593000 0.476422
v 1.092952 0.542385 0.392058
v 1.119169 0.505454 0.318282
v 0.710961 0.557679 0.369769
v 0.803495 0.595854 0.428528
v 0.917049 0.629503 0.499764
v 1.439177 0.223805 0.540689
v 1.354385 0.113806 0.558740
v 0.595398 0.012863 0.628341
v 0.424006 0.143410 0.647478
v 0.382283 0.246378 0.665959
v 0.385446 0.357770 0.660194
v 0.561421 0.498742 0.626161
v 0.706602 0.565458 0.623151
v 0.877024 0.616215 0.603817
v 1.151635 0.566938 0.561619
v 1.307833 0.507003 0.560197
v 1.433219 0.418152 0.545115
v 1.036048 0.172757 0.836870
v 1.083565 0.064184 0.759808
v 1.416040 0.317233 0.610833
v 1.307763 0.307668 0.716000
v 1.156798 0.295280 0.818713
v 0.817456 0.204746 0.843748
v 0.668980 0.140333 0.766753
v 0.559248 0.096697 0.686006
v 0.805196 0.338732 0.849562
v 0.643956 0.386862 0.775151
v 0.525160 0.419404 0.694285
v 1.016739 0.399991 0.841814
v 1.035427 0.507867 0.752842
v 1.029958 0.573518 0.646062
v 1.198956 0.417321 0.758781
v 1.337359 0.420706 0.646970
v 1.184744 0.510947 0.654642
v 0.831937 0.461897 0.799688
v 0.857915 0.557082 0.699974
v 0.671489 0.487560 0.704692
v 0.643222 0.261132 0.797280
v 0.495218 0.314615 0.728922
v 0.514876 0.193810 0.719545
v 0.865986 0.085499 0.800337
v 0.706784 0.036539 0.709849
v 1.218480 0.183375 0.754814
v 1.239335 0.084857 0.659719
v 1.352037 0.203704 0.642459
v 1.383521 0.482736 0.456642
v 1.243731 0.504806 0.373061
v 1.224744 0.553871 0.469235
v 0.750917 0.613376 0.528540
v 0.660419 0.549932 0.446554
v 0.596252 0.543900 0.540954
v 0.291518 0.302148 0.590145
v 0.308241 0.245163 0.490926
v 0.325457 0.186754 0.581619
v 1.289009 0.115255 0.367356
v 1.407840 0.157148 0.452699
v 0.956191 0.578079 0.409289
v 0.989883 0.533791 0.331397
v 0.848788 0.571316 0.343925
v 0.400071 0.439128 0.479356
v 0.478593 0.457883 0.393691
v 0.356272 0.384785 0.402090
v 0.442519 0.071265 0.474008
v 0.401264 0.125164 0.400267
v 0.502631 0.054106 0.387910
v 1.390219 0.321018 0.354605
v 1.295251 0.264457 0.283240
v 1.307845 0.371311 0.277649
v 0.927764 0.470463 0.205965
v 0.807738 0.419271 0.162305
v 0.772007 0.501579 0.214150
v 0.539710 0.422993 0.256805
v 0.575034 0.347227 0.206065
v 0.438230 0.340969 0.260499
v 0.474208 0.183696 0.268010
v 0.603342 0.197625 0.217386
v 0.574071 0.114672 0.257353
v 1.096718 0.355509 0.178597
v 1.093903 0.256344 0.188149
v 0.963170 0.296320 0.165335
v 0.810668 0.060715 0.203998
v 0.831570 0.160076 0.171488
v 0.958819 0.118695 0.203086
v 0.671338 0.014529 0.288975
v 0.959528 0.034856 0.247006
v 0.643349 0.012197 0.309673
v 1.168891 0.046283 0.371381
v 0.605891 0.007751 0.398790
v 1.270627 0.048988 0.563874
v 0.619267 0.003690 0.628875
v 1.091092 0.033530 0.719649
v 0.791854 0.013538 0.711563
v 0.895806 0.019795 0.746256
v 1.009081 0.027570 0.739742
v 0.721859 0.009398 0.684813
v 1.177550 0.040659 0.659246
v 1.233651 0.045597 0.605570
v 0.572219 0.003888 0.472665
v 0.538728 0.000000 0.548316
v 0.602560 0.002940 0.611483
v 0.579804 0.004744 0.456711
v 1.298647 0.052902 0.469915
v 1.184363 0.047128 0.380541
v 1.295978 0.052889 0.462188
v 1.299108 0.053023 0.465780
v 0.614699 0.008753 0.379839
v 0.617085 0.009013 0.375238
v 1.066965 0.040640 0.314527
v 1.056214 0.040059 0.307884
v 0.727146 0.018999 0.256092
v 0.922110 0.032491 0.239716
v 0.801419 0.024469 0.234563
v 0.945331 0.033976 0.243426
v -0.865661 0.187870 -0.446325
v -0.523481 0.050844 -0.533239
v -0.927524 0.191254 -0.164612
v -0.742779 0.394910 -0.314185
v -0.524914 0.304858 -0.509880
v -0.574431 0.062963 -0.107603
v -0.572436 0.315141 -0.112923
v -0.333127 0.413260 -0.319197
v -0.143585 0.184248 -0.476632
v -0.216441 0.187870 -0.177866
v -0.874196 0.053506 -0.394366
v -0.885293 0.124980 -0.428472
v -0.814540 0.148567 -0.490700
v -0.723947 0.105662 -0.524759
v -0.617120 0.071476 -0.537570
v -0.586355 0.008527 -0.501035
v -0.522761 0.251362 -0.530244
v -0.520814 0.185164 -0.549461
v -0.520597 0.111396 -0.554582
v -0.806401 0.224628 -0.486061
v -0.714357 0.263130 -0.515289
v -0.609680 0.289824 -0.518656
v -1.003450 0.190989 -0.220060
v -1.006120 0.190012 -0.309857
v -0.930066 0.188785 -0.389844
v -0.926669 0.043026 -0.218416
v -0.952649 0.121240 -0.179947
v -0.817040 0.376682 -0.352053
v -0.864038 0.319864 -0.393806
v -0.871094 0.248781 -0.424646
v -0.937091 0.258471 -0.185669
v -0.915623 0.334561 -0.222466
v -0.836286 0.384364 -0.272752
v -0.703427 0.395226 -0.372146
v -0.651052 0.389445 -0.440830
v -0.581576 0.350395 -0.489145
v -0.178899 0.137448 -0.534150
v -0.287450 0.090167 -0.564244
v -0.422872 0.065296 -0.549965
v -0.439683 0.287451 -0.517526
v -0.319420 0.266366 -0.533802
v -0.204741 0.227085 -0.519054
v -0.467347 0.005131 -0.505401
v -0.670151 0.077243 -0.090698
v -0.775467 0.110345 -0.099551
v -0.857711 0.152674 -0.132479
v -0.629142 0.017365 -0.131026
v -0.627955 0.365179 -0.130898
v -0.685148 0.398482 -0.185553
v -0.719225 0.399043 -0.256319
v -0.848204 0.228667 -0.138272
v -0.764858 0.268598 -0.109653
v -0.664793 0.300657 -0.099421
v -0.354159 0.422404 -0.384501
v -0.410296 0.393968 -0.447269
v -0.475158 0.344407 -0.484528
v -0.646961 0.398241 -0.315352
v -0.547431 0.423522 -0.316688
v -0.429315 0.436635 -0.318178
v -0.119854 0.109852 -0.458601
v -0.142648 0.025399 -0.418174
v -0.516937 0.029264 -0.145698
v -0.576318 0.121083 -0.089252
v -0.575656 0.190455 -0.091661
v -0.574286 0.256657 -0.100119
v -0.514321 0.353091 -0.144239
v -0.451774 0.376546 -0.201062
v -0.388209 0.399740 -0.259666
v -0.262559 0.378453 -0.359612
v -0.206459 0.319141 -0.403154
v -0.166611 0.250946 -0.443483
v -0.178240 0.117812 -0.189589
v -0.181952 0.034210 -0.223963
v -0.108688 0.184850 -0.407570
v -0.079497 0.185671 -0.320939
v -0.120603 0.186842 -0.231609
v -0.290698 0.151023 -0.144175
v -0.383393 0.112622 -0.115394
v -0.487349 0.084750 -0.109670
v -0.301743 0.224427 -0.152201
v -0.388689 0.263076 -0.123730
v -0.486878 0.293565 -0.113510
v -0.207194 0.251738 -0.200418
v -0.222024 0.322855 -0.235920
v -0.275421 0.377076 -0.280391
v -0.128692 0.263176 -0.273190
v -0.133349 0.259311 -0.366541
v -0.186295 0.332081 -0.320493
v -0.307428 0.292461 -0.174404
v -0.340040 0.356426 -0.214358
v -0.413131 0.328435 -0.153972
v -0.379187 0.189343 -0.111341
v -0.482544 0.227222 -0.097495
v -0.481428 0.151880 -0.091865
v -0.288069 0.075300 -0.160995
v -0.413168 0.047939 -0.150346
v -0.328659 0.008745 -0.205728
v -0.084703 0.101300 -0.267692
v -0.128258 0.015802 -0.319383
v -0.081598 0.101837 -0.372081
v -0.238545 0.301674 -0.482014
v -0.360911 0.334745 -0.494294
v -0.292146 0.370233 -0.434073
v -0.495664 0.415173 -0.254339
v -0.612716 0.409875 -0.254523
v -0.563131 0.398200 -0.186835
v -0.671566 0.229559 -0.087234
v -0.776835 0.191298 -0.098248
v -0.676182 0.151131 -0.079091
v -0.328937 0.007681 -0.524741
v -0.184988 0.046181 -0.510088
v -0.474612 0.433415 -0.386027
v -0.532319 0.391957 -0.444183
v -0.597686 0.407010 -0.376896
v -0.739933 0.344417 -0.133386
v -0.799288 0.372175 -0.200570
v -0.841645 0.301876 -0.158615
v -0.743627 0.035669 -0.129869
v -0.854004 0.075963 -0.151418
v -0.799485 0.009835 -0.199397
v -0.290050 0.183977 -0.561768
v -0.415258 0.142477 -0.563679
v -0.425216 0.223548 -0.544743
v -0.695365 0.338947 -0.493447
v -0.802557 0.297376 -0.465455
v -0.769270 0.367162 -0.425025
v -0.922299 0.340641 -0.311723
v -0.945602 0.261865 -0.356040
v -0.992521 0.269556 -0.261437
v -1.009997 0.108585 -0.258487
v -0.962501 0.113733 -0.356806
v -0.932164 0.035411 -0.309862
v -0.614061 0.222666 -0.531381
v -0.618592 0.146492 -0.544366
v -0.722343 0.186363 -0.523887
v -0.771150 0.008443 -0.422805
v -0.813255 0.073332 -0.469648
v -0.703192 0.028041 -0.498790
v -0.817124 0.004110 -0.350367
v -0.602071 0.001614 -0.488114
v -0.851261 0.005241 -0.261816
v -0.461739 0.000821 -0.502110
v -0.650484 0.005528 -0.152721
v -0.171092 0.000648 -0.397591
v -0.459401 0.004185 -0.195610
v -0.213854 0.002472 -0.249621
v -0.315741 0.003306 -0.216018
v -0.452893 0.004135 -0.197534
v -0.420245 0.003944 -0.201337
v -0.334772 0.003445 -0.211301
v -0.166299 0.001654 -0.304249
v -0.151651 0.001290 -0.331304
v -0.605716 0.005337 -0.151573
v -0.543376 0.004869 -0.168251
v -0.187272 0.000331 -0.433066
v -0.337381 0.000094 -0.516701
v -0.313962 0.000044 -0.511547
v -0.221322 0.000000 -0.477236
v -0.706819 0.005650 -0.164917
v -0.784750 0.005515 -0.209422
v -0.778180 0.005621 -0.197059
v -0.811850 0.005476 -0.224154
v -0.474148 0.000901 -0.499941
v -0.578000 0.001447 -0.493284
v -0.855170 0.005069 -0.279004
v -0.819780 0.004147 -0.348134
v -0.751084 0.002973 -0.426326
v -0.808631 0.003950 -0.361399
v -0.758126 0.003160 -0.412275
v -0.679693 0.002165 -0.470199
vn 0.0697 0.8631 -0.5002
vn -0.0873 -0.3791 -0.9212
vn 0.0938 -0.0085 -0.9956
vn 0.4071 0.6113 -0.6787
vn 0.4797 0.7757 -0.4101
vn 0.2596 0.3529 0.8989
vn 0.0364 0.0616 0.9974
vn -0.7755 0.1467 -0.6141
vn 0.1128 0.7054 -0.6997
vn 0.0656 0.0086 -0.9978
vn -0.1043 -0.3801 -0.9190
vn -0.7845 0.4729 -0.4012
vn -0.0382 -0.4142 -0.9094
vn -0.8766 0.4034 -0.2624
vn -0.3059 0.6198 0.7227
vn -0.3214 0.2241 0.9200
vn 0.4590 0.7891 -0.4083
vn 0.2765 0.3307 0.9023
vn 0.8674 -0.4047 0.2895
vn -0.0000 -1.0000 -0.0000
vn 0.3898 0.6240 -0.6772
vn -0.4076 -0.2733 0.8713
vn -0.1635 -0.3772 0.9116
vn 0.0929 -0.0078 -0.9956
vn 0.1269 0.8716 -0.4736
vn 0.0674 0.0380 0.9970
vn 0.0960 0.7039 -0.7037
vn 0.0731 0.0014 -0.9973
vn 0.0807 0.0015 -0.9967
vn -0.0403 -0.4138 -0.9095
vn -0.8650 0.4197 -0.2750
vn -0.8673 0.4003 -0.2959
vn -0.8573 0.4294 -0.2840
vn -0.8668 0.4278 -0.2563
vn -0.8712 0.4165 -0.2597
vn -0.2755 0.6218 0.7331
vn -0.2965 0.2187 0.9296
vn 0.8710 -0.4166 0.2604
vn 0.8822 -0.3838 0.2730
vn 0.8803 -0.4181 0.2242
vn 0.8666 -0.4252 0.2611
vn 0.8612 -0.4221 0.2832
vn -0.4127 -0.2725 0.8692
vn -0.1574 -0.3773 0.9126
vn -0.0191 -0.2949 -0.9553
vn 0.3003 -0.4200 -0.8564
vn -0.2960 -0.1954 -0.9350
vn -0.3106 -0.0601 -0.9486
vn -0.0651 0.0983 -0.9930
vn 0.5121 -0.4834 -0.7100
vn 0.0672 -0.9975 -0.0215
vn -0.8258 -0.5534 -0.1081
vn -0.4575 0.8892 0.0068
vn 0.2091 0.8867 -0.4124
vn 0.5010 -0.6276 -0.5960
vn -0.9460 -0.3032 0.1147
vn -0.4141 0.9094 0.0391
vn 0.2724 0.8802 -0.3887
vn -0.3159 -0.6264 0.7126
vn -0.4174 0.5434 0.7283
vn 0.1531 0.9158 0.3713
vn 0.8357 0.1927 0.5143
vn 0.2469 0.1181 0.9618
vn 0.5373 0.2149 0.8156
vn 0.6615 0.2570 0.7045
vn 0.3712 0.3028 0.8778
vn 0.2923 0.5778 0.7620
vn 0.5951 0.2996 0.7457
vn 0.4404 0.6967 0.5663
vn 0.3741 0.7144 0.5913
vn 0.3038 0.8185 0.4876
vn 0.6976 0.3038 0.6489
vn 0.5418 0.6809 0.4928
vn 0.4452 0.7061 0.5507
vn 0.3320 0.8557 0.3969
vn 0.3242 0.8570 0.4004
vn 0.2871 0.8939 0.3441
vn -0.0286 0.2221 0.9746
vn 0.0354 0.6322 0.7740
vn 0.0813 0.8509 0.5190
vn -0.0790 0.3888 0.9179
vn -0.2777 0.4118 0.8680
vn -0.0047 0.7240 0.6898
vn -0.2569 0.7316 0.6315
vn -0.3344 0.6000 0.7268
vn -0.3313 0.6001 0.7281
vn 0.0871 0.8408 0.5343
vn -0.1988 0.8520 0.4844
vn -0.2650 0.7517 0.6040
vn -0.3325 0.7493 0.5727
vn -0.3683 0.6968 0.6155
vn -0.3129 0.6970 0.6452
vn -0.1239 -0.0543 0.9908
vn -0.3729 0.1629 0.9134
vn -0.4415 0.3928 0.8067
vn -0.2773 -0.0670 0.9585
vn -0.3347 -0.2973 0.8942
vn -0.3644 0.1635 0.9168
vn -0.4570 -0.1425 0.8780
vn -0.3733 -0.3013 0.8774
vn -0.4018 -0.4575 0.7932
vn -0.3758 0.3859 0.8425
vn -0.5130 0.0589 0.8564
vn -0.4176 -0.1377 0.8982
vn -0.4642 -0.3353 0.8198
vn -0.3856 -0.4537 0.8034
vn -0.3950 -0.5173 0.7592
vn -0.0100 -0.2753 0.9613
vn -0.2655 -0.4234 0.8662
vn -0.3456 -0.5448 0.7641
vn -0.0217 -0.3498 0.9366
vn 0.1014 -0.5459 0.8317
vn -0.2851 -0.5385 0.7929
vn 0.2065 -0.7587 0.6178
vn -0.3673 -0.6294 0.6848
vn 0.2630 -0.1173 0.9576
vn 0.3937 -0.4112 0.8221
vn 0.4667 -0.6587 0.5902
vn 0.4078 -0.2728 0.8714
vn 0.5645 -0.1521 0.8113
vn 0.5040 -0.5423 0.6723
vn 0.6057 -0.4825 0.6327
vn 0.6462 -0.2378 0.7252
vn 0.6920 -0.1966 0.6946
vn 0.5116 -0.7202 0.4685
vn 0.5651 -0.6950 0.4446
vn 0.6342 -0.5180 0.5740
vn 0.7154 -0.4661 0.5205
vn 0.7581 -0.2609 0.5976
vn 0.8498 -0.1654 0.5005
vn 0.9300 0.3602 0.0729
vn 0.6787 0.5640 -0.4703
vn 0.4422 0.7642 -0.4695
vn 0.8116 0.5834 -0.0301
vn 0.5802 0.7777 0.2418
vn 0.4247 0.7458 -0.5133
vn 0.3557 0.8591 -0.3680
vn 0.4131 0.9063 0.0896
vn 0.3553 0.9225 0.1507
vn 0.2296 0.8276 -0.5123
vn 0.1762 0.9039 -0.3899
vn 0.1690 0.8911 -0.4212
vn 0.1973 0.8629 -0.4653
vn 0.2481 0.9669 0.0596
vn 0.3095 0.9509 -0.0037
vn 0.0909 0.9828 0.1605
vn -0.1348 0.9615 -0.2393
vn -0.3166 0.9418 -0.1134
vn -0.0797 0.9922 0.0961
vn -0.2303 0.9073 0.3517
vn -0.3259 0.8871 -0.3268
vn -0.4142 0.8819 -0.2252
vn -0.3760 0.8857 0.2725
vn -0.3932 0.8692 0.2999
vn -0.4390 0.8758 -0.2006
vn -0.3951 0.8828 -0.2543
vn -0.3944 0.8944 -0.2109
vn -0.4013 0.8928 -0.2045
vn -0.3504 0.8792 0.3227
vn -0.3852 0.8424 0.3769
vn -0.5403 0.5780 0.6116
vn -0.9054 0.4236 0.0305
vn -0.9986 0.0170 -0.0510
vn -0.6888 0.4127 0.5960
vn -0.6187 0.0581 0.7835
vn -0.9844 0.0165 -0.1754
vn -0.9594 -0.2822 0.0004
vn -0.7076 -0.2568 0.6583
vn -0.6235 -0.3757 0.6857
vn -0.9238 -0.2937 -0.2456
vn -0.8526 -0.5134 -0.0970
vn -0.8473 -0.5050 -0.1644
vn -0.8221 -0.5523 -0.1379
vn -0.6178 -0.5484 0.5636
vn -0.5816 -0.5821 0.5682
vn -0.3817 -0.8090 0.4470
vn -0.3622 -0.9081 -0.2103
vn -0.3411 -0.8663 0.3650
vn -0.3727 -0.9036 -0.2114
vn 0.5768 -0.6624 -0.4780
vn -0.1968 -0.6748 0.7113
vn -0.1797 -0.6070 -0.7741
vn -0.3280 -0.8684 0.3719
vn -0.3788 -0.8920 -0.2469
vn 0.0871 -0.6092 0.7882
vn -0.3628 -0.7345 -0.5734
vn 0.2446 -0.4483 -0.8598
vn 0.6108 -0.7775 0.1498
vn 0.4190 -0.7442 -0.5202
vn -0.2948 -0.7312 0.6152
vn 0.6941 -0.7177 0.0565
vn 0.7943 -0.5858 0.1609
vn 0.4238 -0.5612 -0.7110
vn 0.5630 -0.4523 -0.6917
vn 0.6167 -0.4835 -0.6213
vn 0.7044 -0.3756 -0.6023
vn 0.9209 -0.3883 -0.0338
vn 0.9487 -0.3161 0.0003
vn 0.2219 0.9731 -0.0626
vn 0.1658 0.8645 -0.4746
vn 0.1580 0.9043 -0.3965
vn 0.1436 0.8858 -0.4414
vn 0.0415 0.8762 -0.4801
vn 0.1775 0.8865 -0.4273
vn 0.1986 0.8864 -0.4181
vn 0.0829 0.9681 -0.2364
vn -0.1573 0.9228 -0.3518
vn 0.1670 0.9228 -0.3472
vn 0.2551 0.9181 -0.3033
vn 0.2265 0.9386 -0.2604
vn 0.0578 0.9347 -0.3508
vn -0.1118 0.9910 -0.0732
vn -0.3073 0.9398 -0.1493
vn -0.4726 0.8146 0.3363
vn -0.4153 0.8834 -0.2172
vn -0.3676 0.9014 -0.2288
vn -0.5534 0.8301 -0.0688
vn -0.7045 0.6754 -0.2181
vn -0.4146 0.8910 -0.1850
vn -0.5060 0.8139 -0.2856
vn -0.7107 0.6980 -0.0880
vn -0.8749 0.3773 -0.3037
vn -0.3711 0.9250 -0.0816
vn -0.4502 0.8785 -0.1601
vn -0.5154 0.8519 -0.0928
vn -0.6792 0.6780 -0.2811
vn -0.9028 0.4297 -0.0152
vn -0.9806 0.0925 -0.1729
vn -0.5215 -0.7612 0.3854
vn -0.7159 -0.6536 -0.2456
vn -0.8010 -0.5770 -0.1599
vn -0.6035 -0.7841 -0.1446
vn -0.4593 -0.8430 -0.2800
vn -0.7259 -0.6816 -0.0921
vn -0.5762 -0.7791 -0.2471
vn -0.4591 -0.8763 -0.1459
vn -0.8024 -0.5904 -0.0878
vn -0.6273 -0.7286 -0.2750
vn -0.5775 -0.7845 -0.2259
vn -0.4636 -0.8235 -0.3270
vn 0.3705 -0.7147 -0.5933
vn 0.3893 -0.7348 -0.5554
vn 0.3842 -0.7360 -0.5574
vn 0.4187 -0.6633 -0.6202
vn 0.9760 -0.0159 -0.2174
vn 0.6928 -0.2358 -0.6815
vn 0.5619 -0.3929 -0.7280
vn 0.7930 -0.0071 -0.6092
vn 0.6929 0.2136 -0.6887
vn 0.6683 -0.2294 -0.7076
vn 0.6397 -0.1152 -0.7600
vn 0.7348 0.2234 -0.6405
vn 0.5023 0.5167 -0.6933
vn 0.5819 -0.3994 -0.7084
vn 0.5670 -0.3003 -0.7670
vn 0.6658 -0.1170 -0.7369
vn 0.5225 0.1878 -0.8317
vn 0.5457 0.5381 -0.6424
vn 0.3446 0.6926 -0.6336
vn 0.1508 0.7143 -0.6834
vn 0.0830 0.4216 -0.9030
vn 0.1067 0.2693 -0.9571
vn 0.1556 0.7154 -0.6812
vn 0.1759 0.6892 -0.7029
vn 0.1391 0.4334 -0.8904
vn 0.0667 0.5524 -0.8309
vn 0.0960 0.6734 -0.7330
vn 0.0072 0.7940 -0.6078
vn -0.0480 0.2128 -0.9759
vn -0.1806 0.4249 -0.8870
vn -0.1722 0.4704 -0.8655
vn -0.2789 0.6077 -0.7436
vn -0.2553 0.7162 -0.6495
vn -0.3740 0.8255 -0.4226
vn -0.4114 0.8110 -0.4159
vn -0.3921 0.5564 -0.7326
vn -0.3902 0.3122 -0.8662
vn -0.4801 0.6775 -0.5573
vn -0.3625 0.7196 -0.5922
vn -0.4289 0.3561 -0.8302
vn -0.3545 0.4005 -0.8449
vn -0.4304 0.4985 -0.7525
vn -0.5168 0.4550 -0.7252
vn -0.3968 0.0224 -0.9176
vn -0.4102 0.0105 -0.9119
vn -0.3686 -0.0248 -0.9293
vn -0.3622 -0.0174 -0.9319
vn -0.5479 0.1247 -0.8272
vn -0.7183 -0.0826 -0.6908
vn -0.6768 -0.3045 -0.6702
vn -0.3379 -0.2343 -0.9116
vn -0.3720 -0.2968 -0.8795
vn -0.4622 -0.4173 -0.7825
vn -0.4601 -0.4244 -0.7799
vn -0.3322 -0.2377 -0.9128
vn -0.3159 -0.3191 -0.8935
vn -0.3964 -0.4500 -0.8002
vn -0.3541 -0.5726 -0.7394
vn -0.3653 -0.2999 -0.8813
vn -0.3729 -0.2622 -0.8901
vn -0.3884 -0.2851 -0.8763
vn -0.3618 -0.3938 -0.8450
vn -0.4493 -0.5412 -0.7108
vn 0.2268 0.6273 -0.7450
vn 0.3006 0.1469 -0.9424
vn 0.2831 -0.2505 -0.9258
vn 0.1895 0.3524 -0.9165
vn 0.1332 0.3344 -0.9330
vn 0.2268 -0.0998 -0.9688
vn 0.1416 -0.0989 -0.9850
vn 0.0746 0.0549 -0.9957
vn 0.2076 0.0683 -0.9758
vn 0.2638 -0.2968 -0.9178
vn 0.1354 -0.2784 -0.9509
vn 0.1086 -0.2004 -0.9737
vn 0.1961 -0.1994 -0.9601
vn 0.1558 -0.1034 -0.9824
vn 0.0458 -0.1138 -0.9925
vn -0.2252 -0.4418 -0.8684
vn -0.1112 -0.3571 -0.9274
vn -0.1334 -0.2827 -0.9499
vn 0.1242 -0.3321 -0.9350
vn -0.0457 -0.2078 -0.9771
vn 0.1786 -0.2474 -0.9523
vn 0.1680 -0.2174 -0.9615
vn 0.1581 -0.2175 -0.9632
vn 0.2506 -0.4335 -0.8656
vn 0.2950 -0.4314 -0.8526
vn 0.0756 -0.6540 -0.7527
vn 0.1690 -0.4455 -0.8792
vn -0.3794 -0.8977 -0.2238
vn -0.3280 -0.8684 0.3718
vn -0.3626 -0.9054 -0.2209
vn -0.2088 -0.7232 0.6583
vn 0.3875 -0.7092 -0.5890
vn -0.4187 -0.8834 -0.2106
vn -0.2863 -0.7560 -0.5887
vn -0.6589 -0.0078 -0.7522
vn -0.0293 -0.3310 -0.9432
vn -0.6594 -0.0076 -0.7518
vn -0.6437 0.2050 -0.7373
vn -0.6309 0.2096 -0.7470
vn -0.1093 -0.3258 -0.9391
vn -0.0046 -0.9999 0.0110
vn -0.4361 -0.0404 0.8990
vn -0.1214 0.9924 -0.0215
vn 0.0649 0.4793 -0.8752
vn -0.0550 -0.5677 -0.8214
vn -0.3618 0.1158 0.9250
vn -0.0354 0.9978 -0.0569
vn 0.0281 0.5142 -0.8572
vn 0.1683 -0.5984 0.7833
vn 0.0601 0.2117 0.9755
vn 0.2532 0.8661 0.4310
vn 0.7858 0.4707 -0.4012
vn 0.4779 0.2302 0.8477
vn 0.8662 0.3067 0.3946
vn 0.8492 0.4412 -0.2903
vn 0.5763 0.4372 0.6904
vn 0.5669 0.4595 0.6837
vn 0.8241 0.5628 -0.0644
vn 0.7870 0.6135 -0.0647
vn 0.5987 0.7287 0.3324
vn 0.5363 0.7842 0.3121
vn 0.7869 0.4766 -0.3920
vn 0.6923 0.6214 -0.3668
vn 0.6875 0.6729 -0.2730
vn 0.5964 0.7580 -0.2641
vn 0.4819 0.8713 0.0934
vn 0.4830 0.8706 0.0936
vn 0.3784 0.2590 0.8887
vn 0.3968 0.4749 0.7855
vn 0.3199 0.7690 0.5535
vn 0.3567 0.3166 0.8789
vn 0.4184 0.3132 0.8526
vn 0.3072 0.6119 0.7288
vn 0.3467 0.6177 0.7059
vn 0.3242 0.4944 0.8065
vn 0.2369 0.4795 0.8450
vn 0.2585 0.8206 0.5096
vn 0.2110 0.8088 0.5489
vn 0.2102 0.7649 0.6089
vn 0.2445 0.7714 0.5875
vn 0.2069 0.5224 0.8272
vn 0.1325 0.5022 0.8545
vn 0.3443 0.1531 0.9263
vn 0.3844 0.2009 0.9010
vn 0.1744 0.2418 0.9545
vn 0.4033 0.1592 0.9011
vn 0.3213 -0.0675 0.9446
vn 0.1975 0.1871 0.9623
vn 0.1597 0.0759 0.9842
vn 0.2090 -0.0630 0.9759
vn 0.1236 -0.2646 0.9564
vn 0.0484 0.2374 0.9702
vn 0.0122 0.1265 0.9919
vn 0.0328 0.0750 0.9966
vn 0.0163 0.0345 0.9993
vn 0.1121 -0.2640 0.9580
vn 0.0968 -0.2968 0.9500
vn 0.3885 0.0579 0.9196
vn 0.3621 -0.1901 0.9125
vn 0.1882 -0.5325 0.8252
vn 0.3172 -0.1951 0.9281
vn 0.3650 -0.3678 0.8552
vn 0.1867 -0.5322 0.8258
vn 0.2013 -0.6280 0.7517
vn 0.2024 -0.6283 0.7512
vn 0.1420 -0.5912 0.7939
vn 0.0708 -0.7605 0.6455
vn 0.4865 0.1205 0.8653
vn 0.5686 -0.3343 0.7516
vn 0.4566 -0.7899 0.4093
vn 0.6336 -0.0595 0.7714
vn 0.8907 0.2020 0.4072
vn 0.6344 -0.6101 0.4747
vn 0.8849 -0.4652 0.0239
vn 0.9986 -0.0430 0.0295
vn 0.9335 0.1695 -0.3161
vn 0.4207 -0.8750 0.2396
vn 0.5785 -0.7995 -0.1619
vn 0.8178 -0.5491 -0.1725
vn 0.8184 -0.4124 -0.4001
vn 0.9112 0.1303 -0.3908
vn 0.8786 0.1723 -0.4454
vn 0.7020 0.4962 -0.5109
vn 0.2834 0.5265 -0.8016
vn -0.0333 0.4848 -0.8740
vn 0.6613 0.5520 -0.5080
vn 0.6620 0.6284 -0.4085
vn 0.2369 0.5898 -0.7720
vn 0.2527 0.6793 -0.6889
vn 0.5714 0.7209 -0.3922
vn 0.5669 0.7634 -0.3095
vn -0.0337 0.4852 -0.8737
vn -0.0156 0.6138 -0.7893
vn 0.2176 0.7118 -0.6679
vn 0.2228 0.7975 -0.5606
vn 0.4762 0.8332 -0.2812
vn 0.4357 0.9000 -0.0143
vn 0.2200 0.8874 0.4051
vn -0.1050 0.9705 0.2171
vn -0.2465 0.9680 -0.0464
vn 0.1488 0.8803 0.4506
vn 0.1474 0.8545 0.4981
vn -0.0448 0.9846 0.1691
vn -0.0446 0.9785 0.2014
vn 0.2253 0.8676 0.4434
vn 0.2264 0.7870 0.5740
vn -0.0980 0.9862 -0.1334
vn -0.1020 0.9932 0.0570
vn 0.0040 0.9859 0.1671
vn 0.0074 0.8573 0.5147
vn 0.1549 0.7617 0.6291
vn 0.1525 0.4796 0.8641
vn 0.1092 0.2093 0.9717
vn -0.1574 0.1814 0.9707
vn -0.4005 0.1942 0.8955
vn 0.0856 0.1604 0.9833
vn 0.0962 0.1242 0.9876
vn -0.1630 0.1687 0.9721
vn -0.1431 0.1105 0.9835
vn 0.0857 0.0979 0.9915
vn 0.1111 0.0334 0.9932
vn -0.4359 0.1225 0.8916
vn -0.3810 -0.0213 0.9243
vn -0.1943 -0.0191 0.9808
vn -0.1338 -0.1644 0.9773
vn 0.0551 -0.1505 0.9871
vn 0.1233 -0.2951 0.9475
vn 0.1660 -0.6008 0.7820
vn -0.0163 -0.8709 0.4912
vn 0.1629 -0.7592 0.6302
vn 0.1919 -0.7702 0.6082
vn 0.2528 -0.6850 -0.6833
vn -0.0898 -0.6756 -0.7318
vn 0.1685 -0.7891 0.5907
vn -0.2827 -0.9106 0.3015
vn 0.0708 -0.7601 0.6460
vn -0.2206 -0.8431 0.4905
vn -0.1245 -0.8144 0.5668
vn 0.2077 -0.7327 0.6480
vn -0.3992 -0.9114 0.0999
vn 0.5347 -0.8113 -0.2366
vn 0.1312 -0.7861 -0.6040
vn -0.1433 -0.7895 -0.5968
vn 0.5469 -0.7264 -0.4162
vn 0.7798 -0.4288 -0.4562
vn -0.1067 -0.5396 -0.8351
vn -0.0174 -0.4247 -0.9052
vn 0.2209 -0.5094 -0.8317
vn 0.3615 -0.2602 -0.8953
vn 0.7281 -0.2198 -0.6493
vn 0.8026 0.1141 -0.5856
vn 0.2363 0.9698 0.0597
vn 0.0861 0.8763 -0.4740
vn -0.0300 0.6254 -0.7797
vn 0.0919 0.9899 -0.1083
vn -0.1100 0.9936 0.0263
vn -0.0278 0.8268 -0.5618
vn -0.2203 0.8843 -0.4118
vn -0.2151 0.9727 -0.0872
vn -0.2465 0.9673 -0.0595
vn 0.0701 0.6931 -0.7175
vn -0.0345 0.7524 -0.6578
vn -0.0274 0.9695 -0.2435
vn -0.1167 0.9783 -0.1713
vn -0.1082 0.9926 0.0548
vn -0.0350 0.9992 -0.0183
vn 0.0698 0.4049 0.9117
vn -0.1554 0.7629 0.6275
vn -0.2382 0.9635 0.1223
vn -0.1093 0.4855 0.8674
vn -0.2065 0.3535 0.9124
vn -0.2555 0.7928 0.5533
vn -0.4261 0.6390 0.6404
vn -0.3710 0.3863 0.8444
vn -0.4282 0.2774 0.8601
vn -0.1540 0.9583 0.2407
vn -0.3458 0.8799 0.3258
vn -0.3346 0.6234 0.7067
vn -0.4363 0.4885 0.7556
vn -0.3772 0.2792 0.8830
vn -0.3999 0.2217 0.8893
vn 0.0720 -0.5228 0.8494
vn -0.2127 -0.4441 0.8704
vn -0.4626 -0.2335 0.8553
vn -0.0874 -0.5970 0.7975
vn -0.3320 -0.4729 0.8162
vn -0.3774 -0.7272 0.5734
vn -0.3696 -0.2395 0.8978
vn -0.4467 -0.5100 0.7351
vn -0.2813 -0.7046 0.6515
vn -0.1272 -0.7012 -0.7016
vn -0.1317 -0.7985 -0.5874
vn -0.0455 -0.7615 -0.6465
vn -0.0463 -0.5604 -0.8269
vn 0.6784 0.3079 -0.6671
vn 0.2538 0.0325 -0.9667
vn -0.0729 -0.1675 -0.9832
vn 0.3303 0.2486 -0.9106
vn 0.2475 0.3894 -0.8872
vn 0.0065 0.0266 -0.9996
vn -0.0582 0.2203 -0.9737
vn -0.0282 0.3123 -0.9496
vn -0.0583 0.3800 -0.9232
vn -0.0344 -0.1716 -0.9846
vn -0.1059 0.0685 -0.9920
vn -0.0412 0.2225 -0.9741
vn -0.0637 0.2765 -0.9589
vn -0.0268 0.3866 -0.9219
vn -0.0113 0.3553 -0.9347
vn 0.0168 0.4316 -0.9019
vn -0.1070 0.2999 -0.9480
vn -0.3921 0.2698 -0.8794
vn -0.0106 0.4419 -0.8970
vn -0.0492 0.7410 -0.6697
vn -0.3589 0.3403 -0.8691
vn -0.4112 0.5958 -0.6899
vn -0.2251 0.7907 -0.5693
vn -0.2107 0.9475 -0.2404
vn -0.6181 0.2443 -0.7472
vn -0.6513 0.3555 -0.6704
vn -0.5041 0.6002 -0.6210
vn -0.5127 0.7418 -0.4324
vn -0.1994 0.9464 -0.2540
vn -0.1801 0.9767 -0.1169
vn -0.1703 0.9760 -0.1359
vn -0.4463 0.7395 -0.5040
vn -0.5936 0.3692 -0.7151
vn -0.3797 0.9074 -0.1801
vn -0.4851 0.8692 0.0955
vn -0.6332 0.5132 -0.5794
vn -0.7762 0.4676 -0.4230
vn -0.6715 0.7342 0.1002
vn -0.6804 0.4656 0.5659
vn -0.6434 0.2045 -0.7377
vn -0.7137 0.1633 -0.6811
vn -0.8071 0.4015 -0.4329
vn -0.9880 0.1520 0.0277
vn -0.7095 0.4031 0.5780
vn -0.5819 0.1665 0.7960
vn -0.5895 0.0348 0.8070
vn -0.9974 0.0657 0.0289
vn -0.7246 0.0098 -0.6891
vn -0.7712 -0.2177 0.5982
vn -0.6611 -0.4963 0.5627
vn -0.8711 -0.2317 -0.4330
vn -0.7541 -0.5270 -0.3919
vn -0.6449 -0.7575 0.1018
vn -0.6776 -0.0306 -0.7348
vn -0.5830 -0.4218 -0.6943
vn -0.6181 -0.5662 -0.5453
vn 0.0334 0.3567 -0.9336
vn -0.0748 0.2760 -0.9582
vn -0.0790 0.0688 -0.9945
vn -0.0472 0.1889 -0.9809
vn -0.0801 0.1906 -0.9784
vn -0.1197 0.1737 -0.9775
vn -0.1259 0.1740 -0.9767
vn -0.1091 0.1218 -0.9865
vn -0.3525 0.1403 -0.9252
vn -0.1358 -0.0920 -0.9865
vn -0.1476 -0.0921 -0.9848
vn -0.1883 0.0144 -0.9820
vn -0.3448 0.0170 -0.9385
vn -0.3718 0.0961 -0.9233
vn -0.6006 0.1125 -0.7916
vn -0.6552 -0.4058 -0.6372
vn -0.2212 -0.9535 -0.2048
vn -0.4572 -0.6962 -0.5534
vn -0.4372 -0.6954 -0.5703
vn -0.6001 -0.2250 -0.7676
vn -0.4418 -0.2487 -0.8619
vn -0.3806 -0.3833 -0.8416
vn -0.2245 -0.3626 -0.9045
vn -0.1058 -0.5373 -0.8367
vn -0.0773 -0.5285 -0.8454
vn -0.2818 -0.9508 -0.1286
vn -0.3082 -0.8175 -0.4865
vn -0.3112 -0.9389 -0.1468
vn -0.1248 -0.9646 0.2322
vn -0.2051 -0.9717 0.1173
vn -0.4538 -0.8248 -0.3373
vn 0.1420 -0.7904 0.5959
vn -0.3754 -0.8195 -0.4330
vn -0.1433 -0.7895 -0.5967
vt 0.441223 0.392690
vt 0.808762 -0.266234
vt 0.467978 -0.284867
vt -0.054983 0.000000
vt 0.001671 0.518100
vt -0.278946 0.386547
vt -0.947663 1.821725
vt -0.674923 1.973760
vt -1.080822 2.446863
vt 1.040424 0.491031
vt 1.080822 -0.263145
vt 1.040424 2.870495
vt 0.314103 2.377150
vt 0.586580 2.207132
vt -0.424867 0.877689
vt -0.134115 0.745676
vt -0.998452 0.565066
vt -0.394793 0.000000
vt -0.990287 1.082367
vt 0.674923 -0.932704
vt 0.474988 -0.330221
vt 0.006203 1.250741
vt -0.422811 1.991752
vt 0.305441 0.000000
vt -0.330221 2.603341
vt -0.983678 1.250741
vt -0.284867 2.630189
vt 0.176150 0.565066
vt 0.893353 0.954345
vt 0.441223 3.024977
vt 0.762432 3.043478
vt -0.019361 2.362562
vt 0.762432 0.512801
vt -0.999084 0.745676
vt 0.263145 2.446863
vt -0.882474 2.207132
vt -0.385092 -0.645521
vt -0.721607 -0.587479
vt -0.761047 0.394793
vt -0.808762 2.613453
vt -0.707542 0.954345
vt -0.721607 -0.000000
vt -0.385092 0.000000
vt -0.727101 0.000000
vt 0.422811 -0.949113
vt 0.084736 1.082367
vt -0.949113 1.991752
vt 0.497924 0.000000
vt 0.442365 0.000000
vt 0.781489 2.362562
vt 0.392690 3.024977
vt -0.645521 0.000000
vt 0.956841 0.386547
vt 0.776530 0.000000
vt 0.906059 1.821725
vt -0.491031 2.870495
vt -1.027244 -0.442365
vt -0.497924 0.727101
vt -0.305441 0.735625
vt 0.054983 0.776530
vt -1.027244 0.000000
vt -0.598309 0.245098
vt -0.691445 0.213369
vt -0.576896 0.181411
vt -0.964700 0.127485
vt -0.889179 0.149743
vt -0.997104 0.190591
vt -0.501162 0.237855
vt -0.559532 0.307634
vt -0.685026 0.290401
vt -1.041983 0.152245
vt 0.755249 -0.126535
vt 0.775442 -0.129761
vt 0.787787 -0.132875
vt 0.223445 0.216487
vt 0.207482 0.154181
vt 0.277862 0.177252
vt 0.507083 0.198564
vt 0.422831 0.197398
vt 0.472640 0.256307
vt 0.944526 0.138756
vt 0.843760 0.143815
vt 0.926606 0.194853
vt 0.964700 -0.138312
vt 1.041983 -0.177204
vt 0.968955 -0.187125
vt 0.457593 -0.315226
vt 0.969842 -0.241026
vt 0.581118 -0.513576
vt 0.278377 0.255899
vt 0.571642 0.239625
vt 1.035953 0.175084
vt 1.080352 -0.319989
vt 1.083074 -0.323113
vt 1.082673 -0.326708
vt 0.368653 0.056412
vt 0.471153 0.011185
vt 0.439717 0.084084
vt 0.335565 0.384364
vt 0.288586 0.311104
vt 0.410076 0.364699
vt 0.839095 0.405194
vt 0.716044 0.443144
vt 0.849030 0.479879
vt -0.367943 0.280901
vt -0.392099 0.363611
vt -0.449246 0.275855
vt 0.959326 0.256765
vt 0.837536 0.347818
vt 0.799769 0.245098
vt 1.090600 0.267538
vt 0.995986 0.362887
vt 1.184754 0.275855
vt 1.116336 0.365831
vt 0.853786 0.441624
vt 1.116336 0.480669
vt 0.983627 0.487341
vt 0.995986 0.577896
vt 0.853786 0.572731
vt -0.480669 0.365831
vt 1.199692 0.392099
vt 1.090661 0.405214
vt 0.954837 0.406450
vt 0.653585 0.294550
vt 0.676838 0.401649
vt 0.699428 0.526760
vt 0.513376 0.336402
vt 0.676838 0.613467
vt 0.537318 0.530862
vt 0.537318 0.423966
vt 0.567852 0.459957
vt 0.441607 0.462574
vt 0.410076 0.521812
vt 0.335565 0.464431
vt 0.664247 0.178040
vt 0.512738 0.227071
vt 0.384039 0.273578
vt 0.535136 0.122029
vt 0.401133 0.168530
vt 0.285835 0.214242
vt 0.322116 0.124705
vt 0.854326 0.150224
vt 0.706446 0.074347
vt 0.568010 0.031773
vt 0.895645 0.055812
vt 0.977372 -0.491344
vt 0.902191 -0.543868
vt 0.830876 -0.561341
vt 1.026155 -0.444669
vt 0.895645 -0.578789
vt 0.487936 -0.248381
vt 0.490010 -0.244381
vt 0.871862 -0.185812
vt 0.641984 -0.536837
vt 0.732376 -0.567005
vt 1.058308 -0.408412
vt 0.983296 -0.248992
vt 1.012962 0.159456
vt 1.031097 -0.491755
vt 1.031097 0.073789
vt 1.129099 0.177134
vt 1.131141 -0.403947
vt -0.491755 0.073789
vt -0.403947 0.098961
vt -0.476747 0.177134
vt -0.388251 0.194613
vt -0.300069 0.331542
vt -0.229646 0.372091
vt -0.315166 0.419770
vt 1.034921 0.242487
vt 1.136840 0.229646
vt 1.156477 0.315166
vt 1.018409 0.326117
vt 0.903808 0.259007
vt 0.884305 0.332366
vt 0.750849 0.352664
vt 0.652106 0.290719
vt 0.606386 0.377686
vt 0.527692 0.306394
vt 0.471895 0.388481
vt 0.417654 0.320258
vt 0.354062 0.398540
vt 0.249018 0.353784
vt 0.344784 0.303364
vt 0.431256 0.262737
vt 0.416879 0.353784
vt 0.344979 0.213185
vt 0.492168 0.311104
vt 0.206909 0.262737
vt 0.423842 0.162394
vt 0.497181 0.214242
vt 0.236421 0.162394
vt 0.338807 0.133001
vt 0.407927 0.082776
vt 0.481110 0.124705
vt 0.292578 -0.407927
vt 0.368653 -0.458792
vt 0.322116 -0.481110
vt 0.382039 -0.396974
vt 0.471153 -0.464470
vt 0.491908 -0.464934
vt 0.477380 -0.449811
vt 0.480277 -0.264860
vt 0.441122 -0.317302
vt 0.450996 -0.329099
vt 0.421874 -0.394883
vt 1.177623 -0.311737
vt 0.641984 0.011772
vt 0.732376 0.017213
vt -0.658344 0.052795
vt -0.650301 0.021277
vt -0.585716 0.016521
vt 0.881211 -0.191588
vt 0.390486 -0.255399
vt 0.447569 -0.189781
vt 0.830876 0.023974
vt 0.537187 -0.169369
vt 0.512849 -0.187368
vt 0.585716 -0.140775
vt -0.787170 0.103213
vt -0.882820 0.079672
vt -0.787787 0.030309
vt 1.074293 -0.237526
vt 0.568010 -0.535346
vt -0.311737 0.136650
vt -0.968955 0.084528
vt -1.074293 0.100221
vt -1.134199 0.186331
vt -1.177623 0.136650
vt -0.229979 0.186331
vt -0.298717 0.232150
vt 0.784886 0.273990
vt 0.814183 0.206258
vt 0.691492 0.217152
vt 0.729430 0.147588
vt 0.601300 0.164911
vt 0.249018 0.416879
vt 0.301303 0.334918
vt 0.369583 0.260427
vt 0.334918 0.381850
vt 0.263216 0.267730
vt 0.267730 0.334596
vt 0.318526 0.195972
vt 0.195972 0.360248
vt 0.204729 0.286690
vt 0.330267 0.061969
vt 0.266144 0.108838
vt 0.338214 -0.330267
vt 0.302340 -0.266144
vt 0.275394 -0.207482
vt 0.352825 -0.195656
vt 0.882820 -0.134168
vt -0.226438 0.279146
vt -1.079720 0.229963
vt -1.162301 0.279146
vt -1.090672 0.322879
vt -0.159520 0.322879
vt -1.035953 0.396954
vt -1.136840 0.372091
vt -1.019861 0.272196
vt -1.001093 0.355275
vt 1.001093 0.110563
vt 0.877554 0.095153
vt -0.782372 0.337044
vt -0.760166 0.409099
vt -0.877554 0.381631
vt -0.655796 0.364584
vt 0.760166 0.097186
vt -0.729430 0.468340
vt -0.843760 0.435321
vt -0.624725 0.436155
vt 0.624725 0.104304
vt -0.527770 0.373778
vt -0.507968 0.428773
vt 0.507968 0.142058
vt -0.422728 0.367820
vt -0.453445 0.301936
vt 0.422728 0.141395
vt -0.334485 0.296495
vt -0.318526 0.360248
vt -0.241474 0.286690
vt -0.401875 0.230203
vt -0.288093 0.221578
vt 0.164036 0.221578
vt -0.365770 0.159735
vt -0.478060 0.171848
vt -0.275394 0.154181
vt -0.352825 0.091972
vt -0.452607 0.099715
vt -0.447569 0.040969
vt -0.555522 0.110716
vt -0.537827 0.040863
vt -0.944526 0.409209
vt -0.907083 0.309138
vt -0.904635 0.222908
vt -0.790954 0.257670
vt -0.789445 0.182021
vt 0.650301 -0.122054
vt -0.676520 0.139196
vt -0.755249 0.028253
vt -0.775442 0.029544
vt 0.537827 -0.132806
vt 0.799333 0.163365
vt 0.754880 0.129189
vt 0.816405 0.108678
vt 0.501786 0.044213
vt 0.583211 0.062153
vt 0.499278 0.096866
vt 0.855338 0.164161
vt 0.804058 0.216331
vt 0.747803 0.195328
vt 0.414300 0.056779
vt -0.209430 0.458493
vt -0.448097 0.518531
vt -0.319595 0.526737
vt -0.853127 0.166308
vt -0.874976 0.105426
vt -0.792421 0.132760
vt -0.692479 -0.355118
vt -0.773790 -0.319090
vt -0.671998 -0.304799
vt 0.503032 0.265094
vt 0.552303 0.304691
vt 0.459766 0.299485
vt 0.452974 0.004462
vt -0.790211 0.324526
vt -0.759437 0.384638
vt -0.752542 0.276830
vt -0.784154 0.198840
vt -0.609160 -0.356133
vt 0.428918 0.249957
vt -0.573295 0.213716
vt -0.612224 0.214715
vt -0.519086 0.228219
vt -0.546090 0.054751
vt -0.496096 0.025447
vt -0.470366 0.073696
vt -0.544356 0.274036
vt -0.545964 0.223180
vt -0.469957 0.255274
vt -0.336260 -0.359476
vt -0.384158 -0.307710
vt -0.286081 -0.325732
vt 0.496377 0.160216
vt 0.467551 0.218214
vt 0.436322 0.160739
vt -0.151457 0.162471
vt -0.226754 0.218903
vt -0.234795 0.163365
vt 0.360991 0.161453
vt 0.319470 0.228849
vt 0.283312 0.162471
vt 0.400645 0.225487
vt -0.158492 0.228849
vt -0.239650 0.280743
vt 0.360604 0.288766
vt -0.158492 -0.319470
vt -0.208580 -0.360604
vt -0.239650 -0.287061
vt 0.432482 0.277514
vt -0.226114 -0.432482
vt -0.274897 -0.394619
vt -0.308970 0.195154
vt -0.313914 0.254314
vt -0.342272 -0.268312
vt -0.384576 0.228762
vt -0.342272 0.309936
vt -0.405830 0.285596
vt -0.439432 -0.256750
vt -0.405830 -0.215803
vt -0.493820 -0.207338
vt -0.493820 0.307036
vt -0.299366 0.131324
vt -0.376313 0.164646
vt -0.466188 0.197585
vt -0.379971 0.097932
vt -0.465218 0.132070
vt -0.547155 0.165613
vt -0.547731 0.105289
vt -0.201577 0.102445
vt -0.297080 0.065478
vt -0.405862 0.041686
vt -0.204804 0.029748
vt -0.332376 0.007604
vt -0.786812 0.309580
vt -0.337691 0.265653
vt -0.412015 0.256989
vt -0.458887 0.516645
vt -0.321142 0.269755
vt -0.332376 0.260808
vt -0.195361 0.427645
vt -0.661211 0.225320
vt -0.723263 0.253269
vt -0.728977 0.264020
vt -0.120240 0.088087
vt -0.191192 0.346478
vt -0.204804 0.276664
vt -0.232545 0.298976
vt 0.314690 0.088087
vt 0.276664 0.029748
vt 0.359638 0.013741
vt 0.405462 0.088554
vt -0.178456 0.370004
vt -0.158114 0.359638
vt -0.170626 0.445543
vt 0.445543 0.022086
vt 0.480697 0.095524
vt 0.533265 0.197465
vt 0.324342 0.231622
vt 0.254015 0.262325
vt 0.224621 0.197465
vt 0.360421 0.291083
vt 0.501056 0.262325
vt 0.300625 0.321941
vt -0.254015 -0.501056
vt -0.300625 -0.459368
vt 0.403365 0.342581
vt -0.360421 -0.511735
vt -0.403365 -0.470843
vt -0.354550 -0.416262
vt -0.419902 -0.358590
vt -0.522612 -0.357295
vt -0.477598 -0.303078
vt -0.579382 -0.303238
vt -0.536264 -0.244379
vt -0.642366 -0.243264
vt -0.592633 -0.195738
vt -0.592633 0.317547
vt -0.624666 0.261441
vt -0.711679 0.233564
vt -0.630555 0.199617
vt -0.722093 0.166346
vt -0.634570 0.131419
vt -0.720904 0.095952
vt -0.629325 0.067168
vt -0.593665 0.015100
vt -0.593665 0.195850
vt -0.496096 0.208607
vt -0.446064 0.252009
vt -0.207444 0.525468
vt -0.239039 0.496901
vt 0.332617 0.006679
vt 0.339960 0.000082
vt -0.440405 0.253682
vt -0.405862 0.212649
vt -0.852384 0.271841
vt -0.693217 0.194843
vt -0.741789 0.255302
vt -0.857163 0.351359
vt -0.705825 0.440414
vt -0.570125 0.506361
vt -0.339960 0.531219
vt -0.332617 0.538210
vt -0.658056 0.515644
vt -0.556459 0.517596
vt 0.525468 0.040158
vt 0.296542 0.078406
vt 0.207444 0.040158
vt 0.202149 0.119520
vt 0.546392 0.119520
vt -0.459291 -0.417589
vt 0.509472 0.340832
vt -0.509472 -0.468160
vt -0.566312 -0.409649
vt -0.552303 -0.507257
vt -0.612717 -0.465244
vt -0.658261 -0.405519
vt -0.690005 -0.197902
vt -0.741618 -0.256322
vt -0.690005 0.299493
vt -0.741618 0.323631
vt -0.778450 0.262501
vt -0.842779 -0.275363
vt -0.842779 0.290923
vt -0.861446 0.224758
vt -0.693217 0.031017
vt -0.789197 0.066055
vt -0.757128 0.386581
vt -0.749743 0.396174
vt -0.789197 0.213581
vt -0.852384 0.037414
vt -0.549193 0.510856
vt 0.458887 0.000784
vt 0.448097 0.000714
vt 0.556459 0.007415
vt 0.298802 0.159980
vt 0.407679 0.123893
vt 0.416338 0.194390
vt 0.499467 0.161012
vt 0.501160 0.218575
vt 0.576742 0.252021
vt 0.667765 0.228809
vt 0.651250 0.294737
vt 0.744460 0.258588
vt -0.651250 -0.510998
vt 0.715515 0.319272
vt -0.715515 -0.451501
vt 0.797922 0.278142
vt -0.797922 -0.424354
vt -0.757055 -0.388047
vt -0.848585 -0.352977
vt 0.868848 0.227709
vt -0.424354 0.278142
vt -0.391513 0.227709
vt -0.352977 0.296210
vt -0.309250 0.234397
vt -0.909647 -0.309250
vt -0.243365 0.224758
vt -0.275363 0.290923
vt -0.420908 0.164161
vt -0.351355 0.165228
vt -0.273270 0.166077
vt -0.919150 0.166077
vt -0.306685 0.094422
vt -0.392179 0.098899
vt -0.238389 0.105426
vt -0.271841 0.037414
vt -0.351359 0.030792
vt -0.924843 0.306685
vt 0.883543 0.098899
vt 0.806755 0.046527
vt -0.424841 0.046527
vt 0.580551 0.193623
vt 0.584491 0.127384
vt 0.674710 0.162055
vt 0.676104 0.091880
vt -0.637623 0.490782
vt -0.454498 0.108678
vt -0.490304 0.063767
vt -0.717151 0.449570
vt -0.699702 0.452632
vt -0.806755 0.424841
vt -0.753763 0.490304
vt 0.753763 0.063767
vt 0.658056 0.024384
vt -0.452974 0.521393
s 0
f 21/1/1 14/2/1 10/3/1
f 24/4/2 12/5/2 3/6/2
f 12/5/3 4/7/3 3/6/3
f 13/8/4 5/9/4 4/7/4
f 14/2/5 6/10/5 5/11/5
f 6/12/6 16/13/6 7/14/6
f 7/14/7 17/15/7 8/16/7
f 19/17/8 11/18/8 20/19/8
f 13/20/9 9/21/9 14/2/9
f 2/22/10 1/23/10 13/8/10
f 24/4/11 25/24/11 12/5/11
f 9/25/12 2/26/12 10/27/12
f 25/24/13 19/28/13 12/5/13
f 20/19/14 11/18/14 23/29/14
f 21/30/15 16/13/15 15/31/15
f 22/32/16 17/15/16 16/13/16
f 14/2/17 15/33/17 6/10/17
f 6/12/18 15/31/18 16/13/18
f 8/34/19 5/35/19 7/36/19
f 26/37/20 27/38/20 11/39/20
f 13/8/21 14/40/21 5/9/21
f 23/41/22 27/42/22 17/15/22
f 17/15/23 26/43/23 8/16/23
f 12/5/24 13/8/24 4/7/24
f 14/2/1 9/21/1 10/3/1
f 15/33/25 14/2/25 21/1/25
f 7/14/26 16/13/26 17/15/26
f 19/17/8 18/44/8 11/18/8
f 13/20/27 1/45/27 9/21/27
f 13/8/28 12/5/28 2/22/28
f 12/5/29 19/28/29 20/46/29
f 2/22/29 12/5/29 20/46/29
f 9/25/12 1/47/12 2/26/12
f 25/24/30 18/48/30 19/28/30
f 11/18/31 28/49/31 23/29/31
f 23/29/32 22/50/32 10/27/32
f 22/50/33 21/51/33 10/27/33
f 10/27/34 2/26/34 23/29/34
f 2/26/35 20/19/35 23/29/35
f 21/30/36 22/32/36 16/13/36
f 22/32/37 23/41/37 17/15/37
f 8/34/38 26/52/38 3/53/38
f 26/52/39 24/54/39 3/53/39
f 3/53/40 4/55/40 5/35/40
f 8/34/41 3/53/41 5/35/41
f 5/35/42 6/56/42 7/36/42
f 27/38/20 28/57/20 11/39/20
f 11/39/20 18/58/20 25/59/20
f 25/59/20 24/60/20 11/39/20
f 24/60/20 26/37/20 11/39/20
f 23/41/43 28/61/43 27/42/43
f 17/15/44 27/42/44 26/43/44
f 29/62/45 42/63/45 41/64/45
f 30/65/46 44/66/46 48/67/46
f 29/62/47 41/64/47 54/68/47
f 29/62/48 54/68/48 60/69/48
f 29/62/49 60/69/49 49/70/49
f 30/65/50 48/67/50 69/71/50
f 196/72/51 198/73/51 170/74/51
f 31/75/52 57/76/52 76/77/52
f 32/78/53 63/79/53 81/80/53
f 33/81/54 66/82/54 87/83/54
f 30/84/55 69/85/55 73/86/55
f 186/87/51 172/88/51 180/89/51
f 31/75/56 76/77/56 82/90/56
f 32/78/57 81/80/57 88/91/57
f 33/81/58 87/83/58 70/92/58
f 189/93/51 190/94/51 187/95/51
f 34/96/59 93/97/59 110/98/59
f 35/99/60 96/100/60 113/101/60
f 36/102/61 99/103/61 116/104/61
f 37/105/62 102/106/62 105/107/62
f 107/108/63 114/109/63 38/110/63
f 106/111/64 117/112/64 107/108/64
f 105/113/65 118/114/65 106/111/65
f 107/108/66 117/112/66 114/109/66
f 117/112/67 115/115/67 114/109/67
f 106/111/68 118/114/68 117/112/68
f 118/116/69 119/117/69 117/118/69
f 117/118/70 119/117/70 115/119/70
f 119/117/71 116/104/71 115/119/71
f 105/107/72 102/106/72 118/120/72
f 102/121/73 101/122/73 118/116/73
f 118/116/74 101/122/74 119/117/74
f 101/122/75 100/123/75 119/117/75
f 119/117/76 100/123/76 116/104/76
f 100/123/77 36/102/77 116/104/77
f 114/109/78 111/124/78 38/110/78
f 115/115/79 120/125/79 114/109/79
f 116/104/80 121/126/80 115/119/80
f 114/109/81 120/125/81 111/124/81
f 120/125/82 112/127/82 111/124/82
f 115/119/83 121/126/83 120/128/83
f 121/126/84 122/129/84 120/128/84
f 120/125/85 122/130/85 112/127/85
f 122/130/86 113/101/86 112/127/86
f 116/104/87 99/103/87 121/126/87
f 99/103/88 98/131/88 121/126/88
f 121/126/89 98/131/89 122/129/89
f 98/131/90 97/132/90 122/129/90
f 122/129/91 97/132/91 113/133/91
f 97/132/92 35/134/92 113/133/92
f 111/124/93 108/135/93 38/110/93
f 112/127/94 123/136/94 111/124/94
f 113/101/95 124/137/95 112/127/95
f 111/124/96 123/136/96 108/135/96
f 123/136/97 109/138/97 108/135/97
f 112/127/98 124/137/98 123/136/98
f 124/137/99 125/139/99 123/136/99
f 123/136/100 125/139/100 109/138/100
f 125/139/101 110/98/101 109/138/101
f 113/101/102 96/100/102 124/137/102
f 96/100/103 95/140/103 124/137/103
f 124/137/104 95/140/104 125/139/104
f 95/140/105 94/141/105 125/139/105
f 125/139/106 94/141/106 110/98/106
f 94/141/107 34/96/107 110/98/107
f 108/135/108 103/142/108 38/110/108
f 109/138/109 126/143/109 108/135/109
f 110/98/110 127/144/110 109/138/110
f 108/135/111 126/143/111 103/142/111
f 126/143/112 104/145/112 103/142/112
f 109/138/113 127/144/113 126/143/113
f 181/146/51 176/147/51 179/148/51
f 182/149/51 181/146/51 172/88/51
f 179/148/114 176/147/114 104/150/114
f 110/98/115 93/97/115 127/144/115
f 191/151/51 192/152/51 194/153/51
f 177/154/51 179/148/51 178/155/51
f 187/95/51 174/156/51 188/157/51
f 181/146/51 179/148/51 177/154/51
f 182/149/51 188/157/51 174/156/51
f 103/142/116 107/108/116 38/110/116
f 104/145/117 128/158/117 103/142/117
f 129/159/118 176/147/118 181/146/118
f 103/142/119 128/158/119 107/108/119
f 128/158/120 106/111/120 107/108/120
f 104/145/121 129/160/121 128/158/121
f 129/160/122 130/161/122 128/158/122
f 128/158/123 130/161/123 106/111/123
f 130/161/124 105/113/124 106/111/124
f 181/146/125 182/149/125 129/159/125
f 92/162/126 182/149/126 174/156/126
f 129/163/127 92/164/127 130/165/127
f 92/164/128 91/166/128 130/165/128
f 130/165/129 91/166/129 105/107/129
f 91/166/130 37/105/130 105/107/130
f 72/167/131 102/106/131 37/105/131
f 71/168/132 131/169/132 72/167/132
f 70/92/133 132/170/133 71/171/133
f 72/167/134 131/169/134 102/106/134
f 131/172/135 101/122/135 102/121/135
f 71/171/136 132/170/136 131/172/136
f 132/170/137 133/173/137 131/172/137
f 131/172/138 133/173/138 101/122/138
f 133/173/139 100/123/139 101/122/139
f 70/92/140 87/83/140 132/170/140
f 87/83/141 86/174/141 132/170/141
f 132/170/142 86/174/142 133/173/142
f 86/174/143 85/175/143 133/173/143
f 133/173/144 85/175/144 100/123/144
f 85/175/145 36/102/145 100/123/145
f 90/176/146 99/103/146 36/102/146
f 89/177/147 134/178/147 90/176/147
f 88/91/148 135/179/148 89/177/148
f 90/176/149 134/178/149 99/103/149
f 134/178/150 98/131/150 99/103/150
f 89/177/151 135/179/151 134/178/151
f 135/179/152 136/180/152 134/178/152
f 134/178/153 136/180/153 98/131/153
f 136/180/154 97/132/154 98/131/154
f 88/91/155 81/80/155 135/179/155
f 81/80/156 80/181/156 135/179/156
f 135/179/157 80/181/157 136/180/157
f 80/181/158 79/182/158 136/180/158
f 136/180/159 79/182/159 97/132/159
f 79/182/160 35/134/160 97/132/160
f 84/183/161 96/100/161 35/99/161
f 83/184/162 137/185/162 84/186/162
f 82/90/163 138/187/163 83/184/163
f 84/186/164 137/185/164 96/188/164
f 137/189/165 95/140/165 96/100/165
f 83/184/166 138/187/166 137/185/166
f 138/187/167 139/190/167 137/185/167
f 137/185/168 139/190/168 95/191/168
f 139/192/169 94/141/169 95/140/169
f 82/90/170 76/77/170 138/187/170
f 76/77/171 75/193/171 138/187/171
f 138/187/172 75/193/172 139/190/172
f 75/193/173 74/194/173 139/190/173
f 139/190/174 74/194/174 94/195/174
f 74/196/175 34/197/175 94/198/175
f 78/199/176 93/200/176 34/197/176
f 180/89/51 175/201/51 185/202/51
f 173/203/177 186/87/177 77/204/177
f 181/146/51 180/89/51 172/88/51
f 185/202/178 175/201/178 93/200/178
f 185/202/51 183/205/51 186/87/51
f 183/205/179 184/206/179 78/199/179
f 141/207/180 190/94/180 189/93/180
f 177/208/181 178/209/181 126/143/181
f 166/210/182 197/211/182 195/212/182
f 186/87/51 173/203/51 193/213/51
f 78/199/183 184/206/183 185/202/183
f 150/214/184 55/215/184 192/152/184
f 126/143/185 178/209/185 179/216/185
f 173/203/51 191/151/51 193/213/51
f 192/152/51 169/217/51 194/153/51
f 169/217/186 171/218/186 55/215/186
f 195/219/51 196/72/51 169/217/51
f 168/220/187 45/221/187 170/222/187
f 187/95/188 92/162/188 174/156/188
f 188/157/189 140/223/189 189/93/189
f 175/201/190 180/89/190 127/224/190
f 141/207/191 187/95/191 190/94/191
f 141/225/192 91/166/192 92/164/192
f 73/226/193 69/71/193 140/227/193
f 69/71/194 68/228/194 140/227/194
f 140/227/195 68/228/195 141/229/195
f 68/230/196 67/231/196 141/225/196
f 141/225/197 67/231/197 91/166/197
f 67/231/198 37/105/198 91/166/198
f 85/175/199 90/176/199 36/102/199
f 86/174/200 142/232/200 85/175/200
f 87/83/201 143/233/201 86/174/201
f 85/175/202 142/232/202 90/176/202
f 142/232/203 89/177/203 90/176/203
f 86/174/204 143/233/204 142/232/204
f 143/233/205 144/234/205 142/232/205
f 142/232/206 144/234/206 89/177/206
f 144/234/207 88/91/207 89/177/207
f 87/83/208 66/82/208 143/233/208
f 66/82/209 65/235/209 143/233/209
f 143/233/210 65/235/210 144/234/210
f 65/235/211 64/236/211 144/234/211
f 144/234/212 64/236/212 88/91/212
f 64/236/213 32/78/213 88/91/213
f 79/182/214 84/237/214 35/134/214
f 80/181/215 145/238/215 79/182/215
f 81/80/216 146/239/216 80/181/216
f 79/182/217 145/238/217 84/237/217
f 145/240/218 83/184/218 84/186/218
f 80/181/219 146/239/219 145/238/219
f 146/239/220 147/241/220 145/238/220
f 145/240/221 147/242/221 83/184/221
f 147/242/222 82/90/222 83/184/222
f 81/80/223 63/79/223 146/239/223
f 63/79/224 62/243/224 146/239/224
f 146/239/225 62/243/225 147/241/225
f 62/244/226 61/245/226 147/242/226
f 147/242/227 61/245/227 82/90/227
f 61/245/228 31/75/228 82/90/228
f 74/196/229 78/199/229 34/197/229
f 75/193/230 148/246/230 74/194/230
f 76/77/231 149/247/231 75/193/231
f 74/196/232 148/248/232 78/199/232
f 148/248/233 77/204/233 78/199/233
f 75/193/234 149/247/234 148/246/234
f 149/249/235 150/214/235 148/248/235
f 148/248/236 150/214/236 77/204/236
f 193/213/51 172/88/51 186/87/51
f 76/77/237 57/76/237 149/247/237
f 57/250/238 56/251/238 149/249/238
f 149/249/239 56/251/239 150/214/239
f 56/251/240 55/215/240 150/214/240
f 172/88/51 188/157/51 182/149/51
f 194/153/51 193/213/51 191/151/51
f 170/74/51 194/153/51 196/72/51
f 193/213/241 73/86/241 172/88/241
f 170/74/242 45/252/242 194/153/242
f 45/252/243 193/213/243 194/153/243
f 45/252/244 30/84/244 73/86/244
f 67/231/245 72/167/245 37/105/245
f 68/230/246 151/253/246 67/231/246
f 69/71/247 152/254/247 68/228/247
f 67/231/248 151/253/248 72/167/248
f 151/253/249 71/168/249 72/167/249
f 68/228/250 152/254/250 151/255/250
f 152/254/251 153/256/251 151/255/251
f 151/253/252 153/257/252 71/168/252
f 153/256/253 70/258/253 71/259/253
f 69/71/254 48/67/254 152/254/254
f 48/67/255 47/260/255 152/254/255
f 152/254/256 47/260/256 153/256/256
f 47/260/257 46/261/257 153/256/257
f 153/256/258 46/261/258 70/258/258
f 46/262/259 33/81/259 70/92/259
f 51/263/260 66/82/260 33/81/260
f 50/264/261 154/265/261 51/266/261
f 49/70/262 155/267/262 50/264/262
f 51/263/263 154/268/263 66/82/263
f 154/265/264 65/269/264 66/270/264
f 50/264/265 155/267/265 154/265/265
f 155/267/266 156/271/266 154/265/266
f 154/265/267 156/271/267 65/269/267
f 156/272/268 64/236/268 65/235/268
f 49/70/269 60/69/269 155/267/269
f 60/69/270 59/273/270 155/267/270
f 155/267/271 59/273/271 156/271/271
f 59/273/272 58/274/272 156/271/272
f 156/272/273 58/275/273 64/236/273
f 58/275/274 32/78/274 64/236/274
f 58/275/275 63/79/275 32/78/275
f 59/273/276 157/276/276 58/274/276
f 60/69/277 158/277/277 59/273/277
f 58/275/278 157/278/278 63/79/278
f 157/278/279 62/243/279 63/79/279
f 59/273/280 158/277/280 157/276/280
f 158/277/281 159/279/281 157/276/281
f 157/276/282 159/279/282 62/280/282
f 159/279/283 61/281/283 62/280/283
f 60/69/284 54/68/284 158/277/284
f 54/68/285 53/282/285 158/277/285
f 158/277/286 53/282/286 159/279/286
f 53/282/287 52/283/287 159/279/287
f 159/279/288 52/283/288 61/281/288
f 52/284/289 31/75/289 61/245/289
f 52/284/290 57/76/290 31/75/290
f 53/282/291 160/285/291 52/283/291
f 54/68/292 161/286/292 53/282/292
f 52/283/293 160/285/293 57/287/293
f 160/285/294 56/288/294 57/287/294
f 53/282/295 161/286/295 160/285/295
f 161/286/296 162/289/296 160/285/296
f 160/285/297 162/289/297 56/288/297
f 162/289/298 55/290/298 56/288/298
f 54/68/299 41/64/299 161/286/299
f 41/64/300 40/291/300 161/286/300
f 161/286/301 40/291/301 162/289/301
f 40/291/302 39/292/302 162/289/302
f 162/289/303 39/292/303 55/290/303
f 180/89/51 185/202/51 186/87/51
f 46/261/304 51/266/304 33/293/304
f 47/260/305 163/294/305 46/261/305
f 48/67/306 164/295/306 47/260/306
f 46/261/307 163/294/307 51/266/307
f 163/294/308 50/264/308 51/266/308
f 47/260/309 164/295/309 163/294/309
f 164/295/310 165/296/310 163/294/310
f 163/294/311 165/296/311 50/264/311
f 165/296/312 49/70/312 50/264/312
f 48/67/313 44/66/313 164/295/313
f 44/66/314 43/297/314 164/295/314
f 164/295/315 43/297/315 165/296/315
f 43/297/316 42/63/316 165/296/316
f 165/296/317 42/63/317 49/70/317
f 42/63/318 29/62/318 49/70/318
f 197/298/51 196/72/51 195/219/51
f 40/291/319 166/210/319 39/292/319
f 41/64/320 167/299/320 40/291/320
f 141/207/191 92/162/191 187/95/191
f 45/252/243 73/86/243 193/213/243
f 40/291/321 167/299/321 166/210/321
f 167/299/322 168/220/322 166/210/322
f 129/159/118 104/150/118 176/147/118
f 92/162/126 129/159/126 182/149/126
f 41/64/323 42/63/323 167/299/323
f 42/63/324 43/297/324 167/299/324
f 167/299/325 43/297/325 168/220/325
f 43/297/326 44/66/326 168/220/326
f 168/220/327 44/66/327 45/221/327
f 44/66/328 30/65/328 45/221/328
f 166/210/329 196/300/329 197/211/329
f 168/220/330 196/300/330 166/210/330
f 166/210/182 195/212/182 39/292/182
f 150/214/184 192/152/184 191/151/184
f 141/207/180 189/93/180 140/223/180
f 150/214/331 191/151/331 173/203/331
f 78/199/332 185/202/332 93/200/332
f 183/205/179 78/199/179 77/204/179
f 77/204/333 186/87/333 183/205/333
f 194/153/51 169/217/51 196/72/51
f 126/143/185 179/216/185 104/145/185
f 127/224/334 180/89/334 177/154/334
f 177/208/181 126/143/181 127/144/181
f 177/154/51 180/89/51 181/146/51
f 188/157/51 189/93/51 187/95/51
f 175/201/190 127/224/190 93/200/190
f 185/202/51 184/206/51 183/205/51
f 171/218/51 169/217/51 192/152/51
f 73/86/335 140/223/335 188/157/335
f 150/214/331 173/203/331 77/204/331
f 168/220/330 198/301/330 196/300/330
f 73/86/335 188/157/335 172/88/335
f 55/215/336 171/218/336 192/152/336
f 168/220/187 170/222/187 198/301/187
f 169/217/186 55/215/186 39/302/186
f 39/302/337 195/219/337 169/217/337
f 199/303/338 211/304/338 210/305/338
f 200/306/339 213/307/339 217/308/339
f 199/303/340 210/305/340 223/309/340
f 199/303/341 223/309/341 228/310/341
f 199/303/342 228/310/342 218/311/342
f 200/306/343 217/308/343 237/312/343
f 353/313/344 340/314/344 355/315/344
f 201/316/345 225/317/345 244/318/345
f 202/319/346 231/320/346 248/321/346
f 203/322/347 234/323/347 254/324/347
f 200/306/348 237/312/348 241/325/348
f 363/326/344 364/327/344 360/328/344
f 201/316/349 244/318/349 249/329/349
f 202/319/350 248/321/350 255/330/350
f 203/322/351 254/324/351 238/331/351
f 351/332/344 341/333/344 352/334/344
f 204/335/352 260/336/352 277/337/352
f 205/338/353 263/339/353 280/340/353
f 206/341/354 266/342/354 283/343/354
f 207/344/355 269/345/355 272/346/355
f 274/347/356 281/348/356 208/349/356
f 273/350/357 284/351/357 274/352/357
f 272/346/358 285/353/358 273/350/358
f 274/347/359 284/354/359 281/348/359
f 284/354/360 282/355/360 281/348/360
f 273/350/361 285/353/361 284/351/361
f 285/353/362 286/356/362 284/351/362
f 284/357/363 286/358/363 282/359/363
f 286/358/364 283/343/364 282/359/364
f 272/346/365 269/345/365 285/353/365
f 269/345/366 268/360/366 285/353/366
f 285/353/367 268/360/367 286/356/367
f 268/361/368 267/362/368 286/358/368
f 286/358/369 267/362/369 283/343/369
f 267/362/370 206/341/370 283/343/370
f 281/348/371 278/363/371 208/349/371
f 282/355/372 287/364/372 281/348/372
f 283/343/373 288/365/373 282/359/373
f 281/348/374 287/364/374 278/363/374
f 287/364/375 279/366/375 278/363/375
f 282/355/376 288/367/376 287/364/376
f 288/367/377 289/368/377 287/364/377
f 287/364/378 289/368/378 279/366/378
f 289/368/379 280/340/379 279/366/379
f 283/343/380 266/342/380 288/365/380
f 266/342/381 265/369/381 288/365/381
f 288/365/382 265/369/382 289/370/382
f 265/369/383 264/371/383 289/370/383
f 289/368/384 264/372/384 280/340/384
f 264/372/385 205/338/385 280/340/385
f 278/363/386 275/373/386 208/349/386
f 279/366/387 290/374/387 278/363/387
f 280/340/388 291/375/388 279/366/388
f 278/363/389 290/374/389 275/373/389
f 290/374/390 276/376/390 275/373/390
f 279/366/391 291/375/391 290/374/391
f 291/375/392 292/377/392 290/374/392
f 290/374/393 292/377/393 276/376/393
f 292/377/394 277/337/394 276/376/394
f 280/340/395 263/339/395 291/375/395
f 263/339/396 262/378/396 291/375/396
f 291/375/397 262/378/397 292/377/397
f 262/378/398 261/379/398 292/377/398
f 292/377/399 261/379/399 277/337/399
f 261/379/400 204/335/400 277/337/400
f 275/373/401 270/380/401 208/349/401
f 276/376/402 293/381/402 275/373/402
f 277/337/403 294/382/403 276/376/403
f 275/373/404 293/381/404 270/380/404
f 293/381/405 271/383/405 270/380/405
f 276/376/406 294/382/406 293/381/406
f 294/382/407 295/384/407 293/381/407
f 293/381/408 295/384/408 271/383/408
f 339/385/344 363/326/344 360/328/344
f 277/337/409 260/336/409 294/382/409
f 348/386/344 347/387/344 361/388/344
f 345/389/344 348/386/344 361/388/344
f 347/387/410 348/386/410 295/390/410
f 340/314/344 342/391/344 345/389/344
f 357/392/344 359/393/344 358/394/344
f 270/380/411 274/347/411 208/349/411
f 271/383/412 296/395/412 270/380/412
f 349/396/413 271/397/413 344/398/413
f 270/380/414 296/395/414 274/347/414
f 296/399/415 273/350/415 274/352/415
f 271/400/416 297/401/416 296/399/416
f 297/401/417 298/402/417 296/399/417
f 296/399/418 298/402/418 273/350/418
f 298/402/419 272/346/419 273/350/419
f 349/396/420 350/403/420 297/404/420
f 259/405/421 350/403/421 342/391/421
f 297/401/422 259/406/422 298/402/422
f 259/406/423 258/407/423 298/402/423
f 298/402/424 258/407/424 272/346/424
f 258/407/425 207/344/425 272/346/425
f 240/408/426 269/345/426 207/344/426
f 239/409/427 299/410/427 240/411/427
f 238/331/428 300/412/428 239/409/428
f 240/408/429 299/413/429 269/345/429
f 299/413/430 268/360/430 269/345/430
f 239/409/431 300/412/431 299/410/431
f 300/412/432 301/414/432 299/410/432
f 299/415/433 301/416/433 268/361/433
f 301/416/434 267/362/434 268/361/434
f 238/331/435 254/324/435 300/412/435
f 254/324/436 253/417/436 300/412/436
f 300/418/437 253/419/437 301/416/437
f 253/419/438 252/420/438 301/416/438
f 301/416/439 252/420/439 267/362/439
f 252/420/440 206/341/440 267/362/440
f 257/421/441 266/342/441 206/341/441
f 256/422/442 302/423/442 257/421/442
f 255/330/443 303/424/443 256/422/443
f 257/421/444 302/423/444 266/342/444
f 302/423/445 265/369/445 266/342/445
f 256/422/446 303/424/446 302/423/446
f 303/424/447 304/425/447 302/423/447
f 302/423/448 304/425/448 265/369/448
f 304/425/449 264/371/449 265/369/449
f 255/330/450 248/321/450 303/424/450
f 248/321/451 247/426/451 303/424/451
f 303/424/452 247/426/452 304/425/452
f 247/426/453 246/427/453 304/425/453
f 304/425/454 246/427/454 264/371/454
f 246/428/455 205/338/455 264/372/455
f 251/429/456 263/339/456 205/338/456
f 250/430/457 305/431/457 251/429/457
f 249/329/458 306/432/458 250/430/458
f 251/429/459 305/431/459 263/339/459
f 305/431/460 262/378/460 263/339/460
f 250/430/461 306/432/461 305/431/461
f 306/432/462 307/433/462 305/431/462
f 305/431/463 307/433/463 262/378/463
f 307/433/464 261/379/464 262/378/464
f 249/329/465 244/318/465 306/432/465
f 244/318/466 243/434/466 306/432/466
f 306/432/467 243/434/467 307/433/467
f 243/434/468 242/435/468 307/433/468
f 307/433/469 242/435/469 261/379/469
f 242/435/470 204/335/470 261/379/470
f 245/436/471 260/336/471 204/335/471
f 341/333/472 351/332/472 245/437/472
f 351/332/473 352/334/473 260/438/473
f 341/333/344 357/392/344 352/334/344
f 352/334/474 343/439/474 260/438/474
f 309/440/475 356/441/475 355/315/475
f 241/325/476 308/442/476 354/443/476
f 343/439/477 346/444/477 294/445/477
f 224/446/478 339/385/478 360/328/478
f 294/445/479 346/444/479 347/387/479
f 316/447/480 318/448/480 359/393/480
f 316/447/481 357/392/481 341/333/481
f 345/389/482 344/398/482 271/397/482
f 330/449/483 363/326/483 339/385/483
f 349/396/344 344/398/344 345/389/344
f 342/391/344 350/403/344 349/396/344
f 346/444/344 367/450/344 338/451/344
f 353/313/484 259/405/484 342/391/484
f 354/452/485 308/453/485 355/315/485
f 336/454/486 214/455/486 338/451/486
f 309/440/487 353/313/487 356/441/487
f 309/456/488 258/407/488 259/406/488
f 241/325/489 237/312/489 308/442/489
f 237/312/490 236/457/490 308/442/490
f 308/442/491 236/457/491 309/458/491
f 236/457/492 235/459/492 309/458/492
f 309/456/493 235/460/493 258/407/493
f 235/460/494 207/344/494 258/407/494
f 252/420/495 257/421/495 206/341/495
f 253/419/496 310/461/496 252/420/496
f 254/324/497 311/462/497 253/417/497
f 252/420/498 310/461/498 257/421/498
f 310/461/499 256/422/499 257/421/499
f 253/419/500 311/463/500 310/461/500
f 311/463/501 312/464/501 310/461/501
f 310/461/502 312/464/502 256/422/502
f 312/464/503 255/330/503 256/422/503
f 254/324/504 234/323/504 311/462/504
f 234/465/505 233/466/505 311/463/505
f 311/463/506 233/466/506 312/464/506
f 233/466/507 232/467/507 312/464/507
f 312/464/508 232/467/508 255/330/508
f 232/467/509 202/319/509 255/330/509
f 246/428/510 251/429/510 205/338/510
f 247/426/511 313/468/511 246/427/511
f 248/321/512 314/469/512 247/426/512
f 246/428/513 313/470/513 251/429/513
f 313/470/514 250/430/514 251/429/514
f 247/426/515 314/469/515 313/468/515
f 314/471/516 315/472/516 313/470/516
f 313/470/517 315/472/517 250/430/517
f 315/472/518 249/329/518 250/430/518
f 248/321/519 231/320/519 314/469/519
f 231/320/520 230/473/520 314/469/520
f 314/471/521 230/474/521 315/472/521
f 230/474/522 229/475/522 315/472/522
f 315/472/523 229/475/523 249/329/523
f 229/475/524 201/316/524 249/329/524
f 242/435/525 245/436/525 204/335/525
f 243/434/526 316/476/526 242/435/526
f 244/318/527 317/477/527 243/434/527
f 242/435/528 316/476/528 245/436/528
f 337/478/344 366/479/344 352/334/344
f 243/434/529 317/477/529 316/476/529
f 317/480/530 318/448/530 316/447/530
f 360/328/344 364/327/344 358/394/344
f 340/314/344 353/313/344 342/391/344
f 244/318/531 225/317/531 317/477/531
f 225/317/532 224/481/532 317/477/532
f 317/480/533 224/446/533 318/448/533
f 361/388/344 340/314/344 345/389/344
f 366/479/344 367/450/344 343/439/344
f 364/327/344 337/478/344 358/394/344
f 362/482/344 361/388/344 346/444/344
f 361/483/534 241/325/534 340/484/534
f 338/451/535 214/455/535 362/482/535
f 214/455/536 361/388/536 362/482/536
f 214/485/537 200/306/537 241/325/537
f 235/460/538 240/408/538 207/344/538
f 236/457/539 319/486/539 235/459/539
f 237/312/540 320/487/540 236/457/540
f 235/459/541 319/486/541 240/411/541
f 319/486/542 239/409/542 240/411/542
f 236/457/543 320/487/543 319/486/543
f 320/487/544 321/488/544 319/486/544
f 319/486/545 321/488/545 239/409/545
f 321/488/546 238/331/546 239/409/546
f 237/312/547 217/308/547 320/487/547
f 217/308/548 216/489/548 320/487/548
f 320/487/549 216/489/549 321/488/549
f 216/489/550 215/490/550 321/488/550
f 321/488/551 215/490/551 238/331/551
f 215/490/552 203/322/552 238/331/552
f 220/491/553 234/323/553 203/322/553
f 219/492/554 322/493/554 220/491/554
f 218/311/555 323/494/555 219/492/555
f 220/491/556 322/493/556 234/323/556
f 322/495/557 233/466/557 234/465/557
f 219/492/558 323/494/558 322/493/558
f 323/494/559 324/496/559 322/493/559
f 322/495/560 324/497/560 233/466/560
f 324/497/561 232/467/561 233/466/561
f 218/311/562 228/310/562 323/494/562
f 228/310/563 227/498/563 323/494/563
f 323/494/564 227/498/564 324/496/564
f 227/499/565 226/500/565 324/497/565
f 324/497/566 226/500/566 232/467/566
f 226/500/567 202/319/567 232/467/567
f 226/500/568 231/320/568 202/319/568
f 227/499/569 325/501/569 226/500/569
f 228/310/570 326/502/570 227/498/570
f 226/500/571 325/501/571 231/320/571
f 325/501/572 230/473/572 231/320/572
f 227/503/573 326/504/573 325/505/573
f 326/504/574 327/506/574 325/505/574
f 325/501/575 327/507/575 230/473/575
f 327/506/576 229/508/576 230/509/576
f 228/310/577 223/309/577 326/502/577
f 223/510/578 222/511/578 326/504/578
f 326/504/579 222/511/579 327/506/579
f 222/511/580 221/512/580 327/506/580
f 327/506/581 221/512/581 229/508/581
f 221/513/582 201/316/582 229/475/582
f 221/513/583 225/317/583 201/316/583
f 222/511/584 328/514/584 221/512/584
f 223/510/585 329/515/585 222/511/585
f 221/512/586 328/514/586 225/516/586
f 328/514/587 224/517/587 225/516/587
f 222/511/588 329/515/588 328/514/588
f 329/515/589 330/518/589 328/514/589
f 328/519/590 330/449/590 224/446/590
f 338/451/344 362/482/344 346/444/344
f 223/309/591 210/305/591 329/520/591
f 210/305/592 209/521/592 329/520/592
f 329/515/593 209/522/593 330/518/593
f 349/396/413 297/404/413 271/397/413
f 367/450/344 346/444/344 343/439/344
f 340/314/344 354/452/344 355/315/344
f 215/490/594 220/491/594 203/322/594
f 216/489/595 331/523/595 215/490/595
f 217/308/596 332/524/596 216/489/596
f 215/490/597 331/523/597 220/491/597
f 331/523/598 219/492/598 220/491/598
f 216/489/599 332/524/599 331/523/599
f 332/524/600 333/525/600 331/523/600
f 331/523/601 333/525/601 219/492/601
f 333/525/602 218/311/602 219/492/602
f 217/308/603 213/307/603 332/524/603
f 213/307/604 212/526/604 332/524/604
f 332/524/605 212/526/605 333/525/605
f 212/526/606 211/304/606 333/525/606
f 333/525/607 211/304/607 218/311/607
f 211/304/608 199/303/608 218/311/608
f 368/527/344 338/451/344 367/450/344
f 352/334/344 358/394/344 337/478/344
f 210/528/609 335/529/609 209/522/609
f 366/479/610 334/530/610 367/450/610
f 367/450/344 365/531/344 368/527/344
f 209/532/611 335/533/611 334/530/611
f 335/533/612 336/454/612 334/530/612
f 259/405/421 297/404/421 350/403/421
f 309/440/487 259/405/487 353/313/487
f 210/305/613 211/304/613 335/534/613
f 211/304/614 212/526/614 335/534/614
f 335/534/615 212/526/615 336/535/615
f 212/526/616 213/307/616 336/535/616
f 336/535/617 213/307/617 214/485/617
f 213/307/618 200/306/618 214/485/618
f 214/455/536 241/536/536 361/388/536
f 334/530/619 365/531/619 367/450/619
f 336/454/620 365/531/620 334/530/620
f 330/449/621 364/327/621 363/326/621
f 318/448/622 360/328/622 358/394/622
f 318/448/623 358/394/623 359/393/623
f 316/447/480 359/393/480 357/392/480
f 309/440/475 355/315/475 308/453/475
f 209/532/624 334/530/624 366/479/624
f 351/332/473 260/438/473 245/437/473
f 342/391/344 349/396/344 345/389/344
f 347/387/344 346/444/344 361/388/344
f 294/445/479 347/387/479 295/390/479
f 295/390/625 348/386/625 345/389/625
f 345/389/482 271/397/482 295/390/482
f 366/479/344 343/439/344 352/334/344
f 343/439/477 294/445/477 260/438/477
f 336/454/620 368/527/620 365/531/620
f 355/315/344 356/441/344 353/313/344
f 209/532/626 337/478/626 364/327/626
f 352/334/344 357/392/344 358/394/344
f 316/447/481 341/333/481 245/437/481
f 241/325/476 354/443/476 340/484/476
f 330/449/483 339/385/483 224/446/483
f 224/446/478 360/328/478 318/448/478
f 336/454/627 338/451/627 368/527/627
f 209/532/624 366/479/624 337/478/624
f 209/532/626 364/327/626 330/449/626
