# Blender 5.0.1
# www.blender.org
mtllib rockform_d.mtl
o rockform_d_rock
usemtl rockform_d_rock
v 1.025318 0.003452 0.016092
v 0.475592 0.001838 0.940933
v 0.092203 0.018190 0.890868
v -0.223907 0.056505 0.916868
v -0.632181 0.007047 0.991562
v -0.591233 0.006166 -0.889135
v -0.254980 0.031535 -1.059217
v 0.097946 0.010398 -0.890944
v 0.817779 0.002169 -0.301604
v 0.889240 0.150280 0.016092
v 0.766187 0.111926 0.315190
v 0.636030 0.130858 0.597467
v 0.413205 0.155304 0.833912
v 0.072263 0.184713 0.778869
v -0.208728 0.213060 0.831606
v -0.572425 0.174944 0.889055
v -0.728818 0.152191 0.568973
v -0.897301 0.115278 0.316646
v -1.012640 0.140345 0.016092
v -0.922627 0.137457 -0.293591
v -0.706137 0.133585 -0.517940
v -0.543048 0.151619 -0.806477
v -0.232323 0.176825 -0.931953
v 0.077549 0.155100 -0.776376
v 0.366811 0.118466 -0.722144
v 0.715108 0.115745 -0.631001
v 0.702708 0.149208 -0.260123
v 0.723420 0.283836 0.016092
v 0.634014 0.244428 0.267544
v 0.538411 0.244650 0.516342
v 0.333552 0.274041 0.697273
v 0.049212 0.318351 0.649394
v -0.188496 0.333476 0.717967
v -0.492338 0.312240 0.751670
v -0.612051 0.291240 0.471934
v -0.775938 0.255219 0.272897
v -0.872535 0.289597 0.016092
v -0.772202 0.296581 -0.239366
v -0.605710 0.295423 -0.434480
v -0.475634 0.283207 -0.690832
v -0.203758 0.310544 -0.771509
v 0.053935 0.280914 -0.643739
v 0.307091 0.261603 -0.619697
v 0.590527 0.254625 -0.527468
v 0.568918 0.274865 -0.211895
v 0.670584 0.409769 0.016092
v 0.605253 0.373329 0.257177
v 0.520937 0.369234 0.501820
v 0.308900 0.399584 0.654984
v 0.043100 0.441193 0.615064
v -0.185367 0.456327 0.700389
v -0.469852 0.437249 0.713098
v -0.576929 0.419235 0.442745
v -0.755863 0.382737 0.265660
v -0.839336 0.418273 0.016092
v -0.724423 0.433047 -0.222143
v -0.585114 0.428344 -0.417364
v -0.462856 0.411787 -0.668911
v -0.194794 0.437578 -0.721160
v 0.047947 0.406928 -0.610106
v 0.297663 0.389470 -0.603524
v 0.554413 0.383873 -0.497456
v 0.529686 0.399919 -0.197753
v 0.569686 0.555148 0.016092
v 0.533461 0.530771 0.231297
v 0.458774 0.519928 0.450159
v 0.258268 0.552924 0.568129
v 0.030413 0.579355 0.543804
v -0.173214 0.591750 0.632130
v -0.417417 0.581275 0.623149
v -0.510098 0.571742 0.387206
v -0.687366 0.537858 0.240969
v -0.746979 0.571107 0.016092
v -0.634032 0.595316 -0.189559
v -0.530418 0.592752 -0.371909
v -0.419443 0.574155 -0.594440
v -0.176822 0.585672 -0.620214
v 0.035036 0.558467 -0.537583
v 0.261188 0.546647 -0.540954
v 0.473318 0.541810 -0.430062
v 0.453997 0.548607 -0.170468
v 0.476407 0.714651 0.016092
v 0.464945 0.702779 0.206599
v 0.394175 0.694728 0.396474
v 0.210217 0.721723 0.485701
v 0.018718 0.732577 0.478112
v -0.160599 0.743125 0.561272
v -0.366036 0.741047 0.535008
v -0.449206 0.740685 0.336601
v -0.618208 0.711314 0.216038
v -0.653567 0.736995 0.016092
v -0.550887 0.762744 -0.159587
v -0.477612 0.766227 -0.328024
v -0.374488 0.753898 -0.517323
v -0.159895 0.747693 -0.525135
v 0.023050 0.729728 -0.470262
v 0.223218 0.722151 -0.475819
v 0.394525 0.717982 -0.364581
v 0.384982 0.716311 -0.145590
v 0.443644 0.861286 0.016092
v 0.451294 0.851961 0.201678
v 0.373537 0.846512 0.379323
v 0.191955 0.869826 0.454374
v 0.015973 0.878184 0.462696
v -0.157283 0.888201 0.542647
v -0.346158 0.887909 0.500908
v -0.431572 0.890292 0.321947
v -0.603475 0.861580 0.210728
v -0.618935 0.885641 0.016092
v -0.522573 0.910271 -0.149380
v -0.467246 0.915190 -0.319410
v -0.359543 0.905733 -0.491686
v -0.153553 0.895260 -0.489513
v 0.020382 0.879793 -0.455278
v 0.212669 0.873602 -0.457722
v 0.364009 0.871146 -0.339220
v 0.366001 0.865867 -0.138748
v 0.415733 0.986393 0.016092
v 0.438458 0.978912 0.197050
v 0.351022 0.976204 0.360612
v 0.175489 0.994911 0.426126
v 0.013697 1.002281 0.449910
v -0.153523 1.011158 0.521530
v -0.327137 1.013171 0.468279
v -0.417280 1.017605 0.310069
v -0.587110 0.990180 0.204829
v -0.583758 1.012520 0.016092
v -0.498771 1.035498 -0.140800
v -0.457078 1.041852 -0.310960
v -0.343461 1.034665 -0.464098
v -0.147920 1.021282 -0.457874
v 0.018119 1.007629 -0.442565
v 0.200786 1.003540 -0.437338
v 0.335254 1.002051 -0.315324
v 0.350650 0.993249 -0.133214
v 0.380718 1.119073 0.016092
v 0.412586 1.113657 0.187724
v 0.317034 1.113622 0.332366
v 0.155261 1.126026 0.391427
v 0.009742 1.132527 0.427693
v -0.147106 1.140006 0.485483
v -0.303126 1.146093 0.427089
v -0.396777 1.152768 0.293030
v -0.555415 1.128677 0.193403
v -0.536556 1.147608 0.016092
v -0.468420 1.167592 -0.129859
v -0.436331 1.175711 -0.293718
v -0.319849 1.169988 -0.423593
v -0.141002 1.155321 -0.419012
v 0.013987 1.144449 -0.419352
v 0.181172 1.143302 -0.403692
v 0.299341 1.141357 -0.285478
v 0.327621 1.128794 -0.124912
v 0.360762 1.277028 0.016092
v 0.396837 1.272207 0.182047
v 0.291915 1.273375 0.311490
v 0.142603 1.282335 0.369713
v 0.007616 1.289011 0.415753
v -0.142388 1.295427 0.458986
v -0.286901 1.304246 0.399257
v -0.386108 1.311692 0.284164
v -0.533231 1.290380 0.185406
v -0.502875 1.307479 0.016092
v -0.451537 1.324926 -0.123773
v -0.423259 1.333550 -0.282854
v -0.302465 1.328061 -0.393773
v -0.136770 1.314234 -0.395247
v 0.011705 1.304424 -0.406538
v 0.166683 1.305964 -0.378837
v 0.275499 1.303213 -0.265665
v 0.315678 1.287996 -0.120607
v 0.380385 1.436911 0.016092
v 0.418503 1.431183 0.189857
v 0.296345 1.433094 0.315172
v 0.149336 1.443147 0.381263
v 0.011521 1.451620 0.437690
v -0.144002 1.456165 0.468049
v -0.291253 1.464107 0.406722
v -0.404159 1.469876 0.299165
v -0.548334 1.447735 0.190850
v -0.507990 1.467113 0.016092
v -0.470599 1.485505 -0.130645
v -0.439187 1.493509 -0.296091
v -0.305177 1.488063 -0.398424
v -0.139433 1.473502 -0.410203
v 0.015724 1.460715 -0.429114
v 0.170810 1.464585 -0.385917
v 0.283139 1.461921 -0.272014
v 0.337082 1.445616 -0.128323
v 0.423681 1.573621 0.016092
v 0.460030 1.564121 0.204827
v 0.315973 1.567613 0.331484
v 0.167551 1.581250 0.412510
v 0.018798 1.593512 0.478561
v -0.148793 1.594921 0.494961
v -0.307385 1.599966 0.434396
v -0.438975 1.602528 0.328099
v -0.582288 1.578012 0.203090
v -0.534269 1.601616 0.016092
v -0.511126 1.622916 -0.145254
v -0.470321 1.627861 -0.321965
v -0.318331 1.623936 -0.420989
v -0.146199 1.608447 -0.448205
v 0.023219 1.590462 -0.471211
v 0.184313 1.596137 -0.409079
v 0.308994 1.593602 -0.293500
v 0.377762 1.577779 -0.142987
v 0.532866 1.702911 0.016092
v 0.564533 1.675454 0.242498
v 0.381518 1.682905 0.385955
v 0.217180 1.707107 0.497644
v 0.036365 1.733306 0.577234
v -0.163613 1.731633 0.578200
v -0.355981 1.726246 0.517759
v -0.522699 1.719900 0.397678
v -0.676983 1.688453 0.237226
v -0.620736 1.723456 0.016092
v -0.611862 1.746508 -0.181567
v -0.549996 1.736428 -0.388179
v -0.362631 1.742866 -0.496983
v -0.164214 1.733858 -0.549395
v 0.041442 1.704988 -0.573568
v 0.227121 1.706630 -0.482514
v 0.384826 1.705413 -0.356521
v 0.475344 1.697078 -0.178163
v 0.833452 1.849777 0.016092
v 0.855162 1.828008 0.347263
v 0.578766 1.817424 0.549878
v 0.357111 1.843563 0.737687
v 0.084351 1.880478 0.846766
v -0.207509 1.913083 0.824758
v -0.497189 1.879139 0.759993
v -0.750221 1.852069 0.586760
v -0.949720 1.815541 0.335542
v -0.878598 1.855834 0.016092
v -0.887977 1.841228 -0.281101
v -0.772987 1.828604 -0.573496
v -0.496066 1.847576 -0.725882
v -0.214652 1.875913 -0.832698
v 0.091394 1.864632 -0.854142
v 0.354647 1.820256 -0.701276
v 0.603453 1.820392 -0.538211
v 0.740529 1.853166 -0.273757
v 1.219071 2.057057 0.016092
v 1.207817 2.021969 0.474388
v 0.823058 2.020180 0.752897
v 0.538224 2.006186 1.048375
v 0.143493 2.028004 1.178959
v -0.260841 2.054069 1.124317
v -0.679558 2.018254 1.072833
v -1.036015 2.013470 0.824269
v -1.278328 1.999086 0.453998
v -1.206955 1.997231 0.016092
v -1.240908 2.011336 -0.408325
v -1.042803 1.975137 -0.797726
v -0.662301 2.036256 -1.011047
v -0.279846 2.072562 -1.198887
v 0.152679 2.044105 -1.198372
v 0.510227 1.988282 -0.968164
v 0.886299 1.991385 -0.773269
v 1.071988 2.044168 -0.393241
v 1.513126 2.208911 0.016092
v 1.446050 2.199903 0.560266
v 0.998730 2.186963 0.898889
v 0.679375 2.132476 1.290510
v 0.184789 2.156102 1.410913
v -0.297440 2.174969 1.329889
v -0.821786 2.138220 1.316817
v -1.244021 2.163706 0.997132
v -1.498114 2.168736 0.533226
v -1.456995 2.186390 0.016092
v -1.507827 2.161124 -0.504543
v -1.224064 2.152721 -0.948363
v -0.783411 2.167384 -1.218803
v -0.330461 2.198313 -1.483180
v 0.195052 2.164366 -1.436374
v 0.618150 2.152291 -1.153298
v 1.107359 2.178320 -0.956981
v 1.310634 2.191303 -0.479267
v 1.731464 2.306580 0.016092
v 1.598437 2.327734 0.615198
v 1.129646 2.338131 1.007687
v -0.368711 2.297622 -1.698027
v 0.211996 2.275846 1.563730
v -0.322901 2.302439 1.472904
v -0.934299 2.264797 1.509825
v -1.687940 2.305963 -0.569470
v -1.698560 2.320015 -0.517118
v -1.653590 2.334580 0.016092
v 1.008019 0.000000 0.056140
v -1.339842 2.306076 -1.044580
v -0.875023 2.295552 -1.375957
v -1.355274 2.261203 1.089589
v -1.325402 2.286646 1.171480
v 0.694632 2.282779 -1.284498
v 1.281671 2.330277 -1.101843
v 1.473841 2.306643 -0.538100
v 1.761088 2.435108 0.016092
v 1.576961 2.460885 0.607456
v 1.149154 2.469489 1.023899
v -0.372899 2.299092 -1.698939
v 0.209699 2.406469 1.550826
v -0.323567 2.433735 1.476643
v -0.961898 2.399492 1.557170
v -1.667085 2.317197 -0.622013
v -1.576147 2.444878 -0.749265
v -1.713195 2.458034 -0.291385
v 0.857541 0.000000 0.348121
v -1.323266 2.435028 -1.030805
v -0.890995 2.425225 -1.403357
v -1.538000 2.207227 0.547604
v -1.650820 2.328170 0.150621
v 0.699234 2.413766 -1.292394
v -1.293447 2.416266 1.217694
v 1.471635 2.437826 -0.537305
v 1.776942 2.589861 0.016092
v 1.554500 2.618229 0.599360
v 0.211564 2.231393 -1.529121
v 0.472532 2.279819 -1.428981
v 0.206183 2.562147 1.531080
v -0.325865 2.590689 1.489548
v -0.987484 2.559712 1.601061
v -1.488802 2.596162 -0.834404
v -1.649180 2.811568 -0.039673
v -1.723058 2.537457 -0.156848
v 0.700943 0.000000 0.651414
v -1.307284 2.588283 -1.017523
v -0.911231 2.577554 -1.438071
v -1.682816 2.416774 0.016092
v -1.703759 2.463668 -0.067482
v -1.256743 2.571506 1.268208
v 0.509939 0.000000 0.898447
v 1.459390 2.594664 -0.532891
v 1.647593 2.764632 0.016092
v 1.421130 2.772008 0.551283
v 0.721431 2.186154 1.362654
v -0.461645 2.431137 -1.687083
v 0.183138 2.732486 1.401638
v -0.310879 2.747785 1.405374
v -0.941849 2.713888 1.522777
v -1.274924 2.738874 1.022814
v -1.480263 2.744161 -0.670296
v -1.484251 2.868864 -0.496045
v -0.723076 0.000000 0.834548
v -1.207115 2.722863 -0.934278
v -0.872486 2.743864 -1.371606
v -1.311679 2.683709 1.053359
v -1.389614 2.741966 0.789348
v -0.823640 0.000000 0.647774
v -1.468155 2.802798 0.522426
v 1.332579 2.765325 -0.487178
v 1.011587 2.315217 1.170503
v 0.393272 2.274621 1.536767
v 1.103654 2.460461 1.090313
v 0.340101 2.405602 1.543481
v 1.164562 2.559579 1.036704
v 1.221276 2.623374 0.992038
v -0.888088 2.848547 1.430553
v -1.164446 2.877930 0.931002
v -1.411819 2.875323 0.502118
v -1.589520 2.918164 0.016092
v -1.481024 2.871738 -0.494881
v -1.113329 2.840060 -0.856337
v -0.831278 2.881711 -1.300916
v -1.624318 2.863402 0.016092
v 0.168965 2.898845 -1.289849
v 0.626223 2.866889 -1.167147
v -0.968235 0.000000 0.342216
v 1.204300 2.909489 -0.440936
v 0.307398 2.561481 1.533730
v 0.441034 2.727114 1.425662
v 1.145204 2.707818 1.020617
v 0.484313 2.773465 1.392007
v 1.094300 2.765301 1.039561
v 0.907259 2.430713 -1.240455
v 1.334667 2.462586 -1.091111
v -0.549620 2.586801 -1.667673
v -1.014769 2.969193 0.358990
v -1.146873 2.984431 0.016092
v -1.035747 2.991771 -0.334369
v -0.794219 2.980806 -0.591140
v -0.611864 3.021849 -0.924525
v -0.254943 3.042423 -1.059004
v 0.096372 3.020229 -0.882102
v 0.428651 2.969517 -0.828226
v 0.822034 2.973385 -0.719862
v 0.702210 2.462664 -1.297498
v 1.382393 2.616245 -1.028034
v -0.480388 2.746647 -1.595664
v 1.294518 2.776805 -1.007078
v -0.382962 2.899462 -1.516627
v 0.181159 2.815945 -1.358337
v -0.121862 2.900167 -1.431195
v 0.656223 2.766402 -1.218610
v 0.882368 2.884920 -1.108166
v 1.201204 2.907485 -0.997134
v -0.332732 2.913364 -1.495936
v 1.166965 2.913279 -1.006517
v -1.097795 0.000000 0.016092
v -1.032757 0.000000 -0.333291
v -0.775184 0.000000 -0.575321
v -0.625102 0.000000 -0.838068
v 0.160355 0.000000 -0.872396
v 0.399469 0.000000 -0.778165
v 0.785664 0.000000 -0.689637
v 1.123583 2.767396 1.002648
v 1.236187 2.780218 0.822447
v 0.617764 2.412849 -1.340458
v 1.569843 2.852111 0.016092
v 1.389492 2.802309 0.539878
v 1.303729 2.401237 -1.120174
v 0.172249 2.806495 1.340474
v -0.300944 2.845721 1.349575
v -0.606197 2.867953 1.380142
v 1.299898 2.914001 -0.296208
v -0.820903 2.894335 1.315302
v -0.889768 2.976443 0.702730
v -0.874192 2.993027 0.558797
v 1.061086 2.945956 -0.389311
v 0.814888 2.987972 -0.558192
v -0.843348 3.022952 0.297197
v -0.852512 3.058718 0.016092
v -0.725470 3.077577 -0.222520
v -0.541571 3.081637 -0.381178
v -0.426937 3.100000 -0.607295
v -0.200129 3.098555 -0.751124
v 0.063342 3.069294 -0.696579
v 0.316226 3.040108 -0.635368
v 0.720919 3.005649 -0.635831
v 0.817322 0.000000 -0.323296
vn -0.0000 -1.0000 -0.0000
vn 0.6736 0.6521 0.3478
vn 0.6137 0.5970 0.5167
vn -0.0855 0.5463 0.8332
vn 0.1354 0.5641 0.8146
vn 0.0985 0.4928 0.8646
vn -0.7575 0.5456 0.3585
vn -0.8095 0.4912 0.3216
vn -0.8443 0.5123 -0.1572
vn -0.5454 0.6046 -0.5805
vn -0.7673 0.4991 -0.4025
vn -0.4098 0.5495 -0.7281
vn 0.3798 0.5753 -0.7244
vn -0.0869 0.5488 0.8314
vn 0.1890 0.5330 -0.8247
vn 0.7867 0.6167 -0.0293
vn 0.6607 0.6124 -0.4341
vn 0.5906 0.7332 0.3370
vn 0.6414 0.7263 0.2470
vn 0.5226 0.7445 0.4155
vn -0.0442 0.7412 0.6698
vn 0.2028 0.6539 0.7289
vn 0.0406 0.6948 0.7180
vn -0.6779 0.6786 0.2830
vn -0.6557 0.6746 0.3391
vn -0.6909 0.6486 0.3192
vn -0.7123 0.6687 -0.2133
vn -0.5258 0.6739 -0.5190
vn -0.6788 0.6493 -0.3431
vn -0.3117 0.7123 -0.6288
vn 0.3658 0.6819 -0.6334
vn 0.2196 0.6267 -0.7477
vn 0.1883 0.6900 -0.6989
vn 0.7299 0.6825 -0.0372
vn 0.5770 0.7163 -0.3924
vn 0.9048 0.2307 0.3579
vn 0.9199 0.1702 0.3533
vn 0.6656 0.1778 0.7248
vn -0.1133 0.2971 0.9481
vn 0.2827 0.2712 0.9201
vn 0.0865 0.2795 0.9562
vn -0.8919 0.2719 0.3613
vn -0.7762 0.1569 0.6107
vn -0.9157 0.1650 0.3665
vn -0.9071 0.2340 -0.3499
vn -0.7175 0.3287 -0.6142
vn -0.8765 0.1643 -0.4526
vn -0.2968 0.1891 -0.9360
vn 0.4512 0.3011 -0.8401
vn 0.1037 0.1323 -0.9858
vn 0.3022 0.2949 -0.9065
vn 0.9648 0.2581 0.0495
vn 0.7766 0.3258 -0.5391
vn 0.8497 0.4362 0.2962
vn 0.8422 0.4495 0.2978
vn 0.5610 0.4660 0.6842
vn -0.0569 0.4778 0.8766
vn 0.3440 0.3978 0.8505
vn 0.0024 0.5291 0.8486
vn -0.8242 0.4838 0.2942
vn -0.6848 0.3994 0.6096
vn -0.8387 0.4246 0.3410
vn -0.7999 0.4833 -0.3558
vn -0.7020 0.4941 -0.5129
vn -0.8097 0.4093 -0.4205
vn -0.2123 0.4537 -0.8655
vn 0.4147 0.4776 -0.7745
vn 0.0509 0.3796 -0.9238
vn 0.3377 0.5108 -0.7906
vn 0.8970 0.4390 0.0505
vn 0.7145 0.4959 -0.4936
vn 0.9011 0.3870 0.1955
vn 0.8558 0.4122 0.3125
vn 0.5106 0.4193 0.7506
vn -0.0468 0.4275 0.9028
vn 0.3892 0.3637 0.8463
vn -0.0531 0.4954 0.8670
vn -0.8406 0.4426 0.3123
vn -0.6348 0.3520 0.6879
vn -0.8741 0.3901 0.2894
vn -0.8031 0.4522 -0.3879
vn -0.7687 0.4611 -0.4433
vn -0.8105 0.3901 -0.4368
vn -0.1156 0.4159 -0.9020
vn 0.3748 0.4398 -0.8162
vn 0.0043 0.3487 -0.9372
vn 0.4163 0.4745 -0.7756
vn 0.9192 0.3895 0.0582
vn 0.7554 0.4418 -0.4839
vn 0.9935 0.0931 0.0656
vn 0.9219 0.1650 0.3506
vn 0.4497 0.1604 0.8786
vn -0.0272 0.2037 0.9787
vn 0.4235 0.1033 0.9000
vn -0.1255 0.2405 0.9625
vn -0.9019 0.2098 0.3777
vn -0.5885 0.0861 0.8039
vn -0.9772 0.1024 0.1860
vn -0.8584 0.2000 -0.4724
vn -0.9000 0.1995 -0.3874
vn -0.8614 0.1658 -0.4801
vn -0.0310 0.1694 -0.9851
vn 0.2949 0.1001 -0.9503
vn -0.0231 0.1170 -0.9929
vn 0.5327 0.2405 -0.8114
vn 0.9811 0.1882 0.0442
vn 0.8553 0.1911 -0.4817
vn 0.9944 0.0992 -0.0360
vn 0.8928 0.2123 0.3973
vn 0.3960 0.1981 0.8966
vn 0.0568 0.2270 0.9722
vn 0.4215 0.1410 0.8958
vn -0.2078 0.2760 0.9384
vn -0.8743 0.2423 0.4205
vn -0.5527 0.1082 0.8263
vn -0.9870 0.1299 0.0945
vn -0.8545 0.2369 -0.4623
vn -0.9338 0.1979 -0.2981
vn -0.8227 0.2152 -0.5261
vn 0.0208 0.2067 -0.9782
vn 0.2007 0.1005 -0.9745
vn -0.0076 0.1543 -0.9880
vn 0.5965 0.2691 -0.7562
vn 0.9766 0.2152 -0.0040
vn 0.8789 0.1961 -0.4349
vn 0.9770 0.1796 -0.1153
vn 0.8631 0.1979 0.4647
vn 0.3618 0.2727 0.8915
vn 0.1521 0.2747 0.9494
vn 0.3935 0.2295 0.8902
vn -0.2734 0.3294 0.9037
vn -0.8259 0.2976 0.4789
vn -0.5391 0.1911 0.8203
vn -0.9746 0.2238 0.0092
vn -0.8566 0.2993 -0.4202
vn -0.9573 0.1777 -0.2279
vn -0.7580 0.3049 -0.5767
vn 0.0496 0.2784 -0.9592
vn 0.1043 0.1694 -0.9800
vn 0.0331 0.2383 -0.9706
vn 0.6397 0.3151 -0.7011
vn 0.9624 0.2628 -0.0687
vn 0.8947 0.2361 -0.3792
vn 0.9796 0.0909 -0.1790
vn 0.8300 0.1021 0.5483
vn 0.3495 0.1752 0.9204
vn 0.2454 0.1529 0.9573
vn 0.3481 0.1473 0.9258
vn -0.3398 0.1681 0.9254
vn -0.8017 0.1824 0.5692
vn -0.5408 0.1154 0.8332
vn -0.9872 0.1309 -0.0910
vn -0.8994 0.1895 -0.3939
vn -0.9762 0.1119 -0.1856
vn -0.7243 0.2039 -0.6586
vn 0.0374 0.1468 -0.9885
vn 0.0034 0.0799 -0.9968
vn 0.0932 0.1585 -0.9830
vn 0.6963 0.1874 -0.6929
vn 0.9828 0.0782 -0.1670
vn 0.9320 0.1177 -0.3428
vn 0.9695 -0.1190 -0.2142
vn 0.7762 -0.0360 0.6295
vn 0.3615 -0.0315 0.9318
vn 0.3181 -0.0812 0.9446
vn 0.2691 -0.1351 0.9536
vn -0.3843 -0.0558 0.9215
vn -0.7581 -0.0510 0.6502
vn -0.5473 -0.0814 0.8329
vn -0.9789 -0.0876 -0.1844
vn -0.9371 -0.0300 -0.3477
vn -0.9758 -0.1236 -0.1802
vn -0.6768 -0.0328 -0.7354
vn -0.0167 -0.0938 -0.9955
vn -0.0843 -0.1403 -0.9865
vn 0.1755 -0.1452 -0.9737
vn 0.7187 -0.0623 -0.6925
vn 0.9499 -0.1426 -0.2781
vn 0.9405 -0.1154 -0.3195
vn 0.9312 -0.2949 -0.2140
vn 0.7022 -0.1858 0.6873
vn 0.3947 -0.1672 0.9035
vn 0.3536 -0.2506 0.9012
vn 0.1760 -0.2808 0.9435
vn -0.3862 -0.1885 0.9029
vn -0.6783 -0.2232 0.7001
vn -0.5395 -0.3122 0.7820
vn -0.9441 -0.2233 -0.2427
vn -0.9465 -0.1849 -0.2644
vn -0.9356 -0.2963 -0.1920
vn -0.6010 -0.1872 -0.7770
vn -0.0921 -0.2742 -0.9573
vn -0.1397 -0.2983 -0.9442
vn 0.2622 -0.3115 -0.9134
vn 0.6872 -0.2464 -0.6834
vn 0.8777 -0.3107 -0.3648
vn 0.9051 -0.3108 -0.2901
vn 0.7520 -0.6350 -0.1768
vn 0.5256 -0.5889 0.6140
vn 0.3336 -0.6149 0.7146
vn 0.2786 -0.6111 0.7409
vn 0.0744 -0.5813 0.8103
vn -0.3195 -0.5178 0.7936
vn -0.5088 -0.6020 0.6154
vn -0.4225 -0.6659 0.6149
vn -0.7848 -0.5570 -0.2718
vn -0.8007 -0.5682 -0.1899
vn -0.7336 -0.6531 -0.1877
vn -0.4499 -0.5938 -0.6670
vn -0.1761 -0.6333 -0.7536
vn -0.1697 -0.6416 -0.7481
vn 0.3047 -0.6063 -0.7346
vn 0.5366 -0.6013 -0.5920
vn 0.6622 -0.6510 -0.3710
vn 0.7206 -0.6558 -0.2251
vn 0.4328 -0.8857 -0.1679
vn 0.2723 -0.8783 0.3930
vn 0.1532 -0.8948 0.4193
vn 0.0742 -0.8849 0.4598
vn 0.0096 -0.8046 0.5938
vn -0.1556 -0.8086 0.5674
vn -0.2575 -0.8778 0.4039
vn -0.2095 -0.9017 0.3782
vn -0.4423 -0.8616 -0.2489
vn -0.4532 -0.8828 -0.1233
vn -0.3092 -0.9499 -0.0462
vn -0.1606 -0.9296 -0.3316
vn -0.1519 -0.8941 -0.4213
vn -0.1742 -0.8923 -0.4164
vn 0.1870 -0.9121 -0.3648
vn 0.2531 -0.9110 -0.3256
vn 0.3173 -0.9261 -0.2043
vn 0.4731 -0.8736 -0.1139
vn 0.4716 -0.8774 -0.0886
vn 0.3431 -0.8381 0.4242
vn 0.2996 -0.8307 0.4692
vn 0.0538 -0.8972 0.4383
vn -0.1316 -0.9058 0.4029
vn 0.0104 -0.9040 0.4273
vn -0.1315 -0.9320 0.3378
vn -0.2442 -0.9131 0.3267
vn -0.3875 -0.8999 -0.1998
vn -0.3949 -0.9169 0.0575
vn -0.3968 -0.9105 -0.1167
vn -0.1939 -0.8664 -0.4602
vn -0.1055 -0.8565 -0.5052
vn -0.0650 -0.8839 -0.4631
vn 0.1282 -0.8713 -0.4738
vn 0.2625 -0.8782 -0.3998
vn 0.4402 -0.8901 -0.1178
vn 0.4508 -0.8791 -0.1548
vn 0.4581 -0.8871 -0.0567
vn 0.3551 -0.7989 0.4854
vn 0.4433 -0.8075 0.3891
vn 0.1057 -0.8783 0.4662
vn -0.1216 -0.8649 0.4870
vn 0.0111 -0.8611 0.5084
vn -0.2155 -0.9202 0.3268
vn -0.3905 -0.8739 0.2895
vn -0.6006 -0.7939 -0.0945
vn -0.6032 -0.7973 0.0218
vn -0.5813 -0.7825 -0.2230
vn -0.1268 -0.8705 -0.4755
vn -0.1459 -0.8728 -0.4658
vn -0.0578 -0.8869 -0.4584
vn 0.2385 -0.7917 -0.5624
vn 0.2849 -0.7939 -0.5372
vn 0.4896 -0.8638 -0.1192
vn 0.4807 -0.8647 -0.1455
vn 0.6276 -0.7759 0.0645
vn 0.4189 -0.7408 0.5251
vn 0.6067 0.7236 0.3291
vn 0.4956 0.1574 0.8542
vn -0.1378 -0.7514 0.6452
vn 0.0354 -0.7429 0.6685
vn -0.6895 0.6218 0.3713
vn 0.2084 0.4521 0.8673
vn -0.8914 0.3587 -0.2771
vn -0.2813 -0.8174 -0.5027
vn 0.2977 0.2820 -0.9121
vn -0.6903 0.6217 0.3700
vn 0.1493 0.9836 -0.1015
vn 0.2776 -0.7572 -0.5913
vn 0.5173 -0.8327 -0.1975
vn 0.5222 -0.8327 -0.1839
vn 0.9637 0.1675 0.2081
vn 0.6369 0.1467 0.7568
vn -0.0169 0.9743 -0.2246
vn 0.1472 0.0090 0.9891
vn -0.1621 0.0942 0.9823
vn 0.0620 -0.0281 0.9977
vn -0.9440 0.1236 0.3059
vn -0.9422 -0.3350 0.0034
vn -0.9787 -0.1999 0.0463
vn -0.7904 -0.0459 -0.6109
vn -0.5707 0.1594 -0.8056
vn -0.6908 0.6340 0.3477
vn 0.0045 -0.9910 -0.1338
vn 0.5453 -0.0380 -0.8374
vn -0.5761 0.6548 0.4893
vn 0.9067 0.0178 -0.4215
vn 0.9491 -0.0972 0.2997
vn 0.8350 0.5455 -0.0722
vn -0.5931 0.5565 -0.5819
vn 0.0566 0.0741 0.9956
vn -0.1306 0.1218 0.9839
vn 0.1290 -0.0794 0.9885
vn -0.9411 -0.3346 0.0481
vn -0.6412 -0.7637 0.0749
vn -0.4994 -0.7852 -0.3661
vn 0.6355 0.5985 0.4878
vn -0.7420 0.0523 -0.6683
vn -0.6454 0.1325 -0.7523
vn 0.0895 0.4697 0.8783
vn -0.7156 -0.0573 0.6961
vn 0.5055 -0.1200 -0.8545
vn -0.6017 -0.7983 -0.0256
vn 0.9500 -0.1950 -0.2437
vn 0.8833 0.0820 -0.4616
vn 0.7745 0.5732 0.2675
vn 0.0843 0.9888 0.1231
vn -0.3291 0.6507 -0.6843
vn -0.0169 0.6035 0.7972
vn -0.0300 0.6022 0.7978
vn 0.1320 0.4174 0.8991
vn 0.3225 0.4759 -0.8183
vn -0.6824 0.6451 0.3438
vn -0.7657 0.5464 0.3394
vn -0.4969 0.6930 -0.5224
vn -0.6600 0.4063 -0.6319
vn -0.3927 -0.8279 0.4005
vn -0.5963 -0.7369 0.3186
vn -0.7497 0.4968 -0.4372
vn -0.7241 0.5519 -0.4136
vn 0.8653 0.4884 -0.1133
vn 0.7303 0.5405 -0.4177
vn -0.4942 0.4194 -0.7615
vn 0.4710 0.7832 0.4060
vn -0.6540 -0.1059 0.7491
vn 0.7429 -0.2171 0.6333
vn 0.8190 -0.2156 0.5318
vn -0.1597 0.9541 -0.2534
vn -0.6609 0.5854 0.4695
vn 0.6858 0.6362 0.3534
vn -0.8028 0.5101 0.3087
vn -0.7975 0.5616 -0.2204
vn -0.4544 0.7195 -0.5253
vn -0.7085 0.4780 -0.5192
vn 0.7741 0.6281 -0.0791
vn 0.3425 0.6278 -0.6989
vn 0.2917 0.5036 -0.8132
vn 0.1631 0.4879 -0.8575
vn 0.8113 0.5828 -0.0465
vn -0.4294 0.5104 -0.7451
vn 0.6407 0.7274 0.2456
vn 0.8060 -0.2041 0.5557
vn 0.5382 -0.7956 0.2782
vn 0.0847 -0.7916 0.6052
vn 0.2495 -0.1156 -0.9615
vn 0.0023 0.9289 0.3704
vn 0.7859 0.5247 0.3272
vn 0.9708 0.0178 -0.2393
vn -0.1466 0.9793 0.1399
vn -0.1470 0.9818 -0.1204
vn -0.1660 0.9533 -0.2524
vn -0.3541 0.9250 -0.1380
vn 0.3908 0.6046 -0.6940
vn 0.1858 0.9503 -0.2498
vn 0.1264 0.9674 -0.2192
vn 0.6441 0.6275 -0.4374
vn -0.7299 0.6478 -0.2182
vn -0.5380 -0.2020 -0.8184
vn 0.3628 -0.7579 -0.5422
vn -0.5186 -0.2759 -0.8093
vn -0.2338 -0.8978 -0.3733
vn -0.0002 -0.8105 -0.5858
vn -0.0129 0.6946 0.7193
vn 0.2394 0.6966 0.6764
vn 0.0332 0.6830 0.7297
vn -0.2728 0.9589 0.0775
vn -0.5840 0.7333 0.3481
vn -0.6565 0.6748 0.3373
vn -0.6629 0.7088 -0.2410
vn -0.5902 0.6279 -0.5074
vn -0.6866 0.6210 -0.3780
vn -0.2527 0.7649 -0.5925
vn 0.3787 0.7042 -0.6005
vn 0.1196 0.7309 -0.6720
vn 0.6846 0.7289 0.0001
vn 0.5469 0.7357 -0.3996
vn 0.6649 0.5418 0.5141
vn 0.2541 0.6308 -0.7332
vn 0.0689 0.9563 -0.2843
vn 0.1845 0.9528 -0.2412
vn 0.1643 0.9648 -0.2051
vn -0.1161 0.9806 -0.1581
vn -0.3104 0.9491 -0.0529
vn -0.1869 0.9582 -0.2167
vn -0.2443 0.9680 -0.0572
vn -0.2424 0.9606 0.1361
vn 0.2449 0.9665 -0.0764
vn 0.2195 0.9725 -0.0780
vn -0.6608 0.7148 0.2291
vn -0.2106 0.9760 0.0560
vn -0.2792 0.9371 0.2096
vn 0.1905 0.9692 -0.1561
vn 0.2540 -0.3152 -0.9144
vn 0.1138 0.5301 0.8403
vn 0.0256 0.6391 0.7687
vn -0.0589 0.6308 0.7737
vn 0.7145 0.6350 0.2936
vn 0.6647 0.5907 -0.4574
vn 0.7194 0.4773 0.5047
vn 0.5709 0.7343 0.3672
vn 0.2273 0.4668 -0.8546
vn 0.6965 0.4267 0.5768
vn 0.8812 0.3697 0.2947
vn 0.9187 0.2308 0.3205
vn 0.5796 0.3601 0.7310
vn -0.1029 0.2630 0.9593
vn 0.3544 0.1236 0.9269
vn 0.0348 0.1407 0.9894
vn -0.8882 0.3191 0.3305
vn -0.6963 0.3357 0.6344
vn -0.9112 0.2351 0.3382
vn -0.8527 0.3477 -0.3898
vn -0.7958 0.1970 -0.5726
vn -0.8775 0.1925 -0.4392
vn -0.2120 0.3730 -0.9033
vn 0.4287 0.2519 -0.8676
vn 0.0436 0.2596 -0.9647
vn 0.3805 0.1436 -0.9135
vn 0.9543 0.2922 0.0631
vn 0.7880 0.3075 -0.5334
vn 0.8051 0.5588 0.1988
vn 0.8448 0.4362 0.3099
vn 0.4897 0.5465 0.6794
vn -0.0422 0.4549 0.8895
vn 0.3781 0.4516 0.8082
vn -0.0522 0.4532 0.8899
vn -0.8263 0.4733 0.3054
vn -0.6078 0.4930 0.6225
vn -0.8190 0.4949 0.2903
vn -0.7789 0.5078 -0.3680
vn -0.7974 0.3921 -0.4586
vn -0.8104 0.3904 -0.4368
vn -0.1135 0.5690 -0.8145
vn 0.3757 0.4259 -0.8231
vn 0.0092 0.4323 -0.9017
vn 0.4283 0.4183 -0.8010
vn 0.8939 0.4450 0.0549
vn 0.7443 0.4666 -0.4779
vn 0.8602 0.5031 0.0831
vn 0.8574 0.3898 0.3361
vn 0.4373 0.4921 0.7527
vn -0.0142 0.3931 0.9194
vn 0.4067 0.3860 0.8280
vn -0.1188 0.4291 0.8954
vn -0.8419 0.4089 0.3522
vn -0.5746 0.4179 0.7037
vn -0.8515 0.4795 0.2122
vn -0.7926 0.4643 -0.3952
vn -0.8601 0.3546 -0.3668
vn -0.8080 0.3633 -0.4638
vn -0.0167 0.5073 -0.8616
vn 0.3001 0.3671 -0.8804
vn -0.0120 0.3651 -0.9309
vn 0.5072 0.3942 -0.7664
vn 0.9261 0.3747 0.0432
vn 0.8010 0.3962 -0.4489
vn 0.9755 0.2180 -0.0293
vn 0.9107 0.0966 0.4016
vn 0.3969 0.2365 0.8869
vn 0.0520 0.1061 0.9930
vn 0.4217 0.1060 0.9005
vn -0.2142 0.1292 0.9682
vn -0.8919 0.1470 0.4276
vn -0.5545 0.1456 0.8194
vn -0.9685 0.2257 0.1048
vn -0.8596 0.1976 -0.4712
vn -0.9483 0.0837 -0.3062
vn -0.8423 0.0894 -0.5315
vn 0.0221 0.2337 -0.9721
vn 0.2072 0.2211 -0.9530
vn -0.0095 0.0992 -0.9950
vn 0.6122 0.1357 -0.7790
vn 0.9920 0.1262 -0.0065
vn 0.8876 0.1328 -0.4411
vn 0.9698 0.2164 -0.1128
vn 0.8762 0.1057 0.4702
vn 0.3618 0.2504 0.8980
vn 0.1493 0.1040 0.9833
vn 0.3962 0.1013 0.9126
vn -0.2871 0.1707 0.9426
vn -0.8583 0.1423 0.4930
vn -0.5377 0.1380 0.8318
vn -0.9635 0.2671 0.0145
vn -0.8739 0.1966 -0.4446
vn -0.9678 0.0933 -0.2337
vn -0.7964 0.1037 -0.5958
vn 0.0474 0.2412 -0.9693
vn 0.1085 0.2375 -0.9653
vn 0.0307 0.0994 -0.9946
vn 0.6627 0.1748 -0.7282
vn 0.9894 0.1226 -0.0777
vn 0.9114 0.1268 -0.3915
vn 0.9530 0.2515 -0.1690
vn 0.7947 0.3045 0.5251
vn 0.3478 0.2896 0.8917
vn 0.2454 0.1702 0.9543
vn 0.3479 0.1679 0.9224
vn -0.3283 0.2696 0.9053
vn -0.7998 0.1930 0.5684
vn -0.5427 0.1856 0.8192
vn -0.9420 0.3292 -0.0650
vn -0.8924 0.2369 -0.3842
vn -0.9562 0.2342 -0.1756
vn -0.7255 0.1974 -0.6593
vn 0.0472 0.2759 -0.9600
vn 0.0174 0.2776 -0.9605
vn 0.0931 0.1693 -0.9812
vn 0.6851 0.2600 -0.6805
vn 0.9719 0.1748 -0.1575
vn 0.9249 0.1777 -0.3360
vn 0.9705 0.1226 -0.2074
vn 0.7620 0.2003 0.6158
vn 0.3670 0.1571 0.9169
vn 0.3252 0.0763 0.9425
vn 0.2791 0.0768 0.9572
vn -0.3641 0.1975 0.9102
vn -0.7518 0.0869 0.6536
vn -0.5637 0.0837 0.8217
vn -0.9670 0.2037 -0.1528
vn -0.9372 0.1133 -0.3299
vn -0.9812 0.0929 -0.1694
vn -0.6699 0.1061 -0.7348
vn 0.0067 0.1847 -0.9828
vn -0.0652 0.1493 -0.9866
vn 0.1746 0.0811 -0.9813
vn 0.7127 0.1676 -0.6812
vn 0.9540 0.1707 -0.2463
vn 0.9486 0.0794 -0.3065
vn 0.9687 -0.1214 -0.2165
vn 0.7089 -0.1307 0.6931
vn 0.4040 -0.0823 0.9111
vn 0.3685 -0.1330 0.9201
vn 0.1898 -0.0534 0.9804
vn -0.3864 -0.0535 0.9208
vn -0.6863 -0.1459 0.7126
vn -0.5805 -0.1423 0.8017
vn -0.9731 -0.0312 -0.2281
vn -0.9576 -0.1248 -0.2597
vn -0.9752 -0.1129 -0.1906
vn -0.6053 -0.1253 -0.7860
vn -0.0735 -0.0302 -0.9968
vn -0.1281 -0.0948 -0.9872
vn 0.2691 -0.0499 -0.9618
vn 0.7105 -0.0498 -0.7019
vn 0.9323 -0.0591 -0.3567
vn 0.9457 -0.1427 -0.2922
vn 0.9422 -0.2723 -0.1952
vn 0.6304 -0.2785 0.7246
vn 0.4456 -0.2531 0.8587
vn 0.3712 -0.2745 0.8870
vn 0.0941 -0.1864 0.9779
vn -0.3537 -0.2268 0.9074
vn -0.5996 -0.3176 0.7346
vn -0.6167 -0.2314 0.7524
vn -0.9460 -0.1848 -0.2663
vn -0.9394 -0.2955 -0.1738
vn -0.9390 -0.2608 -0.2241
vn -0.5295 -0.2771 -0.8018
vn -0.1692 -0.1774 -0.9695
vn -0.1580 -0.2750 -0.9484
vn 0.3588 -0.1975 -0.9123
vn 0.6646 -0.1952 -0.7212
vn 0.8730 -0.2406 -0.4242
vn 0.9173 -0.2905 -0.2724
vn 0.7469 -0.6395 -0.1820
vn 0.4582 -0.6391 0.6177
vn 0.4036 -0.5683 0.7170
vn 0.2569 -0.5786 0.7741
vn 0.0085 -0.5194 0.8545
vn -0.2255 -0.5957 0.7709
vn -0.4195 -0.6653 0.6176
vn -0.5027 -0.6179 0.6045
vn -0.7693 -0.5712 -0.2861
vn -0.7545 -0.6471 -0.1093
vn -0.7337 -0.6530 -0.1878
vn -0.3585 -0.6636 -0.6566
vn -0.2320 -0.5836 -0.7781
vn -0.1774 -0.6333 -0.7533
vn 0.3367 -0.6567 -0.6748
vn 0.4695 -0.6532 -0.5940
vn 0.6612 -0.6548 -0.3662
vn 0.7482 -0.6318 -0.2026
vn 0.4879 -0.8683 -0.0891
vn 0.3160 -0.8668 0.3857
vn 0.2499 -0.8741 0.4166
vn 0.0683 -0.8807 0.4687
vn -0.1332 -0.8597 0.4931
vn -0.0180 -0.8502 0.5261
vn -0.1824 -0.8953 0.4063
vn -0.2860 -0.8895 0.3564
vn -0.4748 -0.8538 -0.2134
vn -0.3422 -0.9379 0.0569
vn -0.3195 -0.9438 -0.0849
vn -0.1158 -0.9378 -0.3272
vn -0.0549 -0.9197 -0.3887
vn -0.0670 -0.8620 -0.5024
vn 0.1278 -0.8716 -0.4732
vn 0.2138 -0.9210 -0.3255
vn 0.4665 -0.8744 -0.1335
vn 0.4341 -0.8884 -0.1495
vn 0.4961 -0.8666 -0.0542
vn 0.3129 -0.8485 0.4268
vn 0.3325 -0.9012 0.2779
vn 0.0793 -0.9162 0.3928
vn -0.1148 -0.9001 0.4202
vn 0.0261 -0.9077 0.4189
vn -0.2280 -0.9107 0.3445
vn -0.3863 -0.8767 0.2868
vn -0.5077 -0.8579 -0.0791
vn -0.4356 -0.9001 0.0049
vn -0.3969 -0.9103 -0.1173
vn -0.1090 -0.8871 -0.4486
vn -0.1370 -0.8827 -0.4496
vn -0.0574 -0.8810 -0.4696
vn 0.1430 -0.8878 -0.4374
vn 0.2121 -0.8939 -0.3950
vn 0.4674 -0.8776 -0.1065
vn 0.4687 -0.8720 -0.1410
vn 0.5837 -0.8098 0.0585
vn 0.3978 -0.7719 0.4959
vn 0.4170 -0.8826 0.2172
vn 0.0624 -0.8994 0.4327
vn -0.1170 -0.8604 0.4960
vn 0.0504 -0.8843 0.4642
vn -0.3278 -0.8720 0.3634
vn -0.5224 -0.8063 0.2774
vn -0.6263 -0.7758 -0.0763
vn -0.5122 -0.8540 0.0915
vn -0.4065 -0.8807 -0.2432
vn -0.3092 -0.7787 -0.5460
vn -0.1571 -0.9132 -0.3760
vn -0.0235 -0.9158 -0.4009
vn 0.2440 -0.8823 -0.4024
vn 0.2533 -0.8137 -0.5232
vn 0.5287 -0.8243 -0.2026
vn 0.4534 -0.8779 -0.1541
vn 0.4053 -0.9060 0.1220
vn 0.4259 -0.7346 0.5281
vn 0.4956 0.1574 0.8541
vn -0.1444 -0.7662 0.6261
vn 0.0849 -0.8098 0.5806
vn -0.7502 0.5179 0.4110
vn -0.7632 0.5533 0.3336
vn -0.4304 -0.6900 -0.5819
vn 0.2976 0.2819 -0.9121
vn 0.0917 -0.9947 -0.0461
vn 0.2367 -0.7988 -0.5531
vn 0.5334 -0.8178 -0.2161
vn 0.4012 -0.8968 -0.1866
vn 0.9299 -0.2143 0.2989
vn 0.6831 -0.1885 0.7056
vn 0.0612 0.9646 -0.2564
vn 0.0566 0.0991 0.9935
vn -0.1392 -0.0289 0.9898
vn 0.1353 -0.3038 0.9431
vn -0.7309 0.1647 -0.6623
vn -0.6378 -0.2336 -0.7339
vn -0.6287 0.7096 0.3182
vn -0.6385 0.6780 0.3642
vn -0.1654 -0.9862 0.0038
vn -0.0437 -0.9990 0.0086
vn -0.0436 -0.9990 0.0079
vn 0.1161 -0.9930 -0.0227
vn -0.1200 -0.9928 0.0040
vn 0.1114 -0.9938 0.0065
vn 0.0165 -0.9995 0.0284
vn 0.0215 -0.9942 -0.1058
vn 0.5075 -0.0696 -0.8589
vn -0.6720 0.4836 0.5608
vn -0.6474 0.6065 0.4616
vn 0.8678 -0.2000 -0.4549
vn 0.9262 0.1500 0.3459
vn -0.0251 0.1252 0.9918
vn -0.0820 -0.0829 0.9932
vn 0.1722 -0.2346 0.9567
vn -0.9651 -0.2465 0.0881
vn -0.5991 -0.7948 0.0971
vn -0.6101 -0.6970 -0.3768
vn -0.7009 0.1338 -0.7006
vn -0.7089 -0.2449 -0.6614
vn -0.7505 -0.2834 0.5971
vn -0.6225 -0.7789 -0.0761
vn -0.6980 -0.7159 -0.0197
vn 0.9854 0.0811 -0.1497
vn 0.8619 -0.0883 -0.4993
vn 0.6807 0.6775 0.2787
vn -0.0635 0.5808 0.8116
vn 0.0212 0.4706 0.8821
vn 0.1389 0.4574 0.8784
vn 0.3170 0.6158 -0.7213
vn 0.2203 0.5958 -0.7724
vn -0.4966 0.6573 -0.5669
vn -0.5872 0.6944 -0.4160
vn -0.3655 -0.8325 0.4164
vn -0.3575 -0.8628 0.3575
vn -0.5096 -0.8221 0.2537
vn 0.7961 0.6036 -0.0450
vn 0.6713 0.6111 -0.4194
vn -0.4270 0.5186 -0.7408
vn -0.6753 -0.3639 0.6415
vn 0.6850 -0.1746 0.7073
vn 0.7558 0.1408 0.6395
vn -0.1626 0.9519 -0.2596
vn -0.1515 0.9548 -0.2559
vn -0.5928 0.7153 0.3700
vn 0.6867 0.6364 0.3515
vn 0.6687 0.6513 0.3586
vn -0.7052 0.6357 0.3139
vn -0.6322 0.7634 -0.1326
vn -0.8378 0.5324 -0.1213
vn -0.4553 0.7162 -0.5289
vn -0.4521 0.7204 -0.5259
vn -0.6201 0.7134 -0.3265
vn 0.2407 0.6390 -0.7306
vn 0.7460 0.6659 -0.0066
vn -0.3658 0.6008 -0.7108
vn 0.8219 -0.1884 0.5375
vn 0.5443 -0.7682 0.3370
vn 0.5884 -0.7415 0.3223
vn 0.1040 -0.8043 0.5851
vn 0.0785 -0.8212 0.5652
vn 0.8890 -0.3304 -0.3169
vn 0.9078 -0.3441 -0.2399
vn -0.1887 0.9752 0.1160
vn -0.2410 0.9689 -0.0561
vn -0.2153 0.9459 -0.2429
vn -0.3489 0.9341 -0.0759
vn 0.1524 0.9401 -0.3048
vn 0.1856 0.9503 -0.2499
vn -0.5137 -0.2549 -0.8192
vn 0.3365 -0.7743 -0.5359
vn 0.3421 -0.7895 -0.5096
vn -0.5333 -0.2373 -0.8120
vn -0.2484 -0.8165 -0.5211
vn -0.2338 -0.8977 -0.3733
vn 0.0195 -0.9062 -0.4224
vn 0.0806 0.9503 -0.3009
vn 0.1652 0.9604 -0.2246
vn 0.1538 0.9617 -0.2270
vn -0.1070 0.9781 -0.1786
vn -0.3109 0.9470 -0.0807
vn -0.2046 0.9555 -0.2127
vn -0.2476 0.9673 -0.0553
vn -0.2537 0.9585 0.1302
vn 0.1680 0.9858 -0.0045
vn -0.2367 0.9628 0.1307
vn -0.2766 0.9576 0.0804
vn -0.2179 0.9638 0.1537
vn 0.3050 -0.1588 -0.9390
vn 0.2468 -0.0669 -0.9667
vn 0.1319 0.5033 0.8540
vn 0.1220 0.4820 0.8677
vn 0.0573 0.4898 0.8699
vn -0.0626 0.6240 0.7789
vn 0.6093 0.7417 0.2803
vn 0.6409 0.6550 -0.4003
vn 0.6062 0.6745 -0.4214
vn 0.6510 0.5279 0.5455
vn 0.6241 0.6680 0.4054
vn 0.7538 0.4248 0.5013
vt 0.402614 0.690658
vt 0.765965 0.295120
vt 0.664766 -0.552454
vt -0.260085 0.097327
vt -0.552454 0.000000
vt -0.288721 0.000000
vt -0.711148 0.135047
vt -0.767265 0.000000
vt -0.505544 0.113789
vt 0.414559 0.135047
vt 0.135427 0.015818
vt 0.468808 0.001598
vt 0.118088 0.160620
vt -0.139452 0.049135
vt -0.442511 0.152125
vt -0.494472 0.006127
vt 0.931789 -0.034824
vt 0.800938 -0.288721
vt 0.549289 0.000000
vt 0.261351 0.100242
vt 0.283586 0.000000
vt 0.000000 0.122039
vt 0.000000 0.000000
vt -0.303811 0.000000
vt -0.747034 -0.269290
vt -0.618823 -0.514272
vt -0.842799 -0.303811
vt -0.715277 0.131842
vt -0.742748 0.000000
vt -0.464376 0.116161
vt 0.416966 0.131842
vt 0.166472 0.027422
vt 0.458865 0.005362
vt 0.146770 0.153761
vt -0.140421 0.009042
vt -0.402614 0.000000
vt -0.677083 0.100648
vt -0.738437 0.000000
vt 0.562689 0.100648
vt 0.240187 0.129746
vt 0.295120 0.000000
vt 0.276257 0.001886
vt -0.000000 0.130679
vt -0.000000 0.003002
vt 0.684311 0.000000
vt 0.721500 0.260085
vt 0.828502 0.000000
vt 0.523434 0.435000
vt 0.608320 0.505544
vt 0.414559 0.711148
vt 0.345295 0.592331
vt 0.118088 0.663284
vt -0.108659 0.289979
vt -0.126252 0.185269
vt -0.372869 0.271513
vt -0.372869 0.639633
vt -0.578505 0.480766
vt -0.442511 0.759098
vt -0.619479 0.223309
vt -0.725011 0.261351
vt 0.000000 0.251823
vt -0.269290 0.119528
vt -0.616230 -0.222138
vt -0.558782 -0.464376
vt -0.614716 0.246267
vt -0.358344 -0.614716
vt -0.146770 -0.824387
vt -0.416966 -0.715277
vt -0.121931 -0.684870
vt 0.122684 -0.689103
vt -0.122684 0.134870
vt -0.322286 0.227481
vt -0.374217 0.103014
vt -0.568752 0.221413
vt 0.472661 0.221413
vt 0.666300 -0.240187
vt -0.000000 0.246814
vt -0.209639 0.324634
vt -0.218654 0.212546
vt -0.422372 0.321073
vt -0.435000 0.212740
vt 0.508239 0.321073
vt 0.345295 0.238296
vt 0.523434 0.212740
vt 0.323859 0.347465
vt 0.098043 0.276827
vt 0.092729 0.383646
vt -0.353317 0.380216
vt 0.606092 0.380216
vt 0.396384 0.253252
vt 0.639633 0.271513
vt 0.217016 0.332815
vt 0.223309 0.221929
vt 0.000000 0.363715
vt -0.222138 0.257896
vt -0.207161 0.376563
vt -0.391802 0.256890
vt -0.595655 0.358075
vt 0.347233 0.358075
vt 0.121931 0.270038
vt 0.358344 0.246267
vt 0.114136 0.380503
vt -0.102150 0.244273
vt -0.314088 0.338670
vt -0.537348 0.333803
vt 0.446563 0.333803
vt 0.198249 0.239013
vt -0.000000 0.356321
vt -0.187135 0.461540
vt -0.377450 0.452112
vt 0.454184 0.452112
vt 0.279831 0.480803
vt -0.095371 0.514565
vt -0.105938 0.396806
vt -0.307721 0.505456
vt 0.527876 0.505456
vt 0.371003 0.364552
vt 0.195545 0.467702
vt 0.000000 0.496615
vt -0.178827 0.517666
vt -0.376918 0.372473
vt -0.530897 0.499266
vt 0.309483 0.499266
vt 0.098508 0.509280
vt -0.096944 0.353851
vt -0.282370 0.475345
vt -0.466831 0.471140
vt 0.387960 0.471140
vt 0.185952 0.347756
vt -0.000000 0.482737
vt -0.165658 0.611112
vt -0.330767 0.604112
vt 0.398011 0.604112
vt 0.238048 0.627585
vt 0.081697 0.503787
vt -0.084401 0.646196
vt -0.263042 0.644389
vt 0.451232 0.644389
vt 0.322708 0.497167
vt -0.388313 0.497167
vt -0.482322 0.618534
vt -0.542459 0.467702
vt 0.173867 0.618534
vt 0.000000 0.640866
vt -0.152764 0.663256
vt -0.337392 0.515437
vt -0.463839 0.655563
vt 0.270392 0.655563
vt 0.083789 0.650168
vt -0.085716 0.485623
vt -0.249353 0.627958
vt -0.398316 0.624332
vt 0.331020 0.624332
vt 0.162226 0.477050
vt -0.000000 0.621436
vt -0.161379 0.740836
vt -0.315853 0.736097
vt 0.380065 0.736097
vt 0.222168 0.756371
vt 0.071527 0.637023
vt 0.069140 0.763639
vt -0.245757 0.772095
vt 0.421579 0.772095
vt 0.278704 0.644074
vt -0.335364 0.644074
vt -0.469510 0.749200
vt 0.169248 0.749200
vt 0.000000 0.770122
vt -0.143889 0.791540
vt -0.299231 0.666284
vt -0.441546 0.787594
vt 0.257396 0.787594
vt -0.072974 0.765038
vt -0.075294 0.634546
vt -0.240180 0.759654
vt -0.371779 0.757518
vt 0.308967 0.757518
vt 0.140593 0.622879
vt -0.000000 0.748944
vt -0.157355 0.851227
vt -0.299582 0.848873
vt 0.360487 0.848873
vt 0.207849 0.865140
vt -0.078248 0.879268
vt -0.081518 0.772349
vt -0.229217 0.881018
vt 0.393206 0.881018
vt 0.265961 0.774167
vt -0.320030 0.774167
vt -0.455280 0.861026
vt 0.164119 0.861026
vt 0.000000 0.880452
vt -0.136428 0.900433
vt -0.291741 0.795817
vt -0.417557 0.899709
vt 0.243412 0.899709
vt 0.078274 0.778487
vt -0.071006 0.876199
vt -0.229847 0.872643
vt -0.346776 0.871349
vt 0.288188 0.871349
vt 0.134643 0.752928
vt -0.000000 0.857733
vt -0.149245 0.968398
vt 0.330932 0.968367
vt 0.190260 0.979153
vt 0.067161 0.871549
vt -0.072668 0.991310
vt -0.208337 0.996602
vt 0.357389 0.996602
vt 0.255633 0.884874
vt -0.307602 0.884874
vt -0.427719 0.981458
vt 0.154183 0.981458
vt 0.000000 0.997920
vt -0.269400 1.022357
vt -0.284393 0.905959
vt -0.382335 1.017381
vt 0.222879 1.017381
vt 0.073376 0.888071
vt -0.067412 0.995173
vt -0.212791 0.994176
vt -0.315546 0.992485
vt 0.262235 0.992485
vt 0.129831 0.863695
vt -0.000000 0.973107
vt -0.144309 1.106267
vt -0.275021 0.968367
vt 0.309089 1.107282
vt 0.179253 1.115074
vt 0.063721 0.984806
vt -0.068566 1.126459
vt 0.333187 1.134127
vt 0.240816 1.002407
vt -0.289773 1.002407
vt -0.408429 1.122070
vt 0.147230 1.122070
vt 0.000000 1.136938
vt -0.126914 1.015298
vt -0.121622 1.152110
vt -0.356404 1.154835
vt 0.063681 1.142812
vt 0.067360 1.004627
vt -0.065429 1.134282
vt -0.200192 1.135620
vt 0.365029 0.994176
vt 0.245006 1.133229
vt 0.118869 1.119996
vt 0.122612 0.981560
vt -0.000000 1.110459
vt -0.000000 1.249488
vt -0.260070 1.246168
vt -0.256868 1.107282
vt 0.312941 1.246168
vt 0.185108 1.254911
vt 0.061873 1.120879
vt 0.065269 1.262278
vt -0.069969 1.266230
vt -0.194229 1.134127
vt 0.339678 1.273136
vt 0.233106 1.140601
vt -0.280496 1.140601
vt -0.421562 1.258900
vt 0.151964 1.258900
vt 0.000000 1.275750
vt -0.127597 1.291743
vt -0.259953 1.159609
vt 0.312801 1.159609
vt 0.210121 1.293968
vt 0.207763 1.154835
vt 0.065996 1.281306
vt -0.068924 1.270187
vt 0.343417 1.135620
vt 0.250527 1.271236
vt 0.125578 1.257057
vt -0.000000 1.368366
vt -0.151100 1.244507
vt -0.274254 1.363141
vt 0.330009 1.363141
vt 0.200947 1.375000
vt 0.071596 1.385662
vt -0.074135 1.386888
vt -0.198013 1.273136
vt -0.212041 1.391274
vt -0.296193 1.278153
vt -0.326467 1.393503
vt 0.162607 1.372184
vt 0.000000 1.392709
vt -0.140301 1.411232
vt -0.271464 1.298704
vt 0.326652 1.298704
vt 0.221560 1.412118
vt 0.071879 1.398650
vt -0.075441 1.383011
vt -0.203781 1.273552
vt 0.349573 1.273552
vt 0.269211 1.385741
vt 0.138330 1.371981
vt -0.000000 1.480792
vt -0.164117 1.360105
vt 0.455276 1.360105
vt 0.387005 1.463395
vt 0.244102 1.484441
vt 0.086872 1.507223
vt -0.087022 1.505768
vt -0.254299 1.501084
vt -0.399271 -0.331814
vt -0.451087 -0.162607
vt -0.326467 -0.271310
vt 0.000000 1.498657
vt -0.171877 1.518703
vt -0.293963 1.415531
vt 0.353725 1.415531
vt 0.260081 1.515535
vt 0.087545 1.507702
vt -0.091287 1.482598
vt -0.252747 1.484027
vt -0.215522 1.387945
vt 0.252747 0.433570
vt 0.323941 0.269211
vt 0.215522 0.369714
vt 0.168918 1.475720
vt 0.779992 -0.000000
vt 0.546149 -0.196875
vt 0.518612 -0.000000
vt 0.558525 -0.464162
vt 0.387005 -0.321620
vt 0.365781 -0.627474
vt 0.244102 -0.418741
vt 0.086872 -0.487949
vt -0.125192 -0.703188
vt -0.087022 -0.488790
vt -0.254299 -0.436232
vt -0.377088 -0.646870
vt -0.597116 -0.496233
vt -0.533431 -0.192290
vt -0.708748 -0.000000
vt -0.484520 -0.000000
vt -0.476804 0.171877
vt -0.716904 0.258428
vt -0.423007 0.351540
vt -0.376112 0.645195
vt -0.260081 0.446152
vt -0.131404 0.738079
vt -0.087545 0.491728
vt 0.091287 0.512748
vt 0.363639 0.623799
vt 0.389882 0.324011
vt 0.579992 0.482002
vt 0.468593 0.168918
vt 0.699188 0.252042
vt 1.115312 -0.000000
vt 0.798869 -0.287975
vt 0.770953 -0.640700
vt 0.523271 -0.897638
vt 0.128599 -0.722325
vt -0.171568 -0.963674
vt -0.535669 -0.918906
vt -0.845633 -0.702763
vt -0.770593 -0.277782
vt -0.994276 -0.000000
vt -1.023801 0.369058
vt -0.616913 0.512685
vt -0.520664 0.893164
vt -0.188095 1.056503
vt 0.134723 0.756725
vt 0.498926 0.855875
vt 0.825945 0.686401
vt 0.987414 0.355941
vt 1.371012 -0.000000
vt 1.105526 -0.398518
vt 0.923711 -0.767650
vt 0.215937 -1.212888
vt 0.180027 -1.011189
vt -0.203393 -1.142432
vt -0.659346 -1.131065
vt -1.026507 -0.853078
vt -1.056340 -0.380788
vt -1.211702 -0.000000
vt -1.009154 0.838657
vt -0.851535 0.707668
vt -0.625977 1.073822
vt 0.224861 1.263014
vt 0.188015 1.056055
vt 0.592772 1.016861
vt 1.194932 0.430747
vt 1.445195 -0.520962
vt 1.312685 -0.473195
vt 1.037551 -0.862256
vt 0.606567 0.218654
vt 0.438758 2.371403
vt 0.350990 2.091828
vt 0.682581 1.901003
vt -0.225534 -1.266793
vt 0.480766 0.132340
vt 0.711701 0.000000
vt 0.194689 0.772598
vt -0.463661 2.017405
vt -0.267371 2.137420
vt -0.596859 2.386227
vt -0.705639 1.210478
vt -0.239219 1.940342
vt 0.265368 1.997933
vt 0.050717 2.521884
vt 0.946831 0.000000
vt 0.765965 -0.295120
vt 0.766363 -0.276257
vt 0.659278 1.130948
vt 1.018171 0.846151
vt 1.336851 0.481906
vt -0.000000 2.005721
vt -0.514230 2.139900
vt -0.520962 2.024116
vt 1.426520 2.139900
vt 1.037551 2.033157
vt 1.445195 2.024116
vt 0.770062 -0.639960
vt 1.070003 -0.889225
vt 0.822527 -0.977615
vt 0.239594 1.978997
vt 0.397226 1.977931
vt 0.237597 2.092582
vt -0.225534 2.002121
vt -0.226112 2.116291
vt -0.757183 1.969389
vt 1.044871 2.101101
vt 0.901972 2.333660
vt 0.933476 1.966264
vt 0.498676 -0.767265
vt 0.116982 2.024496
vt 0.000000 2.101542
vt 0.000000 2.030070
vt -0.072673 2.142320
vt -0.150382 2.206484
vt -0.665527 2.125981
vt -0.922323 2.005284
vt -0.554874 2.014954
vt 1.095416 2.117415
vt 0.705639 1.996132
vt 1.109829 2.005284
vt 0.422632 2.500281
vt 0.440291 2.437216
vt 0.672397 2.384318
vt 0.140421 0.788727
vt -0.488317 0.742748
vt -0.166472 0.935052
vt -0.592437 2.098130
vt -0.659278 1.985025
vt -0.466148 1.982452
vt 0.738437 0.613677
vt -1.053379 0.875410
vt -1.085340 0.901972
vt -1.037570 1.088796
vt 0.481215 2.119848
vt 0.481906 2.005777
vt -0.000000 2.252053
vt -0.000000 2.117485
vt 0.613677 0.000000
vt -0.514272 0.000000
vt 0.322553 2.227374
vt 0.234540 2.227954
vt -0.228110 2.252773
vt -0.781183 2.086515
vt -1.421759 0.463661
vt -1.412524 0.509184
vt -1.255904 0.452726
vt -1.394389 0.554874
vt -1.109829 0.922323
vt -0.804210 0.001598
vt -0.739561 2.257532
vt -0.910345 2.117415
vt 1.081519 2.250681
vt 0.719528 2.108891
vt 1.340068 2.086515
vt 1.088796 2.236092
vt -0.665868 2.141447
vt -0.663280 2.098927
vt -1.380245 -0.116982
vt -1.382654 -0.000000
vt 0.907936 2.274996
vt 0.962786 2.141380
vt 0.477376 2.256230
vt -0.000000 2.404027
vt -0.507190 2.276721
vt -0.415681 -0.345452
vt -0.678096 0.244439
vt 0.205032 1.151637
vt 0.214501 2.376075
vt -0.763749 2.359903
vt -0.803431 2.225836
vt -0.194689 0.000000
vt 0.875410 2.381629
vt -0.786694 -0.283586
vt -0.899354 -0.000000
vt -0.618823 0.514272
vt -1.239360 -0.739561
vt -0.994415 -0.826409
vt -1.081519 -0.898796
vt -0.898796 2.250681
vt -1.206694 2.385969
vt -1.264489 2.241351
vt -1.097273 -1.004685
vt -1.123249 -0.933476
vt -1.282141 -0.462184
vt -1.247458 -0.449682
vt -0.787153 0.005362
vt 0.889713 2.414613
vt 0.703433 2.385969
vt 0.422680 2.249392
vt 0.737125 2.241351
vt -1.069486 2.101101
vt -1.097273 1.988388
vt -0.848649 2.281195
vt -0.887489 2.225721
vt -0.876354 2.147382
vt -0.934105 2.139531
vt -0.166439 -0.934866
vt -0.234082 -1.314807
vt -0.277760 -1.332799
vt 1.229966 2.476998
vt 1.310161 2.359903
vt -0.034824 0.000000
vt 0.000000 2.537534
vt 0.000000 2.489915
vt -0.444325 2.497164
vt -0.048491 2.444842
vt -0.912862 -0.758634
vt -1.231935 -0.596859
vt -1.232597 -0.444325
vt -0.826409 2.367707
vt -1.145224 2.505836
vt -0.202177 2.520735
vt -0.212779 2.448648
vt -0.599792 2.492947
vt -0.625879 2.405567
vt -0.822527 2.508626
vt 0.881066 2.528248
vt 0.437626 2.404630
vt 0.667600 2.505836
vt 0.362478 2.388389
vt -0.862256 2.033157
vt -1.003836 2.013232
vt 0.934891 -1.003836
vt 0.682581 -1.170923
vt 0.646011 -1.108189
vt 0.397226 -1.322326
vt 0.239594 -1.345772
vt -0.844171 2.113664
vt -0.471878 1.186130
vt -0.658578 1.129748
vt -0.717000 1.229966
vt -1.172418 0.422632
vt -0.942031 0.000000
vt -1.326941 0.000000
vt -0.845399 -0.304748
vt -0.476805 -0.817928
vt -0.667600 -1.145224
vt 0.139052 -0.781038
vt 0.202177 -1.135601
vt 0.427991 -0.734190
vt 0.599792 -1.028904
vt 0.346180 2.114032
vt 0.466148 1.256585
vt 0.269009 1.999211
vt -0.269009 1.491332
vt -0.265368 1.490538
vt -0.232107 1.303715
vt 0.239219 1.343663
vt 0.098043 0.550698
vt -0.108659 0.610326
vt -0.704916 0.471917
vt -0.827157 0.298172
vt -0.476968 0.396384
vt -0.703476 0.000000
vt -0.471454 -0.391802
vt 0.102150 -0.573766
vt 0.322286 -0.552860
vt 0.568752 -0.472661
vt 0.549962 -0.198249
vt 0.682136 -0.566889
vt 0.330230 -0.566487
vt -0.118775 -0.667144
vt -0.635375 -0.528028
vt -0.315999 -0.542075
vt -0.575593 -0.207489
vt -0.686064 0.000000
vt 0.763848 -0.499377
vt 1.102468 -0.397416
vt 0.977934 -0.352524
vt -0.718461 0.597076
vt -0.957312 0.795574
vt 1.185596 -0.271565
vt -1.188927 2.088032
vt -1.169747 2.026328
vt -0.471878 2.493872
vt -0.717000 2.476998
vt 0.205032 2.440430
vt -0.215079 2.389378
vt -0.000000 2.480097
vt -0.465383 2.410442
vt 0.271565 2.533914
vt -0.701179 2.417581
vt -0.873500 2.354624
vt 1.291016 0.465383
vt 1.263504 0.455466
vt 1.130196 0.701179
vt -0.857875 2.406432
vt -0.889973 2.404609
vt -0.446427 0.364552
vt 0.394287 0.872643
vt 0.324168 1.022357
vt 0.419166 1.244507
vt -0.451087 1.372184
vt -0.323941 1.385741
vt -0.196875 1.456916
vt 0.455276 -0.164117
vt 0.192290 1.468220
vt -0.351540 1.509938
vt -0.353725 0.293963
vt 0.324011 1.482968
vt 1.560871 -0.000000
vt 1.051080 2.354624
vt 1.006815 2.404609
vt 1.067913 2.225721
vt 0.476392 2.411709
vt 0.934891 2.013232
vt 1.014949 2.139531
vt 1.117229 2.281195
vt -0.757183 -1.298898
vt 0.848234 0.006127
vt 0.759098 0.152125
vt -0.445336 2.494664
vt -0.509184 2.005185
vt -1.070003 2.533286
vt -1.180918 2.414613
vt -1.099775 2.528248
vt -1.257331 2.274996
vt -1.215831 2.141380
vt 0.234082 2.533360
vt 0.277760 2.521271
vt 1.169747 0.972118
vt 1.054515 2.147382
vt 0.462184 1.919328
vt 1.004685 1.988388
vt -1.153110 0.672397
vt 0.135427 -0.760675
vt 0.468808 -0.804210
vt -0.139452 -0.783284
vt -0.494472 -0.848234
vt -0.573511 -0.711701
vt -0.458865 0.787153
vt 1.378234 2.225836
vt -1.234303 2.108891
vt 0.110331 -0.619713
vt -0.206441 1.159550
vt 1.420331 0.000000
vt 1.006815 0.889973
vt 1.032279 0.857875
vt 0.476392 1.196447
vt -0.842799 0.303811
vt -0.660958 -0.549289
vt -0.703433 -1.206694
vt 1.298898 1.969389
vt -1.235403 -0.445336
vt -1.378820 -0.048491
vt 0.397416 2.529990
vt 0.972118 2.026328
vt 0.988058 2.088032
vt -0.050717 -1.258511
vt 1.099775 -0.881066
vt -0.206441 2.474540
vt 1.487939 0.000000
vt 1.214015 -0.437626
vt 1.406990 0.507190
s 0
f 404/1/1 430/2/1 326/3/1
f 11/4/2 326/5/2 308/6/2
f 13/7/3 332/8/3 12/9/3
f 13/10/4 3/11/4 2/12/4
f 14/13/5 4/14/5 3/11/5
f 4/14/6 16/15/6 5/16/6
f 430/2/1 290/17/1 308/18/1
f 349/19/7 18/20/7 368/21/7
f 368/21/8 19/22/8 399/23/8
f 19/22/9 400/24/9 399/23/9
f 20/25/10 401/26/10 400/27/10
f 22/28/11 402/29/11 21/30/11
f 22/31/12 7/32/12 6/33/12
f 23/34/13 8/35/13 7/32/13
f 13/10/14 14/13/14 3/11/14
f 404/36/15 26/37/15 405/38/15
f 26/39/16 27/40/16 430/41/16
f 9/42/17 10/43/17 1/44/17
f 28/45/18 11/46/18 10/47/18
f 11/46/19 30/48/19 12/49/19
f 30/48/20 13/50/20 12/49/20
f 31/51/21 14/52/21 13/50/21
f 14/13/22 33/53/22 15/54/22
f 15/54/23 34/55/23 16/15/23
f 34/56/24 17/57/24 16/58/24
f 17/57/25 36/59/25 18/60/25
f 18/20/26 37/61/26 19/22/26
f 37/61/27 20/62/27 19/22/27
f 38/63/28 21/64/28 20/25/28
f 21/30/29 40/65/29 22/28/29
f 40/66/30 23/67/30 22/68/30
f 41/69/31 24/70/31 23/67/31
f 24/71/32 43/72/32 25/73/32
f 25/73/33 44/74/33 26/37/33
f 44/75/34 27/40/34 26/39/34
f 27/76/35 28/45/35 10/47/35
f 28/77/36 47/78/36 29/79/36
f 29/79/37 48/80/37 30/81/37
f 48/82/38 31/83/38 30/84/38
f 49/85/39 32/86/39 31/83/39
f 50/87/40 33/53/40 32/86/40
f 33/53/41 52/88/41 34/55/41
f 52/89/42 35/90/42 34/91/42
f 35/90/43 54/92/43 36/93/43
f 54/92/44 37/61/44 36/93/44
f 55/94/45 38/95/45 37/61/45
f 56/96/46 39/97/46 38/95/46
f 39/97/47 58/98/47 40/65/47
f 58/99/48 41/100/48 40/101/48
f 59/102/49 42/103/49 41/100/49
f 42/103/50 61/104/50 43/72/50
f 43/72/51 62/105/51 44/74/51
f 62/106/52 45/107/52 44/75/52
f 45/107/53 46/108/53 28/77/53
f 46/108/54 65/109/54 47/78/54
f 47/78/55 66/110/55 48/80/55
f 66/111/56 49/85/56 48/82/56
f 67/112/57 50/87/57 49/85/57
f 50/87/58 69/113/58 51/114/58
f 51/114/59 70/115/59 52/88/59
f 70/116/60 53/117/60 52/89/60
f 53/117/61 72/118/61 54/92/61
f 72/118/62 55/94/62 54/92/62
f 73/119/63 56/96/63 55/94/63
f 74/120/64 57/121/64 56/96/64
f 57/121/65 76/122/65 58/98/65
f 76/123/66 59/102/66 58/99/66
f 77/124/67 60/125/67 59/102/67
f 60/125/68 79/126/68 61/104/68
f 61/104/69 80/127/69 62/105/69
f 80/128/70 63/129/70 62/106/70
f 63/129/71 64/130/71 46/108/71
f 64/130/72 83/131/72 65/109/72
f 65/109/73 84/132/73 66/110/73
f 84/133/74 67/112/74 66/111/74
f 85/134/75 68/135/75 67/112/75
f 68/135/76 87/136/76 69/113/76
f 69/113/77 88/137/77 70/115/77
f 88/138/78 71/139/78 70/116/78
f 71/140/79 90/141/79 72/142/79
f 90/143/80 73/119/80 72/118/80
f 91/144/81 74/120/81 73/119/81
f 92/145/82 75/146/82 74/120/82
f 75/146/83 94/147/83 76/122/83
f 94/148/84 77/124/84 76/123/84
f 95/149/85 78/150/85 77/124/85
f 78/150/86 97/151/86 79/126/86
f 79/126/87 98/152/87 80/127/87
f 98/153/88 81/154/88 80/128/88
f 81/154/89 82/155/89 64/130/89
f 82/155/90 101/156/90 83/131/90
f 83/131/91 102/157/91 84/132/91
f 102/158/92 85/134/92 84/133/92
f 103/159/93 86/160/93 85/134/93
f 104/161/94 87/136/94 86/160/94
f 87/136/95 106/162/95 88/137/95
f 106/163/96 89/164/96 88/138/96
f 89/165/97 108/166/97 90/141/97
f 108/167/98 91/144/98 90/143/98
f 109/168/99 92/145/99 91/144/99
f 110/169/100 93/170/100 92/145/100
f 93/170/101 112/171/101 94/147/101
f 112/172/102 95/149/102 94/148/102
f 95/149/103 114/173/103 96/174/103
f 96/174/104 115/175/104 97/151/104
f 97/151/105 116/176/105 98/152/105
f 116/177/106 99/178/106 98/153/106
f 99/178/107 100/179/107 82/155/107
f 100/179/108 119/180/108 101/156/108
f 101/156/109 120/181/109 102/157/109
f 120/182/110 103/159/110 102/158/110
f 121/183/111 104/161/111 103/159/111
f 104/161/112 123/184/112 105/185/112
f 105/185/113 124/186/113 106/162/113
f 124/187/114 107/188/114 106/163/114
f 107/189/115 126/190/115 108/166/115
f 126/191/116 109/168/116 108/167/116
f 127/192/117 110/169/117 109/168/117
f 128/193/118 111/194/118 110/169/118
f 111/194/119 130/195/119 112/171/119
f 130/196/120 113/197/120 112/172/120
f 113/197/121 132/198/121 114/173/121
f 114/173/122 133/199/122 115/175/122
f 115/175/123 134/200/123 116/176/123
f 134/201/124 117/202/124 116/177/124
f 117/202/125 118/203/125 100/179/125
f 118/203/126 137/204/126 119/180/126
f 137/204/127 120/181/127 119/180/127
f 138/205/128 121/183/128 120/182/128
f 139/206/129 122/207/129 121/183/129
f 122/207/130 141/208/130 123/184/130
f 123/184/131 142/209/131 124/186/131
f 142/210/132 125/211/132 124/187/132
f 125/212/133 144/213/133 126/190/133
f 144/214/134 127/192/134 126/191/134
f 145/215/135 128/193/135 127/192/135
f 128/193/136 147/216/136 129/217/136
f 129/217/137 148/218/137 130/195/137
f 148/219/138 131/220/138 130/196/138
f 131/220/139 150/221/139 132/198/139
f 132/198/140 151/222/140 133/199/140
f 133/199/141 152/223/141 134/200/141
f 152/224/142 135/225/142 134/201/142
f 135/225/143 136/226/143 118/203/143
f 136/226/144 155/227/144 137/204/144
f 155/227/145 138/228/145 137/204/145
f 156/229/146 139/206/146 138/205/146
f 157/230/147 140/231/147 139/206/147
f 140/231/148 159/232/148 141/208/148
f 159/232/149 142/209/149 141/208/149
f 160/233/150 143/234/150 142/210/150
f 143/235/151 162/236/151 144/213/151
f 162/237/152 145/215/152 144/214/152
f 163/238/153 146/239/153 145/215/153
f 164/240/154 147/216/154 146/239/154
f 147/216/155 166/241/155 148/218/155
f 148/219/156 167/242/156 149/243/156
f 149/243/157 168/244/157 150/221/157
f 150/221/158 169/245/158 151/222/158
f 151/246/159 170/247/159 152/224/159
f 152/224/160 171/248/160 153/249/160
f 153/249/161 154/250/161 136/226/161
f 172/251/162 155/227/162 154/250/162
f 155/227/163 174/252/163 156/253/163
f 174/254/164 157/230/164 156/229/164
f 175/255/165 158/256/165 157/230/165
f 176/257/166 159/232/166 158/256/166
f 177/258/167 160/259/167 159/232/167
f 178/260/168 161/261/168 160/233/168
f 161/262/169 180/263/169 162/236/169
f 180/264/170 163/238/170 162/237/170
f 181/265/171 164/240/171 163/238/171
f 182/266/172 165/267/172 164/240/172
f 165/268/173 184/269/173 166/270/173
f 166/270/174 185/271/174 167/242/174
f 167/242/175 186/272/175 168/244/175
f 186/272/176 169/245/176 168/244/176
f 169/273/177 188/274/177 170/247/177
f 170/247/178 189/275/178 171/248/178
f 171/248/179 172/251/179 154/250/179
f 190/276/180 173/277/180 172/251/180
f 173/277/181 192/278/181 174/252/181
f 192/279/182 175/255/182 174/254/182
f 193/280/183 176/257/183 175/255/183
f 194/281/184 177/258/184 176/257/184
f 195/282/185 178/283/185 177/258/185
f 196/284/186 179/285/186 178/283/186
f 197/286/187 180/263/187 179/285/187
f 198/287/188 181/265/188 180/264/188
f 199/288/189 182/266/189 181/265/189
f 200/289/190 183/290/190 182/266/190
f 183/291/191 202/292/191 184/269/191
f 184/269/192 203/293/192 185/271/192
f 185/271/193 204/294/193 186/272/193
f 204/294/194 187/295/194 186/272/194
f 187/296/195 206/297/195 188/274/195
f 188/274/196 207/298/196 189/275/196
f 207/298/197 172/251/197 189/275/197
f 208/299/198 191/300/198 190/276/198
f 191/301/199 210/302/199 192/279/199
f 192/279/200 211/303/200 193/280/200
f 211/303/201 194/281/201 193/280/201
f 212/304/202 195/282/202 194/281/202
f 213/305/203 196/284/203 195/282/203
f 214/306/204 197/286/204 196/284/204
f 215/307/205 198/308/205 197/309/205
f 198/287/206 217/310/206 199/288/206
f 217/310/207 200/289/207 199/288/207
f 218/311/208 201/312/208 200/289/208
f 201/313/209 220/314/209 202/292/209
f 202/292/210 221/315/210 203/293/210
f 203/293/211 222/316/211 204/294/211
f 204/294/212 223/317/212 205/318/212
f 223/319/213 206/320/213 205/321/213
f 206/297/214 225/322/214 207/298/214
f 225/322/215 190/276/215 207/298/215
f 226/323/216 209/324/216 208/325/216
f 209/324/217 228/326/217 210/327/217
f 210/327/218 229/328/218 211/329/218
f 229/328/219 212/330/219 211/329/219
f 212/330/220 231/331/220 213/332/220
f 231/331/221 214/333/221 213/332/221
f 232/334/222 215/307/222 214/333/222
f 233/335/223 216/336/223 215/307/223
f 216/336/224 235/337/224 217/338/224
f 235/337/225 218/339/225 217/338/225
f 236/340/226 219/341/226 218/339/226
f 219/341/227 238/342/227 220/343/227
f 220/343/228 239/344/228 221/345/228
f 239/344/229 222/346/229 221/345/229
f 222/346/230 241/347/230 223/319/230
f 241/347/231 224/348/231 223/319/231
f 242/349/232 225/350/232 224/348/232
f 243/351/233 208/325/233 225/350/233
f 244/352/234 227/353/234 226/323/234
f 227/353/235 246/354/235 228/326/235
f 246/354/236 229/328/236 228/326/236
f 247/355/237 230/356/237 229/328/237
f 230/356/238 249/357/238 231/331/238
f 249/357/239 232/334/239 231/331/239
f 250/358/240 233/335/240 232/334/240
f 251/359/241 234/360/241 233/335/241
f 234/360/242 253/361/242 235/337/242
f 253/361/243 236/340/243 235/337/243
f 254/362/244 237/363/244 236/340/244
f 237/363/245 256/364/245 238/342/245
f 256/364/246 239/344/246 238/342/246
f 257/365/247 240/366/247 239/344/247
f 240/366/248 259/367/248 241/347/248
f 259/367/249 242/349/249 241/347/249
f 260/368/250 243/351/250 242/349/250
f 261/369/251 226/323/251 243/351/251
f 262/370/252 245/371/252 244/352/252
f 245/371/253 264/372/253 246/354/253
f 264/372/254 247/355/254 246/354/254
f 247/355/255 266/373/255 248/374/255
f 248/374/256 267/375/256 249/357/256
f 267/375/257 250/358/257 249/357/257
f 268/376/258 251/359/258 250/358/258
f 269/377/259 252/378/259 251/359/259
f 252/378/260 271/379/260 253/361/260
f 271/379/261 254/362/261 253/361/261
f 254/362/262 273/380/262 255/381/262
f 255/381/263 274/382/263 256/364/263
f 274/382/264 257/365/264 256/364/264
f 257/365/265 276/383/265 258/384/265
f 258/384/266 277/385/266 259/367/266
f 277/385/267 260/368/267 259/367/267
f 260/368/268 279/386/268 261/369/268
f 279/386/269 244/352/269 261/369/269
f 262/370/270 281/387/270 263/388/270
f 263/388/271 282/389/271 264/372/271
f 28/45/272 29/390/272 11/46/272
f 371/391/273 355/392/273 336/393/273
f 266/373/274 285/394/274 267/375/274
f 285/394/275 268/376/275 267/375/275
f 308/18/1 326/3/1 430/2/1
f 17/395/276 349/19/276 344/396/276
f 404/1/1 326/3/1 403/397/1
f 14/13/277 15/54/277 4/14/277
f 288/398/278 307/399/278 342/400/278
f 273/380/279 292/401/279 274/382/279
f 318/402/280 283/403/280 393/404/280
f 349/19/281 17/395/281 18/20/281
f 1/405/282 430/406/282 9/407/282
f 295/408/283 278/409/283 277/385/283
f 278/409/284 297/410/284 279/386/284
f 297/410/285 262/370/285 279/386/285
f 280/411/286 299/412/286 281/413/286
f 299/414/287 282/415/287 281/416/287
f 386/417/288 398/418/288 395/419/288
f 355/392/289 284/420/289 353/421/289
f 302/422/290 285/423/290 284/420/290
f 303/424/291 286/425/291 285/423/291
f 314/426/292 347/427/292 293/428/292
f 326/3/1 332/429/1 403/397/1
f 312/430/293 329/431/293 289/432/293
f 330/433/294 325/434/294 307/399/294
f 306/435/295 291/436/295 305/437/295
f 309/438/296 292/439/296 291/440/296
f 360/441/297 350/442/297 348/443/297
f 8/444/298 402/445/298 7/446/298
f 408/447/299 295/448/299 319/449/299
f 404/1/1 405/450/1 430/2/1
f 341/451/300 347/452/300 331/453/300
f 315/454/301 280/411/301 297/455/301
f 316/456/302 299/412/302 298/457/302
f 430/41/303 405/458/303 26/39/303
f 20/62/304 21/30/304 401/459/304
f 370/460/305 302/422/305 355/392/305
f 320/461/306 303/424/306 302/422/306
f 321/462/307 304/463/307 303/424/307
f 307/399/308 289/432/308 330/433/308
f 288/464/309 287/465/309 272/466/309
f 305/467/310 291/468/310 272/466/310
f 2/469/311 332/8/311 13/7/311
f 323/470/312 309/471/312 306/435/312
f 327/472/313 310/473/313 309/438/313
f 4/14/314 15/54/314 16/15/314
f 304/474/315 331/475/315 314/426/315
f 408/447/316 387/476/316 313/477/316
f 312/478/317 289/479/317 271/379/317
f 388/480/318 315/454/318 376/481/318
f 333/482/319 298/457/319 315/454/319
f 334/483/320 317/484/320 316/456/320
f 424/485/321 421/486/321 412/487/321
f 22/31/322 23/34/322 7/32/322
f 370/460/323 338/488/323 320/461/323
f 338/488/324 321/462/324 320/461/324
f 321/462/325 340/489/325 322/490/325
f 25/73/326 404/36/326 403/491/326
f 347/427/327 341/492/327 348/443/327
f 368/21/328 18/20/328 19/22/328
f 368/493/1 399/494/1 401/495/1
f 323/496/329 345/497/329 327/498/329
f 327/499/330 346/500/330 328/501/330
f 294/502/331 293/503/331 269/377/331
f 269/377/332 311/504/332 270/505/332
f 6/506/333 402/29/333 22/28/333
f 402/29/334 401/459/334 21/30/334
f 390/507/335 333/482/335 388/480/335
f 333/482/336 334/483/336 316/456/336
f 346/508/337 377/509/337 328/510/337
f 30/48/338 31/51/338 13/50/338
f 286/425/339 314/511/339 294/512/339
f 357/513/340 356/514/340 300/515/340
f 300/515/341 356/514/341 354/516/341
f 383/517/342 397/518/342 391/519/342
f 358/520/343 341/492/343 340/521/343
f 10/43/344 308/6/344 290/522/344
f 350/442/345 361/523/345 365/524/345
f 362/525/346 324/526/346 361/523/346
f 363/527/347 342/528/347 362/529/347
f 345/530/348 364/531/348 346/500/348
f 9/42/349 430/41/349 27/40/349
f 393/404/350 366/532/350 392/533/350
f 392/533/351 367/534/351 394/535/351
f 394/535/352 367/534/352 395/536/352
f 396/537/353 351/538/353 390/507/353
f 364/539/354 389/540/354 346/508/354
f 11/46/355 29/390/355 30/48/355
f 282/541/356 354/516/356 352/542/356
f 352/543/357 336/544/357 265/545/357
f 353/546/358 284/547/358 266/373/358
f 313/477/359 387/476/359 375/548/359
f 414/549/360 416/550/360 358/551/360
f 11/4/361 12/9/361 326/5/361
f 376/481/362 315/454/362 297/455/362
f 360/552/363 379/553/363 361/554/363
f 379/553/364 362/529/364 361/554/364
f 380/555/365 363/527/365 362/529/365
f 363/527/366 382/556/366 364/557/366
f 23/34/367 24/71/367 8/35/367
f 383/517/368 384/558/368 366/559/368
f 366/559/369 385/560/369 367/561/369
f 9/42/370 27/40/370 10/43/370
f 19/22/371 20/62/371 400/24/371
f 310/473/372 377/509/372 337/562/372
f 319/563/373 295/408/373 277/385/373
f 292/439/374 337/562/374 301/564/374
f 301/565/375 283/566/375 275/567/375
f 275/567/376 318/568/376 276/383/376
f 31/83/377 32/86/377 14/13/377
f 14/52/378 32/569/378 33/570/378
f 15/54/379 33/53/379 34/55/379
f 418/571/380 421/486/380 378/572/380
f 17/57/381 35/573/381 36/59/381
f 18/60/382 36/59/382 37/574/382
f 37/574/383 38/63/383 20/25/383
f 38/63/384 39/575/384 21/64/384
f 21/30/385 39/97/385 40/65/385
f 40/66/386 41/69/386 23/67/386
f 41/69/387 42/576/387 24/70/387
f 24/70/388 42/576/388 43/577/388
f 44/578/389 45/579/389 27/76/389
f 27/76/390 45/579/390 28/45/390
f 332/8/391 326/5/391 12/9/391
f 25/73/392 43/72/392 44/74/392
f 385/560/393 429/580/393 386/417/393
f 384/558/394 428/581/394 385/560/394
f 426/582/395 384/558/395 383/517/395
f 382/556/396 426/582/396 383/517/396
f 381/583/397 425/584/397 382/556/397
f 423/585/398 381/583/398 380/555/398
f 422/586/399 380/555/399 379/553/399
f 378/572/400 422/586/400 379/553/400
f 386/417/401 429/580/401 420/587/401
f 369/588/402 386/417/402 419/589/402
f 34/56/403 35/573/403 17/57/403
f 417/590/404 378/572/404 360/552/404
f 416/550/405 359/591/405 358/551/405
f 369/588/406 419/589/406 415/592/406
f 375/548/407 411/593/407 296/594/407
f 414/595/408 358/596/408 340/489/408
f 412/597/409 339/598/409 338/488/409
f 371/391/410 412/597/410 338/488/410
f 409/599/411 335/600/411 334/483/411
f 334/483/412 415/601/412 409/599/412
f 357/513/413 407/602/413 372/603/413
f 335/604/414 410/605/414 407/606/414
f 404/36/415 25/73/415 26/37/415
f 372/603/416 406/607/416 374/608/416
f 28/77/417 46/108/417 47/78/417
f 29/79/418 47/78/418 48/80/418
f 48/82/419 49/85/419 31/83/419
f 49/85/420 50/87/420 32/86/420
f 50/87/421 51/114/421 33/53/421
f 33/53/422 51/114/422 52/88/422
f 52/89/423 53/117/423 35/90/423
f 35/90/424 53/117/424 54/92/424
f 54/92/425 55/94/425 37/61/425
f 55/94/426 56/96/426 38/95/426
f 56/96/427 57/121/427 39/97/427
f 39/97/428 57/121/428 58/98/428
f 58/99/429 59/102/429 41/100/429
f 59/102/430 60/125/430 42/103/430
f 42/103/431 60/125/431 61/104/431
f 43/72/432 61/104/432 62/105/432
f 62/106/433 63/129/433 45/107/433
f 45/107/434 63/129/434 46/108/434
f 46/108/435 64/130/435 65/109/435
f 47/78/436 65/109/436 66/110/436
f 66/111/437 67/112/437 49/85/437
f 67/112/438 68/135/438 50/87/438
f 50/87/439 68/135/439 69/113/439
f 51/114/440 69/113/440 70/115/440
f 70/116/441 71/139/441 53/117/441
f 53/609/442 71/140/442 72/142/442
f 72/118/443 73/119/443 55/94/443
f 73/119/444 74/120/444 56/96/444
f 74/120/445 75/146/445 57/121/445
f 57/121/446 75/146/446 76/122/446
f 76/123/447 77/124/447 59/102/447
f 77/124/448 78/150/448 60/125/448
f 60/125/449 78/150/449 79/126/449
f 61/104/450 79/126/450 80/127/450
f 80/128/451 81/154/451 63/129/451
f 63/129/452 81/154/452 64/130/452
f 64/130/453 82/155/453 83/131/453
f 65/109/454 83/131/454 84/132/454
f 84/133/455 85/134/455 67/112/455
f 85/134/456 86/160/456 68/135/456
f 68/135/457 86/160/457 87/136/457
f 69/113/458 87/136/458 88/137/458
f 88/138/459 89/164/459 71/139/459
f 71/140/460 89/165/460 90/141/460
f 90/143/461 91/144/461 73/119/461
f 91/144/462 92/145/462 74/120/462
f 92/145/463 93/170/463 75/146/463
f 75/146/464 93/170/464 94/147/464
f 94/148/465 95/149/465 77/124/465
f 95/149/466 96/174/466 78/150/466
f 78/150/467 96/174/467 97/151/467
f 79/126/468 97/151/468 98/152/468
f 98/153/469 99/178/469 81/154/469
f 81/154/470 99/178/470 82/155/470
f 82/155/471 100/179/471 101/156/471
f 83/131/472 101/156/472 102/157/472
f 102/158/473 103/159/473 85/134/473
f 103/159/474 104/161/474 86/160/474
f 104/161/475 105/185/475 87/136/475
f 87/136/476 105/185/476 106/162/476
f 106/163/477 107/188/477 89/164/477
f 89/165/478 107/189/478 108/166/478
f 108/167/479 109/168/479 91/144/479
f 109/168/480 110/169/480 92/145/480
f 110/169/481 111/194/481 93/170/481
f 93/170/482 111/194/482 112/171/482
f 112/172/483 113/197/483 95/149/483
f 95/149/484 113/197/484 114/173/484
f 96/174/485 114/173/485 115/175/485
f 97/151/486 115/175/486 116/176/486
f 116/177/487 117/202/487 99/178/487
f 99/178/488 117/202/488 100/179/488
f 100/179/489 118/203/489 119/180/489
f 101/156/490 119/180/490 120/181/490
f 120/182/491 121/183/491 103/159/491
f 121/183/492 122/207/492 104/161/492
f 104/161/493 122/207/493 123/184/493
f 105/185/494 123/184/494 124/186/494
f 124/187/495 125/211/495 107/188/495
f 107/189/496 125/212/496 126/190/496
f 126/191/497 127/192/497 109/168/497
f 127/192/498 128/193/498 110/169/498
f 128/193/499 129/217/499 111/194/499
f 111/194/500 129/217/500 130/195/500
f 130/196/501 131/220/501 113/197/501
f 113/197/502 131/220/502 132/198/502
f 114/173/503 132/198/503 133/199/503
f 115/175/504 133/199/504 134/200/504
f 134/201/505 135/225/505 117/202/505
f 117/202/506 135/225/506 118/203/506
f 118/203/507 136/226/507 137/204/507
f 137/204/508 138/228/508 120/181/508
f 138/205/509 139/206/509 121/183/509
f 139/206/510 140/231/510 122/207/510
f 122/207/511 140/231/511 141/208/511
f 123/184/512 141/208/512 142/209/512
f 142/210/513 143/234/513 125/211/513
f 125/212/514 143/235/514 144/213/514
f 144/214/515 145/215/515 127/192/515
f 145/215/516 146/239/516 128/193/516
f 128/193/517 146/239/517 147/216/517
f 129/217/518 147/216/518 148/218/518
f 148/219/519 149/243/519 131/220/519
f 131/220/520 149/243/520 150/221/520
f 132/198/521 150/221/521 151/222/521
f 133/610/522 151/246/522 152/224/522
f 152/224/523 153/249/523 135/225/523
f 135/225/524 153/249/524 136/226/524
f 136/226/525 154/250/525 155/227/525
f 155/227/526 156/253/526 138/228/526
f 156/229/527 157/230/527 139/206/527
f 157/230/528 158/256/528 140/231/528
f 140/231/529 158/256/529 159/232/529
f 159/232/530 160/259/530 142/209/530
f 160/233/531 161/261/531 143/234/531
f 143/235/532 161/262/532 162/236/532
f 162/237/533 163/238/533 145/215/533
f 163/238/534 164/240/534 146/239/534
f 164/240/535 165/267/535 147/216/535
f 147/611/536 165/268/536 166/270/536
f 148/219/537 166/270/537 167/242/537
f 149/243/538 167/242/538 168/244/538
f 150/221/539 168/244/539 169/245/539
f 151/246/540 169/273/540 170/247/540
f 152/224/541 170/247/541 171/248/541
f 153/249/542 171/248/542 154/250/542
f 172/251/543 173/277/543 155/227/543
f 155/227/544 173/277/544 174/252/544
f 174/254/545 175/255/545 157/230/545
f 175/255/546 176/257/546 158/256/546
f 176/257/547 177/258/547 159/232/547
f 177/258/548 178/283/548 160/259/548
f 178/283/549 179/285/549 161/262/549
f 161/262/550 179/285/550 180/263/550
f 180/264/551 181/265/551 163/238/551
f 181/265/552 182/266/552 164/240/552
f 182/266/553 183/290/553 165/267/553
f 165/268/554 183/291/554 184/269/554
f 166/270/555 184/269/555 185/271/555
f 167/242/556 185/271/556 186/272/556
f 186/272/557 187/295/557 169/245/557
f 169/273/558 187/296/558 188/274/558
f 170/247/559 188/274/559 189/275/559
f 171/248/560 189/275/560 172/251/560
f 190/276/561 191/300/561 173/277/561
f 173/612/562 191/301/562 192/279/562
f 192/279/563 193/280/563 175/255/563
f 193/280/564 194/281/564 176/257/564
f 194/281/565 195/282/565 177/258/565
f 195/282/566 196/284/566 178/283/566
f 196/284/567 197/286/567 179/285/567
f 197/286/568 198/613/568 180/263/568
f 198/287/569 199/288/569 181/265/569
f 199/288/570 200/289/570 182/266/570
f 200/289/571 201/312/571 183/290/571
f 183/291/572 201/313/572 202/292/572
f 184/269/573 202/292/573 203/293/573
f 185/271/574 203/293/574 204/294/574
f 204/294/575 205/318/575 187/295/575
f 187/295/576 205/318/576 206/614/576
f 188/274/577 206/297/577 207/298/577
f 207/298/578 190/276/578 172/251/578
f 208/299/579 209/615/579 191/300/579
f 191/616/580 209/324/580 210/327/580
f 192/279/581 210/302/581 211/303/581
f 211/303/582 212/304/582 194/281/582
f 212/304/583 213/305/583 195/282/583
f 213/305/584 214/306/584 196/284/584
f 214/333/585 215/307/585 197/309/585
f 215/307/586 216/336/586 198/308/586
f 198/287/587 216/617/587 217/310/587
f 217/310/588 218/311/588 200/289/588
f 218/311/589 219/618/589 201/312/589
f 201/619/590 219/341/590 220/343/590
f 202/292/591 220/314/591 221/315/591
f 203/293/592 221/315/592 222/316/592
f 204/294/593 222/316/593 223/317/593
f 223/319/594 224/348/594 206/320/594
f 206/297/595 224/620/595 225/322/595
f 225/322/596 208/299/596 190/276/596
f 226/323/597 227/353/597 209/324/597
f 209/324/598 227/353/598 228/326/598
f 210/327/599 228/326/599 229/328/599
f 229/328/600 230/356/600 212/330/600
f 212/330/601 230/356/601 231/331/601
f 231/331/602 232/334/602 214/333/602
f 232/334/603 233/335/603 215/307/603
f 233/335/604 234/360/604 216/336/604
f 216/336/605 234/360/605 235/337/605
f 235/337/606 236/340/606 218/339/606
f 236/340/607 237/363/607 219/341/607
f 219/341/608 237/363/608 238/342/608
f 220/343/609 238/342/609 239/344/609
f 239/344/610 240/366/610 222/346/610
f 222/346/611 240/366/611 241/347/611
f 241/347/612 242/349/612 224/348/612
f 242/349/613 243/351/613 225/350/613
f 243/351/614 226/323/614 208/325/614
f 244/352/615 245/371/615 227/353/615
f 227/353/616 245/371/616 246/354/616
f 246/354/617 247/355/617 229/328/617
f 247/355/618 248/374/618 230/356/618
f 230/356/619 248/374/619 249/357/619
f 249/357/620 250/358/620 232/334/620
f 250/358/621 251/359/621 233/335/621
f 251/359/622 252/378/622 234/360/622
f 234/360/623 252/378/623 253/361/623
f 253/361/624 254/362/624 236/340/624
f 254/362/625 255/381/625 237/363/625
f 237/363/626 255/381/626 256/364/626
f 256/364/627 257/365/627 239/344/627
f 257/365/628 258/384/628 240/366/628
f 240/366/629 258/384/629 259/367/629
f 259/367/630 260/368/630 242/349/630
f 260/368/631 261/369/631 243/351/631
f 261/369/632 244/352/632 226/323/632
f 262/370/633 263/388/633 245/371/633
f 245/371/634 263/388/634 264/372/634
f 264/372/635 265/545/635 247/355/635
f 247/355/636 265/545/636 266/373/636
f 248/374/637 266/373/637 267/375/637
f 267/375/638 268/376/638 250/358/638
f 268/376/639 269/377/639 251/359/639
f 269/377/640 270/505/640 252/378/640
f 252/378/641 270/505/641 271/379/641
f 271/379/642 272/466/642 254/362/642
f 254/362/643 272/466/643 273/380/643
f 255/381/644 273/380/644 274/382/644
f 274/382/645 275/567/645 257/365/645
f 257/365/646 275/567/646 276/383/646
f 258/384/647 276/383/647 277/385/647
f 277/385/648 278/409/648 260/368/648
f 260/368/649 278/409/649 279/386/649
f 279/386/650 262/370/650 244/352/650
f 262/370/651 280/621/651 281/387/651
f 263/388/652 281/387/652 282/389/652
f 372/622/653 374/623/653 356/624/653
f 374/623/273 373/625/273 352/626/273
f 373/625/273 371/391/273 336/393/273
f 371/391/273 370/460/273 355/392/273
f 355/392/653 353/421/653 336/393/653
f 336/393/273 352/626/273 373/625/273
f 352/626/273 354/627/273 374/623/273
f 354/627/273 356/624/273 374/623/273
f 356/624/653 357/628/653 372/622/653
f 266/373/654 284/547/654 285/394/654
f 285/394/655 286/629/655 268/376/655
f 344/396/656 5/630/656 16/631/656
f 16/631/657 17/395/657 344/396/657
f 325/434/278 324/526/278 343/632/278
f 343/632/278 342/400/278 307/399/278
f 342/400/278 323/470/278 306/435/278
f 288/398/278 306/435/278 305/437/278
f 342/400/278 306/435/278 288/398/278
f 305/437/278 287/633/278 288/398/278
f 307/399/278 325/434/278 343/632/278
f 273/380/658 291/468/658 292/401/658
f 394/535/280 395/536/280 375/548/280
f 395/536/280 398/634/280 390/635/280
f 375/548/280 395/536/280 390/635/280
f 398/634/280 396/636/280 390/635/280
f 390/635/280 388/637/280 376/638/280
f 376/638/280 411/593/280 375/548/280
f 376/638/280 375/548/280 390/635/280
f 375/548/280 387/476/280 394/535/280
f 397/639/280 393/404/280 389/540/280
f 393/404/280 392/533/280 318/402/280
f 337/562/659 283/403/659 301/564/659
f 392/533/280 394/535/280 408/447/280
f 394/535/280 387/476/280 408/447/280
f 408/447/280 319/449/280 392/533/280
f 319/449/280 318/402/280 392/533/280
f 391/640/280 397/639/280 389/540/280
f 283/403/280 337/562/280 393/404/280
f 389/540/280 393/404/280 337/562/280
f 377/509/280 389/540/280 337/562/280
f 1/405/660 290/17/660 430/2/660
f 295/408/661 296/641/661 278/409/661
f 278/409/662 296/641/662 297/410/662
f 297/410/663 280/621/663 262/370/663
f 280/411/664 298/457/664 299/412/664
f 299/414/665 300/642/665 282/415/665
f 395/419/288 367/561/288 386/417/288
f 367/561/666 385/560/666 386/417/666
f 355/392/667 302/422/667 284/420/667
f 302/422/668 303/424/668 285/423/668
f 303/424/669 304/463/669 286/425/669
f 348/443/292 350/442/292 311/643/292
f 350/442/292 365/524/292 312/430/292
f 311/643/292 350/442/292 312/430/292
f 365/524/292 324/526/292 329/431/292
f 324/526/292 325/434/292 330/433/292
f 329/431/292 324/526/292 330/433/292
f 329/431/292 312/430/292 365/524/292
f 311/643/292 293/428/292 348/443/292
f 293/428/292 294/644/292 314/426/292
f 348/443/292 293/428/292 347/427/292
f 314/426/292 331/475/292 347/427/292
f 306/435/670 309/471/670 291/436/670
f 309/438/671 310/473/671 292/439/671
f 348/645/672 341/451/672 359/591/672
f 359/591/673 360/552/673 348/645/673
f 8/444/674 403/397/674 3/646/674
f 403/397/675 332/429/675 3/646/675
f 332/429/676 2/647/676 3/646/676
f 4/648/677 5/649/677 344/650/677
f 3/646/678 4/648/678 8/444/678
f 4/648/679 344/650/679 402/445/679
f 8/444/680 4/648/680 402/445/680
f 402/445/681 6/651/681 7/446/681
f 408/447/682 313/477/682 295/448/682
f 331/475/683 322/652/683 340/521/683
f 340/521/684 341/492/684 331/475/684
f 315/454/685 298/457/685 280/411/685
f 316/456/686 317/484/686 299/412/686
f 370/460/687 320/461/687 302/422/687
f 320/461/688 321/462/688 303/424/688
f 321/462/689 322/490/689 304/463/689
f 288/398/690 289/432/690 307/399/690
f 289/432/308 329/431/308 330/433/308
f 272/466/691 271/379/691 289/479/691
f 289/479/309 288/464/309 272/466/309
f 273/380/692 272/466/692 291/468/692
f 272/466/310 287/465/310 305/467/310
f 323/470/693 327/499/693 309/471/693
f 327/499/694 328/501/694 310/653/694
f 304/474/695 322/652/695 331/475/695
f 271/379/696 270/505/696 312/478/696
f 270/505/697 311/504/697 312/478/697
f 388/480/698 333/482/698 315/454/698
f 333/482/699 316/456/699 298/457/699
f 334/483/700 335/600/700 317/484/700
f 420/587/321 429/580/321 428/581/321
f 428/581/321 427/654/321 424/485/321
f 427/654/321 426/582/321 425/584/321
f 424/485/321 427/654/321 425/584/321
f 424/485/321 423/585/321 421/486/321
f 423/585/321 422/586/321 421/486/321
f 421/486/321 418/571/321 412/487/321
f 418/571/321 417/590/321 413/655/321
f 419/589/321 420/587/321 407/606/321
f 420/587/321 428/581/321 407/606/321
f 409/656/321 415/592/321 410/605/321
f 415/592/321 419/589/321 410/605/321
f 407/606/321 410/605/321 419/589/321
f 374/657/321 406/658/321 412/487/321
f 406/658/321 407/606/321 412/487/321
f 412/487/321 373/659/321 374/657/321
f 416/550/321 414/549/321 417/590/321
f 414/549/321 413/655/321 417/590/321
f 413/655/321 412/487/321 418/571/321
f 428/581/321 412/487/321 407/606/321
f 428/581/321 424/485/321 412/487/321
f 370/460/701 371/391/701 338/488/701
f 338/488/702 339/598/702 321/462/702
f 321/462/703 339/598/703 340/489/703
f 403/491/704 8/35/704 24/71/704
f 24/71/705 25/73/705 403/491/705
f 399/494/1 400/660/1 401/495/1
f 401/495/1 402/445/1 344/650/1
f 344/650/1 349/661/1 401/495/1
f 349/661/1 368/493/1 401/495/1
f 323/496/706 342/528/706 345/497/706
f 327/498/707 345/497/707 346/662/707
f 269/377/708 268/376/708 294/502/708
f 268/376/709 286/629/709 294/502/709
f 269/377/710 293/503/710 311/504/710
f 390/507/711 351/538/711 333/482/711
f 333/482/712 351/538/712 334/483/712
f 346/508/713 389/540/713 377/509/713
f 286/663/714 304/474/714 314/426/714
f 300/642/715 299/414/715 357/628/715
f 299/412/716 317/484/716 357/513/716
f 391/519/717 364/557/717 382/556/717
f 382/556/718 383/517/718 391/519/718
f 358/551/719 359/591/719 341/451/719
f 290/522/720 1/44/720 10/43/720
f 10/43/721 11/4/721 308/6/721
f 350/442/722 360/441/722 361/523/722
f 343/664/723 324/665/723 362/529/723
f 324/526/724 365/524/724 361/523/724
f 345/497/725 342/528/725 363/527/725
f 342/528/726 343/664/726 362/529/726
f 345/497/727 363/527/727 364/557/727
f 392/533/728 366/532/728 367/534/728
f 396/537/729 369/666/729 351/538/729
f 364/539/730 391/640/730 389/540/730
f 282/541/731 300/515/731 354/516/731
f 265/545/732 264/372/732 352/543/732
f 264/372/733 282/389/733 352/543/733
f 266/373/734 265/545/734 353/546/734
f 265/545/735 336/544/735 353/546/735
f 297/455/736 296/667/736 376/481/736
f 296/667/737 411/668/737 376/481/737
f 360/552/738 378/572/738 379/553/738
f 379/553/739 380/555/739 362/529/739
f 380/555/740 381/583/740 363/527/740
f 363/527/741 381/583/741 382/556/741
f 366/559/742 393/669/742 383/517/742
f 393/669/742 397/518/742 383/517/742
f 366/559/743 384/558/743 385/560/743
f 310/473/744 328/510/744 377/509/744
f 277/385/745 276/383/745 319/563/745
f 276/383/746 318/568/746 319/563/746
f 292/439/747 310/473/747 337/562/747
f 275/567/748 274/382/748 292/401/748
f 292/401/749 301/565/749 275/567/749
f 275/567/750 283/566/750 318/568/750
f 385/560/751 428/581/751 429/580/751
f 384/558/752 427/654/752 428/581/752
f 426/582/753 427/654/753 384/558/753
f 382/556/754 425/584/754 426/582/754
f 381/583/755 424/485/755 425/584/755
f 423/585/756 424/485/756 381/583/756
f 422/586/757 423/585/757 380/555/757
f 378/572/758 421/486/758 422/586/758
f 369/588/759 396/670/759 398/418/759
f 398/418/759 386/417/759 369/588/759
f 386/417/402 420/587/402 419/589/402
f 360/552/760 359/591/760 417/590/760
f 417/590/761 418/571/761 378/572/761
f 416/550/762 417/590/762 359/591/762
f 296/594/763 295/448/763 375/548/763
f 295/448/764 313/477/764 375/548/764
f 340/489/765 339/598/765 414/595/765
f 339/598/766 413/671/766 414/595/766
f 412/597/767 413/671/767 339/598/767
f 371/391/768 373/625/768 412/597/768
f 409/656/769 410/605/769 335/604/769
f 334/672/770 351/673/770 415/592/770
f 351/673/771 369/588/771 415/592/771
f 357/513/772 317/484/772 407/602/772
f 317/674/773 335/604/773 407/606/773
f 407/602/774 406/607/774 372/603/774
