# collision hull for rock_mega_b - convex, faces 184
o rock_mega_b_col
v 1.06293 5.25184 0.20037
v -1.60000 0.00000 0.64749
v 1.30525 2.83384 1.19155
v 0.07967 4.11390 -0.74705
v 0.15189 0.00001 1.35632
v 0.25095 0.01418 1.37727
v 1.32574 2.75862 1.17416
v 1.32357 2.76654 1.17602
v 0.29092 0.02164 1.38546
v 1.31086 2.81301 1.18696
v 1.32521 2.76056 1.17461
v -0.20438 0.88866 -1.44120
v -0.45175 0.03503 -1.32691
v -0.42468 0.09964 -1.35001
v -0.37396 0.24805 -1.38323
v 1.33942 2.70922 1.16189
v 1.35368 2.65823 1.14868
v 1.37101 2.59692 1.13210
v 1.38634 2.54332 1.11694
v 1.39590 2.51021 1.10722
v 1.34065 2.70477 1.16079
v 1.35575 2.65085 1.14676
v -0.45844 0.01980 -1.32094
v 1.40249 2.48741 1.10049
v 1.00617 0.00000 -1.05314
v -0.46778 0.00000 -1.31204
v 1.60000 1.90465 0.81784
v 1.46480 2.27727 1.03258
v 1.45212 2.31926 1.04702
v 1.42807 2.39994 1.07358
v 1.53923 0.16540 0.90602
v 1.54934 0.28970 0.92115
v 1.55668 0.41647 0.92569
v 1.58660 1.07453 0.91818
v 1.58772 1.12495 0.91321
v 1.58912 1.19481 0.90580
v 1.59034 1.26352 0.89790
v 1.59140 1.33115 0.88959
v 1.52888 0.06185 0.88617
v 1.54565 0.23826 0.91791
v 1.55421 0.36925 0.92500
v 1.55740 0.43084 0.92578
v 1.58510 1.01363 0.92360
v 1.58824 1.14931 0.91073
v 1.58955 1.21760 0.90326
v 1.59071 1.28614 0.89519
v 1.43238 3.92131 -0.17284
v 0.42988 0.05732 1.41241
v 0.04805 0.20213 -1.44831
v -0.00681 0.33613 -1.44944
v 0.07453 0.15122 -1.44535
v 0.10374 0.10178 -1.44090
v 0.13549 0.05418 -1.43499
v 0.16560 0.01407 -1.42850
v 0.16979 0.00846 -1.42760
v 0.00210 0.31011 -1.45000
v 0.00905 0.29286 -1.44991
v 0.02374 0.25544 -1.44987
v -0.02457 0.39300 -1.44743
v -0.01704 0.36640 -1.44872
v -0.15249 0.84540 -1.42547
v 0.29470 0.00000 1.37497
v 0.17692 0.00000 -1.42588
v 1.02736 1.04776 1.40020
v -1.56308 0.00000 0.95606
v 1.20483 3.45442 1.07308
v -0.52784 5.12720 0.40926
v 1.26700 2.57956 1.22154
v 0.32643 0.02898 1.39262
v 0.43612 0.00001 1.38351
v 0.73064 0.24080 1.45606
v 1.10573 1.00314 1.33964
v 0.97075 0.15757 1.32626
v 1.09761 0.00005 1.20913
v 1.21930 0.25250 1.20793
v 1.05623 0.40810 1.32314
v 1.43976 0.00032 0.97710
v 1.55155 0.42913 0.93220
v 1.36392 1.00212 1.12920
v 1.39472 1.01064 1.10250
v 1.44870 0.29520 1.02784
v 1.45619 1.02951 1.04732
v 1.48657 1.04003 1.01876
v 1.57208 1.00792 0.93737
v 0.69324 0.00015 1.36512
v 0.90804 0.00000 1.29610
v 0.98378 0.00000 1.26442
v 1.02068 0.00000 1.24748
v 1.05794 0.00000 1.22929
v 1.09553 0.00000 1.20978
v 0.94998 0.00000 1.27905
v 0.99892 0.00000 1.25755
v 1.04709 0.00000 1.23467
v 1.09436 0.00000 1.21040
vn 0.4958 0.8683 0.0186
vn -0.8087 -0.5681 -0.1523
vn 0.5006 0.2108 0.8397
vn -0.2111 0.3651 -0.9067
vn -0.1684 -0.6550 0.7366
vn -0.1756 -0.1852 0.9669
vn 0.8349 0.1005 0.5412
vn 0.9387 0.1888 0.2884
vn -0.1651 -0.1646 0.9724
vn 0.8316 0.1031 0.5457
vn 0.9365 0.1861 0.2972
vn -0.2769 0.1835 -0.9432
vn -0.5615 -0.0705 -0.8245
vn -0.5490 -0.0420 -0.8348
vn -0.5399 0.0250 -0.8414
vn 0.9323 0.1803 0.3135
vn 0.9423 0.1926 0.2737
vn 0.8541 0.1029 0.5099
vn 0.8607 0.1049 0.4983
vn 0.8638 0.1047 0.4929
vn 0.8415 0.1009 0.5307
vn 0.8483 0.1020 0.5195
vn -0.5624 -0.0934 -0.8216
vn 0.8668 0.1067 0.4870
vn 0.5798 -0.5925 -0.5593
vn -0.5376 -0.6251 -0.5659
vn 0.9928 0.0303 0.1156
vn 0.8869 0.1087 0.4491
vn 0.8810 0.1109 0.4599
vn 0.8729 0.1085 0.4756
vn 0.9672 -0.1268 0.2201
vn 0.9659 -0.0765 0.2474
vn 0.9692 -0.0535 0.2405
vn 0.9856 -0.0090 0.1686
vn 0.9883 -0.0068 0.1526
vn 0.9902 -0.0041 0.1397
vn 0.9918 -0.0021 0.1280
vn 0.9931 -0.0006 0.1170
vn 0.8802 -0.4622 0.1081
vn 0.9467 -0.1065 0.3040
vn 0.9642 -0.0617 0.2577
vn 0.9704 -0.0474 0.2370
vn 0.9677 -0.0299 0.2504
vn 0.9890 -0.0056 0.1481
vn 0.9911 -0.0034 0.1334
vn 0.9924 -0.0013 0.1228
vn 0.8661 0.2401 -0.4384
vn -0.0922 -0.1799 0.9794
vn 0.1216 0.0123 -0.9925
vn 0.4044 0.1580 -0.9008
vn 0.1213 -0.0096 -0.9926
vn 0.1226 -0.0331 -0.9919
vn 0.1231 -0.0597 -0.9906
vn 0.3896 0.1454 -0.9094
vn 0.1234 -0.0880 -0.9885
vn 0.1223 0.0517 -0.9911
vn 0.4035 0.1577 -0.9013
vn 0.1224 0.0342 -0.9919
vn 0.4048 0.1582 -0.9006
vn 0.4048 0.1582 -0.9006
vn 0.4048 0.1582 -0.9006
vn -0.0509 -0.8491 0.5257
vn 0.1965 -0.6377 -0.7448
vn 0.2204 0.0576 0.9737
vn -0.6486 -0.5153 0.5601
vn 0.4802 0.2763 0.8325
vn -0.6072 0.7674 0.2062
vn 0.2375 0.0780 0.9683
vn -0.1461 -0.1804 0.9727
vn 0.0072 -0.8420 0.5394
vn 0.1008 -0.1005 0.9898
vn 0.6131 -0.0283 0.7895
vn 0.4270 -0.2289 0.8748
vn 0.3400 -0.7534 0.5628
vn 0.5584 -0.1468 0.8165
vn 0.4699 -0.1035 0.8766
vn 0.5130 -0.7506 0.4163
vn 0.7233 -0.0379 0.6895
vn 0.6441 -0.0199 0.7646
vn 0.6639 -0.0162 0.7476
vn 0.6695 -0.0896 0.7374
vn 0.6782 -0.0141 0.7347
vn 0.6872 -0.0061 0.7264
vn 0.7104 -0.0157 0.7036
vn 0.1143 -0.8091 0.5765
vn 0.2093 -0.8107 0.5468
vn 0.2398 -0.8074 0.5390
vn 0.2556 -0.8047 0.5358
vn 0.2696 -0.8014 0.5340
vn 0.0320 -0.9978 0.0588
vn 0.2291 -0.8084 0.5423
vn 0.2462 -0.8075 0.5360
vn 0.2630 -0.8035 0.5340
vn 0.0340 -0.9973 0.0654
f 47//47 1//1 27//27
f 47//47 4//4 1//1
f 1//1 4//4 67//67
f 67//67 26//26 2//2
f 27//27 1//1 28//28
f 12//12 67//67 4//4
f 66//66 3//3 1//1
f 1//1 67//67 66//66
f 47//47 25//25 54//54
f 4//4 47//47 54//54
f 77//77 25//25 39//39
f 15//15 12//12 56//56
f 67//67 12//12 15//15
f 65//65 67//67 2//2
f 65//65 66//66 67//67
f 66//66 65//65 71//71
f 3//3 66//66 71//71
f 71//71 64//64 3//3
f 28//28 43//43 34//34
f 34//34 35//35 28//28
f 43//43 35//35 34//34
f 63//63 54//54 25//25
f 29//29 28//28 1//1
f 1//1 30//30 29//29
f 29//29 43//43 28//28
f 29//29 30//30 43//43
f 1//1 19//19 24//24
f 24//24 30//30 1//1
f 43//43 30//30 24//24
f 5//5 65//65 62//62
f 5//5 71//71 65//65
f 77//77 81//81 75//75
f 27//27 28//28 38//38
f 28//28 46//46 38//38
f 35//35 38//38 45//45
f 45//45 38//38 46//46
f 54//54 63//63 55//55
f 53//53 52//52 54//54
f 54//54 55//55 53//53
f 67//67 15//15 14//14
f 52//52 53//53 14//14
f 61//61 12//12 4//4
f 4//4 59//59 61//61
f 61//61 59//59 12//12
f 4//4 54//54 51//51
f 51//51 59//59 4//4
f 54//54 52//52 51//51
f 52//52 14//14 51//51
f 15//15 49//49 51//51
f 51//51 14//14 15//15
f 1//1 3//3 10//10
f 10//10 8//8 1//1
f 11//11 16//16 1//1
f 1//1 8//8 11//11
f 8//8 10//10 11//11
f 18//18 19//19 1//1
f 1//1 22//22 18//18
f 1//1 16//16 17//17
f 17//17 22//22 1//1
f 81//81 79//79 72//72
f 64//64 75//75 72//72
f 72//72 75//75 81//81
f 43//43 24//24 20//20
f 20//20 24//24 19//19
f 70//70 86//86 85//85
f 85//85 86//86 71//71
f 48//48 70//70 85//85
f 85//85 71//71 48//48
f 81//81 41//41 78//78
f 32//32 35//35 43//43
f 32//32 47//47 27//27
f 32//32 25//25 47//47
f 27//27 38//38 32//32
f 32//32 38//38 35//35
f 32//32 39//39 25//25
f 32//32 41//41 81//81
f 71//71 86//86 91//91
f 91//91 86//86 70//70
f 91//91 70//70 62//62
f 62//62 65//65 91//91
f 64//64 71//71 76//76
f 76//76 75//75 64//64
f 77//77 75//75 74//74
f 28//28 35//35 44//44
f 35//35 45//45 44//44
f 37//37 46//46 28//28
f 28//28 45//45 37//37
f 37//37 45//45 46//46
f 58//58 15//15 56//56
f 58//58 49//49 15//15
f 58//58 51//51 49//49
f 67//67 14//14 13//13
f 13//13 53//53 55//55
f 13//13 14//14 53//53
f 59//59 51//51 57//57
f 57//57 58//58 56//56
f 51//51 58//58 57//57
f 16//16 11//11 7//7
f 7//7 10//10 79//79
f 7//7 11//11 10//10
f 84//84 82//82 81//81
f 84//84 78//78 43//43
f 81//81 78//78 84//84
f 19//19 18//18 84//84
f 84//84 18//18 22//22
f 43//43 20//20 84//84
f 84//84 20//20 19//19
f 80//80 79//79 81//81
f 81//81 82//82 80//80
f 80//80 7//7 79//79
f 22//22 17//17 21//21
f 21//21 82//82 22//22
f 21//21 17//17 16//16
f 21//21 80//80 82//82
f 16//16 7//7 21//21
f 7//7 80//80 21//21
f 79//79 10//10 68//68
f 68//68 72//72 79//79
f 68//68 10//10 3//3
f 3//3 64//64 68//68
f 64//64 72//72 68//68
f 69//69 9//9 62//62
f 69//69 70//70 48//48
f 62//62 70//70 69//69
f 48//48 71//71 69//69
f 71//71 9//9 69//69
f 6//6 5//5 62//62
f 62//62 9//9 6//6
f 71//71 5//5 6//6
f 6//6 9//9 71//71
f 43//43 78//78 42//42
f 42//42 32//32 43//43
f 40//40 81//81 77//77
f 40//40 32//32 81//81
f 73//73 76//76 71//71
f 75//75 76//76 73//73
f 73//73 74//74 75//75
f 73//73 91//91 87//87
f 71//71 91//91 73//73
f 90//90 25//25 77//77
f 77//77 74//74 90//90
f 36//36 45//45 28//28
f 28//28 44//44 36//36
f 36//36 44//44 45//45
f 26//26 67//67 23//23
f 67//67 13//13 23//23
f 23//23 13//13 55//55
f 23//23 63//63 26//26
f 23//23 55//55 63//63
f 59//59 57//57 50//50
f 56//56 12//12 50//50
f 50//50 57//57 56//56
f 22//22 82//82 83//83
f 83//83 84//84 22//22
f 82//82 84//84 83//83
f 33//33 78//78 41//41
f 33//33 42//42 78//78
f 41//41 32//32 33//33
f 32//32 42//42 33//33
f 39//39 32//32 31//31
f 32//32 40//40 31//31
f 77//77 39//39 31//31
f 31//31 40//40 77//77
f 12//12 59//59 60//60
f 60//60 50//50 12//12
f 59//59 50//50 60//60
f 88//88 93//93 73//73
f 74//74 73//73 89//89
f 73//73 93//93 89//89
f 92//92 73//73 87//87
f 92//92 88//88 73//73
f 94//94 90//90 74//74
f 74//74 89//89 94//94
f 94//94 65//65 2//2
f 2//2 26//26 94//94
f 26//26 63//63 94//94
f 94//94 63//63 25//25
f 94//94 91//91 65//65
f 87//87 91//91 94//94
f 25//25 90//90 94//94
f 94//94 92//92 87//87
f 93//93 88//88 94//94
f 94//94 89//89 93//93
f 88//88 92//92 94//94
