# collision hull for rock_a - convex, faces 172
o rock_a_col
v -0.76736 0.00000 0.33509
v -0.70054 0.24302 0.42236
v -0.03922 0.82116 0.80000
v -0.43380 0.45198 -0.73980
v -0.18193 1.14327 0.22957
v 0.84493 0.52961 -0.32267
v 0.84473 0.42985 -0.32290
v 0.44408 0.89311 -0.60292
v 0.57661 1.01726 -0.40041
v -0.87504 0.37382 -0.42119
v -0.92500 0.00000 -0.33194
v -0.67852 0.54161 0.27608
v 0.90170 0.45156 0.36056
v 0.65632 1.19986 0.30032
v -0.75501 0.52110 -0.50879
v -0.25258 0.00000 -0.80020
v 0.17102 1.00845 0.76159
v -0.22509 1.12280 -0.08401
v 0.42996 0.02933 -0.74657
v 0.02084 0.93609 0.79824
v 0.08952 1.04906 0.70676
v -0.04305 1.06044 0.65828
v 0.29886 1.19301 0.59204
v 0.30454 1.19418 0.58846
v -0.01025 1.17097 0.52819
v 0.75040 1.07411 0.26855
v 0.69717 1.13962 0.21051
v 0.65237 1.17337 0.15993
v 0.52843 1.16174 -0.22142
v 0.06343 0.00025 0.61642
v 0.85966 0.37921 0.41559
v 0.34294 0.01809 0.52413
v 0.46595 0.03488 0.48490
v 0.48956 0.00062 0.37924
v 0.54029 0.01829 0.33445
v 0.63208 0.10652 0.44092
v 0.63187 0.07468 0.32921
v 0.80032 0.25578 0.41036
v 0.69991 0.12954 0.31855
v 0.73491 0.16442 0.30513
v 0.81664 0.26519 0.32830
v 0.37060 -0.00003 0.48450
v 0.67739 0.07231 -0.39151
v 0.74069 0.14434 -0.30676
v 0.92739 0.56044 0.30265
v 0.91849 0.67167 0.23444
v 0.82182 0.64738 -0.29509
v 0.87097 0.80827 0.14961
v 0.89596 0.79104 0.24885
v 0.69565 0.89759 -0.36465
v 0.65123 1.06790 -0.14972
v 0.82693 0.33712 -0.32942
v 0.58133 1.08453 -0.28853
v 0.45431 1.15126 -0.32170
v 0.47740 1.04009 -0.45226
v -0.72488 0.52130 -0.54725
v 0.63293 0.98194 -0.37286
v 0.66987 0.94436 -0.35195
v 0.55953 0.90057 -0.53884
v 0.62669 0.89822 -0.48297
v 0.62048 0.64353 -0.63296
v 0.49613 0.88092 -0.58457
v 0.80172 0.63604 -0.38535
v 0.76620 0.60389 -0.50011
v 0.70236 0.57845 -0.59695
v 0.80642 0.51937 -0.45923
v 0.77861 0.50528 -0.52856
v 0.83228 0.38947 -0.37792
v 0.75349 0.49674 -0.56834
v 0.68545 0.47707 -0.65537
v 0.81606 0.45573 -0.46229
v 0.78972 0.37756 -0.51826
v 0.80286 0.33046 -0.45850
v 0.74807 0.39852 -0.59835
v 0.68022 0.37032 -0.67363
v 0.75498 0.32297 -0.56956
v 0.70718 0.32688 -0.63719
v 0.66213 0.32199 -0.68238
v 0.60703 0.00147 -0.41564
v 0.52254 0.03366 -0.67481
v 0.61262 0.06033 -0.57853
v 0.63230 0.04456 -0.51719
v 0.68385 0.11554 -0.50719
v 0.71570 0.14620 -0.46769
v 0.74253 0.15212 -0.35501
v 0.39510 0.00005 -0.75379
v 0.52421 0.00005 -0.63871
v 0.58988 -0.00000 -0.48686
vn -0.6552 -0.6029 0.4552
vn -0.7231 0.0387 0.6897
vn -0.2529 0.0610 0.9656
vn -0.3128 0.2942 -0.9031
vn -0.4777 0.8719 0.1079
vn 0.9721 0.1167 -0.2033
vn 0.9869 -0.0800 -0.1403
vn 0.0661 0.5279 -0.8467
vn 0.5386 0.6685 -0.5129
vn -0.9090 0.2317 -0.3465
vn -0.7880 -0.5747 -0.2208
vn -0.8332 0.4391 0.3362
vn 0.9074 -0.0860 0.4114
vn 0.5041 0.8083 0.3042
vn -0.7513 0.5661 -0.3393
vn -0.1447 -0.6168 -0.7737
vn 0.2288 0.3462 0.9098
vn -0.4384 0.8670 -0.2368
vn 0.3619 -0.1704 -0.9165
vn -0.1784 0.2775 0.9440
vn -0.1581 0.7134 0.6827
vn -0.5019 0.6311 0.5914
vn 0.1103 0.8055 0.5823
vn 0.3152 0.8182 0.4808
vn -0.3513 0.8889 0.2941
vn 0.8359 0.4530 0.3098
vn 0.7817 0.6047 -0.1528
vn 0.6112 0.7671 -0.1950
vn 0.3351 0.9150 -0.2246
vn 0.0196 -0.7199 0.6938
vn 0.7442 -0.2030 0.6363
vn 0.3017 -0.5368 0.7879
vn 0.3832 -0.5947 0.7068
vn 0.2713 -0.9474 0.1697
vn 0.4654 -0.8752 0.1322
vn 0.5189 -0.5696 0.6374
vn 0.5795 -0.8022 0.1437
vn 0.6871 -0.4682 0.5556
vn 0.6752 -0.7263 0.1288
vn 0.7403 -0.6685 0.0707
vn 0.8532 -0.5193 0.0476
vn 0.1626 -0.9430 0.2904
vn 0.7546 -0.6529 -0.0647
vn 0.8314 -0.5555 -0.0130
vn 0.9373 0.0549 0.3443
vn 0.9909 0.1294 -0.0374
vn 0.9255 0.3044 -0.2251
vn 0.9076 0.3738 -0.1910
vn 0.8970 0.3289 0.2954
vn 0.8256 0.4525 -0.3370
vn 0.7669 0.5960 -0.2378
vn 0.9457 -0.3107 -0.0955
vn 0.6251 0.6885 -0.3677
vn 0.0852 0.8925 -0.4428
vn 0.1397 0.7399 -0.6581
vn -0.5614 0.3987 -0.7252
vn 0.6989 0.5936 -0.3990
vn 0.7827 0.5378 -0.3131
vn 0.4786 0.5259 -0.7031
vn 0.6570 0.4956 -0.5681
vn 0.3619 0.2933 -0.8849
vn 0.4045 0.4405 -0.8015
vn 0.9019 0.3105 -0.3003
vn 0.8227 0.3184 -0.4710
vn 0.6830 0.3242 -0.6545
vn 0.9190 0.1969 -0.3416
vn 0.8576 0.1707 -0.4852
vn 0.9735 -0.1385 -0.1819
vn 0.7859 0.1955 -0.5866
vn 0.4659 0.1900 -0.8642
vn 0.9435 0.0324 -0.3299
vn 0.9117 -0.0965 -0.3994
vn 0.9235 -0.2781 -0.2644
vn 0.8156 0.0055 -0.5786
vn 0.4631 0.0527 -0.8847
vn 0.8368 -0.2734 -0.4744
vn 0.7475 -0.2387 -0.6199
vn 0.4498 -0.0901 -0.8886
vn 0.4353 -0.8999 -0.0278
vn 0.6219 -0.4583 -0.6350
vn 0.7306 -0.4990 -0.4660
vn 0.7238 -0.6391 -0.2601
vn 0.8076 -0.4786 -0.3445
vn 0.8442 -0.4746 -0.2493
vn 0.8604 -0.4983 -0.1067
vn 0.1592 -0.6439 -0.7484
vn 0.3967 -0.8646 -0.3084
vn 0.3613 -0.9260 -0.1091
f 3//3 30//30 31//31
f 2//2 30//30 3//3
f 2//2 1//1 30//30
f 46//46 49//49 45//45
f 75//75 16//16 4//4
f 3//3 31//31 17//17
f 31//31 13//13 17//17
f 17//17 13//13 45//45
f 45//45 49//49 17//17
f 5//5 22//22 25//25
f 25//25 22//22 23//23
f 12//12 22//22 5//5
f 12//12 2//2 3//3
f 11//11 1//1 12//12
f 1//1 2//2 12//12
f 63//63 50//50 47//47
f 26//26 17//17 49//49
f 19//19 16//16 75//75
f 56//56 16//16 11//11
f 56//56 4//4 16//16
f 3//3 17//17 20//20
f 20//20 12//12 3//3
f 22//22 12//12 20//20
f 23//23 22//22 21//21
f 21//21 17//17 23//23
f 22//22 20//20 21//21
f 21//21 20//20 17//17
f 71//71 68//68 73//73
f 71//71 74//74 67//67
f 49//49 47//47 48//48
f 48//48 47//47 50//50
f 48//48 26//26 49//49
f 50//50 26//26 48//48
f 24//24 26//26 14//14
f 17//17 26//26 24//24
f 23//23 17//17 24//24
f 24//24 25//25 23//23
f 5//5 25//25 24//24
f 51//51 26//26 50//50
f 79//79 34//34 88//88
f 73//73 68//68 52//52
f 45//45 13//13 52//52
f 52//52 68//68 45//45
f 11//11 12//12 10//10
f 10//10 56//56 11//11
f 72//72 71//71 73//73
f 74//74 71//71 72//72
f 66//66 71//71 67//67
f 68//68 71//71 7//7
f 45//45 68//68 7//7
f 49//49 46//46 6//6
f 6//6 47//47 49//49
f 6//6 7//7 71//71
f 71//71 66//66 6//6
f 6//6 46//46 45//45
f 45//45 7//7 6//6
f 63//63 47//47 6//6
f 6//6 66//66 63//63
f 14//14 26//26 27//27
f 26//26 51//51 27//27
f 64//64 60//60 50//50
f 64//64 50//50 63//63
f 63//63 66//66 64//64
f 64//64 66//66 67//67
f 50//50 60//60 57//57
f 55//55 59//59 8//8
f 59//59 62//62 8//8
f 8//8 54//54 55//55
f 32//32 31//31 30//30
f 32//32 33//33 31//31
f 16//16 19//19 86//86
f 86//86 88//88 16//16
f 79//79 88//88 82//82
f 79//79 39//39 37//37
f 73//73 52//52 85//85
f 85//85 52//52 44//44
f 18//18 12//12 5//5
f 18//18 10//10 12//12
f 29//29 54//54 18//18
f 54//54 8//8 18//18
f 14//14 29//29 18//18
f 4//4 56//56 18//18
f 18//18 8//8 4//4
f 18//18 24//24 14//14
f 5//5 24//24 18//18
f 28//28 51//51 29//29
f 28//28 27//27 51//51
f 28//28 29//29 14//14
f 14//14 27//27 28//28
f 60//60 64//64 65//65
f 58//58 51//51 50//50
f 50//50 57//57 58//58
f 58//58 57//57 51//51
f 29//29 51//51 53//53
f 51//51 57//57 53//53
f 53//53 54//54 29//29
f 9//9 57//57 60//60
f 9//9 59//59 55//55
f 9//9 60//60 59//59
f 9//9 53//53 57//57
f 55//55 54//54 9//9
f 54//54 53//53 9//9
f 34//34 33//33 42//42
f 33//33 32//32 42//42
f 42//42 32//32 30//30
f 42//42 88//88 34//34
f 30//30 1//1 42//42
f 42//42 1//1 11//11
f 11//11 16//16 42//42
f 16//16 88//88 42//42
f 76//76 72//72 73//73
f 74//74 72//72 76//76
f 80//80 86//86 19//19
f 35//35 34//34 79//79
f 79//79 37//37 35//35
f 36//36 37//37 39//39
f 31//31 33//33 36//36
f 36//36 33//33 34//34
f 34//34 35//35 36//36
f 36//36 35//35 37//37
f 73//73 85//85 84//84
f 84//84 85//85 82//82
f 84//84 76//76 73//73
f 79//79 82//82 43//43
f 82//82 85//85 43//43
f 43//43 85//85 44//44
f 44//44 40//40 43//43
f 43//43 39//39 79//79
f 43//43 40//40 39//39
f 56//56 10//10 15//15
f 15//15 18//18 56//56
f 10//10 18//18 15//15
f 69//69 64//64 67//67
f 69//69 65//65 64//64
f 67//67 74//74 69//69
f 65//65 69//69 70//70
f 70//70 74//74 75//75
f 70//70 69//69 74//74
f 59//59 60//60 61//61
f 60//60 65//65 61//61
f 65//65 70//70 61//61
f 61//61 62//62 59//59
f 61//61 8//8 62//62
f 4//4 8//8 61//61
f 75//75 4//4 61//61
f 61//61 70//70 75//75
f 75//75 74//74 77//77
f 74//74 76//76 77//77
f 77//77 76//76 81//81
f 81//81 80//80 77//77
f 88//88 86//86 87//87
f 86//86 80//80 87//87
f 87//87 82//82 88//88
f 81//81 82//82 87//87
f 87//87 80//80 81//81
f 39//39 40//40 38//38
f 38//38 36//36 39//39
f 31//31 36//36 38//38
f 83//83 82//82 81//81
f 83//83 84//84 82//82
f 81//81 76//76 83//83
f 76//76 84//84 83//83
f 78//78 80//80 19//19
f 78//78 77//77 80//80
f 78//78 19//19 75//75
f 75//75 77//77 78//78
f 41//41 40//40 44//44
f 41//41 38//38 40//40
f 41//41 52//52 13//13
f 44//44 52//52 41//41
f 41//41 13//13 31//31
f 31//31 38//38 41//41
