# collision hull for rock_cliff_a - convex, faces 200
o rock_cliff_a_col
v -3.92363 4.65326 0.35569
v 3.65939 3.09688 -1.32799
v 3.75214 5.00772 0.89906
v 3.96033 1.87524 1.28833
v 3.68593 4.53136 1.67629
v -4.24425 2.47664 1.78301
v 2.71210 5.36181 1.61033
v 3.82787 3.42589 -1.20092
v 3.51982 2.77804 -1.44066
v 3.36826 2.36828 -1.57314
v 2.42982 5.40000 1.67246
v -3.76784 3.98780 -0.92004
v 4.07605 4.04923 -0.94047
v 3.76341 1.88219 -1.47669
v 3.13969 1.61620 -1.79235
v -4.10292 0.77496 0.15831
v 3.69323 4.36869 1.74415
v -3.15244 5.35672 1.68783
v 3.61171 4.48955 1.74291
v -3.17822 5.30680 1.69454
v 1.05937 -0.23357 2.05561
v 1.17993 -0.10157 2.07394
v -1.09398 -0.49201 1.93176
v 0.99445 -0.29982 2.03478
v -3.40762 0.82650 2.02914
v -1.80197 -0.22920 2.04970
v 0.83775 -0.42335 2.01796
v -2.23566 -0.06988 2.08000
v -2.05730 -0.13028 2.07171
v -1.94389 -0.25429 1.98349
v 1.64131 0.37849 2.10625
v 2.62243 1.07317 2.01797
v 2.56542 1.01770 2.02519
v 3.83556 2.53261 1.79527
v 2.83008 1.14319 1.97580
v 3.49275 1.71727 1.78213
v 3.29634 4.97052 1.66922
v -4.18658 3.45402 1.67280
v -3.92781 1.53017 1.84676
v -4.20411 1.25892 1.03844
v -2.71288 0.12490 2.05275
v -2.49015 -0.22856 1.65800
v -2.93053 -0.18821 1.15932
v -2.24034 -0.47887 1.24774
v -2.73323 -0.50347 -0.06769
v 2.60281 4.00160 -1.00568
v 2.26355 3.99790 -1.00680
v 2.95576 0.76141 1.44544
v 2.81746 0.71701 1.53277
v 3.58577 1.28263 1.29615
v 3.15763 0.70121 1.09694
v 3.39974 0.57226 0.36438
v 2.86334 0.11953 -0.29803
v 3.96868 1.20117 0.31520
v 3.55446 0.70258 -0.65348
v 4.17028 1.39871 0.00217
v 3.83623 0.92615 -0.22700
v -3.38413 0.29536 1.43214
v -3.72949 0.75456 1.45587
v -3.40375 0.00604 0.58528
v -3.84127 0.43582 0.42914
v -2.98996 -0.34335 0.38367
v -3.64702 0.15446 -0.01820
v -3.32485 -0.08831 -0.41837
v -2.64743 -0.32662 -0.85806
v -2.27375 -0.50064 -0.74350
v -3.98251 0.72181 -0.61038
v -3.46507 0.35173 -1.00513
v -2.22919 -0.32025 -1.10110
v -3.90567 0.96041 -1.04859
v 3.18147 0.31698 -0.02487
v 2.98347 0.25650 -0.63431
v 2.93232 0.34170 -0.93010
v 4.23483 1.66447 -0.72406
v 4.24726 2.33448 -1.18956
v -3.74943 3.98134 -0.93272
v -3.18673 0.64473 -1.53690
v -2.89456 -0.10311 -1.06555
v -2.30160 0.96204 -2.08632
v -2.12219 0.91775 -2.10000
v 0.30168 0.82972 -2.03317
v -2.20946 -0.05859 -1.41368
v 4.09258 4.00198 -0.97231
v 3.36045 4.02042 -0.98300
v 3.00130 4.00980 -0.99699
v 3.09167 3.70554 -1.10961
v -3.28997 3.02221 -1.30676
v -2.99233 2.39369 -1.54957
v -2.70463 1.77572 -1.78504
v 3.06693 3.52488 -1.17575
v -2.47690 1.27389 -1.97234
v -2.36660 1.02608 -2.06339
v -2.35996 1.01113 -2.06888
v 3.96070 1.61224 -1.14606
v 3.43928 1.03108 -1.24304
v 0.84367 -0.21601 -1.37863
v 0.63643 0.12588 -1.64754
v 2.71240 0.68065 -1.41402
v 0.66904 -0.50000 2.01510
v 0.86045 -0.50150 1.84210
v 1.38701 -0.49981 -0.49688
v 0.61364 -0.49569 -1.19145
vn -0.6922 0.6743 -0.2573
vn 0.2047 0.2511 -0.9461
vn 0.6633 0.7436 -0.0842
vn 0.9083 -0.2201 0.3557
vn 0.7959 0.3479 0.4955
vn -0.7934 0.0319 0.6078
vn 0.2346 0.9325 0.2747
vn 0.2291 0.2595 -0.9382
vn 0.2029 0.2423 -0.9487
vn 0.2073 0.2258 -0.9519
vn 0.0349 0.8752 0.4825
vn -0.6404 0.5175 -0.5675
vn 0.5443 0.6936 -0.4719
vn 0.5421 -0.1441 -0.8279
vn 0.2927 -0.1191 -0.9488
vn -0.9516 -0.3049 -0.0380
vn 0.6778 0.1279 0.7241
vn -0.3009 0.8461 0.4401
vn 0.2693 0.2477 0.9306
vn -0.5270 0.3447 0.7768
vn 0.2914 -0.4515 0.8434
vn 0.2103 -0.2924 0.9329
vn -0.0569 -0.8648 0.4989
vn 0.4770 -0.6765 0.5611
vn -0.4399 -0.2737 0.8553
vn -0.1005 -0.5230 0.8464
vn 0.3362 -0.6297 0.7003
vn -0.1974 -0.4428 0.8746
vn -0.0898 -0.3941 0.9147
vn -0.2390 -0.8072 0.5397
vn 0.1694 -0.1623 0.9721
vn 0.1564 -0.0238 0.9874
vn 0.2034 -0.1633 0.9654
vn 0.7081 -0.0060 0.7061
vn 0.4315 -0.3468 0.8328
vn 0.5941 -0.3444 0.7270
vn 0.4080 0.5531 0.7263
vn -0.8254 0.1858 0.5331
vn -0.6934 -0.2424 0.6786
vn -0.9592 -0.2476 0.1362
vn -0.3550 -0.4765 0.8043
vn -0.3901 -0.8303 0.3980
vn -0.5112 -0.8115 0.2833
vn -0.2167 -0.9570 0.1931
vn -0.3047 -0.9512 -0.0494
vn -0.0029 0.6558 -0.7549
vn -0.0057 0.6561 -0.7547
vn 0.5706 -0.6535 0.4974
vn 0.5313 -0.6595 0.5318
vn 0.7028 -0.5463 0.4556
vn 0.6010 -0.7037 0.3790
vn 0.6423 -0.7292 0.2358
vn 0.4659 -0.8836 -0.0468
vn 0.7938 -0.5546 0.2497
vn 0.6791 -0.6788 -0.2793
vn 0.9472 -0.3066 0.0944
vn 0.7669 -0.6407 -0.0367
vn -0.6649 -0.6495 0.3689
vn -0.7691 -0.5152 0.3782
vn -0.6572 -0.7337 0.1727
vn -0.7840 -0.6012 0.1548
vn -0.4966 -0.8613 0.1080
vn -0.7234 -0.6895 -0.0354
vn -0.6093 -0.7661 -0.2044
vn -0.3652 -0.8535 -0.3716
vn -0.1436 -0.9575 -0.2503
vn -0.9043 -0.3534 -0.2394
vn -0.6369 -0.6052 -0.4776
vn -0.1675 -0.8150 -0.5548
vn -0.8259 -0.1612 -0.5402
vn 0.5735 -0.8158 0.0745
vn 0.5119 -0.8260 -0.2361
vn 0.4552 -0.7511 -0.4782
vn 0.9439 -0.2809 -0.1735
vn 0.8656 0.0165 -0.5005
vn -0.2600 0.5287 -0.8080
vn -0.5160 -0.3349 -0.7884
vn -0.4416 -0.7212 -0.5338
vn -0.1895 -0.1251 -0.9739
vn -0.0617 -0.1641 -0.9845
vn 0.0625 -0.1711 -0.9833
vn -0.1715 -0.6547 -0.7361
vn 0.7182 0.3856 -0.5792
vn 0.0083 0.6844 -0.7290
vn 0.0045 0.6617 -0.7498
vn 0.0133 0.3489 -0.9371
vn -0.2962 0.2199 -0.9295
vn -0.2955 0.2182 -0.9301
vn -0.2941 0.2159 -0.9311
vn 0.0010 0.3366 -0.9417
vn -0.2930 0.2134 -0.9320
vn -0.2929 0.2121 -0.9323
vn -0.2977 0.0882 -0.9506
vn 0.7087 -0.4344 -0.5558
vn 0.5694 -0.5431 -0.6171
vn 0.2144 -0.6200 -0.7547
vn 0.1004 -0.5114 -0.8534
vn 0.3292 -0.5698 -0.7530
vn 0.0698 -0.7578 0.6487
vn 0.2875 -0.9348 0.2086
vn 0.2521 -0.9587 -0.1321
vn 0.0872 -0.8793 -0.4682
f 13//13 18//18 11//11
f 11//11 31//31 19//19
f 20//20 31//31 11//11
f 11//11 18//18 20//20
f 18//18 1//1 20//20
f 18//18 13//13 12//12
f 12//12 1//1 18//18
f 102//102 101//101 66//66
f 76//76 12//12 47//47
f 47//47 12//12 13//13
f 11//11 19//19 37//37
f 3//3 13//13 11//11
f 6//6 20//20 38//38
f 38//38 20//20 1//1
f 1//1 12//12 38//38
f 6//6 38//38 40//40
f 25//25 28//28 31//31
f 31//31 20//20 25//25
f 25//25 41//41 28//28
f 25//25 20//20 6//6
f 80//80 15//15 81//81
f 83//83 56//56 75//75
f 13//13 3//3 83//83
f 70//70 68//68 67//67
f 77//77 68//68 70//70
f 70//70 12//12 76//76
f 33//33 19//19 31//31
f 33//33 32//32 19//19
f 17//17 32//32 34//34
f 19//19 32//32 17//17
f 17//17 83//83 3//3
f 11//11 37//37 7//7
f 7//7 3//3 11//11
f 37//37 3//3 7//7
f 45//45 100//100 99//99
f 66//66 101//101 45//45
f 101//101 100//100 45//45
f 23//23 45//45 99//99
f 44//44 45//45 23//23
f 28//28 41//41 42//42
f 6//6 40//40 39//39
f 39//39 25//25 6//6
f 53//53 100//100 101//101
f 76//76 47//47 87//87
f 87//87 70//70 76//76
f 77//77 70//70 93//93
f 10//10 15//15 80//80
f 80//80 9//9 10//10
f 77//77 82//82 78//78
f 78//78 68//68 77//77
f 19//19 17//17 5//5
f 5//5 17//17 3//3
f 5//5 37//37 19//19
f 5//5 3//3 37//37
f 56//56 83//83 4//4
f 34//34 36//36 4//4
f 4//4 36//36 50//50
f 4//4 17//17 34//34
f 83//83 17//17 4//4
f 54//54 50//50 52//52
f 52//52 57//57 54//54
f 54//54 57//57 56//56
f 56//56 4//4 54//54
f 54//54 4//4 50//50
f 26//26 23//23 99//99
f 44//44 23//23 30//30
f 30//30 42//42 44//44
f 23//23 26//26 30//30
f 28//28 42//42 30//30
f 30//30 26//26 28//28
f 80//80 81//81 97//97
f 97//97 81//81 15//15
f 15//15 98//98 97//97
f 97//97 82//82 80//80
f 102//102 82//82 97//97
f 102//102 98//98 73//73
f 101//101 102//102 73//73
f 55//55 57//57 71//71
f 71//71 57//57 52//52
f 52//52 100//100 71//71
f 100//100 53//53 71//71
f 75//75 94//94 14//14
f 15//15 10//10 14//14
f 14//14 10//10 9//9
f 75//75 56//56 74//74
f 74//74 94//94 75//75
f 56//56 57//57 74//74
f 74//74 57//57 55//55
f 55//55 94//94 74//74
f 47//47 89//89 88//88
f 88//88 87//87 47//47
f 89//89 70//70 88//88
f 70//70 87//87 88//88
f 91//91 89//89 47//47
f 91//91 70//70 89//89
f 79//79 9//9 80//80
f 77//77 93//93 79//79
f 80//80 82//82 79//79
f 79//79 82//82 77//77
f 9//9 79//79 2//2
f 2//2 79//79 93//93
f 2//2 14//14 9//9
f 85//85 2//2 86//86
f 69//69 78//78 82//82
f 69//69 102//102 66//66
f 69//69 82//82 102//102
f 99//99 100//100 27//27
f 27//27 21//21 99//99
f 31//31 28//28 22//22
f 22//22 33//33 31//31
f 34//34 32//32 35//35
f 35//35 36//36 34//34
f 32//32 33//33 35//35
f 50//50 36//36 35//35
f 35//35 48//48 50//50
f 33//33 22//22 35//35
f 35//35 22//22 21//21
f 28//28 26//26 29//29
f 29//29 26//26 99//99
f 99//99 21//21 29//29
f 29//29 22//22 28//28
f 21//21 22//22 29//29
f 16//16 70//70 67//67
f 16//16 40//40 38//38
f 16//16 38//38 12//12
f 12//12 70//70 16//16
f 67//67 68//68 64//64
f 68//68 78//78 64//64
f 43//43 42//42 41//41
f 44//44 42//42 43//43
f 60//60 43//43 58//58
f 41//41 25//25 58//58
f 58//58 43//43 41//41
f 96//96 98//98 102//102
f 102//102 97//97 96//96
f 96//96 97//97 98//98
f 72//72 73//73 55//55
f 55//55 71//71 72//72
f 72//72 71//71 53//53
f 72//72 53//53 101//101
f 101//101 73//73 72//72
f 95//95 73//73 98//98
f 95//95 98//98 15//15
f 95//95 94//94 55//55
f 55//55 73//73 95//95
f 15//15 14//14 95//95
f 95//95 14//14 94//94
f 47//47 93//93 92//92
f 92//92 91//91 47//47
f 92//92 93//93 70//70
f 70//70 91//91 92//92
f 90//90 2//2 93//93
f 46//46 85//85 86//86
f 46//46 47//47 13//13
f 46//46 93//93 47//47
f 46//46 90//90 93//93
f 86//86 2//2 46//46
f 2//2 90//90 46//46
f 8//8 85//85 83//83
f 2//2 85//85 8//8
f 8//8 83//83 75//75
f 75//75 14//14 8//8
f 14//14 2//2 8//8
f 65//65 69//69 66//66
f 78//78 69//69 65//65
f 66//66 45//45 65//65
f 45//45 64//64 65//65
f 65//65 64//64 78//78
f 52//52 50//50 51//51
f 50//50 48//48 51//51
f 51//51 100//100 52//52
f 51//51 27//27 100//100
f 51//51 48//48 27//27
f 21//21 27//27 24//24
f 27//27 48//48 24//24
f 49//49 35//35 21//21
f 48//48 35//35 49//49
f 21//21 24//24 49//49
f 49//49 24//24 48//48
f 62//62 64//64 45//45
f 62//62 43//43 60//60
f 62//62 45//45 44//44
f 44//44 43//43 62//62
f 63//63 62//62 60//60
f 64//64 62//62 63//63
f 63//63 16//16 67//67
f 67//67 64//64 63//63
f 59//59 58//58 25//25
f 59//59 39//39 40//40
f 25//25 39//39 59//59
f 84//84 46//46 13//13
f 85//85 46//46 84//84
f 13//13 83//83 84//84
f 83//83 85//85 84//84
f 60//60 58//58 61//61
f 58//58 59//59 61//61
f 61//61 63//63 60//60
f 16//16 63//63 61//61
f 40//40 16//16 61//61
f 61//61 59//59 40//40
