# Blender 5.0.1
# www.blender.org
mtllib rockform_j.mtl
o rockform_j_rock
usemtl rockform_j_rock
v -0.600051 0.065097 2.710222
v -1.816757 0.030584 2.155409
v -2.929014 0.053469 0.985782
v -2.449471 0.056169 0.251817
v -1.639935 0.030537 -0.668914
v -0.236480 0.051913 -1.187092
v 1.435924 0.037029 -0.846989
v 1.976917 0.053071 -0.162098
v 1.967187 0.045419 1.110199
v 1.632316 0.040595 1.948478
v 0.756738 0.061462 2.803101
v -0.564770 0.308304 2.756938
v -1.784679 0.273958 2.227321
v -2.919571 0.296162 1.031913
v -2.414731 0.298883 0.275033
v -1.610702 0.273164 -0.628841
v -0.195255 0.295017 -1.182553
v 1.517064 0.280134 -0.811804
v 2.070987 0.297003 -0.093152
v 2.037563 0.289559 1.161083
v 1.704618 0.284135 2.012449
v 0.816774 0.304812 2.854868
v -0.557646 0.497495 2.661358
v -1.745685 0.477872 2.147653
v -2.847095 0.532105 0.993794
v -2.404282 0.552572 0.233869
v -1.584514 0.548472 -0.656312
v -0.221376 0.578013 -1.166395
v 1.443753 0.555244 -0.827816
v 1.968505 0.552689 -0.158115
v 1.972635 0.514639 1.100248
v 1.663730 0.489187 1.926639
v 0.790389 0.492378 2.756671
v 1.192195 0.062603 1.423296
v 0.228237 0.053754 1.864048
v -1.277657 0.057315 1.849919
v -1.921428 0.062026 1.299375
v -2.366752 0.071312 0.282725
v -2.049759 0.062430 -0.461734
v -1.030418 0.061641 -1.189411
v 0.299442 0.054075 -1.060181
v 1.567314 0.056630 -0.371418
v 1.879772 0.044408 0.252334
v 1.159606 0.518609 1.423961
v 0.193699 0.506108 1.865177
v -1.344473 0.511283 1.837647
v -1.989196 0.517653 1.298407
v -2.443573 0.526376 0.255965
v -2.118936 0.516234 -0.472774
v -1.083588 0.515627 -1.233792
v 0.268247 0.509333 -1.098887
v 1.541162 0.509833 -0.390003
v 1.862056 0.497436 0.230453
v 1.147543 1.023928 1.382192
v 0.205965 0.980711 1.794639
v -1.267725 0.941694 1.772675
v -1.909750 0.943852 1.231138
v -2.342196 0.968126 0.245516
v -2.052407 0.989398 -0.498076
v -1.048001 1.031946 -1.203946
v 0.262343 1.053619 -1.065799
v 1.501082 1.073162 -0.369784
v 1.822277 1.053836 0.227716
v -1.772347 0.044875 -0.461055
v -1.102621 0.005373 -1.096206
v -0.355100 0.036893 -1.322905
v 0.592782 0.008563 -1.164002
v 1.058940 0.043074 -0.658163
v 1.394184 0.057387 -0.077457
v 1.072246 0.013496 0.552264
v 0.472176 0.030411 0.945827
v -0.375736 0.079193 1.103693
v -1.066454 0.000000 0.850829
v -1.689558 0.074988 0.282419
v -1.793079 0.790376 -0.467472
v -1.115455 0.748924 -1.120972
v -0.363223 0.785041 -1.345132
v 0.601337 0.752269 -1.188684
v 1.068687 0.791036 -0.668961
v 1.411147 0.803479 -0.076557
v 1.076751 0.762884 0.546204
v 0.474589 0.778547 0.949751
v -0.381390 0.825920 1.123839
v -1.082240 0.747827 0.844119
v -1.710570 0.820407 0.297532
v -1.761332 1.525884 -0.431743
v -1.101558 1.484764 -1.074605
v -0.353977 1.495594 -1.288089
v 0.577093 1.440969 -1.149391
v 1.045892 1.446804 -0.640276
v 1.375674 1.443855 -0.068618
v 1.068402 1.392772 0.537776
v 0.471187 1.415229 0.932562
v -0.369644 1.487537 1.102960
v -1.053212 1.431446 0.836957
v -1.673513 1.538307 0.302797
v 0.908480 0.022444 -0.533946
v 0.673994 0.027313 -0.175427
v 0.406528 0.123883 0.178333
v -0.234988 0.078808 0.332536
v -0.640159 0.035599 0.231719
v -1.092962 0.045300 -0.028806
v -1.306723 0.094190 -0.452615
v -1.009723 0.036915 -0.977490
v -0.356405 0.031051 -1.205385
v 0.223534 0.071349 -1.164208
v 0.585173 0.037279 -1.001089
v 0.941729 0.946197 -0.528235
v 0.704389 0.950352 -0.169589
v 0.429533 1.046950 0.166625
v -0.221429 1.000124 0.339639
v -0.625299 0.959190 0.244354
v -1.081772 0.970401 -0.024031
v -1.303524 1.017150 -0.462818
v -0.997970 0.962144 -0.979280
v -0.342179 0.954031 -1.209691
v 0.246828 0.994186 -1.180231
v 0.617054 0.957921 -1.004668
v 0.908414 1.880578 -0.518726
v 0.675702 1.893978 -0.164673
v 0.393403 2.000000 0.177133
v -0.232602 1.970445 0.329003
v -0.623260 1.930278 0.238175
v -1.069180 1.942063 -0.019307
v -1.290080 1.990491 -0.445182
v -0.980803 1.920266 -0.951738
v -0.341187 1.901429 -1.180806
v 0.226488 1.933186 -1.141951
v 0.589897 1.898126 -0.977836
vn -0.4006 -0.2107 0.8917
vn -0.7219 -0.1020 0.6845
vn -0.8253 0.1696 -0.5386
vn -0.7337 0.1959 -0.6506
vn -0.3424 0.1931 -0.9195
vn 0.1991 -0.0155 -0.9799
vn 0.7751 -0.1707 -0.6083
vn 0.9325 -0.3610 0.0050
vn 0.8786 -0.3260 0.3491
vn 0.6451 -0.3675 0.6699
vn -0.0677 -0.1787 0.9816
vn -0.3697 0.4300 0.8237
vn -0.6678 0.3782 0.6411
vn -0.8210 0.1638 -0.5470
vn -0.7461 -0.0766 -0.6615
vn -0.3629 -0.0583 -0.9300
vn 0.2116 -0.0005 -0.9774
vn 0.7802 0.1590 -0.6051
vn 0.9585 0.2838 0.0272
vn 0.8814 0.3208 0.3467
vn 0.6271 0.4287 0.6504
vn -0.0618 0.4561 0.8878
vn -0.0059 -1.0000 0.0028
vn 0.0066 0.9997 0.0216
vn 0.4154 0.0284 0.9092
vn -0.0094 -0.0032 1.0000
vn -0.6484 -0.0750 0.7576
vn -0.9081 -0.1342 0.3966
vn -0.9105 -0.1482 -0.3859
vn -0.5749 -0.1460 -0.8051
vn 0.0960 -0.0778 -0.9923
vn 0.4774 -0.0085 -0.8787
vn 0.8941 0.0133 -0.4476
vn 0.8613 0.0581 0.5048
vn 0.4110 0.1236 0.9032
vn -0.0172 0.1522 0.9882
vn -0.6224 0.2339 0.7469
vn -0.8919 0.2279 0.3907
vn -0.8948 0.1958 -0.4013
vn -0.5918 0.0402 -0.8051
vn 0.0994 0.0506 -0.9938
vn 0.4855 0.0658 -0.8718
vn 0.8871 0.0612 -0.4576
vn 0.8606 0.0623 0.5054
vn -0.0038 -1.0000 -0.0002
vn -0.0241 0.9994 0.0250
vn -0.6888 -0.0360 -0.7241
vn -0.2886 -0.0368 -0.9567
vn 0.1642 -0.0346 -0.9858
vn 0.7361 -0.0309 -0.6762
vn 0.8661 -0.0185 -0.4995
vn 0.8904 -0.0017 0.4551
vn 0.5485 0.0035 0.8361
vn 0.1827 -0.0057 0.9831
vn -0.3439 0.0012 0.9390
vn -0.6744 -0.0076 0.7383
vn -0.9934 -0.0267 0.1117
vn -0.6911 0.0584 -0.7204
vn -0.2879 0.0656 -0.9554
vn 0.1618 0.0619 -0.9849
vn 0.7397 0.0643 -0.6699
vn 0.8641 0.0519 -0.5006
vn 0.8804 0.0180 0.4739
vn 0.5569 0.0185 0.8303
vn 0.2007 0.0275 0.9793
vn -0.3730 0.0256 0.9275
vn -0.6536 0.0357 0.7560
vn -0.9937 0.0378 0.1057
vn -0.1190 -0.9929 -0.0005
vn -0.0065 0.9996 0.0280
vn 0.8363 -0.0310 0.5474
vn 0.7934 -0.0300 0.6080
vn 0.2344 -0.0109 0.9721
vn -0.2405 -0.0094 0.9706
vn -0.4988 -0.0038 0.8667
vn -0.8924 0.0085 0.4511
vn -0.8698 0.0101 -0.4933
vn -0.3293 0.0024 -0.9442
vn 0.0712 -0.0058 -0.9974
vn 0.4097 -0.0177 -0.9120
vn 0.8216 -0.0261 -0.5695
vn 0.8338 0.0241 0.5515
vn 0.7769 0.0203 0.6293
vn 0.2559 0.0135 0.9666
vn -0.2303 0.0067 0.9731
vn -0.5067 0.0065 0.8621
vn -0.8921 0.0094 0.4518
vn -0.8589 0.0301 -0.5113
vn -0.3310 0.0291 -0.9432
vn 0.0479 0.0304 -0.9984
vn 0.4312 0.0382 -0.9014
vn 0.8263 0.0352 -0.5622
vn -0.0648 -0.9978 -0.0149
vn 0.2620 0.9616 -0.0819
vn -0.3926 -0.1182 0.9121
vn -0.7221 -0.1068 0.6835
vn -0.8244 0.1365 -0.5494
vn -0.7342 0.1680 -0.6579
vn -0.3642 0.0791 -0.9279
vn 0.2117 0.0704 -0.9748
vn 0.7865 -0.1328 -0.6031
vn 0.9593 -0.2815 0.0239
vn 0.8737 -0.3485 0.3394
vn 0.6510 -0.3082 0.6937
vn -0.0699 -0.1910 0.9791
vn -0.3695 0.3986 0.8394
vn -0.6789 0.3156 0.6629
vn -0.8625 -0.0462 -0.5039
vn -0.7356 0.0024 -0.6774
vn -0.3508 0.0211 -0.9362
vn 0.1997 0.0742 -0.9770
vn 0.7758 0.1714 -0.6072
vn 0.9275 0.3738 0.0083
vn 0.8760 0.3441 0.3380
vn 0.6312 0.4031 0.6626
vn -0.0612 0.4519 0.8900
vn -0.0041 -0.9998 0.0202
vn 0.0276 -0.9996 0.0017
vn -0.0150 -0.9998 -0.0117
vn -0.0099 -0.9999 -0.0101
vn -0.0341 -0.9994 -0.0021
vn 0.0171 -0.9998 0.0050
vn -0.0103 -0.9999 0.0071
vn 0.0369 -0.9993 -0.0057
vn 0.0038 1.0000 0.0001
vn 0.0159 0.9992 0.0367
vn -0.0338 0.9990 0.0303
vn 0.0099 0.9998 0.0183
vn -0.0143 0.9997 0.0198
vn 0.0345 0.9990 0.0271
vn 0.0130 0.9993 0.0345
vn -0.0267 0.9994 0.0236
vn 0.4150 0.0294 0.9093
vn -0.0178 0.0244 0.9995
vn -0.6393 -0.0935 0.7633
vn -0.9093 -0.1303 0.3952
vn -0.9002 -0.1754 -0.3986
vn -0.5888 -0.1092 -0.8009
vn 0.0985 -0.0854 -0.9915
vn 0.4861 -0.0409 -0.8729
vn 0.8880 0.0324 -0.4586
vn 0.8607 0.0608 0.5055
vn 0.3965 0.0850 0.9141
vn -0.0186 0.1475 0.9889
vn -0.6279 0.2245 0.7453
vn -0.8925 0.2142 0.3969
vn -0.9270 0.1112 -0.3581
vn -0.5753 0.0867 -0.8134
vn 0.1036 0.0615 -0.9927
vn 0.4883 0.0582 -0.8707
vn 0.8791 0.0794 -0.4700
vn 0.8609 0.0640 0.5048
vn -0.0323 -0.9995 -0.0034
vn 0.0092 -1.0000 0.0001
vn -0.0023 -1.0000 -0.0059
vn -0.0244 -0.9997 0.0015
vn -0.0009 -1.0000 -0.0002
vn -0.0055 -1.0000 -0.0018
vn 0.0002 -1.0000 0.0034
vn 0.0057 0.9996 0.0292
vn -0.0283 0.9993 0.0224
vn -0.0196 0.9994 0.0292
vn -0.0350 0.9991 0.0248
vn -0.0225 0.9993 0.0282
vn -0.0048 0.9996 0.0267
vn -0.0270 0.9990 0.0360
vn -0.6948 -0.0255 -0.7188
vn -0.2840 -0.0316 -0.9583
vn 0.1591 -0.0276 -0.9869
vn 0.7442 -0.0193 -0.6677
vn 0.8658 -0.0191 -0.5001
vn 0.8814 -0.0206 0.4719
vn 0.5566 -0.0062 0.8308
vn 0.1979 -0.0249 0.9799
vn -0.3679 -0.0279 0.9295
vn -0.6582 -0.0338 0.7521
vn -0.9937 -0.0302 0.1084
vn -0.6943 0.0648 -0.7167
vn -0.2748 0.0805 -0.9581
vn 0.1513 0.0771 -0.9855
vn 0.7342 0.0551 -0.6767
vn 0.8651 0.0541 -0.4988
vn 0.8897 0.0436 0.4545
vn 0.5519 0.0255 0.8335
vn 0.2008 0.0273 0.9793
vn -0.3650 0.0358 0.9303
vn -0.6495 0.0280 0.7598
vn -0.9918 0.0503 0.1177
vn -0.0186 -0.9989 0.0425
vn 0.0411 -0.9992 -0.0035
vn -0.0485 -0.9925 0.1124
vn 0.0069 -1.0000 -0.0054
vn 0.0863 -0.9959 -0.0253
vn -0.0438 -0.9988 -0.0239
vn -0.0543 -0.9984 0.0169
vn 0.1073 -0.9941 0.0182
vn 0.0410 0.9989 -0.0218
vn 0.1498 0.9884 0.0238
vn -0.0829 0.9966 0.0028
vn 0.0865 0.9962 0.0039
vn 0.0669 0.9968 0.0444
vn -0.0727 0.9962 0.0471
vn 0.0696 0.9947 -0.0755
vn 0.0219 0.9994 0.0280
vn 0.8333 -0.0334 0.5518
vn 0.7726 -0.0112 0.6348
vn 0.2565 0.0059 0.9665
vn -0.2292 -0.0041 0.9734
vn -0.5068 0.0017 0.8621
vn -0.8921 0.0081 0.4517
vn -0.8608 -0.0026 -0.5090
vn -0.3315 0.0007 -0.9435
vn 0.0512 -0.0186 -0.9985
vn 0.4262 -0.0265 -0.9042
vn 0.8256 -0.0308 -0.5634
vn 0.8358 0.0226 0.5485
vn 0.7742 0.0224 0.6325
vn 0.2358 -0.0018 0.9718
vn -0.2272 0.0081 0.9738
vn -0.5000 0.0023 0.8660
vn -0.8875 0.0039 0.4608
vn -0.8520 0.0212 -0.5231
vn -0.3361 0.0331 -0.9412
vn 0.0659 0.0421 -0.9969
vn 0.4148 0.0460 -0.9087
vn 0.8217 0.0400 -0.5685
vn -0.0337 -0.9994 -0.0084
vn 0.1525 -0.9181 0.3659
vn 0.1004 -0.9947 0.0230
vn -0.0252 -0.9997 0.0066
vn -0.0085 -1.0000 0.0015
vn -0.2053 -0.9787 -0.0094
vn 0.0675 -0.9974 0.0256
vn -0.0929 -0.9957 -0.0020
vn 0.0562 0.9984 -0.0008
vn 0.0984 0.9951 -0.0053
vn -0.0530 0.9977 -0.0418
vn 0.0239 0.9996 -0.0156
vn 0.0378 0.9991 -0.0198
vn 0.2181 0.9759 -0.0021
vn -0.0933 0.9949 -0.0388
vn -0.0576 0.9974 -0.0432
vt -0.282154 0.012272
vt -1.312265 0.193890
vt -1.340159 -0.017740
vt 1.142302 -0.017740
vt 0.165349 0.213198
vt 0.125235 0.002161
vt -0.492808 0.215564
vt -0.512996 0.004508
vt -1.278785 0.193199
vt -1.313631 -0.017781
vt 1.160981 0.193199
vt -0.033995 0.000808
vt 1.186401 -0.017781
vt -0.069843 0.212202
vt -1.488259 -0.012135
vt 1.437883 0.199261
vt 0.872921 0.001815
vt 1.468479 -0.012135
vt 0.812969 0.213929
vt -0.233423 -0.004839
vt -0.277671 0.207456
vt -0.962362 -0.009034
vt 1.721906 0.202739
vt 0.897663 0.009111
vt 1.659035 -0.009034
vt -0.251474 0.223756
vt -0.245280 0.388270
vt 1.135557 0.371207
vt 1.204834 0.193890
vt 0.132202 0.418366
vt -0.528602 0.436163
vt 1.138209 0.432598
vt -1.495067 0.438487
vt -1.558816 0.199261
vt 0.869458 0.436265
vt -0.224770 0.403178
vt -0.943371 0.381046
vt -1.017989 0.202739
vt 0.926924 0.383820
vt 0.949868 0.220719
vt 0.033995 1.764220
vt 1.950227 -0.233423
vt -0.282154 -1.624748
vt 0.047129 -1.746224
vt -0.245280 1.582257
vt 1.954964 0.224770
vt 1.247983 0.406630
vt 0.438097 0.002408
vt 1.276321 0.010103
vt 0.408063 0.395760
vt -0.871377 0.005505
vt -0.929478 0.400259
vt -1.431178 0.009601
vt 0.397082 0.405799
vt -0.486119 0.017676
vt 0.397924 0.009601
vt -1.143074 0.404565
vt -1.133475 0.009953
vt 1.542770 0.009953
vt 0.702621 0.404037
vt 0.656386 0.009266
vt -0.472888 0.398564
vt -0.500014 0.002687
vt -1.579770 0.398998
vt -1.602511 0.004909
vt 1.054939 0.004909
vt 0.531573 0.388218
vt 0.512546 -0.005719
vt -0.505682 0.010103
vt 0.418730 0.808458
vt -0.862740 0.774530
vt -1.421023 0.776406
vt -1.490106 0.405799
vt 0.338588 0.776406
vt -0.509389 0.413384
vt -0.518474 0.797514
vt 1.545072 0.816012
vt 1.602924 0.404565
vt 0.671676 0.853010
vt -1.544918 0.888850
vt 1.071100 0.398998
vt 0.533953 0.872044
vt -0.469939 0.846038
vt -0.506261 0.406630
vt 0.438097 -0.888944
vt -1.431178 -0.397924
vt 0.500014 1.653863
vt 0.418730 0.828589
vt 0.467754 -1.658748
vt -1.421023 0.338588
vt 1.301542 -0.005313
vt 0.730331 0.606904
vt 0.719171 -0.039662
vt 0.069153 -0.012253
vt -0.762532 0.609812
vt -0.755092 -0.036888
vt 1.765605 0.609812
vt 1.304283 -0.006879
vt 1.744143 -0.036888
vt 1.313672 0.643523
vt 0.799320 0.005567
vt 0.257007 0.619043
vt 0.251737 -0.032598
vt 1.175935 0.619043
vt 0.650218 -0.017890
vt 1.172017 -0.032598
vt 0.652316 0.632663
vt -0.087097 0.024529
vt -0.701449 0.605950
vt -0.687722 -0.044334
vt -1.229551 0.020873
vt -0.486385 0.020873
vt -1.138464 0.642949
vt -1.132884 -0.005313
vt 1.319570 0.642949
vt 0.718247 1.246764
vt 0.076217 0.638310
vt -0.741449 1.208682
vt 1.731438 1.208682
vt 1.288728 1.213756
vt 0.798538 0.654343
vt 0.264335 1.166772
vt 1.168675 1.166772
vt 0.649358 1.186300
vt -0.092014 0.673857
vt -0.676207 1.200401
vt -1.247823 0.669063
vt -0.473244 0.669063
vt -1.107395 1.282521
vt -0.687722 -0.007884
vt -1.229551 0.486385
vt -0.719171 1.685189
vt -0.068177 -1.852044
vt -0.718247 -1.666406
vt -0.676207 -0.004178
vt 1.196268 -0.024818
vt 0.879435 0.782059
vt 0.884512 -0.020584
vt 0.576894 0.063390
vt 0.593133 0.063390
vt 0.047083 0.825339
vt 0.035293 0.024195
vt -0.304109 0.789743
vt -0.317030 -0.013379
vt -0.710772 -0.004943
vt -0.752863 0.799492
vt -1.125545 0.037570
vt -0.757015 -0.004943
vt -1.583514 0.792313
vt -1.581958 -0.012235
vt 0.628170 0.792313
vt 0.070288 -0.017334
vt 0.638391 -0.012235
vt 0.057917 0.785258
vt -0.434007 0.017708
vt -0.776198 0.788640
vt -0.748476 -0.011918
vt 1.602479 -0.011918
vt 1.191301 0.778446
vt 1.183033 1.590951
vt 0.875161 1.602603
vt 0.587075 0.866057
vt 0.613137 0.866057
vt 0.037367 1.669096
vt -0.302335 1.634168
vt -0.701042 0.799492
vt -0.748755 1.644416
vt -1.134417 0.840144
vt -1.559565 1.625462
vt 0.057055 1.609083
vt -0.454263 0.820176
vt -0.752584 1.606210
vt 1.605591 0.788640
vt 0.825711 0.884512
vt 0.035293 0.442805
vt 0.434007 1.744322
vt 0.581720 -0.577938
vt 0.827197 -0.875161
vt 0.436576 -1.724967
vt -1.278357 0.371207
vt -1.302673 0.432598
vt -0.047129 0.458285
vt 1.451807 0.438487
vt 1.686352 0.381046
vt 0.897663 -1.705512
vt 1.659035 -0.962362
vt -1.340159 -1.142302
vt -1.186401 1.313631
vt -2.307339 -0.125235
vt -1.890345 0.512996
vt 1.488259 1.468479
vt 1.958688 0.872921
vt 0.926924 1.665139
vt 1.686352 0.943371
vt 1.951373 -0.869458
vt 1.495067 -1.451807
vt -1.138209 -1.302673
vt -1.851050 -0.528602
vt -1.278357 1.135557
vt -2.236106 0.132202
vt 1.237494 0.846038
vt -1.165076 0.816012
vt -0.467754 0.871856
vt 1.053518 0.888850
vt 1.874214 0.512546
vt 1.276321 -0.505682
vt 1.602511 1.054939
vt -0.871377 -0.876659
vt -1.818416 0.486119
vt -1.542770 1.133475
vt -0.656386 1.766237
vt 1.237494 0.469939
vt 1.824218 -0.533953
vt 1.544918 -1.053518
vt -0.671676 -1.778876
vt -1.545072 -1.165076
vt -1.797063 -0.518474
vt -0.862740 0.809490
vt 1.291963 1.282521
vt 0.068177 1.256182
vt 0.791634 1.211192
vt -0.081800 1.249176
vt -1.215599 1.293324
vt -0.468665 1.293324
vt -1.301542 1.132884
vt -0.069153 1.882319
vt 0.755092 1.744143
vt 1.160447 1.304283
vt 0.650218 -0.090491
vt 1.451963 0.799320
vt 1.172017 0.251737
vt -0.087097 -0.227766
vt -1.291963 -1.107395
vt -1.215599 -0.468665
vt -0.081800 0.227129
vt 0.649358 0.078957
vt 1.168675 -0.264335
vt 1.149101 -1.288728
vt 1.435868 -0.791634
vt 0.741449 -1.731438
vt 0.577938 1.694796
vt 0.581720 1.694796
vt -0.690092 1.644416
vt -1.119082 1.686527
vt 0.613243 1.625462
vt -0.436576 1.636697
vt 1.582259 1.606210
vt 0.748476 1.602479
vt 1.029612 1.196268
vt 0.593133 0.576894
vt -0.317030 0.530472
vt -0.070288 1.780128
vt -0.710772 0.757015
vt -0.638391 1.581958
vt -0.896651 1.125545
vt 1.029555 -1.183033
vt 0.752584 -1.582259
vt -0.057055 -1.758754
vt 0.037367 -0.445877
vt -0.613243 -1.559565
vt -0.302335 -0.524858
vt -0.690092 -0.748755
vt -0.882179 -1.119082
s 0
f 1/1/1 13/2/1 2/3/1
f 2/4/2 14/5/2 3/6/2
f 3/6/3 15/7/3 4/8/3
f 4/8/4 16/9/4 5/10/4
f 16/11/5 6/12/5 5/13/5
f 17/14/6 7/15/6 6/12/6
f 18/16/7 8/17/7 7/18/7
f 19/19/8 9/20/8 8/17/8
f 20/21/9 10/22/9 9/20/9
f 21/23/10 11/24/10 10/25/10
f 11/24/11 12/26/11 1/1/11
f 23/27/12 13/2/12 12/26/12
f 24/28/13 14/5/13 13/29/13
f 25/30/14 15/7/14 14/5/14
f 26/31/15 16/9/15 15/7/15
f 27/32/16 17/14/16 16/11/16
f 17/14/17 29/33/17 18/34/17
f 18/16/18 30/35/18 19/19/18
f 19/19/19 31/36/19 20/21/19
f 20/21/20 32/37/20 21/38/20
f 21/23/21 33/39/21 22/40/21
f 33/39/22 12/26/22 22/40/22
f 6/41/23 9/42/23 1/43/23
f 28/44/24 23/45/24 31/46/24
f 44/47/25 35/48/25 34/49/25
f 45/50/26 36/51/26 35/48/26
f 46/52/27 37/53/27 36/51/27
f 47/54/28 38/55/28 37/56/28
f 38/55/29 49/57/29 39/58/29
f 39/59/30 50/60/30 40/61/30
f 40/61/31 51/62/31 41/63/31
f 41/63/32 52/64/32 42/65/32
f 42/66/33 53/67/33 43/68/33
f 53/67/34 34/69/34 43/68/34
f 44/47/35 55/70/35 45/50/35
f 45/50/36 56/71/36 46/52/36
f 46/52/37 57/72/37 47/73/37
f 57/74/38 48/75/38 47/54/38
f 58/76/39 49/57/39 48/75/39
f 59/77/40 50/60/40 49/78/40
f 60/79/41 51/62/41 50/60/41
f 51/62/42 62/80/42 52/64/42
f 52/81/43 63/82/43 53/67/43
f 53/67/44 54/83/44 44/84/44
f 35/85/45 37/86/45 41/87/45
f 55/88/46 61/89/46 57/90/46
f 64/91/47 76/92/47 65/93/47
f 76/92/48 66/94/48 65/93/48
f 66/94/49 78/95/49 67/96/49
f 78/97/50 68/98/50 67/99/50
f 79/100/51 69/101/51 68/98/51
f 69/101/52 81/102/52 70/103/52
f 81/104/53 71/105/53 70/106/53
f 82/107/54 72/108/54 71/105/54
f 72/108/55 84/109/55 73/110/55
f 84/109/56 74/111/56 73/110/56
f 74/112/57 75/113/57 64/114/57
f 75/115/58 87/116/58 76/92/58
f 87/116/59 77/117/59 76/92/59
f 77/117/60 89/118/60 78/95/60
f 89/119/61 79/100/61 78/97/61
f 90/120/62 80/121/62 79/100/62
f 80/121/63 92/122/63 81/102/63
f 92/123/64 82/107/64 81/104/64
f 93/124/65 83/125/65 82/107/65
f 83/125/66 95/126/66 84/109/66
f 95/126/67 85/127/67 84/109/67
f 85/128/68 86/129/68 75/113/68
f 73/130/69 74/131/69 65/132/69
f 88/133/70 87/134/70 95/135/70
f 97/136/71 109/137/71 98/138/71
f 109/137/72 99/139/72 98/138/72
f 99/140/73 111/141/73 100/142/73
f 100/142/74 112/143/74 101/144/74
f 112/143/75 102/145/75 101/144/75
f 113/146/76 103/147/76 102/148/76
f 103/147/77 115/149/77 104/150/77
f 115/151/78 105/152/78 104/153/78
f 116/154/79 106/155/79 105/152/79
f 106/155/80 118/156/80 107/157/80
f 107/158/81 108/159/81 97/136/81
f 119/160/82 109/137/82 108/159/82
f 120/161/83 110/162/83 109/137/83
f 110/163/84 122/164/84 111/141/84
f 111/141/85 123/165/85 112/143/85
f 123/165/86 113/166/86 112/143/86
f 124/167/87 114/168/87 113/146/87
f 114/168/88 126/169/88 115/149/88
f 115/151/89 127/170/89 116/154/89
f 127/170/90 117/171/90 116/154/90
f 117/171/91 129/172/91 118/156/91
f 118/173/92 119/160/92 108/159/92
f 98/174/93 100/175/93 106/176/93
f 121/177/94 120/178/94 128/179/94
f 1/1/95 12/26/95 13/2/95
f 2/4/96 13/29/96 14/5/96
f 3/6/97 14/5/97 15/7/97
f 4/8/98 15/7/98 16/9/98
f 16/11/99 17/14/99 6/12/99
f 17/14/100 18/34/100 7/15/100
f 18/16/101 19/19/101 8/17/101
f 19/19/102 20/21/102 9/20/102
f 20/21/103 21/38/103 10/22/103
f 21/23/104 22/40/104 11/24/104
f 11/24/105 22/40/105 12/26/105
f 23/27/106 24/180/106 13/2/106
f 24/28/107 25/30/107 14/5/107
f 25/30/108 26/31/108 15/7/108
f 26/31/109 27/181/109 16/9/109
f 27/32/110 28/182/110 17/14/110
f 17/14/111 28/182/111 29/33/111
f 18/16/112 29/183/112 30/35/112
f 19/19/113 30/35/113 31/36/113
f 20/21/114 31/36/114 32/37/114
f 21/23/115 32/184/115 33/39/115
f 33/39/116 23/27/116 12/26/116
f 11/185/117 1/43/117 10/186/117
f 1/43/118 2/187/118 5/188/118
f 10/186/119 1/43/119 9/42/119
f 2/187/120 3/189/120 4/190/120
f 4/190/121 5/188/121 2/187/121
f 5/188/122 6/41/122 1/43/122
f 6/41/123 7/191/123 9/42/123
f 7/191/124 8/192/124 9/42/124
f 23/45/125 33/193/125 32/194/125
f 32/194/126 31/46/126 23/45/126
f 31/46/127 30/195/127 29/196/127
f 28/44/128 31/46/128 29/196/128
f 28/44/129 27/197/129 23/45/129
f 27/197/130 26/198/130 24/199/130
f 26/198/131 25/200/131 24/199/131
f 24/199/132 23/45/132 27/197/132
f 44/47/133 45/50/133 35/48/133
f 45/50/134 46/52/134 36/51/134
f 46/52/135 47/73/135 37/53/135
f 47/54/136 48/75/136 38/55/136
f 38/55/137 48/75/137 49/57/137
f 39/59/138 49/78/138 50/60/138
f 40/61/139 50/60/139 51/62/139
f 41/63/140 51/62/140 52/64/140
f 42/66/141 52/81/141 53/67/141
f 53/67/142 44/84/142 34/69/142
f 44/47/143 54/201/143 55/70/143
f 45/50/144 55/70/144 56/71/144
f 46/52/145 56/71/145 57/72/145
f 57/74/146 58/76/146 48/75/146
f 58/76/147 59/202/147 49/57/147
f 59/77/148 60/79/148 50/60/148
f 60/79/149 61/203/149 51/62/149
f 51/62/150 61/203/150 62/80/150
f 52/81/151 62/204/151 63/82/151
f 53/67/152 63/82/152 54/83/152
f 43/205/153 34/206/153 42/207/153
f 34/206/154 35/85/154 41/87/154
f 35/85/155 36/208/155 37/86/155
f 37/86/156 38/209/156 39/210/156
f 39/210/157 40/211/157 37/86/157
f 40/211/158 41/87/158 37/86/158
f 41/87/159 42/207/159 34/206/159
f 54/212/160 63/213/160 62/214/160
f 62/214/161 61/89/161 54/212/161
f 61/89/162 60/215/162 57/90/162
f 54/212/163 61/89/163 55/88/163
f 60/215/164 59/216/164 57/90/164
f 59/216/165 58/217/165 57/90/165
f 57/90/166 56/218/166 55/88/166
f 64/91/167 75/115/167 76/92/167
f 76/92/168 77/117/168 66/94/168
f 66/94/169 77/117/169 78/95/169
f 78/97/170 79/100/170 68/98/170
f 79/100/171 80/121/171 69/101/171
f 69/101/172 80/121/172 81/102/172
f 81/104/173 82/107/173 71/105/173
f 82/107/174 83/125/174 72/108/174
f 72/108/175 83/125/175 84/109/175
f 84/109/176 85/127/176 74/111/176
f 74/112/177 85/128/177 75/113/177
f 75/115/178 86/219/178 87/116/178
f 87/116/179 88/220/179 77/117/179
f 77/117/180 88/220/180 89/118/180
f 89/119/181 90/120/181 79/100/181
f 90/120/182 91/221/182 80/121/182
f 80/121/183 91/221/183 92/122/183
f 92/123/184 93/124/184 82/107/184
f 93/124/185 94/222/185 83/125/185
f 83/125/186 94/222/186 95/126/186
f 95/126/187 96/223/187 85/127/187
f 85/128/188 96/224/188 86/129/188
f 74/131/189 64/225/189 65/132/189
f 65/132/190 66/226/190 73/130/190
f 66/226/191 67/227/191 68/228/191
f 71/229/192 66/226/192 68/228/192
f 68/228/193 69/230/193 70/231/193
f 71/229/194 68/228/194 70/231/194
f 71/229/195 72/232/195 66/226/195
f 72/232/196 73/130/196 66/226/196
f 86/233/197 96/234/197 87/134/197
f 96/234/198 95/135/198 87/134/198
f 95/135/199 94/235/199 88/133/199
f 94/235/200 93/236/200 88/133/200
f 93/236/201 92/237/201 90/238/201
f 92/237/202 91/239/202 90/238/202
f 90/238/203 89/240/203 88/133/203
f 93/236/204 90/238/204 88/133/204
f 97/136/205 108/159/205 109/137/205
f 109/137/206 110/162/206 99/139/206
f 99/140/207 110/163/207 111/141/207
f 100/142/208 111/141/208 112/143/208
f 112/143/209 113/166/209 102/145/209
f 113/146/210 114/168/210 103/147/210
f 103/147/211 114/168/211 115/149/211
f 115/151/212 116/154/212 105/152/212
f 116/154/213 117/171/213 106/155/213
f 106/155/214 117/171/214 118/156/214
f 107/158/215 118/173/215 108/159/215
f 119/160/216 120/161/216 109/137/216
f 120/161/217 121/241/217 110/162/217
f 110/163/218 121/242/218 122/164/218
f 111/141/219 122/164/219 123/165/219
f 123/165/220 124/243/220 113/166/220
f 124/167/221 125/244/221 114/168/221
f 114/168/222 125/244/222 126/169/222
f 115/151/223 126/245/223 127/170/223
f 127/170/224 128/246/224 117/171/224
f 117/171/225 128/246/225 129/172/225
f 118/173/226 129/247/226 119/160/226
f 107/248/227 97/249/227 98/174/227
f 98/174/228 99/250/228 100/175/228
f 100/175/229 101/251/229 105/252/229
f 101/251/230 102/253/230 104/254/230
f 105/252/231 101/251/231 104/254/231
f 102/253/232 103/255/232 104/254/232
f 105/252/233 106/176/233 100/175/233
f 106/176/234 107/248/234 98/174/234
f 119/256/235 129/257/235 120/178/235
f 129/257/236 128/179/236 120/178/236
f 128/179/237 127/258/237 122/259/237
f 127/258/238 126/260/238 123/261/238
f 123/261/239 126/260/239 124/262/239
f 126/260/240 125/263/240 124/262/240
f 123/261/241 122/259/241 127/258/241
f 122/259/242 121/177/242 128/179/242
