# Blender 5.0.1
# www.blender.org
mtllib rockform_c.mtl
o rockform_c_rock
usemtl rockform_c_rock
v 0.329811 0.000000 0.652448
v -0.327980 0.000000 0.713404
v -0.639677 0.000000 0.043693
v -0.337493 0.000000 -0.549056
v 0.225974 0.000000 -0.663975
v 0.631854 0.000000 -0.091222
v 0.325539 1.201805 0.598044
v -0.318900 1.201805 0.656047
v -0.625676 1.201805 -0.001419
v -0.330411 1.201805 -0.583631
v 0.223725 1.201805 -0.697164
v 0.623648 1.201805 -0.135028
v 0.321522 2.403611 0.543370
v -0.309534 2.403611 0.598488
v -0.611805 2.403611 -0.046509
v -0.323402 2.403611 -0.618181
v 0.221330 2.403611 -0.730230
v 0.615541 2.403611 -0.179001
v 0.317781 3.605416 0.488395
v -0.299922 3.605416 0.540753
v -0.598073 3.605416 -0.091577
v -0.316461 3.605416 -0.652710
v 0.218795 3.605416 -0.763174
v 0.607517 3.605416 -0.223121
v 0.314330 4.654812 0.433102
v -0.290106 4.797529 0.482869
v -0.584483 4.978134 -0.136623
v -0.309579 5.000000 -0.687222
v 0.216124 4.886431 -0.795999
v 0.599556 4.704348 -0.267368
v 1.671930 0.000000 0.539405
v 0.879411 0.000000 0.673425
v 0.514791 0.000000 0.139833
v 0.796294 0.000000 -0.493808
v 1.528221 0.000000 -0.647294
v 1.955840 0.000000 -0.073567
v 1.662223 0.757137 0.519402
v 0.883843 0.757137 0.650167
v 0.525988 0.757137 0.125589
v 0.803582 0.757137 -0.497251
v 1.522442 0.757137 -0.648381
v 1.941875 0.757137 -0.083751
v 1.689820 1.514275 0.488776
v 0.925585 1.514275 0.618946
v 0.574526 1.514275 0.103661
v 0.848170 1.514275 -0.509599
v 1.553954 1.514275 -0.658566
v 1.965230 1.514275 -0.104015
v 1.677603 2.271412 0.463892
v 0.927513 2.271412 0.590591
v 0.583280 2.271412 0.084330
v 0.852932 2.271412 -0.518009
v 1.545633 2.271412 -0.664587
v 1.948782 2.271412 -0.119136
v 1.707263 3.072127 0.438108
v 0.971322 2.900603 0.564240
v 0.633940 2.901541 0.067371
v 0.899555 3.047336 -0.525470
v 1.579168 3.210347 -0.669796
v 1.974219 3.218853 -0.134470
v 0.929695 0.000000 1.554739
v 0.362689 0.000000 1.630015
v -0.021559 0.000000 1.125172
v 0.225343 0.000000 0.531736
v 0.869681 0.000000 0.496745
v 1.264073 0.000000 0.990219
v 0.912096 1.045571 1.498263
v 0.355228 1.045571 1.571811
v -0.022667 1.045571 1.077771
v 0.219829 1.045571 0.494458
v 0.852771 1.045571 0.460553
v 1.241763 1.045571 0.943384
v 0.922046 2.091141 1.480980
v 0.375188 2.091141 1.553171
v 0.003606 2.091141 1.069408
v 0.241670 2.091141 0.496272
v 0.863190 2.091141 0.462670
v 1.246835 2.091141 0.936410
v 0.900538 3.136712 1.426710
v 0.363565 3.136712 1.497512
v -0.001735 3.136712 1.024393
v 0.231872 3.136712 0.461318
v 0.841947 3.136712 0.429018
v 1.220282 3.136712 0.891843
v 0.914431 4.107160 1.406339
v 0.387222 4.230596 1.475941
v 0.028178 4.319458 1.012899
v 0.257306 4.273295 0.460006
v 0.855912 4.136929 0.427913
v 1.228960 4.043005 0.881868
v -0.041793 0.000000 1.053461
v -0.343543 0.000000 1.546903
v -0.980828 0.000000 1.466280
v -1.231456 0.000000 0.954774
v -0.860868 0.000000 0.454741
v -0.216316 0.000000 0.518516
v -0.042247 0.492740 1.072879
v -0.338683 0.492740 1.557825
v -0.964745 0.492740 1.478392
v -1.211189 0.492740 0.976170
v -0.847810 0.492740 0.484554
v -0.214220 0.492740 0.546337
v -0.072590 0.985480 1.068476
v -0.363712 0.985480 1.544980
v -0.978553 0.985480 1.466866
v -1.220785 0.985480 0.973358
v -0.864588 0.985480 0.490534
v -0.241987 0.985480 0.551550
v -0.094273 1.478221 1.096536
v -0.380082 1.478221 1.564551
v -0.983705 1.478221 1.487724
v -1.221701 1.478221 1.003083
v -0.872655 1.478221 0.528940
v -0.261070 1.478221 0.588869
v -0.097211 1.954489 1.106640
v -0.377706 1.860396 1.566153
v -0.970115 1.879465 1.490542
v -1.203848 1.983848 1.015029
v -0.861924 2.083590 0.549347
v -0.261382 2.063556 0.607514
v -0.591673 0.000000 0.026355
v -0.917151 0.000000 0.588837
v -1.685017 0.000000 0.454540
v -1.937848 0.000000 -0.095054
v -1.446565 0.000000 -0.573339
v -0.806085 0.000000 -0.521461
v -0.638329 0.889336 0.051538
v -0.957871 0.889336 0.605057
v -1.712230 0.889336 0.473378
v -1.960674 0.889336 -0.067578
v -1.479310 0.889336 -0.537201
v -0.850142 0.889336 -0.486600
v -0.684598 1.778672 0.077643
v -0.998220 1.778672 0.622135
v -1.739014 1.778672 0.492914
v -1.983032 1.778672 -0.039361
v -1.511547 1.778672 -0.500334
v -0.893716 1.778672 -0.450885
v -0.730323 2.668008 0.104594
v -1.038043 2.668008 0.639995
v -1.765216 2.668008 0.513082
v -2.004772 2.668008 -0.010460
v -1.543118 2.668008 -0.462805
v -0.936651 2.668008 -0.414388
v -0.775388 3.467580 0.132267
v -1.077224 3.404422 0.658508
v -1.790725 3.527728 0.533772
v -2.025781 3.660567 0.019019
v -1.573906 3.689658 -0.424722
v -0.978828 3.599037 -0.377231
v 0.101328 0.000000 -0.782364
v -0.367415 0.000000 -0.334949
v -1.066305 0.000000 -0.588880
v -1.241602 0.000000 -1.214387
v -0.820739 0.000000 -1.683118
v -0.144005 0.000000 -1.481496
v 0.109830 0.624939 -0.765927
v -0.350527 0.624939 -0.325819
v -1.035250 0.624939 -0.576187
v -1.208884 0.624939 -1.189871
v -0.796777 0.624939 -1.650055
v -0.130584 0.624939 -1.454190
v 0.115746 1.249877 -0.751248
v -0.336240 1.249877 -0.318542
v -1.006892 1.249877 -0.565192
v -1.178574 1.249877 -1.167311
v -0.775213 1.249877 -1.619021
v -0.119800 1.249877 -1.428513
v 0.119786 1.874816 -0.739095
v -0.323846 1.874816 -0.313862
v -0.980534 1.874816 -0.556670
v -1.149964 1.874816 -1.147455
v -0.755327 1.874816 -1.590751
v -0.110956 1.874816 -1.405256
v 0.123106 2.485401 -0.729643
v -0.312188 2.422661 -0.311918
v -0.955031 2.430714 -0.550785
v -1.121906 2.499143 -1.130442
v -0.735957 2.565014 -1.565372
v -0.102904 2.558949 -1.384620
v 1.309791 0.000000 -0.791330
v 0.747311 0.000000 -0.381980
v -0.017473 0.000000 -0.626888
v -0.001212 0.000000 -1.291752
v 0.515986 0.000000 -1.769985
v 1.184579 0.000000 -1.499334
v 1.327916 1.141715 -0.754276
v 0.773921 1.141715 -0.350894
v 0.024632 1.141715 -0.595921
v 0.041532 1.141715 -1.248883
v 0.550753 1.141715 -1.718525
v 1.207179 1.141715 -1.451899
v 1.330028 2.283430 -0.727438
v 0.784592 2.283430 -0.330427
v 0.050347 2.283430 -0.573903
v 0.068510 2.283430 -1.215840
v 0.569893 2.283430 -1.677418
v 1.213338 2.283430 -1.414144
v 1.323700 3.425145 -0.690939
v 0.786911 3.425145 -0.300546
v 0.067199 3.425145 -0.541567
v 0.087215 3.425145 -1.172973
v 0.580866 3.425145 -1.626742
v 1.210620 3.425145 -1.366439
v 1.328585 4.631937 -0.638832
v 0.800540 4.504453 -0.254756
v 0.094807 4.418771 -0.493606
v 0.117200 4.502517 -1.114998
v 0.603191 4.637165 -1.560648
v 1.218677 4.695916 -1.302639
vn 0.0922 0.0468 0.9946
vn -0.9063 0.0270 0.4218
vn -0.8909 -0.0067 -0.4542
vn -0.1998 -0.0270 -0.9795
vn 0.8158 -0.0155 -0.5781
vn 0.9263 0.0203 0.3762
vn 0.0895 0.0470 0.9949
vn -0.9059 0.0273 0.4227
vn -0.8918 -0.0067 -0.4523
vn -0.2006 -0.0270 -0.9793
vn 0.8147 -0.0157 -0.5796
vn 0.9261 0.0202 0.3766
vn 0.0869 0.0471 0.9951
vn -0.9052 0.0276 0.4242
vn -0.8928 -0.0067 -0.4504
vn -0.2014 -0.0270 -0.9791
vn 0.8133 -0.0159 -0.5816
vn 0.9260 0.0201 0.3769
vn 0.0843 0.0527 0.9950
vn -0.9041 0.0281 0.4263
vn -0.8937 -0.0059 -0.4485
vn -0.2021 -0.0255 -0.9790
vn 0.8115 -0.0176 -0.5841
vn 0.9259 0.0229 0.3770
vn -0.0000 -1.0000 -0.0000
vn 0.2395 0.9568 0.1651
vn 0.1667 0.0293 0.9856
vn -0.8254 0.0222 0.5641
vn -0.9139 0.0059 -0.4060
vn -0.2052 -0.0025 -0.9787
vn 0.8018 0.0068 -0.5976
vn 0.9072 0.0227 0.4202
vn 0.1656 0.0315 0.9857
vn -0.8241 0.0691 0.5622
vn -0.9124 0.0467 -0.4066
vn -0.2057 -0.0038 -0.9786
vn 0.8021 -0.0414 -0.5958
vn 0.9071 -0.0161 0.4206
vn 0.1678 0.0351 0.9852
vn -0.8262 0.0232 0.5629
vn -0.9132 0.0002 -0.4075
vn -0.2065 -0.0100 -0.9784
vn 0.8032 0.0056 -0.5957
vn 0.9065 0.0285 0.4212
vn 0.1665 0.0297 0.9856
vn -0.8242 0.0813 0.5604
vn -0.9109 0.0623 -0.4078
vn -0.2070 0.0030 -0.9783
vn 0.8038 -0.0320 -0.5941
vn 0.9065 -0.0200 0.4217
vn -0.2021 0.9694 0.1391
vn 0.1314 0.0557 0.9898
vn -0.7954 0.0280 0.6054
vn -0.9231 -0.0184 -0.3841
vn -0.0542 -0.0354 -0.9979
vn 0.7811 -0.0113 -0.6243
vn 0.8596 0.0420 0.5092
vn 0.1309 0.0152 0.9913
vn -0.7940 0.0248 0.6074
vn -0.9232 0.0201 -0.3838
vn -0.0535 0.0028 -0.9986
vn 0.7787 -0.0065 -0.6274
vn 0.8597 0.0003 0.5108
vn 0.1307 0.0541 0.9899
vn -0.7928 0.0236 0.6090
vn -0.9233 -0.0212 -0.3835
vn -0.0540 -0.0332 -0.9980
vn 0.7771 -0.0071 -0.6293
vn 0.8580 0.0442 0.5117
vn 0.1307 0.0189 0.9912
vn -0.7912 0.0292 0.6109
vn -0.9235 0.0202 -0.3831
vn -0.0529 -0.0004 -0.9986
vn 0.7742 -0.0144 -0.6328
vn 0.8583 -0.0026 0.5131
vn 0.2299 0.9731 0.0159
vn 0.8530 -0.0198 0.5216
vn -0.1255 -0.0203 0.9919
vn -0.8979 0.0178 0.4399
vn -0.8021 0.0572 -0.5945
vn 0.0983 0.0575 -0.9935
vn 0.9506 0.0135 -0.3101
vn 0.8518 0.0571 0.5207
vn -0.1258 0.0195 0.9919
vn -0.8976 -0.0149 0.4405
vn -0.8040 -0.0202 -0.5943
vn 0.0970 0.0160 -0.9952
vn 0.9491 0.0557 -0.3100
vn 0.8533 0.0079 0.5213
vn -0.1259 -0.0435 0.9911
vn -0.8973 -0.0282 0.4404
vn -0.8043 0.0331 -0.5933
vn 0.0972 0.0789 -0.9921
vn 0.9485 0.0603 -0.3108
vn 0.8534 -0.0075 0.5212
vn -0.1263 -0.0027 0.9920
vn -0.8973 0.0273 0.4406
vn -0.8046 0.0424 -0.5923
vn 0.0975 0.0317 -0.9947
vn 0.9500 0.0125 -0.3121
vn 0.0055 0.9790 0.2038
vn 0.8651 0.0312 0.5006
vn -0.1722 -0.0258 0.9847
vn -0.9079 -0.0362 0.4177
vn -0.6976 0.0034 -0.7165
vn 0.0807 0.0430 -0.9958
vn 0.9295 0.0603 -0.3638
vn 0.8656 0.0304 0.4997
vn -0.1719 -0.0267 0.9848
vn -0.9082 -0.0361 0.4171
vn -0.6983 0.0044 -0.7158
vn 0.0801 0.0439 -0.9958
vn 0.9288 0.0602 -0.3656
vn 0.8662 0.0294 0.4989
vn -0.1718 -0.0275 0.9848
vn -0.9084 -0.0357 0.4165
vn -0.6991 0.0054 -0.7150
vn 0.0797 0.0447 -0.9958
vn 0.9282 0.0599 -0.3673
vn 0.8665 0.0336 0.4980
vn -0.1718 -0.0339 0.9845
vn -0.9087 -0.0370 0.4158
vn -0.6999 0.0055 -0.7143
vn 0.0795 0.0433 -0.9959
vn 0.9273 0.0650 -0.3687
vn 0.1345 0.9716 0.1946
vn 0.6902 -0.0292 0.7231
vn -0.3415 -0.0021 0.9399
vn -0.9621 0.0398 0.2696
vn -0.7426 0.0637 -0.6667
vn 0.2853 0.0397 -0.9576
vn 0.9436 -0.0058 -0.3311
vn 0.6908 -0.0235 0.7226
vn -0.3434 -0.0009 0.9392
vn -0.9616 0.0368 0.2721
vn -0.7437 0.0587 -0.6660
vn 0.2819 0.0379 -0.9587
vn 0.9441 -0.0027 -0.3298
vn 0.6914 -0.0191 0.7222
vn -0.3452 0.0018 0.9385
vn -0.9611 0.0353 0.2740
vn -0.7448 0.0538 -0.6651
vn 0.2790 0.0345 -0.9597
vn 0.9445 -0.0011 -0.3285
vn 0.6919 -0.0173 0.7218
vn -0.3468 0.0060 0.9379
vn -0.9604 0.0411 0.2754
vn -0.7459 0.0516 -0.6640
vn 0.2765 0.0276 -0.9606
vn 0.9449 -0.0001 -0.3273
vn -0.0310 0.9927 0.1168
vn 0.5881 -0.0356 0.8080
vn -0.3049 -0.0146 0.9523
vn -0.9990 0.0383 -0.0244
vn -0.6779 0.0537 -0.7332
vn 0.3751 0.0303 -0.9265
vn 0.9846 -0.0123 -0.1741
vn 0.5885 -0.0201 0.8082
vn -0.3108 -0.0113 0.9504
vn -0.9994 0.0244 -0.0259
vn -0.6775 0.0378 -0.7346
vn 0.3762 0.0270 -0.9262
vn 0.9854 0.0003 -0.1705
vn 0.5883 -0.0226 0.8083
vn -0.3147 -0.0222 0.9489
vn -0.9994 0.0174 -0.0283
vn -0.6768 0.0391 -0.7351
vn 0.3784 0.0374 -0.9249
vn 0.9858 0.0093 -0.1675
vn 0.5877 -0.0417 0.8080
vn -0.3173 -0.0369 0.9476
vn -0.9991 0.0293 -0.0317
vn -0.6756 0.0584 -0.7350
vn 0.3816 0.0433 -0.9233
vn 0.9863 0.0031 -0.1651
vn -0.1521 0.9812 0.1186
vn 0.0895 0.0454 0.9949
vn -0.9059 0.0264 0.4227
vn -0.8918 -0.0078 -0.4523
vn -0.2006 -0.0274 -0.9793
vn 0.8147 -0.0145 -0.5796
vn 0.9261 0.0201 0.3766
vn 0.0869 0.0456 0.9952
vn -0.9052 0.0264 0.4242
vn -0.8928 -0.0077 -0.4504
vn -0.2014 -0.0273 -0.9791
vn 0.8133 -0.0144 -0.5816
vn 0.9260 0.0200 0.3769
vn 0.0844 0.0458 0.9954
vn -0.9042 0.0263 0.4263
vn -0.8937 -0.0077 -0.4485
vn -0.2020 -0.0273 -0.9790
vn 0.8115 -0.0143 -0.5841
vn 0.9260 0.0200 0.3771
vn 0.0931 0.0475 0.9945
vn -0.9003 0.0232 0.4346
vn -0.8946 -0.0066 -0.4469
vn -0.2074 -0.0232 -0.9780
vn 0.8072 -0.0134 -0.5901
vn 0.9254 0.0219 0.3784
vn 0.2395 0.9568 0.1652
vn 0.2394 0.9582 0.1564
vn 0.2389 0.9582 0.1574
vn 0.1656 0.0282 0.9858
vn -0.8259 0.0228 0.5634
vn -0.9134 0.0069 -0.4071
vn -0.2057 -0.0030 -0.9786
vn 0.8027 0.0053 -0.5963
vn 0.9070 0.0224 0.4205
vn 0.1678 0.0337 0.9852
vn -0.8245 0.0686 0.5617
vn -0.9122 0.0471 -0.4070
vn -0.2065 -0.0046 -0.9784
vn 0.8025 -0.0407 -0.5952
vn 0.9068 -0.0167 0.4213
vn 0.1664 0.0365 0.9854
vn -0.8267 0.0239 0.5621
vn -0.9127 0.0012 -0.4086
vn -0.2070 -0.0096 -0.9783
vn 0.8042 0.0041 -0.5944
vn 0.9064 0.0281 0.4216
vn 0.1630 0.0257 0.9863
vn -0.8245 0.0809 0.5600
vn -0.9160 0.0512 -0.3978
vn -0.2082 0.0020 -0.9781
vn 0.8045 -0.0312 -0.5932
vn 0.9079 -0.0176 0.4188
vn -0.2089 0.9663 0.1502
vn -0.2039 0.9696 0.1351
vn -0.2044 0.9679 0.1464
vn 0.1307 0.0560 0.9898
vn -0.7940 0.0267 0.6073
vn -0.9232 -0.0186 -0.3838
vn -0.0535 -0.0359 -0.9979
vn 0.7787 -0.0091 -0.6273
vn 0.8590 0.0412 0.5103
vn 0.1309 0.0151 0.9913
vn -0.7928 0.0260 0.6089
vn -0.9233 0.0200 -0.3835
vn -0.0540 0.0026 -0.9985
vn 0.7771 -0.0080 -0.6293
vn 0.8588 -0.0007 0.5122
vn 0.1305 0.0541 0.9900
vn -0.7913 0.0223 0.6110
vn -0.9234 -0.0215 -0.3831
vn -0.0528 -0.0339 -0.9980
vn 0.7742 -0.0046 -0.6329
vn 0.8575 0.0436 0.5126
vn 0.1347 0.0166 0.9907
vn -0.7876 0.0259 0.6157
vn -0.9231 0.0196 -0.3842
vn -0.0535 -0.0000 -0.9986
vn 0.7714 -0.0115 -0.6363
vn 0.8575 -0.0015 0.5144
vn 0.2256 0.9741 0.0161
vn 0.2227 0.9748 0.0109
vn 0.2242 0.9745 0.0132
vn 0.8530 -0.0200 0.5214
vn -0.1258 -0.0207 0.9918
vn -0.8976 0.0185 0.4405
vn -0.8028 0.0588 -0.5934
vn 0.0969 0.0557 -0.9937
vn 0.9505 0.0131 -0.3104
vn 0.8520 0.0568 0.5205
vn -0.1260 0.0197 0.9918
vn -0.8976 -0.0150 0.4406
vn -0.8046 -0.0191 -0.5936
vn 0.0975 0.0154 -0.9951
vn 0.9487 0.0568 -0.3109
vn 0.8534 0.0077 0.5212
vn -0.1261 -0.0433 0.9911
vn -0.8973 -0.0280 0.4406
vn -0.8048 0.0342 -0.5925
vn 0.9484 0.0595 -0.3116
vn 0.8541 -0.0058 0.5201
vn -0.1267 -0.0034 0.9919
vn -0.8954 0.0211 0.4448
vn -0.8091 0.0341 -0.5867
vn 0.0974 0.0318 -0.9947
vn 0.9506 0.0104 -0.3104
vn 0.0123 0.9777 0.2096
vn 0.0081 0.9766 0.2151
vn 0.0085 0.9776 0.2104
vn 0.8656 0.0305 0.4997
vn -0.1719 -0.0261 0.9848
vn -0.9081 -0.0366 0.4171
vn -0.6983 0.0042 -0.7158
vn 0.0801 0.0434 -0.9958
vn 0.9289 0.0591 -0.3656
vn 0.8662 0.0297 0.4989
vn -0.1718 -0.0268 0.9848
vn -0.9084 -0.0365 0.4165
vn -0.6991 0.0051 -0.7150
vn 0.0797 0.0442 -0.9958
vn 0.9282 0.0591 -0.3673
vn 0.8666 0.0288 0.4981
vn -0.1719 -0.0274 0.9847
vn -0.9087 -0.0362 0.4158
vn -0.6999 0.0061 -0.7143
vn 0.0795 0.0448 -0.9958
vn 0.9276 0.0589 -0.3688
vn 0.8654 0.0315 0.5001
vn -0.1770 -0.0289 0.9838
vn -0.9122 -0.0314 0.4085
vn -0.7009 0.0064 -0.7133
vn 0.0855 0.0397 -0.9955
vn 0.9322 0.0565 -0.3576
vn 0.1321 0.9713 0.1978
vn 0.1270 0.9729 0.1931
vn 0.1341 0.9719 0.1936
vn 0.6908 -0.0284 0.7225
vn -0.3434 -0.0044 0.9392
vn -0.9614 0.0422 0.2720
vn -0.7434 0.0650 -0.6657
vn 0.2819 0.0358 -0.9588
vn 0.9441 -0.0042 -0.3298
vn 0.6913 -0.0242 0.7221
vn -0.3452 -0.0030 0.9385
vn -0.9609 0.0388 0.2740
vn -0.7445 0.0601 -0.6649
vn 0.2789 0.0346 -0.9597
vn 0.9445 -0.0012 -0.3285
vn 0.6919 -0.0185 0.7218
vn -0.3468 -0.0001 0.9379
vn -0.9606 0.0368 0.2755
vn -0.7458 0.0552 -0.6639
vn 0.2765 0.0318 -0.9605
vn 0.9449 0.0003 -0.3273
vn 0.6934 -0.0149 0.7204
vn -0.3483 0.0041 0.9374
vn -0.9592 0.0355 0.2803
vn -0.7506 0.0453 -0.6592
vn 0.2747 0.0258 -0.9612
vn 0.9453 -0.0013 -0.3263
vn -0.0301 0.9921 0.1218
vn -0.0266 0.9916 0.1265
vn -0.0271 0.9918 0.1249
vn 0.5883 -0.0357 0.8079
vn -0.3108 -0.0186 0.9503
vn -0.9990 0.0375 -0.0259
vn -0.6770 0.0529 -0.7341
vn 0.3761 0.0310 -0.9260
vn 0.9853 -0.0101 -0.1705
vn 0.5884 -0.0200 0.8083
vn -0.3147 -0.0141 0.9491
vn -0.9993 0.0231 -0.0283
vn -0.6768 0.0373 -0.7352
vn 0.3785 0.0286 -0.9251
vn 0.9859 0.0021 -0.1675
vn 0.5880 -0.0224 0.8085
vn -0.3175 -0.0242 0.9480
vn -0.9994 0.0156 -0.0317
vn -0.6762 0.0387 -0.7357
vn 0.3817 0.0395 -0.9234
vn 0.9862 0.0107 -0.1651
vn 0.5937 -0.0371 0.8039
vn -0.3164 -0.0362 0.9479
vn -0.9991 0.0295 -0.0320
vn -0.6828 0.0523 -0.7288
vn 0.3827 0.0439 -0.9228
vn 0.9866 0.0019 -0.1632
vn -0.1501 0.9814 0.1194
vn -0.1493 0.9798 0.1332
vn -0.1615 0.9788 0.1261
vt 0.284916 0.000000
vt -0.279181 1.045048
vt -0.287077 0.000000
vt 0.551218 1.045048
vt 0.018736 0.000000
vt 0.601094 0.000000
vt -0.020491 1.045048
vt -0.496698 0.000000
vt 0.289190 1.045048
vt -0.194623 0.000000
vt 0.295349 0.000000
vt 0.596627 0.000000
vt 0.136673 1.045048
vt 0.098581 0.000000
vt -0.500781 1.045048
vt -0.548088 0.000000
vt 0.281200 1.045048
vt -0.271037 2.090096
vt 0.501167 2.090096
vt -0.059700 2.090096
vt -0.526762 1.045048
vt 0.283096 2.090096
vt -0.192667 1.045048
vt 0.625487 1.045048
vt 0.174910 2.090096
vt -0.453238 2.090096
vt 0.277707 2.090096
vt -0.262678 3.135144
vt 0.450963 3.135144
vt -0.098890 3.135144
vt -0.556806 2.090096
vt 0.277060 3.135144
vt -0.190584 2.090096
vt 0.654240 2.090096
vt 0.213276 3.135144
vt -0.405434 3.135144
vt 0.271454 4.047662
vt 0.274455 3.135144
vt 0.400629 4.171764
vt -0.138060 4.328812
vt -0.586832 3.135144
vt -0.186057 4.249070
vt -0.188380 3.135144
vt 0.682887 3.135144
vt 0.251751 4.090737
vt -0.357353 4.047662
vt -0.295349 0.496698
vt 0.194623 0.596627
vt 0.547561 0.098581
vt -0.510123 -0.138060
vt -0.254143 0.400629
vt 0.271454 0.357353
vt 1.451976 0.000000
vt 0.766683 0.658380
vt 0.762829 0.000000
vt 0.546105 0.658380
vt 0.102336 0.000000
vt 0.566329 0.000000
vt 0.089950 0.658380
vt -0.448656 0.000000
vt -0.696890 0.658380
vt -1.327011 0.000000
vt -0.690553 0.000000
vt 0.582121 0.000000
vt 0.092085 0.658380
vt 0.083229 0.000000
vt -0.432396 0.658380
vt -0.449790 0.000000
vt 1.443534 0.658380
vt 0.802980 1.316761
vt 0.070883 1.316761
vt -0.451650 0.658380
vt -0.735663 1.316761
vt -1.321986 0.658380
vt 0.591924 1.316761
vt 0.583067 0.658380
vt -0.405765 1.316761
vt 1.456908 1.975141
vt 1.467532 1.316761
vt 0.494300 1.975141
vt 0.518957 1.316761
vt 0.054073 1.975141
vt -0.462387 1.316761
vt -1.342152 1.975141
vt -1.349388 1.316761
vt 0.122854 1.975141
vt 0.109705 1.316761
vt -0.384127 1.975141
vt 0.842751 2.522264
vt 0.804657 1.975141
vt 0.039326 2.523079
vt -0.469700 1.975141
vt -0.780345 2.649857
vt -0.739803 1.975141
vt 0.601689 2.791606
vt 0.597159 1.975141
vt -0.361706 2.671415
vt 0.690553 0.448656
vt 1.327011 0.582121
vt 1.698854 0.083229
vt 0.549376 0.039326
vt 0.842751 0.471386
vt 1.482700 0.361706
vt 0.791251 0.909192
vt 0.313505 0.000000
vt 0.806554 0.000000
vt 1.347534 0.909192
vt 0.959153 0.000000
vt 1.398147 0.000000
vt 0.917934 0.909192
vt 0.443121 0.000000
vt -0.194074 0.000000
vt -0.739664 0.909192
vt -0.754368 0.000000
vt -0.412695 0.000000
vt -0.801076 0.909192
vt -0.841803 0.000000
vt -1.283580 0.909192
vt -1.332689 0.000000
vt 0.324373 1.818384
vt 0.307017 0.909192
vt 0.910662 1.818384
vt 0.410706 0.909192
vt -0.208271 1.818384
vt -0.189279 0.909192
vt -0.383064 1.818384
vt -0.381223 0.909192
vt -1.268551 1.818384
vt 0.781200 2.727576
vt 0.799902 1.818384
vt 1.282927 2.727576
vt 1.331326 1.818384
vt 0.871519 2.727576
vt 0.412284 1.818384
vt -0.730251 2.727576
vt -0.748724 1.818384
vt -0.756258 2.727576
vt -0.795012 1.818384
vt -1.221359 2.727576
vt 0.793280 3.571443
vt 0.314267 2.727576
vt 1.264170 3.678779
vt 0.380748 3.715909
vt 0.381889 2.727576
vt -0.199751 2.727576
vt -0.742395 3.597330
vt -0.353801 2.727576
vt -0.747584 3.515656
vt 0.806554 -1.332689
vt -0.020624 -0.959153
vt 0.754368 -0.412695
vt 0.334838 1.264170
vt 0.793280 1.203646
vt 0.742395 0.352841
vt -0.913681 0.428470
vt -1.325875 0.000000
vt -0.896795 0.000000
vt -0.300609 0.000000
vt -0.840785 0.428470
vt -0.854770 0.000000
vt 1.255768 0.000000
vt 0.829586 0.428470
vt 0.810980 0.000000
vt 0.402094 0.428470
vt 0.376169 0.000000
vt 0.739103 0.428470
vt 0.189977 0.000000
vt 0.750457 0.000000
vt -0.455818 0.428470
vt -0.431626 0.000000
vt -0.909852 0.856939
vt -1.335373 0.428470
vt -0.318148 0.856939
vt -0.296384 0.428470
vt 1.256278 0.856939
vt 1.266301 0.428470
vt 0.407294 0.856939
vt 0.212300 0.856939
vt 0.188155 0.428470
vt -0.934252 1.285409
vt -1.324203 0.856939
vt -0.332382 1.285409
vt -0.852792 0.856939
vt 0.852988 1.285409
vt 0.827141 0.856939
vt 0.440691 1.285409
vt 0.753692 0.856939
vt 0.228894 1.285409
vt -0.492803 1.285409
vt -0.460351 0.856939
vt -1.342615 1.617736
vt -1.341222 1.285409
vt -0.845455 1.634317
vt -0.857272 1.285409
vt 1.276866 1.634317
vt 1.274415 1.285409
vt 0.863377 1.725085
vt 0.760707 1.285409
vt 0.229165 1.794396
vt -0.943038 1.699556
vt -0.038218 -0.896795
vt -0.854770 -1.255768
vt -0.750457 -0.376169
vt -0.845455 1.276866
vt -0.330316 1.342615
vt -0.086408 0.943038
vt -0.025559 0.773336
vt -0.492775 0.000000
vt -0.003660 0.000000
vt -0.834808 0.773336
vt -1.467109 0.000000
vt -0.799399 0.000000
vt 0.375995 0.000000
vt -0.078021 0.773336
vt -0.101913 0.000000
vt 1.686962 0.000000
vt 1.288233 0.773336
vt 1.259759 0.000000
vt 0.741130 0.773336
vt 0.702820 0.000000
vt 0.442388 0.773336
vt 0.472701 0.000000
vt -0.048258 1.546671
vt -0.506879 0.773336
vt -0.869894 1.546671
vt -1.490772 0.773336
vt 0.392376 0.773336
vt -0.053485 1.546671
vt 1.706811 0.773336
vt 1.316265 1.546671
vt 0.779021 1.546671
vt 0.411331 1.546671
vt -0.071694 2.320007
vt -0.521730 1.546671
vt -0.904523 2.320007
vt -1.514062 1.546671
vt 0.409363 1.546671
vt -0.028354 2.320007
vt 1.726253 1.546671
vt 1.343718 2.320007
vt 0.816356 2.320007
vt 0.379595 2.320007
vt -0.553358 2.960366
vt -0.537260 2.320007
vt -0.938593 2.960366
vt -1.536847 2.320007
vt 0.444892 3.067590
vt 0.426901 2.320007
vt 1.745157 2.320007
vt 1.370491 3.208398
vt 0.853031 3.129597
vt -0.095758 3.015287
vt -1.467109 -0.375995
vt -1.686962 0.101913
vt -1.259759 0.517814
vt -1.370491 -0.388581
vt -1.559028 0.444892
vt -0.676127 0.095758
vt 0.086234 0.000000
vt -0.306683 0.543425
vt -0.321368 0.000000
vt -0.902094 0.543425
vt -0.929098 0.000000
vt -0.531327 0.000000
vt -1.053928 0.543425
vt -1.075246 0.000000
vt -1.454088 0.543425
vt -1.482838 0.000000
vt 0.694726 0.543425
vt 0.127099 0.000000
vt 0.715563 0.000000
vt 1.283770 0.543425
vt 0.699574 0.000000
vt 1.307515 0.000000
vt 0.098772 1.086850
vt 0.093627 0.543425
vt -0.877435 1.086850
vt -0.520290 0.543425
vt -1.034311 1.086850
vt -1.427102 1.086850
vt 0.675975 1.086850
vt 0.115428 0.543425
vt 1.261443 1.086850
vt 0.685281 0.543425
vt -0.283482 1.630275
vt -0.294259 1.086850
vt -0.854515 1.630275
vt -0.510729 1.086850
vt -1.017045 1.630275
vt -1.402519 1.630275
vt 0.658683 1.630275
vt 0.106051 1.086850
vt 1.241219 1.630275
vt 0.672516 1.086850
vt 0.102285 1.630275
vt -0.273344 2.106661
vt -0.832338 2.113664
vt -0.498201 2.113664
vt -0.503318 1.630275
vt -1.002250 2.173168
vt 0.641839 2.230447
vt 0.098361 1.630275
vt 0.653730 2.161219
vt 0.661949 1.630275
vt -1.081531 1.075246
vt -0.715563 1.482838
vt -0.127099 1.307515
vt -0.832338 -0.498201
vt -0.273344 -0.290491
vt 0.105172 -0.653730
vt 1.152833 0.992796
vt 0.647959 0.000000
vt 1.137072 0.000000
vt 0.019543 0.992796
vt -0.017070 0.000000
vt -0.564377 0.000000
vt -1.105243 0.992796
vt -1.142520 0.000000
vt 0.002931 0.000000
vt -0.477039 0.992796
vt -0.446807 0.000000
vt -1.028192 0.000000
vt 1.281778 0.992796
vt 0.707371 0.000000
vt 1.323026 0.000000
vt 1.154669 1.985591
vt 0.671098 0.992796
vt 0.041904 1.985591
vt -0.537449 0.992796
vt -1.076510 1.985591
vt -0.034238 0.992796
vt -0.493682 1.985591
vt -1.047844 0.992796
vt 1.248948 1.985591
vt 0.675149 0.992796
vt 1.149167 2.978387
vt 0.680377 1.985591
vt 0.056558 2.978387
vt -0.518304 1.985591
vt -1.039234 2.978387
vt -0.057697 1.985591
vt -0.503224 2.978387
vt -1.053200 1.985591
vt 1.207466 2.978387
vt 0.651812 1.985591
vt 0.694245 3.916916
vt 0.682393 2.978387
vt 0.080564 3.842409
vt -0.448480 3.842409
vt -0.490185 2.978387
vt -0.100036 3.915232
vt -0.073963 2.978387
vt -0.522638 4.032317
vt -1.050836 2.978387
vt 0.574764 4.027771
vt 0.620074 2.978387
vt 0.647959 0.351414
vt -0.002931 1.142520
vt 1.028192 1.323026
vt 0.100036 -0.988821
vt 0.694245 -0.240784
vt 1.057842 -1.151987
vt -0.254143 4.171764
vt -0.616842 4.347826
vt 0.271076 4.347826
vt 0.711430 4.249070
vt 0.284916 -0.548088
vt -0.558118 -0.018736
vt -0.287077 -0.601094
vt 0.519477 -0.251751
vt 0.186057 -0.711430
vt -0.271076 -0.616842
vt 1.482700 2.671415
vt 0.471386 2.522264
vt -0.476188 2.649857
vt -1.371312 2.791606
vt 0.136188 2.799002
vt 1.451976 -0.449790
vt 0.762829 -0.566329
vt 0.445768 -0.102336
vt 1.714835 -0.136188
vt 0.780345 -0.476188
vt 1.371312 -0.601689
vt 0.334838 3.678779
vt 0.861524 3.756051
vt -0.221868 3.715909
vt -0.352841 3.597330
vt -1.203646 3.571443
vt 1.097318 -0.841803
vt 0.313505 -1.398147
vt 0.194074 -0.443121
vt 1.066784 0.747584
vt 0.221868 0.380748
vt 0.022626 0.861524
vt -0.330316 1.617736
vt 0.458436 1.811817
vt 0.751376 1.811817
vt -0.509015 1.794396
vt -0.189977 -0.431626
vt -0.300609 -1.325875
vt -1.072708 -0.810980
vt -0.229165 0.509015
vt -0.751376 0.458436
vt -1.048701 0.863377
vt -1.559028 3.067590
vt -0.002719 3.183102
vt 1.763426 3.183102
vt 0.347284 3.129597
vt -0.702820 0.472701
vt -0.516375 -0.003660
vt -0.799399 -0.492775
vt -0.853031 -0.347284
vt -1.763426 -0.002719
vt -0.938593 0.553358
vt 0.105172 2.161219
vt -1.380450 2.230447
vt 0.091358 2.225173
vt 1.223275 2.225173
vt 0.086234 0.699574
vt -0.321368 0.310517
vt -0.929098 0.531327
vt -0.091358 -1.223275
vt -0.641839 -1.380450
vt -0.977447 -1.002250
vt 1.153414 4.027771
vt -0.988821 3.915232
vt -1.057842 4.083405
vt 1.151987 4.083405
vt 1.137072 0.707371
vt -0.017070 0.564377
vt 0.446807 1.558375
vt 1.153414 -0.574764
vt 0.522638 -1.376343
vt 0.080564 -0.448480
s 0
f 1/1/1 8/2/1 2/3/1
f 8/4/2 3/5/2 2/6/2
f 9/7/3 4/8/3 3/5/3
f 10/9/4 5/10/4 4/11/4
f 5/12/5 12/13/5 6/14/5
f 6/14/6 7/15/6 1/16/6
f 7/17/7 14/18/7 8/2/7
f 14/19/8 9/7/8 8/4/8
f 15/20/9 10/21/9 9/7/9
f 16/22/10 11/23/10 10/9/10
f 11/24/11 18/25/11 12/13/11
f 12/13/12 13/26/12 7/15/12
f 13/27/13 20/28/13 14/18/13
f 20/29/14 15/20/14 14/19/14
f 21/30/15 16/31/15 15/20/15
f 22/32/16 17/33/16 16/22/16
f 17/34/17 24/35/17 18/25/17
f 18/25/18 19/36/18 13/26/18
f 25/37/19 20/28/19 19/38/19
f 26/39/20 21/30/20 20/29/20
f 27/40/21 22/41/21 21/30/21
f 22/32/22 29/42/22 23/43/22
f 23/44/23 30/45/23 24/35/23
f 24/35/24 25/46/24 19/36/24
f 4/47/25 5/48/25 6/49/25
f 27/50/26 26/51/26 25/52/26
f 31/53/27 38/54/27 32/55/27
f 38/56/28 33/57/28 32/58/28
f 39/59/29 34/60/29 33/57/29
f 40/61/30 35/62/30 34/63/30
f 35/64/31 42/65/31 36/66/31
f 36/66/32 37/67/32 31/68/32
f 37/69/33 44/70/33 38/54/33
f 38/56/34 45/71/34 39/59/34
f 45/71/35 40/72/35 39/59/35
f 46/73/36 41/74/36 40/61/36
f 47/75/37 42/65/37 41/76/37
f 42/65/38 43/77/38 37/67/38
f 49/78/39 44/70/39 43/79/39
f 50/80/40 45/71/40 44/81/40
f 51/82/41 46/83/41 45/71/41
f 46/73/42 53/84/42 47/85/42
f 47/75/43 54/86/43 48/87/43
f 48/87/44 49/88/44 43/77/44
f 49/78/45 56/89/45 50/90/45
f 50/80/46 57/91/46 51/82/46
f 57/91/47 52/92/47 51/82/47
f 58/93/48 53/84/48 52/94/48
f 59/95/49 54/86/49 53/96/49
f 54/86/50 55/97/50 49/88/50
f 34/98/25 35/99/25 36/100/25
f 57/101/51 56/102/51 55/103/51
f 67/104/52 62/105/52 61/106/52
f 68/107/53 63/108/53 62/109/53
f 69/110/54 64/111/54 63/108/54
f 64/112/55 71/113/55 65/114/55
f 65/115/56 72/116/56 66/117/56
f 66/117/57 67/118/57 61/119/57
f 67/104/58 74/120/58 68/121/58
f 68/107/59 75/122/59 69/110/59
f 75/122/60 70/123/60 69/110/60
f 76/124/61 71/113/61 70/125/61
f 77/126/62 72/116/62 71/127/62
f 72/116/63 73/128/63 67/118/63
f 79/129/64 74/120/64 73/130/64
f 80/131/65 75/122/65 74/132/65
f 81/133/66 76/134/66 75/122/66
f 76/124/67 83/135/67 77/136/67
f 77/126/68 84/137/68 78/138/68
f 78/138/69 79/139/69 73/128/69
f 85/140/70 80/141/70 79/129/70
f 86/142/71 81/133/71 80/131/71
f 81/133/72 88/143/72 82/144/72
f 82/145/73 89/146/73 83/135/73
f 83/147/74 90/148/74 84/137/74
f 90/148/75 79/139/75 84/137/75
f 61/149/25 63/150/25 65/151/25
f 86/152/76 85/153/76 89/154/76
f 97/155/77 92/156/77 91/157/77
f 92/158/78 99/159/78 93/160/78
f 93/161/79 100/162/79 94/163/79
f 94/163/80 101/164/80 95/165/80
f 101/166/81 96/167/81 95/168/81
f 102/169/82 91/157/82 96/170/82
f 103/171/83 98/172/83 97/155/83
f 104/173/84 99/159/84 98/174/84
f 105/175/85 100/162/85 99/176/85
f 100/162/86 107/177/86 101/164/86
f 101/166/87 108/178/87 102/179/87
f 102/169/88 103/171/88 97/155/88
f 109/180/89 104/181/89 103/171/89
f 110/182/90 105/183/90 104/173/90
f 105/175/91 112/184/91 106/185/91
f 106/185/92 113/186/92 107/177/92
f 107/187/93 114/188/93 108/178/93
f 114/189/94 103/171/94 108/190/94
f 109/180/95 116/191/95 110/192/95
f 110/182/96 117/193/96 111/194/96
f 117/195/97 112/184/97 111/196/97
f 118/197/98 113/186/98 112/184/98
f 113/198/99 120/199/99 114/188/99
f 114/189/100 115/200/100 109/180/100
f 91/201/25 93/202/25 95/203/25
f 117/204/101 116/205/101 115/206/101
f 127/207/102 122/208/102 121/209/102
f 128/210/103 123/211/103 122/212/103
f 123/213/104 130/214/104 124/215/104
f 124/216/105 131/217/105 125/218/105
f 125/218/106 132/219/106 126/220/106
f 132/221/107 121/209/107 126/222/107
f 133/223/108 128/224/108 127/207/108
f 134/225/109 129/226/109 128/210/109
f 129/227/110 136/228/110 130/214/110
f 130/229/111 137/230/111 131/217/111
f 131/217/112 138/231/112 132/219/112
f 138/232/113 127/207/113 132/221/113
f 139/233/114 134/234/114 133/223/114
f 140/235/115 135/236/115 134/225/115
f 135/237/116 142/238/116 136/228/116
f 136/239/117 143/240/117 137/230/117
f 137/230/118 144/241/118 138/231/118
f 144/242/119 133/223/119 138/232/119
f 139/233/120 146/243/120 140/244/120
f 146/245/121 141/246/121 140/235/121
f 147/247/122 142/238/122 141/248/122
f 142/249/123 149/250/123 143/240/123
f 143/240/124 150/251/124 144/241/124
f 144/242/125 145/252/125 139/233/125
f 123/253/25 124/254/25 125/255/25
f 149/256/126 147/257/126 145/258/126
f 151/259/127 158/260/127 152/261/127
f 152/261/128 159/262/128 153/263/128
f 153/264/129 160/265/129 154/266/129
f 154/266/130 161/267/130 155/268/130
f 161/269/131 156/270/131 155/271/131
f 162/272/132 151/273/132 156/274/132
f 163/275/133 158/260/133 157/276/133
f 158/260/134 165/277/134 159/262/134
f 159/278/135 166/279/135 160/265/135
f 160/265/136 167/280/136 161/267/136
f 167/281/137 162/282/137 161/269/137
f 168/283/138 157/284/138 162/272/138
f 163/275/139 170/285/139 164/286/139
f 164/286/140 171/287/140 165/277/140
f 165/288/141 172/289/141 166/279/141
f 166/279/142 173/290/142 167/280/142
f 173/291/143 168/292/143 167/281/143
f 174/293/144 163/294/144 168/283/144
f 169/295/145 176/296/145 170/285/145
f 170/285/146 177/297/146 171/287/146
f 177/298/147 172/289/147 171/299/147
f 178/300/148 173/290/148 172/289/148
f 179/301/149 174/302/149 173/291/149
f 174/293/150 175/303/150 169/304/150
f 154/305/25 155/306/25 156/307/25
f 177/308/151 176/309/151 175/310/151
f 187/311/152 182/312/152 181/313/152
f 182/312/153 189/314/153 183/315/153
f 183/316/154 190/317/154 184/318/154
f 184/319/155 191/320/155 185/321/155
f 191/320/156 186/322/156 185/321/156
f 192/323/157 181/324/157 186/325/157
f 193/326/158 188/327/158 187/311/158
f 188/327/159 195/328/159 189/314/159
f 189/329/160 196/330/160 190/317/160
f 190/331/161 197/332/161 191/320/161
f 197/332/162 192/333/162 191/320/162
f 198/334/163 187/335/163 192/323/163
f 199/336/164 194/337/164 193/326/164
f 194/337/165 201/338/165 195/328/165
f 195/339/166 202/340/166 196/330/166
f 196/341/167 203/342/167 197/332/167
f 203/342/168 198/343/168 197/332/168
f 204/344/169 193/345/169 198/334/169
f 199/336/170 206/346/170 200/347/170
f 200/347/171 207/348/171 201/338/171
f 207/349/172 202/340/172 201/350/172
f 208/351/173 203/342/173 202/352/173
f 209/353/174 204/354/174 203/342/174
f 204/344/175 205/355/175 199/356/175
f 182/357/25 184/358/25 186/359/25
f 208/360/176 206/361/176 210/362/176
f 1/1/177 7/17/177 8/2/177
f 8/4/178 9/7/178 3/5/178
f 9/7/179 10/21/179 4/8/179
f 10/9/180 11/23/180 5/10/180
f 5/12/181 11/24/181 12/13/181
f 6/14/182 12/13/182 7/15/182
f 7/17/183 13/27/183 14/18/183
f 14/19/184 15/20/184 9/7/184
f 15/20/185 16/31/185 10/21/185
f 16/22/186 17/33/186 11/23/186
f 11/24/187 17/34/187 18/25/187
f 12/13/188 18/25/188 13/26/188
f 13/27/189 19/38/189 20/28/189
f 20/29/190 21/30/190 15/20/190
f 21/30/191 22/41/191 16/31/191
f 22/32/192 23/43/192 17/33/192
f 17/34/193 23/44/193 24/35/193
f 18/25/194 24/35/194 19/36/194
f 25/37/195 26/363/195 20/28/195
f 26/39/196 27/40/196 21/30/196
f 27/40/197 28/364/197 22/41/197
f 22/32/198 28/365/198 29/42/198
f 23/44/199 29/366/199 30/45/199
f 24/35/200 30/45/200 25/46/200
f 6/49/25 1/367/25 3/368/25
f 1/367/25 2/369/25 3/368/25
f 3/368/25 4/47/25 6/49/25
f 25/52/201 30/370/201 27/50/201
f 30/370/202 29/371/202 28/372/202
f 27/50/203 30/370/203 28/372/203
f 31/53/204 37/69/204 38/54/204
f 38/56/205 39/59/205 33/57/205
f 39/59/206 40/72/206 34/60/206
f 40/61/207 41/74/207 35/62/207
f 35/64/208 41/76/208 42/65/208
f 36/66/209 42/65/209 37/67/209
f 37/69/210 43/79/210 44/70/210
f 38/56/211 44/81/211 45/71/211
f 45/71/212 46/83/212 40/72/212
f 46/73/213 47/85/213 41/74/213
f 47/75/214 48/87/214 42/65/214
f 42/65/215 48/87/215 43/77/215
f 49/78/216 50/90/216 44/70/216
f 50/80/217 51/82/217 45/71/217
f 51/82/218 52/92/218 46/83/218
f 46/73/219 52/94/219 53/84/219
f 47/75/220 53/96/220 54/86/220
f 48/87/221 54/86/221 49/88/221
f 49/78/222 55/373/222 56/89/222
f 50/80/223 56/374/223 57/91/223
f 57/91/224 58/375/224 52/92/224
f 58/93/225 59/376/225 53/84/225
f 59/95/226 60/377/226 54/86/226
f 54/86/227 60/377/227 55/97/227
f 36/100/25 31/378/25 34/98/25
f 31/378/25 32/379/25 33/380/25
f 34/98/25 31/378/25 33/380/25
f 55/103/228 60/381/228 58/382/228
f 60/381/229 59/383/229 58/382/229
f 58/382/230 57/101/230 55/103/230
f 67/104/231 68/121/231 62/105/231
f 68/107/232 69/110/232 63/108/232
f 69/110/233 70/123/233 64/111/233
f 64/112/234 70/125/234 71/113/234
f 65/115/235 71/127/235 72/116/235
f 66/117/236 72/116/236 67/118/236
f 67/104/237 73/130/237 74/120/237
f 68/107/238 74/132/238 75/122/238
f 75/122/239 76/134/239 70/123/239
f 76/124/240 77/136/240 71/113/240
f 77/126/241 78/138/241 72/116/241
f 72/116/242 78/138/242 73/128/242
f 79/129/243 80/141/243 74/120/243
f 80/131/244 81/133/244 75/122/244
f 81/133/245 82/144/245 76/134/245
f 76/124/246 82/145/246 83/135/246
f 77/126/247 83/147/247 84/137/247
f 78/138/248 84/137/248 79/139/248
f 85/140/249 86/384/249 80/141/249
f 86/142/250 87/385/250 81/133/250
f 81/133/251 87/385/251 88/143/251
f 82/145/252 88/386/252 89/146/252
f 83/147/253 89/387/253 90/148/253
f 90/148/254 85/388/254 79/139/254
f 66/389/25 61/149/25 65/151/25
f 61/149/25 62/390/25 63/150/25
f 65/151/25 63/150/25 64/391/25
f 85/153/255 90/392/255 89/154/255
f 89/154/256 88/393/256 87/394/256
f 87/394/257 86/152/257 89/154/257
f 97/155/258 98/172/258 92/156/258
f 92/158/259 98/174/259 99/159/259
f 93/161/260 99/176/260 100/162/260
f 94/163/261 100/162/261 101/164/261
f 101/166/262 102/179/262 96/167/262
f 102/169/263 97/155/263 91/157/263
f 103/171/264 104/181/264 98/172/264
f 104/173/265 105/183/265 99/159/265
f 105/175/266 106/185/266 100/162/266
f 100/162/267 106/185/267 107/177/267
f 101/166/268 107/187/268 108/178/268
f 102/169/269 108/190/269 103/171/269
f 109/180/270 110/192/270 104/181/270
f 110/182/271 111/194/271 105/183/271
f 105/175/272 111/196/272 112/184/272
f 106/185/273 112/184/273 113/186/273
f 107/187/93 113/198/93 114/188/93
f 114/189/274 109/180/274 103/171/274
f 109/180/275 115/200/275 116/191/275
f 110/182/276 116/395/276 117/193/276
f 117/195/277 118/197/277 112/184/277
f 118/197/278 119/396/278 113/186/278
f 113/198/279 119/397/279 120/199/279
f 114/189/280 120/398/280 115/200/280
f 96/399/25 91/201/25 95/203/25
f 91/201/25 92/400/25 93/202/25
f 95/203/25 93/202/25 94/401/25
f 115/206/281 120/402/281 119/403/281
f 119/403/282 118/404/282 115/206/282
f 118/404/283 117/204/283 115/206/283
f 127/207/284 128/224/284 122/208/284
f 128/210/285 129/226/285 123/211/285
f 123/213/286 129/227/286 130/214/286
f 124/216/287 130/229/287 131/217/287
f 125/218/288 131/217/288 132/219/288
f 132/221/289 127/207/289 121/209/289
f 133/223/290 134/234/290 128/224/290
f 134/225/291 135/236/291 129/226/291
f 129/227/292 135/237/292 136/228/292
f 130/229/293 136/239/293 137/230/293
f 131/217/294 137/230/294 138/231/294
f 138/232/295 133/223/295 127/207/295
f 139/233/296 140/244/296 134/234/296
f 140/235/297 141/246/297 135/236/297
f 135/237/298 141/248/298 142/238/298
f 136/239/299 142/249/299 143/240/299
f 137/230/300 143/240/300 144/241/300
f 144/242/301 139/233/301 133/223/301
f 139/233/302 145/252/302 146/243/302
f 146/245/303 147/405/303 141/246/303
f 147/247/304 148/406/304 142/238/304
f 142/249/305 148/407/305 149/250/305
f 143/240/306 149/250/306 150/251/306
f 144/242/307 150/408/307 145/252/307
f 126/409/25 121/410/25 125/255/25
f 121/410/25 122/411/25 123/253/25
f 125/255/25 121/410/25 123/253/25
f 145/258/308 150/412/308 149/256/308
f 149/256/309 148/413/309 147/257/309
f 147/257/310 146/414/310 145/258/310
f 151/259/311 157/276/311 158/260/311
f 152/261/312 158/260/312 159/262/312
f 153/264/313 159/278/313 160/265/313
f 154/266/314 160/265/314 161/267/314
f 161/269/315 162/282/315 156/270/315
f 162/272/316 157/284/316 151/273/316
f 163/275/317 164/286/317 158/260/317
f 158/260/318 164/286/318 165/277/318
f 159/278/319 165/288/319 166/279/319
f 160/265/320 166/279/320 167/280/320
f 167/281/321 168/292/321 162/282/321
f 168/283/322 163/294/322 157/284/322
f 163/275/323 169/295/323 170/285/323
f 164/286/324 170/285/324 171/287/324
f 165/288/325 171/299/325 172/289/325
f 166/279/326 172/289/326 173/290/326
f 173/291/327 174/302/327 168/292/327
f 174/293/328 169/304/328 163/294/328
f 169/295/329 175/415/329 176/296/329
f 170/285/330 176/296/330 177/297/330
f 177/298/331 178/300/331 172/289/331
f 178/300/332 179/416/332 173/290/332
f 179/301/333 180/417/333 174/302/333
f 174/293/334 180/418/334 175/303/334
f 156/307/25 151/419/25 152/420/25
f 152/420/25 153/421/25 156/307/25
f 153/421/25 154/305/25 156/307/25
f 175/310/335 180/422/335 177/308/335
f 180/422/336 179/423/336 178/424/336
f 177/308/337 180/422/337 178/424/337
f 187/311/338 188/327/338 182/312/338
f 182/312/339 188/327/339 189/314/339
f 183/316/340 189/329/340 190/317/340
f 184/319/341 190/331/341 191/320/341
f 191/320/342 192/333/342 186/322/342
f 192/323/343 187/335/343 181/324/343
f 193/326/344 194/337/344 188/327/344
f 188/327/345 194/337/345 195/328/345
f 189/329/346 195/339/346 196/330/346
f 190/331/347 196/341/347 197/332/347
f 197/332/348 198/343/348 192/333/348
f 198/334/349 193/345/349 187/335/349
f 199/336/350 200/347/350 194/337/350
f 194/337/351 200/347/351 201/338/351
f 195/339/352 201/350/352 202/340/352
f 196/341/353 202/352/353 203/342/353
f 203/342/354 204/354/354 198/343/354
f 204/344/355 199/356/355 193/345/355
f 199/336/356 205/425/356 206/346/356
f 200/347/357 206/346/357 207/348/357
f 207/349/358 208/426/358 202/340/358
f 208/351/359 209/353/359 203/342/359
f 209/353/360 210/427/360 204/354/360
f 204/344/361 210/428/361 205/355/361
f 186/359/25 181/429/25 182/357/25
f 182/357/25 183/430/25 184/358/25
f 184/358/25 185/431/25 186/359/25
f 205/432/362 210/362/362 206/361/362
f 210/362/363 209/433/363 208/360/363
f 208/360/364 207/434/364 206/361/364
