# Blender 5.0.1
# www.blender.org
mtllib rockform_l.mtl
o rockform_l_rock
usemtl rockform_l_rock
v -0.034459 1.173071 0.012886
v 0.567172 1.129947 0.012886
v 0.556182 1.134092 0.148384
v 0.392978 1.155935 0.224170
v 0.364499 1.149202 0.354459
v 0.210697 1.164622 0.376432
v 0.105238 1.177721 0.459253
v -0.034459 1.200000 0.449669
v -0.165271 1.181260 0.430862
v -0.324238 1.169096 0.442603
v -0.449378 1.116777 0.368124
v -0.523718 1.136579 0.254729
v -0.573818 1.149876 0.136619
v -0.526329 1.146267 0.012886
v -0.482748 1.143653 -0.089956
v -0.555875 1.114415 -0.244854
v -0.438627 1.144837 -0.333148
v -0.310517 1.190912 -0.396486
v -0.168565 1.187788 -0.415616
v -0.034459 1.182439 -0.439439
v 0.101809 1.177464 -0.422525
v 0.254546 1.137679 -0.415686
v 0.348191 1.154610 -0.314726
v 0.424829 1.144930 -0.214144
v 0.569973 1.121964 -0.125776
v 1.168803 1.123340 0.012886
v 1.146823 1.151669 0.283882
v 0.820415 1.108369 0.435455
v 0.763458 1.072338 0.696033
v 0.455853 1.101720 0.739979
v 0.244936 1.157432 0.905621
v -0.034459 1.126769 0.886453
v -0.296083 1.128272 0.848838
v -0.614016 1.109789 0.872321
v -0.864297 1.056075 0.723363
v -1.012976 1.114910 0.496573
v -1.113177 1.118670 0.260352
v -1.018198 1.070844 0.012886
v -0.931036 1.040303 -0.192797
v -1.077290 0.952915 -0.502593
v -0.842795 0.945274 -0.679182
v -0.586575 0.899937 -0.805858
v -0.302671 0.918427 -0.844117
v -0.034459 0.979989 -0.891764
v 0.238077 0.977909 -0.857935
v 0.543551 1.074151 -0.844257
v 0.730841 1.102026 -0.642337
v 0.884117 1.102774 -0.441173
v 1.174405 1.085520 -0.264438
v 1.770434 1.056758 0.012886
v 1.737465 1.110404 0.419380
v 1.247852 1.028553 0.646740
v 1.162416 1.102275 1.037607
v 0.701009 1.025258 1.103525
v 0.384633 1.041531 1.351989
v -0.034459 1.113922 1.323236
v -0.426895 1.034853 1.266814
v -0.903794 1.033892 1.302039
v -1.279216 1.084098 1.078601
v -1.502235 1.101702 0.738416
v -1.652535 1.095769 0.384086
v -1.510068 0.940199 0.012886
v -1.379324 0.930153 -0.295638
v -1.598706 0.920402 -0.760332
v -1.246963 0.845945 -1.025216
v -0.862633 0.837817 -1.215230
v -0.436777 0.899084 -1.272619
v -0.034459 0.907929 -1.344089
v 0.374345 0.910087 -1.293345
v 0.832556 0.863022 -1.272829
v 1.113491 1.053602 -0.969948
v 1.343405 1.073081 -0.668202
v 1.778837 1.106914 -0.403100
v 2.372065 0.956563 0.012886
v 2.328106 0.901038 0.554878
v 1.675289 1.008780 0.858025
v 1.561375 0.961060 1.379181
v 0.946165 0.952959 1.467072
v 0.524331 0.997905 1.798357
v -0.034459 0.992710 1.760020
v -0.557707 0.959412 1.684790
v -1.193572 1.001510 1.731757
v -1.694135 0.966158 1.433840
v -1.991493 0.975471 0.980260
v -2.191894 0.954857 0.507819
v -2.001937 0.768428 0.012886
v -1.827613 0.789722 -0.398479
v -2.120121 0.749552 -1.018071
v -1.651130 0.841773 -1.371250
v -1.138692 0.817773 -1.624602
v -0.570883 0.727065 -1.701120
v -0.034459 0.838184 -1.796414
v 0.510613 0.734571 -1.728755
v 1.121561 0.771394 -1.701400
v 1.496142 1.042894 -1.297560
v 1.802693 0.972529 -0.895231
v 2.383270 0.933397 -0.541762
v 2.973696 0.866338 0.012886
v 2.918747 0.813014 0.690376
v 2.102726 0.853739 1.069310
v 1.960333 0.847674 1.720755
v 1.191321 0.858101 1.830619
v 0.664028 0.781945 2.244725
v -0.034459 0.868181 2.196803
v -0.688518 0.835034 2.102766
v -1.483351 0.875489 2.161474
v -2.109054 0.839892 1.789078
v -2.480752 0.820097 1.222103
v -2.731253 0.610405 0.631553
v -2.493807 0.646023 0.012886
v -2.275901 0.661127 -0.501320
v -2.641537 0.505802 -1.275810
v -2.055298 0.502323 -1.717284
v -1.414750 0.531605 -2.033974
v -0.704989 0.501563 -2.129622
v -0.034459 0.689210 -2.248739
v 0.646881 0.640722 -2.164165
v 1.410566 0.707307 -2.129971
v 1.878792 0.857146 -1.625171
v 2.261982 0.820724 -1.122260
v 2.987702 0.899875 -0.680424
v 3.575327 0.636742 0.012886
v 3.509388 0.684641 0.825874
v 2.530164 0.623767 1.280595
v 2.359292 0.647241 2.062329
v 1.436477 0.678606 2.194165
v 0.803726 0.681406 2.691093
v -0.034459 0.721732 2.633587
v -0.819330 0.640609 2.520742
v -1.773129 0.692339 2.591192
v -2.523973 0.659078 2.144317
v -2.970010 0.700881 1.463947
v -3.270611 0.544299 0.755286
v -2.985676 0.508445 0.012886
v -2.724189 0.506899 -0.604161
v -3.162952 0.391999 -1.533549
v -2.459466 0.329349 -2.063318
v -1.690808 0.340604 -2.443346
v -0.839095 0.329349 -2.558123
v -0.034459 0.373702 -2.701064
v 0.783149 0.468854 -2.599575
v 1.699572 0.532962 -2.558542
v 2.261442 0.469779 -1.952782
v 2.721270 0.678396 -1.349289
v 3.592134 0.638187 -0.819086
v 3.647523 0.000000 0.012886
v 3.580266 0.000000 0.842134
v 2.581456 0.000000 1.305949
v 2.407167 0.000000 2.103318
v 1.465896 0.000000 2.237791
v 0.820489 0.000000 2.744657
v -0.034459 0.000000 2.686001
v -0.835028 0.000000 2.570899
v -1.807902 0.000000 2.642759
v -2.573763 0.000000 2.186946
v -3.028721 0.000000 1.492968
v -3.335334 0.000000 0.770134
v -3.044701 0.000000 0.012886
v -2.777984 0.000000 -0.616502
v -3.225522 0.000000 -1.564477
v -2.507966 0.000000 -2.104842
v -1.723935 0.000000 -2.492470
v -0.855187 0.000000 -2.609543
v -0.034459 0.000000 -2.755343
v 0.799501 0.000000 -2.651824
v 1.734252 0.000000 -2.609971
v 2.307360 0.000000 -1.992096
v 2.776385 0.000000 -1.376533
v 3.664666 0.000000 -0.835725
vn 0.0715 0.9971 -0.0247
vn 0.0877 0.9914 -0.0970
vn 0.0131 0.9984 0.0545
vn 0.0940 0.9948 -0.0403
vn 0.0927 0.9949 -0.0394
vn 0.1613 0.9850 -0.0607
vn -0.1329 0.9892 -0.0610
vn -0.0795 0.9958 -0.0444
vn -0.2845 0.9410 -0.1831
vn 0.0087 0.9860 0.1665
vn -0.0155 0.9928 0.1184
vn -0.0543 0.9973 -0.0499
vn -0.0543 0.9973 -0.0484
vn -0.0246 0.9844 -0.1742
vn -0.1672 0.9792 0.1154
vn -0.2406 0.9490 0.2036
vn 0.0255 0.9993 0.0263
vn 0.0435 0.9988 0.0207
vn 0.0339 0.9992 0.0207
vn 0.2475 0.9650 0.0872
vn -0.0527 0.9917 -0.1174
vn 0.0788 0.9962 0.0359
vn 0.1038 0.9908 0.0871
vn 0.0714 0.9959 -0.0559
vn 0.0110 0.9995 -0.0297
vn -0.0630 0.9872 0.1464
vn 0.0770 0.9947 0.0682
vn 0.1083 0.9895 0.0962
vn 0.1674 0.9842 0.0574
vn -0.1142 0.9902 0.0808
vn -0.1629 0.9731 0.1631
vn -0.0682 0.9922 0.1044
vn -0.3346 0.9374 -0.0963
vn 0.0020 0.9853 0.1707
vn 0.0093 0.9941 0.1080
vn -0.1084 0.9675 -0.2286
vn -0.1483 0.9672 -0.2065
vn -0.2047 0.9749 -0.0874
vn -0.1656 0.9510 -0.2610
vn -0.0613 0.8940 -0.4439
vn -0.1249 0.8465 -0.5175
vn -0.2749 0.8504 -0.4486
vn 0.0837 0.9095 -0.4071
vn 0.2514 0.9073 -0.3371
vn 0.0063 0.9898 -0.1425
vn 0.1319 0.9913 -0.0051
vn 0.1205 0.9909 0.0597
vn 0.0289 0.9905 -0.1345
vn 0.1095 0.9895 -0.0946
vn -0.0081 0.9463 0.3233
vn 0.1049 0.9817 0.1587
vn -0.1514 0.9843 0.0905
vn 0.2702 0.9626 0.0203
vn 0.1531 0.9671 0.2032
vn 0.0015 0.9996 0.0294
vn -0.0417 0.9778 0.2055
vn -0.2224 0.9747 0.0222
vn 0.1808 0.9743 0.1343
vn -0.0158 0.9996 0.0226
vn -0.1359 0.8941 -0.4269
vn -0.2542 0.9571 -0.1389
vn -0.1957 0.9641 -0.1796
vn 0.0451 0.9757 -0.2144
vn -0.0749 0.9783 -0.1933
vn -0.1488 0.9876 -0.0495
vn -0.0284 0.9989 -0.0362
vn 0.0271 0.9872 -0.1573
vn -0.2827 0.9304 -0.2334
vn -0.0745 0.8737 -0.4807
vn 0.0743 0.9954 -0.0603
vn 0.0622 0.9981 -0.0047
vn -0.0077 0.9928 0.1195
vn 0.1632 0.9797 -0.1161
vn 0.2710 0.9286 0.2535
vn 0.1233 0.9797 -0.1578
vn 0.0369 0.9380 0.3447
vn 0.1337 0.9854 0.1058
vn -0.0163 0.9946 0.1023
vn -0.2265 0.9385 0.2605
vn 0.0114 0.9834 0.1811
vn 0.0629 0.9911 0.1171
vn -0.1502 0.9774 0.1490
vn -0.2144 0.9739 0.0746
vn -0.3201 0.8395 -0.4391
vn -0.3283 0.9402 -0.0905
vn -0.3240 0.9366 0.1333
vn -0.2645 0.9591 -0.1007
vn 0.0259 0.9988 -0.0423
vn 0.1376 0.9804 -0.1408
vn -0.2437 0.9240 -0.2946
vn 0.0137 0.9882 -0.1524
vn 0.1112 0.9333 -0.3414
vn -0.2563 0.8954 -0.3642
vn -0.0165 0.9985 -0.0519
vn 0.0828 0.9624 -0.2588
vn 0.2684 0.9627 -0.0348
vn 0.1474 0.9826 0.1126
vn 0.1143 0.9835 0.1405
vn 0.2724 0.9509 0.1466
vn 0.0504 0.9640 0.2612
vn 0.1981 0.9728 0.1202
vn 0.0837 0.9070 0.4127
vn -0.1001 0.9568 0.2728
vn 0.0855 0.9473 0.3087
vn -0.1698 0.9707 0.1701
vn -0.1789 0.9742 0.1373
vn -0.2692 0.9604 0.0723
vn -0.5576 0.8131 -0.1672
vn -0.2408 0.9678 -0.0736
vn -0.2909 0.9538 0.0755
vn -0.2531 0.9045 -0.3433
vn -0.2785 0.8279 -0.4868
vn -0.0395 0.8313 -0.5544
vn -0.3105 0.8778 -0.3648
vn 0.2143 0.9277 -0.3056
vn -0.0486 0.9732 -0.2250
vn -0.0896 0.9744 -0.2061
vn 0.3566 0.9278 -0.1095
vn 0.2025 0.9526 -0.2272
vn 0.0666 0.9965 0.0496
vn 0.3547 0.9294 0.1019
vn 0.1151 0.9214 0.3712
vn 0.4315 0.8963 0.1027
vn 0.0910 0.9017 0.4228
vn 0.1468 0.9227 0.3566
vn 0.0326 0.9772 0.2099
vn -0.0933 0.9440 0.3165
vn 0.0781 0.8944 0.4405
vn -0.2089 0.9425 0.2609
vn -0.2825 0.9471 0.1521
vn -0.3213 0.9271 -0.1929
vn -0.1442 0.9842 -0.1029
vn -0.2676 0.9566 -0.1158
vn -0.3167 0.9476 -0.0405
vn -0.0933 0.9667 -0.2382
vn -0.1567 0.9444 -0.2890
vn -0.0417 0.9159 -0.3992
vn -0.1119 0.9337 -0.3402
vn 0.1283 0.8134 -0.5674
vn -0.0632 0.9214 -0.3835
vn 0.2990 0.9372 -0.1796
vn 0.5138 0.7902 -0.3342
vn 0.1135 0.9288 -0.3528
vn 0.3992 0.9168 0.0097
vn 0.9904 0.1123 0.0803
vn 0.4203 0.0650 0.9051
vn 0.9736 0.0886 0.2102
vn 0.1411 0.0730 0.9873
vn 0.6160 0.0771 0.7840
vn -0.0682 0.0765 0.9947
vn -0.1492 0.0716 0.9862
vn 0.0775 0.0759 0.9941
vn -0.5123 0.0893 0.8541
vn -0.8323 0.0982 0.5456
vn -0.9238 0.0928 0.3714
vn -0.9289 0.1007 -0.3565
vn -0.9155 0.1063 -0.3880
vn -0.9050 0.0859 0.4166
vn -0.5941 0.1571 -0.7889
vn -0.4363 0.1755 -0.8825
vn -0.1320 0.1541 -0.9792
vn -0.1727 0.1602 -0.9719
vn 0.1219 0.1427 -0.9822
vn 0.0366 0.1119 -0.9930
vn 0.7343 0.1124 -0.6694
vn 0.7889 0.1274 -0.6011
vn 0.5211 0.0765 -0.8501
vn 0.9935 0.1124 0.0201
vn -0.0000 -1.0000 -0.0000
vn -0.0056 0.9945 -0.1044
vn 0.1220 0.9923 -0.0233
vn 0.0617 0.9868 0.1499
vn 0.1128 0.9891 0.0951
vn 0.2339 0.9718 -0.0290
vn 0.1444 0.9759 0.1636
vn -0.0119 0.9924 0.1221
vn -0.0501 0.9934 0.1033
vn -0.1832 0.9820 -0.0462
vn 0.0618 0.9752 0.2125
vn -0.0493 0.9981 0.0368
vn -0.1510 0.9847 -0.0867
vn -0.1994 0.9738 -0.1093
vn -0.2137 0.9619 -0.1705
vn -0.3431 0.9295 -0.1353
vn -0.4495 0.8428 -0.2960
vn -0.0513 0.8527 -0.5199
vn -0.0361 0.9122 -0.4083
vn 0.0568 0.9142 -0.4012
vn -0.2719 0.9083 -0.3180
vn -0.0034 0.9867 -0.1623
vn 0.0651 0.9965 -0.0533
vn 0.0600 0.9982 -0.0010
vn 0.0110 0.9983 -0.0573
vn 0.0971 0.9877 -0.1225
vn 0.0209 0.9485 0.3160
vn 0.0716 0.9829 -0.1697
vn 0.1128 0.9849 0.1311
vn 0.1972 0.9621 0.1881
vn -0.1110 0.9934 0.0292
vn -0.2158 0.9651 0.1482
vn 0.0114 0.9833 0.1814
vn 0.1059 0.9933 0.0453
vn -0.0011 0.9986 0.0524
vn -0.0422 0.9991 0.0012
vn -0.2469 0.9294 -0.2744
vn -0.1847 0.9577 -0.2205
vn -0.0676 0.9976 0.0110
vn -0.0958 0.9808 -0.1697
vn 0.0747 0.9772 -0.1987
vn -0.0681 0.9974 -0.0237
vn -0.2467 0.9570 -0.1525
vn 0.0134 0.9886 -0.1498
vn 0.1113 0.9192 -0.3778
vn 0.0046 0.9900 -0.1409
vn 0.0237 0.9963 -0.0824
vn -0.0469 0.9976 -0.0503
vn 0.1090 0.9852 -0.1322
vn 0.3067 0.9440 0.1216
vn -0.0621 0.9742 0.2169
vn 0.2240 0.9649 0.1373
vn -0.1206 0.9549 0.2713
vn 0.1454 0.9881 0.0511
vn 0.1465 0.9532 0.2645
vn -0.0844 0.9849 0.1513
vn 0.0747 0.9893 0.1249
vn -0.1547 0.9774 0.1439
vn -0.1822 0.9733 0.1394
vn -0.2396 0.9691 0.0593
vn -0.2922 0.8369 -0.4629
vn -0.2657 0.9533 -0.1436
vn -0.3576 0.9275 0.1087
vn 0.1062 0.9850 -0.1359
vn -0.0023 0.9989 -0.0474
vn -0.1769 0.9313 -0.3185
vn -0.0487 0.9871 -0.1522
vn 0.2144 0.9273 -0.3067
vn -0.0477 0.9697 -0.2395
vn -0.2583 0.9074 -0.3314
vn 0.2166 0.9763 0.0057
vn 0.2144 0.9448 -0.2476
vn 0.1631 0.9791 0.1213
vn 0.1270 0.9880 0.0881
vn 0.2475 0.9489 0.1957
vn 0.2262 0.9723 0.0585
vn 0.0213 0.9708 0.2389
vn 0.1714 0.9068 0.3851
vn -0.0277 0.9613 0.2741
vn -0.0860 0.9620 0.2593
vn 0.0720 0.9429 0.3251
vn -0.1542 0.9740 0.1660
vn -0.2432 0.9618 0.1259
vn -0.5475 0.8343 -0.0640
vn -0.2195 0.8822 -0.4166
vn -0.2622 0.9631 -0.0613
vn -0.4330 0.9011 0.0237
vn -0.4195 0.8429 -0.3369
vn -0.1928 0.8605 -0.4715
vn 0.0744 0.8727 -0.4825
vn -0.2447 0.9209 -0.3033
vn 0.0923 0.9789 -0.1821
vn -0.0764 0.9773 -0.1976
vn -0.0426 0.8470 -0.5299
vn 0.2551 0.9588 -0.1250
vn 0.0102 0.9812 -0.1926
vn 0.1482 0.9882 -0.0383
vn 0.2209 0.9745 -0.0395
vn 0.2472 0.8635 0.4396
vn 0.4057 0.9120 0.0613
vn 0.0700 0.9124 0.4033
vn 0.1418 0.9743 0.1751
vn 0.0948 0.9439 0.3165
vn -0.1488 0.9136 0.3784
vn 0.0808 0.8961 0.4364
vn -0.1940 0.9471 0.2555
vn -0.1569 0.9741 0.1627
vn -0.1542 0.9765 -0.1504
vn -0.2691 0.9619 -0.0479
vn -0.3030 0.9477 -0.1006
vn -0.2007 0.9793 -0.0263
vn -0.1870 0.9485 -0.2557
vn -0.1933 0.9326 -0.3048
vn -0.0105 0.9290 -0.3700
vn -0.3144 0.7786 -0.5431
vn -0.0598 0.9220 -0.3826
vn -0.0459 0.9141 -0.4028
vn 0.3287 0.7778 -0.5357
vn 0.0926 0.9172 -0.3876
vn 0.2847 0.8704 -0.4016
vn 0.3561 0.9330 0.0523
vn 0.9918 0.1044 0.0743
vn 0.4165 0.0711 0.9064
vn 0.9734 0.0855 0.2128
vn 0.1434 0.0697 0.9872
vn 0.6158 0.0768 0.7841
vn -0.0648 0.0723 0.9953
vn -0.1418 0.0807 0.9866
vn 0.0735 0.0704 0.9948
vn -0.5092 0.0938 0.8555
vn -0.8301 0.0923 0.5499
vn -0.9140 0.1193 0.3877
vn -0.9264 0.1075 -0.3608
vn -0.9154 0.1066 -0.3882
vn -0.8988 0.1100 0.4243
vn -0.5805 0.1855 -0.7928
vn -0.4387 0.1699 -0.8824
vn -0.1298 0.1591 -0.9787
vn -0.1807 0.1414 -0.9733
vn 0.1093 0.1139 -0.9875
vn 0.0445 0.0988 -0.9941
vn 0.7272 0.1275 -0.6745
vn 0.7774 0.0882 -0.6228
vn 0.5183 0.0811 -0.8513
vn 0.9934 0.1126 0.0203
vt 0.000000 0.000000
vt 0.513601 0.117824
vt 0.523157 0.000000
vt 0.371685 0.183726
vt 0.346920 0.297021
vt 0.213179 0.316128
vt 0.121476 0.388146
vt 0.000000 0.379812
vt -0.113749 0.363457
vt -0.251981 0.373668
vt -0.360799 0.308903
vt -0.425442 0.210299
vt -0.469007 0.107594
vt -0.427713 0.000000
vt -0.389816 -0.089427
vt -0.453405 -0.224121
vt -0.351450 -0.300899
vt -0.240051 -0.355976
vt -0.116614 -0.372610
vt -0.000000 -0.393326
vt 0.118494 -0.378617
vt 0.251309 -0.372671
vt 0.332739 -0.284879
vt 0.399381 -0.197417
vt 0.525593 -0.120576
vt 1.046315 0.000000
vt 0.743369 0.367452
vt 1.027202 0.235649
vt 0.426358 0.632255
vt 0.693841 0.594042
vt 0.000000 0.759624
vt 0.242952 0.776292
vt -0.227499 0.726915
vt -0.503962 0.747335
vt -0.721598 0.617806
vt -0.850884 0.420598
vt -0.855425 0.000000
vt -0.938015 0.215189
vt -0.779632 -0.178854
vt -0.702900 -0.601798
vt -0.906809 -0.448242
vt -0.480101 -0.711951
vt -0.233228 -0.745220
vt -0.000000 -0.786652
vt 0.236988 -0.757235
vt 0.665479 -0.569759
vt 0.502618 -0.745341
vt 0.798762 -0.394833
vt 1.051187 -0.241151
vt 1.569472 0.000000
vt 1.115054 0.551178
vt 1.540803 0.353473
vt 0.639538 0.948383
vt 1.040761 0.891062
vt 0.000000 1.139435
vt 0.364428 1.164438
vt -0.341248 1.090372
vt -0.755943 1.121003
vt -1.082397 0.926709
vt -1.276326 0.630896
vt -1.283138 0.000000
vt -1.407022 0.322783
vt -1.169448 -0.268281
vt -1.054351 -0.902697
vt -1.360214 -0.672363
vt -0.720151 -1.067927
vt -0.349841 -1.117830
vt -0.000000 -1.179978
vt 0.355482 -1.135852
vt 0.998218 -0.854638
vt 0.753927 -1.118012
vt 1.198143 -0.592250
vt 1.576780 -0.361727
vt 2.092630 0.000000
vt 1.486738 0.734904
vt 2.054404 0.471298
vt 0.852717 1.264510
vt 1.387682 1.188083
vt 0.000000 1.519247
vt 0.485904 1.552584
vt -0.454998 1.453830
vt -1.007924 1.494671
vt -1.443196 1.235613
vt -1.701769 0.841195
vt -1.710850 0.000000
vt -1.876030 0.430377
vt -1.559264 -0.357708
vt -1.405801 -1.203596
vt -1.813619 -0.896484
vt -0.960202 -1.423902
vt -0.466455 -1.490440
vt -0.000000 -1.573304
vt 0.473976 -1.514470
vt 1.330957 -1.139518
vt 1.005235 -1.490683
vt 1.597524 -0.789667
vt 2.102373 -0.482302
vt 2.615787 0.000000
vt 1.858422 0.918630
vt 2.568006 0.589122
vt 1.065896 1.580638
vt 1.734602 1.485104
vt 0.000000 1.899059
vt 0.607380 1.940730
vt -0.568747 1.817287
vt -1.259905 1.868338
vt -1.803995 1.544516
vt -2.127211 1.051494
vt -2.138563 0.000000
vt -2.345038 0.537971
vt -1.949080 -0.447135
vt -1.757251 -1.504495
vt -2.267024 -1.120604
vt -1.200252 -1.779878
vt -0.583069 -1.863050
vt -0.000000 -1.966630
vt 0.592470 -1.893087
vt 1.663697 -1.424397
vt 1.256544 -1.863354
vt 1.996905 -0.987083
vt 2.627966 -0.602878
vt 3.138945 0.000000
vt 2.230107 1.102356
vt 3.081607 0.706946
vt 1.279075 1.896765
vt 2.081523 1.782125
vt 0.000000 2.278871
vt 0.728856 2.328876
vt -0.682496 2.180744
vt -1.511887 2.242006
vt -2.164794 1.853419
vt -2.552653 1.261793
vt -2.566276 0.000000
vt -2.814045 0.645566
vt -2.338896 -0.536562
vt -2.108701 -1.805394
vt -2.720428 -1.344725
vt -1.440303 -2.135853
vt -0.699683 -2.235660
vt -0.000000 -2.359956
vt 0.710964 -2.271705
vt 1.996436 -1.709276
vt 1.507853 -2.236024
vt 2.396286 -1.184500
vt 3.153559 -0.723453
vt -0.000000 0.553689
vt -0.721085 0.000000
vt 3.081607 0.595340
vt 2.274709 0.000000
vt 3.143239 0.000000
vt -1.782125 0.562818
vt -1.124403 0.000000
vt -1.102356 0.542406
vt 2.081523 0.562818
vt 1.304657 0.000000
vt 2.123153 0.000000
vt 0.728856 0.592527
vt 1.279075 0.590092
vt 0.000000 0.000000
vt 0.743433 0.000000
vt -0.682496 0.557051
vt 0.000000 0.627593
vt -1.511887 0.602034
vt -0.696146 0.000000
vt -2.164794 0.573111
vt -1.542124 0.000000
vt 1.853419 0.573111
vt 1.287028 0.000000
vt 1.890487 0.000000
vt 0.645566 0.473303
vt 1.261793 0.609462
vt 0.000000 0.000000
vt 0.658477 0.000000
vt 0.000000 0.442126
vt -0.547294 0.000000
vt -1.344725 0.340869
vt -0.536562 0.440781
vt 2.720428 0.340869
vt 2.150876 0.000000
vt 2.774837 0.000000
vt 2.108701 0.286391
vt 1.469109 0.000000
vt 1.440303 0.296178
vt 0.713677 0.000000
vt 0.699683 0.286391
vt 0.000000 0.000000
vt 0.000000 0.324958
vt -0.725183 0.000000
vt -1.507853 0.463445
vt -0.710964 0.407699
vt 1.709276 0.408504
vt 2.280745 0.000000
vt 2.236024 0.463445
vt 1.208190 0.000000
vt 1.743462 0.000000
vt -3.153559 0.554945
vt -2.444212 0.000000
vt -2.396286 0.589910
vt 0.723453 0.554945
vt 0.737922 0.000000
vt -2.603706 -1.287028
vt -2.617601 -0.000000
vt -0.696146 -2.224360
vt -0.706946 0.595340
vt 2.230107 0.542406
vt -1.817767 0.000000
vt -2.208090 0.000000
vt -1.371620 0.000000
vt -1.538010 0.000000
vt 1.184500 0.589910
vt -3.216631 0.000000
vt 3.216631 0.737922
vt 3.201724 -0.000000
vt 2.444212 1.208190
vt 3.143239 -0.721085
vt 2.274709 -1.124403
vt 2.123153 -1.817767
vt 1.304657 -1.934700
vt 1.538010 2.280745
vt 2.036365 1.743462
vt 0.725183 2.317139
vt 0.743433 -2.375454
vt 0.000000 -2.324448
vt -0.713677 2.280373
vt -1.542124 -2.286846
vt -2.208090 -1.890487
vt -2.870326 -0.658477
vt -2.385673 0.547294
vt -2.774837 1.371620
vt -2.150876 1.841502
vt -1.469109 2.178570
vt -0.000000 2.407156
s 0
f 1/1/1 3/2/1 2/3/1
f 1/1/2 4/4/2 3/2/2
f 1/1/3 5/5/3 4/4/3
f 1/1/4 6/6/4 5/5/4
f 1/1/5 7/7/5 6/6/5
f 1/1/6 8/8/6 7/7/6
f 1/1/7 9/9/7 8/8/7
f 1/1/8 10/10/8 9/9/8
f 1/1/9 11/11/9 10/10/9
f 1/1/10 12/12/10 11/11/10
f 1/1/11 13/13/11 12/12/11
f 1/1/12 14/14/12 13/13/12
f 1/1/13 15/15/13 14/14/13
f 1/1/14 16/16/14 15/15/14
f 1/1/15 17/17/15 16/16/15
f 1/1/16 18/18/16 17/17/16
f 1/1/17 19/19/17 18/18/17
f 1/1/18 20/20/18 19/19/18
f 1/1/19 21/21/19 20/20/19
f 1/1/20 22/22/20 21/21/20
f 1/1/21 23/23/21 22/22/21
f 1/1/22 24/24/22 23/23/22
f 1/1/23 25/25/23 24/24/23
f 1/1/24 2/3/24 25/25/24
f 3/2/25 26/26/25 2/3/25
f 3/2/26 28/27/26 27/28/26
f 5/5/27 28/27/27 4/4/27
f 5/5/28 30/29/28 29/30/28
f 7/7/29 30/29/29 6/6/29
f 7/7/30 32/31/30 31/32/30
f 9/9/31 32/31/31 8/8/31
f 10/10/32 33/33/32 9/9/32
f 11/11/33 34/34/33 10/10/33
f 12/12/34 35/35/34 11/11/34
f 13/13/35 36/36/35 12/12/35
f 13/13/36 38/37/36 37/38/36
f 14/14/37 39/39/37 38/37/37
f 16/16/38 39/39/38 15/15/38
f 16/16/39 41/40/39 40/41/39
f 17/17/40 42/42/40 41/40/40
f 18/18/41 43/43/41 42/42/41
f 19/19/42 44/44/42 43/43/42
f 21/21/43 44/44/43 20/20/43
f 22/22/44 45/45/44 21/21/44
f 22/22/45 47/46/45 46/47/45
f 24/24/46 47/46/46 23/23/46
f 25/25/47 48/48/47 24/24/47
f 25/25/48 26/26/48 49/49/48
f 27/28/49 50/50/49 26/26/49
f 27/28/50 52/51/50 51/52/50
f 29/30/51 52/51/51 28/27/51
f 29/30/52 54/53/52 53/54/52
f 31/32/53 54/53/53 30/29/53
f 31/32/54 56/55/54 55/56/54
f 33/33/55 56/55/55 32/31/55
f 34/34/56 57/57/56 33/33/56
f 35/35/57 58/58/57 34/34/57
f 36/36/58 59/59/58 35/35/58
f 37/38/59 60/60/59 36/36/59
f 37/38/60 62/61/60 61/62/60
f 38/37/61 63/63/61 62/61/61
f 40/41/62 63/63/62 39/39/62
f 40/41/63 65/64/63 64/65/63
f 41/40/64 66/66/64 65/64/64
f 42/42/65 67/67/65 66/66/65
f 43/43/66 68/68/66 67/67/66
f 45/45/67 68/68/67 44/44/67
f 46/47/68 69/69/68 45/45/68
f 46/47/69 71/70/69 70/71/69
f 48/48/70 71/70/70 47/46/70
f 49/49/71 72/72/71 48/48/71
f 49/49/72 50/50/72 73/73/72
f 51/52/73 74/74/73 50/50/73
f 51/52/74 76/75/74 75/76/74
f 53/54/75 76/75/75 52/51/75
f 53/54/76 78/77/76 77/78/76
f 55/56/77 78/77/77 54/53/77
f 55/56/78 80/79/78 79/80/78
f 57/57/79 80/79/79 56/55/79
f 58/58/80 81/81/80 57/57/80
f 59/59/81 82/82/81 58/58/81
f 60/60/82 83/83/82 59/59/82
f 61/62/83 84/84/83 60/60/83
f 61/62/84 86/85/84 85/86/84
f 62/61/85 87/87/85 86/85/85
f 64/65/86 87/87/86 63/63/86
f 64/65/87 89/88/87 88/89/87
f 65/64/88 90/90/88 89/88/88
f 66/66/89 91/91/89 90/90/89
f 67/67/90 92/92/90 91/91/90
f 69/69/91 92/92/91 68/68/91
f 70/71/92 93/93/92 69/69/92
f 70/71/93 95/94/93 94/95/93
f 72/72/94 95/94/94 71/70/94
f 73/73/95 96/96/95 72/72/95
f 73/73/96 74/74/96 97/97/96
f 75/76/97 98/98/97 74/74/97
f 75/76/98 100/99/98 99/100/98
f 77/78/99 100/99/99 76/75/99
f 77/78/100 102/101/100 101/102/100
f 79/80/101 102/101/101 78/77/101
f 79/80/102 104/103/102 103/104/102
f 81/81/103 104/103/103 80/79/103
f 82/82/104 105/105/104 81/81/104
f 83/83/105 106/106/105 82/82/105
f 84/84/106 107/107/106 83/83/106
f 85/86/107 108/108/107 84/84/107
f 85/86/108 110/109/108 109/110/108
f 86/85/109 111/111/109 110/109/109
f 88/89/110 111/111/110 87/87/110
f 88/89/111 113/112/111 112/113/111
f 89/88/112 114/114/112 113/112/112
f 90/90/113 115/115/113 114/114/113
f 91/91/114 116/116/114 115/115/114
f 93/93/115 116/116/115 92/92/115
f 94/95/116 117/117/116 93/93/116
f 94/95/117 119/118/117 118/119/117
f 96/96/118 119/118/118 95/94/118
f 97/97/119 120/120/119 96/96/119
f 97/97/120 98/98/120 121/121/120
f 99/100/121 122/122/121 98/98/121
f 99/100/122 124/123/122 123/124/122
f 101/102/123 124/123/123 100/99/123
f 101/102/124 126/125/124 125/126/124
f 103/104/125 126/125/125 102/101/125
f 103/104/126 128/127/126 127/128/126
f 105/105/127 128/127/127 104/103/127
f 106/106/128 129/129/128 105/105/128
f 107/107/129 130/130/129 106/106/129
f 108/108/130 131/131/130 107/107/130
f 109/110/131 132/132/131 108/108/131
f 109/110/132 134/133/132 133/134/132
f 110/109/133 135/135/133 134/133/133
f 112/113/134 135/135/134 111/111/134
f 112/113/135 137/136/135 136/137/135
f 113/112/136 138/138/136 137/136/136
f 114/114/137 139/139/137 138/138/137
f 115/115/138 140/140/138 139/139/138
f 117/117/139 140/140/139 116/116/139
f 118/119/140 141/141/140 117/117/140
f 118/119/141 143/142/141 142/143/141
f 120/120/142 143/142/142 119/118/142
f 121/121/143 144/144/143 120/120/143
f 121/121/144 122/122/144 145/145/144
f 122/146/145 147/147/145 146/1/145
f 123/148/146 148/149/146 147/150/146
f 125/151/147 148/152/147 124/153/147
f 125/154/148 150/155/148 149/156/148
f 127/157/149 150/155/149 126/158/149
f 127/157/150 152/159/150 151/160/150
f 129/161/151 152/159/151 128/162/151
f 130/163/152 153/164/152 129/161/152
f 131/165/153 154/166/153 130/163/153
f 131/167/154 156/168/154 155/169/154
f 133/170/155 156/168/155 132/171/155
f 133/170/156 158/172/156 157/173/156
f 134/174/157 159/175/157 158/172/157
f 136/176/158 159/175/158 135/177/158
f 136/178/159 161/179/159 160/180/159
f 137/181/160 162/182/160 161/179/160
f 138/183/161 163/184/161 162/182/161
f 139/185/162 164/186/162 163/184/162
f 140/187/163 165/188/163 164/186/163
f 142/189/164 165/188/164 141/190/164
f 143/191/165 166/192/165 142/193/165
f 143/191/166 168/194/166 167/195/166
f 145/196/167 168/197/167 144/198/167
f 145/199/168 146/1/168 169/200/168
f 156/201/169 158/202/169 153/203/169
f 3/2/170 27/28/170 26/26/170
f 3/2/171 4/4/171 28/27/171
f 5/5/172 29/30/172 28/27/172
f 5/5/173 6/6/173 30/29/173
f 7/7/174 31/32/174 30/29/174
f 7/7/175 8/8/175 32/31/175
f 9/9/176 33/33/176 32/31/176
f 10/10/177 34/34/177 33/33/177
f 11/11/178 35/35/178 34/34/178
f 12/12/179 36/36/179 35/35/179
f 13/13/180 37/38/180 36/36/180
f 13/13/181 14/14/181 38/37/181
f 14/14/182 15/15/182 39/39/182
f 16/16/183 40/41/183 39/39/183
f 16/16/184 17/17/184 41/40/184
f 17/17/185 18/18/185 42/42/185
f 18/18/186 19/19/186 43/43/186
f 19/19/187 20/20/187 44/44/187
f 21/21/188 45/45/188 44/44/188
f 22/22/189 46/47/189 45/45/189
f 22/22/190 23/23/190 47/46/190
f 24/24/191 48/48/191 47/46/191
f 25/25/192 49/49/192 48/48/192
f 25/25/193 2/3/193 26/26/193
f 27/28/194 51/52/194 50/50/194
f 27/28/195 28/27/195 52/51/195
f 29/30/196 53/54/196 52/51/196
f 29/30/197 30/29/197 54/53/197
f 31/32/198 55/56/198 54/53/198
f 31/32/199 32/31/199 56/55/199
f 33/33/200 57/57/200 56/55/200
f 34/34/201 58/58/201 57/57/201
f 35/35/202 59/59/202 58/58/202
f 36/36/203 60/60/203 59/59/203
f 37/38/204 61/62/204 60/60/204
f 37/38/205 38/37/205 62/61/205
f 38/37/206 39/39/206 63/63/206
f 40/41/207 64/65/207 63/63/207
f 40/41/208 41/40/208 65/64/208
f 41/40/209 42/42/209 66/66/209
f 42/42/210 43/43/210 67/67/210
f 43/43/211 44/44/211 68/68/211
f 45/45/212 69/69/212 68/68/212
f 46/47/213 70/71/213 69/69/213
f 46/47/214 47/46/214 71/70/214
f 48/48/215 72/72/215 71/70/215
f 49/49/216 73/73/216 72/72/216
f 49/49/217 26/26/217 50/50/217
f 51/52/218 75/76/218 74/74/218
f 51/52/219 52/51/219 76/75/219
f 53/54/220 77/78/220 76/75/220
f 53/54/221 54/53/221 78/77/221
f 55/56/222 79/80/222 78/77/222
f 55/56/223 56/55/223 80/79/223
f 57/57/224 81/81/224 80/79/224
f 58/58/225 82/82/225 81/81/225
f 59/59/226 83/83/226 82/82/226
f 60/60/227 84/84/227 83/83/227
f 61/62/228 85/86/228 84/84/228
f 61/62/229 62/61/229 86/85/229
f 62/61/230 63/63/230 87/87/230
f 64/65/231 88/89/231 87/87/231
f 64/65/232 65/64/232 89/88/232
f 65/64/233 66/66/233 90/90/233
f 66/66/234 67/67/234 91/91/234
f 67/67/235 68/68/235 92/92/235
f 69/69/236 93/93/236 92/92/236
f 70/71/237 94/95/237 93/93/237
f 70/71/238 71/70/238 95/94/238
f 72/72/239 96/96/239 95/94/239
f 73/73/240 97/97/240 96/96/240
f 73/73/241 50/50/241 74/74/241
f 75/76/242 99/100/242 98/98/242
f 75/76/243 76/75/243 100/99/243
f 77/78/244 101/102/244 100/99/244
f 77/78/245 78/77/245 102/101/245
f 79/80/246 103/104/246 102/101/246
f 79/80/247 80/79/247 104/103/247
f 81/81/248 105/105/248 104/103/248
f 82/82/249 106/106/249 105/105/249
f 83/83/250 107/107/250 106/106/250
f 84/84/251 108/108/251 107/107/251
f 85/86/252 109/110/252 108/108/252
f 85/86/253 86/85/253 110/109/253
f 86/85/254 87/87/254 111/111/254
f 88/89/255 112/113/255 111/111/255
f 88/89/256 89/88/256 113/112/256
f 89/88/257 90/90/257 114/114/257
f 90/90/258 91/91/258 115/115/258
f 91/91/259 92/92/259 116/116/259
f 93/93/260 117/117/260 116/116/260
f 94/95/261 118/119/261 117/117/261
f 94/95/262 95/94/262 119/118/262
f 96/96/263 120/120/263 119/118/263
f 97/97/264 121/121/264 120/120/264
f 97/97/265 74/74/265 98/98/265
f 99/100/266 123/124/266 122/122/266
f 99/100/267 100/99/267 124/123/267
f 101/102/268 125/126/268 124/123/268
f 101/102/269 102/101/269 126/125/269
f 103/104/270 127/128/270 126/125/270
f 103/104/271 104/103/271 128/127/271
f 105/105/272 129/129/272 128/127/272
f 106/106/273 130/130/273 129/129/273
f 107/107/274 131/131/274 130/130/274
f 108/108/275 132/132/275 131/131/275
f 109/110/276 133/134/276 132/132/276
f 109/110/277 110/109/277 134/133/277
f 110/109/278 111/111/278 135/135/278
f 112/113/279 136/137/279 135/135/279
f 112/113/280 113/112/280 137/136/280
f 113/112/281 114/114/281 138/138/281
f 114/114/282 115/115/282 139/139/282
f 115/115/283 116/116/283 140/140/283
f 117/117/284 141/141/284 140/140/284
f 118/119/285 142/143/285 141/141/285
f 118/119/286 119/118/286 143/142/286
f 120/120/287 144/144/287 143/142/287
f 121/121/288 145/145/288 144/144/288
f 121/121/289 98/98/289 122/122/289
f 122/146/290 123/204/290 147/147/290
f 123/148/291 124/205/291 148/149/291
f 125/151/292 149/206/292 148/152/292
f 125/154/293 126/158/293 150/155/293
f 127/157/294 151/160/294 150/155/294
f 127/157/295 128/162/295 152/159/295
f 129/161/296 153/164/296 152/159/296
f 130/163/297 154/166/297 153/164/297
f 131/165/298 155/207/298 154/166/298
f 131/167/299 132/171/299 156/168/299
f 133/170/300 157/173/300 156/168/300
f 133/170/301 134/174/301 158/172/301
f 134/174/302 135/177/302 159/175/302
f 136/176/303 160/208/303 159/175/303
f 136/178/304 137/181/304 161/179/304
f 137/181/305 138/183/305 162/182/305
f 138/183/306 139/185/306 163/184/306
f 139/185/307 140/187/307 164/186/307
f 140/187/308 141/190/308 165/188/308
f 142/189/309 166/209/309 165/188/309
f 143/191/310 167/195/310 166/192/310
f 143/191/311 144/210/311 168/194/311
f 145/196/312 169/211/312 168/197/312
f 145/199/313 122/146/313 146/1/313
f 169/212/169 146/213/169 168/214/169
f 146/213/169 147/215/169 148/216/169
f 148/216/169 149/217/169 150/218/169
f 146/213/169 148/216/169 168/214/169
f 166/219/169 167/220/169 165/221/169
f 167/220/169 168/214/169 148/216/169
f 165/221/169 167/220/169 148/216/169
f 148/216/169 150/218/169 165/221/169
f 150/218/169 151/222/169 152/223/169
f 152/223/169 153/203/169 163/224/169
f 153/203/169 154/225/169 155/226/169
f 155/226/169 156/201/169 153/203/169
f 156/201/169 157/227/169 158/202/169
f 158/202/169 159/228/169 153/203/169
f 159/228/169 160/229/169 161/230/169
f 161/230/169 162/231/169 159/228/169
f 162/231/169 163/224/169 159/228/169
f 163/224/169 164/232/169 152/223/169
f 164/232/169 165/221/169 150/218/169
f 152/223/169 164/232/169 150/218/169
f 163/224/169 153/203/169 159/228/169
