# Blender 5.0.1
# www.blender.org
mtllib rockform_e.mtl
o rockform_e_rock
usemtl rockform_e_rock
v 1.439434 0.032094 -0.675295
v 1.783713 0.035704 0.291696
v 1.001192 0.000000 1.189439
v 0.347333 0.041792 1.342049
v -0.964970 0.030832 1.298766
v -1.838201 0.031224 0.209568
v -1.353176 0.033575 -0.730223
v -0.733783 0.013559 -1.488873
v 0.318458 0.047822 -1.437127
v 1.542311 0.428521 -0.683112
v 1.936998 0.427200 0.314496
v 1.097364 0.400367 1.285686
v 0.379933 0.443438 1.414369
v -0.991060 0.432068 1.399458
v -1.910228 0.423443 0.235196
v -1.386221 0.429153 -0.735196
v -0.727458 0.412383 -1.546683
v 0.373758 0.443939 -1.509525
v 1.449527 0.753452 -0.661793
v 1.799446 0.829375 0.325746
v 1.009557 0.855582 1.237547
v 0.352124 0.907339 1.380428
v -0.969691 0.892513 1.355741
v -1.853325 0.801790 0.236196
v -1.359275 0.739736 -0.719205
v -0.725653 0.672953 -1.496037
v 0.326099 0.714522 -1.443369
v -0.887423 0.774156 0.326779
v -1.200358 0.754070 -0.463855
v -0.264555 0.751759 -1.145293
v 0.607291 0.767892 -1.428899
v 1.236707 0.753495 -0.895743
v 1.561520 0.742151 -0.245464
v 1.182108 0.755404 0.762138
v 0.645737 0.761487 1.250679
v -0.592823 0.755859 1.060409
v -0.968133 1.060181 0.382562
v -1.305770 1.037309 -0.465506
v -0.305739 1.041696 -1.164695
v 0.617339 1.057192 -1.473614
v 1.276812 1.036409 -0.902462
v 1.630055 1.030619 -0.222834
v 1.201144 1.041814 0.848149
v 0.656436 1.056837 1.360871
v -0.656386 1.047360 1.167898
v -0.891444 1.282296 0.336843
v -1.209260 1.321526 -0.470814
v -0.261175 1.401002 -1.160719
v 0.622800 1.466799 -1.443058
v 1.265833 1.417695 -0.906139
v 1.597477 1.361794 -0.249387
v 1.208067 1.280015 0.776647
v 0.664940 1.237291 1.283128
v -0.597594 1.216269 1.094581
v 0.556655 1.305562 -1.663321
v 1.396862 1.297390 -1.032371
v 1.911588 1.295429 -0.239643
v 1.235361 1.298533 0.458700
v 0.527276 1.282223 0.960396
v -0.690114 1.266000 0.734268
v -1.137010 1.287534 -0.213527
v -0.577081 1.273676 -1.019509
v 0.582057 1.633626 -1.735631
v 1.464104 1.627621 -1.067298
v 1.989772 1.624995 -0.257717
v 1.278791 1.631162 0.498762
v 0.553050 1.613127 1.013423
v -0.710977 1.593611 0.774155
v -1.225702 1.622565 -0.210182
v -0.619892 1.603480 -1.071117
v 0.563171 2.112661 -1.687087
v 1.395579 2.026200 -1.054237
v 1.903496 1.931286 -0.240223
v 1.220129 1.871982 0.469791
v 0.516763 1.820028 0.975285
v -0.709718 1.855743 0.741566
v -1.153220 1.991398 -0.225996
v -0.581683 2.042576 -1.045012
v -0.825074 1.913750 -0.244079
v -0.205548 1.913692 -1.168462
v 0.564943 1.910548 -1.214954
v 1.262901 1.919736 -0.916566
v 1.676311 1.903497 -0.106489
v 1.501477 1.906292 0.608839
v 0.747055 1.921301 1.106382
v -0.256370 1.907027 0.759081
v -0.841190 2.163507 -0.279894
v -0.212271 2.163167 -1.218003
v 0.567856 2.159971 -1.253071
v 1.280800 2.168505 -0.959124
v 1.698847 2.152396 -0.127735
v 1.519063 2.155815 0.584416
v 0.756046 2.171287 1.098944
v -0.268766 2.157179 0.739145
v -0.716986 2.485854 -0.226030
v -0.128142 2.542695 -1.113412
v 0.581183 2.516237 -1.147531
v 1.240128 2.467029 -0.866936
v 1.615709 2.352380 -0.125930
v 1.470036 2.294173 0.536686
v 0.755172 2.293283 1.004675
v -0.161631 2.356667 0.674910
v 0.929435 2.354999 0.291612
v 0.194600 2.374558 0.393405
v -0.325991 2.363408 -0.002022
v -0.533612 2.350314 -0.683170
v -0.040240 2.361537 -1.187910
v 0.644363 2.348571 -1.328913
v 1.407991 2.365328 -0.766786
v 1.475423 2.362080 -0.177608
v 0.948829 2.630290 0.340080
v 0.193025 2.650350 0.437711
v -0.340299 2.640016 0.035048
v -0.549125 2.626583 -0.662185
v -0.040999 2.636572 -1.177181
v 0.656951 2.625551 -1.328855
v 1.439801 2.643282 -0.745446
v 1.510304 2.639599 -0.141732
v 0.898823 2.997897 0.249324
v 0.195489 2.966557 0.346636
v -0.295316 2.883590 -0.020272
v -0.488705 2.803624 -0.660774
v -0.031685 2.813692 -1.147103
v 0.627555 2.839772 -1.281575
v 1.344074 2.955363 -0.759868
v 1.409715 3.000000 -0.195771
vn 0.9140 -0.2436 -0.3245
vn 0.7203 -0.3209 0.6150
vn 0.2116 -0.1898 0.9587
vn -0.0299 -0.2451 0.9690
vn -0.7673 -0.1811 0.6151
vn -0.8857 -0.0797 -0.4573
vn -0.7735 -0.0725 -0.6296
vn 0.0533 -0.1441 -0.9881
vn 0.5457 -0.2238 -0.8076
vn 0.8836 0.3120 -0.3492
vn 0.7325 0.2326 0.6397
vn 0.1829 0.1382 0.9734
vn -0.0116 0.0950 0.9954
vn -0.7800 0.1157 0.6150
vn -0.8725 0.1325 -0.4704
vn -0.7688 0.1271 -0.6267
vn 0.0258 0.2417 -0.9700
vn 0.5659 0.2138 -0.7962
vn 0.0076 -1.0000 -0.0022
vn -0.0393 0.9973 -0.0627
vn -0.8789 -0.3174 0.3560
vn -0.5834 -0.1364 -0.8007
vn -0.3042 -0.1352 -0.9430
vn 0.6411 -0.1089 -0.7597
vn 0.8853 -0.1361 -0.4446
vn 0.9069 -0.2425 0.3447
vn 0.6490 -0.2581 0.7157
vn -0.1412 -0.3416 0.9292
vn -0.8829 -0.3167 0.3466
vn -0.8869 0.3076 0.3448
vn -0.5645 0.1766 -0.8063
vn -0.3177 0.0499 -0.9469
vn 0.6548 0.0116 -0.7557
vn 0.8864 0.0503 -0.4603
vn 0.9253 0.0841 0.3697
vn 0.6640 0.2692 0.6976
vn -0.1341 0.4335 0.8911
vn -0.8336 0.4369 0.3380
vn -0.0113 -0.9999 0.0104
vn -0.0142 0.9972 0.0731
vn 0.5848 -0.2175 -0.7815
vn 0.8174 -0.2226 -0.5313
vn 0.7069 -0.1748 0.6853
vn 0.5721 -0.1730 0.8018
vn -0.1794 -0.1301 0.9751
vn -0.9001 -0.1087 0.4219
vn -0.8075 -0.1921 -0.5577
vn -0.4800 -0.1961 -0.8550
vn 0.5994 0.1289 -0.7900
vn 0.8106 0.2584 -0.5255
vn 0.7195 0.1641 0.6749
vn 0.5589 0.2319 0.7962
vn -0.1862 0.1464 0.9715
vn -0.8837 0.0619 0.4639
vn -0.8090 0.1344 -0.5722
vn -0.4835 0.0938 -0.8703
vn 0.0120 -0.9999 0.0021
vn 0.0087 0.9948 0.1017
vn -0.8234 -0.1323 -0.5518
vn -0.0602 -0.1501 -0.9868
vn 0.3885 -0.1825 -0.9032
vn 0.8835 -0.1187 -0.4532
vn 0.9704 -0.0452 0.2373
vn 0.5506 0.0050 0.8347
vn -0.3273 0.0399 0.9441
vn -0.8699 -0.0038 0.4932
vn -0.7676 0.3818 -0.5148
vn -0.0421 0.2741 -0.9608
vn 0.3663 0.2517 -0.8958
vn 0.8388 0.3525 -0.4149
vn 0.8920 0.3931 0.2233
vn 0.4784 0.5391 0.6932
vn -0.3035 0.4358 0.8473
vn -0.8444 0.2459 0.4759
vn 0.0128 -0.9999 0.0040
vn 0.0421 0.9937 0.1042
vn 0.1302 -0.1808 0.9749
vn -0.5973 -0.1368 0.7902
vn -0.9534 -0.0757 0.2921
vn -0.7152 0.0253 -0.6985
vn -0.2009 0.0376 -0.9789
vn 0.5930 -0.0268 -0.8048
vn 0.9880 -0.1043 -0.1137
vn 0.6428 -0.1771 0.7453
vn 0.1305 0.2543 0.9583
vn -0.5895 0.2278 0.7750
vn -0.9126 0.3093 0.2674
vn -0.6930 0.2419 -0.6791
vn -0.2060 0.1839 -0.9611
vn 0.5892 0.1440 -0.7950
vn 0.9614 0.2517 -0.1107
vn 0.6219 0.2831 0.7302
vn 0.0218 -0.9998 0.0001
vn -0.1035 0.9909 -0.0857
vn 0.8795 -0.3241 -0.3484
vn 0.7215 -0.3183 0.6149
vn 0.1547 -0.2659 0.9515
vn -0.0092 -0.1765 0.9843
vn -0.7679 -0.2024 0.6077
vn -0.8722 -0.1293 -0.4717
vn -0.7748 -0.0786 -0.6273
vn 0.0384 -0.1848 -0.9820
vn 0.5682 -0.1634 -0.8065
vn 0.8983 0.2788 -0.3397
vn 0.7419 0.2104 0.6366
vn 0.2179 0.0842 0.9723
vn -0.0194 0.0718 0.9972
vn -0.7852 0.0945 0.6120
vn -0.8811 0.1002 -0.4621
vn -0.7669 0.0992 -0.6341
vn 0.0416 0.1903 -0.9808
vn 0.5401 0.2884 -0.7907
vn -0.0126 -0.9999 -0.0020
vn 0.0354 -0.9993 -0.0089
vn -0.0716 -0.9969 -0.0340
vn 0.0084 -1.0000 -0.0030
vn 0.0016 -1.0000 -0.0017
vn 0.0300 -0.9983 0.0508
vn 0.0129 0.9976 -0.0682
vn -0.0336 0.9931 -0.1128
vn -0.0143 0.9976 -0.0680
vn -0.0123 0.9974 -0.0711
vn -0.0099 0.9974 -0.0716
vn 0.0704 0.9968 -0.0373
vn -0.8760 -0.3239 0.3575
vn -0.5593 -0.2128 -0.8012
vn -0.3139 -0.1077 -0.9433
vn 0.6459 -0.1385 -0.7508
vn 0.8735 -0.1718 -0.4555
vn 0.9140 -0.1712 0.3678
vn 0.6527 -0.2855 0.7018
vn -0.1326 -0.3682 0.9202
vn -0.8825 -0.3197 0.3451
vn -0.8584 0.3696 0.3557
vn -0.5909 0.0822 -0.8026
vn -0.3085 0.0749 -0.9483
vn 0.6424 0.0485 -0.7649
vn 0.8932 0.0214 -0.4492
vn 0.9250 0.1199 0.3606
vn 0.6601 0.1983 0.7246
vn -0.1420 0.3973 0.9066
vn -0.8548 0.3700 0.3638
vn 0.0089 -0.9996 -0.0285
vn 0.0124 -0.9997 0.0205
vn -0.0095 -1.0000 0.0020
vn 0.0070 -0.9994 -0.0353
vn -0.0349 -0.9994 -0.0000
vn 0.0010 -1.0000 0.0012
vn -0.0313 0.9946 0.0988
vn -0.0135 0.9975 0.0697
vn 0.0061 0.9966 0.0818
vn -0.0243 0.9964 0.0807
vn -0.0324 0.9911 0.1295
vn -0.0376 0.9973 0.0632
vn 0.5905 -0.2029 -0.7811
vn 0.8173 -0.2230 -0.5314
vn 0.7216 -0.1339 0.6793
vn 0.5727 -0.1713 0.8016
vn -0.1820 -0.1418 0.9730
vn -0.8645 -0.2333 0.4452
vn -0.8023 -0.2068 -0.5600
vn -0.4751 -0.1542 -0.8663
vn 0.6088 0.1037 -0.7865
vn 0.8456 0.1620 -0.5087
vn 0.6872 0.2495 0.6823
vn 0.5540 0.2439 0.7960
vn -0.1824 0.1222 0.9756
vn -0.8817 0.1918 0.4310
vn -0.8186 0.1048 -0.5647
vn -0.4912 0.0686 -0.8683
vn 0.0118 -0.9995 -0.0287
vn -0.0043 -1.0000 0.0003
vn 0.0187 -0.9998 -0.0061
vn 0.0140 -0.9999 -0.0035
vn -0.0342 -0.9994 -0.0066
vn 0.0088 0.9922 0.1240
vn 0.0667 0.9919 0.1085
vn 0.0090 0.9945 0.1046
vn 0.0038 0.9942 0.1075
vn 0.0207 0.9945 0.1030
vn -0.8234 -0.1318 -0.5520
vn -0.0448 -0.1957 -0.9796
vn 0.3787 -0.1441 -0.9142
vn 0.8835 -0.1400 -0.4470
vn 0.9673 -0.0667 0.2445
vn 0.5592 0.0416 0.8280
vn -0.3314 0.0586 0.9417
vn -0.8717 0.0140 0.4898
vn -0.7993 0.3177 -0.5100
vn -0.0354 0.2851 -0.9578
vn 0.3913 0.3198 -0.8629
vn 0.8794 0.2457 -0.4077
vn 0.8993 0.3718 0.2304
vn 0.4929 0.4347 0.7537
vn -0.2359 0.5931 0.7698
vn -0.6863 0.5292 0.4989
vn -0.0055 -1.0000 -0.0036
vn -0.0043 -1.0000 -0.0036
vn 0.0118 -0.9999 0.0031
vn -0.0272 -0.9996 -0.0062
vn -0.0206 -0.9998 -0.0011
vn 0.0615 0.9926 0.1044
vn 0.0325 0.9944 0.1007
vn 0.0800 0.9904 0.1127
vn 0.0652 0.9927 0.1015
vn 0.0317 0.9945 0.1000
vn 0.1224 -0.1567 0.9800
vn -0.5958 -0.1307 0.7924
vn -0.9538 -0.0878 0.2874
vn -0.7119 0.0134 -0.7021
vn -0.2122 0.0098 -0.9772
vn 0.5976 -0.0068 -0.8017
vn 0.9872 -0.1091 -0.1160
vn 0.6427 -0.1765 0.7455
vn 0.1198 0.2739 0.9543
vn -0.6046 0.2809 0.7453
vn -0.9390 0.2312 0.2546
vn -0.7218 0.1526 -0.6751
vn -0.2034 0.1743 -0.9635
vn 0.5429 0.2513 -0.8013
vn 0.9492 0.2850 -0.1330
vn 0.6327 0.2657 0.7274
vn 0.0075 -1.0000 -0.0064
vn -0.0254 -0.9996 0.0084
vn 0.0171 -0.9998 0.0057
vn 0.0323 -0.9994 0.0094
vn -0.0167 -0.9998 0.0107
vn -0.0660 0.9953 -0.0711
vn -0.0980 0.9915 -0.0850
vn -0.0583 0.9940 -0.0929
vn -0.0571 0.9941 -0.0926
vn -0.1160 0.9893 -0.0885
vt 0.902127 0.345968
vt 0.054468 0.004388
vt 0.895330 0.001249
vt -0.809871 0.321486
vt -0.726179 -0.026659
vt 0.804614 -0.026659
vt 0.264388 0.358939
vt 0.236041 0.009681
vt -0.927779 0.349052
vt -0.905092 0.000152
vt 0.821246 0.000152
vt -0.103598 0.341552
vt -0.125884 0.000492
vt -0.947417 0.346518
vt -0.943093 0.002537
vt -1.602789 -0.014869
vt 0.698560 0.331935
vt -0.210932 0.014925
vt 0.704060 -0.014869
vt -0.259019 0.359375
vt -1.185694 0.001249
vt 0.024859 0.694537
vt 0.034641 0.344819
vt 0.811887 0.717325
vt 0.888241 0.321486
vt -0.909197 0.749439
vt 0.908803 0.349052
vt -0.102729 0.670550
vt -1.609019 0.558518
vt -1.653058 0.331935
vt -0.217576 0.594665
vt -1.194470 0.628516
vt -1.275152 0.345968
vt 0.236041 -0.858882
vt -1.242662 0.943093
vt 0.210932 1.557792
vt 0.811887 0.768011
vt 1.498747 -0.024859
vt 1.194470 -0.883589
vt 0.024546 0.895237
vt -0.711468 0.629054
vt -0.023961 0.646520
vt 1.109777 0.629054
vt 0.331848 0.879163
vt 0.296036 0.627044
vt -0.470829 0.892638
vt -0.462091 0.641073
vt -1.044283 0.874566
vt -1.009409 0.628554
vt 1.092866 0.874566
vt 0.521563 0.618690
vt 1.087023 0.628554
vt 0.501885 0.869532
vt -0.354612 0.630214
vt 0.978485 0.879266
vt 0.495523 0.635503
vt 0.961932 0.630214
vt 0.504826 0.892329
vt -0.581486 0.630609
vt 0.613978 0.630609
vt -0.717520 1.122494
vt -0.712904 0.875349
vt 1.117519 1.122494
vt 1.201440 0.875349
vt 0.293097 1.191604
vt -1.034737 1.206119
vt 0.524975 1.157510
vt -0.367228 1.086398
vt -0.429404 0.879266
vt 0.512221 1.049246
vt -0.585635 1.030966
vt -0.636758 0.884089
vt 0.643693 1.030966
vt 0.707447 0.884089
vt -0.296036 1.304024
vt 0.961932 -0.354612
vt -0.837660 0.023961
vt -0.293097 -1.317437
vt -0.841156 -0.015210
vt 0.984505 0.367228
vt -0.440148 1.393885
vt -1.148675 1.101506
vt -0.418060 1.108612
vt 1.236202 1.388664
vt 0.516502 1.099801
vt 1.205831 1.101506
vt -0.125589 1.391743
vt -0.090753 1.102500
vt 1.008239 1.102500
vt 0.414925 1.376060
vt 0.392513 1.088317
vt -0.684229 1.359090
vt -0.666087 1.074211
vt 0.365062 1.359090
vt -0.493792 1.092936
vt 0.330377 1.074211
vt -1.239522 1.367671
vt -1.194646 1.080886
vt 0.605025 1.367671
vt 0.567798 1.080886
vt -1.147559 1.735254
vt -1.207146 1.388664
vt 0.517006 1.652720
vt 0.532219 1.386380
vt 0.994994 1.601151
vt 1.046004 1.391743
vt 0.383371 1.555974
vt 0.336723 1.587031
vt -0.490884 1.384267
vt -0.504635 1.704991
vt 0.571799 1.749494
vt -0.567798 1.194646
vt 1.148675 1.205831
vt 1.008239 -0.090753
vt 0.994994 0.100398
vt 1.147559 -1.224844
vt -0.571799 -1.216823
vt -0.551503 1.854651
vt -1.324170 1.637421
vt -0.520359 1.637471
vt 0.244725 1.637421
vt -0.427800 1.851577
vt -0.425267 1.634687
vt -1.047751 1.858998
vt -1.032187 1.642677
vt 1.105131 1.642677
vt 0.419191 1.844990
vt 0.400716 1.628555
vt -0.200071 1.847962
vt -0.221309 1.630986
vt 1.239644 1.630986
vt 0.591444 1.861416
vt 0.583625 1.644038
vt -0.288918 1.631625
vt 0.334618 1.849148
vt 0.351954 1.631625
vt -0.504664 2.134953
vt -1.367250 1.854355
vt 0.177416 2.184380
vt 0.250571 1.854355
vt -0.439389 2.161373
vt 1.142138 1.858998
vt 0.417621 2.018889
vt -0.158567 1.968274
vt 1.254937 1.847962
vt 0.590684 1.967500
vt -0.206537 2.022617
vt -0.299697 1.849148
vt 0.583625 -0.653955
vt -0.288918 -0.351954
vt 1.032187 1.105131
vt 0.439389 -1.305970
vt -0.177416 -1.276301
vt -0.206537 0.278762
vt 0.759081 2.260550
vt 0.103229 2.038174
vt 0.742217 2.021166
vt -0.361900 2.269007
vt -0.349458 2.028478
vt -0.309875 2.028478
vt -0.883930 2.257326
vt -0.902177 2.017092
vt -1.331752 2.266012
vt -1.341082 2.026851
vt 0.101639 2.266012
vt -0.494327 2.015576
vt 0.100979 2.026851
vt -0.505273 2.256429
vt -1.158352 2.030148
vt 0.956330 2.271847
vt 0.462558 2.027324
vt 0.974887 2.030148
vt 1.247320 2.268644
vt 1.216989 2.027324
vt 0.715597 2.580208
vt 0.101860 2.277993
vt 0.104002 2.552956
vt -0.277640 2.269007
vt -0.882703 2.411274
vt -0.479712 2.442708
vt -1.102772 2.543221
vt -1.186013 2.271847
vt 0.478352 2.582036
vt 0.431361 2.268644
vt 1.159851 2.582036
vt 0.494327 1.463693
vt 1.158352 0.974887
vt 0.742217 0.054541
vt -0.322784 -0.325744
vt 0.104002 -0.006694
vt -0.093540 -1.305597
vt 0.883589 0.628516
vt -0.768011 0.717325
vt 0.240207 0.762331
vt 0.870789 0.749439
vt -0.933513 0.616589
vt 0.696990 0.558518
vt 1.185694 0.895330
vt 1.485066 0.054468
vt 0.804614 -0.726179
vt -0.905092 -0.821246
vt -1.664423 0.125884
vt -0.704060 1.602789
vt 0.217576 -1.563220
vt 0.240207 0.892255
vt -0.696990 -1.609019
vt -1.247966 -0.933513
vt -1.677575 -0.102729
vt -0.909197 0.870789
vt -0.015210 1.088381
vt -0.475577 1.248818
vt 1.096064 1.206119
vt 0.984505 1.086398
vt -0.581486 -0.613978
vt 0.495523 -0.779430
vt -1.109777 0.711468
vt 0.462091 1.550637
vt 1.009409 1.087023
vt 1.291855 0.521563
vt -0.585635 0.643693
vt 0.512221 0.807647
vt 1.323123 -0.524975
vt 1.034737 -1.096064
vt 0.475577 -1.562950
vt -1.117519 -0.717520
vt -0.423726 1.810437
vt 1.224844 1.735254
vt -0.100398 1.601151
vt -0.683134 1.587031
vt -1.216823 1.749494
vt 0.418060 1.754483
vt 1.596263 0.516502
vt 0.392513 -0.527011
vt -0.666087 -0.330377
vt -1.054692 0.493792
vt 0.423726 -1.775148
vt -1.068788 -0.504635
vt -0.683134 0.336723
vt 0.383371 0.539957
vt 1.589226 -0.517006
vt -1.276301 2.184380
vt -1.012384 2.118583
vt 1.061974 2.118583
vt 1.212304 1.968274
vt 0.278762 2.022617
vt -0.783443 0.520359
vt -0.244725 1.324170
vt 0.425267 1.364598
vt 1.391674 0.400716
vt 1.239644 -0.221309
vt -0.689454 -0.504664
vt 0.590684 0.565514
vt 1.012384 -1.061974
vt 1.338977 -0.417621
vt 1.212304 0.158567
vt -0.322784 2.480811
vt -0.325744 2.480811
vt -1.305597 2.420030
vt 0.093540 2.420030
vt 0.968872 2.543221
vt 1.216989 0.462558
vt 0.103229 -0.033975
vt -0.349458 0.309875
vt -0.100979 1.341082
vt -0.529998 0.902177
vt 0.715597 -0.091313
vt 1.159851 -0.478352
vt 1.102772 -0.968872
vt 0.479712 -1.422530
vt -0.490949 -0.882703
s 0
f 10/1/1 2/2/1 1/3/1
f 2/2/2 12/4/2 3/5/2
f 3/6/3 13/7/3 4/8/3
f 4/8/4 14/9/4 5/10/4
f 5/11/5 15/12/5 6/13/5
f 6/13/6 16/14/6 7/15/6
f 16/14/7 8/16/7 7/15/7
f 17/17/8 9/18/8 8/19/8
f 18/20/9 1/21/9 9/18/9
f 10/1/10 20/22/10 11/23/10
f 20/22/11 12/4/11 11/23/11
f 21/24/12 13/7/12 12/25/12
f 13/7/13 23/26/13 14/9/13
f 14/27/14 24/28/14 15/12/14
f 24/28/15 16/14/15 15/12/15
f 16/14/16 26/29/16 17/30/16
f 17/17/17 27/31/17 18/20/17
f 18/20/18 19/32/18 10/33/18
f 4/34/19 7/35/19 9/36/19
f 21/37/20 20/38/20 19/39/20
f 37/40/21 29/41/21 28/42/21
f 29/43/22 39/44/22 30/45/22
f 30/45/23 40/46/23 31/47/23
f 31/47/24 41/48/24 32/49/24
f 41/50/25 33/51/25 32/52/25
f 42/53/26 34/54/26 33/51/26
f 43/55/27 35/56/27 34/57/27
f 44/58/28 36/59/28 35/56/28
f 36/60/29 37/40/29 28/42/29
f 37/40/30 47/61/30 38/62/30
f 47/63/31 39/44/31 38/64/31
f 48/65/32 40/46/32 39/44/32
f 40/46/33 50/66/33 41/48/33
f 41/50/34 51/67/34 42/53/34
f 42/53/35 52/68/35 43/69/35
f 43/55/36 53/70/36 44/58/36
f 44/58/37 54/71/37 45/72/37
f 54/73/38 37/40/38 45/74/38
f 30/75/39 34/76/39 28/77/39
f 48/78/40 46/79/40 52/80/40
f 63/81/41 56/82/41 55/83/41
f 64/84/42 57/85/42 56/86/42
f 57/85/43 66/87/43 58/88/43
f 58/89/44 67/90/44 59/91/44
f 59/91/45 68/92/45 60/93/45
f 68/94/46 61/95/46 60/96/46
f 61/95/47 70/97/47 62/98/47
f 70/99/48 55/83/48 62/100/48
f 63/81/49 72/101/49 64/102/49
f 64/84/50 73/103/50 65/104/50
f 73/103/51 66/87/51 65/104/51
f 74/105/52 67/90/52 66/106/52
f 75/107/53 68/92/53 67/90/53
f 76/108/54 69/109/54 68/94/54
f 77/110/55 70/97/55 69/109/55
f 78/111/56 63/81/56 70/99/56
f 62/112/57 56/113/57 58/114/57
f 74/115/58 72/116/58 78/117/58
f 87/118/59 80/119/59 79/120/59
f 80/121/60 89/122/60 81/123/60
f 81/123/61 90/124/61 82/125/61
f 82/126/62 91/127/62 83/128/62
f 83/128/63 92/129/63 84/130/63
f 84/131/64 93/132/64 85/133/64
f 93/132/65 86/134/65 85/133/65
f 94/135/66 79/120/66 86/136/66
f 95/137/67 88/138/67 87/118/67
f 96/139/68 89/122/68 88/140/68
f 97/141/69 90/124/69 89/122/69
f 90/142/70 99/143/70 91/127/70
f 91/127/71 100/144/71 92/129/71
f 92/145/72 101/146/72 93/132/72
f 93/132/73 102/147/73 94/148/73
f 94/135/74 95/137/74 87/118/74
f 85/149/75 86/150/75 82/151/75
f 97/152/76 96/153/76 102/154/76
f 111/155/77 104/156/77 103/157/77
f 104/156/78 113/158/78 105/159/78
f 105/160/79 114/161/79 106/162/79
f 106/162/80 115/163/80 107/164/80
f 115/165/81 108/166/81 107/167/81
f 116/168/82 109/169/82 108/166/82
f 117/170/83 110/171/83 109/172/83
f 118/173/84 103/157/84 110/174/84
f 119/175/85 112/176/85 111/155/85
f 120/177/86 113/158/86 112/176/86
f 113/178/87 122/179/87 114/161/87
f 122/179/88 115/163/88 114/161/88
f 115/165/89 124/180/89 116/168/89
f 116/168/90 125/181/90 117/182/90
f 117/170/91 126/183/91 118/184/91
f 126/185/92 111/155/92 118/173/92
f 108/186/93 109/187/93 103/188/93
f 121/189/94 120/190/94 123/191/94
f 10/1/95 11/23/95 2/2/95
f 2/2/96 11/23/96 12/4/96
f 3/6/97 12/25/97 13/7/97
f 4/8/98 13/7/98 14/9/98
f 5/11/99 14/27/99 15/12/99
f 6/13/100 15/12/100 16/14/100
f 16/14/101 17/30/101 8/16/101
f 17/17/102 18/20/102 9/18/102
f 18/20/103 10/33/103 1/21/103
f 10/1/104 19/192/104 20/22/104
f 20/22/105 21/193/105 12/4/105
f 21/24/106 22/194/106 13/7/106
f 13/7/107 22/194/107 23/26/107
f 14/27/108 23/195/108 24/28/108
f 24/28/109 25/196/109 16/14/109
f 16/14/110 25/196/110 26/29/110
f 17/17/111 26/197/111 27/31/111
f 18/20/112 27/31/112 19/32/112
f 9/36/113 1/198/113 4/34/113
f 1/198/114 2/199/114 3/200/114
f 4/34/115 1/198/115 3/200/115
f 4/34/116 5/201/116 7/35/116
f 5/201/117 6/202/117 7/35/117
f 7/35/118 8/203/118 9/36/118
f 19/39/119 27/204/119 22/205/119
f 27/204/120 26/206/120 25/207/120
f 22/205/121 27/204/121 25/207/121
f 25/207/122 24/208/122 23/209/122
f 22/205/123 25/207/123 23/209/123
f 22/205/124 21/37/124 19/39/124
f 37/40/125 38/62/125 29/41/125
f 29/43/126 38/64/126 39/44/126
f 30/45/127 39/44/127 40/46/127
f 31/47/128 40/46/128 41/48/128
f 41/50/129 42/53/129 33/51/129
f 42/53/130 43/69/130 34/54/130
f 43/55/131 44/58/131 35/56/131
f 44/58/132 45/72/132 36/59/132
f 36/60/133 45/74/133 37/40/133
f 37/40/134 46/210/134 47/61/134
f 47/63/135 48/65/135 39/44/135
f 48/65/136 49/211/136 40/46/136
f 40/46/137 49/211/137 50/66/137
f 41/50/138 50/212/138 51/67/138
f 42/53/139 51/67/139 52/68/139
f 43/55/140 52/213/140 53/70/140
f 44/58/141 53/70/141 54/71/141
f 54/73/142 46/210/142 37/40/142
f 36/214/143 28/77/143 35/215/143
f 28/77/144 29/216/144 30/75/144
f 35/215/145 28/77/145 34/76/145
f 30/75/146 31/217/146 32/218/146
f 34/76/147 32/218/147 33/219/147
f 30/75/148 32/218/148 34/76/148
f 46/79/149 54/220/149 53/221/149
f 53/221/150 52/80/150 46/79/150
f 52/80/151 51/222/151 50/223/151
f 48/78/152 52/80/152 50/223/152
f 50/223/153 49/224/153 48/78/153
f 48/78/154 47/225/154 46/79/154
f 63/81/155 64/102/155 56/82/155
f 64/84/156 65/104/156 57/85/156
f 57/85/157 65/104/157 66/87/157
f 58/89/158 66/106/158 67/90/158
f 59/91/159 67/90/159 68/92/159
f 68/94/160 69/109/160 61/95/160
f 61/95/161 69/109/161 70/97/161
f 70/99/162 63/81/162 55/83/162
f 63/81/163 71/226/163 72/101/163
f 64/84/164 72/227/164 73/103/164
f 73/103/165 74/228/165 66/87/165
f 74/105/166 75/107/166 67/90/166
f 75/107/167 76/229/167 68/92/167
f 76/108/168 77/110/168 69/109/168
f 77/110/169 78/230/169 70/97/169
f 78/111/170 71/226/170 63/81/170
f 62/112/171 55/231/171 56/113/171
f 56/113/172 57/232/172 58/114/172
f 58/114/173 59/233/173 62/112/173
f 59/233/174 60/234/174 62/112/174
f 60/234/175 61/235/175 62/112/175
f 71/236/176 78/117/176 72/116/176
f 78/117/177 77/237/177 76/238/177
f 75/239/178 78/117/178 76/238/178
f 75/239/179 74/115/179 78/117/179
f 74/115/180 73/240/180 72/116/180
f 87/118/181 88/138/181 80/119/181
f 80/121/182 88/140/182 89/122/182
f 81/123/183 89/122/183 90/124/183
f 82/126/184 90/142/184 91/127/184
f 83/128/185 91/127/185 92/129/185
f 84/131/186 92/145/186 93/132/186
f 93/132/187 94/148/187 86/134/187
f 94/135/188 87/118/188 79/120/188
f 95/137/189 96/241/189 88/138/189
f 96/139/190 97/141/190 89/122/190
f 97/141/191 98/242/191 90/124/191
f 90/142/192 98/243/192 99/143/192
f 91/127/193 99/143/193 100/144/193
f 92/145/194 100/244/194 101/146/194
f 93/132/195 101/146/195 102/147/195
f 94/135/196 102/245/196 95/137/196
f 86/150/197 79/246/197 80/247/197
f 80/247/198 81/248/198 86/150/198
f 81/248/199 82/151/199 86/150/199
f 82/151/200 83/249/200 85/149/200
f 83/249/201 84/250/201 85/149/201
f 95/251/202 102/154/202 96/153/202
f 102/154/203 101/252/203 98/253/203
f 98/253/204 101/252/204 99/254/204
f 101/252/205 100/255/205 99/254/205
f 98/253/206 97/152/206 102/154/206
f 111/155/207 112/176/207 104/156/207
f 104/156/208 112/176/208 113/158/208
f 105/160/209 113/178/209 114/161/209
f 106/162/210 114/161/210 115/163/210
f 115/165/211 116/168/211 108/166/211
f 116/168/212 117/182/212 109/169/212
f 117/170/213 118/184/213 110/171/213
f 118/173/214 111/155/214 103/157/214
f 119/175/215 120/177/215 112/176/215
f 120/177/216 121/256/216 113/158/216
f 113/178/217 121/257/217 122/179/217
f 122/179/218 123/258/218 115/163/218
f 115/165/219 123/259/219 124/180/219
f 116/168/220 124/180/220 125/181/220
f 117/170/221 125/260/221 126/183/221
f 126/185/222 119/175/222 111/155/222
f 110/261/223 103/188/223 109/187/223
f 103/188/224 104/262/224 108/186/224
f 104/262/225 105/263/225 107/264/225
f 105/263/226 106/265/226 107/264/226
f 107/264/227 108/186/227 104/262/227
f 119/266/228 126/267/228 125/268/228
f 125/268/229 124/269/229 119/266/229
f 124/269/230 123/191/230 120/190/230
f 119/266/231 124/269/231 120/190/231
f 123/191/232 122/270/232 121/189/232
