# collision hull for rock_c - convex, faces 178
o rock_c_col
v -1.02955 0.00002 0.80095
v 0.70294 2.22633 1.14921
v -0.83649 2.34560 0.44583
v -0.88528 2.35000 -0.50411
v 0.46108 2.24484 1.19386
v 1.06845 2.19921 0.29484
v 0.79917 2.22041 -0.31450
v 0.58038 2.23739 -0.39278
v 1.30024 0.07779 -0.32870
v 1.30526 0.20424 -0.35490
v -0.77667 2.34167 -0.66625
v -1.03447 2.14205 0.46367
v 1.59471 0.63971 0.55906
v -0.31513 1.32034 -1.24747
v -0.38115 1.28540 -1.26575
v 1.60000 0.67983 0.50687
v -1.57968 0.59658 -0.72786
v 1.47423 0.26489 -0.06109
v -1.16835 2.01312 0.32294
v -1.35467 1.85110 -0.17695
v -0.82946 0.93460 1.30000
v -1.02674 1.71768 0.72353
v -0.83963 0.72814 1.28250
v 1.57255 0.34588 0.81864
v 1.56210 0.44434 0.82972
v -0.64979 0.00002 1.18051
v -0.80888 0.33208 -1.22365
v -0.53763 0.03557 -1.04801
v -0.81399 0.36808 -1.23205
v 0.77331 1.15375 -0.77856
v 0.49681 1.41049 -0.94609
v -0.47636 0.01187 -1.01840
v 1.27036 0.48859 -0.38560
v 0.78686 1.90366 -0.55669
v 0.82294 1.68101 -0.62245
v 0.98219 1.11492 -0.63316
v 1.55920 0.27390 0.81385
v 1.57870 0.34957 0.60747
v 1.57059 0.37425 0.82164
v 1.46475 0.12181 -0.02948
v 1.47846 0.09155 0.10432
v 1.57119 0.34826 0.40129
v 1.29824 0.00003 -0.29966
v 1.44215 0.09206 -0.07608
v 1.37057 0.08540 -0.23611
v 1.42324 0.12315 -0.15301
v 1.40825 0.21805 -0.21745
v 1.45560 0.18410 -0.09835
v 1.55975 0.34258 0.26192
v 1.33547 0.14818 -0.30731
v 1.30762 0.13154 -0.33780
v 1.55678 0.36562 0.19595
v 1.58760 0.59787 0.61734
v 1.38459 0.22884 -0.25121
v 0.66838 2.23063 -0.36973
v -1.60008 0.35074 -0.77273
v -1.28006 0.00002 -0.85927
v 1.39296 0.31958 -0.21513
v 0.72532 1.95115 -0.55868
v 0.49643 1.83042 -0.74173
v 0.42223 1.44311 -0.98119
v 0.43299 1.61558 -0.90403
v 0.31434 1.58737 -0.96149
v 0.26128 1.43712 -1.04474
v -0.60845 2.32888 -0.66056
v -0.65367 2.21512 -0.79040
v -0.62709 2.04684 -0.94880
v -0.53431 2.04289 -0.92472
v -0.71493 2.04309 -0.96468
v -0.70220 1.44548 -1.25125
v -0.84413 1.31500 -1.28856
v -0.37791 1.43331 -1.22310
v -0.49784 1.30229 -1.29112
v -0.66775 1.36390 -1.27853
v -0.39345 1.30433 -1.27241
v -0.47348 1.29702 -1.28910
v -0.75129 1.29816 -1.30017
v -1.35870 0.34678 -0.97704
v -1.09995 0.35638 -1.12486
v -0.66322 0.74401 -1.25642
v -0.68337 0.70109 -1.25481
v -0.70767 0.64000 -1.25077
v -1.03779 0.00003 -0.95212
v -0.54255 0.00104 -1.02963
v 1.40475 0.00023 -0.08486
v 1.44045 0.00005 0.80963
v 1.44852 0.00019 0.21903
v 1.43617 0.00088 0.03758
v 1.27412 0.00002 -0.32162
v -1.56086 -0.00002 -0.65145
v -0.74406 -0.00001 -1.03301
vn -0.6414 -0.6891 0.3372
vn 0.4169 0.6262 0.6588
vn -0.3750 0.8594 0.3475
vn -0.4854 0.8413 -0.2379
vn 0.0402 0.6658 0.7451
vn 0.6914 0.7220 -0.0284
vn 0.5310 0.7603 -0.3742
vn 0.1743 0.8963 -0.4078
vn 0.5969 -0.2259 -0.7698
vn 0.6164 -0.1076 -0.7800
vn -0.3188 0.8315 -0.4549
vn -0.6832 0.5673 0.4597
vn 0.9467 0.2015 0.2513
vn 0.3102 0.0708 -0.9480
vn 0.3207 -0.1649 -0.9327
vn 0.9752 0.2211 -0.0046
vn -0.9657 0.1611 -0.2037
vn 0.9351 0.0690 -0.3476
vn -0.8789 0.3974 0.2638
vn -0.9303 0.3634 -0.0504
vn -0.4902 0.0726 0.8686
vn -0.7426 0.2733 0.6114
vn -0.5022 -0.0817 0.8609
vn 0.7671 -0.1146 0.6312
vn 0.7027 0.0731 0.7077
vn -0.1728 -0.6884 0.7045
vn -0.0073 -0.3329 -0.9429
vn 0.2206 -0.3687 -0.9030
vn -0.0563 -0.1716 -0.9836
vn 0.4879 -0.0586 -0.8709
vn 0.4807 0.0589 -0.8749
vn 0.3023 -0.5249 -0.7957
vn 0.7980 0.1240 -0.5898
vn 0.6731 0.3847 -0.6316
vn 0.7325 0.2741 -0.6232
vn 0.7492 0.1330 -0.6489
vn 0.7580 -0.2578 0.5991
vn 0.9832 -0.1823 -0.0098
vn 0.7205 -0.0149 0.6933
vn 0.9436 -0.2389 -0.2294
vn 0.9471 -0.3050 -0.0995
vn 0.9818 -0.1830 -0.0505
vn 0.4962 -0.7720 -0.3971
vn 0.9103 -0.2929 -0.2925
vn 0.8324 -0.2738 -0.4818
vn 0.8906 -0.2338 -0.3901
vn 0.8754 -0.0186 -0.4831
vn 0.9361 -0.1220 -0.3298
vn 0.9791 -0.1850 -0.0847
vn 0.7944 -0.1461 -0.5895
vn 0.5975 -0.1935 -0.7782
vn 0.9690 0.0164 -0.2465
vn 0.8651 0.3514 0.3579
vn 0.8126 0.0015 -0.5828
vn 0.2217 0.8741 -0.4322
vn -0.9480 -0.0559 -0.3134
vn -0.2917 -0.8165 -0.4983
vn 0.8832 0.1923 -0.4278
vn 0.3731 0.5339 -0.7587
vn 0.3090 0.5384 -0.7840
vn 0.4116 0.1349 -0.9013
vn 0.3863 0.4221 -0.8201
vn 0.2781 0.4491 -0.8491
vn 0.3292 0.1158 -0.9371
vn 0.1270 0.9142 -0.3849
vn 0.1155 0.7069 -0.6978
vn 0.1664 0.5843 -0.7943
vn 0.2285 0.6015 -0.7655
vn -0.3221 0.5403 -0.7774
vn -0.0245 0.3986 -0.9168
vn -0.4384 0.2388 -0.8665
vn 0.1806 0.3993 -0.8988
vn 0.0809 0.1596 -0.9839
vn 0.0283 0.3111 -0.9500
vn 0.2378 0.0921 -0.9669
vn 0.1569 0.0963 -0.9829
vn -0.0405 0.1140 -0.9927
vn -0.5715 -0.1559 -0.8057
vn -0.4078 -0.2346 -0.8824
vn 0.2556 -0.1552 -0.9542
vn 0.1796 -0.1338 -0.9746
vn 0.1583 -0.1288 -0.9790
vn -0.1740 -0.8518 -0.4941
vn 0.0818 -0.8413 -0.5344
vn 0.5605 -0.8034 -0.2010
vn 0.4857 -0.6962 0.5286
vn 0.5783 -0.8157 -0.0162
vn 0.6038 -0.7904 -0.1031
vn 0.3327 -0.7546 -0.5656
vn -0.7439 -0.6581 -0.1165
vn -0.0599 -0.8494 -0.5244
f 26//26 89//89 86//86
f 6//6 3//3 2//2
f 23//23 1//1 26//26
f 4//4 71//71 20//20
f 20//20 3//3 4//4
f 17//17 23//23 21//21
f 1//1 23//23 17//17
f 19//19 20//20 17//17
f 56//56 1//1 17//17
f 17//17 71//71 56//56
f 17//17 20//20 71//71
f 2//2 3//3 5//5
f 21//21 23//23 5//5
f 5//5 23//23 2//2
f 21//21 5//5 12//12
f 12//12 5//5 3//3
f 12//12 20//20 19//19
f 3//3 20//20 12//12
f 69//69 71//71 4//4
f 72//72 69//69 67//67
f 3//3 6//6 55//55
f 56//56 71//71 78//78
f 35//35 36//36 31//31
f 36//36 30//30 31//31
f 16//16 6//6 25//25
f 25//25 6//6 2//2
f 26//26 86//86 24//24
f 24//24 23//23 26//26
f 86//86 37//37 24//24
f 2//2 23//23 24//24
f 24//24 25//25 2//2
f 21//21 12//12 22//22
f 22//22 12//12 19//19
f 22//22 17//17 21//21
f 19//19 17//17 22//22
f 63//63 72//72 67//67
f 71//71 69//69 70//70
f 69//69 72//72 70//70
f 4//4 3//3 65//65
f 3//3 55//55 65//65
f 79//79 78//78 71//71
f 27//27 57//57 79//79
f 79//79 57//57 78//78
f 90//90 89//89 26//26
f 26//26 1//1 90//90
f 90//90 1//1 56//56
f 56//56 78//78 90//90
f 78//78 57//57 90//90
f 87//87 37//37 86//86
f 89//89 27//27 9//9
f 10//10 30//30 36//36
f 36//36 33//33 10//10
f 25//25 24//24 39//39
f 64//64 63//63 61//61
f 72//72 63//63 64//64
f 61//61 31//31 64//64
f 71//71 70//70 77//77
f 73//73 70//70 72//72
f 81//81 77//77 73//73
f 8//8 65//65 55//55
f 11//11 69//69 4//4
f 4//4 65//65 11//11
f 29//29 79//79 71//71
f 27//27 79//79 29//29
f 71//71 77//77 29//29
f 32//32 27//27 89//89
f 89//89 84//84 32//32
f 27//27 84//84 91//91
f 91//91 84//84 89//89
f 89//89 90//90 91//91
f 91//91 90//90 57//57
f 85//85 44//44 88//88
f 88//88 87//87 85//85
f 18//18 47//47 58//58
f 58//58 47//47 33//33
f 58//58 36//36 35//35
f 58//58 33//33 36//36
f 48//48 47//47 18//18
f 51//51 31//31 30//30
f 30//30 10//10 51//51
f 27//27 31//31 51//51
f 51//51 9//9 27//27
f 33//33 47//47 54//54
f 54//54 10//10 33//33
f 25//25 39//39 13//13
f 13//13 24//24 16//16
f 13//13 39//39 24//24
f 14//14 75//75 72//72
f 72//72 64//64 14//14
f 14//14 31//31 27//27
f 14//14 64//64 31//31
f 68//68 63//63 67//67
f 68//68 60//60 63//63
f 55//55 60//60 68//68
f 68//68 8//8 55//55
f 34//34 6//6 16//16
f 35//35 31//31 34//34
f 16//16 58//58 34//34
f 34//34 58//58 35//35
f 72//72 75//75 76//76
f 76//76 73//73 72//72
f 81//81 73//73 76//76
f 74//74 77//77 70//70
f 70//70 73//73 74//74
f 74//74 73//73 77//77
f 82//82 77//77 81//81
f 82//82 29//29 77//77
f 82//82 81//81 27//27
f 27//27 29//29 82//82
f 28//28 84//84 27//27
f 27//27 32//32 28//28
f 28//28 32//32 84//84
f 83//83 57//57 27//27
f 27//27 91//91 83//83
f 83//83 91//91 57//57
f 41//41 87//87 88//88
f 37//37 87//87 41//41
f 38//38 24//24 37//37
f 37//37 41//41 38//38
f 16//16 24//24 38//38
f 88//88 44//44 40//40
f 40//40 41//41 88//88
f 47//47 48//48 46//46
f 46//46 45//45 47//47
f 46//46 40//40 44//44
f 48//48 40//40 46//46
f 44//44 85//85 46//46
f 85//85 45//45 46//46
f 43//43 45//45 85//85
f 43//43 85//85 87//87
f 89//89 9//9 43//43
f 9//9 45//45 43//43
f 43//43 86//86 89//89
f 43//43 87//87 86//86
f 50//50 45//45 9//9
f 9//9 51//51 50//50
f 47//47 45//45 50//50
f 50//50 51//51 10//10
f 50//50 54//54 47//47
f 10//10 54//54 50//50
f 16//16 25//25 53//53
f 53//53 13//13 16//16
f 25//25 13//13 53//53
f 65//65 8//8 66//66
f 8//8 68//68 66//66
f 66//66 68//68 67//67
f 67//67 69//69 66//66
f 69//69 11//11 66//66
f 66//66 11//11 65//65
f 59//59 60//60 55//55
f 7//7 55//55 6//6
f 6//6 34//34 7//7
f 7//7 59//59 55//55
f 34//34 59//59 7//7
f 63//63 60//60 62//62
f 61//61 63//63 62//62
f 60//60 59//59 62//62
f 62//62 59//59 34//34
f 62//62 31//31 61//61
f 62//62 34//34 31//31
f 80//80 76//76 75//75
f 81//81 76//76 80//80
f 27//27 81//81 80//80
f 42//42 41//41 49//49
f 42//42 38//38 41//41
f 16//16 38//38 42//42
f 49//49 41//41 52//52
f 41//41 40//40 52//52
f 52//52 48//48 18//18
f 52//52 40//40 48//48
f 52//52 58//58 16//16
f 18//18 58//58 52//52
f 16//16 42//42 52//52
f 52//52 42//42 49//49
f 15//15 14//14 27//27
f 27//27 80//80 15//15
f 75//75 14//14 15//15
f 15//15 80//80 75//75
