# collision hull for rock_b - convex, faces 180
o rock_b_col
v 0.90973 0.72168 -0.90599
v -0.02814 0.00001 1.15000
v -0.71266 1.13961 1.04533
v -0.48359 0.41648 -0.85431
v 1.22809 0.43151 -0.68535
v -1.15675 0.00001 0.73628
v 0.64395 1.36307 0.02532
v -0.01346 0.97352 -1.02092
v -0.62548 1.37877 -0.36360
v -0.44936 1.54852 -0.07494
v -0.13866 1.31402 1.02491
v 0.51648 1.36068 -0.39682
v -0.55953 1.47510 -0.19968
v -0.59599 1.27241 -0.54417
v 0.54667 0.00003 0.95340
v 0.29262 0.00003 1.14732
v 0.41678 0.09463 1.13708
v 1.26186 0.00124 -0.37246
v 0.12805 1.25058 1.02778
v -0.85513 1.13695 0.99650
v -0.86942 1.20304 0.93785
v -0.82575 1.23208 0.90797
v 0.82971 0.71841 -0.94122
v 0.76413 0.71671 -0.96923
v 0.69869 0.71607 -0.99609
v 0.63413 0.71640 -1.02160
v 0.57131 0.71787 -1.04529
v 0.45873 0.72360 -1.08449
v 0.41211 0.72796 -1.09878
v 0.35297 0.73292 -1.11715
v 0.31035 0.73788 -1.12931
v 0.22989 0.74979 -1.15000
v -0.86532 1.26189 0.84019
v -0.94267 1.29772 0.71954
v -0.94395 1.35143 0.53792
v -0.98682 1.32399 0.60092
v -0.02660 1.51440 0.72246
v -0.27836 1.54740 0.50746
v -1.04721 1.29749 0.46822
v -1.14621 1.10836 0.30570
v -1.25998 0.61547 0.23287
v -1.29069 0.00577 0.41053
v -1.29961 0.18674 0.31365
v 0.20784 1.47541 0.75901
v -0.22307 1.06230 -0.90063
v -0.45681 1.00442 -0.80313
v -0.18551 0.76283 -1.04766
v -0.37010 0.76902 -0.94405
v -0.31193 0.98918 -0.89427
v -0.94534 1.11602 -0.26619
v -0.86918 1.14766 -0.34407
v -0.87661 1.00713 -0.45818
v -1.03732 0.98713 -0.21768
v -0.94094 1.01369 -0.37113
v -0.68554 0.98955 -0.64037
v -1.07434 0.70305 -0.35386
v -0.59411 0.78458 -0.78208
v -0.79662 0.86699 -0.59441
v -0.98699 0.65088 -0.47585
v -1.14697 0.67223 -0.23066
v -1.09844 0.55603 -0.33428
v -0.88727 0.55673 -0.56879
v -1.12850 0.63898 -0.28895
v -0.99126 0.55873 -0.47369
v -1.07580 0.20860 -0.29262
v -0.99524 0.11591 -0.30235
v -0.84444 0.42176 -0.57598
v -0.91973 0.00085 -0.11609
v -0.75635 0.14723 -0.55898
v -0.89745 0.04308 -0.27357
v -0.90837 0.21149 -0.46116
v -0.68782 0.47334 -0.71842
v -0.41495 0.36797 -0.89142
v 1.30093 0.35204 -0.61644
v 0.50803 0.72005 -1.06811
v 1.08762 0.33136 -0.85269
v 1.01474 0.34319 -0.90697
v 0.13614 0.76498 -1.14355
v 0.83401 0.34448 -1.00958
v 0.67317 0.33119 -1.07283
v 0.46279 0.33714 -1.11503
v 1.13098 0.00001 -0.61929
v 0.21788 0.33022 -1.12323
v -0.37624 -0.00172 -0.77156
v -0.21178 0.00004 -0.89285
v -0.37170 0.08967 -0.83730
v -0.16989 0.03397 -0.93596
v 0.08555 0.00014 -1.01695
v 0.43126 0.00029 -1.03769
v -0.23354 0.34592 -0.98892
v -0.05821 0.34900 -1.06467
v 0.81599 -0.00009 -0.91481
vn 0.5737 0.4997 -0.6490
vn -0.0818 -0.6592 0.7475
vn -0.2153 0.3134 0.9249
vn -0.5578 -0.1262 -0.8203
vn 0.7947 0.3969 -0.4593
vn -0.5976 -0.6088 0.5217
vn 0.6681 0.7303 0.1428
vn -0.0490 0.6171 -0.7854
vn -0.3789 0.8151 -0.4383
vn -0.1314 0.9723 -0.1932
vn -0.0340 0.5576 0.8294
vn 0.3747 0.8552 -0.3581
vn -0.3090 0.8875 -0.3419
vn -0.3663 0.7008 -0.6121
vn 0.6736 -0.6088 0.4189
vn 0.1062 -0.6686 0.7360
vn 0.5388 -0.0703 0.8395
vn 0.7851 -0.6009 0.1503
vn 0.4303 0.3858 0.8161
vn -0.5851 0.2429 0.7737
vn -0.6071 0.5530 0.5707
vn -0.1971 0.8400 0.5055
vn 0.3507 0.4136 -0.8402
vn 0.3405 0.4367 -0.8326
vn 0.3339 0.4410 -0.8331
vn 0.3283 0.4375 -0.8372
vn 0.3226 0.4360 -0.8401
vn 0.3052 0.4225 -0.8534
vn 0.2932 0.5315 -0.7947
vn 0.2969 0.3649 -0.8824
vn 0.2851 0.3764 -0.8815
vn 0.1333 0.3283 -0.9351
vn -0.2681 0.8482 0.4568
vn -0.6471 0.6346 0.4226
vn -0.3685 0.9254 0.0889
vn -0.6782 0.6626 0.3178
vn 0.0242 0.9583 0.2847
vn -0.0741 0.9869 0.1434
vn -0.7970 0.5961 0.0968
vn -0.9276 0.3731 0.0162
vn -0.9870 0.1526 0.0506
vn -0.7821 -0.6174 0.0848
vn -0.9999 -0.0125 -0.0068
vn 0.4997 0.7712 0.3944
vn -0.2073 0.6590 -0.7230
vn -0.5030 0.3854 -0.7736
vn -0.3830 0.1421 -0.9127
vn -0.5165 0.1292 -0.8465
vn -0.4333 0.3836 -0.8155
vn -0.7429 0.5615 -0.3644
vn -0.6695 0.5711 -0.4749
vn -0.6855 0.3762 -0.6234
vn -0.8534 0.3852 -0.3512
vn -0.7608 0.3891 -0.5194
vn -0.5908 0.3485 -0.7277
vn -0.8092 0.2171 -0.5460
vn -0.5904 0.1484 -0.7934
vn -0.6491 0.2349 -0.7236
vn -0.7228 0.1201 -0.6805
vn -0.9319 0.1760 -0.3173
vn -0.8456 -0.0636 -0.5300
vn -0.6461 -0.0441 -0.7620
vn -0.8929 0.0723 -0.4445
vn -0.7307 -0.0717 -0.6790
vn -0.7979 -0.3295 -0.5048
vn -0.5951 -0.6489 -0.4741
vn -0.6409 -0.1937 -0.7428
vn -0.2222 -0.9625 -0.1553
vn -0.5889 -0.4221 -0.6892
vn -0.4276 -0.8376 -0.3400
vn -0.6423 -0.3339 -0.6899
vn -0.5972 -0.1180 -0.7934
vn -0.5246 -0.1640 -0.8354
vn 0.9774 0.1080 -0.1815
vn 0.3204 0.3696 -0.8722
vn 0.6709 -0.0973 -0.7352
vn 0.5525 -0.0541 -0.8318
vn -0.1244 0.2245 -0.9665
vn 0.4277 -0.0492 -0.9026
vn 0.3024 -0.0808 -0.9498
vn 0.1303 -0.1159 -0.9847
vn 0.4730 -0.8040 -0.3604
vn -0.0847 -0.1604 -0.9834
vn -0.3277 -0.8537 -0.4048
vn -0.2913 -0.8219 -0.4895
vn -0.5359 -0.3515 -0.7677
vn -0.3847 -0.3940 -0.8347
vn -0.1342 -0.7657 -0.6290
vn 0.0755 -0.7634 -0.6415
vn -0.4399 -0.1588 -0.8839
vn -0.3052 -0.1526 -0.9400
vn 0.3058 -0.7742 -0.5541
f 2//2 20//20 6//6
f 15//15 18//18 74//74
f 3//3 20//20 2//2
f 15//15 19//19 17//17
f 44//44 19//19 15//15
f 42//42 41//41 43//43
f 65//65 42//42 43//43
f 66//66 42//42 65//65
f 74//74 18//18 82//82
f 18//18 15//15 82//82
f 46//46 55//55 14//14
f 14//14 55//55 52//52
f 57//57 72//72 62//62
f 55//55 46//46 57//57
f 32//32 8//8 1//1
f 39//39 50//50 40//40
f 41//41 42//42 40//40
f 40//40 42//42 39//39
f 9//9 50//50 39//39
f 11//11 3//3 2//2
f 11//11 17//17 19//19
f 19//19 44//44 11//11
f 15//15 17//17 16//16
f 16//16 11//11 2//2
f 17//17 11//11 16//16
f 7//7 15//15 74//74
f 7//7 44//44 15//15
f 74//74 5//5 7//7
f 10//10 44//44 7//7
f 62//62 72//72 67//67
f 63//63 65//65 43//43
f 1//1 5//5 76//76
f 76//76 77//77 1//1
f 76//76 5//5 74//74
f 74//74 82//82 76//76
f 76//76 82//82 92//92
f 92//92 77//77 76//76
f 89//89 83//83 81//81
f 83//83 32//32 81//81
f 88//88 83//83 89//89
f 69//69 72//72 86//86
f 6//6 42//42 68//68
f 83//83 88//88 91//91
f 91//91 88//88 87//87
f 45//45 46//46 14//14
f 45//45 8//8 47//47
f 14//14 52//52 51//51
f 51//51 9//9 14//14
f 50//50 9//9 51//51
f 54//54 50//50 51//51
f 51//51 52//52 54//54
f 72//72 57//57 48//48
f 48//48 57//57 46//46
f 58//58 52//52 55//55
f 55//55 57//57 58//58
f 47//47 8//8 78//78
f 8//8 32//32 78//78
f 78//78 91//91 47//47
f 78//78 32//32 83//83
f 83//83 91//91 78//78
f 13//13 39//39 10//10
f 10//10 9//9 13//13
f 13//13 9//9 39//39
f 20//20 3//3 21//21
f 3//3 11//11 21//21
f 21//21 6//6 20//20
f 21//21 42//42 6//6
f 39//39 42//42 21//21
f 12//12 5//5 1//1
f 12//12 7//7 5//5
f 1//1 8//8 12//12
f 10//10 7//7 12//12
f 8//8 45//45 12//12
f 12//12 9//9 10//10
f 14//14 9//9 12//12
f 12//12 45//45 14//14
f 69//69 66//66 71//71
f 66//66 65//65 71//71
f 71//71 72//72 69//69
f 71//71 67//67 72//72
f 64//64 71//71 65//65
f 62//62 67//67 64//64
f 67//67 71//71 64//64
f 41//41 40//40 60//60
f 43//43 41//41 60//60
f 60//60 63//63 43//43
f 80//80 92//92 89//89
f 89//89 81//81 80//80
f 80//80 81//81 32//32
f 70//70 42//42 66//66
f 70//70 68//68 42//42
f 68//68 70//70 84//84
f 6//6 68//68 84//84
f 84//84 70//70 66//66
f 2//2 6//6 84//84
f 89//89 92//92 84//84
f 84//84 88//88 89//89
f 84//84 66//66 69//69
f 69//69 86//86 84//84
f 84//84 16//16 2//2
f 15//15 16//16 84//84
f 84//84 82//82 15//15
f 92//92 82//82 84//84
f 73//73 86//86 72//72
f 73//73 48//48 47//47
f 49//49 45//45 47//47
f 46//46 45//45 49//49
f 47//47 48//48 49//49
f 49//49 48//48 46//46
f 65//65 63//63 61//61
f 61//61 64//64 65//65
f 52//52 58//58 59//59
f 62//62 64//64 59//59
f 59//59 61//61 63//63
f 64//64 61//61 59//59
f 59//59 57//57 62//62
f 59//59 58//58 57//57
f 53//53 40//40 50//50
f 53//53 60//60 40//40
f 53//53 50//50 54//54
f 79//79 77//77 92//92
f 92//92 80//80 79//79
f 1//1 77//77 79//79
f 87//87 88//88 85//85
f 88//88 84//84 85//85
f 85//85 86//86 87//87
f 85//85 84//84 86//86
f 72//72 48//48 4//4
f 4//4 73//73 72//72
f 48//48 73//73 4//4
f 47//47 91//91 90//90
f 90//90 73//73 47//47
f 90//90 91//91 87//87
f 87//87 86//86 90//90
f 86//86 73//73 90//90
f 39//39 21//21 34//34
f 34//34 36//36 39//39
f 10//10 39//39 35//35
f 39//39 36//36 35//35
f 54//54 52//52 56//56
f 52//52 59//59 56//56
f 56//56 59//59 63//63
f 56//56 53//53 54//54
f 63//63 60//60 56//56
f 60//60 53//53 56//56
f 27//27 79//79 80//80
f 80//80 75//75 27//27
f 37//37 11//11 44//44
f 37//37 44//44 10//10
f 25//25 32//32 1//1
f 25//25 27//27 32//32
f 31//31 80//80 32//32
f 31//31 30//30 80//80
f 28//28 75//75 80//80
f 80//80 30//30 28//28
f 32//32 27//27 28//28
f 28//28 27//27 75//75
f 33//33 34//34 21//21
f 33//33 37//37 34//34
f 36//36 34//34 38//38
f 34//34 37//37 38//38
f 38//38 35//35 36//36
f 10//10 35//35 38//38
f 38//38 37//37 10//10
f 24//24 25//25 1//1
f 79//79 25//25 24//24
f 79//79 27//27 26//26
f 26//26 25//25 79//79
f 27//27 25//25 26//26
f 30//30 31//31 29//29
f 29//29 28//28 30//30
f 29//29 31//31 32//32
f 32//32 28//28 29//29
f 22//22 21//21 11//11
f 22//22 33//33 21//21
f 11//11 37//37 22//22
f 37//37 33//33 22//22
f 1//1 79//79 23//23
f 23//23 24//24 1//1
f 79//79 24//24 23//23
