# collision hull for rock_mega_a - convex, faces 200
o rock_mega_a_col
v -0.05821 3.88044 1.12987
v -0.08536 3.91521 1.10397
v -1.18470 3.93859 0.36632
v 0.93578 3.50505 -1.52393
v 0.37440 3.73703 1.08018
v 1.42982 3.02815 0.34773
v 0.55572 3.93925 0.81290
v 0.64572 3.94661 0.71511
v 1.45577 0.12214 -0.97926
v 0.66425 3.94940 0.68894
v -1.53048 2.43764 -0.58731
v 1.56518 3.73722 -0.26007
v 0.45228 3.93030 0.90085
v -0.05747 0.50471 -1.53948
v 0.72754 3.66090 0.83218
v -1.12849 3.96789 0.39315
v 0.12467 3.91488 1.07969
v -1.62401 0.59594 0.65707
v -0.48818 0.00125 1.48824
v -0.07617 0.10498 1.50162
v 0.31845 0.00020 1.18220
v -0.83660 0.00097 1.34419
v -1.18607 4.02199 -0.27602
v 0.39450 0.00006 1.07354
v -1.23595 0.00025 1.01019
v 1.62244 0.41988 -1.21909
v -1.07498 3.96482 0.43415
v -1.49304 0.68917 0.88344
v -1.39931 0.23479 0.95865
v 1.14223 3.82483 -1.30950
v -0.35908 0.62054 1.64899
v -1.59516 0.29932 0.67708
v -1.53484 0.00237 0.55877
v 1.61278 0.40947 -0.10328
v 0.07422 3.51022 1.30019
v -0.29901 0.57139 1.65000
v 0.51052 0.17353 1.08886
v 0.08242 3.54236 1.29337
v 1.37713 4.02311 -0.26006
v 1.46878 4.03494 -0.41117
v 1.45915 1.78958 0.36494
v 0.04711 0.00018 1.42099
v 1.22204 4.07746 -0.98145
v -1.27734 3.93718 0.03733
v -1.27672 3.93360 -0.17413
v -1.38514 3.72389 0.06693
v -1.44268 3.57500 -0.21610
v -1.44217 3.32277 -0.43830
v -1.48821 3.45619 0.02673
v -1.64962 2.57411 0.35801
v -1.69268 2.62759 -0.02685
v -1.65407 2.74723 -0.19519
v -1.37292 3.18703 -0.59880
v -1.70163 2.38899 -0.19878
v -1.62684 2.51285 -0.41671
v -1.72024 0.90819 0.39765
v -1.80161 0.36418 0.07610
v -1.06376 1.90417 -1.16212
v 0.05008 -0.00054 -1.07008
v 1.63568 0.07542 -0.63725
v 1.74045 0.12129 -0.59135
v 1.69885 0.16229 -0.42073
v 1.80025 0.24091 -0.83715
v 1.65580 0.15788 -0.89912
v -1.26795 3.87638 -0.34490
v -1.26569 3.63756 -0.53294
v -1.02936 4.04089 -0.51943
v -1.70448 0.17050 0.34756
v -1.75223 0.36186 0.32436
v -1.68004 0.00029 -0.00176
v -1.76758 0.19584 -0.03711
v -1.72107 0.22935 -0.31637
v -1.80111 0.44656 -0.13150
v -1.51268 0.00018 -0.47173
v -1.71175 0.71210 -0.44160
v -1.46352 0.54401 -0.79769
v -1.50807 0.21225 -0.63150
v -1.18775 -0.00164 -0.76172
v -1.24858 0.14103 -0.80617
v -1.14154 0.57770 -1.04732
v -0.82231 1.78390 -1.36808
v -0.74856 0.82449 -1.30583
v 1.41272 0.00418 -0.69165
v 1.30038 0.26110 -1.27154
v -1.04938 0.19555 1.28692
v -0.00817 2.92354 1.37558
v -1.38007 3.62130 0.30893
v 0.95476 3.90646 -1.30996
v 0.34995 3.82728 -1.43565
v 0.18242 4.10260 -1.28426
v 0.26772 3.61275 -1.52704
v 0.30190 3.18724 -1.63870
v 0.06078 4.00989 -1.31712
v -0.00590 3.12343 -1.59418
v 0.10249 3.36911 -1.56628
v 0.00639 3.58828 -1.47505
v -0.77632 2.99397 -1.26738
v 0.17091 2.99737 -1.65239
v -0.92930 1.84127 -1.29047
v 1.12060 3.40691 -1.50333
v 0.28839 0.27809 -1.45717
v -0.13814 0.67453 -1.56501
vn -0.2057 0.4222 0.8829
vn -0.2534 0.7387 0.6246
vn -0.6665 0.5573 0.4952
vn 0.1701 0.2835 -0.9438
vn 0.4973 0.3037 0.8127
vn 0.8170 0.1145 0.5651
vn 0.3616 0.8169 0.4494
vn 0.4603 0.7675 0.4462
vn 0.2411 -0.8613 -0.4472
vn 0.2655 0.9248 0.2726
vn -0.7945 0.0993 -0.5991
vn 0.9494 0.2745 0.1526
vn 0.3179 0.8069 0.4978
vn -0.1109 -0.3351 -0.9356
vn 0.6462 0.2520 0.7204
vn -0.3838 0.8132 0.4375
vn 0.1662 0.8077 0.5657
vn -0.8973 -0.0054 0.4415
vn -0.1418 -0.7374 0.6604
vn 0.2984 -0.2599 0.9184
vn 0.4099 -0.8059 0.4271
vn -0.2960 -0.7534 0.5872
vn -0.4668 0.8761 -0.1201
vn 0.2660 -0.9460 0.1854
vn -0.4398 -0.8045 0.3992
vn 0.6349 -0.2195 -0.7408
vn -0.3501 0.7463 0.5661
vn -0.7360 0.0734 0.6730
vn -0.7565 -0.2154 0.6175
vn 0.6199 0.4208 -0.6623
vn -0.2601 0.0438 0.9646
vn -0.8630 -0.1922 0.4672
vn -0.5328 -0.8045 0.2626
vn 0.8600 -0.1984 0.4702
vn 0.0212 0.1383 0.9902
vn 0.2028 -0.0792 0.9760
vn 0.6716 -0.2270 0.7053
vn 0.1449 0.2427 0.9592
vn 0.4207 0.8350 0.3546
vn 0.6901 0.7237 -0.0009
vn 0.8247 -0.0001 0.5655
vn 0.3592 -0.6951 0.6227
vn 0.5320 0.7878 -0.3105
vn -0.7230 0.6828 0.1055
vn -0.8217 0.5628 -0.0901
vn -0.9052 0.4140 0.0962
vn -0.9228 0.3367 -0.1873
vn -0.8701 0.2524 -0.4233
vn -0.9564 0.2828 0.0736
vn -0.8549 0.1649 0.4919
vn -0.9885 0.1496 0.0202
vn -0.9615 0.2003 -0.1880
vn -0.7627 0.2059 -0.6131
vn -0.9839 0.0717 -0.1636
vn -0.9056 0.1216 -0.4064
vn -0.9568 0.0407 0.2878
vn -0.9904 -0.1062 0.0885
vn -0.7065 0.0654 -0.7047
vn -0.0383 -0.9327 -0.3587
vn 0.3704 -0.9278 -0.0444
vn 0.7879 -0.6026 0.1268
vn 0.8155 -0.4571 0.3550
vn 0.9156 -0.3420 -0.2114
vn 0.4656 -0.7785 -0.4210
vn -0.8010 0.4667 -0.3749
vn -0.7262 0.3467 -0.5936
vn -0.4064 0.8309 -0.3800
vn -0.8949 -0.3577 0.2669
vn -0.9564 -0.0944 0.2762
vn -0.5836 -0.8118 -0.0188
vn -0.9469 -0.3174 -0.0508
vn -0.8847 -0.2940 -0.3616
vn -0.9874 -0.0505 -0.1498
vn -0.4781 -0.8141 -0.3297
vn -0.9034 -0.0081 -0.4287
vn -0.7154 -0.1286 -0.6868
vn -0.7073 -0.3220 -0.6294
vn -0.2884 -0.8281 -0.4807
vn -0.5070 -0.3897 -0.7688
vn -0.5177 -0.2117 -0.8289
vn -0.4553 -0.0015 -0.8903
vn -0.4485 -0.1471 -0.8816
vn 0.1929 -0.9743 -0.1161
vn 0.2261 -0.5390 -0.8114
vn -0.5706 -0.1351 0.8100
vn 0.0194 0.1245 0.9920
vn -0.7987 0.3056 0.5183
vn 0.1977 0.6395 -0.7429
vn 0.0227 0.4506 -0.8924
vn -0.0688 0.8604 -0.5049
vn -0.0743 0.3297 -0.9412
vn 0.0189 0.1133 -0.9934
vn -0.3353 0.5305 -0.7786
vn -0.3134 0.1518 -0.9374
vn -0.2213 0.2417 -0.9448
vn -0.3509 0.3248 -0.8783
vn -0.5589 0.2116 -0.8018
vn -0.0647 0.0278 -0.9975
vn -0.6224 0.0371 -0.7819
vn 0.5905 0.1411 -0.7946
vn 0.0528 -0.5215 -0.8516
vn -0.1581 -0.1509 -0.9758
f 31//31 19//19 36//36
f 26//26 100//100 63//63
f 42//42 37//37 36//36
f 50//50 51//51 57//57
f 90//90 67//67 23//23
f 93//93 67//67 90//90
f 93//93 97//97 67//67
f 66//66 97//97 53//53
f 67//67 97//97 66//66
f 102//102 100//100 14//14
f 57//57 51//51 73//73
f 36//36 19//19 20//20
f 20//20 42//42 36//36
f 19//19 42//42 20//20
f 37//37 42//42 21//21
f 63//63 12//12 62//62
f 12//12 34//34 62//62
f 62//62 34//34 37//37
f 37//37 21//21 62//62
f 15//15 6//6 12//12
f 37//37 34//34 41//41
f 41//41 15//15 37//37
f 6//6 15//15 41//41
f 41//41 34//34 12//12
f 12//12 6//6 41//41
f 63//63 100//100 30//30
f 40//40 39//39 12//12
f 40//40 30//30 43//43
f 40//40 43//43 90//90
f 40//40 12//12 63//63
f 63//63 30//30 40//40
f 18//18 32//32 28//28
f 28//28 50//50 18//18
f 98//98 100//100 102//102
f 65//65 23//23 67//67
f 67//67 66//66 65//65
f 78//78 42//42 25//25
f 68//68 33//33 32//32
f 74//74 77//77 78//78
f 100//100 26//26 84//84
f 84//84 14//14 100//100
f 84//84 9//9 59//59
f 53//53 97//97 11//11
f 81//81 98//98 102//102
f 79//79 14//14 78//78
f 78//78 77//77 79//79
f 77//77 76//76 79//79
f 64//64 26//26 63//63
f 64//64 84//84 26//26
f 9//9 84//84 64//64
f 59//59 9//9 83//83
f 83//83 64//64 60//60
f 9//9 64//64 83//83
f 63//63 62//62 61//61
f 61//61 64//64 63//63
f 60//60 64//64 61//61
f 12//12 39//39 8//8
f 8//8 15//15 12//12
f 36//36 37//37 35//35
f 37//37 15//15 35//35
f 90//90 43//43 88//88
f 43//43 30//30 88//88
f 56//56 50//50 57//57
f 56//56 18//18 50//50
f 87//87 50//50 28//28
f 3//3 44//44 87//87
f 87//87 44//44 46//46
f 97//97 93//93 96//96
f 22//22 42//42 19//19
f 22//22 25//25 42//42
f 85//85 25//25 22//22
f 19//19 31//31 22//22
f 31//31 85//85 22//22
f 32//32 33//33 29//29
f 33//33 25//25 29//29
f 29//29 25//25 85//85
f 28//28 32//32 29//29
f 29//29 85//85 28//28
f 70//70 25//25 33//33
f 33//33 68//68 70//70
f 78//78 25//25 70//70
f 70//70 74//74 78//78
f 77//77 74//74 72//72
f 72//72 76//76 77//77
f 74//74 70//70 72//72
f 101//101 84//84 59//59
f 14//14 84//84 101//101
f 101//101 59//59 78//78
f 78//78 14//14 101//101
f 54//54 73//73 51//51
f 80//80 79//79 76//76
f 102//102 14//14 80//80
f 14//14 79//79 80//80
f 76//76 11//11 58//58
f 58//58 11//11 97//97
f 24//24 62//62 21//21
f 24//24 61//61 62//62
f 60//60 61//61 24//24
f 24//24 83//83 60//60
f 59//59 83//83 24//24
f 78//78 59//59 24//24
f 24//24 42//42 78//78
f 24//24 21//21 42//42
f 10//10 8//8 39//39
f 10//10 40//40 90//90
f 39//39 40//40 10//10
f 90//90 23//23 10//10
f 86//86 85//85 31//31
f 86//86 31//31 36//36
f 36//36 35//35 86//86
f 28//28 85//85 86//86
f 86//86 87//87 28//28
f 35//35 87//87 86//86
f 2//2 10//10 23//23
f 69//69 56//56 57//57
f 18//18 56//56 69//69
f 57//57 68//68 69//69
f 32//32 18//18 69//69
f 69//69 68//68 32//32
f 23//23 65//65 45//45
f 45//45 44//44 23//23
f 65//65 47//47 45//45
f 46//46 44//44 45//45
f 45//45 47//47 46//46
f 97//97 96//96 94//94
f 94//94 81//81 97//97
f 98//98 81//81 94//94
f 91//91 96//96 93//93
f 46//46 47//47 49//49
f 49//49 87//87 46//46
f 51//51 50//50 49//49
f 50//50 87//87 49//49
f 71//71 68//68 57//57
f 71//71 70//70 68//68
f 71//71 72//72 70//70
f 57//57 73//73 71//71
f 73//73 72//72 71//71
f 75//75 11//11 76//76
f 76//76 72//72 75//75
f 75//75 72//72 73//73
f 73//73 54//54 75//75
f 52//52 54//54 51//51
f 51//51 49//49 52//52
f 52//52 49//49 47//47
f 82//82 81//81 102//102
f 102//102 80//80 82//82
f 82//82 80//80 81//81
f 76//76 58//58 99//99
f 99//99 80//80 76//76
f 81//81 80//80 99//99
f 97//97 81//81 99//99
f 99//99 58//58 97//97
f 16//16 2//2 23//23
f 16//16 44//44 3//3
f 23//23 44//44 16//16
f 3//3 87//87 27//27
f 87//87 2//2 27//27
f 27//27 16//16 3//3
f 2//2 16//16 27//27
f 15//15 8//8 7//7
f 7//7 5//5 15//15
f 8//8 10//10 7//7
f 10//10 2//2 7//7
f 38//38 35//35 15//15
f 15//15 5//5 38//38
f 100//100 98//98 92//92
f 95//95 94//94 96//96
f 96//96 91//91 95//95
f 91//91 92//92 95//95
f 98//98 94//94 95//95
f 95//95 92//92 98//98
f 90//90 88//88 89//89
f 89//89 93//93 90//90
f 89//89 91//91 93//93
f 48//48 52//52 47//47
f 48//48 66//66 53//53
f 48//48 65//65 66//66
f 48//48 47//47 65//65
f 54//54 52//52 55//55
f 11//11 75//75 55//55
f 55//55 75//75 54//54
f 52//52 48//48 55//55
f 53//53 11//11 55//55
f 55//55 48//48 53//53
f 17//17 7//7 2//2
f 17//17 38//38 5//5
f 100//100 92//92 4//4
f 4//4 92//92 91//91
f 91//91 89//89 4//4
f 4//4 89//89 88//88
f 4//4 30//30 100//100
f 4//4 88//88 30//30
f 5//5 7//7 13//13
f 13//13 17//17 5//5
f 7//7 17//17 13//13
f 1//1 17//17 2//2
f 38//38 17//17 1//1
f 35//35 38//38 1//1
f 1//1 87//87 35//35
f 1//1 2//2 87//87
