# Blender 5.0.1
# www.blender.org
mtllib rockform_b.mtl
o rockform_b_rock
usemtl rockform_b_rock
v 0.336570 0.025001 0.565348
v 0.372830 0.209162 -0.913449
v -0.946659 0.268882 -0.288799
v -0.898952 0.322346 -0.329946
v -0.796124 4.852725 0.856944
v -0.794887 4.883296 0.858312
v 0.884315 0.354618 -0.089277
v 0.589068 0.361173 0.260845
v 0.254740 0.371579 0.558355
v -0.284387 0.318114 0.659234
v -0.701488 0.282902 0.392548
v 0.436408 0.048520 -0.936721
v -0.931325 0.325617 -0.276504
v -0.807714 4.883425 0.852288
v 0.333164 0.391723 -0.850325
v 0.635846 0.351301 -0.461676
v 0.749526 0.678114 -0.036504
v 0.436915 0.676607 0.259002
v 0.177403 0.680782 0.556780
v -0.309469 0.629328 0.597208
v -0.693414 0.598769 0.392296
v -1.173475 0.664519 0.162669
v -0.869327 0.638704 -0.209159
v -1.181767 0.342882 0.186807
v -0.281685 0.621176 -0.677869
v 0.262209 0.690461 -0.739890
v 0.485781 0.688434 -0.356276
v 0.614446 0.988591 0.015223
v 0.307416 0.974276 0.266951
v 0.103106 0.975836 0.558428
v -0.335450 0.933581 0.549168
v -0.696078 0.903948 0.402311
v -1.084459 0.967132 0.178480
v -0.833231 0.950370 -0.146792
v -0.686943 0.909086 -0.428445
v -0.302092 0.926266 -0.541951
v 0.192389 0.978661 -0.633452
v 0.349455 1.009595 -0.258944
v 0.491752 1.327406 0.066181
v 0.205699 1.304098 0.287866
v 0.034686 1.303185 0.568596
v -0.364842 1.269969 0.524212
v -0.711888 1.241219 0.424144
v -1.017548 1.299958 0.200223
v -0.825532 1.294418 -0.090485
v -0.676551 1.254481 -0.339483
v -0.328490 1.273511 -0.434152
v 0.127849 1.304608 -0.537158
v 0.236397 1.353466 -0.173669
v 0.406585 1.673392 0.117271
v 0.142947 1.645718 0.328276
v -0.019321 1.649255 0.603425
v -0.401711 1.617880 0.536389
v -0.753422 1.592493 0.467468
v -0.998375 1.643772 0.232408
v -0.859555 1.646820 -0.044109
v -0.688143 1.615221 -0.269827
v -0.361763 1.628617 -0.366676
v 0.080958 1.649123 -0.469063
v 0.161525 1.702713 -0.106567
v 0.314380 1.985517 0.167638
v 0.087784 1.956549 0.372407
v -0.077239 1.961718 0.630329
v -0.439703 1.935069 0.555883
v -0.790185 1.914083 0.507058
v -0.981781 1.954826 0.265795
v -0.895543 1.966483 0.001825
v -0.696524 1.946707 -0.196393
v -0.396426 1.951786 -0.306824
v 0.027821 1.965496 -0.392392
v 0.094119 2.016201 -0.043284
v 0.219332 2.282964 0.217325
v 0.037827 2.256171 0.419155
v -0.138326 2.260010 0.650215
v -0.479143 2.240809 0.583104
v -0.820399 2.223933 0.541682
v -0.971943 2.252865 0.301086
v -0.929470 2.272375 0.048345
v -0.704142 2.263484 -0.121385
v -0.431942 2.261422 -0.252061
v -0.030955 2.272159 -0.308489
v 0.034569 2.313894 0.016186
v 0.125760 2.609761 0.266478
v -0.009929 2.588282 0.466994
v -0.201323 2.588861 0.665085
v -0.520011 2.578714 0.617123
v -0.843472 2.564657 0.571105
v -0.971526 2.582555 0.338622
v -0.958035 2.607815 0.096383
v -0.713373 2.604855 -0.047082
v -0.467806 2.600795 -0.199189
v -0.093909 2.610157 -0.219828
v -0.018138 2.640282 0.072450
v 0.037346 2.949075 0.315304
v -0.058538 2.934854 0.514277
v -0.264725 2.932022 0.677610
v -0.561953 2.930930 0.655942
v -0.860027 2.918114 0.596033
v -0.981334 2.927276 0.378369
v -0.979176 2.954878 0.146611
v -0.726123 2.951844 0.024574
v -0.503627 2.951824 -0.144956
v -0.159029 2.958441 -0.129486
v -0.066139 2.978417 0.126554
v -0.043453 3.258240 0.364025
v -0.110559 3.251472 0.559528
v -0.327079 3.246723 0.690605
v -0.604351 3.253317 0.696940
v -0.871703 3.240599 0.617904
v -1.000321 3.243947 0.419978
v -0.992319 3.269577 0.199332
v -0.743536 3.262637 0.092283
v -0.539196 3.269958 -0.086630
v -0.224146 3.271147 -0.040548
v -0.112238 3.285120 0.179750
v -0.115729 3.554960 0.412823
v -0.167660 3.554221 0.601695
v -0.387226 3.549860 0.706526
v -0.646446 3.562102 0.737383
v -0.880796 3.549169 0.638566
v -1.025931 3.549386 0.462887
v -0.998348 3.568407 0.254444
v -0.765879 3.557189 0.155577
v -0.574484 3.570690 -0.022435
v -0.287324 3.565404 0.044428
v -0.159355 3.577640 0.233257
v -0.180146 3.883951 0.461796
v -0.230407 3.886963 0.640313
v -0.444477 3.885093 0.727063
v -0.687492 3.900964 0.774927
v -0.889795 3.888302 0.659901
v -1.054683 3.887241 0.506453
v -0.999309 3.895602 0.311480
v -0.792583 3.882246 0.214831
v -0.609620 3.897041 0.048215
v -0.347200 3.887656 0.123818
v -0.209995 3.900719 0.288046
v -0.238672 4.229657 0.510933
v -0.298272 4.234298 0.675539
v -0.498674 4.236047 0.752904
v -0.726889 4.253962 0.807994
v -0.900924 4.242546 0.683495
v -1.082877 4.240969 0.550084
v -0.997934 4.236510 0.369715
v -0.822439 4.223509 0.271129
v -0.644830 4.233484 0.124723
v -0.403188 4.224859 0.197126
v -0.265838 4.239493 0.344698
v -0.294096 4.547451 0.560117
v -0.369850 4.552496 0.708075
v -0.550151 4.557640 0.783702
v -0.764301 4.576624 0.835988
v -0.915754 4.567550 0.710378
v -1.107286 4.565244 0.593340
v -0.997078 4.548744 0.428317
v -0.853889 4.537044 0.326004
v -0.680367 4.537951 0.205525
v -0.455531 4.534453 0.264956
v -0.327500 4.550570 0.403340
v -0.349435 4.851718 0.609146
v -0.443202 4.856980 0.738998
v -0.599605 4.864098 0.818236
v -0.768962 6.890546 0.893895
v -0.934973 4.877952 0.740902
v -1.125706 4.874175 0.635989
v -0.999188 4.849192 0.486511
v -0.885350 4.837760 0.381112
v -0.716450 4.829317 0.288471
v -0.505192 4.832124 0.328790
v -0.394521 4.849729 0.463682
v -0.407350 5.186930 0.657786
v -0.516280 5.192837 0.769522
v -0.647918 5.199944 0.854729
v -0.957850 6.960498 0.759219
v -0.958338 5.218284 0.774753
v -1.137259 5.212405 0.678021
v -1.005889 5.183797 0.543718
v -0.915511 5.170743 0.437918
v -0.753216 5.156400 0.371287
v -0.553614 5.163109 0.390607
v -0.465553 5.182478 0.525120
v -0.469681 5.539139 0.705819
v -0.587320 5.546112 0.800755
v -0.695963 5.551458 0.891233
v -0.831187 6.907634 0.734903
v -1.045516 6.997711 0.788056
v -0.825220 6.910222 0.831492
v -1.017775 5.538581 0.599660
v -0.943546 5.522780 0.497431
v -0.790708 5.507370 0.452010
v -0.602404 5.513959 0.452464
v -0.538701 5.535136 0.586894
v -0.537182 5.863064 0.753093
v -0.655147 5.871024 0.833497
v -1.050548 7.000000 0.792655
v -0.793922 6.901587 0.910710
v 0.709925 0.000000 -0.657524
v 0.786944 0.000000 -0.567937
v -1.034409 5.867154 0.654382
v -0.969213 5.849206 0.560053
v -0.828883 5.836246 0.529338
v -0.653002 5.839657 0.516085
v -0.611943 5.861783 0.648249
v -0.609495 6.171294 0.799560
v -0.719332 6.179509 0.868108
v -1.136307 0.000000 0.050397
v -1.054531 6.180665 0.708224
v -0.992823 6.162720 0.625568
v -0.867642 6.153162 0.602807
v -0.706413 6.152668 0.582565
v -0.683544 6.173742 0.708584
v -0.685347 6.509210 0.845279
v -0.780187 6.516505 0.904479
v -1.076408 6.523304 0.761722
v -1.015110 6.507957 0.693240
v -0.906874 6.500834 0.672790
v -0.763035 6.497644 0.652226
v -0.752369 6.515048 0.767551
v -0.762920 6.864980 0.890401
v -1.037019 6.871495 0.762028
v -0.946495 6.865510 0.740328
v -0.822636 6.861373 0.724643
v -0.818062 6.872941 0.825090
v 1.015556 0.000000 -0.142814
v 0.757241 0.000000 0.270435
v -1.127265 0.341942 -0.028744
v -1.184444 0.628597 0.161171
v -1.082491 0.009218 -0.163725
v -1.084710 0.142014 -0.171783
v 0.112786 0.368897 -0.845200
v -0.408471 0.445856 -0.721569
v -0.310094 0.022175 -0.767063
v -0.724056 0.611713 -0.487674
v -0.782870 5.214775 0.872490
v -0.654081 0.609818 -0.542106
v -0.702415 0.657290 -0.507911
v -0.275067 0.488795 -0.749817
v -0.916210 5.218972 0.809942
v -0.757259 5.559108 0.893387
v -0.968613 5.356518 0.788858
v -1.141389 5.495200 0.711240
v -1.137504 5.565366 0.714871
v -0.726219 5.752580 0.912951
v -0.732135 5.873324 0.913279
v -1.115002 5.885300 0.733679
v -0.754557 6.179561 0.910625
v -1.093943 6.189722 0.751409
v -0.781766 6.516468 0.906510
v -1.080027 6.524181 0.766556
v -0.783082 6.534032 0.906344
v -0.792396 6.867013 0.910537
v -1.079005 6.566013 0.768113
v -1.062184 6.876029 0.783996
v 0.653704 0.000000 0.345254
v -0.010283 0.000000 0.660807
v -0.260004 0.000000 0.725432
v -0.719424 0.000000 0.403750
v -1.177743 0.000000 0.214362
vn 0.8257 0.2277 0.5161
vn 0.6580 0.1702 0.7335
vn 0.7191 0.3508 0.5998
vn -0.5690 0.1255 0.8127
vn 0.5619 0.2823 0.7776
vn -0.7240 0.0859 -0.6844
vn -0.7998 0.3255 -0.5044
vn -0.3812 0.0607 0.9225
vn -0.0547 0.3157 -0.9473
vn -0.5415 0.0675 0.8380
vn 0.7807 0.4628 -0.4198
vn 0.7494 0.2098 0.6280
vn 0.6371 0.3114 0.7051
vn 0.1789 0.0498 0.9826
vn -0.5419 0.1220 0.8315
vn -0.6482 0.0740 -0.7579
vn -0.7404 0.2521 -0.6231
vn -0.8605 0.2007 -0.4683
vn 0.7731 0.3645 -0.5191
vn -0.1517 0.3706 -0.9163
vn 0.7488 0.3789 -0.5438
vn 0.7606 0.4003 -0.5111
vn 0.6759 0.1748 0.7159
vn 0.7218 0.2973 0.6249
vn 0.0812 0.0149 0.9966
vn -0.4685 -0.0331 0.8828
vn -0.4216 0.0768 0.9035
vn -0.7491 0.2123 -0.6275
vn -0.2803 0.0466 0.9588
vn -0.2819 0.3045 -0.9098
vn -0.1467 0.3112 -0.9389
vn 0.8044 0.3673 -0.4669
vn 0.7116 0.4052 -0.5739
vn 0.6270 0.1111 0.7711
vn 0.8009 0.2115 0.5602
vn -0.0177 -0.0348 0.9992
vn -0.3706 -0.0773 0.9256
vn -0.5074 -0.0793 0.8580
vn -0.7830 0.1175 -0.6108
vn -0.8686 0.1479 -0.4728
vn -0.2837 0.2646 -0.9217
vn -0.2012 0.2407 -0.9495
vn 0.8742 0.2885 -0.3905
vn 0.6879 0.3451 -0.6385
vn 0.6105 0.0334 0.7913
vn 0.8500 0.0949 0.5181
vn -0.1002 -0.1151 0.9883
vn -0.2626 -0.1486 0.9534
vn -0.6034 -0.1675 0.7797
vn -0.8345 -0.0080 -0.5510
vn -0.8506 0.0732 -0.5207
vn -0.2672 0.1557 -0.9510
vn -0.2277 0.1589 -0.9607
vn 0.9341 0.1872 -0.3041
vn 0.6740 0.2676 -0.6885
vn 0.6202 0.0570 0.7824
vn 0.8590 0.0807 0.5056
vn -0.1624 -0.1145 0.9801
vn -0.1859 -0.0824 0.9791
vn -0.7007 -0.1655 0.6940
vn -0.8930 -0.0361 -0.4487
vn -0.7832 0.1155 -0.6109
vn -0.2869 0.1446 -0.9470
vn -0.2296 0.1927 -0.9540
vn 0.9455 0.2175 -0.2423
vn 0.6618 0.3059 -0.6844
vn 0.6618 0.0871 0.7446
vn 0.8415 0.0565 0.5373
vn -0.1927 -0.1045 0.9757
vn -0.1311 -0.1047 0.9858
vn -0.7866 -0.1438 0.6004
vn -0.9482 -0.0577 -0.3123
vn -0.6900 0.1510 -0.7079
vn -0.3445 0.1250 -0.9304
vn -0.1997 0.2228 -0.9542
vn 0.9467 0.2402 -0.2147
vn 0.6771 0.3265 -0.6595
vn 0.7320 0.1084 0.6727
vn 0.7952 0.0271 0.6058
vn -0.1882 -0.0803 0.9788
vn -0.1142 -0.1132 0.9870
vn -0.8479 -0.0589 0.5270
vn -0.9837 -0.0594 -0.1699
vn -0.5903 0.1564 -0.7919
vn -0.4303 0.0944 -0.8978
vn -0.1417 0.2264 -0.9637
vn 0.9467 0.2343 -0.2212
vn 0.7249 0.3008 -0.6197
vn 0.8145 0.1309 0.5652
vn 0.7192 0.0061 0.6948
vn -0.1466 -0.0631 0.9872
vn -0.1345 -0.1244 0.9831
vn -0.8757 -0.0798 0.4762
vn -0.9968 -0.0519 -0.0609
vn -0.4981 0.1578 -0.8527
vn -0.5241 0.0776 -0.8481
vn -0.0595 0.2402 -0.9689
vn 0.9325 0.2436 -0.2668
vn 0.7910 0.2841 -0.5419
vn 0.8844 0.1621 0.4378
vn 0.6210 -0.0100 0.7838
vn -0.0724 -0.0555 0.9958
vn -0.1935 -0.0734 0.9784
vn -0.8697 -0.1152 0.4799
vn -0.9991 -0.0394 -0.0140
vn -0.4264 0.1697 -0.8885
vn -0.6042 0.0778 -0.7930
vn 0.0377 0.2806 -0.9591
vn 0.8938 0.2847 -0.3465
vn 0.8573 0.2910 -0.4248
vn 0.9297 0.1730 0.3251
vn 0.5181 -0.0214 0.8551
vn 0.0217 -0.0481 0.9986
vn -0.2796 -0.0723 0.9574
vn -0.8307 -0.1451 0.5374
vn -0.9992 -0.0132 -0.0378
vn -0.3859 0.1657 -0.9075
vn -0.6582 0.0825 -0.7483
vn 0.1369 0.3018 -0.9435
vn 0.8398 0.3092 -0.4462
vn 0.9261 0.2069 -0.3155
vn 0.9535 0.1476 0.2627
vn 0.4311 -0.0234 0.9020
vn 0.1162 -0.0410 0.9924
vn -0.3844 -0.0681 0.9206
vn -0.7628 -0.1461 0.6300
vn -0.9914 0.0196 -0.1294
vn -0.3822 0.1352 -0.9141
vn -0.6818 0.0839 -0.7267
vn 0.2230 0.2720 -0.9361
vn 0.7857 0.2817 -0.5507
vn 0.9599 0.1860 -0.2097
vn 0.9557 0.1238 0.2670
vn 0.3756 -0.0206 0.9265
vn 0.1904 -0.0428 0.9808
vn -0.4895 -0.0733 0.8689
vn -0.6737 -0.1431 0.7250
vn -0.9613 0.0501 -0.2709
vn -0.4148 0.1127 -0.9029
vn -0.6744 0.0959 -0.7321
vn 0.2764 0.2478 -0.9286
vn 0.7311 0.2586 -0.6314
vn 0.9714 0.1850 -0.1490
vn 0.9354 0.1112 0.3356
vn 0.3600 -0.0144 0.9328
vn 0.2301 -0.0562 0.9715
vn -0.5752 -0.0935 0.8126
vn -0.5837 -0.1504 0.7979
vn -0.9008 0.0825 -0.4263
vn -0.4812 0.1041 -0.8704
vn -0.6351 0.1280 -0.7617
vn 0.2860 0.2510 -0.9248
vn 0.6928 0.2641 -0.6710
vn 0.9650 0.2186 -0.1448
vn 0.8878 0.0887 0.4515
vn 0.3868 -0.0005 0.9222
vn 0.2446 0.2155 0.9454
vn -0.4252 -0.0233 0.9048
vn -0.5144 -0.1473 0.8448
vn -0.8224 0.1026 -0.5595
vn -0.5742 0.0891 -0.8138
vn -0.5635 0.1609 -0.8103
vn 0.2514 0.2429 -0.9369
vn 0.6936 0.2598 -0.6719
vn 0.9475 0.2520 -0.1969
vn 0.8105 0.0554 0.5831
vn 0.4525 0.0174 0.8916
vn -0.6417 0.1132 -0.7585
vn -0.6513 -0.1160 0.7499
vn -0.4763 -0.1244 0.8704
vn -0.7517 0.0965 -0.6524
vn -0.6745 0.0644 -0.7355
vn -0.4677 0.1672 -0.8679
vn 0.1808 0.2061 -0.9617
vn 0.7383 0.2267 -0.6353
vn 0.9237 0.2507 -0.2897
vn 0.7165 0.0318 0.6968
vn 0.5444 0.0354 0.8381
vn -0.2196 0.1650 -0.9615
vn -0.6348 -0.1250 0.7625
vn 0.5649 0.0208 0.8249
vn 0.7531 0.2605 -0.6041
vn -0.7563 0.0500 -0.6523
vn -0.3611 0.1722 -0.9165
vn 0.0885 0.1849 -0.9788
vn 0.8039 0.2099 -0.5565
vn 0.8829 0.2525 -0.3958
vn 0.6285 0.0175 0.7776
vn -0.0000 -1.0000 -0.0000
vn 0.6505 0.3178 0.6898
vn -0.6806 0.0867 -0.7275
vn -0.8044 0.0503 -0.5919
vn -0.2617 0.1920 -0.9458
vn -0.0043 0.1911 -0.9816
vn 0.8672 0.2218 -0.4459
vn 0.8269 0.2773 -0.4892
vn 0.5635 0.0077 0.8261
vn 0.0601 0.1998 0.9780
vn -0.4716 0.0128 0.8817
vn -0.7444 0.2780 -0.6071
vn -0.7381 0.2641 -0.6209
vn -0.6900 0.0793 -0.7194
vn -0.8160 0.0587 -0.5751
vn -0.1919 0.1993 -0.9610
vn -0.0775 0.1945 -0.9778
vn 0.9191 0.2255 -0.3233
vn 0.7784 0.2867 -0.5585
vn 0.5297 0.0041 0.8482
vn -0.8586 0.1944 -0.4744
vn -0.0565 0.3343 -0.9408
vn -0.0695 0.4737 -0.8779
vn 0.7607 0.4764 -0.4408
vn -0.7311 0.0594 -0.6797
vn -0.7924 0.0677 -0.6063
vn -0.1630 0.1770 -0.9706
vn -0.1221 0.1772 -0.9766
vn 0.9579 0.1990 -0.2071
vn 0.7540 0.2514 -0.6069
vn 0.6080 0.2443 0.7554
vn 0.8030 0.1991 0.5618
vn -0.0356 0.1529 0.9876
vn -0.3827 0.1121 0.9171
vn -0.5031 -0.0327 0.8636
vn -0.7961 0.0419 -0.6037
vn -0.7590 0.2546 -0.5993
vn -0.1730 0.1612 -0.9717
vn -0.1357 0.1720 -0.9757
vn 0.9759 0.1834 -0.1179
vn 0.7439 0.2412 -0.6233
vn -0.3015 0.3358 -0.8924
vn -0.2073 0.3865 -0.8987
vn 0.8065 0.4563 -0.3759
vn 0.6559 0.4598 -0.5987
vn 0.6001 0.1351 0.7885
vn 0.8428 0.1602 0.5139
vn -0.9691 -0.0311 -0.2449
vn -0.1154 0.0635 0.9913
vn 0.3768 0.9250 -0.0481
vn -0.8460 0.1045 -0.5229
vn -0.8159 0.1995 -0.5427
vn 0.7001 0.4546 -0.5506
vn -0.7377 0.0558 -0.6728
vn -0.3194 0.4401 -0.8392
vn -0.2231 0.0527 -0.9734
vn -0.3855 0.0694 0.9201
vn 0.5643 0.0054 0.8255
vn -0.5817 0.0640 0.8109
vn -0.6139 -0.0580 -0.7872
vn 0.0040 -0.9999 -0.0164
vn -0.8157 0.2714 -0.5108
vn -0.4208 0.0772 0.9039
vn -0.7450 0.2760 -0.6073
vn -0.3286 0.3659 -0.8707
vn 0.7870 0.0647 0.6135
vn 0.6855 0.4771 -0.5500
vn 0.7682 0.0700 0.6364
vn 0.7188 0.0720 0.6915
vn 0.7197 0.0334 0.6935
vn 0.7416 0.1888 0.6437
vn -0.6826 0.0754 -0.7269
vn -0.4687 -0.1241 0.8746
vn 0.0219 -0.1041 0.9943
vn -0.1168 0.1944 -0.9739
vn 0.1207 -0.0862 0.9889
vn 0.9784 0.1957 -0.0671
vn 0.1930 -0.0785 0.9781
vn 0.1959 -0.0518 0.9793
vn -0.6492 -0.1141 0.7520
vn -0.2669 0.2479 -0.9313
vn -0.2295 0.2726 -0.9344
vn 0.8772 0.3656 -0.3111
vn 0.6541 0.3776 -0.6554
vn 0.6233 0.0220 0.7817
vn 0.8588 0.0832 0.5054
vn -0.1683 -0.0523 0.9844
vn -0.1882 -0.0543 0.9806
vn -0.6952 -0.0285 0.7183
vn -0.8904 0.0914 -0.4460
vn -0.7962 0.0028 -0.6050
vn -0.2867 0.1727 -0.9423
vn -0.2295 0.1609 -0.9599
vn 0.9373 0.2480 -0.2450
vn 0.6660 0.2759 -0.6930
vn 0.6695 0.0134 0.7427
vn 0.8383 0.1094 0.5342
vn -0.1946 -0.0834 0.9773
vn -0.1287 -0.1357 0.9824
vn -0.7849 -0.0246 0.6192
vn -0.9483 0.0834 -0.3061
vn -0.7044 0.0226 -0.7095
vn -0.3416 0.1950 -0.9194
vn -0.2001 0.1576 -0.9670
vn 0.9449 0.2466 -0.2153
vn 0.6837 0.2828 -0.6728
vn 0.7421 0.0192 0.6700
vn 0.7903 0.1218 0.6005
vn -0.1860 -0.1109 0.9763
vn -0.1137 -0.1213 0.9861
vn -0.8475 -0.0347 0.5296
vn -0.9855 0.0517 -0.1616
vn -0.5994 0.0550 -0.7986
vn -0.4229 0.1992 -0.8840
vn -0.1417 0.1566 -0.9774
vn 0.9469 0.2336 -0.2211
vn 0.7292 0.2714 -0.6281
vn 0.8257 0.0377 0.5628
vn 0.7153 0.1058 0.6908
vn -0.1442 -0.1164 0.9827
vn -0.1362 -0.0944 0.9862
vn -0.8747 -0.1002 0.4741
vn -0.9985 0.0075 -0.0548
vn -0.5035 0.0803 -0.8603
vn -0.5170 0.1687 -0.8392
vn -0.0582 0.1477 -0.9873
vn 0.9437 0.1981 -0.2651
vn 0.7992 0.2251 -0.5573
vn 0.8970 0.0662 0.4370
vn 0.6179 0.0856 0.7816
vn -0.0718 -0.1177 0.9905
vn -0.1932 -0.0780 0.9780
vn -0.8724 -0.0749 0.4830
vn -0.9996 -0.0270 -0.0125
vn -0.4310 0.1035 -0.8964
vn -0.6000 0.1406 -0.7875
vn 0.0413 0.1567 -0.9868
vn 0.9189 0.1861 -0.3479
vn 0.8724 0.1955 -0.4479
vn 0.9392 0.1077 0.3261
vn 0.5156 0.0669 0.8542
vn 0.0197 -0.1236 0.9921
vn -0.2731 -0.1566 0.9491
vn -0.8371 -0.0671 0.5429
vn -0.9976 -0.0542 -0.0425
vn -0.3883 0.1365 -0.9114
vn -0.6561 0.1254 -0.7442
vn 0.1413 0.1938 -0.9708
vn 0.8665 0.2089 -0.4534
vn 0.9279 0.1946 -0.3180
vn 0.9541 0.1433 0.2629
vn 0.4299 0.0379 0.9021
vn 0.1121 -0.1140 0.9871
vn -0.3748 -0.1705 0.9113
vn -0.7693 -0.0652 0.6355
vn -0.9886 -0.0637 -0.1366
vn -0.3797 0.1604 -0.9111
vn -0.6813 0.1040 -0.7246
vn 0.2248 0.2286 -0.9472
vn 0.7986 0.2303 -0.5561
vn 0.9448 0.2624 -0.1964
vn 0.9525 0.1488 0.2657
vn 0.3755 0.0074 0.9268
vn 0.1871 -0.0858 0.9786
vn -0.4811 -0.1539 0.8631
vn -0.6796 -0.0640 0.7307
vn -0.9604 -0.0463 -0.2747
vn -0.4101 0.1555 -0.8987
vn -0.6747 0.0784 -0.7339
vn 0.2769 0.2317 -0.9325
vn 0.7392 0.2236 -0.6353
vn 0.9666 0.2109 -0.1457
vn 0.9312 0.1482 0.3330
vn 0.3600 -0.0131 0.9329
vn 0.2293 -0.0654 0.9712
vn -0.5701 -0.1395 0.8097
vn -0.5894 -0.0721 0.8046
vn -0.9047 -0.0196 -0.4256
vn -0.4758 0.1500 -0.8667
vn -0.6368 0.0709 -0.7677
vn 0.2864 0.2409 -0.9273
vn 0.7012 0.2285 -0.6753
vn 0.9715 0.1855 -0.1478
vn 0.8818 0.1527 0.4463
vn 0.3860 -0.0265 0.9221
vn 0.2320 -0.0573 0.9710
vn -0.6272 -0.1392 0.7663
vn -0.5183 -0.0940 0.8500
vn -0.8310 0.0116 -0.5561
vn -0.5661 0.1536 -0.8099
vn -0.5685 0.0862 -0.8182
vn 0.2497 0.2755 -0.9283
vn 0.6925 0.2638 -0.6714
vn 0.9594 0.1983 -0.2005
vn 0.8058 0.1356 0.5764
vn 0.4508 -0.0278 0.8922
vn 0.2591 0.0806 0.9625
vn 0.1676 0.1492 0.9745
vn -0.4770 -0.1152 0.8713
vn -0.7589 0.0445 -0.6497
vn -0.6655 0.1374 -0.7337
vn -0.4737 0.1106 -0.8737
vn 0.1757 0.2896 -0.9409
vn 0.7214 0.2886 -0.6295
vn 0.9317 0.2165 -0.2917
vn 0.7154 0.0927 0.6925
vn 0.5428 -0.0132 0.8397
vn -0.6353 -0.1195 0.7629
vn -0.4692 -0.1192 0.8750
vn -0.7066 0.0634 -0.7047
vn -0.7509 0.0967 -0.6533
vn -0.3675 0.1240 -0.9217
vn 0.0848 0.2535 -0.9636
vn 0.7872 0.2704 -0.5543
vn 0.8923 0.2120 -0.3986
vn 0.6290 0.0580 0.7752
vn 0.6402 0.0077 0.7682
vn -0.2372 0.1809 -0.9545
vn 0.7571 0.2491 -0.6040
vn -0.8025 0.0666 -0.5930
vn -0.2691 0.1397 -0.9529
vn -0.0055 0.2236 -0.9747
vn 0.8573 0.2561 -0.4466
vn 0.8412 0.2164 -0.4955
vn 0.5645 0.0347 0.8247
vn -0.6880 0.0907 -0.7200
vn -0.8165 0.0544 -0.5747
vn -0.1957 0.1699 -0.9658
vn -0.0775 0.2197 -0.9725
vn 0.9075 0.2648 -0.3262
vn 0.7876 0.2465 -0.5647
vn 0.5302 0.0152 0.8477
vn -0.7262 0.0899 -0.6816
vn -0.7947 0.0529 -0.6047
vn -0.1615 0.1902 -0.9684
vn -0.1212 0.2101 -0.9701
vn 0.9422 0.2577 -0.2141
vn 0.7509 0.2672 -0.6040
vn 0.5297 0.0041 0.8481
vn -0.7937 0.0604 -0.6052
vn -0.7374 0.0580 -0.6730
vn -0.1713 0.1789 -0.9689
vn -0.1353 0.1808 -0.9742
vn 0.9686 0.2164 -0.1222
vn 0.7414 0.2566 -0.6200
vn -0.2192 0.1686 -0.9610
vn -0.1183 0.1684 -0.9786
vn 0.9794 0.1905 -0.0665
vn 0.7564 0.2369 -0.6097
vn 0.3768 0.9250 -0.0483
vn 0.3769 0.9250 -0.0481
vn 0.6960 0.3650 -0.6184
vn 0.7552 0.3547 -0.5513
vn 0.6718 0.4637 -0.5776
vn 0.5294 -0.0028 0.8484
vn 0.5314 0.0084 0.8471
vn -0.0034 -0.9858 -0.1680
vn -0.0216 -0.9998 -0.0012
vn -0.0577 -0.9979 0.0301
vn 0.0639 -0.9975 -0.0289
vn 0.0205 -0.9991 -0.0379
vn -0.8463 0.2573 -0.4664
vn -0.3926 0.0108 0.9196
vn -0.4196 0.0905 0.9032
vn -0.7677 0.3269 -0.5512
vn 0.7867 0.0710 0.6132
vn 0.7686 0.0618 0.6367
vn 0.6403 0.0134 0.7680
vn 0.6885 0.0710 0.7217
vn -0.7027 0.0878 -0.7061
vn -0.4790 -0.1093 0.8710
vn -0.1121 0.1809 -0.9771
vn 0.0272 -0.0626 0.9977
vn 0.9778 0.1990 -0.0657
vn 0.1253 -0.0469 0.9910
vn 0.2305 -0.0722 0.9704
vn 0.1959 -0.0517 0.9793
vn -0.6283 -0.1306 0.7670
vn -0.6497 -0.1317 0.7487
vt -0.046794 0.308364
vt -0.359587 0.000000
vt -0.000240 0.000000
vt 0.592551 0.314063
vt 0.301830 0.323112
vt 0.372987 0.021740
vt -0.351249 0.314063
vt -0.166976 0.276621
vt -0.545268 0.000000
vt -0.145773 0.000000
vt 0.648756 0.000000
vt 0.792351 5.709577
vt 0.787060 5.975213
vt 0.727244 5.659093
vt -0.126703 0.233811
vt -0.116012 0.283145
vt -0.162483 0.280301
vt -0.529672 0.246001
vt -0.943807 -0.000000
vt -0.178393 0.320780
vt -0.370026 0.340628
vt -0.404518 0.181880
vt 0.277031 0.305479
vt 0.369431 0.000000
vt -0.092684 0.589665
vt 0.460243 0.588354
vt 0.234581 0.591984
vt -0.188786 0.547242
vt 0.857948 5.709577
vt 0.843321 5.979156
vt 0.821438 5.975213
vt 0.264575 0.546606
vt 0.265878 0.577843
vt -0.057451 0.555395
vt -0.317235 0.571556
vt -0.248134 0.790510
vt -0.308325 0.600400
vt 0.164626 0.540153
vt 0.518956 0.600400
vt 0.614987 0.340628
vt 0.614618 0.859644
vt 0.732079 0.589665
vt -0.356558 0.847197
vt -0.608583 0.591984
vt -0.349646 0.588354
vt 0.169975 0.848553
vt -0.524968 0.786042
vt -0.522651 0.520669
vt -0.862690 0.840984
vt -0.940096 0.577843
vt -0.003219 0.826408
vt -0.211378 0.811809
vt -0.236936 1.104321
vt -0.538715 1.079321
vt 0.530478 0.571556
vt 0.517024 0.790510
vt 0.182371 0.805449
vt -0.247612 0.851009
vt 0.426401 0.851009
vt 0.185378 0.598639
vt -0.137664 0.859644
vt 0.507928 1.154266
vt 0.347636 0.847197
vt -0.374745 1.133999
vt -0.610016 0.848553
vt 0.110480 1.133204
vt 0.279627 0.840984
vt 0.045744 1.125581
vt -0.170776 1.090853
vt 0.205325 1.107401
vt -0.191491 1.134442
vt 0.342667 1.134442
vt 0.100742 0.877908
vt -0.181975 1.154266
vt 0.433870 1.455123
vt 0.259187 1.133999
vt -0.409884 1.431059
vt -0.618858 1.133204
vt 0.063517 1.434135
vt -0.574832 1.384776
vt -0.804507 1.130398
vt 0.298533 1.130398
vt 0.086071 1.432017
vt -0.110206 1.404540
vt 0.507987 1.090853
vt 0.234259 1.416189
vt -0.150716 1.434020
vt 0.283454 1.434020
vt 0.026590 1.176927
vt -0.285880 1.176927
vt -0.433870 1.455123
vt -0.507928 1.154266
vt 0.353692 1.726537
vt 0.204620 1.431059
vt -0.448259 1.701347
vt -0.649144 1.434135
vt 0.013153 1.705842
vt -0.268997 1.406852
vt -0.302033 1.682669
vt 0.565347 1.664420
vt 0.326521 1.429367
vt 0.530920 1.384776
vt 0.126013 1.709985
vt -0.046350 1.692789
vt 0.518067 1.404540
vt 0.264400 1.697205
vt -0.104510 1.709127
vt 0.216783 1.709127
vt -0.031759 1.480620
vt -0.220774 1.480620
vt -0.353692 1.726537
vt 0.271042 1.985186
vt 0.156652 1.701347
vt -0.488909 1.961888
vt -0.672539 1.705842
vt -0.039966 1.965226
vt -0.336328 1.948529
vt -0.606800 1.664420
vt 0.595455 1.933855
vt 0.355553 1.699849
vt 0.166466 1.975978
vt 0.698415 1.709985
vt 0.531980 1.968247
vt 0.525356 1.692789
vt 0.295284 1.966454
vt -0.053400 1.975791
vt 0.143824 1.975791
vt -0.086789 1.753219
vt -0.313405 1.985186
vt -0.270199 1.726537
vt -0.356147 2.269357
vt -0.530509 2.250680
vt -0.689831 1.965226
vt -0.094746 2.251184
vt -0.371866 2.242360
vt -0.633073 1.933855
vt 0.418880 2.245700
vt 0.386241 1.959013
vt 0.208238 2.267665
vt 0.727917 1.975978
vt 0.540007 2.265091
vt 0.326470 2.261561
vt 0.001342 2.269701
vt 0.066728 2.269701
vt -0.138502 2.012081
vt -0.398604 2.564413
vt -0.571624 2.552047
vt -0.702762 2.251184
vt -0.149878 2.549584
vt -0.408338 2.548635
vt -0.653137 2.230136
vt 0.621040 2.230136
vt 0.453443 2.545458
vt 0.251915 2.569459
vt 0.752756 2.267665
vt 0.551093 2.566821
vt 0.357619 2.566803
vt 0.057969 2.572558
vt -0.011830 2.572558
vt -0.187427 2.295897
vt -0.440970 2.833252
vt -0.015821 2.827367
vt 0.029415 2.552047
vt -0.204098 2.823238
vt -0.677685 2.817913
vt -0.667532 2.537490
vt 0.642716 2.537490
vt 0.489625 2.820823
vt 0.297759 2.843110
vt 0.771140 2.569459
vt 0.566235 2.837075
vt 0.388548 2.843441
vt 0.114592 2.844475
vt -0.089167 2.844475
vt -0.234473 2.589928
vt -0.483403 3.091270
vt -0.610972 2.827367
vt -0.065474 3.090627
vt -0.256400 3.086834
vt -0.445205 2.828971
vt -0.685592 3.086234
vt 0.661735 2.817913
vt 0.526937 3.086423
vt 0.345682 3.102963
vt 0.782569 2.843110
vt 0.585664 3.093207
vt 0.419233 3.104948
vt 0.169529 3.100352
vt -0.163060 3.100352
vt -0.280731 2.856626
vt -0.327259 3.110991
vt -0.525988 3.377349
vt -0.647640 3.090627
vt -0.120036 3.379968
vt -0.306184 3.378342
vt -0.481810 3.097480
vt -0.693417 3.381132
vt 0.679701 3.086234
vt 0.564820 3.380210
vt 0.395279 3.387480
vt 0.787811 3.102963
vt 0.608885 3.375866
vt 0.449786 3.388731
vt 0.221595 3.380571
vt -0.232094 3.380571
vt -0.374902 3.391929
vt -0.568716 3.677962
vt -0.681221 3.379968
vt -0.179049 3.681998
vt -0.353312 3.683519
vt -0.517501 3.392143
vt -0.703094 3.689171
vt -0.861314 3.687799
vt -0.836798 3.380210
vt 0.445918 3.683922
vt 0.788647 3.387480
vt 0.634847 3.672616
vt 0.480404 3.681290
vt 0.270281 3.673791
vt -0.295840 3.673791
vt -0.424164 3.686516
vt -0.611485 3.954305
vt -0.711852 3.681998
vt -0.241291 3.958693
vt -0.398074 3.963165
vt -0.551760 3.699097
vt -0.715990 3.971783
vt -0.882540 3.969777
vt 0.602761 3.687799
vt 0.496877 3.955429
vt 0.787451 3.683922
vt 0.662195 3.945256
vt 0.511306 3.946045
vt 0.315796 3.943003
vt -0.354824 3.943003
vt -0.475157 3.957018
vt -0.654119 4.218885
vt -0.740144 3.958693
vt -0.305076 4.223461
vt 0.071376 0.000000
vt -0.716387 4.538236
vt -0.622042 4.246457
vt -0.600439 4.534586
vt -0.898557 4.238413
vt 0.640375 3.969777
vt 0.547480 4.216689
vt 0.786707 3.955429
vt 0.689552 4.206748
vt 0.542682 4.199406
vt 0.358979 4.201847
vt -0.410331 4.201847
vt -0.527628 4.217156
vt -0.696415 4.510374
vt -0.767034 4.223461
vt -0.368622 4.515510
vt -0.441078 4.229650
vt 0.828827 6.084966
vt -0.732702 4.241697
vt -0.908604 4.532526
vt 0.677461 4.238413
vt 0.597225 4.507649
vt 0.788541 4.216689
vt 0.715779 4.496298
vt 0.574653 4.483826
vt 0.401086 4.489660
vt -0.464085 4.489660
vt -0.581053 4.506503
vt -0.738182 4.816642
vt -0.793576 4.515510
vt -0.430396 4.822706
vt -0.483089 4.521691
vt 0.752595 6.052607
vt 0.742721 5.970009
vt -0.761954 4.657842
vt -0.753020 4.537638
vt -0.588345 5.991779
vt -0.608722 5.971316
vt -0.583091 5.969548
vt -0.841897 5.976470
vt -0.901726 5.991779
vt -0.898689 5.969548
vt 0.556975 4.802418
vt 0.505225 4.496298
vt 0.607255 4.789017
vt 0.443512 4.794747
vt -0.517873 4.794747
vt -0.634770 4.813161
vt -0.386797 5.098317
vt -0.328100 4.816642
vt -0.545268 -0.475514
vt -0.907776 -0.168250
vt 0.071376 -0.699042
vt 0.764617 0.369431
vt 0.738788 -0.359587
vt 0.648756 -0.424647
vt 0.738788 0.000000
vt 0.908816 4.839449
vt 0.819169 5.101873
vt 0.804704 4.816158
vt 0.645870 4.816158
vt 0.611430 5.086267
vt 0.740157 4.802418
vt 0.640450 5.074996
vt 0.487510 5.077963
vt -0.573196 5.077963
vt -0.688121 5.097202
vt -0.449678 5.366343
vt -0.489375 5.105238
vt 0.099432 0.297341
vt 0.889250 5.117652
vt 0.836666 5.374492
vt 0.693454 5.101873
vt 0.668398 5.358887
vt 0.762476 5.086267
vt 0.674153 5.350575
vt 0.533955 5.350146
vt -0.631005 5.350146
vt -0.740587 5.368472
vt -0.779290 5.098317
vt -0.515637 5.660182
vt -0.545188 5.373486
vt 0.158871 0.425039
vt 0.777826 5.382367
vt 0.786793 5.672438
vt 0.740273 5.374492
vt 0.783007 5.358887
vt 0.708269 5.652899
vt 0.583191 5.650125
vt -0.691580 5.650125
vt -0.859452 5.660182
vt -0.819696 5.366343
vt 0.790997 5.673201
vt 0.802386 5.659093
vt 0.635018 5.966411
vt -0.754551 5.966411
vt -0.791862 5.665259
vt 0.488449 0.530276
vt 0.286867 0.298158
vt -0.833202 0.813691
vt -0.637265 0.847463
vt -0.752595 0.784617
vt 0.669877 0.181880
vt 0.447333 0.000000
vt 0.274875 0.387700
vt 0.189329 0.019282
vt -0.947306 0.298158
vt -0.600623 5.681767
vt 0.742864 0.233811
vt 0.701380 0.280301
vt -0.860979 0.017943
vt -0.189329 0.542584
vt -0.949634 0.546606
vt -0.024950 0.123491
vt -0.910931 5.666526
vt -0.912552 5.681767
vt -0.912696 5.666494
vt -0.916274 5.373531
vt -0.879303 5.373486
vt -0.299638 0.531924
vt -0.918582 5.107239
vt -0.849206 5.105238
vt -0.918297 5.002243
vt -0.609952 0.323112
vt 0.912195 4.778434
vt -0.524868 4.827355
vt -0.551178 5.002243
vt -0.578168 4.834007
vt 0.642454 6.006639
vt -0.763473 6.006639
vt -0.610889 4.246345
vt -0.611964 4.219761
vt -0.584292 3.979673
vt -0.384192 0.877908
vt -0.787834 1.429367
vt 0.667121 1.432017
vt -0.610049 6.001380
vt -0.833202 6.086957
vt -0.843321 5.979156
vt -0.857948 5.709577
vt -0.858837 5.673201
vt -0.870937 5.382367
vt -0.599479 5.666494
vt -0.556322 5.107239
vt -0.575819 5.373531
vt -0.889250 5.117652
vt -0.908816 4.839449
vt -0.912195 4.778434
vt 0.833202 6.086957
vt 0.714010 4.532526
vt -0.847463 6.008888
vt -0.145773 -0.755237
vt -0.943807 -0.310828
vt 0.697644 0.447333
vt 0.963409 -0.000240
vt 0.762408 5.117652
vt -0.598106 5.666526
vt 0.168250 0.000000
vt -0.017943 0.008016
vt 0.310828 -0.000000
vt -0.828827 0.809693
vt -0.610049 0.916348
vt -0.588345 0.901726
vt -0.642454 0.763473
vt 0.690113 0.042191
vt -0.459803 0.042191
vt 0.549296 0.531924
vt 0.860979 0.008016
vt 0.862909 0.123491
vt 0.459803 0.690113
vt 0.372987 -0.616033
vt 0.794369 4.507649
vt 0.908604 4.532526
s 0
f 7/1/1 225/2/1 224/3/1
f 8/4/2 9/5/2 1/6/2
f 7/1/3 8/7/3 225/2/3
f 10/8/4 257/9/4 256/10/4
f 1/6/5 254/11/5 8/4/5
f 252/12/6 220/13/6 215/14/6
f 3/15/7 13/16/7 4/17/7
f 11/18/8 258/19/8 257/9/8
f 230/20/9 15/21/9 2/22/9
f 10/8/10 11/18/10 257/9/10
f 16/23/11 224/3/11 198/24/11
f 17/25/12 8/7/12 7/1/12
f 18/26/13 9/5/13 8/4/13
f 19/27/14 10/8/14 9/5/14
f 20/28/15 11/18/15 10/8/15
f 252/29/16 253/30/16 220/31/16
f 227/32/17 22/33/17 23/34/17
f 236/35/18 23/34/18 35/36/18
f 16/23/19 7/1/19 224/3/19
f 26/37/20 230/20/20 25/38/20
f 26/39/21 16/23/21 15/40/21
f 16/23/22 17/25/22 7/1/22
f 28/41/23 18/26/23 17/42/23
f 29/43/24 19/44/24 18/45/24
f 30/46/25 20/28/25 19/27/25
f 20/28/26 32/47/26 21/48/26
f 21/48/27 33/49/27 22/50/27
f 22/33/28 34/51/28 23/34/28
f 31/52/29 42/53/29 43/54/29
f 236/55/30 35/56/30 36/57/30
f 25/38/31 37/58/31 26/37/31
f 37/59/32 27/60/32 26/39/32
f 27/60/33 28/61/33 17/25/33
f 39/62/34 29/63/34 28/41/34
f 40/64/35 30/65/35 29/43/35
f 41/66/36 31/52/36 30/46/36
f 31/52/37 43/54/37 32/47/37
f 43/54/38 33/49/38 32/47/38
f 33/67/39 45/68/39 34/51/39
f 34/51/40 46/69/40 35/36/40
f 35/56/41 47/70/41 36/57/41
f 36/57/42 48/71/42 37/58/42
f 48/72/43 38/73/43 37/59/43
f 38/73/44 39/74/44 28/61/44
f 50/75/45 40/76/45 39/62/45
f 51/77/46 41/78/46 40/64/46
f 52/79/47 42/53/47 41/66/47
f 42/53/48 54/80/48 43/54/48
f 54/80/49 44/81/49 43/54/49
f 44/82/50 56/83/50 45/68/50
f 45/68/51 57/84/51 46/69/51
f 46/85/52 58/86/52 47/70/52
f 47/70/53 59/87/53 48/71/53
f 59/88/54 49/89/54 48/72/54
f 49/90/55 50/91/55 39/92/55
f 61/93/56 51/94/56 50/75/56
f 62/95/57 52/96/57 51/77/57
f 63/97/58 53/98/58 52/79/58
f 64/99/59 54/80/59 53/98/59
f 65/100/60 55/101/60 54/102/60
f 55/101/61 67/103/61 56/83/61
f 56/83/62 68/104/62 57/84/62
f 57/105/63 69/106/63 58/86/63
f 58/86/64 70/107/64 59/87/64
f 70/108/65 60/109/65 59/88/65
f 60/110/66 61/111/66 50/91/66
f 72/112/67 62/113/67 61/93/67
f 73/114/68 63/115/68 62/95/68
f 74/116/69 64/99/69 63/97/69
f 75/117/70 65/118/70 64/99/70
f 76/119/71 66/120/71 65/100/71
f 66/120/72 78/121/72 67/103/72
f 67/122/73 79/123/73 68/124/73
f 68/124/74 80/125/74 69/106/74
f 69/106/75 81/126/75 70/107/75
f 81/127/76 71/128/76 70/108/76
f 71/128/77 72/129/77 61/130/77
f 83/131/78 73/114/78 72/129/78
f 84/132/79 74/133/79 73/114/79
f 85/134/80 75/117/80 74/116/80
f 86/135/81 76/136/81 75/117/81
f 76/119/82 88/137/82 77/138/82
f 77/138/83 89/139/83 78/121/83
f 78/140/84 90/141/84 79/123/84
f 79/123/85 91/142/85 80/125/85
f 80/125/86 92/143/86 81/126/86
f 92/144/87 82/145/87 81/127/87
f 82/145/88 83/131/88 72/129/88
f 94/146/89 84/132/89 83/131/89
f 95/147/90 85/148/90 84/132/90
f 96/149/91 86/135/91 85/134/91
f 97/150/92 87/151/92 86/135/92
f 87/152/93 99/153/93 88/137/93
f 88/137/94 100/154/94 89/139/94
f 89/155/95 101/156/95 90/141/95
f 90/141/96 102/157/96 91/142/96
f 91/142/97 103/158/97 92/143/97
f 103/159/98 93/160/98 92/144/98
f 93/160/99 94/146/99 83/131/99
f 105/161/100 95/147/100 94/146/100
f 106/162/101 96/149/101 95/163/101
f 107/164/102 97/150/102 96/149/102
f 97/150/103 109/165/103 98/166/103
f 98/167/104 110/168/104 99/153/104
f 99/153/105 111/169/105 100/154/105
f 100/170/106 112/171/106 101/156/106
f 101/156/107 113/172/107 102/157/107
f 102/157/108 114/173/108 103/158/108
f 114/174/109 104/175/109 103/159/109
f 104/175/110 105/161/110 94/146/110
f 116/176/111 106/177/111 105/161/111
f 117/178/112 107/164/112 106/162/112
f 118/179/113 108/180/113 107/164/113
f 108/180/114 120/181/114 109/165/114
f 109/182/115 121/183/115 110/168/115
f 110/168/116 122/184/116 111/169/116
f 111/185/117 123/186/117 112/171/117
f 112/171/118 124/187/118 113/172/118
f 113/172/119 125/188/119 114/173/119
f 125/189/120 115/190/120 114/174/120
f 126/191/121 105/161/121 115/190/121
f 127/192/122 117/193/122 116/176/122
f 128/194/123 118/179/123 117/178/123
f 129/195/124 119/196/124 118/179/124
f 119/196/125 131/197/125 120/181/125
f 120/198/126 132/199/126 121/183/126
f 121/183/127 133/200/127 122/184/127
f 122/201/128 134/202/128 123/186/128
f 123/186/129 135/203/129 124/187/129
f 124/187/130 136/204/130 125/188/130
f 136/205/131 126/191/131 125/189/131
f 137/206/132 116/176/132 126/191/132
f 138/207/133 128/208/133 127/192/133
f 139/209/134 129/195/134 128/194/134
f 140/210/135 130/211/135 129/195/135
f 130/211/136 142/212/136 131/197/136
f 131/197/137 143/213/137 132/214/137
f 132/199/138 144/215/138 133/200/138
f 133/216/139 145/217/139 134/202/139
f 134/202/140 146/218/140 135/203/140
f 135/203/141 147/219/141 136/204/141
f 147/220/142 137/206/142 136/205/142
f 148/221/143 127/192/143 137/206/143
f 149/222/144 139/223/144 138/207/144
f 150/224/145 140/210/145 139/209/145
f 151/225/146 141/226/146 140/210/146
f 141/226/147 153/227/147 142/212/147
f 142/212/148 154/228/148 143/213/148
f 143/229/149 155/230/149 144/215/149
f 144/231/150 156/232/150 145/217/150
f 145/217/151 157/233/151 146/218/151
f 146/218/152 158/234/152 147/219/152
f 158/235/153 148/221/153 147/220/153
f 159/236/154 138/207/154 148/221/154
f 160/237/155 150/238/155 149/222/155
f 161/239/156 151/225/156 150/224/156
f 10/8/157 256/10/157 255/240/157
f 238/241/158 14/242/158 234/243/158
f 153/227/159 165/244/159 154/228/159
f 154/245/160 166/246/160 155/230/160
f 155/247/161 167/248/161 156/232/161
f 156/232/162 168/249/162 157/233/162
f 157/233/163 169/250/163 158/234/163
f 169/251/164 159/236/164 158/235/164
f 170/252/165 149/222/165 159/236/165
f 171/253/166 161/254/166 160/237/166
f 172/255/167 162/256/167 161/239/167
f 253/30/168 186/257/168 220/31/168
f 238/241/169 164/258/169 14/242/169
f 164/258/170 176/259/170 165/244/170
f 165/260/171 177/261/171 166/246/171
f 166/262/172 178/263/172 167/248/172
f 167/248/173 179/264/173 168/249/173
f 168/249/174 180/265/174 169/250/174
f 180/266/175 170/252/175 169/251/175
f 181/267/176 160/237/176 170/252/176
f 182/268/177 172/269/177 171/253/177
f 183/270/178 173/271/178 172/255/178
f 220/31/179 174/272/179 221/273/179
f 238/241/180 240/274/180 175/275/180
f 163/276/181 251/277/181 219/278/181
f 223/279/182 163/280/182 219/281/182
f 177/261/183 189/282/183 178/283/183
f 178/263/184 190/284/184 179/264/184
f 179/264/185 191/285/185 180/265/185
f 191/286/186 181/267/186 180/266/186
f 192/287/187 171/253/187 181/267/187
f 193/288/188 183/270/188 182/289/188
f 257/290/189 206/291/189 255/292/189
f 198/293/189 225/294/189 254/295/189
f 254/11/5 225/296/5 8/4/5
f 17/42/190 18/26/190 8/4/190
f 242/297/191 199/298/191 188/299/191
f 188/300/192 200/301/192 189/282/192
f 189/302/193 201/303/193 190/284/193
f 190/284/194 202/304/194 191/285/194
f 202/305/195 192/287/195 191/286/195
f 203/306/196 182/268/196 192/287/196
f 204/307/197 194/308/197 193/288/197
f 19/27/198 20/28/198 10/8/198
f 20/28/199 21/48/199 11/18/199
f 13/16/200 226/309/200 23/34/200
f 226/309/201 227/32/201 23/34/201
f 245/310/202 207/311/202 199/298/202
f 199/312/203 208/313/203 200/301/203
f 200/314/204 209/315/204 201/303/204
f 201/303/205 210/316/205 202/304/205
f 210/317/206 203/306/206 202/305/206
f 211/318/207 193/319/207 203/306/207
f 212/320/208 205/321/208 204/307/208
f 23/34/209 34/51/209 35/36/209
f 15/21/210 230/20/210 26/37/210
f 230/20/211 237/322/211 25/38/211
f 26/39/212 27/60/212 16/23/212
f 247/323/213 214/324/213 207/325/213
f 207/325/214 215/14/214 208/313/214
f 208/326/215 216/327/215 209/315/215
f 209/315/216 217/328/216 210/316/216
f 217/329/217 211/318/217 210/317/217
f 211/318/218 212/330/218 204/331/218
f 28/41/219 29/63/219 18/26/219
f 29/43/220 30/65/220 19/44/220
f 30/46/221 31/52/221 20/28/221
f 20/28/222 31/52/222 32/47/222
f 21/48/223 32/47/223 33/49/223
f 249/332/224 252/12/224 214/324/224
f 22/33/225 33/67/225 34/51/225
f 215/333/226 221/273/226 216/327/226
f 216/327/227 222/334/227 217/328/227
f 222/335/228 218/336/228 217/329/228
f 218/336/229 219/281/229 212/330/229
f 235/337/230 236/55/230 36/57/230
f 25/38/231 36/57/231 37/58/231
f 37/59/232 38/73/232 27/60/232
f 27/60/233 38/73/233 28/61/233
f 39/62/234 40/76/234 29/63/234
f 40/64/235 41/78/235 30/65/235
f 24/338/236 227/32/236 226/309/236
f 41/66/237 42/53/237 31/52/237
f 195/339/238 187/340/238 174/341/238
f 34/51/239 45/68/239 46/69/239
f 33/67/240 44/82/240 45/68/240
f 2/342/241 16/23/241 197/343/241
f 215/14/242 214/324/242 252/12/242
f 25/38/243 231/344/243 235/337/243
f 230/20/244 2/22/244 232/345/244
f 11/18/245 24/346/245 258/19/245
f 219/278/246 251/277/246 250/347/246
f 43/54/247 44/81/247 33/49/247
f 232/345/248 3/348/248 4/349/248
f 228/350/249 232/351/249 255/292/249
f 23/34/250 4/17/250 13/16/250
f 21/48/251 227/352/251 24/346/251
f 13/16/252 229/353/252 226/309/252
f 25/38/253 235/337/253 36/57/253
f 213/354/254 250/355/254 248/356/254
f 16/23/255 27/60/255 17/25/255
f 213/354/256 246/357/256 205/358/256
f 233/359/18 23/34/18 236/35/18
f 205/358/257 244/360/257 194/361/257
f 194/361/258 244/360/258 243/362/258
f 18/45/259 19/44/259 9/363/259
f 241/364/260 242/297/260 188/299/260
f 240/274/261 176/259/261 175/275/261
f 184/365/262 243/366/262 239/367/262
f 221/273/263 185/368/263 222/334/263
f 184/365/264 234/243/264 173/271/264
f 185/369/265 223/279/265 222/335/265
f 173/271/266 6/370/266 162/256/266
f 162/256/267 5/371/267 152/372/267
f 5/371/268 164/258/268 153/227/268
f 35/56/269 46/85/269 47/70/269
f 36/57/270 47/70/270 48/71/270
f 48/72/271 49/89/271 38/73/271
f 38/373/272 49/90/272 39/92/272
f 50/75/273 51/94/273 40/76/273
f 51/77/274 52/96/274 41/78/274
f 52/79/275 53/98/275 42/53/275
f 42/53/276 53/98/276 54/80/276
f 54/80/277 55/374/277 44/81/277
f 44/82/278 55/101/278 56/83/278
f 45/68/279 56/83/279 57/84/279
f 46/85/280 57/105/280 58/86/280
f 47/70/281 58/86/281 59/87/281
f 59/88/282 60/109/282 49/89/282
f 49/90/283 60/110/283 50/91/283
f 61/93/284 62/113/284 51/94/284
f 62/95/285 63/115/285 52/96/285
f 63/97/286 64/99/286 53/98/286
f 64/99/287 65/118/287 54/80/287
f 65/100/288 66/120/288 55/101/288
f 55/101/289 66/120/289 67/103/289
f 56/375/290 67/122/290 68/124/290
f 57/105/291 68/124/291 69/106/291
f 58/86/292 69/106/292 70/107/292
f 70/108/293 71/128/293 60/109/293
f 60/109/294 71/128/294 61/130/294
f 72/129/295 73/114/295 62/95/295
f 73/114/296 74/133/296 63/115/296
f 74/116/297 75/117/297 64/99/297
f 75/117/298 76/136/298 65/118/298
f 76/119/299 77/138/299 66/120/299
f 66/120/300 77/138/300 78/121/300
f 67/122/301 78/140/301 79/123/301
f 68/124/302 79/123/302 80/125/302
f 69/106/303 80/125/303 81/126/303
f 81/127/304 82/145/304 71/128/304
f 71/128/305 82/145/305 72/129/305
f 83/131/306 84/132/306 73/114/306
f 84/132/307 85/148/307 74/133/307
f 85/134/308 86/135/308 75/117/308
f 86/135/309 87/151/309 76/136/309
f 76/119/310 87/152/310 88/137/310
f 77/138/311 88/137/311 89/139/311
f 78/140/312 89/155/312 90/141/312
f 79/123/313 90/141/313 91/142/313
f 80/125/314 91/142/314 92/143/314
f 92/144/315 93/160/315 82/145/315
f 82/145/316 93/160/316 83/131/316
f 94/146/317 95/147/317 84/132/317
f 95/163/318 96/149/318 85/134/318
f 96/149/319 97/150/319 86/135/319
f 97/150/320 98/166/320 87/151/320
f 87/152/321 98/167/321 99/153/321
f 88/137/322 99/153/322 100/154/322
f 89/155/323 100/170/323 101/156/323
f 90/141/324 101/156/324 102/157/324
f 91/142/325 102/157/325 103/158/325
f 103/159/326 104/175/326 93/160/326
f 93/160/327 104/175/327 94/146/327
f 105/161/328 106/177/328 95/147/328
f 106/162/329 107/164/329 96/149/329
f 107/164/330 108/180/330 97/150/330
f 97/150/331 108/180/331 109/165/331
f 98/167/332 109/182/332 110/168/332
f 99/153/333 110/168/333 111/169/333
f 100/170/334 111/185/334 112/171/334
f 101/156/335 112/171/335 113/172/335
f 102/157/336 113/172/336 114/173/336
f 114/174/337 115/190/337 104/175/337
f 104/175/338 115/190/338 105/161/338
f 116/176/339 117/193/339 106/177/339
f 117/178/340 118/179/340 107/164/340
f 118/179/341 119/196/341 108/180/341
f 108/180/342 119/196/342 120/181/342
f 109/182/343 120/198/343 121/183/343
f 110/168/344 121/183/344 122/184/344
f 111/185/345 122/201/345 123/186/345
f 112/171/346 123/186/346 124/187/346
f 113/172/347 124/187/347 125/188/347
f 125/189/348 126/191/348 115/190/348
f 126/191/349 116/176/349 105/161/349
f 127/192/350 128/208/350 117/193/350
f 128/194/351 129/195/351 118/179/351
f 129/195/352 130/211/352 119/196/352
f 119/196/353 130/211/353 131/197/353
f 120/181/354 131/197/354 132/214/354
f 121/183/355 132/199/355 133/200/355
f 122/201/356 133/216/356 134/202/356
f 123/186/357 134/202/357 135/203/357
f 124/187/358 135/203/358 136/204/358
f 136/205/359 137/206/359 126/191/359
f 137/206/360 127/192/360 116/176/360
f 138/207/361 139/223/361 128/208/361
f 139/209/362 140/210/362 129/195/362
f 140/210/363 141/226/363 130/211/363
f 130/211/364 141/226/364 142/212/364
f 131/197/365 142/212/365 143/213/365
f 132/199/366 143/229/366 144/215/366
f 133/216/367 144/231/367 145/217/367
f 134/202/368 145/217/368 146/218/368
f 135/203/369 146/218/369 147/219/369
f 147/220/370 148/221/370 137/206/370
f 148/221/371 138/207/371 127/192/371
f 149/222/372 150/238/372 139/223/372
f 150/224/373 151/225/373 140/210/373
f 151/225/374 152/372/374 141/226/374
f 141/226/375 152/372/375 153/227/375
f 142/212/376 153/227/376 154/228/376
f 143/229/377 154/245/377 155/230/377
f 144/231/378 155/247/378 156/232/378
f 145/217/379 156/232/379 157/233/379
f 146/218/380 157/233/380 158/234/380
f 158/235/381 159/236/381 148/221/381
f 159/236/382 149/222/382 138/207/382
f 160/237/383 161/254/383 150/238/383
f 161/239/384 162/256/384 151/225/384
f 255/240/385 1/6/385 9/5/385
f 9/5/386 10/8/386 255/240/386
f 196/376/158 195/377/158 253/378/158
f 253/378/158 252/379/158 251/277/158
f 252/379/158 249/380/158 250/347/158
f 252/379/158 250/347/158 251/277/158
f 249/380/158 247/381/158 248/382/158
f 250/347/158 249/380/158 248/382/158
f 251/277/158 196/376/158 253/378/158
f 244/383/158 246/384/158 245/385/158
f 246/384/158 248/382/158 247/381/158
f 245/385/158 246/384/158 247/381/158
f 245/385/158 242/386/158 243/366/158
f 242/386/158 241/387/158 240/274/158
f 239/367/158 242/386/158 240/274/158
f 243/366/158 244/383/158 245/385/158
f 239/367/158 243/366/158 242/386/158
f 234/243/158 239/367/158 240/274/158
f 234/243/158 240/274/158 238/241/158
f 5/371/158 6/370/158 14/242/158
f 6/370/158 234/243/158 14/242/158
f 153/227/387 164/258/387 165/244/387
f 154/245/388 165/260/388 166/246/388
f 155/247/389 166/262/389 167/248/389
f 156/232/390 167/248/390 168/249/390
f 157/233/391 168/249/391 169/250/391
f 169/251/392 170/252/392 159/236/392
f 170/252/393 160/237/393 149/222/393
f 171/253/394 172/269/394 161/254/394
f 172/255/395 173/271/395 162/256/395
f 253/30/168 195/388/168 186/257/168
f 238/241/396 175/275/396 164/258/396
f 164/258/397 175/275/397 176/259/397
f 165/260/398 176/389/398 177/261/398
f 166/246/399 177/261/399 178/283/399
f 167/248/400 178/263/400 179/264/400
f 168/249/401 179/264/401 180/265/401
f 180/266/402 181/267/402 170/252/402
f 181/267/403 171/253/403 160/237/403
f 182/289/404 183/270/404 172/255/404
f 183/270/405 184/365/405 173/271/405
f 220/31/406 186/257/406 174/272/406
f 163/276/181 196/376/181 251/277/181
f 223/279/407 187/390/407 163/280/407
f 177/261/408 188/300/408 189/282/408
f 178/263/409 189/302/409 190/284/409
f 179/264/410 190/284/410 191/285/410
f 191/286/411 192/287/411 181/267/411
f 192/287/412 182/268/412 171/253/412
f 193/288/413 194/308/413 183/270/413
f 255/292/189 256/391/189 257/290/189
f 257/290/189 258/392/189 206/291/189
f 254/295/189 197/393/189 198/293/189
f 198/293/189 224/394/189 225/294/189
f 242/297/414 245/310/414 199/298/414
f 188/300/415 199/312/415 200/301/415
f 189/302/416 200/314/416 201/303/416
f 190/284/417 201/303/417 202/304/417
f 202/305/418 203/306/418 192/287/418
f 203/306/419 193/319/419 182/268/419
f 204/307/420 205/321/420 194/308/420
f 245/395/421 247/323/421 207/325/421
f 199/312/422 207/325/422 208/313/422
f 200/314/423 208/326/423 209/315/423
f 201/303/424 209/315/424 210/316/424
f 210/317/425 211/318/425 203/306/425
f 211/318/426 204/331/426 193/319/426
f 212/320/427 213/396/427 205/321/427
f 247/323/428 249/332/428 214/324/428
f 207/325/429 214/324/429 215/14/429
f 208/326/430 215/333/430 216/327/430
f 209/315/431 216/327/431 217/328/431
f 217/329/432 218/336/432 211/318/432
f 211/318/433 218/336/433 212/330/433
f 215/333/434 220/31/434 221/273/434
f 216/327/435 221/273/435 222/334/435
f 222/335/436 223/279/436 218/336/436
f 218/336/437 223/279/437 219/281/437
f 226/309/236 229/353/236 206/397/236
f 229/353/236 228/398/236 206/397/236
f 206/397/236 258/399/236 24/338/236
f 226/309/236 206/397/236 24/338/236
f 186/400/438 195/339/438 174/341/438
f 195/339/439 196/401/439 187/340/439
f 196/401/238 163/402/238 187/340/238
f 187/340/238 185/403/238 174/341/238
f 197/343/440 12/404/440 2/342/440
f 2/342/441 15/40/441 16/23/441
f 16/23/442 198/24/442 197/343/442
f 25/38/243 237/322/243 231/344/243
f 12/405/244 232/345/244 2/22/244
f 232/345/244 231/344/244 237/322/244
f 230/20/244 232/345/244 237/322/244
f 213/396/443 212/320/443 250/347/443
f 212/320/444 219/278/444 250/347/444
f 233/406/248 236/55/248 235/337/248
f 235/337/248 231/344/248 4/349/248
f 231/344/248 232/345/248 4/349/248
f 232/345/248 228/407/248 3/348/248
f 228/407/248 229/408/248 3/348/248
f 233/406/248 235/337/248 4/349/248
f 12/409/445 197/393/445 232/351/445
f 197/393/446 254/295/446 232/351/446
f 254/295/447 1/410/447 232/351/447
f 1/410/448 255/292/448 232/351/448
f 255/292/449 206/291/449 228/350/449
f 23/34/450 233/359/450 4/17/450
f 24/346/451 11/18/451 21/48/451
f 21/48/452 22/50/452 227/352/452
f 13/16/453 3/15/453 229/353/453
f 213/354/454 248/356/454 246/357/454
f 205/358/455 246/357/455 244/360/455
f 184/365/456 183/270/456 243/366/456
f 183/270/457 194/308/457 243/366/457
f 177/411/458 176/412/458 188/299/458
f 176/412/260 241/364/260 188/299/260
f 240/274/459 241/387/459 176/259/459
f 221/273/460 174/272/460 185/368/460
f 184/365/461 239/367/461 234/243/461
f 185/369/462 187/390/462 223/279/462
f 173/271/463 234/243/463 6/370/463
f 152/372/464 151/225/464 162/256/464
f 162/256/465 6/370/465 5/371/465
f 153/227/466 152/372/466 5/371/466
f 5/371/467 14/242/467 164/258/467
