# collision hull for rock_cliff_b - convex, faces 198
o rock_cliff_b_col
v 4.28062 5.74783 2.26045
v 4.60405 3.35492 2.17075
v -3.79366 5.64874 2.21333
v -3.98550 3.33005 2.20394
v -4.16262 1.46314 2.05423
v 4.74928 0.60711 1.00861
v 3.88668 0.12470 0.21175
v -4.38025 0.68703 1.22715
v 4.61803 0.64898 0.35313
v 0.31402 -0.49998 1.74135
v 1.64171 3.28700 2.29384
v -3.82289 6.07002 1.86205
v 3.64000 5.80386 2.28929
v -4.56846 3.98529 -1.28656
v -4.62851 3.54910 -1.41974
v -4.67169 3.23015 -1.51307
v -2.43504 6.18268 2.25809
v -2.68561 6.20000 2.26032
v -3.79441 5.70566 2.18386
v -2.71252 6.20080 2.25937
v -3.43232 5.88979 2.22560
v -4.00903 2.96307 2.23942
v -4.05807 1.82820 2.21915
v -4.07615 2.22298 2.20458
v -4.26772 0.99093 1.70772
v -3.67839 0.29580 1.59152
v -3.96361 0.22135 0.97767
v -3.42174 0.50126 1.98685
v -2.48506 -0.17984 1.82262
v -3.27130 -0.11696 1.39051
v -3.52019 -0.10170 0.82874
v -2.94294 -0.12741 1.66304
v -2.57073 -0.41907 1.33765
v -2.94023 -0.38813 0.98624
v -2.52546 -0.50707 0.91997
v -2.82365 -0.40239 0.42259
v -2.52824 -0.17429 -0.69652
v 3.51777 -0.22068 1.75124
v 3.03347 -0.50011 1.73368
v -4.47463 4.64508 -1.06873
v 3.20894 -0.50005 0.87233
v 3.85126 0.22622 2.10398
v 4.61360 0.56379 1.62720
v 4.05743 0.00479 1.07122
v 4.50287 0.74274 2.08737
v 3.67374 -0.17423 0.57660
v 3.82406 0.41277 -0.29939
v 4.27436 1.37109 -0.80637
v -3.52111 -0.07713 0.39818
v -4.53808 0.74202 0.33014
v -4.16937 0.60134 -0.19935
v -3.07603 -0.08688 -0.37157
v -3.69292 0.62809 -1.08099
v -3.21047 0.16183 -0.87565
v 3.81713 4.05398 -1.17388
v 1.48693 -0.48564 -0.50255
v 3.48249 0.57031 -0.76819
v 2.69121 -0.06697 -0.63513
v 4.11023 1.91920 -1.23865
v -3.30791 6.14350 2.06708
v -3.97525 4.30394 -1.18714
v -4.52016 4.32835 -1.17597
v -3.34122 3.98005 -1.29879
v -3.92034 4.04608 -1.27610
v -0.83726 1.34008 -2.21288
v -3.42153 3.74074 -1.38270
v -2.92193 3.50622 -1.46418
v -4.59950 3.76099 -1.35591
v -1.62828 1.02308 -2.28874
v -4.69997 1.54837 -0.90873
v -4.18935 1.34896 -1.33220
v -4.75318 2.52522 -1.71425
v -3.52585 0.91535 -1.62800
v -1.00978 1.95975 -2.00147
v -1.15971 1.19185 -2.25340
v -2.52798 0.14794 -1.46059
v -2.74618 1.00921 -2.24448
v -3.03515 0.50058 -1.62013
v -2.59887 0.49928 -1.85063
v -1.91780 0.94393 -2.30000
v -2.24756 -0.00223 -1.26083
v 3.93341 2.62646 -1.60311
v 3.00429 0.98837 -1.42518
v 1.68972 -0.11151 -1.09496
v -2.03817 0.31060 -1.76217
v 1.48302 0.27903 -1.58993
v 1.41735 0.09689 -1.39829
v -0.49929 1.42249 -2.18783
v -0.39730 1.44559 -2.18006
v -0.29451 1.46419 -2.17347
v -0.18745 1.40451 -2.19412
v 0.33336 1.28629 -2.23224
v 0.70730 1.19639 -2.25923
v 1.77088 0.56664 -1.73091
v 2.28609 0.39769 -1.38780
v 1.19403 1.19833 -2.24896
v 2.30815 0.91416 -1.73409
v 2.55380 1.68073 -1.99784
v 2.85024 -0.46281 0.15347
v 2.26417 -0.49984 -0.19377
v -2.41231 -0.46569 0.29381
vn 0.5852 0.6931 0.4208
vn 0.7847 0.0671 0.6163
vn -0.6386 0.1493 0.7549
vn -0.9803 0.0804 0.1804
vn -0.7584 -0.1714 0.6289
vn 0.9298 -0.3653 -0.0458
vn 0.5389 -0.7475 -0.3884
vn -0.8735 -0.3935 0.2866
vn 0.8734 -0.3726 -0.3135
vn -0.0135 -0.8284 0.5599
vn 0.0107 -0.0274 0.9996
vn -0.6036 0.7922 0.0896
vn 0.0827 0.8379 0.5396
vn -0.7554 0.2923 -0.5864
vn -0.7611 0.2787 -0.5857
vn -0.7640 0.2703 -0.5859
vn 0.0581 0.8959 -0.4404
vn 0.0355 0.8479 0.5290
vn -0.7390 0.3482 0.5768
vn -0.0323 0.8385 0.5440
vn -0.2315 0.3623 0.9028
vn -0.6395 0.0456 0.7674
vn -0.4520 -0.0903 0.8874
vn -0.8243 0.0447 0.5644
vn -0.8276 -0.2745 0.4896
vn -0.5388 -0.6669 0.5147
vn -0.6239 -0.7675 0.1474
vn -0.2862 -0.4332 0.8547
vn -0.1301 -0.6366 0.7601
vn -0.4659 -0.8075 0.3619
vn -0.5172 -0.8539 0.0578
vn -0.3506 -0.7515 0.5589
vn -0.1937 -0.9263 0.3232
vn -0.3669 -0.9236 0.1108
vn -0.1409 -0.9887 0.0514
vn -0.3088 -0.9396 -0.1475
vn -0.2036 -0.9263 -0.3171
vn 0.4893 -0.8052 0.3350
vn 0.1690 -0.8595 0.4825
vn -0.6433 0.5746 -0.5060
vn 0.3022 -0.9516 -0.0556
vn 0.3066 -0.4768 0.8238
vn 0.8411 -0.4711 0.2658
vn 0.5938 -0.8046 0.0018
vn 0.6234 -0.2713 0.7333
vn 0.5237 -0.8168 -0.2421
vn 0.5343 -0.6607 -0.5272
vn 0.8230 -0.2480 -0.5110
vn -0.5180 -0.8415 -0.1533
vn -0.9073 -0.4201 -0.0153
vn -0.6326 -0.7136 -0.3010
vn -0.3971 -0.8736 -0.2812
vn -0.5913 -0.6820 -0.4303
vn -0.4627 -0.8065 -0.3681
vn 0.5465 0.5342 -0.6449
vn 0.0403 -0.9506 -0.3078
vn 0.4842 -0.6065 -0.6306
vn 0.3786 -0.7440 -0.5505
vn 0.8025 -0.1495 -0.5776
vn -0.1770 0.9662 0.1873
vn 0.0030 0.3318 -0.9434
vn -0.7512 0.3027 -0.5866
vn 0.0085 0.3394 -0.9406
vn -0.0061 0.3214 -0.9469
vn -0.0080 0.2955 -0.9553
vn -0.0030 0.3247 -0.9458
vn 0.0028 0.3314 -0.9435
vn -0.7587 0.2843 -0.5861
vn -0.0158 0.2115 -0.9773
vn -0.9295 -0.3121 -0.1964
vn -0.6280 -0.5454 -0.5550
vn -0.7650 0.0432 -0.6426
vn -0.5524 -0.5551 -0.6218
vn 0.0008 0.3290 -0.9443
vn -0.0137 0.2602 -0.9655
vn -0.2390 -0.8244 -0.5131
vn -0.2314 -0.2382 -0.9433
vn -0.4400 -0.6898 -0.5750
vn -0.2269 -0.6810 -0.6963
vn -0.0342 -0.2247 -0.9738
vn -0.0905 -0.8970 -0.4326
vn 0.6411 0.1086 -0.7598
vn 0.4467 -0.4800 -0.7550
vn 0.1665 -0.7967 -0.5810
vn -0.0413 -0.7456 -0.6651
vn 0.1438 -0.6588 -0.7385
vn 0.0676 -0.7709 -0.6334
vn -0.0027 0.3125 -0.9499
vn -0.0001 0.3253 -0.9456
vn 0.0016 0.3298 -0.9441
vn 0.0023 0.3178 -0.9482
vn 0.0047 0.3094 -0.9509
vn 0.0176 0.1437 -0.9895
vn 0.2513 -0.5432 -0.8011
vn 0.3531 -0.6269 -0.6945
vn 0.1034 -0.1399 -0.9848
vn 0.3496 -0.4606 -0.8159
vn 0.2647 -0.0745 -0.9614
vn 0.3113 -0.9003 -0.3042
vn 0.1580 -0.9474 -0.2784
vn -0.1146 -0.9780 -0.1744
f 16//16 77//77 72//72
f 1//1 42//42 2//2
f 9//9 2//2 6//6
f 1//1 2//2 9//9
f 35//35 100//100 41//41
f 40//40 12//12 60//60
f 55//55 40//40 60//60
f 60//60 1//1 55//55
f 60//60 17//17 1//1
f 45//45 2//2 42//42
f 63//63 40//40 55//55
f 72//72 71//71 70//70
f 70//70 16//16 72//72
f 40//40 62//62 70//70
f 51//51 70//70 53//53
f 53//53 70//70 71//71
f 77//77 16//16 80//80
f 82//82 96//96 55//55
f 28//28 29//29 42//42
f 35//35 41//41 39//39
f 99//99 41//41 100//100
f 46//46 41//41 99//99
f 44//44 41//41 46//46
f 44//44 9//9 6//6
f 44//44 46//46 9//9
f 44//44 39//39 41//41
f 18//18 60//60 20//20
f 17//17 60//60 18//18
f 13//13 42//42 1//1
f 13//13 11//11 42//42
f 13//13 18//18 11//11
f 1//1 17//17 13//13
f 17//17 18//18 13//13
f 21//21 60//60 12//12
f 21//21 3//3 20//20
f 20//20 60//60 21//21
f 36//36 49//49 52//52
f 52//52 37//37 36//36
f 51//51 49//49 50//50
f 50//50 70//70 51//51
f 8//8 70//70 50//50
f 56//56 100//100 35//35
f 64//64 62//62 40//40
f 14//14 70//70 62//62
f 73//73 53//53 71//71
f 72//72 77//77 73//73
f 73//73 71//71 72//72
f 53//53 73//73 78//78
f 78//78 73//73 77//77
f 86//86 80//80 96//96
f 86//86 87//87 85//85
f 85//85 80//80 86//86
f 65//65 14//14 62//62
f 62//62 64//64 65//65
f 16//16 70//70 15//15
f 15//15 14//14 68//68
f 70//70 14//14 15//15
f 25//25 28//28 5//5
f 25//25 70//70 8//8
f 42//42 29//29 10//10
f 10//10 39//39 42//42
f 29//29 33//33 10//10
f 10//10 33//33 35//35
f 35//35 39//39 10//10
f 42//42 39//39 38//38
f 39//39 44//44 38//38
f 42//42 11//11 23//23
f 5//5 28//28 23//23
f 23//23 28//28 42//42
f 19//19 21//21 12//12
f 3//3 21//21 19//19
f 19//19 12//12 40//40
f 40//40 70//70 19//19
f 8//8 50//50 27//27
f 27//27 50//50 49//49
f 85//85 56//56 81//81
f 81//81 56//56 37//37
f 100//100 56//56 84//84
f 87//87 86//86 84//84
f 85//85 87//87 84//84
f 84//84 56//56 85//85
f 101//101 36//36 37//37
f 37//37 56//56 101//101
f 35//35 36//36 101//101
f 101//101 56//56 35//35
f 61//61 74//74 40//40
f 40//40 63//63 61//61
f 63//63 67//67 61//61
f 66//66 64//64 40//40
f 53//53 78//78 54//54
f 51//51 53//53 54//54
f 54//54 37//37 52//52
f 54//54 49//49 51//51
f 52//52 49//49 54//54
f 79//79 78//78 77//77
f 79//79 80//80 85//85
f 77//77 80//80 79//79
f 91//91 67//67 63//63
f 96//96 80//80 93//93
f 55//55 96//96 93//93
f 34//34 36//36 35//35
f 49//49 36//36 34//34
f 35//35 33//33 34//34
f 33//33 30//30 34//34
f 29//29 28//28 32//32
f 32//32 33//33 29//29
f 32//32 30//30 33//33
f 26//26 25//25 8//8
f 28//28 25//25 26//26
f 8//8 27//27 26//26
f 26//26 27//27 30//30
f 26//26 32//32 28//28
f 30//30 32//32 26//26
f 43//43 38//38 44//44
f 43//43 44//44 6//6
f 43//43 45//45 42//42
f 42//42 38//38 43//43
f 6//6 2//2 43//43
f 2//2 45//45 43//43
f 11//11 18//18 22//22
f 22//22 23//23 11//11
f 22//22 18//18 20//20
f 20//20 3//3 22//22
f 76//76 54//54 78//78
f 78//78 79//79 76//76
f 76//76 81//81 37//37
f 37//37 54//54 76//76
f 85//85 81//81 76//76
f 76//76 79//79 85//85
f 96//96 82//82 98//98
f 96//96 98//98 97//97
f 97//97 98//98 83//83
f 58//58 99//99 100//100
f 100//100 84//84 58//58
f 88//88 65//65 64//64
f 64//64 66//66 88//88
f 67//67 91//91 90//90
f 74//74 61//61 90//90
f 90//90 61//61 67//67
f 65//65 93//93 75//75
f 75//75 15//15 68//68
f 68//68 14//14 75//75
f 14//14 65//65 75//75
f 92//92 93//93 65//65
f 65//65 88//88 92//92
f 92//92 88//88 91//91
f 92//92 91//91 63//63
f 92//92 63//63 55//55
f 55//55 93//93 92//92
f 30//30 27//27 31//31
f 31//31 34//34 30//30
f 31//31 27//27 49//49
f 49//49 34//34 31//31
f 5//5 23//23 24//24
f 23//23 22//22 24//24
f 24//24 25//25 5//5
f 70//70 25//25 24//24
f 24//24 19//19 70//70
f 59//59 48//48 83//83
f 59//59 98//98 82//82
f 83//83 98//98 59//59
f 9//9 48//48 59//59
f 1//1 9//9 59//59
f 55//55 1//1 59//59
f 59//59 82//82 55//55
f 95//95 97//97 83//83
f 95//95 84//84 86//86
f 95//95 58//58 84//84
f 83//83 48//48 57//57
f 57//57 95//95 83//83
f 58//58 95//95 57//57
f 91//91 88//88 89//89
f 89//89 90//90 91//91
f 74//74 90//90 89//89
f 40//40 74//74 89//89
f 89//89 66//66 40//40
f 89//89 88//88 66//66
f 15//15 75//75 69//69
f 69//69 80//80 16//16
f 16//16 15//15 69//69
f 69//69 93//93 80//80
f 69//69 75//75 93//93
f 3//3 19//19 4//4
f 19//19 24//24 4//4
f 4//4 22//22 3//3
f 4//4 24//24 22//22
f 94//94 95//95 86//86
f 97//97 95//95 94//94
f 94//94 86//86 96//96
f 96//96 97//97 94//94
f 47//47 48//48 9//9
f 47//47 57//57 48//48
f 58//58 57//57 47//47
f 9//9 46//46 7//7
f 7//7 47//47 9//9
f 46//46 99//99 7//7
f 99//99 58//58 7//7
f 58//58 47//47 7//7
