# Blender 5.0.1
# www.blender.org
mtllib seaform_e.mtl
o seaform_e_rock
usemtl seaform_e_rock
v 0.388967 0.850000 -1.061094
v 1.997627 0.260490 -0.967767
v -1.297930 0.850000 -0.225694
v -0.055585 1.758714 -0.489772
v 2.086297 1.480334 -1.018551
v -0.993133 0.198587 0.608955
v -0.929434 1.474829 0.575218
v 1.229329 1.787459 0.061273
v 2.481957 0.850000 -0.213745
v 0.751048 0.850000 0.558092
v -0.069042 0.011873 -0.736997
v 0.090248 0.314747 -0.897923
v 0.248130 0.604712 -1.006787
v 0.781100 0.701607 -1.100326
v 1.283667 0.506786 -1.189794
v 1.790254 0.320398 -1.166699
v 1.643971 0.041478 -0.969760
v 2.195630 1.189435 -1.079365
v 2.153559 0.850000 -1.054150
v 2.189408 0.510615 -1.078570
v 0.762109 0.989938 -1.053933
v 1.235233 1.170290 -1.125089
v 1.732837 1.353064 -1.119307
v -1.140898 0.850000 -0.489934
v -0.628726 0.850000 -0.732104
v -0.040160 0.850000 -0.882452
v -1.142146 0.215845 -0.412149
v -1.277963 0.575911 -0.302889
v -0.018685 1.621818 -0.695364
v 0.103314 1.364591 -0.863407
v 0.251293 1.092816 -0.998107
v -1.319578 1.125613 -0.292768
v -1.177848 1.490721 -0.407535
v -0.653732 1.751479 -0.490975
v 0.425593 1.739470 -0.628026
v 1.018070 1.770245 -0.834153
v 1.625443 1.648028 -0.959756
v 2.370877 0.703407 -0.404212
v 2.362425 0.535804 -0.617970
v 2.223157 0.380077 -0.816468
v 2.372310 1.365604 -0.872723
v 2.392098 1.166819 -0.624606
v 2.417625 0.999471 -0.410999
v 2.000017 0.054243 -0.790343
v -1.075739 0.375221 0.383406
v -1.193511 0.540462 0.177206
v -1.164207 0.708493 -0.037011
v -0.875634 0.037695 0.364761
v -0.848637 1.637834 0.349813
v -0.618775 1.733585 0.048684
v -0.310164 1.746727 -0.244876
v -1.253646 0.997783 -0.025622
v -1.210888 1.163232 0.181092
v -1.141552 1.343490 0.407252
v 1.481679 1.770276 -0.189869
v 1.769470 1.732780 -0.485374
v 2.070688 1.695164 -0.823059
v 0.229549 1.850542 -0.368329
v 0.577323 1.894832 -0.218787
v 0.912699 1.810546 -0.076039
v 2.263523 0.606009 -0.155642
v 2.204145 0.255278 -0.042724
v -0.538664 0.006966 0.564452
v -1.032753 0.512031 0.637938
v -0.987322 0.850000 0.595957
v -1.108528 1.204663 0.679835
v -0.540535 1.713855 0.582385
v 0.160298 1.719869 0.362845
v 0.737696 1.793354 0.220568
v 1.757758 1.711657 0.039783
v 2.187133 1.433212 -0.051480
v 2.422803 1.120081 -0.141775
v 0.904499 0.607004 0.556788
v 1.086606 0.295004 0.479263
v 2.283167 0.850000 0.024441
v 1.841405 0.850000 0.330405
v 1.276378 0.850000 0.547226
v 0.393151 0.711448 0.607461
v -0.108538 0.508724 0.748714
v -0.772149 0.250859 0.852865
v 0.386976 0.994104 0.641196
v -0.141748 1.205830 0.789498
v -0.746205 1.436248 0.829903
v 0.905329 1.094220 0.564600
v 1.106405 1.432745 0.522359
v 1.204682 1.668587 0.290541
v 1.467773 1.129087 0.398666
v 2.040410 1.148326 0.168639
v 1.701532 1.462210 0.254887
v 0.475827 1.330535 0.677351
v 0.616891 1.626433 0.476289
v -0.043638 1.517515 0.624986
v -0.118214 0.850000 0.741052
v -0.722189 1.039732 0.799864
v -0.734570 0.654874 0.828037
v 0.480117 0.395704 0.627502
v -0.066062 0.140867 0.679546
v 0.615934 0.080089 0.469560
v 1.472805 0.568563 0.405669
v 1.743809 0.213391 0.275141
v 2.017521 0.564435 0.134460
v 2.256935 1.281778 -0.352878
v 2.230866 1.502866 -0.588551
v 2.101069 1.657981 -0.280111
v 0.377846 1.788981 0.062213
v -0.015747 1.844703 -0.086165
v -0.240465 1.757643 0.219728
v -1.191950 1.019903 0.426789
v -1.141651 0.850000 0.165610
v -1.027723 0.698326 0.361882
v 2.292138 0.166457 -0.602255
v 2.352972 0.391390 -0.358847
v 1.134381 1.779534 -0.343356
v 1.421642 1.760912 -0.661519
v 0.790544 1.849730 -0.517866
v -1.021040 1.474517 0.138638
v -0.978285 1.679167 -0.158290
v -1.280326 1.330523 -0.072841
v -1.139667 0.165550 0.165166
v -1.298947 0.366296 -0.070081
v -0.979220 0.022989 -0.156947
v 2.380873 0.850000 -0.622095
v 2.254365 0.689921 -0.828749
v 2.402967 1.024742 -0.883768
v 1.216061 1.562640 -1.122499
v 0.671624 1.304144 -1.066887
v 0.537803 1.627229 -0.914445
v -0.517100 1.446053 -0.680027
v -0.293574 1.125779 -0.835503
v -0.976905 1.162358 -0.614540
v -0.996063 0.531349 -0.627899
v -0.304776 0.570204 -0.845561
v -0.606540 0.206210 -0.715989
v 1.741591 1.022170 -1.142670
v 1.769608 0.674850 -1.158909
v 1.253582 0.849999 -1.149933
v 0.539685 0.095986 -0.892672
v 0.678004 0.384499 -1.085161
v 1.200937 0.154960 -1.100103
v -1.302846 1.368923 -0.687333
v -1.491295 1.580547 1.810824
v -1.317569 2.486475 -0.777470
v -1.435246 2.633427 1.719718
v 2.564685 1.396983 -0.269259
v 2.304788 1.561551 2.209919
v 2.599024 2.499453 -0.372183
v 2.306039 2.643181 2.125506
v -1.337042 2.308666 -0.783846
v -1.341206 2.118013 -0.771549
v -1.332956 1.928816 -0.752467
v -1.330040 1.741096 -0.734014
v -1.322037 1.549142 -0.717703
v -1.363978 1.402708 -0.270807
v -1.453622 1.416274 0.141264
v -1.428282 1.469291 0.583805
v -1.511348 1.479042 1.013169
v -1.508787 1.533417 1.424568
v -1.565395 1.741236 1.841825
v -1.667589 1.915453 1.891386
v -1.693442 2.115427 1.886247
v -1.583288 2.295773 1.813257
v -1.491488 2.464856 1.757035
v -1.552727 2.649533 1.366048
v -1.531572 2.628216 0.935937
v -1.437904 2.578974 0.504644
v -1.371198 2.538701 0.087680
v -1.353136 2.510771 -0.344471
v 1.952416 2.474201 -0.423660
v 1.319670 2.498281 -0.519816
v 0.661170 2.504196 -0.592792
v -0.002232 2.495613 -0.657385
v -0.681608 2.499917 -0.742437
v -0.892827 2.665886 1.837431
v -0.257817 2.676369 1.922583
v 0.396975 2.713923 2.040350
v 1.063827 2.671955 2.056126
v 1.695148 2.663455 2.090956
v 2.430023 2.650797 1.761867
v 2.478225 2.611548 1.331782
v 2.475943 2.572671 0.897782
v 2.568811 2.576005 0.465560
v 2.644516 2.526228 0.030540
v 2.657750 1.548714 -0.331875
v 2.673320 1.736241 -0.352879
v 2.734262 1.925077 -0.397985
v 2.647373 2.119775 -0.367775
v 2.618615 2.305255 -0.364024
v 2.276240 2.464669 2.120484
v 2.317938 2.289045 2.163644
v 2.462165 2.115043 2.297698
v 2.456308 1.914710 2.310393
v 2.410144 1.731572 2.278592
v 2.361089 1.524519 1.807052
v 2.367683 1.500662 1.378702
v 2.419327 1.478412 0.969211
v 2.526445 1.416784 0.551002
v 2.654420 1.368849 0.100459
v -0.671520 1.369780 -0.639856
v 0.010547 1.398417 -0.522299
v 0.652671 1.369003 -0.508082
v 1.279031 1.395756 -0.388380
v 1.944192 1.369000 -0.354962
v 1.713620 1.548575 2.197397
v 1.080215 1.506055 2.213442
v 0.391383 1.531801 2.096081
v -0.235022 1.570252 1.949283
v -0.857525 1.569380 1.878154
v 1.682730 2.477813 2.093346
v 1.716035 2.294885 2.138662
v 1.818814 2.118433 2.281739
v 1.831811 1.907662 2.321787
v 1.772586 1.721992 2.254488
v 1.071752 2.515166 2.108578
v 1.092996 2.313184 2.160352
v 1.121687 2.122061 2.263790
v 1.102019 1.909831 2.232437
v 1.067873 1.735741 2.144090
v 0.396253 2.510404 2.047541
v 0.387894 2.321671 2.130853
v 0.382883 2.121443 2.180801
v 0.383758 1.911540 2.172079
v 0.395020 1.734754 2.059834
v -0.271556 2.498995 1.956691
v -0.368899 2.344743 2.122978
v -0.354432 2.121524 2.107985
v -0.317430 1.911371 2.065933
v -0.258273 1.736097 1.978462
v -0.922340 2.488379 1.871766
v -0.972732 2.304298 1.917941
v -0.989515 2.115096 1.952135
v -0.983356 1.923520 1.948921
v -0.944757 1.722300 1.944407
v -0.687102 2.305974 -0.730286
v -0.782725 2.128814 -0.838585
v -0.764953 1.921393 -0.801878
v -0.726540 1.724938 -0.739799
v -0.685274 1.551779 -0.669494
v -0.048568 2.340884 -0.771670
v -0.038913 2.123727 -0.718069
v -0.050835 1.921301 -0.731541
v -0.039603 1.729276 -0.676479
v -0.012758 1.549354 -0.600000
v 0.669192 2.331234 -0.672745
v 0.665988 2.123388 -0.640815
v 0.670656 1.919335 -0.687340
v 0.662829 1.722146 -0.609324
v 0.653836 1.554366 -0.519696
v 1.340996 2.322078 -0.546110
v 1.406044 2.129770 -0.632052
v 1.426397 1.916844 -0.647219
v 1.359451 1.723690 -0.535939
v 1.329903 1.537986 -0.480335
v 1.970547 2.301107 -0.429957
v 2.068907 2.126665 -0.504167
v 2.089832 1.922523 -0.499250
v 1.986713 1.743281 -0.403765
v 1.950356 1.565912 -0.365225
v 1.934017 1.397010 0.054052
v 1.291978 1.378724 -0.033126
v 0.613284 1.377364 -0.115531
v -0.056970 1.377465 -0.156081
v -0.732844 1.385948 -0.226082
v 1.920210 1.420180 0.478664
v 1.260579 1.403975 0.402844
v 0.569256 1.378742 0.323280
v -0.134887 1.382522 0.254919
v -0.815601 1.399495 0.194329
v 1.858649 1.453622 0.914702
v 1.243679 1.409555 0.856104
v 0.523297 1.444806 0.781341
v -0.181944 1.423096 0.712111
v -0.915124 1.392912 0.640675
v 1.760382 1.498172 1.324075
v 1.178867 1.458623 1.307631
v 0.473673 1.403389 1.275928
v -0.218939 1.457638 1.165197
v -0.887010 1.470688 1.087830
v 1.773191 1.498416 1.788739
v 1.131311 1.508146 1.751847
v 0.429665 1.474929 1.714538
v -0.220232 1.522507 1.567541
v -0.912098 1.502280 1.523008
v 2.742214 2.359511 0.006776
v 2.623395 2.143982 0.065723
v 2.658706 1.957668 0.061599
v 2.699275 1.757705 0.061130
v 2.698553 1.547143 0.070175
v 2.654358 2.381073 0.472687
v 2.710900 2.187775 0.480244
v 2.622862 1.988695 0.502739
v 2.672064 1.785620 0.509871
v 2.623810 1.611428 0.531845
v 2.497630 2.395036 0.912476
v 2.651196 2.222490 0.940042
v 2.619315 2.020000 0.951112
v 2.646487 1.817038 0.968141
v 2.554586 1.627355 0.972286
v 2.564403 2.461033 1.375132
v 2.591987 2.255676 1.396909
v 2.732342 2.054290 1.453961
v 2.564513 1.854939 1.414761
v 2.430222 1.680641 1.383981
v 2.417496 2.449357 1.765343
v 2.464232 2.272638 1.806108
v 2.527538 2.083689 1.854823
v 2.506491 1.884098 1.862326
v 2.401899 1.711789 1.811303
v -0.742634 2.538503 -0.320922
v -0.080366 2.550635 -0.282718
v 0.621993 2.561970 -0.202327
v 1.314905 2.545277 -0.129780
v 1.966399 2.540571 -0.041542
v -0.756715 2.541994 0.139450
v -0.119646 2.586913 0.176409
v 0.579489 2.624511 0.221295
v 1.323478 2.631698 0.286247
v 1.960921 2.576349 0.389977
v -0.834573 2.607892 0.563141
v -0.148256 2.612697 0.631664
v 0.531503 2.617116 0.699556
v 1.285329 2.674168 0.771170
v 1.949356 2.630329 0.840885
v -0.916800 2.657468 1.014814
v -0.214839 2.647287 1.084022
v 0.485434 2.668956 1.158704
v 1.228662 2.695739 1.256300
v 1.908574 2.678277 1.305594
v -0.912368 2.642734 1.440951
v -0.262098 2.697059 1.544045
v 0.440177 2.693843 1.609765
v 1.157521 2.704111 1.706525
v 1.813898 2.660233 1.726906
v -1.431425 1.575220 -0.320007
v -1.406775 1.767975 -0.321918
v -1.399534 1.958443 -0.334470
v -1.394105 2.144361 -0.338331
v -1.404592 2.334917 -0.359971
v -1.509384 1.587739 0.108926
v -1.572358 1.782353 0.075232
v -1.488999 1.988669 0.089811
v -1.534843 2.183173 0.061717
v -1.452606 2.377784 0.070895
v -1.429911 1.652896 0.570704
v -1.568778 1.820192 0.544982
v -1.663314 2.020000 0.521417
v -1.517653 2.221708 0.521818
v -1.564171 2.424956 0.502828
v -1.562963 1.659595 1.006856
v -1.526807 1.859009 0.988513
v -1.521411 2.050504 0.972902
v -1.571881 2.251735 0.968574
v -1.563972 2.431478 0.950724
v -1.616853 1.693612 1.450923
v -1.677171 1.882497 1.459367
v -1.626646 2.082575 1.422048
v -1.597397 2.275369 1.405501
v -1.556917 2.466203 1.382343
v -1.517960 0.700000 0.776493
v -1.542006 0.199462 0.196744
v -0.949687 0.700000 1.114409
v -1.162786 1.464757 0.768512
v -1.536639 1.200582 0.200028
v -0.389443 0.148589 0.730369
v -0.462555 1.186222 0.696270
v -0.811631 1.509332 0.112780
v -1.033061 0.700000 -0.180112
v -0.441530 0.700000 0.109918
v -1.445919 0.243321 0.857637
v -1.650231 0.417824 0.528744
v -1.538013 0.700000 0.199113
v -1.676417 0.992136 0.531498
v -1.314010 0.700000 1.049973
v -1.071434 0.229675 1.051669
v -1.444682 1.149433 0.857123
v -1.065616 1.135522 1.009644
v -1.416791 1.469990 0.501158
v -1.320889 0.424677 -0.078805
v -1.288617 0.952872 -0.026691
v -0.681944 0.435539 0.953005
v -0.816025 0.062716 0.736482
v -0.802157 1.391870 0.758878
v -0.678707 0.964971 0.958233
v -1.165562 1.328731 0.172027
v -0.992677 1.482188 0.451213
v -0.908636 0.198039 -0.186243
v -0.333310 0.700000 0.756165
v -0.601689 1.404701 0.405487
v -0.914487 1.166821 -0.149419
v -0.529675 0.237268 0.035662
v -0.675345 0.700000 -0.140782
v -0.400843 0.445784 0.381369
v -0.304733 0.994761 0.370219
v -0.546079 1.147583 0.050508
v -0.069338 0.000000 -0.705284
v 1.398257 0.000000 -0.914372
v -0.812835 0.000000 -0.475172
v 1.933565 0.000000 -0.677966
v -0.741356 0.000000 0.202461
v 1.898692 0.000000 0.036454
v -0.456255 0.000000 0.542653
v 1.237812 0.000000 0.335106
v 1.101403 0.000000 0.357492
v 0.089224 0.000000 0.462039
v 0.328038 0.000000 0.416940
v 0.672817 0.000000 0.351818
v 1.301379 0.000000 0.318140
v 1.806496 0.000000 0.104975
v -0.686060 0.000000 0.322873
v -0.518092 0.000000 0.538179
v 2.230658 0.000000 -0.248971
v 1.986536 0.000000 -0.533915
v 2.245612 0.000000 -0.341579
v 2.245428 0.000000 -0.287591
v -0.707159 0.000000 0.068448
v -0.890778 0.000000 -0.170614
v -0.836554 0.000000 -0.077321
v -0.914399 0.000000 -0.234228
v 1.740555 0.000000 -0.733595
v 1.558559 0.000000 -0.852527
v -0.669219 0.000000 -0.558166
v -0.151031 0.000000 -0.705608
v 0.009830 0.000000 -0.721693
v 0.828459 0.000000 -0.854535
v 0.468258 0.000000 -0.740249
v 1.073025 0.000000 -0.908192
v -0.842677 0.000000 0.065705
v -0.527497 0.000000 0.492089
v -0.768185 0.000000 0.117354
v -1.255623 0.000000 0.809903
v -1.451653 0.000000 0.419638
v -1.141305 0.000000 0.871714
v -1.321877 0.000000 0.127382
v -0.949444 0.000000 0.756189
v -0.559615 0.000000 0.399866
v -0.570043 0.000000 0.332144
v -0.691176 0.000000 0.559968
v -0.934465 0.000000 0.545217
v -1.113366 0.000000 0.001149
v -1.234142 0.000000 0.061279
v -1.424856 0.000000 0.583697
v -1.453040 0.000000 0.505440
vn -0.1927 0.0484 -0.9801
vn 0.5095 -0.6071 -0.6098
vn -0.9906 -0.1368 -0.0051
vn -0.1124 0.9215 -0.3717
vn 0.3256 0.4922 -0.8073
vn -0.7474 -0.5400 0.3871
vn -0.5931 0.6928 0.4101
vn 0.1157 0.9643 0.2382
vn 0.9632 -0.2145 0.1619
vn 0.1071 -0.0375 0.9935
vn -0.1213 -0.7130 -0.6906
vn -0.2232 -0.3014 -0.9270
vn -0.2751 -0.0825 -0.9579
vn -0.1384 0.0635 -0.9883
vn -0.0617 -0.0482 -0.9969
vn 0.2268 -0.3626 -0.9039
vn 0.1756 -0.8128 -0.5554
vn 0.4381 0.0947 -0.8939
vn 0.5196 -0.0762 -0.8510
vn 0.6944 -0.2046 -0.6898
vn -0.1108 0.0559 -0.9923
vn -0.0697 0.0302 -0.9971
vn 0.0902 0.2578 -0.9620
vn -0.6833 -0.0002 -0.7302
vn -0.3203 0.0264 -0.9469
vn -0.2993 0.0202 -0.9540
vn -0.7279 -0.4905 -0.4792
vn -0.9654 -0.0237 -0.2597
vn -0.1760 0.6592 -0.7311
vn -0.2747 0.3517 -0.8949
vn -0.2649 0.1409 -0.9539
vn -0.9575 0.0400 -0.2857
vn -0.7110 0.5125 -0.4814
vn -0.2349 0.8544 -0.4635
vn -0.1496 0.8841 -0.4426
vn -0.0222 0.9079 -0.4187
vn 0.1068 0.7779 -0.6193
vn 0.9786 -0.2051 0.0142
vn 0.9585 -0.1110 -0.2627
vn 0.8059 -0.3461 -0.4803
vn 0.8597 0.4016 -0.3156
vn 0.9686 0.2188 0.1183
vn 0.9795 0.1570 -0.1266
vn 0.4286 -0.7737 -0.4666
vn -0.9301 -0.1525 0.3341
vn -0.9181 0.1106 0.3806
vn -0.9665 0.0241 0.2557
vn -0.4586 -0.8693 0.1845
vn -0.5043 0.8565 0.1099
vn -0.2283 0.9702 0.0812
vn -0.1366 0.9879 -0.0740
vn -0.9426 -0.1515 0.2975
vn -0.9716 0.1254 0.2009
vn -0.8578 0.4897 0.1561
vn 0.1122 0.9937 0.0028
vn 0.1960 0.9806 0.0055
vn 0.4196 0.8740 -0.2450
vn -0.1225 0.9585 -0.2575
vn 0.0407 0.9940 0.1019
vn 0.0914 0.9923 0.0833
vn 0.8389 -0.2512 0.4829
vn 0.7560 -0.2042 0.6219
vn -0.1016 -0.8981 0.4279
vn -0.8654 0.0572 0.4978
vn -0.7584 -0.1607 0.6316
vn -0.7441 0.0964 0.6611
vn -0.1122 0.8861 0.4496
vn 0.0299 0.9043 0.4259
vn 0.0415 0.9429 0.3306
vn 0.3350 0.8305 0.4451
vn 0.7329 0.4937 0.4682
vn 0.8879 0.3513 0.2970
vn 0.1525 -0.0576 0.9866
vn 0.2152 -0.2379 0.9471
vn 0.6843 -0.1615 0.7111
vn 0.4427 -0.0349 0.8960
vn 0.2386 0.0033 0.9711
vn 0.1902 0.0093 0.9817
vn 0.1911 -0.0395 0.9808
vn -0.2734 -0.3796 0.8838
vn 0.1976 -0.1319 0.9714
vn 0.1447 0.1071 0.9837
vn -0.2446 0.4090 0.8792
vn 0.1809 -0.0234 0.9832
vn 0.2708 0.3245 0.9063
vn 0.2127 0.7460 0.6311
vn 0.3465 0.1741 0.9218
vn 0.5228 0.2051 0.8274
vn 0.3978 0.3826 0.8339
vn 0.1604 0.2041 0.9657
vn 0.0943 0.6930 0.7147
vn 0.1426 0.5794 0.8024
vn 0.1714 -0.0422 0.9843
vn -0.2014 -0.0718 0.9769
vn -0.2474 0.0905 0.9647
vn 0.1951 -0.1336 0.9716
vn 0.1525 -0.5294 0.8345
vn 0.1370 -0.6116 0.7792
vn 0.3273 -0.1767 0.9282
vn 0.4235 -0.2723 0.8640
vn 0.5918 -0.1654 0.7889
vn 0.8818 0.4676 0.0614
vn 0.7747 0.6135 0.1531
vn 0.6048 0.7912 0.0904
vn -0.0161 0.9674 0.2529
vn -0.1106 0.9919 0.0626
vn -0.0615 0.9843 0.1654
vn -0.9422 -0.2109 0.2605
vn -0.9552 -0.1753 0.2385
vn -0.9369 -0.0519 0.3458
vn 0.7932 -0.5045 -0.3412
vn 0.9752 -0.1234 0.1838
vn 0.1213 0.9926 0.0052
vn 0.0983 0.9870 -0.1270
vn 0.0179 0.9823 -0.1863
vn -0.6830 0.7041 0.1943
vn -0.4741 0.8721 0.1211
vn -0.9018 0.3700 0.2231
vn -0.7421 -0.6031 0.2926
vn -0.9759 -0.2008 0.0857
vn -0.4949 -0.8687 0.0207
vn 0.9782 -0.1496 -0.1443
vn 0.8997 -0.1592 -0.4065
vn 0.9069 -0.1324 -0.4001
vn -0.0207 0.4636 -0.8858
vn -0.1989 0.1308 -0.9712
vn -0.2460 0.6427 -0.7255
vn -0.2595 0.3604 -0.8960
vn -0.2665 0.1154 -0.9569
vn -0.4686 0.1064 -0.8770
vn -0.5305 -0.0711 -0.8447
vn -0.2622 -0.0265 -0.9647
vn -0.3141 -0.3393 -0.8867
vn 0.0799 0.0463 -0.9957
vn 0.1243 0.0568 -0.9906
vn -0.0759 0.0914 -0.9929
vn -0.1770 -0.6386 -0.7489
vn -0.2039 -0.2328 -0.9509
vn -0.0741 -0.5245 -0.8482
vn -0.4467 -0.6820 -0.5790
vn -0.4516 -0.7076 0.5435
vn -0.4835 0.5890 -0.6475
vn -0.4757 0.7188 0.5069
vn 0.3714 -0.7870 -0.4927
vn 0.3898 -0.7610 0.5186
vn 0.4810 0.5924 -0.6463
vn 0.4880 0.5391 0.6864
vn -0.6473 0.0691 -0.7591
vn -0.6991 -0.0665 -0.7119
vn -0.6829 -0.0982 -0.7239
vn -0.6524 -0.0812 -0.7536
vn -0.5882 -0.1590 -0.7929
vn -0.5584 -0.8281 -0.0501
vn -0.6363 -0.7703 0.0432
vn -0.7255 -0.6877 -0.0256
vn -0.6482 -0.7614 -0.0103
vn -0.5157 -0.8531 0.0787
vn -0.6085 -0.4415 0.6595
vn -0.6890 -0.2810 0.6681
vn -0.7582 0.2714 0.5929
vn -0.6551 0.5251 0.5433
vn -0.6537 0.4309 0.6221
vn -0.7114 0.6939 0.1110
vn -0.6464 0.7575 -0.0918
vn -0.4283 0.8868 -0.1735
vn -0.4958 0.8570 -0.1408
vn -0.6046 0.7898 -0.1036
vn 0.0906 0.6686 -0.7380
vn 0.1281 0.7270 -0.6746
vn 0.0603 0.8017 -0.5947
vn 0.0670 0.8467 -0.5279
vn 0.0020 0.6649 -0.7469
vn -0.1461 0.7811 0.6071
vn -0.1015 0.7576 0.6447
vn -0.0664 0.7308 0.6794
vn -0.0350 0.7821 0.6221
vn 0.0167 0.7136 0.7003
vn 0.6956 0.6874 0.2089
vn 0.5880 0.8047 -0.0817
vn 0.6758 0.7368 0.0188
vn 0.5486 0.8315 0.0876
vn 0.5496 0.8347 -0.0341
vn 0.6701 -0.3404 -0.6596
vn 0.7319 -0.2379 -0.6385
vn 0.8215 0.0124 -0.5700
vn 0.7569 0.2533 -0.6025
vn 0.7008 0.0358 -0.7124
vn 0.5059 0.1186 0.8544
vn 0.4746 0.5621 0.6773
vn 0.6279 0.3821 0.6781
vn 0.6575 -0.1250 0.7430
vn 0.6051 -0.4431 0.6614
vn 0.6415 -0.7583 0.1163
vn 0.5720 -0.8158 0.0855
vn 0.4124 -0.8899 0.1951
vn 0.4816 -0.8529 0.2013
vn 0.6308 -0.7758 0.0132
vn 0.0639 -0.7681 -0.6372
vn 0.0850 -0.8337 -0.5457
vn 0.0709 -0.7272 -0.6827
vn 0.0197 -0.8669 -0.4981
vn 0.1155 -0.7554 -0.6450
vn -0.0423 -0.7517 0.6582
vn -0.0475 -0.5932 0.8036
vn -0.1526 -0.5868 0.7952
vn -0.1153 -0.7196 0.6847
vn -0.0440 -0.7889 0.6129
vn -0.0015 0.1297 0.9916
vn -0.0089 0.4316 0.9020
vn -0.0235 0.4140 0.9100
vn -0.0457 -0.0835 0.9955
vn -0.0780 -0.3116 0.9470
vn -0.0339 0.2754 0.9607
vn -0.0126 0.3531 0.9355
vn -0.0708 0.2014 0.9770
vn -0.1151 -0.2772 0.9539
vn -0.1060 -0.1151 0.9877
vn -0.1067 0.2419 0.9644
vn -0.0746 0.3236 0.9432
vn -0.0947 0.1005 0.9904
vn -0.1144 -0.2905 0.9500
vn -0.1425 -0.2083 0.9676
vn -0.0928 0.4785 0.8732
vn -0.1362 0.3480 0.9275
vn -0.1536 -0.1119 0.9818
vn -0.1138 -0.3186 0.9410
vn -0.1002 -0.3449 0.9333
vn -0.2146 0.2932 0.9317
vn -0.2324 0.2371 0.9433
vn -0.1783 0.0990 0.9790
vn -0.1586 -0.0608 0.9855
vn -0.1228 -0.2607 0.9576
vn 0.0544 0.1835 -0.9815
vn 0.0547 0.1375 -0.9890
vn 0.0308 -0.2134 -0.9765
vn 0.0580 -0.3122 -0.9482
vn 0.0849 -0.2591 -0.9621
vn 0.0739 0.1568 -0.9849
vn 0.0749 -0.0554 -0.9957
vn 0.0789 -0.1069 -0.9911
vn 0.0825 -0.3284 -0.9409
vn 0.1149 -0.4000 -0.9093
vn 0.1305 0.1324 -0.9826
vn 0.0954 0.0625 -0.9935
vn 0.0739 -0.0937 -0.9928
vn 0.0847 -0.4102 -0.9080
vn 0.0890 -0.3103 -0.9465
vn 0.1347 0.2697 -0.9535
vn 0.1116 0.2682 -0.9569
vn 0.1343 -0.2364 -0.9623
vn 0.1313 -0.4087 -0.9032
vn 0.0895 -0.4171 -0.9045
vn 0.1383 0.2539 -0.9573
vn 0.1812 0.2137 -0.9600
vn 0.1730 -0.2458 -0.9538
vn 0.1309 -0.3801 -0.9156
vn 0.1428 -0.1659 -0.9757
vn 0.0063 -0.9985 0.0543
vn 0.0066 -0.9999 0.0116
vn -0.0002 -1.0000 -0.0000
vn 0.0036 -0.9999 -0.0135
vn -0.0198 -0.9992 0.0344
vn 0.0157 -0.9976 0.0680
vn 0.0111 -0.9988 0.0480
vn 0.0024 -0.9969 0.0786
vn -0.0128 -0.9984 0.0553
vn -0.0314 -0.9991 0.0273
vn 0.0416 -0.9947 0.0938
vn -0.0005 -0.9977 0.0678
vn -0.0030 -0.9990 0.0448
vn 0.0078 -0.9966 0.0825
vn -0.0447 -0.9976 0.0538
vn 0.0210 -0.9973 0.0702
vn 0.0476 -0.9943 0.0954
vn -0.0099 -0.9992 0.0383
vn -0.0323 -0.9953 0.0918
vn -0.0256 -0.9927 0.1175
vn 0.0036 -0.9979 0.0646
vn 0.0289 -0.9969 0.0735
vn -0.0309 -0.9883 0.1492
vn -0.0478 -0.9882 0.1454
vn -0.0288 -0.9909 0.1317
vn 0.9992 -0.0075 -0.0391
vn 0.9947 -0.1027 0.0054
vn 0.9827 0.1794 0.0467
vn 0.9970 0.0772 0.0064
vn 0.9884 -0.1520 0.0011
vn 0.9387 0.3249 0.1153
vn 0.9974 -0.0622 -0.0358
vn 0.9988 -0.0391 0.0304
vn 0.9979 -0.0140 0.0626
vn 0.9346 -0.3205 0.1543
vn 0.8945 0.4435 0.0563
vn 0.9763 0.2027 0.0761
vn 0.9993 -0.0171 0.0324
vn 0.9770 -0.1464 0.1549
vn 0.8135 -0.5227 0.2549
vn 0.9409 0.3269 0.0889
vn 0.9304 0.3429 0.1298
vn 0.9974 -0.0194 0.0688
vn 0.8040 -0.5879 0.0897
vn 0.8661 -0.4797 0.1407
vn 0.9353 0.1153 0.3346
vn 0.8727 0.3636 0.3257
vn 0.9279 0.1920 0.3196
vn 0.9203 -0.3533 0.1679
vn 0.9076 -0.4100 0.0903
vn -0.0193 0.9984 -0.0532
vn -0.0100 0.9948 -0.1009
vn 0.0096 0.9905 -0.1369
vn 0.0341 0.9864 -0.1605
vn 0.0325 0.9911 -0.1287
vn -0.0138 0.9968 -0.0792
vn -0.0505 0.9957 -0.0771
vn -0.0127 0.9968 -0.0788
vn 0.0300 0.9918 -0.1245
vn 0.0681 0.9940 -0.0851
vn -0.0050 0.9923 -0.1234
vn -0.0210 0.9971 -0.0734
vn -0.0246 0.9979 -0.0602
vn 0.0081 0.9967 -0.0803
vn 0.0984 0.9896 -0.1047
vn -0.0035 0.9989 -0.0464
vn -0.0122 0.9968 -0.0788
vn -0.0277 0.9966 -0.0771
vn 0.0086 0.9996 -0.0269
vn 0.0634 0.9975 -0.0303
vn -0.0273 0.9995 -0.0152
vn -0.0236 0.9991 -0.0363
vn -0.0077 0.9994 -0.0347
vn 0.0144 0.9994 0.0318
vn 0.0350 0.9991 0.0234
vn -0.9626 -0.1654 -0.2145
vn -0.9617 0.0980 -0.2560
vn -0.9835 0.0155 -0.1803
vn -0.9784 -0.0463 -0.2016
vn -0.9773 0.1334 -0.1644
vn -0.9397 -0.3416 -0.0170
vn -0.9855 0.0548 -0.1607
vn -0.9773 0.0696 -0.2002
vn -0.9920 0.0445 -0.1182
vn -0.9166 0.3761 -0.1355
vn -0.9487 -0.3150 0.0277
vn -0.8994 -0.4294 0.0819
vn -0.9953 0.0820 -0.0508
vn -0.9869 0.1400 -0.0801
vn -0.9701 0.1787 -0.1641
vn -0.9815 -0.0861 -0.1711
vn -0.9910 0.0162 -0.1327
vn -0.9946 -0.0773 -0.0694
vn -0.9925 -0.0672 -0.1020
vn -0.9970 0.0715 -0.0305
vn -0.9175 -0.3976 -0.0101
vn -0.9868 -0.0940 -0.1321
vn -0.9755 0.1614 -0.1493
vn -0.9794 0.2017 0.0053
vn -0.9851 0.1365 0.1049
vn -0.8303 -0.0119 0.5571
vn -0.8397 -0.3315 -0.4302
vn 0.1546 0.0326 0.9874
vn -0.1271 0.8470 0.5162
vn -0.7021 0.4330 -0.5653
vn 0.7394 -0.5275 0.4183
vn 0.7194 0.5203 0.4602
vn 0.1381 0.8923 -0.4298
vn -0.1728 0.0620 -0.9830
vn 0.8569 -0.0366 -0.5141
vn -0.7052 -0.3333 0.6258
vn -0.9801 -0.1653 0.1100
vn -0.8494 0.0183 -0.5274
vn -0.9806 0.1630 0.1088
vn -0.4965 0.0271 0.8676
vn 0.0171 -0.4296 0.9028
vn -0.6441 0.3635 0.6731
vn -0.0231 0.4178 0.9083
vn -0.5241 0.8515 -0.0183
vn -0.5560 -0.0974 -0.8255
vn -0.5226 0.2367 -0.8191
vn 0.4316 -0.2453 0.8681
vn 0.2808 -0.7988 0.5320
vn 0.3262 0.7806 0.5332
vn 0.4519 0.2592 0.8536
vn -0.3555 0.7319 -0.5813
vn 0.0007 0.9997 -0.0257
vn 0.0926 -0.3903 -0.9160
vn 0.8791 0.0091 0.4766
vn 0.5897 0.8074 0.0170
vn -0.0384 0.4077 -0.9123
vn 0.7466 -0.3717 -0.5518
vn 0.4626 0.0335 -0.8859
vn 0.9599 -0.1999 -0.1966
vn 0.9586 0.2360 -0.1594
vn 0.6903 0.3788 -0.6164
vn -0.0157 -0.9859 -0.1667
vn 0.0047 -0.9419 -0.3358
vn -0.3264 -0.8503 -0.4128
vn 0.1949 -0.9653 -0.1735
vn -0.1949 -0.9805 -0.0265
vn 0.3293 -0.8420 0.4273
vn 0.0424 -0.9505 0.3077
vn 0.1327 -0.8098 0.5716
vn 0.0855 -0.8279 0.5544
vn 0.0560 -0.9472 0.3158
vn 0.0593 -0.9475 0.3142
vn 0.0170 -0.9589 0.2831
vn 0.1623 -0.8122 0.5603
vn 0.2910 -0.8370 0.4633
vn -0.0919 -0.9940 0.0593
vn -0.0544 -0.9911 0.1218
vn 0.5658 -0.7604 0.3190
vn 0.1756 -0.9775 -0.1169
vn 0.5941 -0.7967 -0.1113
vn 0.6482 -0.7488 0.1385
vn -0.1201 -0.9923 0.0287
vn -0.1239 -0.9904 0.0610
vn -0.1532 -0.9796 0.1297
vn -0.3065 -0.9471 -0.0952
vn 0.0657 -0.9908 -0.1186
vn 0.0669 -0.9887 -0.1341
vn -0.2265 -0.8462 -0.4824
vn -0.1236 -0.8795 -0.4596
vn -0.0155 -0.9595 -0.2814
vn -0.0856 -0.9267 -0.3659
vn -0.0360 -0.9627 -0.2681
vn -0.0590 -0.9246 -0.3763
vn 0.2016 -0.9035 -0.3782
vn 0.5532 -0.8329 -0.0140
vn 0.2724 -0.9033 -0.3313
vn -0.3233 -0.8478 0.4205
vn -0.5392 -0.8396 -0.0654
vn -0.0406 -0.8372 0.5454
vn -0.4024 -0.8191 -0.4088
vn 0.2879 -0.9060 0.3103
vn 0.5373 -0.8329 -0.1324
vn 0.5567 -0.8131 -0.1700
vn 0.0726 -0.9685 0.2383
vn 0.0432 -0.9976 0.0539
vn -0.1697 -0.8217 -0.5441
vn -0.3085 -0.8099 -0.4989
vn -0.4967 -0.8382 0.2251
vn -0.5675 -0.8178 0.0958
vt 0.076865 0.472222
vt -0.140987 0.389782
vt 0.155107 0.335951
vt -0.816835 0.144716
vt -0.701628 0.177999
vt -0.923380 0.283675
vt 0.315268 0.472222
vt 0.153350 0.607120
vt -0.130437 0.549965
vt 0.816835 0.760545
vt 0.923380 0.822102
vt 0.942130 0.676489
vt -0.978592 0.188853
vt -0.911494 0.222258
vt -0.812105 -0.080002
vt -0.348282 0.472222
vt -0.391168 0.319951
vt -0.243458 0.393607
vt -0.323838 -0.494992
vt -0.656142 -0.495660
vt -0.465271 -0.358939
vt -0.866097 0.822408
vt -0.610066 0.915571
vt -0.857425 0.941758
vt 0.760545 0.144716
vt 0.676489 0.211154
vt 0.661976 0.030135
vt -0.603855 0.000748
vt -0.586011 -0.050486
vt -0.676944 -0.088197
vt -0.237131 0.554324
vt -0.165430 -0.427524
vt -1.024993 0.758669
vt -0.287496 0.623837
vt -0.032814 0.634146
vt -0.110714 -0.008737
vt -0.844698 -0.115412
vt -0.592215 -0.090688
vt -0.721929 -0.250917
vt -0.809309 0.096669
vt -0.908806 0.154790
vt -0.707516 0.238161
vt 0.390003 -0.188856
vt 0.116874 -0.100359
vt 0.376311 -0.061485
vt 0.341644 0.472222
vt 0.301660 0.622267
vt 0.209318 0.472222
vt 0.416142 0.472222
vt 0.210003 0.607900
vt 0.124292 0.472222
vt 0.730045 0.472222
vt 0.522472 0.627271
vt 0.975469 0.472222
vt 0.840604 0.637959
vt 0.321712 0.795970
vt 0.652338 0.812339
vt 0.376311 0.926993
vt 1.053044 0.622267
vt 0.922117 0.796229
vt 0.683575 0.950921
vt 0.683575 -0.200794
vt -0.077970 0.552280
vt -0.028609 0.739186
vt 0.049760 0.903574
vt -0.371706 0.669905
vt -0.317200 0.843064
vt -0.707516 0.797915
vt 0.049760 0.041709
vt -0.203903 -0.021316
vt -0.317200 0.124318
vt -0.203903 0.955483
vt -0.593255 0.952142
vt -0.593255 0.100651
vt -0.074540 0.395249
vt -0.358632 0.472222
vt -0.694174 0.577629
vt -0.353256 0.282624
vt -0.701052 0.363819
vt -0.721929 0.139366
vt -0.908806 0.669257
vt -0.841470 0.472222
vt -0.866709 0.284462
vt 0.131513 0.284462
vt 0.115412 0.110326
vt 0.250917 0.139366
vt 0.209542 0.337225
vt -0.026226 0.219835
vt -0.329658 0.078259
vt 0.310713 0.163891
vt 0.049228 0.044494
vt -0.331478 0.614721
vt -0.243389 -0.033792
vt -0.329658 -0.154629
vt 0.303168 0.727447
vt 0.483852 0.730881
vt 0.430031 0.046152
vt 0.080830 0.027442
vt 0.167298 0.697638
vt 0.318933 0.024290
vt 0.049228 -0.037971
vt 0.572909 0.696523
vt 0.674018 0.630449
vt 0.810674 0.519516
vt 0.954605 0.412662
vt 0.946297 0.361214
vt 0.525268 0.315868
vt 0.430031 0.000000
vt 0.394716 0.000000
vt 0.675825 0.118550
vt 0.827888 0.313575
vt 0.710652 0.000000
vt 0.761872 0.000000
vt 0.931568 0.141821
vt 0.246632 0.141821
vt 0.309364 0.336672
vt 0.148196 0.313575
vt 0.451229 0.555262
vt 0.569899 0.648233
vt 0.418940 0.712099
vt 0.707743 0.758669
vt 0.549869 0.834926
vt 0.251497 0.796229
vt 0.378514 0.921101
vt 0.874303 -0.378514
vt 0.922117 -0.251497
vt 0.680151 0.941758
vt 0.857425 -0.680151
vt 0.690081 -0.492548
vt 0.946413 -0.549869
vt 0.530198 -0.328379
vt 0.214097 -0.265140
vt 0.027778 -0.344444
vt -0.083043 -0.188334
vt -0.301705 -0.270766
vt -0.426549 -0.100825
vt -0.636721 -0.195850
vt -0.764422 -0.028556
vt 0.003355 0.746383
vt 0.154790 0.669257
vt 0.096669 0.819349
vt -0.122290 0.646240
vt 0.014209 0.566613
vt -0.130891 0.472222
vt 0.108191 0.472222
vt -0.021851 0.387959
vt -0.124448 0.300257
vt -0.009893 0.208456
vt -0.779421 0.020251
vt -0.704822 0.110418
vt -0.674102 0.043523
vt -0.685823 0.184869
vt -0.376863 0.614901
vt 0.954503 0.382669
vt -0.580786 -0.076092
vt -0.546432 -0.078578
vt 0.710652 0.164577
vt 0.761872 0.202644
vt -0.664746 0.532989
vt 0.394716 0.036726
vt -0.757710 0.265852
vt -0.744532 0.486881
vt -0.761111 0.186394
vt -0.787834 0.317682
vt 0.946297 0.000000
vt 0.980453 0.557482
vt 0.422256 0.217439
vt 0.361214 0.000000
vt 0.382669 0.000000
vt -0.818163 0.030135
vt -0.942130 0.211154
vt -0.980453 0.092476
vt 0.566213 0.297669
vt 0.557482 0.092476
vt 0.447459 0.390782
vt 0.337254 -0.413649
vt 0.496844 -0.590407
vt 0.146234 -0.510600
vt 0.610066 -0.756094
vt 0.272637 -0.686315
vt -0.056517 -0.571799
vt -0.927153 0.003355
vt -0.860202 -0.145875
vt -0.836449 -0.310835
vt -0.145875 0.819176
vt -0.310835 0.932870
vt -0.263364 0.739179
vt -0.947317 -0.449305
vt -0.449305 0.828178
vt -0.385545 0.625341
vt -0.020251 0.020942
vt -0.131138 0.091972
vt -0.261830 0.203498
vt -0.990526 -0.227050
vt -1.084544 -0.101380
vt -0.310089 0.012772
vt -0.609648 0.038372
vt -1.099431 -0.010236
vt -0.451868 0.119914
vt -1.027333 0.152129
vt -0.719727 0.157699
vt 0.070850 0.232124
vt 0.057904 0.000000
vt 0.101380 0.000000
vt -0.113594 0.110812
vt 0.010236 0.000000
vt 1.026784 0.235931
vt 0.797755 0.110022
vt 0.911494 0.000000
vt 0.011025 0.247658
vt 0.000748 0.000000
vt 0.038372 0.000000
vt -0.888198 0.127597
vt -0.927015 0.000000
vt -0.820426 0.000000
vt 0.629924 0.114561
vt 0.331314 0.006596
vt 0.376863 0.000000
vt 0.006868 0.718825
vt 0.818163 0.661976
vt 0.781246 0.599544
vt -0.990526 0.000000
vt 0.978592 0.000000
vt 1.027333 0.000000
vt -0.926106 0.131138
vt -0.836968 0.310089
vt 0.620360 0.761652
vt -0.620360 0.023043
vt 0.568505 0.472222
vt 0.683312 0.383289
vt 0.713878 0.569301
vt 0.822102 0.283675
vt 0.808535 0.472222
vt -0.903465 0.472222
vt -0.926837 0.660797
vt -1.042025 0.569301
vt 0.822544 0.660797
vt -0.669730 0.751702
vt -0.393283 0.650161
vt -0.382632 0.868133
vt -0.080167 0.724524
vt 0.382632 -0.846507
vt -0.005822 0.904016
vt 0.005822 -0.730921
vt 0.235561 0.758106
vt 0.303338 0.901010
vt -0.303338 -0.609210
vt 0.580235 0.803363
vt 0.456054 0.625433
vt 0.656142 0.973044
vt 0.947317 0.828178
vt 0.835682 0.645755
vt 1.026056 0.625341
vt 0.642250 0.472222
vt 0.926790 0.472222
vt -0.495082 0.472222
vt 0.846326 0.295194
vt 0.462277 0.316780
vt -0.571729 0.295194
vt 0.927483 0.119914
vt -1.100202 -0.057904
vt 0.242819 0.174859
vt -0.674593 0.567872
vt -0.690158 0.374917
vt -0.403477 0.472222
vt -0.420191 0.281548
vt -0.006868 0.053326
vt -0.083711 0.213610
vt -0.374230 0.086089
vt -0.820426 -0.197209
vt -0.800957 0.353023
vt 0.701628 0.871062
vt 0.545072 1.370113
vt 0.732503 1.463015
vt 0.536019 1.471963
vt 0.714764 0.736496
vt 0.988176 0.957941
vt 1.057055 0.755919
vt -0.783383 0.950994
vt -1.004836 0.867528
vt -0.781021 0.846955
vt -0.799678 -0.623219
vt -1.121454 -0.783117
vt -1.131172 -0.568530
vt -0.790574 0.869951
vt -1.131868 0.776102
vt -0.787149 0.760556
vt -0.817822 0.956833
vt -1.121454 0.878082
vt -0.769360 0.871878
vt 0.691813 0.956662
vt 0.987481 0.867528
vt 1.046012 0.961985
vt 0.300306 0.964300
vt 0.659054 0.860320
vt -0.075522 0.851000
vt 0.307162 0.836697
vt -0.073502 0.963752
vt -0.423525 0.872362
vt -0.436442 0.964499
vt 0.648792 1.479697
vt 0.971621 1.369261
vt 0.988176 1.468434
vt 0.660396 1.274936
vt 0.994786 1.271692
vt 0.717495 1.176907
vt 1.074912 1.175024
vt 0.724716 1.059812
vt 1.071658 1.063728
vt 0.302461 1.397315
vt 0.641892 1.376563
vt 0.314263 1.285102
vt 0.330202 1.178923
vt 0.319275 1.061017
vt 0.298058 1.484419
vt -0.072817 1.394669
vt -0.077460 1.289817
vt -0.080245 1.178579
vt -0.079758 1.061967
vt -0.436189 1.486872
vt -0.072416 1.507735
vt -0.443822 1.388330
vt -0.489864 1.178624
vt -0.469307 1.061872
vt -0.788972 1.481048
vt -0.805368 0.816974
vt -0.497901 0.956536
vt -0.443822 0.864154
vt -0.833364 1.280166
vt -0.497901 1.302635
vt -0.839266 1.068622
vt -1.090316 1.463015
vt -0.805368 1.382433
vt -1.121562 1.369365
vt -1.172562 1.275429
vt -0.842688 1.175053
vt -1.219395 1.064141
vt -1.162621 0.967353
vt 0.673665 0.862099
vt 1.016761 0.760513
vt 1.027422 0.860634
vt 0.300045 0.860752
vt 0.666024 0.760989
vt -0.070285 0.863537
vt 0.287098 0.776898
vt -0.417616 0.775420
vt -0.069638 0.760557
vt -0.445878 0.854437
vt 1.024940 1.381375
vt 0.674680 1.281097
vt 1.035758 1.282593
vt 0.727804 1.182675
vt 1.038072 1.176674
vt 1.033488 1.071564
vt 0.717931 1.067441
vt 1.031868 0.967275
vt 0.696591 0.958299
vt 0.671628 1.388843
vt 0.319939 1.300491
vt 0.314575 1.179848
vt 0.321199 1.067390
vt 0.314959 0.960709
vt 0.294197 1.386452
vt -0.078816 1.295130
vt -0.079630 1.066297
vt -0.075281 0.956748
vt -0.440193 1.387934
vt -0.074359 1.391220
vt -0.452040 1.290043
vt -0.077036 1.179660
vt -0.488178 1.183206
vt -0.462293 0.957606
vt -0.791718 1.374556
vt -0.801791 1.278393
vt -0.856435 1.181481
vt -0.499486 1.064913
vt -0.810772 0.968490
vt -1.150945 1.388585
vt -1.161829 1.280697
vt -1.177806 1.177653
vt -0.868060 1.068068
vt -1.192221 0.964578
vt -1.183570 0.860397
vt -0.700093 0.348497
vt -1.016761 0.604748
vt -0.666024 0.578372
vt -0.746069 0.114936
vt -1.050723 0.373345
vt -1.086447 -0.101440
vt -1.100525 0.144416
vt -0.801360 -0.133034
vt -1.132595 -0.339975
vt -0.785741 -0.381454
vt 1.131868 0.372485
vt 0.781497 0.192867
vt 0.787149 0.420098
vt 0.424808 0.241299
vt 0.417616 0.438663
vt 0.047756 0.287080
vt 0.069638 0.505164
vt -0.287098 0.513062
vt -0.324607 0.309608
vt 1.110623 -0.083216
vt 1.181720 0.167086
vt 0.407364 -0.000906
vt 0.023296 0.043296
vt -0.367894 0.081275
vt 1.051113 -0.315554
vt 0.773826 -0.043028
vt 0.397975 -0.252717
vt -0.002237 -0.211182
vt -0.394037 -0.172721
vt 1.022422 -0.543049
vt 0.739626 -0.285271
vt 0.685033 -0.512701
vt 0.361969 -0.503566
vt -0.414590 -0.424435
vt 0.692149 -0.770848
vt 0.335549 -0.750352
vt -0.029806 -0.485953
vt -0.415309 -0.647960
vt 0.987481 -1.004836
vt 1.018759 -0.781021
vt 0.659054 -0.997880
vt -0.075522 -0.941593
vt -0.054255 -0.729625
vt -0.423525 -0.860039
vt -0.769360 -0.820522
vt 0.183910 0.859524
vt 0.372485 0.776102
vt 0.407272 0.860397
vt -0.072573 0.895238
vt 0.167086 0.760472
vt -0.317263 0.904086
vt -0.083216 0.787102
vt -0.545982 0.933689
vt -0.315554 0.821340
vt -0.543049 0.833701
vt 0.429665 1.388585
vt 0.219132 1.310839
vt 0.425132 1.280697
vt 0.186383 1.191101
vt 0.427216 1.177653
vt 0.188675 1.087593
vt 0.443999 1.069487
vt 0.418940 0.964578
vt 0.188935 0.976503
vt 0.205930 1.403460
vt -0.039708 1.322818
vt -0.056403 1.104830
vt -0.060365 0.992011
vt -0.035748 1.431114
vt -0.284035 1.330575
vt -0.299349 1.234717
vt -0.043906 1.215431
vt -0.314960 1.009466
vt -0.516983 1.450860
vt -0.275872 1.429262
vt -0.541066 1.367241
vt -0.553164 1.253153
vt -0.305499 1.122222
vt -0.563082 1.030522
vt -0.755919 1.472665
vt -0.757850 1.360754
vt -0.780497 1.262577
vt -0.584860 1.141272
vt -0.811729 1.046721
vt -0.957941 1.468434
vt -0.955150 1.369261
vt -0.979128 1.271692
vt -0.807561 1.157605
vt -1.060655 1.063728
vt -1.042988 0.961985
vt 0.799487 -0.245975
vt 1.150945 -0.429665
vt 0.791718 -0.458263
vt 0.796443 -0.006242
vt 1.176219 -0.205930
vt 1.082567 0.275872
vt 1.134160 0.035748
vt 0.767362 0.502434
vt 0.790018 0.244262
vt 1.083834 0.516983
vt -1.024940 -0.654824
vt -0.705532 -0.401186
vt -0.671628 -0.635361
vt -0.337605 -0.379962
vt -0.294197 -0.588110
vt 0.052594 -0.335300
vt 0.074359 -0.552225
vt 0.440193 -0.511683
vt 0.437545 -0.294996
vt -1.054734 -0.174185
vt -1.044699 -0.414269
vt -0.713355 -0.145424
vt -0.359427 -0.124892
vt 0.028981 -0.099955
vt 0.442309 -0.063870
vt -0.756609 0.089960
vt -0.375322 0.128028
vt 0.002322 0.165746
vt 0.421114 0.205532
vt -1.091793 0.057462
vt -0.802290 0.340889
vt -0.412313 0.379338
vt -0.023271 0.420828
vt -1.155583 0.536019
vt -1.143831 0.297069
vt -0.799828 0.577632
vt -0.048414 0.671418
vt 0.389633 0.475048
vt -1.090316 0.732503
vt -0.788972 0.797899
vt -0.438567 0.634906
vt -0.436189 0.845206
vt 0.298058 0.919396
vt 0.350110 0.725173
vt 0.648792 0.938746
vt -0.422880 1.297176
vt -0.654824 1.381375
vt -0.658366 1.282593
vt -0.183510 1.320991
vt -0.414269 1.394873
vt 0.056453 1.347198
vt -0.174185 1.410389
vt 0.297069 1.460120
vt 0.057462 1.432763
vt 0.305283 1.350821
vt -0.604748 0.760513
vt -0.400678 0.875122
vt -0.621620 0.860634
vt -0.630682 0.967275
vt -0.408713 1.088024
vt -0.640934 1.071564
vt -0.651535 1.176674
vt -0.373345 0.779282
vt -0.162382 0.882077
vt -0.181101 0.990196
vt -0.401740 0.982208
vt -0.173001 1.104816
vt -0.410858 1.191312
vt -0.188609 1.212874
vt -0.144416 0.786819
vt 0.094161 0.918276
vt 0.079871 1.011218
vt 0.067003 1.234282
vt 0.339975 0.821690
vt 0.101440 0.816273
vt 0.326278 1.032783
vt 0.317605 1.139169
vt 0.066780 1.122222
vt 0.568530 0.851899
vt 0.336468 0.921997
vt 0.583172 0.940896
vt 0.567130 1.156986
vt 0.315200 1.250964
vt 0.783117 0.878082
vt 0.800340 0.967353
vt 0.587863 1.045832
vt 0.825019 1.175237
vt 0.784469 1.275429
vt 0.557938 1.264094
vt 0.753234 1.369365
vt 0.208489 0.388889
vt 0.253569 0.135178
vt -0.112278 0.388889
vt 0.360422 0.388889
vt 0.253283 0.638574
vt 0.072380 0.551187
vt -0.266677 0.235931
vt -0.820561 0.388889
vt -0.671815 0.241966
vt -0.938949 0.813754
vt -0.884966 0.630846
vt -0.738600 0.773261
vt -1.146646 -0.111770
vt -1.080063 0.055525
vt -0.940492 -0.127326
vt -0.746305 -0.186260
vt -0.670017 0.536095
vt -0.938949 0.204055
vt -0.738600 0.198702
vt -0.844444 0.027778
vt 1.146646 0.666990
vt 0.940492 0.738184
vt 1.008856 0.529373
vt -0.587221 0.203084
vt -0.163920 0.659012
vt -0.197195 0.388889
vt 0.017219 0.552645
vt 0.160241 0.838518
vt -0.002374 0.780390
vt 0.194836 0.637546
vt 0.866880 0.388889
vt 0.801006 0.648234
vt 0.668149 0.388889
vt 0.301109 0.388889
vt 0.161831 0.388889
vt 0.596334 0.637546
vt 0.743863 0.838518
vt -0.182864 0.082550
vt 0.203084 0.131815
vt 0.587221 0.131815
vt -0.627229 0.002374
vt -0.743863 -0.160241
vt -0.549932 0.163920
vt -0.478130 0.388889
vt -0.549932 0.659012
vt -0.509315 0.082550
vt -0.797755 0.326365
vt -0.746305 0.034842
vt 0.412662 0.000000
vt 0.374230 0.834064
vt -0.152129 0.000000
vt -0.237724 0.529373
vt 1.147409 0.388889
vt 0.055525 0.816661
vt -0.111770 0.666990
vt -1.095558 0.253283
vt -1.095558 0.638574
vt -1.022963 0.388889
vt -1.096245 0.135178
vt 0.318933 0.000000
vt -0.077460 0.960911
vt -1.233758 1.175237
vt -1.226077 1.069487
vt 0.307162 -1.006793
vt -1.053603 1.175024
vt -0.072416 0.910631
vt 0.827874 1.064141
vt 0.664746 0.000000
vt 0.744532 0.000000
vt -0.927483 0.451868
vt 1.149627 0.110812
vt 0.227050 0.000000
vt -0.050486 0.000000
vt -0.509315 -0.182864
vt -0.331314 0.632339
vt -0.927015 -0.261389
s 1
f 1/1/1 14/2/14 13/3/13
f 2/4/2 16/5/16 20/6/20
f 1/1/1 13/3/13 26/7/26
f 1/1/1 26/7/26 31/8/31
f 1/1/1 31/8/31 21/9/21
f 2/10/2 20/11/20 40/12/40
f 439/13/439 438/14/438 437/15/437
f 3/16/3 28/17/28 47/18/47
f 4/19/4 34/20/34 51/21/51
f 5/22/5 37/23/37 57/24/57
f 2/25/2 40/26/40 44/27/44
f 434/28/434 427/29/427 436/30/436
f 3/16/3 47/18/47 52/31/52
f 4/19/4 51/21/51 58/32/58
f 5/22/5 57/24/57 41/33/41
f 422/34/422 424/35/424 404/36/404
f 6/37/6 63/38/63 80/39/80
f 7/40/7 66/41/66 83/42/83
f 8/43/8 69/44/69 86/45/86
f 9/46/9 72/47/72 75/48/75
f 77/49/77 84/50/84 10/51/10
f 76/52/76 87/53/87 77/49/77
f 75/54/75 88/55/88 76/52/76
f 77/49/77 87/53/87 84/50/84
f 87/53/87 85/56/85 84/50/84
f 76/52/76 88/55/88 87/53/87
f 88/55/88 89/57/89 87/53/87
f 87/53/87 89/57/89 85/56/85
f 89/57/89 86/58/86 85/56/85
f 75/54/75 72/59/72 88/55/88
f 72/59/72 71/60/71 88/55/88
f 88/55/88 71/60/71 89/57/89
f 71/60/71 70/61/70 89/57/89
f 89/57/89 70/61/70 86/58/86
f 70/62/70 8/43/8 86/45/86
f 84/50/84 81/63/81 10/51/10
f 85/56/85 90/64/90 84/50/84
f 86/58/86 91/65/91 85/56/85
f 84/50/84 90/64/90 81/63/81
f 90/64/90 82/66/82 81/63/81
f 85/56/85 91/65/91 90/64/90
f 91/65/91 92/67/92 90/64/90
f 90/64/90 92/67/92 82/66/82
f 92/67/92 83/68/83 82/66/82
f 86/45/86 69/44/69 91/69/91
f 69/44/69 68/70/68 91/69/91
f 91/69/91 68/70/68 92/71/92
f 68/72/68 67/73/67 92/67/92
f 92/67/92 67/73/67 83/68/83
f 67/74/67 7/40/7 83/42/83
f 81/63/81 78/75/78 10/51/10
f 82/66/82 93/76/93 81/63/81
f 83/68/83 94/77/94 82/66/82
f 81/63/81 93/76/93 78/75/78
f 93/76/93 79/78/79 78/75/78
f 82/66/82 94/77/94 93/76/93
f 94/77/94 95/79/95 93/76/93
f 93/76/93 95/79/95 79/78/79
f 95/79/95 80/80/80 79/78/79
f 83/68/83 66/81/66 94/77/94
f 66/81/66 65/82/65 94/77/94
f 94/77/94 65/82/65 95/79/95
f 65/82/65 64/83/64 95/79/95
f 95/79/95 64/83/64 80/80/80
f 64/84/64 6/85/6 80/86/80
f 78/75/78 73/87/73 10/51/10
f 79/78/79 96/88/96 78/75/78
f 80/80/80 97/89/97 79/78/79
f 78/75/78 96/88/96 73/87/73
f 96/88/96 74/90/74 73/87/73
f 79/78/79 97/89/97 96/88/96
f 97/89/97 98/91/98 96/88/96
f 96/88/96 98/91/98 74/90/74
f 394/92/394 422/34/422 403/93/403
f 80/39/80 63/38/63 97/94/97
f 425/95/425 395/96/395 406/97/406
f 405/98/405 423/99/423 402/100/402
f 404/36/404 405/98/405 98/101/98
f 419/102/419 418/103/418 406/97/406
f 411/104/411 412/105/412 410/106/410
f 73/87/73 77/49/77 10/51/10
f 74/90/74 99/107/99 73/87/73
f 406/108/406 74/90/74 401/109/401
f 73/87/73 99/107/99 77/49/77
f 99/107/99 76/52/76 77/49/77
f 74/90/74 100/110/100 99/107/99
f 100/110/100 101/111/101 99/107/99
f 99/107/99 101/111/101 76/52/76
f 101/111/101 75/54/75 76/52/76
f 406/108/406 407/112/407 100/110/100
f 399/113/399 100/110/100 407/112/407
f 100/110/100 62/114/62 101/111/101
f 62/115/62 61/116/61 101/117/101
f 101/117/101 61/116/61 75/48/75
f 61/116/61 9/46/9 75/48/75
f 43/118/43 72/47/72 9/46/9
f 42/119/42 102/120/102 43/118/43
f 41/121/41 103/122/103 42/119/42
f 43/118/43 102/120/102 72/47/72
f 102/120/102 71/123/71 72/47/72
f 42/119/42 103/122/103 102/120/102
f 103/122/103 104/124/104 102/120/102
f 102/120/102 104/124/104 71/123/71
f 104/125/104 70/62/70 71/126/71
f 41/121/41 57/127/57 103/122/103
f 57/128/57 56/129/56 103/130/103
f 103/130/103 56/129/56 104/125/104
f 56/129/56 55/131/55 104/125/104
f 104/125/104 55/131/55 70/62/70
f 55/131/55 8/43/8 70/62/70
f 60/132/60 69/44/69 8/43/8
f 59/133/59 105/134/105 60/132/60
f 58/32/58 106/135/106 59/133/59
f 60/132/60 105/134/105 69/44/69
f 105/134/105 68/70/68 69/44/69
f 59/133/59 106/135/106 105/134/105
f 106/135/106 107/136/107 105/134/105
f 105/134/105 107/136/107 68/70/68
f 107/136/107 67/74/67 68/70/68
f 58/32/58 51/21/51 106/135/106
f 51/21/51 50/137/50 106/135/106
f 106/135/106 50/137/50 107/136/107
f 50/137/50 49/138/49 107/136/107
f 107/136/107 49/138/49 67/74/67
f 49/138/49 7/40/7 67/74/67
f 54/139/54 66/140/66 7/141/7
f 53/142/53 108/143/108 54/139/54
f 52/31/52 109/144/109 53/142/53
f 54/139/54 108/143/108 66/140/66
f 108/143/108 65/145/65 66/140/66
f 53/142/53 109/144/109 108/143/108
f 109/144/109 110/146/110 108/143/108
f 108/143/108 110/146/110 65/145/65
f 110/146/110 64/84/64 65/145/65
f 52/31/52 47/18/47 109/144/109
f 47/18/47 46/147/46 109/144/109
f 109/144/109 46/147/46 110/146/110
f 46/147/46 45/148/45 110/146/110
f 110/146/110 45/148/45 64/84/64
f 45/148/45 6/85/6 64/84/64
f 48/149/48 63/38/63 6/37/6
f 398/150/398 408/151/408 48/149/48
f 414/152/414 421/153/421 403/93/403
f 412/105/412 413/154/413 410/106/410
f 409/155/409 400/156/400 63/38/63
f 421/153/421 394/92/394 403/93/403
f 407/157/407 406/97/406 418/103/418
f 399/158/399 407/157/407 418/103/418
f 403/93/403 400/156/400 414/152/414
f 422/34/422 404/36/404 403/93/403
f 420/159/420 421/153/421 414/152/414
f 405/98/405 404/36/404 424/35/424
f 410/106/410 399/158/399 411/104/411
f 400/156/400 409/155/409 408/151/408
f 423/99/423 425/95/425 401/160/401
f 424/35/424 423/99/423 405/98/405
f 420/159/420 416/161/416 396/162/396
f 438/14/438 426/163/426 437/15/437
f 416/161/416 415/164/415 396/162/396
f 410/165/410 62/114/62 399/113/399
f 411/104/411 111/166/111 412/105/412
f 414/152/414 400/156/400 408/151/408
f 112/167/112 410/168/410 413/169/413
f 112/167/112 61/116/61 62/115/62
f 44/170/44 40/171/40 111/172/111
f 40/26/40 39/173/39 111/174/111
f 111/174/111 39/173/39 112/167/112
f 39/173/39 38/175/38 112/167/112
f 112/167/112 38/175/38 61/116/61
f 38/175/38 9/46/9 61/116/61
f 55/131/55 60/132/60 8/43/8
f 56/129/56 113/176/113 55/131/55
f 57/128/57 114/177/114 56/129/56
f 55/131/55 113/176/113 60/132/60
f 113/176/113 59/133/59 60/132/60
f 56/129/56 114/177/114 113/176/113
f 114/177/114 115/178/115 113/176/113
f 113/176/113 115/178/115 59/133/59
f 115/178/115 58/32/58 59/133/59
f 57/128/57 37/179/37 114/177/114
f 37/179/37 36/180/36 114/177/114
f 114/177/114 36/180/36 115/178/115
f 36/180/36 35/181/35 115/178/115
f 115/178/115 35/181/35 58/32/58
f 35/181/35 4/19/4 58/32/58
f 49/138/49 54/182/54 7/40/7
f 50/137/50 116/183/116 49/138/49
f 51/21/51 117/184/117 50/137/50
f 49/138/49 116/183/116 54/182/54
f 116/185/116 53/142/53 54/139/54
f 50/137/50 117/184/117 116/183/116
f 117/186/117 118/187/118 116/185/116
f 116/185/116 118/187/118 53/142/53
f 118/187/118 52/31/52 53/142/53
f 51/21/51 34/20/34 117/184/117
f 34/20/34 33/188/33 117/184/117
f 117/186/117 33/189/33 118/187/118
f 33/189/33 32/190/32 118/187/118
f 118/187/118 32/190/32 52/31/52
f 32/190/32 3/16/3 52/31/52
f 45/148/45 48/191/48 6/85/6
f 46/147/46 119/192/119 45/148/45
f 47/18/47 120/193/120 46/147/46
f 45/148/45 119/192/119 48/191/48
f 429/194/429 440/195/440 437/15/437
f 46/147/46 120/193/120 119/192/119
f 120/193/120 121/196/121 119/192/119
f 437/15/437 435/197/435 436/30/436
f 440/195/440 430/198/430 437/15/437
f 47/18/47 28/17/28 120/193/120
f 28/17/28 27/199/27 120/193/120
f 120/193/120 27/199/27 121/196/121
f 430/198/430 432/200/432 437/15/437
f 428/201/428 435/197/435 437/15/437
f 435/197/435 434/28/434 436/30/436
f 426/163/426 428/201/428 437/15/437
f 369/202/369 441/203/441 440/204/440
f 369/202/369 359/205/359 430/206/430
f 377/207/377 385/208/385 438/209/438
f 391/210/391 434/211/434 435/212/435
f 373/213/373 431/214/431 433/215/433
f 133/216/133 11/217/11 421/218/421
f 137/219/137 424/35/424 422/34/422
f 418/103/418 44/220/44 397/221/397
f 429/222/429 431/214/431 373/213/373
f 377/207/377 439/223/439 432/224/432
f 119/225/119 121/226/121 416/161/416
f 395/96/395 17/227/17 419/102/419
f 17/227/17 418/103/418 419/102/419
f 17/228/17 2/4/2 44/170/44
f 38/175/38 43/118/43 9/46/9
f 39/173/39 122/229/122 38/175/38
f 40/26/40 123/230/123 39/173/39
f 38/175/38 122/229/122 43/118/43
f 122/229/122 42/119/42 43/118/43
f 39/173/39 123/230/123 122/229/122
f 123/230/123 124/231/124 122/229/122
f 122/229/122 124/231/124 42/119/42
f 124/231/124 41/121/41 42/119/42
f 40/26/40 20/232/20 123/230/123
f 20/232/20 19/233/19 123/230/123
f 123/230/123 19/233/19 124/231/124
f 19/234/19 18/235/18 124/236/124
f 124/231/124 18/237/18 41/121/41
f 18/235/18 5/22/5 41/33/41
f 23/238/23 37/23/37 5/22/5
f 22/239/22 125/240/125 23/238/23
f 21/9/21 126/241/126 22/239/22
f 23/238/23 125/240/125 37/23/37
f 125/242/125 36/180/36 37/179/37
f 22/239/22 126/241/126 125/240/125
f 126/241/126 127/243/127 125/240/125
f 125/242/125 127/244/127 36/180/36
f 127/244/127 35/181/35 36/180/36
f 21/9/21 31/8/31 126/241/126
f 31/8/31 30/245/30 126/241/126
f 126/241/126 30/245/30 127/243/127
f 30/245/30 29/246/29 127/243/127
f 127/244/127 29/247/29 35/181/35
f 29/247/29 4/19/4 35/181/35
f 29/247/29 34/20/34 4/19/4
f 30/245/30 128/248/128 29/246/29
f 31/8/31 129/249/129 30/245/30
f 29/246/29 128/248/128 34/250/34
f 128/248/128 33/251/33 34/250/34
f 30/245/30 129/249/129 128/248/128
f 129/249/129 130/252/130 128/248/128
f 128/248/128 130/252/130 33/251/33
f 130/252/130 32/253/32 33/251/33
f 31/8/31 26/7/26 129/249/129
f 26/7/26 25/254/25 129/249/129
f 129/249/129 25/254/25 130/252/130
f 25/254/25 24/255/24 130/252/130
f 130/252/130 24/255/24 32/253/32
f 24/256/24 3/16/3 32/190/32
f 24/256/24 28/17/28 3/16/3
f 25/254/25 131/257/131 24/255/24
f 26/7/26 132/258/132 25/254/25
f 24/256/24 131/259/131 28/17/28
f 131/259/131 27/199/27 28/17/28
f 25/254/25 132/258/132 131/257/131
f 132/258/132 133/216/133 131/257/131
f 131/257/131 133/216/133 27/260/27
f 440/195/440 441/261/441 430/198/430
f 26/7/26 13/3/13 132/258/132
f 13/3/13 12/262/12 132/258/132
f 132/258/132 12/262/12 133/216/133
f 12/262/12 11/217/11 133/216/133
f 17/227/17 44/220/44 418/103/418
f 432/200/432 439/13/439 437/15/437
f 18/235/18 23/238/23 5/22/5
f 19/234/19 134/263/134 18/235/18
f 20/6/20 135/264/135 19/234/19
f 18/235/18 134/263/134 23/238/23
f 134/263/134 22/239/22 23/238/23
f 19/234/19 135/264/135 134/263/134
f 135/264/135 136/265/136 134/263/134
f 134/263/134 136/265/136 22/239/22
f 136/265/136 21/9/21 22/239/22
f 20/6/20 16/5/16 135/264/135
f 16/5/16 15/266/15 135/264/135
f 135/264/135 15/266/15 136/265/136
f 15/266/15 14/2/14 136/265/136
f 136/265/136 14/2/14 21/9/21
f 14/2/14 1/1/1 21/9/21
f 112/167/112 62/115/62 410/168/410
f 12/262/12 137/267/137 11/217/11
f 13/3/13 138/268/138 12/262/12
f 406/108/406 100/110/100 74/90/74
f 399/113/399 62/114/62 100/110/100
f 12/262/12 138/268/138 137/267/137
f 138/268/138 139/269/139 137/267/137
f 437/15/437 433/270/433 429/194/429
f 417/271/417 396/162/396 415/164/415
f 13/3/13 14/2/14 138/268/138
f 14/2/14 15/266/15 138/268/138
f 138/268/138 15/266/15 139/269/139
f 15/266/15 16/5/16 139/269/139
f 139/269/139 16/5/16 17/228/17
f 16/272/16 2/10/2 17/227/17
f 357/273/357 143/274/143 163/275/163
f 332/276/332 147/277/147 178/278/178
f 307/279/307 145/280/145 193/281/193
f 282/282/282 141/283/141 157/284/157
f 257/285/257 144/286/144 202/287/202
f 232/288/232 141/289/141 207/290/207
f 212/291/212 145/292/145 192/293/192
f 217/294/217 203/295/203 212/291/212
f 217/294/217 205/296/205 204/297/204
f 222/298/222 206/299/206 205/296/205
f 227/300/227 207/290/207 206/299/206
f 177/301/177 188/302/188 147/303/147
f 188/302/188 209/304/209 189/305/189
f 189/305/189 210/306/210 190/307/190
f 190/307/190 211/308/211 191/309/191
f 211/308/211 192/293/192 191/309/191
f 177/301/177 213/310/213 208/311/208
f 208/311/208 214/312/214 209/304/209
f 209/304/209 215/313/215 210/306/210
f 215/313/215 211/308/211 210/306/210
f 216/314/216 212/291/212 211/308/211
f 176/315/176 218/316/218 213/310/213
f 213/310/213 219/317/219 214/312/214
f 214/312/214 220/318/220 215/313/215
f 220/318/220 216/314/216 215/313/215
f 221/319/221 217/294/217 216/314/216
f 174/320/174 218/316/218 175/321/175
f 223/322/223 219/317/219 218/316/218
f 219/317/219 225/323/225 220/318/220
f 220/318/220 226/324/226 221/319/221
f 221/319/221 227/300/227 222/298/222
f 173/325/173 223/322/223 174/320/174
f 228/326/228 224/327/224 223/328/223
f 229/329/229 225/323/225 224/330/224
f 225/323/225 231/331/231 226/324/226
f 226/324/226 232/288/232 227/300/227
f 143/332/143 228/333/228 173/325/173
f 162/334/162 229/329/229 228/333/228
f 161/335/161 230/336/230 229/329/229
f 230/336/230 159/337/159 231/331/231
f 231/331/231 158/338/158 232/288/232
f 237/339/237 140/340/140 152/341/152
f 242/342/242 198/343/198 237/339/237
f 247/344/247 199/345/199 242/342/242
f 247/344/247 201/346/201 200/347/200
f 252/348/252 202/287/202 201/346/201
f 142/349/142 233/350/233 148/351/148
f 148/351/148 234/352/234 149/353/149
f 234/352/234 150/354/150 149/353/149
f 235/355/235 151/356/151 150/354/150
f 236/357/236 152/341/152 151/356/151
f 172/358/172 238/359/238 233/350/233
f 233/350/233 239/360/239 234/352/234
f 239/360/239 235/355/235 234/352/234
f 240/361/240 236/357/236 235/355/235
f 241/362/241 237/339/237 236/357/236
f 171/363/171 243/364/243 238/359/238
f 243/364/243 239/360/239 238/359/238
f 239/360/239 245/365/245 240/361/240
f 245/365/245 241/362/241 240/361/240
f 246/366/246 242/342/242 241/362/241
f 169/367/169 243/364/243 170/368/170
f 248/369/248 244/370/244 243/364/243
f 249/371/249 245/365/245 244/370/244
f 245/365/245 251/372/251 246/366/246
f 246/366/246 252/348/252 247/344/247
f 168/373/168 248/369/248 169/367/169
f 253/374/253 249/371/249 248/369/248
f 254/375/254 250/376/250 249/371/249
f 250/376/250 256/377/256 251/372/251
f 251/372/251 257/285/257 252/348/252
f 146/378/146 253/374/253 168/373/168
f 187/379/187 254/375/254 253/374/253
f 186/380/186 255/381/255 254/375/254
f 255/381/255 184/382/184 256/377/256
f 256/377/256 183/383/183 257/285/257
f 262/384/262 140/385/140 198/386/198
f 267/387/267 153/388/153 262/384/262
f 267/387/267 155/389/155 154/390/154
f 272/391/272 156/392/156 155/389/155
f 277/393/277 157/284/157 156/392/156
f 144/394/144 258/395/258 202/396/202
f 202/396/202 259/397/259 201/398/201
f 201/398/201 260/399/260 200/400/200
f 260/399/260 199/401/199 200/400/200
f 261/402/261 198/386/198 199/401/199
f 196/403/196 258/395/258 197/404/197
f 258/395/258 264/405/264 259/397/259
f 259/397/259 265/406/265 260/399/260
f 265/406/265 261/402/261 260/399/260
f 266/407/266 262/384/262 261/402/261
f 195/408/195 263/409/263 196/403/196
f 263/409/263 269/410/269 264/405/264
f 264/405/264 270/411/270 265/406/265
f 270/411/270 266/407/266 265/406/265
f 271/412/271 267/387/267 266/407/266
f 194/413/194 268/414/268 195/408/195
f 273/415/273 269/410/269 268/414/268
f 274/416/274 270/411/270 269/410/269
f 270/411/270 276/417/276 271/412/271
f 271/412/271 277/393/277 272/391/272
f 194/413/194 278/418/278 273/415/273
f 273/415/273 279/419/279 274/416/274
f 279/419/279 275/420/275 274/416/274
f 275/420/275 281/421/281 276/417/276
f 276/417/276 282/282/282 277/393/277
f 145/422/145 278/418/278 193/423/193
f 203/424/203 279/419/279 278/418/278
f 279/419/279 205/425/205 280/426/280
f 280/426/280 206/427/206 281/421/281
f 281/421/281 207/428/207 282/282/282
f 287/429/287 144/430/144 183/431/183
f 292/432/292 197/433/197 287/429/287
f 297/434/297 196/435/196 292/432/292
f 302/436/302 195/437/195 297/434/297
f 302/436/302 193/281/193 194/438/194
f 146/439/146 283/440/283 187/441/187
f 187/441/187 284/442/284 186/443/186
f 186/443/186 285/444/285 185/445/185
f 285/444/285 184/446/184 185/445/185
f 286/447/286 183/431/183 184/446/184
f 182/448/182 288/449/288 283/440/283
f 288/449/288 284/442/284 283/440/283
f 284/442/284 290/450/290 285/444/285
f 285/444/285 291/451/291 286/447/286
f 286/447/286 292/432/292 287/429/287
f 181/452/181 293/453/293 288/449/288
f 288/449/288 294/454/294 289/455/289
f 294/454/294 290/450/290 289/455/289
f 290/450/290 296/456/296 291/451/291
f 296/456/296 292/432/292 291/451/291
f 179/457/179 293/453/293 180/458/180
f 298/459/298 294/454/294 293/453/293
f 299/460/299 295/461/295 294/454/294
f 295/461/295 301/462/301 296/456/296
f 296/456/296 302/436/302 297/434/297
f 178/463/178 298/459/298 179/457/179
f 303/464/303 299/460/299 298/459/298
f 304/465/304 300/466/300 299/460/299
f 300/466/300 306/467/306 301/462/301
f 301/462/301 307/279/307 302/436/302
f 147/468/147 303/464/303 178/463/178
f 188/469/188 304/465/304 303/464/303
f 189/470/189 305/471/305 304/465/304
f 305/471/305 191/472/191 306/467/306
f 306/467/306 192/473/192 307/279/307
f 312/474/312 146/475/146 168/476/168
f 317/477/317 182/478/182 312/474/312
f 317/477/317 180/479/180 181/480/181
f 327/481/327 180/479/180 322/482/322
f 327/481/327 178/278/178 179/483/179
f 142/484/142 308/485/308 172/486/172
f 172/486/172 309/487/309 171/488/171
f 171/488/171 310/489/310 170/490/170
f 310/489/310 169/491/169 170/490/170
f 311/492/311 168/476/168 169/491/169
f 166/493/166 308/485/308 167/494/167
f 313/495/313 309/487/309 308/485/308
f 314/496/314 310/489/310 309/487/309
f 315/497/315 311/492/311 310/489/310
f 316/498/316 312/474/312 311/492/311
f 166/493/166 318/499/318 313/495/313
f 313/495/313 319/500/319 314/496/314
f 319/500/319 315/497/315 314/496/314
f 320/501/320 316/498/316 315/497/315
f 321/502/321 317/477/317 316/498/316
f 165/503/165 323/504/323 318/499/318
f 318/499/318 324/505/324 319/500/319
f 319/500/319 325/506/325 320/501/320
f 325/506/325 321/502/321 320/501/320
f 321/502/321 327/481/327 322/482/322
f 163/507/163 323/504/323 164/508/164
f 328/509/328 324/505/324 323/504/323
f 324/505/324 330/510/330 325/506/325
f 330/510/330 326/511/326 325/506/325
f 326/511/326 332/276/332 327/481/327
f 143/512/143 328/509/328 163/507/163
f 173/513/173 329/514/329 328/509/328
f 174/515/174 330/510/330 329/514/329
f 330/510/330 176/516/176 331/517/331
f 331/517/331 177/518/177 332/276/332
f 337/519/337 142/520/142 148/521/148
f 342/522/342 167/523/167 337/519/337
f 347/524/347 166/525/166 342/522/342
f 347/524/347 164/526/164 165/527/165
f 352/528/352 163/275/163 164/526/164
f 140/529/140 333/530/333 152/531/152
f 333/530/333 151/532/151 152/531/152
f 151/532/151 335/533/335 150/534/150
f 335/533/335 149/535/149 150/534/150
f 149/535/149 337/519/337 148/521/148
f 153/536/153 338/537/338 333/530/333
f 333/530/333 339/538/339 334/539/334
f 334/539/334 340/540/340 335/533/335
f 340/540/340 336/541/336 335/533/335
f 341/542/341 337/519/337 336/541/336
f 154/543/154 343/544/343 338/537/338
f 338/537/338 344/545/344 339/538/339
f 344/545/344 340/540/340 339/538/339
f 340/540/340 346/546/346 341/542/341
f 346/546/346 342/522/342 341/542/341
f 156/547/156 343/544/343 155/548/155
f 343/544/343 349/549/349 344/545/344
f 344/545/344 350/550/350 345/551/345
f 350/550/350 346/546/346 345/551/345
f 346/546/346 352/528/352 347/524/347
f 157/552/157 348/553/348 156/547/156
f 353/554/353 349/549/349 348/553/348
f 349/549/349 355/555/355 350/550/350
f 355/555/355 351/556/351 350/550/350
f 351/556/351 357/273/357 352/528/352
f 141/557/141 353/554/353 157/552/157
f 158/558/158 354/559/354 353/554/353
f 354/559/354 160/560/160 355/555/355
f 355/555/355 161/561/161 356/562/356
f 356/562/356 162/563/162 357/273/357
f 358/564/358 369/202/369 368/565/368
f 359/205/359 369/202/369 370/566/370
f 358/564/358 368/565/368 372/567/372
f 358/564/358 372/567/372 374/568/374
f 358/564/358 374/568/374 371/569/371
f 359/205/359 370/566/370 377/570/377
f 44/220/44 111/166/111 411/104/411
f 360/571/360 373/213/373 379/572/379
f 361/573/361 375/574/375 381/575/381
f 362/576/362 376/577/376 383/578/383
f 433/270/433 437/15/437 380/579/380
f 360/571/360 379/572/379 382/580/382
f 361/581/361 381/582/381 384/583/384
f 362/584/362 383/585/383 378/586/378
f 426/163/426 389/587/389 428/201/428
f 364/588/364 386/589/386 392/590/392
f 365/591/365 387/592/387 393/593/393
f 366/594/366 388/595/388 390/596/390
f 390/597/390 393/593/393 367/598/367
f 390/596/390 388/595/388 393/599/393
f 388/595/388 365/600/365 393/599/393
f 393/593/393 392/590/392 367/598/367
f 393/593/393 387/592/387 392/590/392
f 387/592/387 364/588/364 392/590/392
f 392/590/392 391/210/391 367/598/367
f 392/590/392 386/589/386 391/210/391
f 386/589/386 363/601/363 391/210/391
f 391/210/391 389/602/389 367/598/367
f 435/197/435 428/201/428 389/587/389
f 389/602/389 390/597/390 367/598/367
f 389/603/389 385/208/385 390/596/390
f 385/208/385 366/594/366 390/596/390
f 378/586/378 388/595/388 366/594/366
f 378/586/378 383/585/383 388/595/388
f 383/585/383 365/600/365 388/595/388
f 384/583/384 387/604/387 365/605/365
f 384/583/384 381/582/381 387/604/387
f 381/582/381 364/606/364 387/604/387
f 382/580/382 386/607/386 364/608/364
f 382/580/382 379/572/379 386/607/386
f 379/572/379 363/609/363 386/607/386
f 438/14/438 385/610/385 426/163/426
f 377/207/377 438/209/438 439/223/439
f 377/207/377 366/594/366 385/208/385
f 383/578/383 384/583/384 365/605/365
f 383/578/383 376/577/376 384/583/384
f 376/577/376 361/581/361 384/583/384
f 381/575/381 382/580/382 364/608/364
f 381/575/381 375/574/375 382/580/382
f 375/574/375 360/571/360 382/580/382
f 379/572/379 380/611/380 363/609/363
f 379/572/379 373/213/373 380/611/380
f 112/167/112 413/169/413 412/612/412
f 139/613/139 17/227/17 395/96/395
f 430/206/430 359/205/359 432/614/432
f 377/207/377 378/586/378 366/594/366
f 377/570/377 370/566/370 378/615/378
f 370/616/370 362/584/362 378/586/378
f 371/569/371 376/617/376 362/618/362
f 371/569/371 374/568/374 376/617/376
f 374/619/374 361/581/361 376/577/376
f 374/620/374 375/574/375 361/573/361
f 374/620/374 372/621/372 375/574/375
f 372/621/372 360/571/360 375/574/375
f 372/621/372 373/213/373 360/571/360
f 372/621/372 368/622/368 373/213/373
f 408/151/408 409/155/409 63/38/63
f 370/566/370 371/569/371 362/618/362
f 370/566/370 369/202/369 371/569/371
f 369/202/369 358/564/358 371/569/371
f 119/225/119 414/152/414 398/150/398
f 402/623/402 401/109/401 74/90/74
f 400/156/400 403/93/403 97/94/97
f 357/273/357 162/563/162 143/274/143
f 332/276/332 177/518/177 147/277/147
f 307/279/307 192/473/192 145/280/145
f 282/282/282 207/428/207 141/283/141
f 257/285/257 183/383/183 144/286/144
f 232/288/232 158/338/158 141/289/141
f 212/291/212 203/295/203 145/292/145
f 217/294/217 204/297/204 203/295/203
f 217/294/217 222/298/222 205/296/205
f 222/298/222 227/300/227 206/299/206
f 227/300/227 232/288/232 207/290/207
f 177/301/177 208/311/208 188/302/188
f 188/302/188 208/311/208 209/304/209
f 189/305/189 209/304/209 210/306/210
f 190/307/190 210/306/210 211/308/211
f 211/308/211 212/291/212 192/293/192
f 177/301/177 176/315/176 213/310/213
f 208/311/208 213/310/213 214/312/214
f 209/304/209 214/312/214 215/313/215
f 215/313/215 216/314/216 211/308/211
f 216/314/216 217/294/217 212/291/212
f 176/315/176 175/321/175 218/316/218
f 213/310/213 218/316/218 219/317/219
f 214/312/214 219/317/219 220/318/220
f 220/318/220 221/319/221 216/314/216
f 221/319/221 222/298/222 217/294/217
f 174/320/174 223/322/223 218/316/218
f 223/328/223 224/327/224 219/624/219
f 219/317/219 224/330/224 225/323/225
f 220/318/220 225/323/225 226/324/226
f 221/319/221 226/324/226 227/300/227
f 173/325/173 228/333/228 223/322/223
f 228/333/228 229/329/229 224/330/224
f 229/329/229 230/336/230 225/323/225
f 225/323/225 230/336/230 231/331/231
f 226/324/226 231/331/231 232/288/232
f 143/332/143 162/334/162 228/333/228
f 162/334/162 161/335/161 229/329/229
f 161/335/161 160/625/160 230/336/230
f 230/336/230 160/625/160 159/337/159
f 231/331/231 159/337/159 158/338/158
f 237/339/237 198/343/198 140/340/140
f 242/342/242 199/345/199 198/343/198
f 247/344/247 200/347/200 199/345/199
f 247/344/247 252/348/252 201/346/201
f 252/348/252 257/285/257 202/287/202
f 142/349/142 172/358/172 233/350/233
f 148/351/148 233/350/233 234/352/234
f 234/352/234 235/355/235 150/354/150
f 235/355/235 236/357/236 151/356/151
f 236/357/236 237/339/237 152/341/152
f 172/358/172 171/363/171 238/359/238
f 233/350/233 238/359/238 239/360/239
f 239/360/239 240/361/240 235/355/235
f 240/361/240 241/362/241 236/357/236
f 241/362/241 242/342/242 237/339/237
f 171/363/171 170/368/170 243/364/243
f 243/364/243 244/370/244 239/360/239
f 239/360/239 244/370/244 245/365/245
f 245/365/245 246/366/246 241/362/241
f 246/366/246 247/344/247 242/342/242
f 169/367/169 248/369/248 243/364/243
f 248/369/248 249/371/249 244/370/244
f 249/371/249 250/376/250 245/365/245
f 245/365/245 250/376/250 251/372/251
f 246/366/246 251/372/251 252/348/252
f 168/373/168 253/374/253 248/369/248
f 253/374/253 254/375/254 249/371/249
f 254/375/254 255/381/255 250/376/250
f 250/376/250 255/381/255 256/377/256
f 251/372/251 256/377/256 257/285/257
f 146/378/146 187/379/187 253/374/253
f 187/379/187 186/380/186 254/375/254
f 186/380/186 185/626/185 255/381/255
f 255/381/255 185/626/185 184/382/184
f 256/377/256 184/382/184 183/383/183
f 262/384/262 153/388/153 140/385/140
f 267/387/267 154/390/154 153/388/153
f 267/387/267 272/391/272 155/389/155
f 272/391/272 277/393/277 156/392/156
f 277/393/277 282/282/282 157/284/157
f 144/394/144 197/404/197 258/395/258
f 202/396/202 258/395/258 259/397/259
f 201/398/201 259/397/259 260/399/260
f 260/399/260 261/402/261 199/401/199
f 261/402/261 262/384/262 198/386/198
f 196/403/196 263/409/263 258/395/258
f 258/395/258 263/409/263 264/405/264
f 259/397/259 264/405/264 265/406/265
f 265/406/265 266/407/266 261/402/261
f 266/407/266 267/387/267 262/384/262
f 195/408/195 268/414/268 263/409/263
f 263/409/263 268/414/268 269/410/269
f 264/405/264 269/410/269 270/411/270
f 270/411/270 271/412/271 266/407/266
f 271/412/271 272/391/272 267/387/267
f 194/413/194 273/415/273 268/414/268
f 273/415/273 274/416/274 269/410/269
f 274/416/274 275/420/275 270/411/270
f 270/411/270 275/420/275 276/417/276
f 271/412/271 276/417/276 277/393/277
f 194/413/194 193/423/193 278/418/278
f 273/415/273 278/418/278 279/419/279
f 279/419/279 280/426/280 275/420/275
f 275/420/275 280/426/280 281/421/281
f 276/417/276 281/421/281 282/282/282
f 145/422/145 203/424/203 278/418/278
f 203/424/203 204/627/204 279/419/279
f 279/419/279 204/627/204 205/425/205
f 280/426/280 205/425/205 206/427/206
f 281/421/281 206/427/206 207/428/207
f 287/429/287 197/433/197 144/430/144
f 292/432/292 196/435/196 197/433/197
f 297/434/297 195/437/195 196/435/196
f 302/436/302 194/438/194 195/437/195
f 302/436/302 307/279/307 193/281/193
f 146/439/146 182/448/182 283/440/283
f 187/441/187 283/440/283 284/442/284
f 186/443/186 284/442/284 285/444/285
f 285/444/285 286/447/286 184/446/184
f 286/447/286 287/429/287 183/431/183
f 182/448/182 181/452/181 288/449/288
f 288/449/288 289/455/289 284/442/284
f 284/442/284 289/455/289 290/450/290
f 285/444/285 290/450/290 291/451/291
f 286/447/286 291/451/291 292/432/292
f 181/452/181 180/458/180 293/453/293
f 288/449/288 293/453/293 294/454/294
f 294/454/294 295/461/295 290/450/290
f 290/450/290 295/461/295 296/456/296
f 296/456/296 297/434/297 292/432/292
f 179/457/179 298/459/298 293/453/293
f 298/459/298 299/460/299 294/454/294
f 299/460/299 300/466/300 295/461/295
f 295/461/295 300/466/300 301/462/301
f 296/456/296 301/462/301 302/436/302
f 178/463/178 303/464/303 298/459/298
f 303/464/303 304/465/304 299/460/299
f 304/465/304 305/471/305 300/466/300
f 300/466/300 305/471/305 306/467/306
f 301/462/301 306/467/306 307/279/307
f 147/468/147 188/469/188 303/464/303
f 188/469/188 189/470/189 304/465/304
f 189/470/189 190/628/190 305/471/305
f 305/471/305 190/628/190 191/472/191
f 306/467/306 191/472/191 192/473/192
f 312/474/312 182/478/182 146/475/146
f 317/477/317 181/480/181 182/478/182
f 317/477/317 322/482/322 180/479/180
f 327/481/327 179/483/179 180/479/180
f 327/481/327 332/276/332 178/278/178
f 142/484/142 167/494/167 308/485/308
f 172/486/172 308/485/308 309/487/309
f 171/488/171 309/487/309 310/489/310
f 310/489/310 311/492/311 169/491/169
f 311/492/311 312/474/312 168/476/168
f 166/493/166 313/495/313 308/485/308
f 313/495/313 314/496/314 309/487/309
f 314/496/314 315/497/315 310/489/310
f 315/497/315 316/498/316 311/492/311
f 316/498/316 317/477/317 312/474/312
f 166/493/166 165/503/165 318/499/318
f 313/495/313 318/499/318 319/500/319
f 319/500/319 320/501/320 315/497/315
f 320/501/320 321/502/321 316/498/316
f 321/502/321 322/482/322 317/477/317
f 165/503/165 164/508/164 323/504/323
f 318/499/318 323/504/323 324/505/324
f 319/500/319 324/505/324 325/506/325
f 325/506/325 326/511/326 321/502/321
f 321/502/321 326/511/326 327/481/327
f 163/507/163 328/509/328 323/504/323
f 328/509/328 329/514/329 324/505/324
f 324/505/324 329/514/329 330/510/330
f 330/510/330 331/517/331 326/511/326
f 326/511/326 331/517/331 332/276/332
f 143/512/143 173/513/173 328/509/328
f 173/513/173 174/515/174 329/514/329
f 174/515/174 175/629/175 330/510/330
f 330/510/330 175/629/175 176/516/176
f 331/517/331 176/516/176 177/518/177
f 337/519/337 167/523/167 142/520/142
f 342/522/342 166/525/166 167/523/167
f 347/524/347 165/527/165 166/525/166
f 347/524/347 352/528/352 164/526/164
f 352/528/352 357/273/357 163/275/163
f 140/529/140 153/536/153 333/530/333
f 333/530/333 334/539/334 151/532/151
f 151/532/151 334/539/334 335/533/335
f 335/533/335 336/541/336 149/535/149
f 149/535/149 336/541/336 337/519/337
f 153/536/153 154/543/154 338/537/338
f 333/530/333 338/537/338 339/538/339
f 334/539/334 339/538/339 340/540/340
f 340/540/340 341/542/341 336/541/336
f 341/542/341 342/522/342 337/519/337
f 154/543/154 155/548/155 343/544/343
f 338/537/338 343/544/343 344/545/344
f 344/545/344 345/551/345 340/540/340
f 340/540/340 345/551/345 346/546/346
f 346/546/346 347/524/347 342/522/342
f 156/547/156 348/553/348 343/544/343
f 343/544/343 348/553/348 349/549/349
f 344/545/344 349/549/349 350/550/350
f 350/550/350 351/556/351 346/546/346
f 346/546/346 351/556/351 352/528/352
f 157/552/157 353/554/353 348/553/348
f 353/554/353 354/559/354 349/549/349
f 349/549/349 354/559/354 355/555/355
f 355/555/355 356/562/356 351/556/351
f 351/556/351 356/562/356 357/273/357
f 141/557/141 158/558/158 353/554/353
f 158/558/158 159/630/159 354/559/354
f 354/559/354 159/630/159 160/560/160
f 355/555/355 160/560/160 161/561/161
f 356/562/356 161/561/161 162/563/162
f 369/202/369 440/204/440 368/565/368
f 133/216/133 420/631/420 396/632/396
f 380/579/380 437/15/437 436/30/436
f 391/210/391 435/212/435 389/602/389
f 27/633/27 396/162/396 417/271/417
f 377/207/377 432/224/432 359/634/359
f 373/213/373 433/215/433 380/611/380
f 369/202/369 430/206/430 441/203/441
f 429/222/429 373/213/373 368/622/368
f 368/565/368 440/204/440 429/635/429
f 427/636/427 391/210/391 363/601/363
f 436/30/436 363/637/363 380/579/380
f 97/94/97 403/93/403 404/36/404
f 137/219/137 423/99/423 424/35/424
f 139/613/139 423/99/423 137/219/137
f 137/219/137 422/34/422 11/638/11
f 133/216/133 421/218/421 420/631/420
f 427/636/427 434/211/434 391/210/391
f 121/226/121 415/164/415 416/161/416
f 121/226/121 417/271/417 415/164/415
f 119/225/119 416/161/416 414/152/414
f 112/167/112 412/612/412 111/174/111
f 426/163/426 385/610/385 389/587/389
f 408/151/408 398/150/398 414/152/414
f 408/151/408 63/38/63 48/149/48
f 418/103/418 397/221/397 411/104/411
f 395/96/395 419/102/419 406/97/406
f 97/94/97 404/36/404 98/101/98
f 98/101/98 405/98/405 402/100/402
f 402/623/402 74/90/74 98/91/98
f 425/95/425 406/97/406 401/160/401
f 400/156/400 97/94/97 63/38/63
f 418/103/418 411/104/411 399/158/399
f 433/270/433 431/639/431 429/194/429
f 414/152/414 416/161/416 420/159/420
f 402/100/402 423/99/423 401/160/401
f 119/225/119 398/150/398 48/149/48
f 44/220/44 411/104/411 397/221/397
f 139/613/139 425/95/425 423/99/423
f 27/633/27 417/271/417 121/226/121
f 133/216/133 396/632/396 27/260/27
f 436/30/436 427/29/427 363/637/363
f 139/613/139 395/96/395 425/95/425
f 11/638/11 394/92/394 421/153/421
f 11/638/11 422/34/422 394/92/394
