# Blender 5.0.1
# www.blender.org
mtllib seaform_h.mtl
o seaform_h_rock
usemtl seaform_h_rock
v 1.186133 0.684378 -0.641369
v 1.966483 0.044208 -0.707845
v 0.823370 0.025150 -0.271207
v 0.537107 0.574375 0.032003
v 1.228233 0.947281 -0.140527
v 2.187259 0.517399 -0.558887
v 1.014240 0.652291 0.660227
v 1.997209 0.466096 0.243509
v 1.673104 0.060045 0.653657
v -1.740756 0.188194 -0.532227
v -2.409348 0.210338 -0.552010
v -1.142295 0.248795 -1.012333
v -1.449710 0.506175 -0.597773
v -2.280735 0.682468 -0.466853
v -2.170047 0.290347 -1.338144
v -1.384065 0.136797 -1.526642
v -1.147443 0.637092 -1.297787
v -1.892564 0.946700 -1.131569
v -2.424196 0.703815 -0.985542
v -1.808020 0.706221 -1.572016
v -0.379846 0.490980 1.694021
v -0.039731 0.035846 1.496367
v 0.247738 0.607727 1.316073
v -0.065272 0.857395 1.243584
v -0.906009 0.581707 1.280847
v 0.504302 0.221738 0.872897
v 0.256234 0.760504 0.566886
v -0.699909 0.691515 0.761347
v -0.812284 0.088346 0.927917
v -0.210120 0.194358 0.620621
v 0.740422 0.586324 -1.591928
v 1.270685 0.421909 -1.568273
v 0.493848 0.379862 -1.318842
v 0.317113 0.769880 -1.229016
v 0.646933 1.078151 -1.197199
v 1.376134 0.786695 -1.586545
v 0.932726 0.273215 -0.897752
v 0.418766 0.702442 -0.763740
v 0.629493 1.039393 -0.751670
v 1.109266 0.911177 -1.049440
v 1.482166 0.556096 -1.111286
v 1.055719 0.659861 -0.741836
v -1.748183 0.420072 0.554920
v -2.125943 0.247565 0.059506
v -1.347617 0.295390 0.433808
v -1.047955 0.673326 0.671474
v -1.566649 0.885729 0.537445
v -2.257480 0.753522 -0.014973
v -1.459040 0.276821 -0.424224
v -0.761755 0.574286 0.042289
v -0.907637 1.097749 0.102939
v -1.595716 1.154064 -0.228479
v -2.028803 0.720349 -0.605443
v -1.340298 0.928745 -0.451373
v 0.651159 0.661378 0.311688
v 1.371578 0.660430 0.019806
v 1.001975 0.444955 0.663788
v 0.591739 0.758094 0.956233
v 0.681519 0.972911 0.559376
v 1.193030 0.987801 -0.115757
v 1.407585 0.540672 0.740661
v 0.994987 0.578599 1.344482
v 0.932094 1.073340 1.264559
v 1.370491 1.282111 0.587503
v 1.679808 1.032539 0.297429
v 1.474895 1.145128 0.902011
v -0.499615 0.708475 -0.993974
v -0.906056 0.761248 -0.641923
v -0.503144 0.547575 -1.349182
v -0.410372 0.734884 -1.579442
v -0.434703 1.037805 -1.321125
v -0.740350 1.106322 -0.591821
v -1.251673 0.737533 -1.174307
v -0.886150 0.574585 -1.839514
v -0.920462 1.092158 -1.928399
v -0.970674 1.253386 -1.095047
v -1.344919 0.990637 -0.793337
v -1.241456 0.912637 -1.492566
v -0.909567 0.682785 0.821077
v -1.225542 0.979120 0.328465
v -0.675612 0.457337 0.743893
v -0.475975 0.583253 1.048248
v -0.748065 0.941836 1.016449
v -1.028511 1.241190 0.347498
v -0.594516 0.587046 0.322820
v -0.210593 0.441574 0.841424
v -0.150547 0.842473 1.011874
v -0.433954 1.264671 0.565446
v -0.783118 1.061869 0.115972
v -0.171123 0.937775 0.473208
v 0.478910 1.060433 -0.848043
v 0.956065 1.151860 -1.169400
v 0.483906 0.697317 -0.848320
v 0.316510 0.836477 -0.292937
v 0.357554 1.151647 -0.412227
v 0.905620 1.401205 -1.033214
v 0.951703 0.636302 -0.758941
v 0.714704 0.425458 -0.310351
v 0.574767 0.824858 0.034163
v 1.033693 1.197877 -0.325248
v 1.243355 1.243887 -0.882203
v 1.085290 0.768257 -0.428149
v -1.624177 1.125924 -0.471328
v -1.290313 0.866879 -0.841956
v -1.589079 0.932526 -0.255507
v -1.578131 1.262512 0.120056
v -1.512062 1.364246 -0.275235
v -1.277575 1.243918 -0.886878
v -1.168457 0.765609 -0.334706
v -1.295693 1.051708 0.135575
v -1.262192 1.290777 0.089790
v -0.936891 1.455016 -0.376191
v -0.977601 1.013691 -0.707699
v -0.963281 1.101247 -0.337998
v -0.053119 1.212087 0.359908
v 0.371617 1.242835 -0.128736
v 0.019477 1.093195 0.326563
v -0.095159 1.033930 0.766405
v -0.101278 1.356994 0.491682
v 0.139641 1.579968 -0.003713
v 0.481984 1.172223 0.417376
v 0.319358 0.986490 0.752848
v 0.269983 1.241249 0.868969
v 0.391286 1.513067 0.568823
v 0.637490 1.324584 0.230170
v 0.562674 1.210719 0.585977
v -0.289274 1.428874 -1.017917
v 0.205103 1.222571 -0.968874
v -0.446683 1.166900 -1.008966
v -0.802829 1.394786 -0.787461
v -0.273951 1.614565 -0.752466
v 0.338354 1.539614 -0.792552
v 0.063144 0.926255 -0.618791
v -0.707434 1.108296 -0.418303
v -0.657885 1.530315 -0.404647
v 0.018782 1.514729 -0.379548
v 0.186925 1.336947 -0.528069
v -0.082044 1.313906 -0.333902
v -0.758443 1.683450 -0.390353
v -0.288152 1.561413 -0.008429
v -0.835583 1.380845 -0.218753
v -1.278296 1.635915 -0.258813
v -0.983162 1.833834 -0.180496
v -0.371529 1.874187 -0.027580
v -0.674468 1.163418 0.000547
v -1.141834 1.225922 -0.039443
v -1.287868 1.654191 0.148786
v -0.637281 1.726095 0.330309
v -0.440319 1.418897 0.289555
v -0.850609 1.430766 0.333727
v 0.437886 1.482127 0.026626
v 0.256020 1.540220 0.396227
v 0.196045 1.258385 -0.015133
v 0.341732 1.406137 -0.448379
v 0.344331 1.666389 -0.243524
v 0.056446 1.764574 0.344980
v -0.198105 1.228019 0.098684
v -0.190490 1.036000 -0.388319
v -0.019788 1.512101 -0.592631
v -0.196095 1.658913 -0.152645
v -0.283293 1.617535 0.218386
v -0.265626 1.504539 -0.299371
v -0.572430 1.656745 -0.239488
v -0.233628 1.383830 -0.752802
v -0.403233 1.372781 -0.103934
v -0.628567 1.810810 0.217643
v -0.470239 1.990259 -0.210302
v -0.210542 1.719993 -0.722976
v 0.132382 1.519462 -0.155090
v -0.364996 1.697173 0.397606
v -0.366754 2.033973 0.104838
v -0.003369 2.102391 -0.344367
v 0.036456 1.702073 -0.496995
v 0.194846 1.786805 -0.029118
v -1.076316 0.060000 -1.152620
v -1.513773 0.060000 0.186608
v -1.066622 0.302936 -0.395494
v 0.361414 0.245437 -1.765594
v -0.829119 0.221856 1.237358
v 0.593158 0.326786 0.035551
v 1.376628 0.060000 -0.676939
v 0.550726 0.060000 0.780973
v 0.359858 0.060000 -1.754991
v -0.524729 0.151073 -1.630955
v -1.683083 0.060000 -0.553304
v -1.330656 0.212155 -1.007539
v -1.617479 0.185389 -0.032658
v -0.452264 0.336159 -1.230520
v 0.780300 0.133338 -1.065936
v -1.080201 0.312132 0.499602
v -1.686358 0.162151 1.009660
v 0.437765 0.280486 -0.777706
v -0.263972 0.297886 -0.187222
v -0.894027 0.060000 1.404873
v -0.115901 0.280308 0.632236
v 1.249087 0.213498 -0.358167
v 1.139969 0.060000 0.176951
v 0.007245 0.156811 1.311668
v 0.895538 0.218435 0.703972
v 2.090950 0.000000 -0.527038
v 2.329578 0.000000 -0.206784
v 0.863971 0.000000 -0.253452
v 1.925622 0.000000 -0.636176
v 0.712091 0.000000 0.532774
v 0.791919 0.000000 0.007894
v 0.748629 0.000000 0.583559
v 2.295334 0.000000 -0.078055
v 1.656278 0.000000 0.576833
v 1.939177 0.000000 0.343048
v 1.163427 0.000000 0.612613
v -1.741989 0.000000 -0.868479
v -1.967447 0.000000 -0.888488
v -1.562153 0.000000 -1.045404
v -1.857756 0.000000 -1.134617
v -1.585309 0.000000 -1.264574
v -0.696988 0.000000 1.452864
v -0.367435 0.000000 1.466323
v -0.733544 0.000000 1.424250
v -0.749576 0.000000 1.279462
v -0.093323 0.000000 1.379620
v -0.658518 0.000000 0.888546
v 0.023941 0.000000 0.838106
v -0.286149 0.000000 0.720726
v -1.160386 0.000000 -1.072341
v 0.350503 0.000000 -1.732783
v -1.661404 0.000000 0.123169
v -1.358018 0.000000 0.614852
v -0.729266 0.000000 -1.487836
v 1.133702 0.000000 -1.051582
v 1.363763 0.000000 -0.568089
v -0.856212 0.000000 1.310276
v 0.652737 0.000000 0.737043
v 0.139609 0.000000 1.037083
v -0.020161 0.000000 1.162049
v -0.272290 0.000000 1.214957
v 1.030451 0.000000 0.349856
v 1.210311 0.000000 -0.014421
v -1.351285 0.000000 0.727709
v -1.249651 0.000000 0.827873
v 0.959513 0.000000 -1.216736
v 0.777886 0.000000 -1.428844
v -1.772550 0.000000 -0.362557
v -1.509184 0.000000 -0.727826
v -0.210613 0.000000 -1.705374
v -0.531554 0.000000 -1.668824
vn -0.3341 -0.3150 -0.8884
vn 0.1204 0.2466 -0.9616
vn -0.7206 0.0072 -0.6933
vn -0.5110 0.7780 -0.3654
vn 0.1828 0.8641 -0.4690
vn -0.0000 -1.0000 -0.0000
vn -0.4226 0.8812 0.2117
vn 0.4625 0.8711 0.1652
vn 0.3324 0.8527 0.4030
vn 0.4150 -0.7587 0.5021
vn 0.0442 -0.7918 0.6092
vn 0.4191 0.4576 0.7842
vn 0.7628 0.0428 0.6452
vn -0.0347 -0.1682 0.9851
vn 0.5971 -0.4036 0.6933
vn 0.1660 0.0511 0.9848
vn -0.9406 0.2078 0.2687
vn -0.5657 -0.7851 -0.2521
vn 0.8450 0.3240 0.4255
vn 0.2538 0.8388 0.4817
vn -0.9051 -0.2957 -0.3056
vn -0.2902 -0.7386 -0.6084
vn 0.8950 -0.2564 -0.3649
vn 0.4245 0.8391 0.3402
vn -0.3787 0.9145 0.1424
vn -0.6773 0.1899 -0.7108
vn -0.2751 -0.2781 -0.9203
vn 0.3936 0.2219 -0.8921
vn 0.2659 0.8666 -0.4221
vn -0.4700 0.7337 -0.4908
vn -0.6163 0.0114 0.7874
vn 0.5142 0.0119 0.8576
vn 0.3211 0.6124 0.7224
vn -0.2497 0.8292 0.5001
vn -0.9602 -0.2585 0.1063
vn 0.7671 -0.1927 0.6119
vn 0.5907 0.7893 0.1676
vn -0.3075 0.9483 0.0785
vn -0.5176 -0.8471 -0.1206
vn 0.8794 0.4644 0.1047
vn -0.1093 0.9754 -0.1916
vn -0.9322 0.0760 -0.3538
vn -0.3926 -0.2951 -0.8711
vn 0.3238 -0.3501 -0.8790
vn -0.2040 0.0754 -0.9761
vn -0.4248 -0.1666 -0.8898
vn -0.1850 -0.6963 -0.6935
vn 0.0266 -0.0577 -0.9980
vn -0.6790 -0.1418 -0.7203
vn -0.4144 0.5204 -0.7466
vn -0.1807 0.5945 -0.7835
vn 0.9004 -0.2771 -0.3353
vn -0.0198 -0.9739 -0.2260
vn -0.8911 -0.4342 0.1318
vn -0.6843 0.7283 0.0366
vn 0.3513 0.9353 -0.0422
vn 0.4700 -0.8817 0.0414
vn -0.5376 -0.7586 0.3681
vn -0.8242 0.5064 0.2535
vn 0.3113 0.9456 0.0944
vn 0.6937 0.6966 0.1832
vn 0.5166 -0.4565 0.7244
vn -0.0560 -0.3580 0.9320
vn -0.0353 -0.0137 0.9993
vn 0.5292 0.6096 0.5902
vn 0.6186 0.5523 0.5589
vn -0.1495 -0.8928 0.4249
vn -0.7719 -0.1085 0.6264
vn 0.0700 -0.5702 0.8185
vn -0.2037 0.1159 0.9721
vn -0.6321 0.2736 0.7250
vn -0.8997 -0.2828 -0.3325
vn 0.0544 -0.9984 0.0145
vn 0.5926 -0.7096 0.3812
vn 0.1573 0.7724 0.6154
vn -0.4151 0.8536 0.3148
vn -0.3829 -0.7255 -0.5718
vn 0.4111 -0.9109 -0.0337
vn 0.9023 0.2077 0.3777
vn -0.0832 0.9395 0.3323
vn -0.5601 0.7862 -0.2611
vn 0.2418 -0.0843 -0.9666
vn 0.5913 -0.1408 -0.7941
vn 0.7159 0.2739 -0.6423
vn 0.3009 0.8210 -0.4852
vn -0.0413 0.6786 -0.7333
vn -0.1613 -0.9043 -0.3952
vn -0.3241 -0.5074 -0.7984
vn -0.5734 -0.8163 0.0696
vn -0.9748 0.1890 -0.1182
vn -0.7029 0.4834 -0.5218
vn 0.6448 0.0355 -0.7635
vn 0.2569 -0.9512 -0.1709
vn -0.5250 -0.8361 0.1588
vn -0.7499 0.6378 0.1756
vn -0.3847 0.8820 -0.2720
vn 0.8102 -0.5703 -0.1352
vn 0.1910 -0.9628 0.1910
vn -0.6863 0.0302 0.7267
vn -0.4099 0.9120 0.0158
vn 0.2868 0.8558 -0.4305
vn 0.9173 -0.1948 0.3472
vn 0.7950 -0.2375 0.5582
vn 0.5257 0.2004 0.8267
vn 0.1200 0.9242 0.3627
vn 0.6768 0.7302 0.0934
vn 0.2309 -0.8871 0.3996
vn 0.5763 -0.3817 0.7226
vn 0.9427 -0.3073 0.1298
vn 0.9878 -0.0472 0.1484
vn 0.9127 0.1830 0.3653
vn -0.3189 0.0155 0.9477
vn -0.2036 -0.9633 0.1751
vn 0.4886 -0.7628 -0.4236
vn 0.6994 0.4954 -0.5151
vn 0.4017 0.9120 0.0827
vn -0.5278 -0.7613 0.3766
vn -0.2185 -0.9688 0.1173
vn 0.5057 -0.1134 -0.8552
vn 0.3083 0.9373 -0.1628
vn -0.2969 0.8714 0.3906
vn -0.9772 -0.1711 -0.1255
vn -0.7967 -0.5184 -0.3108
vn -0.7628 -0.1582 -0.6270
vn -0.6559 0.7327 -0.1813
vn -0.6579 0.7316 -0.1790
vn -0.6922 -0.7217 0.0099
vn -0.6256 0.4228 0.6556
vn -0.4583 -0.6740 0.5794
vn -0.4960 -0.3042 0.8133
vn -0.8686 0.1996 0.4535
vn -0.4565 0.4009 -0.7943
vn -0.4982 -0.7970 -0.3415
vn -0.1239 -0.8856 0.4477
vn 0.0255 0.1075 0.9939
vn -0.2063 0.8580 0.4704
vn -0.3054 -0.4796 -0.8226
vn 0.0282 -0.9568 -0.2893
vn 0.4158 -0.4079 0.8129
vn 0.1313 0.7605 0.6359
vn 0.1500 0.8523 -0.5011
vn 0.4655 -0.1915 -0.8641
vn 0.6252 -0.4966 -0.6021
vn 0.9906 -0.1230 -0.0596
vn 0.7876 0.6112 0.0781
vn 0.4951 0.5805 -0.6465
vn -0.5577 -0.0070 -0.8300
vn -0.5717 0.3012 -0.7632
vn -0.9583 -0.0130 -0.2856
vn -0.9619 0.0221 -0.2725
vn -0.6723 0.6645 -0.3263
vn 0.5352 0.4857 -0.6911
vn 0.0680 -0.6218 -0.7802
vn -0.7185 -0.6943 -0.0426
vn -0.7378 0.3209 0.5939
vn -0.1025 0.9510 0.2917
vn 0.6996 -0.4486 -0.5561
vn -0.0331 -0.8977 -0.4394
vn -0.6238 -0.6242 0.4703
vn -0.1331 0.7677 0.6268
vn 0.3374 0.9192 0.2030
vn 0.8741 -0.4544 -0.1717
vn 0.6818 -0.7314 0.0164
vn 0.5912 -0.3980 0.7015
vn 0.6620 -0.0985 0.7430
vn 0.9348 0.0274 0.3542
vn -0.7824 -0.5216 -0.3402
vn -0.7597 -0.0516 -0.6483
vn -0.9927 -0.0747 0.0945
vn -0.8933 0.4482 -0.0340
vn -0.6739 0.6319 -0.3827
vn 0.4390 -0.1209 -0.8903
vn -0.3822 -0.9195 -0.0918
vn -0.5088 -0.6393 0.5765
vn -0.0638 0.9690 0.2387
vn -0.1950 0.9455 -0.2608
vn 0.5047 -0.8153 -0.2840
vn -0.2544 -0.8553 0.4515
vn 0.0782 0.1769 0.9811
vn -0.1048 0.9586 0.2647
vn 0.6767 0.4013 -0.6173
vn 0.8501 -0.5188 0.0899
vn 0.7508 -0.4543 0.4795
vn 0.8187 -0.0048 0.5742
vn 0.8199 0.0007 0.5726
vn 0.9969 -0.0766 -0.0205
vn -0.7207 -0.2598 -0.6428
vn -0.7211 -0.2577 -0.6431
vn -0.8521 -0.4413 -0.2815
vn -0.9709 -0.1654 -0.1729
vn -0.9092 0.0709 -0.4103
vn 0.5710 0.6005 -0.5598
vn 0.1975 -0.9663 -0.1649
vn -0.1174 -0.9797 -0.1626
vn -0.5015 0.5549 0.6637
vn -0.3279 0.9109 0.2505
vn 0.5397 -0.8141 -0.2143
vn 0.2283 -0.8944 -0.3845
vn -0.0181 -0.4176 0.9085
vn -0.3288 0.7623 0.5575
vn 0.4965 0.8600 -0.1177
vn 0.6184 -0.7769 -0.1186
vn 0.6254 -0.7705 -0.1234
vn 0.6710 -0.1959 0.7151
vn 0.6562 0.4080 0.6347
vn 0.8147 0.4803 0.3250
vn 0.0676 -0.0746 -0.9949
vn 0.2500 0.3882 -0.8870
vn -0.4116 0.2171 -0.8851
vn -0.2933 0.7912 -0.5366
vn 0.0623 0.8161 -0.5745
vn 0.8773 -0.4544 0.1541
vn 0.1046 -0.7796 -0.6175
vn -0.6502 -0.6723 -0.3538
vn -0.3668 0.9119 -0.1840
vn 0.1302 0.9785 0.1597
vn 0.9430 -0.3106 0.1195
vn -0.2772 -0.9364 -0.2153
vn -0.9417 0.1002 0.3211
vn 0.0131 0.9684 0.2490
vn 0.7654 0.2182 0.6054
vn 0.5698 -0.3373 0.7493
vn 0.0776 -0.5714 0.8170
vn -0.1282 -0.0170 0.9916
vn -0.0306 0.2361 0.9712
vn 0.5879 -0.1131 0.8010
vn 0.4506 -0.5245 -0.7224
vn 0.6449 0.1257 -0.7539
vn -0.1802 -0.4501 -0.8746
vn -0.2421 0.6471 -0.7230
vn 0.0756 0.8471 -0.5260
vn 0.8094 0.2484 0.5321
vn 0.4457 -0.4501 -0.7738
vn -0.2228 -0.5165 -0.8268
vn -0.5470 0.8356 -0.0503
vn -0.1353 0.9470 0.2914
vn 0.7175 -0.6957 0.0337
vn -0.0377 -0.7234 -0.6894
vn -0.9475 -0.3196 -0.0079
vn -0.1932 0.9254 0.3260
vn 0.6777 0.3486 0.6475
vn 0.0467 -0.7669 0.6401
vn -0.1567 -0.8091 0.5664
vn -0.5392 -0.4861 0.6877
vn -0.2845 0.2163 0.9340
vn 0.1050 -0.0643 0.9924
vn 0.5847 -0.7065 0.3988
vn 0.6982 0.6753 0.2374
vn 0.6809 -0.7321 -0.0207
vn 0.9614 0.1643 -0.2209
vn 0.6943 0.6834 0.2256
vn -0.3215 -0.0703 0.9443
vn 0.2163 -0.8198 0.5302
vn 0.5616 -0.8223 -0.0916
vn 0.4435 0.5516 -0.7064
vn -0.0448 0.9816 -0.1857
vn -0.3382 -0.3432 0.8763
vn 0.1754 -0.9149 0.3635
vn 0.2145 -0.4491 -0.8674
vn -0.0703 0.9374 -0.3410
vn -0.3998 0.9166 0.0083
vn -0.9759 -0.2178 0.0142
vn -0.9846 -0.1675 0.0506
vn -0.7663 -0.0009 -0.6424
vn -0.5650 0.6877 -0.4559
vn -0.8454 0.5150 -0.1413
vn -0.7899 -0.5739 -0.2162
vn -0.8026 0.1072 -0.5868
vn -0.8696 -0.4903 0.0584
vn -0.9281 0.3033 -0.2162
vn -0.7843 0.2884 -0.5493
vn 0.6756 0.0190 -0.7370
vn 0.2685 -0.9618 0.0538
vn -0.5991 -0.6507 0.4665
vn -0.6214 0.7776 0.0962
vn -0.3428 0.7482 -0.5681
vn 0.8294 -0.3616 -0.4258
vn 0.2723 -0.8173 0.5078
vn -0.2271 0.6382 0.7356
vn -0.2475 0.9674 -0.0529
vn 0.6509 0.3261 -0.6856
vn 0.9485 -0.0769 -0.3072
vn 0.5851 -0.4535 0.6723
vn 0.4247 0.5952 0.6822
vn 0.4469 0.7570 0.4768
vn 0.9102 0.2235 -0.3486
vn -0.0459 -0.3405 -0.9391
vn -0.6295 -0.4445 -0.6373
vn -0.5992 -0.2901 -0.7462
vn 0.5396 -0.3650 -0.7587
vn 0.3420 0.8677 -0.3607
vn 0.1474 -0.6961 0.7026
vn -0.2171 0.9761 -0.0133
vn 0.0835 0.9956 -0.0418
vn -0.6601 0.2106 -0.7211
vn 0.3009 -0.5271 -0.7948
vn -0.4184 -0.9079 0.0250
vn 0.0089 0.9999 -0.0101
vn 0.3507 0.9345 -0.0603
vn 0.8843 0.4033 0.2352
vn -0.0056 0.7202 0.6937
vn 0.0508 0.9892 0.1374
vn 0.9358 0.2389 0.2594
vn 0.4541 -0.7730 0.4430
vn 0.8753 0.3872 0.2896
vn 0.2073 0.9762 0.0645
vn 0.4436 -0.6840 0.5791
vn 0.0481 0.9842 0.1702
vn 0.0616 0.9839 0.1677
vn -0.2159 -0.7713 -0.5988
vn -0.9075 -0.3968 -0.1380
vn 0.7883 -0.1829 -0.5874
vn 0.4923 0.2206 0.8420
vn -0.0696 -0.0884 0.9936
vn 0.5848 0.5766 0.5705
vn 0.8434 -0.3394 0.4164
vn 0.9285 0.2678 0.2573
vn 0.3116 0.8989 -0.3082
vn 0.2036 0.9486 -0.2423
vn 0.1229 0.9892 -0.0798
vn -0.0412 0.9987 0.0289
vn 0.0308 0.9994 0.0159
vn 0.0168 0.9931 0.1158
vn -0.2197 0.7427 0.6325
vn 0.4673 -0.6517 0.5974
vn -0.4329 -0.8294 0.3530
vn 0.5122 -0.8572 -0.0541
vn 0.6471 -0.6974 -0.3079
vn -0.0199 0.9984 -0.0530
vn 0.0483 0.9984 0.0279
vn -0.0034 0.9993 0.0373
vn -0.1102 0.9813 0.1576
vn -0.2353 0.9719 0.0061
vn -0.7125 -0.6989 -0.0627
vn -0.0370 -0.4212 0.9062
vn -0.7023 0.0327 -0.7111
vn 0.4121 -0.9068 0.0892
vn -0.2447 -0.9373 0.2483
vn 0.3758 0.8690 -0.3218
vn -0.1097 0.2463 -0.9630
vn 0.8548 -0.0368 -0.5177
vn -0.1560 0.9071 -0.3910
vn -0.2224 0.8997 -0.3756
vn -0.1586 0.9843 -0.0776
vn -0.2352 0.9710 -0.0425
vn -0.5333 0.8353 -0.1340
vn -0.9000 -0.3842 0.2059
vn -0.1442 -0.0553 -0.9880
vn -0.6802 -0.5449 -0.4904
vn -0.7853 0.2533 0.5650
vn 0.0913 -0.8240 0.5591
vn -0.4091 0.9077 0.0936
vn 0.4321 -0.7876 0.4392
vn -0.0433 -0.8717 0.4881
vn -0.4637 0.8385 0.2861
vn -0.6939 0.0089 -0.7200
vn 0.0816 -0.9627 0.2581
vn -0.2159 -0.7712 -0.5988
vn -0.4795 -0.8675 -0.1322
vn 0.2606 -0.8810 -0.3948
vt -1.208420 0.570315
vt -1.858713 0.036840
vt -0.906118 0.020958
vt -2.042693 0.431166
vt -0.378456 0.570315
vt -0.069988 0.020958
vt 0.182687 0.478646
vt 1.208420 -0.378456
vt 0.667566 0.182687
vt 1.243504 0.038913
vt 2.042693 -0.309721
vt 1.078686 -0.447565
vt 0.763924 -0.770221
vt -0.747012 0.737599
vt -0.387745 1.083845
vt 1.019571 0.857928
vt 0.044466 1.265126
vt 0.512062 1.287967
vt 0.868215 1.034685
vt 1.065176 0.706208
vt 1.884318 0.358943
vt 1.164728 0.720300
vt 1.228570 -0.144001
vt -0.222985 1.234668
vt -0.404670 -1.222237
vt -0.328788 -0.896473
vt -0.086219 -1.377954
vt 1.600208 -0.636713
vt 1.835958 -0.441892
vt 1.614230 -0.700733
vt 1.189499 -0.666529
vt -1.231681 0.567714
vt -1.419562 0.584388
vt -1.328154 0.789495
vt 1.884318 0.388413
vt 1.065176 0.543576
vt 1.614230 0.050037
vt -0.358943 0.388413
vt -0.441892 0.000000
vt -0.090972 0.000000
vt -0.911705 -0.668395
vt -1.164527 -0.258659
vt -1.037677 0.450503
vt -1.787813 0.175282
vt -1.230653 0.156828
vt -1.680636 0.568724
vt 0.336317 -1.020254
vt 0.203175 -1.124393
vt -0.006932 -1.168483
vt -0.731936 0.207329
vt -0.988115 0.421812
vt -0.303990 0.175282
vt -0.233026 0.568724
vt -0.665267 0.586513
vt -1.588396 0.959102
vt 0.342126 0.421812
vt 0.687592 0.207329
vt 0.925471 0.530910
vt -1.680636 -0.233026
vt -0.988115 -0.342126
vt -1.357160 -0.786955
vt -0.959102 0.241955
vt -1.101114 0.897793
vt 1.116184 0.113997
vt -0.736226 -0.925471
vt -1.800187 -0.665267
vt 1.588396 0.241955
vt 1.800187 0.586513
vt 1.286707 0.588518
vt 0.933411 0.113997
vt 0.736226 0.530910
vt -1.286707 -1.153995
vt -0.360847 0.000000
vt -0.535031 0.484756
vt -0.391310 0.000000
vt -0.096561 0.409150
vt 0.186868 0.029872
vt 0.426425 0.506439
vt 0.165583 0.714496
vt -0.096561 1.567703
vt 0.165583 1.192339
vt -0.535031 1.223391
vt 1.223391 0.484756
vt 1.222237 0.000000
vt 1.342893 0.000000
vt -0.821400 -0.845913
vt -1.252746 0.506439
vt -1.402991 0.029872
vt -0.883433 0.184782
vt 0.426425 1.252746
vt 0.433505 0.628423
vt -0.363281 0.790475
vt -0.456927 -0.929283
vt -0.628423 0.633754
vt 0.790475 0.576263
vt 0.929283 0.073622
vt 0.328788 0.000000
vt -0.044877 0.161965
vt 0.018481 0.000000
vt -0.433505 0.633754
vt -0.640228 0.184782
vt 0.363281 0.576263
vt 0.456927 0.073622
vt 0.836995 1.170588
vt 1.278881 1.150875
vt 0.631517 0.943016
vt -1.278881 0.351591
vt -0.836995 0.488604
vt -1.366755 0.655579
vt -0.631517 0.316552
vt -0.484237 0.641567
vt -0.759088 0.898459
vt 1.150875 0.351591
vt 1.166103 0.655579
vt 0.770053 0.463414
vt 0.997248 0.592108
vt -0.868162 0.641567
vt -0.943016 0.316552
vt -0.480432 0.585368
vt 0.759088 -0.841647
vt 0.484237 -0.868162
vt 0.744554 -0.470373
vt 1.366755 -1.166103
vt 1.144365 -0.718515
vt 1.455115 0.770053
vt 0.568948 0.480432
vt -0.470373 0.866161
vt 1.455115 -0.770053
vt 0.997248 0.227679
vt 1.455115 0.463414
vt 1.099742 0.549884
vt 0.568948 0.585368
vt 0.744554 0.866161
vt 1.099742 -0.462178
vt 0.718515 0.759314
vt 0.462178 0.549884
vt -1.236842 -0.618452
vt -1.551643 -0.205607
vt -0.903038 -0.517525
vt 0.205607 0.206305
vt 0.618452 0.350060
vt 0.143541 0.627935
vt -1.236842 0.350060
vt -0.903038 0.246158
vt -0.653319 0.561105
vt -1.085564 0.738107
vt -1.661256 0.627935
vt -0.348518 0.600291
vt -0.995890 0.197502
vt -0.653319 -0.715580
vt -0.414819 -0.191259
vt -1.085564 0.603889
vt -0.653319 0.715580
vt -0.536388 0.241801
vt -1.661256 0.143541
vt -1.109787 -0.034381
vt -1.470693 0.348518
vt -0.715580 0.561105
vt -0.191259 0.478571
vt -0.241801 0.914791
vt -1.470693 -0.348518
vt 0.995890 0.230685
vt 1.470693 0.600291
vt 0.896938 0.773954
vt 0.414819 0.478571
vt 0.220126 0.773954
vt -0.896938 -0.220126
vt 1.109787 0.961720
vt 0.762609 -0.415758
vt 1.362958 -0.172523
vt 1.054956 -0.709175
vt -1.362958 0.550359
vt -0.762609 0.551149
vt -1.214168 0.823168
vt 0.713093 -0.952879
vt 0.415758 0.551149
vt 0.952879 0.631745
vt 0.622165 0.810759
vt 0.059555 0.823168
vt -1.619817 0.860449
vt 1.392964 -0.773236
vt 1.049133 -1.276420
vt 1.209818 0.894450
vt 1.214168 0.059555
vt 0.787909 0.622165
vt 1.362053 0.645605
vt -0.172523 0.550359
vt -0.403876 0.860449
vt -0.773236 0.450560
vt 0.713093 0.631745
vt 1.049133 0.482165
vt 0.996721 0.894450
vt 0.996721 1.209818
vt 1.619817 0.403876
vt -0.907694 0.954274
vt -1.276420 0.482165
vt 1.449055 0.954274
vt 1.449055 0.907694
vt -0.196370 0.672293
vt -0.535070 0.378917
vt -0.199310 0.968300
vt -0.535070 0.634374
vt -0.196370 0.590396
vt -0.396982 0.921935
vt 0.672293 0.590396
vt 0.968300 0.456313
vt 1.160183 0.612403
vt 0.944919 0.864837
vt 0.337166 0.921935
vt -0.900789 0.825531
vt -0.823084 0.822571
vt -0.122000 1.160183
vt -0.518482 1.376910
vt 1.450981 0.910132
vt -0.396982 -0.337166
vt -0.142276 -0.944919
vt -0.588918 -0.756521
vt -0.900789 0.505095
vt 0.122000 0.612403
vt 0.518482 0.478821
vt 0.547075 0.910132
vt -0.547075 -1.450981
vt -0.900789 -0.505095
vt -0.822571 0.614611
vt -0.505095 0.825531
vt -1.087787 0.760531
vt -1.376910 0.478821
vt -1.450981 0.910132
vt -0.814570 -1.087787
vt -0.537996 -0.840249
vt -0.801308 -0.429739
vt -0.343033 -0.775929
vt -0.801308 0.815934
vt -0.537996 0.568987
vt -0.637116 1.034325
vt -0.176669 -1.029558
vt -0.176669 0.486044
vt -0.403411 0.784863
vt 0.840249 0.568987
vt 1.003059 0.784863
vt 0.445600 1.034325
vt 0.801308 0.815934
vt 0.637116 1.034325
vt 0.432621 0.884891
vt -0.275453 -0.425035
vt 0.044482 -0.857205
vt 0.094520 0.702061
vt -0.637116 0.445600
vt -0.403411 1.003059
vt -0.141652 0.627223
vt 0.275453 0.489205
vt 0.044482 0.367978
vt 0.094520 0.999247
vt -0.432621 0.252662
vt -0.077374 0.781479
vt -0.857205 0.367978
vt -0.425035 0.489205
vt -0.550359 0.781479
vt -0.999247 0.702061
vt -0.627223 1.053893
vt 0.141652 1.053893
vt -0.619068 0.883694
vt -1.016697 0.959884
vt -0.623231 0.581097
vt -0.974660 1.167671
vt -0.550684 0.883694
vt -0.550915 0.581097
vt -0.088096 0.697064
vt -0.187504 0.959706
vt -0.704993 1.167671
vt -1.256106 1.036572
vt -1.013063 0.530251
vt -0.102607 0.354549
vt 0.184487 0.687382
vt 0.974660 -0.704993
vt 0.517938 -0.187504
vt 1.081388 -0.115022
vt 0.818482 0.959884
vt 0.579151 1.036572
vt 0.476433 0.530251
vt 0.623231 0.550915
vt 1.013063 0.476433
vt 0.815563 0.102607
vt 0.483735 0.088096
vt 0.698949 -0.184487
vt 0.698949 0.184487
vt 1.256106 -0.579151
vt 0.200772 0.640214
vt 1.124385 0.200772
vt 0.698949 0.687382
vt 0.815563 0.354549
vt 1.124385 0.640214
vt 1.081388 0.998231
vt 0.115022 0.998231
vt -0.236754 0.938270
vt -0.545612 0.722399
vt -0.056904 0.777105
vt -0.583047 1.036598
vt 0.256065 1.052093
vt -0.073344 1.136871
vt 0.855284 0.722399
vt 0.844669 1.036598
vt 0.594691 0.844742
vt -1.104256 0.056904
vt -0.855284 0.545612
vt -0.753738 0.122903
vt -1.095133 -0.256065
vt -0.859767 -0.268998
vt -1.040075 -0.073344
vt -1.095133 0.256065
vt -0.831850 0.230843
vt -0.844669 -0.583047
vt -0.560766 -0.157474
vt -0.594691 0.433731
vt -1.095133 1.052093
vt -0.859767 0.876423
vt -0.831850 1.075647
vt 0.583047 1.036598
vt 0.157474 1.212514
vt 0.433731 0.844742
vt 0.122903 0.638007
vt 0.125647 0.917705
vt -0.268998 0.876423
vt -0.230843 1.075647
vt 0.455942 1.010073
vt 0.048738 1.035696
vt 0.428154 0.910996
vt 0.152925 1.316640
vt 0.794689 0.861608
vt 0.565753 1.130828
vt 0.529657 0.048738
vt 0.336344 0.152925
vt 0.751218 0.347827
vt 0.236207 -0.428154
vt 0.529657 -0.048738
vt 0.621630 -0.503832
vt 0.140678 -0.794689
vt 0.486108 -0.783392
vt 0.135578 1.130828
vt 0.140678 0.861608
vt 0.444963 1.034374
vt 0.135578 0.565753
vt 0.546049 0.630037
vt 0.751218 -0.347827
vt 0.486108 0.822075
vt 0.444963 0.880159
vt 0.688871 -0.644333
vt 0.688871 1.008932
vt -0.630037 1.260889
vt -0.880159 1.034374
vt -0.644333 1.008932
vt -0.347827 1.103820
vt 0.021085 1.190729
vt -0.390896 1.018809
vt 0.152259 0.972417
vt -0.501938 1.283012
vt 0.449047 1.162321
vt -0.021085 -0.692245
vt -0.449047 -0.500199
vt -0.008316 -0.471036
vt 0.501938 -0.504441
vt 0.651376 1.018809
vt 0.504441 1.283012
vt 0.284039 1.114122
vt -0.152259 0.684787
vt 0.390896 0.651376
vt 0.272597 0.359641
vt -0.449047 0.500199
vt -0.369552 0.192568
vt -0.328261 -0.181188
vt 0.235628 -0.160272
vt 0.359641 0.771879
vt -0.500199 1.162321
vt -0.192568 0.923580
vt -0.181188 1.275263
vt 0.160272 1.262274
vt 0.272597 0.771879
vt 0.375747 1.114122
vt 0.151607 1.094922
vt -0.369552 0.923580
vt -0.328261 1.275263
vt 0.235628 1.262274
vt 0.412059 1.402875
vt 0.020150 1.301177
vt 0.476342 1.150704
vt 0.089631 1.561822
vt 0.845270 1.363263
vt 0.599325 1.528195
vt -0.412059 -0.169276
vt -0.599325 0.005605
vt -0.089631 0.133035
vt -0.148994 1.301177
vt -0.133035 1.561822
vt -0.397314 1.182414
vt 0.342080 0.969515
vt 0.731551 1.021601
vt -0.845270 -0.059659
vt -0.853247 0.280007
vt -0.311091 0.431276
vt -0.156474 0.969515
vt -0.476342 0.026276
vt -0.342080 -0.156474
vt -0.731551 -0.123149
vt -0.059659 1.363263
vt 0.123149 1.021601
vt 0.280007 1.378493
vt -0.431276 1.438412
vt -0.146956 -0.397314
vt -0.488865 -0.434124
vt -0.853247 1.378493
vt -0.731551 1.021601
vt -0.488865 1.192305
vt -0.311091 1.438412
vt -0.146956 1.182414
vt 0.584882 -0.178207
vt 0.433327 -0.486208
vt 0.383347 -0.143407
vt -0.486208 1.283517
vt -0.178207 1.235106
vt -0.443502 1.470479
vt 0.504753 0.217630
vt 0.217630 1.171780
vt 0.046918 1.388658
vt 0.433327 1.283517
vt 0.267015 1.470479
vt -0.016101 1.347946
vt 0.054889 -0.238255
vt 0.061235 0.167581
vt -0.506919 1.388658
vt -0.504753 1.171780
vt -0.203486 1.260084
vt 0.267015 0.443502
vt 0.506919 -0.046918
vt 0.056564 0.028814
vt 0.054889 1.023349
vt -0.061235 0.863333
vt 0.203486 -0.337841
vt -0.016101 0.338006
vt 0.238255 1.023349
vt 0.338006 1.347946
vt -0.093458 1.253782
vt -0.167581 0.863333
vt -0.337841 1.260084
vt -0.001378 -0.093458
vt 0.028814 1.382428
vt -0.043555 1.380621
vt -0.471317 1.153192
vt 0.069407 1.143984
vt -0.446462 1.433328
vt 0.337387 1.509008
vt -0.019233 1.658549
vt -0.025287 1.153192
vt -0.044525 1.433328
vt -0.250357 1.418394
vt -0.116051 -0.069407
vt 0.025287 0.471317
vt 0.330295 -0.026777
vt -0.303829 -0.337387
vt -0.084187 -0.487357
vt -0.171889 -0.019233
vt -0.303829 0.337387
vt -0.085652 0.243383
vt 0.044525 -0.446462
vt 0.217169 -0.130954
vt 0.471317 1.153192
vt 0.258144 1.418394
vt -0.026777 1.266219
vt -0.303829 1.509008
vt -0.084187 1.414311
vt -0.085652 1.694978
vt -0.217169 1.751992
vt -0.131753 1.489004
vt 0.330295 1.266219
vt 0.382348 1.489004
vt 0.382348 0.131753
vt 0.130954 1.751992
vt -0.360847 -1.366739
vt -0.391310 -1.342893
vt -0.512062 0.000000
vt -0.044466 0.000000
vt -0.519858 0.050000
vt -0.018481 -0.756624
vt 0.239928 -0.854440
vt 0.142208 -1.305701
vt 0.676954 0.050000
vt 1.182593 0.050000
vt 0.888904 0.176796
vt 0.217297 0.125894
vt -0.868215 0.000000
vt 0.870227 -0.732262
vt 1.367167 -0.408097
vt 1.164728 -0.720300
vt 0.226014 0.130675
vt -0.525046 0.050000
vt -0.006932 0.000000
vt -0.668875 -0.173560
vt -1.127923 0.128804
vt -0.680191 0.572354
vt 0.521155 -1.315310
vt -0.156910 -0.869415
vt 0.584781 -0.492070
vt 0.387745 0.000000
vt -0.239928 0.000000
vt -0.906095 -0.762443
vt -1.185322 -0.997402
vt 0.000000 0.000000
vt 1.824661 0.374128
vt 1.962435 0.283180
vt 0.309721 0.431166
vt -0.470956 1.187150
vt -0.525046 1.326746
vt 0.226014 1.249075
vt 0.714275 0.185644
vt 0.123392 0.682882
vt 0.966258 0.742662
vt 0.408097 0.050000
vt 0.142454 0.177915
vt -0.303478 0.050000
vt 1.169951 -0.303478
vt 0.966258 -0.742662
vt 0.678915 -0.806829
vt -0.742662 0.182029
vt 1.260883 -0.142454
vt 0.226014 -1.249075
vt 0.906118 0.069988
vt 1.858713 0.433853
vt 0.162597 0.000000
vt 0.016302 0.000000
vt 0.283180 0.000000
vt 0.336317 0.000000
vt 0.763924 0.000000
vt 0.678915 0.050000
vt 0.843834 0.000000
vt 1.189499 0.000000
vt 2.161292 0.016302
vt 2.132755 -0.090972
vt -0.447565 0.000000
vt -0.806829 0.050000
vt -0.770221 0.000000
vt -0.144001 0.000000
vt 0.317389 0.000000
vt -1.185322 0.997402
vt -0.493534 -1.247915
vt -0.525046 -1.326746
vt 0.843834 -0.642318
vt 0.813386 -0.599997
vt 0.879909 -0.162597
vt 0.939953 0.055191
vt -0.731936 0.687592
vt -1.081818 0.715152
vt 1.367167 0.408097
vt 1.356446 0.317389
vt 0.128804 0.154491
vt 0.311525 0.050000
vt 0.997402 0.135126
vt -0.086219 0.000000
vt 0.747012 -0.000000
vt 1.037677 0.000000
vt 0.640228 -0.883433
vt 0.868215 -1.034685
vt 0.519858 -1.306474
vt 0.222985 0.000000
vt 1.019571 -0.857928
vt 1.306474 0.050000
vt 1.315310 0.204531
vt 0.732262 0.111115
vt -0.217297 -1.203110
vt -0.888904 -0.683597
vt -1.182593 -0.305069
vt -0.305069 0.050000
vt -0.933411 1.116184
vt -0.521155 0.204531
vt -1.787813 0.303990
vt -0.700733 0.050037
vt -0.450503 0.000000
vt -0.146112 0.000000
vt 0.203175 0.000000
vt 0.599997 0.000000
vt 0.642318 0.000000
vt 0.706208 0.543576
vt -1.257148 -0.146112
vt -1.164527 0.258659
vt -1.041501 0.311525
vt -1.230653 0.287504
vt -1.041501 -0.311525
vt -0.911705 0.668395
vt 0.186868 -1.402991
vt -1.257148 0.146112
vt 0.433853 0.036840
s 0
f 1/1/1 2/2/1 3/3/1
f 2/2/2 1/1/2 6/4/2
f 1/5/3 3/6/3 4/7/3
f 1/8/4 4/9/4 5/10/4
f 1/8/5 5/10/5 6/11/5
f 236/12/6 232/13/6 224/14/6
f 228/15/6 240/16/6 236/12/6
f 244/17/6 225/18/6 241/19/6
f 5/10/7 4/9/7 7/20/7
f 6/11/8 5/10/8 8/21/8
f 240/16/6 229/22/6 237/23/6
f 245/24/6 244/17/6 228/15/6
f 219/25/6 221/26/6 217/27/6
f 5/10/9 7/20/9 8/21/9
f 237/23/6 236/12/6 240/16/6
f 208/28/10 209/29/10 9/30/10
f 210/31/11 208/28/11 9/30/11
f 211/32/6 212/33/6 214/34/6
f 8/35/12 7/36/12 9/37/12
f 8/38/13 209/39/13 207/40/13
f 227/41/6 226/42/6 243/43/6
f 11/44/14 10/45/14 14/46/14
f 233/47/6 234/48/6 235/49/6
f 10/45/15 12/50/15 13/51/15
f 10/45/16 13/51/16 14/46/16
f 11/52/17 14/53/17 19/54/17
f 212/33/18 15/55/18 214/34/18
f 232/13/6 233/47/6 224/14/6
f 13/56/19 12/57/19 17/58/19
f 14/59/20 13/60/20 18/61/20
f 11/52/21 19/54/21 15/62/21
f 15/55/22 215/63/22 214/34/22
f 12/57/23 16/64/23 17/58/23
f 13/60/24 17/65/24 18/61/24
f 14/59/25 18/61/25 19/66/25
f 15/67/26 19/68/26 20/69/26
f 16/70/27 15/67/27 20/69/27
f 17/71/28 16/70/28 20/69/28
f 18/61/29 17/65/29 20/72/29
f 19/66/30 18/61/30 20/72/30
f 224/14/6 228/15/6 236/12/6
f 216/73/31 25/74/31 218/75/31
f 21/76/32 22/77/32 23/78/32
f 21/76/33 23/78/33 24/79/33
f 21/80/34 24/81/34 25/82/34
f 25/83/35 219/84/35 218/85/35
f 235/49/6 239/86/6 227/41/6
f 23/87/36 22/88/36 26/89/36
f 24/81/37 23/90/37 27/91/37
f 25/82/38 24/81/38 28/92/38
f 219/25/39 29/93/39 221/26/39
f 240/16/6 228/15/6 244/17/6
f 23/87/40 26/89/40 27/94/40
f 24/81/41 27/91/41 28/92/41
f 25/83/42 28/95/42 29/96/42
f 221/97/43 30/98/43 223/99/43
f 233/47/6 235/49/6 227/41/6
f 27/100/44 26/101/44 30/98/44
f 28/102/45 27/100/45 30/98/45
f 29/103/46 28/102/46 30/98/46
f 31/104/47 32/105/47 33/106/47
f 32/107/48 31/108/48 36/109/48
f 31/108/49 33/110/49 34/111/49
f 31/108/50 34/111/50 35/112/50
f 31/108/51 35/112/51 36/109/51
f 32/113/52 36/114/52 41/115/52
f 33/106/53 32/105/53 37/116/53
f 34/117/54 33/118/54 38/119/54
f 35/120/55 34/121/55 39/122/55
f 36/123/56 35/120/56 40/124/56
f 32/105/57 41/125/57 37/116/57
f 33/106/58 37/116/58 38/126/58
f 34/117/59 38/119/59 39/127/59
f 35/120/60 39/122/60 40/124/60
f 36/123/61 40/124/61 41/128/61
f 37/129/62 41/130/62 42/131/62
f 38/132/63 37/129/63 42/131/63
f 39/133/64 38/132/64 42/131/64
f 40/124/65 39/122/65 42/134/65
f 41/115/66 40/135/66 42/136/66
f 43/137/67 44/138/67 45/139/67
f 44/140/68 43/141/68 48/142/68
f 43/143/69 45/144/69 46/145/69
f 43/143/70 46/145/70 47/146/70
f 43/143/71 47/146/71 48/147/71
f 44/140/72 48/142/72 53/148/72
f 45/139/73 44/138/73 49/149/73
f 46/150/74 45/139/74 50/151/74
f 47/152/75 46/153/75 51/154/75
f 48/155/76 47/152/76 52/156/76
f 44/138/77 53/157/77 49/149/77
f 45/139/78 49/149/78 50/151/78
f 46/158/79 50/159/79 51/160/79
f 47/152/80 51/154/80 52/156/80
f 48/155/81 52/156/81 53/161/81
f 49/162/82 53/163/82 54/164/82
f 50/165/83 49/162/83 54/164/83
f 51/160/84 50/159/84 54/166/84
f 52/156/85 51/154/85 54/167/85
f 53/163/86 52/168/86 54/164/86
f 55/169/87 56/170/87 57/171/87
f 56/172/88 55/173/88 60/174/88
f 55/169/89 57/171/89 58/175/89
f 55/176/90 58/177/90 59/178/90
f 55/176/91 59/178/91 60/179/91
f 56/172/92 60/174/92 65/180/92
f 57/171/93 56/170/93 61/181/93
f 58/175/94 57/171/94 62/182/94
f 59/178/95 58/177/95 63/183/95
f 60/184/96 59/185/96 64/186/96
f 56/187/97 65/188/97 61/189/97
f 57/171/98 61/181/98 62/182/98
f 58/190/99 62/191/99 63/192/99
f 59/185/100 63/193/100 64/186/100
f 60/184/101 64/186/101 65/194/101
f 61/189/102 65/188/102 66/195/102
f 62/196/103 61/189/103 66/195/103
f 63/192/104 62/191/104 66/197/104
f 64/186/105 63/193/105 66/198/105
f 65/194/106 64/186/106 66/198/106
f 67/199/107 68/200/107 69/201/107
f 68/202/108 67/203/108 72/204/108
f 67/205/109 69/206/109 70/207/109
f 67/205/110 70/207/110 71/208/110
f 67/205/111 71/208/111 72/209/111
f 68/202/112 72/204/112 77/210/112
f 69/201/113 68/200/113 73/211/113
f 70/212/114 69/201/114 74/213/114
f 71/208/115 70/207/115 75/214/115
f 72/215/116 71/216/116 76/217/116
f 68/200/117 77/218/117 73/211/117
f 69/201/118 73/211/118 74/213/118
f 70/219/119 74/220/119 75/221/119
f 71/216/120 75/222/120 76/217/120
f 72/215/121 76/217/121 77/223/121
f 73/224/122 77/225/122 78/226/122
f 74/227/123 73/224/123 78/226/123
f 75/228/124 74/227/124 78/226/124
f 76/217/125 75/222/125 78/229/125
f 77/223/126 76/217/126 78/229/126
f 79/230/127 80/231/127 81/232/127
f 80/233/128 79/234/128 84/235/128
f 79/230/129 81/232/129 82/236/129
f 79/234/130 82/237/130 83/238/130
f 79/239/131 83/240/131 84/241/131
f 80/242/132 84/243/132 89/244/132
f 81/232/133 80/231/133 85/245/133
f 82/236/134 81/232/134 86/246/134
f 83/238/135 82/237/135 87/247/135
f 84/248/136 83/249/136 88/250/136
f 80/242/137 89/244/137 85/251/137
f 81/232/138 85/245/138 86/246/138
f 82/237/139 86/252/139 87/247/139
f 83/249/140 87/253/140 88/250/140
f 84/248/141 88/250/141 89/254/141
f 85/251/142 89/244/142 90/255/142
f 86/256/143 85/257/143 90/258/143
f 87/259/144 86/256/144 90/258/144
f 88/260/145 87/259/145 90/258/145
f 89/244/146 88/261/146 90/255/146
f 91/262/147 92/263/147 93/264/147
f 92/263/148 91/262/148 96/265/148
f 91/266/149 93/267/149 94/268/149
f 91/266/150 94/268/150 95/269/150
f 91/266/151 95/269/151 96/270/151
f 92/263/152 96/265/152 101/271/152
f 93/264/153 92/263/153 97/272/153
f 94/268/154 93/267/154 98/273/154
f 95/269/155 94/268/155 99/274/155
f 96/275/156 95/276/156 100/277/156
f 92/278/157 101/279/157 97/280/157
f 93/281/158 97/282/158 98/283/158
f 94/284/159 98/283/159 99/285/159
f 95/276/160 99/286/160 100/277/160
f 96/275/161 100/277/161 101/287/161
f 97/280/162 101/279/162 102/288/162
f 98/283/163 97/282/163 102/289/163
f 99/290/164 98/291/164 102/292/164
f 100/293/165 99/290/165 102/292/165
f 101/279/166 100/294/166 102/288/166
f 103/295/167 104/296/167 105/297/167
f 104/296/168 103/295/168 108/298/168
f 103/295/169 105/297/169 106/299/169
f 103/295/170 106/299/170 107/300/170
f 103/295/171 107/300/171 108/298/171
f 104/301/172 108/302/172 113/303/172
f 105/304/173 104/305/173 109/306/173
f 106/307/174 105/304/174 110/308/174
f 107/309/175 106/310/175 111/311/175
f 108/312/176 107/309/176 112/313/176
f 104/305/177 113/314/177 109/306/177
f 105/304/178 109/306/178 110/308/178
f 106/315/179 110/316/179 111/317/179
f 107/309/180 111/311/180 112/313/180
f 108/318/181 112/319/181 113/320/181
f 109/321/182 113/320/182 114/322/182
f 110/323/183 109/321/183 114/322/183
f 111/324/184 110/323/184 114/322/184
f 112/319/185 111/324/185 114/322/185
f 113/320/186 112/319/186 114/322/186
f 115/325/187 116/326/187 117/327/187
f 116/326/188 115/325/188 120/328/188
f 115/325/189 117/327/189 118/329/189
f 115/325/190 118/329/190 119/330/190
f 115/325/191 119/330/191 120/328/191
f 116/331/192 120/332/192 125/333/192
f 117/334/193 116/335/193 121/336/193
f 118/337/194 117/334/194 122/338/194
f 119/339/195 118/340/195 123/341/195
f 120/332/196 119/342/196 124/343/196
f 116/335/197 125/344/197 121/336/197
f 117/334/198 121/336/198 122/338/198
f 118/340/199 122/345/199 123/341/199
f 119/342/200 123/346/200 124/343/200
f 120/332/201 124/343/201 125/333/201
f 121/336/202 125/344/202 126/347/202
f 122/338/203 121/336/203 126/347/203
f 123/341/204 122/345/204 126/348/204
f 124/349/205 123/350/205 126/351/205
f 125/352/206 124/349/206 126/351/206
f 127/353/207 128/354/207 129/355/207
f 128/354/208 127/353/208 132/356/208
f 127/353/209 129/355/209 130/357/209
f 127/358/210 130/359/210 131/360/210
f 127/358/211 131/360/211 132/361/211
f 128/362/212 132/363/212 137/364/212
f 129/365/213 128/366/213 133/367/213
f 130/368/214 129/365/214 134/369/214
f 131/360/215 130/359/215 135/370/215
f 132/361/216 131/360/216 136/371/216
f 128/362/217 137/364/217 133/372/217
f 129/365/218 133/367/218 134/369/218
f 130/373/219 134/374/219 135/375/219
f 131/360/220 135/370/220 136/371/220
f 132/363/221 136/376/221 137/364/221
f 133/377/222 137/378/222 138/379/222
f 134/380/223 133/377/223 138/379/223
f 135/381/224 134/380/224 138/379/224
f 136/382/225 135/381/225 138/379/225
f 137/378/226 136/382/226 138/379/226
f 139/383/227 140/384/227 141/385/227
f 140/384/228 139/383/228 144/386/228
f 139/383/229 141/385/229 142/387/229
f 139/383/230 142/387/230 143/388/230
f 139/389/231 143/390/231 144/391/231
f 140/392/232 144/393/232 149/394/232
f 141/385/233 140/384/233 145/395/233
f 142/387/234 141/385/234 146/396/234
f 143/390/235 142/397/235 147/398/235
f 144/391/236 143/390/236 148/399/236
f 140/392/237 149/394/237 145/400/237
f 141/401/238 145/402/238 146/403/238
f 142/404/239 146/405/239 147/406/239
f 143/390/240 147/398/240 148/399/240
f 144/393/241 148/407/241 149/394/241
f 145/402/242 149/408/242 150/409/242
f 146/403/243 145/402/243 150/409/243
f 147/410/244 146/411/244 150/412/244
f 148/413/245 147/410/245 150/412/245
f 149/414/246 148/413/246 150/412/246
f 151/415/247 152/416/247 153/417/247
f 152/418/248 151/419/248 156/420/248
f 151/415/249 153/417/249 154/421/249
f 151/419/250 154/422/250 155/423/250
f 151/419/251 155/423/251 156/420/251
f 152/424/252 156/425/252 161/426/252
f 153/417/253 152/416/253 157/427/253
f 154/421/254 153/417/254 158/428/254
f 155/429/255 154/430/255 159/431/255
f 156/432/256 155/433/256 160/434/256
f 152/424/257 161/426/257 157/435/257
f 153/417/258 157/427/258 158/428/258
f 154/430/259 158/436/259 159/431/259
f 155/433/260 159/437/260 160/434/260
f 156/432/261 160/434/261 161/438/261
f 157/439/262 161/440/262 162/441/262
f 158/442/263 157/439/263 162/441/263
f 159/443/264 158/442/264 162/441/264
f 160/434/265 159/437/265 162/444/265
f 161/440/266 160/445/266 162/441/266
f 163/446/267 164/447/267 165/448/267
f 164/447/268 163/446/268 168/449/268
f 163/446/269 165/448/269 166/450/269
f 163/446/270 166/450/270 167/451/270
f 163/446/271 167/451/271 168/449/271
f 164/452/272 168/453/272 173/454/272
f 165/455/273 164/456/273 169/457/273
f 166/458/274 165/455/274 170/459/274
f 167/460/275 166/461/275 171/462/275
f 168/463/276 167/460/276 172/464/276
f 164/465/277 173/466/277 169/467/277
f 165/455/278 169/457/278 170/459/278
f 166/468/279 170/469/279 171/470/279
f 167/460/280 171/462/280 172/464/280
f 168/453/281 172/471/281 173/454/281
f 169/467/282 173/466/282 174/472/282
f 170/469/283 169/473/283 174/474/283
f 171/470/284 170/469/284 174/474/284
f 172/464/285 171/462/285 174/475/285
f 173/466/286 172/476/286 174/472/286
f 216/477/6 218/478/6 219/25/6
f 225/479/287 244/480/287 183/481/287
f 223/482/6 222/483/6 220/484/6
f 175/485/288 185/486/288 186/487/288
f 175/485/289 186/487/289 184/488/289
f 225/479/290 183/481/290 241/489/290
f 189/490/291 181/491/291 229/492/291
f 198/493/292 194/494/292 235/495/292
f 177/496/293 187/497/293 190/498/293
f 178/499/294 188/500/294 192/501/294
f 228/502/295 175/485/295 184/488/295
f 222/503/296 223/99/296 30/98/296
f 227/41/297 238/504/297 191/505/297
f 177/496/298 190/498/298 193/506/298
f 178/499/299 192/501/299 189/490/299
f 203/507/6 200/508/6 209/29/6
f 6/509/300 8/38/300 207/40/300
f 179/510/301 194/511/301 198/512/301
f 180/513/302 195/514/302 199/515/302
f 181/516/303 196/517/303 197/518/303
f 197/519/304 199/520/304 182/521/304
f 197/518/305 196/517/305 199/522/305
f 196/523/306 180/513/306 199/515/306
f 199/520/307 198/524/307 182/521/307
f 199/515/308 195/514/308 198/512/308
f 195/514/309 179/510/309 198/512/309
f 3/525/310 2/526/310 203/507/310
f 4/7/311 3/6/311 205/527/311
f 6/509/312 201/528/312 200/529/312
f 233/530/313 232/531/313 182/532/313
f 7/36/314 206/533/314 210/534/314
f 200/508/6 201/535/6 207/536/6
f 236/537/315 182/538/315 232/539/315
f 236/537/316 237/540/316 197/518/316
f 181/516/317 237/540/317 230/541/317
f 189/490/318 196/523/318 181/491/318
f 189/490/319 192/501/319 196/523/319
f 192/501/320 180/513/320 196/523/320
f 193/506/321 195/514/321 180/513/321
f 193/506/322 190/498/322 195/514/322
f 190/498/323 179/510/323 195/514/323
f 191/542/324 194/511/324 179/510/324
f 198/524/325 234/48/325 233/47/325
f 239/86/326 231/543/326 194/544/326
f 210/31/6 206/545/6 204/546/6
f 208/28/6 210/31/6 205/547/6
f 202/548/6 208/28/6 205/547/6
f 209/29/6 208/28/6 202/548/6
f 12/549/327 213/550/327 215/63/327
f 229/22/328 181/551/328 230/552/328
f 192/501/329 193/506/329 180/513/329
f 192/501/330 188/500/330 193/506/330
f 188/500/331 177/496/331 193/506/331
f 190/498/332 191/542/332 179/510/332
f 190/498/333 187/497/333 191/542/333
f 187/553/334 176/554/334 191/555/334
f 21/76/335 216/73/335 217/556/335
f 175/485/336 224/557/336 243/558/336
f 220/484/337 222/483/337 26/559/337
f 191/505/338 238/504/338 239/86/338
f 241/560/339 183/561/339 189/490/339
f 244/480/340 245/562/340 184/488/340
f 189/490/291 229/492/291 240/563/291
f 241/560/339 189/490/339 240/563/339
f 183/564/341 178/565/341 189/566/341
f 184/567/342 188/500/342 178/499/342
f 184/567/343 186/568/343 188/500/343
f 186/568/344 177/496/344 188/500/344
f 186/568/345 187/497/345 177/496/345
f 186/568/346 185/569/346 187/497/346
f 185/570/347 176/554/347 187/553/347
f 216/73/31 21/76/31 25/74/31
f 15/55/22 16/571/22 215/63/22
f 25/83/35 29/96/35 219/84/35
f 183/481/348 184/488/348 178/572/348
f 217/27/6 223/482/6 220/484/6
f 228/502/295 184/488/295 245/562/295
f 212/33/18 11/573/18 15/55/18
f 213/550/6 211/32/6 214/34/6
f 8/38/13 9/574/13 209/39/13
f 244/480/340 184/488/340 183/481/340
f 185/570/349 243/575/349 242/576/349
f 221/97/43 29/103/43 30/98/43
f 191/505/338 239/86/338 194/544/338
f 204/546/6 205/547/6 210/31/6
f 198/493/292 235/495/292 234/577/292
f 198/524/325 233/47/325 182/521/325
f 204/578/350 206/579/350 7/580/350
f 202/548/6 203/507/6 209/29/6
f 194/544/351 231/543/351 235/49/351
f 242/581/352 226/582/352 176/583/352
f 10/584/353 211/32/353 213/550/353
f 10/584/354 11/573/354 212/33/354
f 236/537/315 197/518/315 182/538/315
f 217/27/6 216/477/6 219/25/6
f 227/41/297 191/505/297 176/585/297
f 176/583/355 226/582/355 227/586/355
f 242/581/352 176/583/352 185/569/352
f 214/34/6 215/63/6 213/550/6
f 181/516/317 197/518/317 237/540/317
f 175/485/356 228/502/356 224/557/356
f 175/485/336 243/558/336 185/486/336
f 222/503/296 30/98/296 26/101/296
f 224/14/6 233/47/6 227/41/6
f 220/484/337 26/559/337 22/587/337
f 221/26/6 223/482/6 217/27/6
f 226/42/6 242/588/6 243/43/6
f 22/587/357 217/27/357 220/484/357
f 21/76/335 217/556/335 22/77/335
f 243/43/6 224/14/6 227/41/6
f 235/49/6 231/543/6 239/86/6
f 12/549/327 215/63/327 16/571/327
f 239/86/6 238/504/6 227/41/6
f 10/584/354 212/33/354 211/32/354
f 10/584/353 213/550/353 12/549/353
f 229/22/6 230/552/6 237/23/6
f 207/536/6 209/29/6 200/508/6
f 240/16/6 244/17/6 241/19/6
f 7/36/314 210/534/314 9/37/314
f 4/7/311 205/527/311 204/578/311
f 204/578/350 7/580/350 4/7/350
f 3/525/358 203/507/358 202/548/358
f 3/525/359 202/548/359 205/547/359
f 6/509/300 207/40/300 201/528/300
f 6/509/312 200/529/312 2/589/312
f 2/526/360 200/508/360 203/507/360
