# Blender 5.0.1
# www.blender.org
mtllib seaform_g.mtl
o seaform_g_rock
usemtl seaform_g_rock
v -0.541036 0.023479 0.953565
v -1.045867 0.063493 0.554351
v -1.207023 0.076267 -0.027962
v -1.031720 0.062372 -0.602082
v -0.555537 0.024628 -1.034685
v 0.132596 0.243478 1.189079
v -0.507551 0.291081 0.949851
v -1.015018 0.328817 0.565368
v -1.141678 0.338236 -0.013058
v -0.969095 0.325402 -0.564897
v -0.534850 0.293111 -1.023381
v 0.132596 0.243478 -1.194091
v 0.801112 0.193766 -1.025240
v 1.266602 0.159151 -0.583606
v 1.414419 0.148159 -0.013058
v 1.281127 0.158071 0.565898
v 0.853240 0.189890 1.089661
v 0.152078 0.515217 1.141551
v -0.436163 0.555757 0.883084
v -0.918117 0.588972 0.539844
v -1.095395 0.601189 0.000683
v -0.912611 0.588592 -0.535292
v -0.450665 0.556756 -0.906897
v 0.152078 0.515217 -1.108075
v 0.787087 0.471455 -0.962914
v 1.238683 0.440332 -0.547975
v 1.372787 0.431090 0.000683
v 1.219864 0.441629 0.538450
v 0.808203 0.469999 1.000940
v 0.169991 0.786957 1.009455
v -0.365507 0.820590 0.818364
v -0.747104 0.844557 0.472015
v -0.917594 0.855264 0.013151
v -0.794656 0.847543 -0.473222
v -0.367975 0.820745 -0.796344
v 0.169991 0.786957 -0.961392
v 0.739909 0.751162 -0.851795
v 1.152435 0.725252 -0.483517
v 1.290843 0.716559 0.013151
v 1.105106 0.728225 0.482439
v 0.751409 0.750439 0.898054
v 0.186149 1.058696 0.867182
v -0.293940 1.085582 0.749632
v -0.634218 1.104639 0.436575
v -0.751009 1.111180 0.024217
v -0.659620 1.106062 -0.402829
v -0.286851 1.085185 -0.688898
v 0.186149 1.058696 -0.841137
v 0.678877 1.031101 -0.723122
v 1.011007 1.012501 -0.390737
v 1.129563 1.005861 0.024217
v 0.975581 1.014485 0.418686
v 0.673164 1.031421 0.761645
v 0.200364 1.330435 0.775161
v -0.224011 1.351019 0.677824
v -0.491716 1.364004 0.380775
v -0.631187 1.370769 0.033752
v -0.491326 1.363985 -0.313046
v -0.213532 1.350511 -0.592149
v 0.200364 1.330435 -0.645298
v 0.648881 1.308679 -0.652184
v 0.911203 1.295955 -0.324114
v 1.003478 1.291480 0.033752
v 0.959025 1.293636 0.419261
v 0.627208 1.309731 0.682105
v 0.212454 1.602174 0.696029
v -0.142854 1.616515 0.577783
v -0.399265 1.626865 0.349043
v -0.513269 1.631467 0.041625
v -0.378001 1.626007 -0.253506
v -0.127338 1.615889 -0.467637
v 0.212454 1.602174 -0.606146
v 0.557210 1.588258 -0.476242
v 0.829905 1.577252 -0.269105
v 0.943925 1.572649 0.041625
v 0.858797 1.576085 0.369049
v 0.585367 1.587122 0.608302
v 0.222245 1.873913 0.645793
v -0.129620 1.885033 0.585122
v -0.355859 1.892182 0.339882
v -0.407509 1.893814 0.047716
v -0.360853 1.892340 -0.247335
v -0.113874 1.884535 -0.462403
v 0.222245 1.873913 -0.524801
v 0.561257 1.863200 -0.467415
v 0.784828 1.856134 -0.235484
v 0.885047 1.852967 0.047716
v 0.813732 1.855221 0.347612
v 0.532784 1.864099 0.513506
v 0.229581 2.145652 0.611268
v -0.115800 2.153351 0.580957
v -0.354028 2.158662 0.348920
v -0.410114 2.159912 0.051912
v -0.310836 2.157699 -0.220153
v -0.089193 2.152758 -0.431038
v 0.229581 2.145652 -0.501520
v 0.543818 2.138647 -0.423179
v 0.801121 2.132911 -0.238127
v 0.878856 2.131179 0.051912
v 0.765258 2.133711 0.321240
v 0.550664 2.138495 0.538862
v 0.234318 2.417391 0.631043
v -0.092225 2.421472 0.550511
v -0.311256 2.424208 0.329152
v -0.392147 2.425219 0.054112
v -0.315777 2.424265 -0.223538
v -0.090135 2.421445 -0.438667
v 0.234318 2.417391 -0.531943
v 0.545444 2.413504 -0.415581
v 0.793620 2.410403 -0.228853
v 0.845220 2.409758 0.054112
v 0.763797 2.410775 0.319858
v 0.546112 2.413496 0.524963
v 0.236335 2.689131 0.706211
v -0.087252 2.689867 0.544558
v -0.307975 2.690370 0.327992
v -0.396838 2.690572 0.054230
v -0.296862 2.690345 -0.213116
v -0.050429 2.689784 -0.372319
v 0.236335 2.689131 -0.459126
v 0.554970 2.688405 -0.427523
v 0.820688 2.687800 -0.242652
v 0.867914 2.687693 0.054230
v 0.775794 2.687902 0.325192
v 0.561342 2.688390 0.547019
v 0.235528 2.960870 0.659825
v -0.099542 2.958097 0.562269
v -0.345647 2.956062 0.347157
v -0.398930 2.955621 0.052193
v -0.284582 2.956567 -0.207514
v -0.056632 2.958452 -0.383559
v 0.235528 2.960870 -0.465370
v 0.532898 2.963330 -0.392582
v 0.759063 2.965201 -0.209491
v 0.853393 2.965981 0.052193
v 0.742736 2.965066 0.304450
v 0.561913 2.963570 0.547224
v 0.231820 3.232609 0.610415
v -0.082195 3.226623 0.523186
v -0.297991 3.222510 0.314196
v -0.357351 3.221379 0.047945
v -0.296086 3.222546 -0.217205
v -0.037388 3.227478 -0.349674
v 0.231820 3.232609 -0.428727
v 0.526711 3.238230 -0.394166
v 0.719850 3.241911 -0.194179
v 0.834506 3.244097 0.047945
v 0.741782 3.242329 0.302734
v 0.536636 3.238419 0.507250
v 0.225154 3.504348 0.619039
v -0.066856 3.495583 0.481987
v -0.287209 3.488969 0.299598
v -0.318787 3.488021 0.041448
v -0.239412 3.490403 -0.189094
v -0.035277 3.496531 -0.344370
v 0.225154 3.504348 -0.414262
v 0.505737 3.512770 -0.379290
v 0.714639 3.519040 -0.203487
v 0.807903 3.521840 0.041448
v 0.725997 3.519381 0.292944
v 0.523873 3.513314 0.493613
v 0.215499 3.776087 0.560832
v -0.052507 3.765087 0.436054
v -0.243703 3.757240 0.262680
v -0.282867 3.755633 0.032680
v -0.200820 3.759000 -0.172541
v -0.016240 3.766576 -0.307825
v 0.215499 3.776087 -0.437715
v 0.510087 3.788178 -0.416774
v 0.720124 3.796798 -0.223567
v 0.786406 3.799519 0.032680
v 0.692497 3.795664 0.272964
v 0.483513 3.787087 0.436068
v 0.202849 4.047826 0.488187
v -0.049794 4.034675 0.402756
v -0.203211 4.026688 0.223448
v -0.243008 4.024617 0.021638
v -0.203538 4.026671 -0.180361
v -0.021798 4.036132 -0.310923
v 0.202849 4.047826 -0.393733
v 0.480646 4.062287 -0.403108
v 0.625872 4.069847 -0.189979
v 0.752853 4.076457 0.021638
v 0.688687 4.073117 0.269570
v 0.445015 4.060432 0.384585
v 0.187223 4.319565 0.431813
v -0.051351 4.304555 0.368555
v -0.215872 4.294204 0.210451
v -0.223615 4.293716 0.008338
v -0.193944 4.295584 -0.181090
v -0.022199 4.306389 -0.301288
v 0.187223 4.319565 -0.422956
v 0.427393 4.334676 -0.354650
v 0.599445 4.345501 -0.199055
v 0.705017 4.352144 0.008338
v 0.612333 4.346312 0.223186
v 0.427095 4.334657 0.370808
v 0.168667 4.591304 0.370343
v -0.045898 4.575516 0.313800
v -0.191916 4.564771 0.171735
v -0.239548 4.561266 -0.007188
v -0.179015 4.565720 -0.178642
v -0.058983 4.574553 -0.350901
v 0.168667 4.591304 -0.391327
v 0.384162 4.607162 -0.329793
v 0.538959 4.618552 -0.191732
v 0.650622 4.626769 -0.007188
v 0.550869 4.619428 0.184251
v 0.406246 4.608786 0.353770
v 0.147249 4.863043 0.396531
v -0.065558 4.845170 0.295037
v -0.187769 4.834906 0.140369
v -0.301863 4.825324 -0.024887
v -0.217290 4.832427 -0.207246
v -0.051482 4.846352 -0.320343
v 0.147249 4.863043 -0.418367
v 0.335989 4.878895 -0.302979
v 0.494248 4.892187 -0.197084
v 0.582020 4.899559 -0.024887
v 0.522596 4.894568 0.163735
v 0.340676 4.879289 0.261353
v 0.123064 5.134783 0.325656
v -0.094186 5.114367 0.285642
v -0.235301 5.101108 0.135635
v -0.307383 5.094333 -0.044689
v -0.220775 5.102472 -0.216589
v -0.066399 5.116979 -0.326680
v 0.123064 5.134783 -0.428589
v 0.304013 5.151787 -0.311869
v 0.435062 5.164101 -0.198125
v 0.510195 5.171162 -0.044689
v 0.471902 5.167563 0.130110
v 0.314703 5.152792 0.241089
v 0.096229 5.406522 0.226931
v -0.091876 5.387064 0.217745
v -0.228467 5.372935 0.096960
v -0.269835 5.368657 -0.066509
v -0.239112 5.371834 -0.236156
v -0.114830 5.384690 -0.390731
v 0.096229 5.406522 -0.355956
v 0.269293 5.424423 -0.324572
v 0.386388 5.436536 -0.209931
v 0.450594 5.443177 -0.066509
v 0.396720 5.437605 0.082911
v 0.259115 5.423370 0.173831
v 0.066885 5.678261 0.139949
v -0.077052 5.662084 0.124793
v -0.206167 5.647573 0.047704
v -0.259560 5.641572 -0.090243
v -0.200082 5.648257 -0.224655
v -0.075165 5.662296 -0.301990
v 0.066885 5.678261 -0.327788
v 0.211364 5.694499 -0.306225
v 0.334896 5.708383 -0.225262
v 0.384356 5.713942 -0.090243
v 0.348995 5.709967 0.052966
v 0.230873 5.696691 0.159742
v 0.035192 5.950000 0.027200
v -0.055932 5.938995 0.021428
v -0.143004 5.928482 -0.024717
v -0.181771 5.923800 -0.115774
v -0.138677 5.929004 -0.204315
v -0.051833 5.939490 -0.245827
v 0.035192 5.950000 -0.213985
v 0.104533 5.958374 -0.214974
v 0.191122 5.968829 -0.193883
v 0.215595 5.971785 -0.115774
v 0.216160 5.971853 -0.023105
v 0.146801 5.963478 0.057169
v 0.642816 1.550000 -0.622414
v 1.319755 1.337866 -0.396624
v 0.426916 1.216504 -0.303658
v -0.005707 1.550000 -0.210578
v 0.497640 1.778056 -0.220150
v 1.267751 1.735682 -0.359764
v 0.964402 1.237519 0.314124
v 0.160705 1.372684 0.383450
v 0.059227 1.764569 0.452402
v 0.923753 1.802054 0.266147
v 1.396325 1.550000 0.240051
v 0.772578 1.550000 0.681844
v 0.492072 1.349352 -0.640409
v 0.957292 1.456602 -0.538100
v 0.876659 1.275860 -0.360530
v 1.350326 1.550000 -0.417360
v 1.004054 1.669087 -0.647900
v 0.220933 1.550000 -0.542408
v 0.102249 1.369617 -0.302828
v 0.537755 1.708800 -0.500503
v 0.015962 1.757416 -0.348851
v 0.876627 1.830334 -0.361572
v 1.322556 1.460786 -0.043905
v 1.432704 1.652361 -0.054864
v 0.706471 1.220398 0.017390
v 1.147129 1.277091 -0.026451
v -0.055469 1.439027 0.093197
v 0.292491 1.301777 0.058578
v 0.218050 1.857332 0.065984
v -0.011366 1.649397 0.088809
v 1.230889 1.872015 -0.034785
v 0.706471 1.855581 0.017390
v 1.418477 1.343282 0.393385
v 0.519464 1.237178 0.434721
v 0.049002 1.550000 0.459966
v 0.525426 1.835628 0.418351
v 1.291851 1.730001 0.328831
v 0.904432 1.359108 0.626344
v 1.217668 1.550000 0.601068
v 0.405147 1.434918 0.686897
v 0.409445 1.666446 0.679611
v 0.874034 1.707175 0.531594
v 0.614811 2.950000 -0.563135
v 1.025940 2.809723 -0.283991
v 0.425019 2.763824 -0.352467
v 0.128025 2.950000 -0.379866
v 0.421088 3.168968 -0.364364
v 1.000768 3.085394 -0.275678
v 0.657544 2.764440 0.111199
v 0.015114 2.788617 0.069326
v 0.050683 3.096622 0.056127
v 0.672862 3.176645 0.144286
v 1.033836 2.950000 0.197015
v 0.479105 2.950000 0.291372
v 0.516681 2.824385 -0.570097
v 0.861633 2.870250 -0.509742
v 0.738612 2.732728 -0.358626
v 1.084032 2.950000 -0.305381
v 0.834037 3.021057 -0.474649
v 0.291599 2.950000 -0.622594
v 0.161516 2.809347 -0.469006
v 0.517533 3.080844 -0.565960
v 0.174482 3.072198 -0.453330
v 0.726998 3.145458 -0.343088
v 1.104786 2.869811 -0.027053
v 1.131564 3.032715 -0.022800
v 0.543823 2.723352 -0.116140
v 0.865278 2.745420 -0.065090
v 0.012010 2.873890 -0.200599
v 0.191931 2.749505 -0.172025
v 0.175335 3.164756 -0.174661
v -0.029622 3.035965 -0.207210
v 0.857015 3.144326 -0.066402
v 0.543823 3.153300 -0.116140
v 0.955778 2.804079 0.262561
v 0.362779 2.759164 0.107881
v -0.017884 2.950000 0.080149
v 0.364725 3.141286 0.105777
v 0.943786 3.095514 0.252578
v 0.572153 2.809040 0.368539
v 0.800439 2.950000 0.398895
v 0.231252 2.870308 0.271622
v 0.191269 3.037457 0.319968
v 0.571013 3.079682 0.342852
v 0.538637 4.150000 -0.480911
v 0.537758 4.042888 -0.102900
v 0.330295 3.983045 -0.518397
v 0.215089 4.150000 -0.712901
v 0.331065 4.319610 -0.519520
v 0.465223 4.225480 -0.155011
v 0.120727 3.976553 -0.146752
v -0.061524 4.051317 -0.546163
v -0.085765 4.257075 -0.564078
v 0.126943 4.309220 -0.157058
v 0.237068 4.150000 0.055330
v -0.061526 4.150000 -0.197493
v 0.477518 4.054180 -0.526805
v 0.569669 4.097179 -0.305085
v 0.438779 4.006449 -0.316271
v 0.527582 4.150000 -0.109941
v 0.558941 4.205357 -0.307430
v 0.381481 4.150000 -0.615043
v 0.283529 4.047863 -0.730872
v 0.489907 4.249100 -0.536517
v 0.275764 4.237713 -0.678464
v 0.447830 4.293680 -0.315050
v 0.364373 4.107266 -0.040676
v 0.364247 4.191460 -0.040942
v 0.226162 3.982127 -0.333349
v 0.328619 4.006552 -0.116387
v 0.057908 4.092673 -0.689640
v 0.125380 4.018078 -0.546765
v 0.132848 4.268065 -0.530950
v 0.075003 4.196213 -0.653442
v 0.325687 4.280382 -0.122595
v 0.226162 4.316453 -0.333349
v 0.175589 4.058551 0.013820
v -0.021694 3.973400 -0.352495
v -0.105319 4.150000 -0.577316
v -0.016304 4.327664 -0.351674
v 0.177179 4.235052 0.011096
v -0.035553 4.052820 -0.131605
v 0.044498 4.150000 -0.009861
v -0.125181 4.095892 -0.362230
v -0.167050 4.215393 -0.363982
v -0.023244 4.243223 -0.141168
v -0.097726 0.220000 -0.973126
v -0.910487 0.220000 -0.273887
v -0.326887 0.649206 -0.449681
v 0.898526 0.510151 -0.737655
v -0.747535 0.525117 0.674508
v 0.528053 0.678488 0.383717
v 1.118688 0.220000 0.192965
v 0.269205 0.220000 0.847655
v 0.426921 0.049216 -1.113481
v 0.852808 0.220000 -0.697711
v 0.394628 0.367035 -1.005903
v -0.723811 0.220000 -0.837684
v -0.284881 0.480919 -0.913288
v -0.789101 0.465678 -0.421730
v 0.273606 0.592989 -0.623886
v 1.204485 0.062639 -0.268684
v 1.057618 0.353157 -0.239087
v -0.947143 0.069277 0.164920
v -0.603085 0.616574 0.095585
v -0.899524 0.359163 0.155324
v 0.746515 0.619205 -0.176392
v 0.089517 0.644042 -0.043991
v -0.640863 0.220000 0.580272
v -0.094030 0.610303 0.537257
v 1.073773 0.492616 0.378753
v 0.838313 0.220000 0.683783
v -0.221690 0.067777 0.938724
v -0.203419 0.362070 0.880169
v 0.499519 0.504248 0.907744
v -0.541827 0.000000 0.950451
v -0.244829 0.000000 1.073529
v -1.046578 0.000000 0.548328
v -1.215140 0.000000 -0.032586
v -1.037005 0.000000 -0.606308
v -0.557139 0.000000 -1.035686
v -0.244829 0.000000 -1.113204
v 0.113885 0.000000 1.214927
v 0.113885 0.000000 -1.202348
v 0.814218 0.000000 -1.081397
v 1.268673 0.000000 -0.599117
v 1.438614 0.000000 -0.020852
v 1.286996 0.000000 0.566646
v 0.841435 0.000000 1.081658
v -0.249319 0.000000 -0.842193
v 0.652026 0.000000 -0.863201
v 0.827836 0.000000 -0.676141
v -0.819758 0.000000 -0.409954
v 0.966239 0.000000 -0.521236
v -0.479195 0.000000 0.744578
v -0.782836 0.000000 0.421439
v 1.003343 0.000000 0.322470
v -0.661518 0.000000 0.599362
v 0.425036 0.000000 0.804427
v 0.212617 0.000000 0.847349
v -0.198930 0.000000 0.867076
v 0.507479 0.000000 0.780688
v 0.966898 0.000000 0.386268
v 1.088835 0.000000 -0.245378
v 1.061263 0.000000 0.131715
v -0.864977 0.000000 0.148362
v -0.850676 0.000000 -0.243487
v -0.796346 0.000000 -0.480661
v -0.266306 0.000000 -0.838518
v -0.178118 0.000000 -0.869018
v 0.393892 0.000000 -1.008765
v -0.495270 0.000000 0.970732
v -0.944152 0.000000 0.628926
v -1.163959 0.000000 0.123683
v -1.082379 0.000000 -0.463111
v -0.609402 0.000000 -0.989904
v 0.056910 0.000000 1.194203
v 0.199464 0.000000 -1.180641
v 1.090737 0.000000 -0.769389
v 1.371548 0.000000 -0.283163
v 1.346962 0.000000 0.305439
v 0.992534 0.000000 0.898025
v 0.207776 0.000000 1.201311
vn -0.3971 -0.1075 0.9115
vn -0.6170 -0.0675 0.7841
vn -0.9471 0.0820 0.3102
vn -0.9484 0.1007 -0.3005
vn -0.6572 0.0732 -0.7502
vn -0.2409 0.0514 -0.9692
vn -0.0000 -1.0000 -0.0000
vn -0.3707 0.0593 0.9269
vn -0.6179 0.0392 0.7853
vn -0.9391 0.2192 0.2647
vn -0.9217 0.2601 -0.2877
vn -0.6665 0.0826 -0.7409
vn 0.9549 0.1688 -0.2442
vn 0.1528 0.2846 -0.9464
vn -0.3124 0.3107 0.8977
vn -0.5650 0.2864 0.7738
vn -0.9640 0.1585 0.2137
vn -0.9268 0.2321 -0.2952
vn -0.6224 0.4739 -0.6229
vn -0.1903 0.4470 -0.8741
vn 0.2546 0.2752 -0.9271
vn 0.6829 0.1926 -0.7047
vn 0.9608 0.1266 -0.2465
vn 0.9665 0.1315 0.2203
vn 0.7615 0.2234 0.6085
vn 0.1528 0.3206 0.9348
vn -0.3383 0.4294 0.8374
vn -0.4759 0.5088 0.7174
vn -0.7943 0.5425 0.2735
vn -0.7802 0.5597 -0.2792
vn -0.5500 0.4231 -0.7200
vn -0.2495 0.4727 -0.8452
vn 0.2306 0.3926 -0.8903
vn 0.6469 0.3492 -0.6779
vn 0.9190 0.3278 -0.2191
vn 0.9311 0.2559 0.2598
vn 0.6978 0.3961 0.5968
vn 0.2189 0.3748 0.9009
vn -0.2729 0.4589 0.8455
vn -0.6139 0.3620 0.7014
vn -0.8028 0.5092 0.3102
vn -0.8388 0.4980 -0.2199
vn -0.5156 0.4653 -0.7195
vn -0.2449 0.4045 -0.8811
vn 0.1960 0.4445 -0.8741
vn 0.5951 0.4970 -0.6316
vn 0.8429 0.4881 -0.2264
vn 0.8331 0.4522 0.3185
vn 0.6950 0.4410 0.5679
vn 0.1944 0.4717 0.8601
vn -0.2101 0.3065 0.9284
vn -0.5853 0.4646 0.6645
vn -0.8813 0.3974 0.2559
vn -0.7949 0.5803 -0.1771
vn -0.4874 0.5532 -0.6755
vn -0.2616 0.3936 -0.8813
vn 0.2386 0.2646 -0.9344
vn 0.6637 0.3845 -0.6416
vn 0.8936 0.3732 -0.2493
vn 0.8675 0.3719 0.3305
vn 0.7504 0.0431 0.6596
vn 0.2180 0.3013 0.9283
vn -0.1870 0.3959 0.8990
vn -0.6962 0.3223 0.6415
vn -0.8569 0.3769 0.3517
vn -0.8494 0.3948 -0.3503
vn -0.6326 0.4213 -0.6499
vn -0.0925 0.4474 -0.8895
vn 0.0130 0.5356 -0.8444
vn 0.6669 0.5411 -0.5123
vn 0.9210 0.3118 -0.2336
vn 0.9311 0.3492 0.1054
vn 0.5939 0.3404 0.7290
vn 0.2174 0.2815 0.9346
vn -0.3037 0.1838 0.9349
vn -0.6568 0.1331 0.7422
vn -0.8779 0.3462 0.3308
vn -0.8486 0.3513 -0.3955
vn -0.6470 0.0593 -0.7602
vn -0.3527 0.2800 -0.8929
vn 0.3498 0.2571 -0.9009
vn 0.5987 0.1906 -0.7780
vn 0.9207 0.2006 -0.3349
vn 0.9499 0.1942 0.2449
vn 0.6535 0.1623 0.7393
vn 0.2277 0.3537 0.9072
vn -0.1691 0.0240 0.9853
vn -0.7351 -0.0179 0.6777
vn -0.9847 -0.0124 0.1740
vn -0.9680 0.1982 -0.1541
vn -0.6403 0.1967 -0.7425
vn -0.1770 0.1304 -0.9755
vn 0.1697 0.1667 -0.9713
vn 0.7136 0.1549 -0.6832
vn 0.9425 0.0260 -0.3332
vn 0.9727 0.0182 0.2312
vn 0.5052 0.1681 0.8465
vn 0.3925 0.1055 0.9137
vn -0.0841 0.1197 0.9892
vn -0.6865 0.1633 0.7086
vn -0.9683 0.1696 0.1836
vn -0.9372 0.0663 -0.3425
vn -0.6894 -0.0230 -0.7240
vn -0.2164 -0.0285 -0.9759
vn 0.2424 0.0254 -0.9699
vn 0.5840 0.0429 -0.8106
vn 0.9654 0.0347 -0.2585
vn 0.9164 0.1076 0.3855
vn 0.7121 0.0073 0.7020
vn 0.2208 0.0529 0.9739
vn -0.2391 0.0260 0.9707
vn -0.7104 0.0288 0.7032
vn -0.9593 0.0131 0.2822
vn -0.9611 0.0787 -0.2646
vn -0.6625 0.2707 -0.6984
vn -0.2645 0.2514 -0.9310
vn 0.3426 0.2408 -0.9081
vn 0.5999 -0.0555 -0.7982
vn 0.9806 -0.0800 -0.1790
vn 0.9550 -0.0470 0.2928
vn 0.6848 -0.0436 0.7274
vn 0.3196 -0.0934 0.9429
vn -0.4416 0.1497 0.8846
vn -0.6983 -0.0790 0.7115
vn -0.9511 -0.0051 0.3087
vn -0.9366 -0.0101 -0.3502
vn -0.5421 0.0427 -0.8392
vn -0.2897 -0.0228 -0.9568
vn 0.0981 0.1332 -0.9862
vn 0.5575 0.2196 -0.8006
vn 0.9607 0.2317 -0.1527
vn 0.9380 0.1357 0.3188
vn 0.7124 0.1365 0.6884
vn 0.4350 0.1528 0.8874
vn -0.2768 0.1682 0.9461
vn -0.6449 0.2064 0.7359
vn -0.9654 0.1942 0.1741
vn -0.9070 0.1355 -0.3988
vn -0.6058 0.1419 -0.7829
vn -0.2681 0.1392 -0.9533
vn 0.2346 0.1330 -0.9629
vn 0.6231 0.1310 -0.7711
vn 0.9391 0.0586 -0.3387
vn 0.9157 0.0056 0.4017
vn 0.7914 0.1586 0.5904
vn 0.3199 0.1737 0.9314
vn -0.2670 0.1608 0.9502
vn -0.6895 0.1479 0.7090
vn -0.9748 0.0513 0.2171
vn -0.9656 0.1342 -0.2225
vn -0.4506 0.1869 -0.8730
vn -0.2821 0.0211 -0.9592
vn 0.1150 0.0625 -0.9914
vn 0.7194 -0.0098 -0.6946
vn 0.9009 0.0763 -0.4273
vn 0.9375 0.0655 0.3417
vn 0.7037 0.0678 0.7072
vn 0.3189 0.0617 0.9458
vn -0.4226 0.1755 0.8892
vn -0.6277 0.2051 0.7509
vn -0.9774 0.1749 0.1189
vn -0.9396 0.1156 -0.3223
vn -0.6024 0.1350 -0.7867
vn -0.2605 0.1475 -0.9541
vn 0.1257 -0.0809 -0.9888
vn 0.6436 -0.0678 -0.7624
vn 0.9326 0.0610 -0.3558
vn 0.9416 0.1364 0.3080
vn 0.6793 0.2455 0.6916
vn 0.3735 0.2070 0.9043
vn -0.4194 0.2162 0.8817
vn -0.6707 0.0976 0.7353
vn -0.9717 0.1699 0.1643
vn -0.9223 0.1216 -0.3668
vn -0.5901 -0.0296 -0.8068
vn -0.4892 0.1171 -0.8643
vn 0.0685 0.0570 -0.9960
vn 0.6375 0.3070 -0.7067
vn 0.9623 0.1066 -0.2501
vn 0.9312 0.0172 0.3642
vn 0.5931 0.2289 0.7719
vn 0.3996 0.2541 0.8808
vn -0.3236 0.1743 0.9300
vn -0.7593 0.0775 0.6462
vn -0.9804 -0.0370 0.1937
vn -0.9797 0.0612 -0.1908
vn -0.5840 0.0186 -0.8115
vn -0.3472 0.0329 -0.9372
vn -0.0419 0.1670 -0.9851
vn 0.8239 0.0604 -0.5635
vn 0.8493 0.1226 -0.5135
vn 0.9228 0.2991 0.2429
vn 0.4009 0.2611 0.8781
vn 0.3754 0.2089 0.9030
vn -0.2628 0.1958 0.9448
vn -0.6894 0.1568 0.7072
vn -0.9949 0.0935 0.0379
vn -0.9856 -0.0677 -0.1550
vn -0.5746 0.0392 -0.8175
vn -0.5043 0.0658 -0.8610
vn 0.2638 0.1290 -0.9559
vn 0.6558 0.1650 -0.7367
vn 0.8794 0.1486 -0.4524
vn 0.8854 0.2547 0.3889
vn 0.6167 0.0955 0.7814
vn 0.2263 0.2296 0.9466
vn -0.2579 0.0483 0.9650
vn -0.6973 -0.0010 0.7168
vn -0.9656 0.0446 0.2562
vn -0.9140 -0.2377 -0.3289
vn -0.8033 -0.1763 -0.5688
vn -0.1819 0.1148 -0.9766
vn 0.2623 0.1407 -0.9547
vn 0.6589 0.0931 -0.7464
vn 0.8385 0.1774 -0.5152
vn 0.8779 0.1247 0.4622
vn 0.6925 0.3778 0.6145
vn 0.0413 0.3320 0.9424
vn -0.4356 0.1907 0.8797
vn -0.7812 -0.0614 0.6213
vn -0.8117 -0.1348 0.5683
vn -0.9053 -0.0496 -0.4218
vn -0.5611 -0.0359 -0.8270
vn -0.4389 -0.0452 -0.8974
vn 0.5193 0.0330 -0.8540
vn 0.5457 0.1156 -0.8300
vn 0.8700 0.1971 -0.4519
vn 0.9310 0.2097 0.2988
vn 0.4629 0.1091 0.8797
vn 0.5390 0.2572 0.8021
vn -0.1975 0.2384 0.9509
vn -0.7250 0.1722 0.6668
vn -0.9269 0.0756 0.3677
vn -0.8913 0.0866 -0.4450
vn -0.5717 -0.0981 -0.8146
vn -0.4790 0.1822 -0.8587
vn 0.5041 0.2691 -0.8207
vn 0.6487 0.0831 -0.7564
vn 0.8839 0.1584 -0.4401
vn 0.9317 0.2961 0.2102
vn 0.5298 0.3055 0.7912
vn 0.3504 0.3502 0.8687
vn -0.0795 0.3230 0.9430
vn -0.6528 0.2739 0.7062
vn -0.9630 0.1213 0.2405
vn -0.9838 0.0216 -0.1778
vn -0.7776 0.1353 -0.6140
vn 0.1270 0.2855 -0.9499
vn 0.1672 0.1025 -0.9806
vn 0.6919 0.0907 -0.7163
vn 0.8941 0.1829 -0.4087
vn 0.9196 0.1984 0.3390
vn 0.5414 0.0990 0.8349
vn 0.2636 0.3198 0.9101
vn -0.1373 0.3556 0.9245
vn -0.5119 0.3206 0.7970
vn -0.8972 0.2880 0.3347
vn -0.8975 0.2124 -0.3866
vn -0.5324 0.1764 -0.8279
vn -0.1975 0.2106 -0.9574
vn 0.0979 0.3604 -0.9276
vn 0.4821 0.3622 -0.7977
vn 0.8078 0.4974 -0.3164
vn 0.8422 0.4915 0.2216
vn 0.5724 0.4451 0.6886
vn -0.1485 0.3138 0.9378
vn 0.9085 -0.3139 0.2759
vn -0.1199 0.9928 -0.0000
vn 0.2334 -0.0885 -0.9684
vn 0.3206 -0.1378 -0.9371
vn -0.1817 0.2224 -0.9579
vn -0.1576 0.5336 -0.8309
vn -0.2229 0.4966 -0.8389
vn 0.9895 -0.1386 0.0405
vn 0.1189 -0.9887 -0.0915
vn -0.8798 -0.3816 -0.2835
vn 0.0240 0.9692 -0.2451
vn 0.2214 0.9080 -0.3558
vn 0.7152 -0.6617 0.2249
vn -0.1746 -0.9709 0.1638
vn -0.9755 0.2027 -0.0857
vn -0.0254 0.9567 -0.2899
vn 0.7120 0.6726 -0.2014
vn 0.1456 -0.9121 0.3832
vn -0.3703 -0.8051 0.4634
vn -0.5325 0.0552 0.8446
vn 0.2155 0.9060 0.3642
vn 0.8581 0.2886 0.4247
vn 0.1377 0.6365 0.7589
vn 0.2389 0.7788 0.5800
vn 0.1212 0.9273 0.3541
vn 0.1912 0.6110 0.7682
vn 0.1120 0.8107 0.5747
vn -0.0928 0.8540 0.5119
vn 0.0039 0.0314 0.9995
vn -0.5286 0.0365 0.8481
vn -0.5589 -0.5994 0.5731
vn 0.0837 -0.2245 0.9709
vn -0.0478 -0.7964 0.6028
vn 0.1032 -0.9200 0.3781
vn 0.1762 -0.1606 0.9712
vn 0.3521 -0.4707 0.8090
vn 0.8248 0.3912 0.4082
vn 0.8861 0.3931 0.2457
vn 0.7357 0.6635 0.1358
vn 0.1239 0.9312 0.3429
vn 0.1232 0.9868 0.1047
vn 0.0089 0.9985 0.0537
vn -0.1355 0.9746 0.1783
vn -0.9833 0.0530 0.1741
vn -0.9559 0.2048 0.2103
vn -0.6986 -0.6050 0.3820
vn -0.3599 -0.9312 0.0572
vn -0.1974 -0.9791 -0.0491
vn 0.0133 -0.9988 0.0461
vn 0.2255 -0.9742 0.0078
vn 0.6679 -0.6689 -0.3263
vn 0.9706 -0.0673 -0.2310
vn -0.0089 0.9760 0.2178
vn -0.0396 0.9957 -0.0841
vn -0.1898 0.9703 -0.1499
vn -0.6736 0.7321 -0.1011
vn -0.6570 0.7404 0.1417
vn -0.9962 0.0749 -0.0437
vn -0.3615 -0.9307 0.0565
vn -0.3654 -0.9307 0.0176
vn -0.4258 -0.9032 0.0546
vn 0.1226 -0.9912 -0.0494
vn 0.1181 -0.9887 -0.0919
vn 0.1298 -0.9863 -0.1014
vn 0.8633 -0.5002 -0.0671
vn 0.8642 -0.5001 -0.0552
vn 0.8252 0.4660 -0.3191
vn 0.2169 0.8887 -0.4039
vn -0.0918 0.8496 -0.5193
vn -0.2278 0.9372 -0.2641
vn 0.0217 0.9713 -0.2368
vn -0.1798 0.5703 -0.8015
vn -0.7932 -0.2783 -0.5417
vn -0.8088 -0.2016 -0.5524
vn -0.5891 -0.4778 -0.6516
vn -0.3914 -0.8277 -0.4022
vn 0.5957 0.4675 -0.6532
vn 0.3603 -0.4896 -0.7940
vn 0.0942 -0.4733 -0.8758
vn 0.0785 -0.9325 -0.3527
vn 0.3029 -0.7332 -0.6088
vn 0.0420 -0.7097 -0.7033
vn 0.1831 -0.0888 -0.9791
vn 0.6959 -0.3810 -0.6087
vn 0.1802 -0.0865 -0.9798
vn 0.1798 0.1126 -0.9772
vn 0.3072 0.2084 -0.9285
vn 0.8983 -0.3998 -0.1822
vn -0.1003 -0.9878 -0.1188
vn -0.8556 0.1160 -0.5045
vn -0.2508 0.9189 -0.3044
vn 0.2384 0.9651 -0.1081
vn 0.4511 -0.8898 0.0697
vn -0.0506 -0.9883 -0.1438
vn -0.7726 -0.2227 -0.5946
vn 0.0228 0.9984 0.0517
vn 0.3769 0.9263 -0.0020
vn 0.0378 -0.9824 0.1828
vn -0.1271 -0.8651 0.4852
vn -0.7516 0.4330 0.4976
vn -0.1514 0.9166 0.3699
vn 0.6498 0.1153 0.7513
vn -0.3137 -0.1499 0.9376
vn 0.1604 0.6168 0.7706
vn 0.0761 0.8800 0.4688
vn -0.0163 -0.3589 0.9332
vn -0.1243 0.9287 0.3495
vn -0.1813 0.9345 0.3062
vn 0.0119 -0.2752 0.9613
vn -0.6386 -0.3509 0.6849
vn -0.6350 -0.1802 0.7512
vn -0.1917 0.3709 0.9087
vn -0.2680 -0.8834 0.3843
vn 0.0156 -0.9843 0.1758
vn -0.3031 0.2958 0.9059
vn 0.2192 -0.5312 0.8184
vn 0.6542 -0.0102 0.7563
vn 0.8151 0.3201 0.4828
vn 0.3707 0.9279 0.0412
vn 0.2575 0.9632 0.0773
vn -0.1097 0.9934 -0.0347
vn 0.0199 0.9973 0.0700
vn -0.1682 0.9664 0.1945
vn -0.8822 0.4400 0.1677
vn -0.9676 -0.2500 -0.0353
vn -0.9791 -0.1968 -0.0509
vn -0.0941 -0.9913 0.0917
vn -0.0877 -0.9923 0.0878
vn 0.0157 -0.9853 0.1702
vn 0.0482 -0.9854 0.1631
vn 0.4565 -0.8891 0.0331
vn 0.8750 -0.2960 0.3830
vn 0.0462 0.9926 -0.1119
vn 0.0302 0.9995 -0.0101
vn 0.0748 0.9969 0.0259
vn -0.5278 0.8487 -0.0345
vn -0.4798 0.8331 -0.2752
vn -0.7588 -0.0986 -0.6438
vn -0.5231 -0.8144 -0.2513
vn -0.5534 -0.8257 -0.1097
vn -0.0857 -0.9784 -0.1884
vn 0.0428 -0.9867 0.1569
vn 0.0662 -0.9977 0.0146
vn 0.2769 -0.9577 -0.0781
vn 0.9229 -0.1608 0.3498
vn 0.9803 -0.1580 -0.1186
vn 0.7848 0.5467 -0.2920
vn 0.3026 0.8031 -0.5132
vn 0.3002 0.8029 -0.5150
vn 0.0963 0.9281 -0.3596
vn -0.1740 0.8691 -0.4631
vn -0.2381 0.7018 -0.6714
vn -0.8291 -0.0207 -0.5587
vn -0.8193 0.1548 -0.5521
vn -0.1847 -0.6419 -0.7442
vn -0.0401 -0.9581 -0.2835
vn 0.5788 0.4977 -0.6460
vn 0.5916 0.2839 -0.7546
vn 0.2853 0.2664 -0.9207
vn -0.0999 -0.9469 -0.3056
vn 0.2049 -0.8012 -0.5623
vn 0.3400 -0.8166 -0.4664
vn 0.8647 -0.4183 -0.2783
vn 0.9776 0.1049 0.1825
vn 0.6484 -0.0497 -0.7597
vn 0.6455 -0.1069 -0.7563
vn 0.9188 0.3320 -0.2135
vn 0.3675 0.0957 0.9251
vn 0.1090 -0.9924 0.0564
vn -0.1678 0.0607 -0.9840
vn -0.2108 0.8969 -0.3888
vn 0.4103 0.8542 0.3194
vn 0.0556 -0.6125 0.7885
vn -0.1554 -0.9835 -0.0923
vn -0.2628 0.3568 -0.8965
vn -0.2433 0.9624 -0.1208
vn 0.4117 0.7068 0.5753
vn -0.3345 -0.7881 0.5167
vn -0.7556 -0.6467 -0.1048
vn -0.9204 0.2089 -0.3304
vn -0.3482 0.8740 0.3391
vn -0.3098 0.2578 0.9152
vn -0.8690 0.0602 0.4911
vn -0.4769 0.5816 0.6590
vn -0.3159 0.8297 0.4603
vn -0.8411 0.0188 0.5405
vn -0.5875 0.7576 0.2845
vn -0.5919 0.8027 -0.0732
vn -0.8554 -0.2934 0.4269
vn -0.9295 -0.3281 -0.1684
vn -0.8727 -0.4483 -0.1934
vn -0.9323 -0.0040 0.3616
vn -0.7586 -0.6268 0.1778
vn -0.3972 -0.8712 0.2883
vn -0.8662 0.1003 0.4895
vn -0.4808 -0.5033 0.7179
vn -0.3135 -0.2096 0.9262
vn 0.3411 0.6115 0.7140
vn 0.3373 0.7119 0.6160
vn 0.0666 0.9201 0.3859
vn 0.0413 0.9971 0.0641
vn 0.0646 0.9618 -0.2660
vn 0.0001 0.9490 -0.3154
vn -0.4223 0.1868 -0.8870
vn -0.4397 0.3602 -0.8228
vn -0.6063 -0.4713 -0.6405
vn -0.1658 -0.9262 -0.3385
vn 0.0491 -0.9809 -0.1884
vn 0.0359 -0.9993 -0.0096
vn 0.0659 -0.8976 0.4359
vn 0.3610 -0.6389 0.6794
vn 0.3604 -0.5755 0.7341
vn 0.1240 0.9861 0.1102
vn 0.0911 0.9878 0.1261
vn 0.0961 0.9928 0.0710
vn 0.0355 0.8546 -0.5181
vn -0.2333 0.8828 -0.4077
vn -0.2052 0.4774 -0.8544
vn -0.1621 -0.9041 -0.3955
vn -0.2442 -0.9021 -0.3557
vn -0.1270 -0.9562 -0.2638
vn 0.1359 -0.9896 0.0472
vn 0.1087 -0.9922 0.0604
vn 0.1647 -0.9821 0.0913
vn 0.6028 0.0034 0.7979
vn 0.3899 0.0035 0.9209
vn 0.4221 0.6958 0.5812
vn 0.5895 0.7642 0.2616
vn 0.6234 0.7809 -0.0387
vn 0.3935 0.9128 -0.1090
vn 0.3003 0.8013 -0.5174
vn 0.5493 0.0594 -0.8335
vn 0.5069 -0.0123 -0.8619
vn 0.4550 0.4410 -0.7736
vn 0.7205 0.0889 -0.6877
vn 0.3920 -0.8523 -0.3463
vn 0.6397 0.7076 0.2999
vn 0.9778 0.1009 0.1836
vn 0.9848 0.0945 -0.1454
vn 0.4259 -0.8961 -0.1248
vn 0.5725 -0.8160 -0.0797
vn 0.5724 -0.8101 -0.1272
vn 0.7206 -0.1482 -0.6773
vn -0.2109 0.0723 -0.9748
vn -0.1094 0.1470 -0.9831
vn 0.7375 -0.1483 -0.6589
vn -0.3727 0.9183 -0.1338
vn 0.1003 0.9814 -0.1635
vn 0.4367 -0.8784 -0.1941
vn -0.9866 0.1612 -0.0271
vn -0.0307 0.9986 0.0442
vn 0.6531 0.7567 0.0299
vn -0.2690 -0.7409 0.6154
vn -0.4265 -0.3997 0.8114
vn -0.0265 0.9490 0.3141
vn 0.8523 -0.1914 0.4868
vn 0.2544 -0.3930 0.8836
vn 0.6623 0.2269 0.7140
vn 0.3085 0.8975 0.3152
vn 0.0041 -0.2100 0.9777
vn -0.1875 0.8231 0.5360
vn 0.0188 0.8070 0.5902
vn 0.1231 0.1863 0.9748
vn -0.5966 0.1921 0.7792
vn 0.2767 0.0072 0.9609
vn 0.5473 -0.5422 0.6375
vn 0.8570 -0.1611 0.4895
vn 0.9749 0.2104 -0.0730
vn 0.6160 0.7648 -0.1887
vn 0.3225 0.9462 0.0256
vn -0.1028 0.9944 0.0253
vn -0.0298 0.9984 0.0485
vn -0.1011 0.9863 0.1306
vn -0.8334 -0.4069 0.3740
vn -0.8211 0.1531 0.5499
vn 0.4814 -0.8758 0.0352
vn 0.0178 0.9950 -0.0984
vn 0.0214 0.9965 -0.0809
vn 0.0746 0.9952 -0.0639
vn -0.6603 0.7496 -0.0463
vn -0.6539 0.7564 0.0145
vn -0.9150 0.3900 -0.1031
vn 0.8929 0.4501 0.0125
vn 0.7678 0.4360 -0.4695
vn 0.9156 -0.1928 -0.3529
vn 0.0228 0.8636 -0.5036
vn 0.0790 0.8688 -0.4888
vn -0.0113 0.9396 -0.3421
vn -0.3642 0.8644 -0.3468
vn -0.5052 0.7060 -0.4963
vn -0.9142 0.2695 -0.3027
vn 0.5035 -0.1952 -0.8417
vn 0.5971 0.3110 -0.7394
vn -0.1531 0.3029 -0.9407
vn -0.1102 -0.8857 -0.4510
vn -0.3789 -0.0636 0.9232
vn -0.6222 -0.0823 0.7785
vn -0.9638 -0.0145 0.2664
vn -0.9488 0.1187 -0.2926
vn -0.6640 0.1064 -0.7401
vn -0.2405 0.0550 -0.9691
vn -0.3391 0.1250 0.9324
vn -0.5976 0.0858 0.7972
vn -0.9712 0.1040 0.2144
vn -0.9232 0.2470 -0.2945
vn -0.6919 0.2600 -0.6736
vn -0.2432 0.0595 -0.9682
vn 0.2458 0.0140 -0.9692
vn -0.3364 -0.2996 -0.8928
vn -0.3845 0.1857 0.9042
vn -0.5301 0.3390 0.7772
vn -0.8843 0.3587 0.2989
vn -0.9296 0.1804 -0.3213
vn -0.6030 0.2158 -0.7680
vn -0.2821 0.3078 -0.9087
vn 0.2318 0.2242 -0.9466
vn 0.6739 0.1584 -0.7216
vn 0.9606 0.1526 -0.2322
vn 0.9377 0.2280 0.2622
vn 0.7190 0.3123 0.6209
vn 0.2172 0.1531 0.9641
vn -0.3035 0.3018 0.9037
vn -0.6207 0.3384 0.7073
vn -0.7563 0.5842 0.2946
vn -0.8650 0.4481 -0.2258
vn -0.5163 0.4633 -0.7202
vn -0.2385 0.4377 -0.8669
vn 0.1956 0.4558 -0.8683
vn 0.6301 0.3762 -0.6793
vn 0.9268 0.2771 -0.2534
vn 0.8533 0.4057 0.3276
vn 0.7191 0.3630 0.5926
vn 0.1962 0.4182 0.8869
vn -0.2112 0.2985 0.9308
vn -0.6236 0.3498 0.6991
vn -0.8741 0.4140 0.2541
vn -0.8205 0.5419 -0.1821
vn -0.5264 0.4537 -0.7191
vn -0.2547 0.4301 -0.8661
vn 0.2355 0.3816 -0.8939
vn 0.6507 0.4297 -0.6261
vn 0.8454 0.4802 -0.2339
vn 0.8358 0.4487 0.3165
vn 0.6750 0.4658 0.5722
vn 0.2135 0.4431 0.8707
vn -0.1966 0.3237 0.9255
vn -0.6873 0.3528 0.6349
vn -0.7957 0.5081 0.3297
vn -0.8459 0.4033 -0.3490
vn -0.6353 0.4134 -0.6523
vn -0.0752 0.5856 -0.8071
vn 0.0159 0.5841 -0.8116
vn 0.7634 0.2361 -0.6012
vn 0.8888 0.3998 -0.2242
vn 0.9917 0.0586 0.1140
vn 0.5996 0.3099 0.7379
vn 0.2170 0.3029 0.9280
vn -0.2930 0.2793 0.9144
vn -0.5891 0.4364 0.6801
vn -0.8771 0.3484 0.3305
vn -0.8139 0.4386 -0.3811
vn -0.5530 0.4943 -0.6707
vn -0.3681 0.1486 -0.9178
vn 0.3543 0.1179 -0.9277
vn 0.5821 0.3148 -0.7497
vn 0.9200 0.2042 -0.3346
vn 0.9499 0.1943 0.2449
vn 0.6374 0.2865 0.7153
vn 0.2310 0.2625 0.9369
vn -0.1705 -0.0185 0.9852
vn -0.7346 0.0177 0.6782
vn -0.9711 0.1648 0.1726
vn -0.9855 0.0671 -0.1562
vn -0.6551 0.0475 -0.7540
vn -0.1816 0.0283 -0.9830
vn 0.1677 0.0292 -0.9854
vn 0.7201 0.0117 -0.6938
vn 0.9264 0.1890 -0.3257
vn 0.9586 0.1722 0.2267
vn 0.4820 0.3642 0.7969
vn 0.3914 0.1536 0.9073
vn -0.0839 0.1278 0.9882
vn -0.6964 0.0470 0.7161
vn -0.9826 0.0005 0.1856
vn -0.9394 -0.0038 -0.3428
vn -0.6801 0.1466 -0.7183
vn -0.2131 0.0891 -0.9730
vn 0.2428 0.0763 -0.9671
vn 0.5827 -0.0421 -0.8116
vn 0.9641 -0.0592 -0.2588
vn 0.9046 0.1934 0.3797
vn 0.7065 -0.1106 0.6991
vn 0.2166 -0.1038 0.9707
vn -0.2397 -0.0663 0.9686
vn -0.7029 0.1410 0.6972
vn -0.9574 0.0625 0.2818
vn -0.9640 -0.0212 -0.2651
vn -0.6900 -0.0220 -0.7235
vn -0.2760 -0.1022 -0.9557
vn 0.3470 -0.1103 -0.9314
vn 0.6013 0.0185 -0.7988
vn 0.9768 0.1193 -0.1779
vn 0.9561 0.0065 0.2929
vn 0.6853 0.0481 0.7267
vn 0.3204 -0.0743 0.9444
vn -0.4346 -0.2371 0.8689
vn -0.7003 0.0117 0.7138
vn -0.9510 -0.0169 0.3087
vn -0.9365 -0.0164 -0.3502
vn -0.5411 0.0713 -0.8379
vn -0.2785 0.2692 -0.9220
vn 0.0985 -0.0466 -0.9940
vn 0.5683 -0.0961 -0.8172
vn 0.9823 -0.1036 -0.1563
vn 0.9439 -0.0772 0.3210
vn 0.7156 -0.0952 0.6920
vn 0.4261 -0.2441 0.8711
vn -0.2782 -0.0760 0.9575
vn -0.6504 -0.1460 0.7455
vn -0.9728 -0.1506 0.1760
vn -0.9141 0.0506 -0.4023
vn -0.6103 -0.0472 -0.7908
vn -0.2690 -0.0465 -0.9620
vn 0.2379 -0.0216 -0.9711
vn 0.6216 0.1477 -0.7693
vn 0.9397 0.0466 -0.3389
vn 0.9145 0.0507 0.4014
vn 0.8020 -0.0021 0.5973
vn 0.3261 -0.0014 0.9453
vn -0.2671 0.1557 0.9510
vn -0.6895 0.1477 0.7091
vn -0.9645 0.1543 0.2144
vn -0.9730 -0.0503 -0.2251
vn -0.4544 -0.0521 -0.8893
vn -0.2817 0.1244 -0.9514
vn 0.1165 -0.0031 -0.9932
vn 0.7192 0.0122 -0.6947
vn 0.8930 0.1500 -0.4242
vn 0.9373 0.0689 0.3416
vn 0.7059 0.0068 0.7082
vn 0.3134 0.1648 0.9352
vn -0.4236 -0.0391 0.9050
vn -0.6374 0.0678 0.7676
vn -0.9822 0.1450 0.1196
vn -0.9213 0.2280 -0.3149
vn -0.6057 0.0204 -0.7955
vn -0.2602 0.0450 -0.9645
vn 0.1218 0.0557 -0.9910
vn 0.6397 0.0902 -0.7633
vn 0.9345 0.0056 -0.3559
vn 0.9460 0.0978 0.3090
vn 0.7021 0.0651 0.7091
vn 0.3876 -0.0197 0.9216
vn -0.4215 0.1741 0.8900
vn -0.6667 0.1596 0.7280
vn -0.9767 0.1365 0.1654
vn -0.9183 0.1544 -0.3646
vn -0.5885 0.1490 -0.7946
vn -0.4840 -0.0923 -0.8702
vn 0.0758 -0.1356 -0.9879
vn 0.6753 -0.1099 -0.7293
vn 0.9676 -0.0372 -0.2499
vn 0.9277 0.0833 0.3639
vn 0.6067 0.1303 0.7842
vn 0.4009 0.2447 0.8828
vn -0.3236 0.1192 0.9387
vn -0.7483 0.2043 0.6311
vn -0.9701 0.1515 0.1897
vn -0.9813 -0.0156 -0.1919
vn -0.5826 -0.0214 -0.8125
vn -0.3450 -0.0179 -0.9384
vn -0.0415 0.1578 -0.9866
vn 0.8189 0.1160 -0.5621
vn 0.8025 0.3375 -0.4921
vn 0.9599 0.1263 0.2501
vn 0.4261 0.0169 0.9045
vn 0.3737 0.2222 0.9005
vn -0.2615 0.1199 0.9577
vn -0.6930 0.0022 0.7210
vn -0.9966 0.0737 0.0380
vn -0.9874 0.0348 -0.1543
vn -0.5744 0.0283 -0.8181
vn -0.4930 -0.1210 -0.8616
vn 0.2776 -0.0869 -0.9568
vn 0.6399 0.2541 -0.7252
vn 0.8881 0.0702 -0.4543
vn 0.9022 0.1756 0.3940
vn 0.6182 0.0797 0.7820
vn 0.2422 0.0645 0.9681
vn -0.2633 0.1962 0.9445
vn -0.6942 0.1618 0.7013
vn -0.9653 -0.0425 0.2578
vn -0.9420 0.0551 -0.3311
vn -0.7963 -0.2139 -0.5658
vn -0.1570 -0.2004 -0.9670
vn 0.2635 0.1293 -0.9560
vn 0.6488 0.1706 -0.7416
vn 0.8346 0.1987 -0.5138
vn 0.8662 0.1975 0.4589
vn 0.7277 0.2546 0.6368
vn 0.0645 0.0668 0.9957
vn -0.4192 -0.1198 0.9000
vn -0.7846 0.0834 0.6144
vn -0.8091 -0.1529 0.5675
vn -0.8909 -0.1729 -0.4199
vn -0.5664 0.1075 -0.8171
vn -0.4307 -0.1229 -0.8941
vn 0.5238 -0.0434 -0.8508
vn 0.5371 0.1766 -0.8248
vn 0.8804 0.1350 -0.4545
vn 0.9213 0.2510 0.2969
vn 0.4624 0.1131 0.8794
vn 0.5744 -0.0335 0.8179
vn -0.1825 0.0149 0.9831
vn -0.7183 -0.1161 0.6860
vn -0.9286 0.0082 0.3709
vn -0.8922 -0.0271 -0.4508
vn -0.5767 -0.0509 -0.8154
vn -0.4669 -0.0747 -0.8811
vn 0.5409 0.0165 -0.8409
vn 0.6518 0.0517 -0.7566
vn 0.8784 0.1895 -0.4388
vn 0.9410 0.2643 0.2116
vn 0.5521 0.2022 0.8089
vn 0.3932 0.1050 0.9134
vn -0.0804 0.3333 0.9394
vn -0.6645 0.1216 0.7373
vn -0.9594 0.1503 0.2388
vn -0.9806 -0.0798 -0.1791
vn -0.7365 -0.2805 -0.6155
vn 0.1793 -0.1981 -0.9636
vn 0.1807 -0.0228 -0.9833
vn 0.6956 0.0552 -0.7163
vn 0.9008 0.1432 -0.4099
vn 0.9134 0.2272 0.3378
vn 0.5080 0.2836 0.8133
vn 0.2705 0.2842 0.9198
vn -0.1323 0.2892 0.9481
vn -0.5189 0.1916 0.8331
vn -0.9315 0.0662 0.3577
vn -0.9075 0.1445 -0.3944
vn -0.5238 0.3264 -0.7868
vn -0.1869 0.0813 -0.9790
vn 0.1338 0.1165 -0.9841
vn 0.5268 0.1696 -0.8329
vn 0.9254 0.1558 -0.3454
vn 0.9383 0.2504 0.2386
vn 0.6457 0.1943 0.7385
vn -0.1240 0.0383 0.9915
vn -0.1032 0.3709 0.9229
vn -0.4721 0.3397 0.8135
vn -0.8889 0.2779 0.3642
vn -0.8816 0.2230 -0.4160
vn -0.4422 0.2137 -0.8711
vn 0.2723 0.3985 -0.8758
vn -0.0590 0.3797 -0.9232
vn 0.1744 0.3842 -0.9066
vn 0.8265 0.4897 -0.2775
vn 0.8370 0.5472 -0.0055
vn 0.6318 0.4940 0.5974
vn -0.2820 0.3394 0.8974
vn -0.9314 -0.1934 -0.3084
vn -0.8197 0.1255 0.5589
vn 0.1978 -0.0522 0.9789
vn -0.6181 0.1254 0.7760
vn -0.9436 -0.2808 -0.1753
vn -0.3653 -0.7575 -0.5410
vn -0.6472 -0.7620 -0.0236
vn 0.0332 -0.7208 0.6924
vn -0.6117 -0.7694 0.1840
vn 0.2046 -0.9091 -0.3628
vn -0.1938 -0.3997 -0.8959
vn 0.1853 -0.0529 0.9813
vn 0.7700 -0.0746 0.6336
vn 0.7472 0.0309 0.6639
vn 0.9740 0.0372 0.2236
vn 0.9530 0.1416 0.2677
vn 0.9500 0.0425 -0.3093
vn 0.6892 0.0792 -0.7202
vn 0.7272 0.2360 -0.6445
vn 0.1429 0.0936 0.9853
vt -0.365492 0.000000
vt -0.394096 0.014674
vt -0.394590 0.000000
vt -0.646043 0.000000
vt -0.709615 0.039683
vt -0.710059 0.000000
vt 0.104796 0.000000
vt 0.010018 0.047667
vt 0.007128 0.000000
vt -0.261950 0.000000
vt -0.348807 0.038982
vt -0.351448 0.000000
vt 0.436824 0.000000
vt 0.403159 0.015392
vt 0.404160 0.000000
vt -0.026925 0.152174
vt -0.015230 0.000000
vt 0.208966 0.000000
vt 0.564386 -0.588760
vt 0.469949 -0.703531
vt 0.073912 -0.778314
vt -0.020379 -0.773872
vt -0.208966 -0.698450
vt -0.783422 -0.104796
vt -0.815410 -0.007128
vt -0.732435 0.261950
vt 0.068717 0.710406
vt 0.452939 0.648378
vt 0.625762 0.453374
vt 0.801269 0.149482
vt 0.785903 -0.218394
vt -0.373167 0.181926
vt -0.208966 0.000000
vt -0.020379 0.000000
vt -0.690334 0.205511
vt 0.373964 0.039683
vt 0.019333 0.211397
vt -0.325566 0.203376
vt 0.700773 0.038982
vt 0.390229 0.183194
vt -0.019333 0.092600
vt -0.014462 0.000000
vt 0.149482 0.000000
vt -0.068717 0.000000
vt -0.444747 0.121104
vt -0.452939 0.000000
vt -0.646043 -0.420573
vt -0.710059 -0.370199
vt -0.208966 0.668258
vt 0.015230 0.723973
vt 0.748424 -0.381648
vt 0.026925 0.152174
vt -0.328550 0.347348
vt -0.629771 0.368107
vt 0.380849 0.205511
vt 0.027921 0.375743
vt -0.307063 0.367870
vt 0.661632 0.203376
vt 0.337614 0.347973
vt -0.039101 0.322011
vt -0.435982 0.294659
vt -0.735678 0.099470
vt 0.314990 0.275208
vt 0.337259 0.099470
vt -0.027921 0.269431
vt -0.381181 0.098795
vt -0.364026 0.276018
vt -0.708533 0.118681
vt 0.449179 0.293750
vt 0.477327 0.118681
vt 0.050297 0.491848
vt 0.039101 0.322011
vt -0.522888 0.527848
vt 0.364897 0.368107
vt 0.035714 0.534540
vt 0.552608 0.529714
vt 0.626330 0.367870
vt -0.050297 0.491848
vt -0.406495 0.469476
vt -0.664324 0.453283
vt -0.718229 0.275208
vt 0.274704 0.453283
vt -0.035714 0.447850
vt -0.329019 0.455141
vt -0.653082 0.293750
vt 0.413682 0.469025
vt 0.060395 0.661685
vt -0.284390 0.512869
vt -0.452334 0.690399
vt 0.322504 0.527848
vt 0.042630 0.694487
vt -0.224274 0.691288
vt -0.268269 0.529714
vt 0.468211 0.691288
vt 0.285932 0.512965
vt -0.060395 0.661685
vt -0.368350 0.644438
vt -0.575931 0.632813
vt 0.216716 0.632813
vt -0.042630 0.628663
vt -0.289174 0.634053
vt -0.588778 0.469025
vt 0.364780 0.644638
vt -0.195955 0.844387
vt -0.239661 0.678489
vt -0.363270 0.852503
vt 0.300354 0.690399
vt 0.048589 0.856731
vt -0.168159 0.852491
vt 0.363027 0.852491
vt 0.235229 0.678241
vt 0.189405 0.844069
vt -0.349603 0.817925
vt 0.424456 0.644438
vt 0.175077 0.809972
vt -0.048589 0.807175
vt -0.289532 0.808522
vt -0.503523 0.644638
vt 0.336057 0.818582
vt 0.069280 0.831522
vt -0.145231 1.010322
vt 0.451134 0.844387
vt 0.245646 1.016791
vt 0.265479 0.852503
vt 0.053510 1.019667
vt 0.292198 1.016254
vt 0.135534 1.009931
vt -0.069280 0.831522
vt -0.292308 0.992661
vt 0.270157 0.992661
vt 0.380121 0.817925
vt 0.140696 0.985782
vt -0.258150 0.985053
vt 0.480800 0.985053
vt 0.543443 0.808522
vt 0.309907 0.991951
vt 0.082955 1.171196
vt 0.076836 1.001359
vt -0.278360 1.182614
vt -0.305488 1.016791
vt 0.057317 1.183634
vt -0.130947 1.016254
vt 0.281481 1.182712
vt -0.082955 1.171196
vt -0.076836 1.001359
vt -0.434570 1.160084
vt -0.462743 0.985782
vt -0.057317 1.158105
vt -0.053510 0.982906
vt 0.452634 1.159513
vt 0.277042 1.165062
vt -0.128323 1.345844
vt -0.136960 1.178145
vt 0.393196 1.178145
vt 0.245570 1.349164
vt 0.239921 1.182614
vt 0.059939 1.349945
vt -0.110101 1.348562
vt -0.127090 1.182712
vt 0.250220 1.348562
vt 0.127119 1.177834
vt 0.111694 1.345474
vt -0.283939 1.336654
vt -0.294838 1.164500
vt 0.236992 1.336654
vt 0.119683 1.160084
vt 0.264640 1.164500
vt -0.059939 1.331987
vt -0.244752 1.159513
vt 0.422338 1.333569
vt 0.087540 1.341033
vt -0.113588 1.513420
vt -0.250483 1.515130
vt -0.277216 1.349164
vt 0.233214 1.515130
vt 0.061315 1.515762
vt 0.112282 1.513403
vt -0.087540 1.341033
vt -0.284955 1.508440
vt -0.440064 1.506502
vt -0.444752 1.333070
vt 0.115539 1.506502
vt 0.121335 1.333070
vt -0.061315 1.506099
vt -0.228269 1.333569
vt -0.227406 1.506735
vt -0.364283 1.336559
vt 0.285372 1.508435
vt 0.288217 1.336559
vt 0.090501 1.510870
vt -0.110480 1.681167
vt 0.367843 1.681167
vt 0.371564 1.513420
vt 0.232490 1.681481
vt -0.105703 1.681466
vt -0.112217 1.515165
vt 0.253309 1.515165
vt 0.087466 1.681115
vt -0.091761 1.680707
vt -0.090501 1.510870
vt -0.290908 1.680253
vt -0.061388 1.679808
vt -0.230739 1.679939
vt 0.428923 1.679939
vt 0.421425 1.506735
vt 0.294891 1.680244
vt 0.091257 1.850543
vt 0.091761 1.680707
vt -0.118162 1.848811
vt -0.248433 1.681481
vt 0.060115 1.847263
vt 0.061388 1.681608
vt 0.233812 1.847854
vt 0.241487 1.681466
vt -0.091257 1.850543
vt -0.277113 1.852081
vt -0.418467 1.853250
vt -0.456982 1.679875
vt 0.103438 1.853250
vt 0.124163 1.679875
vt -0.217776 1.853166
vt -0.369382 1.680244
vt 0.088940 2.020380
vt -0.242192 2.014069
vt -0.271977 1.847538
vt 0.223867 2.014069
vt 0.244468 1.847538
vt 0.057460 2.013362
vt -0.102202 1.847854
vt 0.079315 2.017174
vt 0.091343 1.849033
vt -0.088940 2.020380
vt -0.393958 2.026195
vt -0.057460 2.027560
vt -0.060115 1.853738
vt -0.216703 2.026456
vt -0.344526 2.024012
vt -0.369509 1.852231
vt 0.295248 1.852231
vt -0.097733 2.184739
vt -0.107320 2.016639
vt 0.214743 2.180605
vt 0.053400 2.180013
vt -0.108259 2.014091
vt 0.205580 2.181502
vt 0.241001 2.014091
vt 0.077996 2.185332
vt -0.260138 2.195481
vt -0.273246 2.023894
vt 0.218859 2.023894
vt 0.099685 2.199400
vt 0.093867 2.026195
vt -0.053400 2.201150
vt -0.210584 2.199613
vt 0.407666 2.026456
vt 0.271473 2.195821
vt 0.279449 2.024012
vt 0.078739 2.360054
vt 0.084773 2.190217
vt -0.208262 2.348275
vt -0.235454 2.180605
vt 0.191669 2.348275
vt 0.047919 2.347270
vt -0.090689 2.181502
vt 0.181460 2.349375
vt 0.066098 2.354110
vt -0.084773 2.190217
vt -0.078739 2.360054
vt -0.394130 2.372999
vt -0.390702 2.199400
vt -0.047919 2.374699
vt -0.198097 2.372290
vt 0.397800 2.199613
vt 0.246248 2.366930
vt 0.070833 2.529891
vt -0.088765 2.353179
vt -0.087069 2.521672
vt 0.167149 2.516680
vt 0.041018 2.515385
vt -0.080343 2.349375
vt 0.183159 2.516670
vt -0.070833 2.529891
vt -0.244456 2.538929
vt -0.262856 2.367611
vt -0.335222 2.543654
vt 0.112235 2.372999
vt -0.041018 2.547786
vt -0.195976 2.545698
vt 0.376863 2.372290
vt 0.222186 2.537770
vt 0.061067 2.699728
vt 0.257842 2.690347
vt 0.279217 2.521672
vt 0.159026 2.683877
vt 0.032705 2.683573
vt -0.085231 2.516670
vt 0.177163 2.684740
vt 0.069571 2.522583
vt 0.069823 2.691493
vt -0.211173 2.709172
vt 0.224448 2.538929
vt 0.096915 2.715938
vt 0.091242 2.543654
vt -0.032705 2.720090
vt -0.166986 2.716445
vt 0.326760 2.716445
vt 0.374482 2.545698
vt 0.049469 2.869565
vt -0.088042 2.690347
vt -0.084634 2.859697
vt -0.190868 2.683877
vt 0.134829 2.852982
vt 0.023002 2.850791
vt -0.085687 2.684740
vt 0.167832 2.853575
vt -0.049469 2.869565
vt -0.061067 2.699728
vt -0.184154 2.879476
vt -0.280901 2.886595
vt -0.318705 2.715938
vt -0.023002 2.891730
vt -0.142651 2.887143
vt 0.197956 2.880491
vt 0.210987 2.709161
vt -0.096922 3.028231
vt -0.175896 2.852982
vt 0.115225 3.021816
vt 0.011940 3.015827
vt -0.084157 2.853575
vt -0.102034 3.020267
vt -0.191818 2.859096
vt 0.088124 3.028970
vt 0.092812 2.859096
vt -0.154045 3.049309
vt -0.252957 3.057617
vt 0.092338 2.886595
vt -0.011940 3.062224
vt -0.129829 3.059105
vt -0.190840 3.049555
vt -0.248601 2.880491
vt 0.156975 3.049555
vt 0.020967 3.209239
vt 0.036083 3.039402
vt 0.206021 3.196480
vt 0.211892 3.028231
vt 0.112266 3.188192
vt -0.000436 3.183958
vt 0.193932 3.189045
vt 0.191754 3.020267
vt 0.097447 3.198112
vt -0.036083 3.039402
vt -0.134060 3.219867
vt -0.215966 3.227563
vt 0.095683 3.057617
vt 0.000436 3.231976
vt -0.108813 3.229727
vt 0.270674 3.059105
vt 0.140742 3.220495
vt -0.113370 3.366915
vt -0.114814 3.196480
vt 0.163585 3.366915
vt 0.088095 3.358085
vt -0.014073 3.355410
vt -0.107874 3.189045
vt 0.205393 3.357396
vt -0.004195 3.379076
vt -0.020967 3.209239
vt -0.185545 3.397835
vt 0.096334 3.227563
vt 0.014073 3.401985
vt -0.079314 3.398503
vt 0.238991 3.229727
vt 0.105999 3.389606
vt 0.004195 3.379076
vt -0.104105 3.538803
vt -0.198740 3.358085
vt 0.057309 3.529733
vt -0.028907 3.525982
vt -0.120103 3.357396
vt -0.112915 3.530160
vt -0.216713 3.365431
vt 0.102926 3.538935
vt 0.127717 3.365431
vt -0.076155 3.559062
vt -0.112360 3.390265
vt -0.153362 3.567739
vt 0.103712 3.397835
vt 0.028907 3.571213
vt -0.060599 3.568729
vt 0.192002 3.398503
vt 0.088348 3.560432
vt -0.014145 3.548913
vt -0.090905 3.711872
vt -0.145325 3.705301
vt -0.184802 3.529733
vt 0.012046 3.705301
vt -0.044864 3.702375
vt 0.142621 3.705627
vt 0.180999 3.530160
vt 0.088344 3.712182
vt 0.014145 3.548913
vt -0.009385 3.723984
vt -0.063503 3.730518
vt 0.113294 3.567739
vt 0.044864 3.732366
vt -0.013054 3.732408
vt 0.162174 3.568729
vt 0.035803 3.727174
vt -0.148098 0.137500
vt -0.229039 0.000000
vt -0.109817 0.000000
vt -0.033953 -0.106246
vt -0.142621 -0.100203
vt -0.145325 0.012046
vt -0.345812 0.968750
vt -0.542360 0.910376
vt -0.251597 0.843345
vt -0.768899 0.836167
vt -0.788006 0.968750
vt -0.082135 0.968750
vt -0.280149 1.068000
vt -0.571586 1.043180
vt 0.220395 0.836167
vt 0.233355 0.968750
vt -0.000054 0.912991
vt 0.210874 0.162291
vt 0.491964 0.197837
vt 0.385596 -0.038363
vt -0.104117 0.968750
vt -0.161773 0.856011
vt 0.085742 0.899392
vt 0.255077 -0.110100
vt -0.045972 -0.190537
vt 0.080333 0.068734
vt 0.736396 -0.197358
vt 0.491944 -0.198488
vt 0.713357 0.005754
vt -0.010962 0.798182
vt 0.126859 -0.064106
vt 0.083000 1.030873
vt 0.385596 0.038363
vt 0.197358 1.084801
vt -0.005754 1.170009
vt 0.006795 1.032726
vt 0.546803 -0.223822
vt 0.830600 -0.273360
vt 0.509322 -0.418959
vt 0.044493 -0.267151
vt 0.268717 -0.299195
vt 0.197269 -0.456805
vt -0.018931 1.102856
vt -0.025322 0.968750
vt 0.199955 1.041529
vt 0.521398 0.193836
vt 0.272444 0.288964
vt 0.490323 0.359741
vt -0.177526 0.968750
vt -0.233014 1.081251
vt -0.403162 0.968750
vt 0.705094 0.968750
vt 0.490323 1.066984
vt 0.426913 0.968750
vt 0.705094 0.403162
vt 0.751459 0.233014
vt 0.199955 0.452251
vt -0.018931 0.310246
vt 0.197269 0.896823
vt -0.025322 -0.314973
vt 0.509322 0.849442
vt 0.830600 0.839551
vt -0.273360 0.839551
vt 0.314973 0.968750
vt 0.310246 1.102856
vt 0.267151 0.857927
vt 0.661008 -0.010962
vt 0.770649 -0.000054
vt -0.063052 0.083000
vt -0.190537 1.098385
vt -0.090616 -0.085742
vt 0.007958 0.161773
vt 0.768899 0.220395
vt 0.571586 -0.377443
vt 0.280149 -0.285320
vt 0.045972 1.098385
vt -0.311511 0.968750
vt -0.007958 0.856011
vt 0.251597 0.372761
vt -0.736396 1.084801
vt 0.542360 0.308818
vt -0.328309 1.843750
vt -0.482573 1.793906
vt -0.266978 1.765241
vt 0.150000 1.756077
vt 0.291094 1.793906
vt 0.163369 1.843750
vt -0.126301 1.843750
vt -0.267510 1.925527
vt -0.465325 1.888160
vt -0.010587 1.793632
vt 0.209689 0.192797
vt 0.405684 0.196647
vt 0.283942 0.045093
vt -0.209922 1.843750
vt -0.265634 1.755842
vt -0.097880 1.796181
vt 0.207232 -0.200233
vt 0.053103 -0.255837
vt 0.053636 -0.081668
vt 0.569532 -0.144804
vt 0.398426 -0.186935
vt 0.479686 -0.014007
vt 0.585265 0.150000
vt 0.634543 -0.010587
vt 0.484851 0.013186
vt 0.064009 0.080021
vt -0.102012 1.897478
vt 0.283942 -0.045093
vt 0.651279 0.013244
vt 0.355017 -0.096994
vt 0.541413 -0.191595
vt 0.301648 -0.257831
vt -0.046502 -0.070823
vt 0.170789 -0.094920
vt 0.088584 -0.197259
vt 0.062574 1.935388
vt 0.077587 1.843750
vt 0.227474 1.898411
vt 0.364591 0.117673
vt 0.172006 0.093605
vt 0.300935 0.241777
vt 0.590200 1.843750
vt 0.533919 1.934696
vt 0.444326 1.843750
vt 0.300935 1.924801
vt 0.243493 1.843750
vt 0.533919 0.185356
vt 0.063595 1.898411
vt 0.063595 0.227474
vt -0.024271 0.062574
vt 0.088584 1.793942
vt -0.067126 1.843750
vt -0.046502 1.742885
vt 0.301648 1.755650
vt 0.541413 1.752549
vt -0.013244 1.895447
vt -0.185356 1.934696
vt -0.150629 1.843750
vt 0.070823 1.742885
vt -0.191595 1.752549
vt -0.074461 -0.102012
vt -0.255837 1.920124
vt -0.048442 0.097880
vt 0.044999 0.265634
vt 0.144804 1.928371
vt 0.465325 -0.269161
vt 0.267510 -0.326230
vt 0.126301 -0.361627
vt -0.361627 1.843750
vt -0.044999 1.755842
vt 0.266978 0.328816
vt -0.621572 1.843750
vt -0.569532 1.928371
vt 0.482573 0.291094
vt 0.273075 2.593750
vt 0.163183 2.560737
vt 0.301759 2.533863
vt 0.036818 2.526805
vt 0.041219 2.593750
vt -0.280700 2.593750
vt -0.242501 2.533863
vt -0.182477 2.593750
vt -0.250244 2.655688
vt 0.307828 2.655688
vt 0.164649 2.628348
vt 0.280151 2.526805
vt 0.273791 2.593750
vt 0.171785 2.567041
vt 0.150486 0.296504
vt 0.218289 0.170175
vt 0.085403 0.180849
vt -0.078482 2.593750
vt -0.121257 2.529914
vt 0.019755 2.557920
vt 0.150968 -0.297205
vt 0.116405 -0.396545
vt 0.027082 -0.304349
vt 0.234816 -0.069387
vt 0.223946 -0.169412
vt 0.147607 -0.049128
vt 0.149439 2.504095
vt 0.022414 0.314233
vt 0.009071 2.622633
vt 0.085403 -0.180849
vt 0.171707 0.001906
vt 0.019506 0.064226
vt 0.053795 -0.036132
vt -0.078168 0.054759
vt -0.313858 2.532073
vt -0.192815 2.483375
vt -0.198899 2.559932
vt -0.325055 2.660672
vt -0.333328 2.593750
vt -0.199994 2.634620
vt 0.023391 -0.070667
vt -0.066138 -0.192302
vt -0.070476 -0.060735
vt 0.092219 2.593750
vt 0.054789 2.646907
vt -0.028137 2.593750
vt 0.021332 2.593750
vt -0.060735 2.652014
vt -0.095938 2.593750
vt -0.070476 2.652014
vt 0.054789 0.034430
vt -0.160354 -0.199994
vt -0.109551 -0.325055
vt -0.054759 2.533012
vt -0.069507 0.192815
vt -0.078168 2.533012
vt 0.053795 2.536595
vt 0.171707 2.619662
vt 0.121772 2.593750
vt 0.109551 2.660672
vt 0.094400 2.532073
vt -0.094400 0.313858
vt 0.149439 0.045248
vt -0.009071 -0.380907
vt -0.116405 2.648571
vt -0.019755 0.403531
vt 0.121257 0.429300
vt 0.280151 0.036818
vt 0.273791 -0.041219
vt 0.293390 -0.164649
vt 0.250244 -0.307828
vt 0.356908 2.593750
vt 0.429300 2.529914
vt 0.242501 0.301759
vt 0.300095 0.163183
vt 0.547952 0.298278
vt 0.624574 0.125867
vt 0.607342 -0.109817
vt 0.512006 0.000000
vt 0.408575 0.137500
vt 0.395093 0.000000
vt 0.571141 -0.229039
vt 0.548364 -0.268912
vt 0.117027 0.137500
vt 0.508330 0.137500
vt 0.233999 0.300574
vt -0.190695 0.229397
vt 0.298278 0.000000
vt -0.587620 0.124685
vt -0.568297 0.228727
vt -0.222389 0.496579
vt 0.076938 -0.557088
vt -0.355444 -0.492856
vt -0.596559 -0.120221
vt -0.260252 -0.253556
vt -0.549136 -0.236087
vt -0.432876 0.087235
vt 0.505631 -0.433540
vt 0.115056 -0.362434
vt 0.410624 -0.082751
vt 0.696855 0.140433
vt 0.461450 0.395093
vt 0.209699 -0.530261
vt -0.143685 0.137500
vt 0.130570 0.043298
vt 0.124572 0.224477
vt 0.000000 0.000000
vt 0.605063 -0.121935
vt -0.180279 -0.569417
vt -0.194504 -0.614197
vt -0.523157 0.328198
vt -0.456487 0.137500
vt -0.183084 0.226294
vt 0.274085 0.267317
vt -0.114716 0.363280
vt 0.256251 0.594835
vt -0.264215 0.307885
vt -0.454859 0.137500
vt 0.467998 0.137500
vt 0.256251 0.315155
vt 0.112305 0.137500
vt 0.615160 0.307885
vt 0.615160 0.264215
vt -0.183084 0.577600
vt -0.523157 0.449062
vt -0.194504 0.042360
vt 0.261226 0.000000
vt 0.209699 0.000000
vt 0.548364 0.000000
vt -0.268912 0.000000
vt 0.121935 0.220723
vt 0.390164 0.137500
vt 0.449062 0.328198
vt 0.351569 0.512006
vt -0.167272 0.515641
vt -0.618151 0.124572
vt -0.236087 0.291049
vt -0.211772 0.498876
vt 0.140433 0.039149
vt 0.433540 0.318844
vt 0.190695 -0.601195
vt -0.233999 -0.543310
vt -0.508330 -0.496058
vt -0.496058 0.137500
vt -0.469396 -0.402096
vt -0.545221 -0.290894
vt -0.477057 0.137500
vt -0.505631 0.318844
vt -0.210878 0.030760
vt 0.210878 0.668431
vt 0.190234 0.602984
vt 0.370199 0.000000
vt 0.704076 0.000000
vt -0.365492 -0.634202
vt -0.704076 0.351448
vt -0.436824 0.591196
vt 0.736973 0.346954
vt 0.015230 0.000000
vt -0.612119 0.183194
vt -0.394590 -0.621526
vt -0.404160 0.619809
vt 0.843186 -0.014462
vt 0.167272 0.000000
vt 0.504878 0.469476
vt 0.496014 0.678489
vt -0.513554 0.809972
vt 0.388609 1.010322
vt -0.348436 1.165062
vt 0.390592 1.345844
vt -0.355596 1.508435
vt 0.217869 1.852081
vt 0.408262 1.853166
vt 0.232989 2.367611
vt -0.182955 2.516680
vt -0.160811 2.691493
vt 0.288345 2.887143
vt -0.203011 3.188192
vt -0.176680 3.198112
vt -0.033953 3.718750
vt -0.100203 3.705627
vt 0.033953 3.718750
vt 0.093683 3.730518
vt -0.063225 3.727174
vt -0.272919 0.000000
vt -0.228727 0.000000
vt 0.290894 0.000000
vt 0.402096 0.000000
vt 0.076938 0.000000
vt -0.469396 0.000000
vt -0.355444 0.000000
vt -0.124685 0.000000
vt -0.033953 0.044495
vt 0.035803 0.063225
vt 0.079152 0.013054
vt 0.078799 -0.044864
vt 0.063503 -0.093683
vt 0.009385 -0.106865
vt -0.088344 -0.126147
vt -0.169555 -0.044864
vt -0.090905 0.040887
vt 0.261226 -0.515424
vt -0.508330 0.496058
vt -0.553664 0.272919
vt -0.647912 -0.130570
vt 0.211772 0.000000
vt 0.222389 0.000000
vt 0.073912 0.000000
vt 0.469949 0.000000
vt -0.588760 0.000000
vt -0.381648 0.000000
vt -0.218394 0.000000
vt 0.346954 0.000000
vt -0.625762 0.000000
vt 0.015230 -0.786824
vt 0.613280 0.121104
vt 0.453374 0.000000
vt 0.648378 0.000000
vt -0.736973 0.000000
vt 0.668431 0.030760
vt -0.703531 0.000000
s 0
f 461/1/1 1/2/1 425/3/1
f 462/4/2 2/5/2 427/6/2
f 463/7/3 3/8/3 428/9/3
f 464/10/4 4/11/4 429/12/4
f 465/13/5 5/14/5 430/15/5
f 12/16/6 433/17/6 431/18/6
f 471/19/7 438/20/7 472/21/7
f 466/22/7 426/23/7 472/21/7
f 463/24/7 428/25/7 464/26/7
f 467/27/7 434/28/7 468/29/7
f 471/19/7 472/21/7 426/23/7
f 468/29/7 469/30/7 470/31/7
f 7/32/8 426/33/8 466/34/8
f 1/2/9 8/35/9 2/5/9
f 2/36/10 9/37/10 3/8/10
f 3/8/11 10/38/11 4/11/11
f 4/39/12 11/40/12 5/14/12
f 15/41/13 436/42/13 469/43/13
f 467/44/14 13/45/14 434/46/14
f 462/47/7 427/48/7 463/24/7
f 431/49/7 433/50/7 467/27/7
f 470/31/7 437/51/7 471/19/7
f 467/27/7 468/29/7 426/23/7
f 462/47/7 463/24/7 464/26/7
f 6/52/15 19/53/15 7/32/15
f 7/32/16 20/54/16 8/35/16
f 8/55/17 21/56/17 9/37/17
f 9/37/18 22/57/18 10/38/18
f 10/58/19 23/59/19 11/40/19
f 23/59/20 12/16/20 11/40/20
f 24/60/21 13/45/21 12/16/21
f 25/61/22 14/62/22 13/45/22
f 26/63/23 15/41/23 14/64/23
f 27/65/24 16/66/24 15/41/24
f 28/67/25 17/68/25 16/66/25
f 29/69/26 6/52/26 17/70/26
f 30/71/27 19/53/27 18/72/27
f 19/53/28 32/73/28 20/54/28
f 20/74/29 33/75/29 21/56/29
f 33/75/30 22/57/30 21/56/30
f 34/76/31 23/59/31 22/77/31
f 23/59/32 36/78/32 24/60/32
f 24/60/33 37/79/33 25/61/33
f 25/61/34 38/80/34 26/81/34
f 38/82/35 27/65/35 26/63/35
f 39/83/36 28/67/36 27/65/36
f 40/84/37 29/85/37 28/67/37
f 41/86/38 18/72/38 29/69/38
f 42/87/39 31/88/39 30/71/39
f 31/88/40 44/89/40 32/73/40
f 32/90/41 45/91/41 33/75/41
f 33/75/42 46/92/42 34/93/42
f 46/94/43 35/95/43 34/76/43
f 35/95/44 48/96/44 36/78/44
f 36/78/45 49/97/45 37/79/45
f 37/79/46 50/98/46 38/80/46
f 50/99/47 39/83/47 38/82/47
f 51/100/48 40/84/48 39/83/48
f 52/101/49 41/102/49 40/84/49
f 53/103/50 30/71/50 41/86/50
f 42/87/51 55/104/51 43/105/51
f 43/105/52 56/106/52 44/89/52
f 44/107/53 57/108/53 45/91/53
f 45/91/54 58/109/54 46/92/54
f 58/110/55 47/111/55 46/94/55
f 59/112/56 48/96/56 47/111/56
f 48/96/57 61/113/57 49/97/57
f 49/114/58 62/115/58 50/99/58
f 62/115/59 51/100/59 50/99/59
f 63/116/60 52/101/60 51/100/60
f 64/117/61 53/118/61 52/101/61
f 65/119/62 42/87/62 53/103/62
f 54/120/63 67/121/63 55/104/63
f 55/122/64 68/123/64 56/124/64
f 56/124/65 69/125/65 57/108/65
f 69/125/66 58/109/66 57/108/66
f 70/126/67 59/112/67 58/110/67
f 71/127/68 60/128/68 59/112/68
f 60/128/69 73/129/69 61/113/69
f 73/130/70 62/115/70 61/131/70
f 74/132/71 63/116/71 62/115/71
f 63/116/72 76/133/72 64/117/72
f 76/134/73 65/119/73 64/135/73
f 77/136/74 54/120/74 65/119/74
f 78/137/75 67/121/75 66/138/75
f 67/121/76 80/139/76 68/140/76
f 68/123/77 81/141/77 69/125/77
f 81/141/78 70/142/78 69/125/78
f 82/143/79 71/127/79 70/126/79
f 71/127/80 84/144/80 72/145/80
f 84/144/81 73/129/81 72/145/81
f 73/129/82 86/146/82 74/147/82
f 74/132/83 87/148/83 75/149/83
f 87/148/84 76/133/84 75/149/84
f 88/150/85 77/136/85 76/134/85
f 89/151/86 66/138/86 77/136/86
f 78/137/87 91/152/87 79/153/87
f 79/154/88 92/155/88 80/156/88
f 80/156/89 93/157/89 81/141/89
f 81/141/90 94/158/90 82/159/90
f 94/160/91 83/161/91 82/143/91
f 95/162/92 84/144/92 83/161/92
f 84/144/93 97/163/93 85/164/93
f 97/165/94 86/166/94 85/167/94
f 86/166/95 99/168/95 87/148/95
f 99/168/96 88/169/96 87/148/96
f 100/170/97 89/151/97 88/150/97
f 89/151/98 90/171/98 78/137/98
f 90/171/99 103/172/99 91/152/99
f 91/152/100 104/173/100 92/174/100
f 104/175/101 93/157/101 92/155/101
f 105/176/102 94/158/102 93/157/102
f 94/160/103 107/177/103 95/162/103
f 107/177/104 96/178/104 95/162/104
f 96/178/105 109/179/105 97/163/105
f 97/163/106 110/180/106 98/181/106
f 110/182/107 99/168/107 98/183/107
f 111/184/108 100/185/108 99/168/108
f 112/186/109 101/187/109 100/185/109
f 113/188/110 90/171/110 101/189/110
f 102/190/111 115/191/111 103/172/111
f 115/192/112 104/175/112 103/193/112
f 116/194/113 105/176/113 104/175/113
f 105/176/114 118/195/114 106/196/114
f 106/197/115 119/198/115 107/177/115
f 107/177/116 120/199/116 108/200/116
f 120/199/117 109/179/117 108/200/117
f 121/201/118 110/180/118 109/179/118
f 110/182/119 123/202/119 111/184/119
f 111/184/120 124/203/120 112/186/120
f 124/204/121 113/188/121 112/205/121
f 125/206/122 102/190/122 113/188/122
f 126/207/123 115/191/123 114/208/123
f 127/209/124 116/210/124 115/191/124
f 116/194/125 129/211/125 117/212/125
f 129/211/126 118/195/126 117/212/126
f 130/213/127 119/198/127 118/214/127
f 119/198/128 132/215/128 120/199/128
f 120/199/129 133/216/129 121/201/129
f 121/201/130 134/217/130 122/218/130
f 134/219/131 123/202/131 122/220/131
f 123/202/132 136/221/132 124/203/132
f 136/221/133 125/222/133 124/203/133
f 125/206/134 126/207/134 114/208/134
f 138/223/135 127/209/135 126/207/135
f 127/209/136 140/224/136 128/225/136
f 140/226/137 129/211/137 128/227/137
f 141/228/138 130/229/138 129/211/138
f 130/213/139 143/230/139 131/231/139
f 143/230/140 132/215/140 131/231/140
f 144/232/141 133/216/141 132/215/141
f 133/216/142 146/233/142 134/217/142
f 134/219/143 147/234/143 135/235/143
f 135/235/144 148/236/144 136/221/144
f 136/221/145 149/237/145 137/238/145
f 137/239/146 138/223/146 126/207/146
f 138/223/147 151/240/147 139/241/147
f 151/240/148 140/224/148 139/241/148
f 152/242/149 141/228/149 140/226/149
f 153/243/150 142/244/150 141/228/150
f 154/245/151 143/230/151 142/246/151
f 155/247/152 144/232/152 143/230/152
f 144/232/153 157/248/153 145/249/153
f 145/250/154 158/251/154 146/252/154
f 146/252/155 159/253/155 147/234/155
f 147/234/156 160/254/156 148/236/156
f 148/255/157 161/256/157 149/257/157
f 161/256/158 138/223/158 149/257/158
f 162/258/159 151/240/159 150/259/159
f 151/240/160 164/260/160 152/261/160
f 164/262/161 153/243/161 152/242/161
f 165/263/162 154/264/162 153/243/162
f 166/265/163 155/247/163 154/245/163
f 167/266/164 156/267/164 155/247/164
f 168/268/165 157/248/165 156/267/165
f 157/248/166 170/269/166 158/270/166
f 158/251/167 171/271/167 159/253/167
f 159/253/168 172/272/168 160/254/168
f 160/273/169 173/274/169 161/256/169
f 161/256/170 162/258/170 150/259/170
f 174/275/171 163/276/171 162/258/171
f 175/277/172 164/260/172 163/276/172
f 176/278/173 165/263/173 164/262/173
f 177/279/174 166/280/174 165/263/174
f 178/281/175 167/266/175 166/265/175
f 167/266/176 180/282/176 168/268/176
f 168/268/177 181/283/177 169/284/177
f 169/284/178 182/285/178 170/269/178
f 170/286/179 183/287/179 171/271/179
f 171/271/180 184/288/180 172/272/180
f 172/289/181 185/290/181 173/274/181
f 173/274/182 174/275/182 162/258/182
f 186/291/183 175/277/183 174/275/183
f 187/292/184 176/278/184 175/293/184
f 188/294/185 177/279/185 176/278/185
f 189/295/186 178/296/186 177/279/186
f 190/297/187 179/298/187 178/281/187
f 191/299/188 180/282/188 179/298/188
f 180/282/189 193/300/189 181/283/189
f 181/301/190 194/302/190 182/303/190
f 182/303/191 195/304/191 183/287/191
f 183/287/192 196/305/192 184/288/192
f 196/306/193 185/290/193 184/307/193
f 185/290/194 186/291/194 174/275/194
f 198/308/195 187/309/195 186/291/195
f 199/310/196 188/311/196 187/309/196
f 200/312/197 189/295/197 188/294/197
f 201/313/198 190/314/198 189/295/198
f 202/315/199 191/299/199 190/297/199
f 191/299/200 204/316/200 192/317/200
f 192/317/201 205/318/201 193/300/201
f 193/300/202 206/319/202 194/320/202
f 194/302/203 207/321/203 195/304/203
f 195/304/204 208/322/204 196/305/204
f 196/306/205 209/323/205 197/324/205
f 197/324/206 198/308/206 186/291/206
f 198/308/207 211/325/207 199/310/207
f 211/325/208 200/326/208 199/310/208
f 212/327/209 201/313/209 200/312/209
f 213/328/210 202/329/210 201/313/210
f 214/330/211 203/331/211 202/329/211
f 215/332/212 204/316/212 203/333/212
f 204/316/213 217/334/213 205/318/213
f 205/318/214 218/335/214 206/319/214
f 206/336/215 219/337/215 207/321/215
f 207/321/216 220/338/216 208/322/216
f 208/322/217 221/339/217 209/340/217
f 221/341/218 198/308/218 209/323/218
f 222/342/219 211/325/219 210/343/219
f 223/344/220 212/327/220 211/345/220
f 224/346/221 213/328/221 212/327/221
f 225/347/222 214/330/222 213/328/222
f 226/348/223 215/332/223 214/349/223
f 227/350/224 216/351/224 215/332/224
f 216/351/225 229/352/225 217/334/225
f 217/334/226 230/353/226 218/335/226
f 218/354/227 231/355/227 219/337/227
f 219/337/228 232/356/228 220/338/228
f 220/357/229 233/358/229 221/341/229
f 221/341/230 222/342/230 210/343/230
f 222/342/231 235/359/231 223/360/231
f 235/361/232 224/346/232 223/344/232
f 236/362/233 225/347/233 224/346/233
f 237/363/234 226/364/234 225/347/234
f 238/365/235 227/350/235 226/348/235
f 227/350/236 240/366/236 228/367/236
f 240/366/237 229/352/237 228/367/237
f 229/352/238 242/368/238 230/353/238
f 230/369/239 243/370/239 231/355/239
f 231/355/240 244/371/240 232/356/240
f 232/372/241 245/373/241 233/358/241
f 233/358/242 234/374/242 222/342/242
f 234/374/243 247/375/243 235/359/243
f 247/375/244 236/376/244 235/359/244
f 248/377/245 237/363/245 236/362/245
f 249/378/246 238/379/246 237/363/246
f 250/380/247 239/381/247 238/379/247
f 251/382/248 240/366/248 239/383/248
f 240/366/249 253/384/249 241/385/249
f 241/385/250 254/386/250 242/368/250
f 242/387/251 255/388/251 243/370/251
f 243/370/252 256/389/252 244/371/252
f 244/390/253 257/391/253 245/373/253
f 245/373/254 246/392/254 234/374/254
f 246/392/255 259/393/255 247/375/255
f 247/375/256 260/394/256 248/395/256
f 260/396/257 249/378/257 248/377/257
f 261/397/258 250/380/258 249/378/258
f 262/398/259 251/382/259 250/399/259
f 263/400/260 252/401/260 251/382/260
f 252/401/261 265/402/261 253/384/261
f 253/384/262 266/403/262 254/386/262
f 254/404/263 267/405/263 255/388/263
f 255/388/264 268/406/264 256/389/264
f 256/407/265 269/408/265 257/391/265
f 269/408/266 246/392/266 257/391/266
f 402/409/267 446/410/267 454/411/267
f 264/412/268 262/413/268 260/414/268
f 270/415/269 283/416/269 282/417/269
f 271/418/270 283/416/270 285/419/270
f 270/415/271 282/417/271 287/420/271
f 270/415/272 287/420/272 289/421/272
f 270/415/273 289/421/273 286/422/273
f 271/423/274 285/424/274 292/425/274
f 272/426/275 284/427/275 294/428/275
f 273/429/276 288/430/276 296/431/276
f 274/432/277 290/433/277 298/434/277
f 275/435/278 291/436/278 300/437/278
f 271/423/279 292/425/279 295/438/279
f 272/426/280 294/428/280 297/439/280
f 273/429/281 296/431/281 299/440/281
f 274/432/282 298/434/282 301/441/282
f 275/442/283 300/443/283 293/444/283
f 276/445/284 302/446/284 307/447/284
f 277/448/285 303/449/285 309/450/285
f 278/451/286 304/452/286 310/453/286
f 279/454/287 305/455/287 311/456/287
f 280/457/288 306/458/288 308/459/288
f 308/460/289 311/461/289 281/462/289
f 308/463/290 306/464/290 311/456/290
f 306/464/291 279/454/291 311/456/291
f 311/461/292 310/453/292 281/462/292
f 311/456/293 305/455/293 310/465/293
f 305/455/294 278/466/294 310/465/294
f 310/453/295 309/467/295 281/462/295
f 310/453/296 304/452/296 309/467/296
f 304/468/297 277/448/297 309/450/297
f 309/467/298 307/469/298 281/462/298
f 309/450/299 303/449/299 307/447/299
f 303/449/300 276/445/300 307/447/300
f 307/469/301 308/460/301 281/462/301
f 307/469/302 302/470/302 308/460/302
f 302/471/303 280/457/303 308/459/303
f 293/444/304 306/458/304 280/457/304
f 293/444/305 300/443/305 306/458/305
f 300/437/306 279/454/306 306/464/306
f 301/441/307 305/455/307 279/454/307
f 301/441/308 298/434/308 305/455/308
f 298/434/309 278/466/309 305/455/309
f 299/440/310 304/472/310 278/473/310
f 299/440/311 296/431/311 304/472/311
f 296/431/312 277/474/312 304/472/312
f 297/439/313 303/449/313 277/448/313
f 297/439/314 294/428/314 303/449/314
f 294/428/315 276/445/315 303/449/315
f 295/475/316 302/446/316 276/445/316
f 295/475/317 292/476/317 302/446/317
f 292/425/318 280/457/318 302/471/318
f 300/437/319 301/441/319 279/454/319
f 300/437/320 291/436/320 301/441/320
f 291/436/321 274/432/321 301/441/321
f 298/434/322 299/477/322 278/466/322
f 298/434/323 290/433/323 299/477/323
f 290/478/324 273/429/324 299/440/324
f 296/479/325 297/439/325 277/448/325
f 296/479/326 288/480/326 297/439/326
f 288/480/327 272/426/327 297/439/327
f 294/428/328 295/475/328 276/445/328
f 294/428/329 284/427/329 295/475/329
f 284/427/330 271/481/330 295/475/330
f 292/425/331 293/444/331 280/457/331
f 292/425/332 285/424/332 293/444/332
f 285/424/333 275/442/333 293/444/333
f 286/482/334 291/436/334 275/435/334
f 286/482/335 289/483/335 291/436/335
f 289/483/336 274/432/336 291/436/336
f 289/483/337 290/433/337 274/432/337
f 289/421/338 287/420/338 290/484/338
f 287/485/339 273/429/339 290/478/339
f 287/485/340 288/430/340 273/429/340
f 287/420/341 282/417/341 288/486/341
f 282/487/342 272/426/342 288/480/342
f 285/419/343 286/422/343 275/488/343
f 285/419/344 283/416/344 286/422/344
f 283/416/345 270/415/345 286/422/345
f 282/487/346 284/427/346 272/426/346
f 282/487/347 283/489/347 284/427/347
f 283/489/348 271/481/348 284/427/348
f 312/490/349 325/491/349 324/492/349
f 313/493/350 325/494/350 327/495/350
f 312/490/351 324/492/351 329/496/351
f 312/490/352 329/496/352 331/497/352
f 312/490/353 331/497/353 328/498/353
f 313/493/354 327/495/354 334/499/354
f 314/500/355 326/501/355 336/502/355
f 315/503/356 330/504/356 338/505/356
f 316/506/357 332/507/357 340/508/357
f 317/509/358 333/510/358 342/511/358
f 313/512/359 334/513/359 337/514/359
f 314/500/360 336/502/360 339/515/360
f 315/503/361 338/505/361 341/516/361
f 316/506/362 340/508/362 343/517/362
f 317/509/363 342/511/363 335/518/363
f 318/519/364 344/520/364 349/521/364
f 319/522/365 345/523/365 351/524/365
f 320/525/366 346/526/366 352/527/366
f 321/528/367 347/529/367 353/530/367
f 322/531/368 348/532/368 350/533/368
f 350/533/369 353/534/369 323/535/369
f 350/533/370 348/532/370 353/534/370
f 348/536/371 321/528/371 353/530/371
f 353/534/372 352/537/372 323/535/372
f 353/530/373 347/529/373 352/538/373
f 347/529/374 320/539/374 352/538/374
f 352/537/375 351/540/375 323/535/375
f 352/537/376 346/541/376 351/540/376
f 346/541/377 319/542/377 351/540/377
f 351/540/378 349/543/378 323/535/378
f 351/524/379 345/523/379 349/521/379
f 345/523/380 318/519/380 349/521/380
f 349/543/381 350/533/381 323/535/381
f 349/543/382 344/544/382 350/533/382
f 344/544/383 322/531/383 350/533/383
f 335/545/384 348/546/384 322/547/384
f 335/518/385 342/511/385 348/536/385
f 342/511/386 321/528/386 348/536/386
f 343/517/387 347/529/387 321/528/387
f 343/517/388 340/508/388 347/529/388
f 340/508/389 320/539/389 347/529/389
f 341/516/390 346/526/390 320/525/390
f 341/516/391 338/505/391 346/526/391
f 338/505/392 319/548/392 346/526/392
f 339/515/393 345/523/393 319/522/393
f 339/515/394 336/502/394 345/523/394
f 336/502/395 318/519/395 345/523/395
f 337/514/396 344/520/396 318/519/396
f 337/514/397 334/513/397 344/520/397
f 334/499/398 322/547/398 344/549/398
f 342/511/399 343/517/399 321/528/399
f 342/511/400 333/510/400 343/517/400
f 333/510/401 316/506/401 343/517/401
f 340/508/402 341/550/402 320/539/402
f 340/508/403 332/507/403 341/550/403
f 332/551/404 315/503/404 341/516/404
f 338/552/405 339/515/405 319/522/405
f 338/552/406 330/553/406 339/515/406
f 330/553/407 314/500/407 339/515/407
f 336/502/408 337/514/408 318/519/408
f 336/502/409 326/501/409 337/514/409
f 326/501/410 313/512/410 337/514/410
f 334/499/411 335/545/411 322/547/411
f 334/499/412 327/495/412 335/545/412
f 327/495/413 317/554/413 335/545/413
f 328/555/414 333/510/414 317/509/414
f 328/555/415 331/556/415 333/510/415
f 331/556/416 316/506/416 333/510/416
f 331/556/417 332/507/417 316/506/417
f 331/556/418 329/557/418 332/507/418
f 329/558/419 315/503/419 332/551/419
f 329/558/420 330/504/420 315/503/420
f 329/496/421 324/492/421 330/559/421
f 324/560/422 314/500/422 330/553/422
f 327/561/423 328/498/423 317/562/423
f 327/561/424 325/491/424 328/498/424
f 325/491/425 312/490/425 328/498/425
f 324/560/426 326/501/426 314/500/426
f 324/560/427 325/563/427 326/501/427
f 325/563/428 313/512/428 326/501/428
f 354/564/429 367/565/429 366/566/429
f 355/567/430 367/565/430 369/568/430
f 354/569/431 366/570/431 371/571/431
f 354/569/432 371/571/432 373/572/432
f 354/564/433 373/573/433 370/574/433
f 355/575/434 369/576/434 376/577/434
f 356/578/435 368/579/435 378/580/435
f 357/581/436 372/582/436 380/583/436
f 358/584/437 374/585/437 382/586/437
f 359/587/438 375/588/438 384/589/438
f 355/575/439 376/577/439 379/590/439
f 356/578/440 378/580/440 381/591/440
f 357/581/441 380/583/441 383/592/441
f 358/584/442 382/586/442 385/593/442
f 359/587/443 384/589/443 377/594/443
f 360/595/444 386/596/444 391/597/444
f 361/598/445 387/599/445 393/600/445
f 362/601/446 388/602/446 394/603/446
f 363/604/447 389/605/447 395/606/447
f 364/607/448 390/608/448 392/609/448
f 392/610/449 395/611/449 365/612/449
f 392/609/450 390/608/450 395/613/450
f 390/614/451 363/604/451 395/606/451
f 395/611/452 394/603/452 365/612/452
f 395/606/453 389/605/453 394/615/453
f 389/605/454 362/616/454 394/615/454
f 394/603/455 393/600/455 365/612/455
f 394/603/456 388/602/456 393/600/456
f 388/602/457 361/598/457 393/600/457
f 393/600/458 391/617/458 365/612/458
f 393/600/459 387/599/459 391/617/459
f 387/618/460 360/595/460 391/597/460
f 391/617/461 392/610/461 365/612/461
f 391/619/462 386/620/462 392/609/462
f 386/620/463 364/607/463 392/609/463
f 377/621/464 390/608/464 364/607/464
f 377/594/465 384/589/465 390/614/465
f 384/589/466 363/604/466 390/614/466
f 385/593/467 389/605/467 363/604/467
f 385/593/468 382/586/468 389/605/468
f 382/586/469 362/616/469 389/605/469
f 383/592/470 388/622/470 362/623/470
f 383/592/471 380/583/471 388/622/471
f 380/583/472 361/624/472 388/622/472
f 381/591/473 387/618/473 361/625/473
f 381/591/474 378/580/474 387/618/474
f 378/580/475 360/595/475 387/618/475
f 379/626/476 386/596/476 360/595/476
f 379/590/477 376/577/477 386/620/477
f 376/577/478 364/607/478 386/620/478
f 384/589/479 385/593/479 363/604/479
f 384/589/480 375/588/480 385/593/480
f 375/588/481 358/584/481 385/593/481
f 382/586/482 383/627/482 362/616/482
f 382/586/483 374/585/483 383/627/483
f 374/628/484 357/581/484 383/592/484
f 380/629/485 381/591/485 361/625/485
f 380/629/486 372/630/486 381/591/486
f 372/630/487 356/578/487 381/591/487
f 378/580/488 379/626/488 360/595/488
f 378/580/489 368/579/489 379/626/489
f 368/579/490 355/631/490 379/626/490
f 376/577/491 377/621/491 364/607/491
f 376/577/492 369/576/492 377/621/492
f 369/632/493 359/587/493 377/594/493
f 370/633/494 375/588/494 359/587/494
f 370/633/495 373/634/495 375/588/495
f 373/634/496 358/584/496 375/588/496
f 373/634/497 374/585/497 358/584/497
f 373/572/498 371/571/498 374/628/498
f 371/571/499 357/581/499 374/628/499
f 371/571/500 372/582/500 357/581/500
f 371/635/501 366/566/501 372/636/501
f 366/637/502 356/578/502 372/630/502
f 369/632/503 370/633/503 359/587/503
f 369/568/504 367/565/504 370/574/504
f 367/565/505 354/564/505 370/574/505
f 366/637/506 368/579/506 356/578/506
f 366/637/507 367/638/507 368/579/507
f 367/638/508 355/631/508 368/579/508
f 443/639/7 453/640/7 454/641/7
f 440/642/509 405/643/509 441/644/509
f 454/641/7 446/645/7 452/646/7
f 396/647/510 407/648/510 408/649/510
f 396/647/511 408/649/511 406/650/511
f 405/643/512 443/651/512 441/644/512
f 456/652/7 442/653/7 458/654/7
f 449/655/7 444/656/7 455/657/7
f 398/658/513 409/659/513 414/660/513
f 399/661/514 410/662/514 416/663/514
f 443/639/515 411/664/515 453/640/515
f 441/665/7 454/641/7 448/666/7
f 397/667/516 413/668/516 415/669/516
f 398/658/517 414/660/517 417/670/517
f 399/661/518 416/663/518 412/671/518
f 444/656/519 450/672/519 422/673/519
f 400/674/520 418/675/520 423/676/520
f 401/677/521 419/678/521 424/679/521
f 402/409/522 420/680/522 421/681/522
f 421/682/523 424/683/523 403/684/523
f 421/682/524 420/685/524 424/683/524
f 420/686/525 401/677/525 424/679/525
f 424/683/526 423/676/526 403/684/526
f 424/679/527 419/678/527 423/687/527
f 419/678/528 400/688/528 423/687/528
f 423/676/529 422/689/529 403/684/529
f 423/676/530 418/675/530 422/689/530
f 441/665/7 443/639/7 454/641/7
f 451/690/531 403/684/531 448/691/531
f 451/690/532 452/692/532 421/682/532
f 402/409/533 452/693/533 446/410/533
f 412/694/534 420/680/534 402/409/534
f 412/671/535 416/663/535 420/686/535
f 416/663/536 401/677/536 420/686/536
f 417/670/537 419/678/537 401/677/537
f 417/670/538 414/660/538 419/678/538
f 414/660/539 400/688/539 419/678/539
f 415/669/540 418/695/540 400/696/540
f 415/669/541 413/668/541 418/695/541
f 440/697/7 441/665/7 459/698/7
f 453/640/542 411/664/542 454/641/542
f 416/663/543 417/670/543 401/677/543
f 416/663/544 410/662/544 417/670/544
f 410/662/545 398/658/545 417/670/545
f 414/660/546 415/699/546 400/688/546
f 414/660/547 409/659/547 415/699/547
f 409/700/548 397/667/548 415/669/548
f 454/641/7 452/646/7 448/666/7
f 439/701/7 449/655/7 455/657/7
f 439/701/7 456/652/7 458/654/7
f 439/701/7 459/698/7 449/655/7
f 411/702/549 412/694/549 402/409/549
f 411/702/550 405/643/550 412/694/550
f 405/643/551 399/703/551 412/694/551
f 406/704/552 410/662/552 399/661/552
f 406/704/553 408/705/553 410/662/553
f 408/705/554 398/658/554 410/662/554
f 408/705/555 409/659/555 398/658/555
f 408/705/556 407/706/556 409/659/556
f 407/707/557 397/667/557 409/700/557
f 444/656/7 447/708/7 445/709/7
f 455/657/7 444/656/7 445/709/7
f 455/657/7 456/652/7 439/701/7
f 405/710/558 406/650/558 399/711/558
f 405/710/559 404/712/559 406/650/559
f 404/712/560 396/647/560 406/650/560
f 449/655/7 450/672/7 444/656/7
f 459/698/561 404/713/561 460/714/561
f 448/666/7 449/655/7 459/698/7
f 461/1/562 426/33/562 1/2/562
f 1/2/563 462/4/563 425/3/563
f 2/36/564 463/7/564 427/715/564
f 3/8/565 464/10/565 428/9/565
f 4/39/566 465/13/566 429/716/566
f 430/15/567 5/14/567 431/18/567
f 426/23/7 461/717/7 431/49/7
f 464/26/7 429/718/7 465/719/7
f 468/29/7 435/720/7 469/30/7
f 426/23/7 431/49/7 467/27/7
f 470/31/7 471/19/7 426/23/7
f 464/26/7 465/719/7 431/49/7
f 6/52/568 466/34/568 432/721/568
f 1/2/569 7/32/569 8/35/569
f 2/36/570 8/55/570 9/37/570
f 3/8/571 9/37/571 10/38/571
f 4/11/572 10/38/572 11/722/572
f 5/14/573 11/40/573 12/16/573
f 12/16/574 467/44/574 433/17/574
f 461/717/7 425/723/7 462/47/7
f 465/719/7 430/724/7 431/49/7
f 469/30/7 436/725/7 470/31/7
f 461/717/7 462/47/7 464/26/7
f 396/647/575 404/712/575 459/726/575
f 6/52/576 18/72/576 19/53/576
f 7/32/577 19/53/577 20/54/577
f 8/55/578 20/74/578 21/56/578
f 9/37/579 21/56/579 22/57/579
f 10/58/580 22/77/580 23/59/580
f 23/59/581 24/60/581 12/16/581
f 24/60/582 25/61/582 13/45/582
f 25/61/583 26/81/583 14/62/583
f 26/63/584 27/65/584 15/41/584
f 27/65/585 28/67/585 16/66/585
f 28/67/586 29/85/586 17/68/586
f 29/69/587 18/72/587 6/52/587
f 30/71/588 31/88/588 19/53/588
f 19/53/589 31/88/589 32/73/589
f 20/74/590 32/90/590 33/75/590
f 33/75/591 34/93/591 22/57/591
f 34/76/592 35/95/592 23/59/592
f 23/59/593 35/95/593 36/78/593
f 24/60/594 36/78/594 37/79/594
f 25/61/595 37/79/595 38/80/595
f 38/82/596 39/83/596 27/65/596
f 39/83/597 40/84/597 28/67/597
f 40/84/598 41/102/598 29/85/598
f 41/86/599 30/71/599 18/72/599
f 42/87/600 43/105/600 31/88/600
f 31/88/601 43/105/601 44/89/601
f 32/90/602 44/107/602 45/91/602
f 33/75/603 45/91/603 46/92/603
f 46/94/604 47/111/604 35/95/604
f 35/95/605 47/111/605 48/96/605
f 36/78/606 48/96/606 49/97/606
f 37/727/607 49/114/607 50/99/607
f 50/99/608 51/100/608 39/83/608
f 51/100/609 52/101/609 40/84/609
f 52/101/610 53/118/610 41/102/610
f 53/103/611 42/87/611 30/71/611
f 42/87/612 54/120/612 55/104/612
f 43/728/613 55/122/613 56/124/613
f 44/107/614 56/124/614 57/108/614
f 45/91/615 57/108/615 58/109/615
f 58/110/616 59/112/616 47/111/616
f 59/112/617 60/128/617 48/96/617
f 48/96/618 60/128/618 61/113/618
f 49/114/619 61/131/619 62/115/619
f 62/115/620 63/116/620 51/100/620
f 63/116/621 64/117/621 52/101/621
f 64/135/622 65/119/622 53/103/622
f 65/119/623 54/120/623 42/87/623
f 54/120/624 66/138/624 67/121/624
f 55/104/625 67/121/625 68/140/625
f 56/124/626 68/123/626 69/125/626
f 69/125/627 70/142/627 58/109/627
f 70/126/628 71/127/628 59/112/628
f 71/127/629 72/145/629 60/128/629
f 60/128/630 72/145/630 73/129/630
f 73/129/631 74/147/631 62/729/631
f 74/132/632 75/149/632 63/116/632
f 63/116/633 75/149/633 76/133/633
f 76/134/634 77/136/634 65/119/634
f 77/136/635 66/138/635 54/120/635
f 78/137/636 79/153/636 67/121/636
f 67/730/637 79/154/637 80/156/637
f 68/123/638 80/156/638 81/141/638
f 81/141/639 82/159/639 70/142/639
f 82/143/640 83/161/640 71/127/640
f 71/127/641 83/161/641 84/144/641
f 84/144/642 85/164/642 73/129/642
f 73/130/643 85/167/643 86/166/643
f 74/132/644 86/166/644 87/148/644
f 87/148/645 88/169/645 76/133/645
f 88/150/646 89/151/646 77/136/646
f 89/151/647 78/137/647 66/138/647
f 78/137/648 90/171/648 91/152/648
f 79/153/649 91/152/649 92/174/649
f 80/156/650 92/155/650 93/157/650
f 81/141/651 93/157/651 94/158/651
f 94/160/652 95/162/652 83/161/652
f 95/162/653 96/178/653 84/144/653
f 84/144/654 96/178/654 97/163/654
f 97/163/655 98/181/655 86/146/655
f 86/166/656 98/183/656 99/168/656
f 99/168/657 100/185/657 88/169/657
f 100/185/658 101/187/658 89/731/658
f 89/151/659 101/189/659 90/171/659
f 90/171/660 102/190/660 103/172/660
f 91/732/661 103/193/661 104/175/661
f 104/175/662 105/176/662 93/157/662
f 105/176/663 106/196/663 94/158/663
f 94/160/664 106/197/664 107/177/664
f 107/177/665 108/200/665 96/178/665
f 96/178/666 108/200/666 109/179/666
f 97/163/667 109/179/667 110/180/667
f 110/182/668 111/184/668 99/168/668
f 111/184/669 112/186/669 100/185/669
f 112/205/670 113/188/670 101/189/670
f 113/188/671 102/190/671 90/171/671
f 102/190/672 114/208/672 115/191/672
f 115/191/673 116/210/673 104/173/673
f 116/194/674 117/212/674 105/176/674
f 105/176/675 117/212/675 118/195/675
f 106/197/676 118/214/676 119/198/676
f 107/177/677 119/198/677 120/199/677
f 120/199/678 121/201/678 109/179/678
f 121/201/679 122/218/679 110/180/679
f 110/182/680 122/220/680 123/202/680
f 111/184/681 123/202/681 124/203/681
f 124/203/682 125/222/682 113/733/682
f 125/206/683 114/208/683 102/190/683
f 126/207/684 127/209/684 115/191/684
f 127/209/685 128/225/685 116/210/685
f 116/194/686 128/227/686 129/211/686
f 129/211/687 130/229/687 118/195/687
f 130/213/688 131/231/688 119/198/688
f 119/198/689 131/231/689 132/215/689
f 120/199/690 132/215/690 133/216/690
f 121/201/691 133/216/691 134/217/691
f 134/219/692 135/235/692 123/202/692
f 123/202/693 135/235/693 136/221/693
f 136/221/694 137/238/694 125/222/694
f 125/206/695 137/239/695 126/207/695
f 138/223/696 139/241/696 127/209/696
f 127/209/697 139/241/697 140/224/697
f 140/226/698 141/228/698 129/211/698
f 141/228/699 142/244/699 130/229/699
f 130/213/700 142/246/700 143/230/700
f 143/230/701 144/232/701 132/215/701
f 144/232/702 145/249/702 133/216/702
f 133/734/703 145/250/703 146/252/703
f 134/219/704 146/252/704 147/234/704
f 135/235/705 147/234/705 148/236/705
f 136/735/706 148/255/706 149/257/706
f 137/239/707 149/257/707 138/223/707
f 138/223/708 150/259/708 151/240/708
f 151/240/709 152/261/709 140/224/709
f 152/242/710 153/243/710 141/228/710
f 153/243/711 154/264/711 142/244/711
f 154/245/712 155/247/712 143/230/712
f 155/247/713 156/267/713 144/232/713
f 144/232/714 156/267/714 157/248/714
f 145/249/715 157/248/715 158/270/715
f 146/252/716 158/251/716 159/253/716
f 147/234/717 159/253/717 160/254/717
f 148/255/718 160/273/718 161/256/718
f 161/256/719 150/259/719 138/223/719
f 162/258/720 163/276/720 151/240/720
f 151/240/721 163/276/721 164/260/721
f 164/262/722 165/263/722 153/243/722
f 165/263/723 166/280/723 154/264/723
f 166/265/724 167/266/724 155/247/724
f 167/266/725 168/268/725 156/267/725
f 168/268/726 169/284/726 157/248/726
f 157/248/727 169/284/727 170/269/727
f 158/251/728 170/286/728 171/271/728
f 159/253/729 171/271/729 172/272/729
f 160/273/730 172/289/730 173/274/730
f 161/256/731 173/274/731 162/258/731
f 174/275/732 175/277/732 163/276/732
f 175/293/733 176/278/733 164/262/733
f 176/278/734 177/279/734 165/263/734
f 177/279/735 178/296/735 166/280/735
f 178/281/736 179/298/736 167/266/736
f 167/266/737 179/298/737 180/282/737
f 168/268/738 180/282/738 181/283/738
f 169/736/739 181/301/739 182/303/739
f 170/286/740 182/303/740 183/287/740
f 171/271/741 183/287/741 184/288/741
f 172/289/742 184/307/742 185/290/742
f 173/274/743 185/290/743 174/275/743
f 186/291/744 187/309/744 175/277/744
f 187/309/745 188/311/745 176/737/745
f 188/294/746 189/295/746 177/279/746
f 189/295/747 190/314/747 178/296/747
f 190/297/748 191/299/748 179/298/748
f 191/299/749 192/317/749 180/282/749
f 180/282/750 192/317/750 193/300/750
f 181/283/751 193/300/751 194/320/751
f 182/303/752 194/302/752 195/304/752
f 183/287/753 195/304/753 196/305/753
f 196/306/754 197/324/754 185/290/754
f 185/290/755 197/324/755 186/291/755
f 198/308/756 199/310/756 187/309/756
f 199/310/757 200/326/757 188/311/757
f 200/312/758 201/313/758 189/295/758
f 201/313/759 202/329/759 190/314/759
f 202/329/760 203/331/760 191/738/760
f 191/299/761 203/333/761 204/316/761
f 192/317/762 204/316/762 205/318/762
f 193/300/763 205/318/763 206/319/763
f 194/302/764 206/336/764 207/321/764
f 195/304/765 207/321/765 208/322/765
f 196/305/766 208/322/766 209/340/766
f 197/324/767 209/323/767 198/308/767
f 198/308/768 210/343/768 211/325/768
f 211/345/769 212/327/769 200/312/769
f 212/327/770 213/328/770 201/313/770
f 213/328/771 214/330/771 202/329/771
f 214/349/772 215/332/772 203/333/772
f 215/332/773 216/351/773 204/316/773
f 204/316/774 216/351/774 217/334/774
f 205/318/775 217/334/775 218/335/775
f 206/336/776 218/354/776 219/337/776
f 207/321/777 219/337/777 220/338/777
f 208/739/778 220/357/778 221/341/778
f 221/341/779 210/343/779 198/308/779
f 222/342/780 223/360/780 211/325/780
f 223/344/781 224/346/781 212/327/781
f 224/346/782 225/347/782 213/328/782
f 225/347/783 226/364/783 214/330/783
f 226/348/784 227/350/784 215/332/784
f 227/350/785 228/367/785 216/351/785
f 216/351/786 228/367/786 229/352/786
f 217/334/787 229/352/787 230/353/787
f 218/354/788 230/369/788 231/355/788
f 219/337/789 231/355/789 232/356/789
f 220/357/790 232/372/790 233/358/790
f 221/341/791 233/358/791 222/342/791
f 222/342/792 234/374/792 235/359/792
f 235/359/793 236/376/793 224/740/793
f 236/362/794 237/363/794 225/347/794
f 237/363/795 238/379/795 226/364/795
f 238/379/796 239/381/796 227/741/796
f 227/350/797 239/383/797 240/366/797
f 240/366/798 241/385/798 229/352/798
f 229/352/799 241/385/799 242/368/799
f 230/369/800 242/387/800 243/370/800
f 231/355/801 243/370/801 244/371/801
f 232/372/802 244/390/802 245/373/802
f 233/358/803 245/373/803 234/374/803
f 234/374/804 246/392/804 247/375/804
f 247/375/805 248/395/805 236/376/805
f 248/377/806 249/378/806 237/363/806
f 249/378/807 250/380/807 238/379/807
f 250/399/808 251/382/808 239/383/808
f 251/382/809 252/401/809 240/366/809
f 240/366/810 252/401/810 253/384/810
f 241/385/811 253/384/811 254/386/811
f 242/387/812 254/404/812 255/388/812
f 243/370/813 255/388/813 256/389/813
f 244/390/814 256/407/814 257/391/814
f 245/373/815 257/391/815 246/392/815
f 246/392/816 258/742/816 259/393/816
f 247/375/817 259/393/817 260/394/817
f 260/396/818 261/397/818 249/378/818
f 261/397/819 262/743/819 250/380/819
f 262/398/820 263/400/820 251/382/820
f 263/400/821 264/744/821 252/401/821
f 252/401/822 264/744/822 265/402/822
f 253/384/823 265/402/823 266/403/823
f 254/404/824 266/745/824 267/405/824
f 255/388/825 267/405/825 268/406/825
f 256/389/826 268/406/826 269/746/826
f 269/408/827 258/742/827 246/392/827
f 457/747/828 442/748/828 397/667/828
f 445/749/829 447/750/829 418/695/829
f 402/409/533 421/681/533 452/693/533
f 3/8/565 4/11/565 464/10/565
f 6/52/568 7/32/568 466/34/568
f 12/16/574 13/45/574 467/44/574
f 449/751/830 448/691/830 403/684/830
f 418/675/831 447/752/831 444/753/831
f 397/667/832 442/748/832 456/754/832
f 258/755/268 269/756/268 268/757/268
f 268/757/268 267/758/268 258/755/268
f 267/758/268 266/759/268 265/760/268
f 258/755/268 267/758/268 265/760/268
f 265/760/268 264/412/268 258/755/268
f 264/412/268 263/761/268 262/413/268
f 262/413/268 261/762/268 260/414/268
f 260/414/268 259/763/268 264/412/268
f 259/763/268 258/755/268 264/412/268
f 452/646/7 451/764/7 448/666/7
f 407/765/833 458/654/833 457/766/833
f 413/767/834 456/652/834 455/657/834
f 422/673/835 450/672/835 449/655/835
f 449/751/830 403/684/830 422/689/830
f 402/409/267 454/411/267 411/702/267
f 445/749/829 418/695/829 413/668/829
f 413/767/836 455/657/836 445/709/836
f 418/675/831 444/753/831 422/689/831
f 442/653/7 457/766/7 458/654/7
f 397/667/832 456/754/832 413/668/832
f 457/747/828 397/667/828 407/707/828
f 461/717/7 464/26/7 431/49/7
f 459/698/7 460/714/7 440/697/7
f 404/713/837 440/697/837 460/714/837
f 396/647/575 459/726/575 439/768/575
f 396/647/838 458/769/838 407/648/838
f 17/70/839 472/770/839 438/771/839
f 17/68/840 471/772/840 16/66/840
f 16/66/841 471/772/841 437/773/841
f 16/66/842 470/774/842 15/41/842
f 15/41/843 470/774/843 436/42/843
f 15/41/13 469/43/13 14/64/13
f 14/64/844 469/43/844 435/775/844
f 14/62/845 468/776/845 13/45/845
f 472/21/7 432/777/7 466/22/7
f 13/778/846 468/779/846 434/780/846
f 14/62/845 435/781/845 468/776/845
f 396/647/838 439/768/838 458/769/838
f 6/52/847 472/770/847 17/70/847
f 12/16/6 431/18/6 5/14/6
f 4/39/566 5/14/566 465/13/566
f 6/52/847 432/721/847 472/770/847
f 2/36/564 3/8/564 463/7/564
f 1/2/563 2/5/563 462/4/563
f 451/690/531 421/682/531 403/684/531
f 405/643/512 411/702/512 443/651/512
f 440/642/509 404/782/509 405/643/509
f 7/32/8 1/2/8 426/33/8
f 17/68/840 438/783/840 471/772/840
f 16/66/842 437/773/842 470/774/842
f 426/23/7 468/29/7 470/31/7
f 459/698/7 441/665/7 448/666/7
