# Blender 5.0.1
# www.blender.org
mtllib searock_d.mtl
o searock_d_rock
usemtl searock_d_rock
v 0.772404 0.677369 0.028718
v 0.367821 0.281008 0.818387
v 0.316030 0.017193 -0.244497
v 0.230681 0.677369 -0.797428
v 0.308972 1.326469 -0.239021
v 0.382338 1.085909 0.841019
v -0.477835 0.091727 0.371312
v -0.546439 0.306747 -0.606898
v -0.568733 1.066693 -0.641654
v -0.500071 1.297906 0.388561
v -0.444776 0.677369 0.973659
v -1.003813 0.677369 0.136279
v 0.739344 0.279929 -0.150398
v 0.784878 0.430073 0.505365
v 0.459373 0.013138 0.350384
v 0.429403 0.677369 0.914391
v 0.681852 0.896023 0.456311
v 0.641351 0.677369 -0.496868
v 0.328964 0.319886 -0.634539
v 0.752222 1.080873 -0.153942
v 0.351016 1.053032 -0.670972
v 0.366258 1.231942 0.306048
v -0.048169 0.460509 1.014534
v -0.047184 0.898012 1.030804
v -0.104650 0.000000 0.081829
v -0.070201 0.117068 0.650703
v -0.161283 0.459923 -0.853396
v -0.141248 0.082106 -0.522542
v -0.138598 1.229534 -0.478784
v -0.163770 0.904362 -0.894453
v -0.069227 1.253520 0.666796
v -0.104650 1.365270 0.081829
v -0.571616 0.292389 0.853299
v -0.670753 0.010688 -0.187716
v -0.669009 0.677369 -0.797978
v -0.653941 1.324251 -0.179711
v -0.589959 1.077471 0.883603
v -0.859681 0.321822 0.289578
v -0.831632 0.677369 0.645772
v -0.930934 0.447655 -0.311595
v -0.946022 0.911278 -0.318779
v -0.832211 1.019980 0.282020
vn 0.9977 0.0435 -0.0527
vn 0.3686 -0.5857 0.7219
vn 0.2875 -0.9098 -0.2994
vn 0.4117 -0.0658 -0.9089
vn 0.2674 0.9400 -0.2120
vn 0.4865 0.6126 0.6229
vn -0.3008 -0.9182 0.2577
vn -0.4227 -0.6062 -0.6737
vn -0.4017 0.6500 -0.6451
vn -0.3508 0.9096 0.2228
vn -0.3772 -0.0433 0.9251
vn -0.9915 0.0224 0.1285
vn 0.8457 -0.4628 -0.2657
vn 0.9039 -0.2258 0.3632
vn 0.3909 -0.8950 0.2149
vn 0.5587 0.0024 0.8293
vn 0.8532 0.4160 0.3148
vn 0.8024 -0.0369 -0.5956
vn 0.4431 -0.5181 -0.7316
vn 0.8479 0.5090 -0.1480
vn 0.4300 0.5367 -0.7260
vn 0.4210 0.8849 0.1991
vn 0.0422 -0.3670 0.9293
vn 0.0466 0.3185 0.9468
vn -0.0399 -0.9978 0.0522
vn -0.0307 -0.8874 0.4600
vn -0.0056 -0.3991 -0.9169
vn -0.0165 -0.8489 -0.5282
vn -0.0166 0.8854 -0.4646
vn -0.0031 0.3691 -0.9294
vn 0.0558 0.9038 0.4243
vn 0.0397 0.9990 0.0213
vn -0.4730 -0.5651 0.6760
vn -0.4800 -0.8600 -0.1729
vn -0.5689 -0.0511 -0.8208
vn -0.4595 0.8722 -0.1674
vn -0.4999 0.5276 0.6868
vn -0.8102 -0.5372 0.2346
vn -0.8689 -0.0018 0.4950
vn -0.8847 -0.3387 -0.3204
vn -0.8977 0.3324 -0.2894
vn -0.8249 0.5252 0.2092
vt 0.053111 0.630000
vt -0.423536 0.382704
vt 0.232227 0.232560
vt 0.472471 0.233639
vt 0.889528 0.382704
vt 0.534053 0.630000
vt 0.578697 0.630000
vt 0.235771 1.033504
vt -0.374482 0.848654
vt 0.056481 0.413140
vt 0.420680 0.326326
vt 0.564023 -0.268555
vt 0.000000 -0.000000
vt -0.335331 0.630000
vt -0.433614 0.272517
vt 0.056633 0.412554
vt 0.413622 -0.320850
vt 0.455666 -0.752801
vt -0.033948 -0.560613
vt 0.486988 0.759190
vt 0.470908 0.224219
vt 0.035423 0.584967
vt 0.472471 -0.736558
vt 0.056481 -0.932705
vt 0.034449 -0.568874
vt -0.036598 0.604371
vt 0.059120 0.856993
vt 0.057466 0.948975
vt -0.373185 -0.289483
vt -0.466966 -0.771470
vt -0.755031 -0.207749
vt -0.688727 0.259378
vt -0.269545 -0.036681
vt -0.393424 0.400286
vt -0.723483 1.019324
vt -0.879807 0.630000
vt -0.400608 0.863909
vt -0.395421 0.306732
vt -0.549291 -0.261540
vt -0.727561 0.200191
vt -0.340126 0.630000
vt -0.485309 1.030102
vt -0.726982 0.630000
vt 0.563943 0.630000
vt 0.200191 0.972611
vt 0.054450 0.630000
vt 0.801774 1.030102
vt -0.485309 0.801774
vt -0.261540 1.276882
vt 0.207749 0.274453
vt -0.566103 0.269545
vt 0.771470 0.245020
vt -0.466966 0.245020
vt 0.057466 0.850643
vt -0.464083 -0.723483
vt 0.564359 0.630000
vt 0.464083 1.019324
vt 0.441789 0.259378
vt -0.441789 0.688727
vt -0.059120 -0.976282
vt -0.455666 1.005663
vt 0.036598 0.034737
vt 0.433614 0.716368
vt 0.486988 1.038540
vt 0.786502 0.374482
vt 0.856872 -0.235771
vt 0.752801 1.005663
vt -0.746001 0.630000
vt 0.716368 0.272517
vt 0.843993 0.232227
vt -0.832562 0.630000
vt -0.759190 1.038540
vt -0.268555 -0.034231
vt 0.889528 -0.423536
s 1
f 1/1/1 14/2/14 13/3/13
f 2/4/2 14/5/14 16/6/16
f 1/1/1 13/3/13 18/7/18
f 1/1/1 18/7/18 20/8/20
f 1/1/1 20/8/20 17/9/17
f 2/4/2 16/6/16 23/10/23
f 3/11/3 15/12/15 25/13/25
f 4/14/4 19/15/19 27/16/27
f 5/17/5 21/18/21 29/19/29
f 6/20/6 22/21/22 31/22/31
f 2/23/2 23/24/23 26/25/26
f 3/11/3 25/13/25 28/26/28
f 4/14/4 27/16/27 30/27/30
f 5/17/5 29/19/29 32/13/32
f 6/20/6 31/22/31 24/28/24
f 7/29/7 33/30/33 38/31/38
f 8/32/8 34/33/34 40/34/40
f 9/35/9 35/36/35 41/37/41
f 10/38/10 36/39/36 42/40/42
f 11/41/11 37/42/37 39/43/39
f 39/44/39 42/45/42 12/46/12
f 39/44/39 37/47/37 42/45/42
f 37/48/37 10/38/10 42/40/42
f 42/45/42 41/37/41 12/46/12
f 42/45/42 36/49/36 41/37/41
f 36/49/36 9/35/9 41/37/41
f 41/37/41 40/34/40 12/46/12
f 41/37/41 35/36/35 40/34/40
f 35/36/35 8/32/8 40/34/40
f 40/34/40 38/50/38 12/46/12
f 40/34/40 34/33/34 38/50/38
f 34/51/34 7/29/7 38/31/38
f 38/50/38 39/44/39 12/46/12
f 38/50/38 33/52/33 39/44/39
f 33/53/33 11/41/11 39/43/39
f 24/54/24 37/42/37 11/41/11
f 24/28/24 31/22/31 37/48/37
f 31/22/31 10/38/10 37/48/37
f 32/13/32 36/39/36 10/38/10
f 32/13/32 29/19/29 36/39/36
f 29/19/29 9/55/9 36/39/36
f 30/27/30 35/56/35 9/57/9
f 30/27/30 27/16/27 35/56/35
f 27/16/27 8/58/8 35/56/35
f 28/26/28 34/51/34 8/59/8
f 28/26/28 25/13/25 34/51/34
f 25/13/25 7/29/7 34/51/34
f 26/25/26 33/30/33 7/29/7
f 26/25/26 23/24/23 33/30/33
f 23/10/23 11/41/11 33/53/33
f 31/22/31 32/13/32 10/38/10
f 31/22/31 22/21/22 32/13/32
f 22/21/22 5/17/5 32/13/32
f 29/19/29 30/60/30 9/55/9
f 29/19/29 21/18/21 30/60/30
f 21/61/21 4/14/4 30/27/30
f 27/16/27 28/62/28 8/58/8
f 27/16/27 19/15/19 28/62/28
f 19/63/19 3/11/3 28/26/28
f 25/13/25 26/25/26 7/29/7
f 25/13/25 15/12/15 26/25/26
f 15/12/15 2/23/2 26/25/26
f 23/10/23 24/54/24 11/41/11
f 23/10/23 16/6/16 24/54/24
f 16/6/16 6/64/6 24/54/24
f 17/65/17 22/21/22 6/20/6
f 17/65/17 20/66/20 22/21/22
f 20/66/20 5/17/5 22/21/22
f 20/66/20 21/18/21 5/17/5
f 20/8/20 18/7/18 21/67/21
f 18/68/18 4/14/4 21/61/21
f 18/68/18 19/15/19 4/14/4
f 18/7/18 13/3/13 19/69/19
f 13/70/13 3/11/3 19/63/19
f 16/71/16 17/9/17 6/72/6
f 16/71/16 14/2/14 17/9/17
f 14/2/14 1/1/1 17/9/17
f 13/70/13 15/12/15 3/11/3
f 13/3/13 14/2/14 15/73/15
f 14/74/14 2/23/2 15/12/15
