# Blender 5.0.1
# www.blender.org
mtllib searock_e.mtl
o searock_e_rock
usemtl searock_e_rock
v 0.430722 0.461958 -0.274588
v 0.405575 0.251886 0.225539
v 0.109770 0.097329 -0.268332
v -0.091270 0.461958 -0.583619
v 0.101742 0.799919 -0.248707
v 0.462640 0.701588 0.257273
v -0.104636 0.114384 0.255781
v -0.399770 0.254893 -0.222311
v -0.396612 0.667388 -0.220555
v -0.102603 0.802780 0.250812
v 0.088395 0.461958 0.565235
v -0.410301 0.461958 0.261569
v 0.310730 0.258277 -0.308892
v 0.516983 0.329804 -0.025042
v 0.307768 0.128693 -0.014906
v 0.503712 0.461958 0.280113
v 0.531856 0.597913 -0.025762
v 0.197928 0.461958 -0.483853
v 0.011018 0.244630 -0.507837
v 0.354003 0.694004 -0.351909
v 0.009738 0.654026 -0.448811
v 0.346424 0.837081 -0.016779
v 0.323121 0.323619 0.506852
v 0.310285 0.594801 0.486717
v 0.000000 0.000000 0.000000
v 0.206266 0.087867 0.323552
v -0.311442 0.328619 -0.488532
v -0.206419 0.087591 -0.323791
v -0.171499 0.772993 -0.269015
v -0.318401 0.598276 -0.499448
v 0.174078 0.777670 0.273060
v 0.000000 0.903892 0.000000
v -0.010636 0.252164 0.490232
v -0.297825 0.139460 0.014425
v -0.493955 0.461958 -0.274687
v -0.290841 0.776893 0.014087
v -0.010073 0.660645 0.464278
v -0.345055 0.235777 0.343014
v -0.197532 0.461958 0.482885
v -0.486030 0.337717 0.023542
v -0.563948 0.606117 0.027317
v -0.347829 0.689957 0.345772
vn 0.8187 -0.1189 -0.5618
vn 0.7578 -0.6088 0.2347
vn 0.3192 -0.8528 -0.4134
vn 0.0161 0.0847 -0.9963
vn 0.0749 0.8807 -0.4678
vn 0.7043 0.5996 0.3801
vn -0.2668 -0.8819 0.3888
vn -0.7777 -0.5913 -0.2134
vn -0.6317 0.7139 -0.3023
vn -0.1607 0.9025 0.3996
vn -0.0325 0.0649 0.9974
vn -0.8339 -0.0717 0.5473
vn 0.6260 -0.5442 -0.5585
vn 0.9016 -0.4130 -0.1291
vn 0.5665 -0.8171 -0.1063
vn 0.9207 -0.0975 0.3780
vn 0.9531 0.2667 -0.1429
vn 0.4624 0.0034 -0.8866
vn 0.1809 -0.5385 -0.8229
vn 0.5589 0.5208 -0.6453
vn 0.0970 0.6509 -0.7529
vn 0.4671 0.8826 -0.0538
vn 0.5170 -0.3454 0.7832
vn 0.4242 0.4414 0.7907
vn -0.0230 -0.9995 0.0212
vn 0.2893 -0.8612 0.4179
vn -0.5518 -0.3742 -0.7453
vn -0.3415 -0.8473 -0.4066
vn -0.2510 0.8827 -0.3973
vn -0.4910 0.4619 -0.7386
vn 0.1537 0.8746 0.4598
vn -0.0763 0.9971 -0.0019
vn -0.1641 -0.5436 0.8231
vn -0.5706 -0.8175 0.0788
vn -0.9247 -0.0343 -0.3792
vn -0.4525 0.8917 -0.0039
vn -0.0904 0.6194 0.7798
vn -0.6474 -0.5226 0.5547
vn -0.4441 0.0274 0.8955
vn -0.8881 -0.4472 0.1064
vn -0.9391 0.3319 0.0892
vn -0.5840 0.5435 0.6030
vt 0.274588 0.357000
vt 0.025042 0.224846
vt 0.308892 0.153319
vt -0.225539 0.146928
vt -0.280113 0.357000
vt -0.430722 0.357000
vt -0.310730 0.153319
vt -0.197928 0.357000
vt -0.354003 0.589046
vt 0.351909 0.589046
vt 0.025762 0.492955
vt -0.506852 0.218661
vt 0.109770 0.268332
vt 0.307768 0.014906
vt 0.000000 -0.000000
vt 0.091270 0.357000
vt -0.011018 0.139672
vt 0.311442 0.223661
vt 0.101742 -0.248707
vt 0.009738 -0.448811
vt -0.171499 -0.269015
vt 0.462640 0.257273
vt 0.346424 -0.016779
vt 0.174078 0.273060
vt -0.323552 -0.017091
vt -0.206419 0.323791
vt 0.318401 0.493318
vt 0.310285 0.486717
vt -0.104636 -0.255781
vt -0.010636 -0.490232
vt -0.345055 -0.343014
vt -0.222311 0.149935
vt 0.014425 0.034502
vt 0.023542 0.232759
vt -0.220555 0.562430
vt -0.274687 0.357000
vt 0.027317 0.501159
vt -0.102603 0.250812
vt -0.290841 0.014087
vt -0.347829 0.345772
vt 0.088395 0.357000
vt -0.010073 0.555687
vt -0.197532 0.357000
vt 0.482885 0.357000
vt 0.345772 0.584999
vt 0.261569 0.357000
vt -0.347829 0.584999
vt -0.010073 0.464278
vt -0.563948 0.027317
vt -0.396612 -0.220555
vt 0.343014 0.130819
vt -0.297825 -0.014425
vt -0.345055 0.130819
vt -0.010636 0.147206
vt 0.310285 0.489843
vt -0.499448 0.493318
vt -0.488532 0.223661
vt -0.399770 0.222311
vt 0.206266 -0.323552
vt 0.206266 -0.017091
vt 0.323121 0.218661
vt -0.318401 -0.499448
vt -0.009738 0.549068
vt -0.323791 -0.017367
vt 0.206419 -0.017367
vt 0.011018 0.507837
vt 0.405575 -0.225539
vt -0.486717 0.489843
vt -0.257273 0.596630
vt 0.016779 0.732123
vt 0.354003 -0.351909
vt 0.310730 0.308892
vt 0.516983 0.025042
s 1
f 1/1/1 14/2/14 13/3/13
f 2/4/2 14/2/14 16/5/16
f 1/6/1 13/7/13 18/8/18
f 1/6/1 18/8/18 20/9/20
f 1/1/1 20/10/20 17/11/17
f 2/4/2 16/5/16 23/12/23
f 3/13/3 15/14/15 25/15/25
f 4/16/4 19/17/19 27/18/27
f 5/19/5 21/20/21 29/21/29
f 6/22/6 22/23/22 31/24/31
f 2/4/2 23/12/23 26/25/26
f 3/13/3 25/15/25 28/26/28
f 4/16/4 27/18/27 30/27/30
f 5/19/5 29/21/29 32/15/32
f 6/22/6 31/24/31 24/28/24
f 7/29/7 33/30/33 38/31/38
f 8/32/8 34/33/34 40/34/40
f 9/35/9 35/36/35 41/37/41
f 10/38/10 36/39/36 42/40/42
f 11/41/11 37/42/37 39/43/39
f 39/44/39 42/45/42 12/46/12
f 39/43/39 37/42/37 42/47/42
f 37/48/37 10/38/10 42/40/42
f 42/45/42 41/37/41 12/46/12
f 42/40/42 36/39/36 41/49/41
f 36/39/36 9/50/9 41/49/41
f 41/37/41 40/34/40 12/46/12
f 41/37/41 35/36/35 40/34/40
f 35/36/35 8/32/8 40/34/40
f 40/34/40 38/51/38 12/46/12
f 40/34/40 34/33/34 38/51/38
f 34/52/34 7/29/7 38/31/38
f 38/51/38 39/44/39 12/46/12
f 38/53/38 33/54/33 39/43/39
f 33/54/33 11/41/11 39/43/39
f 24/55/24 37/42/37 11/41/11
f 24/28/24 31/24/31 37/48/37
f 31/24/31 10/38/10 37/48/37
f 32/15/32 36/39/36 10/38/10
f 32/15/32 29/21/29 36/39/36
f 29/21/29 9/50/9 36/39/36
f 30/56/30 35/36/35 9/35/9
f 30/56/30 27/57/27 35/36/35
f 27/57/27 8/32/8 35/36/35
f 28/26/28 34/52/34 8/58/8
f 28/26/28 25/15/25 34/52/34
f 25/15/25 7/29/7 34/52/34
f 26/59/26 33/30/33 7/29/7
f 26/60/26 23/61/23 33/54/33
f 23/61/23 11/41/11 33/54/33
f 31/24/31 32/15/32 10/38/10
f 31/24/31 22/23/22 32/15/32
f 22/23/22 5/19/5 32/15/32
f 29/21/29 30/62/30 9/50/9
f 29/21/29 21/20/21 30/62/30
f 21/63/21 4/16/4 30/27/30
f 27/57/27 28/64/28 8/32/8
f 27/18/27 19/17/19 28/65/28
f 19/66/19 3/13/3 28/26/28
f 25/15/25 26/59/26 7/29/7
f 25/15/25 15/14/15 26/59/26
f 15/14/15 2/67/2 26/59/26
f 23/61/23 24/55/24 11/41/11
f 23/12/23 16/5/16 24/68/24
f 16/5/16 6/69/6 24/68/24
f 17/11/17 22/70/22 6/69/6
f 17/11/17 20/10/20 22/70/22
f 20/71/20 5/19/5 22/23/22
f 20/71/20 21/20/21 5/19/5
f 20/9/20 18/8/18 21/63/21
f 18/8/18 4/16/4 21/63/21
f 18/8/18 19/17/19 4/16/4
f 18/8/18 13/7/13 19/17/19
f 13/72/13 3/13/3 19/66/19
f 16/5/16 17/11/17 6/69/6
f 16/5/16 14/2/14 17/11/17
f 14/2/14 1/1/1 17/11/17
f 13/72/13 15/14/15 3/13/3
f 13/72/13 14/73/14 15/14/15
f 14/73/14 2/67/2 15/14/15
