# Blender 5.0.1
# www.blender.org
mtllib searock_a.mtl
o searock_a_rock
usemtl searock_a_rock
v 0.299478 0.345631 -0.251218
v 0.379366 0.148937 0.136101
v 0.064241 0.054453 -0.212658
v -0.114961 0.345631 -0.437772
v 0.061827 0.625869 -0.204667
v 0.389352 0.547503 0.139683
v -0.068123 0.036859 0.225507
v -0.385859 0.145570 -0.138430
v -0.365467 0.535120 -0.131114
v -0.059334 0.614567 0.196413
v 0.118875 0.345631 0.452678
v -0.314426 0.345631 0.263758
v 0.223749 0.175387 -0.280520
v 0.412892 0.233987 -0.088477
v 0.232206 0.079661 -0.049757
v 0.446870 0.345631 0.160318
v 0.365287 0.444403 -0.078276
v 0.119136 0.345631 -0.394395
v -0.030191 0.155879 -0.412968
v 0.248124 0.534422 -0.311081
v -0.030211 0.535507 -0.413236
v 0.231276 0.610537 -0.049558
v 0.289146 0.231934 0.344691
v 0.298790 0.463121 0.356189
v 0.000000 0.000000 0.000000
v 0.184289 0.038658 0.219691
v -0.264276 0.241713 -0.315045
v -0.166935 0.067566 -0.199003
v -0.157795 0.608473 -0.188107
v -0.301030 0.464001 -0.358858
v 0.185957 0.655383 0.221680
v 0.000000 0.721397 0.000000
v 0.025858 0.183114 0.353696
v -0.235788 0.075557 0.050525
v -0.410675 0.345631 -0.147333
v -0.251233 0.633397 0.053834
v 0.025580 0.506402 0.349894
v -0.217815 0.179902 0.273082
v -0.124099 0.345631 0.410826
v -0.420352 0.231970 0.090075
v -0.366746 0.444798 0.078588
v -0.216524 0.510378 0.271462
vn 0.7757 -0.0274 -0.6306
vn 0.7570 -0.6304 0.1718
vn 0.1986 -0.9078 -0.3694
vn -0.1936 -0.0641 -0.9790
vn 0.1285 0.9192 -0.3722
vn 0.7952 0.6003 0.0849
vn -0.2333 -0.8452 0.4809
vn -0.7556 -0.5887 -0.2870
vn -0.7823 0.6032 -0.1553
vn -0.2189 0.8221 0.5255
vn 0.0984 -0.0070 0.9951
vn -0.7577 0.0619 0.6497
vn 0.5719 -0.5245 -0.6308
vn 0.8893 -0.3031 -0.3426
vn 0.4623 -0.8638 -0.2003
vn 0.9757 0.0003 0.2192
vn 0.8735 0.3739 -0.3118
vn 0.4101 -0.0545 -0.9104
vn -0.0093 -0.5549 -0.8318
vn 0.6088 0.5124 -0.6056
vn 0.0052 0.5829 -0.8125
vn 0.5219 0.8279 -0.2054
vn 0.5392 -0.3956 0.7435
vn 0.5377 0.3566 0.7640
vn -0.0110 -0.9983 -0.0574
vn 0.2926 -0.8688 0.3995
vn -0.5985 -0.3995 -0.6944
vn -0.3067 -0.8805 -0.3615
vn -0.2828 0.8913 -0.3544
vn -0.6362 0.3295 -0.6977
vn 0.2284 0.8783 0.4200
vn -0.0159 0.9992 -0.0380
vn -0.0629 -0.5654 0.8224
vn -0.4619 -0.8724 0.1598
vn -0.9652 0.0392 -0.2584
vn -0.5362 0.8222 0.1909
vn -0.1101 0.6200 0.7768
vn -0.5121 -0.5516 0.6584
vn -0.3618 0.0080 0.9322
vn -0.9086 -0.2894 0.3011
vn -0.8834 0.3772 0.2780
vn -0.5039 0.5873 0.6334
vt 0.251218 0.294000
vt 0.088477 0.182356
vt 0.280520 0.123756
vt -0.136101 0.097305
vt -0.160318 0.294000
vt -0.299478 0.294000
vt -0.223749 0.123756
vt -0.119136 0.294000
vt -0.248124 0.482791
vt 0.311081 0.482791
vt 0.078276 0.392772
vt -0.344691 0.180303
vt 0.064241 0.212658
vt 0.232206 0.049757
vt 0.000000 -0.000000
vt 0.114961 0.294000
vt 0.030191 0.104248
vt 0.264276 0.190082
vt 0.061827 -0.204667
vt -0.030211 -0.413236
vt -0.157795 -0.188107
vt 0.389352 0.139683
vt 0.231276 -0.049558
vt 0.185957 0.221680
vt 0.379366 -0.136101
vt 0.289146 -0.344691
vt 0.184289 -0.219691
vt -0.166935 0.199003
vt 0.301030 0.412370
vt 0.298790 0.356189
vt -0.068123 -0.014773
vt 0.025858 0.131482
vt -0.217815 0.128271
vt -0.385859 0.138430
vt -0.235788 -0.050525
vt -0.420352 -0.090075
vt -0.131114 0.483488
vt -0.147333 0.294000
vt 0.078588 0.393166
vt -0.059334 0.196413
vt -0.251233 0.053834
vt -0.216524 0.271462
vt 0.118875 0.294000
vt 0.025580 0.454771
vt -0.124099 0.294000
vt -0.216524 0.458747
vt -0.314426 0.294000
vt 0.025580 0.349894
vt 0.271462 0.458747
vt 0.263758 0.294000
vt 0.053834 0.581766
vt 0.090075 0.180339
vt -0.138430 0.093939
vt 0.273082 0.128271
vt -0.217815 -0.273082
vt -0.068123 -0.225507
vt 0.298790 0.411489
vt 0.185957 0.603752
vt -0.365467 -0.131114
vt -0.358858 0.412370
vt -0.315045 0.190082
vt 0.184289 -0.012973
vt 0.289146 0.180303
vt -0.301030 -0.358858
vt 0.030211 0.483876
vt -0.264276 0.315045
vt -0.030191 0.412968
vt -0.356189 0.411489
vt -0.139683 0.495872
vt 0.049558 0.558906
vt 0.248124 -0.311081
vt 0.223749 0.280520
vt 0.412892 0.088477
s 1
f 1/1/1 14/2/14 13/3/13
f 2/4/2 14/2/14 16/5/16
f 1/6/1 13/7/13 18/8/18
f 1/6/1 18/8/18 20/9/20
f 1/1/1 20/10/20 17/11/17
f 2/4/2 16/5/16 23/12/23
f 3/13/3 15/14/15 25/15/25
f 4/16/4 19/17/19 27/18/27
f 5/19/5 21/20/21 29/21/29
f 6/22/6 22/23/22 31/24/31
f 2/25/2 23/26/23 26/27/26
f 3/13/3 25/15/25 28/28/28
f 4/16/4 27/18/27 30/29/30
f 5/19/5 29/21/29 32/15/32
f 6/22/6 31/24/31 24/30/24
f 7/31/7 33/32/33 38/33/38
f 8/34/8 34/35/34 40/36/40
f 9/37/9 35/38/35 41/39/41
f 10/40/10 36/41/36 42/42/42
f 11/43/11 37/44/37 39/45/39
f 39/45/39 42/46/42 12/47/12
f 39/45/39 37/44/37 42/46/42
f 37/48/37 10/40/10 42/42/42
f 42/49/42 41/39/41 12/50/12
f 42/49/42 36/51/36 41/39/41
f 36/51/36 9/37/9 41/39/41
f 41/39/41 40/52/40 12/50/12
f 41/39/41 35/38/35 40/52/40
f 35/38/35 8/53/8 40/52/40
f 40/52/40 38/54/38 12/50/12
f 40/36/40 34/35/34 38/55/38
f 34/35/34 7/56/7 38/55/38
f 38/33/38 39/45/39 12/47/12
f 38/33/38 33/32/33 39/45/39
f 33/32/33 11/43/11 39/45/39
f 24/57/24 37/44/37 11/43/11
f 24/57/24 31/58/31 37/44/37
f 31/24/31 10/40/10 37/48/37
f 32/15/32 36/41/36 10/40/10
f 32/15/32 29/21/29 36/41/36
f 29/21/29 9/59/9 36/41/36
f 30/60/30 35/38/35 9/37/9
f 30/60/30 27/61/27 35/38/35
f 27/61/27 8/53/8 35/38/35
f 28/28/28 34/35/34 8/34/8
f 28/28/28 25/15/25 34/35/34
f 25/15/25 7/56/7 34/35/34
f 26/62/26 33/32/33 7/31/7
f 26/62/26 23/63/23 33/32/33
f 23/63/23 11/43/11 33/32/33
f 31/24/31 32/15/32 10/40/10
f 31/24/31 22/23/22 32/15/32
f 22/23/22 5/19/5 32/15/32
f 29/21/29 30/64/30 9/59/9
f 29/21/29 21/20/21 30/64/30
f 21/65/21 4/16/4 30/29/30
f 27/66/27 28/28/28 8/34/8
f 27/66/27 19/67/19 28/28/28
f 19/67/19 3/13/3 28/28/28
f 25/15/25 26/27/26 7/56/7
f 25/15/25 15/14/15 26/27/26
f 15/14/15 2/25/2 26/27/26
f 23/63/23 24/57/24 11/43/11
f 23/12/23 16/5/16 24/68/24
f 16/5/16 6/69/6 24/68/24
f 17/11/17 22/70/22 6/69/6
f 17/11/17 20/10/20 22/70/22
f 20/71/20 5/19/5 22/23/22
f 20/71/20 21/20/21 5/19/5
f 20/9/20 18/8/18 21/65/21
f 18/8/18 4/16/4 21/65/21
f 18/8/18 19/17/19 4/16/4
f 18/8/18 13/7/13 19/17/19
f 13/72/13 3/13/3 19/67/19
f 16/5/16 17/11/17 6/69/6
f 16/5/16 14/2/14 17/11/17
f 14/2/14 1/1/1 17/11/17
f 13/72/13 15/14/15 3/13/3
f 13/72/13 14/73/14 15/14/15
f 14/73/14 2/25/2 15/14/15
