# Blender 5.0.1
# www.blender.org
mtllib searock_b.mtl
o searock_b_rock
usemtl searock_b_rock
v 0.049452 0.550732 0.630235
v -0.472250 0.286382 0.324139
v 0.240271 0.064401 0.307562
v 0.734115 0.550732 0.274919
v 0.240496 1.037518 0.307850
v -0.532044 0.848552 0.365180
v -0.225233 0.094841 -0.288312
v 0.475752 0.284422 -0.326542
v 0.496348 0.828570 -0.340680
v -0.252129 1.061062 -0.322740
v -0.690684 0.550732 -0.258654
v -0.049535 0.550732 -0.631297
v 0.176543 0.261834 0.613626
v -0.252186 0.392828 0.574721
v -0.173038 0.091774 0.394341
v -0.555218 0.550732 0.381086
v -0.269761 0.719640 0.614774
v 0.402308 0.550732 0.514964
v 0.491196 0.302129 0.295172
v 0.151957 0.799396 0.528170
v 0.561314 0.834822 0.337308
v -0.154479 0.960464 0.352046
v -0.655058 0.394171 0.051400
v -0.693156 0.716398 0.054389
v 0.000000 0.000000 0.000000
v -0.449060 0.096082 0.035236
v 0.720920 0.378429 -0.056568
v 0.476970 0.067824 -0.037426
v 0.476162 1.032821 -0.037363
v 0.773800 0.735672 -0.060717
v -0.418708 0.974652 0.032854
v 0.000000 1.054984 0.000000
v -0.577154 0.258624 -0.346826
v 0.161214 0.123136 -0.367394
v 0.600204 0.550732 -0.411963
v 0.178610 1.024469 -0.407040
v -0.569926 0.839181 -0.342483
v -0.178137 0.259225 -0.619169
v -0.431464 0.550732 -0.552285
v 0.286364 0.371427 -0.652611
v 0.272770 0.721524 -0.621631
v -0.155321 0.804901 -0.539863
vn 0.0980 0.0955 0.9906
vn -0.6824 -0.5151 0.5187
vn 0.3114 -0.8669 0.3892
vn 0.8567 -0.1278 0.4997
vn 0.1470 0.8829 0.4460
vn -0.6482 0.5795 0.4940
vn -0.1923 -0.9229 -0.3335
vn 0.6081 -0.6152 -0.5017
vn 0.6145 0.5661 -0.5495
vn -0.2583 0.8937 -0.3668
vn -0.9465 -0.0166 -0.3222
vn -0.1230 0.1369 -0.9829
vn 0.2486 -0.4439 0.8609
vn -0.3830 -0.3203 0.8664
vn -0.2633 -0.8170 0.5129
vn -0.7923 -0.1279 0.5965
vn -0.2838 0.3202 0.9038
vn 0.5091 0.0041 0.8607
vn 0.6558 -0.5510 0.5160
vn 0.1788 0.5036 0.8452
vn 0.6026 0.5392 0.5884
vn -0.1467 0.8769 0.4577
vn -0.9182 -0.3505 0.1844
vn -0.9423 0.3097 0.1270
vn -0.0279 -0.9984 -0.0483
vn -0.5441 -0.8343 0.0886
vn 0.8873 -0.4495 -0.1031
vn 0.5455 -0.8359 -0.0612
vn 0.4629 0.8841 -0.0642
vn 0.9294 0.3411 -0.1412
vn -0.4469 0.8888 0.1019
vn -0.0583 0.9955 0.0749
vn -0.7127 -0.5536 -0.4307
vn 0.1925 -0.8690 -0.4558
vn 0.7779 -0.0383 -0.6272
vn 0.1799 0.8384 -0.5144
vn -0.6927 0.5478 -0.4692
vn -0.1932 -0.5146 -0.8354
vn -0.4997 0.0791 -0.8626
vn 0.3482 -0.3570 -0.8668
vn 0.2836 0.3631 -0.8875
vn -0.1924 0.4572 -0.8683
vt 0.049452 0.462000
vt -0.252186 0.304096
vt 0.176543 0.173103
vt -0.472250 0.197650
vt -0.555218 0.462000
vt 0.402308 0.462000
vt 0.151957 0.710665
vt -0.269761 0.630909
vt 0.324139 0.197650
vt 0.381086 0.462000
vt 0.051400 0.305439
vt 0.240271 -0.307562
vt -0.173038 -0.394341
vt 0.000000 -0.000000
vt -0.274919 0.462000
vt -0.295172 0.213397
vt 0.056568 0.289698
vt 0.240496 0.307850
vt 0.561314 0.337308
vt 0.476162 -0.037363
vt -0.532044 0.365180
vt -0.154479 0.352046
vt -0.418708 0.032854
vt 0.035236 0.007350
vt 0.476970 0.037426
vt 0.060717 0.646941
vt -0.693156 0.054389
vt -0.225233 0.288312
vt -0.577154 0.346826
vt -0.178137 0.619169
vt 0.475752 0.326542
vt 0.161214 0.367394
vt 0.286364 0.652611
vt -0.496348 0.739839
vt -0.600204 0.462000
vt -0.272770 0.632793
vt 0.252129 0.972331
vt -0.178610 0.935737
vt 0.155321 0.716169
vt -0.258654 0.462000
vt -0.342483 0.750450
vt -0.552285 0.462000
vt 0.431464 0.462000
vt 0.049535 0.462000
vt 0.569926 0.750450
vt -0.286364 0.282696
vt 0.411963 0.462000
vt 0.326542 0.195691
vt 0.652611 0.282696
vt 0.178137 0.170493
vt 0.577154 0.169892
vt -0.346826 0.169892
vt 0.054389 0.627666
vt -0.569926 -0.342483
vt -0.252129 -0.322740
vt 0.178610 -0.407040
vt 0.496348 -0.340680
vt 0.340680 0.739839
vt -0.449060 -0.035236
vt 0.773800 -0.060717
vt 0.037363 0.944089
vt -0.337308 0.746091
vt 0.037426 -0.020908
vt 0.491196 -0.295172
vt -0.472250 -0.324139
vt 0.365180 0.759820
vt -0.269761 0.614774
vt 0.151957 0.528170
vt 0.240496 0.948786
vt -0.154479 0.871732
vt 0.561314 0.746091
vt 0.734115 0.462000
vt 0.491196 0.213397
vt -0.514964 0.462000
vt -0.613626 0.173103
vt 0.176543 -0.613626
vt -0.532044 0.759820
vt -0.173038 0.003042
s 1
f 1/1/1 14/2/14 13/3/13
f 2/4/2 14/2/14 16/5/16
f 1/1/1 13/3/13 18/6/18
f 1/1/1 18/6/18 20/7/20
f 1/1/1 20/7/20 17/8/17
f 2/9/2 16/10/16 23/11/23
f 3/12/3 15/13/15 25/14/25
f 4/15/4 19/16/19 27/17/27
f 5/18/5 21/19/21 29/20/29
f 6/21/6 22/22/22 31/23/31
f 2/9/2 23/11/23 26/24/26
f 3/12/3 25/14/25 28/25/28
f 4/15/4 27/17/27 30/26/30
f 5/18/5 29/20/29 32/14/32
f 6/21/6 31/23/31 24/27/24
f 7/28/7 33/29/33 38/30/38
f 8/31/8 34/32/34 40/33/40
f 9/34/9 35/35/35 41/36/41
f 10/37/10 36/38/36 42/39/42
f 11/40/11 37/41/37 39/42/39
f 39/43/39 42/39/42 12/44/12
f 39/43/39 37/45/37 42/39/42
f 37/45/37 10/37/10 42/39/42
f 42/39/42 41/36/41 12/44/12
f 42/39/42 36/38/36 41/36/41
f 36/38/36 9/34/9 41/36/41
f 41/36/41 40/46/40 12/44/12
f 41/36/41 35/35/35 40/46/40
f 35/47/35 8/48/8 40/49/40
f 40/46/40 38/50/38 12/44/12
f 40/33/40 34/32/34 38/30/38
f 34/32/34 7/28/7 38/30/38
f 38/50/38 39/43/39 12/44/12
f 38/50/38 33/51/33 39/43/39
f 33/52/33 11/40/11 39/42/39
f 24/53/24 37/41/37 11/40/11
f 24/27/24 31/23/31 37/54/37
f 31/23/31 10/55/10 37/54/37
f 32/14/32 36/56/36 10/55/10
f 32/14/32 29/20/29 36/56/36
f 29/20/29 9/57/9 36/56/36
f 30/26/30 35/47/35 9/58/9
f 30/26/30 27/17/27 35/47/35
f 27/17/27 8/48/8 35/47/35
f 28/25/28 34/32/34 8/31/8
f 28/25/28 25/14/25 34/32/34
f 25/14/25 7/28/7 34/32/34
f 26/59/26 33/29/33 7/28/7
f 26/24/26 23/11/23 33/52/33
f 23/11/23 11/40/11 33/52/33
f 31/23/31 32/14/32 10/55/10
f 31/23/31 22/22/22 32/14/32
f 22/22/22 5/18/5 32/14/32
f 29/20/29 30/60/30 9/57/9
f 29/61/29 21/62/21 30/26/30
f 21/62/21 4/15/4 30/26/30
f 27/17/27 28/63/28 8/48/8
f 27/17/27 19/16/19 28/63/28
f 19/64/19 3/12/3 28/25/28
f 25/14/25 26/59/26 7/28/7
f 25/14/25 15/13/15 26/59/26
f 15/13/15 2/65/2 26/59/26
f 23/11/23 24/53/24 11/40/11
f 23/11/23 16/10/16 24/53/24
f 16/10/16 6/66/6 24/53/24
f 17/67/17 22/22/22 6/21/6
f 17/67/17 20/68/20 22/22/22
f 20/7/20 5/69/5 22/70/22
f 20/7/20 21/71/21 5/69/5
f 20/7/20 18/6/18 21/71/21
f 18/6/18 4/72/4 21/71/21
f 18/6/18 19/73/19 4/72/4
f 18/74/18 13/75/13 19/16/19
f 13/76/13 3/12/3 19/64/19
f 16/5/16 17/8/17 6/77/6
f 16/5/16 14/2/14 17/8/17
f 14/2/14 1/1/1 17/8/17
f 13/76/13 15/13/15 3/12/3
f 13/3/13 14/2/14 15/78/15
f 14/2/14 2/4/2 15/78/15
