# Blender 5.0.1
# www.blender.org
mtllib searock_q.mtl
o searock_q_rock
usemtl searock_q_rock
v 0.124139 0.234440 -0.208802
v 0.337297 0.098911 0.095743
v -0.045102 0.021662 -0.007837
v -0.253692 0.234440 -0.051614
v -0.039072 0.420264 0.020290
v 0.325855 0.365338 0.099791
v 0.054958 0.000000 0.458841
v -0.294002 0.114409 0.319111
v -0.285675 0.351100 0.316164
v 0.050874 0.450627 0.439794
v 0.246734 0.234440 0.467597
v -0.117417 0.234440 0.631245
v 0.072229 0.161922 0.326180
v -0.133557 0.083387 0.016079
v 0.259220 0.034002 0.173371
v 0.486746 0.161922 0.249174
v 0.256172 0.276238 0.147155
v -0.156966 0.245507 0.021815
v 0.200558 0.028027 -0.331154
v 0.606322 0.080874 -0.165203
v 0.581307 0.237575 -0.159074
v 0.200573 0.295750 -0.331024
v -0.043955 0.161922 -0.418498
v 0.397349 0.161922 -0.493791
v -0.789050 0.188058 -0.296711
v -0.553355 0.105163 -0.211928
v -0.751038 0.051602 -0.101803
v -0.918480 0.188058 -0.032017
v -0.757655 0.332481 -0.105960
v -0.530420 0.293494 -0.261233
v -0.495373 0.016705 0.058778
v -0.729518 0.097814 0.166772
v -0.735765 0.284441 0.180200
v -0.511791 0.339643 0.048466
v -0.341643 0.188058 -0.029137
v -0.505288 0.188058 0.202178
v 0.119757 0.173897 0.195505
v 0.028081 0.087576 -0.041425
v 0.267299 0.042318 0.121589
v 0.414039 0.173897 0.236038
v 0.266089 0.324442 0.142168
v 0.053001 0.251530 -0.039386
v 0.284959 0.028766 -0.178629
v 0.528028 0.085932 -0.000525
v 0.509537 0.255415 -0.002037
v 0.284855 0.317407 -0.176869
v 0.129512 0.173897 -0.292954
v 0.435849 0.173897 -0.243693
vn 0.3069 -0.7711 -0.5579
vn 0.8276 0.0440 -0.5596
vn -0.3342 -0.4929 -0.8033
vn -0.2998 0.6251 -0.7206
vn 0.2351 0.8300 -0.5058
vn 0.9740 0.0384 0.2232
vn 0.2212 -0.9708 -0.0925
vn -0.6506 -0.6989 -0.2970
vn -0.5677 0.7692 -0.2934
vn 0.1708 0.9794 -0.1075
vn 0.7063 -0.5922 0.3879
vn -0.3204 -0.9470 0.0247
vn -0.9947 0.0338 -0.0972
vn -0.2804 0.9598 -0.0093
vn 0.6630 0.6487 0.3735
vn 0.3845 -0.3465 0.8556
vn -0.4483 -0.7196 0.5303
vn -0.8758 0.0368 0.4813
vn -0.4095 0.7624 0.5010
vn 0.3683 0.4391 0.8195
vn -0.2707 -0.8750 0.4013
vn -0.8090 -0.1370 0.5716
vn 0.1353 -0.6720 0.7281
vn 0.1143 0.7798 0.6154
vn -0.1846 0.9034 0.3871
vn -0.9659 -0.1316 -0.2229
vn -0.1355 -0.9904 0.0275
vn 0.3959 -0.8730 0.2850
vn 0.3405 0.9072 0.2470
vn -0.0895 0.9947 0.0510
vn -0.3981 -0.8848 -0.2420
vn 0.1305 -0.9914 -0.0034
vn 0.9580 0.1432 0.2484
vn 0.1404 0.9898 0.0241
vn -0.3874 0.8824 -0.2669
vn -0.1219 -0.6888 -0.7146
vn 0.2744 -0.8785 -0.3912
vn 0.8505 0.1554 -0.5025
vn 0.2991 0.8822 -0.3638
vn -0.1218 0.6894 -0.7141
vn -0.0885 -0.8240 -0.5596
vn 0.2391 -0.2731 -0.9318
vn -0.6752 -0.6596 -0.3301
vn -0.7099 0.6128 -0.3471
vn -0.2461 0.7918 -0.5590
vn 0.6874 -0.2611 -0.6777
vn 0.0749 -0.9430 -0.3242
vn -0.5740 -0.7981 0.1833
vn -0.6116 0.7713 0.1763
vn 0.0661 0.9863 -0.1509
vn 0.5939 -0.7185 -0.3620
vn -0.2452 -0.9520 0.1834
vn -0.7392 -0.0729 0.6695
vn -0.1378 0.9750 0.1742
vn 0.6179 0.7714 -0.1521
vn 0.7483 -0.3997 0.5294
vn 0.1335 -0.6315 0.7638
vn -0.1259 -0.0754 0.9892
vn 0.2272 0.6982 0.6789
vn 0.6936 0.5273 0.4907
vn 0.4549 0.7656 -0.4549
vn 0.9396 -0.1389 -0.3129
vn 0.1113 0.5787 -0.8079
vn 0.1228 -0.4354 -0.8918
vn 0.5826 -0.7078 -0.3995
vn 0.9339 -0.1460 0.3265
vn 0.2068 0.9779 -0.0320
vn -0.3558 0.8069 -0.4715
vn -0.4802 -0.7527 -0.4504
vn 0.2941 -0.9550 0.0384
vn 0.4174 0.7945 0.4410
vn -0.1899 0.9802 -0.0554
vn -0.9105 -0.1029 -0.4005
vn -0.2698 -0.9629 0.0054
vn 0.4556 -0.8034 0.3834
vn -0.1357 0.5193 0.8437
vn -0.5066 0.7314 0.4566
vn -0.9418 -0.0999 0.3209
vn -0.5256 -0.7446 0.4115
vn -0.1345 -0.5311 0.8366
vt 0.236691 0.242618
vt 0.449849 -0.061927
vt 0.067450 0.041653
vt -0.061927 0.037380
vt 0.242618 0.172910
vt -0.065976 0.303807
vt -0.236691 0.172910
vt -0.067450 -0.039868
vt 0.141139 0.172910
vt -0.073481 0.358734
vt 0.236691 -0.242618
vt 0.073481 -0.013526
vt 0.438407 0.065976
vt -0.433782 0.172910
vt 0.167511 -0.425026
vt -0.141139 0.085429
vt -0.181449 -0.285295
vt -0.141139 -0.085429
vt -0.173123 0.282349
vt 0.163427 0.405978
vt -0.425026 -0.061530
vt -0.085429 0.172910
vt 0.285295 0.052879
vt 0.282349 0.289570
vt -0.405978 0.389097
vt 0.167511 -0.061530
vt 0.359286 0.172910
vt -0.004864 0.172910
vt -0.004864 -0.597430
vt 0.597430 0.172910
vt -0.004864 0.597430
vt 0.163427 0.389097
vt 0.184782 -0.292364
vt -0.021004 0.017736
vt 0.371772 -0.139556
vt -0.017736 0.021856
vt 0.292364 0.100392
vt -0.012001 0.183977
vt 0.184782 0.100392
vt 0.371772 -0.027529
vt 0.599299 0.100392
vt 0.184782 0.292364
vt 0.599299 0.215359
vt 0.368724 0.113339
vt -0.044413 -0.012001
vt -0.452314 0.100392
vt 0.313110 0.364969
vt 0.599299 -0.215359
vt 0.718874 0.199018
vt 0.693859 -0.192889
vt 0.313125 -0.364839
vt 0.068597 0.452314
vt -0.215359 0.100392
vt 0.199018 0.019344
vt 0.192889 0.176044
vt 0.068597 -0.452314
vt -0.313110 -0.033503
vt -0.068597 0.100392
vt -0.509901 0.100392
vt 0.509901 0.527606
vt 0.527606 0.100392
vt 0.509901 -0.527606
vt -0.313125 0.234220
vt -0.676498 0.330527
vt -0.440803 0.245744
vt -0.638486 0.135619
vt 0.440803 0.043633
vt 0.676498 0.126527
vt 0.417867 0.231964
vt -0.330527 0.126527
vt -0.135619 -0.009928
vt -0.065832 0.126527
vt -0.139775 0.270950
vt -0.676498 -0.330527
vt -0.645103 -0.139775
vt -0.417867 -0.295049
vt 0.245744 0.043633
vt 0.295049 0.231964
vt 0.062953 0.126527
vt -0.382821 -0.024963
vt -0.805927 0.065832
vt -0.616966 -0.132957
vt -0.805927 -0.065832
vt -0.623213 0.146385
vt -0.399239 0.014650
vt -0.229091 0.062953
vt 0.132957 0.036284
vt 0.146385 0.222911
vt -0.229091 -0.062953
vt -0.024963 -0.044825
vt -0.168362 0.126527
vt -0.616966 0.036284
vt -0.382821 -0.044825
vt -0.392736 0.126527
vt -0.623213 0.222911
vt -0.392736 0.168362
vt -0.014650 0.278113
vt 0.232310 0.161689
vt 0.379851 0.087774
vt 0.140634 -0.075240
vt 0.075240 0.026046
vt 0.073202 0.190000
vt -0.161689 0.112367
vt -0.232310 0.112367
vt -0.526591 0.112367
vt -0.379851 -0.019212
vt -0.378641 0.262912
vt 0.232310 -0.161689
vt 0.165554 0.073202
vt 0.378641 -0.108352
vt 0.326769 0.112367
vt 0.397511 -0.212444
vt 0.526591 0.202223
vt 0.640580 -0.034340
vt 0.622089 0.035853
vt 0.526591 -0.202223
vt 0.397408 0.210685
vt 0.242064 -0.326769
vt 0.202223 0.112367
vt -0.035853 0.193885
vt -0.034340 0.024402
vt 0.242064 0.326769
vt 0.397511 -0.032765
vt 0.548401 0.112367
vt 0.242064 0.112367
vt 0.548401 -0.277509
vt -0.277509 0.112367
vt 0.548401 0.277509
vt 0.397408 0.255876
s 0
f 1/1/1 2/2/1 3/3/1
f 2/4/2 1/5/2 6/6/2
f 1/7/3 3/8/3 4/9/3
f 1/7/4 4/9/4 5/10/4
f 1/11/5 5/12/5 6/13/5
f 2/4/6 6/6/6 11/14/6
f 3/3/7 2/2/7 7/15/7
f 4/16/8 3/3/8 8/17/8
f 5/12/9 4/18/9 9/19/9
f 6/13/10 5/12/10 10/20/10
f 2/4/11 11/14/11 7/21/11
f 3/3/12 7/15/12 8/17/12
f 4/22/13 8/23/13 9/24/13
f 5/12/14 9/19/14 10/20/14
f 6/6/15 10/25/15 11/14/15
f 7/26/16 11/27/16 12/28/16
f 8/17/17 7/15/17 12/29/17
f 9/24/18 8/23/18 12/30/18
f 10/20/19 9/19/19 12/31/19
f 11/27/20 10/32/20 12/28/20
f 13/33/21 14/34/21 15/35/21
f 14/36/22 13/37/22 18/38/22
f 13/39/23 15/40/23 16/41/23
f 13/42/24 16/43/24 17/44/24
f 13/42/25 17/44/25 18/45/25
f 14/36/26 18/38/26 23/46/26
f 15/35/27 14/34/27 19/47/27
f 16/48/28 15/35/28 20/49/28
f 17/44/29 16/43/29 21/50/29
f 18/45/30 17/44/30 22/51/30
f 14/34/31 23/52/31 19/47/31
f 15/35/32 19/47/32 20/49/32
f 16/53/33 20/54/33 21/55/33
f 17/44/34 21/50/34 22/51/34
f 18/45/35 22/51/35 23/56/35
f 19/57/36 23/58/36 24/59/36
f 20/49/37 19/47/37 24/60/37
f 21/55/38 20/54/38 24/61/38
f 22/51/39 21/50/39 24/62/39
f 23/58/40 22/63/40 24/59/40
f 25/64/41 26/65/41 27/66/41
f 26/67/42 25/68/42 30/69/42
f 25/70/43 27/71/43 28/72/43
f 25/70/44 28/72/44 29/73/44
f 25/74/45 29/75/45 30/76/45
f 26/77/46 30/78/46 35/79/46
f 27/66/47 26/65/47 31/80/47
f 28/81/48 27/66/48 32/82/48
f 29/75/49 28/83/49 33/84/49
f 30/76/50 29/75/50 34/85/50
f 26/65/51 35/86/51 31/80/51
f 27/66/52 31/80/52 32/82/52
f 28/72/53 32/87/53 33/88/53
f 29/75/54 33/84/54 34/85/54
f 30/76/55 34/85/55 35/89/55
f 31/90/56 35/79/56 36/91/56
f 32/92/57 31/93/57 36/94/57
f 33/95/58 32/92/58 36/94/58
f 34/85/59 33/84/59 36/96/59
f 35/79/60 34/97/60 36/91/60
f 37/98/61 39/99/61 38/100/61
f 38/101/62 42/102/62 37/103/62
f 37/104/63 40/105/63 39/106/63
f 37/104/64 41/107/64 40/105/64
f 37/108/65 42/109/65 41/110/65
f 38/101/66 47/111/66 42/102/66
f 39/99/67 43/112/67 38/100/67
f 40/113/68 44/114/68 39/99/68
f 41/110/69 45/115/69 40/116/69
f 42/109/70 46/117/70 41/110/70
f 38/100/71 43/112/71 47/118/71
f 39/99/72 44/114/72 43/112/72
f 40/119/73 45/120/73 44/121/73
f 41/110/74 46/117/74 45/115/74
f 42/109/75 47/122/75 46/117/75
f 43/123/76 48/124/76 47/125/76
f 44/114/77 48/126/77 43/112/77
f 45/120/78 48/127/78 44/121/78
f 46/117/79 48/128/79 45/115/79
f 47/125/80 48/124/80 46/129/80
