# Blender 5.0.1
# www.blender.org
mtllib searock_t.mtl
o searock_t_rock
usemtl searock_t_rock
v 0.119444 0.136830 -0.720892
v 0.410621 0.070199 -0.646635
v 0.168390 0.032383 -0.492592
v 0.040493 0.136830 -0.402276
v 0.158674 0.248313 -0.498454
v 0.412397 0.204667 -0.651002
v 0.448794 0.038210 -0.323401
v 0.215968 0.071124 -0.167848
v 0.219111 0.200398 -0.175580
v 0.466223 0.248072 -0.312884
v 0.651470 0.136830 -0.409669
v 0.469962 0.136830 -0.148723
v -0.005371 0.184855 -0.058398
v 0.152254 0.069625 -0.177775
v 0.054412 0.009558 0.040027
v -0.005072 0.184855 0.166188
v 0.054513 0.359985 0.040008
v 0.152514 0.296188 -0.171068
v 0.257148 0.023382 0.002531
v 0.167176 0.076403 0.207130
v 0.167477 0.297817 0.214891
v 0.267954 0.364277 0.000532
v 0.317309 0.184855 -0.118420
v 0.327260 0.184855 0.100374
v -0.511889 0.205207 0.084908
v -0.450117 0.075944 -0.213535
v -0.336932 0.005715 0.133014
v -0.268046 0.205207 0.293414
v -0.334580 0.399992 0.129890
v -0.420938 0.316749 -0.184177
v -0.144288 0.019040 -0.122961
v -0.056704 0.095535 0.182289
v -0.034255 0.328515 0.204876
v -0.131416 0.417145 -0.140066
v -0.202011 0.205207 -0.335097
v 0.061931 0.205207 -0.091253
v 0.067377 0.220244 -0.304240
v 0.353011 0.091978 -0.158572
v 0.036514 0.000000 -0.075099
v -0.188489 0.220244 -0.020105
v 0.026795 0.456170 -0.084314
v 0.335112 0.335755 -0.137400
v 0.287883 0.034950 0.163211
v -0.002833 0.094913 0.262351
v -0.002520 0.345354 0.261981
v 0.294529 0.416262 0.169512
v 0.466838 0.220244 0.114815
v 0.260551 0.220244 0.351354
v -0.176424 0.135208 0.463613
v -0.250010 0.061929 0.125867
v 0.040330 0.033965 0.386661
v 0.180733 0.135208 0.512480
v 0.039485 0.238346 0.389979
v -0.210823 0.199929 0.135616
v 0.133145 0.028520 0.022488
v 0.421564 0.061818 0.292947
v 0.348947 0.192739 0.274880
v 0.137943 0.252645 0.003664
v -0.010756 0.135208 -0.097194
v 0.365549 0.135208 -0.062476
vn -0.1083 -0.9126 -0.3943
vn 0.2395 -0.0347 -0.9703
vn -0.6930 -0.7001 -0.1717
vn -0.7500 0.6348 -0.1859
vn -0.1048 0.8964 -0.4308
vn 0.7055 -0.0323 -0.7080
vn 0.0858 -0.9904 -0.1082
vn -0.5442 -0.8199 0.1775
vn -0.5663 0.7933 0.2237
vn 0.0854 0.9864 -0.1402
vn 0.3861 -0.9124 -0.1359
vn -0.0556 -0.9904 0.1263
vn -0.7918 0.0556 0.6083
vn -0.0982 0.9816 0.1640
vn 0.4344 0.8821 -0.1824
vn 0.5288 -0.7649 0.3678
vn 0.1887 -0.8648 0.4654
vn -0.0908 0.0617 0.9940
vn 0.1487 0.8202 0.5524
vn 0.6193 0.6565 0.4308
vn -0.7243 -0.5085 -0.4656
vn -0.5921 0.0245 -0.8055
vn -0.9467 -0.3221 0.0013
vn -0.9464 0.3229 0.0013
vn -0.7080 0.5141 -0.4841
vn 0.3211 0.0277 -0.9466
vn 0.0181 -0.9659 -0.2583
vn -0.5243 -0.6074 0.5968
vn -0.5559 0.6021 0.5731
vn -0.0785 0.9436 -0.3216
vn 0.6081 -0.6085 -0.5098
vn 0.1197 -0.9470 0.2981
vn -0.2511 -0.0336 0.9674
vn 0.0387 0.9492 0.3124
vn 0.5695 0.5573 -0.6042
vn 0.9255 -0.3764 -0.0421
vn 0.6868 -0.5708 0.4499
vn 0.5684 -0.0296 0.8222
vn 0.7094 0.5070 0.4897
vn 0.9555 0.2917 -0.0435
vn -0.7605 -0.6383 0.1190
vn -0.9539 0.1474 -0.2613
vn -0.6062 -0.3607 0.7089
vn -0.6000 0.3841 0.7017
vn -0.7423 0.6695 0.0266
vn -0.5017 0.1643 -0.8493
vn -0.1366 -0.9786 -0.1537
vn 0.0705 -0.6397 0.7654
vn -0.0419 0.6340 0.7722
vn -0.3003 0.9392 -0.1664
vn 0.0596 -0.7422 -0.6675
vn 0.2760 -0.9480 0.1584
vn 0.4092 -0.1270 0.9036
vn 0.1802 0.9637 0.1969
vn -0.1332 0.6948 -0.7068
vn 0.5750 -0.5310 -0.6224
vn 0.6706 -0.7418 -0.0065
vn 0.9275 -0.1236 0.3527
vn 0.7425 0.6688 -0.0373
vn 0.6188 0.4103 -0.6699
vn 0.0278 -0.7226 -0.6908
vn 0.4906 0.1111 -0.8643
vn -0.6394 -0.5095 -0.5758
vn -0.6657 0.4443 -0.5995
vn 0.1462 0.6879 -0.7109
vn 0.9002 0.1028 -0.4231
vn 0.2477 -0.9614 -0.1202
vn -0.6783 -0.7241 0.1246
vn -0.7069 0.6888 0.1606
vn 0.3266 0.9240 -0.1992
vn 0.7222 -0.6913 0.0237
vn -0.1103 -0.9600 0.2572
vn -0.8353 0.0019 0.5498
vn -0.1353 0.9469 0.2916
vn 0.7378 0.6704 -0.0783
vn 0.6586 -0.4861 0.5744
vn 0.0957 -0.7022 0.7055
vn -0.3209 0.0018 0.9471
vn 0.0691 0.6720 0.7373
vn 0.6797 0.4321 0.5927
vn 0.3280 0.9059 -0.2680
vn 0.9536 -0.2601 -0.1513
vn 0.0938 0.7219 -0.6856
vn 0.0963 -0.7040 -0.7037
vn 0.3596 -0.9076 -0.2168
vn 0.7002 -0.2462 0.6702
vn 0.0889 0.9960 0.0078
vn -0.1818 0.8552 -0.4853
vn -0.2800 -0.8687 -0.4086
vn 0.1501 -0.9887 0.0016
vn 0.2081 0.8410 0.4995
vn -0.0815 0.9960 -0.0357
vn -0.6719 -0.4535 -0.5855
vn -0.1747 -0.9813 -0.0808
vn 0.3091 -0.8139 0.4919
vn -0.0652 0.7047 0.7065
vn -0.3309 0.9125 0.2406
vn -0.8761 -0.4806 0.0388
vn -0.4240 -0.8960 0.1319
vn -0.0739 -0.5943 0.8009
vt 0.262811 0.684018
vt 0.553988 0.609761
vt 0.311758 0.455718
vt -0.553988 0.022239
vt -0.262811 0.088870
vt -0.555764 0.156707
vt 0.183860 0.365402
vt -0.684018 0.088870
vt -0.365402 0.088870
vt -0.461580 0.200353
vt 0.262811 -0.684018
vt 0.302041 -0.461580
vt 0.555764 -0.614129
vt -0.794837 0.088870
vt 0.592161 0.286527
vt 0.359335 0.130974
vt 0.183860 -0.365402
vt 0.362479 -0.138706
vt 0.609591 -0.276010
vt 0.794837 0.372796
vt -0.130974 0.023164
vt -0.138706 0.152439
vt 0.794837 -0.372796
vt 0.613329 0.111849
vt 0.362479 0.152439
vt 0.359335 0.023164
vt 0.613329 0.088870
vt 0.613329 -0.111849
vt -0.021524 0.136895
vt -0.140901 0.021665
vt 0.076901 -0.038402
vt -0.295621 0.021665
vt -0.137996 0.136895
vt -0.295881 0.248228
vt 0.203062 0.136895
vt 0.076882 0.312025
vt -0.134194 0.248228
vt -0.460676 0.136895
vt 0.197780 -0.076901
vt 0.295621 0.140901
vt 0.400516 -0.039405
vt 0.138296 -0.203062
vt 0.310544 -0.244004
vt 0.197880 0.076882
vt 0.138296 0.203062
vt 0.310845 0.251765
vt 0.295881 -0.134194
vt 0.411321 0.037406
vt 0.460676 0.081546
vt 0.138296 0.136895
vt 0.310544 0.028443
vt 0.310845 0.249857
vt -0.411321 0.316317
vt -0.039405 -0.024578
vt 0.081546 0.136895
vt -0.137248 0.136895
vt -0.244004 0.028443
vt 0.470627 0.136895
vt -0.037406 0.316317
vt -0.251765 0.249857
vt 0.121782 0.157247
vt -0.176661 0.027984
vt 0.169888 -0.042245
vt -0.147303 0.268789
vt -0.368521 0.157247
vt -0.193565 -0.042245
vt -0.124679 0.157247
vt -0.191213 0.352032
vt 0.166764 0.352032
vt 0.306750 0.027984
vt 0.277570 0.268789
vt 0.058644 0.157247
vt -0.193565 -0.169888
vt -0.306750 0.176661
vt -0.000921 0.086087
vt 0.086663 0.047575
vt 0.109112 0.280555
vt -0.277570 -0.147303
vt -0.191213 0.166764
vt 0.011951 -0.103192
vt -0.058644 0.298223
vt 0.086663 -0.219163
vt 0.109112 0.241750
vt -0.011951 0.369185
vt 0.000921 -0.028920
vt -0.205298 0.157247
vt 0.205298 0.054379
vt -0.241750 0.280555
vt -0.219163 0.047575
vt 0.054379 0.157247
vt 0.103192 0.369185
vt 0.210744 0.267366
vt 0.496378 0.121698
vt 0.179882 0.038225
vt -0.496378 0.044018
vt -0.210744 0.172285
vt -0.478480 0.287795
vt -0.267366 0.172285
vt -0.038225 -0.047960
vt 0.016769 0.172285
vt -0.047440 0.408210
vt -0.170162 0.408210
vt 0.121698 0.044018
vt 0.100526 0.287795
vt -0.151689 0.172285
vt 0.431250 -0.200085
vt -0.045122 -0.016769
vt 0.140535 -0.299225
vt 0.298855 0.297394
vt 0.478480 -0.100526
vt 0.170162 -0.047440
vt 0.437896 0.206386
vt -0.200085 -0.013010
vt 0.299225 0.046953
vt 0.140847 0.298855
vt -0.206386 0.368302
vt -0.388228 0.172285
vt 0.140535 0.046953
vt 0.431250 -0.013010
vt 0.403919 0.172285
vt 0.140847 0.297394
vt 0.437896 0.368302
vt -0.033057 0.500487
vt 0.183698 0.423535
vt -0.106643 0.162741
vt -0.162741 0.013969
vt -0.172490 0.151969
vt -0.500487 0.087248
vt 0.324100 0.549354
vt -0.033057 -0.500487
vt 0.182852 -0.426852
vt 0.324100 -0.549354
vt -0.067456 -0.172490
vt 0.060320 0.087248
vt 0.276512 0.059362
vt 0.564932 0.329820
vt 0.492315 -0.311754
vt 0.281310 -0.040538
vt 0.132611 -0.060320
vt 0.549354 0.087248
vt 0.311754 0.144779
vt 0.329820 0.013858
vt 0.132611 0.060320
vt 0.276512 -0.019440
vt 0.508916 0.087248
vt 0.132611 0.087248
vt 0.508916 -0.025602
vt -0.025602 0.087248
vt 0.508916 0.025602
vt 0.281310 0.204685
s 0
f 1/1/1 2/2/1 3/3/1
f 2/4/2 1/5/2 6/6/2
f 1/1/3 3/3/3 4/7/3
f 1/8/4 4/9/4 5/10/4
f 1/11/5 5/12/5 6/13/5
f 2/4/6 6/6/6 11/14/6
f 3/3/7 2/2/7 7/15/7
f 4/7/8 3/3/8 8/16/8
f 5/12/9 4/17/9 9/18/9
f 6/13/10 5/12/10 10/19/10
f 2/2/11 11/20/11 7/15/11
f 3/3/12 7/15/12 8/16/12
f 4/9/13 8/21/13 9/22/13
f 5/12/14 9/18/14 10/19/14
f 6/13/15 10/19/15 11/23/15
f 7/15/16 11/20/16 12/24/16
f 8/16/17 7/15/17 12/24/17
f 9/25/18 8/26/18 12/27/18
f 10/19/19 9/18/19 12/28/19
f 11/23/20 10/19/20 12/28/20
f 13/29/21 14/30/21 15/31/21
f 14/32/22 13/33/22 18/34/22
f 13/29/23 15/31/23 16/35/23
f 13/29/24 16/35/24 17/36/24
f 13/29/25 17/36/25 18/37/25
f 14/32/26 18/34/26 23/38/26
f 15/39/27 14/40/27 19/41/27
f 16/42/28 15/39/28 20/43/28
f 17/44/29 16/45/29 21/46/29
f 18/47/30 17/44/30 22/48/30
f 14/40/31 23/49/31 19/41/31
f 15/39/32 19/41/32 20/43/32
f 16/50/33 20/51/33 21/52/33
f 17/44/34 21/46/34 22/48/34
f 18/34/35 22/53/35 23/38/35
f 19/54/36 23/55/36 24/56/36
f 20/57/37 19/54/37 24/56/37
f 21/52/38 20/51/38 24/58/38
f 22/59/39 21/60/39 24/56/39
f 23/55/40 22/59/40 24/56/40
f 25/61/41 26/62/41 27/63/41
f 26/62/42 25/61/42 30/64/42
f 25/65/43 27/66/43 28/67/43
f 25/65/44 28/67/44 29/68/44
f 25/61/45 29/69/45 30/64/45
f 26/70/46 30/71/46 35/72/46
f 27/73/47 26/74/47 31/75/47
f 28/67/48 27/66/48 32/76/48
f 29/68/49 28/67/49 33/77/49
f 30/78/50 29/79/50 34/80/50
f 26/74/51 35/81/51 31/75/51
f 27/73/52 31/75/52 32/82/52
f 28/67/53 32/76/53 33/77/53
f 29/79/54 33/83/54 34/80/54
f 30/71/55 34/84/55 35/72/55
f 31/85/56 35/72/56 36/86/56
f 32/82/57 31/75/57 36/87/57
f 33/88/58 32/89/58 36/90/58
f 34/91/59 33/88/59 36/90/59
f 35/72/60 34/84/60 36/86/60
f 37/92/61 38/93/61 39/94/61
f 38/95/62 37/96/62 42/97/62
f 37/98/63 39/99/63 40/100/63
f 37/98/64 40/100/64 41/101/64
f 37/96/65 41/102/65 42/97/65
f 38/103/66 42/104/66 47/105/66
f 39/94/67 38/93/67 43/106/67
f 40/107/68 39/94/68 44/108/68
f 41/101/69 40/100/69 45/109/69
f 42/110/70 41/111/70 46/112/70
f 38/103/71 47/105/71 43/113/71
f 39/94/72 43/106/72 44/108/72
f 40/100/73 44/114/73 45/109/73
f 41/111/74 45/115/74 46/112/74
f 42/104/75 46/116/75 47/105/75
f 43/113/76 47/105/76 48/117/76
f 44/118/77 43/119/77 48/120/77
f 45/121/78 44/118/78 48/120/78
f 46/122/79 45/121/79 48/120/79
f 47/105/80 46/116/80 48/117/80
f 49/123/81 51/124/81 50/125/81
f 50/126/82 54/127/82 49/128/82
f 49/123/83 52/129/83 51/124/83
f 49/130/84 53/131/84 52/132/84
f 49/130/85 54/133/85 53/131/85
f 50/126/86 59/134/86 54/127/86
f 51/124/87 55/135/87 50/125/87
f 52/129/88 56/136/88 51/124/88
f 53/131/89 57/137/89 52/132/89
f 54/133/90 58/138/90 53/131/90
f 50/125/91 55/135/91 59/139/91
f 51/124/92 56/136/92 55/135/92
f 52/140/93 57/141/93 56/142/93
f 53/131/94 58/138/94 57/137/94
f 54/133/95 59/143/95 58/138/95
f 55/144/96 60/145/96 59/146/96
f 56/136/97 60/147/97 55/135/97
f 57/141/98 60/148/98 56/142/98
f 58/138/99 60/149/99 57/137/99
f 59/146/100 60/145/100 58/150/100
