# Blender 5.0.1
# www.blender.org
mtllib searock_f.mtl
o searock_f_rock
usemtl searock_f_rock
v 0.606051 0.202316 0.137875
v 0.177161 0.071426 0.690489
v 0.333513 0.024509 -0.142504
v 0.414348 0.202316 -0.545329
v 0.374122 0.403265 -0.159856
v 0.170275 0.327415 0.659537
v -0.333513 0.000000 0.142504
v -0.116998 0.085852 -0.631752
v -0.120676 0.321873 -0.648286
v -0.274080 0.370762 0.117110
v -0.389377 0.202316 0.551569
v -0.605548 0.202316 -0.166944
v 0.083811 0.143816 -0.601663
v 0.389175 0.089733 -0.386774
v -0.040076 0.063280 -0.399629
v -0.293705 0.143816 -0.416589
v -0.060038 0.240002 -0.429394
v 0.466447 0.210697 -0.419977
v 0.180308 0.051556 -0.071003
v -0.313541 0.081510 -0.084822
v -0.339665 0.210448 -0.073597
v 0.200475 0.251888 -0.040930
v 0.469065 0.143816 -0.052429
v 0.042544 0.143816 0.090673
vn 0.4420 -0.8871 0.1329
vn 0.7751 0.0964 0.6244
vn 0.6641 -0.7241 -0.1863
vn 0.7847 0.5794 -0.2202
vn 0.4831 0.8526 0.1991
vn -0.2123 0.1117 0.9708
vn 0.0658 -0.9955 0.0684
vn 0.2543 -0.9026 -0.3474
vn 0.2743 0.8642 -0.4219
vn -0.0118 0.9959 0.0893
vn -0.2971 -0.8714 0.3904
vn -0.0120 -0.9935 -0.1135
vn 0.1743 -0.0661 -0.9825
vn -0.0841 0.9932 -0.0803
vn -0.2615 0.9213 0.2878
vn -0.7307 -0.6463 0.2198
vn -0.4144 -0.8846 -0.2140
vn -0.6956 -0.0610 -0.7158
vn -0.3578 0.9246 -0.1308
vn -0.5570 0.8134 0.1676
vn 0.0679 -0.9404 -0.3332
vn 0.4424 -0.4890 -0.7518
vn -0.2359 -0.8443 -0.4812
vn -0.3192 0.6887 -0.6510
vn 0.0577 0.8914 -0.4496
vn 0.8243 -0.5559 -0.1070
vn 0.0637 -0.9949 -0.0782
vn -0.2852 -0.9388 -0.1934
vn -0.3814 0.8965 -0.2253
vn 0.0567 0.9960 -0.0685
vn 0.2985 -0.9508 0.0825
vn -0.0607 -0.9981 0.0051
vn -0.9773 -0.1898 -0.0941
vn -0.0778 0.9967 0.0217
vn 0.3743 0.9128 0.1634
vn 0.2050 -0.7646 0.6110
vn -0.0666 -0.8900 0.4511
vn -0.4133 -0.1618 0.8961
vn -0.0970 0.8231 0.5595
vn 0.2619 0.5677 0.7805
vt 0.584548 -0.147063
vt 0.155657 -0.699677
vt 0.312009 0.133316
vt -0.699677 0.026610
vt -0.147063 0.157500
vt -0.668725 0.282599
vt 0.392844 0.536141
vt 0.536141 0.157500
vt 0.150668 0.358449
vt 0.584548 0.147063
vt 0.352619 -0.150668
vt 0.148771 0.668725
vt 0.155657 0.026610
vt 0.148771 0.282599
vt -0.410880 0.157500
vt -0.355016 -0.151692
vt -0.138502 0.622564
vt 0.392844 -0.536141
vt -0.142180 -0.639098
vt -0.295584 0.126298
vt -0.410880 -0.560757
vt -0.392844 0.157500
vt 0.138502 0.041036
vt 0.142180 0.277057
vt -0.410880 0.560757
vt 0.151692 -0.044816
vt 0.560757 0.157500
vt -0.157756 0.157500
vt -0.627052 0.157756
vt 0.627052 0.157500
vt -0.627052 -0.157756
vt 0.062308 0.592475
vt 0.367672 0.377586
vt -0.061580 0.390441
vt -0.367672 0.044917
vt -0.062308 0.099000
vt -0.444943 0.165881
vt -0.315208 0.407401
vt 0.062308 -0.592475
vt -0.315208 -0.407401
vt -0.081541 -0.420206
vt 0.444943 -0.410789
vt 0.377586 0.044917
vt 0.410789 0.165881
vt 0.043241 0.099000
vt 0.158804 0.061815
vt -0.335045 0.075634
vt -0.361169 -0.064409
vt 0.178971 -0.031742
vt 0.447561 0.043241
vt -0.407401 0.099000
vt -0.075634 0.036695
vt -0.064409 0.165632
vt 0.447561 -0.043241
vt 0.021041 -0.099861
vt -0.361169 0.165632
vt -0.335045 0.036695
vt 0.021041 0.099000
vt 0.021041 0.099861
vt 0.447561 0.099000
vt 0.178971 0.207072
s 0
f 1/1/1 2/2/1 3/3/1
f 2/4/2 1/5/2 6/6/2
f 1/1/3 3/3/3 4/7/3
f 1/5/4 4/8/4 5/9/4
f 1/10/5 5/11/5 6/12/5
f 2/13/6 6/14/6 11/15/6
f 3/3/7 2/2/7 7/16/7
f 4/7/8 3/3/8 8/17/8
f 5/11/9 4/18/9 9/19/9
f 6/12/10 5/11/10 10/20/10
f 2/2/11 11/21/11 7/16/11
f 3/3/12 7/16/12 8/17/12
f 4/22/13 8/23/13 9/24/13
f 5/11/14 9/19/14 10/20/14
f 6/12/15 10/20/15 11/25/15
f 7/26/16 11/27/16 12/28/16
f 8/17/17 7/16/17 12/29/17
f 9/24/18 8/23/18 12/30/18
f 10/20/19 9/19/19 12/31/19
f 11/25/20 10/20/20 12/31/20
f 13/32/21 14/33/21 15/34/21
f 14/35/22 13/36/22 18/37/22
f 13/32/23 15/34/23 16/38/23
f 13/39/24 16/40/24 17/41/24
f 13/39/25 17/41/25 18/42/25
f 14/43/26 18/44/26 23/45/26
f 15/34/27 14/33/27 19/46/27
f 16/38/28 15/34/28 20/47/28
f 17/41/29 16/40/29 21/48/29
f 18/42/30 17/41/30 22/49/30
f 14/33/31 23/50/31 19/46/31
f 15/34/32 19/46/32 20/47/32
f 16/51/33 20/52/33 21/53/33
f 17/41/34 21/48/34 22/49/34
f 18/42/35 22/49/35 23/54/35
f 19/46/36 23/50/36 24/55/36
f 20/47/37 19/46/37 24/55/37
f 21/56/38 20/57/38 24/58/38
f 22/49/39 21/48/39 24/59/39
f 23/60/40 22/61/40 24/58/40
