# Blender 5.0.1
# www.blender.org
mtllib searock_r.mtl
o searock_r_rock
usemtl searock_r_rock
v 0.107824 0.150194 -0.139681
v 0.018578 0.055829 -0.067783
v 0.065807 0.003228 -0.195336
v 0.087939 0.150194 -0.264852
v 0.062312 0.289913 -0.194766
v 0.019250 0.247241 -0.064487
v -0.077484 0.000000 -0.171940
v -0.024946 0.070807 -0.281337
v -0.029558 0.247992 -0.303966
v -0.064080 0.272590 -0.174128
v -0.105957 0.150194 -0.095791
v -0.119792 0.150194 -0.228570
v 0.167557 0.128395 0.349759
v 0.018950 0.064213 0.285065
v 0.207680 0.012325 0.257704
v 0.333551 0.128395 0.233535
v 0.202760 0.236614 0.252614
v 0.005434 0.200056 0.297020
v 0.062893 0.013375 0.107883
v 0.269917 0.053727 0.063078
v 0.259566 0.197337 0.072234
v 0.056816 0.253115 0.101595
v -0.058541 0.128395 0.132682
v 0.095325 0.128395 -0.020944
v 0.175743 0.138096 0.174374
v 0.019483 0.070587 0.216841
v 0.077250 0.023637 0.089186
v 0.126682 0.138096 -0.004222
v 0.078839 0.254709 0.089041
v 0.020589 0.208400 0.221805
v -0.104174 0.006761 0.105730
v -0.037082 0.062675 -0.037120
v -0.038358 0.216740 -0.042845
v -0.097365 0.260208 0.105109
v -0.144720 0.138096 0.200697
v -0.158883 0.138096 0.032671
v -0.142036 0.123855 -0.205354
v -0.051581 0.061631 -0.162671
v -0.158513 0.023957 -0.139178
v -0.225900 0.123855 -0.125348
v -0.167036 0.245423 -0.147708
v -0.054893 0.183031 -0.159596
v -0.073458 0.007466 -0.054049
v -0.193869 0.055199 -0.030554
v -0.189589 0.188573 -0.034528
v -0.077348 0.230352 -0.057942
v 0.001878 0.123855 -0.070921
v -0.094410 0.123855 0.014936
vn 0.7931 -0.4005 0.4588
vn 0.6372 -0.0155 0.7706
vn 0.9639 -0.2176 -0.1531
vn 0.9559 0.2515 -0.1519
vn 0.8094 0.4239 0.4064
vn -0.2309 -0.0159 0.9729
vn 0.0870 -0.9092 0.4071
vn 0.4242 -0.4386 -0.7923
vn 0.5937 0.4452 -0.6704
vn -0.0844 0.9548 0.2849
vn -0.5136 -0.4635 0.7221
vn -0.0740 -0.8206 -0.5667
vn 0.2241 -0.1177 -0.9674
vn -0.1685 0.9593 -0.2265
vn -0.5856 0.5695 0.5768
vn -0.9669 -0.2344 0.1007
vn -0.6831 -0.4182 -0.5987
vn -0.5572 -0.1195 -0.8218
vn -0.8058 0.5046 -0.3099
vn -0.9214 0.3767 0.0960
vn -0.0623 -0.6333 0.7714
vn -0.3536 -0.1169 0.9281
vn 0.5228 -0.4114 0.7466
vn 0.5028 0.4811 0.7181
vn 0.0469 0.6588 0.7509
vn -0.9047 -0.1258 0.4071
vn -0.2297 -0.9491 0.2154
vn 0.6831 -0.7275 0.0637
vn 0.6401 0.7675 0.0345
vn -0.1274 0.9652 0.2286
vn -0.6828 -0.7295 0.0400
vn 0.1560 -0.9751 -0.1576
vn 0.9193 0.0907 -0.3829
vn 0.2451 0.9605 -0.1319
vn -0.7353 0.6777 -0.0093
vn -0.6076 -0.5103 -0.6086
vn 0.0013 -0.7461 -0.6658
vn 0.4627 0.0896 -0.8820
vn 0.0953 0.7125 -0.6952
vn -0.6377 0.4306 -0.6387
vn 0.4546 -0.7494 0.4813
vn 0.2769 -0.0368 0.9602
vn 0.8149 -0.5346 -0.2239
vn 0.8241 0.5192 -0.2264
vn 0.4795 0.7417 0.4691
vn -0.1120 -0.0349 0.9931
vn 0.1205 -0.9128 0.3902
vn 0.4311 -0.6749 -0.5989
vn 0.4550 0.6625 -0.5950
vn 0.0613 0.9338 0.3526
vn -0.3245 -0.6180 0.7161
vn 0.0562 -0.9384 -0.3409
vn 0.2121 -0.0345 -0.9766
vn 0.0044 0.9599 -0.2803
vn -0.3639 0.6575 0.6597
vn -0.9350 -0.3457 0.0788
vn -0.6448 -0.5587 -0.5216
vn -0.5136 -0.0361 -0.8573
vn -0.6678 0.5988 -0.4422
vn -0.9080 0.4120 0.0765
vn 0.0121 -0.5536 -0.8327
vn 0.4460 0.0348 -0.8944
vn -0.6483 -0.3432 -0.6796
vn -0.6767 0.1972 -0.7093
vn 0.1567 0.4493 -0.8795
vn 0.8525 0.0365 -0.5214
vn 0.2259 -0.8892 -0.3979
vn -0.8309 -0.5447 -0.1138
vn -0.8960 0.4418 0.0434
vn 0.4399 0.8474 -0.2973
vn 0.8273 -0.5512 -0.1082
vn -0.3373 -0.9282 0.1572
vn -0.9374 0.0404 0.3460
vn -0.2469 0.8848 0.3952
vn 0.7917 0.6018 -0.1053
vn 0.6334 -0.3070 0.7103
vn -0.0368 -0.5144 0.8568
vn -0.4388 0.0408 0.8977
vn -0.0403 0.5687 0.8216
vn 0.6170 0.3747 0.6920
vt 0.169566 0.115312
vt 0.097668 0.020947
vt 0.225221 -0.031654
vt -0.189706 0.020947
vt -0.100460 0.115312
vt -0.189035 0.212359
vt 0.294737 0.115312
vt 0.224650 0.255030
vt 0.094372 0.212359
vt -0.314241 0.115312
vt -0.142477 0.225221
vt -0.189706 0.097668
vt -0.285768 0.201825
vt 0.120346 0.115312
vt 0.142477 -0.031654
vt 0.233231 0.035925
vt 0.145972 0.255030
vt 0.237842 0.213110
vt -0.189035 -0.094372
vt -0.145972 -0.224650
vt -0.272364 -0.204013
vt -0.285768 -0.034882
vt -0.233231 0.311222
vt -0.237842 -0.333851
vt -0.094372 0.212359
vt -0.204013 0.237708
vt -0.125676 0.115312
vt -0.201825 -0.034882
vt -0.258455 0.115312
vt -0.311222 0.035925
vt 0.328076 0.115312
vt -0.333851 0.213110
vt -0.040727 0.093513
vt -0.189334 0.029330
vt -0.000604 -0.022558
vt -0.202850 0.165174
vt 0.125267 0.093513
vt -0.005524 0.201732
vt 0.255180 0.029330
vt 0.267135 0.165174
vt 0.102797 0.093513
vt -0.000604 -0.227819
vt -0.189334 -0.255180
vt -0.145391 -0.077999
vt 0.125267 -0.203650
vt 0.061633 -0.033193
vt -0.005524 0.222729
vt 0.125267 0.203650
vt 0.051282 0.042349
vt -0.202850 0.267135
vt -0.151468 0.071710
vt -0.266825 -0.102797
vt -0.203650 0.093513
vt -0.033193 0.018844
vt -0.042349 0.162454
vt 0.071710 0.218233
vt 0.145391 -0.021507
vt 0.266825 0.093513
vt 0.112960 0.093513
vt -0.112960 0.050829
vt -0.051282 0.162454
vt -0.061633 0.018844
vt -0.112960 -0.050829
vt 0.151468 0.218233
vt -0.032541 -0.144489
vt -0.188801 -0.186956
vt -0.131034 -0.059301
vt -0.188801 0.035705
vt -0.032541 0.103214
vt -0.187695 0.173517
vt -0.144489 0.103214
vt -0.059301 -0.011246
vt 0.034107 0.103214
vt -0.059156 0.219827
vt -0.032541 0.144489
vt -0.129445 0.059156
vt -0.187695 0.191920
vt -0.353004 0.103214
vt -0.312458 -0.075845
vt -0.081602 0.034107
vt -0.245367 0.067004
vt -0.081602 -0.034107
vt -0.246642 -0.072729
vt -0.305650 0.075224
vt -0.312458 -0.028121
vt 0.081602 0.103214
vt 0.245367 0.027792
vt 0.246642 0.181857
vt -0.305650 0.225325
vt 0.075845 -0.028121
vt 0.170812 0.103214
vt 0.002786 0.103214
vt -0.067004 0.027792
vt 0.367167 0.103214
vt 0.075224 0.225325
vt -0.072729 0.181857
vt 0.350320 0.088972
vt 0.259865 0.026749
vt 0.366798 -0.010925
vt 0.263177 0.148148
vt 0.434184 0.088972
vt 0.375320 0.210541
vt 0.192556 0.026749
vt 0.189481 0.148148
vt 0.100806 0.088972
vt -0.366798 0.169063
vt -0.259865 0.192556
vt -0.281742 0.083934
vt -0.155233 0.088972
vt -0.169063 -0.010925
vt -0.060438 0.020317
vt -0.177593 0.210541
vt -0.064413 0.153690
vt -0.263177 -0.189481
vt -0.375320 -0.177593
vt -0.285632 -0.087827
vt 0.083934 -0.027417
vt -0.402153 0.060438
vt -0.397873 -0.064413
vt 0.087827 0.195469
vt -0.281742 -0.027417
vt -0.206406 0.088972
vt -0.302694 0.088972
vt -0.402153 0.020317
vt -0.397873 0.153690
vt -0.285632 0.195469
s 0
f 1/1/1 2/2/1 3/3/1
f 2/4/2 1/5/2 6/6/2
f 1/1/3 3/3/3 4/7/3
f 1/1/4 4/7/4 5/8/4
f 1/1/5 5/8/5 6/9/5
f 2/4/6 6/6/6 11/10/6
f 3/11/7 2/12/7 7/13/7
f 4/14/8 3/15/8 8/16/8
f 5/17/9 4/14/9 9/18/9
f 6/19/10 5/20/10 10/21/10
f 2/4/11 11/10/11 7/22/11
f 3/11/12 7/13/12 8/23/12
f 4/14/13 8/16/13 9/18/13
f 5/20/14 9/24/14 10/21/14
f 6/25/15 10/26/15 11/27/15
f 7/28/16 11/27/16 12/29/16
f 8/30/17 7/28/17 12/29/17
f 9/18/18 8/16/18 12/31/18
f 10/26/19 9/32/19 12/29/19
f 11/27/20 10/26/20 12/29/20
f 13/33/21 14/34/21 15/35/21
f 14/34/22 13/33/22 18/36/22
f 13/33/23 15/35/23 16/37/23
f 13/33/24 16/37/24 17/38/24
f 13/33/25 17/38/25 18/36/25
f 14/39/26 18/40/26 23/41/26
f 15/42/27 14/43/27 19/44/27
f 16/45/28 15/42/28 20/46/28
f 17/47/29 16/48/29 21/49/29
f 18/50/30 17/47/30 22/51/30
f 14/43/31 23/52/31 19/44/31
f 15/42/32 19/44/32 20/46/32
f 16/53/33 20/54/33 21/55/33
f 17/47/34 21/49/34 22/51/34
f 18/40/35 22/56/35 23/41/35
f 19/57/36 23/58/36 24/59/36
f 20/46/37 19/44/37 24/60/37
f 21/61/38 20/62/38 24/59/38
f 22/51/39 21/49/39 24/63/39
f 23/58/40 22/64/40 24/59/40
f 25/65/41 26/66/41 27/67/41
f 26/68/42 25/69/42 30/70/42
f 25/71/43 27/72/43 28/73/43
f 25/71/44 28/73/44 29/74/44
f 25/75/45 29/76/45 30/77/45
f 26/68/46 30/70/46 35/78/46
f 27/67/47 26/66/47 31/79/47
f 28/80/48 27/67/48 32/81/48
f 29/76/49 28/82/49 33/83/49
f 30/77/50 29/76/50 34/84/50
f 26/68/51 35/78/51 31/85/51
f 27/67/52 31/79/52 32/81/52
f 28/86/53 32/87/53 33/88/53
f 29/76/54 33/83/54 34/84/54
f 30/70/55 34/89/55 35/78/55
f 31/90/56 35/91/56 36/92/56
f 32/93/57 31/90/57 36/92/57
f 33/88/58 32/87/58 36/94/58
f 34/95/59 33/96/59 36/92/59
f 35/91/60 34/95/60 36/92/60
f 37/97/61 38/98/61 39/99/61
f 38/98/62 37/97/62 42/100/62
f 37/97/63 39/99/63 40/101/63
f 37/97/64 40/101/64 41/102/64
f 37/97/65 41/102/65 42/100/65
f 38/103/66 42/104/66 47/105/66
f 39/106/67 38/107/67 43/108/67
f 40/109/68 39/110/68 44/111/68
f 41/112/69 40/109/69 45/113/69
f 42/114/70 41/115/70 46/116/70
f 38/103/71 47/105/71 43/117/71
f 39/106/72 43/108/72 44/118/72
f 40/109/73 44/111/73 45/113/73
f 41/115/74 45/119/74 46/116/74
f 42/104/75 46/120/75 47/105/75
f 43/121/76 47/122/76 48/123/76
f 44/124/77 43/121/77 48/123/77
f 45/125/78 44/124/78 48/123/78
f 46/126/79 45/125/79 48/123/79
f 47/122/80 46/126/80 48/123/80
