# Blender 5.0.1
# www.blender.org
mtllib searock_h.mtl
o searock_h_rock
usemtl searock_h_rock
v -0.433332 0.164774 -0.224767
v 0.014193 0.080049 -0.414710
v -0.253302 0.000000 0.049861
v -0.337722 0.164774 0.316566
v -0.192773 0.293137 0.037946
v 0.013183 0.262855 -0.479436
v 0.253302 0.024793 -0.049861
v 0.027141 0.078447 0.414357
v 0.027430 0.254911 0.432824
v 0.287935 0.325590 -0.056678
v 0.387379 0.164774 -0.332233
v 0.380013 0.164774 0.170692
v -0.073668 0.119274 0.249170
v -0.334967 0.075199 0.241196
v -0.062928 0.052993 0.092300
v 0.147297 0.119274 0.005121
v -0.029358 0.203889 0.108492
v -0.353092 0.168652 0.266151
v -0.314130 0.048376 -0.028865
v -0.011667 0.068772 -0.203935
v -0.007963 0.170861 -0.209035
v -0.333742 0.200882 -0.038324
v -0.488105 0.119274 0.059990
v -0.313930 0.119274 -0.218639
vn -0.3095 -0.8911 -0.3318
vn -0.4204 -0.3049 -0.8546
vn -0.7742 -0.6180 0.1367
vn -0.5489 0.8302 0.0969
vn -0.3062 0.9354 -0.1767
vn 0.2731 -0.3197 -0.9073
vn 0.0167 -0.9869 -0.1604
vn -0.3147 -0.8488 0.4248
vn -0.3088 0.9147 0.2607
vn -0.0851 0.9921 -0.0919
vn 0.2762 -0.9068 -0.3184
vn 0.0781 -0.9853 0.1519
vn -0.2795 -0.0995 0.9550
vn -0.0433 0.9918 0.1202
vn 0.3680 0.8547 -0.3660
vn 0.7329 -0.6803 0.0107
vn 0.4186 -0.8562 0.3029
vn 0.5802 -0.0857 0.8099
vn 0.4784 0.7965 0.3696
vn 0.8600 0.5102 0.0126
vn -0.1412 0.9084 -0.3935
vn -0.0136 0.2555 -0.9667
vn -0.4173 0.8265 -0.3778
vn -0.5994 -0.5884 -0.5427
vn -0.1778 -0.8176 -0.5477
vn 0.7632 0.3007 -0.5719
vn 0.0283 0.9949 -0.0966
vn -0.3012 0.9536 -0.0013
vn -0.3982 -0.9148 0.0683
vn 0.0587 -0.9931 -0.1014
vn 0.3474 0.9354 -0.0661
vn -0.0406 0.9981 0.0461
vn -0.8014 0.0588 0.5952
vn -0.0388 -0.9942 0.1008
vn 0.4323 -0.8992 -0.0677
vn 0.4891 0.8169 0.3057
vn 0.1381 0.9277 0.3467
vn -0.0400 0.0513 0.9979
vn 0.1379 -0.8965 0.4209
vn 0.6101 -0.6945 0.3814
vt -0.453938 0.220711
vt -0.006413 0.410653
vt -0.273909 -0.053917
vt 0.006413 0.037774
vt 0.453938 0.122500
vt 0.007424 0.220580
vt -0.220711 0.122500
vt 0.053917 -0.042274
vt 0.320622 0.122500
vt -0.453938 -0.220711
vt -0.358329 0.320622
vt -0.213380 0.042003
vt -0.007424 -0.475380
vt -0.366772 0.122500
vt 0.232695 0.045805
vt -0.358329 -0.320622
vt 0.006535 -0.418413
vt 0.006823 0.436880
vt 0.267329 -0.052622
vt 0.366772 0.328177
vt -0.358329 0.122500
vt 0.006535 0.036173
vt 0.006823 0.212637
vt 0.366772 -0.328177
vt 0.045805 -0.017482
vt 0.328177 0.122500
vt -0.174748 0.122500
vt 0.359407 -0.174748
vt 0.359407 0.122500
vt 0.359407 0.174748
vt 0.052622 0.283316
vt -0.094275 0.253227
vt -0.083535 0.096356
vt -0.355574 0.245252
vt 0.355574 0.032925
vt 0.373699 0.126377
vt 0.094275 0.077000
vt 0.126690 0.009177
vt 0.253227 0.077000
vt 0.112548 0.161615
vt 0.009177 0.077000
vt -0.094275 -0.253227
vt -0.373699 -0.270207
vt -0.049965 -0.112548
vt -0.245252 0.032925
vt -0.064047 0.077000
vt -0.270207 0.126377
vt -0.334737 -0.024809
vt -0.032274 -0.199879
vt -0.028570 0.204979
vt 0.126690 -0.009177
vt -0.354349 0.034268
vt -0.508712 0.064047
vt -0.204979 0.128586
vt -0.199879 0.026498
vt -0.508712 -0.064047
vt -0.334537 -0.214583
vt -0.028570 0.128586
vt -0.334537 0.077000
vt -0.032274 0.026498
vt -0.334537 0.214583
s 0
f 1/1/1 2/2/1 3/3/1
f 2/4/2 1/5/2 6/6/2
f 1/7/3 3/8/3 4/9/3
f 1/10/4 4/11/4 5/12/4
f 1/10/5 5/12/5 6/13/5
f 2/4/6 6/6/6 11/14/6
f 3/3/7 2/2/7 7/15/7
f 4/16/8 3/3/8 8/17/8
f 5/12/9 4/11/9 9/18/9
f 6/13/10 5/12/10 10/19/10
f 2/2/11 11/20/11 7/15/11
f 3/3/12 7/15/12 8/17/12
f 4/21/13 8/22/13 9/23/13
f 5/12/14 9/18/14 10/19/14
f 6/13/15 10/19/15 11/24/15
f 7/25/16 11/26/16 12/27/16
f 8/17/17 7/15/17 12/28/17
f 9/23/18 8/22/18 12/29/18
f 10/19/19 9/18/19 12/30/19
f 11/26/20 10/31/20 12/27/20
f 13/32/21 15/33/21 14/34/21
f 14/35/22 18/36/22 13/37/22
f 13/32/23 16/38/23 15/33/23
f 13/39/24 17/40/24 16/41/24
f 13/42/25 18/43/25 17/44/25
f 14/45/26 23/46/26 18/47/26
f 15/33/27 19/48/27 14/34/27
f 16/38/28 20/49/28 15/33/28
f 17/44/29 21/50/29 16/51/29
f 18/43/30 22/52/30 17/44/30
f 14/34/31 19/48/31 23/53/31
f 15/33/32 20/49/32 19/48/32
f 16/41/33 21/54/33 20/55/33
f 17/44/34 22/52/34 21/50/34
f 18/43/35 23/56/35 22/52/35
f 19/48/36 24/57/36 23/53/36
f 20/49/37 24/57/37 19/48/37
f 21/58/38 24/59/38 20/60/38
f 22/52/39 24/61/39 21/50/39
f 23/56/40 24/61/40 22/52/40
