# Blender 5.0.1
# www.blender.org
mtllib searock_s.mtl
o searock_s_rock
usemtl searock_s_rock
v 0.415275 0.356965 0.122143
v 0.014987 0.131931 0.107208
v 0.370439 0.022188 -0.150933
v 0.565935 0.356965 -0.290928
v 0.352368 0.662564 -0.160125
v 0.041576 0.541601 0.041933
v -0.057979 0.000000 -0.368854
v 0.310975 0.132294 -0.619417
v 0.288731 0.547839 -0.564810
v -0.067021 0.728528 -0.373453
v -0.243113 0.356965 -0.221579
v -0.090413 0.356965 -0.636950
v 0.697281 0.345745 -0.648932
v 0.797651 0.144793 -0.143126
v 0.373247 0.004992 -0.503176
v 0.092966 0.345745 -0.737322
v 0.369983 0.645975 -0.469233
v 0.758703 0.529375 -0.149558
v 0.319025 0.013335 0.060690
v -0.055722 0.167176 -0.284060
v -0.054800 0.523903 -0.283907
v 0.322844 0.630741 0.020975
v 0.593902 0.345745 0.292101
v 0.057801 0.345745 0.135557
v -0.982756 0.251545 -0.222901
v -0.612372 0.128533 0.049701
v -1.011709 0.063870 0.150335
v -1.267227 0.251545 0.197833
v -1.047238 0.484022 0.110261
v -0.614528 0.373499 0.052011
v -0.713023 0.062589 0.487230
v -1.100683 0.134766 0.573113
v -1.135859 0.385598 0.610819
v -0.702143 0.454220 0.499501
v -0.429225 0.251545 0.447308
v -0.753988 0.251545 0.809687
v -0.645783 0.342875 0.327136
v -0.617998 0.159343 -0.007900
v -0.415386 0.017522 0.278332
v -0.266576 0.342875 0.504332
v -0.423949 0.700884 0.298180
v -0.617506 0.526093 -0.007749
v -0.256496 0.062287 -0.089959
v -0.044993 0.161159 0.168190
v 0.002238 0.554698 0.182705
v -0.246227 0.662623 -0.113760
v -0.381169 0.342875 -0.260423
v 0.014098 0.342875 -0.188195
v -0.165575 0.272615 0.302607
v -0.265949 0.141130 0.621057
v -0.419516 0.044303 0.358234
v -0.525949 0.272615 0.178910
v -0.423914 0.488569 0.366669
v -0.227897 0.425406 0.638393
v -0.589345 0.023752 0.683941
v -0.795315 0.107692 0.379884
v -0.749776 0.412039 0.400631
v -0.580292 0.496039 0.666577
v -0.476176 0.272615 0.841533
v -0.770156 0.272615 0.684019
vn 0.3241 -0.6237 0.7114
vn -0.1288 0.1642 0.9780
vn 0.8707 -0.3756 0.3176
vn 0.8369 0.4542 0.3053
vn 0.1888 0.6870 0.7017
vn -0.7232 0.1542 0.6732
vn -0.0924 -0.9558 0.2791
vn 0.7943 -0.5612 -0.2327
vn 0.7210 0.6286 -0.2916
vn -0.0745 0.9020 0.4254
vn -0.8048 -0.5287 0.2699
vn 0.1746 -0.9534 -0.2462
vn 0.7399 0.1264 -0.6607
vn 0.2967 0.9055 -0.3034
vn -0.7362 0.5240 0.4283
vn -0.8874 -0.3257 -0.3262
vn -0.2977 -0.5904 -0.7502
vn 0.1189 0.1356 -0.9836
vn -0.1384 0.5787 -0.8037
vn -0.8981 0.2907 -0.3301
vn 0.5736 -0.7158 -0.3982
vn 0.9829 0.0969 -0.1565
vn 0.1262 -0.4892 -0.8630
vn 0.1158 0.6000 -0.7916
vn 0.5214 0.7781 -0.3503
vn 0.9180 0.0994 0.3839
vn 0.2809 -0.9589 0.0412
vn -0.5087 -0.7310 -0.4549
vn -0.4218 0.7886 -0.4473
vn 0.2461 0.9678 0.0537
vn 0.4281 -0.7274 0.5363
vn -0.3630 -0.9316 -0.0211
vn -0.9505 0.0026 -0.3108
vn -0.2748 0.9615 0.0035
vn 0.3705 0.8005 0.4711
vn -0.2569 -0.4000 0.8798
vn -0.6559 -0.6142 0.4388
vn -0.9656 0.0024 0.2602
vn -0.5584 0.6990 0.4468
vn -0.2354 0.5430 0.8061
vn 0.0321 -0.8939 -0.4470
vn 0.5955 0.0128 -0.8033
vn -0.5899 -0.7021 -0.3988
vn -0.7188 0.4971 -0.4860
vn 0.1367 0.8246 -0.5489
vn 0.9068 0.0120 -0.4214
vn 0.1295 -0.9845 -0.1186
vn -0.5906 -0.8069 0.0110
vn -0.7250 0.6887 0.0071
vn 0.2290 0.9648 -0.1292
vn 0.5544 -0.8322 0.0021
vn -0.1531 -0.9794 0.1320
vn -0.9185 -0.1816 0.3511
vn -0.1105 0.9787 0.1729
vn 0.5923 0.8052 -0.0293
vn 0.5325 -0.6990 0.4773
vn -0.0501 -0.8645 0.5002
vn -0.5064 -0.1972 0.8395
vn 0.0083 0.8365 0.5479
vn 0.5728 0.6391 0.5133
vn -0.7704 -0.5839 0.2560
vn -0.9965 0.0014 -0.0834
vn -0.3881 -0.3994 0.8306
vn -0.4013 0.3182 0.8589
vn -0.8214 0.5267 0.2188
vn -0.7299 0.0013 -0.6836
vn -0.3025 -0.9218 -0.2426
vn 0.4362 -0.6394 0.6332
vn 0.3926 0.5824 0.7118
vn -0.3967 0.8823 -0.2531
vn -0.3263 -0.5925 -0.7366
vn 0.3737 -0.9263 0.0486
vn 0.7987 -0.1176 0.5901
vn 0.3381 0.9393 0.0586
vn -0.4054 0.5169 -0.7540
vn 0.1596 -0.4598 -0.8736
vn 0.6489 -0.7160 -0.2575
vn 0.9873 -0.1222 0.1014
vn 0.6876 0.6398 -0.3434
vn 0.1683 0.3514 -0.9210
vn 0.6522 -0.7508 -0.1044
vn 0.9593 -0.1432 0.2432
vn 0.2794 -0.5091 -0.8141
vn 0.2698 0.5560 -0.7862
vn 0.5860 0.7730 -0.2430
vn 0.6758 -0.1347 0.7247
vn 0.3605 -0.9237 0.1297
vn -0.1529 -0.6535 -0.7413
vn -0.2345 0.6986 -0.6760
vn 0.2021 0.9760 0.0811
vn 0.3588 -0.6104 0.7062
vn -0.1729 -0.9732 -0.1516
vn -0.6480 0.1479 -0.7471
vn -0.2408 0.9590 -0.1494
vn 0.1902 0.6587 0.7280
vn -0.4467 -0.3248 0.8337
vn -0.7548 -0.5485 0.3599
vn -0.9890 0.1479 0.0016
vn -0.7254 0.6368 0.2612
vn -0.4274 0.4255 0.7977
vt 0.705018 0.279414
vt 0.304729 0.054380
vt 0.660182 -0.055363
vt 0.331319 0.464050
vt -0.251843 0.279414
vt 0.021233 -0.055363
vt 0.161228 0.279414
vt 0.030425 0.585013
vt 0.642111 0.585013
vt 0.236908 0.054380
vt 0.171633 0.464050
vt -0.091879 0.279414
vt 0.660182 0.021233
vt 0.304729 -0.236908
vt 0.231763 0.239153
vt 0.489717 0.054743
vt 0.435109 0.470288
vt 0.331319 0.171633
vt 0.642111 -0.030425
vt 0.222722 -0.243752
vt -0.239153 -0.077551
vt 0.600718 0.489717
vt 0.578474 -0.435109
vt -0.243752 0.650977
vt -0.507250 0.279414
vt -0.600718 0.054743
vt -0.231763 -0.077551
vt -0.199329 0.279414
vt -0.578474 0.470288
vt -0.222722 0.650977
vt 0.987024 0.519232
vt 1.087394 0.013426
vt 0.662990 0.373476
vt 0.013426 0.067242
vt 0.519232 0.268194
vt 0.019858 0.451824
vt -0.987024 0.268194
vt -0.662990 -0.072559
vt -0.382709 0.268194
vt -0.659726 0.568424
vt 0.987024 -0.519232
vt 0.659726 -0.339533
vt 1.048446 -0.019858
vt -0.421802 0.268194
vt 0.608768 -0.190390
vt 0.382709 0.607622
vt 0.234020 0.154360
vt 0.382709 -0.607622
vt 0.234942 -0.154207
vt 0.612587 0.150675
vt 0.883645 -0.421802
vt -0.607622 0.268194
vt -0.154360 0.089625
vt -0.154207 0.446352
vt 0.883645 0.421802
vt 0.608768 -0.064216
vt 0.883645 0.268194
vt 0.347544 0.268194
vt 0.190390 -0.064216
vt 0.265257 0.268194
vt 0.347544 0.265257
vt 0.612587 0.553190
vt -0.693013 0.093200
vt -0.322630 -0.179401
vt -0.721966 -0.280035
vt 0.322630 0.050982
vt 0.693013 0.173994
vt 0.324785 0.295948
vt -0.977484 -0.327533
vt -0.093200 0.173994
vt 0.327533 0.173994
vt 0.239961 0.406471
vt -0.693013 -0.093200
vt -0.757495 0.239961
vt -0.324785 0.181712
vt -0.179401 0.050982
vt -0.181712 0.295948
vt -0.577008 0.173994
vt -0.423280 -0.616930
vt -0.810940 -0.702814
vt 0.740519 0.308047
vt -0.412401 0.629201
vt -0.139483 -0.577008
vt 0.702814 0.057215
vt -0.846116 0.740519
vt -0.139483 0.577008
vt -0.464245 -0.939387
vt -0.846116 0.308047
vt -0.810940 0.057215
vt -0.464245 0.173994
vt -0.464245 0.939387
vt 0.456836 0.265324
vt 0.121800 0.081792
vt 0.408032 -0.060029
vt 0.121951 0.448542
vt -0.356040 0.265324
vt -0.125643 -0.060029
vt 0.023167 0.265324
vt -0.134206 0.623333
vt 0.427880 0.623333
vt -0.130722 0.265324
vt -0.125643 -0.408032
vt -0.328255 -0.121800
vt 0.033247 -0.039741
vt 0.023167 -0.634032
vt 0.244750 -0.297891
vt 0.291981 0.477147
vt -0.327763 0.121951
vt -0.134206 0.427880
vt 0.043515 0.015940
vt 0.328255 0.081792
vt 0.091426 0.265324
vt -0.033247 -0.015264
vt -0.634032 0.265324
vt -0.297891 0.083608
vt -0.312405 0.477147
vt 0.291981 0.312405
vt 0.327763 0.448542
vt -0.043515 0.585072
vt -0.303841 0.265324
vt 0.303841 0.058495
vt 0.058495 0.265324
vt -0.015940 0.585072
vt 0.124168 -0.432307
vt 0.023794 -0.750757
vt -0.129773 -0.487935
vt -0.750757 0.063579
vt -0.432307 0.195064
vt -0.768093 0.347855
vt -0.124168 0.195064
vt 0.129773 -0.033248
vt 0.236207 0.195064
vt 0.134171 0.411018
vt 0.124168 0.432307
vt -0.134171 0.496369
vt 0.061845 0.768093
vt 0.023794 0.063579
vt 0.061845 0.347855
vt -0.186433 0.195064
vt -0.299603 -0.813641
vt 0.505572 0.030142
vt -0.236207 0.308610
vt -0.460033 0.530331
vt -0.290549 0.796277
vt -0.299603 -0.053799
vt -0.505572 -0.509584
vt 0.460033 0.334488
vt -0.290549 0.418488
vt -0.480413 0.195064
vt 0.509584 0.030142
vt 0.813641 -0.053799
vt 0.813719 0.195064
vt 0.530331 0.334488
vt 0.796277 0.418488
s 0
f 1/1/1 2/2/1 3/3/1
f 2/2/2 1/1/2 6/4/2
f 1/5/3 3/6/3 4/7/3
f 1/5/4 4/7/4 5/8/4
f 1/1/5 5/9/5 6/4/5
f 2/10/6 6/11/6 11/12/6
f 3/13/7 2/14/7 7/15/7
f 4/7/8 3/6/8 8/16/8
f 5/8/9 4/7/9 9/17/9
f 6/18/10 5/19/10 10/20/10
f 2/10/11 11/12/11 7/21/11
f 3/13/12 7/15/12 8/22/12
f 4/7/13 8/16/13 9/17/13
f 5/19/14 9/23/14 10/20/14
f 6/11/15 10/24/15 11/12/15
f 7/21/16 11/12/16 12/25/16
f 8/26/17 7/27/17 12/28/17
f 9/29/18 8/26/18 12/28/18
f 10/30/19 9/29/19 12/28/19
f 11/12/20 10/24/20 12/25/20
f 13/31/21 14/32/21 15/33/21
f 14/34/22 13/35/22 18/36/22
f 13/37/23 15/38/23 16/39/23
f 13/37/24 16/39/24 17/40/24
f 13/41/25 17/42/25 18/43/25
f 14/34/26 18/36/26 23/44/26
f 15/33/27 14/32/27 19/45/27
f 16/46/28 15/33/28 20/47/28
f 17/42/29 16/48/29 21/49/29
f 18/43/30 17/42/30 22/50/30
f 14/32/31 23/51/31 19/45/31
f 15/33/32 19/45/32 20/47/32
f 16/52/33 20/53/33 21/54/33
f 17/42/34 21/49/34 22/50/34
f 18/43/35 22/50/35 23/55/35
f 19/56/36 23/57/36 24/58/36
f 20/53/37 19/59/37 24/60/37
f 21/54/38 20/53/38 24/60/38
f 22/50/39 21/49/39 24/61/39
f 23/57/40 22/62/40 24/58/40
f 25/63/41 26/64/41 27/65/41
f 26/66/42 25/67/42 30/68/42
f 25/63/43 27/65/43 28/69/43
f 25/70/44 28/71/44 29/72/44
f 25/73/45 29/74/45 30/75/45
f 26/76/46 30/77/46 35/78/46
f 27/65/47 26/64/47 31/79/47
f 28/69/48 27/65/48 32/80/48
f 29/72/49 28/71/49 33/81/49
f 30/75/50 29/74/50 34/82/50
f 26/64/51 35/83/51 31/79/51
f 27/65/52 31/79/52 32/80/52
f 28/71/53 32/84/53 33/81/53
f 29/74/54 33/85/54 34/82/54
f 30/75/55 34/82/55 35/86/55
f 31/79/56 35/83/56 36/87/56
f 32/80/57 31/79/57 36/87/57
f 33/88/58 32/89/58 36/90/58
f 34/82/59 33/85/59 36/91/59
f 35/86/60 34/82/60 36/91/60
f 37/92/61 38/93/61 39/94/61
f 38/93/62 37/92/62 42/95/62
f 37/96/63 39/97/63 40/98/63
f 37/96/64 40/98/64 41/99/64
f 37/92/65 41/100/65 42/95/65
f 38/93/66 42/95/66 47/101/66
f 39/102/67 38/103/67 43/104/67
f 40/105/68 39/102/68 44/106/68
f 41/99/69 40/98/69 45/107/69
f 42/108/70 41/109/70 46/110/70
f 38/111/71 47/112/71 43/113/71
f 39/102/72 43/104/72 44/106/72
f 40/114/73 44/115/73 45/116/73
f 41/109/74 45/117/74 46/110/74
f 42/118/75 46/119/75 47/112/75
f 43/113/76 47/112/76 48/120/76
f 44/106/77 43/104/77 48/121/77
f 45/116/78 44/115/78 48/122/78
f 46/123/79 45/116/79 48/122/79
f 47/112/80 46/119/80 48/120/80
f 49/124/81 50/125/81 51/126/81
f 50/127/82 49/128/82 54/129/82
f 49/130/83 51/131/83 52/132/83
f 49/130/84 52/132/84 53/133/84
f 49/134/85 53/135/85 54/136/85
f 50/137/86 54/138/86 59/139/86
f 51/126/87 50/125/87 55/140/87
f 52/132/88 51/131/88 56/141/88
f 53/135/89 52/142/89 57/143/89
f 54/136/90 53/135/90 58/144/90
f 50/137/91 59/139/91 55/145/91
f 51/126/92 55/140/92 56/146/92
f 52/132/93 56/141/93 57/147/93
f 53/135/94 57/143/94 58/144/94
f 54/138/95 58/148/95 59/139/95
f 55/145/96 59/139/96 60/149/96
f 56/150/97 55/151/97 60/152/97
f 57/153/98 56/150/98 60/152/98
f 58/154/99 57/153/99 60/152/99
f 59/139/100 58/148/100 60/149/100
