# Blender 5.0.1
# www.blender.org
mtllib searock_p.mtl
o searock_p_rock
usemtl searock_p_rock
v -0.021202 0.207760 0.161998
v -0.095634 0.092513 -0.084004
v 0.132299 0.028504 0.104561
v 0.270070 0.207760 0.225537
v 0.131214 0.400987 0.115366
v -0.067860 0.309772 -0.078270
v 0.160022 0.030008 -0.171541
v 0.392698 0.090308 0.016816
v 0.399304 0.328360 0.018179
v 0.159924 0.384244 -0.170561
v 0.029765 0.207760 -0.278174
v 0.326844 0.207760 -0.245606
v -0.135164 0.221232 -0.034467
v -0.168877 0.099529 -0.222546
v -0.015429 0.001526 -0.082767
v 0.092868 0.221232 0.007887
v -0.013298 0.414710 -0.097025
v -0.186086 0.355161 -0.224589
v 0.020409 0.000000 -0.322463
v 0.179379 0.095517 -0.181184
v 0.178039 0.345994 -0.181343
v 0.017975 0.412522 -0.306186
v -0.079625 0.221232 -0.392802
v 0.155506 0.221232 -0.388812
v 0.128028 0.201563 0.005685
v -0.032364 0.100482 -0.077102
v 0.172436 0.004783 -0.101059
v 0.289295 0.201563 -0.136171
v 0.164378 0.379364 -0.109418
v -0.033980 0.303991 -0.075628
v 0.017793 0.034113 -0.261475
v 0.211286 0.099527 -0.299394
v 0.239108 0.326793 -0.324777
v 0.002765 0.404411 -0.277065
v -0.122368 0.201563 -0.242072
v 0.051979 0.201563 -0.370115
v 0.119966 0.204649 0.143424
v 0.027208 0.089088 0.368323
v -0.035921 0.027714 0.101346
v -0.054302 0.204649 -0.102446
v -0.037100 0.379816 0.102333
v 0.040036 0.328391 0.380230
v -0.273794 0.025084 0.300382
v -0.351619 0.078596 0.016665
v -0.344351 0.326067 0.023412
v -0.263684 0.369062 0.291922
v -0.244504 0.204649 0.474918
v -0.488874 0.204649 0.269451
vn -0.5828 -0.6537 0.4826
vn -0.9644 0.1170 0.2370
vn -0.1910 -0.4440 0.8754
vn -0.1976 0.3745 0.9059
vn -0.6720 0.6257 0.3961
vn -0.8654 0.1235 -0.4856
vn -0.2471 -0.9685 -0.0301
vn 0.3718 -0.6984 0.6115
vn 0.4080 0.6555 0.6355
vn -0.3420 0.9355 -0.0891
vn -0.3823 -0.6650 -0.6416
vn 0.2368 -0.9714 0.0185
vn 0.8553 -0.0267 0.5175
vn 0.2507 0.9676 -0.0315
vn -0.4548 0.6835 -0.5709
vn 0.0968 -0.4589 -0.8832
vn 0.5485 -0.7032 -0.4524
vn 0.9669 -0.0254 -0.2540
vn 0.5337 0.7040 -0.4685
vn 0.0965 0.4654 -0.8799
vn -0.7355 -0.5011 0.4561
vn -0.9743 -0.0639 0.2160
vn -0.1741 -0.3010 0.9376
vn -0.1676 0.3973 0.9023
vn -0.6075 0.5636 0.5597
vn -0.8650 -0.0622 -0.4979
vn -0.4922 -0.8678 -0.0681
vn 0.5722 -0.5376 0.6193
vn 0.4927 0.6080 0.6226
vn -0.2899 0.9556 -0.0533
vn -0.5930 -0.4749 -0.6503
vn 0.4638 -0.8828 0.0750
vn 0.9106 0.0051 0.4132
vn 0.3545 0.9341 0.0432
vn -0.4388 0.5468 -0.7131
vn 0.0162 -0.2963 -0.9550
vn 0.7121 -0.5613 -0.4217
vn 0.9938 0.0052 -0.1111
vn 0.6196 0.6411 -0.4528
vn 0.0155 0.4059 -0.9138
vn -0.1310 -0.4954 0.8587
vn -0.4536 -0.0101 0.8911
vn 0.6395 -0.2500 0.7270
vn 0.6232 0.3312 0.7085
vn -0.0682 0.5520 0.8311
vn -0.8805 -0.0104 0.4740
vn -0.3927 -0.8942 0.2151
vn 0.8505 -0.5196 -0.0816
vn 0.8195 0.5533 0.1493
vn -0.2682 0.8808 0.3902
vn -0.7653 -0.6433 0.0234
vn 0.2276 -0.8952 -0.3831
vn 0.9254 -0.1521 -0.3472
vn 0.2849 0.9493 -0.1329
vn -0.8365 0.5358 0.1145
vn -0.5492 -0.3730 -0.7478
vn 0.0210 -0.5472 -0.8368
vn 0.3230 -0.1440 -0.9354
vn -0.0508 0.4062 -0.9124
vn -0.5774 0.2205 -0.7861
vn 0.7532 -0.6572 -0.0270
vn 0.9341 -0.0675 0.3506
vn 0.7053 -0.5025 -0.4999
vn 0.7009 0.5119 -0.4967
vn 0.7518 0.6535 -0.0877
vn 0.3404 -0.0649 0.9380
vn 0.1646 -0.9691 0.1839
vn 0.0552 -0.7515 -0.6574
vn 0.0347 0.7580 -0.6513
vn 0.0857 0.9837 0.1582
vn -0.0142 -0.6957 0.7182
vn -0.1171 -0.9813 -0.1529
vn -0.3849 0.0364 -0.9222
vn -0.1425 0.9831 -0.1146
vn -0.0966 0.7353 0.6708
vn -0.5423 -0.5385 0.6450
vn -0.6433 -0.7650 0.0322
vn -0.8699 0.0390 -0.4917
vn -0.5921 0.8043 0.0491
vn -0.5082 0.6135 0.6044
vt -0.048064 -0.054085
vt -0.122496 0.191917
vt 0.105437 0.003352
vt -0.191917 0.039256
vt 0.054085 0.154503
vt -0.186183 0.256515
vt -0.048064 0.154503
vt 0.105437 -0.024753
vt 0.243208 0.154503
vt 0.104352 0.347730
vt 0.007453 0.347730
vt -0.386087 0.154503
vt 0.133160 0.279455
vt 0.243208 -0.117624
vt 0.365836 0.091098
vt 0.104352 0.007453
vt 0.243208 0.117624
vt 0.372443 -0.089734
vt -0.094721 -0.186183
vt 0.133062 -0.278475
vt 0.002903 0.386087
vt -0.117624 0.154503
vt 0.091098 0.037051
vt 0.089734 0.275103
vt 0.002903 -0.386087
vt -0.133160 -0.023249
vt -0.002903 0.154503
vt -0.299982 0.154503
vt 0.299982 0.353519
vt 0.353519 0.154503
vt 0.299982 -0.353519
vt -0.133062 0.330987
vt -0.142380 0.167975
vt -0.330459 0.046272
vt -0.190680 -0.051731
vt -0.332503 0.301904
vt -0.162026 0.167975
vt -0.042291 -0.051731
vt 0.066006 0.167975
vt -0.040160 0.361453
vt -0.204938 0.361453
vt -0.500715 0.167975
vt -0.042291 0.190680
vt -0.195739 0.330459
vt -0.006453 0.430376
vt 0.152518 0.042260
vt 0.151177 0.292737
vt -0.212948 -0.332503
vt -0.040160 -0.204938
vt -0.008887 -0.414099
vt 0.195739 0.046272
vt 0.106487 0.167975
vt 0.006453 -0.053257
vt 0.152518 0.289097
vt 0.100026 0.167975
vt 0.289097 0.042260
vt 0.289256 0.292737
vt 0.151177 -0.289256
vt 0.212948 0.301904
vt 0.008887 0.359265
vt -0.128644 0.167975
vt 0.430376 -0.053257
vt 0.496725 0.167975
vt 0.128644 -0.496725
vt 0.101166 0.148306
vt -0.059226 0.047225
vt 0.145574 -0.048474
vt -0.060841 0.250735
vt 0.262434 0.148306
vt 0.137516 0.326107
vt -0.185016 0.047225
vt -0.183542 0.250735
vt -0.349985 0.148306
vt 0.145574 0.208972
vt -0.059226 0.185016
vt -0.009069 0.369388
vt 0.244084 0.148306
vt 0.208972 -0.048474
vt 0.407307 0.046270
vt 0.217331 0.326107
vt 0.432690 0.273536
vt -0.060841 -0.183542
vt 0.137516 -0.217331
vt -0.024097 -0.384978
vt -0.369388 -0.019144
vt 0.184424 0.407307
vt 0.212246 -0.432690
vt -0.384978 0.351154
vt 0.009069 -0.019144
vt 0.149230 0.148306
vt -0.025117 0.148306
vt -0.184424 0.046270
vt -0.212246 0.273536
vt 0.024097 0.351154
vt -0.035511 0.151392
vt -0.260410 0.035831
vt 0.006567 -0.025543
vt -0.272317 0.275134
vt 0.210360 0.151392
vt 0.005580 0.326559
vt 0.000346 0.035831
vt 0.013174 0.275134
vt -0.271366 0.151392
vt -0.062782 0.006567
vt 0.000346 -0.260410
vt -0.300656 -0.192469
vt -0.081164 0.210360
vt -0.378481 0.091248
vt -0.063962 -0.005580
vt -0.081164 -0.210360
vt -0.371213 -0.084501
vt 0.013174 0.272317
vt -0.290546 0.184009
vt -0.300656 -0.028173
vt 0.081164 0.151392
vt 0.378481 0.025339
vt 0.371213 0.272810
vt -0.271366 0.367005
vt -0.515736 0.151392
vt -0.515736 -0.161538
vt -0.084501 0.272810
vt -0.091248 0.025339
vt 0.161538 0.151392
vt -0.515736 0.161538
s 0
f 1/1/1 2/2/1 3/3/1
f 2/4/2 1/5/2 6/6/2
f 1/7/3 3/8/3 4/9/3
f 1/7/4 4/9/4 5/10/4
f 1/5/5 5/11/5 6/6/5
f 2/4/6 6/6/6 11/12/6
f 3/3/7 2/2/7 7/13/7
f 4/14/8 3/3/8 8/15/8
f 5/16/9 4/17/9 9/18/9
f 6/19/10 5/16/10 10/20/10
f 2/2/11 11/21/11 7/13/11
f 3/3/12 7/13/12 8/15/12
f 4/22/13 8/23/13 9/24/13
f 5/16/14 9/18/14 10/20/14
f 6/19/15 10/20/15 11/25/15
f 7/26/16 11/27/16 12/28/16
f 8/15/17 7/13/17 12/29/17
f 9/24/18 8/23/18 12/30/18
f 10/20/19 9/18/19 12/31/19
f 11/27/20 10/32/20 12/28/20
f 13/33/21 14/34/21 15/35/21
f 14/34/22 13/33/22 18/36/22
f 13/37/23 15/38/23 16/39/23
f 13/37/24 16/39/24 17/40/24
f 13/33/25 17/41/25 18/36/25
f 14/34/26 18/36/26 23/42/26
f 15/43/27 14/44/27 19/45/27
f 16/39/28 15/38/28 20/46/28
f 17/40/29 16/39/29 21/47/29
f 18/48/30 17/49/30 22/50/30
f 14/51/31 23/52/31 19/53/31
f 15/43/32 19/45/32 20/54/32
f 16/55/33 20/56/33 21/57/33
f 17/49/34 21/58/34 22/50/34
f 18/59/35 22/60/35 23/52/35
f 19/53/36 23/52/36 24/61/36
f 20/56/37 19/62/37 24/63/37
f 21/57/38 20/56/38 24/63/38
f 22/50/39 21/58/39 24/64/39
f 23/52/40 22/60/40 24/61/40
f 25/65/41 26/66/41 27/67/41
f 26/66/42 25/65/42 30/68/42
f 25/65/43 27/67/43 28/69/43
f 25/65/44 28/69/44 29/70/44
f 25/65/45 29/70/45 30/68/45
f 26/71/46 30/72/46 35/73/46
f 27/74/47 26/75/47 31/76/47
f 28/77/48 27/78/48 32/79/48
f 29/80/49 28/77/49 33/81/49
f 30/82/50 29/83/50 34/84/50
f 26/71/51 35/73/51 31/85/51
f 27/74/52 31/76/52 32/86/52
f 28/77/53 32/79/53 33/81/53
f 29/83/54 33/87/54 34/84/54
f 30/72/55 34/88/55 35/73/55
f 31/89/56 35/90/56 36/91/56
f 32/92/57 31/89/57 36/91/57
f 33/93/58 32/92/58 36/91/58
f 34/94/59 33/93/59 36/91/59
f 35/90/60 34/94/60 36/91/60
f 37/95/61 38/96/61 39/97/61
f 38/96/62 37/95/62 42/98/62
f 37/95/63 39/97/63 40/99/63
f 37/95/64 40/99/64 41/100/64
f 37/95/65 41/100/65 42/98/65
f 38/101/66 42/102/66 47/103/66
f 39/104/67 38/105/67 43/106/67
f 40/107/68 39/104/68 44/108/68
f 41/109/69 40/110/69 45/111/69
f 42/112/70 41/109/70 46/113/70
f 38/101/71 47/103/71 43/114/71
f 39/104/72 43/106/72 44/108/72
f 40/115/73 44/116/73 45/117/73
f 41/109/74 45/111/74 46/113/74
f 42/112/75 46/113/75 47/118/75
f 43/114/76 47/103/76 48/119/76
f 44/108/77 43/106/77 48/120/77
f 45/121/78 44/122/78 48/123/78
f 46/113/79 45/111/79 48/124/79
f 47/118/80 46/113/80 48/124/80
