# Blender 5.0.1
# www.blender.org
mtllib searock_o.mtl
o searock_o_rock
usemtl searock_o_rock
v 0.385174 0.523603 0.046562
v 0.143736 0.218617 0.364317
v 0.208817 0.000000 -0.112962
v 0.203677 0.523603 -0.353728
v 0.200996 1.028068 -0.108731
v 0.148966 0.839302 0.377015
v -0.208817 0.025268 0.112962
v -0.147510 0.232039 -0.342821
v -0.142170 0.804230 -0.329855
v -0.195128 0.988440 0.105556
v -0.209946 0.523603 0.352388
v -0.368071 0.523603 -0.037901
v 0.203535 1.148563 -0.306739
v 0.305541 0.893942 -0.028470
v 0.030627 0.786924 -0.194759
v -0.147381 1.148563 -0.341615
v 0.030662 1.503445 -0.192122
v 0.313675 1.410770 -0.027721
v 0.034383 0.786874 0.087525
v -0.257935 0.877712 -0.080386
v -0.252496 1.414342 -0.079885
v 0.034673 1.566021 0.109289
v 0.217641 1.148563 0.242767
v -0.115802 1.148563 0.165857
v -0.123119 1.675243 0.111227
v -0.188106 1.456758 -0.051053
v -0.025897 1.301716 0.093281
v 0.079133 1.675243 0.181085
v -0.024555 2.001670 0.079559
v -0.180800 1.884494 -0.049552
v -0.006613 1.371771 -0.103949
v 0.146198 1.471160 0.017634
v 0.143095 1.875405 0.016997
v -0.005648 2.012604 -0.113822
v -0.096165 1.675243 -0.184077
v 0.112565 1.675243 -0.165763
vn 0.8746 -0.3846 0.2954
vn 0.8048 -0.0189 0.5933
vn 0.8962 -0.1781 -0.4063
vn 0.8921 0.2012 -0.4045
vn 0.8824 0.3990 0.2496
vn -0.0509 -0.0200 0.9985
vn 0.1790 -0.8850 0.4298
vn 0.3017 -0.3959 -0.8673
vn 0.2816 0.4204 -0.8625
vn 0.1079 0.9227 0.3701
vn -0.3750 -0.4022 0.8353
vn -0.2832 -0.8585 -0.4276
vn -0.0502 0.0231 -0.9985
vn -0.3040 0.8635 -0.4023
vn -0.4351 0.4331 0.7894
vn -0.9118 -0.1795 0.3694
vn -0.8841 -0.3692 -0.2864
vn -0.8004 0.0210 -0.5991
vn -0.8688 0.4093 -0.2788
vn -0.9034 0.2232 0.3660
vn 0.5832 -0.4814 -0.6543
vn 0.9345 -0.0142 -0.3556
vn 0.0932 -0.3349 -0.9376
vn 0.0928 0.3466 -0.9334
vn 0.5524 0.4875 -0.6762
vn 0.9469 -0.0154 0.3213
vn 0.3654 -0.9308 -0.0050
vn -0.4510 -0.5173 -0.7273
vn -0.4513 0.5291 -0.7186
vn 0.4040 0.8946 -0.1911
vn 0.5023 -0.5432 0.6727
vn -0.2987 -0.9543 0.0038
vn -0.9245 0.0097 -0.3812
vn -0.3609 0.9141 -0.1850
vn 0.5855 0.4682 0.6618
vn -0.2150 -0.2912 0.9322
vn -0.5468 -0.3877 0.7421
vn -0.8700 0.0084 0.4930
vn -0.6338 0.3236 0.7026
vn -0.2198 0.2084 0.9530
vn -0.7594 -0.2270 0.6097
vn -0.9349 0.0147 0.3546
vn -0.3237 -0.1293 0.9373
vn -0.3207 0.1869 0.9285
vn -0.7276 0.2804 0.6260
vn -0.8348 0.0162 -0.5504
vn -0.4779 -0.8120 -0.3351
vn 0.6393 -0.3417 0.6889
vn 0.5708 0.4037 0.7150
vn -0.5933 0.8049 -0.0125
vn -0.4075 -0.3436 -0.8461
vn 0.6412 -0.7407 -0.2004
vn 0.9285 0.0077 0.3713
vn 0.6229 0.7752 0.1047
vn -0.5168 0.3052 -0.7999
vn 0.0850 -0.2308 -0.9693
vn 0.7156 -0.3980 -0.5741
vn 0.9850 0.0073 -0.1725
vn 0.7800 0.3529 -0.5168
vn 0.0860 0.1810 -0.9797
vt -0.073354 0.441000
vt -0.391108 0.136014
vt 0.086170 -0.082603
vt -0.403806 0.756698
vt 0.326937 0.441000
vt 0.081939 0.945464
vt 0.152048 0.136014
vt 0.157278 0.756698
vt -0.201634 0.441000
vt 0.217129 0.086170
vt 0.152048 -0.391108
vt -0.200506 -0.139753
vt -0.211989 0.441000
vt -0.217129 -0.082603
vt 0.139198 0.149436
vt -0.209308 0.945464
vt 0.133858 0.721627
vt 0.157278 0.403806
vt 0.209308 -0.081939
vt -0.186816 0.132348
vt -0.200506 -0.057335
vt -0.139198 0.316029
vt -0.133858 -0.303064
vt -0.186816 0.905837
vt 0.139753 -0.057335
vt 0.379180 0.441000
vt -0.011109 0.441000
vt -0.316029 0.149436
vt -0.303064 0.721627
vt 0.132348 0.905837
vt -0.211847 1.065960
vt -0.313853 0.811339
vt -0.038939 0.704320
vt 0.001679 0.811339
vt 0.279947 1.065960
vt 0.000929 1.328167
vt 0.139070 1.065960
vt -0.038974 1.420842
vt -0.321986 1.328167
vt -0.269558 1.065960
vt 0.038939 0.167967
vt 0.313853 0.001679
vt 0.042695 -0.114317
vt 0.249624 0.795108
vt 0.244184 1.331739
vt 0.321986 -0.000929
vt 0.038974 -0.165330
vt 0.042984 0.136081
vt 0.313853 0.811339
vt 0.225953 1.065960
vt 0.042695 0.704270
vt -0.249624 0.053595
vt -0.314823 1.065960
vt -0.053595 0.795108
vt -0.053094 1.331739
vt -0.244184 -0.053094
vt 0.321986 1.328167
vt 0.042984 1.483418
vt -0.107490 1.065960
vt -0.249624 0.795108
vt 0.192649 1.065960
vt -0.244184 1.331739
vt 0.138018 1.592640
vt -0.024261 1.374154
vt 0.120073 1.219113
vt -0.022760 1.801891
vt -0.114808 1.592640
vt -0.017585 1.219113
vt 0.087445 1.592640
vt -0.016243 1.919067
vt 0.106351 1.919067
vt -0.157285 1.592640
vt -0.017585 -0.120073
vt -0.179794 0.024261
vt 0.001699 0.077157
vt 0.154509 1.388557
vt 0.151407 1.792802
vt -0.172489 -0.022760
vt -0.016243 0.106351
vt 0.002664 -0.087030
vt 0.179794 1.374154
vt 0.087853 1.592640
vt -0.001699 1.289168
vt 0.154509 -0.044426
vt -0.207876 1.592640
vt -0.044426 1.388557
vt -0.043789 1.792802
vt 0.151407 0.043789
vt 0.172489 1.801891
vt -0.002664 1.930001
vt -0.120877 1.592640
vt 0.077157 1.289168
vt 0.138971 1.592640
vt 0.087030 1.930001
s 0
f 1/1/1 2/2/1 3/3/1
f 2/2/2 1/1/2 6/4/2
f 1/1/3 3/3/3 4/5/3
f 1/1/4 4/5/4 5/6/4
f 1/1/5 5/6/5 6/4/5
f 2/7/6 6/8/6 11/9/6
f 3/10/7 2/11/7 7/12/7
f 4/13/8 3/14/8 8/15/8
f 5/16/9 4/13/9 9/17/9
f 6/18/10 5/19/10 10/20/10
f 2/7/11 11/9/11 7/21/11
f 3/10/12 7/12/12 8/22/12
f 4/13/13 8/15/13 9/17/13
f 5/19/14 9/23/14 10/20/14
f 6/8/15 10/24/15 11/9/15
f 7/25/16 11/26/16 12/27/16
f 8/28/17 7/25/17 12/27/17
f 9/29/18 8/28/18 12/27/18
f 10/30/19 9/29/19 12/27/19
f 11/26/20 10/30/20 12/27/20
f 13/31/21 14/32/21 15/33/21
f 14/34/22 13/35/22 18/36/22
f 13/31/23 15/33/23 16/37/23
f 13/31/24 16/37/24 17/38/24
f 13/31/25 17/38/25 18/39/25
f 14/34/26 18/36/26 23/40/26
f 15/41/27 14/42/27 19/43/27
f 16/37/28 15/33/28 20/44/28
f 17/38/29 16/37/29 21/45/29
f 18/46/30 17/47/30 22/48/30
f 14/49/31 23/50/31 19/51/31
f 15/41/32 19/43/32 20/52/32
f 16/53/33 20/54/33 21/55/33
f 17/47/34 21/56/34 22/48/34
f 18/57/35 22/58/35 23/50/35
f 19/51/36 23/50/36 24/59/36
f 20/60/37 19/51/37 24/59/37
f 21/55/38 20/54/38 24/61/38
f 22/58/39 21/62/39 24/59/39
f 23/50/40 22/58/40 24/59/40
f 25/63/41 26/64/41 27/65/41
f 26/64/42 25/63/42 30/66/42
f 25/67/43 27/68/43 28/69/43
f 25/67/44 28/69/44 29/70/44
f 25/63/45 29/71/45 30/66/45
f 26/64/46 30/66/46 35/72/46
f 27/73/47 26/74/47 31/75/47
f 28/69/48 27/68/48 32/76/48
f 29/70/49 28/69/49 33/77/49
f 30/78/50 29/79/50 34/80/50
f 26/81/51 35/82/51 31/83/51
f 27/73/52 31/75/52 32/84/52
f 28/85/53 32/86/53 33/87/53
f 29/79/54 33/88/54 34/80/54
f 30/89/55 34/90/55 35/82/55
f 31/83/56 35/82/56 36/91/56
f 32/86/57 31/92/57 36/93/57
f 33/87/58 32/86/58 36/93/58
f 34/94/59 33/87/59 36/93/59
f 35/82/60 34/90/60 36/91/60
