# Blender 5.0.1
# www.blender.org
mtllib searock_c.mtl
o searock_c_rock
usemtl searock_c_rock
v -0.026071 0.242972 -0.261124
v 0.190100 0.122659 -0.133264
v -0.088427 0.047849 -0.105720
v -0.281399 0.242972 -0.095481
v -0.088920 0.439182 -0.106309
v 0.177066 0.355036 -0.124127
v 0.085012 0.055385 0.101637
v -0.202460 0.114836 0.141929
v -0.193066 0.365163 0.135344
v 0.078870 0.417006 0.094294
v 0.266941 0.242972 0.090575
v 0.023444 0.242972 0.234818
v -0.067842 0.126596 -0.214312
v 0.102138 0.168422 -0.239356
v 0.058107 0.063315 -0.136169
v 0.203092 0.242972 -0.142372
v 0.088170 0.307326 -0.206622
v -0.172376 0.242972 -0.206081
v -0.190684 0.136445 -0.106038
v -0.071080 0.364903 -0.224543
v -0.188525 0.348293 -0.104837
v 0.059417 0.426681 -0.139240
v 0.275743 0.169304 -0.027530
v 0.257067 0.311650 -0.025666
v 0.000000 0.000000 0.000000
v 0.145264 0.078573 -0.014503
v -0.246225 0.177190 0.024583
v -0.155290 0.067226 0.015504
v -0.176417 0.442628 0.017614
v -0.270523 0.315245 0.027009
v 0.160364 0.424461 -0.016011
v 0.000000 0.449259 0.000000
v 0.203769 0.129134 0.113314
v -0.059670 0.058482 0.139832
v -0.219068 0.242972 0.153571
v -0.057485 0.420705 0.134711
v 0.221053 0.366465 0.122926
v 0.059986 0.140072 0.189496
v 0.149611 0.242972 0.178864
v -0.093338 0.174846 0.218732
v -0.091171 0.309517 0.213654
v 0.064749 0.354042 0.204542
vn -0.0440 0.0253 -0.9987
vn 0.6467 -0.5935 -0.4792
vn -0.3460 -0.8482 -0.4010
vn -0.9301 -0.0303 -0.3662
vn -0.2713 0.8918 -0.3621
vn 0.6370 0.5124 -0.5759
vn 0.3400 -0.8372 0.4284
vn -0.6708 -0.5578 0.4888
vn -0.5889 0.5329 0.6077
vn 0.1849 0.9187 0.3490
vn 0.8988 -0.0265 0.4375
vn 0.1459 -0.0461 0.9882
vn -0.2645 -0.5717 -0.7767
vn 0.3790 -0.2772 -0.8829
vn 0.2201 -0.8532 -0.4729
vn 0.7497 0.1050 -0.6535
vn 0.4036 0.3681 -0.8376
vn -0.6133 -0.0155 -0.7897
vn -0.6794 -0.6160 -0.3988
vn -0.2198 0.5512 -0.8049
vn -0.6706 0.5729 -0.4713
vn 0.2448 0.8306 -0.5001
vn 0.9170 -0.3689 -0.1519
vn 0.9004 0.3756 -0.2197
vn 0.0435 -0.9991 0.0010
vn 0.5036 -0.8629 -0.0431
vn -0.9050 -0.4181 0.0784
vn -0.5748 -0.8183 -0.0075
vn -0.5039 0.8635 0.0207
vn -0.9476 0.3015 0.1052
vn 0.4716 0.8787 -0.0741
vn 0.0679 0.9961 0.0569
vn 0.6228 -0.5841 0.5205
vn -0.1270 -0.8132 0.5680
vn -0.7621 0.0112 0.6473
vn -0.0835 0.8438 0.5300
vn 0.6613 0.5560 0.5035
vn 0.2510 -0.4779 0.8418
vn 0.4852 -0.0762 0.8711
vn -0.2227 -0.2809 0.9335
vn -0.2661 0.3164 0.9105
vn 0.2075 0.5112 0.8340
vt 0.026071 0.189000
vt -0.102138 0.114450
vt 0.067842 0.072624
vt 0.133264 0.068687
vt 0.239356 0.114450
vt 0.142372 0.189000
vt 0.172376 0.189000
vt 0.071080 0.310931
vt -0.088170 0.253354
vt 0.027530 0.115332
vt -0.088427 0.105720
vt 0.058107 0.136169
vt 0.000000 -0.000000
vt -0.095481 0.189000
vt -0.106038 0.082473
vt 0.024583 0.123218
vt -0.088920 -0.106309
vt -0.188525 -0.104837
vt -0.176417 0.017614
vt 0.177066 -0.124127
vt 0.059417 -0.139240
vt 0.160364 -0.016011
vt 0.190100 0.133264
vt 0.275743 0.027530
vt 0.145264 0.014503
vt -0.155290 -0.015504
vt 0.027009 0.261273
vt 0.124127 0.301064
vt 0.016011 0.370489
vt 0.025666 0.257678
vt 0.085012 0.001413
vt 0.203769 0.075162
vt 0.059986 0.086100
vt -0.202460 0.060864
vt -0.059670 0.004510
vt -0.093338 0.120874
vt -0.193066 0.311191
vt -0.219068 0.189000
vt -0.091171 0.255545
vt 0.078870 0.094294
vt -0.057485 0.134711
vt 0.064749 0.204542
vt 0.266941 0.189000
vt 0.221053 0.312493
vt 0.149611 0.189000
vt 0.064749 0.300070
vt 0.023444 0.189000
vt 0.221053 0.122926
vt -0.057485 0.366733
vt -0.122926 0.312493
vt -0.090575 0.189000
vt -0.193066 0.135344
vt 0.153571 0.189000
vt 0.135344 0.311191
vt 0.141929 0.060864
vt -0.059670 -0.139832
vt -0.202460 -0.141929
vt 0.085012 -0.101637
vt 0.203769 -0.113314
vt -0.113314 0.075162
vt 0.017614 0.388656
vt -0.104837 0.294321
vt 0.015504 0.013254
vt -0.190684 0.106038
vt -0.059417 0.372709
vt -0.177066 0.301064
vt -0.071080 -0.224543
vt -0.224543 0.310931
vt -0.206081 0.189000
vt 0.190684 0.082473
vt -0.067842 0.214312
vt -0.203092 0.189000
vt 0.102138 0.239356
s 1
f 1/1/1 14/2/14 13/3/13
f 2/4/2 14/5/14 16/6/16
f 1/1/1 13/3/13 18/7/18
f 1/1/1 18/7/18 20/8/20
f 1/1/1 20/8/20 17/9/17
f 2/4/2 16/6/16 23/10/23
f 3/11/3 15/12/15 25/13/25
f 4/14/4 19/15/19 27/16/27
f 5/17/5 21/18/21 29/19/29
f 6/20/6 22/21/22 31/22/31
f 2/23/2 23/24/23 26/25/26
f 3/11/3 25/13/25 28/26/28
f 4/14/4 27/16/27 30/27/30
f 5/17/5 29/19/29 32/13/32
f 6/28/6 31/29/31 24/30/24
f 7/31/7 33/32/33 38/33/38
f 8/34/8 34/35/34 40/36/40
f 9/37/9 35/38/35 41/39/41
f 10/40/10 36/41/36 42/42/42
f 11/43/11 37/44/37 39/45/39
f 39/45/39 42/46/42 12/47/12
f 39/45/39 37/44/37 42/46/42
f 37/48/37 10/40/10 42/42/42
f 42/46/42 41/39/41 12/47/12
f 42/46/42 36/49/36 41/39/41
f 36/49/36 9/37/9 41/39/41
f 41/39/41 40/36/40 12/47/12
f 41/39/41 35/38/35 40/36/40
f 35/38/35 8/34/8 40/36/40
f 40/36/40 38/33/38 12/47/12
f 40/36/40 34/35/34 38/33/38
f 34/35/34 7/31/7 38/33/38
f 38/33/38 39/45/39 12/47/12
f 38/33/38 33/32/33 39/45/39
f 33/32/33 11/43/11 39/45/39
f 24/30/24 37/50/37 11/51/11
f 24/30/24 31/29/31 37/50/37
f 31/22/31 10/40/10 37/48/37
f 32/13/32 36/41/36 10/40/10
f 32/13/32 29/19/29 36/41/36
f 29/19/29 9/52/9 36/41/36
f 30/27/30 35/53/35 9/54/9
f 30/27/30 27/16/27 35/53/35
f 27/16/27 8/55/8 35/53/35
f 28/26/28 34/56/34 8/57/8
f 28/26/28 25/13/25 34/56/34
f 25/13/25 7/58/7 34/56/34
f 26/25/26 33/59/33 7/58/7
f 26/25/26 23/24/23 33/59/33
f 23/10/23 11/51/11 33/60/33
f 31/22/31 32/13/32 10/40/10
f 31/22/31 22/21/22 32/13/32
f 22/21/22 5/17/5 32/13/32
f 29/61/29 30/27/30 9/54/9
f 29/61/29 21/62/21 30/27/30
f 21/62/21 4/14/4 30/27/30
f 27/16/27 28/63/28 8/55/8
f 27/16/27 19/15/19 28/63/28
f 19/64/19 3/11/3 28/26/28
f 25/13/25 26/25/26 7/58/7
f 25/13/25 15/12/15 26/25/26
f 15/12/15 2/23/2 26/25/26
f 23/10/23 24/30/24 11/51/11
f 23/10/23 16/6/16 24/30/24
f 16/6/16 6/28/6 24/30/24
f 17/9/17 22/65/22 6/66/6
f 17/9/17 20/8/20 22/65/22
f 20/67/20 5/17/5 22/21/22
f 20/67/20 21/18/21 5/17/5
f 20/68/20 18/69/18 21/62/21
f 18/69/18 4/14/4 21/62/21
f 18/69/18 19/15/19 4/14/4
f 18/7/18 13/3/13 19/70/19
f 13/71/13 3/11/3 19/64/19
f 16/72/16 17/9/17 6/66/6
f 16/72/16 14/2/14 17/9/17
f 14/2/14 1/1/1 17/9/17
f 13/71/13 15/12/15 3/11/3
f 13/71/13 14/73/14 15/12/15
f 14/73/14 2/23/2 15/12/15
