# Blender 5.0.1
# www.blender.org
mtllib searock_j.mtl
o searock_j_rock
usemtl searock_j_rock
v -0.293813 0.219103 0.793161
v -0.775412 0.085795 0.107704
v 0.112630 0.021956 0.419460
v 0.676881 0.219103 0.671817
v 0.137091 0.461450 0.510555
v -0.750889 0.348228 0.105018
v -0.112630 0.000000 -0.419460
v 0.764906 0.089614 -0.061002
v 0.816636 0.357418 -0.066668
v -0.100782 0.416312 -0.375334
v -0.714776 0.219103 -0.675768
v 0.283943 0.219103 -0.692959
v -0.104935 0.154103 0.020099
v 0.376058 0.082065 -0.083068
v -0.069437 0.064645 0.299528
v -0.454425 0.154103 0.502504
v -0.101657 0.257122 0.288800
v 0.379583 0.227232 -0.089930
v 0.430932 0.032962 0.466129
v -0.064291 0.089966 0.773935
v -0.056436 0.215811 0.758649
v 0.382876 0.255018 0.450128
v 0.690004 0.154103 0.249292
v 0.421608 0.154103 0.763492
vn -0.1742 -0.9364 0.3045
vn -0.8229 0.0827 0.5621
vn 0.0650 -0.8517 0.5200
vn 0.0905 0.6836 0.7242
vn -0.2741 0.8957 0.3501
vn -0.9939 0.0922 -0.0612
vn -0.0890 -0.9948 0.0499
vn 0.2437 -0.9496 0.1971
vn 0.3389 0.9111 0.2348
vn -0.1180 0.9928 -0.0189
vn -0.2670 -0.9464 -0.1817
vn 0.1022 -0.9948 -0.0014
vn 0.9714 -0.1845 0.1493
vn 0.0888 0.9933 -0.0745
vn -0.2254 0.9595 -0.1691
vn -0.0109 -0.7726 -0.6348
vn 0.2421 -0.8977 -0.3682
vn 0.7690 -0.1616 -0.6184
vn 0.1781 0.9180 -0.3542
vn -0.0092 0.8445 -0.5355
vn -0.1999 -0.9402 -0.2756
vn -0.2154 -0.0409 -0.9757
vn -0.3410 -0.9070 -0.2471
vn -0.4378 0.8412 -0.3172
vn -0.2166 0.9124 -0.3472
vn 0.7314 -0.0499 -0.6801
vn -0.0346 -0.9957 -0.0856
vn -0.1987 -0.9785 0.0544
vn -0.2188 0.9700 0.1063
vn 0.0215 0.9984 -0.0515
vn 0.3384 -0.9337 -0.1173
vn -0.0810 -0.9953 0.0540
vn -0.5509 0.1344 0.8236
vn -0.0256 0.9956 0.0900
vn 0.2815 0.9582 -0.0510
vn 0.6060 -0.7298 0.3163
vn 0.1291 -0.9169 0.3776
vn 0.0055 0.1202 0.9927
vn 0.1196 0.9492 0.2909
vn 0.4347 0.8715 0.2269
vt -0.299754 -0.771036
vt -0.781353 -0.085579
vt 0.106690 -0.397335
vt 0.085579 0.041692
vt 0.771036 0.175000
vt 0.082893 0.304124
vt 0.670940 -0.649692
vt -0.299754 0.175000
vt 0.670940 0.175000
vt 0.131150 0.417347
vt -0.299754 0.771036
vt 0.131150 0.488430
vt -0.756829 0.082893
vt -0.697893 0.175000
vt -0.118571 0.441585
vt 0.758966 0.083127
vt 0.670940 0.649692
vt 0.810695 -0.088793
vt -0.106723 -0.397458
vt -0.720717 0.697893
vt -0.649692 0.175000
vt 0.083127 0.045511
vt 0.088793 0.313315
vt -0.720717 -0.697893
vt 0.278002 0.715084
vt 0.715084 0.175000
vt 0.278002 -0.715084
vt -0.110875 0.002025
vt 0.370117 0.105192
vt -0.075378 -0.277403
vt -0.370117 0.037962
vt 0.110875 0.110000
vt -0.373643 0.183129
vt -0.460365 -0.480379
vt -0.110875 -0.002025
vt -0.460365 0.480379
vt -0.107598 0.266675
vt 0.373643 -0.112054
vt 0.105192 0.037962
vt 0.112054 0.183129
vt -0.227167 0.110000
vt 0.424991 -0.444004
vt -0.070232 -0.751811
vt -0.062377 0.736524
vt 0.376935 0.428003
vt 0.684063 -0.227167
vt -0.460365 0.110000
vt -0.070232 0.045863
vt -0.062377 0.171708
vt 0.684063 0.227167
vt 0.415667 -0.741367
vt 0.415667 0.110000
vt 0.415667 0.741367
s 0
f 1/1/1 2/2/1 3/3/1
f 2/4/2 1/5/2 6/6/2
f 1/1/3 3/3/3 4/7/3
f 1/8/4 4/9/4 5/10/4
f 1/11/5 5/12/5 6/13/5
f 2/4/6 6/6/6 11/14/6
f 3/3/7 2/2/7 7/15/7
f 4/7/8 3/3/8 8/16/8
f 5/12/9 4/17/9 9/18/9
f 6/13/10 5/12/10 10/19/10
f 2/2/11 11/20/11 7/15/11
f 3/3/12 7/15/12 8/16/12
f 4/21/13 8/22/13 9/23/13
f 5/12/14 9/18/14 10/19/14
f 6/13/15 10/19/15 11/24/15
f 7/15/16 11/20/16 12/25/16
f 8/16/17 7/15/17 12/25/17
f 9/23/18 8/22/18 12/26/18
f 10/19/19 9/18/19 12/27/19
f 11/24/20 10/19/20 12/27/20
f 13/28/21 14/29/21 15/30/21
f 14/31/22 13/32/22 18/33/22
f 13/28/23 15/30/23 16/34/23
f 13/35/24 16/36/24 17/37/24
f 13/35/25 17/37/25 18/38/25
f 14/39/26 18/40/26 23/41/26
f 15/30/27 14/29/27 19/42/27
f 16/34/28 15/30/28 20/43/28
f 17/37/29 16/36/29 21/44/29
f 18/38/30 17/37/30 22/45/30
f 14/29/31 23/46/31 19/42/31
f 15/30/32 19/42/32 20/43/32
f 16/47/33 20/48/33 21/49/33
f 17/37/34 21/44/34 22/45/34
f 18/38/35 22/45/35 23/50/35
f 19/42/36 23/46/36 24/51/36
f 20/43/37 19/42/37 24/51/37
f 21/49/38 20/48/38 24/52/38
f 22/45/39 21/44/39 24/53/39
f 23/50/40 22/45/40 24/53/40
