# Blender 5.0.1
# www.blender.org
mtllib searock_m.mtl
o searock_m_rock
usemtl searock_m_rock
v 0.025195 0.284304 0.261851
v -0.202869 0.104524 0.145483
v 0.087389 0.022522 0.108756
v 0.295135 0.284304 0.109606
v 0.104477 0.599477 0.130022
v -0.184263 0.447883 0.132777
v -0.087389 0.000000 -0.108756
v 0.193527 0.118935 -0.125209
v 0.220368 0.473044 -0.143539
v -0.091550 0.581607 -0.113934
v -0.253941 0.284304 -0.088380
v -0.017306 0.284304 -0.244771
v 0.164571 0.671184 0.104119
v -0.004546 0.521498 0.166953
v 0.133956 0.401806 -0.000089
v 0.189720 0.671184 -0.098448
v 0.131803 0.935538 -0.000206
v -0.004341 0.819538 0.165412
v -0.081354 0.438179 -0.011828
v 0.043139 0.511238 -0.191602
v 0.039992 0.810694 -0.167937
v -0.083778 0.909845 -0.011961
v -0.160901 0.671184 0.090087
v -0.133871 0.671184 -0.121662
v 0.111893 0.997224 0.075173
v 0.001969 0.877842 0.130555
v 0.054508 0.779837 0.011332
v 0.078024 0.997224 -0.062775
v 0.046844 1.190173 0.013108
v 0.002529 1.120885 0.134262
v -0.079042 0.788743 0.042287
v -0.029347 0.877459 -0.076620
v -0.030001 1.121989 -0.080952
v -0.083264 1.219167 0.043266
v -0.103669 0.997224 0.115392
v -0.129775 0.997224 -0.017293
vn -0.0356 -0.5108 0.8590
vn -0.4901 0.0587 0.8697
vn 0.4573 -0.3655 0.8108
vn 0.4776 0.2341 0.8468
vn -0.2132 0.4222 0.8811
vn -0.9642 0.0618 0.2581
vn -0.2281 -0.9326 0.2798
vn 0.7793 -0.6188 0.0986
vn 0.8524 0.5074 0.1266
vn -0.4422 0.8476 0.2932
vn -0.8533 -0.4865 -0.1876
vn 0.3714 -0.9056 -0.2047
vn 0.9354 -0.0886 -0.3423
vn 0.2884 0.9099 -0.2984
vn -0.8779 0.4732 -0.0734
vn -0.5332 -0.2545 -0.8068
vn 0.1413 -0.4554 -0.8790
vn 0.4436 -0.0798 -0.8927
vn 0.0580 0.4142 -0.9083
vn -0.5374 0.2236 -0.8131
vn 0.5824 -0.3500 0.7337
vn 0.3447 0.0046 0.9387
vn 0.9798 -0.1584 0.1216
vn 0.9781 0.1692 0.1214
vn 0.5811 0.3601 0.7299
vn -0.4374 0.0050 0.8993
vn -0.1717 -0.8626 0.4758
vn 0.7472 -0.3589 -0.5594
vn 0.6586 0.3846 -0.6468
vn -0.1294 0.8590 0.4953
vn -0.7091 -0.4714 0.5243
vn -0.1253 -0.8858 -0.4468
vn 0.4759 0.0743 -0.8764
vn -0.0662 0.8174 -0.5722
vn -0.6992 0.4600 0.5473
vn -0.9544 -0.2725 -0.1218
vn -0.6446 -0.4400 -0.6252
vn -0.3098 0.0717 -0.9481
vn -0.5444 0.4420 -0.7129
vn -0.9585 0.2574 -0.1224
vn 0.7035 -0.3648 0.6099
vn 0.4625 -0.0146 0.8865
vn 0.9547 -0.1832 -0.2344
vn 0.9420 0.2432 -0.2313
vn 0.7497 0.4178 0.5132
vn -0.1583 -0.0147 0.9873
vn 0.1029 -0.7457 0.6583
vn 0.4731 -0.3297 -0.8170
vn 0.5622 0.3798 -0.7346
vn 0.3014 0.7760 0.5540
vn -0.4975 -0.3388 0.7986
vn -0.1975 -0.7444 -0.6379
vn 0.1466 -0.0171 -0.9890
vn 0.0366 0.7946 -0.6060
vn -0.5028 0.3086 0.8074
vn -0.9651 -0.1806 0.1899
vn -0.7468 -0.3443 -0.5690
vn -0.5231 -0.0165 -0.8521
vn -0.7580 0.3147 -0.5713
vn -0.9699 0.1512 0.1908
vt 0.025863 0.273000
vt -0.202201 0.093220
vt 0.088057 0.011219
vt -0.183595 0.436579
vt 0.295803 0.273000
vt 0.105145 0.588173
vt 0.140240 0.093220
vt 0.127534 0.436579
vt -0.093623 0.273000
vt 0.088057 -0.103513
vt -0.202201 -0.140240
vt -0.086721 0.113999
vt -0.104363 0.273000
vt -0.103513 0.011219
vt 0.130452 0.107631
vt -0.124780 0.588173
vt 0.148782 0.461740
vt -0.183595 0.127534
vt 0.105145 0.124780
vt -0.090882 -0.119177
vt -0.113999 -0.011304
vt 0.194195 0.130452
vt 0.221036 -0.148782
vt -0.119177 0.570304
vt 0.086721 -0.011304
vt 0.253273 0.273000
vt 0.016638 0.273000
vt -0.194195 0.107631
vt -0.221036 0.461740
vt 0.090882 0.570304
vt 0.165239 0.659880
vt -0.003878 0.510194
vt 0.134624 0.390502
vt -0.003673 0.808234
vt -0.098876 0.659880
vt 0.005332 0.390502
vt 0.103691 0.659880
vt 0.005449 0.924235
vt 0.132471 0.924235
vt -0.160233 0.659880
vt 0.134624 0.005332
vt -0.003878 -0.161711
vt -0.080686 0.017071
vt 0.196845 0.499934
vt 0.173180 0.799390
vt -0.003673 0.160169
vt 0.132471 -0.005449
vt -0.083110 -0.017203
vt 0.161711 0.510194
vt 0.084844 0.659880
vt -0.017071 0.426875
vt 0.043807 0.196845
vt -0.190388 0.659880
vt -0.043807 0.499934
vt -0.040660 0.799390
vt 0.040660 -0.173180
vt 0.160169 0.808234
vt -0.017203 0.898541
vt -0.126905 0.659880
vt -0.196845 0.499934
vt 0.133203 0.659880
vt 0.083110 0.898541
vt -0.069930 0.985920
vt -0.125312 0.866538
vt -0.006089 0.768533
vt 0.002637 0.866538
vt 0.112561 0.985920
vt 0.003197 1.109581
vt 0.068018 0.985920
vt -0.007865 1.178869
vt -0.129020 1.109581
vt -0.103001 0.985920
vt 0.055176 -0.006089
vt 0.002637 -0.125312
vt -0.078374 -0.037044
vt -0.078692 0.985920
vt -0.055176 0.768533
vt 0.028679 0.866155
vt -0.047512 1.178869
vt 0.029333 1.110685
vt 0.003197 0.129020
vt 0.047512 0.007865
vt -0.082596 0.038023
vt -0.078374 0.777439
vt -0.028679 0.081863
vt -0.029333 -0.086195
vt -0.082596 1.207863
vt 0.037044 0.777439
vt 0.110149 0.985920
vt -0.022536 0.985920
vt -0.081863 0.866155
vt 0.129107 0.985920
vt 0.038023 1.207863
vt -0.086195 1.110685
s 0
f 1/1/1 2/2/1 3/3/1
f 2/2/2 1/1/2 6/4/2
f 1/1/3 3/3/3 4/5/3
f 1/1/4 4/5/4 5/6/4
f 1/1/5 5/6/5 6/4/5
f 2/7/6 6/8/6 11/9/6
f 3/10/7 2/11/7 7/12/7
f 4/13/8 3/14/8 8/15/8
f 5/16/9 4/13/9 9/17/9
f 6/18/10 5/19/10 10/20/10
f 2/7/11 11/9/11 7/21/11
f 3/10/12 7/12/12 8/22/12
f 4/13/13 8/15/13 9/17/13
f 5/19/14 9/23/14 10/20/14
f 6/8/15 10/24/15 11/9/15
f 7/25/16 11/26/16 12/27/16
f 8/28/17 7/25/17 12/27/17
f 9/29/18 8/28/18 12/27/18
f 10/30/19 9/29/19 12/27/19
f 11/26/20 10/30/20 12/27/20
f 13/31/21 14/32/21 15/33/21
f 14/32/22 13/31/22 18/34/22
f 13/35/23 15/36/23 16/37/23
f 13/35/24 16/37/24 17/38/24
f 13/31/25 17/39/25 18/34/25
f 14/32/26 18/34/26 23/40/26
f 15/41/27 14/42/27 19/43/27
f 16/37/28 15/36/28 20/44/28
f 17/38/29 16/37/29 21/45/29
f 18/46/30 17/47/30 22/48/30
f 14/49/31 23/50/31 19/51/31
f 15/41/32 19/43/32 20/52/32
f 16/53/33 20/54/33 21/55/33
f 17/47/34 21/56/34 22/48/34
f 18/57/35 22/58/35 23/50/35
f 19/51/36 23/50/36 24/59/36
f 20/60/37 19/51/37 24/59/37
f 21/55/38 20/54/38 24/61/38
f 22/62/39 21/55/39 24/61/39
f 23/50/40 22/58/40 24/59/40
f 25/63/41 26/64/41 27/65/41
f 26/66/42 25/67/42 30/68/42
f 25/63/43 27/65/43 28/69/43
f 25/63/44 28/69/44 29/70/44
f 25/63/45 29/70/45 30/71/45
f 26/66/46 30/68/46 35/72/46
f 27/73/47 26/74/47 31/75/47
f 28/76/48 27/77/48 32/78/48
f 29/79/49 28/76/49 33/80/49
f 30/81/50 29/82/50 34/83/50
f 26/66/51 35/72/51 31/84/51
f 27/73/52 31/75/52 32/85/52
f 28/76/53 32/78/53 33/80/53
f 29/82/54 33/86/54 34/83/54
f 30/68/55 34/87/55 35/72/55
f 31/88/56 35/89/56 36/90/56
f 32/91/57 31/88/57 36/90/57
f 33/80/58 32/78/58 36/92/58
f 34/93/59 33/94/59 36/90/59
f 35/89/60 34/93/60 36/90/60
