# Blender 5.0.1
# www.blender.org
mtllib searock_n.mtl
o searock_n_rock
usemtl searock_n_rock
v 0.164623 0.784401 -0.917990
v 0.482752 0.350721 -0.399564
v -0.150236 0.065011 -0.679794
v -0.545268 0.784401 -0.847098
v -0.152533 1.526787 -0.690189
v 0.440989 1.185802 -0.396217
v 0.000000 0.000000 0.000000
v -0.633506 0.355340 -0.310097
v -0.607349 1.193244 -0.312194
v -0.002119 1.547588 -0.009589
v 0.430733 0.784401 0.182426
v -0.317221 0.784401 0.199226
v 0.247824 1.736721 -0.062164
v -0.195341 1.314527 0.126352
v 0.076261 1.175825 -0.335432
v 0.284458 1.736721 -0.599416
v 0.079380 2.305638 -0.335497
v -0.187020 2.093279 0.055273
v -0.406250 1.056596 -0.325302
v -0.095444 1.370937 -0.726970
v -0.094897 2.106816 -0.731640
v -0.389701 2.374280 -0.325649
v -0.539496 1.736721 -0.080307
v -0.482408 1.736721 -0.565720
v -0.077504 2.539280 -0.605958
v 0.071121 2.196506 -0.355842
v -0.231483 2.000045 -0.510187
v -0.419599 2.539280 -0.612844
v -0.230760 3.061030 -0.505138
v 0.044297 2.849251 -0.355713
v -0.185699 1.971753 -0.190646
v -0.481605 2.206128 -0.353197
v -0.484503 2.875976 -0.353183
v -0.187274 3.068733 -0.201638
v -0.022983 2.539280 -0.125904
v -0.332074 2.539280 -0.119800
vn 0.5254 -0.4657 -0.7120
vn 0.8679 0.0454 -0.4946
vn -0.0955 -0.2750 -0.9567
vn -0.0961 0.2542 -0.9624
vn 0.5915 0.4566 -0.6646
vn 0.9974 0.0497 0.0521
vn 0.4716 -0.8618 -0.1866
vn -0.6952 -0.5015 -0.5149
vn -0.7410 0.4892 -0.4599
vn 0.5462 0.8249 -0.1459
vn 0.7374 -0.5084 0.4447
vn -0.4992 -0.8660 0.0275
vn -0.9899 0.0306 -0.1382
vn -0.5373 0.8382 0.0931
vn 0.7608 0.5268 0.3790
vn 0.0218 -0.2378 0.9711
vn -0.5766 -0.4123 0.7054
vn -0.8596 0.0281 0.5101
vn -0.5926 0.4309 0.6806
vn 0.0217 0.2555 0.9666
vn 0.6874 -0.4771 0.5476
vn 0.3224 0.0826 0.9430
vn 0.9451 -0.3205 0.0644
vn 0.9480 0.3117 0.0646
vn 0.5761 0.4862 0.6570
vn -0.4327 0.0865 0.8974
vn 0.2277 -0.8875 0.4005
vn 0.6692 -0.5050 -0.5451
vn 0.6747 0.4965 -0.5461
vn 0.1328 0.8301 0.5416
vn -0.7578 -0.3474 0.5523
vn 0.1970 -0.8403 -0.5051
vn 0.3237 -0.0062 -0.9461
vn 0.1165 0.8662 -0.4860
vn -0.6527 0.4008 0.6429
vn -0.9818 -0.1508 -0.1155
vn -0.6083 -0.3242 -0.7244
vn -0.3891 -0.0056 -0.9212
vn -0.6318 0.3519 -0.6906
vn -0.9760 0.1851 -0.1148
vn 0.5808 -0.3002 -0.7566
vn 0.8801 0.0363 -0.4733
vn 0.0198 -0.1803 -0.9834
vn 0.0197 0.1953 -0.9806
vn 0.6312 0.3218 -0.7058
vn 0.9437 0.0387 0.3285
vn 0.5923 -0.7907 -0.1549
vn -0.6905 -0.3603 -0.6272
vn -0.6618 0.3737 -0.6500
vn 0.6436 0.7572 -0.1114
vn 0.6777 -0.2722 0.6831
vn -0.6278 -0.7781 0.0211
vn -0.9714 -0.0042 -0.2374
vn -0.5645 0.8233 0.0600
vn 0.7130 0.3111 0.6284
vn 0.0196 -0.1189 0.9927
vn -0.6113 -0.2513 0.7504
vn -0.8396 -0.0036 0.5431
vn -0.5726 0.2759 0.7720
vn 0.0195 0.1475 0.9889
vt -0.304083 0.672000
vt -0.622212 0.238321
vt 0.010776 -0.047390
vt 0.119035 0.238321
vt 0.637461 0.672000
vt 0.115688 1.073401
vt 0.405807 0.672000
vt 0.013073 1.414386
vt -0.580449 1.073401
vt -0.462955 0.672000
vt -0.010776 0.399265
vt 0.622212 0.119035
vt 0.139460 -0.280529
vt -0.566569 0.672000
vt -0.399265 -0.047390
vt -0.029569 0.242940
vt -0.409661 1.414386
vt -0.031665 1.080844
vt 0.580449 -0.115688
vt -0.013073 -0.409661
vt 0.137341 0.270939
vt -0.280529 -0.112401
vt -0.494046 0.029569
vt -0.467889 -0.031665
vt -0.270939 1.435187
vt 0.139460 -0.112401
vt 0.570193 0.672000
vt -0.177761 0.672000
vt -0.494046 0.242940
vt 0.479755 0.672000
vt 0.137341 1.435187
vt -0.467889 1.080844
vt -0.218364 1.624320
vt -0.406880 1.202126
vt 0.054903 1.063424
vt -0.055880 1.202126
vt 0.387284 1.624320
vt -0.047559 1.980878
vt 0.318887 1.624320
vt 0.054969 2.193238
vt 0.218840 2.193238
vt -0.400036 1.624320
vt 0.215721 0.054903
vt -0.055880 -0.406880
vt -0.266790 0.044773
vt 0.446442 1.258536
vt 0.451111 1.994416
vt -0.047559 0.335802
vt 0.218840 -0.054969
vt -0.250241 -0.045121
vt 0.406880 1.202126
vt 0.200222 1.624320
vt -0.044773 0.944196
vt 0.044016 0.446442
vt -0.423918 1.624320
vt -0.044016 1.258536
vt -0.044563 1.994416
vt 0.044563 -0.451111
vt 0.335802 1.980878
vt -0.045121 2.261880
vt -0.285191 1.624320
vt 0.266790 0.944196
vt 0.342948 1.624320
vt 0.250241 2.261880
vt -0.061956 2.426880
vt -0.210582 2.084105
vt 0.092023 1.887645
vt 0.075313 2.084105
vt 0.325429 2.426880
vt 0.075185 2.736851
vt 0.280139 2.426880
vt 0.091300 2.948629
vt -0.183757 2.736851
vt -0.154625 2.426880
vt -0.092023 0.229658
vt 0.210582 0.075313
vt -0.046239 -0.089883
vt -0.332316 2.426880
vt -0.229658 1.887645
vt -0.072668 2.093728
vt -0.224610 2.948629
vt -0.072654 2.763576
vt 0.183757 -0.075185
vt -0.091300 -0.224610
vt -0.047814 0.078890
vt 0.210582 2.084105
vt 0.116477 2.426880
vt -0.046239 1.859353
vt -0.342145 0.072668
vt -0.345043 -0.072654
vt -0.078890 2.956333
vt -0.192614 2.426880
vt -0.342145 2.093728
vt 0.160729 2.426880
vt -0.047814 2.956333
vt -0.345043 2.763576
s 0
f 1/1/1 2/2/1 3/3/1
f 2/4/2 1/5/2 6/6/2
f 1/1/3 3/3/3 4/7/3
f 1/1/4 4/7/4 5/8/4
f 1/1/5 5/8/5 6/9/5
f 2/4/6 6/6/6 11/10/6
f 3/11/7 2/12/7 7/13/7
f 4/14/8 3/15/8 8/16/8
f 5/17/9 4/14/9 9/18/9
f 6/19/10 5/20/10 10/21/10
f 2/4/11 11/10/11 7/22/11
f 3/11/12 7/13/12 8/23/12
f 4/14/13 8/16/13 9/18/13
f 5/20/14 9/24/14 10/21/14
f 6/6/15 10/25/15 11/10/15
f 7/26/16 11/27/16 12/28/16
f 8/29/17 7/26/17 12/28/17
f 9/18/18 8/16/18 12/30/18
f 10/31/19 9/32/19 12/28/19
f 11/27/20 10/31/20 12/28/20
f 13/33/21 14/34/21 15/35/21
f 14/36/22 13/37/22 18/38/22
f 13/33/23 15/35/23 16/39/23
f 13/33/24 16/39/24 17/40/24
f 13/37/25 17/41/25 18/38/25
f 14/36/26 18/38/26 23/42/26
f 15/43/27 14/44/27 19/45/27
f 16/39/28 15/35/28 20/46/28
f 17/40/29 16/39/29 21/47/29
f 18/48/30 17/49/30 22/50/30
f 14/51/31 23/52/31 19/53/31
f 15/43/32 19/45/32 20/54/32
f 16/55/33 20/56/33 21/57/33
f 17/49/34 21/58/34 22/50/34
f 18/59/35 22/60/35 23/52/35
f 19/53/36 23/52/36 24/61/36
f 20/56/37 19/62/37 24/63/37
f 21/57/38 20/56/38 24/63/38
f 22/64/39 21/57/39 24/63/39
f 23/52/40 22/60/40 24/61/40
f 25/65/41 26/66/41 27/67/41
f 26/68/42 25/69/42 30/70/42
f 25/65/43 27/67/43 28/71/43
f 25/65/44 28/71/44 29/72/44
f 25/65/45 29/72/45 30/73/45
f 26/68/46 30/70/46 35/74/46
f 27/75/47 26/76/47 31/77/47
f 28/78/48 27/79/48 32/80/48
f 29/81/49 28/78/49 33/82/49
f 30/83/50 29/84/50 34/85/50
f 26/86/51 35/87/51 31/88/51
f 27/75/52 31/77/52 32/89/52
f 28/78/53 32/80/53 33/82/53
f 29/84/54 33/90/54 34/85/54
f 30/70/55 34/91/55 35/74/55
f 31/88/56 35/87/56 36/92/56
f 32/93/57 31/88/57 36/92/57
f 33/82/58 32/80/58 36/94/58
f 34/95/59 33/96/59 36/92/59
f 35/87/60 34/95/60 36/92/60
