# Blender 5.0.1
# www.blender.org
mtllib searock_i.mtl
o searock_i_rock
usemtl searock_i_rock
v -0.396119 0.351466 -0.965570
v 0.901970 0.134070 -0.956322
v -0.627107 0.000000 -0.326577
v -1.537180 0.351466 0.060802
v -0.519939 0.643021 -0.270767
v 0.708430 0.522133 -0.750583
v 0.627107 0.001767 0.326577
v -0.818378 0.153490 0.872467
v -0.873494 0.562750 0.931057
v 0.503148 0.631866 0.262023
v 1.527231 0.351466 -0.058645
v 0.463376 0.351466 1.122968
v 0.211651 0.253966 0.320133
v -0.362205 0.139908 0.883605
v -0.016473 0.110293 -0.033964
v 0.344870 0.253966 -0.635767
v 0.061177 0.430864 -0.054846
v -0.360628 0.349949 0.752502
v -0.693214 0.108075 0.148021
v -0.344702 0.167447 -0.571202
v -0.343314 0.356394 -0.686584
v -0.690325 0.398621 0.147244
v -0.943950 0.253966 0.643766
v -0.962694 0.253966 -0.229241
vn -0.1380 -0.8459 -0.5152
vn 0.0901 0.5012 -0.8606
vn -0.4941 -0.6739 -0.5493
vn -0.3731 0.8299 -0.4147
vn -0.0645 0.9160 -0.3959
vn 0.5902 0.5877 -0.5534
vn 0.0493 -0.9945 -0.0920
vn -0.3345 -0.9400 0.0670
vn -0.2811 0.9595 -0.0186
vn 0.0605 0.9936 -0.0954
vn 0.3544 -0.9349 -0.0205
vn -0.0597 -0.9913 0.1174
vn -0.7575 -0.1914 0.6242
vn -0.0207 0.9979 0.0606
vn 0.2478 0.9673 -0.0546
vn 0.4815 -0.7618 0.4335
vn 0.0600 -0.9094 0.4116
vn -0.1652 -0.1615 0.9729
vn 0.1044 0.9442 0.3123
vn 0.3393 0.8897 0.3054
vn 0.3392 -0.9274 0.1577
vn 0.5901 0.4243 0.6869
vn 0.4589 -0.8862 0.0639
vn 0.6547 0.7503 0.0912
vn 0.3586 0.8915 0.2767
vn -0.2383 0.5155 0.8231
vn 0.0133 -0.9992 0.0373
vn 0.1070 -0.9797 -0.1696
vn 0.1593 0.9634 -0.2156
vn -0.0185 0.9958 0.0901
vn -0.2510 -0.9556 0.1543
vn -0.0217 -0.9955 -0.0927
vn -0.0145 -0.5210 -0.8534
vn -0.0633 0.9950 -0.0767
vn -0.1927 0.9641 0.1825
vn -0.4874 -0.8731 0.0105
vn -0.2412 -0.9506 -0.1953
vn -0.4791 -0.4549 -0.7507
vn -0.2772 0.9468 -0.1633
vn -0.4801 0.8772 0.0103
vt -0.397699 0.966393
vt 0.900389 0.957145
vt -0.628688 0.327400
vt -0.900389 0.045104
vt 0.397699 0.262500
vt -0.706850 0.433166
vt -1.538760 -0.059979
vt -0.397699 -0.966393
vt -1.538760 0.059979
vt -0.521520 -0.271590
vt 0.706850 -0.751406
vt 0.957145 0.045104
vt 0.751406 0.433166
vt 0.059468 0.262500
vt 0.625527 -0.325754
vt -0.819958 -0.871644
vt -0.875075 0.930234
vt 0.501567 0.261200
vt 1.525650 0.059468
vt 0.059979 0.262500
vt 0.871644 0.064524
vt 0.930234 0.473784
vt 1.525650 -0.059468
vt 0.461795 -1.122145
vt -0.875075 0.473784
vt -0.819958 0.064524
vt 0.461795 0.262500
vt 0.461795 1.122145
vt 0.210071 -0.319310
vt -0.363785 -0.882782
vt -0.018053 0.034787
vt -0.363785 0.050942
vt 0.210071 0.165000
vt -0.362208 0.260983
vt 0.343289 0.636590
vt 0.210071 0.319310
vt 0.343289 -0.636590
vt 0.059596 -0.055669
vt -0.362208 0.751679
vt -0.945530 0.165000
vt -0.694795 -0.147198
vt -0.346283 0.572025
vt -0.344895 -0.687407
vt -0.691906 0.146421
vt -0.945530 -0.642943
vt -0.343289 0.165000
vt 0.346283 0.078480
vt 0.344895 0.267428
vt -0.945530 0.642943
vt -0.964274 0.230064
vt 0.964274 0.165000
vt -0.964274 -0.230064
s 0
f 1/1/1 2/2/1 3/3/1
f 2/4/2 1/5/2 6/6/2
f 1/1/3 3/3/3 4/7/3
f 1/8/4 4/9/4 5/10/4
f 1/8/5 5/10/5 6/11/5
f 2/12/6 6/13/6 11/14/6
f 3/3/7 2/2/7 7/15/7
f 4/7/8 3/3/8 8/16/8
f 5/10/9 4/9/9 9/17/9
f 6/11/10 5/10/10 10/18/10
f 2/2/11 11/19/11 7/15/11
f 3/3/12 7/15/12 8/16/12
f 4/20/13 8/21/13 9/22/13
f 5/10/14 9/17/14 10/18/14
f 6/11/15 10/18/15 11/23/15
f 7/15/16 11/19/16 12/24/16
f 8/16/17 7/15/17 12/24/17
f 9/25/18 8/26/18 12/27/18
f 10/18/19 9/17/19 12/28/19
f 11/23/20 10/18/20 12/28/20
f 13/29/21 14/30/21 15/31/21
f 14/32/22 13/33/22 18/34/22
f 13/29/23 15/31/23 16/35/23
f 13/36/24 16/37/24 17/38/24
f 13/36/25 17/38/25 18/39/25
f 14/32/26 18/34/26 23/40/26
f 15/31/27 14/30/27 19/41/27
f 16/35/28 15/31/28 20/42/28
f 17/38/29 16/37/29 21/43/29
f 18/39/30 17/38/30 22/44/30
f 14/30/31 23/45/31 19/41/31
f 15/31/32 19/41/32 20/42/32
f 16/46/33 20/47/33 21/48/33
f 17/38/34 21/43/34 22/44/34
f 18/39/35 22/44/35 23/49/35
f 19/41/36 23/45/36 24/50/36
f 20/42/37 19/41/37 24/50/37
f 21/48/38 20/47/38 24/51/38
f 22/44/39 21/43/39 24/52/39
f 23/49/40 22/44/40 24/52/40
