# Blender 5.0.1
# www.blender.org
mtllib searock_g.mtl
o searock_g_rock
usemtl searock_g_rock
v -0.657043 0.280611 -0.659030
v 0.375493 0.106056 -0.998962
v -0.541936 0.000000 -0.041942
v -1.079529 0.280611 0.532147
v -0.464009 0.522978 -0.035911
v 0.313232 0.423724 -0.818608
v 0.541936 0.029289 0.041942
v -0.311658 0.108154 0.991544
v -0.282830 0.438510 0.908036
v 0.557969 0.539801 0.043183
v 1.065653 0.280611 -0.492397
v 0.760963 0.280611 0.706244
v 0.192785 0.202611 -0.876622
v 0.690461 0.122788 -0.471282
v -0.038678 0.071680 -0.530869
v -0.402019 0.202611 -0.523174
v -0.008206 0.311922 -0.487480
v 0.767454 0.293719 -0.500008
v 0.313624 0.083589 -0.029225
v -0.463320 0.113321 -0.040814
v -0.338865 0.273659 -0.087247
v 0.307274 0.317128 -0.038267
v 0.812016 0.202611 0.042041
v 0.109647 0.202611 0.201640
vn -0.2687 -0.8947 -0.3567
vn -0.2092 0.4515 -0.8674
vn -0.6272 -0.7464 -0.2224
vn -0.4973 0.8495 -0.1764
vn -0.1879 0.9337 -0.3050
vn 0.4221 0.5087 -0.7504
vn 0.0330 -0.9963 -0.0788
vn -0.3101 -0.9359 0.1670
vn -0.2533 0.9580 0.1343
vn -0.0061 0.9913 -0.1318
vn 0.3261 -0.9375 -0.1213
vn 0.0192 -0.9948 0.0998
vn -0.4535 0.2554 0.8539
vn -0.0236 0.9953 0.0936
vn 0.2671 0.9421 -0.2027
vn 0.5386 -0.8313 0.1369
vn 0.2244 -0.9336 0.2792
vn 0.2173 0.2214 0.9507
vn 0.1996 0.9318 0.3031
vn 0.5662 0.8116 0.1439
vn 0.0910 -0.9500 -0.2988
vn 0.5492 -0.3731 -0.7478
vn -0.3016 -0.8071 -0.5075
vn -0.2178 0.9045 -0.3666
vn 0.0184 0.9650 -0.2616
vn 0.8928 -0.4265 -0.1451
vn 0.0721 -0.9970 -0.0270
vn -0.3353 -0.9178 -0.2125
vn -0.2555 0.9594 -0.1194
vn 0.0230 0.9994 -0.0277
vn 0.2177 -0.9709 0.0994
vn -0.0390 -0.9979 0.0510
vn -0.7879 0.6156 0.0138
vn -0.0699 0.9968 0.0375
vn 0.1966 0.9694 0.1468
vn 0.1222 -0.8340 0.5380
vn -0.0409 -0.9024 0.4290
vn -0.3995 0.5273 0.7499
vn -0.0901 0.9256 0.3676
vn 0.1143 0.8566 0.5031
vt -0.686883 0.661339
vt 0.345653 1.001271
vt -0.571776 0.044251
vt -0.345653 0.035445
vt 0.686883 0.210000
vt -0.283392 0.353114
vt -1.109369 -0.529837
vt -0.686883 -0.661339
vt -1.109369 0.529837
vt -0.493849 -0.038220
vt 0.283392 -0.820917
vt -1.035813 0.210000
vt 0.512096 -0.039632
vt -0.341498 -0.989234
vt -0.312670 0.905727
vt 0.528129 0.040873
vt 1.035813 0.494707
vt -1.109369 0.210000
vt -0.341498 0.037543
vt -0.312670 0.367899
vt 1.035813 -0.494707
vt 0.731124 -0.703935
vt 0.731124 0.210000
vt 0.731124 0.703935
vt 0.162945 0.878931
vt 0.660621 0.473591
vt -0.068518 0.533179
vt -0.660621 0.052178
vt -0.162945 0.132000
vt -0.737615 0.223108
vt -0.431859 0.525483
vt 0.162945 -0.878931
vt -0.431859 -0.525483
vt -0.038046 -0.489789
vt 0.737615 -0.502317
vt 0.473591 0.052178
vt 0.502317 0.223108
vt -0.039731 0.132000
vt 0.283784 0.031534
vt -0.493160 0.043123
vt -0.368704 -0.089557
vt 0.277434 -0.040576
vt 0.782176 -0.039731
vt -0.525483 0.132000
vt -0.043123 0.042710
vt -0.089557 0.203048
vt 0.782176 0.039731
vt 0.079807 -0.199331
vt -0.368704 0.203048
vt -0.493160 0.042710
vt 0.079807 0.132000
vt 0.079807 0.199331
s 0
f 1/1/1 2/2/1 3/3/1
f 2/4/2 1/5/2 6/6/2
f 1/1/3 3/3/3 4/7/3
f 1/8/4 4/9/4 5/10/4
f 1/8/5 5/10/5 6/11/5
f 2/4/6 6/6/6 11/12/6
f 3/3/7 2/2/7 7/13/7
f 4/7/8 3/3/8 8/14/8
f 5/10/9 4/9/9 9/15/9
f 6/11/10 5/10/10 10/16/10
f 2/2/11 11/17/11 7/13/11
f 3/3/12 7/13/12 8/14/12
f 4/18/13 8/19/13 9/20/13
f 5/10/14 9/15/14 10/16/14
f 6/11/15 10/16/15 11/21/15
f 7/13/16 11/17/16 12/22/16
f 8/14/17 7/13/17 12/22/17
f 9/20/18 8/19/18 12/23/18
f 10/16/19 9/15/19 12/24/19
f 11/21/20 10/16/20 12/24/20
f 13/25/21 14/26/21 15/27/21
f 14/28/22 13/29/22 18/30/22
f 13/25/23 15/27/23 16/31/23
f 13/32/24 16/33/24 17/34/24
f 13/32/25 17/34/25 18/35/25
f 14/36/26 18/37/26 23/38/26
f 15/27/27 14/26/27 19/39/27
f 16/31/28 15/27/28 20/40/28
f 17/34/29 16/33/29 21/41/29
f 18/35/30 17/34/30 22/42/30
f 14/26/31 23/43/31 19/39/31
f 15/27/32 19/39/32 20/40/32
f 16/44/33 20/45/33 21/46/33
f 17/34/34 21/41/34 22/42/34
f 18/35/35 22/42/35 23/47/35
f 19/39/36 23/43/36 24/48/36
f 20/40/37 19/39/37 24/48/37
f 21/49/38 20/50/38 24/51/38
f 22/42/39 21/41/39 24/52/39
f 23/47/40 22/42/40 24/52/40
