# Blender 5.0.1
# www.blender.org
mtllib searock_l.mtl
o searock_l_rock
usemtl searock_l_rock
v -0.379996 0.611436 -0.627281
v 0.106282 0.229534 -0.510374
v -0.431661 0.039778 -0.311491
v -0.743312 0.611436 -0.204279
v -0.435913 1.194748 -0.314560
v 0.108304 0.995682 -0.512519
v 0.000000 0.000000 0.000000
v -0.525723 0.260531 0.160052
v -0.532444 0.970134 0.167182
v -0.010998 1.192728 -0.007936
v 0.360759 0.611436 -0.112390
v -0.074639 0.611436 0.280173
v -0.003479 1.385196 -0.418253
v 0.041859 1.043926 -0.045504
v -0.235607 0.838107 -0.384792
v -0.389778 1.385196 -0.538888
v -0.241039 1.877964 -0.364994
v -0.004333 1.679009 -0.064956
v -0.335215 0.936159 -0.021728
v -0.617367 1.049185 -0.323124
v -0.611414 1.715091 -0.320617
v -0.342056 1.902648 0.003207
v -0.178658 1.385196 0.211431
v -0.537740 1.385196 0.015478
v -0.392553 2.037276 -0.243164
v -0.300232 1.765174 -0.438330
v -0.280822 1.623387 -0.180574
v -0.282529 2.037276 -0.002329
v -0.271253 2.408001 -0.188197
v -0.300038 2.308901 -0.438007
v -0.086779 1.575898 -0.335174
v -0.092576 1.801104 -0.093412
v -0.081575 2.300375 -0.075139
v -0.092304 2.473729 -0.330772
v -0.100831 2.037276 -0.490965
v 0.018143 2.037276 -0.264387
vn -0.1572 -0.4666 -0.8704
vn 0.2313 -0.0033 -0.9729
vn -0.7283 -0.2797 -0.6255
vn -0.7311 0.2666 -0.6280
vn -0.1524 0.4556 -0.8771
vn 0.8441 -0.0037 -0.5362
vn 0.1839 -0.9102 -0.3711
vn -0.8725 -0.4857 0.0533
vn -0.8804 0.4722 0.0438
vn 0.2263 0.9243 -0.3074
vn 0.8557 -0.5147 -0.0533
vn -0.3302 -0.8785 0.3454
vn -0.8640 -0.0132 0.5033
vn -0.2591 0.8942 0.3650
vn 0.8414 0.5403 -0.0120
vn 0.6483 -0.2503 0.7190
vn 0.0749 -0.4078 0.9100
vn -0.2485 -0.0121 0.9686
vn 0.1166 0.4308 0.8949
vn 0.6423 0.2828 0.7124
vn 0.8162 -0.3733 -0.4410
vn 0.9959 0.0707 -0.0564
vn 0.2931 -0.1818 -0.9386
vn 0.2894 0.2397 -0.9267
vn 0.8242 0.4364 -0.3609
vn 0.8046 0.0766 0.5889
vn 0.2789 -0.9051 0.3210
vn -0.3307 -0.3410 -0.8800
vn -0.2779 0.3932 -0.8765
vn 0.5633 0.8203 0.0995
vn 0.1973 -0.5051 0.8402
vn -0.4675 -0.8773 0.1087
vn -0.6949 0.0089 -0.7191
vn -0.4138 0.8937 -0.1734
vn 0.4544 0.4523 0.7674
vn -0.4602 -0.2774 0.8433
vn -0.7420 -0.3804 0.5520
vn -0.9751 0.0079 0.2215
vn -0.8113 0.3184 0.4904
vn -0.4695 0.1980 0.8604
vn -0.9596 -0.2706 -0.0766
vn -0.9037 0.0006 -0.4283
vn -0.8948 -0.1797 0.4088
vn -0.8853 0.2297 0.4044
vn -0.9497 0.3129 -0.0147
vn -0.2561 0.0007 -0.9667
vn -0.4991 -0.7746 -0.3885
vn -0.0516 -0.3952 0.9171
vn -0.2632 0.4388 0.8592
vn -0.5115 0.8173 -0.2653
vn 0.1765 -0.3101 -0.9342
vn 0.3460 -0.6824 0.6439
vn 0.3888 -0.0423 0.9204
vn 0.1377 0.8224 0.5519
vn 0.2100 0.3333 -0.9191
vn 0.8780 -0.1289 -0.4610
vn 0.9332 -0.2516 0.2567
vn 0.8616 -0.0375 0.5062
vn 0.9550 0.2627 0.1380
vn 0.8751 0.1516 -0.4595
vt 0.132588 0.546000
vt -0.353690 0.164099
vt 0.184252 -0.025658
vt -0.355713 0.930246
vt -0.433801 0.546000
vt -0.118010 -0.025658
vt -0.010799 0.546000
vt -0.121079 1.129313
vt 0.188504 1.129313
vt 0.316893 0.164099
vt 0.319039 0.930246
vt -0.081091 0.546000
vt -0.184252 0.118010
vt 0.353690 0.316893
vt 0.247408 -0.193481
vt 0.353533 0.195095
vt 0.360662 0.904698
vt 0.355713 -0.319039
vt -0.188504 -0.121079
vt 0.236410 0.185544
vt -0.193481 -0.065436
vt -0.278315 -0.353533
vt -0.285036 0.360662
vt -0.185544 1.127292
vt 0.247408 -0.065436
vt 0.608167 0.546000
vt 0.172770 0.546000
vt -0.278315 0.195095
vt -0.285036 0.904698
vt 0.236410 1.127292
vt 0.224773 1.319760
vt -0.147977 0.978491
vt 0.191311 0.772671
vt -0.128525 1.613573
vt -0.243929 1.319760
vt -0.011801 0.772671
vt 0.142369 1.319760
vt -0.006370 1.812529
vt 0.171513 1.812529
vt -0.404912 1.319760
vt 0.011801 0.191311
vt 0.289267 -0.147977
vt -0.087806 -0.171752
vt 0.369958 0.983749
vt 0.364006 1.649655
vt 0.243076 0.128525
vt 0.006370 -0.171513
vt -0.094648 0.196688
vt 0.289267 0.978491
vt 0.068750 1.319760
vt -0.087806 0.870723
vt -0.369958 0.129643
vt -0.364006 -0.127136
vt 0.243076 1.613573
vt -0.094648 1.837212
vt -0.290332 1.319760
vt -0.129643 0.983749
vt 0.171752 0.870723
vt 0.208959 1.319760
vt -0.127136 1.649655
vt 0.196688 1.837212
vt -0.049684 1.971840
vt -0.244849 1.699739
vt 0.012907 1.557952
vt -0.244526 2.243465
vt 0.191152 1.971840
vt 0.005283 2.342566
vt 0.052824 1.699739
vt 0.052629 2.243465
vt -0.146578 1.971840
vt -0.033414 -0.012907
vt -0.052824 0.244849
vt 0.160630 0.141694
vt -0.035120 1.971840
vt -0.033414 1.557952
vt 0.154832 1.735668
vt -0.023845 2.342566
vt 0.165833 2.234939
vt -0.052629 -0.244526
vt -0.023845 0.005283
vt 0.155104 -0.137291
vt -0.160630 1.510462
vt 0.154832 -0.100069
vt 0.165833 0.118342
vt -0.155104 2.408293
vt 0.141694 1.510462
vt 0.297485 1.971840
vt 0.070907 1.971840
vt -0.100069 1.735668
vt -0.118342 2.234939
vt 0.137291 2.408293
s 0
f 1/1/1 2/2/1 3/3/1
f 2/2/2 1/1/2 6/4/2
f 1/5/3 3/6/3 4/7/3
f 1/5/4 4/7/4 5/8/4
f 1/1/5 5/9/5 6/4/5
f 2/10/6 6/11/6 11/12/6
f 3/13/7 2/14/7 7/15/7
f 4/7/8 3/6/8 8/16/8
f 5/8/9 4/7/9 9/17/9
f 6/18/10 5/19/10 10/20/10
f 2/10/11 11/12/11 7/21/11
f 3/13/12 7/15/12 8/22/12
f 4/7/13 8/16/13 9/17/13
f 5/19/14 9/23/14 10/20/14
f 6/11/15 10/24/15 11/12/15
f 7/25/16 11/26/16 12/27/16
f 8/28/17 7/25/17 12/27/17
f 9/29/18 8/28/18 12/27/18
f 10/30/19 9/29/19 12/27/19
f 11/26/20 10/30/20 12/27/20
f 13/31/21 14/32/21 15/33/21
f 14/32/22 13/31/22 18/34/22
f 13/35/23 15/36/23 16/37/23
f 13/35/24 16/37/24 17/38/24
f 13/31/25 17/39/25 18/34/25
f 14/32/26 18/34/26 23/40/26
f 15/41/27 14/42/27 19/43/27
f 16/37/28 15/36/28 20/44/28
f 17/38/29 16/37/29 21/45/29
f 18/46/30 17/47/30 22/48/30
f 14/49/31 23/50/31 19/51/31
f 15/41/32 19/43/32 20/52/32
f 16/37/33 20/44/33 21/45/33
f 17/47/34 21/53/34 22/48/34
f 18/54/35 22/55/35 23/50/35
f 19/51/36 23/50/36 24/56/36
f 20/57/37 19/58/37 24/59/37
f 21/60/38 20/57/38 24/59/38
f 22/61/39 21/60/39 24/59/39
f 23/50/40 22/55/40 24/56/40
f 25/62/41 26/63/41 27/64/41
f 26/63/42 25/62/42 30/65/42
f 25/62/43 27/64/43 28/66/43
f 25/62/44 28/66/44 29/67/44
f 25/62/45 29/67/45 30/65/45
f 26/68/46 30/69/46 35/70/46
f 27/71/47 26/72/47 31/73/47
f 28/74/48 27/75/48 32/76/48
f 29/77/49 28/74/49 33/78/49
f 30/79/50 29/80/50 34/81/50
f 26/68/51 35/70/51 31/82/51
f 27/71/52 31/73/52 32/83/52
f 28/74/53 32/76/53 33/78/53
f 29/80/54 33/84/54 34/81/54
f 30/69/55 34/85/55 35/70/55
f 31/86/56 35/87/56 36/88/56
f 32/89/57 31/86/57 36/88/57
f 33/90/58 32/89/58 36/88/58
f 34/91/59 33/90/59 36/88/59
f 35/87/60 34/91/60 36/88/60
