# Blender 5.0.1
# www.blender.org
mtllib searock_k.mtl
o searock_k_rock
usemtl searock_k_rock
v -0.286513 0.442247 0.174962
v -0.263070 0.212880 -0.151306
v -0.083373 0.013181 0.190245
v 0.054806 0.442247 0.430374
v -0.072963 0.816916 0.166491
v -0.265486 0.673731 -0.152729
v 0.083373 0.000000 -0.190245
v 0.259205 0.214056 0.156272
v 0.266861 0.677145 0.160781
v 0.071761 0.823816 -0.163748
v -0.055033 0.442247 -0.407114
v 0.282593 0.442247 -0.168364
v 0.227427 0.977927 0.276546
v -0.042730 0.758295 0.270283
v 0.207107 0.597754 0.098994
v 0.313469 0.977927 -0.004865
v 0.200388 1.340378 0.096707
v -0.048406 1.209351 0.282114
v -0.083127 0.592580 0.000205
v 0.165725 0.764419 -0.164271
v 0.166996 1.194076 -0.166921
v -0.062280 1.308286 0.007302
v -0.219442 0.977927 0.111714
v -0.084413 0.977927 -0.153154
v -0.147590 1.429367 0.034167
v -0.055908 1.246172 -0.103753
v -0.053850 1.113146 0.085575
v -0.045760 1.429367 0.198869
v -0.053969 1.746085 0.085665
v -0.051941 1.603195 -0.097017
v 0.084343 1.167016 -0.019802
v 0.104193 1.234542 0.168077
v 0.104883 1.625821 0.169249
v 0.098052 1.749115 -0.030256
v 0.081441 1.429367 -0.123450
v 0.189495 1.429367 0.021847
vn -0.8837 -0.4104 0.2250
vn -0.9977 -0.0054 -0.0679
vn -0.5805 -0.2472 0.7758
vn -0.5638 0.3384 0.7534
vn -0.8299 0.4794 0.2854
vn -0.7732 -0.0060 -0.6342
vn -0.5291 -0.8238 -0.2033
vn 0.3916 -0.5422 0.7434
vn 0.2650 0.6140 0.7435
vn -0.4057 0.9000 -0.1590
vn -0.3945 -0.5012 -0.7702
vn 0.5080 -0.8239 0.2512
vn 0.7938 -0.0190 0.6078
vn 0.3765 0.9079 0.1840
vn -0.2834 0.5809 -0.7631
vn 0.5639 -0.2146 -0.7975
vn 0.8950 -0.3927 -0.2116
vn 0.9981 -0.0171 0.0599
vn 0.8356 0.4652 -0.2921
vn 0.5485 0.3124 -0.7756
vn 0.3177 -0.4151 0.8525
vn -0.0018 -0.0262 0.9997
vn 0.9399 -0.1844 0.2874
vn 0.9347 0.2115 0.2858
vn 0.3803 0.4337 0.8169
vn -0.6865 -0.0277 0.7266
vn -0.1669 -0.8291 0.5337
vn 0.8718 -0.3402 -0.3524
vn 0.8786 0.3615 -0.3119
vn -0.2272 0.9126 0.3400
vn -0.8357 -0.4034 0.3725
vn 0.2005 -0.8132 -0.5463
vn 0.7376 -0.0063 -0.6752
vn 0.0606 0.8695 -0.4902
vn -0.8542 0.4739 0.2137
vn -0.8762 -0.1807 -0.4467
vn -0.3369 -0.3491 -0.8744
vn -0.0495 -0.0060 -0.9988
vn -0.4064 0.4211 -0.8109
vn -0.8579 0.2699 -0.4373
vn -0.9283 -0.3088 -0.2069
vn -0.8202 0.0199 -0.5717
vn -0.8390 -0.1644 0.5187
vn -0.8391 0.1637 0.5188
vn -0.9155 0.3119 -0.2542
vn -0.1686 0.0205 -0.9855
vn -0.1177 -0.8131 -0.5700
vn -0.2311 -0.3229 0.9178
vn -0.2389 0.3213 0.9163
vn -0.4386 0.7055 -0.5567
vn 0.3321 -0.3434 -0.8785
vn 0.5077 -0.8264 0.2434
vn 0.1970 -0.0033 0.9804
vn 0.3525 0.8014 0.4832
vn 0.1616 0.2684 -0.9497
vn 0.7825 -0.2213 -0.5820
vn 0.9255 -0.3769 0.0377
vn 0.8655 -0.0030 0.5009
vn 0.9439 0.2943 0.1496
vn 0.7955 0.1311 -0.5916
vt 0.125280 0.378000
vt -0.200989 0.148633
vt 0.140563 -0.051066
vt -0.202412 0.609484
vt -0.317861 0.378000
vt -0.114721 -0.051066
vt 0.023458 0.378000
vt -0.104311 0.752669
vt 0.116808 0.752669
vt -0.456796 0.378000
vt -0.114721 -0.140563
vt -0.294418 0.200989
vt 0.052025 0.239927
vt 0.227857 0.149809
vt 0.235513 0.612898
vt -0.296834 -0.202412
vt -0.104311 0.116808
vt 0.040413 -0.213430
vt 0.294418 0.148633
vt 0.086381 0.378000
vt -0.052025 -0.064247
vt 0.227857 -0.106589
vt -0.380691 0.378000
vt -0.106589 0.149809
vt -0.111098 0.612898
vt 0.235513 0.111098
vt 0.296834 0.609484
vt -0.040413 0.759569
vt -0.251245 0.378000
vt 0.239927 -0.064247
vt 0.218046 0.378000
vt 0.213430 0.759569
vt 0.196079 0.913680
vt -0.074079 0.694048
vt 0.175759 0.533507
vt -0.079754 1.145104
vt -0.226864 0.913680
vt -0.049312 0.533507
vt 0.054547 0.913680
vt -0.047025 1.276131
vt 0.169040 1.276131
vt -0.250790 0.913680
vt 0.175759 -0.049312
vt -0.074079 -0.220600
vt -0.114476 0.049477
vt 0.213954 0.700172
vt 0.216603 1.129829
vt -0.079754 0.232431
vt 0.169040 0.047025
vt -0.093628 -0.042381
vt 0.220600 0.694048
vt 0.062032 0.913680
vt -0.049477 0.528333
vt 0.134377 0.213954
vt 0.135648 -0.216603
vt 0.232431 1.145104
vt -0.042381 1.244039
vt -0.202836 0.913680
vt -0.134377 0.700172
vt 0.114476 0.528333
vt 0.115762 0.913680
vt -0.135648 1.129829
vt 0.093628 1.244039
vt -0.015515 1.365120
vt -0.153435 1.181925
vt 0.035892 1.048900
vt -0.146700 1.538948
vt 0.149186 1.365120
vt 0.035983 1.681838
vt 0.087256 1.181925
vt 0.083289 1.538948
vt -0.050093 1.365120
vt -0.085198 -0.035892
vt -0.087256 0.153435
vt 0.052995 0.069484
vt -0.077108 1.365120
vt -0.085198 1.048900
vt 0.072845 1.170295
vt -0.085317 1.681838
vt 0.073535 1.561574
vt -0.083289 -0.146700
vt -0.085317 0.035983
vt 0.066704 -0.079938
vt -0.052995 1.102769
vt 0.072845 -0.118395
vt 0.073535 0.119567
vt -0.066704 1.684868
vt 0.069484 1.102769
vt 0.173132 1.365120
vt 0.027835 1.365120
vt -0.118395 1.170295
vt -0.119567 1.561574
vt 0.079938 1.684868
s 0
f 1/1/1 2/2/1 3/3/1
f 2/2/2 1/1/2 6/4/2
f 1/5/3 3/6/3 4/7/3
f 1/5/4 4/7/4 5/8/4
f 1/1/5 5/9/5 6/4/5
f 2/2/6 6/4/6 11/10/6
f 3/11/7 2/12/7 7/13/7
f 4/7/8 3/6/8 8/14/8
f 5/8/9 4/7/9 9/15/9
f 6/16/10 5/17/10 10/18/10
f 2/19/11 11/20/11 7/21/11
f 3/11/12 7/13/12 8/22/12
f 4/23/13 8/24/13 9/25/13
f 5/17/14 9/26/14 10/18/14
f 6/27/15 10/28/15 11/20/15
f 7/21/16 11/20/16 12/29/16
f 8/24/17 7/30/17 12/31/17
f 9/25/18 8/24/18 12/31/18
f 10/32/19 9/25/19 12/31/19
f 11/20/20 10/28/20 12/29/20
f 13/33/21 14/34/21 15/35/21
f 14/34/22 13/33/22 18/36/22
f 13/37/23 15/38/23 16/39/23
f 13/37/24 16/39/24 17/40/24
f 13/33/25 17/41/25 18/36/25
f 14/34/26 18/36/26 23/42/26
f 15/43/27 14/44/27 19/45/27
f 16/39/28 15/38/28 20/46/28
f 17/40/29 16/39/29 21/47/29
f 18/48/30 17/49/30 22/50/30
f 14/51/31 23/52/31 19/53/31
f 15/43/32 19/45/32 20/54/32
f 16/39/33 20/46/33 21/47/33
f 17/49/34 21/55/34 22/50/34
f 18/56/35 22/57/35 23/52/35
f 19/53/36 23/52/36 24/58/36
f 20/59/37 19/60/37 24/61/37
f 21/62/38 20/59/38 24/61/38
f 22/63/39 21/62/39 24/61/39
f 23/52/40 22/57/40 24/58/40
f 25/64/41 26/65/41 27/66/41
f 26/65/42 25/64/42 30/67/42
f 25/64/43 27/66/43 28/68/43
f 25/64/44 28/68/44 29/69/44
f 25/64/45 29/69/45 30/67/45
f 26/70/46 30/71/46 35/72/46
f 27/73/47 26/74/47 31/75/47
f 28/76/48 27/77/48 32/78/48
f 29/79/49 28/76/49 33/80/49
f 30/81/50 29/82/50 34/83/50
f 26/70/51 35/72/51 31/84/51
f 27/73/52 31/75/52 32/85/52
f 28/76/53 32/78/53 33/80/53
f 29/82/54 33/86/54 34/83/54
f 30/71/55 34/87/55 35/72/55
f 31/88/56 35/89/56 36/90/56
f 32/91/57 31/88/57 36/90/57
f 33/92/58 32/91/58 36/90/58
f 34/93/59 33/92/59 36/90/59
f 35/89/60 34/93/60 36/90/60
